<?xml version="1.0" encoding="UTF-8" standalone="no"?>
<!DOCTYPE svg PUBLIC "-//W3C//DTD SVG 1.1//EN"
 "http://www.w3.org/Graphics/SVG/1.1/DTD/svg11.dtd">
<!-- Generated by graphviz version 2.43.0 (0)
 -->
<!-- Title: Ogre::ParticleEmitterFactory Pages: 1 -->
<svg width="419pt" height="222pt"
 viewBox="0.00 0.00 418.63 222.00" xmlns="http://www.w3.org/2000/svg" xmlns:xlink="http://www.w3.org/1999/xlink">
<g id="graph0" class="graph" transform="scale(1 1) rotate(0) translate(4 218)">
<title>Ogre::ParticleEmitterFactory</title>
<!-- Node1 -->
<g id="node1" class="node">
<title>Node1</title>
<g id="a_node1"><a xlink:title="Abstract class defining the interface to be implemented by creators of ParticleEmitter subclasses.">
<polygon fill="#bfbfbf" stroke="black" points="86.45,-100.5 86.45,-118.5 228.6,-118.5 228.6,-100.5 86.45,-100.5"/>
<text text-anchor="middle" x="157.52" y="-106.5" font-family="Helvetica,sans-Serif" font-size="10.00">Ogre::ParticleEmitterFactory</text>
</a>
</g>
</g>
<!-- Node3 -->
<g id="node3" class="node">
<title>Node3</title>
<g id="a_node3"><a xlink:href="class_ogre_1_1_box_emitter_factory.html" target="_top" xlink:title="Factory class for particle emitter of type &quot;Box&quot;.">
<polygon fill="none" stroke="black" points="274.6,-195.5 274.6,-213.5 400.63,-213.5 400.63,-195.5 274.6,-195.5"/>
<text text-anchor="middle" x="337.62" y="-201.5" font-family="Helvetica,sans-Serif" font-size="10.00">Ogre::BoxEmitterFactory</text>
</a>
</g>
</g>
<!-- Node1&#45;&gt;Node3 -->
<g id="edge2" class="edge">
<title>Node1&#45;&gt;Node3</title>
<path fill="none" stroke="midnightblue" d="M175.85,-125.36C195.82,-142.81 230.31,-170.51 264.6,-186.5 272.3,-190.1 280.83,-193.03 289.23,-195.41"/>
<polygon fill="midnightblue" stroke="midnightblue" points="178.02,-122.61 168.23,-118.57 173.37,-127.83 178.02,-122.61"/>
</g>
<!-- Node4 -->
<g id="node4" class="node">
<title>Node4</title>
<g id="a_node4"><a xlink:href="class_ogre_1_1_cylinder_emitter_factory.html" target="_top" xlink:title="Factory class for particle emitter of type &quot;Cylinder&quot;.">
<polygon fill="none" stroke="black" points="264.88,-158.5 264.88,-176.5 410.35,-176.5 410.35,-158.5 264.88,-158.5"/>
<text text-anchor="middle" x="337.62" y="-164.5" font-family="Helvetica,sans-Serif" font-size="10.00">Ogre::CylinderEmitterFactory</text>
</a>
</g>
</g>
<!-- Node1&#45;&gt;Node4 -->
<g id="edge3" class="edge">
<title>Node1&#45;&gt;Node4</title>
<path fill="none" stroke="midnightblue" d="M189.57,-122.29C210.54,-130.67 238.97,-141.5 264.6,-149.5 274.93,-152.73 286.24,-155.78 296.76,-158.41"/>
<polygon fill="midnightblue" stroke="midnightblue" points="190.79,-119.01 180.21,-118.52 188.17,-125.5 190.79,-119.01"/>
</g>
<!-- Node5 -->
<g id="node5" class="node">
<title>Node5</title>
<g id="a_node5"><a xlink:href="class_ogre_1_1_ellipsoid_emitter_factory.html" target="_top" xlink:title="Factory class for particle emitter of type &quot;Ellipsoid&quot;.">
<polygon fill="none" stroke="black" points="264.6,-121.5 264.6,-139.5 410.63,-139.5 410.63,-121.5 264.6,-121.5"/>
<text text-anchor="middle" x="337.62" y="-127.5" font-family="Helvetica,sans-Serif" font-size="10.00">Ogre::EllipsoidEmitterFactory</text>
</a>
</g>
</g>
<!-- Node1&#45;&gt;Node5 -->
<g id="edge4" class="edge">
<title>Node1&#45;&gt;Node5</title>
<path fill="none" stroke="midnightblue" d="M238.68,-118.95C247.29,-119.97 256,-120.99 264.5,-122"/>
<polygon fill="midnightblue" stroke="midnightblue" points="239,-115.46 228.65,-117.77 238.18,-122.42 239,-115.46"/>
</g>
<!-- Node6 -->
<g id="node6" class="node">
<title>Node6</title>
<g id="a_node6"><a xlink:href="class_ogre_1_1_hollow_ellipsoid_emitter_factory.html" target="_top" xlink:title="Factory class for particle emitter of type &quot;HollowEllipsoid&quot;.">
<polygon fill="none" stroke="black" points="266.26,-74.5 266.26,-102.5 408.97,-102.5 408.97,-74.5 266.26,-74.5"/>
<text text-anchor="start" x="274.26" y="-90.5" font-family="Helvetica,sans-Serif" font-size="10.00">Ogre::HollowEllipsoidEmitter</text>
<text text-anchor="middle" x="337.62" y="-80.5" font-family="Helvetica,sans-Serif" font-size="10.00">Factory</text>
</a>
</g>
</g>
<!-- Node1&#45;&gt;Node6 -->
<g id="edge5" class="edge">
<title>Node1&#45;&gt;Node6</title>
<path fill="none" stroke="midnightblue" d="M238.59,-100.06C247.82,-98.97 257.17,-97.87 266.26,-96.8"/>
<polygon fill="midnightblue" stroke="midnightblue" points="238.18,-96.58 228.65,-101.23 239,-103.54 238.18,-96.58"/>
</g>
<!-- Node7 -->
<g id="node7" class="node">
<title>Node7</title>
<g id="a_node7"><a xlink:href="class_ogre_1_1_point_emitter_factory.html" target="_top" xlink:title="Factory class for particle emitter of type &quot;Point&quot;.">
<polygon fill="none" stroke="black" points="271.82,-37.5 271.82,-55.5 403.41,-55.5 403.41,-37.5 271.82,-37.5"/>
<text text-anchor="middle" x="337.62" y="-43.5" font-family="Helvetica,sans-Serif" font-size="10.00">Ogre::PointEmitterFactory</text>
</a>
</g>
</g>
<!-- Node1&#45;&gt;Node7 -->
<g id="edge6" class="edge">
<title>Node1&#45;&gt;Node7</title>
<path fill="none" stroke="midnightblue" d="M186.67,-96.13C207.79,-86.46 237.58,-73.55 264.6,-64.5 274.49,-61.19 285.34,-58.17 295.54,-55.59"/>
<polygon fill="midnightblue" stroke="midnightblue" points="184.94,-93.08 177.34,-100.46 187.88,-99.43 184.94,-93.08"/>
</g>
<!-- Node8 -->
<g id="node8" class="node">
<title>Node8</title>
<g id="a_node8"><a xlink:href="class_ogre_1_1_ring_emitter_factory.html" target="_top" xlink:title="Factory class for particle emitter of type &quot;Ring&quot;.">
<polygon fill="none" stroke="black" points="272.93,-0.5 272.93,-18.5 402.3,-18.5 402.3,-0.5 272.93,-0.5"/>
<text text-anchor="middle" x="337.62" y="-6.5" font-family="Helvetica,sans-Serif" font-size="10.00">Ogre::RingEmitterFactory</text>
</a>
</g>
</g>
<!-- Node1&#45;&gt;Node8 -->
<g id="edge7" class="edge">
<title>Node1&#45;&gt;Node8</title>
<path fill="none" stroke="midnightblue" d="M174.77,-93.39C194.41,-74.81 229.25,-44.64 264.6,-27.5 272.13,-23.84 280.49,-20.89 288.75,-18.5"/>
<polygon fill="midnightblue" stroke="midnightblue" points="172.33,-90.88 167.56,-100.34 177.19,-95.92 172.33,-90.88"/>
</g>
<!-- Node2 -->
<g id="node2" class="node">
<title>Node2</title>
<g id="a_node2"><a xlink:href="class_ogre_1_1_allocated_object.html" target="_top" xlink:title="Superclass for all objects that wish to use custom memory allocators when their new / delete operator...">
<polygon fill="none" stroke="black" points="0,-100.5 0,-118.5 50.45,-118.5 50.45,-100.5 0,-100.5"/>
<text text-anchor="middle" x="25.23" y="-106.5" font-family="Helvetica,sans-Serif" font-size="10.00">FXAlloc</text>
</a>
</g>
</g>
<!-- Node2&#45;&gt;Node1 -->
<g id="edge1" class="edge">
<title>Node2&#45;&gt;Node1</title>
<path fill="none" stroke="midnightblue" d="M60.94,-109.5C68.81,-109.5 77.44,-109.5 86.21,-109.5"/>
<polygon fill="midnightblue" stroke="midnightblue" points="60.73,-106 50.73,-109.5 60.73,-113 60.73,-106"/>
</g>
</g>
</svg>
