<?xml version="1.0" encoding="UTF-8" standalone="no"?>
<!DOCTYPE svg PUBLIC "-//W3C//DTD SVG 1.1//EN"
 "http://www.w3.org/Graphics/SVG/1.1/DTD/svg11.dtd">
<!-- Generated by graphviz version 2.43.0 (0)
 -->
<!-- Title: Ogre::GLSLMonolithicProgramManager Pages: 1 -->
<svg width="338pt" height="102pt"
 viewBox="0.00 0.00 337.93 102.00" xmlns="http://www.w3.org/2000/svg" xmlns:xlink="http://www.w3.org/1999/xlink">
<g id="graph0" class="graph" transform="scale(1 1) rotate(0) translate(4 98)">
<title>Ogre::GLSLMonolithicProgramManager</title>
<!-- Node1 -->
<g id="node1" class="node">
<title>Node1</title>
<g id="a_node1"><a xlink:title="Ogre assumes that there are separate vertex and fragment programs to deal with but GLSL has one progr...">
<polygon fill="#bfbfbf" stroke="black" points="84.22,-0.5 84.22,-28.5 236.95,-28.5 236.95,-0.5 84.22,-0.5"/>
<text text-anchor="start" x="92.22" y="-16.5" font-family="Helvetica,sans-Serif" font-size="10.00">Ogre::GLSLMonolithicProgram</text>
<text text-anchor="middle" x="160.59" y="-6.5" font-family="Helvetica,sans-Serif" font-size="10.00">Manager</text>
</a>
</g>
</g>
<!-- Node2 -->
<g id="node2" class="node">
<title>Node2</title>
<g id="a_node2"><a xlink:href="class_ogre_1_1_g_l_s_l_program_manager.html" target="_top" xlink:title="Ogre assumes that there are separate programs to deal with but GLSL has one program object that repre...">
<polygon fill="none" stroke="black" points="0,-70.5 0,-88.5 147.17,-88.5 147.17,-70.5 0,-70.5"/>
<text text-anchor="middle" x="73.59" y="-76.5" font-family="Helvetica,sans-Serif" font-size="10.00">Ogre::GLSLProgramManager</text>
</a>
</g>
</g>
<!-- Node2&#45;&gt;Node1 -->
<g id="edge1" class="edge">
<title>Node2&#45;&gt;Node1</title>
<path fill="none" stroke="midnightblue" d="M93.39,-64.16C108.17,-53.46 128.21,-38.95 142.55,-28.56"/>
<polygon fill="midnightblue" stroke="midnightblue" points="91.01,-61.56 84.96,-70.26 95.11,-67.23 91.01,-61.56"/>
</g>
<!-- Node3 -->
<g id="node3" class="node">
<title>Node3</title>
<g id="a_node3"><a xlink:href="class_ogre_1_1_singleton.html" target="_top" xlink:title=" ">
<polygon fill="none" stroke="black" points="165.24,-65.5 165.24,-93.5 329.93,-93.5 329.93,-65.5 165.24,-65.5"/>
<text text-anchor="start" x="173.24" y="-81.5" font-family="Helvetica,sans-Serif" font-size="10.00">Ogre::Singleton&lt; GLSLMonolithic</text>
<text text-anchor="middle" x="247.59" y="-71.5" font-family="Helvetica,sans-Serif" font-size="10.00">ProgramManager &gt;</text>
</a>
</g>
</g>
<!-- Node3&#45;&gt;Node1 -->
<g id="edge2" class="edge">
<title>Node3&#45;&gt;Node1</title>
<path fill="none" stroke="midnightblue" d="M221.38,-59.52C207.55,-49.51 190.95,-37.49 178.59,-28.54"/>
<polygon fill="midnightblue" stroke="midnightblue" points="219.41,-62.42 229.56,-65.45 223.51,-56.75 219.41,-62.42"/>
</g>
</g>
</svg>
