<?xml version="1.0" encoding="UTF-8" standalone="no"?>
<!DOCTYPE svg PUBLIC "-//W3C//DTD SVG 1.1//EN"
 "http://www.w3.org/Graphics/SVG/1.1/DTD/svg11.dtd">
<!-- Generated by graphviz version 2.43.0 (0)
 -->
<!-- Title: Ogre::GLSLProgramManager Pages: 1 -->
<svg width="332pt" height="92pt"
 viewBox="0.00 0.00 332.01 92.00" xmlns="http://www.w3.org/2000/svg" xmlns:xlink="http://www.w3.org/1999/xlink">
<g id="graph0" class="graph" transform="scale(1 1) rotate(0) translate(4 88)">
<title>Ogre::GLSLProgramManager</title>
<!-- Node1 -->
<g id="node1" class="node">
<title>Node1</title>
<g id="a_node1"><a xlink:title="Ogre assumes that there are separate programs to deal with but GLSL has one program object that repre...">
<polygon fill="#bfbfbf" stroke="black" points="87.78,-65.5 87.78,-83.5 234.95,-83.5 234.95,-65.5 87.78,-65.5"/>
<text text-anchor="middle" x="161.36" y="-71.5" font-family="Helvetica,sans-Serif" font-size="10.00">Ogre::GLSLProgramManager</text>
</a>
</g>
</g>
<!-- Node2 -->
<g id="node2" class="node">
<title>Node2</title>
<g id="a_node2"><a xlink:href="class_ogre_1_1_g_l_s_l_monolithic_program_manager.html" target="_top" xlink:title="Ogre assumes that there are separate vertex and fragment programs to deal with but GLSL has one progr...">
<polygon fill="none" stroke="black" points="0,-0.5 0,-28.5 152.72,-28.5 152.72,-0.5 0,-0.5"/>
<text text-anchor="start" x="8" y="-16.5" font-family="Helvetica,sans-Serif" font-size="10.00">Ogre::GLSLMonolithicProgram</text>
<text text-anchor="middle" x="76.36" y="-6.5" font-family="Helvetica,sans-Serif" font-size="10.00">Manager</text>
</a>
</g>
</g>
<!-- Node1&#45;&gt;Node2 -->
<g id="edge1" class="edge">
<title>Node1&#45;&gt;Node2</title>
<path fill="none" stroke="midnightblue" d="M141.2,-59.74C127.39,-50.32 109.19,-37.9 95.59,-28.62"/>
<polygon fill="midnightblue" stroke="midnightblue" points="139.31,-62.69 149.54,-65.44 143.26,-56.91 139.31,-62.69"/>
</g>
<!-- Node3 -->
<g id="node3" class="node">
<title>Node3</title>
<g id="a_node3"><a xlink:href="class_ogre_1_1_g_l_s_l_separable_program_manager.html" target="_top" xlink:title="Ogre assumes that there are separate vertex and fragment programs to deal with but GLSL has one progr...">
<polygon fill="none" stroke="black" points="170.71,-0.5 170.71,-28.5 324.01,-28.5 324.01,-0.5 170.71,-0.5"/>
<text text-anchor="start" x="178.71" y="-16.5" font-family="Helvetica,sans-Serif" font-size="10.00">Ogre::GLSLSeparableProgram</text>
<text text-anchor="middle" x="247.36" y="-6.5" font-family="Helvetica,sans-Serif" font-size="10.00">Manager</text>
</a>
</g>
</g>
<!-- Node1&#45;&gt;Node3 -->
<g id="edge2" class="edge">
<title>Node1&#45;&gt;Node3</title>
<path fill="none" stroke="midnightblue" d="M181.76,-59.74C195.73,-50.32 214.15,-37.9 227.91,-28.62"/>
<polygon fill="midnightblue" stroke="midnightblue" points="179.65,-56.94 173.32,-65.44 183.57,-62.75 179.65,-56.94"/>
</g>
</g>
</svg>
