<?xml version="1.0" encoding="UTF-8" standalone="no"?>
<!DOCTYPE svg PUBLIC "-//W3C//DTD SVG 1.1//EN"
 "http://www.w3.org/Graphics/SVG/1.1/DTD/svg11.dtd">
<!-- Generated by graphviz version 2.43.0 (0)
 -->
<!-- Title: Ogre::v1::HardwareBufferManagerBase Pages: 1 -->
<svg width="644pt" height="460pt"
 viewBox="0.00 0.00 644.30 460.00" xmlns="http://www.w3.org/2000/svg" xmlns:xlink="http://www.w3.org/1999/xlink">
<g id="graph0" class="graph" transform="scale(1 1) rotate(0) translate(4 456)">
<title>Ogre::v1::HardwareBufferManagerBase</title>
<!-- Node1 -->
<g id="node1" class="node">
<title>Node1</title>
<g id="a_node1"><a xlink:title="Base definition of a hardware buffer manager.">
<polygon fill="#bfbfbf" stroke="black" points="100.18,-258.5 100.18,-286.5 229.94,-286.5 229.94,-258.5 100.18,-258.5"/>
<text text-anchor="start" x="108.18" y="-274.5" font-family="Helvetica,sans-Serif" font-size="10.00">Ogre::v1::HardwareBuffer</text>
<text text-anchor="middle" x="165.06" y="-264.5" font-family="Helvetica,sans-Serif" font-size="10.00">ManagerBase</text>
</a>
</g>
</g>
<!-- Node3 -->
<g id="node3" class="node">
<title>Node3</title>
<g id="a_node3"><a xlink:href="class_ogre_1_1v1_1_1_d3_d11_hardware_buffer_manager_base.html" target="_top" xlink:title="Implementation of HardwareBufferManager for D3D11.">
<polygon fill="none" stroke="black" points="269.45,-423.5 269.45,-451.5 429.6,-451.5 429.6,-423.5 269.45,-423.5"/>
<text text-anchor="start" x="277.45" y="-439.5" font-family="Helvetica,sans-Serif" font-size="10.00">Ogre::v1::D3D11HardwareBuffer</text>
<text text-anchor="middle" x="349.53" y="-429.5" font-family="Helvetica,sans-Serif" font-size="10.00">ManagerBase</text>
</a>
</g>
</g>
<!-- Node1&#45;&gt;Node3 -->
<g id="edge2" class="edge">
<title>Node1&#45;&gt;Node3</title>
<path fill="none" stroke="midnightblue" d="M176.31,-296.01C191.34,-327.72 222.39,-383.76 265.94,-414.5 270.8,-417.93 276.16,-420.86 281.75,-423.34"/>
<polygon fill="midnightblue" stroke="midnightblue" points="179.35,-294.25 171.99,-286.63 172.99,-297.18 179.35,-294.25"/>
</g>
<!-- Node4 -->
<g id="node4" class="node">
<title>Node4</title>
<g id="a_node4"><a xlink:href="class_ogre_1_1v1_1_1_default_hardware_buffer_manager_base.html" target="_top" xlink:title="Specialisation of HardwareBufferManagerBase to emulate hardware buffers.">
<polygon fill="none" stroke="black" points="282.06,-376.5 282.06,-404.5 417,-404.5 417,-376.5 282.06,-376.5"/>
<text text-anchor="start" x="290.06" y="-392.5" font-family="Helvetica,sans-Serif" font-size="10.00">Ogre::v1::DefaultHardware</text>
<text text-anchor="middle" x="349.53" y="-382.5" font-family="Helvetica,sans-Serif" font-size="10.00">BufferManagerBase</text>
</a>
</g>
</g>
<!-- Node1&#45;&gt;Node4 -->
<g id="edge3" class="edge">
<title>Node1&#45;&gt;Node4</title>
<path fill="none" stroke="midnightblue" d="M183.44,-294.39C201.75,-316.02 232.53,-348.55 265.94,-367.5 272.02,-370.95 278.66,-373.91 285.43,-376.44"/>
<polygon fill="midnightblue" stroke="midnightblue" points="186.13,-292.15 177.05,-286.68 180.74,-296.61 186.13,-292.15"/>
</g>
<!-- Node5 -->
<g id="node5" class="node">
<title>Node5</title>
<g id="a_node5"><a xlink:href="class_ogre_1_1v1_1_1_g_l3_plus_default_hardware_buffer_manager_base.html" target="_top" xlink:title="Specialisation of HardwareBufferManager to emulate hardware buffers.">
<polygon fill="none" stroke="black" points="275.47,-329.5 275.47,-357.5 423.59,-357.5 423.59,-329.5 275.47,-329.5"/>
<text text-anchor="start" x="283.47" y="-345.5" font-family="Helvetica,sans-Serif" font-size="10.00">Ogre::v1::GL3PlusDefault</text>
<text text-anchor="middle" x="349.53" y="-335.5" font-family="Helvetica,sans-Serif" font-size="10.00">HardwareBufferManagerBase</text>
</a>
</g>
</g>
<!-- Node1&#45;&gt;Node5 -->
<g id="edge4" class="edge">
<title>Node1&#45;&gt;Node5</title>
<path fill="none" stroke="midnightblue" d="M201.3,-291.32C220.13,-300.89 243.91,-312.21 265.94,-320.5 274.58,-323.75 283.87,-326.77 293.01,-329.49"/>
<polygon fill="midnightblue" stroke="midnightblue" points="202.7,-288.1 192.21,-286.64 199.5,-294.33 202.7,-288.1"/>
</g>
<!-- Node6 -->
<g id="node6" class="node">
<title>Node6</title>
<g id="a_node6"><a xlink:href="class_ogre_1_1v1_1_1_g_l3_plus_hardware_buffer_manager_base.html" target="_top" xlink:title="Implementation of HardwareBufferManager for OpenGL.">
<polygon fill="none" stroke="black" points="278.72,-282.5 278.72,-310.5 420.33,-310.5 420.33,-282.5 278.72,-282.5"/>
<text text-anchor="start" x="286.72" y="-298.5" font-family="Helvetica,sans-Serif" font-size="10.00">Ogre::v1::GL3PlusHardware</text>
<text text-anchor="middle" x="349.53" y="-288.5" font-family="Helvetica,sans-Serif" font-size="10.00">BufferManagerBase</text>
</a>
</g>
</g>
<!-- Node1&#45;&gt;Node6 -->
<g id="edge5" class="edge">
<title>Node1&#45;&gt;Node6</title>
<path fill="none" stroke="midnightblue" d="M240.21,-282.25C252.93,-283.93 266.11,-285.66 278.71,-287.32"/>
<polygon fill="midnightblue" stroke="midnightblue" points="240.51,-278.76 230.13,-280.93 239.59,-285.7 240.51,-278.76"/>
</g>
<!-- Node7 -->
<g id="node7" class="node">
<title>Node7</title>
<g id="a_node7"><a xlink:href="class_ogre_1_1v1_1_1_g_l_e_s2_default_hardware_buffer_manager_base.html" target="_top" xlink:title="Specialisation of HardwareBufferManager to emulate hardware buffers.">
<polygon fill="none" stroke="black" points="265.94,-235.5 265.94,-263.5 433.12,-263.5 433.12,-235.5 265.94,-235.5"/>
<text text-anchor="start" x="273.94" y="-251.5" font-family="Helvetica,sans-Serif" font-size="10.00">Ogre::v1::GLES2DefaultHardware</text>
<text text-anchor="middle" x="349.53" y="-241.5" font-family="Helvetica,sans-Serif" font-size="10.00">BufferManagerBase</text>
</a>
</g>
</g>
<!-- Node1&#45;&gt;Node7 -->
<g id="edge6" class="edge">
<title>Node1&#45;&gt;Node7</title>
<path fill="none" stroke="midnightblue" d="M240.25,-263.15C248.63,-262.09 257.22,-261.01 265.71,-259.94"/>
<polygon fill="midnightblue" stroke="midnightblue" points="239.62,-259.7 230.13,-264.42 240.49,-266.65 239.62,-259.7"/>
</g>
<!-- Node8 -->
<g id="node8" class="node">
<title>Node8</title>
<g id="a_node8"><a xlink:href="class_ogre_1_1v1_1_1_g_l_e_s2_hardware_buffer_manager_base.html" target="_top" xlink:title="Implementation of HardwareBufferManager for OpenGL ES.">
<polygon fill="none" stroke="black" points="268.53,-188.5 268.53,-216.5 430.53,-216.5 430.53,-188.5 268.53,-188.5"/>
<text text-anchor="start" x="276.53" y="-204.5" font-family="Helvetica,sans-Serif" font-size="10.00">Ogre::v1::GLES2HardwareBuffer</text>
<text text-anchor="middle" x="349.53" y="-194.5" font-family="Helvetica,sans-Serif" font-size="10.00">ManagerBase</text>
</a>
</g>
</g>
<!-- Node1&#45;&gt;Node8 -->
<g id="edge7" class="edge">
<title>Node1&#45;&gt;Node8</title>
<path fill="none" stroke="midnightblue" d="M201.74,-253.92C220.51,-244.6 244.12,-233.61 265.94,-225.5 274.59,-222.29 283.89,-219.28 293.03,-216.57"/>
<polygon fill="midnightblue" stroke="midnightblue" points="200.03,-250.86 192.66,-258.48 203.17,-257.12 200.03,-250.86"/>
</g>
<!-- Node9 -->
<g id="node9" class="node">
<title>Node9</title>
<g id="a_node9"><a xlink:href="class_ogre_1_1v1_1_1_hardware_buffer_manager.html" target="_top" xlink:title="Singleton wrapper for hardware buffer manager.">
<polygon fill="none" stroke="black" points="284.65,-141.5 284.65,-169.5 414.41,-169.5 414.41,-141.5 284.65,-141.5"/>
<text text-anchor="start" x="292.65" y="-157.5" font-family="Helvetica,sans-Serif" font-size="10.00">Ogre::v1::HardwareBuffer</text>
<text text-anchor="middle" x="349.53" y="-147.5" font-family="Helvetica,sans-Serif" font-size="10.00">Manager</text>
</a>
</g>
</g>
<!-- Node1&#45;&gt;Node9 -->
<g id="edge8" class="edge">
<title>Node1&#45;&gt;Node9</title>
<path fill="none" stroke="midnightblue" d="M183.73,-250.57C202.11,-229.17 232.79,-197.19 265.94,-178.5 272.03,-175.06 278.67,-172.12 285.45,-169.59"/>
<polygon fill="midnightblue" stroke="midnightblue" points="180.84,-248.57 177.09,-258.47 186.2,-253.07 180.84,-248.57"/>
</g>
<!-- Node17 -->
<g id="node17" class="node">
<title>Node17</title>
<g id="a_node17"><a xlink:href="class_ogre_1_1v1_1_1_metal_hardware_buffer_manager_base.html" target="_top" xlink:title="Implementation of HardwareBufferManager for Metal.">
<polygon fill="none" stroke="black" points="272.42,-94.5 272.42,-122.5 426.64,-122.5 426.64,-94.5 272.42,-94.5"/>
<text text-anchor="start" x="280.42" y="-110.5" font-family="Helvetica,sans-Serif" font-size="10.00">Ogre::v1::MetalHardwareBuffer</text>
<text text-anchor="middle" x="349.53" y="-100.5" font-family="Helvetica,sans-Serif" font-size="10.00">ManagerBase</text>
</a>
</g>
</g>
<!-- Node1&#45;&gt;Node17 -->
<g id="edge16" class="edge">
<title>Node1&#45;&gt;Node17</title>
<path fill="none" stroke="midnightblue" d="M176.35,-249.16C191.44,-217.67 222.54,-162.03 265.94,-131.5 270.81,-128.07 276.17,-125.16 281.76,-122.67"/>
<polygon fill="midnightblue" stroke="midnightblue" points="173.06,-247.93 172.02,-258.47 179.41,-250.88 173.06,-247.93"/>
</g>
<!-- Node2 -->
<g id="node2" class="node">
<title>Node2</title>
<g id="a_node2"><a xlink:href="class_ogre_1_1_allocated_object.html" target="_top" xlink:title="Superclass for all objects that wish to use custom memory allocators when their new / delete operator...">
<polygon fill="none" stroke="black" points="0,-263.5 0,-281.5 64.18,-281.5 64.18,-263.5 0,-263.5"/>
<text text-anchor="middle" x="32.09" y="-269.5" font-family="Helvetica,sans-Serif" font-size="10.00">BufferAlloc</text>
</a>
</g>
</g>
<!-- Node2&#45;&gt;Node1 -->
<g id="edge1" class="edge">
<title>Node2&#45;&gt;Node1</title>
<path fill="none" stroke="midnightblue" d="M74.71,-272.5C82.78,-272.5 91.42,-272.5 100.03,-272.5"/>
<polygon fill="midnightblue" stroke="midnightblue" points="74.46,-269 64.46,-272.5 74.46,-276 74.46,-269"/>
</g>
<!-- Node10 -->
<g id="node10" class="node">
<title>Node10</title>
<g id="a_node10"><a xlink:href="class_ogre_1_1v1_1_1_d3_d11_hardware_buffer_manager.html" target="_top" xlink:title="D3D11HardwareBufferManagerBase as a Singleton.">
<polygon fill="none" stroke="black" points="472.64,-282.5 472.64,-310.5 632.79,-310.5 632.79,-282.5 472.64,-282.5"/>
<text text-anchor="start" x="480.64" y="-298.5" font-family="Helvetica,sans-Serif" font-size="10.00">Ogre::v1::D3D11HardwareBuffer</text>
<text text-anchor="middle" x="552.71" y="-288.5" font-family="Helvetica,sans-Serif" font-size="10.00">Manager</text>
</a>
</g>
</g>
<!-- Node9&#45;&gt;Node10 -->
<g id="edge9" class="edge">
<title>Node9&#45;&gt;Node10</title>
<path fill="none" stroke="midnightblue" d="M423.51,-171.33C426.94,-173.43 430.17,-175.81 433.12,-178.5 466.46,-208.95 435.78,-243.05 469.12,-273.5 472.86,-276.91 477.06,-279.82 481.53,-282.31"/>
<polygon fill="midnightblue" stroke="midnightblue" points="425.12,-168.22 414.64,-166.65 421.85,-174.41 425.12,-168.22"/>
</g>
<!-- Node11 -->
<g id="node11" class="node">
<title>Node11</title>
<g id="a_node11"><a xlink:href="class_ogre_1_1v1_1_1_default_hardware_buffer_manager.html" target="_top" xlink:title="DefaultHardwareBufferManager as a Singleton.">
<polygon fill="none" stroke="black" points="485.24,-235.5 485.24,-263.5 620.18,-263.5 620.18,-235.5 485.24,-235.5"/>
<text text-anchor="start" x="493.24" y="-251.5" font-family="Helvetica,sans-Serif" font-size="10.00">Ogre::v1::DefaultHardware</text>
<text text-anchor="middle" x="552.71" y="-241.5" font-family="Helvetica,sans-Serif" font-size="10.00">BufferManager</text>
</a>
</g>
</g>
<!-- Node9&#45;&gt;Node11 -->
<g id="edge10" class="edge">
<title>Node9&#45;&gt;Node11</title>
<path fill="none" stroke="midnightblue" d="M423.9,-173.06C427.1,-174.71 430.2,-176.52 433.12,-178.5 454.92,-193.23 447.4,-210.64 469.12,-225.5 474.79,-229.38 481.09,-232.64 487.61,-235.38"/>
<polygon fill="midnightblue" stroke="midnightblue" points="425.18,-169.8 414.63,-168.8 422.25,-176.16 425.18,-169.8"/>
</g>
<!-- Node12 -->
<g id="node12" class="node">
<title>Node12</title>
<g id="a_node12"><a xlink:href="class_ogre_1_1v1_1_1_g_l3_plus_default_hardware_buffer_manager.html" target="_top" xlink:title="GL3PlusDefaultHardwareBufferManagerBase as a Singleton.">
<polygon fill="none" stroke="black" points="487.74,-188.5 487.74,-216.5 617.68,-216.5 617.68,-188.5 487.74,-188.5"/>
<text text-anchor="start" x="495.74" y="-204.5" font-family="Helvetica,sans-Serif" font-size="10.00">Ogre::v1::GL3PlusDefault</text>
<text text-anchor="middle" x="552.71" y="-194.5" font-family="Helvetica,sans-Serif" font-size="10.00">HardwareBufferManager</text>
</a>
</g>
</g>
<!-- Node9&#45;&gt;Node12 -->
<g id="edge11" class="edge">
<title>Node9&#45;&gt;Node12</title>
<path fill="none" stroke="midnightblue" d="M420.39,-171.82C443.59,-177.24 469.19,-183.22 491.58,-188.45"/>
<polygon fill="midnightblue" stroke="midnightblue" points="421.15,-168.4 410.62,-169.54 419.56,-175.22 421.15,-168.4"/>
</g>
<!-- Node13 -->
<g id="node13" class="node">
<title>Node13</title>
<g id="a_node13"><a xlink:href="class_ogre_1_1v1_1_1_g_l3_plus_hardware_buffer_manager.html" target="_top" xlink:title="GL3PlusHardwareBufferManagerBase as a Singleton.">
<polygon fill="none" stroke="black" points="481.91,-141.5 481.91,-169.5 623.52,-169.5 623.52,-141.5 481.91,-141.5"/>
<text text-anchor="start" x="489.91" y="-157.5" font-family="Helvetica,sans-Serif" font-size="10.00">Ogre::v1::GL3PlusHardware</text>
<text text-anchor="middle" x="552.71" y="-147.5" font-family="Helvetica,sans-Serif" font-size="10.00">BufferManager</text>
</a>
</g>
</g>
<!-- Node9&#45;&gt;Node13 -->
<g id="edge12" class="edge">
<title>Node9&#45;&gt;Node13</title>
<path fill="none" stroke="midnightblue" d="M424.66,-155.5C443.3,-155.5 463.24,-155.5 481.67,-155.5"/>
<polygon fill="midnightblue" stroke="midnightblue" points="424.46,-152 414.46,-155.5 424.46,-159 424.46,-152"/>
</g>
<!-- Node14 -->
<g id="node14" class="node">
<title>Node14</title>
<g id="a_node14"><a xlink:href="class_ogre_1_1v1_1_1_g_l_e_s2_default_hardware_buffer_manager.html" target="_top" xlink:title="GLES2DefaultHardwareBufferManagerBase as a Singleton.">
<polygon fill="none" stroke="black" points="469.12,-94.5 469.12,-122.5 636.3,-122.5 636.3,-94.5 469.12,-94.5"/>
<text text-anchor="start" x="477.12" y="-110.5" font-family="Helvetica,sans-Serif" font-size="10.00">Ogre::v1::GLES2DefaultHardware</text>
<text text-anchor="middle" x="552.71" y="-100.5" font-family="Helvetica,sans-Serif" font-size="10.00">BufferManager</text>
</a>
</g>
</g>
<!-- Node9&#45;&gt;Node14 -->
<g id="edge13" class="edge">
<title>Node9&#45;&gt;Node14</title>
<path fill="none" stroke="midnightblue" d="M420.39,-139.18C443.59,-133.76 469.19,-127.78 491.58,-122.55"/>
<polygon fill="midnightblue" stroke="midnightblue" points="419.56,-135.78 410.62,-141.46 421.15,-142.6 419.56,-135.78"/>
</g>
<!-- Node15 -->
<g id="node15" class="node">
<title>Node15</title>
<g id="a_node15"><a xlink:href="class_ogre_1_1v1_1_1_g_l_e_s2_hardware_buffer_manager.html" target="_top" xlink:title="GLES2HardwareBufferManagerBase as a Singleton.">
<polygon fill="none" stroke="black" points="471.71,-47.5 471.71,-75.5 633.71,-75.5 633.71,-47.5 471.71,-47.5"/>
<text text-anchor="start" x="479.71" y="-63.5" font-family="Helvetica,sans-Serif" font-size="10.00">Ogre::v1::GLES2HardwareBuffer</text>
<text text-anchor="middle" x="552.71" y="-53.5" font-family="Helvetica,sans-Serif" font-size="10.00">Manager</text>
</a>
</g>
</g>
<!-- Node9&#45;&gt;Node15 -->
<g id="edge14" class="edge">
<title>Node9&#45;&gt;Node15</title>
<path fill="none" stroke="midnightblue" d="M423.9,-137.02C427.11,-135.33 430.2,-133.5 433.12,-131.5 454.84,-116.64 447.32,-99.23 469.12,-84.5 474.3,-81 480,-78.03 485.92,-75.51"/>
<polygon fill="midnightblue" stroke="midnightblue" points="422.2,-133.95 414.63,-141.38 425.17,-140.29 422.2,-133.95"/>
</g>
<!-- Node16 -->
<g id="node16" class="node">
<title>Node16</title>
<g id="a_node16"><a xlink:href="class_ogre_1_1v1_1_1_metal_hardware_buffer_manager.html" target="_top" xlink:title="MetalHardwareBufferManagerBase as a Singleton.">
<polygon fill="none" stroke="black" points="475.6,-0.5 475.6,-28.5 629.82,-28.5 629.82,-0.5 475.6,-0.5"/>
<text text-anchor="start" x="483.6" y="-16.5" font-family="Helvetica,sans-Serif" font-size="10.00">Ogre::v1::MetalHardwareBuffer</text>
<text text-anchor="middle" x="552.71" y="-6.5" font-family="Helvetica,sans-Serif" font-size="10.00">Manager</text>
</a>
</g>
</g>
<!-- Node9&#45;&gt;Node16 -->
<g id="edge15" class="edge">
<title>Node9&#45;&gt;Node16</title>
<path fill="none" stroke="midnightblue" d="M423.51,-138.75C426.94,-136.61 430.18,-134.21 433.12,-131.5 466.04,-101.21 436.03,-67.61 469.12,-37.5 472.86,-34.09 477.07,-31.19 481.55,-28.71"/>
<polygon fill="midnightblue" stroke="midnightblue" points="421.79,-135.7 414.64,-143.52 425.11,-141.87 421.79,-135.7"/>
</g>
</g>
</svg>
