<?xml version="1.0" encoding="UTF-8" standalone="no"?>
<!DOCTYPE svg PUBLIC "-//W3C//DTD SVG 1.1//EN"
 "http://www.w3.org/Graphics/SVG/1.1/DTD/svg11.dtd">
<!-- Generated by graphviz version 2.43.0 (0)
 -->
<!-- Title: Ogre::Volume::CSGDifferenceSource Pages: 1 -->
<svg width="158pt" height="157pt"
 viewBox="0.00 0.00 157.77 157.00" xmlns="http://www.w3.org/2000/svg" xmlns:xlink="http://www.w3.org/1999/xlink">
<g id="graph0" class="graph" transform="scale(1 1) rotate(0) translate(4 153)">
<title>Ogre::Volume::CSGDifferenceSource</title>
<!-- Node1 -->
<g id="node1" class="node">
<title>Node1</title>
<g id="a_node1"><a xlink:title="Builds the difference between two sources.">
<polygon fill="#bfbfbf" stroke="black" points="0,-0.5 0,-28.5 149.77,-28.5 149.77,-0.5 0,-0.5"/>
<text text-anchor="start" x="8" y="-16.5" font-family="Helvetica,sans-Serif" font-size="10.00">Ogre::Volume::CSGDifference</text>
<text text-anchor="middle" x="74.89" y="-6.5" font-family="Helvetica,sans-Serif" font-size="10.00">Source</text>
</a>
</g>
</g>
<!-- Node2 -->
<g id="node2" class="node">
<title>Node2</title>
<g id="a_node2"><a xlink:href="class_ogre_1_1_volume_1_1_c_s_g_operation_source.html" target="_top" xlink:title="Abstract operation volume source holding two sources as operants.">
<polygon fill="none" stroke="black" points="0.74,-65.5 0.74,-93.5 149.03,-93.5 149.03,-65.5 0.74,-65.5"/>
<text text-anchor="start" x="8.74" y="-81.5" font-family="Helvetica,sans-Serif" font-size="10.00">Ogre::Volume::CSGOperation</text>
<text text-anchor="middle" x="74.89" y="-71.5" font-family="Helvetica,sans-Serif" font-size="10.00">Source</text>
</a>
</g>
</g>
<!-- Node2&#45;&gt;Node1 -->
<g id="edge1" class="edge">
<title>Node2&#45;&gt;Node1</title>
<path fill="none" stroke="midnightblue" d="M74.89,-55.16C74.89,-46.17 74.89,-36.22 74.89,-28.54"/>
<polygon fill="midnightblue" stroke="midnightblue" points="71.39,-55.45 74.89,-65.45 78.39,-55.45 71.39,-55.45"/>
</g>
<!-- Node3 -->
<g id="node3" class="node">
<title>Node3</title>
<g id="a_node3"><a xlink:href="class_ogre_1_1_volume_1_1_source.html" target="_top" xlink:title="Abstract class defining the density function.">
<polygon fill="none" stroke="black" points="17.69,-130.5 17.69,-148.5 132.08,-148.5 132.08,-130.5 17.69,-130.5"/>
<text text-anchor="middle" x="74.89" y="-136.5" font-family="Helvetica,sans-Serif" font-size="10.00">Ogre::Volume::Source</text>
</a>
</g>
</g>
<!-- Node3&#45;&gt;Node2 -->
<g id="edge2" class="edge">
<title>Node3&#45;&gt;Node2</title>
<path fill="none" stroke="midnightblue" d="M74.89,-120.32C74.89,-111.75 74.89,-101.7 74.89,-93.84"/>
<polygon fill="midnightblue" stroke="midnightblue" points="71.39,-120.44 74.89,-130.44 78.39,-120.44 71.39,-120.44"/>
</g>
</g>
</svg>
