<?xml version="1.0" encoding="UTF-8" standalone="no"?>
<!DOCTYPE svg PUBLIC "-//W3C//DTD SVG 1.1//EN"
 "http://www.w3.org/Graphics/SVG/1.1/DTD/svg11.dtd">
<!-- Generated by graphviz version 2.43.0 (0)
 -->
<!-- Title: Ogre::HlmsCompute Pages: 1 -->
<svg width="115pt" height="137pt"
 viewBox="0.00 0.00 115.14 137.00" xmlns="http://www.w3.org/2000/svg" xmlns:xlink="http://www.w3.org/1999/xlink">
<g id="graph0" class="graph" transform="scale(1 1) rotate(0) translate(4 133)">
<title>Ogre::HlmsCompute</title>
<!-- Node1 -->
<g id="node1" class="node">
<title>Node1</title>
<g id="a_node1"><a xlink:title="HLMS implementation that handles compute shaders.">
<polygon fill="#bfbfbf" stroke="black" points="0,-0.5 0,-18.5 107.14,-18.5 107.14,-0.5 0,-0.5"/>
<text text-anchor="middle" x="53.57" y="-6.5" font-family="Helvetica,sans-Serif" font-size="10.00">Ogre::HlmsCompute</text>
</a>
</g>
</g>
<!-- Node2 -->
<g id="node2" class="node">
<title>Node2</title>
<g id="a_node2"><a xlink:href="class_ogre_1_1_hlms.html" target="_top" xlink:title="HLMS stands for &quot;High Level Material System&quot;.">
<polygon fill="none" stroke="black" points="20.29,-55.5 20.29,-73.5 86.85,-73.5 86.85,-55.5 20.29,-55.5"/>
<text text-anchor="middle" x="53.57" y="-61.5" font-family="Helvetica,sans-Serif" font-size="10.00">Ogre::Hlms</text>
</a>
</g>
</g>
<!-- Node2&#45;&gt;Node1 -->
<g id="edge1" class="edge">
<title>Node2&#45;&gt;Node1</title>
<path fill="none" stroke="midnightblue" d="M53.57,-45.17C53.57,-36.09 53.57,-25.59 53.57,-18.55"/>
<polygon fill="midnightblue" stroke="midnightblue" points="50.07,-45.22 53.57,-55.22 57.07,-45.22 50.07,-45.22"/>
</g>
<!-- Node3 -->
<g id="node3" class="node">
<title>Node3</title>
<g id="a_node3"><a xlink:href="class_ogre_1_1_allocated_object.html" target="_top" xlink:title="Superclass for all objects that wish to use custom memory allocators when their new / delete operator...">
<polygon fill="none" stroke="black" points="23.34,-110.5 23.34,-128.5 83.79,-128.5 83.79,-110.5 23.34,-110.5"/>
<text text-anchor="middle" x="53.57" y="-116.5" font-family="Helvetica,sans-Serif" font-size="10.00">HlmsAlloc</text>
</a>
</g>
</g>
<!-- Node3&#45;&gt;Node2 -->
<g id="edge2" class="edge">
<title>Node3&#45;&gt;Node2</title>
<path fill="none" stroke="midnightblue" d="M53.57,-100.17C53.57,-91.09 53.57,-80.59 53.57,-73.55"/>
<polygon fill="midnightblue" stroke="midnightblue" points="50.07,-100.22 53.57,-110.22 57.07,-100.22 50.07,-100.22"/>
</g>
</g>
</svg>
