<?xml version="1.0" encoding="UTF-8" standalone="no"?>
<!DOCTYPE svg PUBLIC "-//W3C//DTD SVG 1.1//EN"
 "http://www.w3.org/Graphics/SVG/1.1/DTD/svg11.dtd">
<!-- Generated by graphviz version 2.43.0 (0)
 -->
<!-- Title: Ogre::v1::RibbonTrail Pages: 1 -->
<svg width="428pt" height="192pt"
 viewBox="0.00 0.00 427.60 192.00" xmlns="http://www.w3.org/2000/svg" xmlns:xlink="http://www.w3.org/1999/xlink">
<g id="graph0" class="graph" transform="scale(1 1) rotate(0) translate(4 188)">
<title>Ogre::v1::RibbonTrail</title>
<!-- Node1 -->
<g id="node1" class="node">
<title>Node1</title>
<g id="a_node1"><a xlink:title="Subclass of BillboardChain which automatically leaves a trail behind one or more Node instances.">
<polygon fill="#bfbfbf" stroke="black" points="241.85,-0.5 241.85,-18.5 352.53,-18.5 352.53,-0.5 241.85,-0.5"/>
<text text-anchor="middle" x="297.19" y="-6.5" font-family="Helvetica,sans-Serif" font-size="10.00">Ogre::v1::RibbonTrail</text>
</a>
</g>
</g>
<!-- Node2 -->
<g id="node2" class="node">
<title>Node2</title>
<g id="a_node2"><a xlink:href="class_ogre_1_1v1_1_1_billboard_chain.html" target="_top" xlink:title="Allows the rendering of a chain of connected billboards.">
<polygon fill="none" stroke="black" points="167.72,-55.5 167.72,-73.5 292.66,-73.5 292.66,-55.5 167.72,-55.5"/>
<text text-anchor="middle" x="230.19" y="-61.5" font-family="Helvetica,sans-Serif" font-size="10.00">Ogre::v1::BillboardChain</text>
</a>
</g>
</g>
<!-- Node2&#45;&gt;Node1 -->
<g id="edge1" class="edge">
<title>Node2&#45;&gt;Node1</title>
<path fill="none" stroke="midnightblue" d="M248.25,-49.21C260.65,-39.41 276.65,-26.75 286.92,-18.63"/>
<polygon fill="midnightblue" stroke="midnightblue" points="246.04,-46.5 240.37,-55.45 250.38,-51.99 246.04,-46.5"/>
</g>
<!-- Node3 -->
<g id="node3" class="node">
<title>Node3</title>
<g id="a_node3"><a xlink:href="class_ogre_1_1_movable_object.html" target="_top" xlink:title="Abstract class defining a movable object in a scene.">
<polygon fill="none" stroke="black" points="114.95,-110.5 114.95,-128.5 225.43,-128.5 225.43,-110.5 114.95,-110.5"/>
<text text-anchor="middle" x="170.19" y="-116.5" font-family="Helvetica,sans-Serif" font-size="10.00">Ogre::MovableObject</text>
</a>
</g>
</g>
<!-- Node3&#45;&gt;Node2 -->
<g id="edge2" class="edge">
<title>Node3&#45;&gt;Node2</title>
<path fill="none" stroke="midnightblue" d="M187.01,-103.64C198.02,-93.92 211.97,-81.59 220.99,-73.63"/>
<polygon fill="midnightblue" stroke="midnightblue" points="184.48,-101.21 179.3,-110.45 189.11,-106.45 184.48,-101.21"/>
</g>
<!-- Node4 -->
<g id="node4" class="node">
<title>Node4</title>
<g id="a_node4"><a xlink:href="class_ogre_1_1_animable_object.html" target="_top" xlink:title="Defines an interface to classes which have one or more AnimableValue instances to expose.">
<polygon fill="none" stroke="black" points="0,-165.5 0,-183.5 114.38,-183.5 114.38,-165.5 0,-165.5"/>
<text text-anchor="middle" x="57.19" y="-171.5" font-family="Helvetica,sans-Serif" font-size="10.00">Ogre::AnimableObject</text>
</a>
</g>
</g>
<!-- Node4&#45;&gt;Node3 -->
<g id="edge3" class="edge">
<title>Node4&#45;&gt;Node3</title>
<path fill="none" stroke="midnightblue" d="M83.52,-161.15C104.88,-151.13 134.38,-137.29 152.87,-128.63"/>
<polygon fill="midnightblue" stroke="midnightblue" points="81.92,-158.04 74.35,-165.45 84.89,-164.37 81.92,-158.04"/>
</g>
<!-- Node5 -->
<g id="node5" class="node">
<title>Node5</title>
<g id="a_node5"><a xlink:href="class_ogre_1_1_allocated_object.html" target="_top" xlink:title="Superclass for all objects that wish to use custom memory allocators when their new / delete operator...">
<polygon fill="none" stroke="black" points="132.45,-165.5 132.45,-183.5 207.93,-183.5 207.93,-165.5 132.45,-165.5"/>
<text text-anchor="middle" x="170.19" y="-171.5" font-family="Helvetica,sans-Serif" font-size="10.00">MovableAlloc</text>
</a>
</g>
</g>
<!-- Node5&#45;&gt;Node3 -->
<g id="edge4" class="edge">
<title>Node5&#45;&gt;Node3</title>
<path fill="none" stroke="midnightblue" d="M170.19,-155.17C170.19,-146.09 170.19,-135.59 170.19,-128.55"/>
<polygon fill="midnightblue" stroke="midnightblue" points="166.69,-155.22 170.19,-165.22 173.69,-155.22 166.69,-155.22"/>
</g>
<!-- Node6 -->
<g id="node6" class="node">
<title>Node6</title>
<g id="a_node6"><a xlink:href="class_ogre_1_1_id_object.html" target="_top" xlink:title=" ">
<polygon fill="none" stroke="black" points="225.67,-165.5 225.67,-183.5 306.7,-183.5 306.7,-165.5 225.67,-165.5"/>
<text text-anchor="middle" x="266.19" y="-171.5" font-family="Helvetica,sans-Serif" font-size="10.00">Ogre::IdObject</text>
</a>
</g>
</g>
<!-- Node6&#45;&gt;Node3 -->
<g id="edge5" class="edge">
<title>Node6&#45;&gt;Node3</title>
<path fill="none" stroke="midnightblue" d="M242.83,-160.6C224.77,-150.63 200.33,-137.14 184.91,-128.63"/>
<polygon fill="midnightblue" stroke="midnightblue" points="241.16,-163.68 251.61,-165.45 244.55,-157.55 241.16,-163.68"/>
</g>
<!-- Node7 -->
<g id="node7" class="node">
<title>Node7</title>
<g id="a_node7"><a xlink:href="class_ogre_1_1_renderable.html" target="_top" xlink:title="Abstract class defining the interface all renderable objects must implement.">
<polygon fill="none" stroke="black" points="243.44,-110.5 243.44,-128.5 338.94,-128.5 338.94,-110.5 243.44,-110.5"/>
<text text-anchor="middle" x="291.19" y="-116.5" font-family="Helvetica,sans-Serif" font-size="10.00">Ogre::Renderable</text>
</a>
</g>
</g>
<!-- Node7&#45;&gt;Node2 -->
<g id="edge6" class="edge">
<title>Node7&#45;&gt;Node2</title>
<path fill="none" stroke="midnightblue" d="M274.09,-103.64C262.9,-93.92 248.71,-81.59 239.54,-73.63"/>
<polygon fill="midnightblue" stroke="midnightblue" points="272.08,-106.53 281.92,-110.45 276.67,-101.25 272.08,-106.53"/>
</g>
<!-- Node8 -->
<g id="node8" class="node">
<title>Node8</title>
<g id="a_node8"><a xlink:href="class_ogre_1_1_node_1_1_listener.html" target="_top" xlink:title="Listener which gets called back on Node events.">
<polygon fill="none" stroke="black" points="310.78,-55.5 310.78,-73.5 419.6,-73.5 419.6,-55.5 310.78,-55.5"/>
<text text-anchor="middle" x="365.19" y="-61.5" font-family="Helvetica,sans-Serif" font-size="10.00">Ogre::Node::Listener</text>
</a>
</g>
</g>
<!-- Node8&#45;&gt;Node1 -->
<g id="edge7" class="edge">
<title>Node8&#45;&gt;Node1</title>
<path fill="none" stroke="midnightblue" d="M346.85,-49.21C334.28,-39.41 318.04,-26.75 307.61,-18.63"/>
<polygon fill="midnightblue" stroke="midnightblue" points="344.82,-52.06 354.86,-55.45 349.13,-46.54 344.82,-52.06"/>
</g>
</g>
</svg>
