<?xml version="1.0" encoding="UTF-8" standalone="no"?>
<!DOCTYPE svg PUBLIC "-//W3C//DTD SVG 1.1//EN"
 "http://www.w3.org/Graphics/SVG/1.1/DTD/svg11.dtd">
<!-- Generated by graphviz version 2.43.0 (0)
 -->
<!-- Title: Ogre::GLSLESShaderFactory Pages: 1 -->
<svg width="156pt" height="147pt"
 viewBox="0.00 0.00 156.29 147.00" xmlns="http://www.w3.org/2000/svg" xmlns:xlink="http://www.w3.org/1999/xlink">
<g id="graph0" class="graph" transform="scale(1 1) rotate(0) translate(4 143)">
<title>Ogre::GLSLESShaderFactory</title>
<!-- Node1 -->
<g id="node1" class="node">
<title>Node1</title>
<g id="a_node1"><a xlink:title="Factory class for GLSL ES programs.">
<polygon fill="#bfbfbf" stroke="black" points="0,-0.5 0,-18.5 148.29,-18.5 148.29,-0.5 0,-0.5"/>
<text text-anchor="middle" x="74.14" y="-6.5" font-family="Helvetica,sans-Serif" font-size="10.00">Ogre::GLSLESShaderFactory</text>
</a>
</g>
</g>
<!-- Node2 -->
<g id="node2" class="node">
<title>Node2</title>
<g id="a_node2"><a xlink:href="class_ogre_1_1_high_level_gpu_program_factory.html" target="_top" xlink:title="Interface definition for factories of HighLevelGpuProgram.">
<polygon fill="none" stroke="black" points="1.39,-55.5 1.39,-83.5 146.9,-83.5 146.9,-55.5 1.39,-55.5"/>
<text text-anchor="start" x="9.39" y="-71.5" font-family="Helvetica,sans-Serif" font-size="10.00">Ogre::HighLevelGpuProgram</text>
<text text-anchor="middle" x="74.14" y="-61.5" font-family="Helvetica,sans-Serif" font-size="10.00">Factory</text>
</a>
</g>
</g>
<!-- Node2&#45;&gt;Node1 -->
<g id="edge1" class="edge">
<title>Node2&#45;&gt;Node1</title>
<path fill="none" stroke="midnightblue" d="M74.14,-45.32C74.14,-35.94 74.14,-25.7 74.14,-18.77"/>
<polygon fill="midnightblue" stroke="midnightblue" points="70.64,-45.34 74.14,-55.34 77.64,-45.34 70.64,-45.34"/>
</g>
<!-- Node3 -->
<g id="node3" class="node">
<title>Node3</title>
<g id="a_node3"><a xlink:href="class_ogre_1_1_allocated_object.html" target="_top" xlink:title="Superclass for all objects that wish to use custom memory allocators when their new / delete operator...">
<polygon fill="none" stroke="black" points="38.64,-120.5 38.64,-138.5 109.65,-138.5 109.65,-120.5 38.64,-120.5"/>
<text text-anchor="middle" x="74.14" y="-126.5" font-family="Helvetica,sans-Serif" font-size="10.00">FactoryAlloc</text>
</a>
</g>
</g>
<!-- Node3&#45;&gt;Node2 -->
<g id="edge2" class="edge">
<title>Node3&#45;&gt;Node2</title>
<path fill="none" stroke="midnightblue" d="M74.14,-110.32C74.14,-101.75 74.14,-91.7 74.14,-83.84"/>
<polygon fill="midnightblue" stroke="midnightblue" points="70.64,-110.44 74.14,-120.44 77.64,-110.44 70.64,-110.44"/>
</g>
</g>
</svg>
