<?xml version="1.0" encoding="UTF-8" standalone="no"?>
<!DOCTYPE svg PUBLIC "-//W3C//DTD SVG 1.1//EN"
 "http://www.w3.org/Graphics/SVG/1.1/DTD/svg11.dtd">
<!-- Generated by graphviz version 2.43.0 (0)
 -->
<!-- Title: Ogre::v1::RibbonTrailFactory Pages: 1 -->
<svg width="152pt" height="137pt"
 viewBox="0.00 0.00 152.01 137.00" xmlns="http://www.w3.org/2000/svg" xmlns:xlink="http://www.w3.org/1999/xlink">
<g id="graph0" class="graph" transform="scale(1 1) rotate(0) translate(4 133)">
<title>Ogre::v1::RibbonTrailFactory</title>
<!-- Node1 -->
<g id="node1" class="node">
<title>Node1</title>
<g id="a_node1"><a xlink:title="Factory object for creating RibbonTrail instances.">
<polygon fill="#bfbfbf" stroke="black" points="0,-0.5 0,-18.5 144.01,-18.5 144.01,-0.5 0,-0.5"/>
<text text-anchor="middle" x="72.01" y="-6.5" font-family="Helvetica,sans-Serif" font-size="10.00">Ogre::v1::RibbonTrailFactory</text>
</a>
</g>
</g>
<!-- Node2 -->
<g id="node2" class="node">
<title>Node2</title>
<g id="a_node2"><a xlink:href="class_ogre_1_1_movable_object_factory.html" target="_top" xlink:title="Interface definition for a factory class which produces a certain kind of MovableObject,...">
<polygon fill="none" stroke="black" points="0.09,-55.5 0.09,-73.5 143.92,-73.5 143.92,-55.5 0.09,-55.5"/>
<text text-anchor="middle" x="72.01" y="-61.5" font-family="Helvetica,sans-Serif" font-size="10.00">Ogre::MovableObjectFactory</text>
</a>
</g>
</g>
<!-- Node2&#45;&gt;Node1 -->
<g id="edge1" class="edge">
<title>Node2&#45;&gt;Node1</title>
<path fill="none" stroke="midnightblue" d="M72.01,-45.17C72.01,-36.09 72.01,-25.59 72.01,-18.55"/>
<polygon fill="midnightblue" stroke="midnightblue" points="68.51,-45.22 72.01,-55.22 75.51,-45.22 68.51,-45.22"/>
</g>
<!-- Node3 -->
<g id="node3" class="node">
<title>Node3</title>
<g id="a_node3"><a xlink:href="class_ogre_1_1_allocated_object.html" target="_top" xlink:title="Superclass for all objects that wish to use custom memory allocators when their new / delete operator...">
<polygon fill="none" stroke="black" points="34.27,-110.5 34.27,-128.5 109.74,-128.5 109.74,-110.5 34.27,-110.5"/>
<text text-anchor="middle" x="72.01" y="-116.5" font-family="Helvetica,sans-Serif" font-size="10.00">MovableAlloc</text>
</a>
</g>
</g>
<!-- Node3&#45;&gt;Node2 -->
<g id="edge2" class="edge">
<title>Node3&#45;&gt;Node2</title>
<path fill="none" stroke="midnightblue" d="M72.01,-100.17C72.01,-91.09 72.01,-80.59 72.01,-73.55"/>
<polygon fill="midnightblue" stroke="midnightblue" points="68.51,-100.22 72.01,-110.22 75.51,-100.22 68.51,-100.22"/>
</g>
</g>
</svg>
