<?xml version="1.0" encoding="UTF-8" standalone="no"?>
<!DOCTYPE svg PUBLIC "-//W3C//DTD SVG 1.1//EN"
 "http://www.w3.org/Graphics/SVG/1.1/DTD/svg11.dtd">
<!-- Generated by graphviz version 2.43.0 (0)
 -->
<!-- Title: Ogre::Codec::CodecData Pages: 1 -->
<svg width="292pt" height="147pt"
 viewBox="0.00 0.00 292.28 147.00" xmlns="http://www.w3.org/2000/svg" xmlns:xlink="http://www.w3.org/1999/xlink">
<g id="graph0" class="graph" transform="scale(1 1) rotate(0) translate(4 143)">
<title>Ogre::Codec::CodecData</title>
<!-- Node1 -->
<g id="node1" class="node">
<title>Node1</title>
<g id="a_node1"><a xlink:title=" ">
<polygon fill="#bfbfbf" stroke="black" points="66.66,-65.5 66.66,-83.5 194.94,-83.5 194.94,-65.5 66.66,-65.5"/>
<text text-anchor="middle" x="130.8" y="-71.5" font-family="Helvetica,sans-Serif" font-size="10.00">Ogre::Codec::CodecData</text>
</a>
</g>
</g>
<!-- Node3 -->
<g id="node3" class="node">
<title>Node3</title>
<g id="a_node3"><a xlink:href="class_ogre_1_1_image_codec2_1_1_image_data2.html" target="_top" xlink:title="Codec return class for images.">
<polygon fill="none" stroke="black" points="0,-0.5 0,-28.5 111.61,-28.5 111.61,-0.5 0,-0.5"/>
<text text-anchor="start" x="8" y="-16.5" font-family="Helvetica,sans-Serif" font-size="10.00">Ogre::ImageCodec2::</text>
<text text-anchor="middle" x="55.8" y="-6.5" font-family="Helvetica,sans-Serif" font-size="10.00">ImageData2</text>
</a>
</g>
</g>
<!-- Node1&#45;&gt;Node3 -->
<g id="edge2" class="edge">
<title>Node1&#45;&gt;Node3</title>
<path fill="none" stroke="midnightblue" d="M112.31,-59.2C100.22,-49.85 84.54,-37.72 72.77,-28.62"/>
<polygon fill="midnightblue" stroke="midnightblue" points="110.32,-62.09 120.37,-65.44 114.6,-56.55 110.32,-62.09"/>
</g>
<!-- Node4 -->
<g id="node4" class="node">
<title>Node4</title>
<g id="a_node4"><a xlink:href="class_ogre_1_1_image_codec_1_1_image_data.html" target="_top" xlink:title="Codec return class for images.">
<polygon fill="none" stroke="black" points="129.32,-5.5 129.32,-23.5 284.28,-23.5 284.28,-5.5 129.32,-5.5"/>
<text text-anchor="middle" x="206.8" y="-11.5" font-family="Helvetica,sans-Serif" font-size="10.00">Ogre::ImageCodec::ImageData</text>
</a>
</g>
</g>
<!-- Node1&#45;&gt;Node4 -->
<g id="edge3" class="edge">
<title>Node1&#45;&gt;Node4</title>
<path fill="none" stroke="midnightblue" d="M149.65,-59.12C164.18,-48.03 183.77,-33.08 195.83,-23.87"/>
<polygon fill="midnightblue" stroke="midnightblue" points="147.2,-56.59 141.37,-65.44 151.44,-62.15 147.2,-56.59"/>
</g>
<!-- Node2 -->
<g id="node2" class="node">
<title>Node2</title>
<g id="a_node2"><a xlink:href="class_ogre_1_1_allocated_object.html" target="_top" xlink:title="Superclass for all objects that wish to use custom memory allocators when their new / delete operator...">
<polygon fill="none" stroke="black" points="97.51,-120.5 97.51,-138.5 164.09,-138.5 164.09,-120.5 97.51,-120.5"/>
<text text-anchor="middle" x="130.8" y="-126.5" font-family="Helvetica,sans-Serif" font-size="10.00">CodecAlloc</text>
</a>
</g>
</g>
<!-- Node2&#45;&gt;Node1 -->
<g id="edge1" class="edge">
<title>Node2&#45;&gt;Node1</title>
<path fill="none" stroke="midnightblue" d="M130.8,-110.17C130.8,-101.09 130.8,-90.59 130.8,-83.55"/>
<polygon fill="midnightblue" stroke="midnightblue" points="127.3,-110.22 130.8,-120.22 134.3,-110.22 127.3,-110.22"/>
</g>
</g>
</svg>
