<?xml version="1.0" encoding="UTF-8" standalone="no"?>
<!DOCTYPE svg PUBLIC "-//W3C//DTD SVG 1.1//EN"
 "http://www.w3.org/Graphics/SVG/1.1/DTD/svg11.dtd">
<!-- Generated by graphviz version 2.43.0 (0)
 -->
<!-- Title: Ogre::PropertyBase Pages: 1 -->
<svg width="113pt" height="137pt"
 viewBox="0.00 0.00 112.57 137.00" xmlns="http://www.w3.org/2000/svg" xmlns:xlink="http://www.w3.org/1999/xlink">
<g id="graph0" class="graph" transform="scale(1 1) rotate(0) translate(4 133)">
<title>Ogre::PropertyBase</title>
<!-- Node1 -->
<g id="node1" class="node">
<title>Node1</title>
<g id="a_node1"><a xlink:title="Base interface for an instance of a property.">
<polygon fill="#bfbfbf" stroke="black" points="0.1,-55.5 0.1,-73.5 104.47,-73.5 104.47,-55.5 0.1,-55.5"/>
<text text-anchor="middle" x="52.29" y="-61.5" font-family="Helvetica,sans-Serif" font-size="10.00">Ogre::PropertyBase</text>
</a>
</g>
</g>
<!-- Node3 -->
<g id="node3" class="node">
<title>Node3</title>
<g id="a_node3"><a xlink:href="class_ogre_1_1_property.html" target="_top" xlink:title="Property instance with passthrough calls to a given object.">
<polygon fill="none" stroke="black" points="0,-0.5 0,-18.5 104.57,-18.5 104.57,-0.5 0,-0.5"/>
<text text-anchor="middle" x="52.29" y="-6.5" font-family="Helvetica,sans-Serif" font-size="10.00">Ogre::Property&lt; T &gt;</text>
</a>
</g>
</g>
<!-- Node1&#45;&gt;Node3 -->
<g id="edge2" class="edge">
<title>Node1&#45;&gt;Node3</title>
<path fill="none" stroke="midnightblue" d="M52.29,-45.17C52.29,-36.09 52.29,-25.59 52.29,-18.55"/>
<polygon fill="midnightblue" stroke="midnightblue" points="48.79,-45.22 52.29,-55.22 55.79,-45.22 48.79,-45.22"/>
</g>
<!-- Node2 -->
<g id="node2" class="node">
<title>Node2</title>
<g id="a_node2"><a xlink:href="class_ogre_1_1_allocated_object.html" target="_top" xlink:title="Superclass for all objects that wish to use custom memory allocators when their new / delete operator...">
<polygon fill="none" stroke="black" points="14.55,-110.5 14.55,-128.5 90.02,-128.5 90.02,-110.5 14.55,-110.5"/>
<text text-anchor="middle" x="52.29" y="-116.5" font-family="Helvetica,sans-Serif" font-size="10.00">PropertyAlloc</text>
</a>
</g>
</g>
<!-- Node2&#45;&gt;Node1 -->
<g id="edge1" class="edge">
<title>Node2&#45;&gt;Node1</title>
<path fill="none" stroke="midnightblue" d="M52.29,-100.17C52.29,-91.09 52.29,-80.59 52.29,-73.55"/>
<polygon fill="midnightblue" stroke="midnightblue" points="48.79,-100.22 52.29,-110.22 55.79,-100.22 48.79,-100.22"/>
</g>
</g>
</svg>
