<?xml version="1.0" encoding="UTF-8" standalone="no"?>
<!DOCTYPE svg PUBLIC "-//W3C//DTD SVG 1.1//EN"
 "http://www.w3.org/Graphics/SVG/1.1/DTD/svg11.dtd">
<!-- Generated by graphviz version 2.43.0 (0)
 -->
<!-- Title: Ogre::OctreePlugin Pages: 1 -->
<svg width="110pt" height="137pt"
 viewBox="0.00 0.00 109.60 137.00" xmlns="http://www.w3.org/2000/svg" xmlns:xlink="http://www.w3.org/1999/xlink">
<g id="graph0" class="graph" transform="scale(1 1) rotate(0) translate(4 133)">
<title>Ogre::OctreePlugin</title>
<!-- Node1 -->
<g id="node1" class="node">
<title>Node1</title>
<g id="a_node1"><a xlink:title="Plugin instance for Octree Manager.">
<polygon fill="#bfbfbf" stroke="black" points="0,-0.5 0,-18.5 101.6,-18.5 101.6,-0.5 0,-0.5"/>
<text text-anchor="middle" x="50.8" y="-6.5" font-family="Helvetica,sans-Serif" font-size="10.00">Ogre::OctreePlugin</text>
</a>
</g>
</g>
<!-- Node2 -->
<g id="node2" class="node">
<title>Node2</title>
<g id="a_node2"><a xlink:href="class_ogre_1_1_plugin.html" target="_top" xlink:title="Class defining a generic OGRE plugin.">
<polygon fill="none" stroke="black" points="15,-55.5 15,-73.5 86.59,-73.5 86.59,-55.5 15,-55.5"/>
<text text-anchor="middle" x="50.8" y="-61.5" font-family="Helvetica,sans-Serif" font-size="10.00">Ogre::Plugin</text>
</a>
</g>
</g>
<!-- Node2&#45;&gt;Node1 -->
<g id="edge1" class="edge">
<title>Node2&#45;&gt;Node1</title>
<path fill="none" stroke="midnightblue" d="M50.8,-45.17C50.8,-36.09 50.8,-25.59 50.8,-18.55"/>
<polygon fill="midnightblue" stroke="midnightblue" points="47.3,-45.22 50.8,-55.22 54.3,-45.22 47.3,-45.22"/>
</g>
<!-- Node3 -->
<g id="node3" class="node">
<title>Node3</title>
<g id="a_node3"><a xlink:href="class_ogre_1_1_allocated_object.html" target="_top" xlink:title="Superclass for all objects that wish to use custom memory allocators when their new / delete operator...">
<polygon fill="none" stroke="black" points="18.06,-110.5 18.06,-128.5 83.53,-128.5 83.53,-110.5 18.06,-110.5"/>
<text text-anchor="middle" x="50.8" y="-116.5" font-family="Helvetica,sans-Serif" font-size="10.00">PluginAlloc</text>
</a>
</g>
</g>
<!-- Node3&#45;&gt;Node2 -->
<g id="edge2" class="edge">
<title>Node3&#45;&gt;Node2</title>
<path fill="none" stroke="midnightblue" d="M50.8,-100.17C50.8,-91.09 50.8,-80.59 50.8,-73.55"/>
<polygon fill="midnightblue" stroke="midnightblue" points="47.3,-100.22 50.8,-110.22 54.3,-100.22 47.3,-100.22"/>
</g>
</g>
</svg>
