<?xml version="1.0" encoding="UTF-8" standalone="no"?>
<!DOCTYPE svg PUBLIC "-//W3C//DTD SVG 1.1//EN"
 "http://www.w3.org/Graphics/SVG/1.1/DTD/svg11.dtd">
<!-- Generated by graphviz version 2.43.0 (0)
 -->
<!-- Title: Ogre::RTShader::FFPFogFactory Pages: 1 -->
<svg width="172pt" height="147pt"
 viewBox="0.00 0.00 172.20 147.00" xmlns="http://www.w3.org/2000/svg" xmlns:xlink="http://www.w3.org/1999/xlink">
<g id="graph0" class="graph" transform="scale(1 1) rotate(0) translate(4 143)">
<title>Ogre::RTShader::FFPFogFactory</title>
<!-- Node1 -->
<g id="node1" class="node">
<title>Node1</title>
<g id="a_node1"><a xlink:title="A factory that enables creation of FFPFog instances.">
<polygon fill="#bfbfbf" stroke="black" points="0,-0.5 0,-18.5 164.2,-18.5 164.2,-0.5 0,-0.5"/>
<text text-anchor="middle" x="82.1" y="-6.5" font-family="Helvetica,sans-Serif" font-size="10.00">Ogre::RTShader::FFPFogFactory</text>
</a>
</g>
</g>
<!-- Node2 -->
<g id="node2" class="node">
<title>Node2</title>
<g id="a_node2"><a xlink:href="class_ogre_1_1_r_t_shader_1_1_sub_render_state_factory.html" target="_top" xlink:title="Abstract factory interface for creating SubRenderState implementation instances.">
<polygon fill="none" stroke="black" points="9.43,-55.5 9.43,-83.5 154.77,-83.5 154.77,-55.5 9.43,-55.5"/>
<text text-anchor="start" x="17.43" y="-71.5" font-family="Helvetica,sans-Serif" font-size="10.00">Ogre::RTShader::SubRender</text>
<text text-anchor="middle" x="82.1" y="-61.5" font-family="Helvetica,sans-Serif" font-size="10.00">StateFactory</text>
</a>
</g>
</g>
<!-- Node2&#45;&gt;Node1 -->
<g id="edge1" class="edge">
<title>Node2&#45;&gt;Node1</title>
<path fill="none" stroke="midnightblue" d="M82.1,-45.32C82.1,-35.94 82.1,-25.7 82.1,-18.77"/>
<polygon fill="midnightblue" stroke="midnightblue" points="78.6,-45.34 82.1,-55.34 85.6,-45.34 78.6,-45.34"/>
</g>
<!-- Node3 -->
<g id="node3" class="node">
<title>Node3</title>
<g id="a_node3"><a xlink:href="class_ogre_1_1_allocated_object.html" target="_top" xlink:title="Superclass for all objects that wish to use custom memory allocators when their new / delete operator...">
<polygon fill="none" stroke="black" points="23.89,-120.5 23.89,-138.5 140.31,-138.5 140.31,-120.5 23.89,-120.5"/>
<text text-anchor="middle" x="82.1" y="-126.5" font-family="Helvetica,sans-Serif" font-size="10.00">RTShaderSystemAlloc</text>
</a>
</g>
</g>
<!-- Node3&#45;&gt;Node2 -->
<g id="edge2" class="edge">
<title>Node3&#45;&gt;Node2</title>
<path fill="none" stroke="midnightblue" d="M82.1,-110.32C82.1,-101.75 82.1,-91.7 82.1,-83.84"/>
<polygon fill="midnightblue" stroke="midnightblue" points="78.6,-110.44 82.1,-120.44 85.6,-110.44 78.6,-110.44"/>
</g>
</g>
</svg>
