<?xml version="1.0" encoding="UTF-8" standalone="no"?>
<!DOCTYPE svg PUBLIC "-//W3C//DTD SVG 1.1//EN"
 "http://www.w3.org/Graphics/SVG/1.1/DTD/svg11.dtd">
<!-- Generated by graphviz version 2.43.0 (0)
 -->
<!-- Title: Ogre::StringInterface Pages: 1 -->
<svg width="883pt" height="876pt"
 viewBox="0.00 0.00 882.66 876.00" xmlns="http://www.w3.org/2000/svg" xmlns:xlink="http://www.w3.org/1999/xlink">
<g id="graph0" class="graph" transform="scale(1 1) rotate(0) translate(4 872)">
<title>Ogre::StringInterface</title>
<!-- Node1 -->
<g id="node1" class="node">
<title>Node1</title>
<g id="a_node1"><a xlink:title="Class defining the common interface which classes can use to present a reflection&#45;style,...">
<polygon fill="#bfbfbf" stroke="black" points="0,-454.5 0,-472.5 108.82,-472.5 108.82,-454.5 0,-454.5"/>
<text text-anchor="middle" x="54.41" y="-460.5" font-family="Helvetica,sans-Serif" font-size="10.00">Ogre::StringInterface</text>
</a>
</g>
</g>
<!-- Node2 -->
<g id="node2" class="node">
<title>Node2</title>
<g id="a_node2"><a xlink:href="class_ogre_1_1_external_texture_source.html" target="_top" xlink:title="IMPORTANT: Plugins must override default dictionary name! Base class that texture plugins derive from...">
<polygon fill="none" stroke="black" points="148.43,-686.5 148.43,-704.5 293.38,-704.5 293.38,-686.5 148.43,-686.5"/>
<text text-anchor="middle" x="220.9" y="-692.5" font-family="Helvetica,sans-Serif" font-size="10.00">Ogre::ExternalTextureSource</text>
</a>
</g>
</g>
<!-- Node1&#45;&gt;Node2 -->
<g id="edge1" class="edge">
<title>Node1&#45;&gt;Node2</title>
<path fill="none" stroke="midnightblue" d="M57.68,-483.02C63.67,-525.29 83.87,-625.62 144.82,-677.5 149.11,-681.15 154.01,-684.09 159.21,-686.44"/>
<polygon fill="midnightblue" stroke="midnightblue" points="61.13,-482.41 56.37,-472.94 54.19,-483.31 61.13,-482.41"/>
</g>
<!-- Node3 -->
<g id="node3" class="node">
<title>Node3</title>
<g id="a_node3"><a xlink:href="class_ogre_1_1_particle_affector.html" target="_top" xlink:title="Abstract class defining the interface to be implemented by particle affectors.">
<polygon fill="none" stroke="black" points="165.2,-649.5 165.2,-667.5 276.61,-667.5 276.61,-649.5 165.2,-649.5"/>
<text text-anchor="middle" x="220.9" y="-655.5" font-family="Helvetica,sans-Serif" font-size="10.00">Ogre::ParticleAffector</text>
</a>
</g>
</g>
<!-- Node1&#45;&gt;Node3 -->
<g id="edge2" class="edge">
<title>Node1&#45;&gt;Node3</title>
<path fill="none" stroke="midnightblue" d="M69.87,-480.64C103.51,-520.52 186.13,-618.46 212.02,-649.15"/>
<polygon fill="midnightblue" stroke="midnightblue" points="72.25,-478.03 63.12,-472.64 66.9,-482.54 72.25,-478.03"/>
</g>
<!-- Node13 -->
<g id="node13" class="node">
<title>Node13</title>
<g id="a_node13"><a xlink:href="class_ogre_1_1_particle_emitter.html" target="_top" xlink:title="Abstract class defining the interface to be implemented by particle emitters.">
<polygon fill="none" stroke="black" points="166.5,-491.5 166.5,-509.5 275.3,-509.5 275.3,-491.5 166.5,-491.5"/>
<text text-anchor="middle" x="220.9" y="-497.5" font-family="Helvetica,sans-Serif" font-size="10.00">Ogre::ParticleEmitter</text>
</a>
</g>
</g>
<!-- Node1&#45;&gt;Node13 -->
<g id="edge12" class="edge">
<title>Node1&#45;&gt;Node13</title>
<path fill="none" stroke="midnightblue" d="M105.56,-474.78C129.37,-480.14 157.43,-486.45 179.79,-491.48"/>
<polygon fill="midnightblue" stroke="midnightblue" points="106.17,-471.33 95.65,-472.55 104.64,-478.16 106.17,-471.33"/>
</g>
<!-- Node21 -->
<g id="node21" class="node">
<title>Node21</title>
<g id="a_node21"><a xlink:href="class_ogre_1_1_particle_system.html" target="_top" xlink:title="Class defining particle system based special effects.">
<polygon fill="none" stroke="black" points="165.67,-454.5 165.67,-472.5 276.14,-472.5 276.14,-454.5 165.67,-454.5"/>
<text text-anchor="middle" x="220.9" y="-460.5" font-family="Helvetica,sans-Serif" font-size="10.00">Ogre::ParticleSystem</text>
</a>
</g>
</g>
<!-- Node1&#45;&gt;Node21 -->
<g id="edge20" class="edge">
<title>Node1&#45;&gt;Node21</title>
<path fill="none" stroke="midnightblue" d="M119.64,-463.5C134.85,-463.5 150.92,-463.5 165.64,-463.5"/>
<polygon fill="midnightblue" stroke="midnightblue" points="119.27,-460 109.27,-463.5 119.27,-467 119.27,-460"/>
</g>
<!-- Node22 -->
<g id="node22" class="node">
<title>Node22</title>
<g id="a_node22"><a xlink:href="class_ogre_1_1_particle_system_renderer.html" target="_top" xlink:title="Abstract class defining the interface required to be implemented by classes which provide rendering c...">
<polygon fill="none" stroke="black" points="144.82,-417.5 144.82,-435.5 296.98,-435.5 296.98,-417.5 144.82,-417.5"/>
<text text-anchor="middle" x="220.9" y="-423.5" font-family="Helvetica,sans-Serif" font-size="10.00">Ogre::ParticleSystemRenderer</text>
</a>
</g>
</g>
<!-- Node1&#45;&gt;Node22 -->
<g id="edge21" class="edge">
<title>Node1&#45;&gt;Node22</title>
<path fill="none" stroke="midnightblue" d="M105.56,-452.22C129.37,-446.86 157.43,-440.55 179.79,-435.52"/>
<polygon fill="midnightblue" stroke="midnightblue" points="104.64,-448.84 95.65,-454.45 106.17,-455.67 104.64,-448.84"/>
</g>
<!-- Node24 -->
<g id="node24" class="node">
<title>Node24</title>
<g id="a_node24"><a xlink:href="class_ogre_1_1_resource.html" target="_top" xlink:title="Abstract class representing a loadable resource (e.g.">
<polygon fill="none" stroke="black" points="177.61,-264.5 177.61,-282.5 264.2,-282.5 264.2,-264.5 177.61,-264.5"/>
<text text-anchor="middle" x="220.9" y="-270.5" font-family="Helvetica,sans-Serif" font-size="10.00">Ogre::Resource</text>
</a>
</g>
</g>
<!-- Node1&#45;&gt;Node24 -->
<g id="edge23" class="edge">
<title>Node1&#45;&gt;Node24</title>
<path fill="none" stroke="midnightblue" d="M70.14,-446.48C103.97,-407.41 186.27,-312.35 212.05,-282.57"/>
<polygon fill="midnightblue" stroke="midnightblue" points="67.24,-444.48 63.34,-454.34 72.54,-449.07 67.24,-444.48"/>
</g>
<!-- Node56 -->
<g id="node46" class="node">
<title>Node56</title>
<g id="a_node46"><a xlink:href="class_ogre_1_1v1_1_1_overlay_element.html" target="_top" xlink:title="Abstract definition of a 2D element to be displayed in an Overlay.">
<polygon fill="none" stroke="black" points="155.38,-47.5 155.38,-65.5 286.43,-65.5 286.43,-47.5 155.38,-47.5"/>
<text text-anchor="middle" x="220.9" y="-53.5" font-family="Helvetica,sans-Serif" font-size="10.00">Ogre::v1::OverlayElement</text>
</a>
</g>
</g>
<!-- Node1&#45;&gt;Node56 -->
<g id="edge45" class="edge">
<title>Node1&#45;&gt;Node56</title>
<path fill="none" stroke="midnightblue" d="M63.02,-444.67C92.08,-372.78 195.42,-117.07 216.24,-65.57"/>
<polygon fill="midnightblue" stroke="midnightblue" points="59.66,-443.65 59.16,-454.23 66.15,-446.27 59.66,-443.65"/>
</g>
<!-- Node4 -->
<g id="node4" class="node">
<title>Node4</title>
<g id="a_node4"><a xlink:href="class_ogre_1_1_colour_fader_affector.html" target="_top" xlink:title="This plugin subclass of ParticleAffector allows you to alter the colour of particles.">
<polygon fill="none" stroke="black" points="337.99,-849.5 337.99,-867.5 471.64,-867.5 471.64,-849.5 337.99,-849.5"/>
<text text-anchor="middle" x="404.81" y="-855.5" font-family="Helvetica,sans-Serif" font-size="10.00">Ogre::ColourFaderAffector</text>
</a>
</g>
</g>
<!-- Node3&#45;&gt;Node4 -->
<g id="edge3" class="edge">
<title>Node3&#45;&gt;Node4</title>
<path fill="none" stroke="midnightblue" d="M285.94,-669.04C289.99,-671.36 293.74,-674.15 296.98,-677.5 348.64,-730.75 281.36,-787.22 332.98,-840.5 336.52,-844.14 340.67,-847.09 345.17,-849.47"/>
<polygon fill="midnightblue" stroke="midnightblue" points="287.21,-665.77 276.67,-664.67 284.22,-672.1 287.21,-665.77"/>
</g>
<!-- Node5 -->
<g id="node5" class="node">
<title>Node5</title>
<g id="a_node5"><a xlink:href="class_ogre_1_1_colour_fader_affector2.html" target="_top" xlink:title="This plugin subclass of ParticleAffector allows you to alter the colour of particles.">
<polygon fill="none" stroke="black" points="335.21,-812.5 335.21,-830.5 474.42,-830.5 474.42,-812.5 335.21,-812.5"/>
<text text-anchor="middle" x="404.81" y="-818.5" font-family="Helvetica,sans-Serif" font-size="10.00">Ogre::ColourFaderAffector2</text>
</a>
</g>
</g>
<!-- Node3&#45;&gt;Node5 -->
<g id="edge4" class="edge">
<title>Node3&#45;&gt;Node5</title>
<path fill="none" stroke="midnightblue" d="M285.92,-669.38C289.94,-671.63 293.69,-674.31 296.98,-677.5 338.79,-718.05 291.2,-762.93 332.98,-803.5 336.72,-807.12 341.07,-810.05 345.75,-812.41"/>
<polygon fill="midnightblue" stroke="midnightblue" points="287.29,-666.16 276.74,-665.12 284.34,-672.51 287.29,-666.16"/>
</g>
<!-- Node6 -->
<g id="node6" class="node">
<title>Node6</title>
<g id="a_node6"><a xlink:href="class_ogre_1_1_colour_image_affector.html" target="_top" xlink:title=" ">
<polygon fill="none" stroke="black" points="337.15,-775.5 337.15,-793.5 472.48,-793.5 472.48,-775.5 337.15,-775.5"/>
<text text-anchor="middle" x="404.81" y="-781.5" font-family="Helvetica,sans-Serif" font-size="10.00">Ogre::ColourImageAffector</text>
</a>
</g>
</g>
<!-- Node3&#45;&gt;Node6 -->
<g id="edge5" class="edge">
<title>Node3&#45;&gt;Node6</title>
<path fill="none" stroke="midnightblue" d="M285.76,-669.89C289.79,-672.02 293.59,-674.54 296.98,-677.5 329.14,-705.54 300.84,-738.44 332.98,-766.5 337.19,-770.17 342.04,-773.11 347.2,-775.47"/>
<polygon fill="midnightblue" stroke="midnightblue" points="287.18,-666.7 276.62,-665.82 284.33,-673.09 287.18,-666.7"/>
</g>
<!-- Node7 -->
<g id="node7" class="node">
<title>Node7</title>
<g id="a_node7"><a xlink:href="class_ogre_1_1_colour_interpolator_affector.html" target="_top" xlink:title=" ">
<polygon fill="none" stroke="black" points="342.9,-728.5 342.9,-756.5 466.73,-756.5 466.73,-728.5 342.9,-728.5"/>
<text text-anchor="start" x="350.9" y="-744.5" font-family="Helvetica,sans-Serif" font-size="10.00">Ogre::ColourInterpolator</text>
<text text-anchor="middle" x="404.81" y="-734.5" font-family="Helvetica,sans-Serif" font-size="10.00">Affector</text>
</a>
</g>
</g>
<!-- Node3&#45;&gt;Node7 -->
<g id="edge6" class="edge">
<title>Node3&#45;&gt;Node7</title>
<path fill="none" stroke="midnightblue" d="M284.56,-671.13C288.89,-672.97 293.09,-675.08 296.98,-677.5 317.88,-690.46 312.53,-705.86 332.98,-719.5 338.15,-722.94 343.87,-725.9 349.75,-728.44"/>
<polygon fill="midnightblue" stroke="midnightblue" points="285.47,-667.74 274.88,-667.51 283.02,-674.29 285.47,-667.74"/>
</g>
<!-- Node8 -->
<g id="node8" class="node">
<title>Node8</title>
<g id="a_node8"><a xlink:href="class_ogre_1_1_deflector_plane_affector.html" target="_top" xlink:title="This class defines a ParticleAffector which deflects particles.">
<polygon fill="none" stroke="black" points="332.98,-691.5 332.98,-709.5 476.65,-709.5 476.65,-691.5 332.98,-691.5"/>
<text text-anchor="middle" x="404.81" y="-697.5" font-family="Helvetica,sans-Serif" font-size="10.00">Ogre::DeflectorPlaneAffector</text>
</a>
</g>
</g>
<!-- Node3&#45;&gt;Node8 -->
<g id="edge7" class="edge">
<title>Node3&#45;&gt;Node8</title>
<path fill="none" stroke="midnightblue" d="M270.97,-669.83C300.32,-676.61 337.12,-685.1 364.54,-691.43"/>
<polygon fill="midnightblue" stroke="midnightblue" points="271.46,-666.35 260.93,-667.51 269.88,-673.17 271.46,-666.35"/>
</g>
<!-- Node9 -->
<g id="node9" class="node">
<title>Node9</title>
<g id="a_node9"><a xlink:href="class_ogre_1_1_direction_randomiser_affector.html" target="_top" xlink:title="This class defines a ParticleAffector which applies randomness to the movement of the particles.">
<polygon fill="none" stroke="black" points="336.24,-644.5 336.24,-672.5 473.39,-672.5 473.39,-644.5 336.24,-644.5"/>
<text text-anchor="start" x="344.24" y="-660.5" font-family="Helvetica,sans-Serif" font-size="10.00">Ogre::DirectionRandomiser</text>
<text text-anchor="middle" x="404.81" y="-650.5" font-family="Helvetica,sans-Serif" font-size="10.00">Affector</text>
</a>
</g>
</g>
<!-- Node3&#45;&gt;Node9 -->
<g id="edge8" class="edge">
<title>Node3&#45;&gt;Node9</title>
<path fill="none" stroke="midnightblue" d="M287.22,-658.5C303.09,-658.5 320.09,-658.5 336.07,-658.5"/>
<polygon fill="midnightblue" stroke="midnightblue" points="286.98,-655 276.98,-658.5 286.98,-662 286.98,-655"/>
</g>
<!-- Node10 -->
<g id="node10" class="node">
<title>Node10</title>
<g id="a_node10"><a xlink:href="class_ogre_1_1_linear_force_affector.html" target="_top" xlink:title="This class defines a ParticleAffector which applies a linear force to particles in a system.">
<polygon fill="none" stroke="black" points="339.1,-607.5 339.1,-625.5 470.53,-625.5 470.53,-607.5 339.1,-607.5"/>
<text text-anchor="middle" x="404.81" y="-613.5" font-family="Helvetica,sans-Serif" font-size="10.00">Ogre::LinearForceAffector</text>
</a>
</g>
</g>
<!-- Node3&#45;&gt;Node10 -->
<g id="edge9" class="edge">
<title>Node3&#45;&gt;Node10</title>
<path fill="none" stroke="midnightblue" d="M270.97,-647.17C300.32,-640.39 337.12,-631.9 364.54,-625.57"/>
<polygon fill="midnightblue" stroke="midnightblue" points="269.88,-643.83 260.93,-649.49 271.46,-650.65 269.88,-643.83"/>
</g>
<!-- Node11 -->
<g id="node11" class="node">
<title>Node11</title>
<g id="a_node11"><a xlink:href="class_ogre_1_1_rotation_affector.html" target="_top" xlink:title="This plugin subclass of ParticleAffector allows you to alter the rotation of particles.">
<polygon fill="none" stroke="black" points="347.16,-570.5 347.16,-588.5 462.47,-588.5 462.47,-570.5 347.16,-570.5"/>
<text text-anchor="middle" x="404.81" y="-576.5" font-family="Helvetica,sans-Serif" font-size="10.00">Ogre::RotationAffector</text>
</a>
</g>
</g>
<!-- Node3&#45;&gt;Node11 -->
<g id="edge10" class="edge">
<title>Node3&#45;&gt;Node11</title>
<path fill="none" stroke="midnightblue" d="M244.7,-644.13C266.64,-630.81 301.09,-611.19 332.98,-598.5 342.68,-594.64 353.44,-591.3 363.57,-588.55"/>
<polygon fill="midnightblue" stroke="midnightblue" points="242.8,-641.2 236.11,-649.42 246.46,-647.16 242.8,-641.2"/>
</g>
<!-- Node12 -->
<g id="node12" class="node">
<title>Node12</title>
<g id="a_node12"><a xlink:href="class_ogre_1_1_scale_affector.html" target="_top" xlink:title="This plugin subclass of ParticleAffector allows you to alter the scale of particles.">
<polygon fill="none" stroke="black" points="353.27,-533.5 353.27,-551.5 456.36,-551.5 456.36,-533.5 353.27,-533.5"/>
<text text-anchor="middle" x="404.81" y="-539.5" font-family="Helvetica,sans-Serif" font-size="10.00">Ogre::ScaleAffector</text>
</a>
</g>
</g>
<!-- Node3&#45;&gt;Node12 -->
<g id="edge11" class="edge">
<title>Node3&#45;&gt;Node12</title>
<path fill="none" stroke="midnightblue" d="M236.42,-641.77C256.15,-620.08 293.5,-582.56 332.98,-561.5 340.62,-557.43 349.2,-554.18 357.68,-551.6"/>
<polygon fill="midnightblue" stroke="midnightblue" points="233.58,-639.7 229.54,-649.49 238.8,-644.36 233.58,-639.7"/>
</g>
<!-- Node14 -->
<g id="node14" class="node">
<title>Node14</title>
<g id="a_node14"><a xlink:href="class_ogre_1_1_area_emitter.html" target="_top" xlink:title="Particle emitter which emits particles randomly from points inside an area (box, sphere,...">
<polygon fill="none" stroke="black" points="356.52,-496.5 356.52,-514.5 453.11,-514.5 453.11,-496.5 356.52,-496.5"/>
<text text-anchor="middle" x="404.81" y="-502.5" font-family="Helvetica,sans-Serif" font-size="10.00">Ogre::AreaEmitter</text>
</a>
</g>
</g>
<!-- Node13&#45;&gt;Node14 -->
<g id="edge13" class="edge">
<title>Node13&#45;&gt;Node14</title>
<path fill="none" stroke="midnightblue" d="M285.65,-502.25C308.94,-502.89 334.86,-503.6 356.47,-504.2"/>
<polygon fill="midnightblue" stroke="midnightblue" points="285.59,-498.75 275.5,-501.97 285.4,-505.75 285.59,-498.75"/>
</g>
<!-- Node20 -->
<g id="node20" class="node">
<title>Node20</title>
<g id="a_node20"><a xlink:href="class_ogre_1_1_point_emitter.html" target="_top" xlink:title="Particle emitter which emits particles from a single point.">
<polygon fill="none" stroke="black" points="355.69,-459.5 355.69,-477.5 453.94,-477.5 453.94,-459.5 355.69,-459.5"/>
<text text-anchor="middle" x="404.81" y="-465.5" font-family="Helvetica,sans-Serif" font-size="10.00">Ogre::PointEmitter</text>
</a>
</g>
</g>
<!-- Node13&#45;&gt;Node20 -->
<g id="edge19" class="edge">
<title>Node13&#45;&gt;Node20</title>
<path fill="none" stroke="midnightblue" d="M283.42,-489.68C306.93,-485.54 333.37,-480.89 355.48,-477"/>
<polygon fill="midnightblue" stroke="midnightblue" points="282.79,-486.24 273.55,-491.42 284,-493.13 282.79,-486.24"/>
</g>
<!-- Node15 -->
<g id="node15" class="node">
<title>Node15</title>
<g id="a_node15"><a xlink:href="class_ogre_1_1_box_emitter.html" target="_top" xlink:title="Particle emitter which emits particles randomly from points inside a box.">
<polygon fill="none" stroke="black" points="544.61,-551.5 544.61,-569.5 637.3,-569.5 637.3,-551.5 544.61,-551.5"/>
<text text-anchor="middle" x="590.96" y="-557.5" font-family="Helvetica,sans-Serif" font-size="10.00">Ogre::BoxEmitter</text>
</a>
</g>
</g>
<!-- Node14&#45;&gt;Node15 -->
<g id="edge14" class="edge">
<title>Node14&#45;&gt;Node15</title>
<path fill="none" stroke="midnightblue" d="M455.09,-517.34C462.39,-519.49 469.77,-521.89 476.65,-524.5 493.37,-530.85 495.82,-536.43 512.65,-542.5 522.76,-546.15 533.88,-549.24 544.47,-551.78"/>
<polygon fill="midnightblue" stroke="midnightblue" points="455.81,-513.91 445.23,-514.56 453.91,-520.64 455.81,-513.91"/>
</g>
<!-- Node16 -->
<g id="node16" class="node">
<title>Node16</title>
<g id="a_node16"><a xlink:href="class_ogre_1_1_cylinder_emitter.html" target="_top" xlink:title="Particle emitter which emits particles randomly from points inside a cylinder.">
<polygon fill="none" stroke="black" points="534.89,-514.5 534.89,-532.5 647.02,-532.5 647.02,-514.5 534.89,-514.5"/>
<text text-anchor="middle" x="590.96" y="-520.5" font-family="Helvetica,sans-Serif" font-size="10.00">Ogre::CylinderEmitter</text>
</a>
</g>
</g>
<!-- Node14&#45;&gt;Node16 -->
<g id="edge15" class="edge">
<title>Node14&#45;&gt;Node16</title>
<path fill="none" stroke="midnightblue" d="M463.45,-511.13C486.24,-513.36 512.32,-515.91 534.86,-518.11"/>
<polygon fill="midnightblue" stroke="midnightblue" points="463.53,-507.63 453.24,-510.14 462.85,-514.59 463.53,-507.63"/>
</g>
<!-- Node17 -->
<g id="node17" class="node">
<title>Node17</title>
<g id="a_node17"><a xlink:href="class_ogre_1_1_ellipsoid_emitter.html" target="_top" xlink:title="Particle emitter which emits particles randomly from points inside an ellipsoid.">
<polygon fill="none" stroke="black" points="534.61,-477.5 534.61,-495.5 647.31,-495.5 647.31,-477.5 534.61,-477.5"/>
<text text-anchor="middle" x="590.96" y="-483.5" font-family="Helvetica,sans-Serif" font-size="10.00">Ogre::EllipsoidEmitter</text>
</a>
</g>
</g>
<!-- Node14&#45;&gt;Node17 -->
<g id="edge16" class="edge">
<title>Node14&#45;&gt;Node17</title>
<path fill="none" stroke="midnightblue" d="M463.41,-499.56C486.1,-497.22 512.05,-494.54 534.53,-492.22"/>
<polygon fill="midnightblue" stroke="midnightblue" points="462.82,-496.1 453.24,-500.61 463.54,-503.06 462.82,-496.1"/>
</g>
<!-- Node19 -->
<g id="node19" class="node">
<title>Node19</title>
<g id="a_node19"><a xlink:href="class_ogre_1_1_ring_emitter.html" target="_top" xlink:title="Particle emitter which emits particles randomly from points inside a ring (e.g.">
<polygon fill="none" stroke="black" points="542.94,-440.5 542.94,-458.5 638.97,-458.5 638.97,-440.5 542.94,-440.5"/>
<text text-anchor="middle" x="590.96" y="-446.5" font-family="Helvetica,sans-Serif" font-size="10.00">Ogre::RingEmitter</text>
</a>
</g>
</g>
<!-- Node14&#45;&gt;Node19 -->
<g id="edge18" class="edge">
<title>Node14&#45;&gt;Node19</title>
<path fill="none" stroke="midnightblue" d="M458.14,-493.7C464.45,-491.84 470.74,-489.77 476.65,-487.5 493.53,-481 495.73,-474.93 512.65,-468.5 522.98,-464.57 534.41,-461.24 545.23,-458.52"/>
<polygon fill="midnightblue" stroke="midnightblue" points="456.97,-490.4 448.28,-496.45 458.85,-497.14 456.97,-490.4"/>
</g>
<!-- Node18 -->
<g id="node18" class="node">
<title>Node18</title>
<g id="a_node18"><a xlink:href="class_ogre_1_1_hollow_ellipsoid_emitter.html" target="_top" xlink:title="Particle emitter which emits particles randomly from points inside a hollow ellipsoid.">
<polygon fill="none" stroke="black" points="718.61,-477.5 718.61,-495.5 861.32,-495.5 861.32,-477.5 718.61,-477.5"/>
<text text-anchor="middle" x="789.96" y="-483.5" font-family="Helvetica,sans-Serif" font-size="10.00">Ogre::HollowEllipsoidEmitter</text>
</a>
</g>
</g>
<!-- Node17&#45;&gt;Node18 -->
<g id="edge17" class="edge">
<title>Node17&#45;&gt;Node18</title>
<path fill="none" stroke="midnightblue" d="M657.41,-486.5C677.01,-486.5 698.58,-486.5 718.49,-486.5"/>
<polygon fill="midnightblue" stroke="midnightblue" points="657.36,-483 647.36,-486.5 657.36,-490 657.36,-483"/>
</g>
<!-- Node23 -->
<g id="node23" class="node">
<title>Node23</title>
<g id="a_node23"><a xlink:href="class_ogre_1_1v1_1_1_billboard_particle_renderer.html" target="_top" xlink:title="Specialisation of ParticleSystemRenderer to render particles using a BillboardSet.">
<polygon fill="none" stroke="black" points="338.73,-412.5 338.73,-440.5 470.9,-440.5 470.9,-412.5 338.73,-412.5"/>
<text text-anchor="start" x="346.73" y="-428.5" font-family="Helvetica,sans-Serif" font-size="10.00">Ogre::v1::BillboardParticle</text>
<text text-anchor="middle" x="404.81" y="-418.5" font-family="Helvetica,sans-Serif" font-size="10.00">Renderer</text>
</a>
</g>
</g>
<!-- Node22&#45;&gt;Node23 -->
<g id="edge22" class="edge">
<title>Node22&#45;&gt;Node23</title>
<path fill="none" stroke="midnightblue" d="M307.29,-426.5C317.86,-426.5 328.52,-426.5 338.72,-426.5"/>
<polygon fill="midnightblue" stroke="midnightblue" points="307.21,-423 297.21,-426.5 307.21,-430 307.21,-423"/>
</g>
<!-- Node25 -->
<g id="node25" class="node">
<title>Node25</title>
<g id="a_node25"><a xlink:href="class_ogre_1_1_bsp_level.html" target="_top" xlink:title="Holds all the data associated with a Binary Space Parition (BSP) based indoor level.">
<polygon fill="none" stroke="black" points="362.35,-375.5 362.35,-393.5 447.28,-393.5 447.28,-375.5 362.35,-375.5"/>
<text text-anchor="middle" x="404.81" y="-381.5" font-family="Helvetica,sans-Serif" font-size="10.00">Ogre::BspLevel</text>
</a>
</g>
</g>
<!-- Node24&#45;&gt;Node25 -->
<g id="edge24" class="edge">
<title>Node24&#45;&gt;Node25</title>
<path fill="none" stroke="midnightblue" d="M237.14,-290.23C257.12,-311.16 294.24,-346.68 332.98,-366.5 342.02,-371.12 352.33,-374.62 362.23,-377.23"/>
<polygon fill="midnightblue" stroke="midnightblue" points="239.51,-287.64 230.12,-282.73 234.4,-292.42 239.51,-287.64"/>
</g>
<!-- Node26 -->
<g id="node26" class="node">
<title>Node26</title>
<g id="a_node26"><a xlink:href="class_ogre_1_1_font.html" target="_top" xlink:title="Class representing a font in the system.">
<polygon fill="none" stroke="black" points="372.92,-338.5 372.92,-356.5 436.71,-356.5 436.71,-338.5 372.92,-338.5"/>
<text text-anchor="middle" x="404.81" y="-344.5" font-family="Helvetica,sans-Serif" font-size="10.00">Ogre::Font</text>
</a>
</g>
</g>
<!-- Node24&#45;&gt;Node26 -->
<g id="edge25" class="edge">
<title>Node24&#45;&gt;Node26</title>
<path fill="none" stroke="midnightblue" d="M246.21,-287.7C268.26,-300.11 301.97,-317.9 332.98,-329.5 345.7,-334.26 360.16,-338.18 372.69,-341.14"/>
<polygon fill="midnightblue" stroke="midnightblue" points="247.66,-284.5 237.24,-282.59 244.19,-290.58 247.66,-284.5"/>
</g>
<!-- Node27 -->
<g id="node27" class="node">
<title>Node27</title>
<g id="a_node27"><a xlink:href="class_ogre_1_1_gpu_program.html" target="_top" xlink:title="Defines a program which runs on the GPU such as a vertex or fragment program.">
<polygon fill="none" stroke="black" points="354.3,-301.5 354.3,-319.5 455.33,-319.5 455.33,-301.5 354.3,-301.5"/>
<text text-anchor="middle" x="404.81" y="-307.5" font-family="Helvetica,sans-Serif" font-size="10.00">Ogre::GpuProgram</text>
</a>
</g>
</g>
<!-- Node24&#45;&gt;Node27 -->
<g id="edge26" class="edge">
<title>Node24&#45;&gt;Node27</title>
<path fill="none" stroke="midnightblue" d="M274.58,-284.21C301.51,-289.69 333.91,-296.28 359.53,-301.49"/>
<polygon fill="midnightblue" stroke="midnightblue" points="275.05,-280.74 264.55,-282.17 273.66,-287.6 275.05,-280.74"/>
</g>
<!-- Node38 -->
<g id="node34" class="node">
<title>Node38</title>
<g id="a_node34"><a xlink:href="class_ogre_1_1_material.html" target="_top" xlink:title="Class encapsulates rendering properties of an object.">
<polygon fill="none" stroke="black" points="365.14,-264.5 365.14,-282.5 444.49,-282.5 444.49,-264.5 365.14,-264.5"/>
<text text-anchor="middle" x="404.81" y="-270.5" font-family="Helvetica,sans-Serif" font-size="10.00">Ogre::Material</text>
</a>
</g>
</g>
<!-- Node24&#45;&gt;Node38 -->
<g id="edge33" class="edge">
<title>Node24&#45;&gt;Node38</title>
<path fill="none" stroke="midnightblue" d="M274.85,-273.5C303.62,-273.5 338.59,-273.5 364.85,-273.5"/>
<polygon fill="midnightblue" stroke="midnightblue" points="274.55,-270 264.55,-273.5 274.55,-277 274.55,-270"/>
</g>
<!-- Node39 -->
<g id="node35" class="node">
<title>Node39</title>
<g id="a_node35"><a xlink:href="class_ogre_1_1_mesh.html" target="_top" xlink:title="Resource holding data about 3D mesh.">
<polygon fill="none" stroke="black" points="370.69,-227.5 370.69,-245.5 438.94,-245.5 438.94,-227.5 370.69,-227.5"/>
<text text-anchor="middle" x="404.81" y="-233.5" font-family="Helvetica,sans-Serif" font-size="10.00">Ogre::Mesh</text>
</a>
</g>
</g>
<!-- Node24&#45;&gt;Node39 -->
<g id="edge34" class="edge">
<title>Node24&#45;&gt;Node39</title>
<path fill="none" stroke="midnightblue" d="M274.74,-262.75C305.66,-256.47 343.75,-248.72 370.51,-243.27"/>
<polygon fill="midnightblue" stroke="midnightblue" points="273.66,-259.4 264.55,-264.83 275.05,-266.26 273.66,-259.4"/>
</g>
<!-- Node40 -->
<g id="node36" class="node">
<title>Node40</title>
<g id="a_node36"><a xlink:href="class_ogre_1_1_texture.html" target="_top" xlink:title="Abstract class representing a Texture resource.">
<polygon fill="none" stroke="black" points="366.52,-190.5 366.52,-208.5 443.11,-208.5 443.11,-190.5 366.52,-190.5"/>
<text text-anchor="middle" x="404.81" y="-196.5" font-family="Helvetica,sans-Serif" font-size="10.00">Ogre::Texture</text>
</a>
</g>
</g>
<!-- Node24&#45;&gt;Node40 -->
<g id="edge35" class="edge">
<title>Node24&#45;&gt;Node40</title>
<path fill="none" stroke="midnightblue" d="M246.66,-259.47C268.77,-247.37 302.29,-230.08 332.98,-218.5 343.59,-214.5 355.38,-210.98 366.25,-208.1"/>
<polygon fill="midnightblue" stroke="midnightblue" points="244.7,-256.55 237.65,-264.46 248.09,-262.68 244.7,-256.55"/>
</g>
<!-- Node52 -->
<g id="node42" class="node">
<title>Node52</title>
<g id="a_node42"><a xlink:href="class_ogre_1_1v1_1_1_mesh.html" target="_top" xlink:title="Resource holding data about 3D mesh.">
<polygon fill="none" stroke="black" points="362.64,-148.5 362.64,-166.5 446.99,-166.5 446.99,-148.5 362.64,-148.5"/>
<text text-anchor="middle" x="404.81" y="-154.5" font-family="Helvetica,sans-Serif" font-size="10.00">Ogre::v1::Mesh</text>
</a>
</g>
</g>
<!-- Node24&#45;&gt;Node52 -->
<g id="edge41" class="edge">
<title>Node24&#45;&gt;Node52</title>
<path fill="none" stroke="midnightblue" d="M237.73,-257.12C258.1,-236.87 295.35,-202.51 332.98,-181.5 344.09,-175.3 357.08,-170.33 368.87,-166.55"/>
<polygon fill="midnightblue" stroke="midnightblue" points="235.1,-254.8 230.56,-264.37 240.08,-259.73 235.1,-254.8"/>
</g>
<!-- Node54 -->
<g id="node44" class="node">
<title>Node54</title>
<g id="a_node44"><a xlink:href="class_ogre_1_1v1_1_1_skeleton.html" target="_top" xlink:title="A collection of OldBone objects used to animate a skinned mesh.">
<polygon fill="none" stroke="black" points="355.4,-102.5 355.4,-120.5 454.23,-120.5 454.23,-102.5 355.4,-102.5"/>
<text text-anchor="middle" x="404.81" y="-108.5" font-family="Helvetica,sans-Serif" font-size="10.00">Ogre::v1::Skeleton</text>
</a>
</g>
</g>
<!-- Node24&#45;&gt;Node54 -->
<g id="edge43" class="edge">
<title>Node24&#45;&gt;Node54</title>
<path fill="none" stroke="midnightblue" d="M232.56,-255.54C250.17,-227.25 287.91,-172.2 332.98,-139.5 344.33,-131.27 358.42,-125.06 371.04,-120.6"/>
<polygon fill="midnightblue" stroke="midnightblue" points="229.41,-253.98 227.19,-264.34 235.39,-257.63 229.41,-253.98"/>
</g>
<!-- Node28 -->
<g id="node28" class="node">
<title>Node28</title>
<g id="a_node28"><a xlink:href="class_ogre_1_1_d3_d9_gpu_program.html" target="_top" xlink:title="Direct3D implementation of a few things common to low&#45;level vertex &amp; fragment programs.">
<polygon fill="none" stroke="black" points="527.66,-357.5 527.66,-375.5 654.26,-375.5 654.26,-357.5 527.66,-357.5"/>
<text text-anchor="middle" x="590.96" y="-363.5" font-family="Helvetica,sans-Serif" font-size="10.00">Ogre::D3D9GpuProgram</text>
</a>
</g>
</g>
<!-- Node27&#45;&gt;Node28 -->
<g id="edge27" class="edge">
<title>Node27&#45;&gt;Node28</title>
<path fill="none" stroke="midnightblue" d="M455.4,-322.28C462.61,-324.43 469.88,-326.85 476.65,-329.5 493.49,-336.11 495.7,-342.17 512.65,-348.5 522.07,-352.02 532.41,-354.99 542.37,-357.45"/>
<polygon fill="midnightblue" stroke="midnightblue" points="456.23,-318.88 445.66,-319.52 454.32,-325.61 456.23,-318.88"/>
</g>
<!-- Node31 -->
<g id="node31" class="node">
<title>Node31</title>
<g id="a_node31"><a xlink:href="class_ogre_1_1_high_level_gpu_program.html" target="_top" xlink:title="Abstract base class representing a high&#45;level program (a vertex or fragment program).">
<polygon fill="none" stroke="red" points="518.2,-320.5 518.2,-338.5 663.71,-338.5 663.71,-320.5 518.2,-320.5"/>
<text text-anchor="middle" x="590.96" y="-326.5" font-family="Helvetica,sans-Serif" font-size="10.00">Ogre::HighLevelGpuProgram</text>
</a>
</g>
</g>
<!-- Node27&#45;&gt;Node31 -->
<g id="edge30" class="edge">
<title>Node27&#45;&gt;Node31</title>
<path fill="none" stroke="midnightblue" d="M465.78,-316.69C482.44,-318.41 500.69,-320.29 517.96,-322.07"/>
<polygon fill="midnightblue" stroke="midnightblue" points="465.95,-313.19 455.65,-315.64 465.23,-320.15 465.95,-313.19"/>
</g>
<!-- Node29 -->
<g id="node29" class="node">
<title>Node29</title>
<g id="a_node29"><a xlink:href="class_ogre_1_1_d3_d9_gpu_fragment_program.html" target="_top" xlink:title="Direct3D implementation of low&#45;level fragment programs.">
<polygon fill="none" stroke="black" points="705.27,-394.5 705.27,-412.5 874.66,-412.5 874.66,-394.5 705.27,-394.5"/>
<text text-anchor="middle" x="789.96" y="-400.5" font-family="Helvetica,sans-Serif" font-size="10.00">Ogre::D3D9GpuFragmentProgram</text>
</a>
</g>
</g>
<!-- Node28&#45;&gt;Node29 -->
<g id="edge28" class="edge">
<title>Node28&#45;&gt;Node29</title>
<path fill="none" stroke="midnightblue" d="M649.87,-377.38C678.79,-382.81 713.36,-389.3 740.81,-394.46"/>
<polygon fill="midnightblue" stroke="midnightblue" points="650.37,-373.91 639.9,-375.5 649.08,-380.79 650.37,-373.91"/>
</g>
<!-- Node30 -->
<g id="node30" class="node">
<title>Node30</title>
<g id="a_node30"><a xlink:href="class_ogre_1_1_d3_d9_gpu_vertex_program.html" target="_top" xlink:title="Direct3D implementation of low&#45;level vertex programs.">
<polygon fill="none" stroke="black" points="712.48,-357.5 712.48,-375.5 867.44,-375.5 867.44,-357.5 712.48,-357.5"/>
<text text-anchor="middle" x="789.96" y="-363.5" font-family="Helvetica,sans-Serif" font-size="10.00">Ogre::D3D9GpuVertexProgram</text>
</a>
</g>
</g>
<!-- Node28&#45;&gt;Node30 -->
<g id="edge29" class="edge">
<title>Node28&#45;&gt;Node30</title>
<path fill="none" stroke="midnightblue" d="M664.37,-366.5C679.93,-366.5 696.43,-366.5 712.16,-366.5"/>
<polygon fill="midnightblue" stroke="midnightblue" points="664.29,-363 654.29,-366.5 664.29,-370 664.29,-363"/>
</g>
<!-- Node32 -->
<g id="node32" class="node">
<title>Node32</title>
<g id="a_node32"><a xlink:href="class_ogre_1_1_cg_program.html" target="_top" xlink:title="Specialisation of HighLevelGpuProgram to provide support for nVidia&#39;s CG language.">
<polygon fill="none" stroke="black" points="742.5,-320.5 742.5,-338.5 837.42,-338.5 837.42,-320.5 742.5,-320.5"/>
<text text-anchor="middle" x="789.96" y="-326.5" font-family="Helvetica,sans-Serif" font-size="10.00">Ogre::CgProgram</text>
</a>
</g>
</g>
<!-- Node31&#45;&gt;Node32 -->
<g id="edge31" class="edge">
<title>Node31&#45;&gt;Node32</title>
<path fill="none" stroke="midnightblue" d="M674.15,-329.5C697.43,-329.5 721.95,-329.5 742.33,-329.5"/>
<polygon fill="midnightblue" stroke="midnightblue" points="673.92,-326 663.92,-329.5 673.92,-333 673.92,-326"/>
</g>
<!-- Node33 -->
<g id="node33" class="node">
<title>Node33</title>
<g id="a_node33"><a xlink:href="class_ogre_1_1_d3_d11_h_l_s_l_program.html" target="_top" xlink:title="Specialization of HighLevelGpuProgram to provide support for D3D11 High&#45;Level Shader Language (HLSL).">
<polygon fill="none" stroke="black" points="721.19,-283.5 721.19,-301.5 858.73,-301.5 858.73,-283.5 721.19,-283.5"/>
<text text-anchor="middle" x="789.96" y="-289.5" font-family="Helvetica,sans-Serif" font-size="10.00">Ogre::D3D11HLSLProgram</text>
</a>
</g>
</g>
<!-- Node31&#45;&gt;Node33 -->
<g id="edge32" class="edge">
<title>Node31&#45;&gt;Node33</title>
<path fill="none" stroke="midnightblue" d="M649.87,-318.62C678.79,-313.19 713.36,-306.7 740.81,-301.54"/>
<polygon fill="midnightblue" stroke="midnightblue" points="649.08,-315.21 639.9,-320.5 650.37,-322.09 649.08,-315.21"/>
</g>
<!-- Node41 -->
<g id="node37" class="node">
<title>Node41</title>
<g id="a_node37"><a xlink:href="class_ogre_1_1_d3_d11_texture.html" target="_top" xlink:title=" ">
<polygon fill="none" stroke="red" points="537.47,-283.5 537.47,-301.5 644.44,-301.5 644.44,-283.5 537.47,-283.5"/>
<text text-anchor="middle" x="590.96" y="-289.5" font-family="Helvetica,sans-Serif" font-size="10.00">Ogre::D3D11Texture</text>
</a>
</g>
</g>
<!-- Node40&#45;&gt;Node41 -->
<g id="edge36" class="edge">
<title>Node40&#45;&gt;Node41</title>
<path fill="none" stroke="midnightblue" d="M453.16,-206.98C461.49,-209.71 469.7,-213.43 476.65,-218.5 500.54,-235.95 488.46,-257.45 512.65,-274.5 519.97,-279.66 528.55,-283.36 537.29,-286.01"/>
<polygon fill="midnightblue" stroke="midnightblue" points="453.97,-203.58 443.4,-204.22 452.07,-210.31 453.97,-203.58"/>
</g>
<!-- Node44 -->
<g id="node38" class="node">
<title>Node44</title>
<g id="a_node38"><a xlink:href="class_ogre_1_1_d3_d9_texture.html" target="_top" xlink:title=" ">
<polygon fill="none" stroke="black" points="539.88,-246.5 539.88,-264.5 642.03,-264.5 642.03,-246.5 539.88,-246.5"/>
<text text-anchor="middle" x="590.96" y="-252.5" font-family="Helvetica,sans-Serif" font-size="10.00">Ogre::D3D9Texture</text>
</a>
</g>
</g>
<!-- Node40&#45;&gt;Node44 -->
<g id="edge37" class="edge">
<title>Node40&#45;&gt;Node44</title>
<path fill="none" stroke="midnightblue" d="M453.32,-210.67C461.21,-212.97 469.23,-215.59 476.65,-218.5 493.49,-225.11 495.7,-231.17 512.65,-237.5 522.07,-241.02 532.41,-243.99 542.37,-246.45"/>
<polygon fill="midnightblue" stroke="midnightblue" points="454.02,-207.23 443.45,-207.92 452.15,-213.97 454.02,-207.23"/>
</g>
<!-- Node45 -->
<g id="node39" class="node">
<title>Node45</title>
<g id="a_node39"><a xlink:href="class_ogre_1_1_g_l3_plus_texture.html" target="_top" xlink:title=" ">
<polygon fill="none" stroke="red" points="533.49,-209.5 533.49,-227.5 648.42,-227.5 648.42,-209.5 533.49,-209.5"/>
<text text-anchor="middle" x="590.96" y="-215.5" font-family="Helvetica,sans-Serif" font-size="10.00">Ogre::GL3PlusTexture</text>
</a>
</g>
</g>
<!-- Node40&#45;&gt;Node45 -->
<g id="edge38" class="edge">
<title>Node40&#45;&gt;Node45</title>
<path fill="none" stroke="midnightblue" d="M453.62,-204.43C478.02,-206.95 507.87,-210.03 533.41,-212.67"/>
<polygon fill="midnightblue" stroke="midnightblue" points="453.83,-200.94 443.52,-203.39 453.11,-207.9 453.83,-200.94"/>
</g>
<!-- Node48 -->
<g id="node40" class="node">
<title>Node48</title>
<g id="a_node40"><a xlink:href="class_ogre_1_1_metal_texture.html" target="_top" xlink:title=" ">
<polygon fill="none" stroke="red" points="540.44,-172.5 540.44,-190.5 641.47,-190.5 641.47,-172.5 540.44,-172.5"/>
<text text-anchor="middle" x="590.96" y="-178.5" font-family="Helvetica,sans-Serif" font-size="10.00">Ogre::MetalTexture</text>
</a>
</g>
</g>
<!-- Node40&#45;&gt;Node48 -->
<g id="edge39" class="edge">
<title>Node40&#45;&gt;Node48</title>
<path fill="none" stroke="midnightblue" d="M453.76,-194.81C480.41,-192.21 513.51,-188.97 540.41,-186.34"/>
<polygon fill="midnightblue" stroke="midnightblue" points="453.13,-191.36 443.52,-195.81 453.82,-198.32 453.13,-191.36"/>
</g>
<!-- Node51 -->
<g id="node41" class="node">
<title>Node51</title>
<g id="a_node41"><a xlink:href="class_ogre_1_1_n_u_l_l_texture.html" target="_top" xlink:title=" ">
<polygon fill="none" stroke="black" points="540.25,-135.5 540.25,-153.5 641.66,-153.5 641.66,-135.5 540.25,-135.5"/>
<text text-anchor="middle" x="590.96" y="-141.5" font-family="Helvetica,sans-Serif" font-size="10.00">Ogre::NULLTexture</text>
</a>
</g>
</g>
<!-- Node40&#45;&gt;Node51 -->
<g id="edge40" class="edge">
<title>Node40&#45;&gt;Node51</title>
<path fill="none" stroke="midnightblue" d="M444.26,-187.27C454.78,-183.85 466.17,-180.09 476.65,-176.5 492.74,-170.98 496.36,-168.43 512.65,-163.5 524.55,-159.9 537.64,-156.48 549.61,-153.56"/>
<polygon fill="midnightblue" stroke="midnightblue" points="442.93,-184.02 434.49,-190.42 445.08,-190.68 442.93,-184.02"/>
</g>
<!-- Node53 -->
<g id="node43" class="node">
<title>Node53</title>
<g id="a_node43"><a xlink:href="class_ogre_1_1v1_1_1_patch_mesh.html" target="_top" xlink:title="Patch specialisation of Mesh.">
<polygon fill="none" stroke="black" points="535.99,-98.5 535.99,-116.5 645.92,-116.5 645.92,-98.5 535.99,-98.5"/>
<text text-anchor="middle" x="590.96" y="-104.5" font-family="Helvetica,sans-Serif" font-size="10.00">Ogre::v1::PatchMesh</text>
</a>
</g>
</g>
<!-- Node52&#45;&gt;Node53 -->
<g id="edge42" class="edge">
<title>Node52&#45;&gt;Node53</title>
<path fill="none" stroke="midnightblue" d="M445.4,-145.59C465.48,-139.65 490.3,-132.48 512.65,-126.5 525.33,-123.1 539.24,-119.61 551.73,-116.56"/>
<polygon fill="midnightblue" stroke="midnightblue" points="444.24,-142.28 435.65,-148.48 446.24,-148.99 444.24,-142.28"/>
</g>
<!-- Node55 -->
<g id="node45" class="node">
<title>Node55</title>
<g id="a_node45"><a xlink:href="class_ogre_1_1v1_1_1_old_skeleton_instance.html" target="_top" xlink:title="A OldSkeletonInstance is a single instance of a Skeleton used by a world object.">
<polygon fill="none" stroke="black" points="514.86,-61.5 514.86,-79.5 667.05,-79.5 667.05,-61.5 514.86,-61.5"/>
<text text-anchor="middle" x="590.96" y="-67.5" font-family="Helvetica,sans-Serif" font-size="10.00">Ogre::v1::OldSkeletonInstance</text>
</a>
</g>
</g>
<!-- Node54&#45;&gt;Node55 -->
<g id="edge44" class="edge">
<title>Node54&#45;&gt;Node55</title>
<path fill="none" stroke="midnightblue" d="M456.71,-100.17C485.97,-93.65 522.22,-85.58 549.52,-79.5"/>
<polygon fill="midnightblue" stroke="midnightblue" points="455.68,-96.81 446.68,-102.4 457.2,-103.64 455.68,-96.81"/>
</g>
<!-- Node57 -->
<g id="node47" class="node">
<title>Node57</title>
<g id="a_node47"><a xlink:href="class_ogre_1_1v1_1_1_overlay_container.html" target="_top" xlink:title="A 2D element which contains other OverlayElement instances.">
<polygon fill="none" stroke="black" points="335.96,-47.5 335.96,-65.5 473.67,-65.5 473.67,-47.5 335.96,-47.5"/>
<text text-anchor="middle" x="404.81" y="-53.5" font-family="Helvetica,sans-Serif" font-size="10.00">Ogre::v1::OverlayContainer</text>
</a>
</g>
</g>
<!-- Node56&#45;&gt;Node57 -->
<g id="edge46" class="edge">
<title>Node56&#45;&gt;Node57</title>
<path fill="none" stroke="midnightblue" d="M296.77,-56.5C309.65,-56.5 322.99,-56.5 335.68,-56.5"/>
<polygon fill="midnightblue" stroke="midnightblue" points="296.55,-53 286.55,-56.5 296.55,-60 296.55,-53"/>
</g>
<!-- Node60 -->
<g id="node49" class="node">
<title>Node60</title>
<g id="a_node49"><a xlink:href="class_ogre_1_1v1_1_1_text_area_overlay_element.html" target="_top" xlink:title="This class implements an overlay element which contains simple unformatted text.">
<polygon fill="none" stroke="black" points="337.9,-0.5 337.9,-28.5 471.73,-28.5 471.73,-0.5 337.9,-0.5"/>
<text text-anchor="start" x="345.9" y="-16.5" font-family="Helvetica,sans-Serif" font-size="10.00">Ogre::v1::TextAreaOverlay</text>
<text text-anchor="middle" x="404.81" y="-6.5" font-family="Helvetica,sans-Serif" font-size="10.00">Element</text>
</a>
</g>
</g>
<!-- Node56&#45;&gt;Node60 -->
<g id="edge48" class="edge">
<title>Node56&#45;&gt;Node60</title>
<path fill="none" stroke="midnightblue" d="M270.81,-45.21C293.03,-40.08 319.54,-33.96 343.02,-28.54"/>
<polygon fill="midnightblue" stroke="midnightblue" points="269.88,-41.83 260.93,-47.49 271.46,-48.65 269.88,-41.83"/>
</g>
<!-- Node58 -->
<g id="node48" class="node">
<title>Node58</title>
<g id="a_node48"><a xlink:href="class_ogre_1_1v1_1_1_panel_overlay_element.html" target="_top" xlink:title="OverlayElement representing a flat, single&#45;material (or transparent) panel which can contain other el...">
<polygon fill="none" stroke="red" points="512.65,-24.5 512.65,-42.5 669.27,-42.5 669.27,-24.5 512.65,-24.5"/>
<text text-anchor="middle" x="590.96" y="-30.5" font-family="Helvetica,sans-Serif" font-size="10.00">Ogre::v1::PanelOverlayElement</text>
</a>
</g>
</g>
<!-- Node57&#45;&gt;Node58 -->
<g id="edge47" class="edge">
<title>Node57&#45;&gt;Node58</title>
<path fill="none" stroke="midnightblue" d="M484.06,-46.73C495.28,-45.33 506.78,-43.89 517.87,-42.5"/>
<polygon fill="midnightblue" stroke="midnightblue" points="483.35,-43.29 473.86,-48 484.22,-50.23 483.35,-43.29"/>
</g>
</g>
</svg>
