<?xml version="1.0" encoding="UTF-8" standalone="no"?>
<!DOCTYPE svg PUBLIC "-//W3C//DTD SVG 1.1//EN"
 "http://www.w3.org/Graphics/SVG/1.1/DTD/svg11.dtd">
<!-- Generated by graphviz version 2.43.0 (0)
 -->
<!-- Title: Ogre::HlmsDatablock Pages: 1 -->
<svg width="411pt" height="148pt"
 viewBox="0.00 0.00 411.43 148.00" xmlns="http://www.w3.org/2000/svg" xmlns:xlink="http://www.w3.org/1999/xlink">
<g id="graph0" class="graph" transform="scale(1 1) rotate(0) translate(4 144)">
<title>Ogre::HlmsDatablock</title>
<!-- Node1 -->
<g id="node1" class="node">
<title>Node1</title>
<g id="a_node1"><a xlink:title="An hlms datablock contains individual information about a specific material.">
<polygon fill="#bfbfbf" stroke="black" points="95.91,-65.5 95.91,-83.5 206.94,-83.5 206.94,-65.5 95.91,-65.5"/>
<text text-anchor="middle" x="151.42" y="-71.5" font-family="Helvetica,sans-Serif" font-size="10.00">Ogre::HlmsDatablock</text>
</a>
</g>
</g>
<!-- Node3 -->
<g id="node3" class="node">
<title>Node3</title>
<g id="a_node3"><a xlink:href="class_ogre_1_1_hlms_low_level_datablock.html" target="_top" xlink:title="Contains information needed by the UI (2D) for OpenGL ES 2.0.">
<polygon fill="none" stroke="black" points="246.54,-121.5 246.54,-139.5 399.82,-139.5 399.82,-121.5 246.54,-121.5"/>
<text text-anchor="middle" x="323.18" y="-127.5" font-family="Helvetica,sans-Serif" font-size="10.00">Ogre::HlmsLowLevelDatablock</text>
</a>
</g>
</g>
<!-- Node1&#45;&gt;Node3 -->
<g id="edge2" class="edge">
<title>Node1&#45;&gt;Node3</title>
<path fill="none" stroke="midnightblue" d="M180.63,-87.84C198.25,-95.8 221.57,-105.65 242.94,-112.5 253.55,-115.9 265.16,-118.92 276.14,-121.47"/>
<polygon fill="midnightblue" stroke="midnightblue" points="182.03,-84.63 171.48,-83.65 179.11,-90.99 182.03,-84.63"/>
</g>
<!-- Node4 -->
<g id="node4" class="node">
<title>Node4</title>
<g id="a_node4"><a xlink:href="class_ogre_1_1_hlms_pbs_mobile_datablock.html" target="_top" xlink:title="Contains information needed by PBS (Physically Based Shading) for OpenGL ES 2.0.">
<polygon fill="none" stroke="black" points="244.32,-84.5 244.32,-102.5 402.04,-102.5 402.04,-84.5 244.32,-84.5"/>
<text text-anchor="middle" x="323.18" y="-90.5" font-family="Helvetica,sans-Serif" font-size="10.00">Ogre::HlmsPbsMobileDatablock</text>
</a>
</g>
</g>
<!-- Node1&#45;&gt;Node4 -->
<g id="edge3" class="edge">
<title>Node1&#45;&gt;Node4</title>
<path fill="none" stroke="midnightblue" d="M217.24,-81.75C226.04,-82.74 235.14,-83.76 244.14,-84.77"/>
<polygon fill="midnightblue" stroke="midnightblue" points="217.4,-78.25 207.07,-80.62 216.62,-85.21 217.4,-78.25"/>
</g>
<!-- Node5 -->
<g id="node5" class="node">
<title>Node5</title>
<g id="a_node5"><a xlink:href="class_ogre_1_1_hlms_unlit_mobile_datablock.html" target="_top" xlink:title="Contains information needed by the UI (2D) for OpenGL ES 2.0.">
<polygon fill="none" stroke="black" points="242.94,-47.5 242.94,-65.5 403.43,-65.5 403.43,-47.5 242.94,-47.5"/>
<text text-anchor="middle" x="323.18" y="-53.5" font-family="Helvetica,sans-Serif" font-size="10.00">Ogre::HlmsUnlitMobileDatablock</text>
</a>
</g>
</g>
<!-- Node1&#45;&gt;Node5 -->
<g id="edge4" class="edge">
<title>Node1&#45;&gt;Node5</title>
<path fill="none" stroke="midnightblue" d="M217.17,-67.63C225.59,-66.74 234.29,-65.82 242.91,-64.91"/>
<polygon fill="midnightblue" stroke="midnightblue" points="216.64,-64.17 207.07,-68.71 217.38,-71.13 216.64,-64.17"/>
</g>
<!-- Node6 -->
<g id="node6" class="node">
<title>Node6</title>
<g id="a_node6"><a xlink:href="class_ogre_1_1_o_g_r_e___h_l_m_s___t_e_x_t_u_r_e___b_a_s_e___c_l_a_s_s.html" target="_top" xlink:title="This is not a regular header, therefore it has no include guards.">
<polygon fill="none" stroke="black" points="243.78,-0.5 243.78,-28.5 402.59,-28.5 402.59,-0.5 243.78,-0.5"/>
<text text-anchor="start" x="251.78" y="-16.5" font-family="Helvetica,sans-Serif" font-size="10.00">Ogre::OGRE_HLMS_TEXTURE</text>
<text text-anchor="middle" x="323.18" y="-6.5" font-family="Helvetica,sans-Serif" font-size="10.00">_BASE_CLASS</text>
</a>
</g>
</g>
<!-- Node1&#45;&gt;Node6 -->
<g id="edge5" class="edge">
<title>Node1&#45;&gt;Node6</title>
<path fill="none" stroke="midnightblue" d="M182.67,-61.2C200.12,-53.76 222.57,-44.6 242.94,-37.5 251.86,-34.39 261.46,-31.35 270.78,-28.56"/>
<polygon fill="midnightblue" stroke="midnightblue" points="180.84,-58.18 173.03,-65.35 183.6,-64.61 180.84,-58.18"/>
</g>
<!-- Node2 -->
<g id="node2" class="node">
<title>Node2</title>
<g id="a_node2"><a xlink:href="class_ogre_1_1_allocated_object.html" target="_top" xlink:title="Superclass for all objects that wish to use custom memory allocators when their new / delete operator...">
<polygon fill="none" stroke="black" points="0,-65.5 0,-83.5 59.91,-83.5 59.91,-65.5 0,-65.5"/>
<text text-anchor="middle" x="29.95" y="-71.5" font-family="Helvetica,sans-Serif" font-size="10.00">PassAlloc</text>
</a>
</g>
</g>
<!-- Node2&#45;&gt;Node1 -->
<g id="edge1" class="edge">
<title>Node2&#45;&gt;Node1</title>
<path fill="none" stroke="midnightblue" d="M70.2,-74.5C78.4,-74.5 87.19,-74.5 95.84,-74.5"/>
<polygon fill="midnightblue" stroke="midnightblue" points="70.18,-71 60.18,-74.5 70.18,-78 70.18,-71"/>
</g>
</g>
</svg>
