<?xml version="1.0" encoding="UTF-8" standalone="no"?>
<!DOCTYPE svg PUBLIC "-//W3C//DTD SVG 1.1//EN"
 "http://www.w3.org/Graphics/SVG/1.1/DTD/svg11.dtd">
<!-- Generated by graphviz version 2.43.0 (0)
 -->
<!-- Title: Ogre::D3D11StereoDriverImpl Pages: 1 -->
<svg width="342pt" height="137pt"
 viewBox="0.00 0.00 342.09 137.00" xmlns="http://www.w3.org/2000/svg" xmlns:xlink="http://www.w3.org/1999/xlink">
<g id="graph0" class="graph" transform="scale(1 1) rotate(0) translate(4 133)">
<title>Ogre::D3D11StereoDriverImpl</title>
<!-- Node1 -->
<g id="node1" class="node">
<title>Node1</title>
<g id="a_node1"><a xlink:title="Virtual interface of the stereo driver.">
<polygon fill="#bfbfbf" stroke="black" points="89.67,-55.5 89.67,-73.5 238.86,-73.5 238.86,-55.5 89.67,-55.5"/>
<text text-anchor="middle" x="164.26" y="-61.5" font-family="Helvetica,sans-Serif" font-size="10.00">Ogre::D3D11StereoDriverImpl</text>
</a>
</g>
</g>
<!-- Node3 -->
<g id="node3" class="node">
<title>Node3</title>
<g id="a_node3"><a xlink:href="class_ogre_1_1_d3_d11_stereo_driver_a_m_d.html" target="_top" xlink:title="Virtual interface of the stereo driver.">
<polygon fill="none" stroke="black" points="0,-0.5 0,-18.5 152.53,-18.5 152.53,-0.5 0,-0.5"/>
<text text-anchor="middle" x="76.26" y="-6.5" font-family="Helvetica,sans-Serif" font-size="10.00">Ogre::D3D11StereoDriverAMD</text>
</a>
</g>
</g>
<!-- Node1&#45;&gt;Node3 -->
<g id="edge2" class="edge">
<title>Node1&#45;&gt;Node3</title>
<path fill="none" stroke="midnightblue" d="M141.93,-50.05C125.48,-40.14 103.63,-26.98 89.76,-18.63"/>
<polygon fill="midnightblue" stroke="midnightblue" points="140.53,-53.29 150.9,-55.45 144.14,-47.29 140.53,-53.29"/>
</g>
<!-- Node4 -->
<g id="node4" class="node">
<title>Node4</title>
<g id="a_node4"><a xlink:href="class_ogre_1_1_d3_d11_stereo_driver_n_v_i_d_i_a.html" target="_top" xlink:title="Interface of the NVIDIA stereo driver.">
<polygon fill="none" stroke="black" points="170.44,-0.5 170.44,-18.5 334.09,-18.5 334.09,-0.5 170.44,-0.5"/>
<text text-anchor="middle" x="252.26" y="-6.5" font-family="Helvetica,sans-Serif" font-size="10.00">Ogre::D3D11StereoDriverNVIDIA</text>
</a>
</g>
</g>
<!-- Node1&#45;&gt;Node4 -->
<g id="edge3" class="edge">
<title>Node1&#45;&gt;Node4</title>
<path fill="none" stroke="midnightblue" d="M186.6,-50.05C203.05,-40.14 224.9,-26.98 238.77,-18.63"/>
<polygon fill="midnightblue" stroke="midnightblue" points="184.39,-47.29 177.63,-55.45 188,-53.29 184.39,-47.29"/>
</g>
<!-- Node2 -->
<g id="node2" class="node">
<title>Node2</title>
<g id="a_node2"><a xlink:href="class_ogre_1_1_allocated_object.html" target="_top" xlink:title="Superclass for all objects that wish to use custom memory allocators when their new / delete operator...">
<polygon fill="none" stroke="black" points="124.03,-110.5 124.03,-128.5 204.5,-128.5 204.5,-110.5 124.03,-110.5"/>
<text text-anchor="middle" x="164.26" y="-116.5" font-family="Helvetica,sans-Serif" font-size="10.00">ResourceAlloc</text>
</a>
</g>
</g>
<!-- Node2&#45;&gt;Node1 -->
<g id="edge1" class="edge">
<title>Node2&#45;&gt;Node1</title>
<path fill="none" stroke="midnightblue" d="M164.26,-100.17C164.26,-91.09 164.26,-80.59 164.26,-73.55"/>
<polygon fill="midnightblue" stroke="midnightblue" points="160.76,-100.22 164.26,-110.22 167.76,-100.22 160.76,-100.22"/>
</g>
</g>
</svg>
