<?xml version="1.0" encoding="UTF-8" standalone="no"?>
<!DOCTYPE svg PUBLIC "-//W3C//DTD SVG 1.1//EN"
 "http://www.w3.org/Graphics/SVG/1.1/DTD/svg11.dtd">
<!-- Generated by graphviz version 2.43.0 (0)
 -->
<!-- Title: Ogre::GpuNamedConstantsSerializer Pages: 1 -->
<svg width="190pt" height="137pt"
 viewBox="0.00 0.00 189.63 137.00" xmlns="http://www.w3.org/2000/svg" xmlns:xlink="http://www.w3.org/1999/xlink">
<g id="graph0" class="graph" transform="scale(1 1) rotate(0) translate(4 133)">
<title>Ogre::GpuNamedConstantsSerializer</title>
<!-- Node1 -->
<g id="node1" class="node">
<title>Node1</title>
<g id="a_node1"><a xlink:title="Simple class for loading / saving GpuNamedConstants.">
<polygon fill="#bfbfbf" stroke="black" points="0,-0.5 0,-18.5 181.63,-18.5 181.63,-0.5 0,-0.5"/>
<text text-anchor="middle" x="90.81" y="-6.5" font-family="Helvetica,sans-Serif" font-size="10.00">Ogre::GpuNamedConstantsSerializer</text>
</a>
</g>
</g>
<!-- Node2 -->
<g id="node2" class="node">
<title>Node2</title>
<g id="a_node2"><a xlink:href="class_ogre_1_1_serializer.html" target="_top" xlink:title="Generic class for serialising data to / from binary stream&#45;based files.">
<polygon fill="none" stroke="black" points="48.08,-55.5 48.08,-73.5 133.55,-73.5 133.55,-55.5 48.08,-55.5"/>
<text text-anchor="middle" x="90.81" y="-61.5" font-family="Helvetica,sans-Serif" font-size="10.00">Ogre::Serializer</text>
</a>
</g>
</g>
<!-- Node2&#45;&gt;Node1 -->
<g id="edge1" class="edge">
<title>Node2&#45;&gt;Node1</title>
<path fill="none" stroke="midnightblue" d="M90.81,-45.17C90.81,-36.09 90.81,-25.59 90.81,-18.55"/>
<polygon fill="midnightblue" stroke="midnightblue" points="87.32,-45.22 90.81,-55.22 94.32,-45.22 87.32,-45.22"/>
</g>
<!-- Node3 -->
<g id="node3" class="node">
<title>Node3</title>
<g id="a_node3"><a xlink:href="class_ogre_1_1_allocated_object.html" target="_top" xlink:title="Superclass for all objects that wish to use custom memory allocators when their new / delete operator...">
<polygon fill="none" stroke="black" points="51.14,-110.5 51.14,-128.5 130.49,-128.5 130.49,-110.5 51.14,-110.5"/>
<text text-anchor="middle" x="90.81" y="-116.5" font-family="Helvetica,sans-Serif" font-size="10.00">SerializerAlloc</text>
</a>
</g>
</g>
<!-- Node3&#45;&gt;Node2 -->
<g id="edge2" class="edge">
<title>Node3&#45;&gt;Node2</title>
<path fill="none" stroke="midnightblue" d="M90.81,-100.17C90.81,-91.09 90.81,-80.59 90.81,-73.55"/>
<polygon fill="midnightblue" stroke="midnightblue" points="87.32,-100.22 90.81,-110.22 94.32,-100.22 87.32,-100.22"/>
</g>
</g>
</svg>
