<?xml version="1.0" encoding="UTF-8" standalone="no"?>
<!DOCTYPE svg PUBLIC "-//W3C//DTD SVG 1.1//EN"
 "http://www.w3.org/Graphics/SVG/1.1/DTD/svg11.dtd">
<!-- Generated by graphviz version 2.43.0 (0)
 -->
<!-- Title: Ogre::Node Pages: 1 -->
<svg width="471pt" height="192pt"
 viewBox="0.00 0.00 470.99 192.00" xmlns="http://www.w3.org/2000/svg" xmlns:xlink="http://www.w3.org/1999/xlink">
<g id="graph0" class="graph" transform="scale(1 1) rotate(0) translate(4 188)">
<title>Ogre::Node</title>
<!-- Node1 -->
<g id="node1" class="node">
<title>Node1</title>
<g id="a_node1"><a xlink:title="Class representing a general&#45;purpose node an articulated scene graph.">
<polygon fill="#bfbfbf" stroke="black" points="207.79,-110.5 207.79,-128.5 275.49,-128.5 275.49,-110.5 207.79,-110.5"/>
<text text-anchor="middle" x="241.64" y="-116.5" font-family="Helvetica,sans-Serif" font-size="10.00">Ogre::Node</text>
</a>
</g>
</g>
<!-- Node4 -->
<g id="node4" class="node">
<title>Node4</title>
<g id="a_node4"><a xlink:href="class_ogre_1_1_scene_node.html" target="_top" xlink:title="Class representing a node in the scene graph.">
<polygon fill="none" stroke="black" points="193.62,-55.5 193.62,-73.5 289.66,-73.5 289.66,-55.5 193.62,-55.5"/>
<text text-anchor="middle" x="241.64" y="-61.5" font-family="Helvetica,sans-Serif" font-size="10.00">Ogre::SceneNode</text>
</a>
</g>
</g>
<!-- Node1&#45;&gt;Node4 -->
<g id="edge3" class="edge">
<title>Node1&#45;&gt;Node4</title>
<path fill="none" stroke="midnightblue" d="M241.64,-100.17C241.64,-91.09 241.64,-80.59 241.64,-73.55"/>
<polygon fill="midnightblue" stroke="midnightblue" points="238.14,-100.22 241.64,-110.22 245.14,-100.22 238.14,-100.22"/>
</g>
<!-- Node2 -->
<g id="node2" class="node">
<title>Node2</title>
<g id="a_node2"><a xlink:href="class_ogre_1_1_allocated_object.html" target="_top" xlink:title="Superclass for all objects that wish to use custom memory allocators when their new / delete operator...">
<polygon fill="none" stroke="black" points="166.85,-165.5 166.85,-183.5 228.43,-183.5 228.43,-165.5 166.85,-165.5"/>
<text text-anchor="middle" x="197.64" y="-171.5" font-family="Helvetica,sans-Serif" font-size="10.00">NodeAlloc</text>
</a>
</g>
</g>
<!-- Node2&#45;&gt;Node1 -->
<g id="edge1" class="edge">
<title>Node2&#45;&gt;Node1</title>
<path fill="none" stroke="midnightblue" d="M211.14,-157.24C219.03,-147.73 228.66,-136.14 234.96,-128.55"/>
<polygon fill="midnightblue" stroke="midnightblue" points="208.21,-155.29 204.52,-165.22 213.6,-159.76 208.21,-155.29"/>
</g>
<!-- Node3 -->
<g id="node3" class="node">
<title>Node3</title>
<g id="a_node3"><a xlink:href="class_ogre_1_1_id_object.html" target="_top" xlink:title=" ">
<polygon fill="none" stroke="black" points="246.13,-165.5 246.13,-183.5 327.15,-183.5 327.15,-165.5 246.13,-165.5"/>
<text text-anchor="middle" x="286.64" y="-171.5" font-family="Helvetica,sans-Serif" font-size="10.00">Ogre::IdObject</text>
</a>
</g>
</g>
<!-- Node3&#45;&gt;Node1 -->
<g id="edge2" class="edge">
<title>Node3&#45;&gt;Node1</title>
<path fill="none" stroke="midnightblue" d="M273.08,-157.53C264.96,-147.97 254.98,-136.21 248.47,-128.55"/>
<polygon fill="midnightblue" stroke="midnightblue" points="270.47,-159.86 279.61,-165.22 275.8,-155.33 270.47,-159.86"/>
</g>
<!-- Node5 -->
<g id="node5" class="node">
<title>Node5</title>
<g id="a_node5"><a xlink:href="class_ogre_1_1_bsp_scene_node.html" target="_top" xlink:title="Specialisation of SceneNode for the BspSceneManager.">
<polygon fill="none" stroke="black" points="0,-0.5 0,-18.5 113.28,-18.5 113.28,-0.5 0,-0.5"/>
<text text-anchor="middle" x="56.64" y="-6.5" font-family="Helvetica,sans-Serif" font-size="10.00">Ogre::BspSceneNode</text>
</a>
</g>
</g>
<!-- Node4&#45;&gt;Node5 -->
<g id="edge4" class="edge">
<title>Node4&#45;&gt;Node5</title>
<path fill="none" stroke="midnightblue" d="M203.59,-52.6C168.24,-42.47 116.42,-27.63 84.7,-18.54"/>
<polygon fill="midnightblue" stroke="midnightblue" points="202.97,-56.06 213.54,-55.45 204.89,-49.33 202.97,-56.06"/>
</g>
<!-- Node6 -->
<g id="node6" class="node">
<title>Node6</title>
<g id="a_node6"><a xlink:href="class_ogre_1_1_octree_node.html" target="_top" xlink:title="Specialized SceneNode that is customized for working within an Octree.">
<polygon fill="none" stroke="black" points="130.79,-0.5 130.79,-18.5 228.49,-18.5 228.49,-0.5 130.79,-0.5"/>
<text text-anchor="middle" x="179.64" y="-6.5" font-family="Helvetica,sans-Serif" font-size="10.00">Ogre::OctreeNode</text>
</a>
</g>
</g>
<!-- Node4&#45;&gt;Node6 -->
<g id="edge5" class="edge">
<title>Node4&#45;&gt;Node6</title>
<path fill="none" stroke="midnightblue" d="M224.59,-48.93C213.17,-39.16 198.56,-26.67 189.15,-18.63"/>
<polygon fill="midnightblue" stroke="midnightblue" points="222.35,-51.61 232.22,-55.45 226.9,-46.29 222.35,-51.61"/>
</g>
<!-- Node7 -->
<g id="node7" class="node">
<title>Node7</title>
<g id="a_node7"><a xlink:href="class_ogre_1_1_p_c_z_scene_node.html" target="_top" xlink:title=" ">
<polygon fill="none" stroke="black" points="246.62,-0.5 246.62,-18.5 362.66,-18.5 362.66,-0.5 246.62,-0.5"/>
<text text-anchor="middle" x="304.64" y="-6.5" font-family="Helvetica,sans-Serif" font-size="10.00">Ogre::PCZSceneNode</text>
</a>
</g>
</g>
<!-- Node4&#45;&gt;Node7 -->
<g id="edge6" class="edge">
<title>Node4&#45;&gt;Node7</title>
<path fill="none" stroke="midnightblue" d="M258.96,-48.93C270.57,-39.16 285.42,-26.67 294.98,-18.63"/>
<polygon fill="midnightblue" stroke="midnightblue" points="256.61,-46.33 251.21,-55.45 261.11,-51.69 256.61,-46.33"/>
</g>
<!-- Node8 -->
<g id="node8" class="node">
<title>Node8</title>
<g id="a_node8"><a xlink:href="class_ogre_1_1_tag_point.html" target="_top" xlink:title="TagPoints are like SceneNodes, that can be children of a Bone.">
<polygon fill="none" stroke="black" points="380.29,-0.5 380.29,-18.5 462.99,-18.5 462.99,-0.5 380.29,-0.5"/>
<text text-anchor="middle" x="421.64" y="-6.5" font-family="Helvetica,sans-Serif" font-size="10.00">Ogre::TagPoint</text>
</a>
</g>
</g>
<!-- Node4&#45;&gt;Node8 -->
<g id="edge7" class="edge">
<title>Node4&#45;&gt;Node8</title>
<path fill="none" stroke="midnightblue" d="M278.66,-52.6C313.05,-42.47 363.47,-27.63 394.34,-18.54"/>
<polygon fill="midnightblue" stroke="midnightblue" points="277.58,-49.27 268.98,-55.45 279.56,-55.98 277.58,-49.27"/>
</g>
</g>
</svg>
