<?xml version="1.0" encoding="UTF-8" standalone="no"?>
<!DOCTYPE svg PUBLIC "-//W3C//DTD SVG 1.1//EN"
 "http://www.w3.org/Graphics/SVG/1.1/DTD/svg11.dtd">
<!-- Generated by graphviz version 2.43.0 (0)
 -->
<!-- Title: Ogre::CompositorPassStencil Pages: 1 -->
<svg width="155pt" height="137pt"
 viewBox="0.00 0.00 155.16 137.00" xmlns="http://www.w3.org/2000/svg" xmlns:xlink="http://www.w3.org/1999/xlink">
<g id="graph0" class="graph" transform="scale(1 1) rotate(0) translate(4 133)">
<title>Ogre::CompositorPassStencil</title>
<!-- Node1 -->
<g id="node1" class="node">
<title>Node1</title>
<g id="a_node1"><a xlink:title="Implementation of CompositorPass This implementation will clear the RenderTarget using the parameters...">
<polygon fill="#bfbfbf" stroke="black" points="0,-0.5 0,-18.5 147.16,-18.5 147.16,-0.5 0,-0.5"/>
<text text-anchor="middle" x="73.58" y="-6.5" font-family="Helvetica,sans-Serif" font-size="10.00">Ogre::CompositorPassStencil</text>
</a>
</g>
</g>
<!-- Node2 -->
<g id="node2" class="node">
<title>Node2</title>
<g id="a_node2"><a xlink:href="class_ogre_1_1_compositor_pass.html" target="_top" xlink:title="Abstract class for compositor passes.">
<polygon fill="none" stroke="black" points="15.01,-55.5 15.01,-73.5 132.15,-73.5 132.15,-55.5 15.01,-55.5"/>
<text text-anchor="middle" x="73.58" y="-61.5" font-family="Helvetica,sans-Serif" font-size="10.00">Ogre::CompositorPass</text>
</a>
</g>
</g>
<!-- Node2&#45;&gt;Node1 -->
<g id="edge1" class="edge">
<title>Node2&#45;&gt;Node1</title>
<path fill="none" stroke="midnightblue" d="M73.58,-45.17C73.58,-36.09 73.58,-25.59 73.58,-18.55"/>
<polygon fill="midnightblue" stroke="midnightblue" points="70.08,-45.22 73.58,-55.22 77.08,-45.22 70.08,-45.22"/>
</g>
<!-- Node3 -->
<g id="node3" class="node">
<title>Node3</title>
<g id="a_node3"><a xlink:href="class_ogre_1_1_allocated_object.html" target="_top" xlink:title="Superclass for all objects that wish to use custom memory allocators when their new / delete operator...">
<polygon fill="none" stroke="black" points="21.12,-110.5 21.12,-128.5 126.04,-128.5 126.04,-110.5 21.12,-110.5"/>
<text text-anchor="middle" x="73.58" y="-116.5" font-family="Helvetica,sans-Serif" font-size="10.00">CompositorInstAlloc</text>
</a>
</g>
</g>
<!-- Node3&#45;&gt;Node2 -->
<g id="edge2" class="edge">
<title>Node3&#45;&gt;Node2</title>
<path fill="none" stroke="midnightblue" d="M73.58,-100.17C73.58,-91.09 73.58,-80.59 73.58,-73.55"/>
<polygon fill="midnightblue" stroke="midnightblue" points="70.08,-100.22 73.58,-110.22 77.08,-100.22 70.08,-100.22"/>
</g>
</g>
</svg>
