<?xml version="1.0" encoding="UTF-8" standalone="no"?>
<!DOCTYPE svg PUBLIC "-//W3C//DTD SVG 1.1//EN"
 "http://www.w3.org/Graphics/SVG/1.1/DTD/svg11.dtd">
<!-- Generated by graphviz version 2.43.0 (0)
 -->
<!-- Title: Ogre::InternalCubemapProbeFactory Pages: 1 -->
<svg width="155pt" height="147pt"
 viewBox="0.00 0.00 155.19 147.00" xmlns="http://www.w3.org/2000/svg" xmlns:xlink="http://www.w3.org/1999/xlink">
<g id="graph0" class="graph" transform="scale(1 1) rotate(0) translate(4 143)">
<title>Ogre::InternalCubemapProbeFactory</title>
<!-- Node1 -->
<g id="node1" class="node">
<title>Node1</title>
<g id="a_node1"><a xlink:title=" ">
<polygon fill="#bfbfbf" stroke="black" points="0,-0.5 0,-28.5 147.19,-28.5 147.19,-0.5 0,-0.5"/>
<text text-anchor="start" x="8" y="-16.5" font-family="Helvetica,sans-Serif" font-size="10.00">Ogre::InternalCubemapProbe</text>
<text text-anchor="middle" x="73.59" y="-6.5" font-family="Helvetica,sans-Serif" font-size="10.00">Factory</text>
</a>
</g>
</g>
<!-- Node2 -->
<g id="node2" class="node">
<title>Node2</title>
<g id="a_node2"><a xlink:href="class_ogre_1_1_movable_object_factory.html" target="_top" xlink:title="Interface definition for a factory class which produces a certain kind of MovableObject,...">
<polygon fill="none" stroke="black" points="1.68,-65.5 1.68,-83.5 145.51,-83.5 145.51,-65.5 1.68,-65.5"/>
<text text-anchor="middle" x="73.59" y="-71.5" font-family="Helvetica,sans-Serif" font-size="10.00">Ogre::MovableObjectFactory</text>
</a>
</g>
</g>
<!-- Node2&#45;&gt;Node1 -->
<g id="edge1" class="edge">
<title>Node2&#45;&gt;Node1</title>
<path fill="none" stroke="midnightblue" d="M73.59,-55.32C73.59,-46.75 73.59,-36.7 73.59,-28.84"/>
<polygon fill="midnightblue" stroke="midnightblue" points="70.09,-55.44 73.59,-65.44 77.09,-55.44 70.09,-55.44"/>
</g>
<!-- Node3 -->
<g id="node3" class="node">
<title>Node3</title>
<g id="a_node3"><a xlink:href="class_ogre_1_1_allocated_object.html" target="_top" xlink:title="Superclass for all objects that wish to use custom memory allocators when their new / delete operator...">
<polygon fill="none" stroke="black" points="35.86,-120.5 35.86,-138.5 111.33,-138.5 111.33,-120.5 35.86,-120.5"/>
<text text-anchor="middle" x="73.59" y="-126.5" font-family="Helvetica,sans-Serif" font-size="10.00">MovableAlloc</text>
</a>
</g>
</g>
<!-- Node3&#45;&gt;Node2 -->
<g id="edge2" class="edge">
<title>Node3&#45;&gt;Node2</title>
<path fill="none" stroke="midnightblue" d="M73.59,-110.17C73.59,-101.09 73.59,-90.59 73.59,-83.55"/>
<polygon fill="midnightblue" stroke="midnightblue" points="70.09,-110.22 73.59,-120.22 77.09,-110.22 70.09,-110.22"/>
</g>
</g>
</svg>
