<?xml version="1.0" encoding="UTF-8" standalone="no"?>
<!DOCTYPE svg PUBLIC "-//W3C//DTD SVG 1.1//EN"
 "http://www.w3.org/Graphics/SVG/1.1/DTD/svg11.dtd">
<!-- Generated by graphviz version 2.43.0 (0)
 -->
<!-- Title: Ogre::LodWorkQueueInjector Pages: 1 -->
<svg width="308pt" height="92pt"
 viewBox="0.00 0.00 307.75 92.00" xmlns="http://www.w3.org/2000/svg" xmlns:xlink="http://www.w3.org/1999/xlink">
<g id="graph0" class="graph" transform="scale(1 1) rotate(0) translate(4 88)">
<title>Ogre::LodWorkQueueInjector</title>
<!-- Node1 -->
<g id="node1" class="node">
<title>Node1</title>
<g id="a_node1"><a xlink:title="Injects the output of a request to the mesh in a thread safe way.">
<polygon fill="#bfbfbf" stroke="black" points="79.55,-0.5 79.55,-18.5 226,-18.5 226,-0.5 79.55,-0.5"/>
<text text-anchor="middle" x="152.78" y="-6.5" font-family="Helvetica,sans-Serif" font-size="10.00">Ogre::LodWorkQueueInjector</text>
</a>
</g>
</g>
<!-- Node2 -->
<g id="node2" class="node">
<title>Node2</title>
<g id="a_node2"><a xlink:href="class_ogre_1_1_work_queue_1_1_response_handler.html" target="_top" xlink:title="Interface definition for a handler of responses.">
<polygon fill="none" stroke="black" points="0,-55.5 0,-83.5 147.55,-83.5 147.55,-55.5 0,-55.5"/>
<text text-anchor="start" x="8" y="-71.5" font-family="Helvetica,sans-Serif" font-size="10.00">Ogre::WorkQueue::Response</text>
<text text-anchor="middle" x="73.78" y="-61.5" font-family="Helvetica,sans-Serif" font-size="10.00">Handler</text>
</a>
</g>
</g>
<!-- Node2&#45;&gt;Node1 -->
<g id="edge1" class="edge">
<title>Node2&#45;&gt;Node1</title>
<path fill="none" stroke="midnightblue" d="M100.07,-49.2C114.14,-38.86 130.75,-26.67 141.51,-18.77"/>
<polygon fill="midnightblue" stroke="midnightblue" points="97.69,-46.6 91.7,-55.34 101.83,-52.24 97.69,-46.6"/>
</g>
<!-- Node3 -->
<g id="node3" class="node">
<title>Node3</title>
<g id="a_node3"><a xlink:href="class_ogre_1_1_singleton.html" target="_top" xlink:title=" ">
<polygon fill="none" stroke="black" points="165.8,-55.5 165.8,-83.5 299.75,-83.5 299.75,-55.5 165.8,-55.5"/>
<text text-anchor="start" x="173.8" y="-71.5" font-family="Helvetica,sans-Serif" font-size="10.00">Ogre::Singleton&lt; LodWork</text>
<text text-anchor="middle" x="232.78" y="-61.5" font-family="Helvetica,sans-Serif" font-size="10.00">QueueInjector &gt;</text>
</a>
</g>
</g>
<!-- Node3&#45;&gt;Node1 -->
<g id="edge2" class="edge">
<title>Node3&#45;&gt;Node1</title>
<path fill="none" stroke="midnightblue" d="M206.15,-49.2C191.9,-38.86 175.08,-26.67 164.19,-18.77"/>
<polygon fill="midnightblue" stroke="midnightblue" points="204.47,-52.3 214.62,-55.34 208.58,-46.64 204.47,-52.3"/>
</g>
</g>
</svg>
