<?xml version="1.0" encoding="UTF-8" standalone="no"?>
<!DOCTYPE svg PUBLIC "-//W3C//DTD SVG 1.1//EN"
 "http://www.w3.org/Graphics/SVG/1.1/DTD/svg11.dtd">
<!-- Generated by graphviz version 2.43.0 (0)
 -->
<!-- Title: Ogre::SmallVectorBase Pages: 1 -->
<svg width="808pt" height="256pt"
 viewBox="0.00 0.00 808.27 256.00" xmlns="http://www.w3.org/2000/svg" xmlns:xlink="http://www.w3.org/1999/xlink">
<g id="graph0" class="graph" transform="scale(1 1) rotate(0) translate(4 252)">
<title>Ogre::SmallVectorBase</title>
<!-- Node1 -->
<g id="node1" class="node">
<title>Node1</title>
<g id="a_node1"><a xlink:title="SmallVectorBase &#45; This is all the non&#45;templated stuff common to all SmallVectors.">
<polygon fill="#bfbfbf" stroke="black" points="0,-67.5 0,-85.5 119.94,-85.5 119.94,-67.5 0,-67.5"/>
<text text-anchor="middle" x="59.97" y="-73.5" font-family="Helvetica,sans-Serif" font-size="10.00">Ogre::SmallVectorBase</text>
</a>
</g>
</g>
<!-- Node2 -->
<g id="node2" class="node">
<title>Node2</title>
<g id="a_node2"><a xlink:href="class_ogre_1_1_small_vector_template_common.html" target="_top" xlink:title=" ">
<polygon fill="none" stroke="black" points="155.94,-148.5 155.94,-176.5 293.66,-176.5 293.66,-148.5 155.94,-148.5"/>
<text text-anchor="start" x="163.94" y="-164.5" font-family="Helvetica,sans-Serif" font-size="10.00">Ogre::SmallVectorTemplate</text>
<text text-anchor="middle" x="224.8" y="-154.5" font-family="Helvetica,sans-Serif" font-size="10.00">Common&lt; T &gt;</text>
</a>
</g>
</g>
<!-- Node1&#45;&gt;Node2 -->
<g id="edge1" class="edge">
<title>Node1&#45;&gt;Node2</title>
<path fill="none" stroke="midnightblue" d="M97.33,-89.97C130.89,-106 179.36,-132.02 205.48,-148.36"/>
<polygon fill="midnightblue" stroke="midnightblue" points="98.4,-86.61 87.86,-85.53 95.43,-92.95 98.4,-86.61"/>
</g>
<!-- Node1&#45;&gt;Node2 -->
<g id="edge16" class="edge">
<title>Node1&#45;&gt;Node2</title>
<path fill="none" stroke="midnightblue" d="M80.23,-91.22C106.24,-107.39 153.14,-132.58 186.25,-148.46"/>
<polygon fill="midnightblue" stroke="midnightblue" points="81.96,-88.17 71.65,-85.7 78.17,-94.06 81.96,-88.17"/>
</g>
<!-- Node11 -->
<g id="node10" class="node">
<title>Node11</title>
<g id="a_node10"><a xlink:href="class_ogre_1_1_small_vector_template_common.html" target="_top" xlink:title=" ">
<polygon fill="none" stroke="black" points="155.94,-62.5 155.94,-90.5 293.66,-90.5 293.66,-62.5 155.94,-62.5"/>
<text text-anchor="start" x="163.94" y="-78.5" font-family="Helvetica,sans-Serif" font-size="10.00">Ogre::SmallVectorTemplate</text>
<text text-anchor="middle" x="224.8" y="-68.5" font-family="Helvetica,sans-Serif" font-size="10.00">Common&lt; Edge &gt;</text>
</a>
</g>
</g>
<!-- Node1&#45;&gt;Node11 -->
<g id="edge17" class="edge">
<title>Node1&#45;&gt;Node11</title>
<path fill="none" stroke="midnightblue" d="M130.37,-69.82C138.78,-69.72 147.37,-69.73 155.76,-69.83"/>
<polygon fill="midnightblue" stroke="midnightblue" points="130.16,-66.32 120.22,-69.98 130.27,-73.32 130.16,-66.32"/>
</g>
<!-- Node1&#45;&gt;Node11 -->
<g id="edge24" class="edge">
<title>Node1&#45;&gt;Node11</title>
<path fill="none" stroke="midnightblue" d="M130.37,-83.18C138.78,-83.28 147.37,-83.27 155.76,-83.17"/>
<polygon fill="midnightblue" stroke="midnightblue" points="130.27,-79.68 120.22,-83.02 130.16,-86.68 130.27,-79.68"/>
</g>
<!-- Node16 -->
<g id="node14" class="node">
<title>Node16</title>
<g id="a_node14"><a xlink:href="class_ogre_1_1_small_vector_template_common.html" target="_top" xlink:title=" ">
<polygon fill="none" stroke="black" points="155.94,-10.5 155.94,-38.5 293.66,-38.5 293.66,-10.5 155.94,-10.5"/>
<text text-anchor="start" x="163.94" y="-26.5" font-family="Helvetica,sans-Serif" font-size="10.00">Ogre::SmallVectorTemplate</text>
<text text-anchor="middle" x="224.8" y="-16.5" font-family="Helvetica,sans-Serif" font-size="10.00">Common&lt; Triangle * &gt;</text>
</a>
</g>
</g>
<!-- Node1&#45;&gt;Node16 -->
<g id="edge25" class="edge">
<title>Node1&#45;&gt;Node16</title>
<path fill="none" stroke="midnightblue" d="M85.66,-63.61C105.19,-55.89 133.39,-46.35 159.23,-38.5"/>
<polygon fill="midnightblue" stroke="midnightblue" points="84.21,-60.42 76.29,-67.46 86.87,-66.9 84.21,-60.42"/>
</g>
<!-- Node1&#45;&gt;Node16 -->
<g id="edge32" class="edge">
<title>Node1&#45;&gt;Node16</title>
<path fill="none" stroke="midnightblue" d="M118.8,-64.52C145.03,-56.74 174.85,-46.8 195.98,-38.61"/>
<polygon fill="midnightblue" stroke="midnightblue" points="117.57,-61.24 108.94,-67.4 119.52,-67.96 117.57,-61.24"/>
</g>
<!-- Node3 -->
<g id="node3" class="node">
<title>Node3</title>
<g id="a_node3"><a xlink:href="class_ogre_1_1_small_vector_template_base.html" target="_top" xlink:title="SmallVectorTemplateBase&lt;isPodLike = false&gt; &#45; This is where we put method implementations that are des...">
<polygon fill="none" stroke="black" points="330.52,-219.5 330.52,-247.5 468.24,-247.5 468.24,-219.5 330.52,-219.5"/>
<text text-anchor="start" x="338.52" y="-235.5" font-family="Helvetica,sans-Serif" font-size="10.00">Ogre::SmallVectorTemplate</text>
<text text-anchor="middle" x="399.38" y="-225.5" font-family="Helvetica,sans-Serif" font-size="10.00">Base&lt; T &gt;</text>
</a>
</g>
</g>
<!-- Node2&#45;&gt;Node3 -->
<g id="edge2" class="edge">
<title>Node2&#45;&gt;Node3</title>
<path fill="none" stroke="midnightblue" d="M281.08,-180.76C296.64,-187.62 313.69,-195.16 329.66,-201.5 345.45,-207.77 363.7,-213.82 377.42,-219.46"/>
<polygon fill="midnightblue" stroke="midnightblue" points="282.17,-177.42 271.6,-176.6 279.35,-183.83 282.17,-177.42"/>
</g>
<!-- Node2&#45;&gt;Node3 -->
<g id="edge3" class="edge">
<title>Node2&#45;&gt;Node3</title>
<path fill="none" stroke="midnightblue" d="M250.22,-181.9C271.06,-193.91 301.97,-208.5 329.66,-219.5 329.9,-219.59 330.13,-219.69 330.37,-219.78"/>
<polygon fill="midnightblue" stroke="midnightblue" points="251.78,-178.75 241.4,-176.59 248.16,-184.75 251.78,-178.75"/>
</g>
<!-- Node4 -->
<g id="node4" class="node">
<title>Node4</title>
<g id="a_node4"><a xlink:href="class_ogre_1_1_small_vector_template_base_3_01_t_00_01true_01_4.html" target="_top" xlink:title="SmallVectorTemplateBase&lt;isPodLike = true&gt; &#45; This is where we put method implementations that are desi...">
<polygon fill="none" stroke="black" points="330.52,-172.5 330.52,-200.5 468.24,-200.5 468.24,-172.5 330.52,-172.5"/>
<text text-anchor="start" x="338.52" y="-188.5" font-family="Helvetica,sans-Serif" font-size="10.00">Ogre::SmallVectorTemplate</text>
<text text-anchor="middle" x="399.38" y="-178.5" font-family="Helvetica,sans-Serif" font-size="10.00">Base&lt; T, true &gt;</text>
</a>
</g>
</g>
<!-- Node2&#45;&gt;Node4 -->
<g id="edge4" class="edge">
<title>Node2&#45;&gt;Node4</title>
<path fill="none" stroke="midnightblue" d="M304.03,-166.66C317.23,-168.4 330.68,-170.4 343.14,-172.47"/>
<polygon fill="midnightblue" stroke="midnightblue" points="304.37,-163.17 294.01,-165.37 303.48,-170.11 304.37,-163.17"/>
</g>
<!-- Node2&#45;&gt;Node4 -->
<g id="edge5" class="edge">
<title>Node2&#45;&gt;Node4</title>
<path fill="none" stroke="midnightblue" d="M291.06,-178.14C303.96,-180.16 317.53,-182.07 330.51,-183.67"/>
<polygon fill="midnightblue" stroke="midnightblue" points="291.31,-174.64 280.88,-176.5 290.2,-181.55 291.31,-174.64"/>
</g>
<!-- Node5 -->
<g id="node5" class="node">
<title>Node5</title>
<g id="a_node5"><a xlink:href="class_ogre_1_1_small_vector_template_base.html" target="_top" xlink:title=" ">
<polygon fill="none" stroke="black" points="329.66,-125.5 329.66,-153.5 469.1,-153.5 469.1,-125.5 329.66,-125.5"/>
<text text-anchor="start" x="337.66" y="-141.5" font-family="Helvetica,sans-Serif" font-size="10.00">SmallVectorTemplateBase</text>
<text text-anchor="middle" x="399.38" y="-131.5" font-family="Helvetica,sans-Serif" font-size="10.00">&lt; T, isPodLike&lt; T &gt;::value &gt;</text>
</a>
</g>
</g>
<!-- Node2&#45;&gt;Node5 -->
<g id="edge6" class="edge">
<title>Node2&#45;&gt;Node5</title>
<path fill="none" stroke="midnightblue" d="M293.5,-146.87C305.32,-145.11 317.63,-143.46 329.48,-142.06"/>
<polygon fill="midnightblue" stroke="midnightblue" points="292.62,-143.46 283.27,-148.44 293.68,-150.38 292.62,-143.46"/>
</g>
<!-- Node2&#45;&gt;Node5 -->
<g id="edge15" class="edge">
<title>Node2&#45;&gt;Node5</title>
<path fill="none" stroke="midnightblue" d="M304,-158.8C316.54,-157.21 329.31,-155.4 341.24,-153.51"/>
<polygon fill="midnightblue" stroke="midnightblue" points="303.51,-155.34 294.01,-160.03 304.36,-162.28 303.51,-155.34"/>
</g>
<!-- Node6 -->
<g id="node6" class="node">
<title>Node6</title>
<g id="a_node6"><a xlink:href="class_ogre_1_1_small_vector_impl.html" target="_top" xlink:title="SmallVectorImpl &#45; This class consists of common code factored out of the SmallVector class to reduce ...">
<polygon fill="none" stroke="black" points="505.1,-136.5 505.1,-154.5 644.13,-154.5 644.13,-136.5 505.1,-136.5"/>
<text text-anchor="middle" x="574.61" y="-142.5" font-family="Helvetica,sans-Serif" font-size="10.00">Ogre::SmallVectorImpl&lt; T &gt;</text>
</a>
</g>
</g>
<!-- Node5&#45;&gt;Node6 -->
<g id="edge7" class="edge">
<title>Node5&#45;&gt;Node6</title>
<path fill="none" stroke="midnightblue" d="M479.58,-135.52C488.03,-135.76 496.57,-136.09 504.89,-136.5"/>
<polygon fill="midnightblue" stroke="midnightblue" points="479.43,-132.01 469.34,-135.26 479.26,-139.01 479.43,-132.01"/>
</g>
<!-- Node5&#45;&gt;Node6 -->
<g id="edge14" class="edge">
<title>Node5&#45;&gt;Node6</title>
<path fill="none" stroke="midnightblue" d="M479.58,-148.97C488.03,-149.31 496.57,-149.57 504.89,-149.74"/>
<polygon fill="midnightblue" stroke="midnightblue" points="479.49,-145.46 469.34,-148.51 479.18,-152.46 479.49,-145.46"/>
</g>
<!-- Node7 -->
<g id="node7" class="node">
<title>Node7</title>
<g id="a_node7"><a xlink:href="class_ogre_1_1_small_vector.html" target="_top" xlink:title="SmallVector &#45; This is a &#39;vector&#39; (really, a variable&#45;sized array), optimized for the case when the ar...">
<polygon fill="none" stroke="black" points="680.13,-185.5 680.13,-203.5 800.27,-203.5 800.27,-185.5 680.13,-185.5"/>
<text text-anchor="middle" x="740.2" y="-191.5" font-family="Helvetica,sans-Serif" font-size="10.00">Ogre::SmallVector&lt; T &gt;</text>
</a>
</g>
</g>
<!-- Node6&#45;&gt;Node7 -->
<g id="edge8" class="edge">
<title>Node6&#45;&gt;Node7</title>
<path fill="none" stroke="midnightblue" d="M636.84,-157.28C667.92,-166 703.23,-177.35 723.2,-185.49"/>
<polygon fill="midnightblue" stroke="midnightblue" points="637.49,-153.83 626.92,-154.55 635.64,-160.58 637.49,-153.83"/>
</g>
<!-- Node6&#45;&gt;Node7 -->
<g id="edge9" class="edge">
<title>Node6&#45;&gt;Node7</title>
<path fill="none" stroke="midnightblue" d="M601.36,-158.29C624.52,-166.91 659.23,-177.72 688.02,-185.48"/>
<polygon fill="midnightblue" stroke="midnightblue" points="602.49,-154.97 591.9,-154.62 599.96,-161.5 602.49,-154.97"/>
</g>
<!-- Node8 -->
<g id="node8" class="node">
<title>Node8</title>
<g id="a_node8"><a xlink:href="class_ogre_1_1_small_vector_3_01_t_00_010_01_4.html" target="_top" xlink:title="Specialize SmallVector at N=0.">
<polygon fill="none" stroke="black" points="688.71,-138.5 688.71,-166.5 791.69,-166.5 791.69,-138.5 688.71,-138.5"/>
<text text-anchor="start" x="696.71" y="-154.5" font-family="Helvetica,sans-Serif" font-size="10.00">Ogre::SmallVector&lt;</text>
<text text-anchor="middle" x="740.2" y="-144.5" font-family="Helvetica,sans-Serif" font-size="10.00"> T, 0 &gt;</text>
</a>
</g>
</g>
<!-- Node6&#45;&gt;Node8 -->
<g id="edge10" class="edge">
<title>Node6&#45;&gt;Node8</title>
<path fill="none" stroke="midnightblue" d="M654.55,-142.13C666.02,-142.59 677.56,-143.23 688.27,-144.02"/>
<polygon fill="midnightblue" stroke="midnightblue" points="654.63,-138.63 644.51,-141.77 654.38,-145.63 654.63,-138.63"/>
</g>
<!-- Node6&#45;&gt;Node8 -->
<g id="edge11" class="edge">
<title>Node6&#45;&gt;Node8</title>
<path fill="none" stroke="midnightblue" d="M644.36,-155.11C659.19,-155.93 674.6,-156.46 688.59,-156.63"/>
<polygon fill="midnightblue" stroke="midnightblue" points="644.4,-151.61 634.21,-154.51 643.98,-158.6 644.4,-151.61"/>
</g>
<!-- Node9 -->
<g id="node9" class="node">
<title>Node9</title>
<g id="a_node9"><a xlink:href="class_ogre_1_1_small_vector.html" target="_top" xlink:title=" ">
<polygon fill="none" stroke="red" points="688.38,-101.5 688.38,-119.5 792.02,-119.5 792.02,-101.5 688.38,-101.5"/>
<text text-anchor="middle" x="740.2" y="-107.5" font-family="Helvetica,sans-Serif" font-size="10.00">SmallVector&lt; T, S &gt;</text>
</a>
</g>
</g>
<!-- Node6&#45;&gt;Node9 -->
<g id="edge12" class="edge">
<title>Node6&#45;&gt;Node9</title>
<path fill="none" stroke="midnightblue" d="M605.9,-133.64C628.97,-127.27 661.25,-120.06 688.27,-115.09"/>
<polygon fill="midnightblue" stroke="midnightblue" points="604.64,-130.36 596,-136.49 606.58,-137.09 604.64,-130.36"/>
</g>
<!-- Node6&#45;&gt;Node9 -->
<g id="edge13" class="edge">
<title>Node6&#45;&gt;Node9</title>
<path fill="none" stroke="midnightblue" d="M654.6,-135.35C678.23,-130.35 702.17,-124.54 718.53,-119.59"/>
<polygon fill="midnightblue" stroke="midnightblue" points="653.6,-131.98 644.51,-137.43 655.02,-138.83 653.6,-131.98"/>
</g>
<!-- Node12 -->
<g id="node11" class="node">
<title>Node12</title>
<g id="a_node11"><a xlink:href="class_ogre_1_1_small_vector_template_base.html" target="_top" xlink:title=" ">
<polygon fill="none" stroke="black" points="330.52,-57.5 330.52,-95.5 468.24,-95.5 468.24,-57.5 330.52,-57.5"/>
<text text-anchor="start" x="338.52" y="-83.5" font-family="Helvetica,sans-Serif" font-size="10.00">Ogre::SmallVectorTemplate</text>
<text text-anchor="start" x="338.52" y="-73.5" font-family="Helvetica,sans-Serif" font-size="10.00">Base&lt; Edge, isPodLike&lt;</text>
<text text-anchor="middle" x="399.38" y="-63.5" font-family="Helvetica,sans-Serif" font-size="10.00"> Edge &gt;::value &gt;</text>
</a>
</g>
</g>
<!-- Node11&#45;&gt;Node12 -->
<g id="edge18" class="edge">
<title>Node11&#45;&gt;Node12</title>
<path fill="none" stroke="midnightblue" d="M304.2,-69.78C312.94,-69.72 321.79,-69.76 330.39,-69.89"/>
<polygon fill="midnightblue" stroke="midnightblue" points="303.97,-66.28 294.01,-69.88 304.05,-73.28 303.97,-66.28"/>
</g>
<!-- Node11&#45;&gt;Node12 -->
<g id="edge23" class="edge">
<title>Node11&#45;&gt;Node12</title>
<path fill="none" stroke="midnightblue" d="M304.2,-83.22C312.94,-83.28 321.79,-83.24 330.39,-83.11"/>
<polygon fill="midnightblue" stroke="midnightblue" points="304.05,-79.72 294.01,-83.12 303.97,-86.72 304.05,-79.72"/>
</g>
<!-- Node13 -->
<g id="node12" class="node">
<title>Node13</title>
<g id="a_node12"><a xlink:href="class_ogre_1_1_small_vector_impl.html" target="_top" xlink:title=" ">
<polygon fill="none" stroke="black" points="516.59,-57.5 516.59,-85.5 632.63,-85.5 632.63,-57.5 516.59,-57.5"/>
<text text-anchor="start" x="524.59" y="-73.5" font-family="Helvetica,sans-Serif" font-size="10.00">Ogre::SmallVectorImpl</text>
<text text-anchor="middle" x="574.61" y="-63.5" font-family="Helvetica,sans-Serif" font-size="10.00">&lt; Edge &gt;</text>
</a>
</g>
</g>
<!-- Node12&#45;&gt;Node13 -->
<g id="edge19" class="edge">
<title>Node12&#45;&gt;Node13</title>
<path fill="none" stroke="midnightblue" d="M478.52,-67.52C491.3,-67.07 504.33,-66.8 516.48,-66.76"/>
<polygon fill="midnightblue" stroke="midnightblue" points="478.2,-64.03 468.35,-67.93 478.48,-71.03 478.2,-64.03"/>
</g>
<!-- Node12&#45;&gt;Node13 -->
<g id="edge22" class="edge">
<title>Node12&#45;&gt;Node13</title>
<path fill="none" stroke="midnightblue" d="M478.52,-80.97C491.3,-80.68 504.33,-80.2 516.48,-79.54"/>
<polygon fill="midnightblue" stroke="midnightblue" points="478.29,-77.47 468.35,-81.15 478.41,-84.47 478.29,-77.47"/>
</g>
<!-- Node14 -->
<g id="node13" class="node">
<title>Node14</title>
<g id="a_node13"><a xlink:href="class_ogre_1_1_small_vector.html" target="_top" xlink:title=" ">
<polygon fill="none" stroke="red" points="688.71,-54.5 688.71,-82.5 791.69,-82.5 791.69,-54.5 688.71,-54.5"/>
<text text-anchor="start" x="696.71" y="-70.5" font-family="Helvetica,sans-Serif" font-size="10.00">Ogre::SmallVector&lt;</text>
<text text-anchor="middle" x="740.2" y="-60.5" font-family="Helvetica,sans-Serif" font-size="10.00"> Edge, S &gt;</text>
</a>
</g>
</g>
<!-- Node13&#45;&gt;Node14 -->
<g id="edge20" class="edge">
<title>Node13&#45;&gt;Node14</title>
<path fill="none" stroke="midnightblue" d="M643.2,-63.6C658.37,-63.13 674.22,-62.96 688.56,-63.13"/>
<polygon fill="midnightblue" stroke="midnightblue" points="642.69,-60.12 632.83,-63.98 642.95,-67.11 642.69,-60.12"/>
</g>
<!-- Node13&#45;&gt;Node14 -->
<g id="edge21" class="edge">
<title>Node13&#45;&gt;Node14</title>
<path fill="none" stroke="midnightblue" d="M643.2,-76.92C658.37,-76.84 674.22,-76.43 688.56,-75.72"/>
<polygon fill="midnightblue" stroke="midnightblue" points="642.83,-73.42 632.83,-76.92 642.83,-80.42 642.83,-73.42"/>
</g>
<!-- Node17 -->
<g id="node15" class="node">
<title>Node17</title>
<g id="a_node15"><a xlink:href="class_ogre_1_1_small_vector_template_base.html" target="_top" xlink:title=" ">
<polygon fill="none" stroke="black" points="330.09,-0.5 330.09,-38.5 468.67,-38.5 468.67,-0.5 330.09,-0.5"/>
<text text-anchor="start" x="338.09" y="-26.5" font-family="Helvetica,sans-Serif" font-size="10.00">Ogre::SmallVectorTemplate</text>
<text text-anchor="start" x="338.09" y="-16.5" font-family="Helvetica,sans-Serif" font-size="10.00">Base&lt; Triangle *, isPodLike</text>
<text text-anchor="middle" x="399.38" y="-6.5" font-family="Helvetica,sans-Serif" font-size="10.00">&lt; Triangle * &gt;::value &gt;</text>
</a>
</g>
</g>
<!-- Node16&#45;&gt;Node17 -->
<g id="edge26" class="edge">
<title>Node16&#45;&gt;Node17</title>
<path fill="none" stroke="midnightblue" d="M304.04,-15.51C312.64,-15.2 321.35,-14.99 329.82,-14.86"/>
<polygon fill="midnightblue" stroke="midnightblue" points="303.86,-12.01 294.01,-15.91 304.14,-19.01 303.86,-12.01"/>
</g>
<!-- Node16&#45;&gt;Node17 -->
<g id="edge31" class="edge">
<title>Node16&#45;&gt;Node17</title>
<path fill="none" stroke="midnightblue" d="M304.04,-28.96C312.64,-28.76 321.35,-28.48 329.82,-28.11"/>
<polygon fill="midnightblue" stroke="midnightblue" points="303.94,-25.46 294.01,-29.14 304.07,-32.46 303.94,-25.46"/>
</g>
<!-- Node18 -->
<g id="node16" class="node">
<title>Node18</title>
<g id="a_node16"><a xlink:href="class_ogre_1_1_small_vector_impl.html" target="_top" xlink:title=" ">
<polygon fill="none" stroke="black" points="516.59,-5.5 516.59,-33.5 632.63,-33.5 632.63,-5.5 516.59,-5.5"/>
<text text-anchor="start" x="524.59" y="-21.5" font-family="Helvetica,sans-Serif" font-size="10.00">Ogre::SmallVectorImpl</text>
<text text-anchor="middle" x="574.61" y="-11.5" font-family="Helvetica,sans-Serif" font-size="10.00">&lt; Triangle * &gt;</text>
</a>
</g>
</g>
<!-- Node17&#45;&gt;Node18 -->
<g id="edge27" class="edge">
<title>Node17&#45;&gt;Node18</title>
<path fill="none" stroke="midnightblue" d="M478.93,-12.78C491.6,-12.69 504.49,-12.81 516.53,-13.11"/>
<polygon fill="midnightblue" stroke="midnightblue" points="478.81,-9.28 468.85,-12.88 478.88,-16.28 478.81,-9.28"/>
</g>
<!-- Node17&#45;&gt;Node18 -->
<g id="edge30" class="edge">
<title>Node17&#45;&gt;Node18</title>
<path fill="none" stroke="midnightblue" d="M478.93,-26.22C491.6,-26.31 504.49,-26.19 516.53,-25.89"/>
<polygon fill="midnightblue" stroke="midnightblue" points="478.88,-22.72 468.85,-26.12 478.81,-29.72 478.88,-22.72"/>
</g>
<!-- Node19 -->
<g id="node17" class="node">
<title>Node19</title>
<g id="a_node17"><a xlink:href="class_ogre_1_1_small_vector.html" target="_top" xlink:title=" ">
<polygon fill="none" stroke="red" points="688.71,-5.5 688.71,-33.5 791.69,-33.5 791.69,-5.5 688.71,-5.5"/>
<text text-anchor="start" x="696.71" y="-21.5" font-family="Helvetica,sans-Serif" font-size="10.00">Ogre::SmallVector&lt;</text>
<text text-anchor="middle" x="740.2" y="-11.5" font-family="Helvetica,sans-Serif" font-size="10.00"> Triangle *, S &gt;</text>
</a>
</g>
</g>
<!-- Node18&#45;&gt;Node19 -->
<g id="edge28" class="edge">
<title>Node18&#45;&gt;Node19</title>
<path fill="none" stroke="midnightblue" d="M643.2,-12.84C658.37,-12.64 674.22,-12.77 688.56,-13.21"/>
<polygon fill="midnightblue" stroke="midnightblue" points="642.76,-9.35 632.83,-13.03 642.89,-16.35 642.76,-9.35"/>
</g>
<!-- Node18&#45;&gt;Node19 -->
<g id="edge29" class="edge">
<title>Node18&#45;&gt;Node19</title>
<path fill="none" stroke="midnightblue" d="M643.2,-26.16C658.37,-26.36 674.22,-26.23 688.56,-25.79"/>
<polygon fill="midnightblue" stroke="midnightblue" points="642.89,-22.65 632.83,-25.97 642.76,-29.65 642.89,-22.65"/>
</g>
</g>
</svg>
