<?xml version="1.0" encoding="UTF-8" standalone="no"?>
<!DOCTYPE svg PUBLIC "-//W3C//DTD SVG 1.1//EN"
 "http://www.w3.org/Graphics/SVG/1.1/DTD/svg11.dtd">
<!-- Generated by graphviz version 2.43.0 (0)
 -->
<!-- Title: Ogre::v1::D3D11HardwareIndexBuffer Pages: 1 -->
<svg width="166pt" height="202pt"
 viewBox="0.00 0.00 166.11 202.00" xmlns="http://www.w3.org/2000/svg" xmlns:xlink="http://www.w3.org/1999/xlink">
<g id="graph0" class="graph" transform="scale(1 1) rotate(0) translate(4 198)">
<title>Ogre::v1::D3D11HardwareIndexBuffer</title>
<!-- Node1 -->
<g id="node1" class="node">
<title>Node1</title>
<g id="a_node1"><a xlink:title=" ">
<polygon fill="#bfbfbf" stroke="black" points="0,-0.5 0,-28.5 158.11,-28.5 158.11,-0.5 0,-0.5"/>
<text text-anchor="start" x="8" y="-16.5" font-family="Helvetica,sans-Serif" font-size="10.00">Ogre::v1::D3D11HardwareIndex</text>
<text text-anchor="middle" x="79.05" y="-6.5" font-family="Helvetica,sans-Serif" font-size="10.00">Buffer</text>
</a>
</g>
</g>
<!-- Node2 -->
<g id="node2" class="node">
<title>Node2</title>
<g id="a_node2"><a xlink:href="class_ogre_1_1v1_1_1_hardware_index_buffer.html" target="_top" xlink:title="Specialisation of HardwareBuffer for vertex index buffers, still abstract.">
<polygon fill="none" stroke="black" points="1.94,-65.5 1.94,-83.5 156.17,-83.5 156.17,-65.5 1.94,-65.5"/>
<text text-anchor="middle" x="79.05" y="-71.5" font-family="Helvetica,sans-Serif" font-size="10.00">Ogre::v1::HardwareIndexBuffer</text>
</a>
</g>
</g>
<!-- Node2&#45;&gt;Node1 -->
<g id="edge1" class="edge">
<title>Node2&#45;&gt;Node1</title>
<path fill="none" stroke="midnightblue" d="M79.05,-55.32C79.05,-46.75 79.05,-36.7 79.05,-28.84"/>
<polygon fill="midnightblue" stroke="midnightblue" points="75.55,-55.44 79.05,-65.44 82.55,-55.44 75.55,-55.44"/>
</g>
<!-- Node3 -->
<g id="node3" class="node">
<title>Node3</title>
<g id="a_node3"><a xlink:href="class_ogre_1_1v1_1_1_hardware_buffer.html" target="_top" xlink:title="Abstract class defining common features of hardware buffers.">
<polygon fill="none" stroke="black" points="14.17,-120.5 14.17,-138.5 143.93,-138.5 143.93,-120.5 14.17,-120.5"/>
<text text-anchor="middle" x="79.05" y="-126.5" font-family="Helvetica,sans-Serif" font-size="10.00">Ogre::v1::HardwareBuffer</text>
</a>
</g>
</g>
<!-- Node3&#45;&gt;Node2 -->
<g id="edge2" class="edge">
<title>Node3&#45;&gt;Node2</title>
<path fill="none" stroke="midnightblue" d="M79.05,-110.17C79.05,-101.09 79.05,-90.59 79.05,-83.55"/>
<polygon fill="midnightblue" stroke="midnightblue" points="75.55,-110.22 79.05,-120.22 82.55,-110.22 75.55,-110.22"/>
</g>
<!-- Node4 -->
<g id="node4" class="node">
<title>Node4</title>
<g id="a_node4"><a xlink:href="class_ogre_1_1_allocated_object.html" target="_top" xlink:title="Superclass for all objects that wish to use custom memory allocators when their new / delete operator...">
<polygon fill="none" stroke="black" points="46.97,-175.5 46.97,-193.5 111.14,-193.5 111.14,-175.5 46.97,-175.5"/>
<text text-anchor="middle" x="79.05" y="-181.5" font-family="Helvetica,sans-Serif" font-size="10.00">BufferAlloc</text>
</a>
</g>
</g>
<!-- Node4&#45;&gt;Node3 -->
<g id="edge3" class="edge">
<title>Node4&#45;&gt;Node3</title>
<path fill="none" stroke="midnightblue" d="M79.05,-165.17C79.05,-156.09 79.05,-145.59 79.05,-138.55"/>
<polygon fill="midnightblue" stroke="midnightblue" points="75.55,-165.22 79.05,-175.22 82.55,-165.22 75.55,-165.22"/>
</g>
</g>
</svg>
