<?xml version="1.0" encoding="UTF-8" standalone="no"?>
<!DOCTYPE svg PUBLIC "-//W3C//DTD SVG 1.1//EN"
 "http://www.w3.org/Graphics/SVG/1.1/DTD/svg11.dtd">
<!-- Generated by graphviz version 2.43.0 (0)
 -->
<!-- Title: Ogre::v1::OldNodeAnimationTrack Pages: 1 -->
<svg width="152pt" height="147pt"
 viewBox="0.00 0.00 151.84 147.00" xmlns="http://www.w3.org/2000/svg" xmlns:xlink="http://www.w3.org/1999/xlink">
<g id="graph0" class="graph" transform="scale(1 1) rotate(0) translate(4 143)">
<title>Ogre::v1::OldNodeAnimationTrack</title>
<!-- Node1 -->
<g id="node1" class="node">
<title>Node1</title>
<g id="a_node1"><a xlink:title="Specialised AnimationTrack for dealing with node transforms.">
<polygon fill="#bfbfbf" stroke="black" points="0,-0.5 0,-28.5 143.84,-28.5 143.84,-0.5 0,-0.5"/>
<text text-anchor="start" x="8" y="-16.5" font-family="Helvetica,sans-Serif" font-size="10.00">Ogre::v1::OldNodeAnimation</text>
<text text-anchor="middle" x="71.92" y="-6.5" font-family="Helvetica,sans-Serif" font-size="10.00">Track</text>
</a>
</g>
</g>
<!-- Node2 -->
<g id="node2" class="node">
<title>Node2</title>
<g id="a_node2"><a xlink:href="class_ogre_1_1v1_1_1_animation_track.html" target="_top" xlink:title="A &#39;track&#39; in an animation sequence, i.e.">
<polygon fill="none" stroke="black" points="7.42,-65.5 7.42,-83.5 136.42,-83.5 136.42,-65.5 7.42,-65.5"/>
<text text-anchor="middle" x="71.92" y="-71.5" font-family="Helvetica,sans-Serif" font-size="10.00">Ogre::v1::AnimationTrack</text>
</a>
</g>
</g>
<!-- Node2&#45;&gt;Node1 -->
<g id="edge1" class="edge">
<title>Node2&#45;&gt;Node1</title>
<path fill="none" stroke="midnightblue" d="M71.92,-55.32C71.92,-46.75 71.92,-36.7 71.92,-28.84"/>
<polygon fill="midnightblue" stroke="midnightblue" points="68.42,-55.44 71.92,-65.44 75.42,-55.44 68.42,-55.44"/>
</g>
<!-- Node3 -->
<g id="node3" class="node">
<title>Node3</title>
<g id="a_node3"><a xlink:href="class_ogre_1_1_allocated_object.html" target="_top" xlink:title="Superclass for all objects that wish to use custom memory allocators when their new / delete operator...">
<polygon fill="none" stroke="black" points="30.85,-120.5 30.85,-138.5 112.99,-138.5 112.99,-120.5 30.85,-120.5"/>
<text text-anchor="middle" x="71.92" y="-126.5" font-family="Helvetica,sans-Serif" font-size="10.00">AnimationAlloc</text>
</a>
</g>
</g>
<!-- Node3&#45;&gt;Node2 -->
<g id="edge2" class="edge">
<title>Node3&#45;&gt;Node2</title>
<path fill="none" stroke="midnightblue" d="M71.92,-110.17C71.92,-101.09 71.92,-90.59 71.92,-83.55"/>
<polygon fill="midnightblue" stroke="midnightblue" points="68.42,-110.22 71.92,-120.22 75.42,-110.22 68.42,-110.22"/>
</g>
</g>
</svg>
