<?xml version="1.0" encoding="UTF-8" standalone="no"?>
<!DOCTYPE svg PUBLIC "-//W3C//DTD SVG 1.1//EN"
 "http://www.w3.org/Graphics/SVG/1.1/DTD/svg11.dtd">
<!-- Generated by graphviz version 2.43.0 (0)
 -->
<!-- Title: Ogre::ConstMapIterator&lt; T &gt; Pages: 1 -->
<svg width="152pt" height="167pt"
 viewBox="0.00 0.00 152.04 167.00" xmlns="http://www.w3.org/2000/svg" xmlns:xlink="http://www.w3.org/1999/xlink">
<g id="graph0" class="graph" transform="scale(1 1) rotate(0) translate(4 163)">
<title>Ogre::ConstMapIterator&lt; T &gt;</title>
<!-- Node1 -->
<g id="node1" class="node">
<title>Node1</title>
<g id="a_node1"><a xlink:title="Concrete IteratorWrapper for const access to the underlying key&#45;value container.">
<polygon fill="#bfbfbf" stroke="black" points="0,-0.5 0,-18.5 144.04,-18.5 144.04,-0.5 0,-0.5"/>
<text text-anchor="middle" x="72.02" y="-6.5" font-family="Helvetica,sans-Serif" font-size="10.00">Ogre::ConstMapIterator&lt; T &gt;</text>
</a>
</g>
</g>
<!-- Node2 -->
<g id="node2" class="node">
<title>Node2</title>
<g id="a_node2"><a xlink:href="class_ogre_1_1_map_iterator_wrapper.html" target="_top" xlink:title=" ">
<polygon fill="none" stroke="black" points="5.47,-55.5 5.47,-83.5 138.56,-83.5 138.56,-55.5 5.47,-55.5"/>
<text text-anchor="start" x="13.47" y="-71.5" font-family="Helvetica,sans-Serif" font-size="10.00">Ogre::MapIteratorWrapper</text>
<text text-anchor="middle" x="72.02" y="-61.5" font-family="Helvetica,sans-Serif" font-size="10.00">&lt; T, T::const_iterator &gt;</text>
</a>
</g>
</g>
<!-- Node2&#45;&gt;Node1 -->
<g id="edge1" class="edge">
<title>Node2&#45;&gt;Node1</title>
<path fill="none" stroke="midnightblue" d="M72.02,-45.32C72.02,-35.94 72.02,-25.7 72.02,-18.77"/>
<polygon fill="midnightblue" stroke="midnightblue" points="68.52,-45.34 72.02,-55.34 75.52,-45.34 68.52,-45.34"/>
</g>
<!-- Node3 -->
<g id="node3" class="node">
<title>Node3</title>
<g id="a_node3"><a xlink:href="class_ogre_1_1_iterator_wrapper.html" target="_top" xlink:title=" ">
<polygon fill="none" stroke="black" points="15.2,-120.5 15.2,-158.5 128.84,-158.5 128.84,-120.5 15.2,-120.5"/>
<text text-anchor="start" x="23.2" y="-146.5" font-family="Helvetica,sans-Serif" font-size="10.00">Ogre::IteratorWrapper</text>
<text text-anchor="start" x="23.2" y="-136.5" font-family="Helvetica,sans-Serif" font-size="10.00">&lt; T, T::const_iterator,</text>
<text text-anchor="middle" x="72.02" y="-126.5" font-family="Helvetica,sans-Serif" font-size="10.00"> T::mapped_type &gt;</text>
</a>
</g>
</g>
<!-- Node3&#45;&gt;Node2 -->
<g id="edge2" class="edge">
<title>Node3&#45;&gt;Node2</title>
<path fill="none" stroke="midnightblue" d="M72.02,-110.01C72.02,-100.92 72.02,-91.29 72.02,-83.81"/>
<polygon fill="midnightblue" stroke="midnightblue" points="68.52,-110.28 72.02,-120.28 75.52,-110.28 68.52,-110.28"/>
</g>
</g>
</svg>
