<?xml version="1.0" encoding="UTF-8" standalone="no"?>
<!DOCTYPE svg PUBLIC "-//W3C//DTD SVG 1.1//EN"
 "http://www.w3.org/Graphics/SVG/1.1/DTD/svg11.dtd">
<!-- Generated by graphviz version 2.43.0 (0)
 -->
<!-- Title: Ogre::D3D9StereoDriverBridge Pages: 1 -->
<svg width="268pt" height="92pt"
 viewBox="0.00 0.00 268.47 92.00" xmlns="http://www.w3.org/2000/svg" xmlns:xlink="http://www.w3.org/1999/xlink">
<g id="graph0" class="graph" transform="scale(1 1) rotate(0) translate(4 88)">
<title>Ogre::D3D9StereoDriverBridge</title>
<!-- Node1 -->
<g id="node1" class="node">
<title>Node1</title>
<g id="a_node1"><a xlink:title="Bridge interface from the render system to the stereo driver.">
<polygon fill="#bfbfbf" stroke="black" points="66.37,-0.5 66.37,-18.5 220.76,-18.5 220.76,-0.5 66.37,-0.5"/>
<text text-anchor="middle" x="143.57" y="-6.5" font-family="Helvetica,sans-Serif" font-size="10.00">Ogre::D3D9StereoDriverBridge</text>
</a>
</g>
</g>
<!-- Node2 -->
<g id="node2" class="node">
<title>Node2</title>
<g id="a_node2"><a xlink:href="class_ogre_1_1_singleton.html" target="_top" xlink:title=" ">
<polygon fill="none" stroke="black" points="0,-55.5 0,-83.5 149.13,-83.5 149.13,-55.5 0,-55.5"/>
<text text-anchor="start" x="8" y="-71.5" font-family="Helvetica,sans-Serif" font-size="10.00">Ogre::Singleton&lt; D3D9Stereo</text>
<text text-anchor="middle" x="74.57" y="-61.5" font-family="Helvetica,sans-Serif" font-size="10.00">DriverBridge &gt;</text>
</a>
</g>
</g>
<!-- Node2&#45;&gt;Node1 -->
<g id="edge1" class="edge">
<title>Node2&#45;&gt;Node1</title>
<path fill="none" stroke="midnightblue" d="M98.23,-48.61C110.37,-38.4 124.51,-26.52 133.73,-18.77"/>
<polygon fill="midnightblue" stroke="midnightblue" points="95.63,-46.23 90.22,-55.34 100.13,-51.58 95.63,-46.23"/>
</g>
<!-- Node3 -->
<g id="node3" class="node">
<title>Node3</title>
<g id="a_node3"><a xlink:href="class_ogre_1_1_allocated_object.html" target="_top" xlink:title="Superclass for all objects that wish to use custom memory allocators when their new / delete operator...">
<polygon fill="none" stroke="black" points="166.67,-60.5 166.67,-78.5 260.47,-78.5 260.47,-60.5 166.67,-60.5"/>
<text text-anchor="middle" x="213.57" y="-66.5" font-family="Helvetica,sans-Serif" font-size="10.00">StereoDriverAlloc</text>
</a>
</g>
</g>
<!-- Node3&#45;&gt;Node1 -->
<g id="edge2" class="edge">
<title>Node3&#45;&gt;Node1</title>
<path fill="none" stroke="midnightblue" d="M195.83,-53.8C182.48,-42.74 164.67,-27.99 153.67,-18.87"/>
<polygon fill="midnightblue" stroke="midnightblue" points="193.9,-56.75 203.83,-60.44 198.37,-51.36 193.9,-56.75"/>
</g>
</g>
</svg>
