<?xml version="1.0" encoding="UTF-8" standalone="no"?>
<!DOCTYPE svg PUBLIC "-//W3C//DTD SVG 1.1//EN"
 "http://www.w3.org/Graphics/SVG/1.1/DTD/svg11.dtd">
<!-- Generated by graphviz version 2.43.0 (0)
 -->
<!-- Title: Ogre::v1::D3D11HardwareVertexBuffer Pages: 1 -->
<svg width="170pt" height="212pt"
 viewBox="0.00 0.00 170.00 212.00" xmlns="http://www.w3.org/2000/svg" xmlns:xlink="http://www.w3.org/1999/xlink">
<g id="graph0" class="graph" transform="scale(1 1) rotate(0) translate(4 208)">
<title>Ogre::v1::D3D11HardwareVertexBuffer</title>
<!-- Node1 -->
<g id="node1" class="node">
<title>Node1</title>
<g id="a_node1"><a xlink:title="Specialisation of HardwareVertexBuffer for D3D11.">
<polygon fill="#bfbfbf" stroke="black" points="0,-0.5 0,-28.5 162,-28.5 162,-0.5 0,-0.5"/>
<text text-anchor="start" x="8" y="-16.5" font-family="Helvetica,sans-Serif" font-size="10.00">Ogre::v1::D3D11HardwareVertex</text>
<text text-anchor="middle" x="81" y="-6.5" font-family="Helvetica,sans-Serif" font-size="10.00">Buffer</text>
</a>
</g>
</g>
<!-- Node2 -->
<g id="node2" class="node">
<title>Node2</title>
<g id="a_node2"><a xlink:href="class_ogre_1_1v1_1_1_hardware_vertex_buffer.html" target="_top" xlink:title="Specialisation of HardwareBuffer for a vertex buffer.">
<polygon fill="none" stroke="black" points="15.2,-65.5 15.2,-93.5 146.81,-93.5 146.81,-65.5 15.2,-65.5"/>
<text text-anchor="start" x="23.2" y="-81.5" font-family="Helvetica,sans-Serif" font-size="10.00">Ogre::v1::HardwareVertex</text>
<text text-anchor="middle" x="81" y="-71.5" font-family="Helvetica,sans-Serif" font-size="10.00">Buffer</text>
</a>
</g>
</g>
<!-- Node2&#45;&gt;Node1 -->
<g id="edge1" class="edge">
<title>Node2&#45;&gt;Node1</title>
<path fill="none" stroke="midnightblue" d="M81,-55.16C81,-46.17 81,-36.22 81,-28.54"/>
<polygon fill="midnightblue" stroke="midnightblue" points="77.5,-55.45 81,-65.45 84.5,-55.45 77.5,-55.45"/>
</g>
<!-- Node3 -->
<g id="node3" class="node">
<title>Node3</title>
<g id="a_node3"><a xlink:href="class_ogre_1_1v1_1_1_hardware_buffer.html" target="_top" xlink:title="Abstract class defining common features of hardware buffers.">
<polygon fill="none" stroke="black" points="16.12,-130.5 16.12,-148.5 145.88,-148.5 145.88,-130.5 16.12,-130.5"/>
<text text-anchor="middle" x="81" y="-136.5" font-family="Helvetica,sans-Serif" font-size="10.00">Ogre::v1::HardwareBuffer</text>
</a>
</g>
</g>
<!-- Node3&#45;&gt;Node2 -->
<g id="edge2" class="edge">
<title>Node3&#45;&gt;Node2</title>
<path fill="none" stroke="midnightblue" d="M81,-120.32C81,-111.75 81,-101.7 81,-93.84"/>
<polygon fill="midnightblue" stroke="midnightblue" points="77.5,-120.44 81,-130.44 84.5,-120.44 77.5,-120.44"/>
</g>
<!-- Node4 -->
<g id="node4" class="node">
<title>Node4</title>
<g id="a_node4"><a xlink:href="class_ogre_1_1_allocated_object.html" target="_top" xlink:title="Superclass for all objects that wish to use custom memory allocators when their new / delete operator...">
<polygon fill="none" stroke="black" points="48.91,-185.5 48.91,-203.5 113.09,-203.5 113.09,-185.5 48.91,-185.5"/>
<text text-anchor="middle" x="81" y="-191.5" font-family="Helvetica,sans-Serif" font-size="10.00">BufferAlloc</text>
</a>
</g>
</g>
<!-- Node4&#45;&gt;Node3 -->
<g id="edge3" class="edge">
<title>Node4&#45;&gt;Node3</title>
<path fill="none" stroke="midnightblue" d="M81,-175.17C81,-166.09 81,-155.59 81,-148.55"/>
<polygon fill="midnightblue" stroke="midnightblue" points="77.5,-175.22 81,-185.22 84.5,-175.22 77.5,-175.22"/>
</g>
</g>
</svg>
