<?xml version="1.0" encoding="UTF-8" standalone="no"?>
<!DOCTYPE svg PUBLIC "-//W3C//DTD SVG 1.1//EN"
 "http://www.w3.org/Graphics/SVG/1.1/DTD/svg11.dtd">
<!-- Generated by graphviz version 2.43.0 (0)
 -->
<!-- Title: Ogre::v1::SubEntity Pages: 1 -->
<svg width="202pt" height="82pt"
 viewBox="0.00 0.00 201.98 82.00" xmlns="http://www.w3.org/2000/svg" xmlns:xlink="http://www.w3.org/1999/xlink">
<g id="graph0" class="graph" transform="scale(1 1) rotate(0) translate(4 78)">
<title>Ogre::v1::SubEntity</title>
<!-- Node1 -->
<g id="node1" class="node">
<title>Node1</title>
<g id="a_node1"><a xlink:title="Utility class which defines the sub&#45;parts of an Entity.">
<polygon fill="#bfbfbf" stroke="black" points="49.39,-0.5 49.39,-18.5 152.1,-18.5 152.1,-0.5 49.39,-0.5"/>
<text text-anchor="middle" x="100.75" y="-6.5" font-family="Helvetica,sans-Serif" font-size="10.00">Ogre::v1::SubEntity</text>
</a>
</g>
</g>
<!-- Node2 -->
<g id="node2" class="node">
<title>Node2</title>
<g id="a_node2"><a xlink:href="class_ogre_1_1_renderable.html" target="_top" xlink:title="Abstract class defining the interface all renderable objects must implement.">
<polygon fill="none" stroke="black" points="0,-55.5 0,-73.5 95.49,-73.5 95.49,-55.5 0,-55.5"/>
<text text-anchor="middle" x="47.75" y="-61.5" font-family="Helvetica,sans-Serif" font-size="10.00">Ogre::Renderable</text>
</a>
</g>
</g>
<!-- Node2&#45;&gt;Node1 -->
<g id="edge1" class="edge">
<title>Node2&#45;&gt;Node1</title>
<path fill="none" stroke="midnightblue" d="M63.14,-48.11C72.8,-38.44 84.88,-26.37 92.7,-18.55"/>
<polygon fill="midnightblue" stroke="midnightblue" points="60.62,-45.67 56.03,-55.22 65.57,-50.62 60.62,-45.67"/>
</g>
<!-- Node3 -->
<g id="node3" class="node">
<title>Node3</title>
<g id="a_node3"><a xlink:href="class_ogre_1_1_allocated_object.html" target="_top" xlink:title="Superclass for all objects that wish to use custom memory allocators when their new / delete operator...">
<polygon fill="none" stroke="black" points="113.51,-55.5 113.51,-73.5 193.98,-73.5 193.98,-55.5 113.51,-55.5"/>
<text text-anchor="middle" x="153.75" y="-61.5" font-family="Helvetica,sans-Serif" font-size="10.00">SubEntityAlloc</text>
</a>
</g>
</g>
<!-- Node3&#45;&gt;Node1 -->
<g id="edge2" class="edge">
<title>Node3&#45;&gt;Node1</title>
<path fill="none" stroke="midnightblue" d="M138.36,-48.11C128.69,-38.44 116.62,-26.37 108.8,-18.55"/>
<polygon fill="midnightblue" stroke="midnightblue" points="135.92,-50.62 145.46,-55.22 140.87,-45.67 135.92,-50.62"/>
</g>
</g>
</svg>
