<?xml version="1.0" encoding="UTF-8" standalone="no"?>
<!DOCTYPE svg PUBLIC "-//W3C//DTD SVG 1.1//EN"
 "http://www.w3.org/Graphics/SVG/1.1/DTD/svg11.dtd">
<!-- Generated by graphviz version 2.43.0 (0)
 -->
<!-- Title: Ogre::RTShader::LayeredBlending Pages: 1 -->
<svg width="178pt" height="202pt"
 viewBox="0.00 0.00 177.80 202.00" xmlns="http://www.w3.org/2000/svg" xmlns:xlink="http://www.w3.org/1999/xlink">
<g id="graph0" class="graph" transform="scale(1 1) rotate(0) translate(4 198)">
<title>Ogre::RTShader::LayeredBlending</title>
<!-- Node1 -->
<g id="node1" class="node">
<title>Node1</title>
<g id="a_node1"><a xlink:title="Texturing sub render state implementation of layered blending.">
<polygon fill="#bfbfbf" stroke="black" points="0,-0.5 0,-18.5 169.8,-18.5 169.8,-0.5 0,-0.5"/>
<text text-anchor="middle" x="84.9" y="-6.5" font-family="Helvetica,sans-Serif" font-size="10.00">Ogre::RTShader::LayeredBlending</text>
</a>
</g>
</g>
<!-- Node2 -->
<g id="node2" class="node">
<title>Node2</title>
<g id="a_node2"><a xlink:href="class_ogre_1_1_r_t_shader_1_1_f_f_p_texturing.html" target="_top" xlink:title="Texturing sub render state implementation of the Fixed Function Pipeline.">
<polygon fill="none" stroke="black" points="7.8,-55.5 7.8,-73.5 162.01,-73.5 162.01,-55.5 7.8,-55.5"/>
<text text-anchor="middle" x="84.9" y="-61.5" font-family="Helvetica,sans-Serif" font-size="10.00">Ogre::RTShader::FFPTexturing</text>
</a>
</g>
</g>
<!-- Node2&#45;&gt;Node1 -->
<g id="edge1" class="edge">
<title>Node2&#45;&gt;Node1</title>
<path fill="none" stroke="midnightblue" d="M84.9,-45.17C84.9,-36.09 84.9,-25.59 84.9,-18.55"/>
<polygon fill="midnightblue" stroke="midnightblue" points="81.4,-45.22 84.9,-55.22 88.4,-45.22 81.4,-45.22"/>
</g>
<!-- Node3 -->
<g id="node3" class="node">
<title>Node3</title>
<g id="a_node3"><a xlink:href="class_ogre_1_1_r_t_shader_1_1_sub_render_state.html" target="_top" xlink:title="This class is the base interface of sub part from a shader based rendering pipeline.">
<polygon fill="none" stroke="black" points="12.23,-110.5 12.23,-138.5 157.57,-138.5 157.57,-110.5 12.23,-110.5"/>
<text text-anchor="start" x="20.23" y="-126.5" font-family="Helvetica,sans-Serif" font-size="10.00">Ogre::RTShader::SubRender</text>
<text text-anchor="middle" x="84.9" y="-116.5" font-family="Helvetica,sans-Serif" font-size="10.00">State</text>
</a>
</g>
</g>
<!-- Node3&#45;&gt;Node2 -->
<g id="edge2" class="edge">
<title>Node3&#45;&gt;Node2</title>
<path fill="none" stroke="midnightblue" d="M84.9,-100.32C84.9,-90.94 84.9,-80.7 84.9,-73.77"/>
<polygon fill="midnightblue" stroke="midnightblue" points="81.4,-100.34 84.9,-110.34 88.4,-100.34 81.4,-100.34"/>
</g>
<!-- Node4 -->
<g id="node4" class="node">
<title>Node4</title>
<g id="a_node4"><a xlink:href="class_ogre_1_1_allocated_object.html" target="_top" xlink:title="Superclass for all objects that wish to use custom memory allocators when their new / delete operator...">
<polygon fill="none" stroke="black" points="26.69,-175.5 26.69,-193.5 143.11,-193.5 143.11,-175.5 26.69,-175.5"/>
<text text-anchor="middle" x="84.9" y="-181.5" font-family="Helvetica,sans-Serif" font-size="10.00">RTShaderSystemAlloc</text>
</a>
</g>
</g>
<!-- Node4&#45;&gt;Node3 -->
<g id="edge3" class="edge">
<title>Node4&#45;&gt;Node3</title>
<path fill="none" stroke="midnightblue" d="M84.9,-165.32C84.9,-156.75 84.9,-146.7 84.9,-138.84"/>
<polygon fill="midnightblue" stroke="midnightblue" points="81.4,-165.44 84.9,-175.44 88.4,-165.44 81.4,-165.44"/>
</g>
</g>
</svg>
