<?xml version="1.0" encoding="UTF-8" standalone="no"?>
<!DOCTYPE svg PUBLIC "-//W3C//DTD SVG 1.1//EN"
 "http://www.w3.org/Graphics/SVG/1.1/DTD/svg11.dtd">
<!-- Generated by graphviz version 2.43.0 (0)
 -->
<!-- Title: Ogre::TerrainMaterialGeneratorA Pages: 1 -->
<svg width="170pt" height="137pt"
 viewBox="0.00 0.00 169.62 137.00" xmlns="http://www.w3.org/2000/svg" xmlns:xlink="http://www.w3.org/1999/xlink">
<g id="graph0" class="graph" transform="scale(1 1) rotate(0) translate(4 133)">
<title>Ogre::TerrainMaterialGeneratorA</title>
<!-- Node1 -->
<g id="node1" class="node">
<title>Node1</title>
<g id="a_node1"><a xlink:title="A TerrainMaterialGenerator which can cope with normal mapped, specular mapped terrain.">
<polygon fill="#bfbfbf" stroke="black" points="0,-0.5 0,-18.5 161.62,-18.5 161.62,-0.5 0,-0.5"/>
<text text-anchor="middle" x="80.81" y="-6.5" font-family="Helvetica,sans-Serif" font-size="10.00">Ogre::TerrainMaterialGeneratorA</text>
</a>
</g>
</g>
<!-- Node2 -->
<g id="node2" class="node">
<title>Node2</title>
<g id="a_node2"><a xlink:href="class_ogre_1_1_terrain_material_generator.html" target="_top" xlink:title="Class that provides functionality to generate materials for use with a terrain.">
<polygon fill="none" stroke="black" points="3.33,-55.5 3.33,-73.5 158.28,-73.5 158.28,-55.5 3.33,-55.5"/>
<text text-anchor="middle" x="80.81" y="-61.5" font-family="Helvetica,sans-Serif" font-size="10.00">Ogre::TerrainMaterialGenerator</text>
</a>
</g>
</g>
<!-- Node2&#45;&gt;Node1 -->
<g id="edge1" class="edge">
<title>Node2&#45;&gt;Node1</title>
<path fill="none" stroke="midnightblue" d="M80.81,-45.17C80.81,-36.09 80.81,-25.59 80.81,-18.55"/>
<polygon fill="midnightblue" stroke="midnightblue" points="77.31,-45.22 80.81,-55.22 84.31,-45.22 77.31,-45.22"/>
</g>
<!-- Node3 -->
<g id="node3" class="node">
<title>Node3</title>
<g id="a_node3"><a xlink:href="class_ogre_1_1_allocated_object.html" target="_top" xlink:title="Superclass for all objects that wish to use custom memory allocators when their new / delete operator...">
<polygon fill="none" stroke="black" points="46.69,-110.5 46.69,-128.5 114.93,-128.5 114.93,-110.5 46.69,-110.5"/>
<text text-anchor="middle" x="80.81" y="-116.5" font-family="Helvetica,sans-Serif" font-size="10.00">TerrainAlloc</text>
</a>
</g>
</g>
<!-- Node3&#45;&gt;Node2 -->
<g id="edge2" class="edge">
<title>Node3&#45;&gt;Node2</title>
<path fill="none" stroke="midnightblue" d="M80.81,-100.17C80.81,-91.09 80.81,-80.59 80.81,-73.55"/>
<polygon fill="midnightblue" stroke="midnightblue" points="77.31,-100.22 80.81,-110.22 84.31,-100.22 77.31,-100.22"/>
</g>
</g>
</svg>
