<?xml version="1.0" encoding="UTF-8" standalone="no"?>
<!DOCTYPE svg PUBLIC "-//W3C//DTD SVG 1.1//EN"
 "http://www.w3.org/Graphics/SVG/1.1/DTD/svg11.dtd">
<!-- Generated by graphviz version 2.43.0 (0)
 -->
<!-- Title: Ogre::v1::TextAreaOverlayElement Pages: 1 -->
<svg width="320pt" height="147pt"
 viewBox="0.00 0.00 320.48 147.00" xmlns="http://www.w3.org/2000/svg" xmlns:xlink="http://www.w3.org/1999/xlink">
<g id="graph0" class="graph" transform="scale(1 1) rotate(0) translate(4 143)">
<title>Ogre::v1::TextAreaOverlayElement</title>
<!-- Node1 -->
<g id="node1" class="node">
<title>Node1</title>
<g id="a_node1"><a xlink:title="This class implements an overlay element which contains simple unformatted text.">
<polygon fill="#bfbfbf" stroke="black" points="107.5,-0.5 107.5,-28.5 241.32,-28.5 241.32,-0.5 107.5,-0.5"/>
<text text-anchor="start" x="115.5" y="-16.5" font-family="Helvetica,sans-Serif" font-size="10.00">Ogre::v1::TextAreaOverlay</text>
<text text-anchor="middle" x="174.41" y="-6.5" font-family="Helvetica,sans-Serif" font-size="10.00">Element</text>
</a>
</g>
</g>
<!-- Node2 -->
<g id="node2" class="node">
<title>Node2</title>
<g id="a_node2"><a xlink:href="class_ogre_1_1v1_1_1_overlay_element.html" target="_top" xlink:title="Abstract definition of a 2D element to be displayed in an Overlay.">
<polygon fill="none" stroke="black" points="108.89,-65.5 108.89,-83.5 239.93,-83.5 239.93,-65.5 108.89,-65.5"/>
<text text-anchor="middle" x="174.41" y="-71.5" font-family="Helvetica,sans-Serif" font-size="10.00">Ogre::v1::OverlayElement</text>
</a>
</g>
</g>
<!-- Node2&#45;&gt;Node1 -->
<g id="edge1" class="edge">
<title>Node2&#45;&gt;Node1</title>
<path fill="none" stroke="midnightblue" d="M174.41,-55.32C174.41,-46.75 174.41,-36.7 174.41,-28.84"/>
<polygon fill="midnightblue" stroke="midnightblue" points="170.91,-55.44 174.41,-65.44 177.91,-55.44 170.91,-55.44"/>
</g>
<!-- Node3 -->
<g id="node3" class="node">
<title>Node3</title>
<g id="a_node3"><a xlink:href="class_ogre_1_1_string_interface.html" target="_top" xlink:title="Class defining the common interface which classes can use to present a reflection&#45;style,...">
<polygon fill="none" stroke="black" points="0,-120.5 0,-138.5 108.82,-138.5 108.82,-120.5 0,-120.5"/>
<text text-anchor="middle" x="54.41" y="-126.5" font-family="Helvetica,sans-Serif" font-size="10.00">Ogre::StringInterface</text>
</a>
</g>
</g>
<!-- Node3&#45;&gt;Node2 -->
<g id="edge2" class="edge">
<title>Node3&#45;&gt;Node2</title>
<path fill="none" stroke="midnightblue" d="M82.07,-116.28C104.78,-106.25 136.3,-92.33 156.01,-83.63"/>
<polygon fill="midnightblue" stroke="midnightblue" points="80.37,-113.21 72.64,-120.45 83.2,-119.61 80.37,-113.21"/>
</g>
<!-- Node4 -->
<g id="node4" class="node">
<title>Node4</title>
<g id="a_node4"><a xlink:href="class_ogre_1_1_renderable.html" target="_top" xlink:title="Abstract class defining the interface all renderable objects must implement.">
<polygon fill="none" stroke="black" points="126.67,-120.5 126.67,-138.5 222.16,-138.5 222.16,-120.5 126.67,-120.5"/>
<text text-anchor="middle" x="174.41" y="-126.5" font-family="Helvetica,sans-Serif" font-size="10.00">Ogre::Renderable</text>
</a>
</g>
</g>
<!-- Node4&#45;&gt;Node2 -->
<g id="edge3" class="edge">
<title>Node4&#45;&gt;Node2</title>
<path fill="none" stroke="midnightblue" d="M174.41,-110.17C174.41,-101.09 174.41,-90.59 174.41,-83.55"/>
<polygon fill="midnightblue" stroke="midnightblue" points="170.91,-110.22 174.41,-120.22 177.91,-110.22 170.91,-110.22"/>
</g>
<!-- Node5 -->
<g id="node5" class="node">
<title>Node5</title>
<g id="a_node5"><a xlink:href="class_ogre_1_1_allocated_object.html" target="_top" xlink:title="Superclass for all objects that wish to use custom memory allocators when their new / delete operator...">
<polygon fill="none" stroke="black" points="240.35,-120.5 240.35,-138.5 312.48,-138.5 312.48,-120.5 240.35,-120.5"/>
<text text-anchor="middle" x="276.41" y="-126.5" font-family="Helvetica,sans-Serif" font-size="10.00">OverlayAlloc</text>
</a>
</g>
</g>
<!-- Node5&#45;&gt;Node2 -->
<g id="edge4" class="edge">
<title>Node5&#45;&gt;Node2</title>
<path fill="none" stroke="midnightblue" d="M251.85,-115.74C232.64,-105.76 206.51,-92.18 190.05,-83.63"/>
<polygon fill="midnightblue" stroke="midnightblue" points="250.43,-118.95 260.92,-120.45 253.66,-112.73 250.43,-118.95"/>
</g>
</g>
</svg>
