<?xml version="1.0" encoding="UTF-8" standalone="no"?>
<!DOCTYPE svg PUBLIC "-//W3C//DTD SVG 1.1//EN"
 "http://www.w3.org/Graphics/SVG/1.1/DTD/svg11.dtd">
<!-- Generated by graphviz version 2.43.0 (0)
 -->
<!-- Title: Ogre::ColourInterpolatorAffector Pages: 1 -->
<svg width="186pt" height="147pt"
 viewBox="0.00 0.00 185.64 147.00" xmlns="http://www.w3.org/2000/svg" xmlns:xlink="http://www.w3.org/1999/xlink">
<g id="graph0" class="graph" transform="scale(1 1) rotate(0) translate(4 143)">
<title>Ogre::ColourInterpolatorAffector</title>
<!-- Node1 -->
<g id="node1" class="node">
<title>Node1</title>
<g id="a_node1"><a xlink:title=" ">
<polygon fill="#bfbfbf" stroke="black" points="41.5,-0.5 41.5,-28.5 165.33,-28.5 165.33,-0.5 41.5,-0.5"/>
<text text-anchor="start" x="49.5" y="-16.5" font-family="Helvetica,sans-Serif" font-size="10.00">Ogre::ColourInterpolator</text>
<text text-anchor="middle" x="103.41" y="-6.5" font-family="Helvetica,sans-Serif" font-size="10.00">Affector</text>
</a>
</g>
</g>
<!-- Node2 -->
<g id="node2" class="node">
<title>Node2</title>
<g id="a_node2"><a xlink:href="class_ogre_1_1_particle_affector.html" target="_top" xlink:title="Abstract class defining the interface to be implemented by particle affectors.">
<polygon fill="none" stroke="black" points="47.7,-65.5 47.7,-83.5 159.12,-83.5 159.12,-65.5 47.7,-65.5"/>
<text text-anchor="middle" x="103.41" y="-71.5" font-family="Helvetica,sans-Serif" font-size="10.00">Ogre::ParticleAffector</text>
</a>
</g>
</g>
<!-- Node2&#45;&gt;Node1 -->
<g id="edge1" class="edge">
<title>Node2&#45;&gt;Node1</title>
<path fill="none" stroke="midnightblue" d="M103.41,-55.32C103.41,-46.75 103.41,-36.7 103.41,-28.84"/>
<polygon fill="midnightblue" stroke="midnightblue" points="99.91,-55.44 103.41,-65.44 106.91,-55.44 99.91,-55.44"/>
</g>
<!-- Node3 -->
<g id="node3" class="node">
<title>Node3</title>
<g id="a_node3"><a xlink:href="class_ogre_1_1_string_interface.html" target="_top" xlink:title="Class defining the common interface which classes can use to present a reflection&#45;style,...">
<polygon fill="none" stroke="black" points="0,-120.5 0,-138.5 108.82,-138.5 108.82,-120.5 0,-120.5"/>
<text text-anchor="middle" x="54.41" y="-126.5" font-family="Helvetica,sans-Serif" font-size="10.00">Ogre::StringInterface</text>
</a>
</g>
</g>
<!-- Node3&#45;&gt;Node2 -->
<g id="edge2" class="edge">
<title>Node3&#45;&gt;Node2</title>
<path fill="none" stroke="midnightblue" d="M68.91,-112.82C77.8,-103.21 88.81,-91.29 95.97,-83.55"/>
<polygon fill="midnightblue" stroke="midnightblue" points="66.29,-110.5 62.07,-120.22 71.43,-115.25 66.29,-110.5"/>
</g>
<!-- Node4 -->
<g id="node4" class="node">
<title>Node4</title>
<g id="a_node4"><a xlink:href="class_ogre_1_1_allocated_object.html" target="_top" xlink:title="Superclass for all objects that wish to use custom memory allocators when their new / delete operator...">
<polygon fill="none" stroke="black" points="127.18,-120.5 127.18,-138.5 177.64,-138.5 177.64,-120.5 127.18,-120.5"/>
<text text-anchor="middle" x="152.41" y="-126.5" font-family="Helvetica,sans-Serif" font-size="10.00">FXAlloc</text>
</a>
</g>
</g>
<!-- Node4&#45;&gt;Node2 -->
<g id="edge3" class="edge">
<title>Node4&#45;&gt;Node2</title>
<path fill="none" stroke="midnightblue" d="M137.92,-112.82C129.03,-103.21 118.01,-91.29 110.85,-83.55"/>
<polygon fill="midnightblue" stroke="midnightblue" points="135.4,-115.25 144.75,-120.22 140.54,-110.5 135.4,-115.25"/>
</g>
</g>
</svg>
