<?xml version="1.0" encoding="UTF-8" standalone="no"?>
<!DOCTYPE svg PUBLIC "-//W3C//DTD SVG 1.1//EN"
 "http://www.w3.org/Graphics/SVG/1.1/DTD/svg11.dtd">
<!-- Generated by graphviz version 2.43.0 (0)
 -->
<!-- Title: Ogre::Hlms Pages: 1 -->
<svg width="462pt" height="193pt"
 viewBox="0.00 0.00 462.11 193.00" xmlns="http://www.w3.org/2000/svg" xmlns:xlink="http://www.w3.org/1999/xlink">
<g id="graph0" class="graph" transform="scale(1 1) rotate(0) translate(4 189)">
<title>Ogre::Hlms</title>
<!-- Node1 -->
<g id="node1" class="node">
<title>Node1</title>
<g id="a_node1"><a xlink:title="HLMS stands for &quot;High Level Material System&quot;.">
<polygon fill="#bfbfbf" stroke="black" points="96.45,-74.5 96.45,-92.5 163.01,-92.5 163.01,-74.5 96.45,-74.5"/>
<text text-anchor="middle" x="129.73" y="-80.5" font-family="Helvetica,sans-Serif" font-size="10.00">Ogre::Hlms</text>
</a>
</g>
</g>
<!-- Node3 -->
<g id="node3" class="node">
<title>Node3</title>
<g id="a_node3"><a xlink:href="class_ogre_1_1_hlms_buffer_manager.html" target="_top" xlink:title="Managing constant and texture buffers for sending shader parameters is a very similar process to most...">
<polygon fill="none" stroke="black" points="199.01,-148.5 199.01,-166.5 331.54,-166.5 331.54,-148.5 199.01,-148.5"/>
<text text-anchor="middle" x="265.28" y="-154.5" font-family="Helvetica,sans-Serif" font-size="10.00">Ogre::HlmsBufferManager</text>
</a>
</g>
</g>
<!-- Node1&#45;&gt;Node3 -->
<g id="edge2" class="edge">
<title>Node1&#45;&gt;Node3</title>
<path fill="none" stroke="midnightblue" d="M146.87,-99.61C159.93,-111.84 179.34,-128.24 199.01,-138.5 206.75,-142.54 215.47,-145.83 223.96,-148.47"/>
<polygon fill="midnightblue" stroke="midnightblue" points="149.24,-97.03 139.61,-92.63 144.39,-102.08 149.24,-97.03"/>
</g>
<!-- Node6 -->
<g id="node6" class="node">
<title>Node6</title>
<g id="a_node6"><a xlink:href="class_ogre_1_1_hlms_compute.html" target="_top" xlink:title="HLMS implementation that handles compute shaders.">
<polygon fill="none" stroke="black" points="211.71,-111.5 211.71,-129.5 318.85,-129.5 318.85,-111.5 211.71,-111.5"/>
<text text-anchor="middle" x="265.28" y="-117.5" font-family="Helvetica,sans-Serif" font-size="10.00">Ogre::HlmsCompute</text>
</a>
</g>
</g>
<!-- Node1&#45;&gt;Node6 -->
<g id="edge5" class="edge">
<title>Node1&#45;&gt;Node6</title>
<path fill="none" stroke="midnightblue" d="M172.71,-95.13C191.78,-100.42 214.01,-106.57 231.78,-111.5"/>
<polygon fill="midnightblue" stroke="midnightblue" points="173.63,-91.75 163.06,-92.46 171.76,-98.5 173.63,-91.75"/>
</g>
<!-- Node7 -->
<g id="node7" class="node">
<title>Node7</title>
<g id="a_node7"><a xlink:href="class_ogre_1_1_hlms_low_level.html" target="_top" xlink:title="This is an HLMS implementation that acts as proxy to use the Material system from Ogre 1....">
<polygon fill="none" stroke="black" points="210.87,-74.5 210.87,-92.5 319.68,-92.5 319.68,-74.5 210.87,-74.5"/>
<text text-anchor="middle" x="265.28" y="-80.5" font-family="Helvetica,sans-Serif" font-size="10.00">Ogre::HlmsLowLevel</text>
</a>
</g>
</g>
<!-- Node1&#45;&gt;Node7 -->
<g id="edge6" class="edge">
<title>Node1&#45;&gt;Node7</title>
<path fill="none" stroke="midnightblue" d="M173.16,-83.5C185.07,-83.5 198.16,-83.5 210.63,-83.5"/>
<polygon fill="midnightblue" stroke="midnightblue" points="173.06,-80 163.06,-83.5 173.06,-87 173.06,-80"/>
</g>
<!-- Node8 -->
<g id="node8" class="node">
<title>Node8</title>
<g id="a_node8"><a xlink:href="class_ogre_1_1_hlms_pbs_mobile.html" target="_top" xlink:title="Physically based shading implementation specfically designed for OpenGL ES 2.0 and other RenderSystem...">
<polygon fill="none" stroke="black" points="208.65,-37.5 208.65,-55.5 321.9,-55.5 321.9,-37.5 208.65,-37.5"/>
<text text-anchor="middle" x="265.28" y="-43.5" font-family="Helvetica,sans-Serif" font-size="10.00">Ogre::HlmsPbsMobile</text>
</a>
</g>
</g>
<!-- Node1&#45;&gt;Node8 -->
<g id="edge7" class="edge">
<title>Node1&#45;&gt;Node8</title>
<path fill="none" stroke="midnightblue" d="M172.92,-71.74C181.55,-69.34 190.57,-66.84 199.01,-64.5 209.54,-61.58 221.04,-58.41 231.4,-55.55"/>
<polygon fill="midnightblue" stroke="midnightblue" points="171.72,-68.44 163.03,-74.5 173.6,-75.19 171.72,-68.44"/>
</g>
<!-- Node9 -->
<g id="node9" class="node">
<title>Node9</title>
<g id="a_node9"><a xlink:href="class_ogre_1_1_hlms_unlit_mobile.html" target="_top" xlink:title="User Interface (2D) implementation specfically designed for OpenGL ES 2.0 and other RenderSystems whi...">
<polygon fill="none" stroke="black" points="207.26,-0.5 207.26,-18.5 323.29,-18.5 323.29,-0.5 207.26,-0.5"/>
<text text-anchor="middle" x="265.28" y="-6.5" font-family="Helvetica,sans-Serif" font-size="10.00">Ogre::HlmsUnlitMobile</text>
</a>
</g>
</g>
<!-- Node1&#45;&gt;Node9 -->
<g id="edge8" class="edge">
<title>Node1&#45;&gt;Node9</title>
<path fill="none" stroke="midnightblue" d="M146.77,-67.01C159.79,-54.51 179.17,-37.78 199.01,-27.5 206,-23.88 213.81,-20.92 221.52,-18.52"/>
<polygon fill="midnightblue" stroke="midnightblue" points="144.2,-64.63 139.55,-74.15 149.12,-69.61 144.2,-64.63"/>
</g>
<!-- Node2 -->
<g id="node2" class="node">
<title>Node2</title>
<g id="a_node2"><a xlink:href="class_ogre_1_1_allocated_object.html" target="_top" xlink:title="Superclass for all objects that wish to use custom memory allocators when their new / delete operator...">
<polygon fill="none" stroke="black" points="0,-74.5 0,-92.5 60.45,-92.5 60.45,-74.5 0,-74.5"/>
<text text-anchor="middle" x="30.22" y="-80.5" font-family="Helvetica,sans-Serif" font-size="10.00">HlmsAlloc</text>
</a>
</g>
</g>
<!-- Node2&#45;&gt;Node1 -->
<g id="edge1" class="edge">
<title>Node2&#45;&gt;Node1</title>
<path fill="none" stroke="midnightblue" d="M70.65,-83.5C79.22,-83.5 88.18,-83.5 96.43,-83.5"/>
<polygon fill="midnightblue" stroke="midnightblue" points="70.48,-80 60.48,-83.5 70.48,-87 70.48,-80"/>
</g>
<!-- Node4 -->
<g id="node4" class="node">
<title>Node4</title>
<g id="a_node4"><a xlink:href="class_ogre_1_1_hlms_pbs.html" target="_top" xlink:title="Physically based shading implementation specfically designed for OpenGL 3+, D3D11 and other RenderSys...">
<polygon fill="none" stroke="black" points="368.93,-166.5 368.93,-184.5 452.72,-184.5 452.72,-166.5 368.93,-166.5"/>
<text text-anchor="middle" x="410.83" y="-172.5" font-family="Helvetica,sans-Serif" font-size="10.00">Ogre::HlmsPbs</text>
</a>
</g>
</g>
<!-- Node3&#45;&gt;Node4 -->
<g id="edge3" class="edge">
<title>Node3&#45;&gt;Node4</title>
<path fill="none" stroke="midnightblue" d="M341.79,-166.97C351.05,-168.13 360.21,-169.28 368.68,-170.34"/>
<polygon fill="midnightblue" stroke="midnightblue" points="342.11,-163.48 331.75,-165.71 341.24,-170.43 342.11,-163.48"/>
</g>
<!-- Node5 -->
<g id="node5" class="node">
<title>Node5</title>
<g id="a_node5"><a xlink:href="class_ogre_1_1_hlms_unlit.html" target="_top" xlink:title="Implementation without lighting or skeletal animation specfically designed for OpenGL 3+,...">
<polygon fill="none" stroke="black" points="367.54,-129.5 367.54,-147.5 454.11,-147.5 454.11,-129.5 367.54,-129.5"/>
<text text-anchor="middle" x="410.83" y="-135.5" font-family="Helvetica,sans-Serif" font-size="10.00">Ogre::HlmsUnlit</text>
</a>
</g>
</g>
<!-- Node3&#45;&gt;Node5 -->
<g id="edge4" class="edge">
<title>Node3&#45;&gt;Node5</title>
<path fill="none" stroke="midnightblue" d="M341.72,-147.51C350.55,-146.35 359.31,-145.19 367.46,-144.11"/>
<polygon fill="midnightblue" stroke="midnightblue" points="341.2,-144.05 331.75,-148.83 342.12,-150.99 341.2,-144.05"/>
</g>
</g>
</svg>
