<?xml version="1.0" encoding="UTF-8" standalone="no"?>
<!DOCTYPE svg PUBLIC "-//W3C//DTD SVG 1.1//EN"
 "http://www.w3.org/Graphics/SVG/1.1/DTD/svg11.dtd">
<!-- Generated by graphviz version 2.43.0 (0)
 -->
<!-- Title: Ogre::LodOutputProviderCompressedMesh Pages: 1 -->
<svg width="217pt" height="147pt"
 viewBox="0.00 0.00 216.87 147.00" xmlns="http://www.w3.org/2000/svg" xmlns:xlink="http://www.w3.org/1999/xlink">
<g id="graph0" class="graph" transform="scale(1 1) rotate(0) translate(4 143)">
<title>Ogre::LodOutputProviderCompressedMesh</title>
<!-- Node1 -->
<g id="node1" class="node">
<title>Node1</title>
<g id="a_node1"><a xlink:title=" ">
<polygon fill="#bfbfbf" stroke="black" points="0,-65.5 0,-83.5 208.87,-83.5 208.87,-65.5 0,-65.5"/>
<text text-anchor="middle" x="104.44" y="-71.5" font-family="Helvetica,sans-Serif" font-size="10.00">Ogre::LodOutputProviderCompressedMesh</text>
</a>
</g>
</g>
<!-- Node3 -->
<g id="node3" class="node">
<title>Node3</title>
<g id="a_node3"><a xlink:href="class_ogre_1_1_lod_output_provider_compressed_buffer.html" target="_top" xlink:title=" ">
<polygon fill="none" stroke="black" points="12.23,-0.5 12.23,-28.5 196.64,-28.5 196.64,-0.5 12.23,-0.5"/>
<text text-anchor="start" x="20.23" y="-16.5" font-family="Helvetica,sans-Serif" font-size="10.00">Ogre::LodOutputProviderCompressed</text>
<text text-anchor="middle" x="104.44" y="-6.5" font-family="Helvetica,sans-Serif" font-size="10.00">Buffer</text>
</a>
</g>
</g>
<!-- Node1&#45;&gt;Node3 -->
<g id="edge2" class="edge">
<title>Node1&#45;&gt;Node3</title>
<path fill="none" stroke="midnightblue" d="M104.44,-55.32C104.44,-46.75 104.44,-36.7 104.44,-28.84"/>
<polygon fill="midnightblue" stroke="midnightblue" points="100.94,-55.44 104.44,-65.44 107.94,-55.44 100.94,-55.44"/>
</g>
<!-- Node2 -->
<g id="node2" class="node">
<title>Node2</title>
<g id="a_node2"><a xlink:href="class_ogre_1_1_lod_output_provider.html" target="_top" xlink:title=" ">
<polygon fill="none" stroke="black" points="40.57,-120.5 40.57,-138.5 168.3,-138.5 168.3,-120.5 40.57,-120.5"/>
<text text-anchor="middle" x="104.44" y="-126.5" font-family="Helvetica,sans-Serif" font-size="10.00">Ogre::LodOutputProvider</text>
</a>
</g>
</g>
<!-- Node2&#45;&gt;Node1 -->
<g id="edge1" class="edge">
<title>Node2&#45;&gt;Node1</title>
<path fill="none" stroke="midnightblue" d="M104.44,-110.17C104.44,-101.09 104.44,-90.59 104.44,-83.55"/>
<polygon fill="midnightblue" stroke="midnightblue" points="100.94,-110.22 104.44,-120.22 107.94,-110.22 100.94,-110.22"/>
</g>
</g>
</svg>
