<?xml version="1.0" encoding="UTF-8" standalone="no"?>
<!DOCTYPE svg PUBLIC "-//W3C//DTD SVG 1.1//EN"
 "http://www.w3.org/Graphics/SVG/1.1/DTD/svg11.dtd">
<!-- Generated by graphviz version 2.43.0 (0)
 -->
<!-- Title: Ogre::BufferPacked Pages: 1 -->
<svg width="664pt" height="575pt"
 viewBox="0.00 0.00 663.78 575.00" xmlns="http://www.w3.org/2000/svg" xmlns:xlink="http://www.w3.org/1999/xlink">
<g id="graph0" class="graph" transform="scale(1 1) rotate(0) translate(4 571)">
<title>Ogre::BufferPacked</title>
<!-- Node1 -->
<g id="node1" class="node">
<title>Node1</title>
<g id="a_node1"><a xlink:title=" ">
<polygon fill="#bfbfbf" stroke="black" points="177.24,-245.5 177.24,-263.5 280.89,-263.5 280.89,-245.5 177.24,-245.5"/>
<text text-anchor="middle" x="229.07" y="-251.5" font-family="Helvetica,sans-Serif" font-size="10.00">Ogre::BufferPacked</text>
</a>
</g>
</g>
<!-- Node4 -->
<g id="node4" class="node">
<title>Node4</title>
<g id="a_node4"><a xlink:href="class_ogre_1_1_const_buffer_packed.html" target="_top" xlink:title="Represents constant buffers (also known as Uniform Buffers in GL)">
<polygon fill="none" stroke="black" points="320.23,-445.5 320.23,-463.5 450,-463.5 450,-445.5 320.23,-445.5"/>
<text text-anchor="middle" x="385.11" y="-451.5" font-family="Helvetica,sans-Serif" font-size="10.00">Ogre::ConstBufferPacked</text>
</a>
</g>
</g>
<!-- Node1&#45;&gt;Node4 -->
<g id="edge3" class="edge">
<title>Node1&#45;&gt;Node4</title>
<path fill="none" stroke="midnightblue" d="M243.19,-271.54C274.56,-312.27 353.08,-414.21 377.05,-445.33"/>
<polygon fill="midnightblue" stroke="midnightblue" points="245.96,-269.4 237.09,-263.61 240.42,-273.67 245.96,-269.4"/>
</g>
<!-- Node10 -->
<g id="node10" class="node">
<title>Node10</title>
<g id="a_node10"><a xlink:href="class_ogre_1_1_index_buffer_packed.html" target="_top" xlink:title=" ">
<polygon fill="none" stroke="black" points="321.06,-301.5 321.06,-319.5 449.17,-319.5 449.17,-301.5 321.06,-301.5"/>
<text text-anchor="middle" x="385.11" y="-307.5" font-family="Helvetica,sans-Serif" font-size="10.00">Ogre::IndexBufferPacked</text>
</a>
</g>
</g>
<!-- Node1&#45;&gt;Node10 -->
<g id="edge9" class="edge">
<title>Node1&#45;&gt;Node10</title>
<path fill="none" stroke="midnightblue" d="M257.96,-267.99C274.78,-275.8 296.77,-285.45 316.89,-292.5 326.35,-295.82 336.75,-298.87 346.47,-301.49"/>
<polygon fill="midnightblue" stroke="midnightblue" points="259.25,-264.73 248.71,-263.64 256.27,-271.06 259.25,-264.73"/>
</g>
<!-- Node11 -->
<g id="node11" class="node">
<title>Node11</title>
<g id="a_node11"><a xlink:href="class_ogre_1_1_indirect_buffer_packed.html" target="_top" xlink:title="Represents Indirect buffers for storing draw call commands.">
<polygon fill="none" stroke="black" points="316.89,-264.5 316.89,-282.5 453.33,-282.5 453.33,-264.5 316.89,-264.5"/>
<text text-anchor="middle" x="385.11" y="-270.5" font-family="Helvetica,sans-Serif" font-size="10.00">Ogre::IndirectBufferPacked</text>
</a>
</g>
</g>
<!-- Node1&#45;&gt;Node11 -->
<g id="edge10" class="edge">
<title>Node1&#45;&gt;Node11</title>
<path fill="none" stroke="midnightblue" d="M291.08,-262.03C299.53,-263.07 308.25,-264.14 316.81,-265.2"/>
<polygon fill="midnightblue" stroke="midnightblue" points="291.29,-258.52 280.93,-260.77 290.43,-265.47 291.29,-258.52"/>
</g>
<!-- Node12 -->
<g id="node12" class="node">
<title>Node12</title>
<g id="a_node12"><a xlink:href="class_ogre_1_1_tex_buffer_packed.html" target="_top" xlink:title="Represents Texture buffers (also known as tbuffers in D3D11)">
<polygon fill="none" stroke="black" points="325.51,-227.5 325.51,-245.5 444.71,-245.5 444.71,-227.5 325.51,-227.5"/>
<text text-anchor="middle" x="385.11" y="-233.5" font-family="Helvetica,sans-Serif" font-size="10.00">Ogre::TexBufferPacked</text>
</a>
</g>
</g>
<!-- Node1&#45;&gt;Node12 -->
<g id="edge11" class="edge">
<title>Node1&#45;&gt;Node12</title>
<path fill="none" stroke="midnightblue" d="M291.11,-247.37C302.37,-246.05 314.1,-244.68 325.29,-243.37"/>
<polygon fill="midnightblue" stroke="midnightblue" points="290.46,-243.92 280.93,-248.56 291.27,-250.87 290.46,-243.92"/>
</g>
<!-- Node19 -->
<g id="node19" class="node">
<title>Node19</title>
<g id="a_node19"><a xlink:href="class_ogre_1_1_uav_buffer_packed.html" target="_top" xlink:title="Represents UAV buffers (also known as SSBOs in OpenGL) Uav buffers are supported in DX10/DX10....">
<polygon fill="none" stroke="black" points="324.4,-93.5 324.4,-111.5 445.83,-111.5 445.83,-93.5 324.4,-93.5"/>
<text text-anchor="middle" x="385.11" y="-99.5" font-family="Helvetica,sans-Serif" font-size="10.00">Ogre::UavBufferPacked</text>
</a>
</g>
</g>
<!-- Node1&#45;&gt;Node19 -->
<g id="edge18" class="edge">
<title>Node1&#45;&gt;Node19</title>
<path fill="none" stroke="midnightblue" d="M246.57,-238.21C278.86,-206.36 349.42,-136.73 374.79,-111.7"/>
<polygon fill="midnightblue" stroke="midnightblue" points="243.9,-235.93 239.24,-245.45 248.82,-240.91 243.9,-235.93"/>
</g>
<!-- Node24 -->
<g id="node24" class="node">
<title>Node24</title>
<g id="a_node24"><a xlink:href="class_ogre_1_1_vertex_buffer_packed.html" target="_top" xlink:title=" ">
<polygon fill="none" stroke="black" points="319.11,-56.5 319.11,-74.5 451.11,-74.5 451.11,-56.5 319.11,-56.5"/>
<text text-anchor="middle" x="385.11" y="-62.5" font-family="Helvetica,sans-Serif" font-size="10.00">Ogre::VertexBufferPacked</text>
</a>
</g>
</g>
<!-- Node1&#45;&gt;Node24 -->
<g id="edge23" class="edge">
<title>Node1&#45;&gt;Node24</title>
<path fill="none" stroke="midnightblue" d="M234.3,-235.44C243.18,-199.98 267.18,-123.8 316.89,-83.5 321.39,-79.85 326.57,-76.93 332.01,-74.61"/>
<polygon fill="midnightblue" stroke="midnightblue" points="230.83,-234.89 231.93,-245.43 237.64,-236.5 230.83,-234.89"/>
</g>
<!-- Node2 -->
<g id="node2" class="node">
<title>Node2</title>
<g id="a_node2"><a xlink:href="struct_ogre_1_1_gpu_tracked_resource.html" target="_top" xlink:title=" ">
<polygon fill="none" stroke="black" points="0,-264.5 0,-282.5 141.24,-282.5 141.24,-264.5 0,-264.5"/>
<text text-anchor="middle" x="70.62" y="-270.5" font-family="Helvetica,sans-Serif" font-size="10.00">Ogre::GpuTrackedResource</text>
</a>
</g>
</g>
<!-- Node2&#45;&gt;Node1 -->
<g id="edge1" class="edge">
<title>Node2&#45;&gt;Node1</title>
<path fill="none" stroke="midnightblue" d="M151.67,-263.78C160.24,-262.74 168.79,-261.7 176.9,-260.71"/>
<polygon fill="midnightblue" stroke="midnightblue" points="151.11,-260.32 141.61,-265 151.96,-267.27 151.11,-260.32"/>
</g>
<!-- Node3 -->
<g id="node3" class="node">
<title>Node3</title>
<g id="a_node3"><a xlink:href="class_ogre_1_1_allocated_object.html" target="_top" xlink:title="Superclass for all objects that wish to use custom memory allocators when their new / delete operator...">
<polygon fill="none" stroke="black" points="21.86,-227.5 21.86,-245.5 119.39,-245.5 119.39,-227.5 21.86,-227.5"/>
<text text-anchor="middle" x="70.62" y="-233.5" font-family="Helvetica,sans-Serif" font-size="10.00">BufferPackedAlloc</text>
</a>
</g>
</g>
<!-- Node3&#45;&gt;Node1 -->
<g id="edge2" class="edge">
<title>Node3&#45;&gt;Node1</title>
<path fill="none" stroke="midnightblue" d="M129.47,-243.16C145.07,-244.95 161.84,-246.88 177.04,-248.63"/>
<polygon fill="midnightblue" stroke="midnightblue" points="129.75,-239.66 119.41,-242 128.95,-246.62 129.75,-239.66"/>
</g>
<!-- Node5 -->
<g id="node5" class="node">
<title>Node5</title>
<g id="a_node5"><a xlink:href="class_ogre_1_1_d3_d11_const_buffer_packed.html" target="_top" xlink:title=" ">
<polygon fill="none" stroke="black" points="492.48,-548.5 492.48,-566.5 652.64,-566.5 652.64,-548.5 492.48,-548.5"/>
<text text-anchor="middle" x="572.56" y="-554.5" font-family="Helvetica,sans-Serif" font-size="10.00">Ogre::D3D11ConstBufferPacked</text>
</a>
</g>
</g>
<!-- Node4&#45;&gt;Node5 -->
<g id="edge4" class="edge">
<title>Node4&#45;&gt;Node5</title>
<path fill="none" stroke="midnightblue" d="M401.29,-471.08C420.06,-490.52 453.88,-522.28 489.33,-539.5 496.95,-543.2 505.34,-546.15 513.76,-548.5"/>
<polygon fill="midnightblue" stroke="midnightblue" points="403.62,-468.45 394.21,-463.58 398.53,-473.25 403.62,-468.45"/>
</g>
<!-- Node6 -->
<g id="node6" class="node">
<title>Node6</title>
<g id="a_node6"><a xlink:href="class_ogre_1_1_g_l3_plus_const_buffer_packed.html" target="_top" xlink:title=" ">
<polygon fill="none" stroke="black" points="505.17,-501.5 505.17,-529.5 639.94,-529.5 639.94,-501.5 505.17,-501.5"/>
<text text-anchor="start" x="513.17" y="-517.5" font-family="Helvetica,sans-Serif" font-size="10.00">Ogre::GL3PlusConstBuffer</text>
<text text-anchor="middle" x="572.56" y="-507.5" font-family="Helvetica,sans-Serif" font-size="10.00">Packed</text>
</a>
</g>
</g>
<!-- Node4&#45;&gt;Node6 -->
<g id="edge5" class="edge">
<title>Node4&#45;&gt;Node6</title>
<path fill="none" stroke="midnightblue" d="M418.66,-467.24C438.86,-474.96 465.44,-484.77 489.33,-492.5 498.78,-495.56 508.92,-498.59 518.73,-501.4"/>
<polygon fill="midnightblue" stroke="midnightblue" points="419.88,-463.96 409.29,-463.64 417.37,-470.5 419.88,-463.96"/>
</g>
<!-- Node7 -->
<g id="node7" class="node">
<title>Node7</title>
<g id="a_node7"><a xlink:href="class_ogre_1_1_g_l_e_s2_const_buffer_packed.html" target="_top" xlink:title=" ">
<polygon fill="none" stroke="black" points="491.55,-464.5 491.55,-482.5 653.56,-482.5 653.56,-464.5 491.55,-464.5"/>
<text text-anchor="middle" x="572.56" y="-470.5" font-family="Helvetica,sans-Serif" font-size="10.00">Ogre::GLES2ConstBufferPacked</text>
</a>
</g>
</g>
<!-- Node4&#45;&gt;Node7 -->
<g id="edge6" class="edge">
<title>Node4&#45;&gt;Node7</title>
<path fill="none" stroke="midnightblue" d="M460.31,-462.1C470.55,-463.15 481.1,-464.23 491.44,-465.29"/>
<polygon fill="midnightblue" stroke="midnightblue" points="460.49,-458.6 450.19,-461.07 459.78,-465.57 460.49,-458.6"/>
</g>
<!-- Node8 -->
<g id="node8" class="node">
<title>Node8</title>
<g id="a_node8"><a xlink:href="class_ogre_1_1_metal_const_buffer_packed.html" target="_top" xlink:title=" ">
<polygon fill="none" stroke="black" points="495.45,-427.5 495.45,-445.5 649.67,-445.5 649.67,-427.5 495.45,-427.5"/>
<text text-anchor="middle" x="572.56" y="-433.5" font-family="Helvetica,sans-Serif" font-size="10.00">Ogre::MetalConstBufferPacked</text>
</a>
</g>
</g>
<!-- Node4&#45;&gt;Node8 -->
<g id="edge7" class="edge">
<title>Node4&#45;&gt;Node8</title>
<path fill="none" stroke="midnightblue" d="M460.22,-447.31C471.78,-446.18 483.74,-445.02 495.34,-443.9"/>
<polygon fill="midnightblue" stroke="midnightblue" points="459.81,-443.83 450.19,-448.28 460.48,-450.8 459.81,-443.83"/>
</g>
<!-- Node9 -->
<g id="node9" class="node">
<title>Node9</title>
<g id="a_node9"><a xlink:href="class_ogre_1_1_n_u_l_l_const_buffer_packed.html" target="_top" xlink:title=" ">
<polygon fill="none" stroke="black" points="494.89,-390.5 494.89,-408.5 650.23,-408.5 650.23,-390.5 494.89,-390.5"/>
<text text-anchor="middle" x="572.56" y="-396.5" font-family="Helvetica,sans-Serif" font-size="10.00">Ogre::NULLConstBufferPacked</text>
</a>
</g>
</g>
<!-- Node4&#45;&gt;Node9 -->
<g id="edge8" class="edge">
<title>Node4&#45;&gt;Node9</title>
<path fill="none" stroke="midnightblue" d="M419.27,-441.91C439.37,-434.53 465.62,-425.35 489.33,-418.5 501.86,-414.88 515.61,-411.48 528.23,-408.59"/>
<polygon fill="midnightblue" stroke="midnightblue" points="417.81,-438.71 409.65,-445.47 420.25,-445.28 417.81,-438.71"/>
</g>
<!-- Node13 -->
<g id="node13" class="node">
<title>Node13</title>
<g id="a_node13"><a xlink:href="class_ogre_1_1_d3_d11_tex_buffer_packed.html" target="_top" xlink:title=" ">
<polygon fill="none" stroke="black" points="497.76,-353.5 497.76,-371.5 647.36,-371.5 647.36,-353.5 497.76,-353.5"/>
<text text-anchor="middle" x="572.56" y="-359.5" font-family="Helvetica,sans-Serif" font-size="10.00">Ogre::D3D11TexBufferPacked</text>
</a>
</g>
</g>
<!-- Node12&#45;&gt;Node13 -->
<g id="edge12" class="edge">
<title>Node12&#45;&gt;Node13</title>
<path fill="none" stroke="midnightblue" d="M446.85,-250.58C449.14,-252.06 451.32,-253.69 453.33,-255.5 485.1,-283.98 456.72,-316.98 489.33,-344.5 493.57,-348.08 498.37,-351 503.46,-353.36"/>
<polygon fill="midnightblue" stroke="midnightblue" points="448,-247.22 437.53,-245.6 444.7,-253.4 448,-247.22"/>
</g>
<!-- Node14 -->
<g id="node14" class="node">
<title>Node14</title>
<g id="a_node14"><a xlink:href="class_ogre_1_1_g_l3_plus_tex_buffer_emulated_packed.html" target="_top" xlink:title=" ">
<polygon fill="none" stroke="black" points="489.33,-306.5 489.33,-334.5 655.78,-334.5 655.78,-306.5 489.33,-306.5"/>
<text text-anchor="start" x="497.33" y="-322.5" font-family="Helvetica,sans-Serif" font-size="10.00">Ogre::GL3PlusTexBufferEmulated</text>
<text text-anchor="middle" x="572.56" y="-312.5" font-family="Helvetica,sans-Serif" font-size="10.00">Packed</text>
</a>
</g>
</g>
<!-- Node12&#45;&gt;Node14 -->
<g id="edge13" class="edge">
<title>Node12&#45;&gt;Node14</title>
<path fill="none" stroke="midnightblue" d="M441.76,-249.35C445.8,-251.15 449.71,-253.19 453.33,-255.5 474.04,-268.74 468.6,-284.29 489.33,-297.5 494.71,-300.93 500.59,-303.85 506.67,-306.34"/>
<polygon fill="midnightblue" stroke="midnightblue" points="442.73,-245.98 432.14,-245.6 440.19,-252.5 442.73,-245.98"/>
</g>
<!-- Node15 -->
<g id="node15" class="node">
<title>Node15</title>
<g id="a_node15"><a xlink:href="class_ogre_1_1_g_l3_plus_tex_buffer_packed.html" target="_top" xlink:title=" ">
<polygon fill="none" stroke="black" points="493.78,-269.5 493.78,-287.5 651.34,-287.5 651.34,-269.5 493.78,-269.5"/>
<text text-anchor="middle" x="572.56" y="-275.5" font-family="Helvetica,sans-Serif" font-size="10.00">Ogre::GL3PlusTexBufferPacked</text>
</a>
</g>
</g>
<!-- Node12&#45;&gt;Node15 -->
<g id="edge14" class="edge">
<title>Node12&#45;&gt;Node15</title>
<path fill="none" stroke="midnightblue" d="M434.23,-247.82C451.58,-251.87 471.33,-256.44 489.33,-260.5 502.44,-263.46 516.75,-266.62 529.7,-269.45"/>
<polygon fill="midnightblue" stroke="midnightblue" points="434.85,-244.38 424.32,-245.51 433.26,-251.19 434.85,-244.38"/>
</g>
<!-- Node16 -->
<g id="node16" class="node">
<title>Node16</title>
<g id="a_node16"><a xlink:href="class_ogre_1_1_g_l_e_s2_tex_buffer_emulated_packed.html" target="_top" xlink:title=" ">
<polygon fill="none" stroke="black" points="492.39,-222.5 492.39,-250.5 652.73,-250.5 652.73,-222.5 492.39,-222.5"/>
<text text-anchor="start" x="500.39" y="-238.5" font-family="Helvetica,sans-Serif" font-size="10.00">Ogre::GLES2TexBufferEmulated</text>
<text text-anchor="middle" x="572.56" y="-228.5" font-family="Helvetica,sans-Serif" font-size="10.00">Packed</text>
</a>
</g>
</g>
<!-- Node12&#45;&gt;Node16 -->
<g id="edge15" class="edge">
<title>Node12&#45;&gt;Node16</title>
<path fill="none" stroke="midnightblue" d="M454.86,-236.5C467.03,-236.5 479.8,-236.5 492.24,-236.5"/>
<polygon fill="midnightblue" stroke="midnightblue" points="454.79,-233 444.79,-236.5 454.79,-240 454.79,-233"/>
</g>
<!-- Node17 -->
<g id="node17" class="node">
<title>Node17</title>
<g id="a_node17"><a xlink:href="class_ogre_1_1_metal_tex_buffer_packed.html" target="_top" xlink:title=" ">
<polygon fill="none" stroke="black" points="500.73,-185.5 500.73,-203.5 644.39,-203.5 644.39,-185.5 500.73,-185.5"/>
<text text-anchor="middle" x="572.56" y="-191.5" font-family="Helvetica,sans-Serif" font-size="10.00">Ogre::MetalTexBufferPacked</text>
</a>
</g>
</g>
<!-- Node12&#45;&gt;Node17 -->
<g id="edge16" class="edge">
<title>Node12&#45;&gt;Node17</title>
<path fill="none" stroke="midnightblue" d="M434.23,-225.18C451.58,-221.13 471.33,-216.56 489.33,-212.5 502.44,-209.54 516.75,-206.38 529.7,-203.55"/>
<polygon fill="midnightblue" stroke="midnightblue" points="433.26,-221.81 424.32,-227.49 434.85,-228.62 433.26,-221.81"/>
</g>
<!-- Node18 -->
<g id="node18" class="node">
<title>Node18</title>
<g id="a_node18"><a xlink:href="class_ogre_1_1_n_u_l_l_tex_buffer_packed.html" target="_top" xlink:title=" ">
<polygon fill="none" stroke="black" points="500.54,-148.5 500.54,-166.5 644.58,-166.5 644.58,-148.5 500.54,-148.5"/>
<text text-anchor="middle" x="572.56" y="-154.5" font-family="Helvetica,sans-Serif" font-size="10.00">Ogre::NULLTexBufferPacked</text>
</a>
</g>
</g>
<!-- Node12&#45;&gt;Node18 -->
<g id="edge17" class="edge">
<title>Node12&#45;&gt;Node18</title>
<path fill="none" stroke="midnightblue" d="M406.85,-221.54C427,-207.68 458.92,-187.46 489.33,-175.5 498.44,-171.92 508.42,-168.98 518.18,-166.59"/>
<polygon fill="midnightblue" stroke="midnightblue" points="404.65,-218.81 398.47,-227.41 408.67,-224.54 404.65,-218.81"/>
</g>
<!-- Node20 -->
<g id="node20" class="node">
<title>Node20</title>
<g id="a_node20"><a xlink:href="class_ogre_1_1_d3_d11_uav_buffer_packed.html" target="_top" xlink:title=" ">
<polygon fill="none" stroke="black" points="496.65,-111.5 496.65,-129.5 648.47,-129.5 648.47,-111.5 496.65,-111.5"/>
<text text-anchor="middle" x="572.56" y="-117.5" font-family="Helvetica,sans-Serif" font-size="10.00">Ogre::D3D11UavBufferPacked</text>
</a>
</g>
</g>
<!-- Node19&#45;&gt;Node20 -->
<g id="edge19" class="edge">
<title>Node19&#45;&gt;Node20</title>
<path fill="none" stroke="midnightblue" d="M456.03,-109.29C469.26,-110.57 483.15,-111.92 496.53,-113.22"/>
<polygon fill="midnightblue" stroke="midnightblue" points="456.35,-105.8 446.06,-108.32 455.68,-112.77 456.35,-105.8"/>
</g>
<!-- Node21 -->
<g id="node21" class="node">
<title>Node21</title>
<g id="a_node21"><a xlink:href="class_ogre_1_1_g_l3_plus_uav_buffer_packed.html" target="_top" xlink:title=" ">
<polygon fill="none" stroke="black" points="492.67,-74.5 492.67,-92.5 652.45,-92.5 652.45,-74.5 492.67,-74.5"/>
<text text-anchor="middle" x="572.56" y="-80.5" font-family="Helvetica,sans-Serif" font-size="10.00">Ogre::GL3PlusUavBufferPacked</text>
</a>
</g>
</g>
<!-- Node19&#45;&gt;Node21 -->
<g id="edge20" class="edge">
<title>Node19&#45;&gt;Node21</title>
<path fill="none" stroke="midnightblue" d="M456.31,-95.31C468.15,-94.1 480.5,-92.83 492.54,-91.6"/>
<polygon fill="midnightblue" stroke="midnightblue" points="455.65,-91.86 446.06,-96.36 456.37,-98.82 455.65,-91.86"/>
</g>
<!-- Node22 -->
<g id="node22" class="node">
<title>Node22</title>
<g id="a_node22"><a xlink:href="class_ogre_1_1_metal_uav_buffer_packed.html" target="_top" xlink:title=" ">
<polygon fill="none" stroke="black" points="499.62,-37.5 499.62,-55.5 645.5,-55.5 645.5,-37.5 499.62,-37.5"/>
<text text-anchor="middle" x="572.56" y="-43.5" font-family="Helvetica,sans-Serif" font-size="10.00">Ogre::MetalUavBufferPacked</text>
</a>
</g>
</g>
<!-- Node19&#45;&gt;Node22 -->
<g id="edge21" class="edge">
<title>Node19&#45;&gt;Node22</title>
<path fill="none" stroke="midnightblue" d="M433.38,-90.5C440.16,-88.39 446.98,-86.04 453.33,-83.5 470.13,-76.78 472.34,-70.71 489.33,-64.5 499.07,-60.94 509.74,-57.97 520.06,-55.53"/>
<polygon fill="midnightblue" stroke="midnightblue" points="432.15,-87.21 423.56,-93.42 434.14,-93.92 432.15,-87.21"/>
</g>
<!-- Node23 -->
<g id="node23" class="node">
<title>Node23</title>
<g id="a_node23"><a xlink:href="class_ogre_1_1_n_u_l_l_uav_buffer_packed.html" target="_top" xlink:title=" ">
<polygon fill="none" stroke="black" points="499.06,-0.5 499.06,-18.5 646.06,-18.5 646.06,-0.5 499.06,-0.5"/>
<text text-anchor="middle" x="572.56" y="-6.5" font-family="Helvetica,sans-Serif" font-size="10.00">Ogre::NULLUavBufferPacked</text>
</a>
</g>
</g>
<!-- Node19&#45;&gt;Node23 -->
<g id="edge22" class="edge">
<title>Node19&#45;&gt;Node23</title>
<path fill="none" stroke="midnightblue" d="M443.67,-89.42C447.07,-87.69 450.33,-85.72 453.33,-83.5 477.11,-65.89 465.04,-44.39 489.33,-27.5 494.61,-23.83 500.5,-20.89 506.64,-18.54"/>
<polygon fill="midnightblue" stroke="midnightblue" points="442.15,-86.27 434.4,-93.5 444.96,-92.68 442.15,-86.27"/>
</g>
</g>
</svg>
