<?xml version="1.0" encoding="UTF-8" standalone="no"?>
<!DOCTYPE svg PUBLIC "-//W3C//DTD SVG 1.1//EN"
 "http://www.w3.org/Graphics/SVG/1.1/DTD/svg11.dtd">
<!-- Generated by graphviz version 2.43.0 (0)
 -->
<!-- Title: Ogre::AbsolutePixelCountLodStrategy Pages: 1 -->
<svg width="328pt" height="212pt"
 viewBox="0.00 0.00 327.67 212.00" xmlns="http://www.w3.org/2000/svg" xmlns:xlink="http://www.w3.org/1999/xlink">
<g id="graph0" class="graph" transform="scale(1 1) rotate(0) translate(4 208)">
<title>Ogre::AbsolutePixelCountLodStrategy</title>
<!-- Node1 -->
<g id="node1" class="node">
<title>Node1</title>
<g id="a_node1"><a xlink:title=" ">
<polygon fill="#bfbfbf" stroke="black" points="102.9,-0.5 102.9,-28.5 233.96,-28.5 233.96,-0.5 102.9,-0.5"/>
<text text-anchor="start" x="110.9" y="-16.5" font-family="Helvetica,sans-Serif" font-size="10.00">Ogre::AbsolutePixelCount</text>
<text text-anchor="middle" x="168.43" y="-6.5" font-family="Helvetica,sans-Serif" font-size="10.00">LodStrategy</text>
</a>
</g>
</g>
<!-- Node2 -->
<g id="node2" class="node">
<title>Node2</title>
<g id="a_node2"><a xlink:href="class_ogre_1_1_pixel_count_lod_strategy_base.html" target="_top" xlink:title="Abstract base class for level of detail strategy based on pixel count approximations from bounding sp...">
<polygon fill="none" stroke="black" points="0,-70.5 0,-88.5 168.87,-88.5 168.87,-70.5 0,-70.5"/>
<text text-anchor="middle" x="84.43" y="-76.5" font-family="Helvetica,sans-Serif" font-size="10.00">Ogre::PixelCountLodStrategyBase</text>
</a>
</g>
</g>
<!-- Node2&#45;&gt;Node1 -->
<g id="edge1" class="edge">
<title>Node2&#45;&gt;Node1</title>
<path fill="none" stroke="midnightblue" d="M103.55,-64.16C117.82,-53.46 137.17,-38.95 151.02,-28.56"/>
<polygon fill="midnightblue" stroke="midnightblue" points="101.31,-61.46 95.41,-70.26 105.51,-67.06 101.31,-61.46"/>
</g>
<!-- Node3 -->
<g id="node3" class="node">
<title>Node3</title>
<g id="a_node3"><a xlink:href="class_ogre_1_1_lod_strategy.html" target="_top" xlink:title="Strategy for determining level of detail.">
<polygon fill="none" stroke="black" points="35.58,-130.5 35.58,-148.5 133.29,-148.5 133.29,-130.5 35.58,-130.5"/>
<text text-anchor="middle" x="84.43" y="-136.5" font-family="Helvetica,sans-Serif" font-size="10.00">Ogre::LodStrategy</text>
</a>
</g>
</g>
<!-- Node3&#45;&gt;Node2 -->
<g id="edge2" class="edge">
<title>Node3&#45;&gt;Node2</title>
<path fill="none" stroke="midnightblue" d="M84.43,-120.21C84.43,-109.71 84.43,-97.03 84.43,-88.87"/>
<polygon fill="midnightblue" stroke="midnightblue" points="80.93,-120.44 84.43,-130.44 87.93,-120.44 80.93,-120.44"/>
</g>
<!-- Node4 -->
<g id="node4" class="node">
<title>Node4</title>
<g id="a_node4"><a xlink:href="class_ogre_1_1_allocated_object.html" target="_top" xlink:title="Superclass for all objects that wish to use custom memory allocators when their new / delete operator...">
<polygon fill="none" stroke="black" points="57.25,-185.5 57.25,-203.5 111.61,-203.5 111.61,-185.5 57.25,-185.5"/>
<text text-anchor="middle" x="84.43" y="-191.5" font-family="Helvetica,sans-Serif" font-size="10.00">LodAlloc</text>
</a>
</g>
</g>
<!-- Node4&#45;&gt;Node3 -->
<g id="edge3" class="edge">
<title>Node4&#45;&gt;Node3</title>
<path fill="none" stroke="midnightblue" d="M84.43,-175.17C84.43,-166.09 84.43,-155.59 84.43,-148.55"/>
<polygon fill="midnightblue" stroke="midnightblue" points="80.93,-175.22 84.43,-185.22 87.93,-175.22 80.93,-175.22"/>
</g>
<!-- Node5 -->
<g id="node5" class="node">
<title>Node5</title>
<g id="a_node5"><a xlink:href="class_ogre_1_1_singleton.html" target="_top" xlink:title=" ">
<polygon fill="none" stroke="black" points="187.2,-65.5 187.2,-93.5 319.67,-93.5 319.67,-65.5 187.2,-65.5"/>
<text text-anchor="start" x="195.2" y="-81.5" font-family="Helvetica,sans-Serif" font-size="10.00">Ogre::Singleton&lt; Absolute</text>
<text text-anchor="middle" x="253.43" y="-71.5" font-family="Helvetica,sans-Serif" font-size="10.00">PixelCountLodStrategy &gt;</text>
</a>
</g>
</g>
<!-- Node5&#45;&gt;Node1 -->
<g id="edge4" class="edge">
<title>Node5&#45;&gt;Node1</title>
<path fill="none" stroke="midnightblue" d="M227.44,-59.24C214.01,-49.28 197.98,-37.4 186.02,-28.54"/>
<polygon fill="midnightblue" stroke="midnightblue" points="225.7,-62.3 235.82,-65.45 229.87,-56.68 225.7,-62.3"/>
</g>
</g>
</svg>
