<?xml version="1.0" encoding="UTF-8" standalone="no"?>
<!DOCTYPE svg PUBLIC "-//W3C//DTD SVG 1.1//EN"
 "http://www.w3.org/Graphics/SVG/1.1/DTD/svg11.dtd">
<!-- Generated by graphviz version 2.43.0 (0)
 -->
<!-- Title: Ogre::GL3PlusContext Pages: 1 -->
<svg width="356pt" height="82pt"
 viewBox="0.00 0.00 355.88 82.00" xmlns="http://www.w3.org/2000/svg" xmlns:xlink="http://www.w3.org/1999/xlink">
<g id="graph0" class="graph" transform="scale(1 1) rotate(0) translate(4 78)">
<title>Ogre::GL3PlusContext</title>
<!-- Node1 -->
<g id="node1" class="node">
<title>Node1</title>
<g id="a_node1"><a xlink:title="Class that encapsulates an GL context.">
<polygon fill="#bfbfbf" stroke="black" points="116.28,-55.5 116.28,-73.5 232.88,-73.5 232.88,-55.5 116.28,-55.5"/>
<text text-anchor="middle" x="174.58" y="-61.5" font-family="Helvetica,sans-Serif" font-size="10.00">Ogre::GL3PlusContext</text>
</a>
</g>
</g>
<!-- Node2 -->
<g id="node2" class="node">
<title>Node2</title>
<g id="a_node2"><a xlink:href="class_ogre_1_1_cocoa_context.html" target="_top" xlink:title=" ">
<polygon fill="none" stroke="black" points="0,-0.5 0,-18.5 107.16,-18.5 107.16,-0.5 0,-0.5"/>
<text text-anchor="middle" x="53.58" y="-6.5" font-family="Helvetica,sans-Serif" font-size="10.00">Ogre::CocoaContext</text>
</a>
</g>
</g>
<!-- Node1&#45;&gt;Node2 -->
<g id="edge1" class="edge">
<title>Node1&#45;&gt;Node2</title>
<path fill="none" stroke="midnightblue" d="M147,-51.42C124.08,-41.38 92.1,-27.37 72.13,-18.63"/>
<polygon fill="midnightblue" stroke="midnightblue" points="145.64,-54.64 156.2,-55.45 148.45,-48.23 145.64,-54.64"/>
</g>
<!-- Node3 -->
<g id="node3" class="node">
<title>Node3</title>
<g id="a_node3"><a xlink:href="class_ogre_1_1_g_l_x_context.html" target="_top" xlink:title=" ">
<polygon fill="none" stroke="black" points="125.45,-0.5 125.45,-18.5 223.71,-18.5 223.71,-0.5 125.45,-0.5"/>
<text text-anchor="middle" x="174.58" y="-6.5" font-family="Helvetica,sans-Serif" font-size="10.00">Ogre::GLXContext</text>
</a>
</g>
</g>
<!-- Node1&#45;&gt;Node3 -->
<g id="edge2" class="edge">
<title>Node1&#45;&gt;Node3</title>
<path fill="none" stroke="midnightblue" d="M174.58,-45.17C174.58,-36.09 174.58,-25.59 174.58,-18.55"/>
<polygon fill="midnightblue" stroke="midnightblue" points="171.08,-45.22 174.58,-55.22 178.08,-45.22 171.08,-45.22"/>
</g>
<!-- Node4 -->
<g id="node4" class="node">
<title>Node4</title>
<g id="a_node4"><a xlink:href="class_ogre_1_1_win32_context.html" target="_top" xlink:title=" ">
<polygon fill="none" stroke="black" points="241.28,-0.5 241.28,-18.5 347.88,-18.5 347.88,-0.5 241.28,-0.5"/>
<text text-anchor="middle" x="294.58" y="-6.5" font-family="Helvetica,sans-Serif" font-size="10.00">Ogre::Win32Context</text>
</a>
</g>
</g>
<!-- Node1&#45;&gt;Node4 -->
<g id="edge3" class="edge">
<title>Node1&#45;&gt;Node4</title>
<path fill="none" stroke="midnightblue" d="M202.24,-51.28C224.95,-41.25 256.47,-27.33 276.18,-18.63"/>
<polygon fill="midnightblue" stroke="midnightblue" points="200.54,-48.21 192.8,-55.45 203.37,-54.61 200.54,-48.21"/>
</g>
</g>
</svg>
