<?xml version="1.0" encoding="UTF-8" standalone="no"?>
<!DOCTYPE svg PUBLIC "-//W3C//DTD SVG 1.1//EN"
 "http://www.w3.org/Graphics/SVG/1.1/DTD/svg11.dtd">
<!-- Generated by graphviz version 2.43.0 (0)
 -->
<!-- Title: Ogre::D3D11RenderWindowSwapChainBased Pages: 1 -->
<svg width="366pt" height="257pt"
 viewBox="0.00 0.00 366.39 257.00" xmlns="http://www.w3.org/2000/svg" xmlns:xlink="http://www.w3.org/1999/xlink">
<g id="graph0" class="graph" transform="scale(1 1) rotate(0) translate(4 253)">
<title>Ogre::D3D11RenderWindowSwapChainBased</title>
<!-- Node1 -->
<g id="node1" class="node">
<title>Node1</title>
<g id="a_node1"><a xlink:title=" ">
<polygon fill="#bfbfbf" stroke="black" points="126.84,-0.5 126.84,-28.5 294.4,-28.5 294.4,-0.5 126.84,-0.5"/>
<text text-anchor="start" x="134.84" y="-16.5" font-family="Helvetica,sans-Serif" font-size="10.00">Ogre::D3D11RenderWindowSwap</text>
<text text-anchor="middle" x="210.62" y="-6.5" font-family="Helvetica,sans-Serif" font-size="10.00">ChainBased</text>
</a>
</g>
</g>
<!-- Node2 -->
<g id="node2" class="node">
<title>Node2</title>
<g id="a_node2"><a xlink:href="class_ogre_1_1_d3_d11_render_window_base.html" target="_top" xlink:title=" ">
<polygon fill="none" stroke="black" points="127.95,-65.5 127.95,-83.5 293.29,-83.5 293.29,-65.5 127.95,-65.5"/>
<text text-anchor="middle" x="210.62" y="-71.5" font-family="Helvetica,sans-Serif" font-size="10.00">Ogre::D3D11RenderWindowBase</text>
</a>
</g>
</g>
<!-- Node2&#45;&gt;Node1 -->
<g id="edge1" class="edge">
<title>Node2&#45;&gt;Node1</title>
<path fill="none" stroke="midnightblue" d="M210.62,-55.32C210.62,-46.75 210.62,-36.7 210.62,-28.84"/>
<polygon fill="midnightblue" stroke="midnightblue" points="207.12,-55.44 210.62,-65.44 214.12,-55.44 207.12,-55.44"/>
</g>
<!-- Node3 -->
<g id="node3" class="node">
<title>Node3</title>
<g id="a_node3"><a xlink:href="class_ogre_1_1_render_window.html" target="_top" xlink:title="Manages the target rendering window.">
<polygon fill="none" stroke="black" points="80.55,-120.5 80.55,-138.5 192.7,-138.5 192.7,-120.5 80.55,-120.5"/>
<text text-anchor="middle" x="136.62" y="-126.5" font-family="Helvetica,sans-Serif" font-size="10.00">Ogre::RenderWindow</text>
</a>
</g>
</g>
<!-- Node3&#45;&gt;Node2 -->
<g id="edge2" class="edge">
<title>Node3&#45;&gt;Node2</title>
<path fill="none" stroke="midnightblue" d="M156.18,-114.49C169.92,-104.65 187.83,-91.83 199.28,-83.63"/>
<polygon fill="midnightblue" stroke="midnightblue" points="153.95,-111.78 147.86,-120.45 158.03,-117.47 153.95,-111.78"/>
</g>
<!-- Node4 -->
<g id="node4" class="node">
<title>Node4</title>
<g id="a_node4"><a xlink:href="class_ogre_1_1_render_target.html" target="_top" xlink:title="A &#39;canvas&#39; which can receive the results of a rendering operation.">
<polygon fill="none" stroke="black" points="84.43,-175.5 84.43,-193.5 188.81,-193.5 188.81,-175.5 84.43,-175.5"/>
<text text-anchor="middle" x="136.62" y="-181.5" font-family="Helvetica,sans-Serif" font-size="10.00">Ogre::RenderTarget</text>
</a>
</g>
</g>
<!-- Node4&#45;&gt;Node3 -->
<g id="edge3" class="edge">
<title>Node4&#45;&gt;Node3</title>
<path fill="none" stroke="midnightblue" d="M136.62,-165.17C136.62,-156.09 136.62,-145.59 136.62,-138.55"/>
<polygon fill="midnightblue" stroke="midnightblue" points="133.12,-165.22 136.62,-175.22 140.12,-165.22 133.12,-165.22"/>
</g>
<!-- Node5 -->
<g id="node5" class="node">
<title>Node5</title>
<g id="a_node5"><a xlink:href="struct_ogre_1_1_gpu_tracked_resource.html" target="_top" xlink:title=" ">
<polygon fill="none" stroke="black" points="0,-230.5 0,-248.5 141.24,-248.5 141.24,-230.5 0,-230.5"/>
<text text-anchor="middle" x="70.62" y="-236.5" font-family="Helvetica,sans-Serif" font-size="10.00">Ogre::GpuTrackedResource</text>
</a>
</g>
</g>
<!-- Node5&#45;&gt;Node4 -->
<g id="edge4" class="edge">
<title>Node5&#45;&gt;Node4</title>
<path fill="none" stroke="midnightblue" d="M88.77,-223.93C100.93,-214.16 116.49,-201.67 126.5,-193.63"/>
<polygon fill="midnightblue" stroke="midnightblue" points="86.25,-221.46 80.65,-230.45 90.63,-226.92 86.25,-221.46"/>
</g>
<!-- Node6 -->
<g id="node6" class="node">
<title>Node6</title>
<g id="a_node6"><a xlink:href="class_ogre_1_1_allocated_object.html" target="_top" xlink:title="Superclass for all objects that wish to use custom memory allocators when their new / delete operator...">
<polygon fill="none" stroke="black" points="159.05,-230.5 159.05,-248.5 246.19,-248.5 246.19,-230.5 159.05,-230.5"/>
<text text-anchor="middle" x="202.62" y="-236.5" font-family="Helvetica,sans-Serif" font-size="10.00">RenderSysAlloc</text>
</a>
</g>
</g>
<!-- Node6&#45;&gt;Node4 -->
<g id="edge5" class="edge">
<title>Node6&#45;&gt;Node4</title>
<path fill="none" stroke="midnightblue" d="M184.47,-223.93C172.31,-214.16 156.76,-201.67 146.74,-193.63"/>
<polygon fill="midnightblue" stroke="midnightblue" points="182.61,-226.92 192.6,-230.45 186.99,-221.46 182.61,-226.92"/>
</g>
<!-- Node7 -->
<g id="node7" class="node">
<title>Node7</title>
<g id="a_node7"><a xlink:href="class_ogre_1_1_d3_d11_device_resource.html" target="_top" xlink:title="Represents a Direct3D rendering resource.">
<polygon fill="none" stroke="black" points="210.85,-120.5 210.85,-138.5 358.39,-138.5 358.39,-120.5 210.85,-120.5"/>
<text text-anchor="middle" x="284.62" y="-126.5" font-family="Helvetica,sans-Serif" font-size="10.00">Ogre::D3D11DeviceResource</text>
</a>
</g>
</g>
<!-- Node7&#45;&gt;Node2 -->
<g id="edge6" class="edge">
<title>Node7&#45;&gt;Node2</title>
<path fill="none" stroke="#8b1a1a" d="M265.06,-114.49C251.32,-104.65 233.42,-91.83 221.97,-83.63"/>
<polygon fill="#8b1a1a" stroke="#8b1a1a" points="263.22,-117.47 273.38,-120.45 267.29,-111.78 263.22,-117.47"/>
</g>
</g>
</svg>
