<?xml version="1.0" encoding="UTF-8" standalone="no"?>
<!DOCTYPE svg PUBLIC "-//W3C//DTD SVG 1.1//EN"
 "http://www.w3.org/Graphics/SVG/1.1/DTD/svg11.dtd">
<!-- Generated by graphviz version 2.43.0 (0)
 -->
<!-- Title: Ogre::GL3PlusStagingBuffer Pages: 1 -->
<svg width="151pt" height="137pt"
 viewBox="0.00 0.00 150.56 137.00" xmlns="http://www.w3.org/2000/svg" xmlns:xlink="http://www.w3.org/1999/xlink">
<g id="graph0" class="graph" transform="scale(1 1) rotate(0) translate(4 133)">
<title>Ogre::GL3PlusStagingBuffer</title>
<!-- Node1 -->
<g id="node1" class="node">
<title>Node1</title>
<g id="a_node1"><a xlink:title="A staging buffer is a buffer that resides on the GPU and be written to/from both CPU &amp; GPU However th...">
<polygon fill="#bfbfbf" stroke="black" points="0,-0.5 0,-18.5 142.56,-18.5 142.56,-0.5 0,-0.5"/>
<text text-anchor="middle" x="71.28" y="-6.5" font-family="Helvetica,sans-Serif" font-size="10.00">Ogre::GL3PlusStagingBuffer</text>
</a>
</g>
</g>
<!-- Node2 -->
<g id="node2" class="node">
<title>Node2</title>
<g id="a_node2"><a xlink:href="class_ogre_1_1_staging_buffer.html" target="_top" xlink:title="A staging buffer is a buffer that resides on the GPU and be written to/from both CPU &amp; GPU However th...">
<polygon fill="none" stroke="black" points="19.18,-55.5 19.18,-73.5 123.39,-73.5 123.39,-55.5 19.18,-55.5"/>
<text text-anchor="middle" x="71.28" y="-61.5" font-family="Helvetica,sans-Serif" font-size="10.00">Ogre::StagingBuffer</text>
</a>
</g>
</g>
<!-- Node2&#45;&gt;Node1 -->
<g id="edge1" class="edge">
<title>Node2&#45;&gt;Node1</title>
<path fill="none" stroke="midnightblue" d="M71.28,-45.17C71.28,-36.09 71.28,-25.59 71.28,-18.55"/>
<polygon fill="midnightblue" stroke="midnightblue" points="67.78,-45.22 71.28,-55.22 74.78,-45.22 67.78,-45.22"/>
</g>
<!-- Node3 -->
<g id="node3" class="node">
<title>Node3</title>
<g id="a_node3"><a xlink:href="class_ogre_1_1_allocated_object.html" target="_top" xlink:title="Superclass for all objects that wish to use custom memory allocators when their new / delete operator...">
<polygon fill="none" stroke="black" points="22.23,-110.5 22.23,-128.5 120.33,-128.5 120.33,-110.5 22.23,-110.5"/>
<text text-anchor="middle" x="71.28" y="-116.5" font-family="Helvetica,sans-Serif" font-size="10.00">StagingBufferAlloc</text>
</a>
</g>
</g>
<!-- Node3&#45;&gt;Node2 -->
<g id="edge2" class="edge">
<title>Node3&#45;&gt;Node2</title>
<path fill="none" stroke="midnightblue" d="M71.28,-100.17C71.28,-91.09 71.28,-80.59 71.28,-73.55"/>
<polygon fill="midnightblue" stroke="midnightblue" points="67.78,-100.22 71.28,-110.22 74.78,-100.22 67.78,-100.22"/>
</g>
</g>
</svg>
