<?xml version="1.0" encoding="UTF-8" standalone="no"?>
<!DOCTYPE svg PUBLIC "-//W3C//DTD SVG 1.1//EN"
 "http://www.w3.org/Graphics/SVG/1.1/DTD/svg11.dtd">
<!-- Generated by graphviz version 2.43.0 (0)
 -->
<!-- Title: Ogre::FloatGpuParameterControllerValue Pages: 1 -->
<svg width="183pt" height="157pt"
 viewBox="0.00 0.00 182.96 157.00" xmlns="http://www.w3.org/2000/svg" xmlns:xlink="http://www.w3.org/1999/xlink">
<g id="graph0" class="graph" transform="scale(1 1) rotate(0) translate(4 153)">
<title>Ogre::FloatGpuParameterControllerValue</title>
<!-- Node1 -->
<g id="node1" class="node">
<title>Node1</title>
<g id="a_node1"><a xlink:title="Predefined controller value for setting a single floating&#45; point value in a constant parameter of a v...">
<polygon fill="#bfbfbf" stroke="black" points="0,-0.5 0,-28.5 174.96,-28.5 174.96,-0.5 0,-0.5"/>
<text text-anchor="start" x="8" y="-16.5" font-family="Helvetica,sans-Serif" font-size="10.00">Ogre::FloatGpuParameterController</text>
<text text-anchor="middle" x="87.48" y="-6.5" font-family="Helvetica,sans-Serif" font-size="10.00">Value</text>
</a>
</g>
</g>
<!-- Node2 -->
<g id="node2" class="node">
<title>Node2</title>
<g id="a_node2"><a xlink:href="class_ogre_1_1_controller_value.html" target="_top" xlink:title=" ">
<polygon fill="none" stroke="black" points="31.49,-65.5 31.49,-93.5 143.47,-93.5 143.47,-65.5 31.49,-65.5"/>
<text text-anchor="start" x="39.49" y="-81.5" font-family="Helvetica,sans-Serif" font-size="10.00">Ogre::ControllerValue</text>
<text text-anchor="middle" x="87.48" y="-71.5" font-family="Helvetica,sans-Serif" font-size="10.00">&lt; Real &gt;</text>
</a>
</g>
</g>
<!-- Node2&#45;&gt;Node1 -->
<g id="edge1" class="edge">
<title>Node2&#45;&gt;Node1</title>
<path fill="none" stroke="midnightblue" d="M87.48,-55.16C87.48,-46.17 87.48,-36.22 87.48,-28.54"/>
<polygon fill="midnightblue" stroke="midnightblue" points="83.98,-55.45 87.48,-65.45 90.98,-55.45 83.98,-55.45"/>
</g>
<!-- Node3 -->
<g id="node3" class="node">
<title>Node3</title>
<g id="a_node3"><a xlink:href="class_ogre_1_1_allocated_object.html" target="_top" xlink:title="Superclass for all objects that wish to use custom memory allocators when their new / delete operator...">
<polygon fill="none" stroke="black" points="46.97,-130.5 46.97,-148.5 127.99,-148.5 127.99,-130.5 46.97,-130.5"/>
<text text-anchor="middle" x="87.48" y="-136.5" font-family="Helvetica,sans-Serif" font-size="10.00">ControllerAlloc</text>
</a>
</g>
</g>
<!-- Node3&#45;&gt;Node2 -->
<g id="edge2" class="edge">
<title>Node3&#45;&gt;Node2</title>
<path fill="none" stroke="midnightblue" d="M87.48,-120.32C87.48,-111.75 87.48,-101.7 87.48,-93.84"/>
<polygon fill="midnightblue" stroke="midnightblue" points="83.98,-120.44 87.48,-130.44 90.98,-120.44 83.98,-120.44"/>
</g>
</g>
</svg>
