<?xml version="1.0" encoding="UTF-8" standalone="no"?>
<!DOCTYPE svg PUBLIC "-//W3C//DTD SVG 1.1//EN"
 "http://www.w3.org/Graphics/SVG/1.1/DTD/svg11.dtd">
<!-- Generated by graphviz version 2.43.0 (0)
 -->
<!-- Title: Ogre::D3D11AsyncTextureTicket Pages: 1 -->
<svg width="216pt" height="137pt"
 viewBox="0.00 0.00 216.48 137.00" xmlns="http://www.w3.org/2000/svg" xmlns:xlink="http://www.w3.org/1999/xlink">
<g id="graph0" class="graph" transform="scale(1 1) rotate(0) translate(4 133)">
<title>Ogre::D3D11AsyncTextureTicket</title>
<!-- Node1 -->
<g id="node1" class="node">
<title>Node1</title>
<g id="a_node1"><a xlink:title="See AsyncTextureTicket.">
<polygon fill="#bfbfbf" stroke="black" points="5.7,-0.5 5.7,-18.5 166.21,-18.5 166.21,-0.5 5.7,-0.5"/>
<text text-anchor="middle" x="85.95" y="-6.5" font-family="Helvetica,sans-Serif" font-size="10.00">Ogre::D3D11AsyncTextureTicket</text>
</a>
</g>
</g>
<!-- Node2 -->
<g id="node2" class="node">
<title>Node2</title>
<g id="a_node2"><a xlink:href="class_ogre_1_1_async_texture_ticket.html" target="_top" xlink:title="In Ogre 2.2 reading data from GPU back to CPU is asynchronous.">
<polygon fill="none" stroke="black" points="20.9,-55.5 20.9,-73.5 151.01,-73.5 151.01,-55.5 20.9,-55.5"/>
<text text-anchor="middle" x="85.95" y="-61.5" font-family="Helvetica,sans-Serif" font-size="10.00">Ogre::AsyncTextureTicket</text>
</a>
</g>
</g>
<!-- Node2&#45;&gt;Node1 -->
<g id="edge1" class="edge">
<title>Node2&#45;&gt;Node1</title>
<path fill="none" stroke="midnightblue" d="M85.95,-45.17C85.95,-36.09 85.95,-25.59 85.95,-18.55"/>
<polygon fill="midnightblue" stroke="midnightblue" points="82.45,-45.22 85.95,-55.22 89.45,-45.22 82.45,-45.22"/>
</g>
<!-- Node3 -->
<g id="node3" class="node">
<title>Node3</title>
<g id="a_node3"><a xlink:href="class_ogre_1_1_allocated_object.html" target="_top" xlink:title="Superclass for all objects that wish to use custom memory allocators when their new / delete operator...">
<polygon fill="none" stroke="black" points="0,-110.5 0,-128.5 59.91,-128.5 59.91,-110.5 0,-110.5"/>
<text text-anchor="middle" x="29.95" y="-116.5" font-family="Helvetica,sans-Serif" font-size="10.00">PassAlloc</text>
</a>
</g>
</g>
<!-- Node3&#45;&gt;Node2 -->
<g id="edge2" class="edge">
<title>Node3&#45;&gt;Node2</title>
<path fill="none" stroke="midnightblue" d="M46.21,-103.11C56.43,-93.44 69.19,-81.37 77.45,-73.55"/>
<polygon fill="midnightblue" stroke="midnightblue" points="43.56,-100.8 38.7,-110.22 48.37,-105.89 43.56,-100.8"/>
</g>
<!-- Node4 -->
<g id="node4" class="node">
<title>Node4</title>
<g id="a_node4"><a xlink:href="class_ogre_1_1_texture_gpu_listener.html" target="_top" xlink:title=" ">
<polygon fill="none" stroke="black" points="77.42,-110.5 77.42,-128.5 208.48,-128.5 208.48,-110.5 77.42,-110.5"/>
<text text-anchor="middle" x="142.95" y="-116.5" font-family="Helvetica,sans-Serif" font-size="10.00">Ogre::TextureGpuListener</text>
</a>
</g>
</g>
<!-- Node4&#45;&gt;Node2 -->
<g id="edge3" class="edge">
<title>Node4&#45;&gt;Node2</title>
<path fill="none" stroke="midnightblue" d="M126.71,-103.4C116.26,-93.68 103.1,-81.45 94.61,-73.55"/>
<polygon fill="midnightblue" stroke="midnightblue" points="124.34,-105.97 134.05,-110.22 129.11,-100.85 124.34,-105.97"/>
</g>
</g>
</svg>
