<?xml version="1.0" encoding="UTF-8" standalone="no"?>
<!DOCTYPE svg PUBLIC "-//W3C//DTD SVG 1.1//EN"
 "http://www.w3.org/Graphics/SVG/1.1/DTD/svg11.dtd">
<!-- Generated by graphviz version 2.43.0 (0)
 -->
<!-- Title: Ogre::TexBufferPacked Pages: 1 -->
<svg width="647pt" height="232pt"
 viewBox="0.00 0.00 646.55 232.00" xmlns="http://www.w3.org/2000/svg" xmlns:xlink="http://www.w3.org/1999/xlink">
<g id="graph0" class="graph" transform="scale(1 1) rotate(0) translate(4 228)">
<title>Ogre::TexBufferPacked</title>
<!-- Node1 -->
<g id="node1" class="node">
<title>Node1</title>
<g id="a_node1"><a xlink:title="Represents Texture buffers (also known as tbuffers in D3D11)">
<polygon fill="#bfbfbf" stroke="black" points="316.89,-100.5 316.89,-118.5 436.1,-118.5 436.1,-100.5 316.89,-100.5"/>
<text text-anchor="middle" x="376.49" y="-106.5" font-family="Helvetica,sans-Serif" font-size="10.00">Ogre::TexBufferPacked</text>
</a>
</g>
</g>
<!-- Node5 -->
<g id="node5" class="node">
<title>Node5</title>
<g id="a_node5"><a xlink:href="class_ogre_1_1_d3_d11_tex_buffer_packed.html" target="_top" xlink:title=" ">
<polygon fill="none" stroke="black" points="480.53,-205.5 480.53,-223.5 630.12,-223.5 630.12,-205.5 480.53,-205.5"/>
<text text-anchor="middle" x="555.33" y="-211.5" font-family="Helvetica,sans-Serif" font-size="10.00">Ogre::D3D11TexBufferPacked</text>
</a>
</g>
</g>
<!-- Node1&#45;&gt;Node5 -->
<g id="edge4" class="edge">
<title>Node1&#45;&gt;Node5</title>
<path fill="none" stroke="midnightblue" d="M391,-126.48C407.82,-146.43 438.47,-179.01 472.1,-196.5 479.23,-200.21 487.09,-203.15 495.04,-205.49"/>
<polygon fill="midnightblue" stroke="midnightblue" points="393.53,-124.05 384.47,-118.55 388.12,-128.49 393.53,-124.05"/>
</g>
<!-- Node6 -->
<g id="node6" class="node">
<title>Node6</title>
<g id="a_node6"><a xlink:href="class_ogre_1_1_g_l3_plus_tex_buffer_emulated_packed.html" target="_top" xlink:title=" ">
<polygon fill="none" stroke="black" points="472.1,-158.5 472.1,-186.5 638.55,-186.5 638.55,-158.5 472.1,-158.5"/>
<text text-anchor="start" x="480.1" y="-174.5" font-family="Helvetica,sans-Serif" font-size="10.00">Ogre::GL3PlusTexBufferEmulated</text>
<text text-anchor="middle" x="555.33" y="-164.5" font-family="Helvetica,sans-Serif" font-size="10.00">Packed</text>
</a>
</g>
</g>
<!-- Node1&#45;&gt;Node6 -->
<g id="edge5" class="edge">
<title>Node1&#45;&gt;Node6</title>
<path fill="none" stroke="midnightblue" d="M406.13,-122.73C424.71,-131.03 449.55,-141.62 472.1,-149.5 481.05,-152.63 490.67,-155.63 500.06,-158.38"/>
<polygon fill="midnightblue" stroke="midnightblue" points="407.33,-119.44 396.78,-118.51 404.45,-125.81 407.33,-119.44"/>
</g>
<!-- Node7 -->
<g id="node7" class="node">
<title>Node7</title>
<g id="a_node7"><a xlink:href="class_ogre_1_1_g_l3_plus_tex_buffer_packed.html" target="_top" xlink:title=" ">
<polygon fill="none" stroke="black" points="476.54,-121.5 476.54,-139.5 634.11,-139.5 634.11,-121.5 476.54,-121.5"/>
<text text-anchor="middle" x="555.33" y="-127.5" font-family="Helvetica,sans-Serif" font-size="10.00">Ogre::GL3PlusTexBufferPacked</text>
</a>
</g>
</g>
<!-- Node1&#45;&gt;Node7 -->
<g id="edge6" class="edge">
<title>Node1&#45;&gt;Node7</title>
<path fill="none" stroke="midnightblue" d="M446.32,-117.67C456.84,-118.92 467.74,-120.22 478.4,-121.48"/>
<polygon fill="midnightblue" stroke="midnightblue" points="446.72,-114.2 436.38,-116.49 445.89,-121.15 446.72,-114.2"/>
</g>
<!-- Node8 -->
<g id="node8" class="node">
<title>Node8</title>
<g id="a_node8"><a xlink:href="class_ogre_1_1_g_l_e_s2_tex_buffer_emulated_packed.html" target="_top" xlink:title=" ">
<polygon fill="none" stroke="black" points="475.16,-74.5 475.16,-102.5 635.5,-102.5 635.5,-74.5 475.16,-74.5"/>
<text text-anchor="start" x="483.16" y="-90.5" font-family="Helvetica,sans-Serif" font-size="10.00">Ogre::GLES2TexBufferEmulated</text>
<text text-anchor="middle" x="555.33" y="-80.5" font-family="Helvetica,sans-Serif" font-size="10.00">Packed</text>
</a>
</g>
</g>
<!-- Node1&#45;&gt;Node8 -->
<g id="edge7" class="edge">
<title>Node1&#45;&gt;Node8</title>
<path fill="none" stroke="midnightblue" d="M446.39,-101.32C455.74,-100.21 465.41,-99.06 474.93,-97.93"/>
<polygon fill="midnightblue" stroke="midnightblue" points="445.89,-97.85 436.38,-102.51 446.72,-104.8 445.89,-97.85"/>
</g>
<!-- Node9 -->
<g id="node9" class="node">
<title>Node9</title>
<g id="a_node9"><a xlink:href="class_ogre_1_1_metal_tex_buffer_packed.html" target="_top" xlink:title=" ">
<polygon fill="none" stroke="black" points="483.5,-37.5 483.5,-55.5 627.16,-55.5 627.16,-37.5 483.5,-37.5"/>
<text text-anchor="middle" x="555.33" y="-43.5" font-family="Helvetica,sans-Serif" font-size="10.00">Ogre::MetalTexBufferPacked</text>
</a>
</g>
</g>
<!-- Node1&#45;&gt;Node9 -->
<g id="edge8" class="edge">
<title>Node1&#45;&gt;Node9</title>
<path fill="none" stroke="midnightblue" d="M402.78,-95.52C421.47,-85.68 447.77,-72.83 472.1,-64.5 482.33,-61 493.52,-58.02 504.25,-55.55"/>
<polygon fill="midnightblue" stroke="midnightblue" points="400.92,-92.54 393.76,-100.35 404.23,-98.72 400.92,-92.54"/>
</g>
<!-- Node10 -->
<g id="node10" class="node">
<title>Node10</title>
<g id="a_node10"><a xlink:href="class_ogre_1_1_n_u_l_l_tex_buffer_packed.html" target="_top" xlink:title=" ">
<polygon fill="none" stroke="black" points="483.31,-0.5 483.31,-18.5 627.34,-18.5 627.34,-0.5 483.31,-0.5"/>
<text text-anchor="middle" x="555.33" y="-6.5" font-family="Helvetica,sans-Serif" font-size="10.00">Ogre::NULLTexBufferPacked</text>
</a>
</g>
</g>
<!-- Node1&#45;&gt;Node10 -->
<g id="edge9" class="edge">
<title>Node1&#45;&gt;Node10</title>
<path fill="none" stroke="midnightblue" d="M391.74,-92.94C408.87,-74.11 439.43,-43.88 472.1,-27.5 479.41,-23.83 487.46,-20.91 495.58,-18.58"/>
<polygon fill="midnightblue" stroke="midnightblue" points="389.08,-90.66 385.05,-100.46 394.31,-95.31 389.08,-90.66"/>
</g>
<!-- Node2 -->
<g id="node2" class="node">
<title>Node2</title>
<g id="a_node2"><a xlink:href="class_ogre_1_1_buffer_packed.html" target="_top" xlink:title=" ">
<polygon fill="none" stroke="black" points="177.24,-100.5 177.24,-118.5 280.89,-118.5 280.89,-100.5 177.24,-100.5"/>
<text text-anchor="middle" x="229.07" y="-106.5" font-family="Helvetica,sans-Serif" font-size="10.00">Ogre::BufferPacked</text>
</a>
</g>
</g>
<!-- Node2&#45;&gt;Node1 -->
<g id="edge1" class="edge">
<title>Node2&#45;&gt;Node1</title>
<path fill="none" stroke="midnightblue" d="M291.12,-109.5C299.58,-109.5 308.26,-109.5 316.69,-109.5"/>
<polygon fill="midnightblue" stroke="midnightblue" points="290.93,-106 280.93,-109.5 290.93,-113 290.93,-106"/>
</g>
<!-- Node3 -->
<g id="node3" class="node">
<title>Node3</title>
<g id="a_node3"><a xlink:href="struct_ogre_1_1_gpu_tracked_resource.html" target="_top" xlink:title=" ">
<polygon fill="none" stroke="black" points="0,-119.5 0,-137.5 141.24,-137.5 141.24,-119.5 0,-119.5"/>
<text text-anchor="middle" x="70.62" y="-125.5" font-family="Helvetica,sans-Serif" font-size="10.00">Ogre::GpuTrackedResource</text>
</a>
</g>
</g>
<!-- Node3&#45;&gt;Node2 -->
<g id="edge2" class="edge">
<title>Node3&#45;&gt;Node2</title>
<path fill="none" stroke="midnightblue" d="M151.67,-118.78C160.24,-117.74 168.79,-116.7 176.9,-115.71"/>
<polygon fill="midnightblue" stroke="midnightblue" points="151.11,-115.32 141.61,-120 151.96,-122.27 151.11,-115.32"/>
</g>
<!-- Node4 -->
<g id="node4" class="node">
<title>Node4</title>
<g id="a_node4"><a xlink:href="class_ogre_1_1_allocated_object.html" target="_top" xlink:title="Superclass for all objects that wish to use custom memory allocators when their new / delete operator...">
<polygon fill="none" stroke="black" points="21.86,-82.5 21.86,-100.5 119.39,-100.5 119.39,-82.5 21.86,-82.5"/>
<text text-anchor="middle" x="70.62" y="-88.5" font-family="Helvetica,sans-Serif" font-size="10.00">BufferPackedAlloc</text>
</a>
</g>
</g>
<!-- Node4&#45;&gt;Node2 -->
<g id="edge3" class="edge">
<title>Node4&#45;&gt;Node2</title>
<path fill="none" stroke="midnightblue" d="M129.47,-98.16C145.07,-99.95 161.84,-101.88 177.04,-103.63"/>
<polygon fill="midnightblue" stroke="midnightblue" points="129.75,-94.66 119.41,-97 128.95,-101.62 129.75,-94.66"/>
</g>
</g>
</svg>
