<?xml version="1.0" encoding="UTF-8" standalone="no"?>
<!DOCTYPE svg PUBLIC "-//W3C//DTD SVG 1.1//EN"
 "http://www.w3.org/Graphics/SVG/1.1/DTD/svg11.dtd">
<!-- Generated by graphviz version 2.43.0 (0)
 -->
<!-- Title: Ogre::D3D11BufferInterfaceBase Pages: 1 -->
<svg width="340pt" height="137pt"
 viewBox="0.00 0.00 340.10 137.00" xmlns="http://www.w3.org/2000/svg" xmlns:xlink="http://www.w3.org/1999/xlink">
<g id="graph0" class="graph" transform="scale(1 1) rotate(0) translate(4 133)">
<title>Ogre::D3D11BufferInterfaceBase</title>
<!-- Node1 -->
<g id="node1" class="node">
<title>Node1</title>
<g id="a_node1"><a xlink:title="For D3D11, most (if not all) buffers, can be treated with the same code.">
<polygon fill="#bfbfbf" stroke="black" points="75.6,-55.5 75.6,-73.5 237.99,-73.5 237.99,-55.5 75.6,-55.5"/>
<text text-anchor="middle" x="156.8" y="-61.5" font-family="Helvetica,sans-Serif" font-size="10.00">Ogre::D3D11BufferInterfaceBase</text>
</a>
</g>
</g>
<!-- Node3 -->
<g id="node3" class="node">
<title>Node3</title>
<g id="a_node3"><a xlink:href="class_ogre_1_1_d3_d11_buffer_interface.html" target="_top" xlink:title="For D3D11, most (if not all) buffers, can be treated with the same code.">
<polygon fill="none" stroke="black" points="0,-0.5 0,-18.5 139.59,-18.5 139.59,-0.5 0,-0.5"/>
<text text-anchor="middle" x="69.8" y="-6.5" font-family="Helvetica,sans-Serif" font-size="10.00">Ogre::D3D11BufferInterface</text>
</a>
</g>
</g>
<!-- Node1&#45;&gt;Node3 -->
<g id="edge2" class="edge">
<title>Node1&#45;&gt;Node3</title>
<path fill="none" stroke="midnightblue" d="M134.72,-50.05C118.45,-40.14 96.85,-26.98 83.13,-18.63"/>
<polygon fill="midnightblue" stroke="midnightblue" points="133.22,-53.24 143.58,-55.45 136.86,-47.26 133.22,-53.24"/>
</g>
<!-- Node4 -->
<g id="node4" class="node">
<title>Node4</title>
<g id="a_node4"><a xlink:href="class_ogre_1_1_d3_d11_compat_buffer_interface.html" target="_top" xlink:title="In D3D11, const buffers can&#39;t be bound by offset.">
<polygon fill="none" stroke="black" points="157.49,-0.5 157.49,-18.5 332.1,-18.5 332.1,-0.5 157.49,-0.5"/>
<text text-anchor="middle" x="244.8" y="-6.5" font-family="Helvetica,sans-Serif" font-size="10.00">Ogre::D3D11CompatBufferInterface</text>
</a>
</g>
</g>
<!-- Node1&#45;&gt;Node4 -->
<g id="edge3" class="edge">
<title>Node1&#45;&gt;Node4</title>
<path fill="none" stroke="midnightblue" d="M179.13,-50.05C195.58,-40.14 217.43,-26.98 231.31,-18.63"/>
<polygon fill="midnightblue" stroke="midnightblue" points="176.92,-47.29 170.16,-55.45 180.53,-53.29 176.92,-47.29"/>
</g>
<!-- Node2 -->
<g id="node2" class="node">
<title>Node2</title>
<g id="a_node2"><a xlink:href="class_ogre_1_1_buffer_interface.html" target="_top" xlink:title="Most (if not all) buffers, can be treated with the same code.">
<polygon fill="none" stroke="black" points="102.2,-110.5 102.2,-128.5 211.4,-128.5 211.4,-110.5 102.2,-110.5"/>
<text text-anchor="middle" x="156.8" y="-116.5" font-family="Helvetica,sans-Serif" font-size="10.00">Ogre::BufferInterface</text>
</a>
</g>
</g>
<!-- Node2&#45;&gt;Node1 -->
<g id="edge1" class="edge">
<title>Node2&#45;&gt;Node1</title>
<path fill="none" stroke="midnightblue" d="M156.8,-100.17C156.8,-91.09 156.8,-80.59 156.8,-73.55"/>
<polygon fill="midnightblue" stroke="midnightblue" points="153.3,-100.22 156.8,-110.22 160.3,-100.22 153.3,-100.22"/>
</g>
</g>
</svg>
