<?xml version="1.0" encoding="UTF-8" standalone="no"?>
<!DOCTYPE svg PUBLIC "-//W3C//DTD SVG 1.1//EN"
 "http://www.w3.org/Graphics/SVG/1.1/DTD/svg11.dtd">
<!-- Generated by graphviz version 2.43.0 (0)
 -->
<!-- Title: Ogre::OGRE_HLMS_TEXTURE_BASE_CLASS Pages: 1 -->
<svg width="423pt" height="147pt"
 viewBox="0.00 0.00 423.04 147.00" xmlns="http://www.w3.org/2000/svg" xmlns:xlink="http://www.w3.org/1999/xlink">
<g id="graph0" class="graph" transform="scale(1 1) rotate(0) translate(4 143)">
<title>Ogre::OGRE_HLMS_TEXTURE_BASE_CLASS</title>
<!-- Node1 -->
<g id="node1" class="node">
<title>Node1</title>
<g id="a_node1"><a xlink:title="This is not a regular header, therefore it has no include guards.">
<polygon fill="#bfbfbf" stroke="black" points="118.11,-0.5 118.11,-28.5 276.92,-28.5 276.92,-0.5 118.11,-0.5"/>
<text text-anchor="start" x="126.11" y="-16.5" font-family="Helvetica,sans-Serif" font-size="10.00">Ogre::OGRE_HLMS_TEXTURE</text>
<text text-anchor="middle" x="197.51" y="-6.5" font-family="Helvetica,sans-Serif" font-size="10.00">_BASE_CLASS</text>
</a>
</g>
</g>
<!-- Node2 -->
<g id="node2" class="node">
<title>Node2</title>
<g id="a_node2"><a xlink:href="class_ogre_1_1_hlms_datablock.html" target="_top" xlink:title="An hlms datablock contains individual information about a specific material.">
<polygon fill="none" stroke="black" points="0,-65.5 0,-83.5 111.03,-83.5 111.03,-65.5 0,-65.5"/>
<text text-anchor="middle" x="55.51" y="-71.5" font-family="Helvetica,sans-Serif" font-size="10.00">Ogre::HlmsDatablock</text>
</a>
</g>
</g>
<!-- Node2&#45;&gt;Node1 -->
<g id="edge1" class="edge">
<title>Node2&#45;&gt;Node1</title>
<path fill="none" stroke="midnightblue" d="M84.72,-61.57C108.3,-51.94 141.41,-38.41 165.66,-28.51"/>
<polygon fill="midnightblue" stroke="midnightblue" points="83.19,-58.41 75.26,-65.44 85.84,-64.89 83.19,-58.41"/>
</g>
<!-- Node3 -->
<g id="node3" class="node">
<title>Node3</title>
<g id="a_node3"><a xlink:href="class_ogre_1_1_allocated_object.html" target="_top" xlink:title="Superclass for all objects that wish to use custom memory allocators when their new / delete operator...">
<polygon fill="none" stroke="black" points="25.56,-120.5 25.56,-138.5 85.47,-138.5 85.47,-120.5 25.56,-120.5"/>
<text text-anchor="middle" x="55.51" y="-126.5" font-family="Helvetica,sans-Serif" font-size="10.00">PassAlloc</text>
</a>
</g>
</g>
<!-- Node3&#45;&gt;Node2 -->
<g id="edge2" class="edge">
<title>Node3&#45;&gt;Node2</title>
<path fill="none" stroke="midnightblue" d="M55.51,-110.17C55.51,-101.09 55.51,-90.59 55.51,-83.55"/>
<polygon fill="midnightblue" stroke="midnightblue" points="52.01,-110.22 55.51,-120.22 59.01,-110.22 52.01,-110.22"/>
</g>
<!-- Node4 -->
<g id="node4" class="node">
<title>Node4</title>
<g id="a_node4"><a xlink:href="class_ogre_1_1_const_buffer_pool_user.html" target="_top" xlink:title=" ">
<polygon fill="none" stroke="black" points="128.74,-65.5 128.74,-83.5 266.29,-83.5 266.29,-65.5 128.74,-65.5"/>
<text text-anchor="middle" x="197.51" y="-71.5" font-family="Helvetica,sans-Serif" font-size="10.00">Ogre::ConstBufferPoolUser</text>
</a>
</g>
</g>
<!-- Node4&#45;&gt;Node1 -->
<g id="edge3" class="edge">
<title>Node4&#45;&gt;Node1</title>
<path fill="none" stroke="midnightblue" d="M197.51,-55.32C197.51,-46.75 197.51,-36.7 197.51,-28.84"/>
<polygon fill="midnightblue" stroke="midnightblue" points="194.01,-55.44 197.51,-65.44 201.01,-55.44 194.01,-55.44"/>
</g>
<!-- Node5 -->
<g id="node5" class="node">
<title>Node5</title>
<g id="a_node5"><a xlink:href="class_ogre_1_1_texture_gpu_listener.html" target="_top" xlink:title=" ">
<polygon fill="none" stroke="black" points="283.99,-65.5 283.99,-83.5 415.04,-83.5 415.04,-65.5 283.99,-65.5"/>
<text text-anchor="middle" x="349.51" y="-71.5" font-family="Helvetica,sans-Serif" font-size="10.00">Ogre::TextureGpuListener</text>
</a>
</g>
</g>
<!-- Node5&#45;&gt;Node1 -->
<g id="edge4" class="edge">
<title>Node5&#45;&gt;Node1</title>
<path fill="none" stroke="midnightblue" d="M318.92,-61.83C293.65,-52.18 257.8,-38.5 231.61,-28.51"/>
<polygon fill="midnightblue" stroke="midnightblue" points="317.79,-65.14 328.38,-65.44 320.28,-58.6 317.79,-65.14"/>
</g>
</g>
</svg>
