<?xml version="1.0" encoding="UTF-8" standalone="no"?>
<!DOCTYPE svg PUBLIC "-//W3C//DTD SVG 1.1//EN"
 "http://www.w3.org/Graphics/SVG/1.1/DTD/svg11.dtd">
<!-- Generated by graphviz version 2.43.0 (0)
 -->
<!-- Title: Ogre::Timer Pages: 1 -->
<svg width="89pt" height="82pt"
 viewBox="0.00 0.00 89.31 82.00" xmlns="http://www.w3.org/2000/svg" xmlns:xlink="http://www.w3.org/1999/xlink">
<g id="graph0" class="graph" transform="scale(1 1) rotate(0) translate(4 78)">
<title>Ogre::Timer</title>
<!-- Node1 -->
<g id="node1" class="node">
<title>Node1</title>
<g id="a_node1"><a xlink:title="Timer class.">
<polygon fill="#bfbfbf" stroke="black" points="6.17,-0.5 6.17,-18.5 75.14,-18.5 75.14,-0.5 6.17,-0.5"/>
<text text-anchor="middle" x="40.66" y="-6.5" font-family="Helvetica,sans-Serif" font-size="10.00">Ogre::Timer</text>
</a>
</g>
</g>
<!-- Node2 -->
<g id="node2" class="node">
<title>Node2</title>
<g id="a_node2"><a xlink:href="class_ogre_1_1_allocated_object.html" target="_top" xlink:title="Superclass for all objects that wish to use custom memory allocators when their new / delete operator...">
<polygon fill="none" stroke="black" points="9.23,-55.5 9.23,-73.5 72.09,-73.5 72.09,-55.5 9.23,-55.5"/>
<text text-anchor="middle" x="40.66" y="-61.5" font-family="Helvetica,sans-Serif" font-size="10.00">TimerAlloc</text>
</a>
</g>
</g>
<!-- Node2&#45;&gt;Node1 -->
<g id="edge1" class="edge">
<title>Node2&#45;&gt;Node1</title>
<path fill="none" stroke="midnightblue" d="M3.47,-48.07C-2.64,-38.44 -0.3,-26.44 10.49,-18.63"/>
<polygon fill="midnightblue" stroke="midnightblue" points="1.14,-50.69 10.6,-55.45 6.17,-45.82 1.14,-50.69"/>
</g>
<!-- Node2&#45;&gt;Node1 -->
<g id="edge2" class="edge">
<title>Node2&#45;&gt;Node1</title>
<path fill="none" stroke="midnightblue" d="M15.21,-46.36C11.98,-37.02 13.78,-25.9 20.62,-18.55"/>
<polygon fill="midnightblue" stroke="midnightblue" points="12.33,-48.36 20.41,-55.22 18.37,-44.82 12.33,-48.36"/>
</g>
<!-- Node2&#45;&gt;Node1 -->
<g id="edge3" class="edge">
<title>Node2&#45;&gt;Node1</title>
<path fill="none" stroke="midnightblue" d="M27.79,-45.47C26.38,-36.33 27.33,-25.67 30.64,-18.55"/>
<polygon fill="midnightblue" stroke="midnightblue" points="24.45,-46.54 30.53,-55.22 31.19,-44.64 24.45,-46.54"/>
</g>
<!-- Node2&#45;&gt;Node1 -->
<g id="edge4" class="edge">
<title>Node2&#45;&gt;Node1</title>
<path fill="none" stroke="midnightblue" d="M40.66,-45.17C40.66,-36.09 40.66,-25.59 40.66,-18.55"/>
<polygon fill="midnightblue" stroke="midnightblue" points="37.16,-45.22 40.66,-55.22 44.16,-45.22 37.16,-45.22"/>
</g>
<!-- Node2&#45;&gt;Node1 -->
<g id="edge5" class="edge">
<title>Node2&#45;&gt;Node1</title>
<path fill="none" stroke="midnightblue" d="M53.52,-45.47C54.93,-36.33 53.99,-25.67 50.67,-18.55"/>
<polygon fill="midnightblue" stroke="midnightblue" points="50.12,-44.64 50.78,-55.22 56.86,-46.54 50.12,-44.64"/>
</g>
<!-- Node2&#45;&gt;Node1 -->
<g id="edge6" class="edge">
<title>Node2&#45;&gt;Node1</title>
<path fill="none" stroke="midnightblue" d="M66.1,-46.36C69.33,-37.02 67.53,-25.9 60.69,-18.55"/>
<polygon fill="midnightblue" stroke="midnightblue" points="62.94,-44.82 60.91,-55.22 68.98,-48.36 62.94,-44.82"/>
</g>
<!-- Node2&#45;&gt;Node1 -->
<g id="edge7" class="edge">
<title>Node2&#45;&gt;Node1</title>
<path fill="none" stroke="midnightblue" d="M77.84,-48.07C83.95,-38.44 81.61,-26.44 70.82,-18.63"/>
<polygon fill="midnightblue" stroke="midnightblue" points="75.14,-45.82 70.71,-55.45 80.17,-50.69 75.14,-45.82"/>
</g>
</g>
</svg>
