<?xml version="1.0" encoding="UTF-8" standalone="no"?>
<!DOCTYPE svg PUBLIC "-//W3C//DTD SVG 1.1//EN"
 "http://www.w3.org/Graphics/SVG/1.1/DTD/svg11.dtd">
<!-- Generated by graphviz version 2.43.0 (0)
 -->
<!-- Title: Ogre::ParticleAffector Pages: 1 -->
<svg width="444pt" height="343pt"
 viewBox="0.00 0.00 443.90 343.00" xmlns="http://www.w3.org/2000/svg" xmlns:xlink="http://www.w3.org/1999/xlink">
<g id="graph0" class="graph" transform="scale(1 1) rotate(0) translate(4 339)">
<title>Ogre::ParticleAffector</title>
<!-- Node1 -->
<g id="node1" class="node">
<title>Node1</title>
<g id="a_node1"><a xlink:title="Abstract class defining the interface to be implemented by particle affectors.">
<polygon fill="#bfbfbf" stroke="black" points="144.82,-158.5 144.82,-176.5 256.24,-176.5 256.24,-158.5 144.82,-158.5"/>
<text text-anchor="middle" x="200.53" y="-164.5" font-family="Helvetica,sans-Serif" font-size="10.00">Ogre::ParticleAffector</text>
</a>
</g>
</g>
<!-- Node4 -->
<g id="node4" class="node">
<title>Node4</title>
<g id="a_node4"><a xlink:href="class_ogre_1_1_colour_fader_affector.html" target="_top" xlink:title="This plugin subclass of ParticleAffector allows you to alter the colour of particles.">
<polygon fill="none" stroke="black" points="297.24,-316.5 297.24,-334.5 430.89,-334.5 430.89,-316.5 297.24,-316.5"/>
<text text-anchor="middle" x="364.07" y="-322.5" font-family="Helvetica,sans-Serif" font-size="10.00">Ogre::ColourFaderAffector</text>
</a>
</g>
</g>
<!-- Node1&#45;&gt;Node4 -->
<g id="edge3" class="edge">
<title>Node1&#45;&gt;Node4</title>
<path fill="none" stroke="midnightblue" d="M208.34,-186.1C220.4,-216.38 248.46,-276.09 292.24,-307.5 297.39,-311.2 303.23,-314.14 309.3,-316.48"/>
<polygon fill="midnightblue" stroke="midnightblue" points="211.59,-184.8 204.74,-176.72 205.05,-187.31 211.59,-184.8"/>
</g>
<!-- Node5 -->
<g id="node5" class="node">
<title>Node5</title>
<g id="a_node5"><a xlink:href="class_ogre_1_1_colour_fader_affector2.html" target="_top" xlink:title="This plugin subclass of ParticleAffector allows you to alter the colour of particles.">
<polygon fill="none" stroke="black" points="294.46,-279.5 294.46,-297.5 433.67,-297.5 433.67,-279.5 294.46,-279.5"/>
<text text-anchor="middle" x="364.07" y="-285.5" font-family="Helvetica,sans-Serif" font-size="10.00">Ogre::ColourFaderAffector2</text>
</a>
</g>
</g>
<!-- Node1&#45;&gt;Node5 -->
<g id="edge4" class="edge">
<title>Node1&#45;&gt;Node5</title>
<path fill="none" stroke="midnightblue" d="M212.14,-185.07C227.08,-208.24 256.5,-248.65 292.24,-270.5 298.3,-274.21 305.1,-277.15 312.02,-279.49"/>
<polygon fill="midnightblue" stroke="midnightblue" points="215.09,-183.18 206.82,-176.56 209.16,-186.89 215.09,-183.18"/>
</g>
<!-- Node6 -->
<g id="node6" class="node">
<title>Node6</title>
<g id="a_node6"><a xlink:href="class_ogre_1_1_colour_image_affector.html" target="_top" xlink:title=" ">
<polygon fill="none" stroke="black" points="296.41,-242.5 296.41,-260.5 431.73,-260.5 431.73,-242.5 296.41,-242.5"/>
<text text-anchor="middle" x="364.07" y="-248.5" font-family="Helvetica,sans-Serif" font-size="10.00">Ogre::ColourImageAffector</text>
</a>
</g>
</g>
<!-- Node1&#45;&gt;Node6 -->
<g id="edge5" class="edge">
<title>Node1&#45;&gt;Node6</title>
<path fill="none" stroke="midnightblue" d="M218.94,-183.33C236.31,-198.31 264.36,-220.41 292.24,-233.5 299.93,-237.11 308.45,-240.07 316.84,-242.46"/>
<polygon fill="midnightblue" stroke="midnightblue" points="221.14,-180.6 211.32,-176.61 216.51,-185.85 221.14,-180.6"/>
</g>
<!-- Node7 -->
<g id="node7" class="node">
<title>Node7</title>
<g id="a_node7"><a xlink:href="class_ogre_1_1_colour_interpolator_affector.html" target="_top" xlink:title=" ">
<polygon fill="none" stroke="black" points="302.15,-195.5 302.15,-223.5 425.98,-223.5 425.98,-195.5 302.15,-195.5"/>
<text text-anchor="start" x="310.15" y="-211.5" font-family="Helvetica,sans-Serif" font-size="10.00">Ogre::ColourInterpolator</text>
<text text-anchor="middle" x="364.07" y="-201.5" font-family="Helvetica,sans-Serif" font-size="10.00">Affector</text>
</a>
</g>
</g>
<!-- Node1&#45;&gt;Node7 -->
<g id="edge6" class="edge">
<title>Node1&#45;&gt;Node7</title>
<path fill="none" stroke="midnightblue" d="M246.03,-179.07C265.53,-184.14 288.6,-190.14 309.08,-195.46"/>
<polygon fill="midnightblue" stroke="midnightblue" points="246.74,-175.64 236.18,-176.51 244.98,-182.41 246.74,-175.64"/>
</g>
<!-- Node8 -->
<g id="node8" class="node">
<title>Node8</title>
<g id="a_node8"><a xlink:href="class_ogre_1_1_deflector_plane_affector.html" target="_top" xlink:title="This class defines a ParticleAffector which deflects particles.">
<polygon fill="none" stroke="black" points="292.24,-158.5 292.24,-176.5 435.9,-176.5 435.9,-158.5 292.24,-158.5"/>
<text text-anchor="middle" x="364.07" y="-164.5" font-family="Helvetica,sans-Serif" font-size="10.00">Ogre::DeflectorPlaneAffector</text>
</a>
</g>
</g>
<!-- Node1&#45;&gt;Node8 -->
<g id="edge7" class="edge">
<title>Node1&#45;&gt;Node8</title>
<path fill="none" stroke="midnightblue" d="M266.74,-167.5C275.12,-167.5 283.72,-167.5 292.18,-167.5"/>
<polygon fill="midnightblue" stroke="midnightblue" points="266.67,-164 256.67,-167.5 266.67,-171 266.67,-164"/>
</g>
<!-- Node9 -->
<g id="node9" class="node">
<title>Node9</title>
<g id="a_node9"><a xlink:href="class_ogre_1_1_direction_randomiser_affector.html" target="_top" xlink:title="This class defines a ParticleAffector which applies randomness to the movement of the particles.">
<polygon fill="none" stroke="black" points="295.49,-111.5 295.49,-139.5 432.65,-139.5 432.65,-111.5 295.49,-111.5"/>
<text text-anchor="start" x="303.49" y="-127.5" font-family="Helvetica,sans-Serif" font-size="10.00">Ogre::DirectionRandomiser</text>
<text text-anchor="middle" x="364.07" y="-117.5" font-family="Helvetica,sans-Serif" font-size="10.00">Affector</text>
</a>
</g>
</g>
<!-- Node1&#45;&gt;Node9 -->
<g id="edge8" class="edge">
<title>Node1&#45;&gt;Node9</title>
<path fill="none" stroke="midnightblue" d="M246.03,-155.93C265.53,-150.86 288.6,-144.86 309.08,-139.54"/>
<polygon fill="midnightblue" stroke="midnightblue" points="244.98,-152.59 236.18,-158.49 246.74,-159.36 244.98,-152.59"/>
</g>
<!-- Node10 -->
<g id="node10" class="node">
<title>Node10</title>
<g id="a_node10"><a xlink:href="class_ogre_1_1_linear_force_affector.html" target="_top" xlink:title="This class defines a ParticleAffector which applies a linear force to particles in a system.">
<polygon fill="none" stroke="black" points="298.35,-74.5 298.35,-92.5 429.78,-92.5 429.78,-74.5 298.35,-74.5"/>
<text text-anchor="middle" x="364.07" y="-80.5" font-family="Helvetica,sans-Serif" font-size="10.00">Ogre::LinearForceAffector</text>
</a>
</g>
</g>
<!-- Node1&#45;&gt;Node10 -->
<g id="edge9" class="edge">
<title>Node1&#45;&gt;Node10</title>
<path fill="none" stroke="midnightblue" d="M218.94,-151.67C236.31,-136.69 264.36,-114.59 292.24,-101.5 299.93,-97.89 308.45,-94.93 316.84,-92.54"/>
<polygon fill="midnightblue" stroke="midnightblue" points="216.51,-149.15 211.32,-158.39 221.14,-154.4 216.51,-149.15"/>
</g>
<!-- Node11 -->
<g id="node11" class="node">
<title>Node11</title>
<g id="a_node11"><a xlink:href="class_ogre_1_1_rotation_affector.html" target="_top" xlink:title="This plugin subclass of ParticleAffector allows you to alter the rotation of particles.">
<polygon fill="none" stroke="black" points="306.41,-37.5 306.41,-55.5 421.73,-55.5 421.73,-37.5 306.41,-37.5"/>
<text text-anchor="middle" x="364.07" y="-43.5" font-family="Helvetica,sans-Serif" font-size="10.00">Ogre::RotationAffector</text>
</a>
</g>
</g>
<!-- Node1&#45;&gt;Node11 -->
<g id="edge10" class="edge">
<title>Node1&#45;&gt;Node11</title>
<path fill="none" stroke="midnightblue" d="M212.14,-149.93C227.08,-126.76 256.5,-86.35 292.24,-64.5 298.3,-60.79 305.1,-57.85 312.02,-55.51"/>
<polygon fill="midnightblue" stroke="midnightblue" points="209.16,-148.11 206.82,-158.44 215.09,-151.82 209.16,-148.11"/>
</g>
<!-- Node12 -->
<g id="node12" class="node">
<title>Node12</title>
<g id="a_node12"><a xlink:href="class_ogre_1_1_scale_affector.html" target="_top" xlink:title="This plugin subclass of ParticleAffector allows you to alter the scale of particles.">
<polygon fill="none" stroke="black" points="312.53,-0.5 312.53,-18.5 415.61,-18.5 415.61,-0.5 312.53,-0.5"/>
<text text-anchor="middle" x="364.07" y="-6.5" font-family="Helvetica,sans-Serif" font-size="10.00">Ogre::ScaleAffector</text>
</a>
</g>
</g>
<!-- Node1&#45;&gt;Node12 -->
<g id="edge11" class="edge">
<title>Node1&#45;&gt;Node12</title>
<path fill="none" stroke="midnightblue" d="M208.34,-148.9C220.4,-118.62 248.46,-58.91 292.24,-27.5 298.22,-23.21 305.12,-19.94 312.23,-17.45"/>
<polygon fill="midnightblue" stroke="midnightblue" points="205.05,-147.69 204.74,-158.28 211.59,-150.2 205.05,-147.69"/>
</g>
<!-- Node2 -->
<g id="node2" class="node">
<title>Node2</title>
<g id="a_node2"><a xlink:href="class_ogre_1_1_string_interface.html" target="_top" xlink:title="Class defining the common interface which classes can use to present a reflection&#45;style,...">
<polygon fill="none" stroke="black" points="0,-177.5 0,-195.5 108.82,-195.5 108.82,-177.5 0,-177.5"/>
<text text-anchor="middle" x="54.41" y="-183.5" font-family="Helvetica,sans-Serif" font-size="10.00">Ogre::StringInterface</text>
</a>
</g>
</g>
<!-- Node2&#45;&gt;Node1 -->
<g id="edge1" class="edge">
<title>Node2&#45;&gt;Node1</title>
<path fill="none" stroke="midnightblue" d="M119.21,-178.09C127.6,-176.98 136.14,-175.86 144.38,-174.77"/>
<polygon fill="midnightblue" stroke="midnightblue" points="118.53,-174.65 109.08,-179.43 119.45,-181.59 118.53,-174.65"/>
</g>
<!-- Node3 -->
<g id="node3" class="node">
<title>Node3</title>
<g id="a_node3"><a xlink:href="class_ogre_1_1_allocated_object.html" target="_top" xlink:title="Superclass for all objects that wish to use custom memory allocators when their new / delete operator...">
<polygon fill="none" stroke="black" points="29.18,-140.5 29.18,-158.5 79.64,-158.5 79.64,-140.5 29.18,-140.5"/>
<text text-anchor="middle" x="54.41" y="-146.5" font-family="Helvetica,sans-Serif" font-size="10.00">FXAlloc</text>
</a>
</g>
</g>
<!-- Node3&#45;&gt;Node1 -->
<g id="edge2" class="edge">
<title>Node3&#45;&gt;Node1</title>
<path fill="none" stroke="midnightblue" d="M90.05,-153.83C106.42,-155.87 126.35,-158.36 144.7,-160.65"/>
<polygon fill="midnightblue" stroke="midnightblue" points="90.22,-150.32 79.86,-152.55 89.35,-157.27 90.22,-150.32"/>
</g>
</g>
</svg>
