<?xml version="1.0" encoding="UTF-8" standalone="no"?>
<!DOCTYPE svg PUBLIC "-//W3C//DTD SVG 1.1//EN"
 "http://www.w3.org/Graphics/SVG/1.1/DTD/svg11.dtd">
<!-- Generated by graphviz version 2.43.0 (0)
 -->
<!-- Title: Ogre::APKFileSystemArchiveFactory Pages: 1 -->
<svg width="240pt" height="147pt"
 viewBox="0.00 0.00 239.87 147.00" xmlns="http://www.w3.org/2000/svg" xmlns:xlink="http://www.w3.org/1999/xlink">
<g id="graph0" class="graph" transform="scale(1 1) rotate(0) translate(4 143)">
<title>Ogre::APKFileSystemArchiveFactory</title>
<!-- Node1 -->
<g id="node1" class="node">
<title>Node1</title>
<g id="a_node1"><a xlink:title=" ">
<polygon fill="#bfbfbf" stroke="black" points="60.06,-0.5 60.06,-28.5 206.66,-28.5 206.66,-0.5 60.06,-0.5"/>
<text text-anchor="start" x="68.06" y="-16.5" font-family="Helvetica,sans-Serif" font-size="10.00">Ogre::APKFileSystemArchive</text>
<text text-anchor="middle" x="133.36" y="-6.5" font-family="Helvetica,sans-Serif" font-size="10.00">Factory</text>
</a>
</g>
</g>
<!-- Node2 -->
<g id="node2" class="node">
<title>Node2</title>
<g id="a_node2"><a xlink:href="class_ogre_1_1_archive_factory.html" target="_top" xlink:title="Abstract factory class, archive codec plugins can register concrete subclasses of this.">
<polygon fill="none" stroke="black" points="78.13,-65.5 78.13,-83.5 188.6,-83.5 188.6,-65.5 78.13,-65.5"/>
<text text-anchor="middle" x="133.36" y="-71.5" font-family="Helvetica,sans-Serif" font-size="10.00">Ogre::ArchiveFactory</text>
</a>
</g>
</g>
<!-- Node2&#45;&gt;Node1 -->
<g id="edge1" class="edge">
<title>Node2&#45;&gt;Node1</title>
<path fill="none" stroke="midnightblue" d="M133.36,-55.32C133.36,-46.75 133.36,-36.7 133.36,-28.84"/>
<polygon fill="midnightblue" stroke="midnightblue" points="129.86,-55.44 133.36,-65.44 136.86,-55.44 129.86,-55.44"/>
</g>
<!-- Node3 -->
<g id="node3" class="node">
<title>Node3</title>
<g id="a_node3"><a xlink:href="class_ogre_1_1_factory_obj.html" target="_top" xlink:title=" ">
<polygon fill="none" stroke="black" points="0,-120.5 0,-138.5 142.72,-138.5 142.72,-120.5 0,-120.5"/>
<text text-anchor="middle" x="71.36" y="-126.5" font-family="Helvetica,sans-Serif" font-size="10.00">Ogre::FactoryObj&lt; Archive &gt;</text>
</a>
</g>
</g>
<!-- Node3&#45;&gt;Node2 -->
<g id="edge2" class="edge">
<title>Node3&#45;&gt;Node2</title>
<path fill="none" stroke="midnightblue" d="M88.41,-113.93C99.83,-104.16 114.45,-91.67 123.86,-83.63"/>
<polygon fill="midnightblue" stroke="midnightblue" points="86.11,-111.29 80.78,-120.45 90.65,-116.61 86.11,-111.29"/>
</g>
<!-- Node4 -->
<g id="node4" class="node">
<title>Node4</title>
<g id="a_node4"><a xlink:href="class_ogre_1_1_allocated_object.html" target="_top" xlink:title="Superclass for all objects that wish to use custom memory allocators when their new / delete operator...">
<polygon fill="none" stroke="black" points="160.85,-120.5 160.85,-138.5 231.87,-138.5 231.87,-120.5 160.85,-120.5"/>
<text text-anchor="middle" x="196.36" y="-126.5" font-family="Helvetica,sans-Serif" font-size="10.00">ArchiveAlloc</text>
</a>
</g>
</g>
<!-- Node4&#45;&gt;Node2 -->
<g id="edge3" class="edge">
<title>Node4&#45;&gt;Node2</title>
<path fill="none" stroke="midnightblue" d="M179.04,-113.93C167.43,-104.16 152.58,-91.67 143.02,-83.63"/>
<polygon fill="midnightblue" stroke="midnightblue" points="176.89,-116.69 186.79,-120.45 181.39,-111.33 176.89,-116.69"/>
</g>
</g>
</svg>
