<?xml version="1.0" encoding="UTF-8" standalone="no"?>
<!DOCTYPE svg PUBLIC "-//W3C//DTD SVG 1.1//EN"
 "http://www.w3.org/Graphics/SVG/1.1/DTD/svg11.dtd">
<!-- Generated by graphviz version 2.43.0 (0)
 -->
<!-- Title: Ogre::TextureGpuManagerListener Pages: 1 -->
<svg width="179pt" height="147pt"
 viewBox="0.00 0.00 178.53 147.00" xmlns="http://www.w3.org/2000/svg" xmlns:xlink="http://www.w3.org/1999/xlink">
<g id="graph0" class="graph" transform="scale(1 1) rotate(0) translate(4 143)">
<title>Ogre::TextureGpuManagerListener</title>
<!-- Node1 -->
<g id="node1" class="node">
<title>Node1</title>
<g id="a_node1"><a xlink:title=" ">
<polygon fill="#bfbfbf" stroke="black" points="0,-65.5 0,-83.5 170.53,-83.5 170.53,-65.5 0,-65.5"/>
<text text-anchor="middle" x="85.26" y="-71.5" font-family="Helvetica,sans-Serif" font-size="10.00">Ogre::TextureGpuManagerListener</text>
</a>
</g>
</g>
<!-- Node3 -->
<g id="node3" class="node">
<title>Node3</title>
<g id="a_node3"><a xlink:href="class_ogre_1_1_default_texture_gpu_manager_listener.html" target="_top" xlink:title="This is a Default implementation of TextureGpuManagerListener based on heuristics.">
<polygon fill="none" stroke="black" points="1.95,-0.5 1.95,-28.5 168.58,-28.5 168.58,-0.5 1.95,-0.5"/>
<text text-anchor="start" x="9.95" y="-16.5" font-family="Helvetica,sans-Serif" font-size="10.00">Ogre::DefaultTextureGpuManager</text>
<text text-anchor="middle" x="85.26" y="-6.5" font-family="Helvetica,sans-Serif" font-size="10.00">Listener</text>
</a>
</g>
</g>
<!-- Node1&#45;&gt;Node3 -->
<g id="edge2" class="edge">
<title>Node1&#45;&gt;Node3</title>
<path fill="none" stroke="midnightblue" d="M85.26,-55.32C85.26,-46.75 85.26,-36.7 85.26,-28.84"/>
<polygon fill="midnightblue" stroke="midnightblue" points="81.76,-55.44 85.26,-65.44 88.76,-55.44 81.76,-55.44"/>
</g>
<!-- Node2 -->
<g id="node2" class="node">
<title>Node2</title>
<g id="a_node2"><a xlink:href="class_ogre_1_1_texture_gpu_listener.html" target="_top" xlink:title=" ">
<polygon fill="none" stroke="black" points="19.73,-120.5 19.73,-138.5 150.79,-138.5 150.79,-120.5 19.73,-120.5"/>
<text text-anchor="middle" x="85.26" y="-126.5" font-family="Helvetica,sans-Serif" font-size="10.00">Ogre::TextureGpuListener</text>
</a>
</g>
</g>
<!-- Node2&#45;&gt;Node1 -->
<g id="edge1" class="edge">
<title>Node2&#45;&gt;Node1</title>
<path fill="none" stroke="midnightblue" d="M85.26,-110.17C85.26,-101.09 85.26,-90.59 85.26,-83.55"/>
<polygon fill="midnightblue" stroke="midnightblue" points="81.76,-110.22 85.26,-120.22 88.76,-110.22 81.76,-110.22"/>
</g>
</g>
</svg>
