<?xml version="1.0" encoding="UTF-8" standalone="no"?>
<!DOCTYPE svg PUBLIC "-//W3C//DTD SVG 1.1//EN"
 "http://www.w3.org/Graphics/SVG/1.1/DTD/svg11.dtd">
<!-- Generated by graphviz version 2.43.0 (0)
 -->
<!-- Title: Ogre::v1::DefaultHardwareBufferManagerBase Pages: 1 -->
<svg width="143pt" height="157pt"
 viewBox="0.00 0.00 142.94 157.00" xmlns="http://www.w3.org/2000/svg" xmlns:xlink="http://www.w3.org/1999/xlink">
<g id="graph0" class="graph" transform="scale(1 1) rotate(0) translate(4 153)">
<title>Ogre::v1::DefaultHardwareBufferManagerBase</title>
<!-- Node1 -->
<g id="node1" class="node">
<title>Node1</title>
<g id="a_node1"><a xlink:title="Specialisation of HardwareBufferManagerBase to emulate hardware buffers.">
<polygon fill="#bfbfbf" stroke="black" points="0,-0.5 0,-28.5 134.94,-28.5 134.94,-0.5 0,-0.5"/>
<text text-anchor="start" x="8" y="-16.5" font-family="Helvetica,sans-Serif" font-size="10.00">Ogre::v1::DefaultHardware</text>
<text text-anchor="middle" x="67.47" y="-6.5" font-family="Helvetica,sans-Serif" font-size="10.00">BufferManagerBase</text>
</a>
</g>
</g>
<!-- Node2 -->
<g id="node2" class="node">
<title>Node2</title>
<g id="a_node2"><a xlink:href="class_ogre_1_1v1_1_1_hardware_buffer_manager_base.html" target="_top" xlink:title="Base definition of a hardware buffer manager.">
<polygon fill="none" stroke="black" points="2.59,-65.5 2.59,-93.5 132.35,-93.5 132.35,-65.5 2.59,-65.5"/>
<text text-anchor="start" x="10.59" y="-81.5" font-family="Helvetica,sans-Serif" font-size="10.00">Ogre::v1::HardwareBuffer</text>
<text text-anchor="middle" x="67.47" y="-71.5" font-family="Helvetica,sans-Serif" font-size="10.00">ManagerBase</text>
</a>
</g>
</g>
<!-- Node2&#45;&gt;Node1 -->
<g id="edge1" class="edge">
<title>Node2&#45;&gt;Node1</title>
<path fill="none" stroke="midnightblue" d="M67.47,-55.16C67.47,-46.17 67.47,-36.22 67.47,-28.54"/>
<polygon fill="midnightblue" stroke="midnightblue" points="63.97,-55.45 67.47,-65.45 70.97,-55.45 63.97,-55.45"/>
</g>
<!-- Node3 -->
<g id="node3" class="node">
<title>Node3</title>
<g id="a_node3"><a xlink:href="class_ogre_1_1_allocated_object.html" target="_top" xlink:title="Superclass for all objects that wish to use custom memory allocators when their new / delete operator...">
<polygon fill="none" stroke="black" points="35.38,-130.5 35.38,-148.5 99.56,-148.5 99.56,-130.5 35.38,-130.5"/>
<text text-anchor="middle" x="67.47" y="-136.5" font-family="Helvetica,sans-Serif" font-size="10.00">BufferAlloc</text>
</a>
</g>
</g>
<!-- Node3&#45;&gt;Node2 -->
<g id="edge2" class="edge">
<title>Node3&#45;&gt;Node2</title>
<path fill="none" stroke="midnightblue" d="M67.47,-120.32C67.47,-111.75 67.47,-101.7 67.47,-93.84"/>
<polygon fill="midnightblue" stroke="midnightblue" points="63.97,-120.44 67.47,-130.44 70.97,-120.44 63.97,-120.44"/>
</g>
</g>
</svg>
