<?xml version="1.0" encoding="UTF-8" standalone="no"?>
<!DOCTYPE svg PUBLIC "-//W3C//DTD SVG 1.1//EN"
 "http://www.w3.org/Graphics/SVG/1.1/DTD/svg11.dtd">
<!-- Generated by graphviz version 2.43.0 (0)
 -->
<!-- Title: Ogre::v1::MetalHardwareBufferManager Pages: 1 -->
<svg width="294pt" height="222pt"
 viewBox="0.00 0.00 293.61 222.00" xmlns="http://www.w3.org/2000/svg" xmlns:xlink="http://www.w3.org/1999/xlink">
<g id="graph0" class="graph" transform="scale(1 1) rotate(0) translate(4 218)">
<title>Ogre::v1::MetalHardwareBufferManager</title>
<!-- Node1 -->
<g id="node1" class="node">
<title>Node1</title>
<g id="a_node1"><a xlink:title="MetalHardwareBufferManagerBase as a Singleton.">
<polygon fill="#bfbfbf" stroke="black" points="63.77,-0.5 63.77,-28.5 217.99,-28.5 217.99,-0.5 63.77,-0.5"/>
<text text-anchor="start" x="71.77" y="-16.5" font-family="Helvetica,sans-Serif" font-size="10.00">Ogre::v1::MetalHardwareBuffer</text>
<text text-anchor="middle" x="140.88" y="-6.5" font-family="Helvetica,sans-Serif" font-size="10.00">Manager</text>
</a>
</g>
</g>
<!-- Node2 -->
<g id="node2" class="node">
<title>Node2</title>
<g id="a_node2"><a xlink:href="class_ogre_1_1v1_1_1_hardware_buffer_manager.html" target="_top" xlink:title="Singleton wrapper for hardware buffer manager.">
<polygon fill="none" stroke="black" points="76,-65.5 76,-93.5 205.76,-93.5 205.76,-65.5 76,-65.5"/>
<text text-anchor="start" x="84" y="-81.5" font-family="Helvetica,sans-Serif" font-size="10.00">Ogre::v1::HardwareBuffer</text>
<text text-anchor="middle" x="140.88" y="-71.5" font-family="Helvetica,sans-Serif" font-size="10.00">Manager</text>
</a>
</g>
</g>
<!-- Node2&#45;&gt;Node1 -->
<g id="edge1" class="edge">
<title>Node2&#45;&gt;Node1</title>
<path fill="none" stroke="midnightblue" d="M140.88,-55.16C140.88,-46.17 140.88,-36.22 140.88,-28.54"/>
<polygon fill="midnightblue" stroke="midnightblue" points="137.38,-55.45 140.88,-65.45 144.38,-55.45 137.38,-55.45"/>
</g>
<!-- Node3 -->
<g id="node3" class="node">
<title>Node3</title>
<g id="a_node3"><a xlink:href="class_ogre_1_1v1_1_1_hardware_buffer_manager_base.html" target="_top" xlink:title="Base definition of a hardware buffer manager.">
<polygon fill="none" stroke="black" points="0,-130.5 0,-158.5 129.76,-158.5 129.76,-130.5 0,-130.5"/>
<text text-anchor="start" x="8" y="-146.5" font-family="Helvetica,sans-Serif" font-size="10.00">Ogre::v1::HardwareBuffer</text>
<text text-anchor="middle" x="64.88" y="-136.5" font-family="Helvetica,sans-Serif" font-size="10.00">ManagerBase</text>
</a>
</g>
</g>
<!-- Node3&#45;&gt;Node2 -->
<g id="edge2" class="edge">
<title>Node3&#45;&gt;Node2</title>
<path fill="none" stroke="midnightblue" d="M88.46,-123.95C100.4,-114.06 114.56,-102.32 125.15,-93.54"/>
<polygon fill="midnightblue" stroke="midnightblue" points="86.09,-121.37 80.63,-130.45 90.56,-126.76 86.09,-121.37"/>
</g>
<!-- Node4 -->
<g id="node4" class="node">
<title>Node4</title>
<g id="a_node4"><a xlink:href="class_ogre_1_1_allocated_object.html" target="_top" xlink:title="Superclass for all objects that wish to use custom memory allocators when their new / delete operator...">
<polygon fill="none" stroke="black" points="32.79,-195.5 32.79,-213.5 96.97,-213.5 96.97,-195.5 32.79,-195.5"/>
<text text-anchor="middle" x="64.88" y="-201.5" font-family="Helvetica,sans-Serif" font-size="10.00">BufferAlloc</text>
</a>
</g>
</g>
<!-- Node4&#45;&gt;Node3 -->
<g id="edge3" class="edge">
<title>Node4&#45;&gt;Node3</title>
<path fill="none" stroke="midnightblue" d="M64.88,-185.32C64.88,-176.75 64.88,-166.7 64.88,-158.84"/>
<polygon fill="midnightblue" stroke="midnightblue" points="61.38,-185.44 64.88,-195.44 68.38,-185.44 61.38,-185.44"/>
</g>
<!-- Node5 -->
<g id="node5" class="node">
<title>Node5</title>
<g id="a_node5"><a xlink:href="class_ogre_1_1_singleton.html" target="_top" xlink:title=" ">
<polygon fill="none" stroke="black" points="148.15,-130.5 148.15,-158.5 285.61,-158.5 285.61,-130.5 148.15,-130.5"/>
<text text-anchor="start" x="156.15" y="-146.5" font-family="Helvetica,sans-Serif" font-size="10.00">Ogre::Singleton&lt; Hardware</text>
<text text-anchor="middle" x="216.88" y="-136.5" font-family="Helvetica,sans-Serif" font-size="10.00">BufferManager &gt;</text>
</a>
</g>
</g>
<!-- Node5&#45;&gt;Node2 -->
<g id="edge4" class="edge">
<title>Node5&#45;&gt;Node2</title>
<path fill="none" stroke="midnightblue" d="M193.3,-123.95C181.36,-114.06 167.2,-102.32 156.61,-93.54"/>
<polygon fill="midnightblue" stroke="midnightblue" points="191.2,-126.76 201.13,-130.45 195.67,-121.37 191.2,-126.76"/>
</g>
</g>
</svg>
