<?xml version="1.0" encoding="UTF-8" standalone="no"?>
<!DOCTYPE svg PUBLIC "-//W3C//DTD SVG 1.1//EN"
 "http://www.w3.org/Graphics/SVG/1.1/DTD/svg11.dtd">
<!-- Generated by graphviz version 2.43.0 (0)
 -->
<!-- Title: Ogre::X11EGLContext Pages: 1 -->
<svg width="123pt" height="137pt"
 viewBox="0.00 0.00 123.32 137.00" xmlns="http://www.w3.org/2000/svg" xmlns:xlink="http://www.w3.org/1999/xlink">
<g id="graph0" class="graph" transform="scale(1 1) rotate(0) translate(4 133)">
<title>Ogre::X11EGLContext</title>
<!-- Node1 -->
<g id="node1" class="node">
<title>Node1</title>
<g id="a_node1"><a xlink:title=" ">
<polygon fill="#bfbfbf" stroke="black" points="0,-0.5 0,-18.5 115.32,-18.5 115.32,-0.5 0,-0.5"/>
<text text-anchor="middle" x="57.66" y="-6.5" font-family="Helvetica,sans-Serif" font-size="10.00">Ogre::X11EGLContext</text>
</a>
</g>
</g>
<!-- Node2 -->
<g id="node2" class="node">
<title>Node2</title>
<g id="a_node2"><a xlink:href="class_ogre_1_1_e_g_l_context.html" target="_top" xlink:title=" ">
<polygon fill="none" stroke="black" points="8.53,-55.5 8.53,-73.5 106.79,-73.5 106.79,-55.5 8.53,-55.5"/>
<text text-anchor="middle" x="57.66" y="-61.5" font-family="Helvetica,sans-Serif" font-size="10.00">Ogre::EGLContext</text>
</a>
</g>
</g>
<!-- Node2&#45;&gt;Node1 -->
<g id="edge1" class="edge">
<title>Node2&#45;&gt;Node1</title>
<path fill="none" stroke="midnightblue" d="M57.66,-45.17C57.66,-36.09 57.66,-25.59 57.66,-18.55"/>
<polygon fill="midnightblue" stroke="midnightblue" points="54.16,-45.22 57.66,-55.22 61.16,-45.22 54.16,-45.22"/>
</g>
<!-- Node3 -->
<g id="node3" class="node">
<title>Node3</title>
<g id="a_node3"><a xlink:href="class_ogre_1_1_g_l_e_s2_context.html" target="_top" xlink:title="Class that encapsulates an GL context.">
<polygon fill="none" stroke="black" points="2.41,-110.5 2.41,-128.5 112.9,-128.5 112.9,-110.5 2.41,-110.5"/>
<text text-anchor="middle" x="57.66" y="-116.5" font-family="Helvetica,sans-Serif" font-size="10.00">Ogre::GLES2Context</text>
</a>
</g>
</g>
<!-- Node3&#45;&gt;Node2 -->
<g id="edge2" class="edge">
<title>Node3&#45;&gt;Node2</title>
<path fill="none" stroke="midnightblue" d="M57.66,-100.17C57.66,-91.09 57.66,-80.59 57.66,-73.55"/>
<polygon fill="midnightblue" stroke="midnightblue" points="54.16,-100.22 57.66,-110.22 61.16,-100.22 54.16,-100.22"/>
</g>
</g>
</svg>
