<?xml version="1.0" encoding="UTF-8" standalone="no"?>
<!DOCTYPE svg PUBLIC "-//W3C//DTD SVG 1.1//EN"
 "http://www.w3.org/Graphics/SVG/1.1/DTD/svg11.dtd">
<!-- Generated by graphviz version 2.43.0 (0)
 -->
<!-- Title: Ogre::PageStrategy Pages: 1 -->
<svg width="298pt" height="137pt"
 viewBox="0.00 0.00 298.06 137.00" xmlns="http://www.w3.org/2000/svg" xmlns:xlink="http://www.w3.org/1999/xlink">
<g id="graph0" class="graph" transform="scale(1 1) rotate(0) translate(4 133)">
<title>Ogre::PageStrategy</title>
<!-- Node1 -->
<g id="node1" class="node">
<title>Node1</title>
<g id="a_node1"><a xlink:title="Defines the interface to a strategy class which is responsible for deciding when Page instances are r...">
<polygon fill="#bfbfbf" stroke="black" points="92.84,-55.5 92.84,-73.5 197.22,-73.5 197.22,-55.5 92.84,-55.5"/>
<text text-anchor="middle" x="145.03" y="-61.5" font-family="Helvetica,sans-Serif" font-size="10.00">Ogre::PageStrategy</text>
</a>
</g>
</g>
<!-- Node3 -->
<g id="node3" class="node">
<title>Node3</title>
<g id="a_node3"><a xlink:href="class_ogre_1_1_grid2_d_page_strategy.html" target="_top" xlink:title="Page strategy which loads new pages based on a regular 2D grid.">
<polygon fill="none" stroke="black" points="0,-0.5 0,-18.5 136.06,-18.5 136.06,-0.5 0,-0.5"/>
<text text-anchor="middle" x="68.03" y="-6.5" font-family="Helvetica,sans-Serif" font-size="10.00">Ogre::Grid2DPageStrategy</text>
</a>
</g>
</g>
<!-- Node1&#45;&gt;Node3 -->
<g id="edge2" class="edge">
<title>Node1&#45;&gt;Node3</title>
<path fill="none" stroke="midnightblue" d="M125.08,-49.77C110.73,-39.89 91.86,-26.9 79.83,-18.63"/>
<polygon fill="midnightblue" stroke="midnightblue" points="123.11,-52.66 133.33,-55.45 127.08,-46.9 123.11,-52.66"/>
</g>
<!-- Node4 -->
<g id="node4" class="node">
<title>Node4</title>
<g id="a_node4"><a xlink:href="class_ogre_1_1_grid3_d_page_strategy.html" target="_top" xlink:title="Page strategy which loads new pages based on a regular 3D grid.">
<polygon fill="none" stroke="black" points="154,-0.5 154,-18.5 290.06,-18.5 290.06,-0.5 154,-0.5"/>
<text text-anchor="middle" x="222.03" y="-6.5" font-family="Helvetica,sans-Serif" font-size="10.00">Ogre::Grid3DPageStrategy</text>
</a>
</g>
</g>
<!-- Node1&#45;&gt;Node4 -->
<g id="edge3" class="edge">
<title>Node1&#45;&gt;Node4</title>
<path fill="none" stroke="midnightblue" d="M164.97,-49.77C179.33,-39.89 198.2,-26.9 210.22,-18.63"/>
<polygon fill="midnightblue" stroke="midnightblue" points="162.98,-46.9 156.72,-55.45 166.95,-52.66 162.98,-46.9"/>
</g>
<!-- Node2 -->
<g id="node2" class="node">
<title>Node2</title>
<g id="a_node2"><a xlink:href="class_ogre_1_1_allocated_object.html" target="_top" xlink:title="Superclass for all objects that wish to use custom memory allocators when their new / delete operator...">
<polygon fill="none" stroke="black" points="114.51,-110.5 114.51,-128.5 175.54,-128.5 175.54,-110.5 114.51,-110.5"/>
<text text-anchor="middle" x="145.03" y="-116.5" font-family="Helvetica,sans-Serif" font-size="10.00">PageAlloc</text>
</a>
</g>
</g>
<!-- Node2&#45;&gt;Node1 -->
<g id="edge1" class="edge">
<title>Node2&#45;&gt;Node1</title>
<path fill="none" stroke="midnightblue" d="M145.03,-100.17C145.03,-91.09 145.03,-80.59 145.03,-73.55"/>
<polygon fill="midnightblue" stroke="midnightblue" points="141.53,-100.22 145.03,-110.22 148.53,-100.22 141.53,-100.22"/>
</g>
</g>
</svg>
