<?xml version="1.0" encoding="UTF-8" standalone="no"?>
<!DOCTYPE svg PUBLIC "-//W3C//DTD SVG 1.1//EN"
 "http://www.w3.org/Graphics/SVG/1.1/DTD/svg11.dtd">
<!-- Generated by graphviz version 2.43.0 (0)
 -->
<!-- Title: Ogre::Terrain::DefaultGpuBufferAllocator Pages: 1 -->
<svg width="138pt" height="157pt"
 viewBox="0.00 0.00 138.50 157.00" xmlns="http://www.w3.org/2000/svg" xmlns:xlink="http://www.w3.org/1999/xlink">
<g id="graph0" class="graph" transform="scale(1 1) rotate(0) translate(4 153)">
<title>Ogre::Terrain::DefaultGpuBufferAllocator</title>
<!-- Node1 -->
<g id="node1" class="node">
<title>Node1</title>
<g id="a_node1"><a xlink:title="Standard implementation of a buffer allocator which re&#45;uses buffers.">
<polygon fill="#bfbfbf" stroke="black" points="0,-0.5 0,-28.5 130.5,-28.5 130.5,-0.5 0,-0.5"/>
<text text-anchor="start" x="8" y="-16.5" font-family="Helvetica,sans-Serif" font-size="10.00">Ogre::Terrain::DefaultGpu</text>
<text text-anchor="middle" x="65.25" y="-6.5" font-family="Helvetica,sans-Serif" font-size="10.00">BufferAllocator</text>
</a>
</g>
</g>
<!-- Node2 -->
<g id="node2" class="node">
<title>Node2</title>
<g id="a_node2"><a xlink:href="class_ogre_1_1_terrain_1_1_gpu_buffer_allocator.html" target="_top" xlink:title="Interface used to by the Terrain instance to allocate GPU buffers.">
<polygon fill="none" stroke="black" points="2.59,-65.5 2.59,-93.5 127.91,-93.5 127.91,-65.5 2.59,-65.5"/>
<text text-anchor="start" x="10.59" y="-81.5" font-family="Helvetica,sans-Serif" font-size="10.00">Ogre::Terrain::GpuBuffer</text>
<text text-anchor="middle" x="65.25" y="-71.5" font-family="Helvetica,sans-Serif" font-size="10.00">Allocator</text>
</a>
</g>
</g>
<!-- Node2&#45;&gt;Node1 -->
<g id="edge1" class="edge">
<title>Node2&#45;&gt;Node1</title>
<path fill="none" stroke="midnightblue" d="M65.25,-55.16C65.25,-46.17 65.25,-36.22 65.25,-28.54"/>
<polygon fill="midnightblue" stroke="midnightblue" points="61.75,-55.45 65.25,-65.45 68.75,-55.45 61.75,-55.45"/>
</g>
<!-- Node3 -->
<g id="node3" class="node">
<title>Node3</title>
<g id="a_node3"><a xlink:href="class_ogre_1_1_allocated_object.html" target="_top" xlink:title="Superclass for all objects that wish to use custom memory allocators when their new / delete operator...">
<polygon fill="none" stroke="black" points="31.13,-130.5 31.13,-148.5 99.37,-148.5 99.37,-130.5 31.13,-130.5"/>
<text text-anchor="middle" x="65.25" y="-136.5" font-family="Helvetica,sans-Serif" font-size="10.00">TerrainAlloc</text>
</a>
</g>
</g>
<!-- Node3&#45;&gt;Node2 -->
<g id="edge2" class="edge">
<title>Node3&#45;&gt;Node2</title>
<path fill="none" stroke="midnightblue" d="M65.25,-120.32C65.25,-111.75 65.25,-101.7 65.25,-93.84"/>
<polygon fill="midnightblue" stroke="midnightblue" points="61.75,-120.44 65.25,-130.44 68.75,-120.44 61.75,-120.44"/>
</g>
</g>
</svg>
