<?xml version="1.0" encoding="UTF-8" standalone="no"?>
<!DOCTYPE svg PUBLIC "-//W3C//DTD SVG 1.1//EN"
 "http://www.w3.org/Graphics/SVG/1.1/DTD/svg11.dtd">
<!-- Generated by graphviz version 2.43.0 (0)
 -->
<!-- Title: Ogre::ShadowCameraSetup Pages: 1 -->
<svg width="325pt" height="267pt"
 viewBox="0.00 0.00 324.96 267.00" xmlns="http://www.w3.org/2000/svg" xmlns:xlink="http://www.w3.org/1999/xlink">
<g id="graph0" class="graph" transform="scale(1 1) rotate(0) translate(4 263)">
<title>Ogre::ShadowCameraSetup</title>
<!-- Node1 -->
<g id="node1" class="node">
<title>Node1</title>
<g id="a_node1"><a xlink:title="This class allows you to plug in new ways to define the camera setup when rendering and projecting sh...">
<polygon fill="#bfbfbf" stroke="black" points="95.17,-185.5 95.17,-203.5 236.79,-203.5 236.79,-185.5 95.17,-185.5"/>
<text text-anchor="middle" x="165.98" y="-191.5" font-family="Helvetica,sans-Serif" font-size="10.00">Ogre::ShadowCameraSetup</text>
</a>
</g>
</g>
<!-- Node3 -->
<g id="node3" class="node">
<title>Node3</title>
<g id="a_node3"><a xlink:href="class_ogre_1_1_default_shadow_camera_setup.html" target="_top" xlink:title="Implements default shadow camera setup.">
<polygon fill="none" stroke="black" points="11.39,-120.5 11.39,-148.5 158.57,-148.5 158.57,-120.5 11.39,-120.5"/>
<text text-anchor="start" x="19.39" y="-136.5" font-family="Helvetica,sans-Serif" font-size="10.00">Ogre::DefaultShadowCamera</text>
<text text-anchor="middle" x="84.98" y="-126.5" font-family="Helvetica,sans-Serif" font-size="10.00">Setup</text>
</a>
</g>
</g>
<!-- Node1&#45;&gt;Node3 -->
<g id="edge2" class="edge">
<title>Node1&#45;&gt;Node3</title>
<path fill="none" stroke="midnightblue" d="M146.39,-179.47C133.28,-170.08 116.14,-157.81 103.31,-148.62"/>
<polygon fill="midnightblue" stroke="midnightblue" points="144.55,-182.46 154.72,-185.44 148.63,-176.77 144.55,-182.46"/>
</g>
<!-- Node6 -->
<g id="node6" class="node">
<title>Node6</title>
<g id="a_node6"><a xlink:href="class_ogre_1_1_plane_optimal_shadow_camera_setup.html" target="_top" xlink:title="Implements the plane optimal shadow camera algorithm.">
<polygon fill="none" stroke="black" points="177,-120.5 177,-148.5 316.96,-148.5 316.96,-120.5 177,-120.5"/>
<text text-anchor="start" x="185" y="-136.5" font-family="Helvetica,sans-Serif" font-size="10.00">Ogre::PlaneOptimalShadow</text>
<text text-anchor="middle" x="246.98" y="-126.5" font-family="Helvetica,sans-Serif" font-size="10.00">CameraSetup</text>
</a>
</g>
</g>
<!-- Node1&#45;&gt;Node6 -->
<g id="edge5" class="edge">
<title>Node1&#45;&gt;Node6</title>
<path fill="none" stroke="midnightblue" d="M185.58,-179.47C198.68,-170.08 215.82,-157.81 228.66,-148.62"/>
<polygon fill="midnightblue" stroke="midnightblue" points="183.34,-176.77 177.25,-185.44 187.41,-182.46 183.34,-176.77"/>
</g>
<!-- Node2 -->
<g id="node2" class="node">
<title>Node2</title>
<g id="a_node2"><a xlink:href="class_ogre_1_1_allocated_object.html" target="_top" xlink:title="Superclass for all objects that wish to use custom memory allocators when their new / delete operator...">
<polygon fill="none" stroke="black" points="118.51,-240.5 118.51,-258.5 213.45,-258.5 213.45,-240.5 118.51,-240.5"/>
<text text-anchor="middle" x="165.98" y="-246.5" font-family="Helvetica,sans-Serif" font-size="10.00">ShadowDataAlloc</text>
</a>
</g>
</g>
<!-- Node2&#45;&gt;Node1 -->
<g id="edge1" class="edge">
<title>Node2&#45;&gt;Node1</title>
<path fill="none" stroke="midnightblue" d="M165.98,-230.17C165.98,-221.09 165.98,-210.59 165.98,-203.55"/>
<polygon fill="midnightblue" stroke="midnightblue" points="162.48,-230.22 165.98,-240.22 169.48,-230.22 162.48,-230.22"/>
</g>
<!-- Node4 -->
<g id="node4" class="node">
<title>Node4</title>
<g id="a_node4"><a xlink:href="class_ogre_1_1_focused_shadow_camera_setup.html" target="_top" xlink:title="Implements the uniform shadow mapping algorithm in focused mode.">
<polygon fill="none" stroke="black" points="8.06,-55.5 8.06,-83.5 161.91,-83.5 161.91,-55.5 8.06,-55.5"/>
<text text-anchor="start" x="16.06" y="-71.5" font-family="Helvetica,sans-Serif" font-size="10.00">Ogre::FocusedShadowCamera</text>
<text text-anchor="middle" x="84.98" y="-61.5" font-family="Helvetica,sans-Serif" font-size="10.00">Setup</text>
</a>
</g>
</g>
<!-- Node3&#45;&gt;Node4 -->
<g id="edge3" class="edge">
<title>Node3&#45;&gt;Node4</title>
<path fill="none" stroke="midnightblue" d="M84.98,-110.16C84.98,-101.17 84.98,-91.22 84.98,-83.54"/>
<polygon fill="midnightblue" stroke="midnightblue" points="81.48,-110.45 84.98,-120.45 88.48,-110.45 81.48,-110.45"/>
</g>
<!-- Node5 -->
<g id="node5" class="node">
<title>Node5</title>
<g id="a_node5"><a xlink:href="class_ogre_1_1_p_s_s_m_shadow_camera_setup.html" target="_top" xlink:title="Parallel Split Shadow Map (PSSM) shadow camera setup.">
<polygon fill="none" stroke="black" points="0,-0.5 0,-18.5 169.96,-18.5 169.96,-0.5 0,-0.5"/>
<text text-anchor="middle" x="84.98" y="-6.5" font-family="Helvetica,sans-Serif" font-size="10.00">Ogre::PSSMShadowCameraSetup</text>
</a>
</g>
</g>
<!-- Node4&#45;&gt;Node5 -->
<g id="edge4" class="edge">
<title>Node4&#45;&gt;Node5</title>
<path fill="none" stroke="midnightblue" d="M84.98,-45.32C84.98,-35.94 84.98,-25.7 84.98,-18.77"/>
<polygon fill="midnightblue" stroke="midnightblue" points="81.48,-45.34 84.98,-55.34 88.48,-45.34 81.48,-45.34"/>
</g>
</g>
</svg>
