<?xml version="1.0" encoding="UTF-8" standalone="no"?>
<!DOCTYPE svg PUBLIC "-//W3C//DTD SVG 1.1//EN"
 "http://www.w3.org/Graphics/SVG/1.1/DTD/svg11.dtd">
<!-- Generated by graphviz version 2.43.0 (0)
 -->
<!-- Title: Ogre::TextureUnitState Pages: 1 -->
<svg width="268pt" height="82pt"
 viewBox="0.00 0.00 268.33 82.00" xmlns="http://www.w3.org/2000/svg" xmlns:xlink="http://www.w3.org/1999/xlink">
<g id="graph0" class="graph" transform="scale(1 1) rotate(0) translate(4 78)">
<title>Ogre::TextureUnitState</title>
<!-- Node1 -->
<g id="node1" class="node">
<title>Node1</title>
<g id="a_node1"><a xlink:title="Class representing the state of a single texture unit during a Pass of a Technique,...">
<polygon fill="#bfbfbf" stroke="black" points="65.94,-0.5 65.94,-18.5 183.66,-18.5 183.66,-0.5 65.94,-0.5"/>
<text text-anchor="middle" x="124.8" y="-6.5" font-family="Helvetica,sans-Serif" font-size="10.00">Ogre::TextureUnitState</text>
</a>
</g>
</g>
<!-- Node2 -->
<g id="node2" class="node">
<title>Node2</title>
<g id="a_node2"><a xlink:href="class_ogre_1_1_allocated_object.html" target="_top" xlink:title="Superclass for all objects that wish to use custom memory allocators when their new / delete operator...">
<polygon fill="none" stroke="black" points="0,-55.5 0,-73.5 111.6,-73.5 111.6,-55.5 0,-55.5"/>
<text text-anchor="middle" x="55.8" y="-61.5" font-family="Helvetica,sans-Serif" font-size="10.00">TextureUnitStateAlloc</text>
</a>
</g>
</g>
<!-- Node2&#45;&gt;Node1 -->
<g id="edge1" class="edge">
<title>Node2&#45;&gt;Node1</title>
<path fill="none" stroke="midnightblue" d="M74.4,-49.21C87.17,-39.41 103.65,-26.75 114.22,-18.63"/>
<polygon fill="midnightblue" stroke="midnightblue" points="72.08,-46.58 66.28,-55.45 76.34,-52.13 72.08,-46.58"/>
</g>
<!-- Node3 -->
<g id="node3" class="node">
<title>Node3</title>
<g id="a_node3"><a xlink:href="class_ogre_1_1_texture_gpu_listener.html" target="_top" xlink:title=" ">
<polygon fill="none" stroke="black" points="129.27,-55.5 129.27,-73.5 260.33,-73.5 260.33,-55.5 129.27,-55.5"/>
<text text-anchor="middle" x="194.8" y="-61.5" font-family="Helvetica,sans-Serif" font-size="10.00">Ogre::TextureGpuListener</text>
</a>
</g>
</g>
<!-- Node3&#45;&gt;Node1 -->
<g id="edge2" class="edge">
<title>Node3&#45;&gt;Node1</title>
<path fill="none" stroke="midnightblue" d="M175.93,-49.21C162.98,-39.41 146.26,-26.75 135.53,-18.63"/>
<polygon fill="midnightblue" stroke="midnightblue" points="174.08,-52.2 184.17,-55.45 178.31,-46.62 174.08,-52.2"/>
</g>
</g>
</svg>
