<?xml version="1.0" encoding="UTF-8" standalone="no"?>
<!DOCTYPE svg PUBLIC "-//W3C//DTD SVG 1.1//EN"
 "http://www.w3.org/Graphics/SVG/1.1/DTD/svg11.dtd">
<!-- Generated by graphviz version 2.43.0 (0)
 -->
<!-- Title: Ogre::D3D9HLSLProgramFactory Pages: 1 -->
<svg width="174pt" height="147pt"
 viewBox="0.00 0.00 174.05 147.00" xmlns="http://www.w3.org/2000/svg" xmlns:xlink="http://www.w3.org/1999/xlink">
<g id="graph0" class="graph" transform="scale(1 1) rotate(0) translate(4 143)">
<title>Ogre::D3D9HLSLProgramFactory</title>
<!-- Node1 -->
<g id="node1" class="node">
<title>Node1</title>
<g id="a_node1"><a xlink:title="Factory class for D3D9 HLSL programs.">
<polygon fill="#bfbfbf" stroke="black" points="0,-0.5 0,-18.5 166.05,-18.5 166.05,-0.5 0,-0.5"/>
<text text-anchor="middle" x="83.03" y="-6.5" font-family="Helvetica,sans-Serif" font-size="10.00">Ogre::D3D9HLSLProgramFactory</text>
</a>
</g>
</g>
<!-- Node2 -->
<g id="node2" class="node">
<title>Node2</title>
<g id="a_node2"><a xlink:href="class_ogre_1_1_high_level_gpu_program_factory.html" target="_top" xlink:title="Interface definition for factories of HighLevelGpuProgram.">
<polygon fill="none" stroke="black" points="10.27,-55.5 10.27,-83.5 155.78,-83.5 155.78,-55.5 10.27,-55.5"/>
<text text-anchor="start" x="18.27" y="-71.5" font-family="Helvetica,sans-Serif" font-size="10.00">Ogre::HighLevelGpuProgram</text>
<text text-anchor="middle" x="83.03" y="-61.5" font-family="Helvetica,sans-Serif" font-size="10.00">Factory</text>
</a>
</g>
</g>
<!-- Node2&#45;&gt;Node1 -->
<g id="edge1" class="edge">
<title>Node2&#45;&gt;Node1</title>
<path fill="none" stroke="midnightblue" d="M83.03,-45.32C83.03,-35.94 83.03,-25.7 83.03,-18.77"/>
<polygon fill="midnightblue" stroke="midnightblue" points="79.53,-45.34 83.03,-55.34 86.53,-45.34 79.53,-45.34"/>
</g>
<!-- Node3 -->
<g id="node3" class="node">
<title>Node3</title>
<g id="a_node3"><a xlink:href="class_ogre_1_1_allocated_object.html" target="_top" xlink:title="Superclass for all objects that wish to use custom memory allocators when their new / delete operator...">
<polygon fill="none" stroke="black" points="47.52,-120.5 47.52,-138.5 118.53,-138.5 118.53,-120.5 47.52,-120.5"/>
<text text-anchor="middle" x="83.03" y="-126.5" font-family="Helvetica,sans-Serif" font-size="10.00">FactoryAlloc</text>
</a>
</g>
</g>
<!-- Node3&#45;&gt;Node2 -->
<g id="edge2" class="edge">
<title>Node3&#45;&gt;Node2</title>
<path fill="none" stroke="midnightblue" d="M83.03,-110.32C83.03,-101.75 83.03,-91.7 83.03,-83.84"/>
<polygon fill="midnightblue" stroke="midnightblue" points="79.53,-110.44 83.03,-120.44 86.53,-110.44 79.53,-110.44"/>
</g>
</g>
</svg>
