<?xml version="1.0" encoding="UTF-8" standalone="no"?>
<!DOCTYPE svg PUBLIC "-//W3C//DTD SVG 1.1//EN"
 "http://www.w3.org/Graphics/SVG/1.1/DTD/svg11.dtd">
<!-- Generated by graphviz version 2.43.0 (0)
 -->
<!-- Title: Ogre::v1::D3D11HardwareUniformBuffer Pages: 1 -->
<svg width="177pt" height="212pt"
 viewBox="0.00 0.00 176.65 212.00" xmlns="http://www.w3.org/2000/svg" xmlns:xlink="http://www.w3.org/1999/xlink">
<g id="graph0" class="graph" transform="scale(1 1) rotate(0) translate(4 208)">
<title>Ogre::v1::D3D11HardwareUniformBuffer</title>
<!-- Node1 -->
<g id="node1" class="node">
<title>Node1</title>
<g id="a_node1"><a xlink:title="Specialisation of HardwareBuffer for D3D11.">
<polygon fill="#bfbfbf" stroke="black" points="0,-0.5 0,-28.5 168.65,-28.5 168.65,-0.5 0,-0.5"/>
<text text-anchor="start" x="8" y="-16.5" font-family="Helvetica,sans-Serif" font-size="10.00">Ogre::v1::D3D11HardwareUniform</text>
<text text-anchor="middle" x="84.33" y="-6.5" font-family="Helvetica,sans-Serif" font-size="10.00">Buffer</text>
</a>
</g>
</g>
<!-- Node2 -->
<g id="node2" class="node">
<title>Node2</title>
<g id="a_node2"><a xlink:href="class_ogre_1_1v1_1_1_hardware_uniform_buffer.html" target="_top" xlink:title="Specialisation of HardwareBuffer for a uniform buffer.">
<polygon fill="none" stroke="black" points="15.2,-65.5 15.2,-93.5 153.46,-93.5 153.46,-65.5 15.2,-65.5"/>
<text text-anchor="start" x="23.2" y="-81.5" font-family="Helvetica,sans-Serif" font-size="10.00">Ogre::v1::HardwareUniform</text>
<text text-anchor="middle" x="84.33" y="-71.5" font-family="Helvetica,sans-Serif" font-size="10.00">Buffer</text>
</a>
</g>
</g>
<!-- Node2&#45;&gt;Node1 -->
<g id="edge1" class="edge">
<title>Node2&#45;&gt;Node1</title>
<path fill="none" stroke="midnightblue" d="M84.33,-55.16C84.33,-46.17 84.33,-36.22 84.33,-28.54"/>
<polygon fill="midnightblue" stroke="midnightblue" points="80.83,-55.45 84.33,-65.45 87.83,-55.45 80.83,-55.45"/>
</g>
<!-- Node3 -->
<g id="node3" class="node">
<title>Node3</title>
<g id="a_node3"><a xlink:href="class_ogre_1_1v1_1_1_hardware_buffer.html" target="_top" xlink:title="Abstract class defining common features of hardware buffers.">
<polygon fill="none" stroke="black" points="19.45,-130.5 19.45,-148.5 149.21,-148.5 149.21,-130.5 19.45,-130.5"/>
<text text-anchor="middle" x="84.33" y="-136.5" font-family="Helvetica,sans-Serif" font-size="10.00">Ogre::v1::HardwareBuffer</text>
</a>
</g>
</g>
<!-- Node3&#45;&gt;Node2 -->
<g id="edge2" class="edge">
<title>Node3&#45;&gt;Node2</title>
<path fill="none" stroke="midnightblue" d="M84.33,-120.32C84.33,-111.75 84.33,-101.7 84.33,-93.84"/>
<polygon fill="midnightblue" stroke="midnightblue" points="80.83,-120.44 84.33,-130.44 87.83,-120.44 80.83,-120.44"/>
</g>
<!-- Node4 -->
<g id="node4" class="node">
<title>Node4</title>
<g id="a_node4"><a xlink:href="class_ogre_1_1_allocated_object.html" target="_top" xlink:title="Superclass for all objects that wish to use custom memory allocators when their new / delete operator...">
<polygon fill="none" stroke="black" points="52.24,-185.5 52.24,-203.5 116.42,-203.5 116.42,-185.5 52.24,-185.5"/>
<text text-anchor="middle" x="84.33" y="-191.5" font-family="Helvetica,sans-Serif" font-size="10.00">BufferAlloc</text>
</a>
</g>
</g>
<!-- Node4&#45;&gt;Node3 -->
<g id="edge3" class="edge">
<title>Node4&#45;&gt;Node3</title>
<path fill="none" stroke="midnightblue" d="M84.33,-175.17C84.33,-166.09 84.33,-155.59 84.33,-148.55"/>
<polygon fill="midnightblue" stroke="midnightblue" points="80.83,-175.22 84.33,-185.22 87.83,-175.22 80.83,-175.22"/>
</g>
</g>
</svg>
