<?xml version="1.0" encoding="UTF-8" standalone="no"?>
<!DOCTYPE svg PUBLIC "-//W3C//DTD SVG 1.1//EN"
 "http://www.w3.org/Graphics/SVG/1.1/DTD/svg11.dtd">
<!-- Generated by graphviz version 2.43.0 (0)
 -->
<!-- Title: Ogre::IdObject Pages: 1 -->
<svg width="715pt" height="1073pt"
 viewBox="0.00 0.00 714.71 1073.00" xmlns="http://www.w3.org/2000/svg" xmlns:xlink="http://www.w3.org/1999/xlink">
<g id="graph0" class="graph" transform="scale(1 1) rotate(0) translate(4 1069)">
<title>Ogre::IdObject</title>
<!-- Node1 -->
<g id="node1" class="node">
<title>Node1</title>
<g id="a_node1"><a xlink:title=" ">
<polygon fill="#bfbfbf" stroke="black" points="0,-203.5 0,-221.5 81.03,-221.5 81.03,-203.5 0,-203.5"/>
<text text-anchor="middle" x="40.51" y="-209.5" font-family="Helvetica,sans-Serif" font-size="10.00">Ogre::IdObject</text>
</a>
</g>
</g>
<!-- Node2 -->
<g id="node2" class="node">
<title>Node2</title>
<g id="a_node2"><a xlink:href="class_ogre_1_1_bone.html" target="_top" xlink:title="Class representing a Bone in the join hierarchy of a skeleton.">
<polygon fill="none" stroke="black" points="178.45,-694.5 178.45,-712.5 245.59,-712.5 245.59,-694.5 178.45,-694.5"/>
<text text-anchor="middle" x="212.02" y="-700.5" font-family="Helvetica,sans-Serif" font-size="10.00">Ogre::Bone</text>
</a>
</g>
</g>
<!-- Node1&#45;&gt;Node2 -->
<g id="edge1" class="edge">
<title>Node1&#45;&gt;Node2</title>
<path fill="none" stroke="midnightblue" d="M41.76,-231.72C43.17,-311.98 52.75,-619.21 117.03,-685.5 132.64,-701.6 157.92,-705.73 178.34,-706.03"/>
<polygon fill="midnightblue" stroke="midnightblue" points="45.25,-231.53 41.6,-221.58 38.25,-231.64 45.25,-231.53"/>
</g>
<!-- Node3 -->
<g id="node3" class="node">
<title>Node3</title>
<g id="a_node3"><a xlink:href="class_ogre_1_1_compositor_node.html" target="_top" xlink:title="Compositor nodes are the core subject of compositing.">
<polygon fill="none" stroke="black" points="152.61,-657.5 152.61,-675.5 271.43,-675.5 271.43,-657.5 152.61,-657.5"/>
<text text-anchor="middle" x="212.02" y="-663.5" font-family="Helvetica,sans-Serif" font-size="10.00">Ogre::CompositorNode</text>
</a>
</g>
</g>
<!-- Node1&#45;&gt;Node3 -->
<g id="edge2" class="edge">
<title>Node1&#45;&gt;Node3</title>
<path fill="none" stroke="midnightblue" d="M42.04,-231.66C44.52,-307.84 57.63,-588.04 117.03,-648.5 126.46,-658.1 139.33,-663.43 152.52,-666.22"/>
<polygon fill="midnightblue" stroke="midnightblue" points="45.53,-231.49 41.73,-221.6 38.54,-231.7 45.53,-231.49"/>
</g>
<!-- Node5 -->
<g id="node5" class="node">
<title>Node5</title>
<g id="a_node5"><a xlink:href="class_ogre_1_1_compositor_workspace.html" target="_top" xlink:title="A compositor workspace is the main interface to render into an RT, be it a RenderWindow or an RTT (Re...">
<polygon fill="none" stroke="black" points="139.64,-620.5 139.64,-638.5 284.39,-638.5 284.39,-620.5 139.64,-620.5"/>
<text text-anchor="middle" x="212.02" y="-626.5" font-family="Helvetica,sans-Serif" font-size="10.00">Ogre::CompositorWorkspace</text>
</a>
</g>
</g>
<!-- Node1&#45;&gt;Node5 -->
<g id="edge4" class="edge">
<title>Node1&#45;&gt;Node5</title>
<path fill="none" stroke="midnightblue" d="M42.38,-231.85C46.03,-304.12 62.55,-556.9 117.03,-611.5 123.25,-617.73 130.92,-622.16 139.18,-625.25"/>
<polygon fill="midnightblue" stroke="midnightblue" points="45.86,-231.34 41.89,-221.52 38.87,-231.68 45.86,-231.34"/>
</g>
<!-- Node6 -->
<g id="node6" class="node">
<title>Node6</title>
<g id="a_node6"><a xlink:href="class_ogre_1_1_movable_object.html" target="_top" xlink:title="Abstract class defining a movable object in a scene.">
<polygon fill="none" stroke="black" points="156.77,-583.5 156.77,-601.5 267.26,-601.5 267.26,-583.5 156.77,-583.5"/>
<text text-anchor="middle" x="212.02" y="-589.5" font-family="Helvetica,sans-Serif" font-size="10.00">Ogre::MovableObject</text>
</a>
</g>
</g>
<!-- Node1&#45;&gt;Node6 -->
<g id="edge5" class="edge">
<title>Node1&#45;&gt;Node6</title>
<path fill="none" stroke="midnightblue" d="M49.74,-230.94C80.06,-298.92 184.97,-534.11 206.96,-583.4"/>
<polygon fill="midnightblue" stroke="midnightblue" points="52.81,-229.23 45.54,-221.52 46.41,-232.08 52.81,-229.23"/>
</g>
<!-- Node36 -->
<g id="node34" class="node">
<title>Node36</title>
<g id="a_node34"><a xlink:href="class_ogre_1_1_node.html" target="_top" xlink:title="Class representing a general&#45;purpose node an articulated scene graph.">
<polygon fill="none" stroke="black" points="178.17,-222.5 178.17,-240.5 245.86,-240.5 245.86,-222.5 178.17,-222.5"/>
<text text-anchor="middle" x="212.02" y="-228.5" font-family="Helvetica,sans-Serif" font-size="10.00">Ogre::Node</text>
</a>
</g>
</g>
<!-- Node1&#45;&gt;Node36 -->
<g id="edge33" class="edge">
<title>Node1&#45;&gt;Node36</title>
<path fill="none" stroke="midnightblue" d="M91.26,-218.08C119.24,-221.21 153.41,-225.04 178.07,-227.81"/>
<polygon fill="midnightblue" stroke="midnightblue" points="91.58,-214.59 81.26,-216.95 90.8,-221.55 91.58,-214.59"/>
</g>
<!-- Node42 -->
<g id="node39" class="node">
<title>Node42</title>
<g id="a_node39"><a xlink:href="class_ogre_1_1_parallax_corrected_cubemap_base.html" target="_top" xlink:title=" ">
<polygon fill="none" stroke="black" points="117.03,-185.5 117.03,-203.5 307,-203.5 307,-185.5 117.03,-185.5"/>
<text text-anchor="middle" x="212.02" y="-191.5" font-family="Helvetica,sans-Serif" font-size="10.00">Ogre::ParallaxCorrectedCubemapBase</text>
</a>
</g>
</g>
<!-- Node1&#45;&gt;Node42 -->
<g id="edge38" class="edge">
<title>Node1&#45;&gt;Node42</title>
<path fill="none" stroke="midnightblue" d="M91.41,-207.2C102.34,-206.04 114.2,-204.78 126.07,-203.52"/>
<polygon fill="midnightblue" stroke="midnightblue" points="90.83,-203.74 81.26,-208.28 91.57,-210.7 90.83,-203.74"/>
</g>
<!-- Node45 -->
<g id="node42" class="node">
<title>Node45</title>
<g id="a_node42"><a xlink:href="class_ogre_1_1_scene_manager.html" target="_top" xlink:title="Manages the organisation and rendering of a &#39;scene&#39; i.e.">
<polygon fill="none" stroke="black" points="156.21,-130.5 156.21,-148.5 267.82,-148.5 267.82,-130.5 156.21,-130.5"/>
<text text-anchor="middle" x="212.02" y="-136.5" font-family="Helvetica,sans-Serif" font-size="10.00">Ogre::SceneManager</text>
</a>
</g>
</g>
<!-- Node1&#45;&gt;Node45 -->
<g id="edge41" class="edge">
<title>Node1&#45;&gt;Node45</title>
<path fill="none" stroke="midnightblue" d="M68.9,-198.88C83.14,-191.94 100.9,-183.51 117.03,-176.5 140.35,-166.37 167.41,-155.84 186.48,-148.62"/>
<polygon fill="midnightblue" stroke="midnightblue" points="67.1,-195.86 59.66,-203.41 70.18,-202.15 67.1,-195.86"/>
</g>
<!-- Node50 -->
<g id="node47" class="node">
<title>Node50</title>
<g id="a_node47"><a xlink:href="class_ogre_1_1_vct_lighting.html" target="_top" xlink:title=" ">
<polygon fill="none" stroke="black" points="165.38,-93.5 165.38,-111.5 258.65,-111.5 258.65,-93.5 165.38,-93.5"/>
<text text-anchor="middle" x="212.02" y="-99.5" font-family="Helvetica,sans-Serif" font-size="10.00">Ogre::VctLighting</text>
</a>
</g>
</g>
<!-- Node1&#45;&gt;Node50 -->
<g id="edge46" class="edge">
<title>Node1&#45;&gt;Node50</title>
<path fill="none" stroke="midnightblue" d="M51.12,-194.43C63.42,-173.16 86.82,-138.46 117.03,-120.5 131.45,-111.93 149.12,-107.31 165.24,-104.88"/>
<polygon fill="midnightblue" stroke="midnightblue" points="47.93,-192.97 46.12,-203.41 54.04,-196.37 47.93,-192.97"/>
</g>
<!-- Node51 -->
<g id="node48" class="node">
<title>Node51</title>
<g id="a_node48"><a xlink:href="class_ogre_1_1_vct_material.html" target="_top" xlink:title=" ">
<polygon fill="none" stroke="black" points="165.12,-56.5 165.12,-74.5 258.92,-74.5 258.92,-56.5 165.12,-56.5"/>
<text text-anchor="middle" x="212.02" y="-62.5" font-family="Helvetica,sans-Serif" font-size="10.00">Ogre::VctMaterial</text>
</a>
</g>
</g>
<!-- Node1&#45;&gt;Node51 -->
<g id="edge47" class="edge">
<title>Node1&#45;&gt;Node51</title>
<path fill="none" stroke="midnightblue" d="M47.02,-193.54C56.4,-164.85 78.32,-110.86 117.03,-83.5 130.87,-73.72 148.6,-68.88 164.93,-66.59"/>
<polygon fill="midnightblue" stroke="midnightblue" points="43.65,-192.6 44.04,-203.19 50.34,-194.67 43.65,-192.6"/>
</g>
<!-- Node52 -->
<g id="node49" class="node">
<title>Node52</title>
<g id="a_node49"><a xlink:href="class_ogre_1_1_vct_voxelizer.html" target="_top" xlink:title=" ">
<polygon fill="none" stroke="black" points="162.61,-19.5 162.61,-37.5 261.43,-37.5 261.43,-19.5 162.61,-19.5"/>
<text text-anchor="middle" x="212.02" y="-25.5" font-family="Helvetica,sans-Serif" font-size="10.00">Ogre::VctVoxelizer</text>
</a>
</g>
</g>
<!-- Node1&#45;&gt;Node52 -->
<g id="edge48" class="edge">
<title>Node1&#45;&gt;Node52</title>
<path fill="none" stroke="midnightblue" d="M44.43,-193.22C50.8,-158.12 69.43,-83.95 117.03,-46.5 129.83,-36.43 146.6,-31.44 162.43,-29.1"/>
<polygon fill="midnightblue" stroke="midnightblue" points="40.96,-192.71 42.76,-203.15 47.87,-193.87 40.96,-192.71"/>
</g>
<!-- Node4 -->
<g id="node4" class="node">
<title>Node4</title>
<g id="a_node4"><a xlink:href="class_ogre_1_1_compositor_shadow_node.html" target="_top" xlink:title="Shadow Nodes are special nodes (not to be confused with.">
<polygon fill="none" stroke="black" points="359.4,-1046.5 359.4,-1064.5 514.36,-1064.5 514.36,-1046.5 359.4,-1046.5"/>
<text text-anchor="middle" x="436.88" y="-1052.5" font-family="Helvetica,sans-Serif" font-size="10.00">Ogre::CompositorShadowNode</text>
</a>
</g>
</g>
<!-- Node3&#45;&gt;Node4 -->
<g id="edge3" class="edge">
<title>Node3&#45;&gt;Node4</title>
<path fill="none" stroke="midnightblue" d="M281.43,-669.6C291.13,-672.88 300.13,-677.92 307,-685.5 412.65,-801.99 236.89,-921.44 343,-1037.5 347.55,-1042.47 353.02,-1046.31 359,-1049.25"/>
<polygon fill="midnightblue" stroke="midnightblue" points="282.11,-666.16 271.54,-666.89 280.26,-672.91 282.11,-666.16"/>
</g>
<!-- Node7 -->
<g id="node7" class="node">
<title>Node7</title>
<g id="a_node7"><a xlink:href="class_ogre_1_1_decal.html" target="_top" xlink:title=" ">
<polygon fill="none" stroke="black" points="402.2,-1009.5 402.2,-1027.5 471.56,-1027.5 471.56,-1009.5 402.2,-1009.5"/>
<text text-anchor="middle" x="436.88" y="-1015.5" font-family="Helvetica,sans-Serif" font-size="10.00">Ogre::Decal</text>
</a>
</g>
</g>
<!-- Node6&#45;&gt;Node7 -->
<g id="edge6" class="edge">
<title>Node6&#45;&gt;Node7</title>
<path fill="none" stroke="midnightblue" d="M277.62,-594.34C288.78,-597.54 299.26,-602.88 307,-611.5 365.01,-676.09 284.73,-936.15 343,-1000.5 357.56,-1016.57 381.79,-1020.85 401.86,-1021.23"/>
<polygon fill="midnightblue" stroke="midnightblue" points="278.22,-590.89 267.69,-592.05 276.65,-597.71 278.22,-590.89"/>
</g>
<!-- Node8 -->
<g id="node8" class="node">
<title>Node8</title>
<g id="a_node8"><a xlink:href="class_ogre_1_1_frustum.html" target="_top" xlink:title="A frustum represents a pyramid, capped at the near and far end which is used to represent either a vi...">
<polygon fill="none" stroke="black" points="396.65,-972.5 396.65,-990.5 477.11,-990.5 477.11,-972.5 396.65,-972.5"/>
<text text-anchor="middle" x="436.88" y="-978.5" font-family="Helvetica,sans-Serif" font-size="10.00">Ogre::Frustum</text>
</a>
</g>
</g>
<!-- Node6&#45;&gt;Node8 -->
<g id="edge7" class="edge">
<title>Node6&#45;&gt;Node8</title>
<path fill="none" stroke="midnightblue" d="M277.56,-594.4C288.72,-597.6 299.22,-602.92 307,-611.5 412.65,-727.99 236.89,-847.44 343,-963.5 356.3,-978.05 377.54,-982.91 396.35,-983.97"/>
<polygon fill="midnightblue" stroke="midnightblue" points="278.16,-590.95 267.63,-592.11 276.58,-597.77 278.16,-590.95"/>
</g>
<!-- Node12 -->
<g id="node10" class="node">
<title>Node12</title>
<g id="a_node10"><a xlink:href="class_ogre_1_1_internal_cubemap_probe.html" target="_top" xlink:title=" ">
<polygon fill="none" stroke="black" points="363.29,-935.5 363.29,-953.5 510.47,-953.5 510.47,-935.5 363.29,-935.5"/>
<text text-anchor="middle" x="436.88" y="-941.5" font-family="Helvetica,sans-Serif" font-size="10.00">Ogre::InternalCubemapProbe</text>
</a>
</g>
</g>
<!-- Node6&#45;&gt;Node12 -->
<g id="edge9" class="edge">
<title>Node6&#45;&gt;Node12</title>
<path fill="none" stroke="midnightblue" d="M277.47,-594.47C288.64,-597.66 299.17,-602.96 307,-611.5 402.28,-715.31 247.31,-823.07 343,-926.5 348.58,-932.53 355.52,-936.89 363.08,-940"/>
<polygon fill="midnightblue" stroke="midnightblue" points="278.07,-591.02 267.54,-592.18 276.5,-597.84 278.07,-591.02"/>
</g>
<!-- Node13 -->
<g id="node11" class="node">
<title>Node13</title>
<g id="a_node11"><a xlink:href="class_ogre_1_1_item.html" target="_top" xlink:title="Defines an instance of a discrete, movable object based on a Mesh.">
<polygon fill="none" stroke="black" points="405.26,-898.5 405.26,-916.5 468.5,-916.5 468.5,-898.5 405.26,-898.5"/>
<text text-anchor="middle" x="436.88" y="-904.5" font-family="Helvetica,sans-Serif" font-size="10.00">Ogre::Item</text>
</a>
</g>
</g>
<!-- Node6&#45;&gt;Node13 -->
<g id="edge10" class="edge">
<title>Node6&#45;&gt;Node13</title>
<path fill="none" stroke="midnightblue" d="M277.37,-594.57C288.55,-597.75 299.1,-603.02 307,-611.5 391.93,-702.65 257.71,-798.69 343,-889.5 358.63,-906.14 384.67,-910.02 405.21,-910.09"/>
<polygon fill="midnightblue" stroke="midnightblue" points="277.97,-591.11 267.44,-592.28 276.4,-597.93 277.97,-591.11"/>
</g>
<!-- Node14 -->
<g id="node12" class="node">
<title>Node14</title>
<g id="a_node12"><a xlink:href="class_ogre_1_1_light.html" target="_top" xlink:title="Representation of a dynamic light source in the scene.">
<polygon fill="none" stroke="black" points="404.14,-861.5 404.14,-879.5 469.62,-879.5 469.62,-861.5 404.14,-861.5"/>
<text text-anchor="middle" x="436.88" y="-867.5" font-family="Helvetica,sans-Serif" font-size="10.00">Ogre::Light</text>
</a>
</g>
</g>
<!-- Node6&#45;&gt;Node14 -->
<g id="edge11" class="edge">
<title>Node6&#45;&gt;Node14</title>
<path fill="none" stroke="midnightblue" d="M277.24,-594.69C288.43,-597.86 299.02,-603.1 307,-611.5 381.6,-690.01 268.09,-774.29 343,-852.5 358.45,-868.63 383.7,-872.7 403.97,-872.98"/>
<polygon fill="midnightblue" stroke="midnightblue" points="277.83,-591.23 267.3,-592.4 276.27,-598.06 277.83,-591.23"/>
</g>
<!-- Node16 -->
<g id="node14" class="node">
<title>Node16</title>
<g id="a_node14"><a xlink:href="class_ogre_1_1_manual_object.html" target="_top" xlink:title=" ">
<polygon fill="none" stroke="black" points="384.14,-824.5 384.14,-842.5 489.62,-842.5 489.62,-824.5 384.14,-824.5"/>
<text text-anchor="middle" x="436.88" y="-830.5" font-family="Helvetica,sans-Serif" font-size="10.00">Ogre::ManualObject</text>
</a>
</g>
</g>
<!-- Node6&#45;&gt;Node16 -->
<g id="edge13" class="edge">
<title>Node6&#45;&gt;Node16</title>
<path fill="none" stroke="midnightblue" d="M277.44,-594.96C288.51,-598.13 299,-603.3 307,-611.5 371.29,-677.4 278.45,-749.86 343,-815.5 353.71,-826.39 368.9,-831.74 383.9,-834.15"/>
<polygon fill="midnightblue" stroke="midnightblue" points="278.15,-591.54 267.62,-592.67 276.56,-598.35 278.15,-591.54"/>
</g>
<!-- Node17 -->
<g id="node15" class="node">
<title>Node17</title>
<g id="a_node15"><a xlink:href="class_ogre_1_1_movable_plane.html" target="_top" xlink:title="Definition of a Plane that may be attached to a node, and the derived details of it retrieved simply.">
<polygon fill="none" stroke="black" points="383.3,-787.5 383.3,-805.5 490.46,-805.5 490.46,-787.5 383.3,-787.5"/>
<text text-anchor="middle" x="436.88" y="-793.5" font-family="Helvetica,sans-Serif" font-size="10.00">Ogre::MovablePlane</text>
</a>
</g>
</g>
<!-- Node6&#45;&gt;Node17 -->
<g id="edge14" class="edge">
<title>Node6&#45;&gt;Node17</title>
<path fill="none" stroke="midnightblue" d="M277.2,-595.21C288.28,-598.35 298.85,-603.45 307,-611.5 361.04,-664.84 288.76,-725.37 343,-778.5 353.68,-788.96 368.5,-794.25 383.18,-796.74"/>
<polygon fill="midnightblue" stroke="midnightblue" points="277.9,-591.78 267.36,-592.92 276.31,-598.59 277.9,-591.78"/>
</g>
<!-- Node18 -->
<g id="node16" class="node">
<title>Node18</title>
<g id="a_node16"><a xlink:href="class_ogre_1_1_null_entity.html" target="_top" xlink:title=" ">
<polygon fill="none" stroke="black" points="393.87,-750.5 393.87,-768.5 479.89,-768.5 479.89,-750.5 393.87,-750.5"/>
<text text-anchor="middle" x="436.88" y="-756.5" font-family="Helvetica,sans-Serif" font-size="10.00">Ogre::NullEntity</text>
</a>
</g>
</g>
<!-- Node6&#45;&gt;Node18 -->
<g id="edge15" class="edge">
<title>Node6&#45;&gt;Node18</title>
<path fill="none" stroke="midnightblue" d="M277.53,-595.79C288.4,-598.92 298.8,-603.85 307,-611.5 350.87,-652.37 298.98,-700.81 343,-741.5 356.51,-753.99 375.98,-758.99 393.6,-760.67"/>
<polygon fill="midnightblue" stroke="midnightblue" points="278.01,-592.31 267.47,-593.41 276.4,-599.12 278.01,-592.31"/>
</g>
<!-- Node19 -->
<g id="node17" class="node">
<title>Node19</title>
<g id="a_node17"><a xlink:href="class_ogre_1_1_particle_system.html" target="_top" xlink:title="Class defining particle system based special effects.">
<polygon fill="none" stroke="black" points="381.64,-713.5 381.64,-731.5 492.12,-731.5 492.12,-713.5 381.64,-713.5"/>
<text text-anchor="middle" x="436.88" y="-719.5" font-family="Helvetica,sans-Serif" font-size="10.00">Ogre::ParticleSystem</text>
</a>
</g>
</g>
<!-- Node6&#45;&gt;Node19 -->
<g id="edge16" class="edge">
<title>Node6&#45;&gt;Node19</title>
<path fill="none" stroke="midnightblue" d="M277.31,-596.57C288.1,-599.64 298.53,-604.35 307,-611.5 340.89,-640.07 309,-676.07 343,-704.5 353.71,-713.46 367.55,-718.45 381.26,-721.12"/>
<polygon fill="midnightblue" stroke="midnightblue" points="277.88,-593.11 267.34,-594.2 276.26,-599.92 277.88,-593.11"/>
</g>
<!-- Node20 -->
<g id="node18" class="node">
<title>Node20</title>
<g id="a_node18"><a xlink:href="class_ogre_1_1_portal_base.html" target="_top" xlink:title="PortalBase &#45; Base class to Portal and AntiPortal classes.">
<polygon fill="none" stroke="black" points="390.53,-676.5 390.53,-694.5 483.23,-694.5 483.23,-676.5 390.53,-676.5"/>
<text text-anchor="middle" x="436.88" y="-682.5" font-family="Helvetica,sans-Serif" font-size="10.00">Ogre::PortalBase</text>
</a>
</g>
</g>
<!-- Node6&#45;&gt;Node20 -->
<g id="edge17" class="edge">
<title>Node6&#45;&gt;Node20</title>
<path fill="none" stroke="midnightblue" d="M277.64,-598.43C288.05,-601.34 298.25,-605.52 307,-611.5 331.43,-628.19 318.51,-650.9 343,-667.5 356.74,-676.8 374.09,-681.57 390.07,-683.93"/>
<polygon fill="midnightblue" stroke="midnightblue" points="278.19,-594.97 267.65,-596.02 276.55,-601.77 278.19,-594.97"/>
</g>
<!-- Node23 -->
<g id="node21" class="node">
<title>Node23</title>
<g id="a_node21"><a xlink:href="class_ogre_1_1_rectangle2_d.html" target="_top" xlink:title=" ">
<polygon fill="none" stroke="black" points="386.08,-639.5 386.08,-657.5 487.68,-657.5 487.68,-639.5 386.08,-639.5"/>
<text text-anchor="middle" x="436.88" y="-645.5" font-family="Helvetica,sans-Serif" font-size="10.00">Ogre::Rectangle2D</text>
</a>
</g>
</g>
<!-- Node6&#45;&gt;Node23 -->
<g id="edge20" class="edge">
<title>Node6&#45;&gt;Node23</title>
<path fill="none" stroke="midnightblue" d="M277.39,-602.96C287.43,-605.32 297.6,-608.15 307,-611.5 324.04,-617.58 325.94,-624.49 343,-630.5 356.64,-635.3 371.87,-638.93 386,-641.62"/>
<polygon fill="midnightblue" stroke="midnightblue" points="277.94,-599.49 267.42,-600.75 276.42,-606.33 277.94,-599.49"/>
</g>
<!-- Node24 -->
<g id="node22" class="node">
<title>Node24</title>
<g id="a_node22"><a xlink:href="class_ogre_1_1v1_1_1_billboard_chain.html" target="_top" xlink:title="Allows the rendering of a chain of connected billboards.">
<polygon fill="none" stroke="black" points="374.41,-602.5 374.41,-620.5 499.35,-620.5 499.35,-602.5 374.41,-602.5"/>
<text text-anchor="middle" x="436.88" y="-608.5" font-family="Helvetica,sans-Serif" font-size="10.00">Ogre::v1::BillboardChain</text>
</a>
</g>
</g>
<!-- Node6&#45;&gt;Node24 -->
<g id="edge21" class="edge">
<title>Node6&#45;&gt;Node24</title>
<path fill="none" stroke="midnightblue" d="M277.6,-598.01C307.98,-600.6 344.04,-603.67 374.06,-606.23"/>
<polygon fill="midnightblue" stroke="midnightblue" points="277.8,-594.51 267.54,-597.15 277.2,-601.48 277.8,-594.51"/>
</g>
<!-- Node26 -->
<g id="node24" class="node">
<title>Node26</title>
<g id="a_node24"><a xlink:href="class_ogre_1_1v1_1_1_billboard_set.html" target="_top" xlink:title="A collection of billboards (faces which are always facing the given direction) with the same (default...">
<polygon fill="none" stroke="black" points="379.97,-565.5 379.97,-583.5 493.79,-583.5 493.79,-565.5 379.97,-565.5"/>
<text text-anchor="middle" x="436.88" y="-571.5" font-family="Helvetica,sans-Serif" font-size="10.00">Ogre::v1::BillboardSet</text>
</a>
</g>
</g>
<!-- Node6&#45;&gt;Node26 -->
<g id="edge23" class="edge">
<title>Node6&#45;&gt;Node26</title>
<path fill="none" stroke="midnightblue" d="M277.76,-587.27C310,-584.67 348.6,-581.55 379.6,-579.05"/>
<polygon fill="midnightblue" stroke="midnightblue" points="277.22,-583.8 267.54,-588.1 277.78,-590.78 277.22,-583.8"/>
</g>
<!-- Node27 -->
<g id="node25" class="node">
<title>Node27</title>
<g id="a_node25"><a xlink:href="class_ogre_1_1v1_1_1_entity.html" target="_top" xlink:title="Defines an instance of a discrete, movable object based on a Mesh.">
<polygon fill="none" stroke="black" points="394.42,-528.5 394.42,-546.5 479.34,-546.5 479.34,-528.5 394.42,-528.5"/>
<text text-anchor="middle" x="436.88" y="-534.5" font-family="Helvetica,sans-Serif" font-size="10.00">Ogre::v1::Entity</text>
</a>
</g>
</g>
<!-- Node6&#45;&gt;Node27 -->
<g id="edge24" class="edge">
<title>Node6&#45;&gt;Node27</title>
<path fill="none" stroke="midnightblue" d="M253.06,-580.65C278.67,-573.26 312.65,-563.8 343,-556.5 359.65,-552.5 378.09,-548.61 394.14,-545.41"/>
<polygon fill="midnightblue" stroke="midnightblue" points="251.96,-577.32 243.33,-583.47 253.91,-584.04 251.96,-577.32"/>
</g>
<!-- Node28 -->
<g id="node26" class="node">
<title>Node28</title>
<g id="a_node26"><a xlink:href="class_ogre_1_1v1_1_1_manual_object.html" target="_top" xlink:title="Class providing a much simplified interface to generating manual objects with custom geometry.">
<polygon fill="none" stroke="black" points="376.08,-491.5 376.08,-509.5 497.68,-509.5 497.68,-491.5 376.08,-491.5"/>
<text text-anchor="middle" x="436.88" y="-497.5" font-family="Helvetica,sans-Serif" font-size="10.00">Ogre::v1::ManualObject</text>
</a>
</g>
</g>
<!-- Node6&#45;&gt;Node28 -->
<g id="edge25" class="edge">
<title>Node6&#45;&gt;Node28</title>
<path fill="none" stroke="midnightblue" d="M234.34,-577.77C259.3,-561.2 302.4,-534.63 343,-519.5 353.95,-515.42 365.97,-512.14 377.63,-509.53"/>
<polygon fill="midnightblue" stroke="midnightblue" points="232.35,-574.89 226.01,-583.38 236.26,-580.7 232.35,-574.89"/>
</g>
<!-- Node29 -->
<g id="node27" class="node">
<title>Node29</title>
<g id="a_node27"><a xlink:href="class_ogre_1_1v1_1_1_overlay.html" target="_top" xlink:title="Represents a layer which is rendered on top of the &#39;normal&#39; scene contents.">
<polygon fill="none" stroke="black" points="389.7,-454.5 389.7,-472.5 484.06,-472.5 484.06,-454.5 389.7,-454.5"/>
<text text-anchor="middle" x="436.88" y="-460.5" font-family="Helvetica,sans-Serif" font-size="10.00">Ogre::v1::Overlay</text>
</a>
</g>
</g>
<!-- Node6&#45;&gt;Node29 -->
<g id="edge26" class="edge">
<title>Node6&#45;&gt;Node29</title>
<path fill="none" stroke="midnightblue" d="M227.67,-575.6C249.97,-551.03 294.95,-505.83 343,-482.5 357.36,-475.53 374.18,-471.11 389.52,-468.31"/>
<polygon fill="midnightblue" stroke="midnightblue" points="224.79,-573.57 220.76,-583.36 230.02,-578.22 224.79,-573.57"/>
</g>
<!-- Node30 -->
<g id="node28" class="node">
<title>Node30</title>
<g id="a_node28"><a xlink:href="class_ogre_1_1v1_1_1_rectangle2_d.html" target="_top" xlink:title="Allows the rendering of a simple 2D rectangle This class renders a simple 2D rectangle; this rectangl...">
<polygon fill="none" stroke="black" points="378.02,-417.5 378.02,-435.5 495.74,-435.5 495.74,-417.5 378.02,-417.5"/>
<text text-anchor="middle" x="436.88" y="-423.5" font-family="Helvetica,sans-Serif" font-size="10.00">Ogre::v1::Rectangle2D</text>
</a>
</g>
</g>
<!-- Node6&#45;&gt;Node30 -->
<g id="edge27" class="edge">
<title>Node6&#45;&gt;Node30</title>
<path fill="none" stroke="midnightblue" d="M223.46,-574.43C242.75,-542.83 287.12,-477.81 343,-445.5 353.55,-439.4 365.76,-435.24 377.79,-432.41"/>
<polygon fill="midnightblue" stroke="midnightblue" points="220.21,-573.05 218.1,-583.44 226.22,-576.64 220.21,-573.05"/>
</g>
<!-- Node31 -->
<g id="node29" class="node">
<title>Node31</title>
<g id="a_node29"><a xlink:href="class_ogre_1_1v1_1_1_simple_renderable.html" target="_top" xlink:title="Simple implementation of MovableObject and Renderable for single&#45;part custom objects.">
<polygon fill="none" stroke="black" points="365.79,-380.5 365.79,-398.5 507.97,-398.5 507.97,-380.5 365.79,-380.5"/>
<text text-anchor="middle" x="436.88" y="-386.5" font-family="Helvetica,sans-Serif" font-size="10.00">Ogre::v1::SimpleRenderable</text>
</a>
</g>
</g>
<!-- Node6&#45;&gt;Node31 -->
<g id="edge28" class="edge">
<title>Node6&#45;&gt;Node31</title>
<path fill="none" stroke="midnightblue" d="M220.39,-574.13C236.5,-536.47 278.66,-450.54 343,-408.5 349.89,-404 357.63,-400.53 365.63,-397.86"/>
<polygon fill="midnightblue" stroke="midnightblue" points="217.14,-572.81 216.53,-583.39 223.6,-575.5 217.14,-572.81"/>
</g>
<!-- Node33 -->
<g id="node31" class="node">
<title>Node33</title>
<g id="a_node31"><a xlink:href="class_ogre_1_1v1_1_1_static_geometry_1_1_region.html" target="_top" xlink:title="The details of a topological region which is the highest level of partitioning for this class.">
<polygon fill="none" stroke="black" points="372.47,-333.5 372.47,-361.5 501.29,-361.5 501.29,-333.5 372.47,-333.5"/>
<text text-anchor="start" x="380.47" y="-349.5" font-family="Helvetica,sans-Serif" font-size="10.00">Ogre::v1::StaticGeometry</text>
<text text-anchor="middle" x="436.88" y="-339.5" font-family="Helvetica,sans-Serif" font-size="10.00">::Region</text>
</a>
</g>
</g>
<!-- Node6&#45;&gt;Node33 -->
<g id="edge30" class="edge">
<title>Node6&#45;&gt;Node33</title>
<path fill="none" stroke="midnightblue" d="M218.64,-573.45C232.35,-530.4 271.72,-425.24 343,-371.5 351.65,-364.98 361.89,-360.23 372.36,-356.76"/>
<polygon fill="midnightblue" stroke="midnightblue" points="215.23,-572.61 215.64,-583.2 221.92,-574.67 215.23,-572.61"/>
</g>
<!-- Node34 -->
<g id="node32" class="node">
<title>Node34</title>
<g id="a_node32"><a xlink:href="class_ogre_1_1_voxel_visualizer.html" target="_top" xlink:title=" ">
<polygon fill="none" stroke="black" points="381.17,-296.5 381.17,-314.5 492.6,-314.5 492.6,-296.5 381.17,-296.5"/>
<text text-anchor="middle" x="436.88" y="-302.5" font-family="Helvetica,sans-Serif" font-size="10.00">Ogre::VoxelVisualizer</text>
</a>
</g>
</g>
<!-- Node6&#45;&gt;Node34 -->
<g id="edge31" class="edge">
<title>Node6&#45;&gt;Node34</title>
<path fill="none" stroke="midnightblue" d="M216.33,-573.27C225.99,-523.51 258.9,-389.84 343,-324.5 353.79,-316.12 367.35,-311.18 380.74,-308.32"/>
<polygon fill="midnightblue" stroke="midnightblue" points="212.86,-572.83 214.49,-583.3 219.74,-574.1 212.86,-572.83"/>
</g>
<!-- Node35 -->
<g id="node33" class="node">
<title>Node35</title>
<g id="a_node33"><a xlink:href="class_ogre_1_1_wire_aabb.html" target="_top" xlink:title="Helper class to display the Aabb of a MovableObject as lines.">
<polygon fill="none" stroke="black" points="393.03,-259.5 393.03,-277.5 480.73,-277.5 480.73,-259.5 393.03,-259.5"/>
<text text-anchor="middle" x="436.88" y="-265.5" font-family="Helvetica,sans-Serif" font-size="10.00">Ogre::WireAabb</text>
</a>
</g>
</g>
<!-- Node6&#45;&gt;Node35 -->
<g id="edge32" class="edge">
<title>Node6&#45;&gt;Node35</title>
<path fill="none" stroke="midnightblue" d="M215.11,-573.25C222.11,-518.96 249.76,-363.65 343,-287.5 356.9,-276.15 375.8,-271.02 392.92,-268.87"/>
<polygon fill="midnightblue" stroke="midnightblue" points="211.6,-573.15 213.89,-583.5 218.55,-573.98 211.6,-573.15"/>
</g>
<!-- Node9 -->
<g id="node9" class="node">
<title>Node9</title>
<g id="a_node9"><a xlink:href="class_ogre_1_1_camera.html" target="_top" xlink:title="A viewpoint from which the scene will be rendered.">
<polygon fill="none" stroke="red" points="597.05,-972.5 597.05,-990.5 676.41,-990.5 676.41,-972.5 597.05,-972.5"/>
<text text-anchor="middle" x="636.73" y="-978.5" font-family="Helvetica,sans-Serif" font-size="10.00">Ogre::Camera</text>
</a>
</g>
</g>
<!-- Node8&#45;&gt;Node9 -->
<g id="edge8" class="edge">
<title>Node8&#45;&gt;Node9</title>
<path fill="none" stroke="midnightblue" d="M487.59,-981.5C521.46,-981.5 565.64,-981.5 596.91,-981.5"/>
<polygon fill="midnightblue" stroke="midnightblue" points="487.44,-978 477.44,-981.5 487.44,-985 487.44,-978"/>
</g>
<!-- Node15 -->
<g id="node13" class="node">
<title>Node15</title>
<g id="a_node13"><a xlink:href="class_ogre_1_1_p_c_z_light.html" target="_top" xlink:title="Specialized version of Ogre::Light which caches which zones the light affects.">
<polygon fill="none" stroke="black" points="594,-861.5 594,-879.5 679.47,-879.5 679.47,-861.5 594,-861.5"/>
<text text-anchor="middle" x="636.73" y="-867.5" font-family="Helvetica,sans-Serif" font-size="10.00">Ogre::PCZLight</text>
</a>
</g>
</g>
<!-- Node14&#45;&gt;Node15 -->
<g id="edge12" class="edge">
<title>Node14&#45;&gt;Node15</title>
<path fill="none" stroke="midnightblue" d="M480.05,-870.5C513.56,-870.5 560.2,-870.5 593.67,-870.5"/>
<polygon fill="midnightblue" stroke="midnightblue" points="479.67,-867 469.67,-870.5 479.67,-874 479.67,-867"/>
</g>
<!-- Node21 -->
<g id="node19" class="node">
<title>Node21</title>
<g id="a_node19"><a xlink:href="class_ogre_1_1_anti_portal.html" target="_top" xlink:title="AntiPortal datastructure for occlusion culling.">
<polygon fill="none" stroke="black" points="593.16,-695.5 593.16,-713.5 680.3,-713.5 680.3,-695.5 593.16,-695.5"/>
<text text-anchor="middle" x="636.73" y="-701.5" font-family="Helvetica,sans-Serif" font-size="10.00">Ogre::AntiPortal</text>
</a>
</g>
</g>
<!-- Node20&#45;&gt;Node21 -->
<g id="edge18" class="edge">
<title>Node20&#45;&gt;Node21</title>
<path fill="none" stroke="midnightblue" d="M493.23,-690.82C524.79,-693.85 563.73,-697.59 592.92,-700.39"/>
<polygon fill="midnightblue" stroke="midnightblue" points="493.56,-687.33 483.27,-689.86 492.89,-694.3 493.56,-687.33"/>
</g>
<!-- Node22 -->
<g id="node20" class="node">
<title>Node22</title>
<g id="a_node20"><a xlink:href="class_ogre_1_1_portal.html" target="_top" xlink:title="Portal datastructure for connecting zones.">
<polygon fill="none" stroke="black" points="601.78,-658.5 601.78,-676.5 671.69,-676.5 671.69,-658.5 601.78,-658.5"/>
<text text-anchor="middle" x="636.73" y="-664.5" font-family="Helvetica,sans-Serif" font-size="10.00">Ogre::Portal</text>
</a>
</g>
</g>
<!-- Node20&#45;&gt;Node22 -->
<g id="edge19" class="edge">
<title>Node20&#45;&gt;Node22</title>
<path fill="none" stroke="midnightblue" d="M493.3,-680.46C528.1,-677.29 571.89,-673.31 601.66,-670.6"/>
<polygon fill="midnightblue" stroke="midnightblue" points="492.91,-676.98 483.27,-681.37 493.55,-683.95 492.91,-676.98"/>
</g>
<!-- Node25 -->
<g id="node23" class="node">
<title>Node25</title>
<g id="a_node23"><a xlink:href="class_ogre_1_1v1_1_1_ribbon_trail.html" target="_top" xlink:title="Subclass of BillboardChain which automatically leaves a trail behind one or more Node instances.">
<polygon fill="none" stroke="black" points="581.4,-602.5 581.4,-620.5 692.07,-620.5 692.07,-602.5 581.4,-602.5"/>
<text text-anchor="middle" x="636.73" y="-608.5" font-family="Helvetica,sans-Serif" font-size="10.00">Ogre::v1::RibbonTrail</text>
</a>
</g>
</g>
<!-- Node24&#45;&gt;Node25 -->
<g id="edge22" class="edge">
<title>Node24&#45;&gt;Node25</title>
<path fill="none" stroke="midnightblue" d="M509.4,-611.5C533.1,-611.5 559.08,-611.5 581.29,-611.5"/>
<polygon fill="midnightblue" stroke="midnightblue" points="509.4,-608 499.4,-611.5 509.4,-615 509.4,-608"/>
</g>
<!-- Node32 -->
<g id="node30" class="node">
<title>Node32</title>
<g id="a_node30"><a xlink:href="class_ogre_1_1v1_1_1_wire_bounding_box.html" target="_top" xlink:title="Allows the rendering of a wireframe bounding box.">
<polygon fill="none" stroke="black" points="566.76,-380.5 566.76,-398.5 706.71,-398.5 706.71,-380.5 566.76,-380.5"/>
<text text-anchor="middle" x="636.73" y="-386.5" font-family="Helvetica,sans-Serif" font-size="10.00">Ogre::v1::WireBoundingBox</text>
</a>
</g>
</g>
<!-- Node31&#45;&gt;Node32 -->
<g id="edge29" class="edge">
<title>Node31&#45;&gt;Node32</title>
<path fill="none" stroke="midnightblue" d="M518.56,-389.5C534.51,-389.5 551.12,-389.5 566.64,-389.5"/>
<polygon fill="midnightblue" stroke="midnightblue" points="518.19,-386 508.19,-389.5 518.19,-393 518.19,-386"/>
</g>
<!-- Node37 -->
<g id="node35" class="node">
<title>Node37</title>
<g id="a_node35"><a xlink:href="class_ogre_1_1_scene_node.html" target="_top" xlink:title="Class representing a node in the scene graph.">
<polygon fill="none" stroke="red" points="388.86,-222.5 388.86,-240.5 484.9,-240.5 484.9,-222.5 388.86,-222.5"/>
<text text-anchor="middle" x="436.88" y="-228.5" font-family="Helvetica,sans-Serif" font-size="10.00">Ogre::SceneNode</text>
</a>
</g>
</g>
<!-- Node36&#45;&gt;Node37 -->
<g id="edge34" class="edge">
<title>Node36&#45;&gt;Node37</title>
<path fill="none" stroke="midnightblue" d="M256.16,-231.5C294.24,-231.5 349.65,-231.5 388.86,-231.5"/>
<polygon fill="midnightblue" stroke="midnightblue" points="255.9,-228 245.9,-231.5 255.9,-235 255.9,-228"/>
</g>
<!-- Node38 -->
<g id="node36" class="node">
<title>Node38</title>
<g id="a_node36"><a xlink:href="class_ogre_1_1_bsp_scene_node.html" target="_top" xlink:title="Specialisation of SceneNode for the BspSceneManager.">
<polygon fill="none" stroke="black" points="580.09,-259.5 580.09,-277.5 693.37,-277.5 693.37,-259.5 580.09,-259.5"/>
<text text-anchor="middle" x="636.73" y="-265.5" font-family="Helvetica,sans-Serif" font-size="10.00">Ogre::BspSceneNode</text>
</a>
</g>
</g>
<!-- Node37&#45;&gt;Node38 -->
<g id="edge35" class="edge">
<title>Node37&#45;&gt;Node38</title>
<path fill="none" stroke="midnightblue" d="M495.11,-242.2C524.41,-247.68 559.69,-254.28 587.58,-259.5"/>
<polygon fill="midnightblue" stroke="midnightblue" points="495.49,-238.71 485.02,-240.32 494.21,-245.59 495.49,-238.71"/>
</g>
<!-- Node39 -->
<g id="node37" class="node">
<title>Node39</title>
<g id="a_node37"><a xlink:href="class_ogre_1_1_octree_node.html" target="_top" xlink:title="Specialized SceneNode that is customized for working within an Octree.">
<polygon fill="none" stroke="black" points="587.88,-222.5 587.88,-240.5 685.58,-240.5 685.58,-222.5 587.88,-222.5"/>
<text text-anchor="middle" x="636.73" y="-228.5" font-family="Helvetica,sans-Serif" font-size="10.00">Ogre::OctreeNode</text>
</a>
</g>
</g>
<!-- Node37&#45;&gt;Node39 -->
<g id="edge36" class="edge">
<title>Node37&#45;&gt;Node39</title>
<path fill="none" stroke="midnightblue" d="M495.11,-231.5C524.41,-231.5 559.69,-231.5 587.58,-231.5"/>
<polygon fill="midnightblue" stroke="midnightblue" points="495.02,-228 485.02,-231.5 495.02,-235 495.02,-228"/>
</g>
<!-- Node40 -->
<g id="node38" class="node">
<title>Node40</title>
<g id="a_node38"><a xlink:href="class_ogre_1_1_p_c_z_scene_node.html" target="_top" xlink:title=" ">
<polygon fill="none" stroke="black" points="578.71,-185.5 578.71,-203.5 694.76,-203.5 694.76,-185.5 578.71,-185.5"/>
<text text-anchor="middle" x="636.73" y="-191.5" font-family="Helvetica,sans-Serif" font-size="10.00">Ogre::PCZSceneNode</text>
</a>
</g>
</g>
<!-- Node37&#45;&gt;Node40 -->
<g id="edge37" class="edge">
<title>Node37&#45;&gt;Node40</title>
<path fill="none" stroke="midnightblue" d="M495.11,-220.8C524.41,-215.32 559.69,-208.72 587.58,-203.5"/>
<polygon fill="midnightblue" stroke="midnightblue" points="494.21,-217.41 485.02,-222.68 495.49,-224.29 494.21,-217.41"/>
</g>
<!-- Node43 -->
<g id="node40" class="node">
<title>Node43</title>
<g id="a_node40"><a xlink:href="class_ogre_1_1_parallax_corrected_cubemap.html" target="_top" xlink:title=" ">
<polygon fill="none" stroke="black" points="353.29,-185.5 353.29,-203.5 520.47,-203.5 520.47,-185.5 353.29,-185.5"/>
<text text-anchor="middle" x="436.88" y="-191.5" font-family="Helvetica,sans-Serif" font-size="10.00">Ogre::ParallaxCorrectedCubemap</text>
</a>
</g>
</g>
<!-- Node42&#45;&gt;Node43 -->
<g id="edge39" class="edge">
<title>Node42&#45;&gt;Node43</title>
<path fill="none" stroke="midnightblue" d="M317.24,-194.5C329.22,-194.5 341.32,-194.5 352.97,-194.5"/>
<polygon fill="midnightblue" stroke="midnightblue" points="317.21,-191 307.21,-194.5 317.21,-198 317.21,-191"/>
</g>
<!-- Node44 -->
<g id="node41" class="node">
<title>Node44</title>
<g id="a_node41"><a xlink:href="class_ogre_1_1_parallax_corrected_cubemap_auto.html" target="_top" xlink:title=" ">
<polygon fill="none" stroke="black" points="343,-148.5 343,-166.5 530.76,-166.5 530.76,-148.5 343,-148.5"/>
<text text-anchor="middle" x="436.88" y="-154.5" font-family="Helvetica,sans-Serif" font-size="10.00">Ogre::ParallaxCorrectedCubemapAuto</text>
</a>
</g>
</g>
<!-- Node42&#45;&gt;Node44 -->
<g id="edge40" class="edge">
<title>Node42&#45;&gt;Node44</title>
<path fill="none" stroke="midnightblue" d="M277.25,-183.84C310.22,-178.36 349.95,-171.77 381.4,-166.54"/>
<polygon fill="midnightblue" stroke="midnightblue" points="276.54,-180.41 267.25,-185.5 277.69,-187.31 276.54,-180.41"/>
</g>
<!-- Node46 -->
<g id="node43" class="node">
<title>Node46</title>
<g id="a_node43"><a xlink:href="class_ogre_1_1_bsp_scene_manager.html" target="_top" xlink:title="Specialisation of the SceneManager class to deal with indoor scenes based on a BSP tree.">
<polygon fill="none" stroke="black" points="372.46,-111.5 372.46,-129.5 501.3,-129.5 501.3,-111.5 372.46,-111.5"/>
<text text-anchor="middle" x="436.88" y="-117.5" font-family="Helvetica,sans-Serif" font-size="10.00">Ogre::BspSceneManager</text>
</a>
</g>
</g>
<!-- Node45&#45;&gt;Node46 -->
<g id="edge42" class="edge">
<title>Node45&#45;&gt;Node46</title>
<path fill="none" stroke="midnightblue" d="M278.35,-133.93C308,-131.4 342.93,-128.42 372.35,-125.92"/>
<polygon fill="midnightblue" stroke="midnightblue" points="277.77,-130.47 268.11,-134.8 278.37,-137.44 277.77,-130.47"/>
</g>
<!-- Node47 -->
<g id="node44" class="node">
<title>Node47</title>
<g id="a_node44"><a xlink:href="class_ogre_1_1_default_scene_manager.html" target="_top" xlink:title="Default scene manager.">
<polygon fill="none" stroke="black" points="365.23,-74.5 365.23,-92.5 508.53,-92.5 508.53,-74.5 365.23,-74.5"/>
<text text-anchor="middle" x="436.88" y="-80.5" font-family="Helvetica,sans-Serif" font-size="10.00">Ogre::DefaultSceneManager</text>
</a>
</g>
</g>
<!-- Node45&#45;&gt;Node47 -->
<g id="edge43" class="edge">
<title>Node45&#45;&gt;Node47</title>
<path fill="none" stroke="midnightblue" d="M277.77,-128.95C287.69,-126.61 297.71,-123.81 307,-120.5 324.04,-114.42 325.94,-107.51 343,-101.5 353.23,-97.9 364.35,-94.96 375.24,-92.58"/>
<polygon fill="midnightblue" stroke="midnightblue" points="276.91,-125.56 267.91,-131.15 278.43,-132.39 276.91,-125.56"/>
</g>
<!-- Node48 -->
<g id="node45" class="node">
<title>Node48</title>
<g id="a_node45"><a xlink:href="class_ogre_1_1_octree_scene_manager.html" target="_top" xlink:title="Specialized SceneManager that divides the geometry into an octree in order to facilitate spatial quer...">
<polygon fill="none" stroke="black" points="366.07,-37.5 366.07,-55.5 507.69,-55.5 507.69,-37.5 366.07,-37.5"/>
<text text-anchor="middle" x="436.88" y="-43.5" font-family="Helvetica,sans-Serif" font-size="10.00">Ogre::OctreeSceneManager</text>
</a>
</g>
</g>
<!-- Node45&#45;&gt;Node48 -->
<g id="edge44" class="edge">
<title>Node45&#45;&gt;Node48</title>
<path fill="none" stroke="midnightblue" d="M278.01,-133.46C288.29,-130.56 298.36,-126.41 307,-120.5 331.43,-103.81 318.51,-81.1 343,-64.5 349.94,-59.8 357.8,-56.26 365.93,-53.6"/>
<polygon fill="midnightblue" stroke="midnightblue" points="277.02,-130.1 268.14,-135.88 278.69,-136.9 277.02,-130.1"/>
</g>
<!-- Node49 -->
<g id="node46" class="node">
<title>Node49</title>
<g id="a_node46"><a xlink:href="class_ogre_1_1_p_c_z_scene_manager.html" target="_top" xlink:title="Specialized SceneManager that uses Portal&#45;Connected&#45;Zones to divide the scene spatially.">
<polygon fill="none" stroke="black" points="371.08,-0.5 371.08,-18.5 502.69,-18.5 502.69,-0.5 371.08,-0.5"/>
<text text-anchor="middle" x="436.88" y="-6.5" font-family="Helvetica,sans-Serif" font-size="10.00">Ogre::PCZSceneManager</text>
</a>
</g>
</g>
<!-- Node45&#45;&gt;Node49 -->
<g id="edge45" class="edge">
<title>Node45&#45;&gt;Node49</title>
<path fill="none" stroke="midnightblue" d="M277.68,-135.32C288.34,-132.25 298.62,-127.57 307,-120.5 340.89,-91.93 309,-55.93 343,-27.5 350.94,-20.86 360.6,-16.4 370.64,-13.45"/>
<polygon fill="midnightblue" stroke="midnightblue" points="276.73,-131.95 267.83,-137.7 278.37,-138.75 276.73,-131.95"/>
</g>
</g>
</svg>
