<?xml version="1.0" encoding="UTF-8" standalone="no"?>
<!DOCTYPE svg PUBLIC "-//W3C//DTD SVG 1.1//EN"
 "http://www.w3.org/Graphics/SVG/1.1/DTD/svg11.dtd">
<!-- Generated by graphviz version 2.43.0 (0)
 -->
<!-- Title: Ogre::D3D11RenderPassDescriptor Pages: 1 -->
<svg width="280pt" height="147pt"
 viewBox="0.00 0.00 280.15 147.00" xmlns="http://www.w3.org/2000/svg" xmlns:xlink="http://www.w3.org/1999/xlink">
<g id="graph0" class="graph" transform="scale(1 1) rotate(0) translate(4 143)">
<title>Ogre::D3D11RenderPassDescriptor</title>
<!-- Node1 -->
<g id="node1" class="node">
<title>Node1</title>
<g id="a_node1"><a xlink:title="D3D11 will share groups of ID3D11RenderTargetView all D3D11RenderPassDescriptor that share the same R...">
<polygon fill="#bfbfbf" stroke="black" points="56.8,-0.5 56.8,-18.5 231.58,-18.5 231.58,-0.5 56.8,-0.5"/>
<text text-anchor="middle" x="144.19" y="-6.5" font-family="Helvetica,sans-Serif" font-size="10.00">Ogre::D3D11RenderPassDescriptor</text>
</a>
</g>
</g>
<!-- Node2 -->
<g id="node2" class="node">
<title>Node2</title>
<g id="a_node2"><a xlink:href="class_ogre_1_1_render_pass_descriptor.html" target="_top" xlink:title=" ">
<polygon fill="none" stroke="black" points="0,-60.5 0,-78.5 144.38,-78.5 144.38,-60.5 0,-60.5"/>
<text text-anchor="middle" x="72.19" y="-66.5" font-family="Helvetica,sans-Serif" font-size="10.00">Ogre::RenderPassDescriptor</text>
</a>
</g>
</g>
<!-- Node2&#45;&gt;Node1 -->
<g id="edge1" class="edge">
<title>Node2&#45;&gt;Node1</title>
<path fill="none" stroke="midnightblue" d="M90.05,-54.12C103.82,-43.03 122.37,-28.08 133.8,-18.87"/>
<polygon fill="midnightblue" stroke="midnightblue" points="87.8,-51.44 82.2,-60.44 92.19,-56.89 87.8,-51.44"/>
</g>
<!-- Node3 -->
<g id="node3" class="node">
<title>Node3</title>
<g id="a_node3"><a xlink:href="class_ogre_1_1_allocated_object.html" target="_top" xlink:title="Superclass for all objects that wish to use custom memory allocators when their new / delete operator...">
<polygon fill="none" stroke="black" points="28.62,-120.5 28.62,-138.5 115.76,-138.5 115.76,-120.5 28.62,-120.5"/>
<text text-anchor="middle" x="72.19" y="-126.5" font-family="Helvetica,sans-Serif" font-size="10.00">RenderSysAlloc</text>
</a>
</g>
</g>
<!-- Node3&#45;&gt;Node2 -->
<g id="edge2" class="edge">
<title>Node3&#45;&gt;Node2</title>
<path fill="none" stroke="midnightblue" d="M72.19,-110.21C72.19,-99.71 72.19,-87.03 72.19,-78.87"/>
<polygon fill="midnightblue" stroke="midnightblue" points="68.69,-110.44 72.19,-120.44 75.69,-110.44 68.69,-110.44"/>
</g>
<!-- Node4 -->
<g id="node4" class="node">
<title>Node4</title>
<g id="a_node4"><a xlink:href="class_ogre_1_1_render_system_1_1_listener.html" target="_top" xlink:title="Defines a listener on the custom events that this render system can raise.">
<polygon fill="none" stroke="black" points="162.23,-55.5 162.23,-83.5 272.15,-83.5 272.15,-55.5 162.23,-55.5"/>
<text text-anchor="start" x="170.23" y="-71.5" font-family="Helvetica,sans-Serif" font-size="10.00">Ogre::RenderSystem</text>
<text text-anchor="middle" x="217.19" y="-61.5" font-family="Helvetica,sans-Serif" font-size="10.00">::Listener</text>
</a>
</g>
</g>
<!-- Node4&#45;&gt;Node1 -->
<g id="edge3" class="edge">
<title>Node4&#45;&gt;Node1</title>
<path fill="none" stroke="midnightblue" d="M192.53,-48.91C179.6,-38.63 164.45,-26.59 154.6,-18.77"/>
<polygon fill="midnightblue" stroke="midnightblue" points="190.62,-51.86 200.63,-55.34 194.97,-46.38 190.62,-51.86"/>
</g>
</g>
</svg>
