<?xml version="1.0" encoding="UTF-8" standalone="no"?>
<!DOCTYPE svg PUBLIC "-//W3C//DTD SVG 1.1//EN"
 "http://www.w3.org/Graphics/SVG/1.1/DTD/svg11.dtd">
<!-- Generated by graphviz version 2.43.0 (0)
 -->
<!-- Title: Ogre::D3D9HardwareOcclusionQuery Pages: 1 -->
<svg width="296pt" height="147pt"
 viewBox="0.00 0.00 296.21 147.00" xmlns="http://www.w3.org/2000/svg" xmlns:xlink="http://www.w3.org/1999/xlink">
<g id="graph0" class="graph" transform="scale(1 1) rotate(0) translate(4 143)">
<title>Ogre::D3D9HardwareOcclusionQuery</title>
<!-- Node1 -->
<g id="node1" class="node">
<title>Node1</title>
<g id="a_node1"><a xlink:title="This is a class that is the DirectX9 implementation of hardware occlusion testing.">
<polygon fill="#bfbfbf" stroke="black" points="76.83,-0.5 76.83,-28.5 233.44,-28.5 233.44,-0.5 76.83,-0.5"/>
<text text-anchor="start" x="84.83" y="-16.5" font-family="Helvetica,sans-Serif" font-size="10.00">Ogre::D3D9HardwareOcclusion</text>
<text text-anchor="middle" x="155.14" y="-6.5" font-family="Helvetica,sans-Serif" font-size="10.00">Query</text>
</a>
</g>
</g>
<!-- Node2 -->
<g id="node2" class="node">
<title>Node2</title>
<g id="a_node2"><a xlink:href="class_ogre_1_1_hardware_occlusion_query.html" target="_top" xlink:title="This is a abstract class that that provides the interface for the query class for hardware occlusion.">
<polygon fill="none" stroke="black" points="0,-65.5 0,-83.5 158.28,-83.5 158.28,-65.5 0,-65.5"/>
<text text-anchor="middle" x="79.14" y="-71.5" font-family="Helvetica,sans-Serif" font-size="10.00">Ogre::HardwareOcclusionQuery</text>
</a>
</g>
</g>
<!-- Node2&#45;&gt;Node1 -->
<g id="edge1" class="edge">
<title>Node2&#45;&gt;Node1</title>
<path fill="none" stroke="midnightblue" d="M97.88,-59.2C110.13,-49.85 126.02,-37.72 137.95,-28.62"/>
<polygon fill="midnightblue" stroke="midnightblue" points="95.53,-56.59 89.71,-65.44 99.78,-62.15 95.53,-56.59"/>
</g>
<!-- Node3 -->
<g id="node3" class="node">
<title>Node3</title>
<g id="a_node3"><a xlink:href="class_ogre_1_1_allocated_object.html" target="_top" xlink:title="Superclass for all objects that wish to use custom memory allocators when their new / delete operator...">
<polygon fill="none" stroke="black" points="35.57,-120.5 35.57,-138.5 122.71,-138.5 122.71,-120.5 35.57,-120.5"/>
<text text-anchor="middle" x="79.14" y="-126.5" font-family="Helvetica,sans-Serif" font-size="10.00">RenderSysAlloc</text>
</a>
</g>
</g>
<!-- Node3&#45;&gt;Node2 -->
<g id="edge2" class="edge">
<title>Node3&#45;&gt;Node2</title>
<path fill="none" stroke="midnightblue" d="M79.14,-110.17C79.14,-101.09 79.14,-90.59 79.14,-83.55"/>
<polygon fill="midnightblue" stroke="midnightblue" points="75.64,-110.22 79.14,-120.22 82.64,-110.22 75.64,-110.22"/>
</g>
<!-- Node4 -->
<g id="node4" class="node">
<title>Node4</title>
<g id="a_node4"><a xlink:href="class_ogre_1_1_d3_d9_resource.html" target="_top" xlink:title="Represents a Direct3D rendering resource.">
<polygon fill="none" stroke="black" points="176.06,-65.5 176.06,-83.5 288.21,-83.5 288.21,-65.5 176.06,-65.5"/>
<text text-anchor="middle" x="232.14" y="-71.5" font-family="Helvetica,sans-Serif" font-size="10.00">Ogre::D3D9Resource</text>
</a>
</g>
</g>
<!-- Node4&#45;&gt;Node1 -->
<g id="edge3" class="edge">
<title>Node4&#45;&gt;Node1</title>
<path fill="none" stroke="midnightblue" d="M213.15,-59.2C200.74,-49.85 184.64,-37.72 172.56,-28.62"/>
<polygon fill="midnightblue" stroke="midnightblue" points="211.34,-62.21 221.43,-65.44 215.55,-56.62 211.34,-62.21"/>
</g>
</g>
</svg>
