<?xml version="1.0" encoding="UTF-8" standalone="no"?>
<!DOCTYPE svg PUBLIC "-//W3C//DTD SVG 1.1//EN"
 "http://www.w3.org/Graphics/SVG/1.1/DTD/svg11.dtd">
<!-- Generated by graphviz version 2.43.0 (0)
 -->
<!-- Title: Ogre::RTShader::SubRenderStateFactory Pages: 1 -->
<svg width="512pt" height="591pt"
 viewBox="0.00 0.00 511.55 591.00" xmlns="http://www.w3.org/2000/svg" xmlns:xlink="http://www.w3.org/1999/xlink">
<g id="graph0" class="graph" transform="scale(1 1) rotate(0) translate(4 587)">
<title>Ogre::RTShader::SubRenderStateFactory</title>
<!-- Node1 -->
<g id="node1" class="node">
<title>Node1</title>
<g id="a_node1"><a xlink:title="Abstract factory interface for creating SubRenderState implementation instances.">
<polygon fill="#bfbfbf" stroke="black" points="152.42,-282.5 152.42,-310.5 297.75,-310.5 297.75,-282.5 152.42,-282.5"/>
<text text-anchor="start" x="160.42" y="-298.5" font-family="Helvetica,sans-Serif" font-size="10.00">Ogre::RTShader::SubRender</text>
<text text-anchor="middle" x="225.08" y="-288.5" font-family="Helvetica,sans-Serif" font-size="10.00">StateFactory</text>
</a>
</g>
</g>
<!-- Node3 -->
<g id="node3" class="node">
<title>Node3</title>
<g id="a_node3"><a xlink:href="class_ogre_1_1_r_t_shader_1_1_f_f_p_alpha_test_factory.html" target="_top" xlink:title=" ">
<polygon fill="none" stroke="black" points="349.42,-554.5 349.42,-582.5 487.89,-582.5 487.89,-554.5 349.42,-554.5"/>
<text text-anchor="start" x="357.42" y="-570.5" font-family="Helvetica,sans-Serif" font-size="10.00">Ogre::RTShader::FFPAlpha</text>
<text text-anchor="middle" x="418.65" y="-560.5" font-family="Helvetica,sans-Serif" font-size="10.00">TestFactory</text>
</a>
</g>
</g>
<!-- Node1&#45;&gt;Node3 -->
<g id="edge2" class="edge">
<title>Node1&#45;&gt;Node3</title>
<path fill="none" stroke="midnightblue" d="M229.49,-320.67C237.8,-370.44 263.83,-484.78 333.75,-545.5 338.43,-549.56 343.76,-552.91 349.41,-555.67"/>
<polygon fill="midnightblue" stroke="midnightblue" points="232.91,-319.87 227.89,-310.54 225.99,-320.96 232.91,-319.87"/>
</g>
<!-- Node4 -->
<g id="node4" class="node">
<title>Node4</title>
<g id="a_node4"><a xlink:href="class_ogre_1_1_r_t_shader_1_1_f_f_p_colour_factory.html" target="_top" xlink:title="A factory that enables creation of FFPColour instances.">
<polygon fill="none" stroke="black" points="347.11,-507.5 347.11,-535.5 490.2,-535.5 490.2,-507.5 347.11,-507.5"/>
<text text-anchor="start" x="355.11" y="-523.5" font-family="Helvetica,sans-Serif" font-size="10.00">Ogre::RTShader::FFPColour</text>
<text text-anchor="middle" x="418.65" y="-513.5" font-family="Helvetica,sans-Serif" font-size="10.00">Factory</text>
</a>
</g>
</g>
<!-- Node1&#45;&gt;Node4 -->
<g id="edge3" class="edge">
<title>Node1&#45;&gt;Node4</title>
<path fill="none" stroke="midnightblue" d="M232.12,-320.52C244.06,-363.01 274.8,-451.38 333.75,-498.5 338.12,-501.99 342.97,-504.95 348.09,-507.46"/>
<polygon fill="midnightblue" stroke="midnightblue" points="235.47,-319.5 229.48,-310.76 228.71,-321.32 235.47,-319.5"/>
</g>
<!-- Node5 -->
<g id="node5" class="node">
<title>Node5</title>
<g id="a_node5"><a xlink:href="class_ogre_1_1_r_t_shader_1_1_f_f_p_fog_factory.html" target="_top" xlink:title="A factory that enables creation of FFPFog instances.">
<polygon fill="none" stroke="black" points="336.55,-470.5 336.55,-488.5 500.75,-488.5 500.75,-470.5 336.55,-470.5"/>
<text text-anchor="middle" x="418.65" y="-476.5" font-family="Helvetica,sans-Serif" font-size="10.00">Ogre::RTShader::FFPFogFactory</text>
</a>
</g>
</g>
<!-- Node1&#45;&gt;Node5 -->
<g id="edge4" class="edge">
<title>Node1&#45;&gt;Node5</title>
<path fill="none" stroke="midnightblue" d="M234.78,-320.49C249.33,-357.01 282.18,-426.06 333.75,-461.5 339.03,-465.13 344.9,-468.04 351.02,-470.39"/>
<polygon fill="midnightblue" stroke="midnightblue" points="237.87,-318.76 231.01,-310.68 231.34,-321.27 237.87,-318.76"/>
</g>
<!-- Node6 -->
<g id="node6" class="node">
<title>Node6</title>
<g id="a_node6"><a xlink:href="class_ogre_1_1_r_t_shader_1_1_f_f_p_lighting_factory.html" target="_top" xlink:title="A factory that enables creation of FFPLighting instances.">
<polygon fill="none" stroke="black" points="344.32,-423.5 344.32,-451.5 492.98,-451.5 492.98,-423.5 344.32,-423.5"/>
<text text-anchor="start" x="352.32" y="-439.5" font-family="Helvetica,sans-Serif" font-size="10.00">Ogre::RTShader::FFPLighting</text>
<text text-anchor="middle" x="418.65" y="-429.5" font-family="Helvetica,sans-Serif" font-size="10.00">Factory</text>
</a>
</g>
</g>
<!-- Node1&#45;&gt;Node6 -->
<g id="edge5" class="edge">
<title>Node1&#45;&gt;Node6</title>
<path fill="none" stroke="midnightblue" d="M240.82,-319.26C259.34,-346.03 293.59,-389.91 333.75,-414.5 339.42,-417.97 345.62,-420.93 352,-423.44"/>
<polygon fill="midnightblue" stroke="midnightblue" points="243.66,-317.22 235.16,-310.89 237.87,-321.14 243.66,-317.22"/>
</g>
<!-- Node7 -->
<g id="node7" class="node">
<title>Node7</title>
<g id="a_node7"><a xlink:href="class_ogre_1_1_r_t_shader_1_1_f_f_p_texturing_factory.html" target="_top" xlink:title="A factory that enables creation of FFPTexturing instances.">
<polygon fill="none" stroke="black" points="341.55,-376.5 341.55,-404.5 495.76,-404.5 495.76,-376.5 341.55,-376.5"/>
<text text-anchor="start" x="349.55" y="-392.5" font-family="Helvetica,sans-Serif" font-size="10.00">Ogre::RTShader::FFPTexturing</text>
<text text-anchor="middle" x="418.65" y="-382.5" font-family="Helvetica,sans-Serif" font-size="10.00">Factory</text>
</a>
</g>
</g>
<!-- Node1&#45;&gt;Node7 -->
<g id="edge6" class="edge">
<title>Node1&#45;&gt;Node7</title>
<path fill="none" stroke="midnightblue" d="M251.81,-316.84C272.81,-332.59 303.81,-353.94 333.75,-367.5 341.18,-370.86 349.21,-373.83 357.25,-376.42"/>
<polygon fill="midnightblue" stroke="midnightblue" points="253.8,-313.96 243.72,-310.68 249.56,-319.53 253.8,-313.96"/>
</g>
<!-- Node8 -->
<g id="node8" class="node">
<title>Node8</title>
<g id="a_node8"><a xlink:href="class_ogre_1_1_r_t_shader_1_1_f_f_p_transform_factory.html" target="_top" xlink:title="A factory that enables creation of FFPTransform instances.">
<polygon fill="none" stroke="black" points="339.24,-329.5 339.24,-357.5 498.07,-357.5 498.07,-329.5 339.24,-329.5"/>
<text text-anchor="start" x="347.24" y="-345.5" font-family="Helvetica,sans-Serif" font-size="10.00">Ogre::RTShader::FFPTransform</text>
<text text-anchor="middle" x="418.65" y="-335.5" font-family="Helvetica,sans-Serif" font-size="10.00">Factory</text>
</a>
</g>
</g>
<!-- Node1&#45;&gt;Node8 -->
<g id="edge7" class="edge">
<title>Node1&#45;&gt;Node8</title>
<path fill="none" stroke="midnightblue" d="M293.2,-312.97C315.13,-318.35 339.27,-324.27 360.4,-329.45"/>
<polygon fill="midnightblue" stroke="midnightblue" points="293.85,-309.52 283.3,-310.54 292.18,-316.32 293.85,-309.52"/>
</g>
<!-- Node9 -->
<g id="node9" class="node">
<title>Node9</title>
<g id="a_node9"><a xlink:href="class_ogre_1_1_r_t_shader_1_1_hardware_skinning_factory.html" target="_top" xlink:title="A factory that enables creation of HardwareSkinning instances.">
<polygon fill="none" stroke="black" points="349.61,-282.5 349.61,-310.5 487.7,-310.5 487.7,-282.5 349.61,-282.5"/>
<text text-anchor="start" x="357.61" y="-298.5" font-family="Helvetica,sans-Serif" font-size="10.00">Ogre::RTShader::Hardware</text>
<text text-anchor="middle" x="418.65" y="-288.5" font-family="Helvetica,sans-Serif" font-size="10.00">SkinningFactory</text>
</a>
</g>
</g>
<!-- Node1&#45;&gt;Node9 -->
<g id="edge8" class="edge">
<title>Node1&#45;&gt;Node9</title>
<path fill="none" stroke="midnightblue" d="M308.36,-296.5C322.08,-296.5 336.18,-296.5 349.49,-296.5"/>
<polygon fill="midnightblue" stroke="midnightblue" points="307.96,-293 297.96,-296.5 307.96,-300 307.96,-293"/>
</g>
<!-- Node10 -->
<g id="node10" class="node">
<title>Node10</title>
<g id="a_node10"><a xlink:href="class_ogre_1_1_r_t_shader_1_1_integrated_p_s_s_m3_factory.html" target="_top" xlink:title="A factory that enables creation of IntegratedPSSM3 instances.">
<polygon fill="none" stroke="black" points="348.76,-235.5 348.76,-263.5 488.54,-263.5 488.54,-235.5 348.76,-235.5"/>
<text text-anchor="start" x="356.76" y="-251.5" font-family="Helvetica,sans-Serif" font-size="10.00">Ogre::RTShader::Integrated</text>
<text text-anchor="middle" x="418.65" y="-241.5" font-family="Helvetica,sans-Serif" font-size="10.00">PSSM3Factory</text>
</a>
</g>
</g>
<!-- Node1&#45;&gt;Node10 -->
<g id="edge9" class="edge">
<title>Node1&#45;&gt;Node10</title>
<path fill="none" stroke="midnightblue" d="M293.2,-280.03C315.13,-274.65 339.27,-268.73 360.4,-263.55"/>
<polygon fill="midnightblue" stroke="midnightblue" points="292.18,-276.68 283.3,-282.46 293.85,-283.48 292.18,-276.68"/>
</g>
<!-- Node11 -->
<g id="node11" class="node">
<title>Node11</title>
<g id="a_node11"><a xlink:href="class_ogre_1_1_r_t_shader_1_1_layered_blending_factory.html" target="_top" xlink:title="A factory that enables creation of LayeredBlending instances.">
<polygon fill="none" stroke="black" points="333.75,-188.5 333.75,-216.5 503.55,-216.5 503.55,-188.5 333.75,-188.5"/>
<text text-anchor="start" x="341.75" y="-204.5" font-family="Helvetica,sans-Serif" font-size="10.00">Ogre::RTShader::LayeredBlending</text>
<text text-anchor="middle" x="418.65" y="-194.5" font-family="Helvetica,sans-Serif" font-size="10.00">Factory</text>
</a>
</g>
</g>
<!-- Node1&#45;&gt;Node11 -->
<g id="edge10" class="edge">
<title>Node1&#45;&gt;Node11</title>
<path fill="none" stroke="midnightblue" d="M251.81,-276.16C272.81,-260.41 303.81,-239.06 333.75,-225.5 341.18,-222.14 349.21,-219.17 357.25,-216.58"/>
<polygon fill="midnightblue" stroke="midnightblue" points="249.56,-273.47 243.72,-282.32 253.8,-279.04 249.56,-273.47"/>
</g>
<!-- Node12 -->
<g id="node12" class="node">
<title>Node12</title>
<g id="a_node12"><a xlink:href="class_ogre_1_1_r_t_shader_1_1_normal_map_lighting_factory.html" target="_top" xlink:title="A factory that enables creation of NormalMapLighting instances.">
<polygon fill="none" stroke="black" points="345.44,-141.5 345.44,-169.5 491.87,-169.5 491.87,-141.5 345.44,-141.5"/>
<text text-anchor="start" x="353.44" y="-157.5" font-family="Helvetica,sans-Serif" font-size="10.00">Ogre::RTShader::NormalMap</text>
<text text-anchor="middle" x="418.65" y="-147.5" font-family="Helvetica,sans-Serif" font-size="10.00">LightingFactory</text>
</a>
</g>
</g>
<!-- Node1&#45;&gt;Node12 -->
<g id="edge11" class="edge">
<title>Node1&#45;&gt;Node12</title>
<path fill="none" stroke="midnightblue" d="M240.82,-273.74C259.34,-246.97 293.59,-203.09 333.75,-178.5 339.42,-175.03 345.62,-172.07 352,-169.56"/>
<polygon fill="midnightblue" stroke="midnightblue" points="237.87,-271.86 235.16,-282.11 243.66,-275.78 237.87,-271.86"/>
</g>
<!-- Node13 -->
<g id="node13" class="node">
<title>Node13</title>
<g id="a_node13"><a xlink:href="class_ogre_1_1_r_t_shader_1_1_per_pixel_lighting_factory.html" target="_top" xlink:title="A factory that enables creation of PerPixelLighting instances.">
<polygon fill="none" stroke="black" points="352.66,-94.5 352.66,-122.5 484.64,-122.5 484.64,-94.5 352.66,-94.5"/>
<text text-anchor="start" x="360.66" y="-110.5" font-family="Helvetica,sans-Serif" font-size="10.00">Ogre::RTShader::PerPixel</text>
<text text-anchor="middle" x="418.65" y="-100.5" font-family="Helvetica,sans-Serif" font-size="10.00">LightingFactory</text>
</a>
</g>
</g>
<!-- Node1&#45;&gt;Node13 -->
<g id="edge12" class="edge">
<title>Node1&#45;&gt;Node13</title>
<path fill="none" stroke="midnightblue" d="M235.26,-272.32C250.24,-236.13 283.44,-168.19 333.75,-131.5 339.36,-127.41 345.67,-124.04 352.24,-121.27"/>
<polygon fill="midnightblue" stroke="midnightblue" points="231.83,-271.47 231.35,-282.05 238.32,-274.08 231.83,-271.47"/>
</g>
<!-- Node14 -->
<g id="node14" class="node">
<title>Node14</title>
<g id="a_node14"><a xlink:href="class_ogre_1_1_r_t_shader_1_1_texture_atlas_sampler_factory.html" target="_top" xlink:title="A factory that enables creation of TextureAtlasSampler instances.">
<polygon fill="none" stroke="black" points="343.77,-47.5 343.77,-75.5 493.54,-75.5 493.54,-47.5 343.77,-47.5"/>
<text text-anchor="start" x="351.77" y="-63.5" font-family="Helvetica,sans-Serif" font-size="10.00">Ogre::RTShader::TextureAtlas</text>
<text text-anchor="middle" x="418.65" y="-53.5" font-family="Helvetica,sans-Serif" font-size="10.00">SamplerFactory</text>
</a>
</g>
</g>
<!-- Node1&#45;&gt;Node14 -->
<g id="edge13" class="edge">
<title>Node1&#45;&gt;Node14</title>
<path fill="none" stroke="midnightblue" d="M231.44,-272.56C242.57,-228.5 272.43,-134.52 333.75,-84.5 337.96,-81.06 342.65,-78.14 347.6,-75.65"/>
<polygon fill="midnightblue" stroke="midnightblue" points="228.02,-271.84 229.06,-282.39 234.82,-273.49 228.02,-271.84"/>
</g>
<!-- Node15 -->
<g id="node15" class="node">
<title>Node15</title>
<g id="a_node15"><a xlink:href="class_ogre_1_1_r_t_shader_1_1_triplanar_texturing_factory.html" target="_top" xlink:title="A factory that enables creation of TriplanarMapping instances.">
<polygon fill="none" stroke="black" points="351.73,-0.5 351.73,-28.5 485.57,-28.5 485.57,-0.5 351.73,-0.5"/>
<text text-anchor="start" x="359.73" y="-16.5" font-family="Helvetica,sans-Serif" font-size="10.00">Ogre::RTShader::Triplanar</text>
<text text-anchor="middle" x="418.65" y="-6.5" font-family="Helvetica,sans-Serif" font-size="10.00">TexturingFactory</text>
</a>
</g>
</g>
<!-- Node1&#45;&gt;Node15 -->
<g id="edge14" class="edge">
<title>Node1&#45;&gt;Node15</title>
<path fill="none" stroke="midnightblue" d="M229.07,-272.07C236.68,-220.72 261.58,-101.08 333.75,-37.5 338.96,-32.91 345.01,-29.22 351.43,-26.27"/>
<polygon fill="midnightblue" stroke="midnightblue" points="225.57,-271.84 227.67,-282.22 232.51,-272.8 225.57,-271.84"/>
</g>
<!-- Node2 -->
<g id="node2" class="node">
<title>Node2</title>
<g id="a_node2"><a xlink:href="class_ogre_1_1_allocated_object.html" target="_top" xlink:title="Superclass for all objects that wish to use custom memory allocators when their new / delete operator...">
<polygon fill="none" stroke="black" points="0,-287.5 0,-305.5 116.42,-305.5 116.42,-287.5 0,-287.5"/>
<text text-anchor="middle" x="58.21" y="-293.5" font-family="Helvetica,sans-Serif" font-size="10.00">RTShaderSystemAlloc</text>
</a>
</g>
</g>
<!-- Node2&#45;&gt;Node1 -->
<g id="edge1" class="edge">
<title>Node2&#45;&gt;Node1</title>
<path fill="none" stroke="midnightblue" d="M126.93,-296.5C135.28,-296.5 143.83,-296.5 152.24,-296.5"/>
<polygon fill="midnightblue" stroke="midnightblue" points="126.87,-293 116.87,-296.5 126.87,-300 126.87,-293"/>
</g>
</g>
</svg>
