<?xml version="1.0" encoding="UTF-8" standalone="no"?>
<!DOCTYPE svg PUBLIC "-//W3C//DTD SVG 1.1//EN"
 "http://www.w3.org/Graphics/SVG/1.1/DTD/svg11.dtd">
<!-- Generated by graphviz version 2.43.0 (0)
 -->
<!-- Title: Ogre::v1::PatchMesh Pages: 1 -->
<svg width="327pt" height="192pt"
 viewBox="0.00 0.00 327.28 192.00" xmlns="http://www.w3.org/2000/svg" xmlns:xlink="http://www.w3.org/1999/xlink">
<g id="graph0" class="graph" transform="scale(1 1) rotate(0) translate(4 188)">
<title>Ogre::v1::PatchMesh</title>
<!-- Node1 -->
<g id="node1" class="node">
<title>Node1</title>
<g id="a_node1"><a xlink:title="Patch specialisation of Mesh.">
<polygon fill="#bfbfbf" stroke="black" points="122.45,-0.5 122.45,-18.5 232.38,-18.5 232.38,-0.5 122.45,-0.5"/>
<text text-anchor="middle" x="177.41" y="-6.5" font-family="Helvetica,sans-Serif" font-size="10.00">Ogre::v1::PatchMesh</text>
</a>
</g>
</g>
<!-- Node2 -->
<g id="node2" class="node">
<title>Node2</title>
<g id="a_node2"><a xlink:href="class_ogre_1_1v1_1_1_mesh.html" target="_top" xlink:title="Resource holding data about 3D mesh.">
<polygon fill="none" stroke="black" points="135.23,-55.5 135.23,-73.5 219.59,-73.5 219.59,-55.5 135.23,-55.5"/>
<text text-anchor="middle" x="177.41" y="-61.5" font-family="Helvetica,sans-Serif" font-size="10.00">Ogre::v1::Mesh</text>
</a>
</g>
</g>
<!-- Node2&#45;&gt;Node1 -->
<g id="edge1" class="edge">
<title>Node2&#45;&gt;Node1</title>
<path fill="none" stroke="midnightblue" d="M177.41,-45.17C177.41,-36.09 177.41,-25.59 177.41,-18.55"/>
<polygon fill="midnightblue" stroke="midnightblue" points="173.91,-45.22 177.41,-55.22 180.91,-45.22 173.91,-45.22"/>
</g>
<!-- Node3 -->
<g id="node3" class="node">
<title>Node3</title>
<g id="a_node3"><a xlink:href="class_ogre_1_1_resource.html" target="_top" xlink:title="Abstract class representing a loadable resource (e.g.">
<polygon fill="none" stroke="black" points="67.12,-110.5 67.12,-128.5 153.7,-128.5 153.7,-110.5 67.12,-110.5"/>
<text text-anchor="middle" x="110.41" y="-116.5" font-family="Helvetica,sans-Serif" font-size="10.00">Ogre::Resource</text>
</a>
</g>
</g>
<!-- Node3&#45;&gt;Node2 -->
<g id="edge2" class="edge">
<title>Node3&#45;&gt;Node2</title>
<path fill="none" stroke="midnightblue" d="M128.48,-104.21C140.87,-94.41 156.87,-81.75 167.14,-73.63"/>
<polygon fill="midnightblue" stroke="midnightblue" points="126.26,-101.5 120.59,-110.45 130.6,-106.99 126.26,-101.5"/>
</g>
<!-- Node4 -->
<g id="node4" class="node">
<title>Node4</title>
<g id="a_node4"><a xlink:href="class_ogre_1_1_string_interface.html" target="_top" xlink:title="Class defining the common interface which classes can use to present a reflection&#45;style,...">
<polygon fill="none" stroke="black" points="0,-165.5 0,-183.5 108.82,-183.5 108.82,-165.5 0,-165.5"/>
<text text-anchor="middle" x="54.41" y="-171.5" font-family="Helvetica,sans-Serif" font-size="10.00">Ogre::StringInterface</text>
</a>
</g>
</g>
<!-- Node4&#45;&gt;Node3 -->
<g id="edge3" class="edge">
<title>Node4&#45;&gt;Node3</title>
<path fill="none" stroke="midnightblue" d="M70.67,-158.11C80.89,-148.44 93.64,-136.37 101.91,-128.55"/>
<polygon fill="midnightblue" stroke="midnightblue" points="68.02,-155.8 63.16,-165.22 72.83,-160.89 68.02,-155.8"/>
</g>
<!-- Node5 -->
<g id="node5" class="node">
<title>Node5</title>
<g id="a_node5"><a xlink:href="class_ogre_1_1_allocated_object.html" target="_top" xlink:title="Superclass for all objects that wish to use custom memory allocators when their new / delete operator...">
<polygon fill="none" stroke="black" points="127.17,-165.5 127.17,-183.5 207.65,-183.5 207.65,-165.5 127.17,-165.5"/>
<text text-anchor="middle" x="167.41" y="-171.5" font-family="Helvetica,sans-Serif" font-size="10.00">ResourceAlloc</text>
</a>
</g>
</g>
<!-- Node5&#45;&gt;Node3 -->
<g id="edge4" class="edge">
<title>Node5&#45;&gt;Node3</title>
<path fill="none" stroke="midnightblue" d="M151.17,-158.4C140.72,-148.68 127.56,-136.45 119.07,-128.55"/>
<polygon fill="midnightblue" stroke="midnightblue" points="148.8,-160.97 158.5,-165.22 153.56,-155.85 148.8,-160.97"/>
</g>
<!-- Node6 -->
<g id="node6" class="node">
<title>Node6</title>
<g id="a_node6"><a xlink:href="class_ogre_1_1v1_1_1_animation_container.html" target="_top" xlink:title="An animation container interface, which allows generic access to sibling animations.">
<polygon fill="none" stroke="black" points="171.54,-110.5 171.54,-128.5 319.28,-128.5 319.28,-110.5 171.54,-110.5"/>
<text text-anchor="middle" x="245.41" y="-116.5" font-family="Helvetica,sans-Serif" font-size="10.00">Ogre::v1::AnimationContainer</text>
</a>
</g>
</g>
<!-- Node6&#45;&gt;Node2 -->
<g id="edge5" class="edge">
<title>Node6&#45;&gt;Node2</title>
<path fill="none" stroke="midnightblue" d="M227.08,-104.21C214.5,-94.41 198.26,-81.75 187.84,-73.63"/>
<polygon fill="midnightblue" stroke="midnightblue" points="225.04,-107.06 235.08,-110.45 229.35,-101.54 225.04,-107.06"/>
</g>
</g>
</svg>
