<?xml version="1.0" encoding="UTF-8" standalone="no"?>
<!DOCTYPE svg PUBLIC "-//W3C//DTD SVG 1.1//EN"
 "http://www.w3.org/Graphics/SVG/1.1/DTD/svg11.dtd">
<!-- Generated by graphviz version 2.43.0 (0)
 -->
<!-- Title: Ogre::CompositorNodeTranslator Pages: 1 -->
<svg width="171pt" height="202pt"
 viewBox="0.00 0.00 171.47 202.00" xmlns="http://www.w3.org/2000/svg" xmlns:xlink="http://www.w3.org/1999/xlink">
<g id="graph0" class="graph" transform="scale(1 1) rotate(0) translate(4 198)">
<title>Ogre::CompositorNodeTranslator</title>
<!-- Node1 -->
<g id="node1" class="node">
<title>Node1</title>
<g id="a_node1"><a xlink:title=" ">
<polygon fill="#bfbfbf" stroke="black" points="0,-0.5 0,-18.5 163.47,-18.5 163.47,-0.5 0,-0.5"/>
<text text-anchor="middle" x="81.74" y="-6.5" font-family="Helvetica,sans-Serif" font-size="10.00">Ogre::CompositorNodeTranslator</text>
</a>
</g>
</g>
<!-- Node2 -->
<g id="node2" class="node">
<title>Node2</title>
<g id="a_node2"><a xlink:href="class_ogre_1_1_compositor_texture_base_translator.html" target="_top" xlink:title=" ">
<polygon fill="none" stroke="black" points="6.48,-55.5 6.48,-83.5 156.99,-83.5 156.99,-55.5 6.48,-55.5"/>
<text text-anchor="start" x="14.48" y="-71.5" font-family="Helvetica,sans-Serif" font-size="10.00">Ogre::CompositorTextureBase</text>
<text text-anchor="middle" x="81.74" y="-61.5" font-family="Helvetica,sans-Serif" font-size="10.00">Translator</text>
</a>
</g>
</g>
<!-- Node2&#45;&gt;Node1 -->
<g id="edge1" class="edge">
<title>Node2&#45;&gt;Node1</title>
<path fill="none" stroke="midnightblue" d="M81.74,-45.32C81.74,-35.94 81.74,-25.7 81.74,-18.77"/>
<polygon fill="midnightblue" stroke="midnightblue" points="78.24,-45.34 81.74,-55.34 85.24,-45.34 78.24,-45.34"/>
</g>
<!-- Node3 -->
<g id="node3" class="node">
<title>Node3</title>
<g id="a_node3"><a xlink:href="class_ogre_1_1_script_translator.html" target="_top" xlink:title="This class translates script AST (abstract syntax tree) into Ogre resources.">
<polygon fill="none" stroke="black" points="24.74,-120.5 24.74,-138.5 138.73,-138.5 138.73,-120.5 24.74,-120.5"/>
<text text-anchor="middle" x="81.74" y="-126.5" font-family="Helvetica,sans-Serif" font-size="10.00">Ogre::ScriptTranslator</text>
</a>
</g>
</g>
<!-- Node3&#45;&gt;Node2 -->
<g id="edge2" class="edge">
<title>Node3&#45;&gt;Node2</title>
<path fill="none" stroke="midnightblue" d="M81.74,-110.32C81.74,-101.75 81.74,-91.7 81.74,-83.84"/>
<polygon fill="midnightblue" stroke="midnightblue" points="78.24,-110.44 81.74,-120.44 85.24,-110.44 78.24,-110.44"/>
</g>
<!-- Node4 -->
<g id="node4" class="node">
<title>Node4</title>
<g id="a_node4"><a xlink:href="class_ogre_1_1_allocated_object.html" target="_top" xlink:title="Superclass for all objects that wish to use custom memory allocators when their new / delete operator...">
<polygon fill="none" stroke="black" points="27.79,-175.5 27.79,-193.5 135.68,-193.5 135.68,-175.5 27.79,-175.5"/>
<text text-anchor="middle" x="81.74" y="-181.5" font-family="Helvetica,sans-Serif" font-size="10.00">ScriptTranslatorAlloc</text>
</a>
</g>
</g>
<!-- Node4&#45;&gt;Node3 -->
<g id="edge3" class="edge">
<title>Node4&#45;&gt;Node3</title>
<path fill="none" stroke="midnightblue" d="M81.74,-165.17C81.74,-156.09 81.74,-145.59 81.74,-138.55"/>
<polygon fill="midnightblue" stroke="midnightblue" points="78.24,-165.22 81.74,-175.22 85.24,-165.22 78.24,-165.22"/>
</g>
</g>
</svg>
