<?xml version="1.0" encoding="UTF-8" standalone="no"?>
<!DOCTYPE svg PUBLIC "-//W3C//DTD SVG 1.1//EN"
 "http://www.w3.org/Graphics/SVG/1.1/DTD/svg11.dtd">
<!-- Generated by graphviz version 2.43.0 (0)
 -->
<!-- Title: Ogre::D3D11BufferInterface Pages: 1 -->
<svg width="170pt" height="137pt"
 viewBox="0.00 0.00 170.39 137.00" xmlns="http://www.w3.org/2000/svg" xmlns:xlink="http://www.w3.org/1999/xlink">
<g id="graph0" class="graph" transform="scale(1 1) rotate(0) translate(4 133)">
<title>Ogre::D3D11BufferInterface</title>
<!-- Node1 -->
<g id="node1" class="node">
<title>Node1</title>
<g id="a_node1"><a xlink:title="For D3D11, most (if not all) buffers, can be treated with the same code.">
<polygon fill="#bfbfbf" stroke="black" points="11.4,-0.5 11.4,-18.5 150.99,-18.5 150.99,-0.5 11.4,-0.5"/>
<text text-anchor="middle" x="81.19" y="-6.5" font-family="Helvetica,sans-Serif" font-size="10.00">Ogre::D3D11BufferInterface</text>
</a>
</g>
</g>
<!-- Node2 -->
<g id="node2" class="node">
<title>Node2</title>
<g id="a_node2"><a xlink:href="class_ogre_1_1_d3_d11_buffer_interface_base.html" target="_top" xlink:title="For D3D11, most (if not all) buffers, can be treated with the same code.">
<polygon fill="none" stroke="black" points="0,-55.5 0,-73.5 162.39,-73.5 162.39,-55.5 0,-55.5"/>
<text text-anchor="middle" x="81.19" y="-61.5" font-family="Helvetica,sans-Serif" font-size="10.00">Ogre::D3D11BufferInterfaceBase</text>
</a>
</g>
</g>
<!-- Node2&#45;&gt;Node1 -->
<g id="edge1" class="edge">
<title>Node2&#45;&gt;Node1</title>
<path fill="none" stroke="midnightblue" d="M81.19,-45.17C81.19,-36.09 81.19,-25.59 81.19,-18.55"/>
<polygon fill="midnightblue" stroke="midnightblue" points="77.69,-45.22 81.19,-55.22 84.69,-45.22 77.69,-45.22"/>
</g>
<!-- Node3 -->
<g id="node3" class="node">
<title>Node3</title>
<g id="a_node3"><a xlink:href="class_ogre_1_1_buffer_interface.html" target="_top" xlink:title="Most (if not all) buffers, can be treated with the same code.">
<polygon fill="none" stroke="black" points="26.59,-110.5 26.59,-128.5 135.79,-128.5 135.79,-110.5 26.59,-110.5"/>
<text text-anchor="middle" x="81.19" y="-116.5" font-family="Helvetica,sans-Serif" font-size="10.00">Ogre::BufferInterface</text>
</a>
</g>
</g>
<!-- Node3&#45;&gt;Node2 -->
<g id="edge2" class="edge">
<title>Node3&#45;&gt;Node2</title>
<path fill="none" stroke="midnightblue" d="M81.19,-100.17C81.19,-91.09 81.19,-80.59 81.19,-73.55"/>
<polygon fill="midnightblue" stroke="midnightblue" points="77.69,-100.22 81.19,-110.22 84.69,-100.22 77.69,-100.22"/>
</g>
</g>
</svg>
