<?xml version="1.0" encoding="UTF-8" standalone="no"?>
<!DOCTYPE svg PUBLIC "-//W3C//DTD SVG 1.1//EN"
 "http://www.w3.org/Graphics/SVG/1.1/DTD/svg11.dtd">
<!-- Generated by graphviz version 2.43.0 (0)
 -->
<!-- Title: Ogre::D3D9RenderSystem Pages: 1 -->
<svg width="143pt" height="137pt"
 viewBox="0.00 0.00 143.49 137.00" xmlns="http://www.w3.org/2000/svg" xmlns:xlink="http://www.w3.org/1999/xlink">
<g id="graph0" class="graph" transform="scale(1 1) rotate(0) translate(4 133)">
<title>Ogre::D3D9RenderSystem</title>
<!-- Node1 -->
<g id="node1" class="node">
<title>Node1</title>
<g id="a_node1"><a xlink:title="Implementation of DirectX9 as a rendering system.">
<polygon fill="#bfbfbf" stroke="black" points="0,-0.5 0,-18.5 135.49,-18.5 135.49,-0.5 0,-0.5"/>
<text text-anchor="middle" x="67.75" y="-6.5" font-family="Helvetica,sans-Serif" font-size="10.00">Ogre::D3D9RenderSystem</text>
</a>
</g>
</g>
<!-- Node2 -->
<g id="node2" class="node">
<title>Node2</title>
<g id="a_node2"><a xlink:href="class_ogre_1_1_render_system.html" target="_top" xlink:title="Defines the functionality of a 3D API.">
<polygon fill="none" stroke="black" points="12.78,-55.5 12.78,-73.5 122.71,-73.5 122.71,-55.5 12.78,-55.5"/>
<text text-anchor="middle" x="67.75" y="-61.5" font-family="Helvetica,sans-Serif" font-size="10.00">Ogre::RenderSystem</text>
</a>
</g>
</g>
<!-- Node2&#45;&gt;Node1 -->
<g id="edge1" class="edge">
<title>Node2&#45;&gt;Node1</title>
<path fill="none" stroke="midnightblue" d="M67.75,-45.17C67.75,-36.09 67.75,-25.59 67.75,-18.55"/>
<polygon fill="midnightblue" stroke="midnightblue" points="64.25,-45.22 67.75,-55.22 71.25,-45.22 64.25,-45.22"/>
</g>
<!-- Node3 -->
<g id="node3" class="node">
<title>Node3</title>
<g id="a_node3"><a xlink:href="class_ogre_1_1_allocated_object.html" target="_top" xlink:title="Superclass for all objects that wish to use custom memory allocators when their new / delete operator...">
<polygon fill="none" stroke="black" points="24.17,-110.5 24.17,-128.5 111.32,-128.5 111.32,-110.5 24.17,-110.5"/>
<text text-anchor="middle" x="67.75" y="-116.5" font-family="Helvetica,sans-Serif" font-size="10.00">RenderSysAlloc</text>
</a>
</g>
</g>
<!-- Node3&#45;&gt;Node2 -->
<g id="edge2" class="edge">
<title>Node3&#45;&gt;Node2</title>
<path fill="none" stroke="midnightblue" d="M67.75,-100.17C67.75,-91.09 67.75,-80.59 67.75,-73.55"/>
<polygon fill="midnightblue" stroke="midnightblue" points="64.25,-100.22 67.75,-110.22 71.25,-100.22 64.25,-100.22"/>
</g>
</g>
</svg>
