<?xml version="1.0" encoding="UTF-8" standalone="no"?>
<!DOCTYPE svg PUBLIC "-//W3C//DTD SVG 1.1//EN"
 "http://www.w3.org/Graphics/SVG/1.1/DTD/svg11.dtd">
<!-- Generated by graphviz version 2.43.0 (0)
 -->
<!-- Title: Ogre::CompositorPassTranslator Pages: 1 -->
<svg width="170pt" height="137pt"
 viewBox="0.00 0.00 169.80 137.00" xmlns="http://www.w3.org/2000/svg" xmlns:xlink="http://www.w3.org/1999/xlink">
<g id="graph0" class="graph" transform="scale(1 1) rotate(0) translate(4 133)">
<title>Ogre::CompositorPassTranslator</title>
<!-- Node1 -->
<g id="node1" class="node">
<title>Node1</title>
<g id="a_node1"><a xlink:title=" ">
<polygon fill="#bfbfbf" stroke="black" points="0,-0.5 0,-18.5 161.8,-18.5 161.8,-0.5 0,-0.5"/>
<text text-anchor="middle" x="80.9" y="-6.5" font-family="Helvetica,sans-Serif" font-size="10.00">Ogre::CompositorPassTranslator</text>
</a>
</g>
</g>
<!-- Node2 -->
<g id="node2" class="node">
<title>Node2</title>
<g id="a_node2"><a xlink:href="class_ogre_1_1_script_translator.html" target="_top" xlink:title="This class translates script AST (abstract syntax tree) into Ogre resources.">
<polygon fill="none" stroke="black" points="23.9,-55.5 23.9,-73.5 137.9,-73.5 137.9,-55.5 23.9,-55.5"/>
<text text-anchor="middle" x="80.9" y="-61.5" font-family="Helvetica,sans-Serif" font-size="10.00">Ogre::ScriptTranslator</text>
</a>
</g>
</g>
<!-- Node2&#45;&gt;Node1 -->
<g id="edge1" class="edge">
<title>Node2&#45;&gt;Node1</title>
<path fill="none" stroke="midnightblue" d="M80.9,-45.17C80.9,-36.09 80.9,-25.59 80.9,-18.55"/>
<polygon fill="midnightblue" stroke="midnightblue" points="77.4,-45.22 80.9,-55.22 84.4,-45.22 77.4,-45.22"/>
</g>
<!-- Node3 -->
<g id="node3" class="node">
<title>Node3</title>
<g id="a_node3"><a xlink:href="class_ogre_1_1_allocated_object.html" target="_top" xlink:title="Superclass for all objects that wish to use custom memory allocators when their new / delete operator...">
<polygon fill="none" stroke="black" points="26.96,-110.5 26.96,-128.5 134.84,-128.5 134.84,-110.5 26.96,-110.5"/>
<text text-anchor="middle" x="80.9" y="-116.5" font-family="Helvetica,sans-Serif" font-size="10.00">ScriptTranslatorAlloc</text>
</a>
</g>
</g>
<!-- Node3&#45;&gt;Node2 -->
<g id="edge2" class="edge">
<title>Node3&#45;&gt;Node2</title>
<path fill="none" stroke="midnightblue" d="M80.9,-100.17C80.9,-91.09 80.9,-80.59 80.9,-73.55"/>
<polygon fill="midnightblue" stroke="midnightblue" points="77.4,-100.22 80.9,-110.22 84.4,-100.22 77.4,-100.22"/>
</g>
</g>
</svg>
