<?xml version="1.0" encoding="UTF-8" standalone="no"?>
<!DOCTYPE svg PUBLIC "-//W3C//DTD SVG 1.1//EN"
 "http://www.w3.org/Graphics/SVG/1.1/DTD/svg11.dtd">
<!-- Generated by graphviz version 2.43.0 (0)
 -->
<!-- Title: Ogre::D3D9StereoDriverImpl Pages: 1 -->
<svg width="332pt" height="137pt"
 viewBox="0.00 0.00 332.26 137.00" xmlns="http://www.w3.org/2000/svg" xmlns:xlink="http://www.w3.org/1999/xlink">
<g id="graph0" class="graph" transform="scale(1 1) rotate(0) translate(4 133)">
<title>Ogre::D3D9StereoDriverImpl</title>
<!-- Node1 -->
<g id="node1" class="node">
<title>Node1</title>
<g id="a_node1"><a xlink:title="Virtual interface of the stereo driver.">
<polygon fill="#bfbfbf" stroke="black" points="86.67,-55.5 86.67,-73.5 231.04,-73.5 231.04,-55.5 86.67,-55.5"/>
<text text-anchor="middle" x="158.85" y="-61.5" font-family="Helvetica,sans-Serif" font-size="10.00">Ogre::D3D9StereoDriverImpl</text>
</a>
</g>
</g>
<!-- Node3 -->
<g id="node3" class="node">
<title>Node3</title>
<g id="a_node3"><a xlink:href="class_ogre_1_1_d3_d9_stereo_driver_a_m_d.html" target="_top" xlink:title="Virtual interface of the stereo driver.">
<polygon fill="none" stroke="black" points="0,-0.5 0,-18.5 147.7,-18.5 147.7,-0.5 0,-0.5"/>
<text text-anchor="middle" x="73.85" y="-6.5" font-family="Helvetica,sans-Serif" font-size="10.00">Ogre::D3D9StereoDriverAMD</text>
</a>
</g>
</g>
<!-- Node1&#45;&gt;Node3 -->
<g id="edge2" class="edge">
<title>Node1&#45;&gt;Node3</title>
<path fill="none" stroke="midnightblue" d="M137.28,-50.05C121.39,-40.14 100.29,-26.98 86.88,-18.63"/>
<polygon fill="midnightblue" stroke="midnightblue" points="135.6,-53.13 145.94,-55.45 139.31,-47.19 135.6,-53.13"/>
</g>
<!-- Node4 -->
<g id="node4" class="node">
<title>Node4</title>
<g id="a_node4"><a xlink:href="class_ogre_1_1_d3_d9_stereo_driver_n_v_i_d_i_a.html" target="_top" xlink:title="Interface of the NVIDIA stereo driver.">
<polygon fill="none" stroke="black" points="165.44,-0.5 165.44,-18.5 324.26,-18.5 324.26,-0.5 165.44,-0.5"/>
<text text-anchor="middle" x="244.85" y="-6.5" font-family="Helvetica,sans-Serif" font-size="10.00">Ogre::D3D9StereoDriverNVIDIA</text>
</a>
</g>
</g>
<!-- Node1&#45;&gt;Node4 -->
<g id="edge3" class="edge">
<title>Node1&#45;&gt;Node4</title>
<path fill="none" stroke="midnightblue" d="M180.68,-50.05C196.76,-40.14 218.11,-26.98 231.67,-18.63"/>
<polygon fill="midnightblue" stroke="midnightblue" points="178.59,-47.22 171.91,-55.45 182.26,-53.18 178.59,-47.22"/>
</g>
<!-- Node2 -->
<g id="node2" class="node">
<title>Node2</title>
<g id="a_node2"><a xlink:href="class_ogre_1_1_allocated_object.html" target="_top" xlink:title="Superclass for all objects that wish to use custom memory allocators when their new / delete operator...">
<polygon fill="none" stroke="black" points="118.62,-110.5 118.62,-128.5 199.09,-128.5 199.09,-110.5 118.62,-110.5"/>
<text text-anchor="middle" x="158.85" y="-116.5" font-family="Helvetica,sans-Serif" font-size="10.00">ResourceAlloc</text>
</a>
</g>
</g>
<!-- Node2&#45;&gt;Node1 -->
<g id="edge1" class="edge">
<title>Node2&#45;&gt;Node1</title>
<path fill="none" stroke="midnightblue" d="M158.85,-100.17C158.85,-91.09 158.85,-80.59 158.85,-73.55"/>
<polygon fill="midnightblue" stroke="midnightblue" points="155.35,-100.22 158.85,-110.22 162.35,-100.22 155.35,-100.22"/>
</g>
</g>
</svg>
