<?xml version="1.0" encoding="UTF-8" standalone="no"?>
<!DOCTYPE svg PUBLIC "-//W3C//DTD SVG 1.1//EN"
 "http://www.w3.org/Graphics/SVG/1.1/DTD/svg11.dtd">
<!-- Generated by graphviz version 2.43.0 (0)
 -->
<!-- Title: Ogre::RTShader::FFPLighting Pages: 1 -->
<svg width="157pt" height="147pt"
 viewBox="0.00 0.00 156.66 147.00" xmlns="http://www.w3.org/2000/svg" xmlns:xlink="http://www.w3.org/1999/xlink">
<g id="graph0" class="graph" transform="scale(1 1) rotate(0) translate(4 143)">
<title>Ogre::RTShader::FFPLighting</title>
<!-- Node1 -->
<g id="node1" class="node">
<title>Node1</title>
<g id="a_node1"><a xlink:title="Lighting sub render state implementation of the Fixed Function Pipeline.">
<polygon fill="#bfbfbf" stroke="black" points="0,-0.5 0,-18.5 148.66,-18.5 148.66,-0.5 0,-0.5"/>
<text text-anchor="middle" x="74.33" y="-6.5" font-family="Helvetica,sans-Serif" font-size="10.00">Ogre::RTShader::FFPLighting</text>
</a>
</g>
</g>
<!-- Node2 -->
<g id="node2" class="node">
<title>Node2</title>
<g id="a_node2"><a xlink:href="class_ogre_1_1_r_t_shader_1_1_sub_render_state.html" target="_top" xlink:title="This class is the base interface of sub part from a shader based rendering pipeline.">
<polygon fill="none" stroke="black" points="1.66,-55.5 1.66,-83.5 147,-83.5 147,-55.5 1.66,-55.5"/>
<text text-anchor="start" x="9.66" y="-71.5" font-family="Helvetica,sans-Serif" font-size="10.00">Ogre::RTShader::SubRender</text>
<text text-anchor="middle" x="74.33" y="-61.5" font-family="Helvetica,sans-Serif" font-size="10.00">State</text>
</a>
</g>
</g>
<!-- Node2&#45;&gt;Node1 -->
<g id="edge1" class="edge">
<title>Node2&#45;&gt;Node1</title>
<path fill="none" stroke="midnightblue" d="M74.33,-45.32C74.33,-35.94 74.33,-25.7 74.33,-18.77"/>
<polygon fill="midnightblue" stroke="midnightblue" points="70.83,-45.34 74.33,-55.34 77.83,-45.34 70.83,-45.34"/>
</g>
<!-- Node3 -->
<g id="node3" class="node">
<title>Node3</title>
<g id="a_node3"><a xlink:href="class_ogre_1_1_allocated_object.html" target="_top" xlink:title="Superclass for all objects that wish to use custom memory allocators when their new / delete operator...">
<polygon fill="none" stroke="black" points="16.12,-120.5 16.12,-138.5 132.54,-138.5 132.54,-120.5 16.12,-120.5"/>
<text text-anchor="middle" x="74.33" y="-126.5" font-family="Helvetica,sans-Serif" font-size="10.00">RTShaderSystemAlloc</text>
</a>
</g>
</g>
<!-- Node3&#45;&gt;Node2 -->
<g id="edge2" class="edge">
<title>Node3&#45;&gt;Node2</title>
<path fill="none" stroke="midnightblue" d="M74.33,-110.32C74.33,-101.75 74.33,-91.7 74.33,-83.84"/>
<polygon fill="midnightblue" stroke="midnightblue" points="70.83,-110.44 74.33,-120.44 77.83,-110.44 70.83,-110.44"/>
</g>
</g>
</svg>
