<?xml version="1.0" encoding="UTF-8" standalone="no"?>
<!DOCTYPE svg PUBLIC "-//W3C//DTD SVG 1.1//EN"
 "http://www.w3.org/Graphics/SVG/1.1/DTD/svg11.dtd">
<!-- Generated by graphviz version 2.43.0 (0)
 -->
<!-- Title: Ogre::TerrainMaterialGeneratorA::SM2Profile Pages: 1 -->
<svg width="163pt" height="157pt"
 viewBox="0.00 0.00 162.95 157.00" xmlns="http://www.w3.org/2000/svg" xmlns:xlink="http://www.w3.org/1999/xlink">
<g id="graph0" class="graph" transform="scale(1 1) rotate(0) translate(4 153)">
<title>Ogre::TerrainMaterialGeneratorA::SM2Profile</title>
<!-- Node1 -->
<g id="node1" class="node">
<title>Node1</title>
<g id="a_node1"><a xlink:title="Shader model 2 profile target.">
<polygon fill="#bfbfbf" stroke="black" points="0,-0.5 0,-28.5 154.95,-28.5 154.95,-0.5 0,-0.5"/>
<text text-anchor="start" x="8" y="-16.5" font-family="Helvetica,sans-Serif" font-size="10.00">Ogre::TerrainMaterialGenerator</text>
<text text-anchor="middle" x="77.47" y="-6.5" font-family="Helvetica,sans-Serif" font-size="10.00">A::SM2Profile</text>
</a>
</g>
</g>
<!-- Node2 -->
<g id="node2" class="node">
<title>Node2</title>
<g id="a_node2"><a xlink:href="class_ogre_1_1_terrain_material_generator_1_1_profile.html" target="_top" xlink:title="Inner class which should also be subclassed to provide profile&#45;specific material generation.">
<polygon fill="none" stroke="black" points="0,-65.5 0,-93.5 154.95,-93.5 154.95,-65.5 0,-65.5"/>
<text text-anchor="start" x="8" y="-81.5" font-family="Helvetica,sans-Serif" font-size="10.00">Ogre::TerrainMaterialGenerator</text>
<text text-anchor="middle" x="77.47" y="-71.5" font-family="Helvetica,sans-Serif" font-size="10.00">::Profile</text>
</a>
</g>
</g>
<!-- Node2&#45;&gt;Node1 -->
<g id="edge1" class="edge">
<title>Node2&#45;&gt;Node1</title>
<path fill="none" stroke="midnightblue" d="M77.47,-55.16C77.47,-46.17 77.47,-36.22 77.47,-28.54"/>
<polygon fill="midnightblue" stroke="midnightblue" points="73.97,-55.45 77.47,-65.45 80.97,-55.45 73.97,-55.45"/>
</g>
<!-- Node3 -->
<g id="node3" class="node">
<title>Node3</title>
<g id="a_node3"><a xlink:href="class_ogre_1_1_allocated_object.html" target="_top" xlink:title="Superclass for all objects that wish to use custom memory allocators when their new / delete operator...">
<polygon fill="none" stroke="black" points="43.35,-130.5 43.35,-148.5 111.59,-148.5 111.59,-130.5 43.35,-130.5"/>
<text text-anchor="middle" x="77.47" y="-136.5" font-family="Helvetica,sans-Serif" font-size="10.00">TerrainAlloc</text>
</a>
</g>
</g>
<!-- Node3&#45;&gt;Node2 -->
<g id="edge2" class="edge">
<title>Node3&#45;&gt;Node2</title>
<path fill="none" stroke="midnightblue" d="M77.47,-120.32C77.47,-111.75 77.47,-101.7 77.47,-93.84"/>
<polygon fill="midnightblue" stroke="midnightblue" points="73.97,-120.44 77.47,-130.44 80.97,-120.44 73.97,-120.44"/>
</g>
</g>
</svg>
