<?xml version="1.0" encoding="UTF-8" standalone="no"?>
<!DOCTYPE svg PUBLIC "-//W3C//DTD SVG 1.1//EN"
 "http://www.w3.org/Graphics/SVG/1.1/DTD/svg11.dtd">
<!-- Generated by graphviz version 2.43.0 (0)
 -->
<!-- Title: Ogre::Octree Pages: 1 -->
<svg width="214pt" height="82pt"
 viewBox="0.00 0.00 214.10 82.00" xmlns="http://www.w3.org/2000/svg" xmlns:xlink="http://www.w3.org/1999/xlink">
<g id="graph0" class="graph" transform="scale(1 1) rotate(0) translate(4 78)">
<title>Ogre::Octree</title>
<!-- Node1 -->
<g id="node1" class="node">
<title>Node1</title>
<g id="a_node1"><a xlink:title="Octree datastructure for managing scene nodes.">
<polygon fill="#bfbfbf" stroke="black" points="82.41,-0.5 82.41,-18.5 156.21,-18.5 156.21,-0.5 82.41,-0.5"/>
<text text-anchor="middle" x="119.31" y="-6.5" font-family="Helvetica,sans-Serif" font-size="10.00">Ogre::Octree</text>
</a>
</g>
</g>
<!-- Node2 -->
<g id="node2" class="node">
<title>Node2</title>
<g id="a_node2"><a xlink:href="class_ogre_1_1_allocated_object.html" target="_top" xlink:title="Superclass for all objects that wish to use custom memory allocators when their new / delete operator...">
<polygon fill="none" stroke="black" points="0,-55.5 0,-73.5 126.62,-73.5 126.62,-55.5 0,-55.5"/>
<text text-anchor="middle" x="63.31" y="-61.5" font-family="Helvetica,sans-Serif" font-size="10.00">SceneCtlAllocatedObject</text>
</a>
</g>
</g>
<!-- Node2&#45;&gt;Node1 -->
<g id="edge1" class="edge">
<title>Node2&#45;&gt;Node1</title>
<path fill="none" stroke="midnightblue" d="M79.57,-48.11C89.78,-38.44 102.54,-26.37 110.8,-18.55"/>
<polygon fill="midnightblue" stroke="midnightblue" points="76.91,-45.8 72.06,-55.22 81.73,-50.89 76.91,-45.8"/>
</g>
<!-- Node3 -->
<g id="node3" class="node">
<title>Node3</title>
<g id="a_node3"><a xlink:href="class_ogre_1_1_allocated_object.html" target="_top" xlink:title="Superclass for all objects that wish to use custom memory allocators when their new / delete operator...">
<polygon fill="none" stroke="black" points="144.52,-55.5 144.52,-73.5 206.1,-73.5 206.1,-55.5 144.52,-55.5"/>
<text text-anchor="middle" x="175.31" y="-61.5" font-family="Helvetica,sans-Serif" font-size="10.00">NodeAlloc</text>
</a>
</g>
</g>
<!-- Node3&#45;&gt;Node1 -->
<g id="edge2" class="edge">
<title>Node3&#45;&gt;Node1</title>
<path fill="none" stroke="midnightblue" d="M159.05,-48.11C148.83,-38.44 136.08,-26.37 127.81,-18.55"/>
<polygon fill="midnightblue" stroke="midnightblue" points="156.89,-50.89 166.56,-55.22 161.7,-45.8 156.89,-50.89"/>
</g>
</g>
</svg>
