<?xml version="1.0" encoding="UTF-8" standalone="no"?>
<!DOCTYPE svg PUBLIC "-//W3C//DTD SVG 1.1//EN"
 "http://www.w3.org/Graphics/SVG/1.1/DTD/svg11.dtd">
<!-- Generated by graphviz version 2.43.0 (0)
 -->
<!-- Title: Ogre::DefaultSceneFormatListener Pages: 1 -->
<svg width="314pt" height="147pt"
 viewBox="0.00 0.00 313.55 147.00" xmlns="http://www.w3.org/2000/svg" xmlns:xlink="http://www.w3.org/1999/xlink">
<g id="graph0" class="graph" transform="scale(1 1) rotate(0) translate(4 143)">
<title>Ogre::DefaultSceneFormatListener</title>
<!-- Node1 -->
<g id="node1" class="node">
<title>Node1</title>
<g id="a_node1"><a xlink:title="Default implementation that prevents a SceneNode from being exported if the only attached objects.">
<polygon fill="#bfbfbf" stroke="black" points="74.88,-0.5 74.88,-28.5 210.38,-28.5 210.38,-0.5 74.88,-0.5"/>
<text text-anchor="start" x="82.88" y="-16.5" font-family="Helvetica,sans-Serif" font-size="10.00">Ogre::DefaultSceneFormat</text>
<text text-anchor="middle" x="142.63" y="-6.5" font-family="Helvetica,sans-Serif" font-size="10.00">Listener</text>
</a>
</g>
</g>
<!-- Node2 -->
<g id="node2" class="node">
<title>Node2</title>
<g id="a_node2"><a xlink:href="class_ogre_1_1_scene_format_listener.html" target="_top" xlink:title="Override this listener if you want to filter which objects get exported.">
<polygon fill="none" stroke="black" points="72.94,-65.5 72.94,-83.5 212.32,-83.5 212.32,-65.5 72.94,-65.5"/>
<text text-anchor="middle" x="142.63" y="-71.5" font-family="Helvetica,sans-Serif" font-size="10.00">Ogre::SceneFormatListener</text>
</a>
</g>
</g>
<!-- Node2&#45;&gt;Node1 -->
<g id="edge1" class="edge">
<title>Node2&#45;&gt;Node1</title>
<path fill="none" stroke="midnightblue" d="M142.63,-55.32C142.63,-46.75 142.63,-36.7 142.63,-28.84"/>
<polygon fill="midnightblue" stroke="midnightblue" points="139.13,-55.44 142.63,-65.44 146.13,-55.44 139.13,-55.44"/>
</g>
<!-- Node3 -->
<g id="node3" class="node">
<title>Node3</title>
<g id="a_node3"><a xlink:href="class_ogre_1_1_hlms_json_listener.html" target="_top" xlink:title=" ">
<polygon fill="none" stroke="black" points="0,-120.5 0,-138.5 123.26,-138.5 123.26,-120.5 0,-120.5"/>
<text text-anchor="middle" x="61.63" y="-126.5" font-family="Helvetica,sans-Serif" font-size="10.00">Ogre::HlmsJsonListener</text>
</a>
</g>
</g>
<!-- Node3&#45;&gt;Node2 -->
<g id="edge2" class="edge">
<title>Node3&#45;&gt;Node2</title>
<path fill="none" stroke="midnightblue" d="M82.61,-114.77C97.71,-104.89 117.56,-91.9 130.21,-83.63"/>
<polygon fill="midnightblue" stroke="midnightblue" points="80.38,-112.05 73.93,-120.45 84.22,-117.9 80.38,-112.05"/>
</g>
<!-- Node4 -->
<g id="node4" class="node">
<title>Node4</title>
<g id="a_node4"><a xlink:href="class_ogre_1_1_hlms_texture_export_listener.html" target="_top" xlink:title=" ">
<polygon fill="none" stroke="black" points="141.71,-120.5 141.71,-138.5 305.55,-138.5 305.55,-120.5 141.71,-120.5"/>
<text text-anchor="middle" x="223.63" y="-126.5" font-family="Helvetica,sans-Serif" font-size="10.00">Ogre::HlmsTextureExportListener</text>
</a>
</g>
</g>
<!-- Node4&#45;&gt;Node2 -->
<g id="edge3" class="edge">
<title>Node4&#45;&gt;Node2</title>
<path fill="none" stroke="midnightblue" d="M202.65,-114.77C187.55,-104.89 167.7,-91.9 155.05,-83.63"/>
<polygon fill="midnightblue" stroke="midnightblue" points="201.04,-117.9 211.33,-120.45 204.88,-112.05 201.04,-117.9"/>
</g>
</g>
</svg>
