<?xml version="1.0" encoding="UTF-8" standalone="no"?>
<!DOCTYPE svg PUBLIC "-//W3C//DTD SVG 1.1//EN"
 "http://www.w3.org/Graphics/SVG/1.1/DTD/svg11.dtd">
<!-- Generated by graphviz version 2.43.0 (0)
 -->
<!-- Title: Ogre::HollowEllipsoidEmitterFactory Pages: 1 -->
<svg width="151pt" height="147pt"
 viewBox="0.00 0.00 150.71 147.00" xmlns="http://www.w3.org/2000/svg" xmlns:xlink="http://www.w3.org/1999/xlink">
<g id="graph0" class="graph" transform="scale(1 1) rotate(0) translate(4 143)">
<title>Ogre::HollowEllipsoidEmitterFactory</title>
<!-- Node1 -->
<g id="node1" class="node">
<title>Node1</title>
<g id="a_node1"><a xlink:title="Factory class for particle emitter of type &quot;HollowEllipsoid&quot;.">
<polygon fill="#bfbfbf" stroke="black" points="0,-0.5 0,-28.5 142.71,-28.5 142.71,-0.5 0,-0.5"/>
<text text-anchor="start" x="8" y="-16.5" font-family="Helvetica,sans-Serif" font-size="10.00">Ogre::HollowEllipsoidEmitter</text>
<text text-anchor="middle" x="71.35" y="-6.5" font-family="Helvetica,sans-Serif" font-size="10.00">Factory</text>
</a>
</g>
</g>
<!-- Node2 -->
<g id="node2" class="node">
<title>Node2</title>
<g id="a_node2"><a xlink:href="class_ogre_1_1_particle_emitter_factory.html" target="_top" xlink:title="Abstract class defining the interface to be implemented by creators of ParticleEmitter subclasses.">
<polygon fill="none" stroke="black" points="0.28,-65.5 0.28,-83.5 142.43,-83.5 142.43,-65.5 0.28,-65.5"/>
<text text-anchor="middle" x="71.35" y="-71.5" font-family="Helvetica,sans-Serif" font-size="10.00">Ogre::ParticleEmitterFactory</text>
</a>
</g>
</g>
<!-- Node2&#45;&gt;Node1 -->
<g id="edge1" class="edge">
<title>Node2&#45;&gt;Node1</title>
<path fill="none" stroke="midnightblue" d="M71.35,-55.32C71.35,-46.75 71.35,-36.7 71.35,-28.84"/>
<polygon fill="midnightblue" stroke="midnightblue" points="67.85,-55.44 71.35,-65.44 74.85,-55.44 67.85,-55.44"/>
</g>
<!-- Node3 -->
<g id="node3" class="node">
<title>Node3</title>
<g id="a_node3"><a xlink:href="class_ogre_1_1_allocated_object.html" target="_top" xlink:title="Superclass for all objects that wish to use custom memory allocators when their new / delete operator...">
<polygon fill="none" stroke="black" points="46.13,-120.5 46.13,-138.5 96.58,-138.5 96.58,-120.5 46.13,-120.5"/>
<text text-anchor="middle" x="71.35" y="-126.5" font-family="Helvetica,sans-Serif" font-size="10.00">FXAlloc</text>
</a>
</g>
</g>
<!-- Node3&#45;&gt;Node2 -->
<g id="edge2" class="edge">
<title>Node3&#45;&gt;Node2</title>
<path fill="none" stroke="midnightblue" d="M71.35,-110.17C71.35,-101.09 71.35,-90.59 71.35,-83.55"/>
<polygon fill="midnightblue" stroke="midnightblue" points="67.85,-110.22 71.35,-120.22 74.85,-110.22 67.85,-110.22"/>
</g>
</g>
</svg>
