<?xml version="1.0" encoding="UTF-8" standalone="no"?>
<!DOCTYPE svg PUBLIC "-//W3C//DTD SVG 1.1//EN"
 "http://www.w3.org/Graphics/SVG/1.1/DTD/svg11.dtd">
<!-- Generated by graphviz version 2.43.0 (0)
 -->
<!-- Title: Ogre::D3D11RenderSystem Pages: 1 -->
<svg width="284pt" height="147pt"
 viewBox="0.00 0.00 283.73 147.00" xmlns="http://www.w3.org/2000/svg" xmlns:xlink="http://www.w3.org/1999/xlink">
<g id="graph0" class="graph" transform="scale(1 1) rotate(0) translate(4 143)">
<title>Ogre::D3D11RenderSystem</title>
<!-- Node1 -->
<g id="node1" class="node">
<title>Node1</title>
<g id="a_node1"><a xlink:title="Implementation of DirectX11 as a rendering system.">
<polygon fill="#bfbfbf" stroke="black" points="57.8,-0.5 57.8,-18.5 198.12,-18.5 198.12,-0.5 57.8,-0.5"/>
<text text-anchor="middle" x="127.96" y="-6.5" font-family="Helvetica,sans-Serif" font-size="10.00">Ogre::D3D11RenderSystem</text>
</a>
</g>
</g>
<!-- Node2 -->
<g id="node2" class="node">
<title>Node2</title>
<g id="a_node2"><a xlink:href="class_ogre_1_1_render_system.html" target="_top" xlink:title="Defines the functionality of a 3D API.">
<polygon fill="none" stroke="black" points="0,-60.5 0,-78.5 109.93,-78.5 109.93,-60.5 0,-60.5"/>
<text text-anchor="middle" x="54.96" y="-66.5" font-family="Helvetica,sans-Serif" font-size="10.00">Ogre::RenderSystem</text>
</a>
</g>
</g>
<!-- Node2&#45;&gt;Node1 -->
<g id="edge1" class="edge">
<title>Node2&#45;&gt;Node1</title>
<path fill="none" stroke="midnightblue" d="M73.07,-54.12C87.03,-43.03 105.84,-28.08 117.43,-18.87"/>
<polygon fill="midnightblue" stroke="midnightblue" points="70.77,-51.47 65.11,-60.44 75.12,-56.95 70.77,-51.47"/>
</g>
<!-- Node3 -->
<g id="node3" class="node">
<title>Node3</title>
<g id="a_node3"><a xlink:href="class_ogre_1_1_allocated_object.html" target="_top" xlink:title="Superclass for all objects that wish to use custom memory allocators when their new / delete operator...">
<polygon fill="none" stroke="black" points="11.39,-120.5 11.39,-138.5 98.53,-138.5 98.53,-120.5 11.39,-120.5"/>
<text text-anchor="middle" x="54.96" y="-126.5" font-family="Helvetica,sans-Serif" font-size="10.00">RenderSysAlloc</text>
</a>
</g>
</g>
<!-- Node3&#45;&gt;Node2 -->
<g id="edge2" class="edge">
<title>Node3&#45;&gt;Node2</title>
<path fill="none" stroke="midnightblue" d="M54.96,-110.21C54.96,-99.71 54.96,-87.03 54.96,-78.87"/>
<polygon fill="midnightblue" stroke="midnightblue" points="51.46,-110.44 54.96,-120.44 58.46,-110.44 51.46,-110.44"/>
</g>
<!-- Node4 -->
<g id="node4" class="node">
<title>Node4</title>
<g id="a_node4"><a xlink:href="class_ogre_1_1_d3_d11_device_resource_manager.html" target="_top" xlink:title="Singleton that is used to propagate device state changed notifications.">
<polygon fill="none" stroke="black" points="128.19,-55.5 128.19,-83.5 275.73,-83.5 275.73,-55.5 128.19,-55.5"/>
<text text-anchor="start" x="136.19" y="-71.5" font-family="Helvetica,sans-Serif" font-size="10.00">Ogre::D3D11DeviceResource</text>
<text text-anchor="middle" x="201.96" y="-61.5" font-family="Helvetica,sans-Serif" font-size="10.00">Manager</text>
</a>
</g>
</g>
<!-- Node4&#45;&gt;Node1 -->
<g id="edge3" class="edge">
<title>Node4&#45;&gt;Node1</title>
<path fill="none" stroke="#8b1a1a" d="M176.96,-48.91C163.86,-38.63 148.5,-26.59 138.52,-18.77"/>
<polygon fill="#8b1a1a" stroke="#8b1a1a" points="175.14,-51.92 185.17,-55.34 179.46,-46.42 175.14,-51.92"/>
</g>
</g>
</svg>
