<?xml version="1.0" encoding="UTF-8" standalone="no"?>
<!DOCTYPE svg PUBLIC "-//W3C//DTD SVG 1.1//EN"
 "http://www.w3.org/Graphics/SVG/1.1/DTD/svg11.dtd">
<!-- Generated by graphviz version 2.43.0 (0)
 -->
<!-- Title: Ogre::ConstVectorIterator&lt; T &gt; Pages: 1 -->
<svg width="161pt" height="167pt"
 viewBox="0.00 0.00 160.94 167.00" xmlns="http://www.w3.org/2000/svg" xmlns:xlink="http://www.w3.org/1999/xlink">
<g id="graph0" class="graph" transform="scale(1 1) rotate(0) translate(4 163)">
<title>Ogre::ConstVectorIterator&lt; T &gt;</title>
<!-- Node1 -->
<g id="node1" class="node">
<title>Node1</title>
<g id="a_node1"><a xlink:title="Concrete IteratorWrapper for const access to the underlying container.">
<polygon fill="#bfbfbf" stroke="black" points="0,-0.5 0,-18.5 152.94,-18.5 152.94,-0.5 0,-0.5"/>
<text text-anchor="middle" x="76.47" y="-6.5" font-family="Helvetica,sans-Serif" font-size="10.00">Ogre::ConstVectorIterator&lt; T &gt;</text>
</a>
</g>
</g>
<!-- Node2 -->
<g id="node2" class="node">
<title>Node2</title>
<g id="a_node2"><a xlink:href="class_ogre_1_1_vector_iterator_wrapper.html" target="_top" xlink:title=" ">
<polygon fill="none" stroke="black" points="5.47,-55.5 5.47,-83.5 147.46,-83.5 147.46,-55.5 5.47,-55.5"/>
<text text-anchor="start" x="13.47" y="-71.5" font-family="Helvetica,sans-Serif" font-size="10.00">Ogre::VectorIteratorWrapper</text>
<text text-anchor="middle" x="76.47" y="-61.5" font-family="Helvetica,sans-Serif" font-size="10.00">&lt; T, T::const_iterator &gt;</text>
</a>
</g>
</g>
<!-- Node2&#45;&gt;Node1 -->
<g id="edge1" class="edge">
<title>Node2&#45;&gt;Node1</title>
<path fill="none" stroke="midnightblue" d="M76.47,-45.32C76.47,-35.94 76.47,-25.7 76.47,-18.77"/>
<polygon fill="midnightblue" stroke="midnightblue" points="72.97,-45.34 76.47,-55.34 79.97,-45.34 72.97,-45.34"/>
</g>
<!-- Node3 -->
<g id="node3" class="node">
<title>Node3</title>
<g id="a_node3"><a xlink:href="class_ogre_1_1_iterator_wrapper.html" target="_top" xlink:title=" ">
<polygon fill="none" stroke="black" points="19.65,-120.5 19.65,-158.5 133.29,-158.5 133.29,-120.5 19.65,-120.5"/>
<text text-anchor="start" x="27.65" y="-146.5" font-family="Helvetica,sans-Serif" font-size="10.00">Ogre::IteratorWrapper</text>
<text text-anchor="start" x="27.65" y="-136.5" font-family="Helvetica,sans-Serif" font-size="10.00">&lt; T, T::const_iterator,</text>
<text text-anchor="middle" x="76.47" y="-126.5" font-family="Helvetica,sans-Serif" font-size="10.00"> T::value_type &gt;</text>
</a>
</g>
</g>
<!-- Node3&#45;&gt;Node2 -->
<g id="edge2" class="edge">
<title>Node3&#45;&gt;Node2</title>
<path fill="none" stroke="midnightblue" d="M76.47,-110.01C76.47,-100.92 76.47,-91.29 76.47,-83.81"/>
<polygon fill="midnightblue" stroke="midnightblue" points="72.97,-110.28 76.47,-120.28 79.97,-110.28 72.97,-110.28"/>
</g>
</g>
</svg>
