<?xml version="1.0" encoding="UTF-8" standalone="no"?>
<!DOCTYPE svg PUBLIC "-//W3C//DTD SVG 1.1//EN"
 "http://www.w3.org/Graphics/SVG/1.1/DTD/svg11.dtd">
<!-- Generated by graphviz version 2.43.0 (0)
 -->
<!-- Title: Ogre::CompositorShadowMapTargetTranslator Pages: 1 -->
<svg width="159pt" height="147pt"
 viewBox="0.00 0.00 158.51 147.00" xmlns="http://www.w3.org/2000/svg" xmlns:xlink="http://www.w3.org/1999/xlink">
<g id="graph0" class="graph" transform="scale(1 1) rotate(0) translate(4 143)">
<title>Ogre::CompositorShadowMapTargetTranslator</title>
<!-- Node1 -->
<g id="node1" class="node">
<title>Node1</title>
<g id="a_node1"><a xlink:title=" ">
<polygon fill="#bfbfbf" stroke="black" points="0,-0.5 0,-28.5 150.51,-28.5 150.51,-0.5 0,-0.5"/>
<text text-anchor="start" x="8" y="-16.5" font-family="Helvetica,sans-Serif" font-size="10.00">Ogre::CompositorShadowMap</text>
<text text-anchor="middle" x="75.25" y="-6.5" font-family="Helvetica,sans-Serif" font-size="10.00">TargetTranslator</text>
</a>
</g>
</g>
<!-- Node2 -->
<g id="node2" class="node">
<title>Node2</title>
<g id="a_node2"><a xlink:href="class_ogre_1_1_script_translator.html" target="_top" xlink:title="This class translates script AST (abstract syntax tree) into Ogre resources.">
<polygon fill="none" stroke="black" points="18.25,-65.5 18.25,-83.5 132.25,-83.5 132.25,-65.5 18.25,-65.5"/>
<text text-anchor="middle" x="75.25" y="-71.5" font-family="Helvetica,sans-Serif" font-size="10.00">Ogre::ScriptTranslator</text>
</a>
</g>
</g>
<!-- Node2&#45;&gt;Node1 -->
<g id="edge1" class="edge">
<title>Node2&#45;&gt;Node1</title>
<path fill="none" stroke="midnightblue" d="M75.25,-55.32C75.25,-46.75 75.25,-36.7 75.25,-28.84"/>
<polygon fill="midnightblue" stroke="midnightblue" points="71.75,-55.44 75.25,-65.44 78.75,-55.44 71.75,-55.44"/>
</g>
<!-- Node3 -->
<g id="node3" class="node">
<title>Node3</title>
<g id="a_node3"><a xlink:href="class_ogre_1_1_allocated_object.html" target="_top" xlink:title="Superclass for all objects that wish to use custom memory allocators when their new / delete operator...">
<polygon fill="none" stroke="black" points="21.31,-120.5 21.31,-138.5 129.2,-138.5 129.2,-120.5 21.31,-120.5"/>
<text text-anchor="middle" x="75.25" y="-126.5" font-family="Helvetica,sans-Serif" font-size="10.00">ScriptTranslatorAlloc</text>
</a>
</g>
</g>
<!-- Node3&#45;&gt;Node2 -->
<g id="edge2" class="edge">
<title>Node3&#45;&gt;Node2</title>
<path fill="none" stroke="midnightblue" d="M75.25,-110.17C75.25,-101.09 75.25,-90.59 75.25,-83.55"/>
<polygon fill="midnightblue" stroke="midnightblue" points="71.75,-110.22 75.25,-120.22 78.75,-110.22 71.75,-110.22"/>
</g>
</g>
</svg>
