<?xml version="1.0" encoding="UTF-8" standalone="no"?>
<!DOCTYPE svg PUBLIC "-//W3C//DTD SVG 1.1//EN"
 "http://www.w3.org/Graphics/SVG/1.1/DTD/svg11.dtd">
<!-- Generated by graphviz version 2.43.0 (0)
 -->
<!-- Title: Ogre::Volume::CSGOperationSource Pages: 1 -->
<svg width="505pt" height="121pt"
 viewBox="0.00 0.00 504.87 121.00" xmlns="http://www.w3.org/2000/svg" xmlns:xlink="http://www.w3.org/1999/xlink">
<g id="graph0" class="graph" transform="scale(1 1) rotate(0) translate(4 117)">
<title>Ogre::Volume::CSGOperationSource</title>
<!-- Node1 -->
<g id="node1" class="node">
<title>Node1</title>
<g id="a_node1"><a xlink:title="Abstract operation volume source holding two sources as operants.">
<polygon fill="#bfbfbf" stroke="black" points="150.39,-37.5 150.39,-65.5 298.68,-65.5 298.68,-37.5 150.39,-37.5"/>
<text text-anchor="start" x="158.39" y="-53.5" font-family="Helvetica,sans-Serif" font-size="10.00">Ogre::Volume::CSGOperation</text>
<text text-anchor="middle" x="224.53" y="-43.5" font-family="Helvetica,sans-Serif" font-size="10.00">Source</text>
</a>
</g>
</g>
<!-- Node3 -->
<g id="node3" class="node">
<title>Node3</title>
<g id="a_node3"><a xlink:href="class_ogre_1_1_volume_1_1_c_s_g_difference_source.html" target="_top" xlink:title="Builds the difference between two sources.">
<polygon fill="none" stroke="black" points="340.88,-84.5 340.88,-112.5 490.66,-112.5 490.66,-84.5 340.88,-84.5"/>
<text text-anchor="start" x="348.88" y="-100.5" font-family="Helvetica,sans-Serif" font-size="10.00">Ogre::Volume::CSGDifference</text>
<text text-anchor="middle" x="415.77" y="-90.5" font-family="Helvetica,sans-Serif" font-size="10.00">Source</text>
</a>
</g>
</g>
<!-- Node1&#45;&gt;Node3 -->
<g id="edge2" class="edge">
<title>Node1&#45;&gt;Node3</title>
<path fill="none" stroke="midnightblue" d="M291.84,-67.97C313.5,-73.35 337.34,-79.27 358.22,-84.45"/>
<polygon fill="midnightblue" stroke="midnightblue" points="292.6,-64.55 282.06,-65.54 290.92,-71.35 292.6,-64.55"/>
</g>
<!-- Node4 -->
<g id="node4" class="node">
<title>Node4</title>
<g id="a_node4"><a xlink:href="class_ogre_1_1_volume_1_1_c_s_g_intersection_source.html" target="_top" xlink:title="Builds the intersection between two sources.">
<polygon fill="none" stroke="black" points="337.74,-37.5 337.74,-65.5 493.81,-65.5 493.81,-37.5 337.74,-37.5"/>
<text text-anchor="start" x="345.74" y="-53.5" font-family="Helvetica,sans-Serif" font-size="10.00">Ogre::Volume::CSGIntersection</text>
<text text-anchor="middle" x="415.77" y="-43.5" font-family="Helvetica,sans-Serif" font-size="10.00">Source</text>
</a>
</g>
</g>
<!-- Node1&#45;&gt;Node4 -->
<g id="edge3" class="edge">
<title>Node1&#45;&gt;Node4</title>
<path fill="none" stroke="midnightblue" d="M308.99,-51.5C318.55,-51.5 328.26,-51.5 337.73,-51.5"/>
<polygon fill="midnightblue" stroke="midnightblue" points="308.7,-48 298.7,-51.5 308.7,-55 308.7,-48"/>
</g>
<!-- Node5 -->
<g id="node5" class="node">
<title>Node5</title>
<g id="a_node5"><a xlink:href="class_ogre_1_1_volume_1_1_c_s_g_union_source.html" target="_top" xlink:title="Builds the union between two sources.">
<polygon fill="none" stroke="black" points="334.68,-0.5 334.68,-18.5 496.87,-18.5 496.87,-0.5 334.68,-0.5"/>
<text text-anchor="middle" x="415.77" y="-6.5" font-family="Helvetica,sans-Serif" font-size="10.00">Ogre::Volume::CSGUnionSource</text>
</a>
</g>
</g>
<!-- Node1&#45;&gt;Node5 -->
<g id="edge4" class="edge">
<title>Node1&#45;&gt;Node5</title>
<path fill="none" stroke="midnightblue" d="M298.86,-35.23C324.43,-29.55 352.2,-23.39 374.14,-18.52"/>
<polygon fill="midnightblue" stroke="midnightblue" points="297.81,-31.87 288.81,-37.46 299.33,-38.71 297.81,-31.87"/>
</g>
<!-- Node2 -->
<g id="node2" class="node">
<title>Node2</title>
<g id="a_node2"><a xlink:href="class_ogre_1_1_volume_1_1_source.html" target="_top" xlink:title="Abstract class defining the density function.">
<polygon fill="none" stroke="black" points="0,-42.5 0,-60.5 114.39,-60.5 114.39,-42.5 0,-42.5"/>
<text text-anchor="middle" x="57.19" y="-48.5" font-family="Helvetica,sans-Serif" font-size="10.00">Ogre::Volume::Source</text>
</a>
</g>
</g>
<!-- Node2&#45;&gt;Node1 -->
<g id="edge1" class="edge">
<title>Node2&#45;&gt;Node1</title>
<path fill="none" stroke="midnightblue" d="M124.69,-51.5C133.05,-51.5 141.64,-51.5 150.1,-51.5"/>
<polygon fill="midnightblue" stroke="midnightblue" points="124.63,-48 114.63,-51.5 124.63,-55 124.63,-48"/>
</g>
</g>
</svg>
