<?xml version="1.0" encoding="UTF-8" standalone="no"?>
<!DOCTYPE svg PUBLIC "-//W3C//DTD SVG 1.1//EN"
 "http://www.w3.org/Graphics/SVG/1.1/DTD/svg11.dtd">
<!-- Generated by graphviz version 2.43.0 (0)
 -->
<!-- Title: Ogre::PCZone Pages: 1 -->
<svg width="220pt" height="137pt"
 viewBox="0.00 0.00 220.43 137.00" xmlns="http://www.w3.org/2000/svg" xmlns:xlink="http://www.w3.org/1999/xlink">
<g id="graph0" class="graph" transform="scale(1 1) rotate(0) translate(4 133)">
<title>Ogre::PCZone</title>
<!-- Node1 -->
<g id="node1" class="node">
<title>Node1</title>
<g id="a_node1"><a xlink:title="Portal&#45;Connected Zone datastructure for managing scene nodes.">
<polygon fill="#bfbfbf" stroke="black" points="65.9,-55.5 65.9,-73.5 146.37,-73.5 146.37,-55.5 65.9,-55.5"/>
<text text-anchor="middle" x="106.13" y="-61.5" font-family="Helvetica,sans-Serif" font-size="10.00">Ogre::PCZone</text>
</a>
</g>
</g>
<!-- Node3 -->
<g id="node3" class="node">
<title>Node3</title>
<g id="a_node3"><a xlink:href="class_ogre_1_1_default_zone.html" target="_top" xlink:title=" ">
<polygon fill="none" stroke="black" points="0,-0.5 0,-18.5 98.27,-18.5 98.27,-0.5 0,-0.5"/>
<text text-anchor="middle" x="49.13" y="-6.5" font-family="Helvetica,sans-Serif" font-size="10.00">Ogre::DefaultZone</text>
</a>
</g>
</g>
<!-- Node1&#45;&gt;Node3 -->
<g id="edge2" class="edge">
<title>Node1&#45;&gt;Node3</title>
<path fill="none" stroke="midnightblue" d="M89.89,-48.4C79.44,-38.68 66.28,-26.45 57.79,-18.55"/>
<polygon fill="midnightblue" stroke="midnightblue" points="87.52,-50.97 97.23,-55.22 92.29,-45.85 87.52,-50.97"/>
</g>
<!-- Node4 -->
<g id="node4" class="node">
<title>Node4</title>
<g id="a_node4"><a xlink:href="class_ogre_1_1_octree_zone.html" target="_top" xlink:title=" ">
<polygon fill="none" stroke="black" points="115.84,-0.5 115.84,-18.5 212.43,-18.5 212.43,-0.5 115.84,-0.5"/>
<text text-anchor="middle" x="164.13" y="-6.5" font-family="Helvetica,sans-Serif" font-size="10.00">Ogre::OctreeZone</text>
</a>
</g>
</g>
<!-- Node1&#45;&gt;Node4 -->
<g id="edge3" class="edge">
<title>Node1&#45;&gt;Node4</title>
<path fill="none" stroke="midnightblue" d="M122.66,-48.4C133.29,-38.68 146.68,-26.45 155.32,-18.55"/>
<polygon fill="midnightblue" stroke="midnightblue" points="120.22,-45.89 115.2,-55.22 124.94,-51.06 120.22,-45.89"/>
</g>
<!-- Node2 -->
<g id="node2" class="node">
<title>Node2</title>
<g id="a_node2"><a xlink:href="class_ogre_1_1_allocated_object.html" target="_top" xlink:title="Superclass for all objects that wish to use custom memory allocators when their new / delete operator...">
<polygon fill="none" stroke="black" points="42.83,-110.5 42.83,-128.5 169.44,-128.5 169.44,-110.5 42.83,-110.5"/>
<text text-anchor="middle" x="106.13" y="-116.5" font-family="Helvetica,sans-Serif" font-size="10.00">SceneCtlAllocatedObject</text>
</a>
</g>
</g>
<!-- Node2&#45;&gt;Node1 -->
<g id="edge1" class="edge">
<title>Node2&#45;&gt;Node1</title>
<path fill="none" stroke="midnightblue" d="M106.13,-100.17C106.13,-91.09 106.13,-80.59 106.13,-73.55"/>
<polygon fill="midnightblue" stroke="midnightblue" points="102.63,-100.22 106.13,-110.22 109.63,-100.22 102.63,-100.22"/>
</g>
</g>
</svg>
