<?xml version="1.0" encoding="UTF-8" standalone="no"?>
<!DOCTYPE svg PUBLIC "-//W3C//DTD SVG 1.1//EN"
 "http://www.w3.org/Graphics/SVG/1.1/DTD/svg11.dtd">
<!-- Generated by graphviz version 2.43.0 (0)
 -->
<!-- Title: Ogre::Window Pages: 1 -->
<svg width="553pt" height="180pt"
 viewBox="0.00 0.00 553.13 180.00" xmlns="http://www.w3.org/2000/svg" xmlns:xlink="http://www.w3.org/1999/xlink">
<g id="graph0" class="graph" transform="scale(1 1) rotate(0) translate(4 176)">
<title>Ogre::Window</title>
<!-- Node1 -->
<g id="node1" class="node">
<title>Node1</title>
<g id="a_node1"><a xlink:title=" ">
<polygon fill="#bfbfbf" stroke="black" points="123.14,-74.5 123.14,-92.5 202.5,-92.5 202.5,-74.5 123.14,-74.5"/>
<text text-anchor="middle" x="162.82" y="-80.5" font-family="Helvetica,sans-Serif" font-size="10.00">Ogre::Window</text>
</a>
</g>
</g>
<!-- Node3 -->
<g id="node3" class="node">
<title>Node3</title>
<g id="a_node3"><a xlink:href="class_ogre_1_1_d3_d11_window.html" target="_top" xlink:title=" ">
<polygon fill="none" stroke="black" points="238.5,-148.5 238.5,-166.5 348.24,-166.5 348.24,-148.5 238.5,-148.5"/>
<text text-anchor="middle" x="293.37" y="-154.5" font-family="Helvetica,sans-Serif" font-size="10.00">Ogre::D3D11Window</text>
</a>
</g>
</g>
<!-- Node1&#45;&gt;Node3 -->
<g id="edge2" class="edge">
<title>Node1&#45;&gt;Node3</title>
<path fill="none" stroke="midnightblue" d="M181.99,-99.28C196.51,-111.28 217.8,-127.54 238.5,-138.5 245.77,-142.35 253.99,-145.7 261.78,-148.47"/>
<polygon fill="midnightblue" stroke="midnightblue" points="184.18,-96.55 174.28,-92.78 179.67,-101.9 184.18,-96.55"/>
</g>
<!-- Node5 -->
<g id="node5" class="node">
<title>Node5</title>
<g id="a_node5"><a xlink:href="class_ogre_1_1_g_l_x_window.html" target="_top" xlink:title=" ">
<polygon fill="none" stroke="black" points="243.69,-111.5 243.69,-129.5 343.05,-129.5 343.05,-111.5 243.69,-111.5"/>
<text text-anchor="middle" x="293.37" y="-117.5" font-family="Helvetica,sans-Serif" font-size="10.00">Ogre::GLXWindow</text>
</a>
</g>
</g>
<!-- Node1&#45;&gt;Node5 -->
<g id="edge4" class="edge">
<title>Node1&#45;&gt;Node5</title>
<path fill="none" stroke="midnightblue" d="M204.98,-95.35C223.07,-100.55 243.97,-106.57 260.8,-111.41"/>
<polygon fill="midnightblue" stroke="midnightblue" points="205.84,-91.95 195.27,-92.55 203.91,-98.68 205.84,-91.95"/>
</g>
<!-- Node6 -->
<g id="node6" class="node">
<title>Node6</title>
<g id="a_node6"><a xlink:href="class_ogre_1_1_metal_window.html" target="_top" xlink:title=" ">
<polygon fill="none" stroke="black" points="241.47,-74.5 241.47,-92.5 345.27,-92.5 345.27,-74.5 241.47,-74.5"/>
<text text-anchor="middle" x="293.37" y="-80.5" font-family="Helvetica,sans-Serif" font-size="10.00">Ogre::MetalWindow</text>
</a>
</g>
</g>
<!-- Node1&#45;&gt;Node6 -->
<g id="edge5" class="edge">
<title>Node1&#45;&gt;Node6</title>
<path fill="none" stroke="midnightblue" d="M212.96,-83.5C222.21,-83.5 231.91,-83.5 241.23,-83.5"/>
<polygon fill="midnightblue" stroke="midnightblue" points="212.74,-80 202.74,-83.5 212.74,-87 212.74,-80"/>
</g>
<!-- Node7 -->
<g id="node7" class="node">
<title>Node7</title>
<g id="a_node7"><a xlink:href="class_ogre_1_1_n_u_l_l_window.html" target="_top" xlink:title=" ">
<polygon fill="none" stroke="black" points="241.28,-37.5 241.28,-55.5 345.46,-55.5 345.46,-37.5 241.28,-37.5"/>
<text text-anchor="middle" x="293.37" y="-43.5" font-family="Helvetica,sans-Serif" font-size="10.00">Ogre::NULLWindow</text>
</a>
</g>
</g>
<!-- Node1&#45;&gt;Node7 -->
<g id="edge6" class="edge">
<title>Node1&#45;&gt;Node7</title>
<path fill="none" stroke="midnightblue" d="M204.98,-71.65C223.07,-66.45 243.97,-60.43 260.8,-55.59"/>
<polygon fill="midnightblue" stroke="midnightblue" points="203.91,-68.32 195.27,-74.45 205.84,-75.05 203.91,-68.32"/>
</g>
<!-- Node8 -->
<g id="node8" class="node">
<title>Node8</title>
<g id="a_node8"><a xlink:href="class_ogre_1_1_win32_window.html" target="_top" xlink:title=" ">
<polygon fill="none" stroke="black" points="239.52,-0.5 239.52,-18.5 347.22,-18.5 347.22,-0.5 239.52,-0.5"/>
<text text-anchor="middle" x="293.37" y="-6.5" font-family="Helvetica,sans-Serif" font-size="10.00">Ogre::Win32Window</text>
</a>
</g>
</g>
<!-- Node1&#45;&gt;Node8 -->
<g id="edge7" class="edge">
<title>Node1&#45;&gt;Node8</title>
<path fill="none" stroke="midnightblue" d="M181.39,-67.74C195.87,-55.41 217.38,-38.57 238.5,-27.5 245.13,-24.02 252.58,-21.02 259.77,-18.52"/>
<polygon fill="midnightblue" stroke="midnightblue" points="178.99,-65.19 173.74,-74.39 183.58,-70.47 178.99,-65.19"/>
</g>
<!-- Node2 -->
<g id="node2" class="node">
<title>Node2</title>
<g id="a_node2"><a xlink:href="class_ogre_1_1_allocated_object.html" target="_top" xlink:title="Superclass for all objects that wish to use custom memory allocators when their new / delete operator...">
<polygon fill="none" stroke="black" points="0,-74.5 0,-92.5 87.14,-92.5 87.14,-74.5 0,-74.5"/>
<text text-anchor="middle" x="43.57" y="-80.5" font-family="Helvetica,sans-Serif" font-size="10.00">RenderSysAlloc</text>
</a>
</g>
</g>
<!-- Node2&#45;&gt;Node1 -->
<g id="edge1" class="edge">
<title>Node2&#45;&gt;Node1</title>
<path fill="none" stroke="midnightblue" d="M97.24,-83.5C105.87,-83.5 114.67,-83.5 122.89,-83.5"/>
<polygon fill="midnightblue" stroke="midnightblue" points="97.23,-80 87.23,-83.5 97.23,-87 97.23,-80"/>
</g>
<!-- Node4 -->
<g id="node4" class="node">
<title>Node4</title>
<g id="a_node4"><a xlink:href="class_ogre_1_1_d3_d11_window_swap_chain_based.html" target="_top" xlink:title=" ">
<polygon fill="none" stroke="black" points="384.24,-143.5 384.24,-171.5 545.13,-171.5 545.13,-143.5 384.24,-143.5"/>
<text text-anchor="start" x="392.24" y="-159.5" font-family="Helvetica,sans-Serif" font-size="10.00">Ogre::D3D11WindowSwapChain</text>
<text text-anchor="middle" x="464.69" y="-149.5" font-family="Helvetica,sans-Serif" font-size="10.00">Based</text>
</a>
</g>
</g>
<!-- Node3&#45;&gt;Node4 -->
<g id="edge3" class="edge">
<title>Node3&#45;&gt;Node4</title>
<path fill="none" stroke="midnightblue" d="M358.42,-157.5C366.75,-157.5 375.38,-157.5 383.93,-157.5"/>
<polygon fill="midnightblue" stroke="midnightblue" points="358.41,-154 348.41,-157.5 358.41,-161 358.41,-154"/>
</g>
</g>
</svg>
