<?xml version="1.0" encoding="UTF-8" standalone="no"?>
<!DOCTYPE svg PUBLIC "-//W3C//DTD SVG 1.1//EN"
 "http://www.w3.org/Graphics/SVG/1.1/DTD/svg11.dtd">
<!-- Generated by graphviz version 2.43.0 (0)
 -->
<!-- Title: Ogre::ScriptCompilerManager Pages: 1 -->
<svg width="407pt" height="92pt"
 viewBox="0.00 0.00 407.46 92.00" xmlns="http://www.w3.org/2000/svg" xmlns:xlink="http://www.w3.org/1999/xlink">
<g id="graph0" class="graph" transform="scale(1 1) rotate(0) translate(4 88)">
<title>Ogre::ScriptCompilerManager</title>
<!-- Node1 -->
<g id="node1" class="node">
<title>Node1</title>
<g id="a_node1"><a xlink:title="Manages threaded compilation of scripts.">
<polygon fill="#bfbfbf" stroke="black" points="153.42,-0.5 153.42,-18.5 302.25,-18.5 302.25,-0.5 153.42,-0.5"/>
<text text-anchor="middle" x="227.84" y="-6.5" font-family="Helvetica,sans-Serif" font-size="10.00">Ogre::ScriptCompilerManager</text>
</a>
</g>
</g>
<!-- Node2 -->
<g id="node2" class="node">
<title>Node2</title>
<g id="a_node2"><a xlink:href="class_ogre_1_1_singleton.html" target="_top" xlink:title=" ">
<polygon fill="none" stroke="black" points="0,-55.5 0,-83.5 159.68,-83.5 159.68,-55.5 0,-55.5"/>
<text text-anchor="start" x="8" y="-71.5" font-family="Helvetica,sans-Serif" font-size="10.00">Ogre::Singleton&lt; ScriptCompiler</text>
<text text-anchor="middle" x="79.84" y="-61.5" font-family="Helvetica,sans-Serif" font-size="10.00">Manager &gt;</text>
</a>
</g>
</g>
<!-- Node2&#45;&gt;Node1 -->
<g id="edge1" class="edge">
<title>Node2&#45;&gt;Node1</title>
<path fill="none" stroke="midnightblue" d="M122.53,-51.77C150.28,-40.89 185.23,-27.2 207.06,-18.64"/>
<polygon fill="midnightblue" stroke="midnightblue" points="121.09,-48.58 113.05,-55.48 123.64,-55.09 121.09,-48.58"/>
</g>
<!-- Node3 -->
<g id="node3" class="node">
<title>Node3</title>
<g id="a_node3"><a xlink:href="class_ogre_1_1_script_loader.html" target="_top" xlink:title="Abstract class defining the interface used by classes which wish to perform script loading to define ...">
<polygon fill="none" stroke="black" points="177.59,-60.5 177.59,-78.5 278.08,-78.5 278.08,-60.5 177.59,-60.5"/>
<text text-anchor="middle" x="227.84" y="-66.5" font-family="Helvetica,sans-Serif" font-size="10.00">Ogre::ScriptLoader</text>
</a>
</g>
</g>
<!-- Node3&#45;&gt;Node1 -->
<g id="edge2" class="edge">
<title>Node3&#45;&gt;Node1</title>
<path fill="none" stroke="midnightblue" d="M227.84,-50.21C227.84,-39.71 227.84,-27.03 227.84,-18.87"/>
<polygon fill="midnightblue" stroke="midnightblue" points="224.34,-50.44 227.84,-60.44 231.34,-50.44 224.34,-50.44"/>
</g>
<!-- Node4 -->
<g id="node4" class="node">
<title>Node4</title>
<g id="a_node4"><a xlink:href="class_ogre_1_1_allocated_object.html" target="_top" xlink:title="Superclass for all objects that wish to use custom memory allocators when their new / delete operator...">
<polygon fill="none" stroke="black" points="296.22,-60.5 296.22,-78.5 399.46,-78.5 399.46,-60.5 296.22,-60.5"/>
<text text-anchor="middle" x="347.84" y="-66.5" font-family="Helvetica,sans-Serif" font-size="10.00">ScriptCompilerAlloc</text>
</a>
</g>
</g>
<!-- Node4&#45;&gt;Node1 -->
<g id="edge3" class="edge">
<title>Node4&#45;&gt;Node1</title>
<path fill="none" stroke="midnightblue" d="M322.15,-56.08C298.77,-44.78 264.92,-28.42 244.77,-18.68"/>
<polygon fill="midnightblue" stroke="midnightblue" points="320.63,-59.23 331.15,-60.44 323.67,-52.93 320.63,-59.23"/>
</g>
</g>
</svg>
