<?xml version="1.0" encoding="UTF-8" standalone="no"?>
<!DOCTYPE svg PUBLIC "-//W3C//DTD SVG 1.1//EN"
 "http://www.w3.org/Graphics/SVG/1.1/DTD/svg11.dtd">
<!-- Generated by graphviz version 2.43.0 (0)
 -->
<!-- Title: Ogre::ResourceBackgroundQueue Pages: 1 -->
<svg width="332pt" height="168pt"
 viewBox="0.00 0.00 331.51 168.00" xmlns="http://www.w3.org/2000/svg" xmlns:xlink="http://www.w3.org/1999/xlink">
<g id="graph0" class="graph" transform="scale(1 1) rotate(0) translate(4 164)">
<title>Ogre::ResourceBackgroundQueue</title>
<!-- Node1 -->
<g id="node1" class="node">
<title>Node1</title>
<g id="a_node1"><a xlink:title="This class is used to perform Resource operations in a background thread.">
<polygon fill="#bfbfbf" stroke="black" points="183.55,-68.5 183.55,-96.5 323.51,-96.5 323.51,-68.5 183.55,-68.5"/>
<text text-anchor="start" x="191.55" y="-84.5" font-family="Helvetica,sans-Serif" font-size="10.00">Ogre::ResourceBackground</text>
<text text-anchor="middle" x="253.53" y="-74.5" font-family="Helvetica,sans-Serif" font-size="10.00">Queue</text>
</a>
</g>
</g>
<!-- Node2 -->
<g id="node2" class="node">
<title>Node2</title>
<g id="a_node2"><a xlink:href="class_ogre_1_1_singleton.html" target="_top" xlink:title=" ">
<polygon fill="none" stroke="black" points="5.32,-131.5 5.32,-159.5 142.23,-159.5 142.23,-131.5 5.32,-131.5"/>
<text text-anchor="start" x="13.32" y="-147.5" font-family="Helvetica,sans-Serif" font-size="10.00">Ogre::Singleton&lt; Resource</text>
<text text-anchor="middle" x="73.78" y="-137.5" font-family="Helvetica,sans-Serif" font-size="10.00">BackgroundQueue &gt;</text>
</a>
</g>
</g>
<!-- Node2&#45;&gt;Node1 -->
<g id="edge1" class="edge">
<title>Node2&#45;&gt;Node1</title>
<path fill="none" stroke="midnightblue" d="M130.43,-128.28C136.23,-126.37 142.02,-124.43 147.55,-122.5 170.94,-114.35 196.96,-104.45 217.25,-96.53"/>
<polygon fill="midnightblue" stroke="midnightblue" points="129.15,-125.01 120.72,-131.42 131.31,-131.67 129.15,-125.01"/>
</g>
<!-- Node3 -->
<g id="node3" class="node">
<title>Node3</title>
<g id="a_node3"><a xlink:href="class_ogre_1_1_allocated_object.html" target="_top" xlink:title="Superclass for all objects that wish to use custom memory allocators when their new / delete operator...">
<polygon fill="none" stroke="black" points="33.54,-94.5 33.54,-112.5 114.01,-112.5 114.01,-94.5 33.54,-94.5"/>
<text text-anchor="middle" x="73.78" y="-100.5" font-family="Helvetica,sans-Serif" font-size="10.00">ResourceAlloc</text>
</a>
</g>
</g>
<!-- Node3&#45;&gt;Node1 -->
<g id="edge2" class="edge">
<title>Node3&#45;&gt;Node1</title>
<path fill="none" stroke="midnightblue" d="M124.37,-97.64C142.67,-95.48 163.76,-92.99 183.48,-90.66"/>
<polygon fill="midnightblue" stroke="midnightblue" points="123.75,-94.19 114.23,-98.84 124.57,-101.14 123.75,-94.19"/>
</g>
<!-- Node4 -->
<g id="node4" class="node">
<title>Node4</title>
<g id="a_node4"><a xlink:href="class_ogre_1_1_work_queue_1_1_request_handler.html" target="_top" xlink:title="Interface definition for a handler of requests.">
<polygon fill="none" stroke="black" points="3.89,-47.5 3.89,-75.5 143.66,-75.5 143.66,-47.5 3.89,-47.5"/>
<text text-anchor="start" x="11.89" y="-63.5" font-family="Helvetica,sans-Serif" font-size="10.00">Ogre::WorkQueue::Request</text>
<text text-anchor="middle" x="73.78" y="-53.5" font-family="Helvetica,sans-Serif" font-size="10.00">Handler</text>
</a>
</g>
</g>
<!-- Node4&#45;&gt;Node1 -->
<g id="edge3" class="edge">
<title>Node4&#45;&gt;Node1</title>
<path fill="none" stroke="midnightblue" d="M153.89,-70.85C163.7,-72 173.66,-73.18 183.3,-74.32"/>
<polygon fill="midnightblue" stroke="midnightblue" points="154.1,-67.35 143.76,-69.65 153.28,-74.3 154.1,-67.35"/>
</g>
<!-- Node5 -->
<g id="node5" class="node">
<title>Node5</title>
<g id="a_node5"><a xlink:href="class_ogre_1_1_work_queue_1_1_response_handler.html" target="_top" xlink:title="Interface definition for a handler of responses.">
<polygon fill="none" stroke="black" points="0,-0.5 0,-28.5 147.55,-28.5 147.55,-0.5 0,-0.5"/>
<text text-anchor="start" x="8" y="-16.5" font-family="Helvetica,sans-Serif" font-size="10.00">Ogre::WorkQueue::Response</text>
<text text-anchor="middle" x="73.78" y="-6.5" font-family="Helvetica,sans-Serif" font-size="10.00">Handler</text>
</a>
</g>
</g>
<!-- Node5&#45;&gt;Node1 -->
<g id="edge4" class="edge">
<title>Node5&#45;&gt;Node1</title>
<path fill="none" stroke="midnightblue" d="M129.03,-31.87C135.3,-34.03 141.58,-36.27 147.55,-38.5 172.36,-47.77 199.96,-59.39 220.63,-68.36"/>
<polygon fill="midnightblue" stroke="midnightblue" points="129.82,-28.44 119.23,-28.55 127.57,-35.07 129.82,-28.44"/>
</g>
</g>
</svg>
