<?xml version="1.0" encoding="UTF-8" standalone="no"?>
<!DOCTYPE svg PUBLIC "-//W3C//DTD SVG 1.1//EN"
 "http://www.w3.org/Graphics/SVG/1.1/DTD/svg11.dtd">
<!-- Generated by graphviz version 2.43.0 (0)
 -->
<!-- Title: Ogre::DefaultSceneManager Pages: 1 -->
<svg width="224pt" height="137pt"
 viewBox="0.00 0.00 223.54 137.00" xmlns="http://www.w3.org/2000/svg" xmlns:xlink="http://www.w3.org/1999/xlink">
<g id="graph0" class="graph" transform="scale(1 1) rotate(0) translate(4 133)">
<title>Ogre::DefaultSceneManager</title>
<!-- Node1 -->
<g id="node1" class="node">
<title>Node1</title>
<g id="a_node1"><a xlink:title="Default scene manager.">
<polygon fill="#bfbfbf" stroke="black" points="44.38,-0.5 44.38,-18.5 187.68,-18.5 187.68,-0.5 44.38,-0.5"/>
<text text-anchor="middle" x="116.03" y="-6.5" font-family="Helvetica,sans-Serif" font-size="10.00">Ogre::DefaultSceneManager</text>
</a>
</g>
</g>
<!-- Node2 -->
<g id="node2" class="node">
<title>Node2</title>
<g id="a_node2"><a xlink:href="class_ogre_1_1_scene_manager.html" target="_top" xlink:title="Manages the organisation and rendering of a &#39;scene&#39; i.e.">
<polygon fill="none" stroke="black" points="60.22,-55.5 60.22,-73.5 171.83,-73.5 171.83,-55.5 60.22,-55.5"/>
<text text-anchor="middle" x="116.03" y="-61.5" font-family="Helvetica,sans-Serif" font-size="10.00">Ogre::SceneManager</text>
</a>
</g>
</g>
<!-- Node2&#45;&gt;Node1 -->
<g id="edge1" class="edge">
<title>Node2&#45;&gt;Node1</title>
<path fill="none" stroke="midnightblue" d="M116.03,-45.17C116.03,-36.09 116.03,-25.59 116.03,-18.55"/>
<polygon fill="midnightblue" stroke="midnightblue" points="112.53,-45.22 116.03,-55.22 119.53,-45.22 112.53,-45.22"/>
</g>
<!-- Node3 -->
<g id="node3" class="node">
<title>Node3</title>
<g id="a_node3"><a xlink:href="class_ogre_1_1_allocated_object.html" target="_top" xlink:title="Superclass for all objects that wish to use custom memory allocators when their new / delete operator...">
<polygon fill="none" stroke="black" points="0,-110.5 0,-128.5 116.06,-128.5 116.06,-110.5 0,-110.5"/>
<text text-anchor="middle" x="58.03" y="-116.5" font-family="Helvetica,sans-Serif" font-size="10.00">SceneMgtAlignedAlloc</text>
</a>
</g>
</g>
<!-- Node3&#45;&gt;Node2 -->
<g id="edge2" class="edge">
<title>Node3&#45;&gt;Node2</title>
<path fill="none" stroke="midnightblue" d="M74.56,-103.4C85.19,-93.68 98.58,-81.45 107.22,-73.55"/>
<polygon fill="midnightblue" stroke="midnightblue" points="72.11,-100.89 67.09,-110.22 76.83,-106.06 72.11,-100.89"/>
</g>
<!-- Node4 -->
<g id="node4" class="node">
<title>Node4</title>
<g id="a_node4"><a xlink:href="class_ogre_1_1_id_object.html" target="_top" xlink:title=" ">
<polygon fill="none" stroke="black" points="134.51,-110.5 134.51,-128.5 215.54,-128.5 215.54,-110.5 134.51,-110.5"/>
<text text-anchor="middle" x="175.03" y="-116.5" font-family="Helvetica,sans-Serif" font-size="10.00">Ogre::IdObject</text>
</a>
</g>
</g>
<!-- Node4&#45;&gt;Node2 -->
<g id="edge3" class="edge">
<title>Node4&#45;&gt;Node2</title>
<path fill="none" stroke="midnightblue" d="M158.49,-103.64C147.67,-93.92 133.94,-81.59 125.07,-73.63"/>
<polygon fill="midnightblue" stroke="midnightblue" points="156.29,-106.37 166.07,-110.45 160.97,-101.16 156.29,-106.37"/>
</g>
</g>
</svg>
