<?xml version="1.0" encoding="UTF-8" standalone="no"?>
<!DOCTYPE svg PUBLIC "-//W3C//DTD SVG 1.1//EN"
 "http://www.w3.org/Graphics/SVG/1.1/DTD/svg11.dtd">
<!-- Generated by graphviz version 2.43.0 (0)
 -->
<!-- Title: Ogre::RTShader::Parameter Pages: 1 -->
<svg width="370pt" height="147pt"
 viewBox="0.00 0.00 369.99 147.00" xmlns="http://www.w3.org/2000/svg" xmlns:xlink="http://www.w3.org/1999/xlink">
<g id="graph0" class="graph" transform="scale(1 1) rotate(0) translate(4 143)">
<title>Ogre::RTShader::Parameter</title>
<!-- Node1 -->
<g id="node1" class="node">
<title>Node1</title>
<g id="a_node1"><a xlink:title="A class that represents a shader based program parameter.">
<polygon fill="#bfbfbf" stroke="black" points="108.06,-65.5 108.06,-83.5 249.49,-83.5 249.49,-65.5 108.06,-65.5"/>
<text text-anchor="middle" x="178.78" y="-71.5" font-family="Helvetica,sans-Serif" font-size="10.00">Ogre::RTShader::Parameter</text>
</a>
</g>
</g>
<!-- Node3 -->
<g id="node3" class="node">
<title>Node3</title>
<g id="a_node3"><a xlink:href="class_ogre_1_1_r_t_shader_1_1_const_parameter.html" target="_top" xlink:title="Helper template which is the base for our ConstParameters.">
<polygon fill="none" stroke="black" points="0,-0.5 0,-28.5 167.55,-28.5 167.55,-0.5 0,-0.5"/>
<text text-anchor="start" x="8" y="-16.5" font-family="Helvetica,sans-Serif" font-size="10.00">Ogre::RTShader::ConstParameter</text>
<text text-anchor="middle" x="83.78" y="-6.5" font-family="Helvetica,sans-Serif" font-size="10.00">&lt; valueType &gt;</text>
</a>
</g>
</g>
<!-- Node1&#45;&gt;Node3 -->
<g id="edge2" class="edge">
<title>Node1&#45;&gt;Node3</title>
<path fill="none" stroke="midnightblue" d="M156.68,-60.01C141.2,-50.56 120.61,-37.99 105.27,-28.62"/>
<polygon fill="midnightblue" stroke="midnightblue" points="155.21,-63.21 165.57,-65.44 158.86,-57.24 155.21,-63.21"/>
</g>
<!-- Node4 -->
<g id="node4" class="node">
<title>Node4</title>
<g id="a_node4"><a xlink:href="class_ogre_1_1_r_t_shader_1_1_uniform_parameter.html" target="_top" xlink:title="Uniform parameter class.">
<polygon fill="none" stroke="black" points="185.56,-5.5 185.56,-23.5 361.99,-23.5 361.99,-5.5 185.56,-5.5"/>
<text text-anchor="middle" x="273.78" y="-11.5" font-family="Helvetica,sans-Serif" font-size="10.00">Ogre::RTShader::UniformParameter</text>
</a>
</g>
</g>
<!-- Node1&#45;&gt;Node4 -->
<g id="edge3" class="edge">
<title>Node1&#45;&gt;Node4</title>
<path fill="none" stroke="midnightblue" d="M200.61,-60.17C219.05,-48.91 244.85,-33.16 260.37,-23.68"/>
<polygon fill="midnightblue" stroke="midnightblue" points="198.7,-57.24 191.99,-65.44 202.34,-63.21 198.7,-57.24"/>
</g>
<!-- Node2 -->
<g id="node2" class="node">
<title>Node2</title>
<g id="a_node2"><a xlink:href="class_ogre_1_1_allocated_object.html" target="_top" xlink:title="Superclass for all objects that wish to use custom memory allocators when their new / delete operator...">
<polygon fill="none" stroke="black" points="120.57,-120.5 120.57,-138.5 236.98,-138.5 236.98,-120.5 120.57,-120.5"/>
<text text-anchor="middle" x="178.78" y="-126.5" font-family="Helvetica,sans-Serif" font-size="10.00">RTShaderSystemAlloc</text>
</a>
</g>
</g>
<!-- Node2&#45;&gt;Node1 -->
<g id="edge1" class="edge">
<title>Node2&#45;&gt;Node1</title>
<path fill="none" stroke="midnightblue" d="M178.78,-110.17C178.78,-101.09 178.78,-90.59 178.78,-83.55"/>
<polygon fill="midnightblue" stroke="midnightblue" points="175.28,-110.22 178.78,-120.22 182.28,-110.22 175.28,-110.22"/>
</g>
</g>
</svg>
