<?xml version="1.0" encoding="UTF-8" standalone="no"?>
<!DOCTYPE svg PUBLIC "-//W3C//DTD SVG 1.1//EN"
 "http://www.w3.org/Graphics/SVG/1.1/DTD/svg11.dtd">
<!-- Generated by graphviz version 2.43.0 (0)
 -->
<!-- Title: Ogre::APKFileSystemArchive Pages: 1 -->
<svg width="155pt" height="137pt"
 viewBox="0.00 0.00 154.60 137.00" xmlns="http://www.w3.org/2000/svg" xmlns:xlink="http://www.w3.org/1999/xlink">
<g id="graph0" class="graph" transform="scale(1 1) rotate(0) translate(4 133)">
<title>Ogre::APKFileSystemArchive</title>
<!-- Node1 -->
<g id="node1" class="node">
<title>Node1</title>
<g id="a_node1"><a xlink:title=" ">
<polygon fill="#bfbfbf" stroke="black" points="0,-0.5 0,-18.5 146.6,-18.5 146.6,-0.5 0,-0.5"/>
<text text-anchor="middle" x="73.3" y="-6.5" font-family="Helvetica,sans-Serif" font-size="10.00">Ogre::APKFileSystemArchive</text>
</a>
</g>
</g>
<!-- Node2 -->
<g id="node2" class="node">
<title>Node2</title>
<g id="a_node2"><a xlink:href="class_ogre_1_1_archive.html" target="_top" xlink:title="Archive&#45;handling class.">
<polygon fill="none" stroke="black" points="34.73,-55.5 34.73,-73.5 111.86,-73.5 111.86,-55.5 34.73,-55.5"/>
<text text-anchor="middle" x="73.3" y="-61.5" font-family="Helvetica,sans-Serif" font-size="10.00">Ogre::Archive</text>
</a>
</g>
</g>
<!-- Node2&#45;&gt;Node1 -->
<g id="edge1" class="edge">
<title>Node2&#45;&gt;Node1</title>
<path fill="none" stroke="midnightblue" d="M73.3,-45.17C73.3,-36.09 73.3,-25.59 73.3,-18.55"/>
<polygon fill="midnightblue" stroke="midnightblue" points="69.8,-45.22 73.3,-55.22 76.8,-45.22 69.8,-45.22"/>
</g>
<!-- Node3 -->
<g id="node3" class="node">
<title>Node3</title>
<g id="a_node3"><a xlink:href="class_ogre_1_1_allocated_object.html" target="_top" xlink:title="Superclass for all objects that wish to use custom memory allocators when their new / delete operator...">
<polygon fill="none" stroke="black" points="37.79,-110.5 37.79,-128.5 108.81,-128.5 108.81,-110.5 37.79,-110.5"/>
<text text-anchor="middle" x="73.3" y="-116.5" font-family="Helvetica,sans-Serif" font-size="10.00">ArchiveAlloc</text>
</a>
</g>
</g>
<!-- Node3&#45;&gt;Node2 -->
<g id="edge2" class="edge">
<title>Node3&#45;&gt;Node2</title>
<path fill="none" stroke="midnightblue" d="M73.3,-100.17C73.3,-91.09 73.3,-80.59 73.3,-73.55"/>
<polygon fill="midnightblue" stroke="midnightblue" points="69.8,-100.22 73.3,-110.22 76.8,-100.22 69.8,-100.22"/>
</g>
</g>
</svg>
