<?xml version="1.0" encoding="UTF-8" standalone="no"?>
<!DOCTYPE svg PUBLIC "-//W3C//DTD SVG 1.1//EN"
 "http://www.w3.org/Graphics/SVG/1.1/DTD/svg11.dtd">
<!-- Generated by graphviz version 2.43.0 (0)
 -->
<!-- Title: Ogre::GLES2Support Pages: 1 -->
<svg width="454pt" height="138pt"
 viewBox="0.00 0.00 454.27 138.00" xmlns="http://www.w3.org/2000/svg" xmlns:xlink="http://www.w3.org/1999/xlink">
<g id="graph0" class="graph" transform="scale(1 1) rotate(0) translate(4 134)">
<title>Ogre::GLES2Support</title>
<!-- Node1 -->
<g id="node1" class="node">
<title>Node1</title>
<g id="a_node1"><a xlink:title=" ">
<polygon fill="#bfbfbf" stroke="black" points="0,-36.5 0,-54.5 111.05,-54.5 111.05,-36.5 0,-36.5"/>
<text text-anchor="middle" x="55.53" y="-42.5" font-family="Helvetica,sans-Serif" font-size="10.00">Ogre::GLES2Support</text>
</a>
</g>
</g>
<!-- Node2 -->
<g id="node2" class="node">
<title>Node2</title>
<g id="a_node2"><a xlink:href="class_ogre_1_1_e_g_l_support.html" target="_top" xlink:title=" ">
<polygon fill="none" stroke="black" points="154.83,-55.5 154.83,-73.5 253.65,-73.5 253.65,-55.5 154.83,-55.5"/>
<text text-anchor="middle" x="204.24" y="-61.5" font-family="Helvetica,sans-Serif" font-size="10.00">Ogre::EGLSupport</text>
</a>
</g>
</g>
<!-- Node1&#45;&gt;Node2 -->
<g id="edge1" class="edge">
<title>Node1&#45;&gt;Node2</title>
<path fill="none" stroke="midnightblue" d="M121.26,-53.88C132.38,-55.32 143.76,-56.8 154.37,-58.17"/>
<polygon fill="midnightblue" stroke="midnightblue" points="121.53,-50.39 111.16,-52.57 120.63,-57.33 121.53,-50.39"/>
</g>
<!-- Node7 -->
<g id="node7" class="node">
<title>Node7</title>
<g id="a_node7"><a xlink:href="class_ogre_1_1_na_cl_g_l_support.html" target="_top" xlink:title=" ">
<polygon fill="none" stroke="black" points="147.05,-18.5 147.05,-36.5 261.43,-36.5 261.43,-18.5 147.05,-18.5"/>
<text text-anchor="middle" x="204.24" y="-24.5" font-family="Helvetica,sans-Serif" font-size="10.00">Ogre::NaClGLSupport</text>
</a>
</g>
</g>
<!-- Node1&#45;&gt;Node7 -->
<g id="edge6" class="edge">
<title>Node1&#45;&gt;Node7</title>
<path fill="none" stroke="midnightblue" d="M121.33,-37.55C129.75,-36.52 138.33,-35.46 146.6,-34.45"/>
<polygon fill="midnightblue" stroke="midnightblue" points="120.66,-34.11 111.16,-38.8 121.51,-41.05 120.66,-34.11"/>
</g>
<!-- Node3 -->
<g id="node3" class="node">
<title>Node3</title>
<g id="a_node3"><a xlink:href="class_ogre_1_1_android_e_g_l_support.html" target="_top" xlink:title=" ">
<polygon fill="none" stroke="black" points="305.21,-111.5 305.21,-129.5 438.5,-129.5 438.5,-111.5 305.21,-111.5"/>
<text text-anchor="middle" x="371.85" y="-117.5" font-family="Helvetica,sans-Serif" font-size="10.00">Ogre::AndroidEGLSupport</text>
</a>
</g>
</g>
<!-- Node2&#45;&gt;Node3 -->
<g id="edge2" class="edge">
<title>Node2&#45;&gt;Node3</title>
<path fill="none" stroke="midnightblue" d="M234.04,-77.68C252.01,-85.58 275.77,-95.43 297.43,-102.5 307.66,-105.84 318.87,-108.89 329.38,-111.49"/>
<polygon fill="midnightblue" stroke="midnightblue" points="235.26,-74.4 224.7,-73.53 232.42,-80.79 235.26,-74.4"/>
</g>
<!-- Node4 -->
<g id="node4" class="node">
<title>Node4</title>
<g id="a_node4"><a xlink:href="class_ogre_1_1_emscripten_e_g_l_support.html" target="_top" xlink:title=" ">
<polygon fill="none" stroke="black" points="297.43,-74.5 297.43,-92.5 446.27,-92.5 446.27,-74.5 297.43,-74.5"/>
<text text-anchor="middle" x="371.85" y="-80.5" font-family="Helvetica,sans-Serif" font-size="10.00">Ogre::EmscriptenEGLSupport</text>
</a>
</g>
</g>
<!-- Node2&#45;&gt;Node4 -->
<g id="edge3" class="edge">
<title>Node2&#45;&gt;Node4</title>
<path fill="none" stroke="midnightblue" d="M264.11,-71.25C274.84,-72.48 286.15,-73.78 297.23,-75.05"/>
<polygon fill="midnightblue" stroke="midnightblue" points="264.37,-67.76 254.04,-70.1 263.57,-74.71 264.37,-67.76"/>
</g>
<!-- Node5 -->
<g id="node5" class="node">
<title>Node5</title>
<g id="a_node5"><a xlink:href="class_ogre_1_1_win32_e_g_l_support.html" target="_top" xlink:title=" ">
<polygon fill="none" stroke="black" points="308.27,-37.5 308.27,-55.5 435.43,-55.5 435.43,-37.5 308.27,-37.5"/>
<text text-anchor="middle" x="371.85" y="-43.5" font-family="Helvetica,sans-Serif" font-size="10.00">Ogre::Win32EGLSupport</text>
</a>
</g>
</g>
<!-- Node2&#45;&gt;Node5 -->
<g id="edge4" class="edge">
<title>Node2&#45;&gt;Node5</title>
<path fill="none" stroke="midnightblue" d="M264.22,-58.09C278.5,-56.54 293.82,-54.87 308.26,-53.3"/>
<polygon fill="midnightblue" stroke="midnightblue" points="263.6,-54.64 254.04,-59.2 264.35,-61.6 263.6,-54.64"/>
</g>
<!-- Node6 -->
<g id="node6" class="node">
<title>Node6</title>
<g id="a_node6"><a xlink:href="class_ogre_1_1_x11_e_g_l_support.html" target="_top" xlink:title=" ">
<polygon fill="none" stroke="black" points="313.91,-0.5 313.91,-18.5 429.79,-18.5 429.79,-0.5 313.91,-0.5"/>
<text text-anchor="middle" x="371.85" y="-6.5" font-family="Helvetica,sans-Serif" font-size="10.00">Ogre::X11EGLSupport</text>
</a>
</g>
</g>
<!-- Node2&#45;&gt;Node6 -->
<g id="edge5" class="edge">
<title>Node2&#45;&gt;Node6</title>
<path fill="none" stroke="midnightblue" d="M246.27,-52.17C251.42,-50.38 256.58,-48.48 261.43,-46.5 278,-39.75 280.68,-34.78 297.43,-28.5 307.67,-24.67 318.98,-21.32 329.6,-18.55"/>
<polygon fill="midnightblue" stroke="midnightblue" points="244.84,-48.96 236.46,-55.44 247.06,-55.6 244.84,-48.96"/>
</g>
</g>
</svg>
