<?xml version="1.0" encoding="UTF-8" standalone="no"?>
<!DOCTYPE svg PUBLIC "-//W3C//DTD SVG 1.1//EN"
 "http://www.w3.org/Graphics/SVG/1.1/DTD/svg11.dtd">
<!-- Generated by graphviz version 2.43.0 (0)
 -->
<!-- Title: Ogre::v1::OldSkeletonManager Pages: 1 -->
<svg width="342pt" height="147pt"
 viewBox="0.00 0.00 341.54 147.00" xmlns="http://www.w3.org/2000/svg" xmlns:xlink="http://www.w3.org/1999/xlink">
<g id="graph0" class="graph" transform="scale(1 1) rotate(0) translate(4 143)">
<title>Ogre::v1::OldSkeletonManager</title>
<!-- Node1 -->
<g id="node1" class="node">
<title>Node1</title>
<g id="a_node1"><a xlink:title="Handles the management of skeleton resources.">
<polygon fill="#bfbfbf" stroke="black" points="104.32,-0.5 104.32,-18.5 258.17,-18.5 258.17,-0.5 104.32,-0.5"/>
<text text-anchor="middle" x="181.24" y="-6.5" font-family="Helvetica,sans-Serif" font-size="10.00">Ogre::v1::OldSkeletonManager</text>
</a>
</g>
</g>
<!-- Node2 -->
<g id="node2" class="node">
<title>Node2</title>
<g id="a_node2"><a xlink:href="class_ogre_1_1_resource_manager.html" target="_top" xlink:title="Defines a generic resource handler.">
<polygon fill="none" stroke="black" points="41.22,-60.5 41.22,-78.5 167.27,-78.5 167.27,-60.5 41.22,-60.5"/>
<text text-anchor="middle" x="104.24" y="-66.5" font-family="Helvetica,sans-Serif" font-size="10.00">Ogre::ResourceManager</text>
</a>
</g>
</g>
<!-- Node2&#45;&gt;Node1 -->
<g id="edge1" class="edge">
<title>Node2&#45;&gt;Node1</title>
<path fill="none" stroke="midnightblue" d="M123.34,-54.12C138.06,-43.03 157.91,-28.08 170.13,-18.87"/>
<polygon fill="midnightblue" stroke="midnightblue" points="120.83,-51.62 114.95,-60.44 125.04,-57.21 120.83,-51.62"/>
</g>
<!-- Node3 -->
<g id="node3" class="node">
<title>Node3</title>
<g id="a_node3"><a xlink:href="class_ogre_1_1_script_loader.html" target="_top" xlink:title="Abstract class defining the interface used by classes which wish to perform script loading to define ...">
<polygon fill="none" stroke="black" points="0,-120.5 0,-138.5 100.49,-138.5 100.49,-120.5 0,-120.5"/>
<text text-anchor="middle" x="50.24" y="-126.5" font-family="Helvetica,sans-Serif" font-size="10.00">Ogre::ScriptLoader</text>
</a>
</g>
</g>
<!-- Node3&#45;&gt;Node2 -->
<g id="edge2" class="edge">
<title>Node3&#45;&gt;Node2</title>
<path fill="none" stroke="midnightblue" d="M64.82,-112.84C75,-101.91 88.2,-87.73 96.45,-78.87"/>
<polygon fill="midnightblue" stroke="midnightblue" points="62,-110.73 57.75,-120.44 67.13,-115.5 62,-110.73"/>
</g>
<!-- Node4 -->
<g id="node4" class="node">
<title>Node4</title>
<g id="a_node4"><a xlink:href="class_ogre_1_1_allocated_object.html" target="_top" xlink:title="Superclass for all objects that wish to use custom memory allocators when their new / delete operator...">
<polygon fill="none" stroke="black" points="118.01,-120.5 118.01,-138.5 198.48,-138.5 198.48,-120.5 118.01,-120.5"/>
<text text-anchor="middle" x="158.24" y="-126.5" font-family="Helvetica,sans-Serif" font-size="10.00">ResourceAlloc</text>
</a>
</g>
</g>
<!-- Node4&#45;&gt;Node2 -->
<g id="edge3" class="edge">
<title>Node4&#45;&gt;Node2</title>
<path fill="none" stroke="midnightblue" d="M143.67,-112.84C133.48,-101.91 120.28,-87.73 112.04,-78.87"/>
<polygon fill="midnightblue" stroke="midnightblue" points="141.36,-115.5 150.74,-120.44 146.48,-110.73 141.36,-115.5"/>
</g>
<!-- Node5 -->
<g id="node5" class="node">
<title>Node5</title>
<g id="a_node5"><a xlink:href="class_ogre_1_1_singleton.html" target="_top" xlink:title=" ">
<polygon fill="none" stroke="black" points="184.95,-55.5 184.95,-83.5 333.54,-83.5 333.54,-55.5 184.95,-55.5"/>
<text text-anchor="start" x="192.95" y="-71.5" font-family="Helvetica,sans-Serif" font-size="10.00">Ogre::Singleton&lt; OldSkeleton</text>
<text text-anchor="middle" x="259.24" y="-61.5" font-family="Helvetica,sans-Serif" font-size="10.00">Manager &gt;</text>
</a>
</g>
</g>
<!-- Node5&#45;&gt;Node1 -->
<g id="edge4" class="edge">
<title>Node5&#45;&gt;Node1</title>
<path fill="none" stroke="midnightblue" d="M233.29,-49.2C219.39,-38.86 202.99,-26.67 192.37,-18.77"/>
<polygon fill="midnightblue" stroke="midnightblue" points="231.43,-52.18 241.54,-55.34 235.61,-46.56 231.43,-52.18"/>
</g>
</g>
</svg>
