<?xml version="1.0" encoding="UTF-8" standalone="no"?>
<!DOCTYPE svg PUBLIC "-//W3C//DTD SVG 1.1//EN"
 "http://www.w3.org/Graphics/SVG/1.1/DTD/svg11.dtd">
<!-- Generated by graphviz version 2.43.0 (0)
 -->
<!-- Title: Ogre::HlmsLowLevel Pages: 1 -->
<svg width="117pt" height="137pt"
 viewBox="0.00 0.00 116.81 137.00" xmlns="http://www.w3.org/2000/svg" xmlns:xlink="http://www.w3.org/1999/xlink">
<g id="graph0" class="graph" transform="scale(1 1) rotate(0) translate(4 133)">
<title>Ogre::HlmsLowLevel</title>
<!-- Node1 -->
<g id="node1" class="node">
<title>Node1</title>
<g id="a_node1"><a xlink:title="This is an HLMS implementation that acts as proxy to use the Material system from Ogre 1....">
<polygon fill="#bfbfbf" stroke="black" points="0,-0.5 0,-18.5 108.81,-18.5 108.81,-0.5 0,-0.5"/>
<text text-anchor="middle" x="54.41" y="-6.5" font-family="Helvetica,sans-Serif" font-size="10.00">Ogre::HlmsLowLevel</text>
</a>
</g>
</g>
<!-- Node2 -->
<g id="node2" class="node">
<title>Node2</title>
<g id="a_node2"><a xlink:href="class_ogre_1_1_hlms.html" target="_top" xlink:title="HLMS stands for &quot;High Level Material System&quot;.">
<polygon fill="none" stroke="black" points="21.13,-55.5 21.13,-73.5 87.69,-73.5 87.69,-55.5 21.13,-55.5"/>
<text text-anchor="middle" x="54.41" y="-61.5" font-family="Helvetica,sans-Serif" font-size="10.00">Ogre::Hlms</text>
</a>
</g>
</g>
<!-- Node2&#45;&gt;Node1 -->
<g id="edge1" class="edge">
<title>Node2&#45;&gt;Node1</title>
<path fill="none" stroke="midnightblue" d="M54.41,-45.17C54.41,-36.09 54.41,-25.59 54.41,-18.55"/>
<polygon fill="midnightblue" stroke="midnightblue" points="50.91,-45.22 54.41,-55.22 57.91,-45.22 50.91,-45.22"/>
</g>
<!-- Node3 -->
<g id="node3" class="node">
<title>Node3</title>
<g id="a_node3"><a xlink:href="class_ogre_1_1_allocated_object.html" target="_top" xlink:title="Superclass for all objects that wish to use custom memory allocators when their new / delete operator...">
<polygon fill="none" stroke="black" points="24.18,-110.5 24.18,-128.5 84.63,-128.5 84.63,-110.5 24.18,-110.5"/>
<text text-anchor="middle" x="54.41" y="-116.5" font-family="Helvetica,sans-Serif" font-size="10.00">HlmsAlloc</text>
</a>
</g>
</g>
<!-- Node3&#45;&gt;Node2 -->
<g id="edge2" class="edge">
<title>Node3&#45;&gt;Node2</title>
<path fill="none" stroke="midnightblue" d="M54.41,-100.17C54.41,-91.09 54.41,-80.59 54.41,-73.55"/>
<polygon fill="midnightblue" stroke="midnightblue" points="50.91,-100.22 54.41,-110.22 57.91,-100.22 50.91,-100.22"/>
</g>
</g>
</svg>
