<?xml version="1.0" encoding="UTF-8" standalone="no"?>
<!DOCTYPE svg PUBLIC "-//W3C//DTD SVG 1.1//EN"
 "http://www.w3.org/Graphics/SVG/1.1/DTD/svg11.dtd">
<!-- Generated by graphviz version 2.43.0 (0)
 -->
<!-- Title: Ogre::v1::DefaultHardwareIndexBuffer Pages: 1 -->
<svg width="162pt" height="202pt"
 viewBox="0.00 0.00 162.22 202.00" xmlns="http://www.w3.org/2000/svg" xmlns:xlink="http://www.w3.org/1999/xlink">
<g id="graph0" class="graph" transform="scale(1 1) rotate(0) translate(4 198)">
<title>Ogre::v1::DefaultHardwareIndexBuffer</title>
<!-- Node1 -->
<g id="node1" class="node">
<title>Node1</title>
<g id="a_node1"><a xlink:title="Specialisation of HardwareIndexBuffer for emulation.">
<polygon fill="#bfbfbf" stroke="black" points="9.64,-0.5 9.64,-28.5 144.58,-28.5 144.58,-0.5 9.64,-0.5"/>
<text text-anchor="start" x="17.64" y="-16.5" font-family="Helvetica,sans-Serif" font-size="10.00">Ogre::v1::DefaultHardware</text>
<text text-anchor="middle" x="77.11" y="-6.5" font-family="Helvetica,sans-Serif" font-size="10.00">IndexBuffer</text>
</a>
</g>
</g>
<!-- Node2 -->
<g id="node2" class="node">
<title>Node2</title>
<g id="a_node2"><a xlink:href="class_ogre_1_1v1_1_1_hardware_index_buffer.html" target="_top" xlink:title="Specialisation of HardwareBuffer for vertex index buffers, still abstract.">
<polygon fill="none" stroke="black" points="0,-65.5 0,-83.5 154.22,-83.5 154.22,-65.5 0,-65.5"/>
<text text-anchor="middle" x="77.11" y="-71.5" font-family="Helvetica,sans-Serif" font-size="10.00">Ogre::v1::HardwareIndexBuffer</text>
</a>
</g>
</g>
<!-- Node2&#45;&gt;Node1 -->
<g id="edge1" class="edge">
<title>Node2&#45;&gt;Node1</title>
<path fill="none" stroke="midnightblue" d="M77.11,-55.32C77.11,-46.75 77.11,-36.7 77.11,-28.84"/>
<polygon fill="midnightblue" stroke="midnightblue" points="73.61,-55.44 77.11,-65.44 80.61,-55.44 73.61,-55.44"/>
</g>
<!-- Node3 -->
<g id="node3" class="node">
<title>Node3</title>
<g id="a_node3"><a xlink:href="class_ogre_1_1v1_1_1_hardware_buffer.html" target="_top" xlink:title="Abstract class defining common features of hardware buffers.">
<polygon fill="none" stroke="black" points="12.23,-120.5 12.23,-138.5 141.99,-138.5 141.99,-120.5 12.23,-120.5"/>
<text text-anchor="middle" x="77.11" y="-126.5" font-family="Helvetica,sans-Serif" font-size="10.00">Ogre::v1::HardwareBuffer</text>
</a>
</g>
</g>
<!-- Node3&#45;&gt;Node2 -->
<g id="edge2" class="edge">
<title>Node3&#45;&gt;Node2</title>
<path fill="none" stroke="midnightblue" d="M77.11,-110.17C77.11,-101.09 77.11,-90.59 77.11,-83.55"/>
<polygon fill="midnightblue" stroke="midnightblue" points="73.61,-110.22 77.11,-120.22 80.61,-110.22 73.61,-110.22"/>
</g>
<!-- Node4 -->
<g id="node4" class="node">
<title>Node4</title>
<g id="a_node4"><a xlink:href="class_ogre_1_1_allocated_object.html" target="_top" xlink:title="Superclass for all objects that wish to use custom memory allocators when their new / delete operator...">
<polygon fill="none" stroke="black" points="45.02,-175.5 45.02,-193.5 109.2,-193.5 109.2,-175.5 45.02,-175.5"/>
<text text-anchor="middle" x="77.11" y="-181.5" font-family="Helvetica,sans-Serif" font-size="10.00">BufferAlloc</text>
</a>
</g>
</g>
<!-- Node4&#45;&gt;Node3 -->
<g id="edge3" class="edge">
<title>Node4&#45;&gt;Node3</title>
<path fill="none" stroke="midnightblue" d="M77.11,-165.17C77.11,-156.09 77.11,-145.59 77.11,-138.55"/>
<polygon fill="midnightblue" stroke="midnightblue" points="73.61,-165.22 77.11,-175.22 80.61,-165.22 73.61,-165.22"/>
</g>
</g>
</svg>
