<?xml version="1.0" encoding="UTF-8" standalone="no"?>
<!DOCTYPE svg PUBLIC "-//W3C//DTD SVG 1.1//EN"
 "http://www.w3.org/Graphics/SVG/1.1/DTD/svg11.dtd">
<!-- Generated by graphviz version 2.43.0 (0)
 -->
<!-- Title: Ogre::D3D9GpuProgramManager Pages: 1 -->
<svg width="345pt" height="202pt"
 viewBox="0.00 0.00 344.92 202.00" xmlns="http://www.w3.org/2000/svg" xmlns:xlink="http://www.w3.org/1999/xlink">
<g id="graph0" class="graph" transform="scale(1 1) rotate(0) translate(4 198)">
<title>Ogre::D3D9GpuProgramManager</title>
<!-- Node1 -->
<g id="node1" class="node">
<title>Node1</title>
<g id="a_node1"><a xlink:title=" ">
<polygon fill="#bfbfbf" stroke="black" points="99.21,-0.5 99.21,-18.5 265.28,-18.5 265.28,-0.5 99.21,-0.5"/>
<text text-anchor="middle" x="182.24" y="-6.5" font-family="Helvetica,sans-Serif" font-size="10.00">Ogre::D3D9GpuProgramManager</text>
</a>
</g>
</g>
<!-- Node2 -->
<g id="node2" class="node">
<title>Node2</title>
<g id="a_node2"><a xlink:href="class_ogre_1_1_gpu_program_manager.html" target="_top" xlink:title=" ">
<polygon fill="none" stroke="black" points="111.99,-55.5 111.99,-73.5 252.49,-73.5 252.49,-55.5 111.99,-55.5"/>
<text text-anchor="middle" x="182.24" y="-61.5" font-family="Helvetica,sans-Serif" font-size="10.00">Ogre::GpuProgramManager</text>
</a>
</g>
</g>
<!-- Node2&#45;&gt;Node1 -->
<g id="edge1" class="edge">
<title>Node2&#45;&gt;Node1</title>
<path fill="none" stroke="midnightblue" d="M182.24,-45.17C182.24,-36.09 182.24,-25.59 182.24,-18.55"/>
<polygon fill="midnightblue" stroke="midnightblue" points="178.74,-45.22 182.24,-55.22 185.74,-45.22 178.74,-45.22"/>
</g>
<!-- Node3 -->
<g id="node3" class="node">
<title>Node3</title>
<g id="a_node3"><a xlink:href="class_ogre_1_1_resource_manager.html" target="_top" xlink:title="Defines a generic resource handler.">
<polygon fill="none" stroke="black" points="41.22,-115.5 41.22,-133.5 167.27,-133.5 167.27,-115.5 41.22,-115.5"/>
<text text-anchor="middle" x="104.24" y="-121.5" font-family="Helvetica,sans-Serif" font-size="10.00">Ogre::ResourceManager</text>
</a>
</g>
</g>
<!-- Node3&#45;&gt;Node2 -->
<g id="edge2" class="edge">
<title>Node3&#45;&gt;Node2</title>
<path fill="none" stroke="midnightblue" d="M123.17,-109.43C138.12,-98.31 158.49,-83.16 170.99,-73.87"/>
<polygon fill="midnightblue" stroke="midnightblue" points="121.03,-106.66 115.09,-115.44 125.2,-112.28 121.03,-106.66"/>
</g>
<!-- Node4 -->
<g id="node4" class="node">
<title>Node4</title>
<g id="a_node4"><a xlink:href="class_ogre_1_1_script_loader.html" target="_top" xlink:title="Abstract class defining the interface used by classes which wish to perform script loading to define ...">
<polygon fill="none" stroke="black" points="0,-175.5 0,-193.5 100.49,-193.5 100.49,-175.5 0,-175.5"/>
<text text-anchor="middle" x="50.24" y="-181.5" font-family="Helvetica,sans-Serif" font-size="10.00">Ogre::ScriptLoader</text>
</a>
</g>
</g>
<!-- Node4&#45;&gt;Node3 -->
<g id="edge3" class="edge">
<title>Node4&#45;&gt;Node3</title>
<path fill="none" stroke="midnightblue" d="M64.82,-167.84C75,-156.91 88.2,-142.73 96.45,-133.87"/>
<polygon fill="midnightblue" stroke="midnightblue" points="62,-165.73 57.75,-175.44 67.13,-170.5 62,-165.73"/>
</g>
<!-- Node5 -->
<g id="node5" class="node">
<title>Node5</title>
<g id="a_node5"><a xlink:href="class_ogre_1_1_allocated_object.html" target="_top" xlink:title="Superclass for all objects that wish to use custom memory allocators when their new / delete operator...">
<polygon fill="none" stroke="black" points="118.01,-175.5 118.01,-193.5 198.48,-193.5 198.48,-175.5 118.01,-175.5"/>
<text text-anchor="middle" x="158.24" y="-181.5" font-family="Helvetica,sans-Serif" font-size="10.00">ResourceAlloc</text>
</a>
</g>
</g>
<!-- Node5&#45;&gt;Node3 -->
<g id="edge4" class="edge">
<title>Node5&#45;&gt;Node3</title>
<path fill="none" stroke="midnightblue" d="M143.67,-167.84C133.48,-156.91 120.28,-142.73 112.04,-133.87"/>
<polygon fill="midnightblue" stroke="midnightblue" points="141.36,-170.5 150.74,-175.44 146.48,-165.73 141.36,-170.5"/>
</g>
<!-- Node6 -->
<g id="node6" class="node">
<title>Node6</title>
<g id="a_node6"><a xlink:href="class_ogre_1_1_singleton.html" target="_top" xlink:title=" ">
<polygon fill="none" stroke="black" points="185.57,-110.5 185.57,-138.5 336.92,-138.5 336.92,-110.5 185.57,-110.5"/>
<text text-anchor="start" x="193.57" y="-126.5" font-family="Helvetica,sans-Serif" font-size="10.00">Ogre::Singleton&lt; GpuProgram</text>
<text text-anchor="middle" x="261.24" y="-116.5" font-family="Helvetica,sans-Serif" font-size="10.00">Manager &gt;</text>
</a>
</g>
</g>
<!-- Node6&#45;&gt;Node2 -->
<g id="edge5" class="edge">
<title>Node6&#45;&gt;Node2</title>
<path fill="none" stroke="midnightblue" d="M234.95,-104.2C220.88,-93.86 204.27,-81.67 193.51,-73.77"/>
<polygon fill="midnightblue" stroke="midnightblue" points="233.19,-107.24 243.32,-110.34 237.33,-101.6 233.19,-107.24"/>
</g>
</g>
</svg>
