<?xml version="1.0" encoding="UTF-8" standalone="no"?>
<!DOCTYPE svg PUBLIC "-//W3C//DTD SVG 1.1//EN"
 "http://www.w3.org/Graphics/SVG/1.1/DTD/svg11.dtd">
<!-- Generated by graphviz version 2.43.0 (0)
 -->
<!-- Title: Ogre::v1::D3D11HardwarePixelBuffer Pages: 1 -->
<svg width="163pt" height="202pt"
 viewBox="0.00 0.00 163.32 202.00" xmlns="http://www.w3.org/2000/svg" xmlns:xlink="http://www.w3.org/1999/xlink">
<g id="graph0" class="graph" transform="scale(1 1) rotate(0) translate(4 198)">
<title>Ogre::v1::D3D11HardwarePixelBuffer</title>
<!-- Node1 -->
<g id="node1" class="node">
<title>Node1</title>
<g id="a_node1"><a xlink:title=" ">
<polygon fill="#bfbfbf" stroke="black" points="0,-0.5 0,-28.5 155.32,-28.5 155.32,-0.5 0,-0.5"/>
<text text-anchor="start" x="8" y="-16.5" font-family="Helvetica,sans-Serif" font-size="10.00">Ogre::v1::D3D11HardwarePixel</text>
<text text-anchor="middle" x="77.66" y="-6.5" font-family="Helvetica,sans-Serif" font-size="10.00">Buffer</text>
</a>
</g>
</g>
<!-- Node2 -->
<g id="node2" class="node">
<title>Node2</title>
<g id="a_node2"><a xlink:href="class_ogre_1_1v1_1_1_hardware_pixel_buffer.html" target="_top" xlink:title="Specialisation of HardwareBuffer for a pixel buffer.">
<polygon fill="none" stroke="black" points="1.94,-65.5 1.94,-83.5 153.38,-83.5 153.38,-65.5 1.94,-65.5"/>
<text text-anchor="middle" x="77.66" y="-71.5" font-family="Helvetica,sans-Serif" font-size="10.00">Ogre::v1::HardwarePixelBuffer</text>
</a>
</g>
</g>
<!-- Node2&#45;&gt;Node1 -->
<g id="edge1" class="edge">
<title>Node2&#45;&gt;Node1</title>
<path fill="none" stroke="midnightblue" d="M77.66,-55.32C77.66,-46.75 77.66,-36.7 77.66,-28.84"/>
<polygon fill="midnightblue" stroke="midnightblue" points="74.16,-55.44 77.66,-65.44 81.16,-55.44 74.16,-55.44"/>
</g>
<!-- Node3 -->
<g id="node3" class="node">
<title>Node3</title>
<g id="a_node3"><a xlink:href="class_ogre_1_1v1_1_1_hardware_buffer.html" target="_top" xlink:title="Abstract class defining common features of hardware buffers.">
<polygon fill="none" stroke="black" points="12.78,-120.5 12.78,-138.5 142.54,-138.5 142.54,-120.5 12.78,-120.5"/>
<text text-anchor="middle" x="77.66" y="-126.5" font-family="Helvetica,sans-Serif" font-size="10.00">Ogre::v1::HardwareBuffer</text>
</a>
</g>
</g>
<!-- Node3&#45;&gt;Node2 -->
<g id="edge2" class="edge">
<title>Node3&#45;&gt;Node2</title>
<path fill="none" stroke="midnightblue" d="M77.66,-110.17C77.66,-101.09 77.66,-90.59 77.66,-83.55"/>
<polygon fill="midnightblue" stroke="midnightblue" points="74.16,-110.22 77.66,-120.22 81.16,-110.22 74.16,-110.22"/>
</g>
<!-- Node4 -->
<g id="node4" class="node">
<title>Node4</title>
<g id="a_node4"><a xlink:href="class_ogre_1_1_allocated_object.html" target="_top" xlink:title="Superclass for all objects that wish to use custom memory allocators when their new / delete operator...">
<polygon fill="none" stroke="black" points="45.57,-175.5 45.57,-193.5 109.75,-193.5 109.75,-175.5 45.57,-175.5"/>
<text text-anchor="middle" x="77.66" y="-181.5" font-family="Helvetica,sans-Serif" font-size="10.00">BufferAlloc</text>
</a>
</g>
</g>
<!-- Node4&#45;&gt;Node3 -->
<g id="edge3" class="edge">
<title>Node4&#45;&gt;Node3</title>
<path fill="none" stroke="midnightblue" d="M77.66,-165.17C77.66,-156.09 77.66,-145.59 77.66,-138.55"/>
<polygon fill="midnightblue" stroke="midnightblue" points="74.16,-165.22 77.66,-175.22 81.16,-165.22 74.16,-165.22"/>
</g>
</g>
</svg>
