<?xml version="1.0" encoding="UTF-8" standalone="no"?>
<!DOCTYPE svg PUBLIC "-//W3C//DTD SVG 1.1//EN"
 "http://www.w3.org/Graphics/SVG/1.1/DTD/svg11.dtd">
<!-- Generated by graphviz version 2.43.0 (0)
 -->
<!-- Title: Ogre::GL3PlusDepthBuffer Pages: 1 -->
<svg width="143pt" height="137pt"
 viewBox="0.00 0.00 143.33 137.00" xmlns="http://www.w3.org/2000/svg" xmlns:xlink="http://www.w3.org/1999/xlink">
<g id="graph0" class="graph" transform="scale(1 1) rotate(0) translate(4 133)">
<title>Ogre::GL3PlusDepthBuffer</title>
<!-- Node1 -->
<g id="node1" class="node">
<title>Node1</title>
<g id="a_node1"><a xlink:title=" ">
<polygon fill="#bfbfbf" stroke="black" points="0,-0.5 0,-18.5 135.33,-18.5 135.33,-0.5 0,-0.5"/>
<text text-anchor="middle" x="67.67" y="-6.5" font-family="Helvetica,sans-Serif" font-size="10.00">Ogre::GL3PlusDepthBuffer</text>
</a>
</g>
</g>
<!-- Node2 -->
<g id="node2" class="node">
<title>Node2</title>
<g id="a_node2"><a xlink:href="class_ogre_1_1_depth_buffer.html" target="_top" xlink:title="An abstract class that contains a depth/stencil buffer.">
<polygon fill="none" stroke="black" points="19.18,-55.5 19.18,-73.5 116.15,-73.5 116.15,-55.5 19.18,-55.5"/>
<text text-anchor="middle" x="67.67" y="-61.5" font-family="Helvetica,sans-Serif" font-size="10.00">Ogre::DepthBuffer</text>
</a>
</g>
</g>
<!-- Node2&#45;&gt;Node1 -->
<g id="edge1" class="edge">
<title>Node2&#45;&gt;Node1</title>
<path fill="none" stroke="midnightblue" d="M67.67,-45.17C67.67,-36.09 67.67,-25.59 67.67,-18.55"/>
<polygon fill="midnightblue" stroke="midnightblue" points="64.17,-45.22 67.67,-55.22 71.17,-45.22 64.17,-45.22"/>
</g>
<!-- Node3 -->
<g id="node3" class="node">
<title>Node3</title>
<g id="a_node3"><a xlink:href="class_ogre_1_1_allocated_object.html" target="_top" xlink:title="Superclass for all objects that wish to use custom memory allocators when their new / delete operator...">
<polygon fill="none" stroke="black" points="24.09,-110.5 24.09,-128.5 111.24,-128.5 111.24,-110.5 24.09,-110.5"/>
<text text-anchor="middle" x="67.67" y="-116.5" font-family="Helvetica,sans-Serif" font-size="10.00">RenderSysAlloc</text>
</a>
</g>
</g>
<!-- Node3&#45;&gt;Node2 -->
<g id="edge2" class="edge">
<title>Node3&#45;&gt;Node2</title>
<path fill="none" stroke="midnightblue" d="M67.67,-100.17C67.67,-91.09 67.67,-80.59 67.67,-73.55"/>
<polygon fill="midnightblue" stroke="midnightblue" points="64.17,-100.22 67.67,-110.22 71.17,-100.22 64.17,-100.22"/>
</g>
</g>
</svg>
