<?xml version="1.0" encoding="UTF-8" standalone="no"?>
<!DOCTYPE svg PUBLIC "-//W3C//DTD SVG 1.1//EN"
 "http://www.w3.org/Graphics/SVG/1.1/DTD/svg11.dtd">
<!-- Generated by graphviz version 2.43.0 (0)
 -->
<!-- Title: Ogre::Terrain Pages: 1 -->
<svg width="266pt" height="205pt"
 viewBox="0.00 0.00 265.91 205.00" xmlns="http://www.w3.org/2000/svg" xmlns:xlink="http://www.w3.org/1999/xlink">
<g id="graph0" class="graph" transform="scale(1 1) rotate(0) translate(4 201)">
<title>Ogre::Terrain</title>
<!-- Node1 -->
<g id="node1" class="node">
<title>Node1</title>
<g id="a_node1"><a xlink:title="The main containing class for a chunk of terrain.">
<polygon fill="#bfbfbf" stroke="black" points="183.55,-89.5 183.55,-107.5 257.91,-107.5 257.91,-89.5 183.55,-89.5"/>
<text text-anchor="middle" x="220.73" y="-95.5" font-family="Helvetica,sans-Serif" font-size="10.00">Ogre::Terrain</text>
</a>
</g>
</g>
<!-- Node2 -->
<g id="node2" class="node">
<title>Node2</title>
<g id="a_node2"><a xlink:href="class_ogre_1_1_scene_manager_1_1_listener.html" target="_top" xlink:title="Class that allows listening in on the various stages of SceneManager processing, so that custom behav...">
<polygon fill="none" stroke="black" points="17.97,-168.5 17.97,-196.5 129.58,-196.5 129.58,-168.5 17.97,-168.5"/>
<text text-anchor="start" x="25.97" y="-184.5" font-family="Helvetica,sans-Serif" font-size="10.00">Ogre::SceneManager</text>
<text text-anchor="middle" x="73.78" y="-174.5" font-family="Helvetica,sans-Serif" font-size="10.00">::Listener</text>
</a>
</g>
</g>
<!-- Node2&#45;&gt;Node1 -->
<g id="edge1" class="edge">
<title>Node2&#45;&gt;Node1</title>
<path fill="none" stroke="midnightblue" d="M137.34,-164.55C140.86,-162.98 144.29,-161.3 147.55,-159.5 173.41,-145.24 198.59,-120.88 211.26,-107.67"/>
<polygon fill="midnightblue" stroke="midnightblue" points="135.8,-161.4 127.88,-168.45 138.46,-167.88 135.8,-161.4"/>
</g>
<!-- Node3 -->
<g id="node3" class="node">
<title>Node3</title>
<g id="a_node3"><a xlink:href="class_ogre_1_1_frame_listener.html" target="_top" xlink:title="A interface class defining a listener which can be used to receive notifications of frame events.">
<polygon fill="none" stroke="black" points="19.65,-131.5 19.65,-149.5 127.9,-149.5 127.9,-131.5 19.65,-131.5"/>
<text text-anchor="middle" x="73.78" y="-137.5" font-family="Helvetica,sans-Serif" font-size="10.00">Ogre::FrameListener</text>
</a>
</g>
</g>
<!-- Node3&#45;&gt;Node1 -->
<g id="edge2" class="edge">
<title>Node3&#45;&gt;Node1</title>
<path fill="none" stroke="midnightblue" d="M123.78,-128.94C131.76,-126.9 139.9,-124.71 147.55,-122.5 163.15,-117.98 180.43,-112.27 194.16,-107.55"/>
<polygon fill="midnightblue" stroke="midnightblue" points="122.67,-125.61 113.83,-131.44 124.38,-132.4 122.67,-125.61"/>
</g>
<!-- Node4 -->
<g id="node4" class="node">
<title>Node4</title>
<g id="a_node4"><a xlink:href="class_ogre_1_1_work_queue_1_1_request_handler.html" target="_top" xlink:title="Interface definition for a handler of requests.">
<polygon fill="none" stroke="black" points="3.89,-84.5 3.89,-112.5 143.66,-112.5 143.66,-84.5 3.89,-84.5"/>
<text text-anchor="start" x="11.89" y="-100.5" font-family="Helvetica,sans-Serif" font-size="10.00">Ogre::WorkQueue::Request</text>
<text text-anchor="middle" x="73.78" y="-90.5" font-family="Helvetica,sans-Serif" font-size="10.00">Handler</text>
</a>
</g>
</g>
<!-- Node4&#45;&gt;Node1 -->
<g id="edge3" class="edge">
<title>Node4&#45;&gt;Node1</title>
<path fill="none" stroke="midnightblue" d="M154.14,-98.5C164.39,-98.5 174.45,-98.5 183.5,-98.5"/>
<polygon fill="midnightblue" stroke="midnightblue" points="153.86,-95 143.86,-98.5 153.86,-102 153.86,-95"/>
</g>
<!-- Node5 -->
<g id="node5" class="node">
<title>Node5</title>
<g id="a_node5"><a xlink:href="class_ogre_1_1_work_queue_1_1_response_handler.html" target="_top" xlink:title="Interface definition for a handler of responses.">
<polygon fill="none" stroke="black" points="0,-37.5 0,-65.5 147.55,-65.5 147.55,-37.5 0,-37.5"/>
<text text-anchor="start" x="8" y="-53.5" font-family="Helvetica,sans-Serif" font-size="10.00">Ogre::WorkQueue::Response</text>
<text text-anchor="middle" x="73.78" y="-43.5" font-family="Helvetica,sans-Serif" font-size="10.00">Handler</text>
</a>
</g>
</g>
<!-- Node5&#45;&gt;Node1 -->
<g id="edge4" class="edge">
<title>Node5&#45;&gt;Node1</title>
<path fill="none" stroke="midnightblue" d="M128,-68.76C149.64,-75.77 173.75,-83.59 191.82,-89.45"/>
<polygon fill="midnightblue" stroke="midnightblue" points="128.86,-65.36 118.27,-65.6 126.7,-72.02 128.86,-65.36"/>
</g>
<!-- Node6 -->
<g id="node6" class="node">
<title>Node6</title>
<g id="a_node6"><a xlink:href="class_ogre_1_1_allocated_object.html" target="_top" xlink:title="Superclass for all objects that wish to use custom memory allocators when their new / delete operator...">
<polygon fill="none" stroke="black" points="39.66,-0.5 39.66,-18.5 107.9,-18.5 107.9,-0.5 39.66,-0.5"/>
<text text-anchor="middle" x="73.78" y="-6.5" font-family="Helvetica,sans-Serif" font-size="10.00">TerrainAlloc</text>
</a>
</g>
</g>
<!-- Node6&#45;&gt;Node1 -->
<g id="edge5" class="edge">
<title>Node6&#45;&gt;Node1</title>
<path fill="none" stroke="midnightblue" d="M117.96,-16.88C128.06,-19.65 138.51,-23.41 147.55,-28.5 175.85,-44.43 201.13,-74.16 212.84,-89.23"/>
<polygon fill="midnightblue" stroke="midnightblue" points="118.58,-13.43 108.03,-14.43 116.9,-20.22 118.58,-13.43"/>
</g>
</g>
</svg>
