<?xml version="1.0" encoding="UTF-8" standalone="no"?>
<!DOCTYPE svg PUBLIC "-//W3C//DTD SVG 1.1//EN"
 "http://www.w3.org/Graphics/SVG/1.1/DTD/svg11.dtd">
<!-- Generated by graphviz version 2.43.0 (0)
 -->
<!-- Title: Ogre::GLSLESCgProgramFactory Pages: 1 -->
<svg width="175pt" height="147pt"
 viewBox="0.00 0.00 175.17 147.00" xmlns="http://www.w3.org/2000/svg" xmlns:xlink="http://www.w3.org/1999/xlink">
<g id="graph0" class="graph" transform="scale(1 1) rotate(0) translate(4 143)">
<title>Ogre::GLSLESCgProgramFactory</title>
<!-- Node1 -->
<g id="node1" class="node">
<title>Node1</title>
<g id="a_node1"><a xlink:title="Factory class for GLSL ES programs.">
<polygon fill="#bfbfbf" stroke="black" points="0,-0.5 0,-18.5 167.17,-18.5 167.17,-0.5 0,-0.5"/>
<text text-anchor="middle" x="83.58" y="-6.5" font-family="Helvetica,sans-Serif" font-size="10.00">Ogre::GLSLESCgProgramFactory</text>
</a>
</g>
</g>
<!-- Node2 -->
<g id="node2" class="node">
<title>Node2</title>
<g id="a_node2"><a xlink:href="class_ogre_1_1_high_level_gpu_program_factory.html" target="_top" xlink:title="Interface definition for factories of HighLevelGpuProgram.">
<polygon fill="none" stroke="black" points="10.83,-55.5 10.83,-83.5 156.34,-83.5 156.34,-55.5 10.83,-55.5"/>
<text text-anchor="start" x="18.83" y="-71.5" font-family="Helvetica,sans-Serif" font-size="10.00">Ogre::HighLevelGpuProgram</text>
<text text-anchor="middle" x="83.58" y="-61.5" font-family="Helvetica,sans-Serif" font-size="10.00">Factory</text>
</a>
</g>
</g>
<!-- Node2&#45;&gt;Node1 -->
<g id="edge1" class="edge">
<title>Node2&#45;&gt;Node1</title>
<path fill="none" stroke="midnightblue" d="M83.58,-45.32C83.58,-35.94 83.58,-25.7 83.58,-18.77"/>
<polygon fill="midnightblue" stroke="midnightblue" points="80.08,-45.34 83.58,-55.34 87.08,-45.34 80.08,-45.34"/>
</g>
<!-- Node3 -->
<g id="node3" class="node">
<title>Node3</title>
<g id="a_node3"><a xlink:href="class_ogre_1_1_allocated_object.html" target="_top" xlink:title="Superclass for all objects that wish to use custom memory allocators when their new / delete operator...">
<polygon fill="none" stroke="black" points="48.08,-120.5 48.08,-138.5 119.09,-138.5 119.09,-120.5 48.08,-120.5"/>
<text text-anchor="middle" x="83.58" y="-126.5" font-family="Helvetica,sans-Serif" font-size="10.00">FactoryAlloc</text>
</a>
</g>
</g>
<!-- Node3&#45;&gt;Node2 -->
<g id="edge2" class="edge">
<title>Node3&#45;&gt;Node2</title>
<path fill="none" stroke="midnightblue" d="M83.58,-110.32C83.58,-101.75 83.58,-91.7 83.58,-83.84"/>
<polygon fill="midnightblue" stroke="midnightblue" points="80.08,-110.44 83.58,-120.44 87.08,-110.44 80.08,-110.44"/>
</g>
</g>
</svg>
