<?xml version="1.0" encoding="UTF-8" standalone="no"?>
<!DOCTYPE svg PUBLIC "-//W3C//DTD SVG 1.1//EN"
 "http://www.w3.org/Graphics/SVG/1.1/DTD/svg11.dtd">
<!-- Generated by graphviz version 2.43.0 (0)
 -->
<!-- Title: Ogre::GLES2Texture Pages: 1 -->
<svg width="288pt" height="137pt"
 viewBox="0.00 0.00 287.78 137.00" xmlns="http://www.w3.org/2000/svg" xmlns:xlink="http://www.w3.org/1999/xlink">
<g id="graph0" class="graph" transform="scale(1 1) rotate(0) translate(4 133)">
<title>Ogre::GLES2Texture</title>
<!-- Node1 -->
<g id="node1" class="node">
<title>Node1</title>
<g id="a_node1"><a xlink:title=" ">
<polygon fill="#bfbfbf" stroke="black" points="87.34,-55.5 87.34,-73.5 196.16,-73.5 196.16,-55.5 87.34,-55.5"/>
<text text-anchor="middle" x="141.75" y="-61.5" font-family="Helvetica,sans-Serif" font-size="10.00">Ogre::GLES2Texture</text>
</a>
</g>
</g>
<!-- Node3 -->
<g id="node3" class="node">
<title>Node3</title>
<g id="a_node3"><a xlink:href="class_ogre_1_1_g_l_e_s2_depth_texture.html" target="_top" xlink:title=" ">
<polygon fill="none" stroke="black" points="0,-0.5 0,-18.5 135.51,-18.5 135.51,-0.5 0,-0.5"/>
<text text-anchor="middle" x="67.75" y="-6.5" font-family="Helvetica,sans-Serif" font-size="10.00">Ogre::GLES2DepthTexture</text>
</a>
</g>
</g>
<!-- Node1&#45;&gt;Node3 -->
<g id="edge2" class="edge">
<title>Node1&#45;&gt;Node3</title>
<path fill="none" stroke="midnightblue" d="M122.19,-49.49C108.45,-39.65 90.55,-26.83 79.1,-18.63"/>
<polygon fill="midnightblue" stroke="midnightblue" points="120.35,-52.47 130.51,-55.45 124.42,-46.78 120.35,-52.47"/>
</g>
<!-- Node4 -->
<g id="node4" class="node">
<title>Node4</title>
<g id="a_node4"><a xlink:href="class_ogre_1_1_g_l_e_s2_null_texture.html" target="_top" xlink:title=" ">
<polygon fill="none" stroke="black" points="153.73,-0.5 153.73,-18.5 279.78,-18.5 279.78,-0.5 153.73,-0.5"/>
<text text-anchor="middle" x="216.75" y="-6.5" font-family="Helvetica,sans-Serif" font-size="10.00">Ogre::GLES2NullTexture</text>
</a>
</g>
</g>
<!-- Node1&#45;&gt;Node4 -->
<g id="edge3" class="edge">
<title>Node1&#45;&gt;Node4</title>
<path fill="none" stroke="midnightblue" d="M161.58,-49.49C175.5,-39.65 193.65,-26.83 205.26,-18.63"/>
<polygon fill="midnightblue" stroke="midnightblue" points="159.29,-46.82 153.14,-55.45 163.33,-52.54 159.29,-46.82"/>
</g>
<!-- Node2 -->
<g id="node2" class="node">
<title>Node2</title>
<g id="a_node2"><a xlink:title=" ">
<polygon fill="none" stroke="#bfbfbf" points="59.57,-110.5 59.57,-128.5 223.94,-128.5 223.94,-110.5 59.57,-110.5"/>
<text text-anchor="middle" x="141.75" y="-116.5" font-family="Helvetica,sans-Serif" font-size="10.00">Texture MANAGED_RESOURCE</text>
</a>
</g>
</g>
<!-- Node2&#45;&gt;Node1 -->
<g id="edge1" class="edge">
<title>Node2&#45;&gt;Node1</title>
<path fill="none" stroke="midnightblue" d="M141.75,-100.17C141.75,-91.09 141.75,-80.59 141.75,-73.55"/>
<polygon fill="midnightblue" stroke="midnightblue" points="138.25,-100.22 141.75,-110.22 145.25,-100.22 138.25,-100.22"/>
</g>
</g>
</svg>
