<?xml version="1.0" encoding="UTF-8" standalone="no"?>
<!DOCTYPE svg PUBLIC "-//W3C//DTD SVG 1.1//EN"
 "http://www.w3.org/Graphics/SVG/1.1/DTD/svg11.dtd">
<!-- Generated by graphviz version 2.43.0 (0)
 -->
<!-- Title: Ogre::v1::KeyFrame Pages: 1 -->
<svg width="425pt" height="148pt"
 viewBox="0.00 0.00 425.35 148.00" xmlns="http://www.w3.org/2000/svg" xmlns:xlink="http://www.w3.org/1999/xlink">
<g id="graph0" class="graph" transform="scale(1 1) rotate(0) translate(4 144)">
<title>Ogre::v1::KeyFrame</title>
<!-- Node1 -->
<g id="node1" class="node">
<title>Node1</title>
<g id="a_node1"><a xlink:title="A key frame in an animation sequence defined by an AnimationTrack.">
<polygon fill="#bfbfbf" stroke="black" points="118.14,-63.5 118.14,-81.5 224.17,-81.5 224.17,-63.5 118.14,-63.5"/>
<text text-anchor="middle" x="171.16" y="-69.5" font-family="Helvetica,sans-Serif" font-size="10.00">Ogre::v1::KeyFrame</text>
</a>
</g>
</g>
<!-- Node3 -->
<g id="node3" class="node">
<title>Node3</title>
<g id="a_node3"><a xlink:href="class_ogre_1_1v1_1_1_numeric_key_frame.html" target="_top" xlink:title="Specialised KeyFrame which stores any numeric value.">
<polygon fill="none" stroke="black" points="267.13,-121.5 267.13,-139.5 410.39,-139.5 410.39,-121.5 267.13,-121.5"/>
<text text-anchor="middle" x="338.76" y="-127.5" font-family="Helvetica,sans-Serif" font-size="10.00">Ogre::v1::NumericKeyFrame</text>
</a>
</g>
</g>
<!-- Node1&#45;&gt;Node3 -->
<g id="edge2" class="edge">
<title>Node1&#45;&gt;Node3</title>
<path fill="none" stroke="midnightblue" d="M198.66,-86.22C215.84,-94.69 238.91,-105.28 260.17,-112.5 270.25,-115.92 281.29,-118.91 291.8,-121.43"/>
<polygon fill="midnightblue" stroke="midnightblue" points="199.79,-82.87 189.28,-81.51 196.65,-89.12 199.79,-82.87"/>
</g>
<!-- Node4 -->
<g id="node4" class="node">
<title>Node4</title>
<g id="a_node4"><a xlink:href="class_ogre_1_1v1_1_1_transform_key_frame.html" target="_top" xlink:title="Specialised KeyFrame which stores a full transform.">
<polygon fill="none" stroke="black" points="263.15,-84.5 263.15,-102.5 414.37,-102.5 414.37,-84.5 263.15,-84.5"/>
<text text-anchor="middle" x="338.76" y="-90.5" font-family="Helvetica,sans-Serif" font-size="10.00">Ogre::v1::TransformKeyFrame</text>
</a>
</g>
</g>
<!-- Node1&#45;&gt;Node4 -->
<g id="edge3" class="edge">
<title>Node1&#45;&gt;Node4</title>
<path fill="none" stroke="midnightblue" d="M234.78,-80.44C245.18,-81.76 256.03,-83.14 266.63,-84.48"/>
<polygon fill="midnightblue" stroke="midnightblue" points="234.92,-76.93 224.56,-79.14 234.04,-83.87 234.92,-76.93"/>
</g>
<!-- Node5 -->
<g id="node5" class="node">
<title>Node5</title>
<g id="a_node5"><a xlink:href="class_ogre_1_1v1_1_1_vertex_morph_key_frame.html" target="_top" xlink:title="Specialised KeyFrame which stores absolute vertex positions for a complete buffer,...">
<polygon fill="none" stroke="black" points="271.84,-37.5 271.84,-65.5 405.68,-65.5 405.68,-37.5 271.84,-37.5"/>
<text text-anchor="start" x="279.84" y="-53.5" font-family="Helvetica,sans-Serif" font-size="10.00">Ogre::v1::VertexMorphKey</text>
<text text-anchor="middle" x="338.76" y="-43.5" font-family="Helvetica,sans-Serif" font-size="10.00">Frame</text>
</a>
</g>
</g>
<!-- Node1&#45;&gt;Node5 -->
<g id="edge4" class="edge">
<title>Node1&#45;&gt;Node5</title>
<path fill="none" stroke="midnightblue" d="M234.58,-64.58C246.71,-63.05 259.47,-61.43 271.71,-59.88"/>
<polygon fill="midnightblue" stroke="midnightblue" points="234.04,-61.13 224.56,-65.86 234.92,-68.07 234.04,-61.13"/>
</g>
<!-- Node6 -->
<g id="node6" class="node">
<title>Node6</title>
<g id="a_node6"><a xlink:href="class_ogre_1_1v1_1_1_vertex_pose_key_frame.html" target="_top" xlink:title="Specialised KeyFrame which references a Mesh::Pose at a certain influence level, which stores offsets...">
<polygon fill="none" stroke="black" points="260.17,-0.5 260.17,-18.5 417.35,-18.5 417.35,-0.5 260.17,-0.5"/>
<text text-anchor="middle" x="338.76" y="-6.5" font-family="Helvetica,sans-Serif" font-size="10.00">Ogre::v1::VertexPoseKeyFrame</text>
</a>
</g>
</g>
<!-- Node1&#45;&gt;Node6 -->
<g id="edge5" class="edge">
<title>Node1&#45;&gt;Node6</title>
<path fill="none" stroke="midnightblue" d="M196.07,-58.25C213.38,-48.44 237.59,-35.75 260.17,-27.5 269.78,-23.99 280.32,-21 290.45,-18.53"/>
<polygon fill="midnightblue" stroke="midnightblue" points="194.14,-55.32 187.22,-63.35 197.63,-61.39 194.14,-55.32"/>
</g>
<!-- Node2 -->
<g id="node2" class="node">
<title>Node2</title>
<g id="a_node2"><a xlink:href="class_ogre_1_1_allocated_object.html" target="_top" xlink:title="Superclass for all objects that wish to use custom memory allocators when their new / delete operator...">
<polygon fill="none" stroke="black" points="0,-63.5 0,-81.5 82.14,-81.5 82.14,-63.5 0,-63.5"/>
<text text-anchor="middle" x="41.07" y="-69.5" font-family="Helvetica,sans-Serif" font-size="10.00">AnimationAlloc</text>
</a>
</g>
</g>
<!-- Node2&#45;&gt;Node1 -->
<g id="edge1" class="edge">
<title>Node2&#45;&gt;Node1</title>
<path fill="none" stroke="midnightblue" d="M92.29,-72.5C100.7,-72.5 109.44,-72.5 117.89,-72.5"/>
<polygon fill="midnightblue" stroke="midnightblue" points="92.25,-69 82.25,-72.5 92.25,-76 92.25,-69"/>
</g>
</g>
</svg>
