<?xml version="1.0" encoding="UTF-8" standalone="no"?>
<!DOCTYPE svg PUBLIC "-//W3C//DTD SVG 1.1//EN"
 "http://www.w3.org/Graphics/SVG/1.1/DTD/svg11.dtd">
<!-- Generated by graphviz version 2.43.0 (0)
 -->
<!-- Title: Ogre::PointEmitter Pages: 1 -->
<svg width="212pt" height="192pt"
 viewBox="0.00 0.00 211.98 192.00" xmlns="http://www.w3.org/2000/svg" xmlns:xlink="http://www.w3.org/1999/xlink">
<g id="graph0" class="graph" transform="scale(1 1) rotate(0) translate(4 188)">
<title>Ogre::PointEmitter</title>
<!-- Node1 -->
<g id="node1" class="node">
<title>Node1</title>
<g id="a_node1"><a xlink:title="Particle emitter which emits particles from a single point.">
<polygon fill="#bfbfbf" stroke="black" points="60.29,-0.5 60.29,-18.5 158.54,-18.5 158.54,-0.5 60.29,-0.5"/>
<text text-anchor="middle" x="109.41" y="-6.5" font-family="Helvetica,sans-Serif" font-size="10.00">Ogre::PointEmitter</text>
</a>
</g>
</g>
<!-- Node2 -->
<g id="node2" class="node">
<title>Node2</title>
<g id="a_node2"><a xlink:href="class_ogre_1_1_particle_emitter.html" target="_top" xlink:title="Abstract class defining the interface to be implemented by particle emitters.">
<polygon fill="none" stroke="black" points="55.01,-55.5 55.01,-73.5 163.81,-73.5 163.81,-55.5 55.01,-55.5"/>
<text text-anchor="middle" x="109.41" y="-61.5" font-family="Helvetica,sans-Serif" font-size="10.00">Ogre::ParticleEmitter</text>
</a>
</g>
</g>
<!-- Node2&#45;&gt;Node1 -->
<g id="edge1" class="edge">
<title>Node2&#45;&gt;Node1</title>
<path fill="none" stroke="midnightblue" d="M109.41,-45.17C109.41,-36.09 109.41,-25.59 109.41,-18.55"/>
<polygon fill="midnightblue" stroke="midnightblue" points="105.91,-45.22 109.41,-55.22 112.91,-45.22 105.91,-45.22"/>
</g>
<!-- Node3 -->
<g id="node3" class="node">
<title>Node3</title>
<g id="a_node3"><a xlink:href="class_ogre_1_1_string_interface.html" target="_top" xlink:title="Class defining the common interface which classes can use to present a reflection&#45;style,...">
<polygon fill="none" stroke="black" points="0,-110.5 0,-128.5 108.82,-128.5 108.82,-110.5 0,-110.5"/>
<text text-anchor="middle" x="54.41" y="-116.5" font-family="Helvetica,sans-Serif" font-size="10.00">Ogre::StringInterface</text>
</a>
</g>
</g>
<!-- Node3&#45;&gt;Node2 -->
<g id="edge2" class="edge">
<title>Node3&#45;&gt;Node2</title>
<path fill="none" stroke="midnightblue" d="M70.38,-103.11C80.41,-93.44 92.94,-81.37 101.06,-73.55"/>
<polygon fill="midnightblue" stroke="midnightblue" points="67.78,-100.76 63,-110.22 72.63,-105.8 67.78,-100.76"/>
</g>
<!-- Node4 -->
<g id="node4" class="node">
<title>Node4</title>
<g id="a_node4"><a xlink:href="class_ogre_1_1_particle.html" target="_top" xlink:title="Class representing a single particle instance.">
<polygon fill="none" stroke="black" points="126.84,-110.5 126.84,-128.5 203.98,-128.5 203.98,-110.5 126.84,-110.5"/>
<text text-anchor="middle" x="165.41" y="-116.5" font-family="Helvetica,sans-Serif" font-size="10.00">Ogre::Particle</text>
</a>
</g>
</g>
<!-- Node4&#45;&gt;Node2 -->
<g id="edge3" class="edge">
<title>Node4&#45;&gt;Node2</title>
<path fill="none" stroke="midnightblue" d="M149.15,-103.11C138.94,-93.44 126.18,-81.37 117.92,-73.55"/>
<polygon fill="midnightblue" stroke="midnightblue" points="146.99,-105.89 156.66,-110.22 151.8,-100.8 146.99,-105.89"/>
</g>
<!-- Node5 -->
<g id="node5" class="node">
<title>Node5</title>
<g id="a_node5"><a xlink:href="class_ogre_1_1_allocated_object.html" target="_top" xlink:title="Superclass for all objects that wish to use custom memory allocators when their new / delete operator...">
<polygon fill="none" stroke="black" points="140.18,-165.5 140.18,-183.5 190.64,-183.5 190.64,-165.5 140.18,-165.5"/>
<text text-anchor="middle" x="165.41" y="-171.5" font-family="Helvetica,sans-Serif" font-size="10.00">FXAlloc</text>
</a>
</g>
</g>
<!-- Node5&#45;&gt;Node4 -->
<g id="edge4" class="edge">
<title>Node5&#45;&gt;Node4</title>
<path fill="none" stroke="midnightblue" d="M165.41,-155.17C165.41,-146.09 165.41,-135.59 165.41,-128.55"/>
<polygon fill="midnightblue" stroke="midnightblue" points="161.91,-155.22 165.41,-165.22 168.91,-155.22 161.91,-155.22"/>
</g>
</g>
</svg>
