<?xml version="1.0" encoding="UTF-8" standalone="no"?>
<!DOCTYPE svg PUBLIC "-//W3C//DTD SVG 1.1//EN"
 "http://www.w3.org/Graphics/SVG/1.1/DTD/svg11.dtd">
<!-- Generated by graphviz version 2.43.0 (0)
 -->
<!-- Title: Ogre::v1::PanelOverlayElement Pages: 1 -->
<svg width="320pt" height="257pt"
 viewBox="0.00 0.00 320.48 257.00" xmlns="http://www.w3.org/2000/svg" xmlns:xlink="http://www.w3.org/1999/xlink">
<g id="graph0" class="graph" transform="scale(1 1) rotate(0) translate(4 253)">
<title>Ogre::v1::PanelOverlayElement</title>
<!-- Node1 -->
<g id="node1" class="node">
<title>Node1</title>
<g id="a_node1"><a xlink:title="OverlayElement representing a flat, single&#45;material (or transparent) panel which can contain other el...">
<polygon fill="#bfbfbf" stroke="black" points="96.1,-65.5 96.1,-83.5 252.72,-83.5 252.72,-65.5 96.1,-65.5"/>
<text text-anchor="middle" x="174.41" y="-71.5" font-family="Helvetica,sans-Serif" font-size="10.00">Ogre::v1::PanelOverlayElement</text>
</a>
</g>
</g>
<!-- Node7 -->
<g id="node7" class="node">
<title>Node7</title>
<g id="a_node7"><a xlink:href="class_ogre_1_1v1_1_1_border_panel_overlay_element.html" target="_top" xlink:title="A specialisation of the PanelOverlayElement to provide a panel with a border.">
<polygon fill="none" stroke="black" points="99.44,-0.5 99.44,-28.5 249.39,-28.5 249.39,-0.5 99.44,-0.5"/>
<text text-anchor="start" x="107.44" y="-16.5" font-family="Helvetica,sans-Serif" font-size="10.00">Ogre::v1::BorderPanelOverlay</text>
<text text-anchor="middle" x="174.41" y="-6.5" font-family="Helvetica,sans-Serif" font-size="10.00">Element</text>
</a>
</g>
</g>
<!-- Node1&#45;&gt;Node7 -->
<g id="edge6" class="edge">
<title>Node1&#45;&gt;Node7</title>
<path fill="none" stroke="midnightblue" d="M174.41,-55.32C174.41,-46.75 174.41,-36.7 174.41,-28.84"/>
<polygon fill="midnightblue" stroke="midnightblue" points="170.91,-55.44 174.41,-65.44 177.91,-55.44 170.91,-55.44"/>
</g>
<!-- Node2 -->
<g id="node2" class="node">
<title>Node2</title>
<g id="a_node2"><a xlink:href="class_ogre_1_1v1_1_1_overlay_container.html" target="_top" xlink:title="A 2D element which contains other OverlayElement instances.">
<polygon fill="none" stroke="black" points="105.55,-120.5 105.55,-138.5 243.27,-138.5 243.27,-120.5 105.55,-120.5"/>
<text text-anchor="middle" x="174.41" y="-126.5" font-family="Helvetica,sans-Serif" font-size="10.00">Ogre::v1::OverlayContainer</text>
</a>
</g>
</g>
<!-- Node2&#45;&gt;Node1 -->
<g id="edge1" class="edge">
<title>Node2&#45;&gt;Node1</title>
<path fill="none" stroke="midnightblue" d="M174.41,-110.17C174.41,-101.09 174.41,-90.59 174.41,-83.55"/>
<polygon fill="midnightblue" stroke="midnightblue" points="170.91,-110.22 174.41,-120.22 177.91,-110.22 170.91,-110.22"/>
</g>
<!-- Node3 -->
<g id="node3" class="node">
<title>Node3</title>
<g id="a_node3"><a xlink:href="class_ogre_1_1v1_1_1_overlay_element.html" target="_top" xlink:title="Abstract definition of a 2D element to be displayed in an Overlay.">
<polygon fill="none" stroke="black" points="108.89,-175.5 108.89,-193.5 239.93,-193.5 239.93,-175.5 108.89,-175.5"/>
<text text-anchor="middle" x="174.41" y="-181.5" font-family="Helvetica,sans-Serif" font-size="10.00">Ogre::v1::OverlayElement</text>
</a>
</g>
</g>
<!-- Node3&#45;&gt;Node2 -->
<g id="edge2" class="edge">
<title>Node3&#45;&gt;Node2</title>
<path fill="none" stroke="midnightblue" d="M174.41,-165.17C174.41,-156.09 174.41,-145.59 174.41,-138.55"/>
<polygon fill="midnightblue" stroke="midnightblue" points="170.91,-165.22 174.41,-175.22 177.91,-165.22 170.91,-165.22"/>
</g>
<!-- Node4 -->
<g id="node4" class="node">
<title>Node4</title>
<g id="a_node4"><a xlink:href="class_ogre_1_1_string_interface.html" target="_top" xlink:title="Class defining the common interface which classes can use to present a reflection&#45;style,...">
<polygon fill="none" stroke="black" points="0,-230.5 0,-248.5 108.82,-248.5 108.82,-230.5 0,-230.5"/>
<text text-anchor="middle" x="54.41" y="-236.5" font-family="Helvetica,sans-Serif" font-size="10.00">Ogre::StringInterface</text>
</a>
</g>
</g>
<!-- Node4&#45;&gt;Node3 -->
<g id="edge3" class="edge">
<title>Node4&#45;&gt;Node3</title>
<path fill="none" stroke="midnightblue" d="M82.07,-226.28C104.78,-216.25 136.3,-202.33 156.01,-193.63"/>
<polygon fill="midnightblue" stroke="midnightblue" points="80.37,-223.21 72.64,-230.45 83.2,-229.61 80.37,-223.21"/>
</g>
<!-- Node5 -->
<g id="node5" class="node">
<title>Node5</title>
<g id="a_node5"><a xlink:href="class_ogre_1_1_renderable.html" target="_top" xlink:title="Abstract class defining the interface all renderable objects must implement.">
<polygon fill="none" stroke="black" points="126.67,-230.5 126.67,-248.5 222.16,-248.5 222.16,-230.5 126.67,-230.5"/>
<text text-anchor="middle" x="174.41" y="-236.5" font-family="Helvetica,sans-Serif" font-size="10.00">Ogre::Renderable</text>
</a>
</g>
</g>
<!-- Node5&#45;&gt;Node3 -->
<g id="edge4" class="edge">
<title>Node5&#45;&gt;Node3</title>
<path fill="none" stroke="midnightblue" d="M174.41,-220.17C174.41,-211.09 174.41,-200.59 174.41,-193.55"/>
<polygon fill="midnightblue" stroke="midnightblue" points="170.91,-220.22 174.41,-230.22 177.91,-220.22 170.91,-220.22"/>
</g>
<!-- Node6 -->
<g id="node6" class="node">
<title>Node6</title>
<g id="a_node6"><a xlink:href="class_ogre_1_1_allocated_object.html" target="_top" xlink:title="Superclass for all objects that wish to use custom memory allocators when their new / delete operator...">
<polygon fill="none" stroke="black" points="240.35,-230.5 240.35,-248.5 312.48,-248.5 312.48,-230.5 240.35,-230.5"/>
<text text-anchor="middle" x="276.41" y="-236.5" font-family="Helvetica,sans-Serif" font-size="10.00">OverlayAlloc</text>
</a>
</g>
</g>
<!-- Node6&#45;&gt;Node3 -->
<g id="edge5" class="edge">
<title>Node6&#45;&gt;Node3</title>
<path fill="none" stroke="midnightblue" d="M251.85,-225.74C232.64,-215.76 206.51,-202.18 190.05,-193.63"/>
<polygon fill="midnightblue" stroke="midnightblue" points="250.43,-228.95 260.92,-230.45 253.66,-222.73 250.43,-228.95"/>
</g>
</g>
</svg>
