<?xml version="1.0" encoding="UTF-8" standalone="no"?>
<!DOCTYPE svg PUBLIC "-//W3C//DTD SVG 1.1//EN"
 "http://www.w3.org/Graphics/SVG/1.1/DTD/svg11.dtd">
<!-- Generated by graphviz version 2.43.0 (0)
 -->
<!-- Title: Ogre::SceneManager Pages: 1 -->
<svg width="451pt" height="138pt"
 viewBox="0.00 0.00 450.96 138.00" xmlns="http://www.w3.org/2000/svg" xmlns:xlink="http://www.w3.org/1999/xlink">
<g id="graph0" class="graph" transform="scale(1 1) rotate(0) translate(4 134)">
<title>Ogre::SceneManager</title>
<!-- Node1 -->
<g id="node1" class="node">
<title>Node1</title>
<g id="a_node1"><a xlink:title="Manages the organisation and rendering of a &#39;scene&#39; i.e.">
<polygon fill="#bfbfbf" stroke="black" points="152.06,-55.5 152.06,-73.5 263.67,-73.5 263.67,-55.5 152.06,-55.5"/>
<text text-anchor="middle" x="207.86" y="-61.5" font-family="Helvetica,sans-Serif" font-size="10.00">Ogre::SceneManager</text>
</a>
</g>
</g>
<!-- Node4 -->
<g id="node4" class="node">
<title>Node4</title>
<g id="a_node4"><a xlink:href="class_ogre_1_1_bsp_scene_manager.html" target="_top" xlink:title="Specialisation of the SceneManager class to deal with indoor scenes based on a BSP tree.">
<polygon fill="none" stroke="black" points="306.9,-111.5 306.9,-129.5 435.74,-129.5 435.74,-111.5 306.9,-111.5"/>
<text text-anchor="middle" x="371.32" y="-117.5" font-family="Helvetica,sans-Serif" font-size="10.00">Ogre::BspSceneManager</text>
</a>
</g>
</g>
<!-- Node1&#45;&gt;Node4 -->
<g id="edge3" class="edge">
<title>Node1&#45;&gt;Node4</title>
<path fill="none" stroke="midnightblue" d="M237.57,-77.79C255.24,-85.64 278.47,-95.41 299.67,-102.5 309.51,-105.79 320.3,-108.82 330.41,-111.42"/>
<polygon fill="midnightblue" stroke="midnightblue" points="238.94,-74.57 228.38,-73.65 236.07,-80.95 238.94,-74.57"/>
</g>
<!-- Node5 -->
<g id="node5" class="node">
<title>Node5</title>
<g id="a_node5"><a xlink:href="class_ogre_1_1_default_scene_manager.html" target="_top" xlink:title="Default scene manager.">
<polygon fill="none" stroke="black" points="299.67,-74.5 299.67,-92.5 442.96,-92.5 442.96,-74.5 299.67,-74.5"/>
<text text-anchor="middle" x="371.32" y="-80.5" font-family="Helvetica,sans-Serif" font-size="10.00">Ogre::DefaultSceneManager</text>
</a>
</g>
</g>
<!-- Node1&#45;&gt;Node5 -->
<g id="edge4" class="edge">
<title>Node1&#45;&gt;Node5</title>
<path fill="none" stroke="midnightblue" d="M274.04,-72.17C282.41,-73.16 291.01,-74.17 299.47,-75.16"/>
<polygon fill="midnightblue" stroke="midnightblue" points="274.32,-68.68 263.98,-70.99 273.5,-75.63 274.32,-68.68"/>
</g>
<!-- Node6 -->
<g id="node6" class="node">
<title>Node6</title>
<g id="a_node6"><a xlink:href="class_ogre_1_1_octree_scene_manager.html" target="_top" xlink:title="Specialized SceneManager that divides the geometry into an octree in order to facilitate spatial quer...">
<polygon fill="none" stroke="black" points="300.51,-37.5 300.51,-55.5 442.13,-55.5 442.13,-37.5 300.51,-37.5"/>
<text text-anchor="middle" x="371.32" y="-43.5" font-family="Helvetica,sans-Serif" font-size="10.00">Ogre::OctreeSceneManager</text>
</a>
</g>
</g>
<!-- Node1&#45;&gt;Node6 -->
<g id="edge5" class="edge">
<title>Node1&#45;&gt;Node6</title>
<path fill="none" stroke="midnightblue" d="M274.01,-57.24C282.67,-56.27 291.58,-55.28 300.32,-54.3"/>
<polygon fill="midnightblue" stroke="midnightblue" points="273.53,-53.77 263.98,-58.36 274.3,-60.73 273.53,-53.77"/>
</g>
<!-- Node7 -->
<g id="node7" class="node">
<title>Node7</title>
<g id="a_node7"><a xlink:href="class_ogre_1_1_p_c_z_scene_manager.html" target="_top" xlink:title="Specialized SceneManager that uses Portal&#45;Connected&#45;Zones to divide the scene spatially.">
<polygon fill="none" stroke="black" points="305.51,-0.5 305.51,-18.5 437.12,-18.5 437.12,-0.5 305.51,-0.5"/>
<text text-anchor="middle" x="371.32" y="-6.5" font-family="Helvetica,sans-Serif" font-size="10.00">Ogre::PCZSceneManager</text>
</a>
</g>
</g>
<!-- Node1&#45;&gt;Node7 -->
<g id="edge6" class="edge">
<title>Node1&#45;&gt;Node7</title>
<path fill="none" stroke="midnightblue" d="M237.95,-51.45C255.58,-43.85 278.66,-34.42 299.67,-27.5 309.65,-24.21 320.58,-21.17 330.8,-18.55"/>
<polygon fill="midnightblue" stroke="midnightblue" points="236.53,-48.26 228.76,-55.47 239.33,-54.67 236.53,-48.26"/>
</g>
<!-- Node2 -->
<g id="node2" class="node">
<title>Node2</title>
<g id="a_node2"><a xlink:href="class_ogre_1_1_allocated_object.html" target="_top" xlink:title="Superclass for all objects that wish to use custom memory allocators when their new / delete operator...">
<polygon fill="none" stroke="black" points="0,-74.5 0,-92.5 116.06,-92.5 116.06,-74.5 0,-74.5"/>
<text text-anchor="middle" x="58.03" y="-80.5" font-family="Helvetica,sans-Serif" font-size="10.00">SceneMgtAlignedAlloc</text>
</a>
</g>
</g>
<!-- Node2&#45;&gt;Node1 -->
<g id="edge1" class="edge">
<title>Node2&#45;&gt;Node1</title>
<path fill="none" stroke="midnightblue" d="M126.17,-74.87C134.75,-73.77 143.45,-72.65 151.8,-71.58"/>
<polygon fill="midnightblue" stroke="midnightblue" points="125.66,-71.41 116.19,-76.15 126.55,-78.35 125.66,-71.41"/>
</g>
<!-- Node3 -->
<g id="node3" class="node">
<title>Node3</title>
<g id="a_node3"><a xlink:href="class_ogre_1_1_id_object.html" target="_top" xlink:title=" ">
<polygon fill="none" stroke="black" points="17.51,-37.5 17.51,-55.5 98.54,-55.5 98.54,-37.5 17.51,-37.5"/>
<text text-anchor="middle" x="58.03" y="-43.5" font-family="Helvetica,sans-Serif" font-size="10.00">Ogre::IdObject</text>
</a>
</g>
</g>
<!-- Node3&#45;&gt;Node1 -->
<g id="edge2" class="edge">
<title>Node3&#45;&gt;Node1</title>
<path fill="none" stroke="midnightblue" d="M108.92,-52.57C122.72,-54.26 137.78,-56.09 151.85,-57.8"/>
<polygon fill="midnightblue" stroke="midnightblue" points="109,-49.06 98.65,-51.32 108.15,-56.01 109,-49.06"/>
</g>
</g>
</svg>
