<?xml version="1.0" encoding="UTF-8" standalone="no"?>
<!DOCTYPE svg PUBLIC "-//W3C//DTD SVG 1.1//EN"
 "http://www.w3.org/Graphics/SVG/1.1/DTD/svg11.dtd">
<!-- Generated by graphviz version 2.43.0 (0)
 -->
<!-- Title: Ogre::CompositorTextureBaseTranslator Pages: 1 -->
<svg width="652pt" height="121pt"
 viewBox="0.00 0.00 651.86 121.00" xmlns="http://www.w3.org/2000/svg" xmlns:xlink="http://www.w3.org/1999/xlink">
<g id="graph0" class="graph" transform="scale(1 1) rotate(0) translate(4 117)">
<title>Ogre::CompositorTextureBaseTranslator</title>
<!-- Node1 -->
<g id="node1" class="node">
<title>Node1</title>
<g id="a_node1"><a xlink:title=" ">
<polygon fill="#bfbfbf" stroke="black" points="293.88,-47.5 293.88,-75.5 444.38,-75.5 444.38,-47.5 293.88,-47.5"/>
<text text-anchor="start" x="301.88" y="-63.5" font-family="Helvetica,sans-Serif" font-size="10.00">Ogre::CompositorTextureBase</text>
<text text-anchor="middle" x="369.13" y="-53.5" font-family="Helvetica,sans-Serif" font-size="10.00">Translator</text>
</a>
</g>
</g>
<!-- Node4 -->
<g id="node4" class="node">
<title>Node4</title>
<g id="a_node4"><a xlink:href="class_ogre_1_1_compositor_node_translator.html" target="_top" xlink:title=" ">
<polygon fill="none" stroke="black" points="480.38,-94.5 480.38,-112.5 643.86,-112.5 643.86,-94.5 480.38,-94.5"/>
<text text-anchor="middle" x="562.12" y="-100.5" font-family="Helvetica,sans-Serif" font-size="10.00">Ogre::CompositorNodeTranslator</text>
</a>
</g>
</g>
<!-- Node1&#45;&gt;Node4 -->
<g id="edge3" class="edge">
<title>Node1&#45;&gt;Node4</title>
<path fill="none" stroke="midnightblue" d="M443.8,-77.7C469.7,-83.4 497.87,-89.59 520.11,-94.48"/>
<polygon fill="midnightblue" stroke="midnightblue" points="444.51,-74.27 433.99,-75.54 443.01,-81.11 444.51,-74.27"/>
</g>
<!-- Node5 -->
<g id="node5" class="node">
<title>Node5</title>
<g id="a_node5"><a xlink:href="class_ogre_1_1_compositor_shadow_node_translator.html" target="_top" xlink:title=" ">
<polygon fill="none" stroke="black" points="484.64,-47.5 484.64,-75.5 639.6,-75.5 639.6,-47.5 484.64,-47.5"/>
<text text-anchor="start" x="492.64" y="-63.5" font-family="Helvetica,sans-Serif" font-size="10.00">Ogre::CompositorShadowNode</text>
<text text-anchor="middle" x="562.12" y="-53.5" font-family="Helvetica,sans-Serif" font-size="10.00">Translator</text>
</a>
</g>
</g>
<!-- Node1&#45;&gt;Node5 -->
<g id="edge4" class="edge">
<title>Node1&#45;&gt;Node5</title>
<path fill="none" stroke="midnightblue" d="M454.74,-61.5C464.62,-61.5 474.65,-61.5 484.42,-61.5"/>
<polygon fill="midnightblue" stroke="midnightblue" points="454.52,-58 444.52,-61.5 454.52,-65 454.52,-58"/>
</g>
<!-- Node6 -->
<g id="node6" class="node">
<title>Node6</title>
<g id="a_node6"><a xlink:href="class_ogre_1_1_compositor_workspace_translator.html" target="_top" xlink:title=" ">
<polygon fill="none" stroke="black" points="489.74,-0.5 489.74,-28.5 634.5,-28.5 634.5,-0.5 489.74,-0.5"/>
<text text-anchor="start" x="497.74" y="-16.5" font-family="Helvetica,sans-Serif" font-size="10.00">Ogre::CompositorWorkspace</text>
<text text-anchor="middle" x="562.12" y="-6.5" font-family="Helvetica,sans-Serif" font-size="10.00">Translator</text>
</a>
</g>
</g>
<!-- Node1&#45;&gt;Node6 -->
<g id="edge5" class="edge">
<title>Node1&#45;&gt;Node6</title>
<path fill="none" stroke="midnightblue" d="M437.05,-45.03C458.91,-39.65 482.97,-33.73 504.04,-28.55"/>
<polygon fill="midnightblue" stroke="midnightblue" points="436.05,-41.67 427.18,-47.46 437.72,-48.47 436.05,-41.67"/>
</g>
<!-- Node2 -->
<g id="node2" class="node">
<title>Node2</title>
<g id="a_node2"><a xlink:href="class_ogre_1_1_script_translator.html" target="_top" xlink:title="This class translates script AST (abstract syntax tree) into Ogre resources.">
<polygon fill="none" stroke="black" points="143.88,-52.5 143.88,-70.5 257.88,-70.5 257.88,-52.5 143.88,-52.5"/>
<text text-anchor="middle" x="200.88" y="-58.5" font-family="Helvetica,sans-Serif" font-size="10.00">Ogre::ScriptTranslator</text>
</a>
</g>
</g>
<!-- Node2&#45;&gt;Node1 -->
<g id="edge1" class="edge">
<title>Node2&#45;&gt;Node1</title>
<path fill="none" stroke="midnightblue" d="M268.22,-61.5C276.57,-61.5 285.16,-61.5 293.63,-61.5"/>
<polygon fill="midnightblue" stroke="midnightblue" points="268.17,-58 258.17,-61.5 268.17,-65 268.17,-58"/>
</g>
<!-- Node3 -->
<g id="node3" class="node">
<title>Node3</title>
<g id="a_node3"><a xlink:href="class_ogre_1_1_allocated_object.html" target="_top" xlink:title="Superclass for all objects that wish to use custom memory allocators when their new / delete operator...">
<polygon fill="none" stroke="black" points="0,-52.5 0,-70.5 107.88,-70.5 107.88,-52.5 0,-52.5"/>
<text text-anchor="middle" x="53.94" y="-58.5" font-family="Helvetica,sans-Serif" font-size="10.00">ScriptTranslatorAlloc</text>
</a>
</g>
</g>
<!-- Node3&#45;&gt;Node2 -->
<g id="edge2" class="edge">
<title>Node3&#45;&gt;Node2</title>
<path fill="none" stroke="midnightblue" d="M118.33,-61.5C126.81,-61.5 135.47,-61.5 143.82,-61.5"/>
<polygon fill="midnightblue" stroke="midnightblue" points="118.09,-58 108.09,-61.5 118.09,-65 118.09,-58"/>
</g>
</g>
</svg>
