<?xml version="1.0" encoding="UTF-8" standalone="no"?>
<!DOCTYPE svg PUBLIC "-//W3C//DTD SVG 1.1//EN"
 "http://www.w3.org/Graphics/SVG/1.1/DTD/svg11.dtd">
<!-- Generated by graphviz version 2.43.0 (0)
 -->
<!-- Title: Ogre::UnifiedHighLevelGpuProgram Pages: 1 -->
<svg width="216pt" height="257pt"
 viewBox="0.00 0.00 215.65 257.00" xmlns="http://www.w3.org/2000/svg" xmlns:xlink="http://www.w3.org/1999/xlink">
<g id="graph0" class="graph" transform="scale(1 1) rotate(0) translate(4 253)">
<title>Ogre::UnifiedHighLevelGpuProgram</title>
<!-- Node1 -->
<g id="node1" class="node">
<title>Node1</title>
<g id="a_node1"><a xlink:title="Specialisation of HighLevelGpuProgram which just delegates its implementation to one other high level...">
<polygon fill="#bfbfbf" stroke="black" points="41.27,-0.5 41.27,-28.5 179.56,-28.5 179.56,-0.5 41.27,-0.5"/>
<text text-anchor="start" x="49.27" y="-16.5" font-family="Helvetica,sans-Serif" font-size="10.00">Ogre::UnifiedHighLevelGpu</text>
<text text-anchor="middle" x="110.41" y="-6.5" font-family="Helvetica,sans-Serif" font-size="10.00">Program</text>
</a>
</g>
</g>
<!-- Node2 -->
<g id="node2" class="node">
<title>Node2</title>
<g id="a_node2"><a xlink:href="class_ogre_1_1_high_level_gpu_program.html" target="_top" xlink:title="Abstract base class representing a high&#45;level program (a vertex or fragment program).">
<polygon fill="none" stroke="black" points="37.66,-65.5 37.66,-83.5 183.16,-83.5 183.16,-65.5 37.66,-65.5"/>
<text text-anchor="middle" x="110.41" y="-71.5" font-family="Helvetica,sans-Serif" font-size="10.00">Ogre::HighLevelGpuProgram</text>
</a>
</g>
</g>
<!-- Node2&#45;&gt;Node1 -->
<g id="edge1" class="edge">
<title>Node2&#45;&gt;Node1</title>
<path fill="none" stroke="midnightblue" d="M110.41,-55.32C110.41,-46.75 110.41,-36.7 110.41,-28.84"/>
<polygon fill="midnightblue" stroke="midnightblue" points="106.91,-55.44 110.41,-65.44 113.91,-55.44 106.91,-55.44"/>
</g>
<!-- Node3 -->
<g id="node3" class="node">
<title>Node3</title>
<g id="a_node3"><a xlink:href="class_ogre_1_1_gpu_program.html" target="_top" xlink:title="Defines a program which runs on the GPU such as a vertex or fragment program.">
<polygon fill="none" stroke="black" points="59.89,-120.5 59.89,-138.5 160.93,-138.5 160.93,-120.5 59.89,-120.5"/>
<text text-anchor="middle" x="110.41" y="-126.5" font-family="Helvetica,sans-Serif" font-size="10.00">Ogre::GpuProgram</text>
</a>
</g>
</g>
<!-- Node3&#45;&gt;Node2 -->
<g id="edge2" class="edge">
<title>Node3&#45;&gt;Node2</title>
<path fill="none" stroke="midnightblue" d="M110.41,-110.17C110.41,-101.09 110.41,-90.59 110.41,-83.55"/>
<polygon fill="midnightblue" stroke="midnightblue" points="106.91,-110.22 110.41,-120.22 113.91,-110.22 106.91,-110.22"/>
</g>
<!-- Node4 -->
<g id="node4" class="node">
<title>Node4</title>
<g id="a_node4"><a xlink:href="class_ogre_1_1_resource.html" target="_top" xlink:title="Abstract class representing a loadable resource (e.g.">
<polygon fill="none" stroke="black" points="67.12,-175.5 67.12,-193.5 153.7,-193.5 153.7,-175.5 67.12,-175.5"/>
<text text-anchor="middle" x="110.41" y="-181.5" font-family="Helvetica,sans-Serif" font-size="10.00">Ogre::Resource</text>
</a>
</g>
</g>
<!-- Node4&#45;&gt;Node3 -->
<g id="edge3" class="edge">
<title>Node4&#45;&gt;Node3</title>
<path fill="none" stroke="midnightblue" d="M110.41,-165.17C110.41,-156.09 110.41,-145.59 110.41,-138.55"/>
<polygon fill="midnightblue" stroke="midnightblue" points="106.91,-165.22 110.41,-175.22 113.91,-165.22 106.91,-165.22"/>
</g>
<!-- Node5 -->
<g id="node5" class="node">
<title>Node5</title>
<g id="a_node5"><a xlink:href="class_ogre_1_1_string_interface.html" target="_top" xlink:title="Class defining the common interface which classes can use to present a reflection&#45;style,...">
<polygon fill="none" stroke="black" points="0,-230.5 0,-248.5 108.82,-248.5 108.82,-230.5 0,-230.5"/>
<text text-anchor="middle" x="54.41" y="-236.5" font-family="Helvetica,sans-Serif" font-size="10.00">Ogre::StringInterface</text>
</a>
</g>
</g>
<!-- Node5&#45;&gt;Node4 -->
<g id="edge4" class="edge">
<title>Node5&#45;&gt;Node4</title>
<path fill="none" stroke="midnightblue" d="M70.67,-223.11C80.89,-213.44 93.64,-201.37 101.91,-193.55"/>
<polygon fill="midnightblue" stroke="midnightblue" points="68.02,-220.8 63.16,-230.22 72.83,-225.89 68.02,-220.8"/>
</g>
<!-- Node6 -->
<g id="node6" class="node">
<title>Node6</title>
<g id="a_node6"><a xlink:href="class_ogre_1_1_allocated_object.html" target="_top" xlink:title="Superclass for all objects that wish to use custom memory allocators when their new / delete operator...">
<polygon fill="none" stroke="black" points="127.17,-230.5 127.17,-248.5 207.65,-248.5 207.65,-230.5 127.17,-230.5"/>
<text text-anchor="middle" x="167.41" y="-236.5" font-family="Helvetica,sans-Serif" font-size="10.00">ResourceAlloc</text>
</a>
</g>
</g>
<!-- Node6&#45;&gt;Node4 -->
<g id="edge5" class="edge">
<title>Node6&#45;&gt;Node4</title>
<path fill="none" stroke="midnightblue" d="M151.17,-223.4C140.72,-213.68 127.56,-201.45 119.07,-193.55"/>
<polygon fill="midnightblue" stroke="midnightblue" points="148.8,-225.97 158.5,-230.22 153.56,-220.85 148.8,-225.97"/>
</g>
</g>
</svg>
