<?xml version="1.0" encoding="UTF-8" standalone="no"?>
<!DOCTYPE svg PUBLIC "-//W3C//DTD SVG 1.1//EN"
 "http://www.w3.org/Graphics/SVG/1.1/DTD/svg11.dtd">
<!-- Generated by graphviz version 2.43.0 (0)
 -->
<!-- Title: Ogre::StagingBuffer Pages: 1 -->
<svg width="425pt" height="175pt"
 viewBox="0.00 0.00 424.87 175.00" xmlns="http://www.w3.org/2000/svg" xmlns:xlink="http://www.w3.org/1999/xlink">
<g id="graph0" class="graph" transform="scale(1 1) rotate(0) translate(4 171)">
<title>Ogre::StagingBuffer</title>
<!-- Node1 -->
<g id="node1" class="node">
<title>Node1</title>
<g id="a_node1"><a xlink:title="A staging buffer is a buffer that resides on the GPU and be written to/from both CPU &amp; GPU However th...">
<polygon fill="#bfbfbf" stroke="black" points="134.09,-74.5 134.09,-92.5 238.3,-92.5 238.3,-74.5 134.09,-74.5"/>
<text text-anchor="middle" x="186.2" y="-80.5" font-family="Helvetica,sans-Serif" font-size="10.00">Ogre::StagingBuffer</text>
</a>
</g>
</g>
<!-- Node3 -->
<g id="node3" class="node">
<title>Node3</title>
<g id="a_node3"><a xlink:href="class_ogre_1_1_d3_d11_staging_buffer.html" target="_top" xlink:title="NOTE FOR D3D12 PORTING: The GL3Plus implementation should be used as reference, since it is much lowe...">
<polygon fill="none" stroke="black" points="278.28,-148.5 278.28,-166.5 412.88,-166.5 412.88,-148.5 278.28,-148.5"/>
<text text-anchor="middle" x="345.58" y="-154.5" font-family="Helvetica,sans-Serif" font-size="10.00">Ogre::D3D11StagingBuffer</text>
</a>
</g>
</g>
<!-- Node1&#45;&gt;Node3 -->
<g id="edge2" class="edge">
<title>Node1&#45;&gt;Node3</title>
<path fill="none" stroke="midnightblue" d="M206.67,-98.63C223.68,-111.18 249.46,-128.67 274.3,-139.5 282.5,-143.07 291.56,-146.05 300.37,-148.48"/>
<polygon fill="midnightblue" stroke="midnightblue" points="208.72,-95.79 198.63,-92.57 204.51,-101.39 208.72,-95.79"/>
</g>
<!-- Node4 -->
<g id="node4" class="node">
<title>Node4</title>
<g id="a_node4"><a xlink:href="class_ogre_1_1_g_l3_plus_staging_buffer.html" target="_top" xlink:title="A staging buffer is a buffer that resides on the GPU and be written to/from both CPU &amp; GPU However th...">
<polygon fill="none" stroke="black" points="274.3,-111.5 274.3,-129.5 416.87,-129.5 416.87,-111.5 274.3,-111.5"/>
<text text-anchor="middle" x="345.58" y="-117.5" font-family="Helvetica,sans-Serif" font-size="10.00">Ogre::GL3PlusStagingBuffer</text>
</a>
</g>
</g>
<!-- Node1&#45;&gt;Node4 -->
<g id="edge3" class="edge">
<title>Node1&#45;&gt;Node4</title>
<path fill="none" stroke="midnightblue" d="M235.49,-94.85C258.2,-100.19 284.91,-106.47 306.21,-111.48"/>
<polygon fill="midnightblue" stroke="midnightblue" points="236.24,-91.43 225.7,-92.55 234.63,-98.25 236.24,-91.43"/>
</g>
<!-- Node5 -->
<g id="node5" class="node">
<title>Node5</title>
<g id="a_node5"><a xlink:href="class_ogre_1_1_g_l_e_s2_staging_buffer.html" target="_top" xlink:title="A staging buffer is a buffer that resides on the GPU and be written to/from both CPU &amp; GPU However th...">
<polygon fill="none" stroke="black" points="277.36,-74.5 277.36,-92.5 413.81,-92.5 413.81,-74.5 277.36,-74.5"/>
<text text-anchor="middle" x="345.58" y="-80.5" font-family="Helvetica,sans-Serif" font-size="10.00">Ogre::GLES2StagingBuffer</text>
</a>
</g>
</g>
<!-- Node1&#45;&gt;Node5 -->
<g id="edge4" class="edge">
<title>Node1&#45;&gt;Node5</title>
<path fill="none" stroke="midnightblue" d="M249,-83.5C258.25,-83.5 267.82,-83.5 277.18,-83.5"/>
<polygon fill="midnightblue" stroke="midnightblue" points="248.73,-80 238.73,-83.5 248.73,-87 248.73,-80"/>
</g>
<!-- Node6 -->
<g id="node6" class="node">
<title>Node6</title>
<g id="a_node6"><a xlink:href="class_ogre_1_1_metal_staging_buffer.html" target="_top" xlink:title="A staging buffer is a buffer that resides on the GPU and be written to/from both CPU &amp; GPU However th...">
<polygon fill="none" stroke="black" points="281.25,-37.5 281.25,-55.5 409.91,-55.5 409.91,-37.5 281.25,-37.5"/>
<text text-anchor="middle" x="345.58" y="-43.5" font-family="Helvetica,sans-Serif" font-size="10.00">Ogre::MetalStagingBuffer</text>
</a>
</g>
</g>
<!-- Node1&#45;&gt;Node6 -->
<g id="edge5" class="edge">
<title>Node1&#45;&gt;Node6</title>
<path fill="none" stroke="midnightblue" d="M235.49,-72.15C258.2,-66.81 284.91,-60.53 306.21,-55.52"/>
<polygon fill="midnightblue" stroke="midnightblue" points="234.63,-68.75 225.7,-74.45 236.24,-75.57 234.63,-68.75"/>
</g>
<!-- Node7 -->
<g id="node7" class="node">
<title>Node7</title>
<g id="a_node7"><a xlink:href="class_ogre_1_1_n_u_l_l_staging_buffer.html" target="_top" xlink:title="A staging buffer is a buffer that resides on the GPU and be written to/from both CPU &amp; GPU However th...">
<polygon fill="none" stroke="black" points="280.7,-0.5 280.7,-18.5 410.47,-18.5 410.47,-0.5 280.7,-0.5"/>
<text text-anchor="middle" x="345.58" y="-6.5" font-family="Helvetica,sans-Serif" font-size="10.00">Ogre::NULLStagingBuffer</text>
</a>
</g>
</g>
<!-- Node1&#45;&gt;Node7 -->
<g id="edge6" class="edge">
<title>Node1&#45;&gt;Node7</title>
<path fill="none" stroke="midnightblue" d="M206.67,-68.37C223.68,-55.82 249.46,-38.33 274.3,-27.5 282.5,-23.93 291.56,-20.95 300.37,-18.52"/>
<polygon fill="midnightblue" stroke="midnightblue" points="204.51,-65.61 198.63,-74.43 208.72,-71.21 204.51,-65.61"/>
</g>
<!-- Node2 -->
<g id="node2" class="node">
<title>Node2</title>
<g id="a_node2"><a xlink:href="class_ogre_1_1_allocated_object.html" target="_top" xlink:title="Superclass for all objects that wish to use custom memory allocators when their new / delete operator...">
<polygon fill="none" stroke="black" points="0,-74.5 0,-92.5 98.09,-92.5 98.09,-74.5 0,-74.5"/>
<text text-anchor="middle" x="49.05" y="-80.5" font-family="Helvetica,sans-Serif" font-size="10.00">StagingBufferAlloc</text>
</a>
</g>
</g>
<!-- Node2&#45;&gt;Node1 -->
<g id="edge1" class="edge">
<title>Node2&#45;&gt;Node1</title>
<path fill="none" stroke="midnightblue" d="M108.61,-83.5C117.04,-83.5 125.66,-83.5 133.93,-83.5"/>
<polygon fill="midnightblue" stroke="midnightblue" points="108.46,-80 98.46,-83.5 108.46,-87 108.46,-80"/>
</g>
</g>
</svg>
