<?xml version="1.0" encoding="UTF-8" standalone="no"?>
<!DOCTYPE svg PUBLIC "-//W3C//DTD SVG 1.1//EN"
 "http://www.w3.org/Graphics/SVG/1.1/DTD/svg11.dtd">
<!-- Generated by graphviz version 2.43.0 (0)
 -->
<!-- Title: Ogre::v1::DefaultHardwareCounterBuffer Pages: 1 -->
<svg width="147pt" height="212pt"
 viewBox="0.00 0.00 146.83 212.00" xmlns="http://www.w3.org/2000/svg" xmlns:xlink="http://www.w3.org/1999/xlink">
<g id="graph0" class="graph" transform="scale(1 1) rotate(0) translate(4 208)">
<title>Ogre::v1::DefaultHardwareCounterBuffer</title>
<!-- Node1 -->
<g id="node1" class="node">
<title>Node1</title>
<g id="a_node1"><a xlink:title="Specialisation of HardwareCounterBuffer for emulation.">
<polygon fill="#bfbfbf" stroke="black" points="1.95,-0.5 1.95,-28.5 136.89,-28.5 136.89,-0.5 1.95,-0.5"/>
<text text-anchor="start" x="9.95" y="-16.5" font-family="Helvetica,sans-Serif" font-size="10.00">Ogre::v1::DefaultHardware</text>
<text text-anchor="middle" x="69.42" y="-6.5" font-family="Helvetica,sans-Serif" font-size="10.00">CounterBuffer</text>
</a>
</g>
</g>
<!-- Node2 -->
<g id="node2" class="node">
<title>Node2</title>
<g id="a_node2"><a xlink:href="class_ogre_1_1v1_1_1_hardware_counter_buffer.html" target="_top" xlink:title="Specialisation of HardwareBuffer for a counter buffer.">
<polygon fill="none" stroke="black" points="0,-65.5 0,-93.5 138.83,-93.5 138.83,-65.5 0,-65.5"/>
<text text-anchor="start" x="8" y="-81.5" font-family="Helvetica,sans-Serif" font-size="10.00">Ogre::v1::HardwareCounter</text>
<text text-anchor="middle" x="69.42" y="-71.5" font-family="Helvetica,sans-Serif" font-size="10.00">Buffer</text>
</a>
</g>
</g>
<!-- Node2&#45;&gt;Node1 -->
<g id="edge1" class="edge">
<title>Node2&#45;&gt;Node1</title>
<path fill="none" stroke="midnightblue" d="M69.42,-55.16C69.42,-46.17 69.42,-36.22 69.42,-28.54"/>
<polygon fill="midnightblue" stroke="midnightblue" points="65.92,-55.45 69.42,-65.45 72.92,-55.45 65.92,-55.45"/>
</g>
<!-- Node3 -->
<g id="node3" class="node">
<title>Node3</title>
<g id="a_node3"><a xlink:href="class_ogre_1_1v1_1_1_hardware_buffer.html" target="_top" xlink:title="Abstract class defining common features of hardware buffers.">
<polygon fill="none" stroke="black" points="4.54,-130.5 4.54,-148.5 134.3,-148.5 134.3,-130.5 4.54,-130.5"/>
<text text-anchor="middle" x="69.42" y="-136.5" font-family="Helvetica,sans-Serif" font-size="10.00">Ogre::v1::HardwareBuffer</text>
</a>
</g>
</g>
<!-- Node3&#45;&gt;Node2 -->
<g id="edge2" class="edge">
<title>Node3&#45;&gt;Node2</title>
<path fill="none" stroke="midnightblue" d="M69.42,-120.32C69.42,-111.75 69.42,-101.7 69.42,-93.84"/>
<polygon fill="midnightblue" stroke="midnightblue" points="65.92,-120.44 69.42,-130.44 72.92,-120.44 65.92,-120.44"/>
</g>
<!-- Node4 -->
<g id="node4" class="node">
<title>Node4</title>
<g id="a_node4"><a xlink:href="class_ogre_1_1_allocated_object.html" target="_top" xlink:title="Superclass for all objects that wish to use custom memory allocators when their new / delete operator...">
<polygon fill="none" stroke="black" points="37.33,-185.5 37.33,-203.5 101.51,-203.5 101.51,-185.5 37.33,-185.5"/>
<text text-anchor="middle" x="69.42" y="-191.5" font-family="Helvetica,sans-Serif" font-size="10.00">BufferAlloc</text>
</a>
</g>
</g>
<!-- Node4&#45;&gt;Node3 -->
<g id="edge3" class="edge">
<title>Node4&#45;&gt;Node3</title>
<path fill="none" stroke="midnightblue" d="M69.42,-175.17C69.42,-166.09 69.42,-155.59 69.42,-148.55"/>
<polygon fill="midnightblue" stroke="midnightblue" points="65.92,-175.22 69.42,-185.22 72.92,-175.22 65.92,-175.22"/>
</g>
</g>
</svg>
