<?xml version="1.0" encoding="UTF-8" standalone="no"?>
<!DOCTYPE svg PUBLIC "-//W3C//DTD SVG 1.1//EN"
 "http://www.w3.org/Graphics/SVG/1.1/DTD/svg11.dtd">
<!-- Generated by graphviz version 2.43.0 (0)
 -->
<!-- Title: Ogre::RTShader::HLSLProgramWriter Pages: 1 -->
<svg width="168pt" height="147pt"
 viewBox="0.00 0.00 167.57 147.00" xmlns="http://www.w3.org/2000/svg" xmlns:xlink="http://www.w3.org/1999/xlink">
<g id="graph0" class="graph" transform="scale(1 1) rotate(0) translate(4 143)">
<title>Ogre::RTShader::HLSLProgramWriter</title>
<!-- Node1 -->
<g id="node1" class="node">
<title>Node1</title>
<g id="a_node1"><a xlink:title="HLSL target language writer implementation.">
<polygon fill="#bfbfbf" stroke="black" points="0.73,-0.5 0.73,-28.5 158.84,-28.5 158.84,-0.5 0.73,-0.5"/>
<text text-anchor="start" x="8.73" y="-16.5" font-family="Helvetica,sans-Serif" font-size="10.00">Ogre::RTShader::HLSLProgram</text>
<text text-anchor="middle" x="79.79" y="-6.5" font-family="Helvetica,sans-Serif" font-size="10.00">Writer</text>
</a>
</g>
</g>
<!-- Node2 -->
<g id="node2" class="node">
<title>Node2</title>
<g id="a_node2"><a xlink:href="class_ogre_1_1_r_t_shader_1_1_program_writer.html" target="_top" xlink:title="Base class interface for shader program writers.">
<polygon fill="none" stroke="black" points="0,-65.5 0,-83.5 159.57,-83.5 159.57,-65.5 0,-65.5"/>
<text text-anchor="middle" x="79.79" y="-71.5" font-family="Helvetica,sans-Serif" font-size="10.00">Ogre::RTShader::ProgramWriter</text>
</a>
</g>
</g>
<!-- Node2&#45;&gt;Node1 -->
<g id="edge1" class="edge">
<title>Node2&#45;&gt;Node1</title>
<path fill="none" stroke="midnightblue" d="M79.79,-55.32C79.79,-46.75 79.79,-36.7 79.79,-28.84"/>
<polygon fill="midnightblue" stroke="midnightblue" points="76.29,-55.44 79.79,-65.44 83.29,-55.44 76.29,-55.44"/>
</g>
<!-- Node3 -->
<g id="node3" class="node">
<title>Node3</title>
<g id="a_node3"><a xlink:href="class_ogre_1_1_allocated_object.html" target="_top" xlink:title="Superclass for all objects that wish to use custom memory allocators when their new / delete operator...">
<polygon fill="none" stroke="black" points="21.58,-120.5 21.58,-138.5 137.99,-138.5 137.99,-120.5 21.58,-120.5"/>
<text text-anchor="middle" x="79.79" y="-126.5" font-family="Helvetica,sans-Serif" font-size="10.00">RTShaderSystemAlloc</text>
</a>
</g>
</g>
<!-- Node3&#45;&gt;Node2 -->
<g id="edge2" class="edge">
<title>Node3&#45;&gt;Node2</title>
<path fill="none" stroke="midnightblue" d="M79.79,-110.17C79.79,-101.09 79.79,-90.59 79.79,-83.55"/>
<polygon fill="midnightblue" stroke="midnightblue" points="76.29,-110.22 79.79,-120.22 83.29,-110.22 76.29,-110.22"/>
</g>
</g>
</svg>
