<?xml version="1.0" encoding="UTF-8" standalone="no"?>
<!DOCTYPE svg PUBLIC "-//W3C//DTD SVG 1.1//EN"
 "http://www.w3.org/Graphics/SVG/1.1/DTD/svg11.dtd">
<!-- Generated by graphviz version 2.43.0 (0)
 -->
<!-- Title: Ogre::CompositorPassDef Pages: 1 -->
<svg width="491pt" height="296pt"
 viewBox="0.00 0.00 490.92 296.00" xmlns="http://www.w3.org/2000/svg" xmlns:xlink="http://www.w3.org/1999/xlink">
<g id="graph0" class="graph" transform="scale(1 1) rotate(0) translate(4 292)">
<title>Ogre::CompositorPassDef</title>
<!-- Node1 -->
<g id="node1" class="node">
<title>Node1</title>
<g id="a_node1"><a xlink:title="Interface to abstract all types of pass definitions (.">
<polygon fill="#bfbfbf" stroke="black" points="140.92,-129.5 140.92,-147.5 273.63,-147.5 273.63,-129.5 140.92,-129.5"/>
<text text-anchor="middle" x="207.28" y="-135.5" font-family="Helvetica,sans-Serif" font-size="10.00">Ogre::CompositorPassDef</text>
</a>
</g>
</g>
<!-- Node3 -->
<g id="node3" class="node">
<title>Node3</title>
<g id="a_node3"><a xlink:href="class_ogre_1_1_compositor_pass_clear_def.html" target="_top" xlink:title=" ">
<polygon fill="none" stroke="black" points="317.97,-269.5 317.97,-287.5 474.58,-287.5 474.58,-269.5 317.97,-269.5"/>
<text text-anchor="middle" x="396.27" y="-275.5" font-family="Helvetica,sans-Serif" font-size="10.00">Ogre::CompositorPassClearDef</text>
</a>
</g>
</g>
<!-- Node1&#45;&gt;Node3 -->
<g id="edge2" class="edge">
<title>Node1&#45;&gt;Node3</title>
<path fill="none" stroke="midnightblue" d="M217.88,-156.45C233.38,-183.56 266.57,-234.55 309.63,-260.5 315.75,-264.19 322.5,-267.13 329.46,-269.47"/>
<polygon fill="midnightblue" stroke="midnightblue" points="220.9,-154.67 212.98,-147.63 214.78,-158.07 220.9,-154.67"/>
</g>
<!-- Node4 -->
<g id="node4" class="node">
<title>Node4</title>
<g id="a_node4"><a xlink:href="class_ogre_1_1_compositor_pass_compute_def.html" target="_top" xlink:title=" ">
<polygon fill="none" stroke="black" points="309.63,-232.5 309.63,-250.5 482.92,-250.5 482.92,-232.5 309.63,-232.5"/>
<text text-anchor="middle" x="396.27" y="-238.5" font-family="Helvetica,sans-Serif" font-size="10.00">Ogre::CompositorPassComputeDef</text>
</a>
</g>
</g>
<!-- Node1&#45;&gt;Node4 -->
<g id="edge3" class="edge">
<title>Node1&#45;&gt;Node4</title>
<path fill="none" stroke="midnightblue" d="M223.1,-155.14C241.44,-174.64 274.57,-206.46 309.63,-223.5 317.15,-227.15 325.38,-230.07 333.69,-232.39"/>
<polygon fill="midnightblue" stroke="midnightblue" points="225.52,-152.61 216.18,-147.61 220.37,-157.34 225.52,-152.61"/>
</g>
<!-- Node5 -->
<g id="node5" class="node">
<title>Node5</title>
<g id="a_node5"><a xlink:href="class_ogre_1_1_compositor_pass_depth_copy_def.html" target="_top" xlink:title=" ">
<polygon fill="none" stroke="black" points="324.36,-185.5 324.36,-213.5 468.19,-213.5 468.19,-185.5 324.36,-185.5"/>
<text text-anchor="start" x="332.36" y="-201.5" font-family="Helvetica,sans-Serif" font-size="10.00">Ogre::CompositorPassDepth</text>
<text text-anchor="middle" x="396.27" y="-191.5" font-family="Helvetica,sans-Serif" font-size="10.00">CopyDef</text>
</a>
</g>
</g>
<!-- Node1&#45;&gt;Node5 -->
<g id="edge4" class="edge">
<title>Node1&#45;&gt;Node5</title>
<path fill="none" stroke="midnightblue" d="M240.07,-151.32C259.9,-159.09 286.06,-168.93 309.63,-176.5 319.3,-179.6 329.68,-182.64 339.76,-185.43"/>
<polygon fill="midnightblue" stroke="midnightblue" points="241.19,-148 230.6,-147.58 238.61,-154.51 241.19,-148"/>
</g>
<!-- Node6 -->
<g id="node6" class="node">
<title>Node6</title>
<g id="a_node6"><a xlink:href="class_ogre_1_1_compositor_pass_mipmap_def.html" target="_top" xlink:title=" ">
<polygon fill="none" stroke="black" points="312.13,-148.5 312.13,-166.5 480.41,-166.5 480.41,-148.5 312.13,-148.5"/>
<text text-anchor="middle" x="396.27" y="-154.5" font-family="Helvetica,sans-Serif" font-size="10.00">Ogre::CompositorPassMipmapDef</text>
</a>
</g>
</g>
<!-- Node1&#45;&gt;Node6 -->
<g id="edge5" class="edge">
<title>Node1&#45;&gt;Node6</title>
<path fill="none" stroke="midnightblue" d="M283.63,-146.16C292.91,-147.1 302.44,-148.07 311.83,-149.02"/>
<polygon fill="midnightblue" stroke="midnightblue" points="283.98,-142.67 273.68,-145.15 283.27,-149.64 283.98,-142.67"/>
</g>
<!-- Node7 -->
<g id="node7" class="node">
<title>Node7</title>
<g id="a_node7"><a xlink:href="class_ogre_1_1_compositor_pass_quad_def.html" target="_top" xlink:title=" ">
<polygon fill="none" stroke="black" points="317.69,-111.5 317.69,-129.5 474.86,-129.5 474.86,-111.5 317.69,-111.5"/>
<text text-anchor="middle" x="396.27" y="-117.5" font-family="Helvetica,sans-Serif" font-size="10.00">Ogre::CompositorPassQuadDef</text>
</a>
</g>
</g>
<!-- Node1&#45;&gt;Node7 -->
<g id="edge6" class="edge">
<title>Node1&#45;&gt;Node7</title>
<path fill="none" stroke="midnightblue" d="M283.74,-131.24C294.82,-130.17 306.25,-129.07 317.38,-128"/>
<polygon fill="midnightblue" stroke="midnightblue" points="283.3,-127.76 273.68,-132.2 283.97,-134.73 283.3,-127.76"/>
</g>
<!-- Node8 -->
<g id="node8" class="node">
<title>Node8</title>
<g id="a_node8"><a xlink:href="class_ogre_1_1_compositor_pass_scene_def.html" target="_top" xlink:title=" ">
<polygon fill="none" stroke="black" points="315.74,-74.5 315.74,-92.5 476.8,-92.5 476.8,-74.5 315.74,-74.5"/>
<text text-anchor="middle" x="396.27" y="-80.5" font-family="Helvetica,sans-Serif" font-size="10.00">Ogre::CompositorPassSceneDef</text>
</a>
</g>
</g>
<!-- Node1&#45;&gt;Node8 -->
<g id="edge7" class="edge">
<title>Node1&#45;&gt;Node8</title>
<path fill="none" stroke="midnightblue" d="M239.58,-125.76C259.42,-118.01 285.75,-108.33 309.63,-101.5 321.32,-98.16 334.06,-95.15 346.06,-92.59"/>
<polygon fill="midnightblue" stroke="midnightblue" points="238.13,-122.56 230.12,-129.5 240.71,-129.07 238.13,-122.56"/>
</g>
<!-- Node9 -->
<g id="node9" class="node">
<title>Node9</title>
<g id="a_node9"><a xlink:href="class_ogre_1_1_compositor_pass_stencil_def.html" target="_top" xlink:title=" ">
<polygon fill="none" stroke="black" points="314.91,-37.5 314.91,-55.5 477.63,-55.5 477.63,-37.5 314.91,-37.5"/>
<text text-anchor="middle" x="396.27" y="-43.5" font-family="Helvetica,sans-Serif" font-size="10.00">Ogre::CompositorPassStencilDef</text>
</a>
</g>
</g>
<!-- Node1&#45;&gt;Node9 -->
<g id="edge8" class="edge">
<title>Node1&#45;&gt;Node9</title>
<path fill="none" stroke="midnightblue" d="M225.27,-122.53C244.32,-105.52 276.86,-79.09 309.63,-64.5 317.82,-60.85 326.78,-57.93 335.73,-55.59"/>
<polygon fill="midnightblue" stroke="midnightblue" points="222.77,-120.07 217.74,-129.39 227.49,-125.24 222.77,-120.07"/>
</g>
<!-- Node10 -->
<g id="node10" class="node">
<title>Node10</title>
<g id="a_node10"><a xlink:href="class_ogre_1_1_compositor_pass_uav_def.html" target="_top" xlink:title=" ">
<polygon fill="none" stroke="black" points="321.03,-0.5 321.03,-18.5 471.52,-18.5 471.52,-0.5 321.03,-0.5"/>
<text text-anchor="middle" x="396.27" y="-6.5" font-family="Helvetica,sans-Serif" font-size="10.00">Ogre::CompositorPassUavDef</text>
</a>
</g>
</g>
<!-- Node1&#45;&gt;Node10 -->
<g id="edge9" class="edge">
<title>Node1&#45;&gt;Node10</title>
<path fill="none" stroke="midnightblue" d="M219.23,-120.75C235.63,-95.76 269.04,-50.68 309.63,-27.5 316.09,-23.81 323.22,-20.87 330.52,-18.53"/>
<polygon fill="midnightblue" stroke="midnightblue" points="216.23,-118.95 213.79,-129.26 222.13,-122.72 216.23,-118.95"/>
</g>
<!-- Node2 -->
<g id="node2" class="node">
<title>Node2</title>
<g id="a_node2"><a xlink:href="class_ogre_1_1_allocated_object.html" target="_top" xlink:title="Superclass for all objects that wish to use custom memory allocators when their new / delete operator...">
<polygon fill="none" stroke="black" points="0,-129.5 0,-147.5 104.92,-147.5 104.92,-129.5 0,-129.5"/>
<text text-anchor="middle" x="52.46" y="-135.5" font-family="Helvetica,sans-Serif" font-size="10.00">CompositorInstAlloc</text>
</a>
</g>
</g>
<!-- Node2&#45;&gt;Node1 -->
<g id="edge1" class="edge">
<title>Node2&#45;&gt;Node1</title>
<path fill="none" stroke="midnightblue" d="M115.29,-138.5C123.68,-138.5 132.32,-138.5 140.78,-138.5"/>
<polygon fill="midnightblue" stroke="midnightblue" points="115.2,-135 105.2,-138.5 115.2,-142 115.2,-135"/>
</g>
</g>
</svg>
