<?xml version="1.0" encoding="UTF-8" standalone="no"?>
<!DOCTYPE svg PUBLIC "-//W3C//DTD SVG 1.1//EN"
 "http://www.w3.org/Graphics/SVG/1.1/DTD/svg11.dtd">
<!-- Generated by graphviz version 2.43.0 (0)
 -->
<!-- Title: Ogre::v1::AnimationContainer Pages: 1 -->
<svg width="288pt" height="137pt"
 viewBox="0.00 0.00 288.06 137.00" xmlns="http://www.w3.org/2000/svg" xmlns:xlink="http://www.w3.org/1999/xlink">
<g id="graph0" class="graph" transform="scale(1 1) rotate(0) translate(4 133)">
<title>Ogre::v1::AnimationContainer</title>
<!-- Node1 -->
<g id="node1" class="node">
<title>Node1</title>
<g id="a_node1"><a xlink:title="An animation container interface, which allows generic access to sibling animations.">
<polygon fill="#bfbfbf" stroke="black" points="55.1,-110.5 55.1,-128.5 202.83,-128.5 202.83,-110.5 55.1,-110.5"/>
<text text-anchor="middle" x="128.97" y="-116.5" font-family="Helvetica,sans-Serif" font-size="10.00">Ogre::v1::AnimationContainer</text>
</a>
</g>
</g>
<!-- Node2 -->
<g id="node2" class="node">
<title>Node2</title>
<g id="a_node2"><a xlink:href="class_ogre_1_1v1_1_1_mesh.html" target="_top" xlink:title="Resource holding data about 3D mesh.">
<polygon fill="none" stroke="black" points="31.79,-55.5 31.79,-73.5 116.15,-73.5 116.15,-55.5 31.79,-55.5"/>
<text text-anchor="middle" x="73.97" y="-61.5" font-family="Helvetica,sans-Serif" font-size="10.00">Ogre::v1::Mesh</text>
</a>
</g>
</g>
<!-- Node1&#45;&gt;Node2 -->
<g id="edge1" class="edge">
<title>Node1&#45;&gt;Node2</title>
<path fill="none" stroke="midnightblue" d="M112.99,-103.11C102.96,-93.44 90.43,-81.37 82.32,-73.55"/>
<polygon fill="midnightblue" stroke="midnightblue" points="110.74,-105.8 120.37,-110.22 115.6,-100.76 110.74,-105.8"/>
</g>
<!-- Node4 -->
<g id="node4" class="node">
<title>Node4</title>
<g id="a_node4"><a xlink:href="class_ogre_1_1v1_1_1_skeleton.html" target="_top" xlink:title="A collection of OldBone objects used to animate a skinned mesh.">
<polygon fill="none" stroke="black" points="144.55,-55.5 144.55,-73.5 243.38,-73.5 243.38,-55.5 144.55,-55.5"/>
<text text-anchor="middle" x="193.97" y="-61.5" font-family="Helvetica,sans-Serif" font-size="10.00">Ogre::v1::Skeleton</text>
</a>
</g>
</g>
<!-- Node1&#45;&gt;Node4 -->
<g id="edge3" class="edge">
<title>Node1&#45;&gt;Node4</title>
<path fill="none" stroke="midnightblue" d="M146.84,-103.93C158.81,-94.16 174.13,-81.67 184,-73.63"/>
<polygon fill="midnightblue" stroke="midnightblue" points="144.38,-101.42 138.84,-110.45 148.8,-106.84 144.38,-101.42"/>
</g>
<!-- Node3 -->
<g id="node3" class="node">
<title>Node3</title>
<g id="a_node3"><a xlink:href="class_ogre_1_1v1_1_1_patch_mesh.html" target="_top" xlink:title="Patch specialisation of Mesh.">
<polygon fill="none" stroke="black" points="0,-0.5 0,-18.5 109.93,-18.5 109.93,-0.5 0,-0.5"/>
<text text-anchor="middle" x="54.97" y="-6.5" font-family="Helvetica,sans-Serif" font-size="10.00">Ogre::v1::PatchMesh</text>
</a>
</g>
</g>
<!-- Node2&#45;&gt;Node3 -->
<g id="edge2" class="edge">
<title>Node2&#45;&gt;Node3</title>
<path fill="none" stroke="midnightblue" d="M67.61,-45.77C64.31,-36.56 60.43,-25.75 57.85,-18.55"/>
<polygon fill="midnightblue" stroke="midnightblue" points="64.33,-46.99 71,-55.22 70.92,-44.62 64.33,-46.99"/>
</g>
<!-- Node5 -->
<g id="node5" class="node">
<title>Node5</title>
<g id="a_node5"><a xlink:href="class_ogre_1_1v1_1_1_old_skeleton_instance.html" target="_top" xlink:title="A OldSkeletonInstance is a single instance of a Skeleton used by a world object.">
<polygon fill="none" stroke="black" points="127.87,-0.5 127.87,-18.5 280.06,-18.5 280.06,-0.5 127.87,-0.5"/>
<text text-anchor="middle" x="203.97" y="-6.5" font-family="Helvetica,sans-Serif" font-size="10.00">Ogre::v1::OldSkeletonInstance</text>
</a>
</g>
</g>
<!-- Node4&#45;&gt;Node5 -->
<g id="edge4" class="edge">
<title>Node4&#45;&gt;Node5</title>
<path fill="none" stroke="midnightblue" d="M197.42,-45.17C199.14,-36.09 201.12,-25.59 202.45,-18.55"/>
<polygon fill="midnightblue" stroke="midnightblue" points="193.94,-44.74 195.53,-55.22 200.82,-46.04 193.94,-44.74"/>
</g>
</g>
</svg>
