<?xml version="1.0" encoding="UTF-8" standalone="no"?>
<!DOCTYPE svg PUBLIC "-//W3C//DTD SVG 1.1//EN"
 "http://www.w3.org/Graphics/SVG/1.1/DTD/svg11.dtd">
<!-- Generated by graphviz version 2.43.0 (0)
 -->
<!-- Title: Ogre::RTShader::TextureAtlasSamplerFactory Pages: 1 -->
<svg width="492pt" height="84pt"
 viewBox="0.00 0.00 491.52 84.00" xmlns="http://www.w3.org/2000/svg" xmlns:xlink="http://www.w3.org/1999/xlink">
<g id="graph0" class="graph" transform="scale(1 1) rotate(0) translate(4 80)">
<title>Ogre::RTShader::TextureAtlasSamplerFactory</title>
<!-- Node1 -->
<g id="node1" class="node">
<title>Node1</title>
<g id="a_node1"><a xlink:title="A factory that enables creation of TextureAtlasSampler instances.">
<polygon fill="#bfbfbf" stroke="black" points="333.75,-23.5 333.75,-51.5 483.52,-51.5 483.52,-23.5 333.75,-23.5"/>
<text text-anchor="start" x="341.75" y="-39.5" font-family="Helvetica,sans-Serif" font-size="10.00">Ogre::RTShader::TextureAtlas</text>
<text text-anchor="middle" x="408.64" y="-29.5" font-family="Helvetica,sans-Serif" font-size="10.00">SamplerFactory</text>
</a>
</g>
</g>
<!-- Node2 -->
<g id="node2" class="node">
<title>Node2</title>
<g id="a_node2"><a xlink:href="class_ogre_1_1_r_t_shader_1_1_sub_render_state_factory.html" target="_top" xlink:title="Abstract factory interface for creating SubRenderState implementation instances.">
<polygon fill="none" stroke="black" points="152.42,-47.5 152.42,-75.5 297.75,-75.5 297.75,-47.5 152.42,-47.5"/>
<text text-anchor="start" x="160.42" y="-63.5" font-family="Helvetica,sans-Serif" font-size="10.00">Ogre::RTShader::SubRender</text>
<text text-anchor="middle" x="225.08" y="-53.5" font-family="Helvetica,sans-Serif" font-size="10.00">StateFactory</text>
</a>
</g>
</g>
<!-- Node2&#45;&gt;Node1 -->
<g id="edge1" class="edge">
<title>Node2&#45;&gt;Node1</title>
<path fill="none" stroke="midnightblue" d="M307.88,-50.69C316.49,-49.55 325.21,-48.4 333.72,-47.27"/>
<polygon fill="midnightblue" stroke="midnightblue" points="307.29,-47.23 297.84,-52.01 308.21,-54.17 307.29,-47.23"/>
</g>
<!-- Node3 -->
<g id="node3" class="node">
<title>Node3</title>
<g id="a_node3"><a xlink:href="class_ogre_1_1_allocated_object.html" target="_top" xlink:title="Superclass for all objects that wish to use custom memory allocators when their new / delete operator...">
<polygon fill="none" stroke="black" points="0,-52.5 0,-70.5 116.42,-70.5 116.42,-52.5 0,-52.5"/>
<text text-anchor="middle" x="58.21" y="-58.5" font-family="Helvetica,sans-Serif" font-size="10.00">RTShaderSystemAlloc</text>
</a>
</g>
</g>
<!-- Node3&#45;&gt;Node2 -->
<g id="edge2" class="edge">
<title>Node3&#45;&gt;Node2</title>
<path fill="none" stroke="midnightblue" d="M126.93,-61.5C135.28,-61.5 143.83,-61.5 152.24,-61.5"/>
<polygon fill="midnightblue" stroke="midnightblue" points="126.87,-58 116.87,-61.5 126.87,-65 126.87,-58"/>
</g>
<!-- Node4 -->
<g id="node4" class="node">
<title>Node4</title>
<g id="a_node4"><a xlink:href="class_ogre_1_1_singleton.html" target="_top" xlink:title=" ">
<polygon fill="none" stroke="black" points="161.72,-0.5 161.72,-28.5 288.44,-28.5 288.44,-0.5 161.72,-0.5"/>
<text text-anchor="start" x="169.72" y="-16.5" font-family="Helvetica,sans-Serif" font-size="10.00">Ogre::Singleton&lt; Texture</text>
<text text-anchor="middle" x="225.08" y="-6.5" font-family="Helvetica,sans-Serif" font-size="10.00">AtlasSamplerFactory &gt;</text>
</a>
</g>
</g>
<!-- Node4&#45;&gt;Node1 -->
<g id="edge3" class="edge">
<title>Node4&#45;&gt;Node1</title>
<path fill="none" stroke="midnightblue" d="M298.54,-23.68C310.03,-25.13 321.93,-26.64 333.46,-28.1"/>
<polygon fill="midnightblue" stroke="midnightblue" points="298.92,-20.2 288.56,-22.42 298.04,-27.14 298.92,-20.2"/>
</g>
</g>
</svg>
