<?xml version="1.0" encoding="UTF-8" standalone="no"?>
<!DOCTYPE svg PUBLIC "-//W3C//DTD SVG 1.1//EN"
 "http://www.w3.org/Graphics/SVG/1.1/DTD/svg11.dtd">
<!-- Generated by graphviz version 2.43.0 (0)
 -->
<!-- Title: Ogre::AsyncTextureTicket Pages: 1 -->
<svg width="502pt" height="148pt"
 viewBox="0.00 0.00 501.68 148.00" xmlns="http://www.w3.org/2000/svg" xmlns:xlink="http://www.w3.org/1999/xlink">
<g id="graph0" class="graph" transform="scale(1 1) rotate(0) translate(4 144)">
<title>Ogre::AsyncTextureTicket</title>
<!-- Node1 -->
<g id="node1" class="node">
<title>Node1</title>
<g id="a_node1"><a xlink:title="In Ogre 2.2 reading data from GPU back to CPU is asynchronous.">
<polygon fill="#bfbfbf" stroke="black" points="167.06,-58.5 167.06,-76.5 297.17,-76.5 297.17,-58.5 167.06,-58.5"/>
<text text-anchor="middle" x="232.12" y="-64.5" font-family="Helvetica,sans-Serif" font-size="10.00">Ogre::AsyncTextureTicket</text>
</a>
</g>
</g>
<!-- Node4 -->
<g id="node4" class="node">
<title>Node4</title>
<g id="a_node4"><a xlink:href="class_ogre_1_1_d3_d11_async_texture_ticket.html" target="_top" xlink:title="See AsyncTextureTicket.">
<polygon fill="none" stroke="black" points="333.17,-121.5 333.17,-139.5 493.68,-139.5 493.68,-121.5 333.17,-121.5"/>
<text text-anchor="middle" x="413.43" y="-127.5" font-family="Helvetica,sans-Serif" font-size="10.00">Ogre::D3D11AsyncTextureTicket</text>
</a>
</g>
</g>
<!-- Node1&#45;&gt;Node4 -->
<g id="edge3" class="edge">
<title>Node1&#45;&gt;Node4</title>
<path fill="none" stroke="midnightblue" d="M259.44,-81.08C279.29,-90.89 307.41,-103.88 333.17,-112.5 343.48,-115.95 354.75,-118.95 365.48,-121.46"/>
<polygon fill="midnightblue" stroke="midnightblue" points="260.91,-77.9 250.4,-76.55 257.78,-84.16 260.91,-77.9"/>
</g>
<!-- Node5 -->
<g id="node5" class="node">
<title>Node5</title>
<g id="a_node5"><a xlink:href="class_ogre_1_1_g_l3_plus_async_texture_ticket.html" target="_top" xlink:title="See AsyncTextureTicket.">
<polygon fill="none" stroke="black" points="342.34,-74.5 342.34,-102.5 484.51,-102.5 484.51,-74.5 342.34,-74.5"/>
<text text-anchor="start" x="350.34" y="-90.5" font-family="Helvetica,sans-Serif" font-size="10.00">Ogre::GL3PlusAsyncTexture</text>
<text text-anchor="middle" x="413.43" y="-80.5" font-family="Helvetica,sans-Serif" font-size="10.00">Ticket</text>
</a>
</g>
</g>
<!-- Node1&#45;&gt;Node5 -->
<g id="edge4" class="edge">
<title>Node1&#45;&gt;Node5</title>
<path fill="none" stroke="midnightblue" d="M307.38,-76.2C318.92,-77.55 330.82,-78.94 342.27,-80.28"/>
<polygon fill="midnightblue" stroke="midnightblue" points="307.69,-72.71 297.35,-75.02 306.87,-79.66 307.69,-72.71"/>
</g>
<!-- Node6 -->
<g id="node6" class="node">
<title>Node6</title>
<g id="a_node6"><a xlink:href="class_ogre_1_1_metal_async_texture_ticket.html" target="_top" xlink:title="See AsyncTextureTicket.">
<polygon fill="none" stroke="black" points="336.14,-37.5 336.14,-55.5 490.71,-55.5 490.71,-37.5 336.14,-37.5"/>
<text text-anchor="middle" x="413.43" y="-43.5" font-family="Helvetica,sans-Serif" font-size="10.00">Ogre::MetalAsyncTextureTicket</text>
</a>
</g>
</g>
<!-- Node1&#45;&gt;Node6 -->
<g id="edge5" class="edge">
<title>Node1&#45;&gt;Node6</title>
<path fill="none" stroke="midnightblue" d="M307.49,-58.79C316.94,-57.68 326.62,-56.55 336.1,-55.44"/>
<polygon fill="midnightblue" stroke="midnightblue" points="306.87,-55.34 297.35,-59.98 307.69,-62.29 306.87,-55.34"/>
</g>
<!-- Node7 -->
<g id="node7" class="node">
<title>Node7</title>
<g id="a_node7"><a xlink:href="class_ogre_1_1_n_u_l_l_async_texture_ticket.html" target="_top" xlink:title="See AsyncTextureTicket.">
<polygon fill="none" stroke="black" points="335.59,-0.5 335.59,-18.5 491.27,-18.5 491.27,-0.5 335.59,-0.5"/>
<text text-anchor="middle" x="413.43" y="-6.5" font-family="Helvetica,sans-Serif" font-size="10.00">Ogre::NULLAsyncTextureTicket</text>
</a>
</g>
</g>
<!-- Node1&#45;&gt;Node7 -->
<g id="edge6" class="edge">
<title>Node1&#45;&gt;Node7</title>
<path fill="none" stroke="midnightblue" d="M262.44,-54.36C282.15,-45.88 308.88,-35.06 333.17,-27.5 343.95,-24.14 355.73,-21.13 366.84,-18.57"/>
<polygon fill="midnightblue" stroke="midnightblue" points="260.86,-51.23 253.09,-58.43 263.66,-57.65 260.86,-51.23"/>
</g>
<!-- Node2 -->
<g id="node2" class="node">
<title>Node2</title>
<g id="a_node2"><a xlink:href="class_ogre_1_1_allocated_object.html" target="_top" xlink:title="Superclass for all objects that wish to use custom memory allocators when their new / delete operator...">
<polygon fill="none" stroke="black" points="35.58,-77.5 35.58,-95.5 95.48,-95.5 95.48,-77.5 35.58,-77.5"/>
<text text-anchor="middle" x="65.53" y="-83.5" font-family="Helvetica,sans-Serif" font-size="10.00">PassAlloc</text>
</a>
</g>
</g>
<!-- Node2&#45;&gt;Node1 -->
<g id="edge1" class="edge">
<title>Node2&#45;&gt;Node1</title>
<path fill="none" stroke="midnightblue" d="M105.58,-81.99C123.89,-79.88 146.19,-77.3 166.89,-74.91"/>
<polygon fill="midnightblue" stroke="midnightblue" points="105.11,-78.52 95.58,-83.15 105.91,-85.48 105.11,-78.52"/>
</g>
<!-- Node3 -->
<g id="node3" class="node">
<title>Node3</title>
<g id="a_node3"><a xlink:href="class_ogre_1_1_texture_gpu_listener.html" target="_top" xlink:title=" ">
<polygon fill="none" stroke="black" points="0,-40.5 0,-58.5 131.06,-58.5 131.06,-40.5 0,-40.5"/>
<text text-anchor="middle" x="65.53" y="-46.5" font-family="Helvetica,sans-Serif" font-size="10.00">Ogre::TextureGpuListener</text>
</a>
</g>
</g>
<!-- Node3&#45;&gt;Node1 -->
<g id="edge2" class="edge">
<title>Node3&#45;&gt;Node1</title>
<path fill="none" stroke="midnightblue" d="M141.16,-57.66C149.79,-58.61 158.53,-59.56 167,-60.49"/>
<polygon fill="midnightblue" stroke="midnightblue" points="141.43,-54.17 131.11,-56.56 140.67,-61.13 141.43,-54.17"/>
</g>
</g>
</svg>
