<?xml version="1.0" encoding="UTF-8" standalone="no"?>
<!DOCTYPE svg PUBLIC "-//W3C//DTD SVG 1.1//EN"
 "http://www.w3.org/Graphics/SVG/1.1/DTD/svg11.dtd">
<!-- Generated by graphviz version 2.43.0 (0)
 -->
<!-- Title: Ogre::RenderWindow Pages: 1 -->
<svg width="843pt" height="286pt"
 viewBox="0.00 0.00 842.67 286.00" xmlns="http://www.w3.org/2000/svg" xmlns:xlink="http://www.w3.org/1999/xlink">
<g id="graph0" class="graph" transform="scale(1 1) rotate(0) translate(4 282)">
<title>Ogre::RenderWindow</title>
<!-- Node1 -->
<g id="node1" class="node">
<title>Node1</title>
<g id="a_node1"><a xlink:title="Manages the target rendering window.">
<polygon fill="#bfbfbf" stroke="black" points="317.62,-129.5 317.62,-147.5 429.78,-147.5 429.78,-129.5 317.62,-129.5"/>
<text text-anchor="middle" x="373.7" y="-135.5" font-family="Helvetica,sans-Serif" font-size="10.00">Ogre::RenderWindow</text>
</a>
</g>
</g>
<!-- Node5 -->
<g id="node5" class="node">
<title>Node5</title>
<g id="a_node5"><a xlink:href="class_ogre_1_1_cocoa_window.html" target="_top" xlink:title=" ">
<polygon fill="none" stroke="black" points="494.31,-259.5 494.31,-277.5 602.57,-277.5 602.57,-259.5 494.31,-259.5"/>
<text text-anchor="middle" x="548.44" y="-265.5" font-family="Helvetica,sans-Serif" font-size="10.00">Ogre::CocoaWindow</text>
</a>
</g>
</g>
<!-- Node1&#45;&gt;Node5 -->
<g id="edge4" class="edge">
<title>Node1&#45;&gt;Node5</title>
<path fill="none" stroke="midnightblue" d="M384.26,-156.7C398.5,-181.92 427.73,-227.04 465.78,-250.5 474.3,-255.76 484.17,-259.49 494.03,-262.13"/>
<polygon fill="midnightblue" stroke="midnightblue" points="387.26,-154.9 379.39,-147.8 381.12,-158.25 387.26,-154.9"/>
</g>
<!-- Node6 -->
<g id="node6" class="node">
<title>Node6</title>
<g id="a_node6"><a xlink:href="class_ogre_1_1_d3_d11_render_window_base.html" target="_top" xlink:title=" ">
<polygon fill="none" stroke="black" points="465.78,-222.5 465.78,-240.5 631.11,-240.5 631.11,-222.5 465.78,-222.5"/>
<text text-anchor="middle" x="548.44" y="-228.5" font-family="Helvetica,sans-Serif" font-size="10.00">Ogre::D3D11RenderWindowBase</text>
</a>
</g>
</g>
<!-- Node1&#45;&gt;Node6 -->
<g id="edge5" class="edge">
<title>Node1&#45;&gt;Node6</title>
<path fill="none" stroke="midnightblue" d="M390.32,-155.4C407.24,-172.67 435.86,-198.94 465.78,-213.5 473.35,-217.18 481.68,-220.12 490.04,-222.47"/>
<polygon fill="midnightblue" stroke="midnightblue" points="392.44,-152.55 383,-147.74 387.38,-157.39 392.44,-152.55"/>
</g>
<!-- Node8 -->
<g id="node8" class="node">
<title>Node8</title>
<g id="a_node8"><a xlink:href="class_ogre_1_1_d3_d9_render_window.html" target="_top" xlink:title=" ">
<polygon fill="none" stroke="black" points="479.58,-185.5 479.58,-203.5 617.3,-203.5 617.3,-185.5 479.58,-185.5"/>
<text text-anchor="middle" x="548.44" y="-191.5" font-family="Helvetica,sans-Serif" font-size="10.00">Ogre::D3D9RenderWindow</text>
</a>
</g>
</g>
<!-- Node1&#45;&gt;Node8 -->
<g id="edge7" class="edge">
<title>Node1&#45;&gt;Node8</title>
<path fill="none" stroke="midnightblue" d="M402.74,-151.73C420.5,-159.72 444.13,-169.66 465.78,-176.5 476.57,-179.91 488.37,-182.92 499.56,-185.44"/>
<polygon fill="midnightblue" stroke="midnightblue" points="404.07,-148.49 393.52,-147.52 401.16,-154.86 404.07,-148.49"/>
</g>
<!-- Node9 -->
<g id="node9" class="node">
<title>Node9</title>
<g id="a_node9"><a xlink:href="class_ogre_1_1_e_g_l_window.html" target="_top" xlink:title=" ">
<polygon fill="none" stroke="black" points="499.13,-148.5 499.13,-166.5 597.76,-166.5 597.76,-148.5 499.13,-148.5"/>
<text text-anchor="middle" x="548.44" y="-154.5" font-family="Helvetica,sans-Serif" font-size="10.00">Ogre::EGLWindow</text>
</a>
</g>
</g>
<!-- Node1&#45;&gt;Node9 -->
<g id="edge8" class="edge">
<title>Node1&#45;&gt;Node9</title>
<path fill="none" stroke="midnightblue" d="M439.91,-145.67C459.5,-147.83 480.64,-150.15 498.95,-152.17"/>
<polygon fill="midnightblue" stroke="midnightblue" points="440.15,-142.18 429.83,-144.56 439.39,-149.14 440.15,-142.18"/>
</g>
<!-- Node14 -->
<g id="node14" class="node">
<title>Node14</title>
<g id="a_node14"><a xlink:href="class_ogre_1_1_g_t_k_window.html" target="_top" xlink:title=" ">
<polygon fill="none" stroke="black" points="498.49,-111.5 498.49,-129.5 598.4,-129.5 598.4,-111.5 498.49,-111.5"/>
<text text-anchor="middle" x="548.44" y="-117.5" font-family="Helvetica,sans-Serif" font-size="10.00">Ogre::GTKWindow</text>
</a>
</g>
</g>
<!-- Node1&#45;&gt;Node14 -->
<g id="edge13" class="edge">
<title>Node1&#45;&gt;Node14</title>
<path fill="none" stroke="midnightblue" d="M439.82,-131.71C459.23,-129.69 480.17,-127.51 498.38,-125.61"/>
<polygon fill="midnightblue" stroke="midnightblue" points="439.41,-128.24 429.83,-132.76 440.14,-135.2 439.41,-128.24"/>
</g>
<!-- Node15 -->
<g id="node15" class="node">
<title>Node15</title>
<g id="a_node15"><a xlink:href="class_ogre_1_1_na_cl_window.html" target="_top" xlink:title=" ">
<polygon fill="none" stroke="black" points="497.65,-74.5 497.65,-92.5 599.23,-92.5 599.23,-74.5 497.65,-74.5"/>
<text text-anchor="middle" x="548.44" y="-80.5" font-family="Helvetica,sans-Serif" font-size="10.00">Ogre::NaClWindow</text>
</a>
</g>
</g>
<!-- Node1&#45;&gt;Node15 -->
<g id="edge14" class="edge">
<title>Node1&#45;&gt;Node15</title>
<path fill="none" stroke="midnightblue" d="M403.45,-125.36C421.16,-117.64 444.46,-108.13 465.78,-101.5 476.73,-98.09 488.7,-95.08 500.01,-92.53"/>
<polygon fill="midnightblue" stroke="midnightblue" points="401.97,-122.19 394.25,-129.43 404.81,-128.59 401.97,-122.19"/>
</g>
<!-- Node16 -->
<g id="node16" class="node">
<title>Node16</title>
<g id="a_node16"><a xlink:href="class_ogre_1_1_n_u_l_l_render_window.html" target="_top" xlink:title=" ">
<polygon fill="none" stroke="black" points="479.58,-37.5 479.58,-55.5 617.3,-55.5 617.3,-37.5 479.58,-37.5"/>
<text text-anchor="middle" x="548.44" y="-43.5" font-family="Helvetica,sans-Serif" font-size="10.00">Ogre::NULLRenderWindow</text>
</a>
</g>
</g>
<!-- Node1&#45;&gt;Node16 -->
<g id="edge15" class="edge">
<title>Node1&#45;&gt;Node16</title>
<path fill="none" stroke="midnightblue" d="M390.36,-121.83C407.33,-104.8 435.97,-78.88 465.78,-64.5 473.36,-60.84 481.7,-57.91 490.06,-55.58"/>
<polygon fill="midnightblue" stroke="midnightblue" points="387.48,-119.77 383.02,-129.39 392.5,-124.65 387.48,-119.77"/>
</g>
<!-- Node17 -->
<g id="node17" class="node">
<title>Node17</title>
<g id="a_node17"><a xlink:href="class_ogre_1_1_s_d_l_window.html" target="_top" xlink:title=" ">
<polygon fill="none" stroke="black" points="499.41,-0.5 499.41,-18.5 597.48,-18.5 597.48,-0.5 499.41,-0.5"/>
<text text-anchor="middle" x="548.44" y="-6.5" font-family="Helvetica,sans-Serif" font-size="10.00">Ogre::SDLWindow</text>
</a>
</g>
</g>
<!-- Node1&#45;&gt;Node17 -->
<g id="edge16" class="edge">
<title>Node1&#45;&gt;Node17</title>
<path fill="none" stroke="midnightblue" d="M384.3,-120.47C398.59,-95.47 427.89,-50.75 465.78,-27.5 475.8,-21.35 487.66,-17.29 499.18,-14.61"/>
<polygon fill="midnightblue" stroke="midnightblue" points="381.2,-118.84 379.42,-129.28 387.32,-122.23 381.2,-118.84"/>
</g>
<!-- Node2 -->
<g id="node2" class="node">
<title>Node2</title>
<g id="a_node2"><a xlink:href="class_ogre_1_1_render_target.html" target="_top" xlink:title="A &#39;canvas&#39; which can receive the results of a rendering operation.">
<polygon fill="none" stroke="black" points="177.24,-129.5 177.24,-147.5 281.62,-147.5 281.62,-129.5 177.24,-129.5"/>
<text text-anchor="middle" x="229.43" y="-135.5" font-family="Helvetica,sans-Serif" font-size="10.00">Ogre::RenderTarget</text>
</a>
</g>
</g>
<!-- Node2&#45;&gt;Node1 -->
<g id="edge1" class="edge">
<title>Node2&#45;&gt;Node1</title>
<path fill="none" stroke="midnightblue" d="M292.03,-138.5C300.52,-138.5 309.2,-138.5 317.57,-138.5"/>
<polygon fill="midnightblue" stroke="midnightblue" points="291.79,-135 281.79,-138.5 291.79,-142 291.79,-135"/>
</g>
<!-- Node3 -->
<g id="node3" class="node">
<title>Node3</title>
<g id="a_node3"><a xlink:href="struct_ogre_1_1_gpu_tracked_resource.html" target="_top" xlink:title=" ">
<polygon fill="none" stroke="black" points="0,-148.5 0,-166.5 141.24,-166.5 141.24,-148.5 0,-148.5"/>
<text text-anchor="middle" x="70.62" y="-154.5" font-family="Helvetica,sans-Serif" font-size="10.00">Ogre::GpuTrackedResource</text>
</a>
</g>
</g>
<!-- Node3&#45;&gt;Node2 -->
<g id="edge2" class="edge">
<title>Node3&#45;&gt;Node2</title>
<path fill="none" stroke="midnightblue" d="M151.43,-147.83C160.06,-146.78 168.67,-145.74 176.83,-144.75"/>
<polygon fill="midnightblue" stroke="midnightblue" points="150.82,-144.38 141.32,-149.06 151.66,-151.33 150.82,-144.38"/>
</g>
<!-- Node4 -->
<g id="node4" class="node">
<title>Node4</title>
<g id="a_node4"><a xlink:href="class_ogre_1_1_allocated_object.html" target="_top" xlink:title="Superclass for all objects that wish to use custom memory allocators when their new / delete operator...">
<polygon fill="none" stroke="black" points="27.05,-111.5 27.05,-129.5 114.19,-129.5 114.19,-111.5 27.05,-111.5"/>
<text text-anchor="middle" x="70.62" y="-117.5" font-family="Helvetica,sans-Serif" font-size="10.00">RenderSysAlloc</text>
</a>
</g>
</g>
<!-- Node4&#45;&gt;Node2 -->
<g id="edge3" class="edge">
<title>Node4&#45;&gt;Node2</title>
<path fill="none" stroke="midnightblue" d="M124.72,-126.6C141.6,-128.53 160.23,-130.67 176.99,-132.6"/>
<polygon fill="midnightblue" stroke="midnightblue" points="124.81,-123.08 114.47,-125.42 124.01,-130.04 124.81,-123.08"/>
</g>
<!-- Node7 -->
<g id="node7" class="node">
<title>Node7</title>
<g id="a_node7"><a xlink:href="class_ogre_1_1_d3_d11_render_window_swap_chain_based.html" target="_top" xlink:title=" ">
<polygon fill="none" stroke="black" points="667.11,-222.5 667.11,-250.5 834.67,-250.5 834.67,-222.5 667.11,-222.5"/>
<text text-anchor="start" x="675.11" y="-238.5" font-family="Helvetica,sans-Serif" font-size="10.00">Ogre::D3D11RenderWindowSwap</text>
<text text-anchor="middle" x="750.89" y="-228.5" font-family="Helvetica,sans-Serif" font-size="10.00">ChainBased</text>
</a>
</g>
</g>
<!-- Node6&#45;&gt;Node7 -->
<g id="edge6" class="edge">
<title>Node6&#45;&gt;Node7</title>
<path fill="none" stroke="midnightblue" d="M641.29,-233.79C649.87,-234.01 658.54,-234.22 667.03,-234.43"/>
<polygon fill="midnightblue" stroke="midnightblue" points="641.35,-230.29 631.26,-233.54 641.17,-237.29 641.35,-230.29"/>
</g>
<!-- Node10 -->
<g id="node10" class="node">
<title>Node10</title>
<g id="a_node10"><a xlink:href="class_ogre_1_1_android_e_g_l_window.html" target="_top" xlink:title=" ">
<polygon fill="none" stroke="black" points="684.34,-185.5 684.34,-203.5 817.44,-203.5 817.44,-185.5 684.34,-185.5"/>
<text text-anchor="middle" x="750.89" y="-191.5" font-family="Helvetica,sans-Serif" font-size="10.00">Ogre::AndroidEGLWindow</text>
</a>
</g>
</g>
<!-- Node9&#45;&gt;Node10 -->
<g id="edge9" class="edge">
<title>Node9&#45;&gt;Node10</title>
<path fill="none" stroke="midnightblue" d="M608.15,-168.34C637.7,-173.79 673.09,-180.32 701.12,-185.5"/>
<polygon fill="midnightblue" stroke="midnightblue" points="608.44,-164.83 597.97,-166.46 607.16,-171.71 608.44,-164.83"/>
</g>
<!-- Node11 -->
<g id="node11" class="node">
<title>Node11</title>
<g id="a_node11"><a xlink:href="class_ogre_1_1_emscripten_e_g_l_window.html" target="_top" xlink:title=" ">
<polygon fill="none" stroke="black" points="676.57,-148.5 676.57,-166.5 825.21,-166.5 825.21,-148.5 676.57,-148.5"/>
<text text-anchor="middle" x="750.89" y="-154.5" font-family="Helvetica,sans-Serif" font-size="10.00">Ogre::EmscriptenEGLWindow</text>
</a>
</g>
</g>
<!-- Node9&#45;&gt;Node11 -->
<g id="edge10" class="edge">
<title>Node9&#45;&gt;Node11</title>
<path fill="none" stroke="midnightblue" d="M608.18,-157.5C629.52,-157.5 653.91,-157.5 676.38,-157.5"/>
<polygon fill="midnightblue" stroke="midnightblue" points="607.97,-154 597.97,-157.5 607.97,-161 607.97,-154"/>
</g>
<!-- Node12 -->
<g id="node12" class="node">
<title>Node12</title>
<g id="a_node12"><a xlink:href="class_ogre_1_1_win32_e_g_l_window.html" target="_top" xlink:title=" ">
<polygon fill="none" stroke="black" points="687.4,-111.5 687.4,-129.5 814.38,-129.5 814.38,-111.5 687.4,-111.5"/>
<text text-anchor="middle" x="750.89" y="-117.5" font-family="Helvetica,sans-Serif" font-size="10.00">Ogre::Win32EGLWindow</text>
</a>
</g>
</g>
<!-- Node9&#45;&gt;Node12 -->
<g id="edge11" class="edge">
<title>Node9&#45;&gt;Node12</title>
<path fill="none" stroke="midnightblue" d="M608.15,-146.66C637.7,-141.21 673.09,-134.68 701.12,-129.5"/>
<polygon fill="midnightblue" stroke="midnightblue" points="607.16,-143.29 597.97,-148.54 608.44,-150.17 607.16,-143.29"/>
</g>
<!-- Node13 -->
<g id="node13" class="node">
<title>Node13</title>
<g id="a_node13"><a xlink:href="class_ogre_1_1_x11_e_g_l_window.html" target="_top" xlink:title=" ">
<polygon fill="none" stroke="black" points="693.05,-74.5 693.05,-92.5 808.73,-92.5 808.73,-74.5 693.05,-74.5"/>
<text text-anchor="middle" x="750.89" y="-80.5" font-family="Helvetica,sans-Serif" font-size="10.00">Ogre::X11EGLWindow</text>
</a>
</g>
</g>
<!-- Node9&#45;&gt;Node13 -->
<g id="edge12" class="edge">
<title>Node9&#45;&gt;Node13</title>
<path fill="none" stroke="midnightblue" d="M607.45,-148.37C615.69,-145.84 623.82,-142.61 631.11,-138.5 651.09,-127.22 647.05,-112.63 667.11,-101.5 674.96,-97.15 683.76,-93.85 692.63,-91.34"/>
<polygon fill="midnightblue" stroke="midnightblue" points="606.5,-145 597.79,-151.02 608.36,-151.75 606.5,-145"/>
</g>
</g>
</svg>
