<?xml version="1.0" encoding="UTF-8" standalone="no"?>
<!DOCTYPE svg PUBLIC "-//W3C//DTD SVG 1.1//EN"
 "http://www.w3.org/Graphics/SVG/1.1/DTD/svg11.dtd">
<!-- Generated by graphviz version 2.43.0 (0)
 -->
<!-- Title: Ogre::EGLWindow Pages: 1 -->
<svg width="757pt" height="138pt"
 viewBox="0.00 0.00 757.04 138.00" xmlns="http://www.w3.org/2000/svg" xmlns:xlink="http://www.w3.org/1999/xlink">
<g id="graph0" class="graph" transform="scale(1 1) rotate(0) translate(4 134)">
<title>Ogre::EGLWindow</title>
<!-- Node1 -->
<g id="node1" class="node">
<title>Node1</title>
<g id="a_node1"><a xlink:title=" ">
<polygon fill="#bfbfbf" stroke="black" points="465.78,-55.5 465.78,-73.5 564.4,-73.5 564.4,-55.5 465.78,-55.5"/>
<text text-anchor="middle" x="515.09" y="-61.5" font-family="Helvetica,sans-Serif" font-size="10.00">Ogre::EGLWindow</text>
</a>
</g>
</g>
<!-- Node6 -->
<g id="node6" class="node">
<title>Node6</title>
<g id="a_node6"><a xlink:href="class_ogre_1_1_android_e_g_l_window.html" target="_top" xlink:title=" ">
<polygon fill="none" stroke="black" points="608.18,-111.5 608.18,-129.5 741.27,-129.5 741.27,-111.5 608.18,-111.5"/>
<text text-anchor="middle" x="674.72" y="-117.5" font-family="Helvetica,sans-Serif" font-size="10.00">Ogre::AndroidEGLWindow</text>
</a>
</g>
</g>
<!-- Node1&#45;&gt;Node6 -->
<g id="edge5" class="edge">
<title>Node1&#45;&gt;Node6</title>
<path fill="none" stroke="midnightblue" d="M543.22,-78.26C559.5,-86.12 580.79,-95.74 600.4,-102.5 610.19,-105.88 620.92,-108.88 631.08,-111.43"/>
<polygon fill="midnightblue" stroke="midnightblue" points="544.31,-74.89 533.79,-73.63 541.23,-81.18 544.31,-74.89"/>
</g>
<!-- Node7 -->
<g id="node7" class="node">
<title>Node7</title>
<g id="a_node7"><a xlink:href="class_ogre_1_1_emscripten_e_g_l_window.html" target="_top" xlink:title=" ">
<polygon fill="none" stroke="black" points="600.4,-74.5 600.4,-92.5 749.04,-92.5 749.04,-74.5 600.4,-74.5"/>
<text text-anchor="middle" x="674.72" y="-80.5" font-family="Helvetica,sans-Serif" font-size="10.00">Ogre::EmscriptenEGLWindow</text>
</a>
</g>
</g>
<!-- Node1&#45;&gt;Node7 -->
<g id="edge6" class="edge">
<title>Node1&#45;&gt;Node7</title>
<path fill="none" stroke="midnightblue" d="M574.69,-71.56C583.07,-72.57 591.77,-73.62 600.38,-74.66"/>
<polygon fill="midnightblue" stroke="midnightblue" points="575.02,-68.08 564.67,-70.36 574.18,-75.03 575.02,-68.08"/>
</g>
<!-- Node8 -->
<g id="node8" class="node">
<title>Node8</title>
<g id="a_node8"><a xlink:href="class_ogre_1_1_win32_e_g_l_window.html" target="_top" xlink:title=" ">
<polygon fill="none" stroke="black" points="611.24,-37.5 611.24,-55.5 738.21,-55.5 738.21,-37.5 611.24,-37.5"/>
<text text-anchor="middle" x="674.72" y="-43.5" font-family="Helvetica,sans-Serif" font-size="10.00">Ogre::Win32EGLWindow</text>
</a>
</g>
</g>
<!-- Node1&#45;&gt;Node8 -->
<g id="edge7" class="edge">
<title>Node1&#45;&gt;Node8</title>
<path fill="none" stroke="midnightblue" d="M574.86,-57.79C586.67,-56.44 599.12,-55.02 611.06,-53.66"/>
<polygon fill="midnightblue" stroke="midnightblue" points="574.21,-54.34 564.67,-58.95 575,-61.3 574.21,-54.34"/>
</g>
<!-- Node9 -->
<g id="node9" class="node">
<title>Node9</title>
<g id="a_node9"><a xlink:href="class_ogre_1_1_x11_e_g_l_window.html" target="_top" xlink:title=" ">
<polygon fill="none" stroke="black" points="616.88,-0.5 616.88,-18.5 732.56,-18.5 732.56,-0.5 616.88,-0.5"/>
<text text-anchor="middle" x="674.72" y="-6.5" font-family="Helvetica,sans-Serif" font-size="10.00">Ogre::X11EGLWindow</text>
</a>
</g>
</g>
<!-- Node1&#45;&gt;Node9 -->
<g id="edge8" class="edge">
<title>Node1&#45;&gt;Node9</title>
<path fill="none" stroke="midnightblue" d="M543.58,-51C559.83,-43.38 580.97,-34.09 600.4,-27.5 610.33,-24.13 621.22,-21.11 631.49,-18.55"/>
<polygon fill="midnightblue" stroke="midnightblue" points="541.67,-48.03 534.15,-55.48 544.68,-54.35 541.67,-48.03"/>
</g>
<!-- Node2 -->
<g id="node2" class="node">
<title>Node2</title>
<g id="a_node2"><a xlink:href="class_ogre_1_1_render_window.html" target="_top" xlink:title="Manages the target rendering window.">
<polygon fill="none" stroke="black" points="317.62,-55.5 317.62,-73.5 429.78,-73.5 429.78,-55.5 317.62,-55.5"/>
<text text-anchor="middle" x="373.7" y="-61.5" font-family="Helvetica,sans-Serif" font-size="10.00">Ogre::RenderWindow</text>
</a>
</g>
</g>
<!-- Node2&#45;&gt;Node1 -->
<g id="edge1" class="edge">
<title>Node2&#45;&gt;Node1</title>
<path fill="none" stroke="midnightblue" d="M439.91,-64.5C448.6,-64.5 457.38,-64.5 465.72,-64.5"/>
<polygon fill="midnightblue" stroke="midnightblue" points="439.79,-61 429.79,-64.5 439.79,-68 439.79,-61"/>
</g>
<!-- Node3 -->
<g id="node3" class="node">
<title>Node3</title>
<g id="a_node3"><a xlink:href="class_ogre_1_1_render_target.html" target="_top" xlink:title="A &#39;canvas&#39; which can receive the results of a rendering operation.">
<polygon fill="none" stroke="black" points="177.24,-55.5 177.24,-73.5 281.62,-73.5 281.62,-55.5 177.24,-55.5"/>
<text text-anchor="middle" x="229.43" y="-61.5" font-family="Helvetica,sans-Serif" font-size="10.00">Ogre::RenderTarget</text>
</a>
</g>
</g>
<!-- Node3&#45;&gt;Node2 -->
<g id="edge2" class="edge">
<title>Node3&#45;&gt;Node2</title>
<path fill="none" stroke="midnightblue" d="M292.03,-64.5C300.52,-64.5 309.2,-64.5 317.57,-64.5"/>
<polygon fill="midnightblue" stroke="midnightblue" points="291.79,-61 281.79,-64.5 291.79,-68 291.79,-61"/>
</g>
<!-- Node4 -->
<g id="node4" class="node">
<title>Node4</title>
<g id="a_node4"><a xlink:href="struct_ogre_1_1_gpu_tracked_resource.html" target="_top" xlink:title=" ">
<polygon fill="none" stroke="black" points="0,-74.5 0,-92.5 141.24,-92.5 141.24,-74.5 0,-74.5"/>
<text text-anchor="middle" x="70.62" y="-80.5" font-family="Helvetica,sans-Serif" font-size="10.00">Ogre::GpuTrackedResource</text>
</a>
</g>
</g>
<!-- Node4&#45;&gt;Node3 -->
<g id="edge3" class="edge">
<title>Node4&#45;&gt;Node3</title>
<path fill="none" stroke="midnightblue" d="M151.43,-73.83C160.06,-72.78 168.67,-71.74 176.83,-70.75"/>
<polygon fill="midnightblue" stroke="midnightblue" points="150.82,-70.38 141.32,-75.06 151.66,-77.33 150.82,-70.38"/>
</g>
<!-- Node5 -->
<g id="node5" class="node">
<title>Node5</title>
<g id="a_node5"><a xlink:href="class_ogre_1_1_allocated_object.html" target="_top" xlink:title="Superclass for all objects that wish to use custom memory allocators when their new / delete operator...">
<polygon fill="none" stroke="black" points="27.05,-37.5 27.05,-55.5 114.19,-55.5 114.19,-37.5 27.05,-37.5"/>
<text text-anchor="middle" x="70.62" y="-43.5" font-family="Helvetica,sans-Serif" font-size="10.00">RenderSysAlloc</text>
</a>
</g>
</g>
<!-- Node5&#45;&gt;Node3 -->
<g id="edge4" class="edge">
<title>Node5&#45;&gt;Node3</title>
<path fill="none" stroke="midnightblue" d="M124.72,-52.6C141.6,-54.53 160.23,-56.67 176.99,-58.6"/>
<polygon fill="midnightblue" stroke="midnightblue" points="124.81,-49.08 114.47,-51.42 124.01,-56.04 124.81,-49.08"/>
</g>
</g>
</svg>
