<?xml version="1.0" encoding="UTF-8" standalone="no"?>
<!DOCTYPE svg PUBLIC "-//W3C//DTD SVG 1.1//EN"
 "http://www.w3.org/Graphics/SVG/1.1/DTD/svg11.dtd">
<!-- Generated by graphviz version 2.43.0 (0)
 -->
<!-- Title: Ogre::GLES2NullTexture Pages: 1 -->
<svg width="172pt" height="137pt"
 viewBox="0.00 0.00 172.37 137.00" xmlns="http://www.w3.org/2000/svg" xmlns:xlink="http://www.w3.org/1999/xlink">
<g id="graph0" class="graph" transform="scale(1 1) rotate(0) translate(4 133)">
<title>Ogre::GLES2NullTexture</title>
<!-- Node1 -->
<g id="node1" class="node">
<title>Node1</title>
<g id="a_node1"><a xlink:title=" ">
<polygon fill="#bfbfbf" stroke="black" points="19.16,-0.5 19.16,-18.5 145.21,-18.5 145.21,-0.5 19.16,-0.5"/>
<text text-anchor="middle" x="82.18" y="-6.5" font-family="Helvetica,sans-Serif" font-size="10.00">Ogre::GLES2NullTexture</text>
</a>
</g>
</g>
<!-- Node2 -->
<g id="node2" class="node">
<title>Node2</title>
<g id="a_node2"><a xlink:href="class_ogre_1_1_g_l_e_s2_texture.html" target="_top" xlink:title=" ">
<polygon fill="none" stroke="black" points="27.77,-55.5 27.77,-73.5 136.6,-73.5 136.6,-55.5 27.77,-55.5"/>
<text text-anchor="middle" x="82.18" y="-61.5" font-family="Helvetica,sans-Serif" font-size="10.00">Ogre::GLES2Texture</text>
</a>
</g>
</g>
<!-- Node2&#45;&gt;Node1 -->
<g id="edge1" class="edge">
<title>Node2&#45;&gt;Node1</title>
<path fill="none" stroke="midnightblue" d="M82.18,-45.17C82.18,-36.09 82.18,-25.59 82.18,-18.55"/>
<polygon fill="midnightblue" stroke="midnightblue" points="78.68,-45.22 82.18,-55.22 85.68,-45.22 78.68,-45.22"/>
</g>
<!-- Node3 -->
<g id="node3" class="node">
<title>Node3</title>
<g id="a_node3"><a xlink:title=" ">
<polygon fill="none" stroke="#bfbfbf" points="0,-110.5 0,-128.5 164.37,-128.5 164.37,-110.5 0,-110.5"/>
<text text-anchor="middle" x="82.18" y="-116.5" font-family="Helvetica,sans-Serif" font-size="10.00">Texture MANAGED_RESOURCE</text>
</a>
</g>
</g>
<!-- Node3&#45;&gt;Node2 -->
<g id="edge2" class="edge">
<title>Node3&#45;&gt;Node2</title>
<path fill="none" stroke="midnightblue" d="M82.18,-100.17C82.18,-91.09 82.18,-80.59 82.18,-73.55"/>
<polygon fill="midnightblue" stroke="midnightblue" points="78.68,-100.22 82.18,-110.22 85.68,-100.22 78.68,-100.22"/>
</g>
</g>
</svg>
