<?xml version="1.0" encoding="UTF-8" standalone="no"?>
<!DOCTYPE svg PUBLIC "-//W3C//DTD SVG 1.1//EN"
 "http://www.w3.org/Graphics/SVG/1.1/DTD/svg11.dtd">
<!-- Generated by graphviz version 2.43.0 (0)
 -->
<!-- Title: Ogre::ParticleSystemTranslator Pages: 1 -->
<svg width="163pt" height="137pt"
 viewBox="0.00 0.00 163.12 137.00" xmlns="http://www.w3.org/2000/svg" xmlns:xlink="http://www.w3.org/1999/xlink">
<g id="graph0" class="graph" transform="scale(1 1) rotate(0) translate(4 133)">
<title>Ogre::ParticleSystemTranslator</title>
<!-- Node1 -->
<g id="node1" class="node">
<title>Node1</title>
<g id="a_node1"><a xlink:title=" ">
<polygon fill="#bfbfbf" stroke="black" points="0,-0.5 0,-18.5 155.12,-18.5 155.12,-0.5 0,-0.5"/>
<text text-anchor="middle" x="77.56" y="-6.5" font-family="Helvetica,sans-Serif" font-size="10.00">Ogre::ParticleSystemTranslator</text>
</a>
</g>
</g>
<!-- Node2 -->
<g id="node2" class="node">
<title>Node2</title>
<g id="a_node2"><a xlink:href="class_ogre_1_1_script_translator.html" target="_top" xlink:title="This class translates script AST (abstract syntax tree) into Ogre resources.">
<polygon fill="none" stroke="black" points="20.56,-55.5 20.56,-73.5 134.56,-73.5 134.56,-55.5 20.56,-55.5"/>
<text text-anchor="middle" x="77.56" y="-61.5" font-family="Helvetica,sans-Serif" font-size="10.00">Ogre::ScriptTranslator</text>
</a>
</g>
</g>
<!-- Node2&#45;&gt;Node1 -->
<g id="edge1" class="edge">
<title>Node2&#45;&gt;Node1</title>
<path fill="none" stroke="midnightblue" d="M77.56,-45.17C77.56,-36.09 77.56,-25.59 77.56,-18.55"/>
<polygon fill="midnightblue" stroke="midnightblue" points="74.06,-45.22 77.56,-55.22 81.06,-45.22 74.06,-45.22"/>
</g>
<!-- Node3 -->
<g id="node3" class="node">
<title>Node3</title>
<g id="a_node3"><a xlink:href="class_ogre_1_1_allocated_object.html" target="_top" xlink:title="Superclass for all objects that wish to use custom memory allocators when their new / delete operator...">
<polygon fill="none" stroke="black" points="23.62,-110.5 23.62,-128.5 131.5,-128.5 131.5,-110.5 23.62,-110.5"/>
<text text-anchor="middle" x="77.56" y="-116.5" font-family="Helvetica,sans-Serif" font-size="10.00">ScriptTranslatorAlloc</text>
</a>
</g>
</g>
<!-- Node3&#45;&gt;Node2 -->
<g id="edge2" class="edge">
<title>Node3&#45;&gt;Node2</title>
<path fill="none" stroke="midnightblue" d="M77.56,-100.17C77.56,-91.09 77.56,-80.59 77.56,-73.55"/>
<polygon fill="midnightblue" stroke="midnightblue" points="74.06,-100.22 77.56,-110.22 81.06,-100.22 74.06,-100.22"/>
</g>
</g>
</svg>
