<?xml version="1.0" encoding="UTF-8" standalone="no"?>
<!DOCTYPE svg PUBLIC "-//W3C//DTD SVG 1.1//EN"
 "http://www.w3.org/Graphics/SVG/1.1/DTD/svg11.dtd">
<!-- Generated by graphviz version 2.43.0 (0)
 -->
<!-- Title: Ogre::HlmsLowLevelDatablock Pages: 1 -->
<svg width="161pt" height="137pt"
 viewBox="0.00 0.00 161.28 137.00" xmlns="http://www.w3.org/2000/svg" xmlns:xlink="http://www.w3.org/1999/xlink">
<g id="graph0" class="graph" transform="scale(1 1) rotate(0) translate(4 133)">
<title>Ogre::HlmsLowLevelDatablock</title>
<!-- Node1 -->
<g id="node1" class="node">
<title>Node1</title>
<g id="a_node1"><a xlink:title="Contains information needed by the UI (2D) for OpenGL ES 2.0.">
<polygon fill="#bfbfbf" stroke="black" points="0,-0.5 0,-18.5 153.28,-18.5 153.28,-0.5 0,-0.5"/>
<text text-anchor="middle" x="76.64" y="-6.5" font-family="Helvetica,sans-Serif" font-size="10.00">Ogre::HlmsLowLevelDatablock</text>
</a>
</g>
</g>
<!-- Node2 -->
<g id="node2" class="node">
<title>Node2</title>
<g id="a_node2"><a xlink:href="class_ogre_1_1_hlms_datablock.html" target="_top" xlink:title="An hlms datablock contains individual information about a specific material.">
<polygon fill="none" stroke="black" points="21.13,-55.5 21.13,-73.5 132.15,-73.5 132.15,-55.5 21.13,-55.5"/>
<text text-anchor="middle" x="76.64" y="-61.5" font-family="Helvetica,sans-Serif" font-size="10.00">Ogre::HlmsDatablock</text>
</a>
</g>
</g>
<!-- Node2&#45;&gt;Node1 -->
<g id="edge1" class="edge">
<title>Node2&#45;&gt;Node1</title>
<path fill="none" stroke="midnightblue" d="M76.64,-45.17C76.64,-36.09 76.64,-25.59 76.64,-18.55"/>
<polygon fill="midnightblue" stroke="midnightblue" points="73.14,-45.22 76.64,-55.22 80.14,-45.22 73.14,-45.22"/>
</g>
<!-- Node3 -->
<g id="node3" class="node">
<title>Node3</title>
<g id="a_node3"><a xlink:href="class_ogre_1_1_allocated_object.html" target="_top" xlink:title="Superclass for all objects that wish to use custom memory allocators when their new / delete operator...">
<polygon fill="none" stroke="black" points="46.69,-110.5 46.69,-128.5 106.59,-128.5 106.59,-110.5 46.69,-110.5"/>
<text text-anchor="middle" x="76.64" y="-116.5" font-family="Helvetica,sans-Serif" font-size="10.00">PassAlloc</text>
</a>
</g>
</g>
<!-- Node3&#45;&gt;Node2 -->
<g id="edge2" class="edge">
<title>Node3&#45;&gt;Node2</title>
<path fill="none" stroke="midnightblue" d="M76.64,-100.17C76.64,-91.09 76.64,-80.59 76.64,-73.55"/>
<polygon fill="midnightblue" stroke="midnightblue" points="73.14,-100.22 76.64,-110.22 80.14,-100.22 73.14,-100.22"/>
</g>
</g>
</svg>
