<?xml version="1.0" encoding="UTF-8" standalone="no"?>
<!DOCTYPE svg PUBLIC "-//W3C//DTD SVG 1.1//EN"
 "http://www.w3.org/Graphics/SVG/1.1/DTD/svg11.dtd">
<!-- Generated by graphviz version 2.43.0 (0)
 -->
<!-- Title: Ogre::D3D9GpuFragmentProgram Pages: 1 -->
<svg width="299pt" height="247pt"
 viewBox="0.00 0.00 299.49 247.00" xmlns="http://www.w3.org/2000/svg" xmlns:xlink="http://www.w3.org/1999/xlink">
<g id="graph0" class="graph" transform="scale(1 1) rotate(0) translate(4 243)">
<title>Ogre::D3D9GpuFragmentProgram</title>
<!-- Node1 -->
<g id="node1" class="node">
<title>Node1</title>
<g id="a_node1"><a xlink:title="Direct3D implementation of low&#45;level fragment programs.">
<polygon fill="#bfbfbf" stroke="black" points="87.71,-0.5 87.71,-18.5 257.11,-18.5 257.11,-0.5 87.71,-0.5"/>
<text text-anchor="middle" x="172.41" y="-6.5" font-family="Helvetica,sans-Serif" font-size="10.00">Ogre::D3D9GpuFragmentProgram</text>
</a>
</g>
</g>
<!-- Node2 -->
<g id="node2" class="node">
<title>Node2</title>
<g id="a_node2"><a xlink:href="class_ogre_1_1_d3_d9_gpu_program.html" target="_top" xlink:title="Direct3D implementation of a few things common to low&#45;level vertex &amp; fragment programs.">
<polygon fill="none" stroke="black" points="109.11,-55.5 109.11,-73.5 235.71,-73.5 235.71,-55.5 109.11,-55.5"/>
<text text-anchor="middle" x="172.41" y="-61.5" font-family="Helvetica,sans-Serif" font-size="10.00">Ogre::D3D9GpuProgram</text>
</a>
</g>
</g>
<!-- Node2&#45;&gt;Node1 -->
<g id="edge1" class="edge">
<title>Node2&#45;&gt;Node1</title>
<path fill="none" stroke="midnightblue" d="M172.41,-45.17C172.41,-36.09 172.41,-25.59 172.41,-18.55"/>
<polygon fill="midnightblue" stroke="midnightblue" points="168.91,-45.22 172.41,-55.22 175.91,-45.22 168.91,-45.22"/>
</g>
<!-- Node3 -->
<g id="node3" class="node">
<title>Node3</title>
<g id="a_node3"><a xlink:href="class_ogre_1_1_gpu_program.html" target="_top" xlink:title="Defines a program which runs on the GPU such as a vertex or fragment program.">
<polygon fill="none" stroke="black" points="59.89,-110.5 59.89,-128.5 160.93,-128.5 160.93,-110.5 59.89,-110.5"/>
<text text-anchor="middle" x="110.41" y="-116.5" font-family="Helvetica,sans-Serif" font-size="10.00">Ogre::GpuProgram</text>
</a>
</g>
</g>
<!-- Node3&#45;&gt;Node2 -->
<g id="edge2" class="edge">
<title>Node3&#45;&gt;Node2</title>
<path fill="none" stroke="midnightblue" d="M127.46,-103.93C138.88,-94.16 153.5,-81.67 162.91,-73.63"/>
<polygon fill="midnightblue" stroke="midnightblue" points="125.15,-101.29 119.83,-110.45 129.7,-106.61 125.15,-101.29"/>
</g>
<!-- Node4 -->
<g id="node4" class="node">
<title>Node4</title>
<g id="a_node4"><a xlink:href="class_ogre_1_1_resource.html" target="_top" xlink:title="Abstract class representing a loadable resource (e.g.">
<polygon fill="none" stroke="black" points="67.12,-165.5 67.12,-183.5 153.7,-183.5 153.7,-165.5 67.12,-165.5"/>
<text text-anchor="middle" x="110.41" y="-171.5" font-family="Helvetica,sans-Serif" font-size="10.00">Ogre::Resource</text>
</a>
</g>
</g>
<!-- Node4&#45;&gt;Node3 -->
<g id="edge3" class="edge">
<title>Node4&#45;&gt;Node3</title>
<path fill="none" stroke="midnightblue" d="M110.41,-155.17C110.41,-146.09 110.41,-135.59 110.41,-128.55"/>
<polygon fill="midnightblue" stroke="midnightblue" points="106.91,-155.22 110.41,-165.22 113.91,-155.22 106.91,-155.22"/>
</g>
<!-- Node5 -->
<g id="node5" class="node">
<title>Node5</title>
<g id="a_node5"><a xlink:href="class_ogre_1_1_string_interface.html" target="_top" xlink:title="Class defining the common interface which classes can use to present a reflection&#45;style,...">
<polygon fill="none" stroke="black" points="0,-220.5 0,-238.5 108.82,-238.5 108.82,-220.5 0,-220.5"/>
<text text-anchor="middle" x="54.41" y="-226.5" font-family="Helvetica,sans-Serif" font-size="10.00">Ogre::StringInterface</text>
</a>
</g>
</g>
<!-- Node5&#45;&gt;Node4 -->
<g id="edge4" class="edge">
<title>Node5&#45;&gt;Node4</title>
<path fill="none" stroke="midnightblue" d="M70.67,-213.11C80.89,-203.44 93.64,-191.37 101.91,-183.55"/>
<polygon fill="midnightblue" stroke="midnightblue" points="68.02,-210.8 63.16,-220.22 72.83,-215.89 68.02,-210.8"/>
</g>
<!-- Node6 -->
<g id="node6" class="node">
<title>Node6</title>
<g id="a_node6"><a xlink:href="class_ogre_1_1_allocated_object.html" target="_top" xlink:title="Superclass for all objects that wish to use custom memory allocators when their new / delete operator...">
<polygon fill="none" stroke="black" points="127.17,-220.5 127.17,-238.5 207.65,-238.5 207.65,-220.5 127.17,-220.5"/>
<text text-anchor="middle" x="167.41" y="-226.5" font-family="Helvetica,sans-Serif" font-size="10.00">ResourceAlloc</text>
</a>
</g>
</g>
<!-- Node6&#45;&gt;Node4 -->
<g id="edge5" class="edge">
<title>Node6&#45;&gt;Node4</title>
<path fill="none" stroke="midnightblue" d="M151.17,-213.4C140.72,-203.68 127.56,-191.45 119.07,-183.55"/>
<polygon fill="midnightblue" stroke="midnightblue" points="148.8,-215.97 158.5,-220.22 153.56,-210.85 148.8,-215.97"/>
</g>
<!-- Node7 -->
<g id="node7" class="node">
<title>Node7</title>
<g id="a_node7"><a xlink:href="class_ogre_1_1_d3_d9_resource.html" target="_top" xlink:title="Represents a Direct3D rendering resource.">
<polygon fill="none" stroke="black" points="179.33,-110.5 179.33,-128.5 291.49,-128.5 291.49,-110.5 179.33,-110.5"/>
<text text-anchor="middle" x="235.41" y="-116.5" font-family="Helvetica,sans-Serif" font-size="10.00">Ogre::D3D9Resource</text>
</a>
</g>
</g>
<!-- Node7&#45;&gt;Node2 -->
<g id="edge6" class="edge">
<title>Node7&#45;&gt;Node2</title>
<path fill="none" stroke="midnightblue" d="M218.09,-103.93C206.48,-94.16 191.63,-81.67 182.07,-73.63"/>
<polygon fill="midnightblue" stroke="midnightblue" points="215.94,-106.69 225.84,-110.45 220.44,-101.33 215.94,-106.69"/>
</g>
</g>
</svg>
