<?xml version="1.0" encoding="UTF-8" standalone="no"?>
<!DOCTYPE svg PUBLIC "-//W3C//DTD SVG 1.1//EN"
 "http://www.w3.org/Graphics/SVG/1.1/DTD/svg11.dtd">
<!-- Generated by graphviz version 2.43.0 (0)
 -->
<!-- Title: Ogre::PCZoneFactory Pages: 1 -->
<svg width="288pt" height="137pt"
 viewBox="0.00 0.00 287.77 137.00" xmlns="http://www.w3.org/2000/svg" xmlns:xlink="http://www.w3.org/1999/xlink">
<g id="graph0" class="graph" transform="scale(1 1) rotate(0) translate(4 133)">
<title>Ogre::PCZoneFactory</title>
<!-- Node1 -->
<g id="node1" class="node">
<title>Node1</title>
<g id="a_node1"><a xlink:title="Factory for PCZones.">
<polygon fill="#bfbfbf" stroke="black" points="82.9,-55.5 82.9,-73.5 196.71,-73.5 196.71,-55.5 82.9,-55.5"/>
<text text-anchor="middle" x="139.8" y="-61.5" font-family="Helvetica,sans-Serif" font-size="10.00">Ogre::PCZoneFactory</text>
</a>
</g>
</g>
<!-- Node3 -->
<g id="node3" class="node">
<title>Node3</title>
<g id="a_node3"><a xlink:href="class_ogre_1_1_default_zone_factory.html" target="_top" xlink:title=" ">
<polygon fill="none" stroke="black" points="0,-0.5 0,-18.5 131.61,-18.5 131.61,-0.5 0,-0.5"/>
<text text-anchor="middle" x="65.8" y="-6.5" font-family="Helvetica,sans-Serif" font-size="10.00">Ogre::DefaultZoneFactory</text>
</a>
</g>
</g>
<!-- Node1&#45;&gt;Node3 -->
<g id="edge2" class="edge">
<title>Node1&#45;&gt;Node3</title>
<path fill="none" stroke="midnightblue" d="M120.24,-49.49C106.5,-39.65 88.6,-26.83 77.15,-18.63"/>
<polygon fill="midnightblue" stroke="midnightblue" points="118.4,-52.47 128.56,-55.45 122.47,-46.78 118.4,-52.47"/>
</g>
<!-- Node4 -->
<g id="node4" class="node">
<title>Node4</title>
<g id="a_node4"><a xlink:href="class_ogre_1_1_octree_zone_factory.html" target="_top" xlink:title="Factory for OctreeZone.">
<polygon fill="none" stroke="black" points="149.84,-0.5 149.84,-18.5 279.77,-18.5 279.77,-0.5 149.84,-0.5"/>
<text text-anchor="middle" x="214.8" y="-6.5" font-family="Helvetica,sans-Serif" font-size="10.00">Ogre::OctreeZoneFactory</text>
</a>
</g>
</g>
<!-- Node1&#45;&gt;Node4 -->
<g id="edge3" class="edge">
<title>Node1&#45;&gt;Node4</title>
<path fill="none" stroke="midnightblue" d="M159.63,-49.49C173.55,-39.65 191.7,-26.83 203.3,-18.63"/>
<polygon fill="midnightblue" stroke="midnightblue" points="157.34,-46.82 151.19,-55.45 161.38,-52.54 157.34,-46.82"/>
</g>
<!-- Node2 -->
<g id="node2" class="node">
<title>Node2</title>
<g id="a_node2"><a xlink:href="class_ogre_1_1_allocated_object.html" target="_top" xlink:title="Superclass for all objects that wish to use custom memory allocators when their new / delete operator...">
<polygon fill="none" stroke="black" points="76.5,-110.5 76.5,-128.5 203.11,-128.5 203.11,-110.5 76.5,-110.5"/>
<text text-anchor="middle" x="139.8" y="-116.5" font-family="Helvetica,sans-Serif" font-size="10.00">SceneCtlAllocatedObject</text>
</a>
</g>
</g>
<!-- Node2&#45;&gt;Node1 -->
<g id="edge1" class="edge">
<title>Node2&#45;&gt;Node1</title>
<path fill="none" stroke="midnightblue" d="M139.8,-100.17C139.8,-91.09 139.8,-80.59 139.8,-73.55"/>
<polygon fill="midnightblue" stroke="midnightblue" points="136.3,-100.22 139.8,-110.22 143.3,-100.22 136.3,-100.22"/>
</g>
</g>
</svg>
