<?xml version="1.0" encoding="UTF-8" standalone="no"?>
<!DOCTYPE svg PUBLIC "-//W3C//DTD SVG 1.1//EN"
 "http://www.w3.org/Graphics/SVG/1.1/DTD/svg11.dtd">
<!-- Generated by graphviz version 2.43.0 (0)
 -->
<!-- Title: Ogre::ImageCodec2 Pages: 1 -->
<svg width="488pt" height="249pt"
 viewBox="0.00 0.00 487.93 249.00" xmlns="http://www.w3.org/2000/svg" xmlns:xlink="http://www.w3.org/1999/xlink">
<g id="graph0" class="graph" transform="scale(1 1) rotate(0) translate(4 245)">
<title>Ogre::ImageCodec2</title>
<!-- Node1 -->
<g id="node1" class="node">
<title>Node1</title>
<g id="a_node1"><a xlink:title="Codec specialized in images.">
<polygon fill="#bfbfbf" stroke="black" points="211.28,-111.5 211.28,-129.5 317.32,-129.5 317.32,-111.5 211.28,-111.5"/>
<text text-anchor="middle" x="264.3" y="-117.5" font-family="Helvetica,sans-Serif" font-size="10.00">Ogre::ImageCodec2</text>
</a>
</g>
</g>
<!-- Node4 -->
<g id="node4" class="node">
<title>Node4</title>
<g id="a_node4"><a xlink:href="class_ogre_1_1_a_s_t_c_codec.html" target="_top" xlink:title="Codec specialized in loading ASTC (ARM Adaptive Scalable Texture Compression) images.">
<polygon fill="none" stroke="black" points="366.95,-222.5 366.95,-240.5 466.31,-240.5 466.31,-222.5 366.95,-222.5"/>
<text text-anchor="middle" x="416.63" y="-228.5" font-family="Helvetica,sans-Serif" font-size="10.00">Ogre::ASTCCodec</text>
</a>
</g>
</g>
<!-- Node1&#45;&gt;Node4 -->
<g id="edge3" class="edge">
<title>Node1&#45;&gt;Node4</title>
<path fill="none" stroke="midnightblue" d="M277.3,-138.01C292.58,-158.98 320.91,-193.76 353.32,-213.5 359.29,-217.13 366.01,-220.06 372.79,-222.41"/>
<polygon fill="midnightblue" stroke="midnightblue" points="280.05,-135.83 271.41,-129.7 274.34,-139.88 280.05,-135.83"/>
</g>
<!-- Node5 -->
<g id="node5" class="node">
<title>Node5</title>
<g id="a_node5"><a xlink:href="class_ogre_1_1_d_d_s_codec2.html" target="_top" xlink:title="Codec specialized in loading DDS (Direct Draw Surface) images.">
<polygon fill="none" stroke="black" points="366.94,-185.5 366.94,-203.5 466.31,-203.5 466.31,-185.5 366.94,-185.5"/>
<text text-anchor="middle" x="416.63" y="-191.5" font-family="Helvetica,sans-Serif" font-size="10.00">Ogre::DDSCodec2</text>
</a>
</g>
</g>
<!-- Node1&#45;&gt;Node5 -->
<g id="edge4" class="edge">
<title>Node1&#45;&gt;Node5</title>
<path fill="none" stroke="midnightblue" d="M285.38,-135.64C302.64,-148.05 328.58,-165.33 353.32,-176.5 361.02,-179.97 369.56,-182.96 377.78,-185.44"/>
<polygon fill="midnightblue" stroke="midnightblue" points="287.34,-132.73 277.2,-129.65 283.2,-138.38 287.34,-132.73"/>
</g>
<!-- Node6 -->
<g id="node6" class="node">
<title>Node6</title>
<g id="a_node6"><a xlink:href="class_ogre_1_1_e_t_c_codec.html" target="_top" xlink:title="Codec specialized in loading ETC (Ericsson Texture Compression) images.">
<polygon fill="none" stroke="black" points="370.28,-148.5 370.28,-166.5 462.98,-166.5 462.98,-148.5 370.28,-148.5"/>
<text text-anchor="middle" x="416.63" y="-154.5" font-family="Helvetica,sans-Serif" font-size="10.00">Ogre::ETCCodec</text>
</a>
</g>
</g>
<!-- Node1&#45;&gt;Node6 -->
<g id="edge5" class="edge">
<title>Node1&#45;&gt;Node6</title>
<path fill="none" stroke="midnightblue" d="M312.01,-132C333.58,-137.3 358.81,-143.51 378.97,-148.48"/>
<polygon fill="midnightblue" stroke="midnightblue" points="312.62,-128.54 302.07,-129.55 310.95,-135.34 312.62,-128.54"/>
</g>
<!-- Node7 -->
<g id="node7" class="node">
<title>Node7</title>
<g id="a_node7"><a xlink:href="class_ogre_1_1_free_image_codec2.html" target="_top" xlink:title="Codec specialized in images loaded using FreeImage.">
<polygon fill="none" stroke="black" points="353.32,-111.5 353.32,-129.5 479.93,-129.5 479.93,-111.5 353.32,-111.5"/>
<text text-anchor="middle" x="416.63" y="-117.5" font-family="Helvetica,sans-Serif" font-size="10.00">Ogre::FreeImageCodec2</text>
</a>
</g>
</g>
<!-- Node1&#45;&gt;Node7 -->
<g id="edge6" class="edge">
<title>Node1&#45;&gt;Node7</title>
<path fill="none" stroke="midnightblue" d="M327.63,-120.5C336.08,-120.5 344.76,-120.5 353.22,-120.5"/>
<polygon fill="midnightblue" stroke="midnightblue" points="327.46,-117 317.46,-120.5 327.46,-124 327.46,-117"/>
</g>
<!-- Node8 -->
<g id="node8" class="node">
<title>Node8</title>
<g id="a_node8"><a xlink:href="class_ogre_1_1_o_i_t_d_codec.html" target="_top" xlink:title="Codec specialized in loading OITD (Ogre Internal Texture Dump) format.">
<polygon fill="none" stroke="black" points="368.34,-74.5 368.34,-92.5 464.92,-92.5 464.92,-74.5 368.34,-74.5"/>
<text text-anchor="middle" x="416.63" y="-80.5" font-family="Helvetica,sans-Serif" font-size="10.00">Ogre::OITDCodec</text>
</a>
</g>
</g>
<!-- Node1&#45;&gt;Node8 -->
<g id="edge7" class="edge">
<title>Node1&#45;&gt;Node8</title>
<path fill="none" stroke="midnightblue" d="M312.01,-109C333.58,-103.7 358.81,-97.49 378.97,-92.52"/>
<polygon fill="midnightblue" stroke="midnightblue" points="310.95,-105.66 302.07,-111.45 312.62,-112.46 310.95,-105.66"/>
</g>
<!-- Node9 -->
<g id="node9" class="node">
<title>Node9</title>
<g id="a_node9"><a xlink:href="class_ogre_1_1_p_v_r_t_c_codec.html" target="_top" xlink:title="Codec specialized in loading PVRTC (PowerVR) images.">
<polygon fill="none" stroke="black" points="363.42,-37.5 363.42,-55.5 469.83,-55.5 469.83,-37.5 363.42,-37.5"/>
<text text-anchor="middle" x="416.63" y="-43.5" font-family="Helvetica,sans-Serif" font-size="10.00">Ogre::PVRTCCodec</text>
</a>
</g>
</g>
<!-- Node1&#45;&gt;Node9 -->
<g id="edge8" class="edge">
<title>Node1&#45;&gt;Node9</title>
<path fill="none" stroke="midnightblue" d="M285.38,-105.36C302.64,-92.95 328.58,-75.67 353.32,-64.5 361.02,-61.03 369.56,-58.04 377.78,-55.56"/>
<polygon fill="midnightblue" stroke="midnightblue" points="283.2,-102.62 277.2,-111.35 287.34,-108.27 283.2,-102.62"/>
</g>
<!-- Node10 -->
<g id="node10" class="node">
<title>Node10</title>
<g id="a_node10"><a xlink:href="class_ogre_1_1_s_t_b_i_image_codec.html" target="_top" xlink:title="Codec specialized in images loaded using stbi (https://github.com/nothings/stb).">
<polygon fill="none" stroke="black" points="355.27,-0.5 355.27,-18.5 477.99,-18.5 477.99,-0.5 355.27,-0.5"/>
<text text-anchor="middle" x="416.63" y="-6.5" font-family="Helvetica,sans-Serif" font-size="10.00">Ogre::STBIImageCodec</text>
</a>
</g>
</g>
<!-- Node1&#45;&gt;Node10 -->
<g id="edge9" class="edge">
<title>Node1&#45;&gt;Node10</title>
<path fill="none" stroke="midnightblue" d="M277.3,-102.99C292.58,-82.02 320.91,-47.24 353.32,-27.5 359.29,-23.87 366.01,-20.94 372.79,-18.59"/>
<polygon fill="midnightblue" stroke="midnightblue" points="274.34,-101.12 271.41,-111.3 280.05,-105.17 274.34,-101.12"/>
</g>
<!-- Node2 -->
<g id="node2" class="node">
<title>Node2</title>
<g id="a_node2"><a xlink:href="class_ogre_1_1_codec.html" target="_top" xlink:title="Abstract class that defines a &#39;codec&#39;.">
<polygon fill="none" stroke="black" points="102.58,-111.5 102.58,-129.5 175.28,-129.5 175.28,-111.5 102.58,-111.5"/>
<text text-anchor="middle" x="138.93" y="-117.5" font-family="Helvetica,sans-Serif" font-size="10.00">Ogre::Codec</text>
</a>
</g>
</g>
<!-- Node2&#45;&gt;Node1 -->
<g id="edge1" class="edge">
<title>Node2&#45;&gt;Node1</title>
<path fill="none" stroke="midnightblue" d="M185.5,-120.5C193.77,-120.5 202.47,-120.5 210.93,-120.5"/>
<polygon fill="midnightblue" stroke="midnightblue" points="185.28,-117 175.28,-120.5 185.28,-124 185.28,-117"/>
</g>
<!-- Node3 -->
<g id="node3" class="node">
<title>Node3</title>
<g id="a_node3"><a xlink:href="class_ogre_1_1_allocated_object.html" target="_top" xlink:title="Superclass for all objects that wish to use custom memory allocators when their new / delete operator...">
<polygon fill="none" stroke="black" points="0,-111.5 0,-129.5 66.58,-129.5 66.58,-111.5 0,-111.5"/>
<text text-anchor="middle" x="33.29" y="-117.5" font-family="Helvetica,sans-Serif" font-size="10.00">CodecAlloc</text>
</a>
</g>
</g>
<!-- Node3&#45;&gt;Node2 -->
<g id="edge2" class="edge">
<title>Node3&#45;&gt;Node2</title>
<path fill="none" stroke="midnightblue" d="M76.87,-120.5C85.32,-120.5 94.11,-120.5 102.3,-120.5"/>
<polygon fill="midnightblue" stroke="midnightblue" points="76.8,-117 66.8,-120.5 76.8,-124 76.8,-117"/>
</g>
</g>
</svg>
