<?xml version="1.0" encoding="UTF-8" standalone="no"?>
<!DOCTYPE svg PUBLIC "-//W3C//DTD SVG 1.1//EN"
 "http://www.w3.org/Graphics/SVG/1.1/DTD/svg11.dtd">
<!-- Generated by graphviz version 2.43.0 (0)
 -->
<!-- Title: Ogre::HlmsManager Pages: 1 -->
<svg width="186pt" height="82pt"
 viewBox="0.00 0.00 186.47 82.00" xmlns="http://www.w3.org/2000/svg" xmlns:xlink="http://www.w3.org/1999/xlink">
<g id="graph0" class="graph" transform="scale(1 1) rotate(0) translate(4 78)">
<title>Ogre::HlmsManager</title>
<!-- Node1 -->
<g id="node1" class="node">
<title>Node1</title>
<g id="a_node1"><a xlink:title="HLMS stands for &quot;High Level Material System&quot;.">
<polygon fill="#bfbfbf" stroke="black" points="46.23,-0.5 46.23,-18.5 152.26,-18.5 152.26,-0.5 46.23,-0.5"/>
<text text-anchor="middle" x="99.24" y="-6.5" font-family="Helvetica,sans-Serif" font-size="10.00">Ogre::HlmsManager</text>
</a>
</g>
</g>
<!-- Node2 -->
<g id="node2" class="node">
<title>Node2</title>
<g id="a_node2"><a xlink:href="class_ogre_1_1_script_loader.html" target="_top" xlink:title="Abstract class defining the interface used by classes which wish to perform script loading to define ...">
<polygon fill="none" stroke="black" points="0,-55.5 0,-73.5 100.49,-73.5 100.49,-55.5 0,-55.5"/>
<text text-anchor="middle" x="50.24" y="-61.5" font-family="Helvetica,sans-Serif" font-size="10.00">Ogre::ScriptLoader</text>
</a>
</g>
</g>
<!-- Node2&#45;&gt;Node1 -->
<g id="edge1" class="edge">
<title>Node2&#45;&gt;Node1</title>
<path fill="none" stroke="midnightblue" d="M64.74,-47.82C73.63,-38.21 84.64,-26.29 91.8,-18.55"/>
<polygon fill="midnightblue" stroke="midnightblue" points="62.12,-45.5 57.9,-55.22 67.26,-50.25 62.12,-45.5"/>
</g>
<!-- Node3 -->
<g id="node3" class="node">
<title>Node3</title>
<g id="a_node3"><a xlink:href="class_ogre_1_1_allocated_object.html" target="_top" xlink:title="Superclass for all objects that wish to use custom memory allocators when their new / delete operator...">
<polygon fill="none" stroke="black" points="118.02,-55.5 118.02,-73.5 178.47,-73.5 178.47,-55.5 118.02,-55.5"/>
<text text-anchor="middle" x="148.24" y="-61.5" font-family="Helvetica,sans-Serif" font-size="10.00">HlmsAlloc</text>
</a>
</g>
</g>
<!-- Node3&#45;&gt;Node1 -->
<g id="edge2" class="edge">
<title>Node3&#45;&gt;Node1</title>
<path fill="none" stroke="midnightblue" d="M133.75,-47.82C124.86,-38.21 113.84,-26.29 106.69,-18.55"/>
<polygon fill="midnightblue" stroke="midnightblue" points="131.23,-50.25 140.59,-55.22 136.37,-45.5 131.23,-50.25"/>
</g>
</g>
</svg>
