<?xml version="1.0" encoding="UTF-8" standalone="no"?>
<!DOCTYPE svg PUBLIC "-//W3C//DTD SVG 1.1//EN"
 "http://www.w3.org/Graphics/SVG/1.1/DTD/svg11.dtd">
<!-- Generated by graphviz version 2.43.0 (0)
 -->
<!-- Title: Ogre::Root Pages: 1 -->
<svg width="208pt" height="82pt"
 viewBox="0.00 0.00 208.32 82.00" xmlns="http://www.w3.org/2000/svg" xmlns:xlink="http://www.w3.org/1999/xlink">
<g id="graph0" class="graph" transform="scale(1 1) rotate(0) translate(4 78)">
<title>Ogre::Root</title>
<!-- Node1 -->
<g id="node1" class="node">
<title>Node1</title>
<g id="a_node1"><a xlink:title="The root class of the Ogre system.">
<polygon fill="#bfbfbf" stroke="black" points="83.47,-0.5 83.47,-18.5 148.38,-18.5 148.38,-0.5 83.47,-0.5"/>
<text text-anchor="middle" x="115.92" y="-6.5" font-family="Helvetica,sans-Serif" font-size="10.00">Ogre::Root</text>
</a>
</g>
</g>
<!-- Node2 -->
<g id="node2" class="node">
<title>Node2</title>
<g id="a_node2"><a xlink:href="class_ogre_1_1_singleton.html" target="_top" xlink:title=" ">
<polygon fill="none" stroke="black" points="0,-55.5 0,-73.5 123.85,-73.5 123.85,-55.5 0,-55.5"/>
<text text-anchor="middle" x="61.92" y="-61.5" font-family="Helvetica,sans-Serif" font-size="10.00">Ogre::Singleton&lt; Root &gt;</text>
</a>
</g>
</g>
<!-- Node2&#45;&gt;Node1 -->
<g id="edge1" class="edge">
<title>Node2&#45;&gt;Node1</title>
<path fill="none" stroke="midnightblue" d="M77.6,-48.11C87.45,-38.44 99.75,-26.37 107.72,-18.55"/>
<polygon fill="midnightblue" stroke="midnightblue" points="75.05,-45.72 70.36,-55.22 79.95,-50.71 75.05,-45.72"/>
</g>
<!-- Node3 -->
<g id="node3" class="node">
<title>Node3</title>
<g id="a_node3"><a xlink:href="class_ogre_1_1_allocated_object.html" target="_top" xlink:title="Superclass for all objects that wish to use custom memory allocators when their new / delete operator...">
<polygon fill="none" stroke="black" points="141.52,-55.5 141.52,-73.5 200.32,-73.5 200.32,-55.5 141.52,-55.5"/>
<text text-anchor="middle" x="170.92" y="-61.5" font-family="Helvetica,sans-Serif" font-size="10.00">RootAlloc</text>
</a>
</g>
</g>
<!-- Node3&#45;&gt;Node1 -->
<g id="edge2" class="edge">
<title>Node3&#45;&gt;Node1</title>
<path fill="none" stroke="midnightblue" d="M154.95,-48.11C144.92,-38.44 132.39,-26.37 124.28,-18.55"/>
<polygon fill="midnightblue" stroke="midnightblue" points="152.7,-50.8 162.33,-55.22 157.56,-45.76 152.7,-50.8"/>
</g>
</g>
</svg>
