<?xml version="1.0" encoding="UTF-8" standalone="no"?>
<!DOCTYPE svg PUBLIC "-//W3C//DTD SVG 1.1//EN"
 "http://www.w3.org/Graphics/SVG/1.1/DTD/svg11.dtd">
<!-- Generated by graphviz version 2.43.0 (0)
 -->
<!-- Title: Ogre::v1::MeshSerializer Pages: 1 -->
<svg width="134pt" height="137pt"
 viewBox="0.00 0.00 134.04 137.00" xmlns="http://www.w3.org/2000/svg" xmlns:xlink="http://www.w3.org/1999/xlink">
<g id="graph0" class="graph" transform="scale(1 1) rotate(0) translate(4 133)">
<title>Ogre::v1::MeshSerializer</title>
<!-- Node1 -->
<g id="node1" class="node">
<title>Node1</title>
<g id="a_node1"><a xlink:title="Class for serialising mesh data to/from an OGRE .mesh file.">
<polygon fill="#bfbfbf" stroke="black" points="0,-0.5 0,-18.5 126.04,-18.5 126.04,-0.5 0,-0.5"/>
<text text-anchor="middle" x="63.02" y="-6.5" font-family="Helvetica,sans-Serif" font-size="10.00">Ogre::v1::MeshSerializer</text>
</a>
</g>
</g>
<!-- Node2 -->
<g id="node2" class="node">
<title>Node2</title>
<g id="a_node2"><a xlink:href="class_ogre_1_1_serializer.html" target="_top" xlink:title="Generic class for serialising data to / from binary stream&#45;based files.">
<polygon fill="none" stroke="black" points="20.29,-55.5 20.29,-73.5 105.75,-73.5 105.75,-55.5 20.29,-55.5"/>
<text text-anchor="middle" x="63.02" y="-61.5" font-family="Helvetica,sans-Serif" font-size="10.00">Ogre::Serializer</text>
</a>
</g>
</g>
<!-- Node2&#45;&gt;Node1 -->
<g id="edge1" class="edge">
<title>Node2&#45;&gt;Node1</title>
<path fill="none" stroke="midnightblue" d="M63.02,-45.17C63.02,-36.09 63.02,-25.59 63.02,-18.55"/>
<polygon fill="midnightblue" stroke="midnightblue" points="59.52,-45.22 63.02,-55.22 66.52,-45.22 59.52,-45.22"/>
</g>
<!-- Node3 -->
<g id="node3" class="node">
<title>Node3</title>
<g id="a_node3"><a xlink:href="class_ogre_1_1_allocated_object.html" target="_top" xlink:title="Superclass for all objects that wish to use custom memory allocators when their new / delete operator...">
<polygon fill="none" stroke="black" points="23.34,-110.5 23.34,-128.5 102.7,-128.5 102.7,-110.5 23.34,-110.5"/>
<text text-anchor="middle" x="63.02" y="-116.5" font-family="Helvetica,sans-Serif" font-size="10.00">SerializerAlloc</text>
</a>
</g>
</g>
<!-- Node3&#45;&gt;Node2 -->
<g id="edge2" class="edge">
<title>Node3&#45;&gt;Node2</title>
<path fill="none" stroke="midnightblue" d="M63.02,-100.17C63.02,-91.09 63.02,-80.59 63.02,-73.55"/>
<polygon fill="midnightblue" stroke="midnightblue" points="59.52,-100.22 63.02,-110.22 66.52,-100.22 59.52,-100.22"/>
</g>
</g>
</svg>
