<?xml version="1.0" encoding="UTF-8" standalone="no"?>
<!DOCTYPE svg PUBLIC "-//W3C//DTD SVG 1.1//EN"
 "http://www.w3.org/Graphics/SVG/1.1/DTD/svg11.dtd">
<!-- Generated by graphviz version 2.43.0 (0)
 -->
<!-- Title: Ogre::ScreenRatioPixelCountLodStrategy Pages: 1 -->
<svg width="584pt" height="74pt"
 viewBox="0.00 0.00 584.12 74.00" xmlns="http://www.w3.org/2000/svg" xmlns:xlink="http://www.w3.org/1999/xlink">
<g id="graph0" class="graph" transform="scale(1 1) rotate(0) translate(4 70)">
<title>Ogre::ScreenRatioPixelCountLodStrategy</title>
<!-- Node1 -->
<g id="node1" class="node">
<title>Node1</title>
<g id="a_node1"><a xlink:title=" ">
<polygon fill="#bfbfbf" stroke="black" points="428.94,-21.5 428.94,-49.5 576.12,-49.5 576.12,-21.5 428.94,-21.5"/>
<text text-anchor="start" x="436.94" y="-37.5" font-family="Helvetica,sans-Serif" font-size="10.00">Ogre::ScreenRatioPixelCount</text>
<text text-anchor="middle" x="502.53" y="-27.5" font-family="Helvetica,sans-Serif" font-size="10.00">LodStrategy</text>
</a>
</g>
</g>
<!-- Node2 -->
<g id="node2" class="node">
<title>Node2</title>
<g id="a_node2"><a xlink:href="class_ogre_1_1_pixel_count_lod_strategy_base.html" target="_top" xlink:title="Abstract base class for level of detail strategy based on pixel count approximations from bounding sp...">
<polygon fill="none" stroke="black" points="224.07,-47.5 224.07,-65.5 392.94,-65.5 392.94,-47.5 224.07,-47.5"/>
<text text-anchor="middle" x="308.51" y="-53.5" font-family="Helvetica,sans-Serif" font-size="10.00">Ogre::PixelCountLodStrategyBase</text>
</a>
</g>
</g>
<!-- Node2&#45;&gt;Node1 -->
<g id="edge1" class="edge">
<title>Node2&#45;&gt;Node1</title>
<path fill="none" stroke="midnightblue" d="M402.11,-46.37C411.05,-45.4 420.02,-44.41 428.73,-43.46"/>
<polygon fill="midnightblue" stroke="midnightblue" points="401.62,-42.91 392.06,-47.47 402.38,-49.86 401.62,-42.91"/>
</g>
<!-- Node3 -->
<g id="node3" class="node">
<title>Node3</title>
<g id="a_node3"><a xlink:href="class_ogre_1_1_lod_strategy.html" target="_top" xlink:title="Strategy for determining level of detail.">
<polygon fill="none" stroke="black" points="90.36,-47.5 90.36,-65.5 188.07,-65.5 188.07,-47.5 90.36,-47.5"/>
<text text-anchor="middle" x="139.22" y="-53.5" font-family="Helvetica,sans-Serif" font-size="10.00">Ogre::LodStrategy</text>
</a>
</g>
</g>
<!-- Node3&#45;&gt;Node2 -->
<g id="edge2" class="edge">
<title>Node3&#45;&gt;Node2</title>
<path fill="none" stroke="midnightblue" d="M198.38,-56.5C206.63,-56.5 215.24,-56.5 223.86,-56.5"/>
<polygon fill="midnightblue" stroke="midnightblue" points="198.15,-53 188.15,-56.5 198.15,-60 198.15,-53"/>
</g>
<!-- Node4 -->
<g id="node4" class="node">
<title>Node4</title>
<g id="a_node4"><a xlink:href="class_ogre_1_1_allocated_object.html" target="_top" xlink:title="Superclass for all objects that wish to use custom memory allocators when their new / delete operator...">
<polygon fill="none" stroke="black" points="0,-47.5 0,-65.5 54.36,-65.5 54.36,-47.5 0,-47.5"/>
<text text-anchor="middle" x="27.18" y="-53.5" font-family="Helvetica,sans-Serif" font-size="10.00">LodAlloc</text>
</a>
</g>
</g>
<!-- Node4&#45;&gt;Node3 -->
<g id="edge3" class="edge">
<title>Node4&#45;&gt;Node3</title>
<path fill="none" stroke="midnightblue" d="M64.79,-56.5C72.9,-56.5 81.62,-56.5 90.12,-56.5"/>
<polygon fill="midnightblue" stroke="midnightblue" points="64.54,-53 54.54,-56.5 64.54,-60 64.54,-53"/>
</g>
<!-- Node5 -->
<g id="node5" class="node">
<title>Node5</title>
<g id="a_node5"><a xlink:href="class_ogre_1_1_singleton.html" target="_top" xlink:title=" ">
<polygon fill="none" stroke="black" points="233.94,-0.5 233.94,-28.5 383.07,-28.5 383.07,-0.5 233.94,-0.5"/>
<text text-anchor="start" x="241.94" y="-16.5" font-family="Helvetica,sans-Serif" font-size="10.00">Ogre::Singleton&lt; ScreenRatio</text>
<text text-anchor="middle" x="308.51" y="-6.5" font-family="Helvetica,sans-Serif" font-size="10.00">PixelCountLodStrategy &gt;</text>
</a>
</g>
</g>
<!-- Node5&#45;&gt;Node1 -->
<g id="edge4" class="edge">
<title>Node5&#45;&gt;Node1</title>
<path fill="none" stroke="midnightblue" d="M393.43,-23.68C405.17,-24.96 417.16,-26.27 428.67,-27.53"/>
<polygon fill="midnightblue" stroke="midnightblue" points="393.52,-20.17 383.2,-22.56 392.76,-27.13 393.52,-20.17"/>
</g>
</g>
</svg>
