<?xml version="1.0" encoding="UTF-8" standalone="no"?>
<!DOCTYPE svg PUBLIC "-//W3C//DTD SVG 1.1//EN"
 "http://www.w3.org/Graphics/SVG/1.1/DTD/svg11.dtd">
<!-- Generated by graphviz version 2.43.0 (0)
 -->
<!-- Title: Ogre::GLSLESProgramManagerCommon Pages: 1 -->
<svg width="362pt" height="102pt"
 viewBox="0.00 0.00 361.74 102.00" xmlns="http://www.w3.org/2000/svg" xmlns:xlink="http://www.w3.org/1999/xlink">
<g id="graph0" class="graph" transform="scale(1 1) rotate(0) translate(4 98)">
<title>Ogre::GLSLESProgramManagerCommon</title>
<!-- Node1 -->
<g id="node1" class="node">
<title>Node1</title>
<g id="a_node1"><a xlink:title="Ogre assumes that there are separate programs to deal with but GLSL ES has one program object that re...">
<polygon fill="#bfbfbf" stroke="black" points="102.17,-65.5 102.17,-93.5 262.68,-93.5 262.68,-65.5 102.17,-65.5"/>
<text text-anchor="start" x="110.17" y="-81.5" font-family="Helvetica,sans-Serif" font-size="10.00">Ogre::GLSLESProgramManager</text>
<text text-anchor="middle" x="182.43" y="-71.5" font-family="Helvetica,sans-Serif" font-size="10.00">Common</text>
</a>
</g>
</g>
<!-- Node2 -->
<g id="node2" class="node">
<title>Node2</title>
<g id="a_node2"><a xlink:href="class_ogre_1_1_g_l_s_l_e_s_link_program_manager.html" target="_top" xlink:title="Ogre assumes that there are separate vertex and fragment programs to deal with but GLSL ES has one pr...">
<polygon fill="none" stroke="black" points="0,-5.5 0,-23.5 178.86,-23.5 178.86,-5.5 0,-5.5"/>
<text text-anchor="middle" x="89.43" y="-11.5" font-family="Helvetica,sans-Serif" font-size="10.00">Ogre::GLSLESLinkProgramManager</text>
</a>
</g>
</g>
<!-- Node1&#45;&gt;Node2 -->
<g id="edge1" class="edge">
<title>Node1&#45;&gt;Node2</title>
<path fill="none" stroke="midnightblue" d="M154.83,-59.8C137.01,-47.73 114.73,-32.64 101.31,-23.55"/>
<polygon fill="midnightblue" stroke="midnightblue" points="152.92,-62.74 163.16,-65.45 156.84,-56.94 152.92,-62.74"/>
</g>
<!-- Node3 -->
<g id="node3" class="node">
<title>Node3</title>
<g id="a_node3"><a xlink:href="class_ogre_1_1_g_l_s_l_e_s_program_pipeline_manager.html" target="_top" xlink:title="Ogre assumes that there are separate vertex and fragment programs to deal with but GLSL ES has one pr...">
<polygon fill="none" stroke="black" points="197.12,-0.5 197.12,-28.5 353.74,-28.5 353.74,-0.5 197.12,-0.5"/>
<text text-anchor="start" x="205.12" y="-16.5" font-family="Helvetica,sans-Serif" font-size="10.00">Ogre::GLSLESProgramPipeline</text>
<text text-anchor="middle" x="275.43" y="-6.5" font-family="Helvetica,sans-Serif" font-size="10.00">Manager</text>
</a>
</g>
</g>
<!-- Node1&#45;&gt;Node3 -->
<g id="edge2" class="edge">
<title>Node1&#45;&gt;Node3</title>
<path fill="none" stroke="midnightblue" d="M210.03,-59.8C224.89,-49.74 242.85,-37.57 256.18,-28.54"/>
<polygon fill="midnightblue" stroke="midnightblue" points="208.01,-56.94 201.7,-65.45 211.94,-62.74 208.01,-56.94"/>
</g>
</g>
</svg>
