<?xml version="1.0" encoding="UTF-8" standalone="no"?>
<!DOCTYPE svg PUBLIC "-//W3C//DTD SVG 1.1//EN"
 "http://www.w3.org/Graphics/SVG/1.1/DTD/svg11.dtd">
<!-- Generated by graphviz version 2.43.0 (0)
 -->
<!-- Title: Ogre::UavBufferPacked Pages: 1 -->
<svg width="642pt" height="138pt"
 viewBox="0.00 0.00 642.10 138.00" xmlns="http://www.w3.org/2000/svg" xmlns:xlink="http://www.w3.org/1999/xlink">
<g id="graph0" class="graph" transform="scale(1 1) rotate(0) translate(4 134)">
<title>Ogre::UavBufferPacked</title>
<!-- Node1 -->
<g id="node1" class="node">
<title>Node1</title>
<g id="a_node1"><a xlink:title="Represents UAV buffers (also known as SSBOs in OpenGL) Uav buffers are supported in DX10/DX10....">
<polygon fill="#bfbfbf" stroke="black" points="316.89,-55.5 316.89,-73.5 438.32,-73.5 438.32,-55.5 316.89,-55.5"/>
<text text-anchor="middle" x="377.61" y="-61.5" font-family="Helvetica,sans-Serif" font-size="10.00">Ogre::UavBufferPacked</text>
</a>
</g>
</g>
<!-- Node5 -->
<g id="node5" class="node">
<title>Node5</title>
<g id="a_node5"><a xlink:href="class_ogre_1_1_d3_d11_uav_buffer_packed.html" target="_top" xlink:title=" ">
<polygon fill="none" stroke="black" points="478.3,-111.5 478.3,-129.5 630.12,-129.5 630.12,-111.5 478.3,-111.5"/>
<text text-anchor="middle" x="554.21" y="-117.5" font-family="Helvetica,sans-Serif" font-size="10.00">Ogre::D3D11UavBufferPacked</text>
</a>
</g>
</g>
<!-- Node1&#45;&gt;Node5 -->
<g id="edge4" class="edge">
<title>Node1&#45;&gt;Node5</title>
<path fill="none" stroke="midnightblue" d="M408.26,-77.64C426.95,-85.58 451.74,-95.49 474.32,-102.5 485.19,-105.88 497.08,-108.92 508.25,-111.5"/>
<polygon fill="midnightblue" stroke="midnightblue" points="409.39,-74.32 398.82,-73.58 406.62,-80.75 409.39,-74.32"/>
</g>
<!-- Node6 -->
<g id="node6" class="node">
<title>Node6</title>
<g id="a_node6"><a xlink:href="class_ogre_1_1_g_l3_plus_uav_buffer_packed.html" target="_top" xlink:title=" ">
<polygon fill="none" stroke="black" points="474.32,-74.5 474.32,-92.5 634.1,-92.5 634.1,-74.5 474.32,-74.5"/>
<text text-anchor="middle" x="554.21" y="-80.5" font-family="Helvetica,sans-Serif" font-size="10.00">Ogre::GL3PlusUavBufferPacked</text>
</a>
</g>
</g>
<!-- Node1&#45;&gt;Node6 -->
<g id="edge5" class="edge">
<title>Node1&#45;&gt;Node6</title>
<path fill="none" stroke="midnightblue" d="M448.77,-72.14C457.14,-73.05 465.72,-73.98 474.2,-74.9"/>
<polygon fill="midnightblue" stroke="midnightblue" points="449.02,-68.64 438.7,-71.04 448.26,-75.6 449.02,-68.64"/>
</g>
<!-- Node7 -->
<g id="node7" class="node">
<title>Node7</title>
<g id="a_node7"><a xlink:href="class_ogre_1_1_metal_uav_buffer_packed.html" target="_top" xlink:title=" ">
<polygon fill="none" stroke="black" points="481.27,-37.5 481.27,-55.5 627.15,-55.5 627.15,-37.5 481.27,-37.5"/>
<text text-anchor="middle" x="554.21" y="-43.5" font-family="Helvetica,sans-Serif" font-size="10.00">Ogre::MetalUavBufferPacked</text>
</a>
</g>
</g>
<!-- Node1&#45;&gt;Node7 -->
<g id="edge6" class="edge">
<title>Node1&#45;&gt;Node7</title>
<path fill="none" stroke="midnightblue" d="M448.81,-57.26C459.5,-56.16 470.54,-55.02 481.27,-53.92"/>
<polygon fill="midnightblue" stroke="midnightblue" points="448.28,-53.8 438.7,-58.31 449,-60.76 448.28,-53.8"/>
</g>
<!-- Node8 -->
<g id="node8" class="node">
<title>Node8</title>
<g id="a_node8"><a xlink:href="class_ogre_1_1_n_u_l_l_uav_buffer_packed.html" target="_top" xlink:title=" ">
<polygon fill="none" stroke="black" points="480.71,-0.5 480.71,-18.5 627.71,-18.5 627.71,-0.5 480.71,-0.5"/>
<text text-anchor="middle" x="554.21" y="-6.5" font-family="Helvetica,sans-Serif" font-size="10.00">Ogre::NULLUavBufferPacked</text>
</a>
</g>
</g>
<!-- Node1&#45;&gt;Node8 -->
<g id="edge7" class="edge">
<title>Node1&#45;&gt;Node8</title>
<path fill="none" stroke="midnightblue" d="M409.01,-51.45C427.63,-43.78 452.08,-34.3 474.32,-27.5 485.2,-24.17 497.1,-21.15 508.27,-18.57"/>
<polygon fill="midnightblue" stroke="midnightblue" points="407.47,-48.3 399.59,-55.38 410.16,-54.76 407.47,-48.3"/>
</g>
<!-- Node2 -->
<g id="node2" class="node">
<title>Node2</title>
<g id="a_node2"><a xlink:href="class_ogre_1_1_buffer_packed.html" target="_top" xlink:title=" ">
<polygon fill="none" stroke="black" points="177.24,-55.5 177.24,-73.5 280.89,-73.5 280.89,-55.5 177.24,-55.5"/>
<text text-anchor="middle" x="229.07" y="-61.5" font-family="Helvetica,sans-Serif" font-size="10.00">Ogre::BufferPacked</text>
</a>
</g>
</g>
<!-- Node2&#45;&gt;Node1 -->
<g id="edge1" class="edge">
<title>Node2&#45;&gt;Node1</title>
<path fill="none" stroke="midnightblue" d="M291.12,-64.5C299.61,-64.5 308.32,-64.5 316.79,-64.5"/>
<polygon fill="midnightblue" stroke="midnightblue" points="290.91,-61 280.91,-64.5 290.91,-68 290.91,-61"/>
</g>
<!-- Node3 -->
<g id="node3" class="node">
<title>Node3</title>
<g id="a_node3"><a xlink:href="struct_ogre_1_1_gpu_tracked_resource.html" target="_top" xlink:title=" ">
<polygon fill="none" stroke="black" points="0,-74.5 0,-92.5 141.24,-92.5 141.24,-74.5 0,-74.5"/>
<text text-anchor="middle" x="70.62" y="-80.5" font-family="Helvetica,sans-Serif" font-size="10.00">Ogre::GpuTrackedResource</text>
</a>
</g>
</g>
<!-- Node3&#45;&gt;Node2 -->
<g id="edge2" class="edge">
<title>Node3&#45;&gt;Node2</title>
<path fill="none" stroke="midnightblue" d="M151.67,-73.78C160.24,-72.74 168.79,-71.7 176.9,-70.71"/>
<polygon fill="midnightblue" stroke="midnightblue" points="151.11,-70.32 141.61,-75 151.96,-77.27 151.11,-70.32"/>
</g>
<!-- Node4 -->
<g id="node4" class="node">
<title>Node4</title>
<g id="a_node4"><a xlink:href="class_ogre_1_1_allocated_object.html" target="_top" xlink:title="Superclass for all objects that wish to use custom memory allocators when their new / delete operator...">
<polygon fill="none" stroke="black" points="21.86,-37.5 21.86,-55.5 119.39,-55.5 119.39,-37.5 21.86,-37.5"/>
<text text-anchor="middle" x="70.62" y="-43.5" font-family="Helvetica,sans-Serif" font-size="10.00">BufferPackedAlloc</text>
</a>
</g>
</g>
<!-- Node4&#45;&gt;Node2 -->
<g id="edge3" class="edge">
<title>Node4&#45;&gt;Node2</title>
<path fill="none" stroke="midnightblue" d="M129.47,-53.16C145.07,-54.95 161.84,-56.88 177.04,-58.63"/>
<polygon fill="midnightblue" stroke="midnightblue" points="129.75,-49.66 119.41,-52 128.95,-56.62 129.75,-49.66"/>
</g>
</g>
</svg>
