<?xml version="1.0" encoding="UTF-8" standalone="no"?>
<!DOCTYPE svg PUBLIC "-//W3C//DTD SVG 1.1//EN"
 "http://www.w3.org/Graphics/SVG/1.1/DTD/svg11.dtd">
<!-- Generated by graphviz version 2.43.0 (0)
 -->
<!-- Title: Ogre::TextureFilter::FilterBase Pages: 1 -->
<svg width="402pt" height="178pt"
 viewBox="0.00 0.00 401.99 178.00" xmlns="http://www.w3.org/2000/svg" xmlns:xlink="http://www.w3.org/1999/xlink">
<g id="graph0" class="graph" transform="scale(1 1) rotate(0) translate(4 174)">
<title>Ogre::TextureFilter::FilterBase</title>
<!-- Node1 -->
<g id="node1" class="node">
<title>Node1</title>
<g id="a_node1"><a xlink:title=" ">
<polygon fill="#bfbfbf" stroke="black" points="116.47,-70.5 116.47,-98.5 215.28,-98.5 215.28,-70.5 116.47,-70.5"/>
<text text-anchor="start" x="124.47" y="-86.5" font-family="Helvetica,sans-Serif" font-size="10.00">Ogre::TextureFilter</text>
<text text-anchor="middle" x="165.87" y="-76.5" font-family="Helvetica,sans-Serif" font-size="10.00">::FilterBase</text>
</a>
</g>
</g>
<!-- Node3 -->
<g id="node3" class="node">
<title>Node3</title>
<g id="a_node3"><a xlink:href="class_ogre_1_1_texture_filter_1_1_generate_hw_mipmaps.html" target="_top" xlink:title=" ">
<polygon fill="none" stroke="black" points="263.5,-141.5 263.5,-169.5 381.77,-169.5 381.77,-141.5 263.5,-141.5"/>
<text text-anchor="start" x="271.5" y="-157.5" font-family="Helvetica,sans-Serif" font-size="10.00">Ogre::TextureFilter</text>
<text text-anchor="middle" x="322.63" y="-147.5" font-family="Helvetica,sans-Serif" font-size="10.00">::GenerateHwMipmaps</text>
</a>
</g>
</g>
<!-- Node1&#45;&gt;Node3 -->
<g id="edge2" class="edge">
<title>Node1&#45;&gt;Node3</title>
<path fill="none" stroke="midnightblue" d="M197.54,-103.93C213.23,-113.34 232.85,-124.35 251.28,-132.5 258.56,-135.72 266.45,-138.73 274.21,-141.45"/>
<polygon fill="midnightblue" stroke="midnightblue" points="199.17,-100.82 188.81,-98.6 195.52,-106.79 199.17,-100.82"/>
</g>
<!-- Node4 -->
<g id="node4" class="node">
<title>Node4</title>
<g id="a_node4"><a xlink:href="class_ogre_1_1_texture_filter_1_1_generate_sw_mipmaps.html" target="_top" xlink:title=" ">
<polygon fill="none" stroke="black" points="263.78,-94.5 263.78,-122.5 381.49,-122.5 381.49,-94.5 263.78,-94.5"/>
<text text-anchor="start" x="271.78" y="-110.5" font-family="Helvetica,sans-Serif" font-size="10.00">Ogre::TextureFilter</text>
<text text-anchor="middle" x="322.63" y="-100.5" font-family="Helvetica,sans-Serif" font-size="10.00">::GenerateSwMipmaps</text>
</a>
</g>
</g>
<!-- Node1&#45;&gt;Node4 -->
<g id="edge3" class="edge">
<title>Node1&#45;&gt;Node4</title>
<path fill="none" stroke="midnightblue" d="M225.33,-93.57C237.91,-95.52 251.21,-97.58 263.77,-99.53"/>
<polygon fill="midnightblue" stroke="midnightblue" points="225.83,-90.1 215.42,-92.03 224.76,-97.02 225.83,-90.1"/>
</g>
<!-- Node5 -->
<g id="node5" class="node">
<title>Node5</title>
<g id="a_node5"><a xlink:href="class_ogre_1_1_texture_filter_1_1_leave_channel_r.html" target="_top" xlink:title=" ">
<polygon fill="none" stroke="black" points="273.23,-47.5 273.23,-75.5 372.04,-75.5 372.04,-47.5 273.23,-47.5"/>
<text text-anchor="start" x="281.23" y="-63.5" font-family="Helvetica,sans-Serif" font-size="10.00">Ogre::TextureFilter</text>
<text text-anchor="middle" x="322.63" y="-53.5" font-family="Helvetica,sans-Serif" font-size="10.00">::LeaveChannelR</text>
</a>
</g>
</g>
<!-- Node1&#45;&gt;Node5 -->
<g id="edge4" class="edge">
<title>Node1&#45;&gt;Node5</title>
<path fill="none" stroke="midnightblue" d="M225.52,-75.78C241.19,-73.46 257.94,-70.97 273,-68.73"/>
<polygon fill="midnightblue" stroke="midnightblue" points="224.79,-72.35 215.42,-77.29 225.82,-79.28 224.79,-72.35"/>
</g>
<!-- Node6 -->
<g id="node6" class="node">
<title>Node6</title>
<g id="a_node6"><a xlink:href="class_ogre_1_1_texture_filter_1_1_prepare_for_normal_mapping.html" target="_top" xlink:title=" ">
<polygon fill="none" stroke="black" points="251.28,-0.5 251.28,-28.5 393.99,-28.5 393.99,-0.5 251.28,-0.5"/>
<text text-anchor="start" x="259.28" y="-16.5" font-family="Helvetica,sans-Serif" font-size="10.00">Ogre::TextureFilter</text>
<text text-anchor="middle" x="322.63" y="-6.5" font-family="Helvetica,sans-Serif" font-size="10.00">::PrepareForNormalMapping</text>
</a>
</g>
</g>
<!-- Node1&#45;&gt;Node6 -->
<g id="edge5" class="edge">
<title>Node1&#45;&gt;Node6</title>
<path fill="none" stroke="midnightblue" d="M198.25,-65.13C213.84,-56.01 233.16,-45.42 251.28,-37.5 258.58,-34.31 266.47,-31.31 274.24,-28.61"/>
<polygon fill="midnightblue" stroke="midnightblue" points="196.36,-62.18 189.55,-70.3 199.93,-68.2 196.36,-62.18"/>
</g>
<!-- Node2 -->
<g id="node2" class="node">
<title>Node2</title>
<g id="a_node2"><a xlink:href="class_ogre_1_1_allocated_object.html" target="_top" xlink:title="Superclass for all objects that wish to use custom memory allocators when their new / delete operator...">
<polygon fill="none" stroke="black" points="0,-75.5 0,-93.5 80.47,-93.5 80.47,-75.5 0,-75.5"/>
<text text-anchor="middle" x="40.24" y="-81.5" font-family="Helvetica,sans-Serif" font-size="10.00">ResourceAlloc</text>
</a>
</g>
</g>
<!-- Node2&#45;&gt;Node1 -->
<g id="edge1" class="edge">
<title>Node2&#45;&gt;Node1</title>
<path fill="none" stroke="midnightblue" d="M90.75,-84.5C99.15,-84.5 107.87,-84.5 116.25,-84.5"/>
<polygon fill="midnightblue" stroke="midnightblue" points="90.7,-81 80.7,-84.5 90.7,-88 90.7,-81"/>
</g>
</g>
</svg>
