<?xml version="1.0" encoding="UTF-8" standalone="no"?>
<!DOCTYPE svg PUBLIC "-//W3C//DTD SVG 1.1//EN"
 "http://www.w3.org/Graphics/SVG/1.1/DTD/svg11.dtd">
<!-- Generated by graphviz version 2.43.0 (0)
 -->
<!-- Title: Ogre::RTShader::ProgramWriter Pages: 1 -->
<svg width="528pt" height="178pt"
 viewBox="0.00 0.00 527.99 178.00" xmlns="http://www.w3.org/2000/svg" xmlns:xlink="http://www.w3.org/1999/xlink">
<g id="graph0" class="graph" transform="scale(1 1) rotate(0) translate(4 174)">
<title>Ogre::RTShader::ProgramWriter</title>
<!-- Node1 -->
<g id="node1" class="node">
<title>Node1</title>
<g id="a_node1"><a xlink:title="Base class interface for shader program writers.">
<polygon fill="#bfbfbf" stroke="black" points="152.42,-75.5 152.42,-93.5 311.99,-93.5 311.99,-75.5 152.42,-75.5"/>
<text text-anchor="middle" x="232.2" y="-81.5" font-family="Helvetica,sans-Serif" font-size="10.00">Ogre::RTShader::ProgramWriter</text>
</a>
</g>
</g>
<!-- Node3 -->
<g id="node3" class="node">
<title>Node3</title>
<g id="a_node3"><a xlink:href="class_ogre_1_1_r_t_shader_1_1_c_g_program_writer.html" target="_top" xlink:title="CG target language writer implementation.">
<polygon fill="none" stroke="black" points="359.94,-141.5 359.94,-169.5 508.03,-169.5 508.03,-141.5 359.94,-141.5"/>
<text text-anchor="start" x="367.94" y="-157.5" font-family="Helvetica,sans-Serif" font-size="10.00">Ogre::RTShader::CGProgram</text>
<text text-anchor="middle" x="433.99" y="-147.5" font-family="Helvetica,sans-Serif" font-size="10.00">Writer</text>
</a>
</g>
</g>
<!-- Node1&#45;&gt;Node3 -->
<g id="edge2" class="edge">
<title>Node1&#45;&gt;Node3</title>
<path fill="none" stroke="midnightblue" d="M261.99,-97.78C284.96,-108.08 318.13,-122.27 347.99,-132.5 357.24,-135.67 367.19,-138.7 376.89,-141.45"/>
<polygon fill="midnightblue" stroke="midnightblue" points="263.36,-94.56 252.8,-93.63 260.47,-100.94 263.36,-94.56"/>
</g>
<!-- Node4 -->
<g id="node4" class="node">
<title>Node4</title>
<g id="a_node4"><a xlink:href="class_ogre_1_1_r_t_shader_1_1_g_l_s_l_e_s_program_writer.html" target="_top" xlink:title="GLSL ES target language writer implementation.">
<polygon fill="none" stroke="black" points="347.99,-94.5 347.99,-122.5 519.99,-122.5 519.99,-94.5 347.99,-94.5"/>
<text text-anchor="start" x="355.99" y="-110.5" font-family="Helvetica,sans-Serif" font-size="10.00">Ogre::RTShader::GLSLESProgram</text>
<text text-anchor="middle" x="433.99" y="-100.5" font-family="Helvetica,sans-Serif" font-size="10.00">Writer</text>
</a>
</g>
</g>
<!-- Node1&#45;&gt;Node4 -->
<g id="edge3" class="edge">
<title>Node1&#45;&gt;Node4</title>
<path fill="none" stroke="midnightblue" d="M318.29,-94.72C328.08,-95.9 338.07,-97.1 347.87,-98.27"/>
<polygon fill="midnightblue" stroke="midnightblue" points="318.51,-91.22 308.16,-93.5 317.68,-98.17 318.51,-91.22"/>
</g>
<!-- Node5 -->
<g id="node5" class="node">
<title>Node5</title>
<g id="a_node5"><a xlink:href="class_ogre_1_1_r_t_shader_1_1_g_l_s_l_program_writer.html" target="_top" xlink:title="GLSL target language writer implementation.">
<polygon fill="none" stroke="black" points="354.66,-47.5 354.66,-75.5 513.32,-75.5 513.32,-47.5 354.66,-47.5"/>
<text text-anchor="start" x="362.66" y="-63.5" font-family="Helvetica,sans-Serif" font-size="10.00">Ogre::RTShader::GLSLProgram</text>
<text text-anchor="middle" x="433.99" y="-53.5" font-family="Helvetica,sans-Serif" font-size="10.00">Writer</text>
</a>
</g>
</g>
<!-- Node1&#45;&gt;Node5 -->
<g id="edge4" class="edge">
<title>Node1&#45;&gt;Node5</title>
<path fill="none" stroke="midnightblue" d="M321.59,-74.32C332.55,-73.06 343.7,-71.78 354.5,-70.54"/>
<polygon fill="midnightblue" stroke="midnightblue" points="321.12,-70.86 311.59,-75.48 321.92,-77.81 321.12,-70.86"/>
</g>
<!-- Node6 -->
<g id="node6" class="node">
<title>Node6</title>
<g id="a_node6"><a xlink:href="class_ogre_1_1_r_t_shader_1_1_h_l_s_l_program_writer.html" target="_top" xlink:title="HLSL target language writer implementation.">
<polygon fill="none" stroke="black" points="354.94,-0.5 354.94,-28.5 513.04,-28.5 513.04,-0.5 354.94,-0.5"/>
<text text-anchor="start" x="362.94" y="-16.5" font-family="Helvetica,sans-Serif" font-size="10.00">Ogre::RTShader::HLSLProgram</text>
<text text-anchor="middle" x="433.99" y="-6.5" font-family="Helvetica,sans-Serif" font-size="10.00">Writer</text>
</a>
</g>
</g>
<!-- Node1&#45;&gt;Node6 -->
<g id="edge5" class="edge">
<title>Node1&#45;&gt;Node6</title>
<path fill="none" stroke="midnightblue" d="M262.43,-71.35C285.4,-61.31 318.36,-47.53 347.99,-37.5 357.26,-34.36 367.2,-31.36 376.91,-28.61"/>
<polygon fill="midnightblue" stroke="midnightblue" points="260.97,-68.17 253.23,-75.41 263.8,-74.58 260.97,-68.17"/>
</g>
<!-- Node2 -->
<g id="node2" class="node">
<title>Node2</title>
<g id="a_node2"><a xlink:href="class_ogre_1_1_allocated_object.html" target="_top" xlink:title="Superclass for all objects that wish to use custom memory allocators when their new / delete operator...">
<polygon fill="none" stroke="black" points="0,-75.5 0,-93.5 116.42,-93.5 116.42,-75.5 0,-75.5"/>
<text text-anchor="middle" x="58.21" y="-81.5" font-family="Helvetica,sans-Serif" font-size="10.00">RTShaderSystemAlloc</text>
</a>
</g>
</g>
<!-- Node2&#45;&gt;Node1 -->
<g id="edge1" class="edge">
<title>Node2&#45;&gt;Node1</title>
<path fill="none" stroke="midnightblue" d="M126.56,-84.5C134.95,-84.5 143.59,-84.5 152.13,-84.5"/>
<polygon fill="midnightblue" stroke="midnightblue" points="126.48,-81 116.48,-84.5 126.48,-88 126.48,-81"/>
</g>
</g>
</svg>
