<?xml version="1.0" encoding="UTF-8" standalone="no"?>
<!DOCTYPE svg PUBLIC "-//W3C//DTD SVG 1.1//EN"
 "http://www.w3.org/Graphics/SVG/1.1/DTD/svg11.dtd">
<!-- Generated by graphviz version 2.43.0 (0)
 -->
<!-- Title: Ogre::v1::GLES2DefaultHardwareVertexBuffer Pages: 1 -->
<svg width="175pt" height="212pt"
 viewBox="0.00 0.00 175.18 212.00" xmlns="http://www.w3.org/2000/svg" xmlns:xlink="http://www.w3.org/1999/xlink">
<g id="graph0" class="graph" transform="scale(1 1) rotate(0) translate(4 208)">
<title>Ogre::v1::GLES2DefaultHardwareVertexBuffer</title>
<!-- Node1 -->
<g id="node1" class="node">
<title>Node1</title>
<g id="a_node1"><a xlink:title="Specialisation of HardwareVertexBuffer for emulation.">
<polygon fill="#bfbfbf" stroke="black" points="0,-0.5 0,-28.5 167.18,-28.5 167.18,-0.5 0,-0.5"/>
<text text-anchor="start" x="8" y="-16.5" font-family="Helvetica,sans-Serif" font-size="10.00">Ogre::v1::GLES2DefaultHardware</text>
<text text-anchor="middle" x="83.59" y="-6.5" font-family="Helvetica,sans-Serif" font-size="10.00">VertexBuffer</text>
</a>
</g>
</g>
<!-- Node2 -->
<g id="node2" class="node">
<title>Node2</title>
<g id="a_node2"><a xlink:href="class_ogre_1_1v1_1_1_hardware_vertex_buffer.html" target="_top" xlink:title="Specialisation of HardwareBuffer for a vertex buffer.">
<polygon fill="none" stroke="black" points="17.79,-65.5 17.79,-93.5 149.4,-93.5 149.4,-65.5 17.79,-65.5"/>
<text text-anchor="start" x="25.79" y="-81.5" font-family="Helvetica,sans-Serif" font-size="10.00">Ogre::v1::HardwareVertex</text>
<text text-anchor="middle" x="83.59" y="-71.5" font-family="Helvetica,sans-Serif" font-size="10.00">Buffer</text>
</a>
</g>
</g>
<!-- Node2&#45;&gt;Node1 -->
<g id="edge1" class="edge">
<title>Node2&#45;&gt;Node1</title>
<path fill="none" stroke="midnightblue" d="M83.59,-55.16C83.59,-46.17 83.59,-36.22 83.59,-28.54"/>
<polygon fill="midnightblue" stroke="midnightblue" points="80.09,-55.45 83.59,-65.45 87.09,-55.45 80.09,-55.45"/>
</g>
<!-- Node3 -->
<g id="node3" class="node">
<title>Node3</title>
<g id="a_node3"><a xlink:href="class_ogre_1_1v1_1_1_hardware_buffer.html" target="_top" xlink:title="Abstract class defining common features of hardware buffers.">
<polygon fill="none" stroke="black" points="18.71,-130.5 18.71,-148.5 148.47,-148.5 148.47,-130.5 18.71,-130.5"/>
<text text-anchor="middle" x="83.59" y="-136.5" font-family="Helvetica,sans-Serif" font-size="10.00">Ogre::v1::HardwareBuffer</text>
</a>
</g>
</g>
<!-- Node3&#45;&gt;Node2 -->
<g id="edge2" class="edge">
<title>Node3&#45;&gt;Node2</title>
<path fill="none" stroke="midnightblue" d="M83.59,-120.32C83.59,-111.75 83.59,-101.7 83.59,-93.84"/>
<polygon fill="midnightblue" stroke="midnightblue" points="80.09,-120.44 83.59,-130.44 87.09,-120.44 80.09,-120.44"/>
</g>
<!-- Node4 -->
<g id="node4" class="node">
<title>Node4</title>
<g id="a_node4"><a xlink:href="class_ogre_1_1_allocated_object.html" target="_top" xlink:title="Superclass for all objects that wish to use custom memory allocators when their new / delete operator...">
<polygon fill="none" stroke="black" points="51.5,-185.5 51.5,-203.5 115.68,-203.5 115.68,-185.5 51.5,-185.5"/>
<text text-anchor="middle" x="83.59" y="-191.5" font-family="Helvetica,sans-Serif" font-size="10.00">BufferAlloc</text>
</a>
</g>
</g>
<!-- Node4&#45;&gt;Node3 -->
<g id="edge3" class="edge">
<title>Node4&#45;&gt;Node3</title>
<path fill="none" stroke="midnightblue" d="M83.59,-175.17C83.59,-166.09 83.59,-155.59 83.59,-148.55"/>
<polygon fill="midnightblue" stroke="midnightblue" points="80.09,-175.22 83.59,-185.22 87.09,-175.22 80.09,-175.22"/>
</g>
</g>
</svg>
