<?xml version="1.0" encoding="UTF-8" standalone="no"?>
<!DOCTYPE svg PUBLIC "-//W3C//DTD SVG 1.1//EN"
 "http://www.w3.org/Graphics/SVG/1.1/DTD/svg11.dtd">
<!-- Generated by graphviz version 2.43.0 (0)
 -->
<!-- Title: Ogre::RTShader::SGScriptTranslator Pages: 1 -->
<svg width="143pt" height="147pt"
 viewBox="0.00 0.00 142.75 147.00" xmlns="http://www.w3.org/2000/svg" xmlns:xlink="http://www.w3.org/1999/xlink">
<g id="graph0" class="graph" transform="scale(1 1) rotate(0) translate(4 143)">
<title>Ogre::RTShader::SGScriptTranslator</title>
<!-- Node1 -->
<g id="node1" class="node">
<title>Node1</title>
<g id="a_node1"><a xlink:title="This class responsible for translating core features of the RT Shader System for Ogre material script...">
<polygon fill="#bfbfbf" stroke="black" points="0,-0.5 0,-28.5 134.75,-28.5 134.75,-0.5 0,-0.5"/>
<text text-anchor="start" x="8" y="-16.5" font-family="Helvetica,sans-Serif" font-size="10.00">Ogre::RTShader::SGScript</text>
<text text-anchor="middle" x="67.38" y="-6.5" font-family="Helvetica,sans-Serif" font-size="10.00">Translator</text>
</a>
</g>
</g>
<!-- Node2 -->
<g id="node2" class="node">
<title>Node2</title>
<g id="a_node2"><a xlink:href="class_ogre_1_1_script_translator.html" target="_top" xlink:title="This class translates script AST (abstract syntax tree) into Ogre resources.">
<polygon fill="none" stroke="black" points="10.38,-65.5 10.38,-83.5 124.38,-83.5 124.38,-65.5 10.38,-65.5"/>
<text text-anchor="middle" x="67.38" y="-71.5" font-family="Helvetica,sans-Serif" font-size="10.00">Ogre::ScriptTranslator</text>
</a>
</g>
</g>
<!-- Node2&#45;&gt;Node1 -->
<g id="edge1" class="edge">
<title>Node2&#45;&gt;Node1</title>
<path fill="none" stroke="midnightblue" d="M67.38,-55.32C67.38,-46.75 67.38,-36.7 67.38,-28.84"/>
<polygon fill="midnightblue" stroke="midnightblue" points="63.88,-55.44 67.38,-65.44 70.88,-55.44 63.88,-55.44"/>
</g>
<!-- Node3 -->
<g id="node3" class="node">
<title>Node3</title>
<g id="a_node3"><a xlink:href="class_ogre_1_1_allocated_object.html" target="_top" xlink:title="Superclass for all objects that wish to use custom memory allocators when their new / delete operator...">
<polygon fill="none" stroke="black" points="13.44,-120.5 13.44,-138.5 121.32,-138.5 121.32,-120.5 13.44,-120.5"/>
<text text-anchor="middle" x="67.38" y="-126.5" font-family="Helvetica,sans-Serif" font-size="10.00">ScriptTranslatorAlloc</text>
</a>
</g>
</g>
<!-- Node3&#45;&gt;Node2 -->
<g id="edge2" class="edge">
<title>Node3&#45;&gt;Node2</title>
<path fill="none" stroke="midnightblue" d="M67.38,-110.17C67.38,-101.09 67.38,-90.59 67.38,-83.55"/>
<polygon fill="midnightblue" stroke="midnightblue" points="63.88,-110.22 67.38,-120.22 70.88,-110.22 63.88,-110.22"/>
</g>
</g>
</svg>
