<?xml version="1.0" encoding="UTF-8" standalone="no"?>
<!DOCTYPE svg PUBLIC "-//W3C//DTD SVG 1.1//EN"
 "http://www.w3.org/Graphics/SVG/1.1/DTD/svg11.dtd">
<!-- Generated by graphviz version 2.43.0 (0)
 -->
<!-- Title: Ogre::ArrayMemoryManager Pages: 1 -->
<svg width="354pt" height="158pt"
 viewBox="0.00 0.00 354.43 158.00" xmlns="http://www.w3.org/2000/svg" xmlns:xlink="http://www.w3.org/1999/xlink">
<g id="graph0" class="graph" transform="scale(1 1) rotate(0) translate(4 154)">
<title>Ogre::ArrayMemoryManager</title>
<!-- Node1 -->
<g id="node1" class="node">
<title>Node1</title>
<g id="a_node1"><a xlink:title="Abstract memory manager for managing large chunks of contiguous memory, optimized for SoA (Structure ...">
<polygon fill="#bfbfbf" stroke="black" points="0,-68.5 0,-86.5 143.26,-86.5 143.26,-68.5 0,-68.5"/>
<text text-anchor="middle" x="71.63" y="-74.5" font-family="Helvetica,sans-Serif" font-size="10.00">Ogre::ArrayMemoryManager</text>
</a>
</g>
</g>
<!-- Node2 -->
<g id="node2" class="node">
<title>Node2</title>
<g id="a_node2"><a xlink:href="class_ogre_1_1_bone_array_memory_manager.html" target="_top" xlink:title="Implementation to create the Transform variables needed by Bones.">
<polygon fill="none" stroke="black" points="179.54,-131.5 179.54,-149.5 346.15,-149.5 346.15,-131.5 179.54,-131.5"/>
<text text-anchor="middle" x="262.84" y="-137.5" font-family="Helvetica,sans-Serif" font-size="10.00">Ogre::BoneArrayMemoryManager</text>
</a>
</g>
</g>
<!-- Node1&#45;&gt;Node2 -->
<g id="edge1" class="edge">
<title>Node1&#45;&gt;Node2</title>
<path fill="none" stroke="midnightblue" d="M100.18,-90.79C121.41,-100.62 151.69,-113.76 179.26,-122.5 190.03,-125.91 201.79,-128.9 212.98,-131.41"/>
<polygon fill="midnightblue" stroke="midnightblue" points="101.65,-87.61 91.11,-86.54 98.68,-93.95 101.65,-87.61"/>
</g>
<!-- Node3 -->
<g id="node3" class="node">
<title>Node3</title>
<g id="a_node3"><a xlink:href="class_ogre_1_1_kf_transform_array_memory_manager.html" target="_top" xlink:title="Implementation to create the KfTransform variables needed by SkeletonTrack @See SkeletonAnimationDef ...">
<polygon fill="none" stroke="black" points="183.63,-84.5 183.63,-112.5 342.06,-112.5 342.06,-84.5 183.63,-84.5"/>
<text text-anchor="start" x="191.63" y="-100.5" font-family="Helvetica,sans-Serif" font-size="10.00">Ogre::KfTransformArrayMemory</text>
<text text-anchor="middle" x="262.84" y="-90.5" font-family="Helvetica,sans-Serif" font-size="10.00">Manager</text>
</a>
</g>
</g>
<!-- Node1&#45;&gt;Node3 -->
<g id="edge2" class="edge">
<title>Node1&#45;&gt;Node3</title>
<path fill="none" stroke="midnightblue" d="M153.3,-86.45C163.34,-87.57 173.59,-88.7 183.58,-89.81"/>
<polygon fill="midnightblue" stroke="midnightblue" points="153.68,-82.97 143.36,-85.35 152.91,-89.93 153.68,-82.97"/>
</g>
<!-- Node4 -->
<g id="node4" class="node">
<title>Node4</title>
<g id="a_node4"><a xlink:href="class_ogre_1_1_node_array_memory_manager.html" target="_top" xlink:title="Implementation to create the Transform variables needed by Nodes &amp; SceneNodes.">
<polygon fill="none" stroke="black" points="179.26,-47.5 179.26,-65.5 346.43,-65.5 346.43,-47.5 179.26,-47.5"/>
<text text-anchor="middle" x="262.84" y="-53.5" font-family="Helvetica,sans-Serif" font-size="10.00">Ogre::NodeArrayMemoryManager</text>
</a>
</g>
</g>
<!-- Node1&#45;&gt;Node4 -->
<g id="edge3" class="edge">
<title>Node1&#45;&gt;Node4</title>
<path fill="none" stroke="midnightblue" d="M153.45,-68.53C162.48,-67.53 171.67,-66.51 180.7,-65.51"/>
<polygon fill="midnightblue" stroke="midnightblue" points="152.91,-65.07 143.36,-69.65 153.68,-72.03 152.91,-65.07"/>
</g>
<!-- Node5 -->
<g id="node5" class="node">
<title>Node5</title>
<g id="a_node5"><a xlink:href="class_ogre_1_1_object_data_array_memory_manager.html" target="_top" xlink:title="Implementation to create the ObjectData variables needed by MovableObjects.">
<polygon fill="none" stroke="black" points="185.94,-0.5 185.94,-28.5 339.75,-28.5 339.75,-0.5 185.94,-0.5"/>
<text text-anchor="start" x="193.94" y="-16.5" font-family="Helvetica,sans-Serif" font-size="10.00">Ogre::ObjectDataArrayMemory</text>
<text text-anchor="middle" x="262.84" y="-6.5" font-family="Helvetica,sans-Serif" font-size="10.00">Manager</text>
</a>
</g>
</g>
<!-- Node1&#45;&gt;Node5 -->
<g id="edge4" class="edge">
<title>Node1&#45;&gt;Node5</title>
<path fill="none" stroke="midnightblue" d="M105.6,-64.79C126.56,-56.86 154.36,-46.66 179.26,-38.5 189.62,-35.11 200.78,-31.7 211.45,-28.55"/>
<polygon fill="midnightblue" stroke="midnightblue" points="104.29,-61.54 96.19,-68.36 106.78,-68.08 104.29,-61.54"/>
</g>
</g>
</svg>
