<?xml version="1.0" encoding="UTF-8" standalone="no"?>
<!DOCTYPE svg PUBLIC "-//W3C//DTD SVG 1.1//EN"
 "http://www.w3.org/Graphics/SVG/1.1/DTD/svg11.dtd">
<!-- Generated by graphviz version 2.43.0 (0)
 -->
<!-- Title: Ogre::v1::GLES2TextureBuffer Pages: 1 -->
<svg width="165pt" height="257pt"
 viewBox="0.00 0.00 165.17 257.00" xmlns="http://www.w3.org/2000/svg" xmlns:xlink="http://www.w3.org/1999/xlink">
<g id="graph0" class="graph" transform="scale(1 1) rotate(0) translate(4 253)">
<title>Ogre::v1::GLES2TextureBuffer</title>
<!-- Node1 -->
<g id="node1" class="node">
<title>Node1</title>
<g id="a_node1"><a xlink:title="Texture surface.">
<polygon fill="#bfbfbf" stroke="black" points="2.86,-0.5 2.86,-18.5 154.31,-18.5 154.31,-0.5 2.86,-0.5"/>
<text text-anchor="middle" x="78.59" y="-6.5" font-family="Helvetica,sans-Serif" font-size="10.00">Ogre::v1::GLES2TextureBuffer</text>
</a>
</g>
</g>
<!-- Node2 -->
<g id="node2" class="node">
<title>Node2</title>
<g id="a_node2"><a xlink:href="class_ogre_1_1v1_1_1_g_l_e_s2_hardware_pixel_buffer.html" target="_top" xlink:title=" ">
<polygon fill="none" stroke="black" points="0,-55.5 0,-83.5 157.17,-83.5 157.17,-55.5 0,-55.5"/>
<text text-anchor="start" x="8" y="-71.5" font-family="Helvetica,sans-Serif" font-size="10.00">Ogre::v1::GLES2HardwarePixel</text>
<text text-anchor="middle" x="78.59" y="-61.5" font-family="Helvetica,sans-Serif" font-size="10.00">Buffer</text>
</a>
</g>
</g>
<!-- Node2&#45;&gt;Node1 -->
<g id="edge1" class="edge">
<title>Node2&#45;&gt;Node1</title>
<path fill="none" stroke="midnightblue" d="M78.59,-45.32C78.59,-35.94 78.59,-25.7 78.59,-18.77"/>
<polygon fill="midnightblue" stroke="midnightblue" points="75.09,-45.34 78.59,-55.34 82.09,-45.34 75.09,-45.34"/>
</g>
<!-- Node3 -->
<g id="node3" class="node">
<title>Node3</title>
<g id="a_node3"><a xlink:href="class_ogre_1_1v1_1_1_hardware_pixel_buffer.html" target="_top" xlink:title="Specialisation of HardwareBuffer for a pixel buffer.">
<polygon fill="none" stroke="black" points="2.87,-120.5 2.87,-138.5 154.3,-138.5 154.3,-120.5 2.87,-120.5"/>
<text text-anchor="middle" x="78.59" y="-126.5" font-family="Helvetica,sans-Serif" font-size="10.00">Ogre::v1::HardwarePixelBuffer</text>
</a>
</g>
</g>
<!-- Node3&#45;&gt;Node2 -->
<g id="edge2" class="edge">
<title>Node3&#45;&gt;Node2</title>
<path fill="none" stroke="midnightblue" d="M78.59,-110.32C78.59,-101.75 78.59,-91.7 78.59,-83.84"/>
<polygon fill="midnightblue" stroke="midnightblue" points="75.09,-110.44 78.59,-120.44 82.09,-110.44 75.09,-110.44"/>
</g>
<!-- Node4 -->
<g id="node4" class="node">
<title>Node4</title>
<g id="a_node4"><a xlink:href="class_ogre_1_1v1_1_1_hardware_buffer.html" target="_top" xlink:title="Abstract class defining common features of hardware buffers.">
<polygon fill="none" stroke="black" points="13.71,-175.5 13.71,-193.5 143.47,-193.5 143.47,-175.5 13.71,-175.5"/>
<text text-anchor="middle" x="78.59" y="-181.5" font-family="Helvetica,sans-Serif" font-size="10.00">Ogre::v1::HardwareBuffer</text>
</a>
</g>
</g>
<!-- Node4&#45;&gt;Node3 -->
<g id="edge3" class="edge">
<title>Node4&#45;&gt;Node3</title>
<path fill="none" stroke="midnightblue" d="M78.59,-165.17C78.59,-156.09 78.59,-145.59 78.59,-138.55"/>
<polygon fill="midnightblue" stroke="midnightblue" points="75.09,-165.22 78.59,-175.22 82.09,-165.22 75.09,-165.22"/>
</g>
<!-- Node5 -->
<g id="node5" class="node">
<title>Node5</title>
<g id="a_node5"><a xlink:href="class_ogre_1_1_allocated_object.html" target="_top" xlink:title="Superclass for all objects that wish to use custom memory allocators when their new / delete operator...">
<polygon fill="none" stroke="black" points="46.5,-230.5 46.5,-248.5 110.68,-248.5 110.68,-230.5 46.5,-230.5"/>
<text text-anchor="middle" x="78.59" y="-236.5" font-family="Helvetica,sans-Serif" font-size="10.00">BufferAlloc</text>
</a>
</g>
</g>
<!-- Node5&#45;&gt;Node4 -->
<g id="edge4" class="edge">
<title>Node5&#45;&gt;Node4</title>
<path fill="none" stroke="midnightblue" d="M78.59,-220.17C78.59,-211.09 78.59,-200.59 78.59,-193.55"/>
<polygon fill="midnightblue" stroke="midnightblue" points="75.09,-220.22 78.59,-230.22 82.09,-220.22 75.09,-220.22"/>
</g>
</g>
</svg>
