<?xml version="1.0" encoding="UTF-8" standalone="no"?>
<!DOCTYPE svg PUBLIC "-//W3C//DTD SVG 1.1//EN"
 "http://www.w3.org/Graphics/SVG/1.1/DTD/svg11.dtd">
<!-- Generated by graphviz version 2.43.0 (0)
 -->
<!-- Title: Ogre::MetalRenderTexture Pages: 1 -->
<svg width="386pt" height="192pt"
 viewBox="0.00 0.00 386.32 192.00" xmlns="http://www.w3.org/2000/svg" xmlns:xlink="http://www.w3.org/1999/xlink">
<g id="graph0" class="graph" transform="scale(1 1) rotate(0) translate(4 188)">
<title>Ogre::MetalRenderTexture</title>
<!-- Node1 -->
<g id="node1" class="node">
<title>Node1</title>
<g id="a_node1"><a xlink:title=" ">
<polygon fill="#bfbfbf" stroke="black" points="147.71,-0.5 147.71,-18.5 281.54,-18.5 281.54,-0.5 147.71,-0.5"/>
<text text-anchor="middle" x="214.62" y="-6.5" font-family="Helvetica,sans-Serif" font-size="10.00">Ogre::MetalRenderTexture</text>
</a>
</g>
</g>
<!-- Node2 -->
<g id="node2" class="node">
<title>Node2</title>
<g id="a_node2"><a xlink:href="class_ogre_1_1_render_texture.html" target="_top" xlink:title="This class represents a RenderTarget that renders to a Texture.">
<polygon fill="none" stroke="black" points="81.93,-55.5 81.93,-73.5 191.31,-73.5 191.31,-55.5 81.93,-55.5"/>
<text text-anchor="middle" x="136.62" y="-61.5" font-family="Helvetica,sans-Serif" font-size="10.00">Ogre::RenderTexture</text>
</a>
</g>
</g>
<!-- Node2&#45;&gt;Node1 -->
<g id="edge1" class="edge">
<title>Node2&#45;&gt;Node1</title>
<path fill="none" stroke="midnightblue" d="M156.83,-49.77C171.36,-39.89 190.48,-26.9 202.66,-18.63"/>
<polygon fill="midnightblue" stroke="midnightblue" points="154.77,-46.94 148.47,-55.45 158.71,-52.73 154.77,-46.94"/>
</g>
<!-- Node3 -->
<g id="node3" class="node">
<title>Node3</title>
<g id="a_node3"><a xlink:href="class_ogre_1_1_render_target.html" target="_top" xlink:title="A &#39;canvas&#39; which can receive the results of a rendering operation.">
<polygon fill="none" stroke="black" points="84.43,-110.5 84.43,-128.5 188.81,-128.5 188.81,-110.5 84.43,-110.5"/>
<text text-anchor="middle" x="136.62" y="-116.5" font-family="Helvetica,sans-Serif" font-size="10.00">Ogre::RenderTarget</text>
</a>
</g>
</g>
<!-- Node3&#45;&gt;Node2 -->
<g id="edge2" class="edge">
<title>Node3&#45;&gt;Node2</title>
<path fill="none" stroke="midnightblue" d="M136.62,-100.17C136.62,-91.09 136.62,-80.59 136.62,-73.55"/>
<polygon fill="midnightblue" stroke="midnightblue" points="133.12,-100.22 136.62,-110.22 140.12,-100.22 133.12,-100.22"/>
</g>
<!-- Node4 -->
<g id="node4" class="node">
<title>Node4</title>
<g id="a_node4"><a xlink:href="struct_ogre_1_1_gpu_tracked_resource.html" target="_top" xlink:title=" ">
<polygon fill="none" stroke="black" points="0,-165.5 0,-183.5 141.24,-183.5 141.24,-165.5 0,-165.5"/>
<text text-anchor="middle" x="70.62" y="-171.5" font-family="Helvetica,sans-Serif" font-size="10.00">Ogre::GpuTrackedResource</text>
</a>
</g>
</g>
<!-- Node4&#45;&gt;Node3 -->
<g id="edge3" class="edge">
<title>Node4&#45;&gt;Node3</title>
<path fill="none" stroke="midnightblue" d="M88.77,-158.93C100.93,-149.16 116.49,-136.67 126.5,-128.63"/>
<polygon fill="midnightblue" stroke="midnightblue" points="86.25,-156.46 80.65,-165.45 90.63,-161.92 86.25,-156.46"/>
</g>
<!-- Node5 -->
<g id="node5" class="node">
<title>Node5</title>
<g id="a_node5"><a xlink:href="class_ogre_1_1_allocated_object.html" target="_top" xlink:title="Superclass for all objects that wish to use custom memory allocators when their new / delete operator...">
<polygon fill="none" stroke="black" points="159.05,-165.5 159.05,-183.5 246.19,-183.5 246.19,-165.5 159.05,-165.5"/>
<text text-anchor="middle" x="202.62" y="-171.5" font-family="Helvetica,sans-Serif" font-size="10.00">RenderSysAlloc</text>
</a>
</g>
</g>
<!-- Node5&#45;&gt;Node3 -->
<g id="edge4" class="edge">
<title>Node5&#45;&gt;Node3</title>
<path fill="none" stroke="midnightblue" d="M184.47,-158.93C172.31,-149.16 156.76,-136.67 146.74,-128.63"/>
<polygon fill="midnightblue" stroke="midnightblue" points="182.61,-161.92 192.6,-165.45 186.99,-156.46 182.61,-161.92"/>
</g>
<!-- Node6 -->
<g id="node6" class="node">
<title>Node6</title>
<g id="a_node6"><a xlink:href="class_ogre_1_1_metal_render_target_common.html" target="_top" xlink:title=" ">
<polygon fill="none" stroke="black" points="208.92,-55.5 208.92,-73.5 378.32,-73.5 378.32,-55.5 208.92,-55.5"/>
<text text-anchor="middle" x="293.62" y="-61.5" font-family="Helvetica,sans-Serif" font-size="10.00">Ogre::MetalRenderTargetCommon</text>
</a>
</g>
</g>
<!-- Node6&#45;&gt;Node1 -->
<g id="edge5" class="edge">
<title>Node6&#45;&gt;Node1</title>
<path fill="none" stroke="midnightblue" d="M273.16,-49.77C258.44,-39.89 239.07,-26.9 226.73,-18.63"/>
<polygon fill="midnightblue" stroke="midnightblue" points="271.37,-52.79 281.62,-55.45 275.27,-46.97 271.37,-52.79"/>
</g>
</g>
</svg>
