<?xml version="1.0" encoding="UTF-8" standalone="no"?>
<!DOCTYPE svg PUBLIC "-//W3C//DTD SVG 1.1//EN"
 "http://www.w3.org/Graphics/SVG/1.1/DTD/svg11.dtd">
<!-- Generated by graphviz version 2.43.0 (0)
 -->
<!-- Title: Ogre::RTShader::GLSLESProgramWriter Pages: 1 -->
<svg width="180pt" height="147pt"
 viewBox="0.00 0.00 180.00 147.00" xmlns="http://www.w3.org/2000/svg" xmlns:xlink="http://www.w3.org/1999/xlink">
<g id="graph0" class="graph" transform="scale(1 1) rotate(0) translate(4 143)">
<title>Ogre::RTShader::GLSLESProgramWriter</title>
<!-- Node1 -->
<g id="node1" class="node">
<title>Node1</title>
<g id="a_node1"><a xlink:title="GLSL ES target language writer implementation.">
<polygon fill="#bfbfbf" stroke="black" points="0,-0.5 0,-28.5 172,-28.5 172,-0.5 0,-0.5"/>
<text text-anchor="start" x="8" y="-16.5" font-family="Helvetica,sans-Serif" font-size="10.00">Ogre::RTShader::GLSLESProgram</text>
<text text-anchor="middle" x="86" y="-6.5" font-family="Helvetica,sans-Serif" font-size="10.00">Writer</text>
</a>
</g>
</g>
<!-- Node2 -->
<g id="node2" class="node">
<title>Node2</title>
<g id="a_node2"><a xlink:href="class_ogre_1_1_r_t_shader_1_1_program_writer.html" target="_top" xlink:title="Base class interface for shader program writers.">
<polygon fill="none" stroke="black" points="6.21,-65.5 6.21,-83.5 165.79,-83.5 165.79,-65.5 6.21,-65.5"/>
<text text-anchor="middle" x="86" y="-71.5" font-family="Helvetica,sans-Serif" font-size="10.00">Ogre::RTShader::ProgramWriter</text>
</a>
</g>
</g>
<!-- Node2&#45;&gt;Node1 -->
<g id="edge1" class="edge">
<title>Node2&#45;&gt;Node1</title>
<path fill="none" stroke="midnightblue" d="M86,-55.32C86,-46.75 86,-36.7 86,-28.84"/>
<polygon fill="midnightblue" stroke="midnightblue" points="82.5,-55.44 86,-65.44 89.5,-55.44 82.5,-55.44"/>
</g>
<!-- Node3 -->
<g id="node3" class="node">
<title>Node3</title>
<g id="a_node3"><a xlink:href="class_ogre_1_1_allocated_object.html" target="_top" xlink:title="Superclass for all objects that wish to use custom memory allocators when their new / delete operator...">
<polygon fill="none" stroke="black" points="27.79,-120.5 27.79,-138.5 144.21,-138.5 144.21,-120.5 27.79,-120.5"/>
<text text-anchor="middle" x="86" y="-126.5" font-family="Helvetica,sans-Serif" font-size="10.00">RTShaderSystemAlloc</text>
</a>
</g>
</g>
<!-- Node3&#45;&gt;Node2 -->
<g id="edge2" class="edge">
<title>Node3&#45;&gt;Node2</title>
<path fill="none" stroke="midnightblue" d="M86,-110.17C86,-101.09 86,-90.59 86,-83.55"/>
<polygon fill="midnightblue" stroke="midnightblue" points="82.5,-110.22 86,-120.22 89.5,-110.22 82.5,-110.22"/>
</g>
</g>
</svg>
