<?xml version="1.0" encoding="UTF-8" standalone="no"?>
<!DOCTYPE svg PUBLIC "-//W3C//DTD SVG 1.1//EN"
 "http://www.w3.org/Graphics/SVG/1.1/DTD/svg11.dtd">
<!-- Generated by graphviz version 2.43.0 (0)
 -->
<!-- Title: Ogre::GL3PlusAsyncTextureTicket Pages: 1 -->
<svg width="216pt" height="147pt"
 viewBox="0.00 0.00 216.48 147.00" xmlns="http://www.w3.org/2000/svg" xmlns:xlink="http://www.w3.org/1999/xlink">
<g id="graph0" class="graph" transform="scale(1 1) rotate(0) translate(4 143)">
<title>Ogre::GL3PlusAsyncTextureTicket</title>
<!-- Node1 -->
<g id="node1" class="node">
<title>Node1</title>
<g id="a_node1"><a xlink:title="See AsyncTextureTicket.">
<polygon fill="#bfbfbf" stroke="black" points="14.87,-0.5 14.87,-28.5 157.04,-28.5 157.04,-0.5 14.87,-0.5"/>
<text text-anchor="start" x="22.87" y="-16.5" font-family="Helvetica,sans-Serif" font-size="10.00">Ogre::GL3PlusAsyncTexture</text>
<text text-anchor="middle" x="85.95" y="-6.5" font-family="Helvetica,sans-Serif" font-size="10.00">Ticket</text>
</a>
</g>
</g>
<!-- Node2 -->
<g id="node2" class="node">
<title>Node2</title>
<g id="a_node2"><a xlink:href="class_ogre_1_1_async_texture_ticket.html" target="_top" xlink:title="In Ogre 2.2 reading data from GPU back to CPU is asynchronous.">
<polygon fill="none" stroke="black" points="20.9,-65.5 20.9,-83.5 151.01,-83.5 151.01,-65.5 20.9,-65.5"/>
<text text-anchor="middle" x="85.95" y="-71.5" font-family="Helvetica,sans-Serif" font-size="10.00">Ogre::AsyncTextureTicket</text>
</a>
</g>
</g>
<!-- Node2&#45;&gt;Node1 -->
<g id="edge1" class="edge">
<title>Node2&#45;&gt;Node1</title>
<path fill="none" stroke="midnightblue" d="M85.95,-55.32C85.95,-46.75 85.95,-36.7 85.95,-28.84"/>
<polygon fill="midnightblue" stroke="midnightblue" points="82.45,-55.44 85.95,-65.44 89.45,-55.44 82.45,-55.44"/>
</g>
<!-- Node3 -->
<g id="node3" class="node">
<title>Node3</title>
<g id="a_node3"><a xlink:href="class_ogre_1_1_allocated_object.html" target="_top" xlink:title="Superclass for all objects that wish to use custom memory allocators when their new / delete operator...">
<polygon fill="none" stroke="black" points="0,-120.5 0,-138.5 59.91,-138.5 59.91,-120.5 0,-120.5"/>
<text text-anchor="middle" x="29.95" y="-126.5" font-family="Helvetica,sans-Serif" font-size="10.00">PassAlloc</text>
</a>
</g>
</g>
<!-- Node3&#45;&gt;Node2 -->
<g id="edge2" class="edge">
<title>Node3&#45;&gt;Node2</title>
<path fill="none" stroke="midnightblue" d="M46.21,-113.11C56.43,-103.44 69.19,-91.37 77.45,-83.55"/>
<polygon fill="midnightblue" stroke="midnightblue" points="43.56,-110.8 38.7,-120.22 48.37,-115.89 43.56,-110.8"/>
</g>
<!-- Node4 -->
<g id="node4" class="node">
<title>Node4</title>
<g id="a_node4"><a xlink:href="class_ogre_1_1_texture_gpu_listener.html" target="_top" xlink:title=" ">
<polygon fill="none" stroke="black" points="77.42,-120.5 77.42,-138.5 208.48,-138.5 208.48,-120.5 77.42,-120.5"/>
<text text-anchor="middle" x="142.95" y="-126.5" font-family="Helvetica,sans-Serif" font-size="10.00">Ogre::TextureGpuListener</text>
</a>
</g>
</g>
<!-- Node4&#45;&gt;Node2 -->
<g id="edge3" class="edge">
<title>Node4&#45;&gt;Node2</title>
<path fill="none" stroke="midnightblue" d="M126.71,-113.4C116.26,-103.68 103.1,-91.45 94.61,-83.55"/>
<polygon fill="midnightblue" stroke="midnightblue" points="124.34,-115.97 134.05,-120.22 129.11,-110.85 124.34,-115.97"/>
</g>
</g>
</svg>
