<?xml version="1.0" encoding="UTF-8" standalone="no"?>
<!DOCTYPE svg PUBLIC "-//W3C//DTD SVG 1.1//EN"
 "http://www.w3.org/Graphics/SVG/1.1/DTD/svg11.dtd">
<!-- Generated by graphviz version 2.43.0 (0)
 -->
<!-- Title: Ogre::ScriptTranslator Pages: 1 -->
<svg width="669pt" height="847pt"
 viewBox="0.00 0.00 668.71 847.00" xmlns="http://www.w3.org/2000/svg" xmlns:xlink="http://www.w3.org/1999/xlink">
<g id="graph0" class="graph" transform="scale(1 1) rotate(0) translate(4 843)">
<title>Ogre::ScriptTranslator</title>
<!-- Node1 -->
<g id="node1" class="node">
<title>Node1</title>
<g id="a_node1"><a xlink:title="This class translates script AST (abstract syntax tree) into Ogre resources.">
<polygon fill="#bfbfbf" stroke="black" points="143.88,-380.5 143.88,-398.5 257.88,-398.5 257.88,-380.5 143.88,-380.5"/>
<text text-anchor="middle" x="200.88" y="-386.5" font-family="Helvetica,sans-Serif" font-size="10.00">Ogre::ScriptTranslator</text>
</a>
</g>
</g>
<!-- Node3 -->
<g id="node3" class="node">
<title>Node3</title>
<g id="a_node3"><a xlink:href="class_ogre_1_1_compositor_load_action_translator.html" target="_top" xlink:title=" ">
<polygon fill="none" stroke="black" points="305.08,-810.5 305.08,-838.5 450.04,-838.5 450.04,-810.5 305.08,-810.5"/>
<text text-anchor="start" x="313.08" y="-826.5" font-family="Helvetica,sans-Serif" font-size="10.00">Ogre::CompositorLoadAction</text>
<text text-anchor="middle" x="377.56" y="-816.5" font-family="Helvetica,sans-Serif" font-size="10.00">Translator</text>
</a>
</g>
</g>
<!-- Node1&#45;&gt;Node3 -->
<g id="edge2" class="edge">
<title>Node1&#45;&gt;Node3</title>
<path fill="none" stroke="midnightblue" d="M203.6,-408.91C210.51,-482.53 238.55,-743.24 293.88,-801.5 297.17,-804.96 300.92,-807.91 304.98,-810.43"/>
<polygon fill="midnightblue" stroke="midnightblue" points="207.07,-408.4 202.68,-398.76 200.1,-409.04 207.07,-408.4"/>
</g>
<!-- Node4 -->
<g id="node4" class="node">
<title>Node4</title>
<g id="a_node4"><a xlink:href="class_ogre_1_1_compositor_pass_translator.html" target="_top" xlink:title=" ">
<polygon fill="none" stroke="black" points="296.66,-773.5 296.66,-791.5 458.46,-791.5 458.46,-773.5 296.66,-773.5"/>
<text text-anchor="middle" x="377.56" y="-779.5" font-family="Helvetica,sans-Serif" font-size="10.00">Ogre::CompositorPassTranslator</text>
</a>
</g>
</g>
<!-- Node1&#45;&gt;Node4 -->
<g id="edge3" class="edge">
<title>Node1&#45;&gt;Node4</title>
<path fill="none" stroke="midnightblue" d="M203.97,-409.02C211.79,-478.68 241.68,-713.65 293.88,-764.5 297.57,-768.09 301.79,-771.03 306.33,-773.44"/>
<polygon fill="midnightblue" stroke="midnightblue" points="207.4,-408.21 202.83,-398.65 200.44,-408.98 207.4,-408.21"/>
</g>
<!-- Node5 -->
<g id="node5" class="node">
<title>Node5</title>
<g id="a_node5"><a xlink:href="class_ogre_1_1_compositor_render_target_view_translator.html" target="_top" xlink:title=" ">
<polygon fill="none" stroke="black" points="299.81,-726.5 299.81,-754.5 455.31,-754.5 455.31,-726.5 299.81,-726.5"/>
<text text-anchor="start" x="307.81" y="-742.5" font-family="Helvetica,sans-Serif" font-size="10.00">Ogre::CompositorRenderTarget</text>
<text text-anchor="middle" x="377.56" y="-732.5" font-family="Helvetica,sans-Serif" font-size="10.00">ViewTranslator</text>
</a>
</g>
</g>
<!-- Node1&#45;&gt;Node5 -->
<g id="edge4" class="edge">
<title>Node1&#45;&gt;Node5</title>
<path fill="none" stroke="midnightblue" d="M201.28,-408.82C200.63,-464.76 206.65,-628.54 293.88,-716.5 297.78,-720.43 302.27,-723.72 307.11,-726.48"/>
<polygon fill="midnightblue" stroke="midnightblue" points="204.78,-408.65 201.49,-398.58 197.79,-408.5 204.78,-408.65"/>
</g>
<!-- Node6 -->
<g id="node6" class="node">
<title>Node6</title>
<g id="a_node6"><a xlink:href="class_ogre_1_1_compositor_shadow_map_repeat_translator.html" target="_top" xlink:title=" ">
<polygon fill="none" stroke="black" points="302.31,-679.5 302.31,-707.5 452.81,-707.5 452.81,-679.5 302.31,-679.5"/>
<text text-anchor="start" x="310.31" y="-695.5" font-family="Helvetica,sans-Serif" font-size="10.00">Ogre::CompositorShadowMap</text>
<text text-anchor="middle" x="377.56" y="-685.5" font-family="Helvetica,sans-Serif" font-size="10.00">RepeatTranslator</text>
</a>
</g>
</g>
<!-- Node1&#45;&gt;Node6 -->
<g id="edge5" class="edge">
<title>Node1&#45;&gt;Node6</title>
<path fill="none" stroke="midnightblue" d="M202.35,-408.68C204.64,-459.03 217.9,-596.13 293.88,-669.5 297.86,-673.34 302.42,-676.57 307.3,-679.29"/>
<polygon fill="midnightblue" stroke="midnightblue" points="205.84,-408.44 201.99,-398.57 198.85,-408.68 205.84,-408.44"/>
</g>
<!-- Node7 -->
<g id="node7" class="node">
<title>Node7</title>
<g id="a_node7"><a xlink:href="class_ogre_1_1_compositor_shadow_map_target_translator.html" target="_top" xlink:title=" ">
<polygon fill="none" stroke="black" points="302.31,-632.5 302.31,-660.5 452.81,-660.5 452.81,-632.5 302.31,-632.5"/>
<text text-anchor="start" x="310.31" y="-648.5" font-family="Helvetica,sans-Serif" font-size="10.00">Ogre::CompositorShadowMap</text>
<text text-anchor="middle" x="377.56" y="-638.5" font-family="Helvetica,sans-Serif" font-size="10.00">TargetTranslator</text>
</a>
</g>
</g>
<!-- Node1&#45;&gt;Node7 -->
<g id="edge6" class="edge">
<title>Node1&#45;&gt;Node7</title>
<path fill="none" stroke="midnightblue" d="M203.81,-408.69C209.3,-453.07 229.1,-563.51 293.88,-622.5 298.19,-626.42 303.11,-629.71 308.35,-632.46"/>
<polygon fill="midnightblue" stroke="midnightblue" points="207.28,-408.22 202.68,-398.68 200.32,-409.01 207.28,-408.22"/>
</g>
<!-- Node8 -->
<g id="node8" class="node">
<title>Node8</title>
<g id="a_node8"><a xlink:href="class_ogre_1_1_compositor_shadow_map_target_type_translator.html" target="_top" xlink:title=" ">
<polygon fill="none" stroke="black" points="302.31,-585.5 302.31,-613.5 452.81,-613.5 452.81,-585.5 302.31,-585.5"/>
<text text-anchor="start" x="310.31" y="-601.5" font-family="Helvetica,sans-Serif" font-size="10.00">Ogre::CompositorShadowMap</text>
<text text-anchor="middle" x="377.56" y="-591.5" font-family="Helvetica,sans-Serif" font-size="10.00">TargetTypeTranslator</text>
</a>
</g>
</g>
<!-- Node1&#45;&gt;Node8 -->
<g id="edge7" class="edge">
<title>Node1&#45;&gt;Node8</title>
<path fill="none" stroke="midnightblue" d="M206.04,-409.09C215.11,-447.01 240.31,-530.65 293.88,-575.5 298.58,-579.43 303.9,-582.72 309.51,-585.47"/>
<polygon fill="midnightblue" stroke="midnightblue" points="209.35,-407.86 203.73,-398.88 202.52,-409.41 209.35,-407.86"/>
</g>
<!-- Node9 -->
<g id="node9" class="node">
<title>Node9</title>
<g id="a_node9"><a xlink:href="class_ogre_1_1_compositor_store_action_translator.html" target="_top" xlink:title=" ">
<polygon fill="none" stroke="black" points="304.26,-538.5 304.26,-566.5 450.87,-566.5 450.87,-538.5 304.26,-538.5"/>
<text text-anchor="start" x="312.26" y="-554.5" font-family="Helvetica,sans-Serif" font-size="10.00">Ogre::CompositorStoreAction</text>
<text text-anchor="middle" x="377.56" y="-544.5" font-family="Helvetica,sans-Serif" font-size="10.00">Translator</text>
</a>
</g>
</g>
<!-- Node1&#45;&gt;Node9 -->
<g id="edge8" class="edge">
<title>Node1&#45;&gt;Node9</title>
<path fill="none" stroke="midnightblue" d="M209.19,-408.2C221.84,-438.15 250.7,-496.73 293.88,-528.5 299.18,-532.4 305.1,-535.66 311.27,-538.4"/>
<polygon fill="midnightblue" stroke="midnightblue" points="212.27,-406.51 205.26,-398.57 205.79,-409.15 212.27,-406.51"/>
</g>
<!-- Node10 -->
<g id="node10" class="node">
<title>Node10</title>
<g id="a_node10"><a xlink:href="class_ogre_1_1_compositor_target_translator.html" target="_top" xlink:title=" ">
<polygon fill="none" stroke="black" points="293.88,-501.5 293.88,-519.5 461.24,-519.5 461.24,-501.5 293.88,-501.5"/>
<text text-anchor="middle" x="377.56" y="-507.5" font-family="Helvetica,sans-Serif" font-size="10.00">Ogre::CompositorTargetTranslator</text>
</a>
</g>
</g>
<!-- Node1&#45;&gt;Node10 -->
<g id="edge9" class="edge">
<title>Node1&#45;&gt;Node10</title>
<path fill="none" stroke="midnightblue" d="M212.68,-407.01C227.86,-430.1 257.74,-470.26 293.88,-491.5 300.99,-495.68 308.95,-498.94 317.04,-501.48"/>
<polygon fill="midnightblue" stroke="midnightblue" points="215.6,-405.08 207.26,-398.54 209.7,-408.85 215.6,-405.08"/>
</g>
<!-- Node11 -->
<g id="node11" class="node">
<title>Node11</title>
<g id="a_node11"><a xlink:href="class_ogre_1_1_compositor_texture_base_translator.html" target="_top" xlink:title=" ">
<polygon fill="none" stroke="black" points="302.31,-454.5 302.31,-482.5 452.81,-482.5 452.81,-454.5 302.31,-454.5"/>
<text text-anchor="start" x="310.31" y="-470.5" font-family="Helvetica,sans-Serif" font-size="10.00">Ogre::CompositorTextureBase</text>
<text text-anchor="middle" x="377.56" y="-460.5" font-family="Helvetica,sans-Serif" font-size="10.00">Translator</text>
</a>
</g>
</g>
<!-- Node1&#45;&gt;Node11 -->
<g id="edge10" class="edge">
<title>Node1&#45;&gt;Node11</title>
<path fill="none" stroke="midnightblue" d="M223.33,-404.49C241.46,-416.61 268.46,-433.43 293.88,-444.5 302.38,-448.2 311.61,-451.51 320.72,-454.41"/>
<polygon fill="midnightblue" stroke="midnightblue" points="224.96,-401.36 214.72,-398.63 221.02,-407.15 224.96,-401.36"/>
</g>
<!-- Node15 -->
<g id="node15" class="node">
<title>Node15</title>
<g id="a_node15"><a xlink:href="class_ogre_1_1_gpu_program_translator.html" target="_top" xlink:title=" ">
<polygon fill="none" stroke="black" points="304.72,-417.5 304.72,-435.5 450.4,-435.5 450.4,-417.5 304.72,-417.5"/>
<text text-anchor="middle" x="377.56" y="-423.5" font-family="Helvetica,sans-Serif" font-size="10.00">Ogre::GpuProgramTranslator</text>
</a>
</g>
</g>
<!-- Node1&#45;&gt;Node15 -->
<g id="edge14" class="edge">
<title>Node1&#45;&gt;Node15</title>
<path fill="none" stroke="midnightblue" d="M254.47,-400.64C279.89,-406.02 310.01,-412.4 333.97,-417.48"/>
<polygon fill="midnightblue" stroke="midnightblue" points="255.12,-397.2 244.61,-398.55 253.67,-404.05 255.12,-397.2"/>
</g>
<!-- Node16 -->
<g id="node16" class="node">
<title>Node16</title>
<g id="a_node16"><a xlink:href="class_ogre_1_1_hlms_translator.html" target="_top" xlink:title=" ">
<polygon fill="none" stroke="black" points="321.96,-380.5 321.96,-398.5 433.17,-398.5 433.17,-380.5 321.96,-380.5"/>
<text text-anchor="middle" x="377.56" y="-386.5" font-family="Helvetica,sans-Serif" font-size="10.00">Ogre::HlmsTranslator</text>
</a>
</g>
</g>
<!-- Node1&#45;&gt;Node16 -->
<g id="edge15" class="edge">
<title>Node1&#45;&gt;Node16</title>
<path fill="none" stroke="midnightblue" d="M268.36,-389.5C286.05,-389.5 304.95,-389.5 321.93,-389.5"/>
<polygon fill="midnightblue" stroke="midnightblue" points="268.11,-386 258.11,-389.5 268.11,-393 268.11,-386"/>
</g>
<!-- Node17 -->
<g id="node17" class="node">
<title>Node17</title>
<g id="a_node17"><a xlink:href="class_ogre_1_1_material_translator.html" target="_top" xlink:title=" ">
<polygon fill="none" stroke="black" points="315.56,-343.5 315.56,-361.5 439.56,-361.5 439.56,-343.5 315.56,-343.5"/>
<text text-anchor="middle" x="377.56" y="-349.5" font-family="Helvetica,sans-Serif" font-size="10.00">Ogre::MaterialTranslator</text>
</a>
</g>
</g>
<!-- Node1&#45;&gt;Node17 -->
<g id="edge16" class="edge">
<title>Node1&#45;&gt;Node17</title>
<path fill="none" stroke="midnightblue" d="M254.47,-378.36C279.89,-372.98 310.01,-366.6 333.97,-361.52"/>
<polygon fill="midnightblue" stroke="midnightblue" points="253.67,-374.95 244.61,-380.45 255.12,-381.8 253.67,-374.95"/>
</g>
<!-- Node18 -->
<g id="node18" class="node">
<title>Node18</title>
<g id="a_node18"><a xlink:href="class_ogre_1_1_particle_affector_translator.html" target="_top" xlink:title=" ">
<polygon fill="none" stroke="black" points="299.53,-306.5 299.53,-324.5 455.59,-324.5 455.59,-306.5 299.53,-306.5"/>
<text text-anchor="middle" x="377.56" y="-312.5" font-family="Helvetica,sans-Serif" font-size="10.00">Ogre::ParticleAffectorTranslator</text>
</a>
</g>
</g>
<!-- Node1&#45;&gt;Node18 -->
<g id="edge17" class="edge">
<title>Node1&#45;&gt;Node18</title>
<path fill="none" stroke="midnightblue" d="M222.49,-374.19C240.47,-361.52 267.72,-343.97 293.88,-333.5 302.88,-329.9 312.74,-326.96 322.41,-324.58"/>
<polygon fill="midnightblue" stroke="midnightblue" points="220.06,-371.63 213.98,-380.3 224.14,-377.31 220.06,-371.63"/>
</g>
<!-- Node19 -->
<g id="node19" class="node">
<title>Node19</title>
<g id="a_node19"><a xlink:href="class_ogre_1_1_particle_emitter_translator.html" target="_top" xlink:title=" ">
<polygon fill="none" stroke="black" points="300.84,-269.5 300.84,-287.5 454.29,-287.5 454.29,-269.5 300.84,-269.5"/>
<text text-anchor="middle" x="377.56" y="-275.5" font-family="Helvetica,sans-Serif" font-size="10.00">Ogre::ParticleEmitterTranslator</text>
</a>
</g>
</g>
<!-- Node1&#45;&gt;Node19 -->
<g id="edge18" class="edge">
<title>Node1&#45;&gt;Node19</title>
<path fill="none" stroke="midnightblue" d="M213.94,-372.25C229.76,-350.98 259.58,-315.36 293.88,-296.5 300.58,-292.82 307.96,-289.89 315.48,-287.56"/>
<polygon fill="midnightblue" stroke="midnightblue" points="211.07,-370.24 208.04,-380.39 216.74,-374.34 211.07,-370.24"/>
</g>
<!-- Node20 -->
<g id="node20" class="node">
<title>Node20</title>
<g id="a_node20"><a xlink:href="class_ogre_1_1_particle_system_translator.html" target="_top" xlink:title=" ">
<polygon fill="none" stroke="black" points="300,-232.5 300,-250.5 455.12,-250.5 455.12,-232.5 300,-232.5"/>
<text text-anchor="middle" x="377.56" y="-238.5" font-family="Helvetica,sans-Serif" font-size="10.00">Ogre::ParticleSystemTranslator</text>
</a>
</g>
</g>
<!-- Node1&#45;&gt;Node20 -->
<g id="edge19" class="edge">
<title>Node1&#45;&gt;Node20</title>
<path fill="none" stroke="midnightblue" d="M209.67,-370.85C222.66,-342.14 251.58,-287.5 293.88,-259.5 299.4,-255.85 305.52,-252.93 311.88,-250.59"/>
<polygon fill="midnightblue" stroke="midnightblue" points="206.4,-369.59 205.61,-380.16 212.81,-372.39 206.4,-369.59"/>
</g>
<!-- Node21 -->
<g id="node21" class="node">
<title>Node21</title>
<g id="a_node21"><a xlink:href="class_ogre_1_1_pass_translator.html" target="_top" xlink:title=" ">
<polygon fill="none" stroke="black" points="322.23,-195.5 322.23,-213.5 432.9,-213.5 432.9,-195.5 322.23,-195.5"/>
<text text-anchor="middle" x="377.56" y="-201.5" font-family="Helvetica,sans-Serif" font-size="10.00">Ogre::PassTranslator</text>
</a>
</g>
</g>
<!-- Node1&#45;&gt;Node21 -->
<g id="edge20" class="edge">
<title>Node1&#45;&gt;Node21</title>
<path fill="none" stroke="midnightblue" d="M206.82,-370.14C216.85,-334.89 243.12,-260.36 293.88,-222.5 302.13,-216.35 312.04,-212.22 322.1,-209.46"/>
<polygon fill="midnightblue" stroke="midnightblue" points="203.35,-369.55 204.12,-380.11 210.11,-371.38 203.35,-369.55"/>
</g>
<!-- Node22 -->
<g id="node22" class="node">
<title>Node22</title>
<g id="a_node22"><a xlink:href="class_ogre_1_1_r_t_shader_1_1_s_g_script_translator.html" target="_top" xlink:title="This class responsible for translating core features of the RT Shader System for Ogre material script...">
<polygon fill="none" stroke="black" points="310.18,-148.5 310.18,-176.5 444.94,-176.5 444.94,-148.5 310.18,-148.5"/>
<text text-anchor="start" x="318.18" y="-164.5" font-family="Helvetica,sans-Serif" font-size="10.00">Ogre::RTShader::SGScript</text>
<text text-anchor="middle" x="377.56" y="-154.5" font-family="Helvetica,sans-Serif" font-size="10.00">Translator</text>
</a>
</g>
</g>
<!-- Node1&#45;&gt;Node22 -->
<g id="edge21" class="edge">
<title>Node1&#45;&gt;Node22</title>
<path fill="none" stroke="midnightblue" d="M204.99,-370.2C212.53,-329.7 235.67,-235.46 293.88,-185.5 298.63,-181.42 304.05,-178.07 309.78,-175.3"/>
<polygon fill="midnightblue" stroke="midnightblue" points="201.53,-369.67 203.26,-380.12 208.42,-370.87 201.53,-369.67"/>
</g>
<!-- Node23 -->
<g id="node23" class="node">
<title>Node23</title>
<g id="a_node23"><a xlink:href="class_ogre_1_1_shared_params_translator.html" target="_top" xlink:title=" ">
<polygon fill="none" stroke="black" points="299.99,-111.5 299.99,-129.5 455.13,-129.5 455.13,-111.5 299.99,-111.5"/>
<text text-anchor="middle" x="377.56" y="-117.5" font-family="Helvetica,sans-Serif" font-size="10.00">Ogre::SharedParamsTranslator</text>
</a>
</g>
</g>
<!-- Node1&#45;&gt;Node23 -->
<g id="edge22" class="edge">
<title>Node1&#45;&gt;Node23</title>
<path fill="none" stroke="midnightblue" d="M202.89,-370.45C206.44,-323.36 222.45,-200.76 293.88,-138.5 297.98,-134.93 302.62,-132.01 307.56,-129.64"/>
<polygon fill="midnightblue" stroke="midnightblue" points="199.39,-370.28 202.24,-380.49 206.38,-370.73 199.39,-370.28"/>
</g>
<!-- Node24 -->
<g id="node24" class="node">
<title>Node24</title>
<g id="a_node24"><a xlink:href="class_ogre_1_1_technique_translator.html" target="_top" xlink:title=" ">
<polygon fill="none" stroke="black" points="310.55,-74.5 310.55,-92.5 444.58,-92.5 444.58,-74.5 310.55,-74.5"/>
<text text-anchor="middle" x="377.56" y="-80.5" font-family="Helvetica,sans-Serif" font-size="10.00">Ogre::TechniqueTranslator</text>
</a>
</g>
</g>
<!-- Node1&#45;&gt;Node24 -->
<g id="edge23" class="edge">
<title>Node1&#45;&gt;Node24</title>
<path fill="none" stroke="midnightblue" d="M201.87,-370.16C202.93,-318.23 213.37,-174.71 293.88,-101.5 298.66,-97.15 304.25,-93.77 310.21,-91.14"/>
<polygon fill="midnightblue" stroke="midnightblue" points="198.36,-370.27 201.76,-380.3 205.36,-370.34 198.36,-370.27"/>
</g>
<!-- Node25 -->
<g id="node25" class="node">
<title>Node25</title>
<g id="a_node25"><a xlink:href="class_ogre_1_1_texture_source_translator.html" target="_top" xlink:title=" ">
<polygon fill="none" stroke="black" points="301.1,-37.5 301.1,-55.5 454.02,-55.5 454.02,-37.5 301.1,-37.5"/>
<text text-anchor="middle" x="377.56" y="-43.5" font-family="Helvetica,sans-Serif" font-size="10.00">Ogre::TextureSourceTranslator</text>
</a>
</g>
</g>
<!-- Node1&#45;&gt;Node25 -->
<g id="edge24" class="edge">
<title>Node1&#45;&gt;Node25</title>
<path fill="none" stroke="midnightblue" d="M204.72,-370.17C214.39,-306.9 248.04,-107.61 293.88,-64.5 297.74,-60.88 302.14,-57.92 306.86,-55.51"/>
<polygon fill="midnightblue" stroke="midnightblue" points="201.22,-369.92 203.2,-380.33 208.14,-370.96 201.22,-369.92"/>
</g>
<!-- Node26 -->
<g id="node26" class="node">
<title>Node26</title>
<g id="a_node26"><a xlink:href="class_ogre_1_1_texture_unit_translator.html" target="_top" xlink:title=" ">
<polygon fill="none" stroke="black" points="308.06,-0.5 308.06,-18.5 447.07,-18.5 447.07,-0.5 308.06,-0.5"/>
<text text-anchor="middle" x="377.56" y="-6.5" font-family="Helvetica,sans-Serif" font-size="10.00">Ogre::TextureUnitTranslator</text>
</a>
</g>
</g>
<!-- Node1&#45;&gt;Node26 -->
<g id="edge25" class="edge">
<title>Node1&#45;&gt;Node26</title>
<path fill="none" stroke="midnightblue" d="M204.12,-370.21C212.38,-302.39 243.29,-76.37 293.88,-27.5 298,-23.52 302.79,-20.33 307.94,-17.79"/>
<polygon fill="midnightblue" stroke="midnightblue" points="200.62,-369.98 202.92,-380.33 207.57,-370.81 200.62,-369.98"/>
</g>
<!-- Node2 -->
<g id="node2" class="node">
<title>Node2</title>
<g id="a_node2"><a xlink:href="class_ogre_1_1_allocated_object.html" target="_top" xlink:title="Superclass for all objects that wish to use custom memory allocators when their new / delete operator...">
<polygon fill="none" stroke="black" points="0,-380.5 0,-398.5 107.88,-398.5 107.88,-380.5 0,-380.5"/>
<text text-anchor="middle" x="53.94" y="-386.5" font-family="Helvetica,sans-Serif" font-size="10.00">ScriptTranslatorAlloc</text>
</a>
</g>
</g>
<!-- Node2&#45;&gt;Node1 -->
<g id="edge1" class="edge">
<title>Node2&#45;&gt;Node1</title>
<path fill="none" stroke="midnightblue" d="M118.33,-389.5C126.81,-389.5 135.47,-389.5 143.82,-389.5"/>
<polygon fill="midnightblue" stroke="midnightblue" points="118.09,-386 108.09,-389.5 118.09,-393 118.09,-386"/>
</g>
<!-- Node12 -->
<g id="node12" class="node">
<title>Node12</title>
<g id="a_node12"><a xlink:href="class_ogre_1_1_compositor_node_translator.html" target="_top" xlink:title=" ">
<polygon fill="none" stroke="black" points="497.24,-501.5 497.24,-519.5 660.71,-519.5 660.71,-501.5 497.24,-501.5"/>
<text text-anchor="middle" x="578.98" y="-507.5" font-family="Helvetica,sans-Serif" font-size="10.00">Ogre::CompositorNodeTranslator</text>
</a>
</g>
</g>
<!-- Node11&#45;&gt;Node12 -->
<g id="edge11" class="edge">
<title>Node11&#45;&gt;Node12</title>
<path fill="none" stroke="midnightblue" d="M455.12,-484.62C482.26,-490.34 511.83,-496.57 535.16,-501.48"/>
<polygon fill="midnightblue" stroke="midnightblue" points="455.75,-481.18 445.24,-482.54 454.3,-488.03 455.75,-481.18"/>
</g>
<!-- Node13 -->
<g id="node13" class="node">
<title>Node13</title>
<g id="a_node13"><a xlink:href="class_ogre_1_1_compositor_shadow_node_translator.html" target="_top" xlink:title=" ">
<polygon fill="none" stroke="black" points="501.5,-454.5 501.5,-482.5 656.46,-482.5 656.46,-454.5 501.5,-454.5"/>
<text text-anchor="start" x="509.5" y="-470.5" font-family="Helvetica,sans-Serif" font-size="10.00">Ogre::CompositorShadowNode</text>
<text text-anchor="middle" x="578.98" y="-460.5" font-family="Helvetica,sans-Serif" font-size="10.00">Translator</text>
</a>
</g>
</g>
<!-- Node11&#45;&gt;Node13 -->
<g id="edge12" class="edge">
<title>Node11&#45;&gt;Node13</title>
<path fill="none" stroke="midnightblue" d="M462.94,-468.5C475.68,-468.5 488.76,-468.5 501.33,-468.5"/>
<polygon fill="midnightblue" stroke="midnightblue" points="462.82,-465 452.82,-468.5 462.82,-472 462.82,-465"/>
</g>
<!-- Node14 -->
<g id="node14" class="node">
<title>Node14</title>
<g id="a_node14"><a xlink:href="class_ogre_1_1_compositor_workspace_translator.html" target="_top" xlink:title=" ">
<polygon fill="none" stroke="black" points="506.6,-407.5 506.6,-435.5 651.35,-435.5 651.35,-407.5 506.6,-407.5"/>
<text text-anchor="start" x="514.6" y="-423.5" font-family="Helvetica,sans-Serif" font-size="10.00">Ogre::CompositorWorkspace</text>
<text text-anchor="middle" x="578.98" y="-413.5" font-family="Helvetica,sans-Serif" font-size="10.00">Translator</text>
</a>
</g>
</g>
<!-- Node11&#45;&gt;Node14 -->
<g id="edge13" class="edge">
<title>Node11&#45;&gt;Node14</title>
<path fill="none" stroke="midnightblue" d="M448.12,-452.11C471.03,-446.71 496.28,-440.75 518.38,-435.55"/>
<polygon fill="midnightblue" stroke="midnightblue" points="447.05,-448.76 438.12,-454.46 448.66,-455.57 447.05,-448.76"/>
</g>
</g>
</svg>
