<?xml version="1.0" encoding="UTF-8" standalone="no"?>
<!DOCTYPE svg PUBLIC "-//W3C//DTD SVG 1.1//EN"
 "http://www.w3.org/Graphics/SVG/1.1/DTD/svg11.dtd">
<!-- Generated by graphviz version 2.43.0 (0)
 -->
<!-- Title: Ogre::GL3PlusTexture Pages: 1 -->
<svg width="300pt" height="247pt"
 viewBox="0.00 0.00 299.89 247.00" xmlns="http://www.w3.org/2000/svg" xmlns:xlink="http://www.w3.org/1999/xlink">
<g id="graph0" class="graph" transform="scale(1 1) rotate(0) translate(4 243)">
<title>Ogre::GL3PlusTexture</title>
<!-- Node1 -->
<g id="node1" class="node">
<title>Node1</title>
<g id="a_node1"><a xlink:title=" ">
<polygon fill="#bfbfbf" stroke="black" points="90.34,-55.5 90.34,-73.5 205.28,-73.5 205.28,-55.5 90.34,-55.5"/>
<text text-anchor="middle" x="147.81" y="-61.5" font-family="Helvetica,sans-Serif" font-size="10.00">Ogre::GL3PlusTexture</text>
</a>
</g>
</g>
<!-- Node6 -->
<g id="node6" class="node">
<title>Node6</title>
<g id="a_node6"><a xlink:href="class_ogre_1_1_g_l3_plus_depth_texture.html" target="_top" xlink:title=" ">
<polygon fill="none" stroke="black" points="0,-0.5 0,-18.5 141.62,-18.5 141.62,-0.5 0,-0.5"/>
<text text-anchor="middle" x="70.81" y="-6.5" font-family="Helvetica,sans-Serif" font-size="10.00">Ogre::GL3PlusDepthTexture</text>
</a>
</g>
</g>
<!-- Node1&#45;&gt;Node6 -->
<g id="edge5" class="edge">
<title>Node1&#45;&gt;Node6</title>
<path fill="none" stroke="midnightblue" d="M127.87,-49.77C113.51,-39.89 94.64,-26.9 82.61,-18.63"/>
<polygon fill="midnightblue" stroke="midnightblue" points="125.89,-52.66 136.12,-55.45 129.86,-46.9 125.89,-52.66"/>
</g>
<!-- Node7 -->
<g id="node7" class="node">
<title>Node7</title>
<g id="a_node7"><a xlink:href="class_ogre_1_1_g_l3_plus_null_texture.html" target="_top" xlink:title=" ">
<polygon fill="none" stroke="black" points="159.73,-0.5 159.73,-18.5 291.89,-18.5 291.89,-0.5 159.73,-0.5"/>
<text text-anchor="middle" x="225.81" y="-6.5" font-family="Helvetica,sans-Serif" font-size="10.00">Ogre::GL3PlusNullTexture</text>
</a>
</g>
</g>
<!-- Node1&#45;&gt;Node7 -->
<g id="edge6" class="edge">
<title>Node1&#45;&gt;Node7</title>
<path fill="none" stroke="midnightblue" d="M168.01,-49.77C182.55,-39.89 201.67,-26.9 213.85,-18.63"/>
<polygon fill="midnightblue" stroke="midnightblue" points="165.96,-46.94 159.66,-55.45 169.89,-52.73 165.96,-46.94"/>
</g>
<!-- Node2 -->
<g id="node2" class="node">
<title>Node2</title>
<g id="a_node2"><a xlink:href="class_ogre_1_1_texture.html" target="_top" xlink:title="Abstract class representing a Texture resource.">
<polygon fill="none" stroke="black" points="109.52,-110.5 109.52,-128.5 186.1,-128.5 186.1,-110.5 109.52,-110.5"/>
<text text-anchor="middle" x="147.81" y="-116.5" font-family="Helvetica,sans-Serif" font-size="10.00">Ogre::Texture</text>
</a>
</g>
</g>
<!-- Node2&#45;&gt;Node1 -->
<g id="edge1" class="edge">
<title>Node2&#45;&gt;Node1</title>
<path fill="none" stroke="midnightblue" d="M147.81,-100.17C147.81,-91.09 147.81,-80.59 147.81,-73.55"/>
<polygon fill="midnightblue" stroke="midnightblue" points="144.31,-100.22 147.81,-110.22 151.31,-100.22 144.31,-100.22"/>
</g>
<!-- Node3 -->
<g id="node3" class="node">
<title>Node3</title>
<g id="a_node3"><a xlink:href="class_ogre_1_1_resource.html" target="_top" xlink:title="Abstract class representing a loadable resource (e.g.">
<polygon fill="none" stroke="black" points="104.52,-165.5 104.52,-183.5 191.1,-183.5 191.1,-165.5 104.52,-165.5"/>
<text text-anchor="middle" x="147.81" y="-171.5" font-family="Helvetica,sans-Serif" font-size="10.00">Ogre::Resource</text>
</a>
</g>
</g>
<!-- Node3&#45;&gt;Node2 -->
<g id="edge2" class="edge">
<title>Node3&#45;&gt;Node2</title>
<path fill="none" stroke="midnightblue" d="M147.81,-155.17C147.81,-146.09 147.81,-135.59 147.81,-128.55"/>
<polygon fill="midnightblue" stroke="midnightblue" points="144.31,-155.22 147.81,-165.22 151.31,-155.22 144.31,-155.22"/>
</g>
<!-- Node4 -->
<g id="node4" class="node">
<title>Node4</title>
<g id="a_node4"><a xlink:href="class_ogre_1_1_string_interface.html" target="_top" xlink:title="Class defining the common interface which classes can use to present a reflection&#45;style,...">
<polygon fill="none" stroke="black" points="37.4,-220.5 37.4,-238.5 146.22,-238.5 146.22,-220.5 37.4,-220.5"/>
<text text-anchor="middle" x="91.81" y="-226.5" font-family="Helvetica,sans-Serif" font-size="10.00">Ogre::StringInterface</text>
</a>
</g>
</g>
<!-- Node4&#45;&gt;Node3 -->
<g id="edge3" class="edge">
<title>Node4&#45;&gt;Node3</title>
<path fill="none" stroke="midnightblue" d="M108.07,-213.11C118.28,-203.44 131.04,-191.37 139.3,-183.55"/>
<polygon fill="midnightblue" stroke="midnightblue" points="105.42,-210.8 100.56,-220.22 110.23,-215.89 105.42,-210.8"/>
</g>
<!-- Node5 -->
<g id="node5" class="node">
<title>Node5</title>
<g id="a_node5"><a xlink:href="class_ogre_1_1_allocated_object.html" target="_top" xlink:title="Superclass for all objects that wish to use custom memory allocators when their new / delete operator...">
<polygon fill="none" stroke="black" points="164.57,-220.5 164.57,-238.5 245.05,-238.5 245.05,-220.5 164.57,-220.5"/>
<text text-anchor="middle" x="204.81" y="-226.5" font-family="Helvetica,sans-Serif" font-size="10.00">ResourceAlloc</text>
</a>
</g>
</g>
<!-- Node5&#45;&gt;Node3 -->
<g id="edge4" class="edge">
<title>Node5&#45;&gt;Node3</title>
<path fill="none" stroke="midnightblue" d="M188.57,-213.4C178.12,-203.68 164.96,-191.45 156.47,-183.55"/>
<polygon fill="midnightblue" stroke="midnightblue" points="186.2,-215.97 195.9,-220.22 190.96,-210.85 186.2,-215.97"/>
</g>
</g>
</svg>
