<?xml version="1.0" encoding="UTF-8" standalone="no"?>
<!DOCTYPE svg PUBLIC "-//W3C//DTD SVG 1.1//EN"
 "http://www.w3.org/Graphics/SVG/1.1/DTD/svg11.dtd">
<!-- Generated by graphviz version 2.43.0 (0)
 -->
<!-- Title: Ogre::AndroidEGLSupport Pages: 1 -->
<svg width="141pt" height="137pt"
 viewBox="0.00 0.00 141.29 137.00" xmlns="http://www.w3.org/2000/svg" xmlns:xlink="http://www.w3.org/1999/xlink">
<g id="graph0" class="graph" transform="scale(1 1) rotate(0) translate(4 133)">
<title>Ogre::AndroidEGLSupport</title>
<!-- Node1 -->
<g id="node1" class="node">
<title>Node1</title>
<g id="a_node1"><a xlink:title=" ">
<polygon fill="#bfbfbf" stroke="black" points="0,-0.5 0,-18.5 133.29,-18.5 133.29,-0.5 0,-0.5"/>
<text text-anchor="middle" x="66.65" y="-6.5" font-family="Helvetica,sans-Serif" font-size="10.00">Ogre::AndroidEGLSupport</text>
</a>
</g>
</g>
<!-- Node2 -->
<g id="node2" class="node">
<title>Node2</title>
<g id="a_node2"><a xlink:href="class_ogre_1_1_e_g_l_support.html" target="_top" xlink:title=" ">
<polygon fill="none" stroke="black" points="17.23,-55.5 17.23,-73.5 116.06,-73.5 116.06,-55.5 17.23,-55.5"/>
<text text-anchor="middle" x="66.65" y="-61.5" font-family="Helvetica,sans-Serif" font-size="10.00">Ogre::EGLSupport</text>
</a>
</g>
</g>
<!-- Node2&#45;&gt;Node1 -->
<g id="edge1" class="edge">
<title>Node2&#45;&gt;Node1</title>
<path fill="none" stroke="midnightblue" d="M66.65,-45.17C66.65,-36.09 66.65,-25.59 66.65,-18.55"/>
<polygon fill="midnightblue" stroke="midnightblue" points="63.15,-45.22 66.65,-55.22 70.15,-45.22 63.15,-45.22"/>
</g>
<!-- Node3 -->
<g id="node3" class="node">
<title>Node3</title>
<g id="a_node3"><a xlink:href="class_ogre_1_1_g_l_e_s2_support.html" target="_top" xlink:title=" ">
<polygon fill="none" stroke="black" points="11.12,-110.5 11.12,-128.5 122.17,-128.5 122.17,-110.5 11.12,-110.5"/>
<text text-anchor="middle" x="66.65" y="-116.5" font-family="Helvetica,sans-Serif" font-size="10.00">Ogre::GLES2Support</text>
</a>
</g>
</g>
<!-- Node3&#45;&gt;Node2 -->
<g id="edge2" class="edge">
<title>Node3&#45;&gt;Node2</title>
<path fill="none" stroke="midnightblue" d="M66.65,-100.17C66.65,-91.09 66.65,-80.59 66.65,-73.55"/>
<polygon fill="midnightblue" stroke="midnightblue" points="63.15,-100.22 66.65,-110.22 70.15,-100.22 63.15,-100.22"/>
</g>
</g>
</svg>
