<?xml version="1.0" encoding="UTF-8" standalone="no"?>
<!DOCTYPE svg PUBLIC "-//W3C//DTD SVG 1.1//EN"
 "http://www.w3.org/Graphics/SVG/1.1/DTD/svg11.dtd">
<!-- Generated by graphviz version 2.43.0 (0)
 -->
<!-- Title: Ogre::Volume::TextureSource Pages: 1 -->
<svg width="155pt" height="137pt"
 viewBox="0.00 0.00 155.18 137.00" xmlns="http://www.w3.org/2000/svg" xmlns:xlink="http://www.w3.org/1999/xlink">
<g id="graph0" class="graph" transform="scale(1 1) rotate(0) translate(4 133)">
<title>Ogre::Volume::TextureSource</title>
<!-- Node1 -->
<g id="node1" class="node">
<title>Node1</title>
<g id="a_node1"><a xlink:title="A volume source from a 3D texture.">
<polygon fill="#bfbfbf" stroke="black" points="0,-0.5 0,-18.5 147.18,-18.5 147.18,-0.5 0,-0.5"/>
<text text-anchor="middle" x="73.59" y="-6.5" font-family="Helvetica,sans-Serif" font-size="10.00">Ogre::Volume::TextureSource</text>
</a>
</g>
</g>
<!-- Node2 -->
<g id="node2" class="node">
<title>Node2</title>
<g id="a_node2"><a xlink:href="class_ogre_1_1_volume_1_1_grid_source.html" target="_top" xlink:title="A volume source from a discrete 3d grid.">
<polygon fill="none" stroke="black" points="6.95,-55.5 6.95,-73.5 140.23,-73.5 140.23,-55.5 6.95,-55.5"/>
<text text-anchor="middle" x="73.59" y="-61.5" font-family="Helvetica,sans-Serif" font-size="10.00">Ogre::Volume::GridSource</text>
</a>
</g>
</g>
<!-- Node2&#45;&gt;Node1 -->
<g id="edge1" class="edge">
<title>Node2&#45;&gt;Node1</title>
<path fill="none" stroke="midnightblue" d="M73.59,-45.17C73.59,-36.09 73.59,-25.59 73.59,-18.55"/>
<polygon fill="midnightblue" stroke="midnightblue" points="70.09,-45.22 73.59,-55.22 77.09,-45.22 70.09,-45.22"/>
</g>
<!-- Node3 -->
<g id="node3" class="node">
<title>Node3</title>
<g id="a_node3"><a xlink:href="class_ogre_1_1_volume_1_1_source.html" target="_top" xlink:title="Abstract class defining the density function.">
<polygon fill="none" stroke="black" points="16.4,-110.5 16.4,-128.5 130.79,-128.5 130.79,-110.5 16.4,-110.5"/>
<text text-anchor="middle" x="73.59" y="-116.5" font-family="Helvetica,sans-Serif" font-size="10.00">Ogre::Volume::Source</text>
</a>
</g>
</g>
<!-- Node3&#45;&gt;Node2 -->
<g id="edge2" class="edge">
<title>Node3&#45;&gt;Node2</title>
<path fill="none" stroke="midnightblue" d="M73.59,-100.17C73.59,-91.09 73.59,-80.59 73.59,-73.55"/>
<polygon fill="midnightblue" stroke="midnightblue" points="70.09,-100.22 73.59,-110.22 77.09,-100.22 70.09,-100.22"/>
</g>
</g>
</svg>
