<?xml version="1.0" encoding="UTF-8" standalone="no"?>
<!DOCTYPE svg PUBLIC "-//W3C//DTD SVG 1.1//EN"
 "http://www.w3.org/Graphics/SVG/1.1/DTD/svg11.dtd">
<!-- Generated by graphviz version 2.43.0 (0)
 -->
<!-- Title: Ogre::GL3PlusConstBufferPacked Pages: 1 -->
<svg width="264pt" height="202pt"
 viewBox="0.00 0.00 264.39 202.00" xmlns="http://www.w3.org/2000/svg" xmlns:xlink="http://www.w3.org/1999/xlink">
<g id="graph0" class="graph" transform="scale(1 1) rotate(0) translate(4 198)">
<title>Ogre::GL3PlusConstBufferPacked</title>
<!-- Node1 -->
<g id="node1" class="node">
<title>Node1</title>
<g id="a_node1"><a xlink:title=" ">
<polygon fill="#bfbfbf" stroke="black" points="71.24,-0.5 71.24,-28.5 206.01,-28.5 206.01,-0.5 71.24,-0.5"/>
<text text-anchor="start" x="79.24" y="-16.5" font-family="Helvetica,sans-Serif" font-size="10.00">Ogre::GL3PlusConstBuffer</text>
<text text-anchor="middle" x="138.62" y="-6.5" font-family="Helvetica,sans-Serif" font-size="10.00">Packed</text>
</a>
</g>
</g>
<!-- Node2 -->
<g id="node2" class="node">
<title>Node2</title>
<g id="a_node2"><a xlink:href="class_ogre_1_1_const_buffer_packed.html" target="_top" xlink:title="Represents constant buffers (also known as Uniform Buffers in GL)">
<polygon fill="none" stroke="black" points="73.74,-65.5 73.74,-83.5 203.51,-83.5 203.51,-65.5 73.74,-65.5"/>
<text text-anchor="middle" x="138.62" y="-71.5" font-family="Helvetica,sans-Serif" font-size="10.00">Ogre::ConstBufferPacked</text>
</a>
</g>
</g>
<!-- Node2&#45;&gt;Node1 -->
<g id="edge1" class="edge">
<title>Node2&#45;&gt;Node1</title>
<path fill="none" stroke="midnightblue" d="M138.62,-55.32C138.62,-46.75 138.62,-36.7 138.62,-28.84"/>
<polygon fill="midnightblue" stroke="midnightblue" points="135.12,-55.44 138.62,-65.44 142.12,-55.44 135.12,-55.44"/>
</g>
<!-- Node3 -->
<g id="node3" class="node">
<title>Node3</title>
<g id="a_node3"><a xlink:href="class_ogre_1_1_buffer_packed.html" target="_top" xlink:title=" ">
<polygon fill="none" stroke="black" points="86.8,-120.5 86.8,-138.5 190.45,-138.5 190.45,-120.5 86.8,-120.5"/>
<text text-anchor="middle" x="138.62" y="-126.5" font-family="Helvetica,sans-Serif" font-size="10.00">Ogre::BufferPacked</text>
</a>
</g>
</g>
<!-- Node3&#45;&gt;Node2 -->
<g id="edge2" class="edge">
<title>Node3&#45;&gt;Node2</title>
<path fill="none" stroke="midnightblue" d="M138.62,-110.17C138.62,-101.09 138.62,-90.59 138.62,-83.55"/>
<polygon fill="midnightblue" stroke="midnightblue" points="135.12,-110.22 138.62,-120.22 142.12,-110.22 135.12,-110.22"/>
</g>
<!-- Node4 -->
<g id="node4" class="node">
<title>Node4</title>
<g id="a_node4"><a xlink:href="struct_ogre_1_1_gpu_tracked_resource.html" target="_top" xlink:title=" ">
<polygon fill="none" stroke="black" points="0,-175.5 0,-193.5 141.24,-193.5 141.24,-175.5 0,-175.5"/>
<text text-anchor="middle" x="70.62" y="-181.5" font-family="Helvetica,sans-Serif" font-size="10.00">Ogre::GpuTrackedResource</text>
</a>
</g>
</g>
<!-- Node4&#45;&gt;Node3 -->
<g id="edge3" class="edge">
<title>Node4&#45;&gt;Node3</title>
<path fill="none" stroke="midnightblue" d="M88.96,-169.21C101.54,-159.41 117.78,-146.75 128.2,-138.63"/>
<polygon fill="midnightblue" stroke="midnightblue" points="86.69,-166.54 80.95,-175.45 90.99,-172.06 86.69,-166.54"/>
</g>
<!-- Node5 -->
<g id="node5" class="node">
<title>Node5</title>
<g id="a_node5"><a xlink:href="class_ogre_1_1_allocated_object.html" target="_top" xlink:title="Superclass for all objects that wish to use custom memory allocators when their new / delete operator...">
<polygon fill="none" stroke="black" points="158.86,-175.5 158.86,-193.5 256.39,-193.5 256.39,-175.5 158.86,-175.5"/>
<text text-anchor="middle" x="207.62" y="-181.5" font-family="Helvetica,sans-Serif" font-size="10.00">BufferPackedAlloc</text>
</a>
</g>
</g>
<!-- Node5&#45;&gt;Node3 -->
<g id="edge4" class="edge">
<title>Node5&#45;&gt;Node3</title>
<path fill="none" stroke="midnightblue" d="M189.02,-169.21C176.25,-159.41 159.77,-146.75 149.2,-138.63"/>
<polygon fill="midnightblue" stroke="midnightblue" points="187.08,-172.13 197.14,-175.45 191.34,-166.58 187.08,-172.13"/>
</g>
</g>
</svg>
