<?xml version="1.0" encoding="UTF-8" standalone="no"?>
<!DOCTYPE svg PUBLIC "-//W3C//DTD SVG 1.1//EN"
 "http://www.w3.org/Graphics/SVG/1.1/DTD/svg11.dtd">
<!-- Generated by graphviz version 2.43.0 (0)
 -->
<!-- Title: Ogre::GpuProgramUsage Pages: 1 -->
<svg width="214pt" height="82pt"
 viewBox="0.00 0.00 213.81 82.00" xmlns="http://www.w3.org/2000/svg" xmlns:xlink="http://www.w3.org/1999/xlink">
<g id="graph0" class="graph" transform="scale(1 1) rotate(0) translate(4 78)">
<title>Ogre::GpuProgramUsage</title>
<!-- Node1 -->
<g id="node1" class="node">
<title>Node1</title>
<g id="a_node1"><a xlink:title="This class makes the usage of a vertex and fragment programs (low&#45;level or high&#45;level),...">
<polygon fill="#bfbfbf" stroke="black" points="54.89,-0.5 54.89,-18.5 184.83,-18.5 184.83,-0.5 54.89,-0.5"/>
<text text-anchor="middle" x="119.86" y="-6.5" font-family="Helvetica,sans-Serif" font-size="10.00">Ogre::GpuProgramUsage</text>
</a>
</g>
</g>
<!-- Node2 -->
<g id="node2" class="node">
<title>Node2</title>
<g id="a_node2"><a xlink:href="class_ogre_1_1_resource_1_1_listener.html" target="_top" xlink:title=" ">
<polygon fill="none" stroke="black" points="0,-55.5 0,-73.5 127.72,-73.5 127.72,-55.5 0,-55.5"/>
<text text-anchor="middle" x="63.86" y="-61.5" font-family="Helvetica,sans-Serif" font-size="10.00">Ogre::Resource::Listener</text>
</a>
</g>
</g>
<!-- Node2&#45;&gt;Node1 -->
<g id="edge1" class="edge">
<title>Node2&#45;&gt;Node1</title>
<path fill="none" stroke="midnightblue" d="M80.12,-48.11C90.33,-38.44 103.09,-26.37 111.35,-18.55"/>
<polygon fill="midnightblue" stroke="midnightblue" points="77.47,-45.8 72.61,-55.22 82.28,-50.89 77.47,-45.8"/>
</g>
<!-- Node3 -->
<g id="node3" class="node">
<title>Node3</title>
<g id="a_node3"><a xlink:href="class_ogre_1_1_allocated_object.html" target="_top" xlink:title="Superclass for all objects that wish to use custom memory allocators when their new / delete operator...">
<polygon fill="none" stroke="black" points="145.91,-55.5 145.91,-73.5 205.81,-73.5 205.81,-55.5 145.91,-55.5"/>
<text text-anchor="middle" x="175.86" y="-61.5" font-family="Helvetica,sans-Serif" font-size="10.00">PassAlloc</text>
</a>
</g>
</g>
<!-- Node3&#45;&gt;Node1 -->
<g id="edge2" class="edge">
<title>Node3&#45;&gt;Node1</title>
<path fill="none" stroke="midnightblue" d="M159.6,-48.11C149.38,-38.44 136.63,-26.37 128.36,-18.55"/>
<polygon fill="midnightblue" stroke="midnightblue" points="157.44,-50.89 167.11,-55.22 162.25,-45.8 157.44,-50.89"/>
</g>
</g>
</svg>
