<?xml version="1.0" encoding="UTF-8" standalone="no"?>
<!DOCTYPE svg PUBLIC "-//W3C//DTD SVG 1.1//EN"
 "http://www.w3.org/Graphics/SVG/1.1/DTD/svg11.dtd">
<!-- Generated by graphviz version 2.43.0 (0)
 -->
<!-- Title: Ogre::LodWorkQueueWorker Pages: 1 -->
<svg width="300pt" height="92pt"
 viewBox="0.00 0.00 299.86 92.00" xmlns="http://www.w3.org/2000/svg" xmlns:xlink="http://www.w3.org/1999/xlink">
<g id="graph0" class="graph" transform="scale(1 1) rotate(0) translate(4 88)">
<title>Ogre::LodWorkQueueWorker</title>
<!-- Node1 -->
<g id="node1" class="node">
<title>Node1</title>
<g id="a_node1"><a xlink:title="Processes requests.">
<polygon fill="#bfbfbf" stroke="black" points="74.04,-0.5 74.04,-18.5 219.73,-18.5 219.73,-0.5 74.04,-0.5"/>
<text text-anchor="middle" x="146.88" y="-6.5" font-family="Helvetica,sans-Serif" font-size="10.00">Ogre::LodWorkQueueWorker</text>
</a>
</g>
</g>
<!-- Node2 -->
<g id="node2" class="node">
<title>Node2</title>
<g id="a_node2"><a xlink:href="class_ogre_1_1_work_queue_1_1_request_handler.html" target="_top" xlink:title="Interface definition for a handler of requests.">
<polygon fill="none" stroke="black" points="0,-55.5 0,-83.5 139.77,-83.5 139.77,-55.5 0,-55.5"/>
<text text-anchor="start" x="8" y="-71.5" font-family="Helvetica,sans-Serif" font-size="10.00">Ogre::WorkQueue::Request</text>
<text text-anchor="middle" x="69.88" y="-61.5" font-family="Helvetica,sans-Serif" font-size="10.00">Handler</text>
</a>
</g>
</g>
<!-- Node2&#45;&gt;Node1 -->
<g id="edge1" class="edge">
<title>Node2&#45;&gt;Node1</title>
<path fill="none" stroke="#8b1a1a" d="M95.51,-49.2C109.23,-38.86 125.42,-26.67 135.9,-18.77"/>
<polygon fill="#8b1a1a" stroke="#8b1a1a" points="93.24,-46.53 87.36,-55.34 97.45,-52.12 93.24,-46.53"/>
</g>
<!-- Node3 -->
<g id="node3" class="node">
<title>Node3</title>
<g id="a_node3"><a xlink:href="class_ogre_1_1_singleton.html" target="_top" xlink:title=" ">
<polygon fill="none" stroke="black" points="157.91,-55.5 157.91,-83.5 291.86,-83.5 291.86,-55.5 157.91,-55.5"/>
<text text-anchor="start" x="165.91" y="-71.5" font-family="Helvetica,sans-Serif" font-size="10.00">Ogre::Singleton&lt; LodWork</text>
<text text-anchor="middle" x="224.88" y="-61.5" font-family="Helvetica,sans-Serif" font-size="10.00">QueueWorker &gt;</text>
</a>
</g>
</g>
<!-- Node3&#45;&gt;Node1 -->
<g id="edge2" class="edge">
<title>Node3&#45;&gt;Node1</title>
<path fill="none" stroke="midnightblue" d="M198.93,-49.2C185.03,-38.86 168.63,-26.67 158.01,-18.77"/>
<polygon fill="midnightblue" stroke="midnightblue" points="197.07,-52.18 207.19,-55.34 201.25,-46.56 197.07,-52.18"/>
</g>
</g>
</svg>
