<?xml version="1.0" encoding="UTF-8" standalone="no"?>
<!DOCTYPE svg PUBLIC "-//W3C//DTD SVG 1.1//EN"
 "http://www.w3.org/Graphics/SVG/1.1/DTD/svg11.dtd">
<!-- Generated by graphviz version 2.43.0 (0)
 -->
<!-- Title: Ogre::RenderPassDescriptor Pages: 1 -->
<svg width="494pt" height="101pt"
 viewBox="0.00 0.00 494.26 101.00" xmlns="http://www.w3.org/2000/svg" xmlns:xlink="http://www.w3.org/1999/xlink">
<g id="graph0" class="graph" transform="scale(1 1) rotate(0) translate(4 97)">
<title>Ogre::RenderPassDescriptor</title>
<!-- Node1 -->
<g id="node1" class="node">
<title>Node1</title>
<g id="a_node1"><a xlink:title=" ">
<polygon fill="#bfbfbf" stroke="black" points="123.14,-37.5 123.14,-55.5 267.53,-55.5 267.53,-37.5 123.14,-37.5"/>
<text text-anchor="middle" x="195.33" y="-43.5" font-family="Helvetica,sans-Serif" font-size="10.00">Ogre::RenderPassDescriptor</text>
</a>
</g>
</g>
<!-- Node3 -->
<g id="node3" class="node">
<title>Node3</title>
<g id="a_node3"><a xlink:href="class_ogre_1_1_d3_d11_render_pass_descriptor.html" target="_top" xlink:title="D3D11 will share groups of ID3D11RenderTargetView all D3D11RenderPassDescriptor that share the same R...">
<polygon fill="none" stroke="black" points="307.51,-74.5 307.51,-92.5 482.28,-92.5 482.28,-74.5 307.51,-74.5"/>
<text text-anchor="middle" x="394.9" y="-80.5" font-family="Helvetica,sans-Serif" font-size="10.00">Ogre::D3D11RenderPassDescriptor</text>
</a>
</g>
</g>
<!-- Node1&#45;&gt;Node3 -->
<g id="edge2" class="edge">
<title>Node1&#45;&gt;Node3</title>
<path fill="none" stroke="midnightblue" d="M254.41,-57.38C283.41,-62.81 318.08,-69.3 345.6,-74.46"/>
<polygon fill="midnightblue" stroke="midnightblue" points="254.88,-53.9 244.41,-55.5 253.6,-60.79 254.88,-53.9"/>
</g>
<!-- Node4 -->
<g id="node4" class="node">
<title>Node4</title>
<g id="a_node4"><a xlink:href="class_ogre_1_1_g_l3_plus_render_pass_descriptor.html" target="_top" xlink:title="GL3+ will share FBO handles between all GL3PlusRenderPassDescriptor that share the same FBO setup.">
<polygon fill="none" stroke="black" points="303.53,-37.5 303.53,-55.5 486.26,-55.5 486.26,-37.5 303.53,-37.5"/>
<text text-anchor="middle" x="394.9" y="-43.5" font-family="Helvetica,sans-Serif" font-size="10.00">Ogre::GL3PlusRenderPassDescriptor</text>
</a>
</g>
</g>
<!-- Node1&#45;&gt;Node4 -->
<g id="edge3" class="edge">
<title>Node1&#45;&gt;Node4</title>
<path fill="none" stroke="midnightblue" d="M277.84,-46.5C286.28,-46.5 294.88,-46.5 303.41,-46.5"/>
<polygon fill="midnightblue" stroke="midnightblue" points="277.66,-43 267.66,-46.5 277.66,-50 277.66,-43"/>
</g>
<!-- Node5 -->
<g id="node5" class="node">
<title>Node5</title>
<g id="a_node5"><a xlink:href="class_ogre_1_1_metal_render_pass_descriptor.html" target="_top" xlink:title=" ">
<polygon fill="none" stroke="black" points="310.48,-0.5 310.48,-18.5 479.31,-18.5 479.31,-0.5 310.48,-0.5"/>
<text text-anchor="middle" x="394.9" y="-6.5" font-family="Helvetica,sans-Serif" font-size="10.00">Ogre::MetalRenderPassDescriptor</text>
</a>
</g>
</g>
<!-- Node1&#45;&gt;Node5 -->
<g id="edge4" class="edge">
<title>Node1&#45;&gt;Node5</title>
<path fill="none" stroke="midnightblue" d="M254.41,-35.62C283.41,-30.19 318.08,-23.7 345.6,-18.54"/>
<polygon fill="midnightblue" stroke="midnightblue" points="253.6,-32.21 244.41,-37.5 254.88,-39.1 253.6,-32.21"/>
</g>
<!-- Node2 -->
<g id="node2" class="node">
<title>Node2</title>
<g id="a_node2"><a xlink:href="class_ogre_1_1_allocated_object.html" target="_top" xlink:title="Superclass for all objects that wish to use custom memory allocators when their new / delete operator...">
<polygon fill="none" stroke="black" points="0,-37.5 0,-55.5 87.14,-55.5 87.14,-37.5 0,-37.5"/>
<text text-anchor="middle" x="43.57" y="-43.5" font-family="Helvetica,sans-Serif" font-size="10.00">RenderSysAlloc</text>
</a>
</g>
</g>
<!-- Node2&#45;&gt;Node1 -->
<g id="edge1" class="edge">
<title>Node2&#45;&gt;Node1</title>
<path fill="none" stroke="midnightblue" d="M97.69,-46.5C105.94,-46.5 114.57,-46.5 123.14,-46.5"/>
<polygon fill="midnightblue" stroke="midnightblue" points="97.49,-43 87.49,-46.5 97.49,-50 97.49,-43"/>
</g>
</g>
</svg>
