<?xml version="1.0" encoding="UTF-8" standalone="no"?>
<!DOCTYPE svg PUBLIC "-//W3C//DTD SVG 1.1//EN"
 "http://www.w3.org/Graphics/SVG/1.1/DTD/svg11.dtd">
<!-- Generated by graphviz version 2.43.0 (0)
 -->
<!-- Title: Ogre::FileSystemArchiveFactory Pages: 1 -->
<svg width="240pt" height="137pt"
 viewBox="0.00 0.00 239.87 137.00" xmlns="http://www.w3.org/2000/svg" xmlns:xlink="http://www.w3.org/1999/xlink">
<g id="graph0" class="graph" transform="scale(1 1) rotate(0) translate(4 133)">
<title>Ogre::FileSystemArchiveFactory</title>
<!-- Node1 -->
<g id="node1" class="node">
<title>Node1</title>
<g id="a_node1"><a xlink:title="Specialisation of ArchiveFactory for FileSystem files.">
<polygon fill="#bfbfbf" stroke="black" points="53.4,-0.5 53.4,-18.5 213.32,-18.5 213.32,-0.5 53.4,-0.5"/>
<text text-anchor="middle" x="133.36" y="-6.5" font-family="Helvetica,sans-Serif" font-size="10.00">Ogre::FileSystemArchiveFactory</text>
</a>
</g>
</g>
<!-- Node2 -->
<g id="node2" class="node">
<title>Node2</title>
<g id="a_node2"><a xlink:href="class_ogre_1_1_archive_factory.html" target="_top" xlink:title="Abstract factory class, archive codec plugins can register concrete subclasses of this.">
<polygon fill="none" stroke="black" points="78.13,-55.5 78.13,-73.5 188.6,-73.5 188.6,-55.5 78.13,-55.5"/>
<text text-anchor="middle" x="133.36" y="-61.5" font-family="Helvetica,sans-Serif" font-size="10.00">Ogre::ArchiveFactory</text>
</a>
</g>
</g>
<!-- Node2&#45;&gt;Node1 -->
<g id="edge1" class="edge">
<title>Node2&#45;&gt;Node1</title>
<path fill="none" stroke="midnightblue" d="M133.36,-45.17C133.36,-36.09 133.36,-25.59 133.36,-18.55"/>
<polygon fill="midnightblue" stroke="midnightblue" points="129.86,-45.22 133.36,-55.22 136.86,-45.22 129.86,-45.22"/>
</g>
<!-- Node3 -->
<g id="node3" class="node">
<title>Node3</title>
<g id="a_node3"><a xlink:href="class_ogre_1_1_factory_obj.html" target="_top" xlink:title=" ">
<polygon fill="none" stroke="black" points="0,-110.5 0,-128.5 142.72,-128.5 142.72,-110.5 0,-110.5"/>
<text text-anchor="middle" x="71.36" y="-116.5" font-family="Helvetica,sans-Serif" font-size="10.00">Ogre::FactoryObj&lt; Archive &gt;</text>
</a>
</g>
</g>
<!-- Node3&#45;&gt;Node2 -->
<g id="edge2" class="edge">
<title>Node3&#45;&gt;Node2</title>
<path fill="none" stroke="midnightblue" d="M88.41,-103.93C99.83,-94.16 114.45,-81.67 123.86,-73.63"/>
<polygon fill="midnightblue" stroke="midnightblue" points="86.11,-101.29 80.78,-110.45 90.65,-106.61 86.11,-101.29"/>
</g>
<!-- Node4 -->
<g id="node4" class="node">
<title>Node4</title>
<g id="a_node4"><a xlink:href="class_ogre_1_1_allocated_object.html" target="_top" xlink:title="Superclass for all objects that wish to use custom memory allocators when their new / delete operator...">
<polygon fill="none" stroke="black" points="160.85,-110.5 160.85,-128.5 231.87,-128.5 231.87,-110.5 160.85,-110.5"/>
<text text-anchor="middle" x="196.36" y="-116.5" font-family="Helvetica,sans-Serif" font-size="10.00">ArchiveAlloc</text>
</a>
</g>
</g>
<!-- Node4&#45;&gt;Node2 -->
<g id="edge3" class="edge">
<title>Node4&#45;&gt;Node2</title>
<path fill="none" stroke="midnightblue" d="M179.04,-103.93C167.43,-94.16 152.58,-81.67 143.02,-73.63"/>
<polygon fill="midnightblue" stroke="midnightblue" points="176.89,-106.69 186.79,-110.45 181.39,-101.33 176.89,-106.69"/>
</g>
</g>
</svg>
