<?xml version="1.0" encoding="UTF-8" standalone="no"?>
<!DOCTYPE svg PUBLIC "-//W3C//DTD SVG 1.1//EN"
 "http://www.w3.org/Graphics/SVG/1.1/DTD/svg11.dtd">
<!-- Generated by graphviz version 2.43.0 (0)
 -->
<!-- Title: Ogre::RenderSystem::Listener Pages: 1 -->
<svg width="494pt" height="92pt"
 viewBox="0.00 0.00 494.24 92.00" xmlns="http://www.w3.org/2000/svg" xmlns:xlink="http://www.w3.org/1999/xlink">
<g id="graph0" class="graph" transform="scale(1 1) rotate(0) translate(4 88)">
<title>Ogre::RenderSystem::Listener</title>
<!-- Node1 -->
<g id="node1" class="node">
<title>Node1</title>
<g id="a_node1"><a xlink:title="Defines a listener on the custom events that this render system can raise.">
<polygon fill="#bfbfbf" stroke="black" points="211.42,-55.5 211.42,-83.5 321.35,-83.5 321.35,-55.5 211.42,-55.5"/>
<text text-anchor="start" x="219.42" y="-71.5" font-family="Helvetica,sans-Serif" font-size="10.00">Ogre::RenderSystem</text>
<text text-anchor="middle" x="266.39" y="-61.5" font-family="Helvetica,sans-Serif" font-size="10.00">::Listener</text>
</a>
</g>
</g>
<!-- Node2 -->
<g id="node2" class="node">
<title>Node2</title>
<g id="a_node2"><a xlink:href="class_ogre_1_1_d3_d11_render_pass_descriptor.html" target="_top" xlink:title="D3D11 will share groups of ID3D11RenderTargetView all D3D11RenderPassDescriptor that share the same R...">
<polygon fill="none" stroke="black" points="0,-0.5 0,-18.5 174.77,-18.5 174.77,-0.5 0,-0.5"/>
<text text-anchor="middle" x="87.39" y="-6.5" font-family="Helvetica,sans-Serif" font-size="10.00">Ogre::D3D11RenderPassDescriptor</text>
</a>
</g>
</g>
<!-- Node1&#45;&gt;Node2 -->
<g id="edge1" class="edge">
<title>Node1&#45;&gt;Node2</title>
<path fill="none" stroke="midnightblue" d="M216.47,-52.33C182.53,-41.33 139.09,-27.25 112.26,-18.56"/>
<polygon fill="midnightblue" stroke="midnightblue" points="215.62,-55.73 226.22,-55.48 217.78,-49.07 215.62,-55.73"/>
</g>
<!-- Node3 -->
<g id="node3" class="node">
<title>Node3</title>
<g id="a_node3"><a xlink:href="class_ogre_1_1_d3_d9_stereo_driver_a_m_d.html" target="_top" xlink:title="Virtual interface of the stereo driver.">
<polygon fill="none" stroke="black" points="192.54,-0.5 192.54,-18.5 340.24,-18.5 340.24,-0.5 192.54,-0.5"/>
<text text-anchor="middle" x="266.39" y="-6.5" font-family="Helvetica,sans-Serif" font-size="10.00">Ogre::D3D9StereoDriverAMD</text>
</a>
</g>
</g>
<!-- Node1&#45;&gt;Node3 -->
<g id="edge2" class="edge">
<title>Node1&#45;&gt;Node3</title>
<path fill="none" stroke="midnightblue" d="M266.39,-45.32C266.39,-35.94 266.39,-25.7 266.39,-18.77"/>
<polygon fill="midnightblue" stroke="midnightblue" points="262.89,-45.34 266.39,-55.34 269.89,-45.34 262.89,-45.34"/>
</g>
<!-- Node4 -->
<g id="node4" class="node">
<title>Node4</title>
<g id="a_node4"><a xlink:href="class_ogre_1_1v1_1_1_overlay_system.html" target="_top" xlink:title="This class simplify initialization / finalization of the overlay system.">
<polygon fill="none" stroke="black" points="358.54,-0.5 358.54,-18.5 486.24,-18.5 486.24,-0.5 358.54,-0.5"/>
<text text-anchor="middle" x="422.39" y="-6.5" font-family="Helvetica,sans-Serif" font-size="10.00">Ogre::v1::OverlaySystem</text>
</a>
</g>
</g>
<!-- Node1&#45;&gt;Node4 -->
<g id="edge3" class="edge">
<title>Node1&#45;&gt;Node4</title>
<path fill="none" stroke="midnightblue" d="M311.01,-51.91C340.32,-41.01 377.37,-27.24 400.48,-18.64"/>
<polygon fill="midnightblue" stroke="midnightblue" points="309.55,-48.72 301.4,-55.48 311.99,-55.28 309.55,-48.72"/>
</g>
</g>
</svg>
