<?xml version="1.0" encoding="UTF-8" standalone="no"?>
<!DOCTYPE svg PUBLIC "-//W3C//DTD SVG 1.1//EN"
 "http://www.w3.org/Graphics/SVG/1.1/DTD/svg11.dtd">
<!-- Generated by graphviz version 2.43.0 (0)
 -->
<!-- Title: Ogre::RTShader::ProgramWriterFactory Pages: 1 -->
<svg width="521pt" height="178pt"
 viewBox="0.00 0.00 521.33 178.00" xmlns="http://www.w3.org/2000/svg" xmlns:xlink="http://www.w3.org/1999/xlink">
<g id="graph0" class="graph" transform="scale(1 1) rotate(0) translate(4 174)">
<title>Ogre::RTShader::ProgramWriterFactory</title>
<!-- Node1 -->
<g id="node1" class="node">
<title>Node1</title>
<g id="a_node1"><a xlink:title="Interface definition for factories of ShaderProgramWriter.">
<polygon fill="#bfbfbf" stroke="black" points="152.42,-70.5 152.42,-98.5 311.99,-98.5 311.99,-70.5 152.42,-70.5"/>
<text text-anchor="start" x="160.42" y="-86.5" font-family="Helvetica,sans-Serif" font-size="10.00">Ogre::RTShader::ProgramWriter</text>
<text text-anchor="middle" x="232.2" y="-76.5" font-family="Helvetica,sans-Serif" font-size="10.00">Factory</text>
</a>
</g>
</g>
<!-- Node3 -->
<g id="node3" class="node">
<title>Node3</title>
<g id="a_node3"><a xlink:href="class_ogre_1_1_r_t_shader_1_1_shader_program_writer_c_g_factory.html" target="_top" xlink:title="CG program writer factory implementation.">
<polygon fill="none" stroke="black" points="347.99,-141.5 347.99,-169.5 513.33,-169.5 513.33,-141.5 347.99,-141.5"/>
<text text-anchor="start" x="355.99" y="-157.5" font-family="Helvetica,sans-Serif" font-size="10.00">Ogre::RTShader::ShaderProgram</text>
<text text-anchor="middle" x="430.66" y="-147.5" font-family="Helvetica,sans-Serif" font-size="10.00">WriterCGFactory</text>
</a>
</g>
</g>
<!-- Node1&#45;&gt;Node3 -->
<g id="edge2" class="edge">
<title>Node1&#45;&gt;Node3</title>
<path fill="none" stroke="midnightblue" d="M273.27,-102.67C295.11,-112.21 322.76,-123.71 347.99,-132.5 357.03,-135.65 366.75,-138.68 376.21,-141.46"/>
<polygon fill="midnightblue" stroke="midnightblue" points="274.55,-99.4 263.99,-98.57 271.73,-105.81 274.55,-99.4"/>
</g>
<!-- Node4 -->
<g id="node4" class="node">
<title>Node4</title>
<g id="a_node4"><a xlink:href="class_ogre_1_1_r_t_shader_1_1_shader_program_writer_g_l_s_l_e_s_factory.html" target="_top" xlink:title="GLSL ES program writer factory implementation.">
<polygon fill="none" stroke="black" points="347.99,-94.5 347.99,-122.5 513.33,-122.5 513.33,-94.5 347.99,-94.5"/>
<text text-anchor="start" x="355.99" y="-110.5" font-family="Helvetica,sans-Serif" font-size="10.00">Ogre::RTShader::ShaderProgram</text>
<text text-anchor="middle" x="430.66" y="-100.5" font-family="Helvetica,sans-Serif" font-size="10.00">WriterGLSLESFactory</text>
</a>
</g>
</g>
<!-- Node1&#45;&gt;Node4 -->
<g id="edge3" class="edge">
<title>Node1&#45;&gt;Node4</title>
<path fill="none" stroke="midnightblue" d="M322.23,-95.38C330.77,-96.42 339.41,-97.47 347.88,-98.51"/>
<polygon fill="midnightblue" stroke="midnightblue" points="322.61,-91.9 312.26,-94.16 321.76,-98.84 322.61,-91.9"/>
</g>
<!-- Node5 -->
<g id="node5" class="node">
<title>Node5</title>
<g id="a_node5"><a xlink:href="class_ogre_1_1_r_t_shader_1_1_shader_program_writer_g_l_s_l_factory.html" target="_top" xlink:title="GLSL program writer factory implementation.">
<polygon fill="none" stroke="black" points="347.99,-47.5 347.99,-75.5 513.33,-75.5 513.33,-47.5 347.99,-47.5"/>
<text text-anchor="start" x="355.99" y="-63.5" font-family="Helvetica,sans-Serif" font-size="10.00">Ogre::RTShader::ShaderProgram</text>
<text text-anchor="middle" x="430.66" y="-53.5" font-family="Helvetica,sans-Serif" font-size="10.00">WriterGLSLFactory</text>
</a>
</g>
</g>
<!-- Node1&#45;&gt;Node5 -->
<g id="edge4" class="edge">
<title>Node1&#45;&gt;Node5</title>
<path fill="none" stroke="midnightblue" d="M322.23,-74.08C330.77,-73.08 339.41,-72.07 347.88,-71.07"/>
<polygon fill="midnightblue" stroke="midnightblue" points="321.78,-70.61 312.26,-75.24 322.6,-77.56 321.78,-70.61"/>
</g>
<!-- Node6 -->
<g id="node6" class="node">
<title>Node6</title>
<g id="a_node6"><a xlink:href="class_ogre_1_1_r_t_shader_1_1_shader_program_writer_h_l_s_l_factory.html" target="_top" xlink:title="HLSL program writer factory implementation.">
<polygon fill="none" stroke="black" points="347.99,-0.5 347.99,-28.5 513.33,-28.5 513.33,-0.5 347.99,-0.5"/>
<text text-anchor="start" x="355.99" y="-16.5" font-family="Helvetica,sans-Serif" font-size="10.00">Ogre::RTShader::ShaderProgram</text>
<text text-anchor="middle" x="430.66" y="-6.5" font-family="Helvetica,sans-Serif" font-size="10.00">WriterHLSLFactory</text>
</a>
</g>
</g>
<!-- Node1&#45;&gt;Node6 -->
<g id="edge5" class="edge">
<title>Node1&#45;&gt;Node6</title>
<path fill="none" stroke="midnightblue" d="M274.24,-66.37C295.94,-57.12 323.16,-46.05 347.99,-37.5 357.04,-34.38 366.76,-31.37 376.23,-28.6"/>
<polygon fill="midnightblue" stroke="midnightblue" points="272.8,-63.18 264.99,-70.34 275.56,-69.61 272.8,-63.18"/>
</g>
<!-- Node2 -->
<g id="node2" class="node">
<title>Node2</title>
<g id="a_node2"><a xlink:href="class_ogre_1_1_allocated_object.html" target="_top" xlink:title="Superclass for all objects that wish to use custom memory allocators when their new / delete operator...">
<polygon fill="none" stroke="black" points="0,-75.5 0,-93.5 116.42,-93.5 116.42,-75.5 0,-75.5"/>
<text text-anchor="middle" x="58.21" y="-81.5" font-family="Helvetica,sans-Serif" font-size="10.00">RTShaderSystemAlloc</text>
</a>
</g>
</g>
<!-- Node2&#45;&gt;Node1 -->
<g id="edge1" class="edge">
<title>Node2&#45;&gt;Node1</title>
<path fill="none" stroke="midnightblue" d="M126.56,-84.5C134.95,-84.5 143.59,-84.5 152.13,-84.5"/>
<polygon fill="midnightblue" stroke="midnightblue" points="126.48,-81 116.48,-84.5 126.48,-88 126.48,-81"/>
</g>
</g>
</svg>
