<?xml version="1.0" encoding="UTF-8" standalone="no"?>
<!DOCTYPE svg PUBLIC "-//W3C//DTD SVG 1.1//EN"
 "http://www.w3.org/Graphics/SVG/1.1/DTD/svg11.dtd">
<!-- Generated by graphviz version 2.43.0 (0)
 -->
<!-- Title: Ogre::RTShader::GLSLESProgramProcessor Pages: 1 -->
<svg width="186pt" height="147pt"
 viewBox="0.00 0.00 186.10 147.00" xmlns="http://www.w3.org/2000/svg" xmlns:xlink="http://www.w3.org/1999/xlink">
<g id="graph0" class="graph" transform="scale(1 1) rotate(0) translate(4 143)">
<title>Ogre::RTShader::GLSLESProgramProcessor</title>
<!-- Node1 -->
<g id="node1" class="node">
<title>Node1</title>
<g id="a_node1"><a xlink:title="GLSL ES Language program processor class.">
<polygon fill="#bfbfbf" stroke="black" points="3.05,-0.5 3.05,-28.5 175.05,-28.5 175.05,-0.5 3.05,-0.5"/>
<text text-anchor="start" x="11.05" y="-16.5" font-family="Helvetica,sans-Serif" font-size="10.00">Ogre::RTShader::GLSLESProgram</text>
<text text-anchor="middle" x="89.05" y="-6.5" font-family="Helvetica,sans-Serif" font-size="10.00">Processor</text>
</a>
</g>
</g>
<!-- Node2 -->
<g id="node2" class="node">
<title>Node2</title>
<g id="a_node2"><a xlink:href="class_ogre_1_1_r_t_shader_1_1_program_processor.html" target="_top" xlink:title="A class that provides extra processing services on CPU based programs.">
<polygon fill="none" stroke="black" points="0,-65.5 0,-83.5 178.1,-83.5 178.1,-65.5 0,-65.5"/>
<text text-anchor="middle" x="89.05" y="-71.5" font-family="Helvetica,sans-Serif" font-size="10.00">Ogre::RTShader::ProgramProcessor</text>
</a>
</g>
</g>
<!-- Node2&#45;&gt;Node1 -->
<g id="edge1" class="edge">
<title>Node2&#45;&gt;Node1</title>
<path fill="none" stroke="midnightblue" d="M89.05,-55.32C89.05,-46.75 89.05,-36.7 89.05,-28.84"/>
<polygon fill="midnightblue" stroke="midnightblue" points="85.55,-55.44 89.05,-65.44 92.55,-55.44 85.55,-55.44"/>
</g>
<!-- Node3 -->
<g id="node3" class="node">
<title>Node3</title>
<g id="a_node3"><a xlink:href="class_ogre_1_1_allocated_object.html" target="_top" xlink:title="Superclass for all objects that wish to use custom memory allocators when their new / delete operator...">
<polygon fill="none" stroke="black" points="30.84,-120.5 30.84,-138.5 147.26,-138.5 147.26,-120.5 30.84,-120.5"/>
<text text-anchor="middle" x="89.05" y="-126.5" font-family="Helvetica,sans-Serif" font-size="10.00">RTShaderSystemAlloc</text>
</a>
</g>
</g>
<!-- Node3&#45;&gt;Node2 -->
<g id="edge2" class="edge">
<title>Node3&#45;&gt;Node2</title>
<path fill="none" stroke="midnightblue" d="M89.05,-110.17C89.05,-101.09 89.05,-90.59 89.05,-83.55"/>
<polygon fill="midnightblue" stroke="midnightblue" points="85.55,-110.22 89.05,-120.22 92.55,-110.22 85.55,-110.22"/>
</g>
</g>
</svg>
