<?xml version="1.0" encoding="UTF-8" standalone="no"?>
<!DOCTYPE svg PUBLIC "-//W3C//DTD SVG 1.1//EN"
 "http://www.w3.org/Graphics/SVG/1.1/DTD/svg11.dtd">
<!-- Generated by graphviz version 2.43.0 (0)
 -->
<!-- Title: Ogre::ScaleControllerFunction Pages: 1 -->
<svg width="159pt" height="147pt"
 viewBox="0.00 0.00 158.51 147.00" xmlns="http://www.w3.org/2000/svg" xmlns:xlink="http://www.w3.org/1999/xlink">
<g id="graph0" class="graph" transform="scale(1 1) rotate(0) translate(4 143)">
<title>Ogre::ScaleControllerFunction</title>
<!-- Node1 -->
<g id="node1" class="node">
<title>Node1</title>
<g id="a_node1"><a xlink:title="Predefined controller function which simply scales an input to an output value.">
<polygon fill="#bfbfbf" stroke="black" points="0,-0.5 0,-18.5 150.51,-18.5 150.51,-0.5 0,-0.5"/>
<text text-anchor="middle" x="75.25" y="-6.5" font-family="Helvetica,sans-Serif" font-size="10.00">Ogre::ScaleControllerFunction</text>
</a>
</g>
</g>
<!-- Node2 -->
<g id="node2" class="node">
<title>Node2</title>
<g id="a_node2"><a xlink:href="class_ogre_1_1_controller_function.html" target="_top" xlink:title=" ">
<polygon fill="none" stroke="black" points="12.51,-55.5 12.51,-83.5 138,-83.5 138,-55.5 12.51,-55.5"/>
<text text-anchor="start" x="20.51" y="-71.5" font-family="Helvetica,sans-Serif" font-size="10.00">Ogre::ControllerFunction</text>
<text text-anchor="middle" x="75.25" y="-61.5" font-family="Helvetica,sans-Serif" font-size="10.00">&lt; Real &gt;</text>
</a>
</g>
</g>
<!-- Node2&#45;&gt;Node1 -->
<g id="edge1" class="edge">
<title>Node2&#45;&gt;Node1</title>
<path fill="none" stroke="midnightblue" d="M75.25,-45.32C75.25,-35.94 75.25,-25.7 75.25,-18.77"/>
<polygon fill="midnightblue" stroke="midnightblue" points="71.75,-45.34 75.25,-55.34 78.75,-45.34 71.75,-45.34"/>
</g>
<!-- Node3 -->
<g id="node3" class="node">
<title>Node3</title>
<g id="a_node3"><a xlink:href="class_ogre_1_1_allocated_object.html" target="_top" xlink:title="Superclass for all objects that wish to use custom memory allocators when their new / delete operator...">
<polygon fill="none" stroke="black" points="34.74,-120.5 34.74,-138.5 115.77,-138.5 115.77,-120.5 34.74,-120.5"/>
<text text-anchor="middle" x="75.25" y="-126.5" font-family="Helvetica,sans-Serif" font-size="10.00">ControllerAlloc</text>
</a>
</g>
</g>
<!-- Node3&#45;&gt;Node2 -->
<g id="edge2" class="edge">
<title>Node3&#45;&gt;Node2</title>
<path fill="none" stroke="midnightblue" d="M75.25,-110.32C75.25,-101.75 75.25,-91.7 75.25,-83.84"/>
<polygon fill="midnightblue" stroke="midnightblue" points="71.75,-110.44 75.25,-120.44 78.75,-110.44 71.75,-110.44"/>
</g>
</g>
</svg>
