<?xml version="1.0" encoding="UTF-8" standalone="no"?>
<!DOCTYPE svg PUBLIC "-//W3C//DTD SVG 1.1//EN"
 "http://www.w3.org/Graphics/SVG/1.1/DTD/svg11.dtd">
<!-- Generated by graphviz version 2.43.0 (0)
 -->
<!-- Title: Ogre::RTShader::FunctionInvocation Pages: 1 -->
<svg width="164pt" height="147pt"
 viewBox="0.00 0.00 164.44 147.00" xmlns="http://www.w3.org/2000/svg" xmlns:xlink="http://www.w3.org/1999/xlink">
<g id="graph0" class="graph" transform="scale(1 1) rotate(0) translate(4 143)">
<title>Ogre::RTShader::FunctionInvocation</title>
<!-- Node1 -->
<g id="node1" class="node">
<title>Node1</title>
<g id="a_node1"><a xlink:title="A class that represents function invocation code from shader based program function.">
<polygon fill="#bfbfbf" stroke="black" points="11.67,-0.5 11.67,-28.5 144.77,-28.5 144.77,-0.5 11.67,-0.5"/>
<text text-anchor="start" x="19.67" y="-16.5" font-family="Helvetica,sans-Serif" font-size="10.00">Ogre::RTShader::Function</text>
<text text-anchor="middle" x="78.22" y="-6.5" font-family="Helvetica,sans-Serif" font-size="10.00">Invocation</text>
</a>
</g>
</g>
<!-- Node2 -->
<g id="node2" class="node">
<title>Node2</title>
<g id="a_node2"><a xlink:href="class_ogre_1_1_r_t_shader_1_1_function_atom.html" target="_top" xlink:title="A class that represents an atomic code section of shader based program function.">
<polygon fill="none" stroke="black" points="0,-65.5 0,-83.5 156.44,-83.5 156.44,-65.5 0,-65.5"/>
<text text-anchor="middle" x="78.22" y="-71.5" font-family="Helvetica,sans-Serif" font-size="10.00">Ogre::RTShader::FunctionAtom</text>
</a>
</g>
</g>
<!-- Node2&#45;&gt;Node1 -->
<g id="edge1" class="edge">
<title>Node2&#45;&gt;Node1</title>
<path fill="none" stroke="midnightblue" d="M78.22,-55.32C78.22,-46.75 78.22,-36.7 78.22,-28.84"/>
<polygon fill="midnightblue" stroke="midnightblue" points="74.72,-55.44 78.22,-65.44 81.72,-55.44 74.72,-55.44"/>
</g>
<!-- Node3 -->
<g id="node3" class="node">
<title>Node3</title>
<g id="a_node3"><a xlink:href="class_ogre_1_1_allocated_object.html" target="_top" xlink:title="Superclass for all objects that wish to use custom memory allocators when their new / delete operator...">
<polygon fill="none" stroke="black" points="20.01,-120.5 20.01,-138.5 136.43,-138.5 136.43,-120.5 20.01,-120.5"/>
<text text-anchor="middle" x="78.22" y="-126.5" font-family="Helvetica,sans-Serif" font-size="10.00">RTShaderSystemAlloc</text>
</a>
</g>
</g>
<!-- Node3&#45;&gt;Node2 -->
<g id="edge2" class="edge">
<title>Node3&#45;&gt;Node2</title>
<path fill="none" stroke="midnightblue" d="M78.22,-110.17C78.22,-101.09 78.22,-90.59 78.22,-83.55"/>
<polygon fill="midnightblue" stroke="midnightblue" points="74.72,-110.22 78.22,-120.22 81.72,-110.22 74.72,-110.22"/>
</g>
</g>
</svg>
