<?xml version="1.0" encoding="UTF-8" standalone="no"?>
<!DOCTYPE svg PUBLIC "-//W3C//DTD SVG 1.1//EN"
 "http://www.w3.org/Graphics/SVG/1.1/DTD/svg11.dtd">
<!-- Generated by graphviz version 2.43.0 (0)
 -->
<!-- Title: Ogre::SmallVectorImpl&lt; T &gt; Pages: 1 -->
<svg width="380pt" height="342pt"
 viewBox="0.00 0.00 379.79 342.00" xmlns="http://www.w3.org/2000/svg" xmlns:xlink="http://www.w3.org/1999/xlink">
<g id="graph0" class="graph" transform="scale(1 1) rotate(0) translate(4 338)">
<title>Ogre::SmallVectorImpl&lt; T &gt;</title>
<!-- Node1 -->
<g id="node1" class="node">
<title>Node1</title>
<g id="a_node1"><a xlink:title="SmallVectorImpl &#45; This class consists of common code factored out of the SmallVector class to reduce ...">
<polygon fill="#bfbfbf" stroke="black" points="120.55,-120.5 120.55,-138.5 259.59,-138.5 259.59,-120.5 120.55,-120.5"/>
<text text-anchor="middle" x="190.07" y="-126.5" font-family="Helvetica,sans-Serif" font-size="10.00">Ogre::SmallVectorImpl&lt; T &gt;</text>
</a>
</g>
</g>
<!-- Node5 -->
<g id="node5" class="node">
<title>Node5</title>
<g id="a_node5"><a xlink:href="class_ogre_1_1_small_vector.html" target="_top" xlink:title="SmallVector &#45; This is a &#39;vector&#39; (really, a variable&#45;sized array), optimized for the case when the ar...">
<polygon fill="none" stroke="black" points="0,-60.5 0,-78.5 120.14,-78.5 120.14,-60.5 0,-60.5"/>
<text text-anchor="middle" x="60.07" y="-66.5" font-family="Helvetica,sans-Serif" font-size="10.00">Ogre::SmallVector&lt; T &gt;</text>
</a>
</g>
</g>
<!-- Node1&#45;&gt;Node5 -->
<g id="edge7" class="edge">
<title>Node1&#45;&gt;Node5</title>
<path fill="none" stroke="midnightblue" d="M157.66,-116.53C130.54,-105.22 93.42,-88.55 73.54,-78.68"/>
<polygon fill="midnightblue" stroke="midnightblue" points="156.57,-119.87 167.15,-120.44 159.23,-113.39 156.57,-119.87"/>
</g>
<!-- Node1&#45;&gt;Node5 -->
<g id="edge8" class="edge">
<title>Node1&#45;&gt;Node5</title>
<path fill="none" stroke="midnightblue" d="M167.58,-115.93C143.92,-104.64 107.21,-88.38 83.28,-78.68"/>
<polygon fill="midnightblue" stroke="midnightblue" points="166.32,-119.21 176.84,-120.44 169.38,-112.92 166.32,-119.21"/>
</g>
<!-- Node6 -->
<g id="node6" class="node">
<title>Node6</title>
<g id="a_node6"><a xlink:href="class_ogre_1_1_small_vector_3_01_t_00_010_01_4.html" target="_top" xlink:title="Specialize SmallVector at N=0.">
<polygon fill="none" stroke="black" points="138.58,-55.5 138.58,-83.5 241.56,-83.5 241.56,-55.5 138.58,-55.5"/>
<text text-anchor="start" x="146.58" y="-71.5" font-family="Helvetica,sans-Serif" font-size="10.00">Ogre::SmallVector&lt;</text>
<text text-anchor="middle" x="190.07" y="-61.5" font-family="Helvetica,sans-Serif" font-size="10.00"> T, 0 &gt;</text>
</a>
</g>
</g>
<!-- Node1&#45;&gt;Node6 -->
<g id="edge9" class="edge">
<title>Node1&#45;&gt;Node6</title>
<path fill="none" stroke="midnightblue" d="M183.76,-110.32C183.03,-101.75 183.21,-91.7 184.28,-83.84"/>
<polygon fill="midnightblue" stroke="midnightblue" points="180.32,-111.04 185.23,-120.44 187.25,-110.04 180.32,-111.04"/>
</g>
<!-- Node1&#45;&gt;Node6 -->
<g id="edge10" class="edge">
<title>Node1&#45;&gt;Node6</title>
<path fill="none" stroke="midnightblue" d="M196.38,-110.32C197.11,-101.75 196.93,-91.7 195.86,-83.84"/>
<polygon fill="midnightblue" stroke="midnightblue" points="192.89,-110.04 194.92,-120.44 199.82,-111.04 192.89,-110.04"/>
</g>
<!-- Node7 -->
<g id="node7" class="node">
<title>Node7</title>
<g id="a_node7"><a xlink:href="class_ogre_1_1_small_vector.html" target="_top" xlink:title=" ">
<polygon fill="none" stroke="black" points="259.25,-60.5 259.25,-78.5 362.89,-78.5 362.89,-60.5 259.25,-60.5"/>
<text text-anchor="middle" x="311.07" y="-66.5" font-family="Helvetica,sans-Serif" font-size="10.00">SmallVector&lt; T, S &gt;</text>
</a>
</g>
</g>
<!-- Node1&#45;&gt;Node7 -->
<g id="edge11" class="edge">
<title>Node1&#45;&gt;Node7</title>
<path fill="none" stroke="midnightblue" d="M210.91,-115.78C232.82,-104.49 266.8,-88.34 289.13,-78.68"/>
<polygon fill="midnightblue" stroke="midnightblue" points="209.27,-112.69 202.05,-120.44 212.53,-118.88 209.27,-112.69"/>
</g>
<!-- Node1&#45;&gt;Node7 -->
<g id="edge13" class="edge">
<title>Node1&#45;&gt;Node7</title>
<path fill="none" stroke="midnightblue" d="M220.96,-116.38C246.29,-105.07 280.6,-88.51 298.87,-78.68"/>
<polygon fill="midnightblue" stroke="midnightblue" points="219.49,-113.21 211.74,-120.44 222.3,-119.61 219.49,-113.21"/>
</g>
<!-- Node2 -->
<g id="node2" class="node">
<title>Node2</title>
<g id="a_node2"><a xlink:href="class_ogre_1_1_small_vector_template_base.html" target="_top" xlink:title=" ">
<polygon fill="none" stroke="black" points="121.21,-175.5 121.21,-213.5 258.93,-213.5 258.93,-175.5 121.21,-175.5"/>
<text text-anchor="start" x="129.21" y="-201.5" font-family="Helvetica,sans-Serif" font-size="10.00">Ogre::SmallVectorTemplate</text>
<text text-anchor="start" x="129.21" y="-191.5" font-family="Helvetica,sans-Serif" font-size="10.00">Base&lt; T, isPodLike&lt; T &gt;</text>
<text text-anchor="middle" x="190.07" y="-181.5" font-family="Helvetica,sans-Serif" font-size="10.00">::value &gt;</text>
</a>
</g>
</g>
<!-- Node2&#45;&gt;Node1 -->
<g id="edge1" class="edge">
<title>Node2&#45;&gt;Node1</title>
<path fill="none" stroke="midnightblue" d="M183.35,-165.16C183.17,-155.54 183.83,-145.52 185.34,-138.74"/>
<polygon fill="midnightblue" stroke="midnightblue" points="179.86,-165.48 183.88,-175.28 186.85,-165.11 179.86,-165.48"/>
</g>
<!-- Node2&#45;&gt;Node1 -->
<g id="edge6" class="edge">
<title>Node2&#45;&gt;Node1</title>
<path fill="none" stroke="midnightblue" d="M196.79,-165.16C196.98,-155.54 196.31,-145.52 194.8,-138.74"/>
<polygon fill="midnightblue" stroke="midnightblue" points="193.29,-165.11 196.26,-175.28 200.28,-165.48 193.29,-165.11"/>
</g>
<!-- Node3 -->
<g id="node3" class="node">
<title>Node3</title>
<g id="a_node3"><a xlink:href="class_ogre_1_1_small_vector_template_common.html" target="_top" xlink:title=" ">
<polygon fill="none" stroke="black" points="121.21,-250.5 121.21,-278.5 258.93,-278.5 258.93,-250.5 121.21,-250.5"/>
<text text-anchor="start" x="129.21" y="-266.5" font-family="Helvetica,sans-Serif" font-size="10.00">Ogre::SmallVectorTemplate</text>
<text text-anchor="middle" x="190.07" y="-256.5" font-family="Helvetica,sans-Serif" font-size="10.00">Common&lt; T &gt;</text>
</a>
</g>
</g>
<!-- Node3&#45;&gt;Node2 -->
<g id="edge2" class="edge">
<title>Node3&#45;&gt;Node2</title>
<path fill="none" stroke="midnightblue" d="M183.62,-240.17C183.12,-231.52 183.25,-221.84 184.01,-213.71"/>
<polygon fill="midnightblue" stroke="midnightblue" points="180.17,-240.77 184.61,-250.39 187.13,-240.1 180.17,-240.77"/>
</g>
<!-- Node3&#45;&gt;Node2 -->
<g id="edge5" class="edge">
<title>Node3&#45;&gt;Node2</title>
<path fill="none" stroke="midnightblue" d="M196.52,-240.17C197.03,-231.52 196.9,-221.84 196.13,-213.71"/>
<polygon fill="midnightblue" stroke="midnightblue" points="193.01,-240.1 195.53,-250.39 199.97,-240.77 193.01,-240.1"/>
</g>
<!-- Node4 -->
<g id="node4" class="node">
<title>Node4</title>
<g id="a_node4"><a xlink:href="class_ogre_1_1_small_vector_base.html" target="_top" xlink:title="SmallVectorBase &#45; This is all the non&#45;templated stuff common to all SmallVectors.">
<polygon fill="none" stroke="black" points="130.1,-315.5 130.1,-333.5 250.04,-333.5 250.04,-315.5 130.1,-315.5"/>
<text text-anchor="middle" x="190.07" y="-321.5" font-family="Helvetica,sans-Serif" font-size="10.00">Ogre::SmallVectorBase</text>
</a>
</g>
</g>
<!-- Node4&#45;&gt;Node3 -->
<g id="edge3" class="edge">
<title>Node4&#45;&gt;Node3</title>
<path fill="none" stroke="midnightblue" d="M183.76,-305.32C183.03,-296.75 183.21,-286.7 184.28,-278.84"/>
<polygon fill="midnightblue" stroke="midnightblue" points="180.32,-306.04 185.23,-315.44 187.25,-305.04 180.32,-306.04"/>
</g>
<!-- Node4&#45;&gt;Node3 -->
<g id="edge4" class="edge">
<title>Node4&#45;&gt;Node3</title>
<path fill="none" stroke="midnightblue" d="M196.38,-305.32C197.11,-296.75 196.93,-286.7 195.86,-278.84"/>
<polygon fill="midnightblue" stroke="midnightblue" points="192.89,-305.04 194.92,-315.44 199.82,-306.04 192.89,-305.04"/>
</g>
<!-- Node8 -->
<g id="node8" class="node">
<title>Node8</title>
<g id="a_node8"><a xlink:href="struct_ogre_1_1_vector_set.html" target="_top" xlink:title="VectorSet is basically a helper to use a vector as a small set container.">
<polygon fill="none" stroke="black" points="250.35,-0.5 250.35,-18.5 371.79,-18.5 371.79,-0.5 250.35,-0.5"/>
<text text-anchor="middle" x="311.07" y="-6.5" font-family="Helvetica,sans-Serif" font-size="10.00">Ogre::VectorSet&lt; T, S &gt;</text>
</a>
</g>
</g>
<!-- Node7&#45;&gt;Node8 -->
<g id="edge12" class="edge">
<title>Node7&#45;&gt;Node8</title>
<path fill="none" stroke="midnightblue" d="M311.07,-50.21C311.07,-39.71 311.07,-27.03 311.07,-18.87"/>
<polygon fill="midnightblue" stroke="midnightblue" points="307.57,-50.44 311.07,-60.44 314.57,-50.44 307.57,-50.44"/>
</g>
</g>
</svg>
