<?xml version="1.0" encoding="UTF-8" standalone="no"?>
<!DOCTYPE svg PUBLIC "-//W3C//DTD SVG 1.1//EN"
 "http://www.w3.org/Graphics/SVG/1.1/DTD/svg11.dtd">
<!-- Generated by graphviz version 2.43.0 (0)
 -->
<!-- Title: Ogre::TerrainPagedWorldSection Pages: 1 -->
<svg width="451pt" height="121pt"
 viewBox="0.00 0.00 451.14 121.00" xmlns="http://www.w3.org/2000/svg" xmlns:xlink="http://www.w3.org/1999/xlink">
<g id="graph0" class="graph" transform="scale(1 1) rotate(0) translate(4 117)">
<title>Ogre::TerrainPagedWorldSection</title>
<!-- Node1 -->
<g id="node1" class="node">
<title>Node1</title>
<g id="a_node1"><a xlink:title="A world section which includes paged terrain.">
<polygon fill="#bfbfbf" stroke="black" points="280.58,-52.5 280.58,-70.5 443.14,-70.5 443.14,-52.5 280.58,-52.5"/>
<text text-anchor="middle" x="361.86" y="-58.5" font-family="Helvetica,sans-Serif" font-size="10.00">Ogre::TerrainPagedWorldSection</text>
</a>
</g>
</g>
<!-- Node2 -->
<g id="node2" class="node">
<title>Node2</title>
<g id="a_node2"><a xlink:href="class_ogre_1_1_paged_world_section.html" target="_top" xlink:title="Represents a section of the PagedWorld which uses a given PageStrategy, and which is made up of a gen...">
<polygon fill="none" stroke="black" points="104.81,-94.5 104.81,-112.5 236.8,-112.5 236.8,-94.5 104.81,-94.5"/>
<text text-anchor="middle" x="170.81" y="-100.5" font-family="Helvetica,sans-Serif" font-size="10.00">Ogre::PagedWorldSection</text>
</a>
</g>
</g>
<!-- Node2&#45;&gt;Node1 -->
<g id="edge1" class="edge">
<title>Node2&#45;&gt;Node1</title>
<path fill="none" stroke="midnightblue" d="M222.4,-92.26C252.97,-85.47 291.43,-76.93 320.05,-70.57"/>
<polygon fill="midnightblue" stroke="midnightblue" points="221.37,-88.9 212.36,-94.49 222.88,-95.74 221.37,-88.9"/>
</g>
<!-- Node3 -->
<g id="node3" class="node">
<title>Node3</title>
<g id="a_node3"><a xlink:href="class_ogre_1_1_allocated_object.html" target="_top" xlink:title="Superclass for all objects that wish to use custom memory allocators when their new / delete operator...">
<polygon fill="none" stroke="black" points="0,-94.5 0,-112.5 61.03,-112.5 61.03,-94.5 0,-94.5"/>
<text text-anchor="middle" x="30.51" y="-100.5" font-family="Helvetica,sans-Serif" font-size="10.00">PageAlloc</text>
</a>
</g>
</g>
<!-- Node3&#45;&gt;Node2 -->
<g id="edge2" class="edge">
<title>Node3&#45;&gt;Node2</title>
<path fill="none" stroke="midnightblue" d="M71.23,-103.5C81.68,-103.5 93.25,-103.5 104.66,-103.5"/>
<polygon fill="midnightblue" stroke="midnightblue" points="71.18,-100 61.18,-103.5 71.18,-107 71.18,-100"/>
</g>
<!-- Node4 -->
<g id="node4" class="node">
<title>Node4</title>
<g id="a_node4"><a xlink:href="class_ogre_1_1_work_queue_1_1_request_handler.html" target="_top" xlink:title="Interface definition for a handler of requests.">
<polygon fill="none" stroke="black" points="100.92,-47.5 100.92,-75.5 240.69,-75.5 240.69,-47.5 100.92,-47.5"/>
<text text-anchor="start" x="108.92" y="-63.5" font-family="Helvetica,sans-Serif" font-size="10.00">Ogre::WorkQueue::Request</text>
<text text-anchor="middle" x="170.81" y="-53.5" font-family="Helvetica,sans-Serif" font-size="10.00">Handler</text>
</a>
</g>
</g>
<!-- Node4&#45;&gt;Node1 -->
<g id="edge3" class="edge">
<title>Node4&#45;&gt;Node1</title>
<path fill="none" stroke="midnightblue" d="M250.93,-61.5C260.69,-61.5 270.68,-61.5 280.46,-61.5"/>
<polygon fill="midnightblue" stroke="midnightblue" points="250.86,-58 240.86,-61.5 250.86,-65 250.86,-58"/>
</g>
<!-- Node5 -->
<g id="node5" class="node">
<title>Node5</title>
<g id="a_node5"><a xlink:href="class_ogre_1_1_work_queue_1_1_response_handler.html" target="_top" xlink:title="Interface definition for a handler of responses.">
<polygon fill="none" stroke="black" points="97.03,-0.5 97.03,-28.5 244.58,-28.5 244.58,-0.5 97.03,-0.5"/>
<text text-anchor="start" x="105.03" y="-16.5" font-family="Helvetica,sans-Serif" font-size="10.00">Ogre::WorkQueue::Response</text>
<text text-anchor="middle" x="170.81" y="-6.5" font-family="Helvetica,sans-Serif" font-size="10.00">Handler</text>
</a>
</g>
</g>
<!-- Node5&#45;&gt;Node1 -->
<g id="edge4" class="edge">
<title>Node5&#45;&gt;Node1</title>
<path fill="none" stroke="midnightblue" d="M238.36,-31.04C267.37,-38.26 300.26,-46.43 324.64,-52.5"/>
<polygon fill="midnightblue" stroke="midnightblue" points="238.82,-27.55 228.27,-28.54 237.13,-34.35 238.82,-27.55"/>
</g>
</g>
</svg>
