<?xml version="1.0" encoding="UTF-8" standalone="no"?>
<!DOCTYPE svg PUBLIC "-//W3C//DTD SVG 1.1//EN"
 "http://www.w3.org/Graphics/SVG/1.1/DTD/svg11.dtd">
<!-- Generated by graphviz version 2.43.0 (0)
 -->
<!-- Title: Ogre::GLES2RenderSystem Pages: 1 -->
<svg width="150pt" height="137pt"
 viewBox="0.00 0.00 150.17 137.00" xmlns="http://www.w3.org/2000/svg" xmlns:xlink="http://www.w3.org/1999/xlink">
<g id="graph0" class="graph" transform="scale(1 1) rotate(0) translate(4 133)">
<title>Ogre::GLES2RenderSystem</title>
<!-- Node1 -->
<g id="node1" class="node">
<title>Node1</title>
<g id="a_node1"><a xlink:title="Implementation of GL ES 2.x as a rendering system.">
<polygon fill="#bfbfbf" stroke="black" points="0,-0.5 0,-18.5 142.17,-18.5 142.17,-0.5 0,-0.5"/>
<text text-anchor="middle" x="71.08" y="-6.5" font-family="Helvetica,sans-Serif" font-size="10.00">Ogre::GLES2RenderSystem</text>
</a>
</g>
</g>
<!-- Node2 -->
<g id="node2" class="node">
<title>Node2</title>
<g id="a_node2"><a xlink:href="class_ogre_1_1_render_system.html" target="_top" xlink:title="Defines the functionality of a 3D API.">
<polygon fill="none" stroke="black" points="16.12,-55.5 16.12,-73.5 126.05,-73.5 126.05,-55.5 16.12,-55.5"/>
<text text-anchor="middle" x="71.08" y="-61.5" font-family="Helvetica,sans-Serif" font-size="10.00">Ogre::RenderSystem</text>
</a>
</g>
</g>
<!-- Node2&#45;&gt;Node1 -->
<g id="edge1" class="edge">
<title>Node2&#45;&gt;Node1</title>
<path fill="none" stroke="midnightblue" d="M71.08,-45.17C71.08,-36.09 71.08,-25.59 71.08,-18.55"/>
<polygon fill="midnightblue" stroke="midnightblue" points="67.58,-45.22 71.08,-55.22 74.58,-45.22 67.58,-45.22"/>
</g>
<!-- Node3 -->
<g id="node3" class="node">
<title>Node3</title>
<g id="a_node3"><a xlink:href="class_ogre_1_1_allocated_object.html" target="_top" xlink:title="Superclass for all objects that wish to use custom memory allocators when their new / delete operator...">
<polygon fill="none" stroke="black" points="27.51,-110.5 27.51,-128.5 114.65,-128.5 114.65,-110.5 27.51,-110.5"/>
<text text-anchor="middle" x="71.08" y="-116.5" font-family="Helvetica,sans-Serif" font-size="10.00">RenderSysAlloc</text>
</a>
</g>
</g>
<!-- Node3&#45;&gt;Node2 -->
<g id="edge2" class="edge">
<title>Node3&#45;&gt;Node2</title>
<path fill="none" stroke="midnightblue" d="M71.08,-100.17C71.08,-91.09 71.08,-80.59 71.08,-73.55"/>
<polygon fill="midnightblue" stroke="midnightblue" points="67.58,-100.22 71.08,-110.22 74.58,-100.22 67.58,-100.22"/>
</g>
</g>
</svg>
