<?xml version="1.0" encoding="UTF-8" standalone="no"?>
<!DOCTYPE svg PUBLIC "-//W3C//DTD SVG 1.1//EN"
 "http://www.w3.org/Graphics/SVG/1.1/DTD/svg11.dtd">
<!-- Generated by graphviz version 2.43.0 (0)
 -->
<!-- Title: Ogre::v1::NodeAnimationTrack Pages: 1 -->
<svg width="161pt" height="137pt"
 viewBox="0.00 0.00 160.91 137.00" xmlns="http://www.w3.org/2000/svg" xmlns:xlink="http://www.w3.org/1999/xlink">
<g id="graph0" class="graph" transform="scale(1 1) rotate(0) translate(4 133)">
<title>Ogre::v1::NodeAnimationTrack</title>
<!-- Node1 -->
<g id="node1" class="node">
<title>Node1</title>
<g id="a_node1"><a xlink:title="Specialised AnimationTrack for dealing with node transforms.">
<polygon fill="#bfbfbf" stroke="black" points="0,-0.5 0,-18.5 152.91,-18.5 152.91,-0.5 0,-0.5"/>
<text text-anchor="middle" x="76.46" y="-6.5" font-family="Helvetica,sans-Serif" font-size="10.00">Ogre::v1::NodeAnimationTrack</text>
</a>
</g>
</g>
<!-- Node2 -->
<g id="node2" class="node">
<title>Node2</title>
<g id="a_node2"><a xlink:href="class_ogre_1_1v1_1_1_animation_track.html" target="_top" xlink:title="A &#39;track&#39; in an animation sequence, i.e.">
<polygon fill="none" stroke="black" points="11.95,-55.5 11.95,-73.5 140.96,-73.5 140.96,-55.5 11.95,-55.5"/>
<text text-anchor="middle" x="76.46" y="-61.5" font-family="Helvetica,sans-Serif" font-size="10.00">Ogre::v1::AnimationTrack</text>
</a>
</g>
</g>
<!-- Node2&#45;&gt;Node1 -->
<g id="edge1" class="edge">
<title>Node2&#45;&gt;Node1</title>
<path fill="none" stroke="midnightblue" d="M76.46,-45.17C76.46,-36.09 76.46,-25.59 76.46,-18.55"/>
<polygon fill="midnightblue" stroke="midnightblue" points="72.96,-45.22 76.46,-55.22 79.96,-45.22 72.96,-45.22"/>
</g>
<!-- Node3 -->
<g id="node3" class="node">
<title>Node3</title>
<g id="a_node3"><a xlink:href="class_ogre_1_1_allocated_object.html" target="_top" xlink:title="Superclass for all objects that wish to use custom memory allocators when their new / delete operator...">
<polygon fill="none" stroke="black" points="35.39,-110.5 35.39,-128.5 117.53,-128.5 117.53,-110.5 35.39,-110.5"/>
<text text-anchor="middle" x="76.46" y="-116.5" font-family="Helvetica,sans-Serif" font-size="10.00">AnimationAlloc</text>
</a>
</g>
</g>
<!-- Node3&#45;&gt;Node2 -->
<g id="edge2" class="edge">
<title>Node3&#45;&gt;Node2</title>
<path fill="none" stroke="midnightblue" d="M76.46,-100.17C76.46,-91.09 76.46,-80.59 76.46,-73.55"/>
<polygon fill="midnightblue" stroke="midnightblue" points="72.96,-100.22 76.46,-110.22 79.96,-100.22 72.96,-100.22"/>
</g>
</g>
</svg>
