<?xml version="1.0" encoding="UTF-8" standalone="no"?>
<!DOCTYPE svg PUBLIC "-//W3C//DTD SVG 1.1//EN"
 "http://www.w3.org/Graphics/SVG/1.1/DTD/svg11.dtd">
<!-- Generated by graphviz version 2.43.0 (0)
 -->
<!-- Title: Ogre::PortalBaseFactory Pages: 1 -->
<svg width="250pt" height="192pt"
 viewBox="0.00 0.00 249.87 192.00" xmlns="http://www.w3.org/2000/svg" xmlns:xlink="http://www.w3.org/1999/xlink">
<g id="graph0" class="graph" transform="scale(1 1) rotate(0) translate(4 188)">
<title>Ogre::PortalBaseFactory</title>
<!-- Node1 -->
<g id="node1" class="node">
<title>Node1</title>
<g id="a_node1"><a xlink:title="Factory object for creating Portal instances.">
<polygon fill="#bfbfbf" stroke="black" points="62.22,-55.5 62.22,-73.5 188.26,-73.5 188.26,-55.5 62.22,-55.5"/>
<text text-anchor="middle" x="125.24" y="-61.5" font-family="Helvetica,sans-Serif" font-size="10.00">Ogre::PortalBaseFactory</text>
</a>
</g>
</g>
<!-- Node4 -->
<g id="node4" class="node">
<title>Node4</title>
<g id="a_node4"><a xlink:href="class_ogre_1_1_anti_portal_factory.html" target="_top" xlink:title="Factory object for creating AntiPortal instances.">
<polygon fill="none" stroke="black" points="0,-0.5 0,-18.5 120.48,-18.5 120.48,-0.5 0,-0.5"/>
<text text-anchor="middle" x="60.24" y="-6.5" font-family="Helvetica,sans-Serif" font-size="10.00">Ogre::AntiPortalFactory</text>
</a>
</g>
</g>
<!-- Node1&#45;&gt;Node4 -->
<g id="edge3" class="edge">
<title>Node1&#45;&gt;Node4</title>
<path fill="none" stroke="midnightblue" d="M107.37,-48.93C95.39,-39.16 80.07,-26.67 70.21,-18.63"/>
<polygon fill="midnightblue" stroke="midnightblue" points="105.41,-51.84 115.37,-55.45 109.83,-46.42 105.41,-51.84"/>
</g>
<!-- Node5 -->
<g id="node5" class="node">
<title>Node5</title>
<g id="a_node5"><a xlink:href="class_ogre_1_1_portal_factory.html" target="_top" xlink:title="Factory object for creating Portal instances.">
<polygon fill="none" stroke="black" points="138.62,-0.5 138.62,-18.5 241.87,-18.5 241.87,-0.5 138.62,-0.5"/>
<text text-anchor="middle" x="190.24" y="-6.5" font-family="Helvetica,sans-Serif" font-size="10.00">Ogre::PortalFactory</text>
</a>
</g>
</g>
<!-- Node1&#45;&gt;Node5 -->
<g id="edge4" class="edge">
<title>Node1&#45;&gt;Node5</title>
<path fill="none" stroke="midnightblue" d="M143.12,-48.93C155.09,-39.16 170.41,-26.67 180.28,-18.63"/>
<polygon fill="midnightblue" stroke="midnightblue" points="140.65,-46.42 135.11,-55.45 145.08,-51.84 140.65,-46.42"/>
</g>
<!-- Node2 -->
<g id="node2" class="node">
<title>Node2</title>
<g id="a_node2"><a xlink:href="class_ogre_1_1_movable_object_factory.html" target="_top" xlink:title="Interface definition for a factory class which produces a certain kind of MovableObject,...">
<polygon fill="none" stroke="black" points="53.33,-110.5 53.33,-128.5 197.15,-128.5 197.15,-110.5 53.33,-110.5"/>
<text text-anchor="middle" x="125.24" y="-116.5" font-family="Helvetica,sans-Serif" font-size="10.00">Ogre::MovableObjectFactory</text>
</a>
</g>
</g>
<!-- Node2&#45;&gt;Node1 -->
<g id="edge1" class="edge">
<title>Node2&#45;&gt;Node1</title>
<path fill="none" stroke="midnightblue" d="M125.24,-100.17C125.24,-91.09 125.24,-80.59 125.24,-73.55"/>
<polygon fill="midnightblue" stroke="midnightblue" points="121.74,-100.22 125.24,-110.22 128.74,-100.22 121.74,-100.22"/>
</g>
<!-- Node3 -->
<g id="node3" class="node">
<title>Node3</title>
<g id="a_node3"><a xlink:href="class_ogre_1_1_allocated_object.html" target="_top" xlink:title="Superclass for all objects that wish to use custom memory allocators when their new / delete operator...">
<polygon fill="none" stroke="black" points="87.5,-165.5 87.5,-183.5 162.98,-183.5 162.98,-165.5 87.5,-165.5"/>
<text text-anchor="middle" x="125.24" y="-171.5" font-family="Helvetica,sans-Serif" font-size="10.00">MovableAlloc</text>
</a>
</g>
</g>
<!-- Node3&#45;&gt;Node2 -->
<g id="edge2" class="edge">
<title>Node3&#45;&gt;Node2</title>
<path fill="none" stroke="midnightblue" d="M125.24,-155.17C125.24,-146.09 125.24,-135.59 125.24,-128.55"/>
<polygon fill="midnightblue" stroke="midnightblue" points="121.74,-155.22 125.24,-165.22 128.74,-155.22 121.74,-155.22"/>
</g>
</g>
</svg>
