<?xml version="1.0" encoding="UTF-8" standalone="no"?>
<!DOCTYPE svg PUBLIC "-//W3C//DTD SVG 1.1//EN"
 "http://www.w3.org/Graphics/SVG/1.1/DTD/svg11.dtd">
<!-- Generated by graphviz version 2.43.0 (0)
 -->
<!-- Title: Ogre::Plugin Pages: 1 -->
<svg width="374pt" height="434pt"
 viewBox="0.00 0.00 373.70 434.00" xmlns="http://www.w3.org/2000/svg" xmlns:xlink="http://www.w3.org/1999/xlink">
<g id="graph0" class="graph" transform="scale(1 1) rotate(0) translate(4 430)">
<title>Ogre::Plugin</title>
<!-- Node1 -->
<g id="node1" class="node">
<title>Node1</title>
<g id="a_node1"><a xlink:title="Class defining a generic OGRE plugin.">
<polygon fill="#bfbfbf" stroke="black" points="101.47,-203.5 101.47,-221.5 173.06,-221.5 173.06,-203.5 101.47,-203.5"/>
<text text-anchor="middle" x="137.27" y="-209.5" font-family="Helvetica,sans-Serif" font-size="10.00">Ogre::Plugin</text>
</a>
</g>
</g>
<!-- Node3 -->
<g id="node3" class="node">
<title>Node3</title>
<g id="a_node3"><a xlink:href="class_ogre_1_1_bsp_scene_manager_plugin.html" target="_top" xlink:title="Plugin instance for BSPSceneManager.">
<polygon fill="none" stroke="black" points="209.06,-407.5 209.06,-425.5 365.7,-425.5 365.7,-407.5 209.06,-407.5"/>
<text text-anchor="middle" x="287.38" y="-413.5" font-family="Helvetica,sans-Serif" font-size="10.00">Ogre::BspSceneManagerPlugin</text>
</a>
</g>
</g>
<!-- Node1&#45;&gt;Node3 -->
<g id="edge2" class="edge">
<title>Node1&#45;&gt;Node3</title>
<path fill="none" stroke="midnightblue" d="M139.77,-231.69C143.82,-269.59 158.35,-354.21 209.06,-398.5 213.21,-402.13 217.95,-405.06 223,-407.43"/>
<polygon fill="midnightblue" stroke="midnightblue" points="143.24,-231.16 138.83,-221.52 136.27,-231.81 143.24,-231.16"/>
</g>
<!-- Node4 -->
<g id="node4" class="node">
<title>Node4</title>
<g id="a_node4"><a xlink:href="class_ogre_1_1_cg_plugin.html" target="_top" xlink:title="Plugin instance for Cg Program Manager.">
<polygon fill="none" stroke="black" points="245.19,-370.5 245.19,-388.5 329.56,-388.5 329.56,-370.5 245.19,-370.5"/>
<text text-anchor="middle" x="287.38" y="-376.5" font-family="Helvetica,sans-Serif" font-size="10.00">Ogre::CgPlugin</text>
</a>
</g>
</g>
<!-- Node1&#45;&gt;Node4 -->
<g id="edge3" class="edge">
<title>Node1&#45;&gt;Node4</title>
<path fill="none" stroke="midnightblue" d="M141.74,-231.38C148.63,-263.3 167.16,-327.76 209.06,-361.5 219.15,-369.63 232.25,-374.21 244.8,-376.76"/>
<polygon fill="midnightblue" stroke="midnightblue" points="145.16,-230.67 139.76,-221.55 138.3,-232.04 145.16,-230.67"/>
</g>
<!-- Node5 -->
<g id="node5" class="node">
<title>Node5</title>
<g id="a_node5"><a xlink:href="class_ogre_1_1_d3_d11_plugin.html" target="_top" xlink:title="Plugin instance for D3D11 Manager.">
<polygon fill="none" stroke="black" points="236.39,-333.5 236.39,-351.5 338.37,-351.5 338.37,-333.5 236.39,-333.5"/>
<text text-anchor="middle" x="287.38" y="-339.5" font-family="Helvetica,sans-Serif" font-size="10.00">Ogre::D3D11Plugin</text>
</a>
</g>
</g>
<!-- Node1&#45;&gt;Node5 -->
<g id="edge4" class="edge">
<title>Node1&#45;&gt;Node5</title>
<path fill="none" stroke="midnightblue" d="M144.89,-231.28C154.79,-256.53 175.92,-300.95 209.06,-324.5 217.03,-330.17 226.53,-334.08 236.1,-336.77"/>
<polygon fill="midnightblue" stroke="midnightblue" points="148.11,-229.9 141.33,-221.75 141.55,-232.35 148.11,-229.9"/>
</g>
<!-- Node6 -->
<g id="node6" class="node">
<title>Node6</title>
<g id="a_node6"><a xlink:href="class_ogre_1_1_d3_d9_plugin.html" target="_top" xlink:title="Plugin instance for D3D9 Manager.">
<polygon fill="none" stroke="black" points="238.8,-296.5 238.8,-314.5 335.95,-314.5 335.95,-296.5 238.8,-296.5"/>
<text text-anchor="middle" x="287.38" y="-302.5" font-family="Helvetica,sans-Serif" font-size="10.00">Ogre::D3D9Plugin</text>
</a>
</g>
</g>
<!-- Node1&#45;&gt;Node6 -->
<g id="edge5" class="edge">
<title>Node1&#45;&gt;Node6</title>
<path fill="none" stroke="midnightblue" d="M150.11,-230.11C162.69,-247.4 184.17,-273.2 209.06,-287.5 218.02,-292.65 228.37,-296.33 238.52,-298.95"/>
<polygon fill="midnightblue" stroke="midnightblue" points="152.68,-227.68 144.07,-221.51 146.95,-231.7 152.68,-227.68"/>
</g>
<!-- Node7 -->
<g id="node7" class="node">
<title>Node7</title>
<g id="a_node7"><a xlink:href="class_ogre_1_1_g_l3_plus_plugin.html" target="_top" xlink:title="Plugin instance for GL3Plus Manager.">
<polygon fill="none" stroke="black" points="232.41,-259.5 232.41,-277.5 342.35,-277.5 342.35,-259.5 232.41,-259.5"/>
<text text-anchor="middle" x="287.38" y="-265.5" font-family="Helvetica,sans-Serif" font-size="10.00">Ogre::GL3PlusPlugin</text>
</a>
</g>
</g>
<!-- Node1&#45;&gt;Node7 -->
<g id="edge6" class="edge">
<title>Node1&#45;&gt;Node7</title>
<path fill="none" stroke="midnightblue" d="M161.01,-226.7C174.55,-234.64 192.3,-244.18 209.06,-250.5 218.47,-254.05 228.8,-257.04 238.77,-259.5"/>
<polygon fill="midnightblue" stroke="midnightblue" points="162.76,-223.67 152.38,-221.52 159.15,-229.67 162.76,-223.67"/>
</g>
<!-- Node8 -->
<g id="node8" class="node">
<title>Node8</title>
<g id="a_node8"><a xlink:href="class_ogre_1_1_g_l_e_s2_plugin.html" target="_top" xlink:title="Plugin instance for GL ES 2 Manager.">
<polygon fill="none" stroke="black" points="235.46,-222.5 235.46,-240.5 339.29,-240.5 339.29,-222.5 235.46,-222.5"/>
<text text-anchor="middle" x="287.38" y="-228.5" font-family="Helvetica,sans-Serif" font-size="10.00">Ogre::GLES2Plugin</text>
</a>
</g>
</g>
<!-- Node1&#45;&gt;Node8 -->
<g id="edge7" class="edge">
<title>Node1&#45;&gt;Node8</title>
<path fill="none" stroke="midnightblue" d="M183.72,-218.33C200.03,-220.42 218.51,-222.79 235.26,-224.94"/>
<polygon fill="midnightblue" stroke="midnightblue" points="183.73,-214.8 173.37,-217 182.84,-221.75 183.73,-214.8"/>
</g>
<!-- Node9 -->
<g id="node9" class="node">
<title>Node9</title>
<g id="a_node9"><a xlink:href="class_ogre_1_1_metal_plugin.html" target="_top" xlink:title="Plugin instance for Metal Manager.">
<polygon fill="none" stroke="black" points="239.36,-185.5 239.36,-203.5 335.4,-203.5 335.4,-185.5 239.36,-185.5"/>
<text text-anchor="middle" x="287.38" y="-191.5" font-family="Helvetica,sans-Serif" font-size="10.00">Ogre::MetalPlugin</text>
</a>
</g>
</g>
<!-- Node1&#45;&gt;Node9 -->
<g id="edge8" class="edge">
<title>Node1&#45;&gt;Node9</title>
<path fill="none" stroke="midnightblue" d="M183.43,-207.01C201.09,-204.87 221.35,-202.4 239.2,-200.23"/>
<polygon fill="midnightblue" stroke="midnightblue" points="182.87,-203.55 173.37,-208.23 183.72,-210.5 182.87,-203.55"/>
</g>
<!-- Node10 -->
<g id="node10" class="node">
<title>Node10</title>
<g id="a_node10"><a xlink:href="class_ogre_1_1_n_u_l_l_plugin.html" target="_top" xlink:title="Plugin instance for NULL Manager.">
<polygon fill="none" stroke="black" points="238.8,-148.5 238.8,-166.5 335.95,-166.5 335.95,-148.5 238.8,-148.5"/>
<text text-anchor="middle" x="287.38" y="-154.5" font-family="Helvetica,sans-Serif" font-size="10.00">Ogre::NULLPlugin</text>
</a>
</g>
</g>
<!-- Node1&#45;&gt;Node10 -->
<g id="edge9" class="edge">
<title>Node1&#45;&gt;Node10</title>
<path fill="none" stroke="midnightblue" d="M161.97,-198.18C175.4,-190.57 192.74,-181.55 209.06,-175.5 218.49,-172 228.83,-169.03 238.8,-166.58"/>
<polygon fill="midnightblue" stroke="midnightblue" points="159.84,-195.37 152.95,-203.42 163.35,-201.42 159.84,-195.37"/>
</g>
<!-- Node11 -->
<g id="node11" class="node">
<title>Node11</title>
<g id="a_node11"><a xlink:href="class_ogre_1_1_octree_plugin.html" target="_top" xlink:title="Plugin instance for Octree Manager.">
<polygon fill="none" stroke="black" points="236.58,-111.5 236.58,-129.5 338.18,-129.5 338.18,-111.5 236.58,-111.5"/>
<text text-anchor="middle" x="287.38" y="-117.5" font-family="Helvetica,sans-Serif" font-size="10.00">Ogre::OctreePlugin</text>
</a>
</g>
</g>
<!-- Node1&#45;&gt;Node11 -->
<g id="edge10" class="edge">
<title>Node1&#45;&gt;Node11</title>
<path fill="none" stroke="midnightblue" d="M150.37,-194.86C163.01,-177.8 184.43,-152.54 209.06,-138.5 217.44,-133.72 227.02,-130.21 236.51,-127.63"/>
<polygon fill="midnightblue" stroke="midnightblue" points="147.25,-193.2 144.28,-203.37 152.94,-197.27 147.25,-193.2"/>
</g>
<!-- Node12 -->
<g id="node12" class="node">
<title>Node12</title>
<g id="a_node12"><a xlink:href="class_ogre_1_1_octree_zone_plugin.html" target="_top" xlink:title="Plugin instance for OctreeZone.">
<polygon fill="none" stroke="black" points="225.18,-74.5 225.18,-92.5 349.57,-92.5 349.57,-74.5 225.18,-74.5"/>
<text text-anchor="middle" x="287.38" y="-80.5" font-family="Helvetica,sans-Serif" font-size="10.00">Ogre::OctreeZonePlugin</text>
</a>
</g>
</g>
<!-- Node1&#45;&gt;Node12 -->
<g id="edge11" class="edge">
<title>Node1&#45;&gt;Node12</title>
<path fill="none" stroke="midnightblue" d="M144.94,-193.88C154.9,-168.86 176.08,-124.84 209.06,-101.5 214.23,-97.84 220.05,-94.91 226.1,-92.57"/>
<polygon fill="midnightblue" stroke="midnightblue" points="141.63,-192.74 141.36,-203.33 148.17,-195.22 141.63,-192.74"/>
</g>
<!-- Node13 -->
<g id="node13" class="node">
<title>Node13</title>
<g id="a_node13"><a xlink:href="class_ogre_1_1_particle_f_x_plugin.html" target="_top" xlink:title="Plugin instance for ParticleFX Manager.">
<polygon fill="none" stroke="black" points="228.52,-37.5 228.52,-55.5 346.23,-55.5 346.23,-37.5 228.52,-37.5"/>
<text text-anchor="middle" x="287.38" y="-43.5" font-family="Helvetica,sans-Serif" font-size="10.00">Ogre::ParticleFXPlugin</text>
</a>
</g>
</g>
<!-- Node1&#45;&gt;Node13 -->
<g id="edge12" class="edge">
<title>Node1&#45;&gt;Node13</title>
<path fill="none" stroke="midnightblue" d="M141.88,-193.29C148.91,-161.42 167.54,-97.85 209.06,-64.5 214.75,-59.93 221.4,-56.47 228.37,-53.88"/>
<polygon fill="midnightblue" stroke="midnightblue" points="138.44,-192.64 139.85,-203.14 145.29,-194.04 138.44,-192.64"/>
</g>
<!-- Node14 -->
<g id="node14" class="node">
<title>Node14</title>
<g id="a_node14"><a xlink:href="class_ogre_1_1_p_c_z_plugin.html" target="_top" xlink:title="Plugin instance for PCZ Manager.">
<polygon fill="none" stroke="black" points="241.59,-0.5 241.59,-18.5 333.17,-18.5 333.17,-0.5 241.59,-0.5"/>
<text text-anchor="middle" x="287.38" y="-6.5" font-family="Helvetica,sans-Serif" font-size="10.00">Ogre::PCZPlugin</text>
</a>
</g>
</g>
<!-- Node1&#45;&gt;Node14 -->
<g id="edge13" class="edge">
<title>Node1&#45;&gt;Node14</title>
<path fill="none" stroke="midnightblue" d="M139.87,-192.88C144.06,-154.92 158.79,-71.33 209.06,-27.5 217.99,-19.71 229.65,-15.12 241.19,-12.47"/>
<polygon fill="midnightblue" stroke="midnightblue" points="136.36,-192.81 138.88,-203.1 143.32,-193.48 136.36,-192.81"/>
</g>
<!-- Node2 -->
<g id="node2" class="node">
<title>Node2</title>
<g id="a_node2"><a xlink:href="class_ogre_1_1_allocated_object.html" target="_top" xlink:title="Superclass for all objects that wish to use custom memory allocators when their new / delete operator...">
<polygon fill="none" stroke="black" points="0,-203.5 0,-221.5 65.47,-221.5 65.47,-203.5 0,-203.5"/>
<text text-anchor="middle" x="32.74" y="-209.5" font-family="Helvetica,sans-Serif" font-size="10.00">PluginAlloc</text>
</a>
</g>
</g>
<!-- Node2&#45;&gt;Node1 -->
<g id="edge1" class="edge">
<title>Node2&#45;&gt;Node1</title>
<path fill="none" stroke="midnightblue" d="M75.71,-212.5C84.18,-212.5 92.99,-212.5 101.2,-212.5"/>
<polygon fill="midnightblue" stroke="midnightblue" points="75.62,-209 65.62,-212.5 75.62,-216 75.62,-209"/>
</g>
</g>
</svg>
