<?xml version="1.0" encoding="UTF-8" standalone="no"?>
<!DOCTYPE svg PUBLIC "-//W3C//DTD SVG 1.1//EN"
 "http://www.w3.org/Graphics/SVG/1.1/DTD/svg11.dtd">
<!-- Generated by graphviz version 2.43.0 (0)
 -->
<!-- Title: Ogre::GL3PlusVaoManager Pages: 1 -->
<svg width="147pt" height="137pt"
 viewBox="0.00 0.00 146.67 137.00" xmlns="http://www.w3.org/2000/svg" xmlns:xlink="http://www.w3.org/1999/xlink">
<g id="graph0" class="graph" transform="scale(1 1) rotate(0) translate(4 133)">
<title>Ogre::GL3PlusVaoManager</title>
<!-- Node1 -->
<g id="node1" class="node">
<title>Node1</title>
<g id="a_node1"><a xlink:title=" ">
<polygon fill="#bfbfbf" stroke="black" points="0,-0.5 0,-18.5 138.67,-18.5 138.67,-0.5 0,-0.5"/>
<text text-anchor="middle" x="69.33" y="-6.5" font-family="Helvetica,sans-Serif" font-size="10.00">Ogre::GL3PlusVaoManager</text>
</a>
</g>
</g>
<!-- Node2 -->
<g id="node2" class="node">
<title>Node2</title>
<g id="a_node2"><a xlink:href="class_ogre_1_1_vao_manager.html" target="_top" xlink:title=" ">
<polygon fill="none" stroke="black" points="19.18,-55.5 19.18,-73.5 119.49,-73.5 119.49,-55.5 19.18,-55.5"/>
<text text-anchor="middle" x="69.33" y="-61.5" font-family="Helvetica,sans-Serif" font-size="10.00">Ogre::VaoManager</text>
</a>
</g>
</g>
<!-- Node2&#45;&gt;Node1 -->
<g id="edge1" class="edge">
<title>Node2&#45;&gt;Node1</title>
<path fill="none" stroke="midnightblue" d="M69.33,-45.17C69.33,-36.09 69.33,-25.59 69.33,-18.55"/>
<polygon fill="midnightblue" stroke="midnightblue" points="65.83,-45.22 69.33,-55.22 72.83,-45.22 65.83,-45.22"/>
</g>
<!-- Node3 -->
<g id="node3" class="node">
<title>Node3</title>
<g id="a_node3"><a xlink:href="class_ogre_1_1_allocated_object.html" target="_top" xlink:title="Superclass for all objects that wish to use custom memory allocators when their new / delete operator...">
<polygon fill="none" stroke="black" points="25.76,-110.5 25.76,-128.5 112.9,-128.5 112.9,-110.5 25.76,-110.5"/>
<text text-anchor="middle" x="69.33" y="-116.5" font-family="Helvetica,sans-Serif" font-size="10.00">RenderSysAlloc</text>
</a>
</g>
</g>
<!-- Node3&#45;&gt;Node2 -->
<g id="edge2" class="edge">
<title>Node3&#45;&gt;Node2</title>
<path fill="none" stroke="midnightblue" d="M69.33,-100.17C69.33,-91.09 69.33,-80.59 69.33,-73.55"/>
<polygon fill="midnightblue" stroke="midnightblue" points="65.83,-100.22 69.33,-110.22 72.83,-100.22 65.83,-100.22"/>
</g>
</g>
</svg>
