<?xml version="1.0" encoding="UTF-8" standalone="no"?>
<!DOCTYPE svg PUBLIC "-//W3C//DTD SVG 1.1//EN"
 "http://www.w3.org/Graphics/SVG/1.1/DTD/svg11.dtd">
<!-- Generated by graphviz version 2.43.0 (0)
 -->
<!-- Title: Ogre::ParticleSystemManager Pages: 1 -->
<svg width="322pt" height="92pt"
 viewBox="0.00 0.00 321.95 92.00" xmlns="http://www.w3.org/2000/svg" xmlns:xlink="http://www.w3.org/1999/xlink">
<g id="graph0" class="graph" transform="scale(1 1) rotate(0) translate(4 88)">
<title>Ogre::ParticleSystemManager</title>
<!-- Node1 -->
<g id="node1" class="node">
<title>Node1</title>
<g id="a_node1"><a xlink:title="Manages particle systems, particle system scripts (templates) and the available emitter &amp; affector fa...">
<polygon fill="#bfbfbf" stroke="black" points="120.75,-0.5 120.75,-18.5 270.7,-18.5 270.7,-0.5 120.75,-0.5"/>
<text text-anchor="middle" x="195.73" y="-6.5" font-family="Helvetica,sans-Serif" font-size="10.00">Ogre::ParticleSystemManager</text>
</a>
</g>
</g>
<!-- Node2 -->
<g id="node2" class="node">
<title>Node2</title>
<g id="a_node2"><a xlink:href="class_ogre_1_1_singleton.html" target="_top" xlink:title=" ">
<polygon fill="none" stroke="black" points="0,-55.5 0,-83.5 127.45,-83.5 127.45,-55.5 0,-55.5"/>
<text text-anchor="start" x="8" y="-71.5" font-family="Helvetica,sans-Serif" font-size="10.00">Ogre::Singleton&lt; Particle</text>
<text text-anchor="middle" x="63.73" y="-61.5" font-family="Helvetica,sans-Serif" font-size="10.00">SystemManager &gt;</text>
</a>
</g>
</g>
<!-- Node2&#45;&gt;Node1 -->
<g id="edge1" class="edge">
<title>Node2&#45;&gt;Node1</title>
<path fill="none" stroke="midnightblue" d="M102.78,-51.34C127.37,-40.54 157.98,-27.09 177.19,-18.64"/>
<polygon fill="midnightblue" stroke="midnightblue" points="101.1,-48.26 93.35,-55.48 103.91,-54.67 101.1,-48.26"/>
</g>
<!-- Node3 -->
<g id="node3" class="node">
<title>Node3</title>
<g id="a_node3"><a xlink:href="class_ogre_1_1_script_loader.html" target="_top" xlink:title="Abstract class defining the interface used by classes which wish to perform script loading to define ...">
<polygon fill="none" stroke="black" points="145.48,-60.5 145.48,-78.5 245.97,-78.5 245.97,-60.5 145.48,-60.5"/>
<text text-anchor="middle" x="195.73" y="-66.5" font-family="Helvetica,sans-Serif" font-size="10.00">Ogre::ScriptLoader</text>
</a>
</g>
</g>
<!-- Node3&#45;&gt;Node1 -->
<g id="edge2" class="edge">
<title>Node3&#45;&gt;Node1</title>
<path fill="none" stroke="midnightblue" d="M195.73,-50.21C195.73,-39.71 195.73,-27.03 195.73,-18.87"/>
<polygon fill="midnightblue" stroke="midnightblue" points="192.23,-50.44 195.73,-60.44 199.23,-50.44 192.23,-50.44"/>
</g>
<!-- Node4 -->
<g id="node4" class="node">
<title>Node4</title>
<g id="a_node4"><a xlink:href="class_ogre_1_1_allocated_object.html" target="_top" xlink:title="Superclass for all objects that wish to use custom memory allocators when their new / delete operator...">
<polygon fill="none" stroke="black" points="263.5,-60.5 263.5,-78.5 313.95,-78.5 313.95,-60.5 263.5,-60.5"/>
<text text-anchor="middle" x="288.73" y="-66.5" font-family="Helvetica,sans-Serif" font-size="10.00">FXAlloc</text>
</a>
</g>
</g>
<!-- Node4&#45;&gt;Node1 -->
<g id="edge3" class="edge">
<title>Node4&#45;&gt;Node1</title>
<path fill="none" stroke="midnightblue" d="M267.1,-55.01C249.07,-43.77 223.98,-28.12 208.85,-18.68"/>
<polygon fill="midnightblue" stroke="midnightblue" points="265.46,-58.11 275.79,-60.44 269.16,-52.17 265.46,-58.11"/>
</g>
</g>
</svg>
