<?xml version="1.0" encoding="UTF-8" standalone="no"?>
<!DOCTYPE svg PUBLIC "-//W3C//DTD SVG 1.1//EN"
 "http://www.w3.org/Graphics/SVG/1.1/DTD/svg11.dtd">
<!-- Generated by graphviz version 2.43.0 (0)
 -->
<!-- Title: Ogre::PixelFormatToShaderType Pages: 1 -->
<svg width="393pt" height="215pt"
 viewBox="0.00 0.00 392.82 215.00" xmlns="http://www.w3.org/2000/svg" xmlns:xlink="http://www.w3.org/1999/xlink">
<g id="graph0" class="graph" transform="scale(1 1) rotate(0) translate(4 211)">
<title>Ogre::PixelFormatToShaderType</title>
<!-- Node1 -->
<g id="node1" class="node">
<title>Node1</title>
<g id="a_node1"><a xlink:title=" ">
<polygon fill="#bfbfbf" stroke="black" points="0,-89.5 0,-107.5 161.62,-107.5 161.62,-89.5 0,-89.5"/>
<text text-anchor="middle" x="80.81" y="-95.5" font-family="Helvetica,sans-Serif" font-size="10.00">Ogre::PixelFormatToShaderType</text>
</a>
</g>
</g>
<!-- Node2 -->
<g id="node2" class="node">
<title>Node2</title>
<g id="a_node2"><a xlink:href="class_ogre_1_1_d3_d11_pixel_format_to_shader_type.html" target="_top" xlink:title=" ">
<polygon fill="none" stroke="black" points="222.18,-178.5 222.18,-206.5 360.26,-206.5 360.26,-178.5 222.18,-178.5"/>
<text text-anchor="start" x="230.18" y="-194.5" font-family="Helvetica,sans-Serif" font-size="10.00">Ogre::D3D11PixelFormatTo</text>
<text text-anchor="middle" x="291.22" y="-184.5" font-family="Helvetica,sans-Serif" font-size="10.00">ShaderType</text>
</a>
</g>
</g>
<!-- Node1&#45;&gt;Node2 -->
<g id="edge1" class="edge">
<title>Node1&#45;&gt;Node2</title>
<path fill="none" stroke="midnightblue" d="M102.33,-113.78C124.69,-129.78 162.07,-154.6 197.62,-169.5 205.72,-172.89 214.44,-175.87 223.16,-178.45"/>
<polygon fill="midnightblue" stroke="midnightblue" points="104.13,-110.76 93.98,-107.72 100.01,-116.43 104.13,-110.76"/>
</g>
<!-- Node3 -->
<g id="node3" class="node">
<title>Node3</title>
<g id="a_node3"><a xlink:href="class_ogre_1_1_g_l3_plus_pixel_format_to_shader_type.html" target="_top" xlink:title=" ">
<polygon fill="none" stroke="black" points="223.48,-131.5 223.48,-159.5 358.96,-159.5 358.96,-131.5 223.48,-131.5"/>
<text text-anchor="start" x="231.48" y="-147.5" font-family="Helvetica,sans-Serif" font-size="10.00">Ogre::GL3PlusPixelFormat</text>
<text text-anchor="middle" x="291.22" y="-137.5" font-family="Helvetica,sans-Serif" font-size="10.00">ToShaderType</text>
</a>
</g>
</g>
<!-- Node1&#45;&gt;Node3 -->
<g id="edge2" class="edge">
<title>Node1&#45;&gt;Node3</title>
<path fill="none" stroke="midnightblue" d="M131.87,-109.79C160.74,-116.3 197.3,-124.54 228.01,-131.47"/>
<polygon fill="midnightblue" stroke="midnightblue" points="132.52,-106.35 122,-107.56 130.98,-113.18 132.52,-106.35"/>
</g>
<!-- Node4 -->
<g id="node4" class="node">
<title>Node4</title>
<g id="a_node4"><a xlink:href="class_ogre_1_1_g_l_e_s2_pixel_format_to_shader_type.html" target="_top" xlink:title=" ">
<polygon fill="none" stroke="black" points="221.25,-84.5 221.25,-112.5 361.19,-112.5 361.19,-84.5 221.25,-84.5"/>
<text text-anchor="start" x="229.25" y="-100.5" font-family="Helvetica,sans-Serif" font-size="10.00">Ogre::GLES2PixelFormatTo</text>
<text text-anchor="middle" x="291.22" y="-90.5" font-family="Helvetica,sans-Serif" font-size="10.00">ShaderType</text>
</a>
</g>
</g>
<!-- Node1&#45;&gt;Node4 -->
<g id="edge3" class="edge">
<title>Node1&#45;&gt;Node4</title>
<path fill="none" stroke="midnightblue" d="M171.95,-98.5C188.38,-98.5 205.28,-98.5 220.99,-98.5"/>
<polygon fill="midnightblue" stroke="midnightblue" points="171.79,-95 161.79,-98.5 171.79,-102 171.79,-95"/>
</g>
<!-- Node5 -->
<g id="node5" class="node">
<title>Node5</title>
<g id="a_node5"><a xlink:href="class_ogre_1_1_metal_pixel_format_to_shader_type.html" target="_top" xlink:title=" ">
<polygon fill="none" stroke="black" points="225.15,-37.5 225.15,-65.5 357.29,-65.5 357.29,-37.5 225.15,-37.5"/>
<text text-anchor="start" x="233.15" y="-53.5" font-family="Helvetica,sans-Serif" font-size="10.00">Ogre::MetalPixelFormatTo</text>
<text text-anchor="middle" x="291.22" y="-43.5" font-family="Helvetica,sans-Serif" font-size="10.00">ShaderType</text>
</a>
</g>
</g>
<!-- Node1&#45;&gt;Node5 -->
<g id="edge4" class="edge">
<title>Node1&#45;&gt;Node5</title>
<path fill="none" stroke="midnightblue" d="M131.87,-87.21C160.74,-80.7 197.3,-72.46 228.01,-65.53"/>
<polygon fill="midnightblue" stroke="midnightblue" points="130.98,-83.82 122,-89.44 132.52,-90.65 130.98,-83.82"/>
</g>
<!-- Node6 -->
<g id="node6" class="node">
<title>Node6</title>
<g id="a_node6"><a xlink:href="class_ogre_1_1_n_u_l_l_pixel_format_to_shader_type.html" target="_top" xlink:title=" ">
<polygon fill="none" stroke="black" points="197.62,-0.5 197.62,-18.5 384.82,-18.5 384.82,-0.5 197.62,-0.5"/>
<text text-anchor="middle" x="291.22" y="-6.5" font-family="Helvetica,sans-Serif" font-size="10.00">Ogre::NULLPixelFormatToShaderType</text>
</a>
</g>
</g>
<!-- Node1&#45;&gt;Node6 -->
<g id="edge5" class="edge">
<title>Node1&#45;&gt;Node6</title>
<path fill="none" stroke="midnightblue" d="M101.89,-83.42C124.14,-67.43 161.67,-42.57 197.62,-28.5 208.02,-24.43 219.42,-21.19 230.57,-18.61"/>
<polygon fill="midnightblue" stroke="midnightblue" points="99.61,-80.75 93.6,-89.47 103.74,-86.4 99.61,-80.75"/>
</g>
</g>
</svg>
