<?xml version="1.0" encoding="UTF-8" standalone="no"?>
<!DOCTYPE svg PUBLIC "-//W3C//DTD SVG 1.1//EN"
 "http://www.w3.org/Graphics/SVG/1.1/DTD/svg11.dtd">
<!-- Generated by graphviz version 2.43.0 (0)
 -->
<!-- Title: Ogre::CgProgramFactory Pages: 1 -->
<svg width="154pt" height="147pt"
 viewBox="0.00 0.00 153.51 147.00" xmlns="http://www.w3.org/2000/svg" xmlns:xlink="http://www.w3.org/1999/xlink">
<g id="graph0" class="graph" transform="scale(1 1) rotate(0) translate(4 143)">
<title>Ogre::CgProgramFactory</title>
<!-- Node1 -->
<g id="node1" class="node">
<title>Node1</title>
<g id="a_node1"><a xlink:title="Factory class for Cg programs.">
<polygon fill="#bfbfbf" stroke="black" points="8.63,-0.5 8.63,-18.5 136.88,-18.5 136.88,-0.5 8.63,-0.5"/>
<text text-anchor="middle" x="72.75" y="-6.5" font-family="Helvetica,sans-Serif" font-size="10.00">Ogre::CgProgramFactory</text>
</a>
</g>
</g>
<!-- Node2 -->
<g id="node2" class="node">
<title>Node2</title>
<g id="a_node2"><a xlink:href="class_ogre_1_1_high_level_gpu_program_factory.html" target="_top" xlink:title="Interface definition for factories of HighLevelGpuProgram.">
<polygon fill="none" stroke="black" points="0,-55.5 0,-83.5 145.51,-83.5 145.51,-55.5 0,-55.5"/>
<text text-anchor="start" x="8" y="-71.5" font-family="Helvetica,sans-Serif" font-size="10.00">Ogre::HighLevelGpuProgram</text>
<text text-anchor="middle" x="72.75" y="-61.5" font-family="Helvetica,sans-Serif" font-size="10.00">Factory</text>
</a>
</g>
</g>
<!-- Node2&#45;&gt;Node1 -->
<g id="edge1" class="edge">
<title>Node2&#45;&gt;Node1</title>
<path fill="none" stroke="midnightblue" d="M72.75,-45.32C72.75,-35.94 72.75,-25.7 72.75,-18.77"/>
<polygon fill="midnightblue" stroke="midnightblue" points="69.25,-45.34 72.75,-55.34 76.25,-45.34 69.25,-45.34"/>
</g>
<!-- Node3 -->
<g id="node3" class="node">
<title>Node3</title>
<g id="a_node3"><a xlink:href="class_ogre_1_1_allocated_object.html" target="_top" xlink:title="Superclass for all objects that wish to use custom memory allocators when their new / delete operator...">
<polygon fill="none" stroke="black" points="37.25,-120.5 37.25,-138.5 108.26,-138.5 108.26,-120.5 37.25,-120.5"/>
<text text-anchor="middle" x="72.75" y="-126.5" font-family="Helvetica,sans-Serif" font-size="10.00">FactoryAlloc</text>
</a>
</g>
</g>
<!-- Node3&#45;&gt;Node2 -->
<g id="edge2" class="edge">
<title>Node3&#45;&gt;Node2</title>
<path fill="none" stroke="midnightblue" d="M72.75,-110.32C72.75,-101.75 72.75,-91.7 72.75,-83.84"/>
<polygon fill="midnightblue" stroke="midnightblue" points="69.25,-110.44 72.75,-120.44 76.25,-110.44 69.25,-110.44"/>
</g>
</g>
</svg>
