<?xml version="1.0" encoding="UTF-8" standalone="no"?>
<!DOCTYPE svg PUBLIC "-//W3C//DTD SVG 1.1//EN"
 "http://www.w3.org/Graphics/SVG/1.1/DTD/svg11.dtd">
<!-- Generated by graphviz version 2.43.0 (0)
 -->
<!-- Title: Ogre::v1::MetalNullPixelBuffer Pages: 1 -->
<svg width="159pt" height="202pt"
 viewBox="0.00 0.00 159.43 202.00" xmlns="http://www.w3.org/2000/svg" xmlns:xlink="http://www.w3.org/1999/xlink">
<g id="graph0" class="graph" transform="scale(1 1) rotate(0) translate(4 198)">
<title>Ogre::v1::MetalNullPixelBuffer</title>
<!-- Node1 -->
<g id="node1" class="node">
<title>Node1</title>
<g id="a_node1"><a xlink:title=" ">
<polygon fill="#bfbfbf" stroke="black" points="14.09,-0.5 14.09,-28.5 137.35,-28.5 137.35,-0.5 14.09,-0.5"/>
<text text-anchor="start" x="22.09" y="-16.5" font-family="Helvetica,sans-Serif" font-size="10.00">Ogre::v1::MetalNullPixel</text>
<text text-anchor="middle" x="75.72" y="-6.5" font-family="Helvetica,sans-Serif" font-size="10.00">Buffer</text>
</a>
</g>
</g>
<!-- Node2 -->
<g id="node2" class="node">
<title>Node2</title>
<g id="a_node2"><a xlink:href="class_ogre_1_1v1_1_1_hardware_pixel_buffer.html" target="_top" xlink:title="Specialisation of HardwareBuffer for a pixel buffer.">
<polygon fill="none" stroke="black" points="0,-65.5 0,-83.5 151.43,-83.5 151.43,-65.5 0,-65.5"/>
<text text-anchor="middle" x="75.72" y="-71.5" font-family="Helvetica,sans-Serif" font-size="10.00">Ogre::v1::HardwarePixelBuffer</text>
</a>
</g>
</g>
<!-- Node2&#45;&gt;Node1 -->
<g id="edge1" class="edge">
<title>Node2&#45;&gt;Node1</title>
<path fill="none" stroke="midnightblue" d="M75.72,-55.32C75.72,-46.75 75.72,-36.7 75.72,-28.84"/>
<polygon fill="midnightblue" stroke="midnightblue" points="72.22,-55.44 75.72,-65.44 79.22,-55.44 72.22,-55.44"/>
</g>
<!-- Node3 -->
<g id="node3" class="node">
<title>Node3</title>
<g id="a_node3"><a xlink:href="class_ogre_1_1v1_1_1_hardware_buffer.html" target="_top" xlink:title="Abstract class defining common features of hardware buffers.">
<polygon fill="none" stroke="black" points="10.84,-120.5 10.84,-138.5 140.6,-138.5 140.6,-120.5 10.84,-120.5"/>
<text text-anchor="middle" x="75.72" y="-126.5" font-family="Helvetica,sans-Serif" font-size="10.00">Ogre::v1::HardwareBuffer</text>
</a>
</g>
</g>
<!-- Node3&#45;&gt;Node2 -->
<g id="edge2" class="edge">
<title>Node3&#45;&gt;Node2</title>
<path fill="none" stroke="midnightblue" d="M75.72,-110.17C75.72,-101.09 75.72,-90.59 75.72,-83.55"/>
<polygon fill="midnightblue" stroke="midnightblue" points="72.22,-110.22 75.72,-120.22 79.22,-110.22 72.22,-110.22"/>
</g>
<!-- Node4 -->
<g id="node4" class="node">
<title>Node4</title>
<g id="a_node4"><a xlink:href="class_ogre_1_1_allocated_object.html" target="_top" xlink:title="Superclass for all objects that wish to use custom memory allocators when their new / delete operator...">
<polygon fill="none" stroke="black" points="43.63,-175.5 43.63,-193.5 107.81,-193.5 107.81,-175.5 43.63,-175.5"/>
<text text-anchor="middle" x="75.72" y="-181.5" font-family="Helvetica,sans-Serif" font-size="10.00">BufferAlloc</text>
</a>
</g>
</g>
<!-- Node4&#45;&gt;Node3 -->
<g id="edge3" class="edge">
<title>Node4&#45;&gt;Node3</title>
<path fill="none" stroke="midnightblue" d="M75.72,-165.17C75.72,-156.09 75.72,-145.59 75.72,-138.55"/>
<polygon fill="midnightblue" stroke="midnightblue" points="72.22,-165.22 75.72,-175.22 79.22,-165.22 72.22,-165.22"/>
</g>
</g>
</svg>
