<?xml version="1.0" encoding="UTF-8" standalone="no"?>
<!DOCTYPE svg PUBLIC "-//W3C//DTD SVG 1.1//EN"
 "http://www.w3.org/Graphics/SVG/1.1/DTD/svg11.dtd">
<!-- Generated by graphviz version 2.43.0 (0)
 -->
<!-- Title: Ogre::GpuProgramManager Pages: 1 -->
<svg width="681pt" height="175pt"
 viewBox="0.00 0.00 681.08 175.00" xmlns="http://www.w3.org/2000/svg" xmlns:xlink="http://www.w3.org/1999/xlink">
<g id="graph0" class="graph" transform="scale(1 1) rotate(0) translate(4 171)">
<title>Ogre::GpuProgramManager</title>
<!-- Node1 -->
<g id="node1" class="node">
<title>Node1</title>
<g id="a_node1"><a xlink:title=" ">
<polygon fill="#bfbfbf" stroke="black" points="323.84,-74.5 323.84,-92.5 464.34,-92.5 464.34,-74.5 323.84,-74.5"/>
<text text-anchor="middle" x="394.09" y="-80.5" font-family="Helvetica,sans-Serif" font-size="10.00">Ogre::GpuProgramManager</text>
</a>
</g>
</g>
<!-- Node6 -->
<g id="node6" class="node">
<title>Node6</title>
<g id="a_node6"><a xlink:href="class_ogre_1_1_d3_d11_gpu_program_manager.html" target="_top" xlink:title=" ">
<polygon fill="none" stroke="black" points="501.27,-148.5 501.27,-166.5 672.16,-166.5 672.16,-148.5 501.27,-148.5"/>
<text text-anchor="middle" x="586.71" y="-154.5" font-family="Helvetica,sans-Serif" font-size="10.00">Ogre::D3D11GpuProgramManager</text>
</a>
</g>
</g>
<!-- Node1&#45;&gt;Node6 -->
<g id="edge5" class="edge">
<title>Node1&#45;&gt;Node6</title>
<path fill="none" stroke="midnightblue" d="M417.84,-98.03C438.59,-110.68 470.48,-128.65 500.34,-139.5 510.16,-143.07 520.89,-146.02 531.33,-148.43"/>
<polygon fill="midnightblue" stroke="midnightblue" points="419.48,-94.93 409.14,-92.63 415.79,-100.88 419.48,-94.93"/>
</g>
<!-- Node7 -->
<g id="node7" class="node">
<title>Node7</title>
<g id="a_node7"><a xlink:href="class_ogre_1_1_d3_d9_gpu_program_manager.html" target="_top" xlink:title=" ">
<polygon fill="none" stroke="black" points="503.68,-111.5 503.68,-129.5 669.75,-129.5 669.75,-111.5 503.68,-111.5"/>
<text text-anchor="middle" x="586.71" y="-117.5" font-family="Helvetica,sans-Serif" font-size="10.00">Ogre::D3D9GpuProgramManager</text>
</a>
</g>
</g>
<!-- Node1&#45;&gt;Node7 -->
<g id="edge6" class="edge">
<title>Node1&#45;&gt;Node7</title>
<path fill="none" stroke="midnightblue" d="M451.74,-94.5C479.63,-99.91 512.85,-106.36 539.23,-111.48"/>
<polygon fill="midnightblue" stroke="midnightblue" points="452.21,-91.02 441.72,-92.55 450.87,-97.89 452.21,-91.02"/>
</g>
<!-- Node8 -->
<g id="node8" class="node">
<title>Node8</title>
<g id="a_node8"><a xlink:href="class_ogre_1_1_g_l_e_s2_gpu_program_manager.html" target="_top" xlink:title=" ">
<polygon fill="none" stroke="black" points="500.34,-74.5 500.34,-92.5 673.08,-92.5 673.08,-74.5 500.34,-74.5"/>
<text text-anchor="middle" x="586.71" y="-80.5" font-family="Helvetica,sans-Serif" font-size="10.00">Ogre::GLES2GpuProgramManager</text>
</a>
</g>
</g>
<!-- Node1&#45;&gt;Node8 -->
<g id="edge7" class="edge">
<title>Node1&#45;&gt;Node8</title>
<path fill="none" stroke="midnightblue" d="M474.63,-83.5C483.06,-83.5 491.67,-83.5 500.16,-83.5"/>
<polygon fill="midnightblue" stroke="midnightblue" points="474.45,-80 464.45,-83.5 474.45,-87 474.45,-80"/>
</g>
<!-- Node9 -->
<g id="node9" class="node">
<title>Node9</title>
<g id="a_node9"><a xlink:href="class_ogre_1_1_g_l_s_l_shader_manager.html" target="_top" xlink:title=" ">
<polygon fill="none" stroke="black" points="516.18,-37.5 516.18,-55.5 657.25,-55.5 657.25,-37.5 516.18,-37.5"/>
<text text-anchor="middle" x="586.71" y="-43.5" font-family="Helvetica,sans-Serif" font-size="10.00">Ogre::GLSLShaderManager</text>
</a>
</g>
</g>
<!-- Node1&#45;&gt;Node9 -->
<g id="edge8" class="edge">
<title>Node1&#45;&gt;Node9</title>
<path fill="none" stroke="midnightblue" d="M451.74,-72.5C479.63,-67.09 512.85,-60.64 539.23,-55.52"/>
<polygon fill="midnightblue" stroke="midnightblue" points="450.87,-69.11 441.72,-74.45 452.21,-75.98 450.87,-69.11"/>
</g>
<!-- Node10 -->
<g id="node10" class="node">
<title>Node10</title>
<g id="a_node10"><a xlink:href="class_ogre_1_1_metal_gpu_program_manager.html" target="_top" xlink:title=" ">
<polygon fill="none" stroke="black" points="504.23,-0.5 504.23,-18.5 669.19,-18.5 669.19,-0.5 504.23,-0.5"/>
<text text-anchor="middle" x="586.71" y="-6.5" font-family="Helvetica,sans-Serif" font-size="10.00">Ogre::MetalGpuProgramManager</text>
</a>
</g>
</g>
<!-- Node1&#45;&gt;Node10 -->
<g id="edge9" class="edge">
<title>Node1&#45;&gt;Node10</title>
<path fill="none" stroke="midnightblue" d="M417.84,-68.97C438.59,-56.32 470.48,-38.35 500.34,-27.5 510.16,-23.93 520.89,-20.98 531.33,-18.57"/>
<polygon fill="midnightblue" stroke="midnightblue" points="415.79,-66.12 409.14,-74.37 419.48,-72.07 415.79,-66.12"/>
</g>
<!-- Node2 -->
<g id="node2" class="node">
<title>Node2</title>
<g id="a_node2"><a xlink:href="class_ogre_1_1_resource_manager.html" target="_top" xlink:title="Defines a generic resource handler.">
<polygon fill="none" stroke="black" points="149.14,-95.5 149.14,-113.5 275.19,-113.5 275.19,-95.5 149.14,-95.5"/>
<text text-anchor="middle" x="212.16" y="-101.5" font-family="Helvetica,sans-Serif" font-size="10.00">Ogre::ResourceManager</text>
</a>
</g>
</g>
<!-- Node2&#45;&gt;Node1 -->
<g id="edge1" class="edge">
<title>Node2&#45;&gt;Node1</title>
<path fill="none" stroke="midnightblue" d="M285.38,-96.07C298.06,-94.59 311.23,-93.05 323.83,-91.58"/>
<polygon fill="midnightblue" stroke="midnightblue" points="284.86,-92.61 275.34,-97.24 285.67,-99.56 284.86,-92.61"/>
</g>
<!-- Node3 -->
<g id="node3" class="node">
<title>Node3</title>
<g id="a_node3"><a xlink:href="class_ogre_1_1_script_loader.html" target="_top" xlink:title="Abstract class defining the interface used by classes which wish to perform script loading to define ...">
<polygon fill="none" stroke="black" points="0,-113.5 0,-131.5 100.49,-131.5 100.49,-113.5 0,-113.5"/>
<text text-anchor="middle" x="50.24" y="-119.5" font-family="Helvetica,sans-Serif" font-size="10.00">Ogre::ScriptLoader</text>
</a>
</g>
</g>
<!-- Node3&#45;&gt;Node2 -->
<g id="edge2" class="edge">
<title>Node3&#45;&gt;Node2</title>
<path fill="none" stroke="midnightblue" d="M110.81,-115.8C123.29,-114.39 136.47,-112.91 149.04,-111.49"/>
<polygon fill="midnightblue" stroke="midnightblue" points="110.08,-112.36 100.53,-116.95 110.86,-119.31 110.08,-112.36"/>
</g>
<!-- Node4 -->
<g id="node4" class="node">
<title>Node4</title>
<g id="a_node4"><a xlink:href="class_ogre_1_1_allocated_object.html" target="_top" xlink:title="Superclass for all objects that wish to use custom memory allocators when their new / delete operator...">
<polygon fill="none" stroke="black" points="10.01,-76.5 10.01,-94.5 90.48,-94.5 90.48,-76.5 10.01,-76.5"/>
<text text-anchor="middle" x="50.24" y="-82.5" font-family="Helvetica,sans-Serif" font-size="10.00">ResourceAlloc</text>
</a>
</g>
</g>
<!-- Node4&#45;&gt;Node2 -->
<g id="edge3" class="edge">
<title>Node4&#45;&gt;Node2</title>
<path fill="none" stroke="midnightblue" d="M101,-91.41C116.21,-93.22 133.13,-95.23 149.06,-97.12"/>
<polygon fill="midnightblue" stroke="midnightblue" points="101.12,-87.9 90.77,-90.2 100.29,-94.85 101.12,-87.9"/>
</g>
<!-- Node5 -->
<g id="node5" class="node">
<title>Node5</title>
<g id="a_node5"><a xlink:href="class_ogre_1_1_singleton.html" target="_top" xlink:title=" ">
<polygon fill="none" stroke="black" points="136.49,-48.5 136.49,-76.5 287.84,-76.5 287.84,-48.5 136.49,-48.5"/>
<text text-anchor="start" x="144.49" y="-64.5" font-family="Helvetica,sans-Serif" font-size="10.00">Ogre::Singleton&lt; GpuProgram</text>
<text text-anchor="middle" x="212.16" y="-54.5" font-family="Helvetica,sans-Serif" font-size="10.00">Manager &gt;</text>
</a>
</g>
</g>
<!-- Node5&#45;&gt;Node1 -->
<g id="edge4" class="edge">
<title>Node5&#45;&gt;Node1</title>
<path fill="none" stroke="midnightblue" d="M297.99,-72.4C306.63,-73.41 315.32,-74.42 323.77,-75.41"/>
<polygon fill="midnightblue" stroke="midnightblue" points="298.24,-68.91 287.91,-71.22 297.43,-75.86 298.24,-68.91"/>
</g>
</g>
</svg>
