<?xml version="1.0" encoding="UTF-8" standalone="no"?>
<!DOCTYPE svg PUBLIC "-//W3C//DTD SVG 1.1//EN"
 "http://www.w3.org/Graphics/SVG/1.1/DTD/svg11.dtd">
<!-- Generated by graphviz version 2.43.0 (0)
 -->
<!-- Title: Ogre::LinearControllerFunction Pages: 1 -->
<svg width="161pt" height="147pt"
 viewBox="0.00 0.00 161.29 147.00" xmlns="http://www.w3.org/2000/svg" xmlns:xlink="http://www.w3.org/1999/xlink">
<g id="graph0" class="graph" transform="scale(1 1) rotate(0) translate(4 143)">
<title>Ogre::LinearControllerFunction</title>
<!-- Node1 -->
<g id="node1" class="node">
<title>Node1</title>
<g id="a_node1"><a xlink:title="Predefined controller function based on linear function interpolation.">
<polygon fill="#bfbfbf" stroke="black" points="0,-0.5 0,-18.5 153.29,-18.5 153.29,-0.5 0,-0.5"/>
<text text-anchor="middle" x="76.65" y="-6.5" font-family="Helvetica,sans-Serif" font-size="10.00">Ogre::LinearControllerFunction</text>
</a>
</g>
</g>
<!-- Node2 -->
<g id="node2" class="node">
<title>Node2</title>
<g id="a_node2"><a xlink:href="class_ogre_1_1_controller_function.html" target="_top" xlink:title=" ">
<polygon fill="none" stroke="black" points="13.9,-55.5 13.9,-83.5 139.39,-83.5 139.39,-55.5 13.9,-55.5"/>
<text text-anchor="start" x="21.9" y="-71.5" font-family="Helvetica,sans-Serif" font-size="10.00">Ogre::ControllerFunction</text>
<text text-anchor="middle" x="76.65" y="-61.5" font-family="Helvetica,sans-Serif" font-size="10.00">&lt; Real &gt;</text>
</a>
</g>
</g>
<!-- Node2&#45;&gt;Node1 -->
<g id="edge1" class="edge">
<title>Node2&#45;&gt;Node1</title>
<path fill="none" stroke="midnightblue" d="M76.65,-45.32C76.65,-35.94 76.65,-25.7 76.65,-18.77"/>
<polygon fill="midnightblue" stroke="midnightblue" points="73.15,-45.34 76.65,-55.34 80.15,-45.34 73.15,-45.34"/>
</g>
<!-- Node3 -->
<g id="node3" class="node">
<title>Node3</title>
<g id="a_node3"><a xlink:href="class_ogre_1_1_allocated_object.html" target="_top" xlink:title="Superclass for all objects that wish to use custom memory allocators when their new / delete operator...">
<polygon fill="none" stroke="black" points="36.13,-120.5 36.13,-138.5 117.16,-138.5 117.16,-120.5 36.13,-120.5"/>
<text text-anchor="middle" x="76.65" y="-126.5" font-family="Helvetica,sans-Serif" font-size="10.00">ControllerAlloc</text>
</a>
</g>
</g>
<!-- Node3&#45;&gt;Node2 -->
<g id="edge2" class="edge">
<title>Node3&#45;&gt;Node2</title>
<path fill="none" stroke="midnightblue" d="M76.65,-110.32C76.65,-101.75 76.65,-91.7 76.65,-83.84"/>
<polygon fill="midnightblue" stroke="midnightblue" points="73.15,-110.44 76.65,-120.44 80.15,-110.44 73.15,-110.44"/>
</g>
</g>
</svg>
