<?xml version="1.0" encoding="UTF-8" standalone="no"?>
<!DOCTYPE svg PUBLIC "-//W3C//DTD SVG 1.1//EN"
 "http://www.w3.org/Graphics/SVG/1.1/DTD/svg11.dtd">
<!-- Generated by graphviz version 2.43.0 (0)
 -->
<!-- Title: Ogre::WaveformControllerFunction Pages: 1 -->
<svg width="140pt" height="157pt"
 viewBox="0.00 0.00 140.33 157.00" xmlns="http://www.w3.org/2000/svg" xmlns:xlink="http://www.w3.org/1999/xlink">
<g id="graph0" class="graph" transform="scale(1 1) rotate(0) translate(4 153)">
<title>Ogre::WaveformControllerFunction</title>
<!-- Node1 -->
<g id="node1" class="node">
<title>Node1</title>
<g id="a_node1"><a xlink:title="Predefined controller function based on a waveform.">
<polygon fill="#bfbfbf" stroke="black" points="0,-0.5 0,-28.5 132.33,-28.5 132.33,-0.5 0,-0.5"/>
<text text-anchor="start" x="8" y="-16.5" font-family="Helvetica,sans-Serif" font-size="10.00">Ogre::WaveformController</text>
<text text-anchor="middle" x="66.17" y="-6.5" font-family="Helvetica,sans-Serif" font-size="10.00">Function</text>
</a>
</g>
</g>
<!-- Node2 -->
<g id="node2" class="node">
<title>Node2</title>
<g id="a_node2"><a xlink:href="class_ogre_1_1_controller_function.html" target="_top" xlink:title=" ">
<polygon fill="none" stroke="black" points="3.42,-65.5 3.42,-93.5 128.91,-93.5 128.91,-65.5 3.42,-65.5"/>
<text text-anchor="start" x="11.42" y="-81.5" font-family="Helvetica,sans-Serif" font-size="10.00">Ogre::ControllerFunction</text>
<text text-anchor="middle" x="66.17" y="-71.5" font-family="Helvetica,sans-Serif" font-size="10.00">&lt; Real &gt;</text>
</a>
</g>
</g>
<!-- Node2&#45;&gt;Node1 -->
<g id="edge1" class="edge">
<title>Node2&#45;&gt;Node1</title>
<path fill="none" stroke="midnightblue" d="M66.17,-55.16C66.17,-46.17 66.17,-36.22 66.17,-28.54"/>
<polygon fill="midnightblue" stroke="midnightblue" points="62.67,-55.45 66.17,-65.45 69.67,-55.45 62.67,-55.45"/>
</g>
<!-- Node3 -->
<g id="node3" class="node">
<title>Node3</title>
<g id="a_node3"><a xlink:href="class_ogre_1_1_allocated_object.html" target="_top" xlink:title="Superclass for all objects that wish to use custom memory allocators when their new / delete operator...">
<polygon fill="none" stroke="black" points="25.65,-130.5 25.65,-148.5 106.68,-148.5 106.68,-130.5 25.65,-130.5"/>
<text text-anchor="middle" x="66.17" y="-136.5" font-family="Helvetica,sans-Serif" font-size="10.00">ControllerAlloc</text>
</a>
</g>
</g>
<!-- Node3&#45;&gt;Node2 -->
<g id="edge2" class="edge">
<title>Node3&#45;&gt;Node2</title>
<path fill="none" stroke="midnightblue" d="M66.17,-120.32C66.17,-111.75 66.17,-101.7 66.17,-93.84"/>
<polygon fill="midnightblue" stroke="midnightblue" points="62.67,-120.44 66.17,-130.44 69.67,-120.44 62.67,-120.44"/>
</g>
</g>
</svg>
