<?xml version="1.0" encoding="UTF-8" standalone="no"?>
<!DOCTYPE svg PUBLIC "-//W3C//DTD SVG 1.1//EN"
 "http://www.w3.org/Graphics/SVG/1.1/DTD/svg11.dtd">
<!-- Generated by graphviz version 2.43.0 (0)
 -->
<!-- Title: Ogre::MetalRenderSystem Pages: 1 -->
<svg width="142pt" height="137pt"
 viewBox="0.00 0.00 142.38 137.00" xmlns="http://www.w3.org/2000/svg" xmlns:xlink="http://www.w3.org/1999/xlink">
<g id="graph0" class="graph" transform="scale(1 1) rotate(0) translate(4 133)">
<title>Ogre::MetalRenderSystem</title>
<!-- Node1 -->
<g id="node1" class="node">
<title>Node1</title>
<g id="a_node1"><a xlink:title="Implementation of Metal as a rendering system.">
<polygon fill="#bfbfbf" stroke="black" points="0,-0.5 0,-18.5 134.38,-18.5 134.38,-0.5 0,-0.5"/>
<text text-anchor="middle" x="67.19" y="-6.5" font-family="Helvetica,sans-Serif" font-size="10.00">Ogre::MetalRenderSystem</text>
</a>
</g>
</g>
<!-- Node2 -->
<g id="node2" class="node">
<title>Node2</title>
<g id="a_node2"><a xlink:href="class_ogre_1_1_render_system.html" target="_top" xlink:title="Defines the functionality of a 3D API.">
<polygon fill="none" stroke="black" points="12.23,-55.5 12.23,-73.5 122.15,-73.5 122.15,-55.5 12.23,-55.5"/>
<text text-anchor="middle" x="67.19" y="-61.5" font-family="Helvetica,sans-Serif" font-size="10.00">Ogre::RenderSystem</text>
</a>
</g>
</g>
<!-- Node2&#45;&gt;Node1 -->
<g id="edge1" class="edge">
<title>Node2&#45;&gt;Node1</title>
<path fill="none" stroke="midnightblue" d="M67.19,-45.17C67.19,-36.09 67.19,-25.59 67.19,-18.55"/>
<polygon fill="midnightblue" stroke="midnightblue" points="63.69,-45.22 67.19,-55.22 70.69,-45.22 63.69,-45.22"/>
</g>
<!-- Node3 -->
<g id="node3" class="node">
<title>Node3</title>
<g id="a_node3"><a xlink:href="class_ogre_1_1_allocated_object.html" target="_top" xlink:title="Superclass for all objects that wish to use custom memory allocators when their new / delete operator...">
<polygon fill="none" stroke="black" points="23.62,-110.5 23.62,-128.5 110.76,-128.5 110.76,-110.5 23.62,-110.5"/>
<text text-anchor="middle" x="67.19" y="-116.5" font-family="Helvetica,sans-Serif" font-size="10.00">RenderSysAlloc</text>
</a>
</g>
</g>
<!-- Node3&#45;&gt;Node2 -->
<g id="edge2" class="edge">
<title>Node3&#45;&gt;Node2</title>
<path fill="none" stroke="midnightblue" d="M67.19,-100.17C67.19,-91.09 67.19,-80.59 67.19,-73.55"/>
<polygon fill="midnightblue" stroke="midnightblue" points="63.69,-100.22 67.19,-110.22 70.69,-100.22 63.69,-100.22"/>
</g>
</g>
</svg>
