<?xml version="1.0" encoding="UTF-8" standalone="no"?>
<!DOCTYPE svg PUBLIC "-//W3C//DTD SVG 1.1//EN"
 "http://www.w3.org/Graphics/SVG/1.1/DTD/svg11.dtd">
<!-- Generated by graphviz version 2.43.0 (0)
 -->
<!-- Title: Ogre::v1::HardwareVertexBuffer Pages: 1 -->
<svg width="609pt" height="272pt"
 viewBox="0.00 0.00 608.73 272.00" xmlns="http://www.w3.org/2000/svg" xmlns:xlink="http://www.w3.org/1999/xlink">
<g id="graph0" class="graph" transform="scale(1 1) rotate(0) translate(4 268)">
<title>Ogre::v1::HardwareVertexBuffer</title>
<!-- Node1 -->
<g id="node1" class="node">
<title>Node1</title>
<g id="a_node1"><a xlink:title="Specialisation of HardwareBuffer for a vertex buffer.">
<polygon fill="#bfbfbf" stroke="black" points="265.94,-117.5 265.94,-145.5 397.55,-145.5 397.55,-117.5 265.94,-117.5"/>
<text text-anchor="start" x="273.94" y="-133.5" font-family="Helvetica,sans-Serif" font-size="10.00">Ogre::v1::HardwareVertex</text>
<text text-anchor="middle" x="331.74" y="-123.5" font-family="Helvetica,sans-Serif" font-size="10.00">Buffer</text>
</a>
</g>
</g>
<!-- Node4 -->
<g id="node4" class="node">
<title>Node4</title>
<g id="a_node4"><a xlink:href="class_ogre_1_1v1_1_1_d3_d11_hardware_vertex_buffer.html" target="_top" xlink:title="Specialisation of HardwareVertexBuffer for D3D11.">
<polygon fill="none" stroke="black" points="436.14,-235.5 436.14,-263.5 598.14,-263.5 598.14,-235.5 436.14,-235.5"/>
<text text-anchor="start" x="444.14" y="-251.5" font-family="Helvetica,sans-Serif" font-size="10.00">Ogre::v1::D3D11HardwareVertex</text>
<text text-anchor="middle" x="517.14" y="-241.5" font-family="Helvetica,sans-Serif" font-size="10.00">Buffer</text>
</a>
</g>
</g>
<!-- Node1&#45;&gt;Node4 -->
<g id="edge3" class="edge">
<title>Node1&#45;&gt;Node4</title>
<path fill="none" stroke="midnightblue" d="M350.33,-153.38C368.85,-175.01 399.93,-207.53 433.55,-226.5 439.64,-229.94 446.28,-232.89 453.06,-235.41"/>
<polygon fill="midnightblue" stroke="midnightblue" points="352.98,-151.09 343.87,-145.68 347.61,-155.59 352.98,-151.09"/>
</g>
<!-- Node5 -->
<g id="node5" class="node">
<title>Node5</title>
<g id="a_node5"><a xlink:href="class_ogre_1_1v1_1_1_default_hardware_vertex_buffer.html" target="_top" xlink:title="Specialisation of HardwareVertexBuffer for emulation.">
<polygon fill="none" stroke="black" points="449.67,-188.5 449.67,-216.5 584.61,-216.5 584.61,-188.5 449.67,-188.5"/>
<text text-anchor="start" x="457.67" y="-204.5" font-family="Helvetica,sans-Serif" font-size="10.00">Ogre::v1::DefaultHardware</text>
<text text-anchor="middle" x="517.14" y="-194.5" font-family="Helvetica,sans-Serif" font-size="10.00">VertexBuffer</text>
</a>
</g>
</g>
<!-- Node1&#45;&gt;Node5 -->
<g id="edge4" class="edge">
<title>Node1&#45;&gt;Node5</title>
<path fill="none" stroke="midnightblue" d="M368.07,-150.17C387.12,-159.76 411.24,-171.15 433.55,-179.5 442.19,-182.73 451.49,-185.75 460.63,-188.46"/>
<polygon fill="midnightblue" stroke="midnightblue" points="369.65,-147.05 359.15,-145.62 366.47,-153.28 369.65,-147.05"/>
</g>
<!-- Node6 -->
<g id="node6" class="node">
<title>Node6</title>
<g id="a_node6"><a xlink:href="class_ogre_1_1v1_1_1_g_l3_plus_default_hardware_vertex_buffer.html" target="_top" xlink:title="Specialisation of HardwareVertexBuffer for emulation.">
<polygon fill="none" stroke="black" points="452.17,-141.5 452.17,-169.5 582.11,-169.5 582.11,-141.5 452.17,-141.5"/>
<text text-anchor="start" x="460.17" y="-157.5" font-family="Helvetica,sans-Serif" font-size="10.00">Ogre::v1::GL3PlusDefault</text>
<text text-anchor="middle" x="517.14" y="-147.5" font-family="Helvetica,sans-Serif" font-size="10.00">HardwareVertexBuffer</text>
</a>
</g>
</g>
<!-- Node1&#45;&gt;Node6 -->
<g id="edge5" class="edge">
<title>Node1&#45;&gt;Node6</title>
<path fill="none" stroke="midnightblue" d="M407.7,-141.31C422.38,-143.23 437.64,-145.23 451.93,-147.1"/>
<polygon fill="midnightblue" stroke="midnightblue" points="408.03,-137.82 397.66,-140 407.12,-144.76 408.03,-137.82"/>
</g>
<!-- Node7 -->
<g id="node7" class="node">
<title>Node7</title>
<g id="a_node7"><a xlink:href="class_ogre_1_1v1_1_1_g_l3_plus_hardware_vertex_buffer.html" target="_top" xlink:title="Specialisation of HardwareVertexBuffer for OpenGL.">
<polygon fill="none" stroke="black" points="446.33,-94.5 446.33,-122.5 587.94,-122.5 587.94,-94.5 446.33,-94.5"/>
<text text-anchor="start" x="454.33" y="-110.5" font-family="Helvetica,sans-Serif" font-size="10.00">Ogre::v1::GL3PlusHardware</text>
<text text-anchor="middle" x="517.14" y="-100.5" font-family="Helvetica,sans-Serif" font-size="10.00">VertexBuffer</text>
</a>
</g>
</g>
<!-- Node1&#45;&gt;Node7 -->
<g id="edge6" class="edge">
<title>Node1&#45;&gt;Node7</title>
<path fill="none" stroke="midnightblue" d="M407.77,-122.09C420.52,-120.49 433.72,-118.84 446.33,-117.25"/>
<polygon fill="midnightblue" stroke="midnightblue" points="407.15,-118.64 397.66,-123.36 408.02,-125.59 407.15,-118.64"/>
</g>
<!-- Node8 -->
<g id="node8" class="node">
<title>Node8</title>
<g id="a_node8"><a xlink:href="class_ogre_1_1v1_1_1_g_l_e_s2_default_hardware_vertex_buffer.html" target="_top" xlink:title="Specialisation of HardwareVertexBuffer for emulation.">
<polygon fill="none" stroke="black" points="433.55,-47.5 433.55,-75.5 600.73,-75.5 600.73,-47.5 433.55,-47.5"/>
<text text-anchor="start" x="441.55" y="-63.5" font-family="Helvetica,sans-Serif" font-size="10.00">Ogre::v1::GLES2DefaultHardware</text>
<text text-anchor="middle" x="517.14" y="-53.5" font-family="Helvetica,sans-Serif" font-size="10.00">VertexBuffer</text>
</a>
</g>
</g>
<!-- Node1&#45;&gt;Node8 -->
<g id="edge7" class="edge">
<title>Node1&#45;&gt;Node8</title>
<path fill="none" stroke="midnightblue" d="M368.77,-112.94C387.73,-103.63 411.55,-92.63 433.55,-84.5 442.21,-81.3 451.51,-78.3 460.65,-75.6"/>
<polygon fill="midnightblue" stroke="midnightblue" points="367.01,-109.91 359.61,-117.49 370.12,-116.18 367.01,-109.91"/>
</g>
<!-- Node9 -->
<g id="node9" class="node">
<title>Node9</title>
<g id="a_node9"><a xlink:href="class_ogre_1_1v1_1_1_metal_hardware_vertex_buffer.html" target="_top" xlink:title="Specialisation of HardwareVertexBuffer for Metal.">
<polygon fill="none" stroke="black" points="439.11,-0.5 439.11,-28.5 595.17,-28.5 595.17,-0.5 439.11,-0.5"/>
<text text-anchor="start" x="447.11" y="-16.5" font-family="Helvetica,sans-Serif" font-size="10.00">Ogre::v1::MetalHardwareVertex</text>
<text text-anchor="middle" x="517.14" y="-6.5" font-family="Helvetica,sans-Serif" font-size="10.00">Buffer</text>
</a>
</g>
</g>
<!-- Node1&#45;&gt;Node9 -->
<g id="edge8" class="edge">
<title>Node1&#45;&gt;Node9</title>
<path fill="none" stroke="midnightblue" d="M350.38,-109.86C368.93,-88.46 400.05,-56.28 433.55,-37.5 439.65,-34.08 446.3,-31.14 453.08,-28.62"/>
<polygon fill="midnightblue" stroke="midnightblue" points="347.71,-107.59 343.9,-117.48 353.05,-112.12 347.71,-107.59"/>
</g>
<!-- Node2 -->
<g id="node2" class="node">
<title>Node2</title>
<g id="a_node2"><a xlink:href="class_ogre_1_1v1_1_1_hardware_buffer.html" target="_top" xlink:title="Abstract class defining common features of hardware buffers.">
<polygon fill="none" stroke="black" points="100.18,-122.5 100.18,-140.5 229.94,-140.5 229.94,-122.5 100.18,-122.5"/>
<text text-anchor="middle" x="165.06" y="-128.5" font-family="Helvetica,sans-Serif" font-size="10.00">Ogre::v1::HardwareBuffer</text>
</a>
</g>
</g>
<!-- Node2&#45;&gt;Node1 -->
<g id="edge1" class="edge">
<title>Node2&#45;&gt;Node1</title>
<path fill="none" stroke="midnightblue" d="M240.41,-131.5C248.84,-131.5 257.39,-131.5 265.69,-131.5"/>
<polygon fill="midnightblue" stroke="midnightblue" points="240.2,-128 230.2,-131.5 240.2,-135 240.2,-128"/>
</g>
<!-- Node3 -->
<g id="node3" class="node">
<title>Node3</title>
<g id="a_node3"><a xlink:href="class_ogre_1_1_allocated_object.html" target="_top" xlink:title="Superclass for all objects that wish to use custom memory allocators when their new / delete operator...">
<polygon fill="none" stroke="black" points="0,-122.5 0,-140.5 64.18,-140.5 64.18,-122.5 0,-122.5"/>
<text text-anchor="middle" x="32.09" y="-128.5" font-family="Helvetica,sans-Serif" font-size="10.00">BufferAlloc</text>
</a>
</g>
</g>
<!-- Node3&#45;&gt;Node2 -->
<g id="edge2" class="edge">
<title>Node3&#45;&gt;Node2</title>
<path fill="none" stroke="midnightblue" d="M74.71,-131.5C82.78,-131.5 91.42,-131.5 100.03,-131.5"/>
<polygon fill="midnightblue" stroke="midnightblue" points="74.46,-128 64.46,-131.5 74.46,-135 74.46,-128"/>
</g>
</g>
</svg>
