<?xml version="1.0" encoding="UTF-8" standalone="no"?>
<!DOCTYPE svg PUBLIC "-//W3C//DTD SVG 1.1//EN"
 "http://www.w3.org/Graphics/SVG/1.1/DTD/svg11.dtd">
<!-- Generated by graphviz version 2.43.0 (0)
 -->
<!-- Title: Ogre::Resource Pages: 1 -->
<svg width="770pt" height="573pt"
 viewBox="0.00 0.00 770.02 573.00" xmlns="http://www.w3.org/2000/svg" xmlns:xlink="http://www.w3.org/1999/xlink">
<g id="graph0" class="graph" transform="scale(1 1) rotate(0) translate(4 569)">
<title>Ogre::Resource</title>
<!-- Node1 -->
<g id="node1" class="node">
<title>Node1</title>
<g id="a_node1"><a xlink:title="Abstract class representing a loadable resource (e.g.">
<polygon fill="#bfbfbf" stroke="black" points="144.82,-203.5 144.82,-221.5 231.41,-221.5 231.41,-203.5 144.82,-203.5"/>
<text text-anchor="middle" x="188.12" y="-209.5" font-family="Helvetica,sans-Serif" font-size="10.00">Ogre::Resource</text>
</a>
</g>
</g>
<!-- Node4 -->
<g id="node4" class="node">
<title>Node4</title>
<g id="a_node4"><a xlink:href="class_ogre_1_1_bsp_level.html" target="_top" xlink:title="Holds all the data associated with a Binary Space Parition (BSP) based indoor level.">
<polygon fill="none" stroke="black" points="275.46,-333.5 275.46,-351.5 360.39,-351.5 360.39,-333.5 275.46,-333.5"/>
<text text-anchor="middle" x="317.93" y="-339.5" font-family="Helvetica,sans-Serif" font-size="10.00">Ogre::BspLevel</text>
</a>
</g>
</g>
<!-- Node1&#45;&gt;Node4 -->
<g id="edge3" class="edge">
<title>Node1&#45;&gt;Node4</title>
<path fill="none" stroke="midnightblue" d="M197.6,-231.08C209.74,-255.73 234.31,-299.09 267.41,-324.5 272.12,-328.12 277.64,-331.06 283.24,-333.44"/>
<polygon fill="midnightblue" stroke="midnightblue" points="200.62,-229.29 193.17,-221.77 194.3,-232.3 200.62,-229.29"/>
</g>
<!-- Node5 -->
<g id="node5" class="node">
<title>Node5</title>
<g id="a_node5"><a xlink:href="class_ogre_1_1_font.html" target="_top" xlink:title="Class representing a font in the system.">
<polygon fill="none" stroke="black" points="286.03,-296.5 286.03,-314.5 349.82,-314.5 349.82,-296.5 286.03,-296.5"/>
<text text-anchor="middle" x="317.93" y="-302.5" font-family="Helvetica,sans-Serif" font-size="10.00">Ogre::Font</text>
</a>
</g>
</g>
<!-- Node1&#45;&gt;Node5 -->
<g id="edge4" class="edge">
<title>Node1&#45;&gt;Node5</title>
<path fill="none" stroke="midnightblue" d="M203.07,-229.49C217.61,-246.25 241.82,-271.59 267.41,-287.5 273.08,-291.03 279.54,-294 285.88,-296.46"/>
<polygon fill="midnightblue" stroke="midnightblue" points="205.53,-226.98 196.39,-221.61 200.19,-231.5 205.53,-226.98"/>
</g>
<!-- Node6 -->
<g id="node6" class="node">
<title>Node6</title>
<g id="a_node6"><a xlink:href="class_ogre_1_1_gpu_program.html" target="_top" xlink:title="Defines a program which runs on the GPU such as a vertex or fragment program.">
<polygon fill="none" stroke="black" points="267.41,-259.5 267.41,-277.5 368.44,-277.5 368.44,-259.5 267.41,-259.5"/>
<text text-anchor="middle" x="317.93" y="-265.5" font-family="Helvetica,sans-Serif" font-size="10.00">Ogre::GpuProgram</text>
</a>
</g>
</g>
<!-- Node1&#45;&gt;Node6 -->
<g id="edge5" class="edge">
<title>Node1&#45;&gt;Node6</title>
<path fill="none" stroke="midnightblue" d="M215.79,-226.3C230.79,-233.83 249.94,-243.11 267.41,-250.5 274.82,-253.64 282.99,-256.74 290.52,-259.47"/>
<polygon fill="midnightblue" stroke="midnightblue" points="217.1,-223.03 206.6,-221.63 213.93,-229.28 217.1,-223.03"/>
</g>
<!-- Node17 -->
<g id="node17" class="node">
<title>Node17</title>
<g id="a_node17"><a xlink:href="class_ogre_1_1_material.html" target="_top" xlink:title="Class encapsulates rendering properties of an object.">
<polygon fill="none" stroke="black" points="278.25,-222.5 278.25,-240.5 357.6,-240.5 357.6,-222.5 278.25,-222.5"/>
<text text-anchor="middle" x="317.93" y="-228.5" font-family="Helvetica,sans-Serif" font-size="10.00">Ogre::Material</text>
</a>
</g>
</g>
<!-- Node1&#45;&gt;Node17 -->
<g id="edge16" class="edge">
<title>Node1&#45;&gt;Node17</title>
<path fill="none" stroke="midnightblue" d="M241.7,-220.32C253.85,-222.12 266.56,-224.01 278,-225.71"/>
<polygon fill="midnightblue" stroke="midnightblue" points="242.08,-216.84 231.67,-218.83 241.05,-223.76 242.08,-216.84"/>
</g>
<!-- Node18 -->
<g id="node18" class="node">
<title>Node18</title>
<g id="a_node18"><a xlink:href="class_ogre_1_1_mesh.html" target="_top" xlink:title="Resource holding data about 3D mesh.">
<polygon fill="none" stroke="black" points="283.8,-185.5 283.8,-203.5 352.05,-203.5 352.05,-185.5 283.8,-185.5"/>
<text text-anchor="middle" x="317.93" y="-191.5" font-family="Helvetica,sans-Serif" font-size="10.00">Ogre::Mesh</text>
</a>
</g>
</g>
<!-- Node1&#45;&gt;Node18 -->
<g id="edge17" class="edge">
<title>Node1&#45;&gt;Node18</title>
<path fill="none" stroke="midnightblue" d="M241.76,-205.09C255.85,-203.1 270.7,-201.01 283.44,-199.22"/>
<polygon fill="midnightblue" stroke="midnightblue" points="241.09,-201.65 231.67,-206.51 242.06,-208.58 241.09,-201.65"/>
</g>
<!-- Node19 -->
<g id="node19" class="node">
<title>Node19</title>
<g id="a_node19"><a xlink:href="class_ogre_1_1_texture.html" target="_top" xlink:title="Abstract class representing a Texture resource.">
<polygon fill="none" stroke="black" points="279.63,-148.5 279.63,-166.5 356.22,-166.5 356.22,-148.5 279.63,-148.5"/>
<text text-anchor="middle" x="317.93" y="-154.5" font-family="Helvetica,sans-Serif" font-size="10.00">Ogre::Texture</text>
</a>
</g>
</g>
<!-- Node1&#45;&gt;Node19 -->
<g id="edge18" class="edge">
<title>Node1&#45;&gt;Node19</title>
<path fill="none" stroke="midnightblue" d="M216.12,-198.98C231.09,-191.68 250.11,-182.71 267.41,-175.5 274.84,-172.4 283.01,-169.31 290.54,-166.58"/>
<polygon fill="midnightblue" stroke="midnightblue" points="214.37,-195.94 206.94,-203.5 217.46,-202.22 214.37,-195.94"/>
</g>
<!-- Node31 -->
<g id="node31" class="node">
<title>Node31</title>
<g id="a_node31"><a xlink:href="class_ogre_1_1v1_1_1_mesh.html" target="_top" xlink:title="Resource holding data about 3D mesh.">
<polygon fill="none" stroke="black" points="275.75,-93.5 275.75,-111.5 360.1,-111.5 360.1,-93.5 275.75,-93.5"/>
<text text-anchor="middle" x="317.93" y="-99.5" font-family="Helvetica,sans-Serif" font-size="10.00">Ogre::v1::Mesh</text>
</a>
</g>
</g>
<!-- Node1&#45;&gt;Node31 -->
<g id="edge30" class="edge">
<title>Node1&#45;&gt;Node31</title>
<path fill="none" stroke="midnightblue" d="M205.14,-196.18C220.58,-180.75 244.86,-157.22 267.41,-138.5 279.18,-128.72 293.38,-118.55 303.55,-111.53"/>
<polygon fill="midnightblue" stroke="midnightblue" points="202.49,-193.89 197.93,-203.45 207.46,-198.82 202.49,-193.89"/>
</g>
<!-- Node33 -->
<g id="node33" class="node">
<title>Node33</title>
<g id="a_node33"><a xlink:href="class_ogre_1_1v1_1_1_skeleton.html" target="_top" xlink:title="A collection of OldBone objects used to animate a skinned mesh.">
<polygon fill="none" stroke="black" points="268.51,-37.5 268.51,-55.5 367.34,-55.5 367.34,-37.5 268.51,-37.5"/>
<text text-anchor="middle" x="317.93" y="-43.5" font-family="Helvetica,sans-Serif" font-size="10.00">Ogre::v1::Skeleton</text>
</a>
</g>
</g>
<!-- Node1&#45;&gt;Node33 -->
<g id="edge32" class="edge">
<title>Node1&#45;&gt;Node33</title>
<path fill="none" stroke="midnightblue" d="M197.5,-194.02C210.1,-167.57 235.84,-118.26 267.41,-83.5 277.51,-72.38 291.37,-62.35 301.86,-55.56"/>
<polygon fill="midnightblue" stroke="midnightblue" points="194.25,-192.72 193.2,-203.26 200.59,-195.68 194.25,-192.72"/>
</g>
<!-- Node2 -->
<g id="node2" class="node">
<title>Node2</title>
<g id="a_node2"><a xlink:href="class_ogre_1_1_string_interface.html" target="_top" xlink:title="Class defining the common interface which classes can use to present a reflection&#45;style,...">
<polygon fill="none" stroke="black" points="0,-222.5 0,-240.5 108.82,-240.5 108.82,-222.5 0,-222.5"/>
<text text-anchor="middle" x="54.41" y="-228.5" font-family="Helvetica,sans-Serif" font-size="10.00">Ogre::StringInterface</text>
</a>
</g>
</g>
<!-- Node2&#45;&gt;Node1 -->
<g id="edge1" class="edge">
<title>Node2&#45;&gt;Node1</title>
<path fill="none" stroke="midnightblue" d="M119.05,-222.32C127.68,-221.07 136.36,-219.82 144.49,-218.65"/>
<polygon fill="midnightblue" stroke="midnightblue" points="118.38,-218.88 108.98,-223.77 119.38,-225.81 118.38,-218.88"/>
</g>
<!-- Node3 -->
<g id="node3" class="node">
<title>Node3</title>
<g id="a_node3"><a xlink:href="class_ogre_1_1_allocated_object.html" target="_top" xlink:title="Superclass for all objects that wish to use custom memory allocators when their new / delete operator...">
<polygon fill="none" stroke="black" points="14.17,-185.5 14.17,-203.5 94.65,-203.5 94.65,-185.5 14.17,-185.5"/>
<text text-anchor="middle" x="54.41" y="-191.5" font-family="Helvetica,sans-Serif" font-size="10.00">ResourceAlloc</text>
</a>
</g>
</g>
<!-- Node3&#45;&gt;Node1 -->
<g id="edge2" class="edge">
<title>Node3&#45;&gt;Node1</title>
<path fill="none" stroke="midnightblue" d="M105.08,-201.29C118.03,-203.06 131.86,-204.95 144.41,-206.66"/>
<polygon fill="midnightblue" stroke="midnightblue" points="105.31,-197.79 94.93,-199.9 104.36,-204.72 105.31,-197.79"/>
</g>
<!-- Node7 -->
<g id="node7" class="node">
<title>Node7</title>
<g id="a_node7"><a xlink:href="class_ogre_1_1_d3_d9_gpu_program.html" target="_top" xlink:title="Direct3D implementation of a few things common to low&#45;level vertex &amp; fragment programs.">
<polygon fill="none" stroke="black" points="417.24,-509.5 417.24,-527.5 543.84,-527.5 543.84,-509.5 417.24,-509.5"/>
<text text-anchor="middle" x="480.54" y="-515.5" font-family="Helvetica,sans-Serif" font-size="10.00">Ogre::D3D9GpuProgram</text>
</a>
</g>
</g>
<!-- Node6&#45;&gt;Node7 -->
<g id="edge6" class="edge">
<title>Node6&#45;&gt;Node7</title>
<path fill="none" stroke="midnightblue" d="M363.06,-282.86C364.99,-284.27 366.8,-285.81 368.44,-287.5 401.97,-321.95 384.26,-345.87 404.44,-389.5 426.2,-436.54 459.79,-488.82 473.45,-509.43"/>
<polygon fill="midnightblue" stroke="midnightblue" points="364.41,-279.6 354.02,-277.53 360.85,-285.62 364.41,-279.6"/>
</g>
<!-- Node10 -->
<g id="node10" class="node">
<title>Node10</title>
<g id="a_node10"><a xlink:href="class_ogre_1_1_high_level_gpu_program.html" target="_top" xlink:title="Abstract base class representing a high&#45;level program (a vertex or fragment program).">
<polygon fill="none" stroke="black" points="407.78,-361.5 407.78,-379.5 553.29,-379.5 553.29,-361.5 407.78,-361.5"/>
<text text-anchor="middle" x="480.54" y="-367.5" font-family="Helvetica,sans-Serif" font-size="10.00">Ogre::HighLevelGpuProgram</text>
</a>
</g>
</g>
<!-- Node6&#45;&gt;Node10 -->
<g id="edge9" class="edge">
<title>Node6&#45;&gt;Node10</title>
<path fill="none" stroke="midnightblue" d="M355.91,-281.39C360.21,-283.27 364.48,-285.31 368.44,-287.5 408.71,-309.71 450.73,-344.98 469.47,-361.46"/>
<polygon fill="midnightblue" stroke="midnightblue" points="357.1,-278.09 346.52,-277.55 354.45,-284.57 357.1,-278.09"/>
</g>
<!-- Node8 -->
<g id="node8" class="node">
<title>Node8</title>
<g id="a_node8"><a xlink:href="class_ogre_1_1_d3_d9_gpu_fragment_program.html" target="_top" xlink:title="Direct3D implementation of low&#45;level fragment programs.">
<polygon fill="none" stroke="black" points="592.63,-546.5 592.63,-564.5 762.02,-564.5 762.02,-546.5 592.63,-546.5"/>
<text text-anchor="middle" x="677.33" y="-552.5" font-family="Helvetica,sans-Serif" font-size="10.00">Ogre::D3D9GpuFragmentProgram</text>
</a>
</g>
</g>
<!-- Node7&#45;&gt;Node8 -->
<g id="edge7" class="edge">
<title>Node7&#45;&gt;Node8</title>
<path fill="none" stroke="midnightblue" d="M539.05,-529.42C567.63,-534.85 601.75,-541.34 628.83,-546.48"/>
<polygon fill="midnightblue" stroke="midnightblue" points="539.66,-525.98 529.19,-527.55 538.36,-532.86 539.66,-525.98"/>
</g>
<!-- Node9 -->
<g id="node9" class="node">
<title>Node9</title>
<g id="a_node9"><a xlink:href="class_ogre_1_1_d3_d9_gpu_vertex_program.html" target="_top" xlink:title="Direct3D implementation of low&#45;level vertex programs.">
<polygon fill="none" stroke="black" points="599.85,-509.5 599.85,-527.5 754.8,-527.5 754.8,-509.5 599.85,-509.5"/>
<text text-anchor="middle" x="677.33" y="-515.5" font-family="Helvetica,sans-Serif" font-size="10.00">Ogre::D3D9GpuVertexProgram</text>
</a>
</g>
</g>
<!-- Node7&#45;&gt;Node9 -->
<g id="edge8" class="edge">
<title>Node7&#45;&gt;Node9</title>
<path fill="none" stroke="midnightblue" d="M554.09,-518.5C568.93,-518.5 584.59,-518.5 599.57,-518.5"/>
<polygon fill="midnightblue" stroke="midnightblue" points="553.97,-515 543.97,-518.5 553.97,-522 553.97,-515"/>
</g>
<!-- Node11 -->
<g id="node11" class="node">
<title>Node11</title>
<g id="a_node11"><a xlink:href="class_ogre_1_1_cg_program.html" target="_top" xlink:title="Specialisation of HighLevelGpuProgram to provide support for nVidia&#39;s CG language.">
<polygon fill="none" stroke="black" points="629.87,-472.5 629.87,-490.5 724.78,-490.5 724.78,-472.5 629.87,-472.5"/>
<text text-anchor="middle" x="677.33" y="-478.5" font-family="Helvetica,sans-Serif" font-size="10.00">Ogre::CgProgram</text>
</a>
</g>
</g>
<!-- Node10&#45;&gt;Node11 -->
<g id="edge10" class="edge">
<title>Node10&#45;&gt;Node11</title>
<path fill="none" stroke="midnightblue" d="M496.35,-387.13C516.15,-408.27 553.32,-444.3 592.63,-463.5 604.11,-469.11 617.33,-472.98 629.81,-475.65"/>
<polygon fill="midnightblue" stroke="midnightblue" points="498.76,-384.58 489.42,-379.58 493.6,-389.31 498.76,-384.58"/>
</g>
<!-- Node12 -->
<g id="node12" class="node">
<title>Node12</title>
<g id="a_node12"><a xlink:href="class_ogre_1_1_d3_d11_h_l_s_l_program.html" target="_top" xlink:title="Specialization of HighLevelGpuProgram to provide support for D3D11 High&#45;Level Shader Language (HLSL).">
<polygon fill="none" stroke="black" points="608.56,-435.5 608.56,-453.5 746.09,-453.5 746.09,-435.5 608.56,-435.5"/>
<text text-anchor="middle" x="677.33" y="-441.5" font-family="Helvetica,sans-Serif" font-size="10.00">Ogre::D3D11HLSLProgram</text>
</a>
</g>
</g>
<!-- Node10&#45;&gt;Node12 -->
<g id="edge11" class="edge">
<title>Node10&#45;&gt;Node12</title>
<path fill="none" stroke="midnightblue" d="M505.37,-384.77C527.35,-397.37 561.23,-415.41 592.63,-426.5 602.72,-430.06 613.76,-433.04 624.41,-435.49"/>
<polygon fill="midnightblue" stroke="midnightblue" points="506.85,-381.58 496.45,-379.57 503.33,-387.63 506.85,-381.58"/>
</g>
<!-- Node13 -->
<g id="node13" class="node">
<title>Node13</title>
<g id="a_node13"><a xlink:href="class_ogre_1_1_d3_d9_h_l_s_l_program.html" target="_top" xlink:title="Specialisation of HighLevelGpuProgram to provide support for D3D9 High&#45;Level Shader Language (HLSL).">
<polygon fill="none" stroke="black" points="610.97,-398.5 610.97,-416.5 743.68,-416.5 743.68,-398.5 610.97,-398.5"/>
<text text-anchor="middle" x="677.33" y="-404.5" font-family="Helvetica,sans-Serif" font-size="10.00">Ogre::D3D9HLSLProgram</text>
</a>
</g>
</g>
<!-- Node10&#45;&gt;Node13 -->
<g id="edge12" class="edge">
<title>Node10&#45;&gt;Node13</title>
<path fill="none" stroke="midnightblue" d="M539.05,-381.42C567.63,-386.85 601.75,-393.34 628.83,-398.48"/>
<polygon fill="midnightblue" stroke="midnightblue" points="539.66,-377.98 529.19,-379.55 538.36,-384.86 539.66,-377.98"/>
</g>
<!-- Node14 -->
<g id="node14" class="node">
<title>Node14</title>
<g id="a_node14"><a xlink:href="class_ogre_1_1_g_l_s_l_shader.html" target="_top" xlink:title="Specialisation of HighLevelGpuProgram to encapsulate shader objects obtained from compiled shaders wr...">
<polygon fill="none" stroke="black" points="626.52,-361.5 626.52,-379.5 728.13,-379.5 728.13,-361.5 626.52,-361.5"/>
<text text-anchor="middle" x="677.33" y="-367.5" font-family="Helvetica,sans-Serif" font-size="10.00">Ogre::GLSLShader</text>
</a>
</g>
</g>
<!-- Node10&#45;&gt;Node14 -->
<g id="edge13" class="edge">
<title>Node10&#45;&gt;Node14</title>
<path fill="none" stroke="midnightblue" d="M563.58,-370.5C584.97,-370.5 607.36,-370.5 626.51,-370.5"/>
<polygon fill="midnightblue" stroke="midnightblue" points="563.51,-367 553.51,-370.5 563.51,-374 563.51,-367"/>
</g>
<!-- Node15 -->
<g id="node15" class="node">
<title>Node15</title>
<g id="a_node15"><a xlink:href="class_ogre_1_1_metal_program.html" target="_top" xlink:title="Specialisation of HighLevelGpuProgram to provide support for Metal Shader Language.">
<polygon fill="none" stroke="black" points="624.03,-324.5 624.03,-342.5 730.62,-342.5 730.62,-324.5 624.03,-324.5"/>
<text text-anchor="middle" x="677.33" y="-330.5" font-family="Helvetica,sans-Serif" font-size="10.00">Ogre::MetalProgram</text>
</a>
</g>
</g>
<!-- Node10&#45;&gt;Node15 -->
<g id="edge14" class="edge">
<title>Node10&#45;&gt;Node15</title>
<path fill="none" stroke="midnightblue" d="M539.05,-359.58C567.63,-354.15 601.75,-347.66 628.83,-342.52"/>
<polygon fill="midnightblue" stroke="midnightblue" points="538.36,-356.14 529.19,-361.45 539.66,-363.02 538.36,-356.14"/>
</g>
<!-- Node16 -->
<g id="node16" class="node">
<title>Node16</title>
<g id="a_node16"><a xlink:href="class_ogre_1_1_unified_high_level_gpu_program.html" target="_top" xlink:title="Specialisation of HighLevelGpuProgram which just delegates its implementation to one other high level...">
<polygon fill="none" stroke="black" points="608.18,-277.5 608.18,-305.5 746.47,-305.5 746.47,-277.5 608.18,-277.5"/>
<text text-anchor="start" x="616.18" y="-293.5" font-family="Helvetica,sans-Serif" font-size="10.00">Ogre::UnifiedHighLevelGpu</text>
<text text-anchor="middle" x="677.33" y="-283.5" font-family="Helvetica,sans-Serif" font-size="10.00">Program</text>
</a>
</g>
</g>
<!-- Node10&#45;&gt;Node16 -->
<g id="edge15" class="edge">
<title>Node10&#45;&gt;Node16</title>
<path fill="none" stroke="midnightblue" d="M506.73,-356.39C528.87,-344.39 562.21,-327.28 592.63,-315.5 601.93,-311.9 612,-308.56 621.82,-305.58"/>
<polygon fill="midnightblue" stroke="midnightblue" points="504.77,-353.47 497.68,-361.35 508.13,-359.61 504.77,-353.47"/>
</g>
<!-- Node20 -->
<g id="node20" class="node">
<title>Node20</title>
<g id="a_node20"><a xlink:href="class_ogre_1_1_d3_d11_texture.html" target="_top" xlink:title=" ">
<polygon fill="none" stroke="black" points="427.05,-222.5 427.05,-240.5 534.02,-240.5 534.02,-222.5 427.05,-222.5"/>
<text text-anchor="middle" x="480.54" y="-228.5" font-family="Helvetica,sans-Serif" font-size="10.00">Ogre::D3D11Texture</text>
</a>
</g>
</g>
<!-- Node19&#45;&gt;Node20 -->
<g id="edge19" class="edge">
<title>Node19&#45;&gt;Node20</title>
<path fill="none" stroke="midnightblue" d="M359.81,-170.59C362.81,-172.09 365.73,-173.72 368.44,-175.5 387.9,-188.26 384.3,-201.86 404.44,-213.5 411.29,-217.46 418.97,-220.55 426.74,-222.96"/>
<polygon fill="midnightblue" stroke="midnightblue" points="361.18,-167.37 350.62,-166.53 358.35,-173.78 361.18,-167.37"/>
</g>
<!-- Node23 -->
<g id="node23" class="node">
<title>Node23</title>
<g id="a_node23"><a xlink:href="class_ogre_1_1_d3_d9_texture.html" target="_top" xlink:title=" ">
<polygon fill="none" stroke="black" points="429.46,-185.5 429.46,-203.5 531.61,-203.5 531.61,-185.5 429.46,-185.5"/>
<text text-anchor="middle" x="480.54" y="-191.5" font-family="Helvetica,sans-Serif" font-size="10.00">Ogre::D3D9Texture</text>
</a>
</g>
</g>
<!-- Node19&#45;&gt;Node23 -->
<g id="edge22" class="edge">
<title>Node19&#45;&gt;Node23</title>
<path fill="none" stroke="midnightblue" d="M366.38,-168.43C389.96,-173.87 418.11,-180.35 440.44,-185.49"/>
<polygon fill="midnightblue" stroke="midnightblue" points="367.11,-165.01 356.58,-166.17 365.54,-171.83 367.11,-165.01"/>
</g>
<!-- Node24 -->
<g id="node24" class="node">
<title>Node24</title>
<g id="a_node24"><a xlink:href="class_ogre_1_1_g_l3_plus_texture.html" target="_top" xlink:title=" ">
<polygon fill="none" stroke="black" points="423.07,-148.5 423.07,-166.5 538,-166.5 538,-148.5 423.07,-148.5"/>
<text text-anchor="middle" x="480.54" y="-154.5" font-family="Helvetica,sans-Serif" font-size="10.00">Ogre::GL3PlusTexture</text>
</a>
</g>
</g>
<!-- Node19&#45;&gt;Node24 -->
<g id="edge23" class="edge">
<title>Node19&#45;&gt;Node24</title>
<path fill="none" stroke="midnightblue" d="M366.66,-157.5C384.33,-157.5 404.54,-157.5 422.92,-157.5"/>
<polygon fill="midnightblue" stroke="midnightblue" points="366.58,-154 356.58,-157.5 366.58,-161 366.58,-154"/>
</g>
<!-- Node27 -->
<g id="node27" class="node">
<title>Node27</title>
<g id="a_node27"><a xlink:href="class_ogre_1_1_metal_texture.html" target="_top" xlink:title=" ">
<polygon fill="none" stroke="black" points="430.02,-111.5 430.02,-129.5 531.05,-129.5 531.05,-111.5 430.02,-111.5"/>
<text text-anchor="middle" x="480.54" y="-117.5" font-family="Helvetica,sans-Serif" font-size="10.00">Ogre::MetalTexture</text>
</a>
</g>
</g>
<!-- Node19&#45;&gt;Node27 -->
<g id="edge26" class="edge">
<title>Node19&#45;&gt;Node27</title>
<path fill="none" stroke="midnightblue" d="M366.38,-146.57C389.96,-141.13 418.11,-134.65 440.44,-129.51"/>
<polygon fill="midnightblue" stroke="midnightblue" points="365.54,-143.17 356.58,-148.83 367.11,-149.99 365.54,-143.17"/>
</g>
<!-- Node30 -->
<g id="node30" class="node">
<title>Node30</title>
<g id="a_node30"><a xlink:href="class_ogre_1_1_n_u_l_l_texture.html" target="_top" xlink:title=" ">
<polygon fill="none" stroke="black" points="429.83,-74.5 429.83,-92.5 531.24,-92.5 531.24,-74.5 429.83,-74.5"/>
<text text-anchor="middle" x="480.54" y="-80.5" font-family="Helvetica,sans-Serif" font-size="10.00">Ogre::NULLTexture</text>
</a>
</g>
</g>
<!-- Node19&#45;&gt;Node30 -->
<g id="edge29" class="edge">
<title>Node19&#45;&gt;Node30</title>
<path fill="none" stroke="midnightblue" d="M338.42,-141.91C355.06,-129.31 380.11,-112 404.44,-101.5 412.81,-97.89 422.03,-94.92 431.06,-92.52"/>
<polygon fill="midnightblue" stroke="midnightblue" points="335.86,-139.46 330.09,-148.35 340.14,-145 335.86,-139.46"/>
</g>
<!-- Node21 -->
<g id="node21" class="node">
<title>Node21</title>
<g id="a_node21"><a xlink:href="class_ogre_1_1_d3_d11_depth_texture.html" target="_top" xlink:title=" ">
<polygon fill="none" stroke="black" points="610.5,-240.5 610.5,-258.5 744.15,-258.5 744.15,-240.5 610.5,-240.5"/>
<text text-anchor="middle" x="677.33" y="-246.5" font-family="Helvetica,sans-Serif" font-size="10.00">Ogre::D3D11DepthTexture</text>
</a>
</g>
</g>
<!-- Node20&#45;&gt;Node21 -->
<g id="edge20" class="edge">
<title>Node20&#45;&gt;Node21</title>
<path fill="none" stroke="midnightblue" d="M544.38,-237.31C565.45,-239.25 589.01,-241.43 610.33,-243.4"/>
<polygon fill="midnightblue" stroke="midnightblue" points="544.53,-233.81 534.25,-236.37 543.88,-240.78 544.53,-233.81"/>
</g>
<!-- Node22 -->
<g id="node22" class="node">
<title>Node22</title>
<g id="a_node22"><a xlink:href="class_ogre_1_1_d3_d11_null_texture.html" target="_top" xlink:title=" ">
<polygon fill="none" stroke="black" points="615.23,-203.5 615.23,-221.5 739.42,-221.5 739.42,-203.5 615.23,-203.5"/>
<text text-anchor="middle" x="677.33" y="-209.5" font-family="Helvetica,sans-Serif" font-size="10.00">Ogre::D3D11NullTexture</text>
</a>
</g>
</g>
<!-- Node20&#45;&gt;Node22 -->
<g id="edge21" class="edge">
<title>Node20&#45;&gt;Node22</title>
<path fill="none" stroke="midnightblue" d="M544.41,-225.37C567.01,-223.16 592.47,-220.68 614.94,-218.49"/>
<polygon fill="midnightblue" stroke="midnightblue" points="543.86,-221.9 534.25,-226.36 544.54,-228.87 543.86,-221.9"/>
</g>
<!-- Node25 -->
<g id="node25" class="node">
<title>Node25</title>
<g id="a_node25"><a xlink:href="class_ogre_1_1_g_l3_plus_depth_texture.html" target="_top" xlink:title=" ">
<polygon fill="none" stroke="black" points="606.52,-166.5 606.52,-184.5 748.14,-184.5 748.14,-166.5 606.52,-166.5"/>
<text text-anchor="middle" x="677.33" y="-172.5" font-family="Helvetica,sans-Serif" font-size="10.00">Ogre::GL3PlusDepthTexture</text>
</a>
</g>
</g>
<!-- Node24&#45;&gt;Node25 -->
<g id="edge24" class="edge">
<title>Node24&#45;&gt;Node25</title>
<path fill="none" stroke="midnightblue" d="M548.36,-163.67C567.1,-165.41 587.52,-167.29 606.43,-169.04"/>
<polygon fill="midnightblue" stroke="midnightblue" points="548.42,-160.17 538.14,-162.73 547.77,-167.14 548.42,-160.17"/>
</g>
<!-- Node26 -->
<g id="node26" class="node">
<title>Node26</title>
<g id="a_node26"><a xlink:href="class_ogre_1_1_g_l3_plus_null_texture.html" target="_top" xlink:title=" ">
<polygon fill="none" stroke="black" points="611.24,-129.5 611.24,-147.5 743.41,-147.5 743.41,-129.5 611.24,-129.5"/>
<text text-anchor="middle" x="677.33" y="-135.5" font-family="Helvetica,sans-Serif" font-size="10.00">Ogre::GL3PlusNullTexture</text>
</a>
</g>
</g>
<!-- Node24&#45;&gt;Node26 -->
<g id="edge25" class="edge">
<title>Node24&#45;&gt;Node26</title>
<path fill="none" stroke="midnightblue" d="M548.23,-150.99C568.53,-149.01 590.8,-146.84 611,-144.87"/>
<polygon fill="midnightblue" stroke="midnightblue" points="547.75,-147.52 538.14,-151.98 548.43,-154.49 547.75,-147.52"/>
</g>
<!-- Node28 -->
<g id="node28" class="node">
<title>Node28</title>
<g id="a_node28"><a xlink:href="class_ogre_1_1_metal_depth_texture.html" target="_top" xlink:title=" ">
<polygon fill="none" stroke="black" points="613.47,-92.5 613.47,-110.5 741.19,-110.5 741.19,-92.5 613.47,-92.5"/>
<text text-anchor="middle" x="677.33" y="-98.5" font-family="Helvetica,sans-Serif" font-size="10.00">Ogre::MetalDepthTexture</text>
</a>
</g>
</g>
<!-- Node27&#45;&gt;Node28 -->
<g id="edge27" class="edge">
<title>Node27&#45;&gt;Node28</title>
<path fill="none" stroke="midnightblue" d="M541.39,-114.66C564.12,-112.44 590.08,-109.91 613.11,-107.67"/>
<polygon fill="midnightblue" stroke="midnightblue" points="540.81,-111.2 531.19,-115.66 541.49,-118.17 540.81,-111.2"/>
</g>
<!-- Node29 -->
<g id="node29" class="node">
<title>Node29</title>
<g id="a_node29"><a xlink:href="class_ogre_1_1_metal_null_texture.html" target="_top" xlink:title=" ">
<polygon fill="none" stroke="black" points="618.2,-55.5 618.2,-73.5 736.46,-73.5 736.46,-55.5 618.2,-55.5"/>
<text text-anchor="middle" x="677.33" y="-61.5" font-family="Helvetica,sans-Serif" font-size="10.00">Ogre::MetalNullTexture</text>
</a>
</g>
</g>
<!-- Node27&#45;&gt;Node29 -->
<g id="edge28" class="edge">
<title>Node27&#45;&gt;Node29</title>
<path fill="none" stroke="midnightblue" d="M534.42,-108.81C541.96,-106.66 549.56,-104.22 556.63,-101.5 573.52,-95.01 575.63,-88.68 592.63,-82.5 602.41,-78.94 613.1,-75.99 623.47,-73.57"/>
<polygon fill="midnightblue" stroke="midnightblue" points="533.31,-105.48 524.58,-111.48 535.15,-112.24 533.31,-105.48"/>
</g>
<!-- Node32 -->
<g id="node32" class="node">
<title>Node32</title>
<g id="a_node32"><a xlink:href="class_ogre_1_1v1_1_1_patch_mesh.html" target="_top" xlink:title="Patch specialisation of Mesh.">
<polygon fill="none" stroke="black" points="425.57,-37.5 425.57,-55.5 535.5,-55.5 535.5,-37.5 425.57,-37.5"/>
<text text-anchor="middle" x="480.54" y="-43.5" font-family="Helvetica,sans-Serif" font-size="10.00">Ogre::v1::PatchMesh</text>
</a>
</g>
</g>
<!-- Node31&#45;&gt;Node32 -->
<g id="edge31" class="edge">
<title>Node31&#45;&gt;Node32</title>
<path fill="none" stroke="midnightblue" d="M345.99,-88.95C362.56,-81.03 384.38,-71.3 404.44,-64.5 414.47,-61.1 425.46,-58.09 435.87,-55.54"/>
<polygon fill="midnightblue" stroke="midnightblue" points="344.36,-85.85 336.89,-93.36 347.41,-92.14 344.36,-85.85"/>
</g>
<!-- Node34 -->
<g id="node34" class="node">
<title>Node34</title>
<g id="a_node34"><a xlink:href="class_ogre_1_1v1_1_1_old_skeleton_instance.html" target="_top" xlink:title="A OldSkeletonInstance is a single instance of a Skeleton used by a world object.">
<polygon fill="none" stroke="black" points="404.44,-0.5 404.44,-18.5 556.63,-18.5 556.63,-0.5 404.44,-0.5"/>
<text text-anchor="middle" x="480.54" y="-6.5" font-family="Helvetica,sans-Serif" font-size="10.00">Ogre::v1::OldSkeletonInstance</text>
</a>
</g>
</g>
<!-- Node33&#45;&gt;Node34 -->
<g id="edge33" class="edge">
<title>Node33&#45;&gt;Node34</title>
<path fill="none" stroke="midnightblue" d="M368.21,-35.15C391.38,-29.81 418.63,-23.53 440.37,-18.52"/>
<polygon fill="midnightblue" stroke="midnightblue" points="367.17,-31.79 358.22,-37.45 368.75,-38.61 367.17,-31.79"/>
</g>
</g>
</svg>
