<?xml version="1.0" encoding="UTF-8" standalone="no"?>
<!DOCTYPE svg PUBLIC "-//W3C//DTD SVG 1.1//EN"
 "http://www.w3.org/Graphics/SVG/1.1/DTD/svg11.dtd">
<!-- Generated by graphviz version 2.43.0 (0)
 -->
<!-- Title: Ogre::v1::BillboardChainFactory Pages: 1 -->
<svg width="152pt" height="147pt"
 viewBox="0.00 0.00 151.83 147.00" xmlns="http://www.w3.org/2000/svg" xmlns:xlink="http://www.w3.org/1999/xlink">
<g id="graph0" class="graph" transform="scale(1 1) rotate(0) translate(4 143)">
<title>Ogre::v1::BillboardChainFactory</title>
<!-- Node1 -->
<g id="node1" class="node">
<title>Node1</title>
<g id="a_node1"><a xlink:title="Factory object for creating BillboardChain instances.">
<polygon fill="#bfbfbf" stroke="black" points="9.44,-0.5 9.44,-28.5 134.39,-28.5 134.39,-0.5 9.44,-0.5"/>
<text text-anchor="start" x="17.44" y="-16.5" font-family="Helvetica,sans-Serif" font-size="10.00">Ogre::v1::BillboardChain</text>
<text text-anchor="middle" x="71.91" y="-6.5" font-family="Helvetica,sans-Serif" font-size="10.00">Factory</text>
</a>
</g>
</g>
<!-- Node2 -->
<g id="node2" class="node">
<title>Node2</title>
<g id="a_node2"><a xlink:href="class_ogre_1_1_movable_object_factory.html" target="_top" xlink:title="Interface definition for a factory class which produces a certain kind of MovableObject,...">
<polygon fill="none" stroke="black" points="0,-65.5 0,-83.5 143.83,-83.5 143.83,-65.5 0,-65.5"/>
<text text-anchor="middle" x="71.91" y="-71.5" font-family="Helvetica,sans-Serif" font-size="10.00">Ogre::MovableObjectFactory</text>
</a>
</g>
</g>
<!-- Node2&#45;&gt;Node1 -->
<g id="edge1" class="edge">
<title>Node2&#45;&gt;Node1</title>
<path fill="none" stroke="midnightblue" d="M71.91,-55.32C71.91,-46.75 71.91,-36.7 71.91,-28.84"/>
<polygon fill="midnightblue" stroke="midnightblue" points="68.41,-55.44 71.91,-65.44 75.41,-55.44 68.41,-55.44"/>
</g>
<!-- Node3 -->
<g id="node3" class="node">
<title>Node3</title>
<g id="a_node3"><a xlink:href="class_ogre_1_1_allocated_object.html" target="_top" xlink:title="Superclass for all objects that wish to use custom memory allocators when their new / delete operator...">
<polygon fill="none" stroke="black" points="34.18,-120.5 34.18,-138.5 109.65,-138.5 109.65,-120.5 34.18,-120.5"/>
<text text-anchor="middle" x="71.91" y="-126.5" font-family="Helvetica,sans-Serif" font-size="10.00">MovableAlloc</text>
</a>
</g>
</g>
<!-- Node3&#45;&gt;Node2 -->
<g id="edge2" class="edge">
<title>Node3&#45;&gt;Node2</title>
<path fill="none" stroke="midnightblue" d="M71.91,-110.17C71.91,-101.09 71.91,-90.59 71.91,-83.55"/>
<polygon fill="midnightblue" stroke="midnightblue" points="68.41,-110.22 71.91,-120.22 75.41,-110.22 68.41,-110.22"/>
</g>
</g>
</svg>
