<?xml version="1.0" encoding="UTF-8" standalone="no"?>
<!DOCTYPE svg PUBLIC "-//W3C//DTD SVG 1.1//EN"
 "http://www.w3.org/Graphics/SVG/1.1/DTD/svg11.dtd">
<!-- Generated by graphviz version 2.43.0 (0)
 -->
<!-- Title: Ogre::HighLevelGpuProgramManager Pages: 1 -->
<svg width="332pt" height="157pt"
 viewBox="0.00 0.00 331.53 157.00" xmlns="http://www.w3.org/2000/svg" xmlns:xlink="http://www.w3.org/1999/xlink">
<g id="graph0" class="graph" transform="scale(1 1) rotate(0) translate(4 153)">
<title>Ogre::HighLevelGpuProgramManager</title>
<!-- Node1 -->
<g id="node1" class="node">
<title>Node1</title>
<g id="a_node1"><a xlink:title="This ResourceManager manages high&#45;level vertex and fragment programs.">
<polygon fill="#bfbfbf" stroke="black" points="106.49,-0.5 106.49,-28.5 252,-28.5 252,-0.5 106.49,-0.5"/>
<text text-anchor="start" x="114.49" y="-16.5" font-family="Helvetica,sans-Serif" font-size="10.00">Ogre::HighLevelGpuProgram</text>
<text text-anchor="middle" x="179.24" y="-6.5" font-family="Helvetica,sans-Serif" font-size="10.00">Manager</text>
</a>
</g>
</g>
<!-- Node2 -->
<g id="node2" class="node">
<title>Node2</title>
<g id="a_node2"><a xlink:href="class_ogre_1_1_resource_manager.html" target="_top" xlink:title="Defines a generic resource handler.">
<polygon fill="none" stroke="black" points="41.22,-70.5 41.22,-88.5 167.27,-88.5 167.27,-70.5 41.22,-70.5"/>
<text text-anchor="middle" x="104.24" y="-76.5" font-family="Helvetica,sans-Serif" font-size="10.00">Ogre::ResourceManager</text>
</a>
</g>
</g>
<!-- Node2&#45;&gt;Node1 -->
<g id="edge1" class="edge">
<title>Node2&#45;&gt;Node1</title>
<path fill="none" stroke="midnightblue" d="M122.04,-63.55C134.71,-52.91 151.57,-38.75 163.7,-28.56"/>
<polygon fill="midnightblue" stroke="midnightblue" points="119.45,-61.15 114.05,-70.26 123.96,-66.51 119.45,-61.15"/>
</g>
<!-- Node3 -->
<g id="node3" class="node">
<title>Node3</title>
<g id="a_node3"><a xlink:href="class_ogre_1_1_script_loader.html" target="_top" xlink:title="Abstract class defining the interface used by classes which wish to perform script loading to define ...">
<polygon fill="none" stroke="black" points="0,-130.5 0,-148.5 100.49,-148.5 100.49,-130.5 0,-130.5"/>
<text text-anchor="middle" x="50.24" y="-136.5" font-family="Helvetica,sans-Serif" font-size="10.00">Ogre::ScriptLoader</text>
</a>
</g>
</g>
<!-- Node3&#45;&gt;Node2 -->
<g id="edge2" class="edge">
<title>Node3&#45;&gt;Node2</title>
<path fill="none" stroke="midnightblue" d="M64.82,-122.84C75,-111.91 88.2,-97.73 96.45,-88.87"/>
<polygon fill="midnightblue" stroke="midnightblue" points="62,-120.73 57.75,-130.44 67.13,-125.5 62,-120.73"/>
</g>
<!-- Node4 -->
<g id="node4" class="node">
<title>Node4</title>
<g id="a_node4"><a xlink:href="class_ogre_1_1_allocated_object.html" target="_top" xlink:title="Superclass for all objects that wish to use custom memory allocators when their new / delete operator...">
<polygon fill="none" stroke="black" points="118.01,-130.5 118.01,-148.5 198.48,-148.5 198.48,-130.5 118.01,-130.5"/>
<text text-anchor="middle" x="158.24" y="-136.5" font-family="Helvetica,sans-Serif" font-size="10.00">ResourceAlloc</text>
</a>
</g>
</g>
<!-- Node4&#45;&gt;Node2 -->
<g id="edge3" class="edge">
<title>Node4&#45;&gt;Node2</title>
<path fill="none" stroke="midnightblue" d="M143.67,-122.84C133.48,-111.91 120.28,-97.73 112.04,-88.87"/>
<polygon fill="midnightblue" stroke="midnightblue" points="141.36,-125.5 150.74,-130.44 146.48,-120.73 141.36,-125.5"/>
</g>
<!-- Node5 -->
<g id="node5" class="node">
<title>Node5</title>
<g id="a_node5"><a xlink:href="class_ogre_1_1_singleton.html" target="_top" xlink:title=" ">
<polygon fill="none" stroke="black" points="184.95,-65.5 184.95,-93.5 323.53,-93.5 323.53,-65.5 184.95,-65.5"/>
<text text-anchor="start" x="192.95" y="-81.5" font-family="Helvetica,sans-Serif" font-size="10.00">Ogre::Singleton&lt; HighLevel</text>
<text text-anchor="middle" x="254.24" y="-71.5" font-family="Helvetica,sans-Serif" font-size="10.00">GpuProgramManager &gt;</text>
</a>
</g>
</g>
<!-- Node5&#45;&gt;Node1 -->
<g id="edge4" class="edge">
<title>Node5&#45;&gt;Node1</title>
<path fill="none" stroke="midnightblue" d="M230.97,-58.95C219.19,-49.06 205.22,-37.32 194.76,-28.54"/>
<polygon fill="midnightblue" stroke="midnightblue" points="228.8,-61.69 238.7,-65.45 233.3,-56.33 228.8,-61.69"/>
</g>
</g>
</svg>
