<?xml version="1.0" encoding="UTF-8" standalone="no"?>
<!DOCTYPE svg PUBLIC "-//W3C//DTD SVG 1.1//EN"
 "http://www.w3.org/Graphics/SVG/1.1/DTD/svg11.dtd">
<!-- Generated by graphviz version 2.43.0 (0)
 -->
<!-- Title: Ogre::v1::GLES2HardwareUniformBuffer Pages: 1 -->
<svg width="179pt" height="212pt"
 viewBox="0.00 0.00 178.50 212.00" xmlns="http://www.w3.org/2000/svg" xmlns:xlink="http://www.w3.org/1999/xlink">
<g id="graph0" class="graph" transform="scale(1 1) rotate(0) translate(4 208)">
<title>Ogre::v1::GLES2HardwareUniformBuffer</title>
<!-- Node1 -->
<g id="node1" class="node">
<title>Node1</title>
<g id="a_node1"><a xlink:title="Specialisation of HardwareUniformBuffer for OpenGL.">
<polygon fill="#bfbfbf" stroke="black" points="0,-0.5 0,-28.5 170.5,-28.5 170.5,-0.5 0,-0.5"/>
<text text-anchor="start" x="8" y="-16.5" font-family="Helvetica,sans-Serif" font-size="10.00">Ogre::v1::GLES2HardwareUniform</text>
<text text-anchor="middle" x="85.25" y="-6.5" font-family="Helvetica,sans-Serif" font-size="10.00">Buffer</text>
</a>
</g>
</g>
<!-- Node2 -->
<g id="node2" class="node">
<title>Node2</title>
<g id="a_node2"><a xlink:href="class_ogre_1_1v1_1_1_hardware_uniform_buffer.html" target="_top" xlink:title="Specialisation of HardwareBuffer for a uniform buffer.">
<polygon fill="none" stroke="black" points="16.12,-65.5 16.12,-93.5 154.38,-93.5 154.38,-65.5 16.12,-65.5"/>
<text text-anchor="start" x="24.12" y="-81.5" font-family="Helvetica,sans-Serif" font-size="10.00">Ogre::v1::HardwareUniform</text>
<text text-anchor="middle" x="85.25" y="-71.5" font-family="Helvetica,sans-Serif" font-size="10.00">Buffer</text>
</a>
</g>
</g>
<!-- Node2&#45;&gt;Node1 -->
<g id="edge1" class="edge">
<title>Node2&#45;&gt;Node1</title>
<path fill="none" stroke="midnightblue" d="M85.25,-55.16C85.25,-46.17 85.25,-36.22 85.25,-28.54"/>
<polygon fill="midnightblue" stroke="midnightblue" points="81.75,-55.45 85.25,-65.45 88.75,-55.45 81.75,-55.45"/>
</g>
<!-- Node3 -->
<g id="node3" class="node">
<title>Node3</title>
<g id="a_node3"><a xlink:href="class_ogre_1_1v1_1_1_hardware_buffer.html" target="_top" xlink:title="Abstract class defining common features of hardware buffers.">
<polygon fill="none" stroke="black" points="20.37,-130.5 20.37,-148.5 150.13,-148.5 150.13,-130.5 20.37,-130.5"/>
<text text-anchor="middle" x="85.25" y="-136.5" font-family="Helvetica,sans-Serif" font-size="10.00">Ogre::v1::HardwareBuffer</text>
</a>
</g>
</g>
<!-- Node3&#45;&gt;Node2 -->
<g id="edge2" class="edge">
<title>Node3&#45;&gt;Node2</title>
<path fill="none" stroke="midnightblue" d="M85.25,-120.32C85.25,-111.75 85.25,-101.7 85.25,-93.84"/>
<polygon fill="midnightblue" stroke="midnightblue" points="81.75,-120.44 85.25,-130.44 88.75,-120.44 81.75,-120.44"/>
</g>
<!-- Node4 -->
<g id="node4" class="node">
<title>Node4</title>
<g id="a_node4"><a xlink:href="class_ogre_1_1_allocated_object.html" target="_top" xlink:title="Superclass for all objects that wish to use custom memory allocators when their new / delete operator...">
<polygon fill="none" stroke="black" points="53.16,-185.5 53.16,-203.5 117.34,-203.5 117.34,-185.5 53.16,-185.5"/>
<text text-anchor="middle" x="85.25" y="-191.5" font-family="Helvetica,sans-Serif" font-size="10.00">BufferAlloc</text>
</a>
</g>
</g>
<!-- Node4&#45;&gt;Node3 -->
<g id="edge3" class="edge">
<title>Node4&#45;&gt;Node3</title>
<path fill="none" stroke="midnightblue" d="M85.25,-175.17C85.25,-166.09 85.25,-155.59 85.25,-148.55"/>
<polygon fill="midnightblue" stroke="midnightblue" points="81.75,-175.22 85.25,-185.22 88.75,-175.22 81.75,-175.22"/>
</g>
</g>
</svg>
