<?xml version="1.0" encoding="UTF-8" standalone="no"?>
<!DOCTYPE svg PUBLIC "-//W3C//DTD SVG 1.1//EN"
 "http://www.w3.org/Graphics/SVG/1.1/DTD/svg11.dtd">
<!-- Generated by graphviz version 2.43.0 (0)
 -->
<!-- Title: Ogre::v1::HardwareUniformBuffer Pages: 1 -->
<svg width="619pt" height="319pt"
 viewBox="0.00 0.00 618.70 319.00" xmlns="http://www.w3.org/2000/svg" xmlns:xlink="http://www.w3.org/1999/xlink">
<g id="graph0" class="graph" transform="scale(1 1) rotate(0) translate(4 315)">
<title>Ogre::v1::HardwareUniformBuffer</title>
<!-- Node1 -->
<g id="node1" class="node">
<title>Node1</title>
<g id="a_node1"><a xlink:title="Specialisation of HardwareBuffer for a uniform buffer.">
<polygon fill="#bfbfbf" stroke="black" points="265.94,-141.5 265.94,-169.5 404.2,-169.5 404.2,-141.5 265.94,-141.5"/>
<text text-anchor="start" x="273.94" y="-157.5" font-family="Helvetica,sans-Serif" font-size="10.00">Ogre::v1::HardwareUniform</text>
<text text-anchor="middle" x="335.07" y="-147.5" font-family="Helvetica,sans-Serif" font-size="10.00">Buffer</text>
</a>
</g>
</g>
<!-- Node4 -->
<g id="node4" class="node">
<title>Node4</title>
<g id="a_node4"><a xlink:href="class_ogre_1_1v1_1_1_d3_d11_hardware_uniform_buffer.html" target="_top" xlink:title="Specialisation of HardwareBuffer for D3D11.">
<polygon fill="none" stroke="black" points="441.12,-282.5 441.12,-310.5 609.78,-310.5 609.78,-282.5 441.12,-282.5"/>
<text text-anchor="start" x="449.12" y="-298.5" font-family="Helvetica,sans-Serif" font-size="10.00">Ogre::v1::D3D11HardwareUniform</text>
<text text-anchor="middle" x="525.45" y="-288.5" font-family="Helvetica,sans-Serif" font-size="10.00">Buffer</text>
</a>
</g>
</g>
<!-- Node1&#45;&gt;Node4 -->
<g id="edge3" class="edge">
<title>Node1&#45;&gt;Node4</title>
<path fill="none" stroke="midnightblue" d="M350.09,-178.21C367.81,-204.98 400.78,-248.95 440.2,-273.5 445.73,-276.95 451.78,-279.89 458.02,-282.39"/>
<polygon fill="midnightblue" stroke="midnightblue" points="352.84,-176.01 344.48,-169.51 346.96,-179.81 352.84,-176.01"/>
</g>
<!-- Node5 -->
<g id="node5" class="node">
<title>Node5</title>
<g id="a_node5"><a xlink:href="class_ogre_1_1v1_1_1_default_hardware_uniform_buffer.html" target="_top" xlink:title="Specialisation of HardwareUniformBuffer for emulation.">
<polygon fill="none" stroke="black" points="457.98,-235.5 457.98,-263.5 592.92,-263.5 592.92,-235.5 457.98,-235.5"/>
<text text-anchor="start" x="465.98" y="-251.5" font-family="Helvetica,sans-Serif" font-size="10.00">Ogre::v1::DefaultHardware</text>
<text text-anchor="middle" x="525.45" y="-241.5" font-family="Helvetica,sans-Serif" font-size="10.00">UniformBuffer</text>
</a>
</g>
</g>
<!-- Node1&#45;&gt;Node5 -->
<g id="edge4" class="edge">
<title>Node1&#45;&gt;Node5</title>
<path fill="none" stroke="midnightblue" d="M361.11,-176.1C381.35,-191.86 411.17,-213.1 440.2,-226.5 447.5,-229.87 455.38,-232.83 463.3,-235.4"/>
<polygon fill="midnightblue" stroke="midnightblue" points="363.06,-173.19 353.05,-169.72 358.71,-178.68 363.06,-173.19"/>
</g>
<!-- Node6 -->
<g id="node6" class="node">
<title>Node6</title>
<g id="a_node6"><a xlink:href="class_ogre_1_1v1_1_1_g_l3_plus_default_hardware_uniform_buffer.html" target="_top" xlink:title="Specialisation of HardwareUniformBuffer for emulation.">
<polygon fill="none" stroke="black" points="460.48,-188.5 460.48,-216.5 590.42,-216.5 590.42,-188.5 460.48,-188.5"/>
<text text-anchor="start" x="468.48" y="-204.5" font-family="Helvetica,sans-Serif" font-size="10.00">Ogre::v1::GL3PlusDefault</text>
<text text-anchor="middle" x="525.45" y="-194.5" font-family="Helvetica,sans-Serif" font-size="10.00">HardwareUniformBuffer</text>
</a>
</g>
</g>
<!-- Node1&#45;&gt;Node6 -->
<g id="edge5" class="edge">
<title>Node1&#45;&gt;Node6</title>
<path fill="none" stroke="midnightblue" d="M402.07,-171.97C423.63,-177.35 447.37,-183.27 468.15,-188.45"/>
<polygon fill="midnightblue" stroke="midnightblue" points="402.88,-168.56 392.33,-169.54 401.19,-175.35 402.88,-168.56"/>
</g>
<!-- Node7 -->
<g id="node7" class="node">
<title>Node7</title>
<g id="a_node7"><a xlink:href="class_ogre_1_1v1_1_1_g_l3_plus_hardware_shader_storage_buffer.html" target="_top" xlink:title="Specialisation of HardwareUniformBuffer for the OpenGL Shader Storage Buffer.">
<polygon fill="none" stroke="black" points="454.65,-141.5 454.65,-169.5 596.26,-169.5 596.26,-141.5 454.65,-141.5"/>
<text text-anchor="start" x="462.65" y="-157.5" font-family="Helvetica,sans-Serif" font-size="10.00">Ogre::v1::GL3PlusHardware</text>
<text text-anchor="middle" x="525.45" y="-147.5" font-family="Helvetica,sans-Serif" font-size="10.00">ShaderStorageBuffer</text>
</a>
</g>
</g>
<!-- Node1&#45;&gt;Node7 -->
<g id="edge6" class="edge">
<title>Node1&#45;&gt;Node7</title>
<path fill="none" stroke="midnightblue" d="M414.41,-155.5C427.71,-155.5 441.44,-155.5 454.51,-155.5"/>
<polygon fill="midnightblue" stroke="midnightblue" points="414.35,-152 404.35,-155.5 414.35,-159 414.35,-152"/>
</g>
<!-- Node8 -->
<g id="node8" class="node">
<title>Node8</title>
<g id="a_node8"><a xlink:href="class_ogre_1_1v1_1_1_g_l3_plus_hardware_uniform_buffer.html" target="_top" xlink:title="Specialisation of HardwareUniformBuffer for OpenGL.">
<polygon fill="none" stroke="black" points="454.65,-94.5 454.65,-122.5 596.26,-122.5 596.26,-94.5 454.65,-94.5"/>
<text text-anchor="start" x="462.65" y="-110.5" font-family="Helvetica,sans-Serif" font-size="10.00">Ogre::v1::GL3PlusHardware</text>
<text text-anchor="middle" x="525.45" y="-100.5" font-family="Helvetica,sans-Serif" font-size="10.00">UniformBuffer</text>
</a>
</g>
</g>
<!-- Node1&#45;&gt;Node8 -->
<g id="edge7" class="edge">
<title>Node1&#45;&gt;Node8</title>
<path fill="none" stroke="midnightblue" d="M402.07,-139.03C423.63,-133.65 447.37,-127.73 468.15,-122.55"/>
<polygon fill="midnightblue" stroke="midnightblue" points="401.19,-135.65 392.33,-141.46 402.88,-142.44 401.19,-135.65"/>
</g>
<!-- Node9 -->
<g id="node9" class="node">
<title>Node9</title>
<g id="a_node9"><a xlink:href="class_ogre_1_1v1_1_1_g_l_e_s2_default_hardware_uniform_buffer.html" target="_top" xlink:title="Specialisation of HardwareUniformBuffer for emulation.">
<polygon fill="none" stroke="black" points="441.86,-47.5 441.86,-75.5 609.04,-75.5 609.04,-47.5 441.86,-47.5"/>
<text text-anchor="start" x="449.86" y="-63.5" font-family="Helvetica,sans-Serif" font-size="10.00">Ogre::v1::GLES2DefaultHardware</text>
<text text-anchor="middle" x="525.45" y="-53.5" font-family="Helvetica,sans-Serif" font-size="10.00">UniformBuffer</text>
</a>
</g>
</g>
<!-- Node1&#45;&gt;Node9 -->
<g id="edge8" class="edge">
<title>Node1&#45;&gt;Node9</title>
<path fill="none" stroke="midnightblue" d="M361.11,-134.9C381.35,-119.14 411.17,-97.9 440.2,-84.5 447.5,-81.13 455.38,-78.17 463.3,-75.6"/>
<polygon fill="midnightblue" stroke="midnightblue" points="358.71,-132.32 353.05,-141.28 363.06,-137.81 358.71,-132.32"/>
</g>
<!-- Node10 -->
<g id="node10" class="node">
<title>Node10</title>
<g id="a_node10"><a xlink:href="class_ogre_1_1v1_1_1_g_l_e_s2_hardware_uniform_buffer.html" target="_top" xlink:title="Specialisation of HardwareUniformBuffer for OpenGL.">
<polygon fill="none" stroke="black" points="440.2,-0.5 440.2,-28.5 610.7,-28.5 610.7,-0.5 440.2,-0.5"/>
<text text-anchor="start" x="448.2" y="-16.5" font-family="Helvetica,sans-Serif" font-size="10.00">Ogre::v1::GLES2HardwareUniform</text>
<text text-anchor="middle" x="525.45" y="-6.5" font-family="Helvetica,sans-Serif" font-size="10.00">Buffer</text>
</a>
</g>
</g>
<!-- Node1&#45;&gt;Node10 -->
<g id="edge9" class="edge">
<title>Node1&#45;&gt;Node10</title>
<path fill="none" stroke="midnightblue" d="M350.09,-132.79C367.81,-106.02 400.78,-62.05 440.2,-37.5 445.73,-34.05 451.78,-31.11 458.02,-28.61"/>
<polygon fill="midnightblue" stroke="midnightblue" points="346.96,-131.19 344.48,-141.49 352.84,-134.99 346.96,-131.19"/>
</g>
<!-- Node2 -->
<g id="node2" class="node">
<title>Node2</title>
<g id="a_node2"><a xlink:href="class_ogre_1_1v1_1_1_hardware_buffer.html" target="_top" xlink:title="Abstract class defining common features of hardware buffers.">
<polygon fill="none" stroke="black" points="100.18,-146.5 100.18,-164.5 229.94,-164.5 229.94,-146.5 100.18,-146.5"/>
<text text-anchor="middle" x="165.06" y="-152.5" font-family="Helvetica,sans-Serif" font-size="10.00">Ogre::v1::HardwareBuffer</text>
</a>
</g>
</g>
<!-- Node2&#45;&gt;Node1 -->
<g id="edge1" class="edge">
<title>Node2&#45;&gt;Node1</title>
<path fill="none" stroke="midnightblue" d="M240.3,-155.5C248.78,-155.5 257.38,-155.5 265.78,-155.5"/>
<polygon fill="midnightblue" stroke="midnightblue" points="240.06,-152 230.06,-155.5 240.06,-159 240.06,-152"/>
</g>
<!-- Node3 -->
<g id="node3" class="node">
<title>Node3</title>
<g id="a_node3"><a xlink:href="class_ogre_1_1_allocated_object.html" target="_top" xlink:title="Superclass for all objects that wish to use custom memory allocators when their new / delete operator...">
<polygon fill="none" stroke="black" points="0,-146.5 0,-164.5 64.18,-164.5 64.18,-146.5 0,-146.5"/>
<text text-anchor="middle" x="32.09" y="-152.5" font-family="Helvetica,sans-Serif" font-size="10.00">BufferAlloc</text>
</a>
</g>
</g>
<!-- Node3&#45;&gt;Node2 -->
<g id="edge2" class="edge">
<title>Node3&#45;&gt;Node2</title>
<path fill="none" stroke="midnightblue" d="M74.71,-155.5C82.78,-155.5 91.42,-155.5 100.03,-155.5"/>
<polygon fill="midnightblue" stroke="midnightblue" points="74.46,-152 64.46,-155.5 74.46,-159 74.46,-152"/>
</g>
</g>
</svg>
