<?xml version="1.0" encoding="UTF-8" standalone="no"?>
<!DOCTYPE svg PUBLIC "-//W3C//DTD SVG 1.1//EN"
 "http://www.w3.org/Graphics/SVG/1.1/DTD/svg11.dtd">
<!-- Generated by graphviz version 2.43.0 (0)
 -->
<!-- Title: Ogre::MetalVaoManager Pages: 1 -->
<svg width="133pt" height="137pt"
 viewBox="0.00 0.00 132.76 137.00" xmlns="http://www.w3.org/2000/svg" xmlns:xlink="http://www.w3.org/1999/xlink">
<g id="graph0" class="graph" transform="scale(1 1) rotate(0) translate(4 133)">
<title>Ogre::MetalVaoManager</title>
<!-- Node1 -->
<g id="node1" class="node">
<title>Node1</title>
<g id="a_node1"><a xlink:title=" ">
<polygon fill="#bfbfbf" stroke="black" points="0,-0.5 0,-18.5 124.76,-18.5 124.76,-0.5 0,-0.5"/>
<text text-anchor="middle" x="62.38" y="-6.5" font-family="Helvetica,sans-Serif" font-size="10.00">Ogre::MetalVaoManager</text>
</a>
</g>
</g>
<!-- Node2 -->
<g id="node2" class="node">
<title>Node2</title>
<g id="a_node2"><a xlink:href="class_ogre_1_1_vao_manager.html" target="_top" xlink:title=" ">
<polygon fill="none" stroke="black" points="12.23,-55.5 12.23,-73.5 112.54,-73.5 112.54,-55.5 12.23,-55.5"/>
<text text-anchor="middle" x="62.38" y="-61.5" font-family="Helvetica,sans-Serif" font-size="10.00">Ogre::VaoManager</text>
</a>
</g>
</g>
<!-- Node2&#45;&gt;Node1 -->
<g id="edge1" class="edge">
<title>Node2&#45;&gt;Node1</title>
<path fill="none" stroke="midnightblue" d="M62.38,-45.17C62.38,-36.09 62.38,-25.59 62.38,-18.55"/>
<polygon fill="midnightblue" stroke="midnightblue" points="58.88,-45.22 62.38,-55.22 65.88,-45.22 58.88,-45.22"/>
</g>
<!-- Node3 -->
<g id="node3" class="node">
<title>Node3</title>
<g id="a_node3"><a xlink:href="class_ogre_1_1_allocated_object.html" target="_top" xlink:title="Superclass for all objects that wish to use custom memory allocators when their new / delete operator...">
<polygon fill="none" stroke="black" points="18.81,-110.5 18.81,-128.5 105.95,-128.5 105.95,-110.5 18.81,-110.5"/>
<text text-anchor="middle" x="62.38" y="-116.5" font-family="Helvetica,sans-Serif" font-size="10.00">RenderSysAlloc</text>
</a>
</g>
</g>
<!-- Node3&#45;&gt;Node2 -->
<g id="edge2" class="edge">
<title>Node3&#45;&gt;Node2</title>
<path fill="none" stroke="midnightblue" d="M62.38,-100.17C62.38,-91.09 62.38,-80.59 62.38,-73.55"/>
<polygon fill="midnightblue" stroke="midnightblue" points="58.88,-100.22 62.38,-110.22 65.88,-100.22 58.88,-100.22"/>
</g>
</g>
</svg>
