<?xml version="1.0" encoding="UTF-8" standalone="no"?>
<!DOCTYPE svg PUBLIC "-//W3C//DTD SVG 1.1//EN"
 "http://www.w3.org/Graphics/SVG/1.1/DTD/svg11.dtd">
<!-- Generated by graphviz version 2.43.0 (0)
 -->
<!-- Title: Ogre::D3D9StereoDriverNVIDIA Pages: 1 -->
<svg width="167pt" height="137pt"
 viewBox="0.00 0.00 166.82 137.00" xmlns="http://www.w3.org/2000/svg" xmlns:xlink="http://www.w3.org/1999/xlink">
<g id="graph0" class="graph" transform="scale(1 1) rotate(0) translate(4 133)">
<title>Ogre::D3D9StereoDriverNVIDIA</title>
<!-- Node1 -->
<g id="node1" class="node">
<title>Node1</title>
<g id="a_node1"><a xlink:title="Interface of the NVIDIA stereo driver.">
<polygon fill="#bfbfbf" stroke="black" points="0,-0.5 0,-18.5 158.82,-18.5 158.82,-0.5 0,-0.5"/>
<text text-anchor="middle" x="79.41" y="-6.5" font-family="Helvetica,sans-Serif" font-size="10.00">Ogre::D3D9StereoDriverNVIDIA</text>
</a>
</g>
</g>
<!-- Node2 -->
<g id="node2" class="node">
<title>Node2</title>
<g id="a_node2"><a xlink:href="class_ogre_1_1_d3_d9_stereo_driver_impl.html" target="_top" xlink:title="Virtual interface of the stereo driver.">
<polygon fill="none" stroke="black" points="7.22,-55.5 7.22,-73.5 151.6,-73.5 151.6,-55.5 7.22,-55.5"/>
<text text-anchor="middle" x="79.41" y="-61.5" font-family="Helvetica,sans-Serif" font-size="10.00">Ogre::D3D9StereoDriverImpl</text>
</a>
</g>
</g>
<!-- Node2&#45;&gt;Node1 -->
<g id="edge1" class="edge">
<title>Node2&#45;&gt;Node1</title>
<path fill="none" stroke="midnightblue" d="M79.41,-45.17C79.41,-36.09 79.41,-25.59 79.41,-18.55"/>
<polygon fill="midnightblue" stroke="midnightblue" points="75.91,-45.22 79.41,-55.22 82.91,-45.22 75.91,-45.22"/>
</g>
<!-- Node3 -->
<g id="node3" class="node">
<title>Node3</title>
<g id="a_node3"><a xlink:href="class_ogre_1_1_allocated_object.html" target="_top" xlink:title="Superclass for all objects that wish to use custom memory allocators when their new / delete operator...">
<polygon fill="none" stroke="black" points="39.17,-110.5 39.17,-128.5 119.65,-128.5 119.65,-110.5 39.17,-110.5"/>
<text text-anchor="middle" x="79.41" y="-116.5" font-family="Helvetica,sans-Serif" font-size="10.00">ResourceAlloc</text>
</a>
</g>
</g>
<!-- Node3&#45;&gt;Node2 -->
<g id="edge2" class="edge">
<title>Node3&#45;&gt;Node2</title>
<path fill="none" stroke="midnightblue" d="M79.41,-100.17C79.41,-91.09 79.41,-80.59 79.41,-73.55"/>
<polygon fill="midnightblue" stroke="midnightblue" points="75.91,-100.22 79.41,-110.22 82.91,-100.22 75.91,-100.22"/>
</g>
</g>
</svg>
