<?xml version="1.0" encoding="UTF-8" standalone="no"?>
<!DOCTYPE svg PUBLIC "-//W3C//DTD SVG 1.1//EN"
 "http://www.w3.org/Graphics/SVG/1.1/DTD/svg11.dtd">
<!-- Generated by graphviz version 2.43.0 (0)
 -->
<!-- Title: Ogre::TextureGpuListener Pages: 1 -->
<svg width="555pt" height="433pt"
 viewBox="0.00 0.00 554.89 433.00" xmlns="http://www.w3.org/2000/svg" xmlns:xlink="http://www.w3.org/1999/xlink">
<g id="graph0" class="graph" transform="scale(1 1) rotate(0) translate(4 429)">
<title>Ogre::TextureGpuListener</title>
<!-- Node1 -->
<g id="node1" class="node">
<title>Node1</title>
<g id="a_node1"><a xlink:title=" ">
<polygon fill="#bfbfbf" stroke="black" points="0,-174.5 0,-192.5 131.06,-192.5 131.06,-174.5 0,-174.5"/>
<text text-anchor="middle" x="65.53" y="-180.5" font-family="Helvetica,sans-Serif" font-size="10.00">Ogre::TextureGpuListener</text>
</a>
</g>
</g>
<!-- Node2 -->
<g id="node2" class="node">
<title>Node2</title>
<g id="a_node2"><a xlink:href="class_ogre_1_1_async_texture_ticket.html" target="_top" xlink:title="In Ogre 2.2 reading data from GPU back to CPU is asynchronous.">
<polygon fill="none" stroke="black" points="187.26,-343.5 187.26,-361.5 317.38,-361.5 317.38,-343.5 187.26,-343.5"/>
<text text-anchor="middle" x="252.32" y="-349.5" font-family="Helvetica,sans-Serif" font-size="10.00">Ogre::AsyncTextureTicket</text>
</a>
</g>
</g>
<!-- Node1&#45;&gt;Node2 -->
<g id="edge1" class="edge">
<title>Node1&#45;&gt;Node2</title>
<path fill="none" stroke="midnightblue" d="M73.53,-202.41C86.6,-234.91 117.91,-301.1 167.06,-334.5 173.12,-338.62 179.95,-341.82 187.03,-344.31"/>
<polygon fill="midnightblue" stroke="midnightblue" points="76.68,-200.83 69.8,-192.77 70.15,-203.36 76.68,-200.83"/>
</g>
<!-- Node7 -->
<g id="node7" class="node">
<title>Node7</title>
<g id="a_node7"><a xlink:href="class_ogre_1_1_compositor_pass_uav.html" target="_top" xlink:title="Implementation of CompositorPass This implementation will set UAVs.">
<polygon fill="none" stroke="black" points="184.86,-306.5 184.86,-324.5 319.79,-324.5 319.79,-306.5 184.86,-306.5"/>
<text text-anchor="middle" x="252.32" y="-312.5" font-family="Helvetica,sans-Serif" font-size="10.00">Ogre::CompositorPassUav</text>
</a>
</g>
</g>
<!-- Node1&#45;&gt;Node7 -->
<g id="edge6" class="edge">
<title>Node1&#45;&gt;Node7</title>
<path fill="none" stroke="midnightblue" d="M77.01,-201.33C93.01,-226.9 126.06,-273.52 167.06,-297.5 173.39,-301.2 180.38,-304.14 187.55,-306.49"/>
<polygon fill="midnightblue" stroke="midnightblue" points="79.92,-199.38 71.73,-192.66 73.94,-203.02 79.92,-199.38"/>
</g>
<!-- Node8 -->
<g id="node8" class="node">
<title>Node8</title>
<g id="a_node8"><a xlink:href="class_ogre_1_1_decal.html" target="_top" xlink:title=" ">
<polygon fill="none" stroke="black" points="217.64,-269.5 217.64,-287.5 287,-287.5 287,-269.5 217.64,-269.5"/>
<text text-anchor="middle" x="252.32" y="-275.5" font-family="Helvetica,sans-Serif" font-size="10.00">Ogre::Decal</text>
</a>
</g>
</g>
<!-- Node1&#45;&gt;Node8 -->
<g id="edge7" class="edge">
<title>Node1&#45;&gt;Node8</title>
<path fill="none" stroke="midnightblue" d="M82.95,-199.85C101.68,-217.54 134.02,-245.26 167.06,-260.5 182.82,-267.77 201.6,-272.14 217.42,-274.76"/>
<polygon fill="midnightblue" stroke="midnightblue" points="85.19,-197.15 75.57,-192.73 80.33,-202.19 85.19,-197.15"/>
</g>
<!-- Node9 -->
<g id="node9" class="node">
<title>Node9</title>
<g id="a_node9"><a xlink:href="class_ogre_1_1_hlms_compute_job.html" target="_top" xlink:title=" ">
<polygon fill="none" stroke="black" points="190.69,-232.5 190.69,-250.5 313.95,-250.5 313.95,-232.5 190.69,-232.5"/>
<text text-anchor="middle" x="252.32" y="-238.5" font-family="Helvetica,sans-Serif" font-size="10.00">Ogre::HlmsComputeJob</text>
</a>
</g>
</g>
<!-- Node1&#45;&gt;Node9 -->
<g id="edge8" class="edge">
<title>Node1&#45;&gt;Node9</title>
<path fill="none" stroke="midnightblue" d="M95.97,-196.73C115.76,-205.25 142.61,-216.08 167.06,-223.5 178.22,-226.89 190.41,-229.88 201.95,-232.41"/>
<polygon fill="midnightblue" stroke="midnightblue" points="97.15,-193.43 86.58,-192.64 94.35,-199.85 97.15,-193.43"/>
</g>
<!-- Node10 -->
<g id="node10" class="node">
<title>Node10</title>
<g id="a_node10"><a xlink:href="class_ogre_1_1_light.html" target="_top" xlink:title="Representation of a dynamic light source in the scene.">
<polygon fill="none" stroke="black" points="219.59,-195.5 219.59,-213.5 285.06,-213.5 285.06,-195.5 219.59,-195.5"/>
<text text-anchor="middle" x="252.32" y="-201.5" font-family="Helvetica,sans-Serif" font-size="10.00">Ogre::Light</text>
</a>
</g>
</g>
<!-- Node1&#45;&gt;Node10 -->
<g id="edge9" class="edge">
<title>Node1&#45;&gt;Node10</title>
<path fill="none" stroke="midnightblue" d="M141.46,-192.01C168.64,-195.1 197.92,-198.43 219.41,-200.87"/>
<polygon fill="midnightblue" stroke="midnightblue" points="141.49,-188.5 131.16,-190.84 140.7,-195.45 141.49,-188.5"/>
</g>
<!-- Node12 -->
<g id="node12" class="node">
<title>Node12</title>
<g id="a_node12"><a xlink:href="class_ogre_1_1_o_g_r_e___h_l_m_s___t_e_x_t_u_r_e___b_a_s_e___c_l_a_s_s.html" target="_top" xlink:title="This is not a regular header, therefore it has no include guards.">
<polygon fill="none" stroke="black" points="172.92,-148.5 172.92,-176.5 331.73,-176.5 331.73,-148.5 172.92,-148.5"/>
<text text-anchor="start" x="180.92" y="-164.5" font-family="Helvetica,sans-Serif" font-size="10.00">Ogre::OGRE_HLMS_TEXTURE</text>
<text text-anchor="middle" x="252.32" y="-154.5" font-family="Helvetica,sans-Serif" font-size="10.00">_BASE_CLASS</text>
</a>
</g>
</g>
<!-- Node1&#45;&gt;Node12 -->
<g id="edge11" class="edge">
<title>Node1&#45;&gt;Node12</title>
<path fill="none" stroke="midnightblue" d="M141.37,-174.99C151.7,-173.82 162.34,-172.61 172.74,-171.43"/>
<polygon fill="midnightblue" stroke="midnightblue" points="140.7,-171.55 131.16,-176.16 141.49,-178.5 140.7,-171.55"/>
</g>
<!-- Node13 -->
<g id="node13" class="node">
<title>Node13</title>
<g id="a_node13"><a xlink:href="class_ogre_1_1_texture_gpu_manager.html" target="_top" xlink:title=" ">
<polygon fill="none" stroke="black" points="184.85,-111.5 184.85,-129.5 319.8,-129.5 319.8,-111.5 184.85,-111.5"/>
<text text-anchor="middle" x="252.32" y="-117.5" font-family="Helvetica,sans-Serif" font-size="10.00">Ogre::TextureGpuManager</text>
</a>
</g>
</g>
<!-- Node1&#45;&gt;Node13 -->
<g id="edge12" class="edge">
<title>Node1&#45;&gt;Node13</title>
<path fill="none" stroke="midnightblue" d="M93.37,-170.07C113.32,-160.52 141.39,-147.93 167.06,-139.5 178.74,-135.66 191.59,-132.34 203.65,-129.59"/>
<polygon fill="midnightblue" stroke="midnightblue" points="91.75,-166.97 84.28,-174.49 94.81,-173.27 91.75,-166.97"/>
</g>
<!-- Node18 -->
<g id="node18" class="node">
<title>Node18</title>
<g id="a_node18"><a xlink:href="class_ogre_1_1_texture_gpu_manager_listener.html" target="_top" xlink:title=" ">
<polygon fill="none" stroke="black" points="167.06,-74.5 167.06,-92.5 337.58,-92.5 337.58,-74.5 167.06,-74.5"/>
<text text-anchor="middle" x="252.32" y="-80.5" font-family="Helvetica,sans-Serif" font-size="10.00">Ogre::TextureGpuManagerListener</text>
</a>
</g>
</g>
<!-- Node1&#45;&gt;Node18 -->
<g id="edge17" class="edge">
<title>Node1&#45;&gt;Node18</title>
<path fill="none" stroke="midnightblue" d="M81.98,-167.17C100.45,-148.64 133.15,-118.88 167.06,-102.5 175.57,-98.39 184.99,-95.15 194.36,-92.61"/>
<polygon fill="midnightblue" stroke="midnightblue" points="79.45,-164.75 74.97,-174.35 84.46,-169.64 79.45,-164.75"/>
</g>
<!-- Node20 -->
<g id="node20" class="node">
<title>Node20</title>
<g id="a_node20"><a xlink:href="class_ogre_1_1_texture_unit_state.html" target="_top" xlink:title="Class representing the state of a single texture unit during a Pass of a Technique,...">
<polygon fill="none" stroke="black" points="193.46,-37.5 193.46,-55.5 311.18,-55.5 311.18,-37.5 193.46,-37.5"/>
<text text-anchor="middle" x="252.32" y="-43.5" font-family="Helvetica,sans-Serif" font-size="10.00">Ogre::TextureUnitState</text>
</a>
</g>
</g>
<!-- Node1&#45;&gt;Node20 -->
<g id="edge19" class="edge">
<title>Node1&#45;&gt;Node20</title>
<path fill="none" stroke="midnightblue" d="M76.65,-165.49C92.41,-139.19 125.39,-90.67 167.06,-65.5 175.02,-60.69 184.06,-57.1 193.2,-54.41"/>
<polygon fill="midnightblue" stroke="midnightblue" points="73.48,-163.98 71.47,-174.39 79.53,-167.51 73.48,-163.98"/>
</g>
<!-- Node21 -->
<g id="node21" class="node">
<title>Node21</title>
<g id="a_node21"><a xlink:href="class_ogre_1_1_vct_lighting.html" target="_top" xlink:title=" ">
<polygon fill="none" stroke="black" points="205.69,-0.5 205.69,-18.5 298.95,-18.5 298.95,-0.5 205.69,-0.5"/>
<text text-anchor="middle" x="252.32" y="-6.5" font-family="Helvetica,sans-Serif" font-size="10.00">Ogre::VctLighting</text>
</a>
</g>
</g>
<!-- Node1&#45;&gt;Node21 -->
<g id="edge20" class="edge">
<title>Node1&#45;&gt;Node21</title>
<path fill="none" stroke="midnightblue" d="M73.01,-164.88C85.58,-131.66 116.58,-62.36 167.06,-27.5 178.26,-19.76 192.14,-15.25 205.39,-12.65"/>
<polygon fill="midnightblue" stroke="midnightblue" points="69.71,-163.72 69.57,-174.32 76.28,-166.12 69.71,-163.72"/>
</g>
<!-- Node3 -->
<g id="node3" class="node">
<title>Node3</title>
<g id="a_node3"><a xlink:href="class_ogre_1_1_d3_d11_async_texture_ticket.html" target="_top" xlink:title="See AsyncTextureTicket.">
<polygon fill="none" stroke="black" points="379.98,-406.5 379.98,-424.5 540.49,-424.5 540.49,-406.5 379.98,-406.5"/>
<text text-anchor="middle" x="460.24" y="-412.5" font-family="Helvetica,sans-Serif" font-size="10.00">Ogre::D3D11AsyncTextureTicket</text>
</a>
</g>
</g>
<!-- Node2&#45;&gt;Node3 -->
<g id="edge2" class="edge">
<title>Node2&#45;&gt;Node3</title>
<path fill="none" stroke="midnightblue" d="M284.03,-365.46C308.07,-375.24 342.54,-388.49 373.58,-397.5 385.26,-400.89 398,-403.92 410,-406.48"/>
<polygon fill="midnightblue" stroke="midnightblue" points="285.3,-362.19 274.72,-361.63 282.63,-368.67 285.3,-362.19"/>
</g>
<!-- Node4 -->
<g id="node4" class="node">
<title>Node4</title>
<g id="a_node4"><a xlink:href="class_ogre_1_1_g_l3_plus_async_texture_ticket.html" target="_top" xlink:title="See AsyncTextureTicket.">
<polygon fill="none" stroke="black" points="389.15,-359.5 389.15,-387.5 531.32,-387.5 531.32,-359.5 389.15,-359.5"/>
<text text-anchor="start" x="397.15" y="-375.5" font-family="Helvetica,sans-Serif" font-size="10.00">Ogre::GL3PlusAsyncTexture</text>
<text text-anchor="middle" x="460.24" y="-365.5" font-family="Helvetica,sans-Serif" font-size="10.00">Ticket</text>
</a>
</g>
</g>
<!-- Node2&#45;&gt;Node4 -->
<g id="edge3" class="edge">
<title>Node2&#45;&gt;Node4</title>
<path fill="none" stroke="midnightblue" d="M327.62,-360.08C347.63,-362.12 369.2,-364.32 388.98,-366.34"/>
<polygon fill="midnightblue" stroke="midnightblue" points="327.93,-356.59 317.63,-359.06 327.22,-363.55 327.93,-356.59"/>
</g>
<!-- Node5 -->
<g id="node5" class="node">
<title>Node5</title>
<g id="a_node5"><a xlink:href="class_ogre_1_1_metal_async_texture_ticket.html" target="_top" xlink:title="See AsyncTextureTicket.">
<polygon fill="none" stroke="black" points="382.95,-322.5 382.95,-340.5 537.52,-340.5 537.52,-322.5 382.95,-322.5"/>
<text text-anchor="middle" x="460.24" y="-328.5" font-family="Helvetica,sans-Serif" font-size="10.00">Ogre::MetalAsyncTextureTicket</text>
</a>
</g>
</g>
<!-- Node2&#45;&gt;Node5 -->
<g id="edge4" class="edge">
<title>Node2&#45;&gt;Node5</title>
<path fill="none" stroke="midnightblue" d="M327.72,-344.91C345.63,-343.09 364.79,-341.13 382.79,-339.3"/>
<polygon fill="midnightblue" stroke="midnightblue" points="327.22,-341.45 317.63,-345.94 327.93,-348.41 327.22,-341.45"/>
</g>
<!-- Node6 -->
<g id="node6" class="node">
<title>Node6</title>
<g id="a_node6"><a xlink:href="class_ogre_1_1_n_u_l_l_async_texture_ticket.html" target="_top" xlink:title="See AsyncTextureTicket.">
<polygon fill="none" stroke="black" points="382.4,-285.5 382.4,-303.5 538.08,-303.5 538.08,-285.5 382.4,-285.5"/>
<text text-anchor="middle" x="460.24" y="-291.5" font-family="Helvetica,sans-Serif" font-size="10.00">Ogre::NULLAsyncTextureTicket</text>
</a>
</g>
</g>
<!-- Node2&#45;&gt;Node6 -->
<g id="edge5" class="edge">
<title>Node2&#45;&gt;Node6</title>
<path fill="none" stroke="midnightblue" d="M317.89,-340.93C324.63,-339.06 331.3,-336.93 337.58,-334.5 354.86,-327.81 356.34,-320.25 373.58,-313.5 383.94,-309.45 395.35,-306.16 406.38,-303.53"/>
<polygon fill="midnightblue" stroke="midnightblue" points="316.82,-337.59 308.01,-343.47 318.56,-344.37 316.82,-337.59"/>
</g>
<!-- Node11 -->
<g id="node11" class="node">
<title>Node11</title>
<g id="a_node11"><a xlink:href="class_ogre_1_1_p_c_z_light.html" target="_top" xlink:title="Specialized version of Ogre::Light which caches which zones the light affects.">
<polygon fill="none" stroke="black" points="417.5,-209.5 417.5,-227.5 502.97,-227.5 502.97,-209.5 417.5,-209.5"/>
<text text-anchor="middle" x="460.24" y="-215.5" font-family="Helvetica,sans-Serif" font-size="10.00">Ogre::PCZLight</text>
</a>
</g>
</g>
<!-- Node10&#45;&gt;Node11 -->
<g id="edge10" class="edge">
<title>Node10&#45;&gt;Node11</title>
<path fill="none" stroke="midnightblue" d="M295.57,-207.37C331.16,-209.79 381.82,-213.24 417.32,-215.65"/>
<polygon fill="midnightblue" stroke="midnightblue" points="295.71,-203.87 285.5,-206.69 295.24,-210.86 295.71,-203.87"/>
</g>
<!-- Node14 -->
<g id="node14" class="node">
<title>Node14</title>
<g id="a_node14"><a xlink:href="class_ogre_1_1_d3_d11_texture_gpu_manager.html" target="_top" xlink:title=" ">
<polygon fill="none" stroke="black" points="377.57,-172.5 377.57,-190.5 542.91,-190.5 542.91,-172.5 377.57,-172.5"/>
<text text-anchor="middle" x="460.24" y="-178.5" font-family="Helvetica,sans-Serif" font-size="10.00">Ogre::D3D11TextureGpuManager</text>
</a>
</g>
</g>
<!-- Node13&#45;&gt;Node14 -->
<g id="edge13" class="edge">
<title>Node13&#45;&gt;Node14</title>
<path fill="none" stroke="midnightblue" d="M316.96,-132.2C324.04,-134.28 331.05,-136.7 337.58,-139.5 355.26,-147.07 355.86,-156.05 373.58,-163.5 382.27,-167.15 391.77,-170.08 401.19,-172.44"/>
<polygon fill="midnightblue" stroke="midnightblue" points="317.86,-128.82 307.3,-129.58 316.03,-135.58 317.86,-128.82"/>
</g>
<!-- Node15 -->
<g id="node15" class="node">
<title>Node15</title>
<g id="a_node15"><a xlink:href="class_ogre_1_1_g_l3_plus_texture_gpu_manager.html" target="_top" xlink:title=" ">
<polygon fill="none" stroke="black" points="373.58,-135.5 373.58,-153.5 546.89,-153.5 546.89,-135.5 373.58,-135.5"/>
<text text-anchor="middle" x="460.24" y="-141.5" font-family="Helvetica,sans-Serif" font-size="10.00">Ogre::GL3PlusTextureGpuManager</text>
</a>
</g>
</g>
<!-- Node13&#45;&gt;Node15 -->
<g id="edge14" class="edge">
<title>Node13&#45;&gt;Node15</title>
<path fill="none" stroke="midnightblue" d="M330.23,-129.46C347.08,-131.43 364.92,-133.51 381.79,-135.47"/>
<polygon fill="midnightblue" stroke="midnightblue" points="330.23,-125.94 319.89,-128.26 329.42,-132.89 330.23,-125.94"/>
</g>
<!-- Node16 -->
<g id="node16" class="node">
<title>Node16</title>
<g id="a_node16"><a xlink:href="class_ogre_1_1_metal_texture_gpu_manager.html" target="_top" xlink:title=" ">
<polygon fill="none" stroke="black" points="380.54,-98.5 380.54,-116.5 539.94,-116.5 539.94,-98.5 380.54,-98.5"/>
<text text-anchor="middle" x="460.24" y="-104.5" font-family="Helvetica,sans-Serif" font-size="10.00">Ogre::MetalTextureGpuManager</text>
</a>
</g>
</g>
<!-- Node13&#45;&gt;Node16 -->
<g id="edge15" class="edge">
<title>Node13&#45;&gt;Node16</title>
<path fill="none" stroke="midnightblue" d="M329.99,-115.66C346.42,-114.62 363.81,-113.52 380.33,-112.48"/>
<polygon fill="midnightblue" stroke="midnightblue" points="329.65,-112.17 319.89,-116.3 330.09,-119.16 329.65,-112.17"/>
</g>
<!-- Node17 -->
<g id="node17" class="node">
<title>Node17</title>
<g id="a_node17"><a xlink:href="class_ogre_1_1_n_u_l_l_texture_gpu_manager.html" target="_top" xlink:title=" ">
<polygon fill="none" stroke="black" points="380.35,-61.5 380.35,-79.5 540.13,-79.5 540.13,-61.5 380.35,-61.5"/>
<text text-anchor="middle" x="460.24" y="-67.5" font-family="Helvetica,sans-Serif" font-size="10.00">Ogre::NULLTextureGpuManager</text>
</a>
</g>
</g>
<!-- Node13&#45;&gt;Node17 -->
<g id="edge16" class="edge">
<title>Node13&#45;&gt;Node17</title>
<path fill="none" stroke="midnightblue" d="M311.21,-109.22C320.09,-107.18 329.12,-104.92 337.58,-102.5 353.94,-97.82 357.25,-94.24 373.58,-89.5 386.31,-85.81 400.28,-82.43 413.18,-79.58"/>
<polygon fill="midnightblue" stroke="midnightblue" points="310.28,-105.84 301.28,-111.44 311.81,-112.68 310.28,-105.84"/>
</g>
<!-- Node19 -->
<g id="node19" class="node">
<title>Node19</title>
<g id="a_node19"><a xlink:href="class_ogre_1_1_default_texture_gpu_manager_listener.html" target="_top" xlink:title="This is a Default implementation of TextureGpuManagerListener based on heuristics.">
<polygon fill="none" stroke="black" points="376.92,-14.5 376.92,-42.5 543.55,-42.5 543.55,-14.5 376.92,-14.5"/>
<text text-anchor="start" x="384.92" y="-30.5" font-family="Helvetica,sans-Serif" font-size="10.00">Ogre::DefaultTextureGpuManager</text>
<text text-anchor="middle" x="460.24" y="-20.5" font-family="Helvetica,sans-Serif" font-size="10.00">Listener</text>
</a>
</g>
</g>
<!-- Node18&#45;&gt;Node19 -->
<g id="edge18" class="edge">
<title>Node18&#45;&gt;Node19</title>
<path fill="none" stroke="midnightblue" d="M311.21,-72.22C320.09,-70.18 329.12,-67.92 337.58,-65.5 353.94,-60.82 357.38,-57.69 373.58,-52.5 384.17,-49.11 395.58,-45.73 406.51,-42.62"/>
<polygon fill="midnightblue" stroke="midnightblue" points="310.28,-68.84 301.28,-74.44 311.81,-75.68 310.28,-68.84"/>
</g>
</g>
</svg>
