<?xml version="1.0" encoding="UTF-8" standalone="no"?>
<!DOCTYPE svg PUBLIC "-//W3C//DTD SVG 1.1//EN"
 "http://www.w3.org/Graphics/SVG/1.1/DTD/svg11.dtd">
<!-- Generated by graphviz version 2.43.0 (0)
 -->
<!-- Title: Ogre::Font Pages: 1 -->
<svg width="216pt" height="137pt"
 viewBox="0.00 0.00 215.65 137.00" xmlns="http://www.w3.org/2000/svg" xmlns:xlink="http://www.w3.org/1999/xlink">
<g id="graph0" class="graph" transform="scale(1 1) rotate(0) translate(4 133)">
<title>Ogre::Font</title>
<!-- Node1 -->
<g id="node1" class="node">
<title>Node1</title>
<g id="a_node1"><a xlink:title="Class representing a font in the system.">
<polygon fill="#bfbfbf" stroke="black" points="78.51,-0.5 78.51,-18.5 142.31,-18.5 142.31,-0.5 78.51,-0.5"/>
<text text-anchor="middle" x="110.41" y="-6.5" font-family="Helvetica,sans-Serif" font-size="10.00">Ogre::Font</text>
</a>
</g>
</g>
<!-- Node2 -->
<g id="node2" class="node">
<title>Node2</title>
<g id="a_node2"><a xlink:href="class_ogre_1_1_resource.html" target="_top" xlink:title="Abstract class representing a loadable resource (e.g.">
<polygon fill="none" stroke="black" points="67.12,-55.5 67.12,-73.5 153.7,-73.5 153.7,-55.5 67.12,-55.5"/>
<text text-anchor="middle" x="110.41" y="-61.5" font-family="Helvetica,sans-Serif" font-size="10.00">Ogre::Resource</text>
</a>
</g>
</g>
<!-- Node2&#45;&gt;Node1 -->
<g id="edge1" class="edge">
<title>Node2&#45;&gt;Node1</title>
<path fill="none" stroke="midnightblue" d="M110.41,-45.17C110.41,-36.09 110.41,-25.59 110.41,-18.55"/>
<polygon fill="midnightblue" stroke="midnightblue" points="106.91,-45.22 110.41,-55.22 113.91,-45.22 106.91,-45.22"/>
</g>
<!-- Node3 -->
<g id="node3" class="node">
<title>Node3</title>
<g id="a_node3"><a xlink:href="class_ogre_1_1_string_interface.html" target="_top" xlink:title="Class defining the common interface which classes can use to present a reflection&#45;style,...">
<polygon fill="none" stroke="black" points="0,-110.5 0,-128.5 108.82,-128.5 108.82,-110.5 0,-110.5"/>
<text text-anchor="middle" x="54.41" y="-116.5" font-family="Helvetica,sans-Serif" font-size="10.00">Ogre::StringInterface</text>
</a>
</g>
</g>
<!-- Node3&#45;&gt;Node2 -->
<g id="edge2" class="edge">
<title>Node3&#45;&gt;Node2</title>
<path fill="none" stroke="midnightblue" d="M70.67,-103.11C80.89,-93.44 93.64,-81.37 101.91,-73.55"/>
<polygon fill="midnightblue" stroke="midnightblue" points="68.02,-100.8 63.16,-110.22 72.83,-105.89 68.02,-100.8"/>
</g>
<!-- Node4 -->
<g id="node4" class="node">
<title>Node4</title>
<g id="a_node4"><a xlink:href="class_ogre_1_1_allocated_object.html" target="_top" xlink:title="Superclass for all objects that wish to use custom memory allocators when their new / delete operator...">
<polygon fill="none" stroke="black" points="127.17,-110.5 127.17,-128.5 207.65,-128.5 207.65,-110.5 127.17,-110.5"/>
<text text-anchor="middle" x="167.41" y="-116.5" font-family="Helvetica,sans-Serif" font-size="10.00">ResourceAlloc</text>
</a>
</g>
</g>
<!-- Node4&#45;&gt;Node2 -->
<g id="edge3" class="edge">
<title>Node4&#45;&gt;Node2</title>
<path fill="none" stroke="midnightblue" d="M151.17,-103.4C140.72,-93.68 127.56,-81.45 119.07,-73.55"/>
<polygon fill="midnightblue" stroke="midnightblue" points="148.8,-105.97 158.5,-110.22 153.56,-100.85 148.8,-105.97"/>
</g>
</g>
</svg>
