<?xml version="1.0" encoding="UTF-8" standalone="no"?>
<!DOCTYPE svg PUBLIC "-//W3C//DTD SVG 1.1//EN"
 "http://www.w3.org/Graphics/SVG/1.1/DTD/svg11.dtd">
<!-- Generated by graphviz version 2.43.0 (0)
 -->
<!-- Title: Ogre::Volume::CSGIntersectionSource Pages: 1 -->
<svg width="164pt" height="157pt"
 viewBox="0.00 0.00 164.07 157.00" xmlns="http://www.w3.org/2000/svg" xmlns:xlink="http://www.w3.org/1999/xlink">
<g id="graph0" class="graph" transform="scale(1 1) rotate(0) translate(4 153)">
<title>Ogre::Volume::CSGIntersectionSource</title>
<!-- Node1 -->
<g id="node1" class="node">
<title>Node1</title>
<g id="a_node1"><a xlink:title="Builds the intersection between two sources.">
<polygon fill="#bfbfbf" stroke="black" points="0,-0.5 0,-28.5 156.07,-28.5 156.07,-0.5 0,-0.5"/>
<text text-anchor="start" x="8" y="-16.5" font-family="Helvetica,sans-Serif" font-size="10.00">Ogre::Volume::CSGIntersection</text>
<text text-anchor="middle" x="78.03" y="-6.5" font-family="Helvetica,sans-Serif" font-size="10.00">Source</text>
</a>
</g>
</g>
<!-- Node2 -->
<g id="node2" class="node">
<title>Node2</title>
<g id="a_node2"><a xlink:href="class_ogre_1_1_volume_1_1_c_s_g_operation_source.html" target="_top" xlink:title="Abstract operation volume source holding two sources as operants.">
<polygon fill="none" stroke="black" points="3.89,-65.5 3.89,-93.5 152.18,-93.5 152.18,-65.5 3.89,-65.5"/>
<text text-anchor="start" x="11.89" y="-81.5" font-family="Helvetica,sans-Serif" font-size="10.00">Ogre::Volume::CSGOperation</text>
<text text-anchor="middle" x="78.03" y="-71.5" font-family="Helvetica,sans-Serif" font-size="10.00">Source</text>
</a>
</g>
</g>
<!-- Node2&#45;&gt;Node1 -->
<g id="edge1" class="edge">
<title>Node2&#45;&gt;Node1</title>
<path fill="none" stroke="midnightblue" d="M78.03,-55.16C78.03,-46.17 78.03,-36.22 78.03,-28.54"/>
<polygon fill="midnightblue" stroke="midnightblue" points="74.53,-55.45 78.03,-65.45 81.53,-55.45 74.53,-55.45"/>
</g>
<!-- Node3 -->
<g id="node3" class="node">
<title>Node3</title>
<g id="a_node3"><a xlink:href="class_ogre_1_1_volume_1_1_source.html" target="_top" xlink:title="Abstract class defining the density function.">
<polygon fill="none" stroke="black" points="20.84,-130.5 20.84,-148.5 135.23,-148.5 135.23,-130.5 20.84,-130.5"/>
<text text-anchor="middle" x="78.03" y="-136.5" font-family="Helvetica,sans-Serif" font-size="10.00">Ogre::Volume::Source</text>
</a>
</g>
</g>
<!-- Node3&#45;&gt;Node2 -->
<g id="edge2" class="edge">
<title>Node3&#45;&gt;Node2</title>
<path fill="none" stroke="midnightblue" d="M78.03,-120.32C78.03,-111.75 78.03,-101.7 78.03,-93.84"/>
<polygon fill="midnightblue" stroke="midnightblue" points="74.53,-120.44 78.03,-130.44 81.53,-120.44 74.53,-120.44"/>
</g>
</g>
</svg>
