<?xml version="1.0" encoding="UTF-8" standalone="no"?>
<!DOCTYPE svg PUBLIC "-//W3C//DTD SVG 1.1//EN"
 "http://www.w3.org/Graphics/SVG/1.1/DTD/svg11.dtd">
<!-- Generated by graphviz version 2.43.0 (0)
 -->
<!-- Title: Ogre::LightFactory Pages: 1 -->
<svg width="152pt" height="137pt"
 viewBox="0.00 0.00 151.83 137.00" xmlns="http://www.w3.org/2000/svg" xmlns:xlink="http://www.w3.org/1999/xlink">
<g id="graph0" class="graph" transform="scale(1 1) rotate(0) translate(4 133)">
<title>Ogre::LightFactory</title>
<!-- Node1 -->
<g id="node1" class="node">
<title>Node1</title>
<g id="a_node1"><a xlink:title="Factory object for creating Light instances.">
<polygon fill="#bfbfbf" stroke="black" points="22.51,-0.5 22.51,-18.5 121.32,-18.5 121.32,-0.5 22.51,-0.5"/>
<text text-anchor="middle" x="71.91" y="-6.5" font-family="Helvetica,sans-Serif" font-size="10.00">Ogre::LightFactory</text>
</a>
</g>
</g>
<!-- Node2 -->
<g id="node2" class="node">
<title>Node2</title>
<g id="a_node2"><a xlink:href="class_ogre_1_1_movable_object_factory.html" target="_top" xlink:title="Interface definition for a factory class which produces a certain kind of MovableObject,...">
<polygon fill="none" stroke="black" points="0,-55.5 0,-73.5 143.83,-73.5 143.83,-55.5 0,-55.5"/>
<text text-anchor="middle" x="71.91" y="-61.5" font-family="Helvetica,sans-Serif" font-size="10.00">Ogre::MovableObjectFactory</text>
</a>
</g>
</g>
<!-- Node2&#45;&gt;Node1 -->
<g id="edge1" class="edge">
<title>Node2&#45;&gt;Node1</title>
<path fill="none" stroke="midnightblue" d="M71.91,-45.17C71.91,-36.09 71.91,-25.59 71.91,-18.55"/>
<polygon fill="midnightblue" stroke="midnightblue" points="68.41,-45.22 71.91,-55.22 75.41,-45.22 68.41,-45.22"/>
</g>
<!-- Node3 -->
<g id="node3" class="node">
<title>Node3</title>
<g id="a_node3"><a xlink:href="class_ogre_1_1_allocated_object.html" target="_top" xlink:title="Superclass for all objects that wish to use custom memory allocators when their new / delete operator...">
<polygon fill="none" stroke="black" points="34.18,-110.5 34.18,-128.5 109.65,-128.5 109.65,-110.5 34.18,-110.5"/>
<text text-anchor="middle" x="71.91" y="-116.5" font-family="Helvetica,sans-Serif" font-size="10.00">MovableAlloc</text>
</a>
</g>
</g>
<!-- Node3&#45;&gt;Node2 -->
<g id="edge2" class="edge">
<title>Node3&#45;&gt;Node2</title>
<path fill="none" stroke="midnightblue" d="M71.91,-100.17C71.91,-91.09 71.91,-80.59 71.91,-73.55"/>
<polygon fill="midnightblue" stroke="midnightblue" points="68.41,-100.22 71.91,-110.22 75.41,-100.22 68.41,-100.22"/>
</g>
</g>
</svg>
