<?xml version="1.0" encoding="UTF-8" standalone="no"?>
<!DOCTYPE svg PUBLIC "-//W3C//DTD SVG 1.1//EN"
 "http://www.w3.org/Graphics/SVG/1.1/DTD/svg11.dtd">
<!-- Generated by graphviz version 2.43.0 (0)
 -->
<!-- Title: Ogre::CompositorShadowNodeTranslator Pages: 1 -->
<svg width="163pt" height="212pt"
 viewBox="0.00 0.00 162.96 212.00" xmlns="http://www.w3.org/2000/svg" xmlns:xlink="http://www.w3.org/1999/xlink">
<g id="graph0" class="graph" transform="scale(1 1) rotate(0) translate(4 208)">
<title>Ogre::CompositorShadowNodeTranslator</title>
<!-- Node1 -->
<g id="node1" class="node">
<title>Node1</title>
<g id="a_node1"><a xlink:title=" ">
<polygon fill="#bfbfbf" stroke="black" points="0,-0.5 0,-28.5 154.96,-28.5 154.96,-0.5 0,-0.5"/>
<text text-anchor="start" x="8" y="-16.5" font-family="Helvetica,sans-Serif" font-size="10.00">Ogre::CompositorShadowNode</text>
<text text-anchor="middle" x="77.48" y="-6.5" font-family="Helvetica,sans-Serif" font-size="10.00">Translator</text>
</a>
</g>
</g>
<!-- Node2 -->
<g id="node2" class="node">
<title>Node2</title>
<g id="a_node2"><a xlink:href="class_ogre_1_1_compositor_texture_base_translator.html" target="_top" xlink:title=" ">
<polygon fill="none" stroke="black" points="2.23,-65.5 2.23,-93.5 152.73,-93.5 152.73,-65.5 2.23,-65.5"/>
<text text-anchor="start" x="10.23" y="-81.5" font-family="Helvetica,sans-Serif" font-size="10.00">Ogre::CompositorTextureBase</text>
<text text-anchor="middle" x="77.48" y="-71.5" font-family="Helvetica,sans-Serif" font-size="10.00">Translator</text>
</a>
</g>
</g>
<!-- Node2&#45;&gt;Node1 -->
<g id="edge1" class="edge">
<title>Node2&#45;&gt;Node1</title>
<path fill="none" stroke="midnightblue" d="M77.48,-55.16C77.48,-46.17 77.48,-36.22 77.48,-28.54"/>
<polygon fill="midnightblue" stroke="midnightblue" points="73.98,-55.45 77.48,-65.45 80.98,-55.45 73.98,-55.45"/>
</g>
<!-- Node3 -->
<g id="node3" class="node">
<title>Node3</title>
<g id="a_node3"><a xlink:href="class_ogre_1_1_script_translator.html" target="_top" xlink:title="This class translates script AST (abstract syntax tree) into Ogre resources.">
<polygon fill="none" stroke="black" points="20.48,-130.5 20.48,-148.5 134.48,-148.5 134.48,-130.5 20.48,-130.5"/>
<text text-anchor="middle" x="77.48" y="-136.5" font-family="Helvetica,sans-Serif" font-size="10.00">Ogre::ScriptTranslator</text>
</a>
</g>
</g>
<!-- Node3&#45;&gt;Node2 -->
<g id="edge2" class="edge">
<title>Node3&#45;&gt;Node2</title>
<path fill="none" stroke="midnightblue" d="M77.48,-120.32C77.48,-111.75 77.48,-101.7 77.48,-93.84"/>
<polygon fill="midnightblue" stroke="midnightblue" points="73.98,-120.44 77.48,-130.44 80.98,-120.44 73.98,-120.44"/>
</g>
<!-- Node4 -->
<g id="node4" class="node">
<title>Node4</title>
<g id="a_node4"><a xlink:href="class_ogre_1_1_allocated_object.html" target="_top" xlink:title="Superclass for all objects that wish to use custom memory allocators when their new / delete operator...">
<polygon fill="none" stroke="black" points="23.54,-185.5 23.54,-203.5 131.42,-203.5 131.42,-185.5 23.54,-185.5"/>
<text text-anchor="middle" x="77.48" y="-191.5" font-family="Helvetica,sans-Serif" font-size="10.00">ScriptTranslatorAlloc</text>
</a>
</g>
</g>
<!-- Node4&#45;&gt;Node3 -->
<g id="edge3" class="edge">
<title>Node4&#45;&gt;Node3</title>
<path fill="none" stroke="midnightblue" d="M77.48,-175.17C77.48,-166.09 77.48,-155.59 77.48,-148.55"/>
<polygon fill="midnightblue" stroke="midnightblue" points="73.98,-175.22 77.48,-185.22 80.98,-175.22 73.98,-175.22"/>
</g>
</g>
</svg>
