<?xml version="1.0" encoding="UTF-8" standalone="no"?>
<!DOCTYPE svg PUBLIC "-//W3C//DTD SVG 1.1//EN"
 "http://www.w3.org/Graphics/SVG/1.1/DTD/svg11.dtd">
<!-- Generated by graphviz version 2.43.0 (0)
 -->
<!-- Title: Ogre::LodStrategyManager Pages: 1 -->
<svg width="228pt" height="92pt"
 viewBox="0.00 0.00 228.20 92.00" xmlns="http://www.w3.org/2000/svg" xmlns:xlink="http://www.w3.org/1999/xlink">
<g id="graph0" class="graph" transform="scale(1 1) rotate(0) translate(4 88)">
<title>Ogre::LodStrategyManager</title>
<!-- Node1 -->
<g id="node1" class="node">
<title>Node1</title>
<g id="a_node1"><a xlink:title="Manager for LOD strategies.">
<polygon fill="#bfbfbf" stroke="black" points="64.42,-0.5 64.42,-18.5 201.61,-18.5 201.61,-0.5 64.42,-0.5"/>
<text text-anchor="middle" x="133.02" y="-6.5" font-family="Helvetica,sans-Serif" font-size="10.00">Ogre::LodStrategyManager</text>
</a>
</g>
</g>
<!-- Node2 -->
<g id="node2" class="node">
<title>Node2</title>
<g id="a_node2"><a xlink:href="class_ogre_1_1_singleton.html" target="_top" xlink:title=" ">
<polygon fill="none" stroke="black" points="0,-55.5 0,-83.5 148.03,-83.5 148.03,-55.5 0,-55.5"/>
<text text-anchor="start" x="8" y="-71.5" font-family="Helvetica,sans-Serif" font-size="10.00">Ogre::Singleton&lt; LodStrategy</text>
<text text-anchor="middle" x="74.02" y="-61.5" font-family="Helvetica,sans-Serif" font-size="10.00">Manager &gt;</text>
</a>
</g>
</g>
<!-- Node2&#45;&gt;Node1 -->
<g id="edge1" class="edge">
<title>Node2&#45;&gt;Node1</title>
<path fill="none" stroke="midnightblue" d="M94.55,-48.32C104.86,-38.18 116.8,-26.45 124.6,-18.77"/>
<polygon fill="midnightblue" stroke="midnightblue" points="92.08,-45.83 87.4,-55.34 96.99,-50.82 92.08,-45.83"/>
</g>
<!-- Node3 -->
<g id="node3" class="node">
<title>Node3</title>
<g id="a_node3"><a xlink:href="class_ogre_1_1_allocated_object.html" target="_top" xlink:title="Superclass for all objects that wish to use custom memory allocators when their new / delete operator...">
<polygon fill="none" stroke="black" points="165.84,-60.5 165.84,-78.5 220.2,-78.5 220.2,-60.5 165.84,-60.5"/>
<text text-anchor="middle" x="193.02" y="-66.5" font-family="Helvetica,sans-Serif" font-size="10.00">LodAlloc</text>
</a>
</g>
</g>
<!-- Node3&#45;&gt;Node1 -->
<g id="edge2" class="edge">
<title>Node3&#45;&gt;Node1</title>
<path fill="none" stroke="midnightblue" d="M177.48,-53.48C166.08,-42.46 151.02,-27.9 141.68,-18.87"/>
<polygon fill="midnightblue" stroke="midnightblue" points="175.05,-56 184.67,-60.44 179.92,-50.97 175.05,-56"/>
</g>
</g>
</svg>
