<?xml version="1.0" encoding="UTF-8" standalone="no"?>
<!DOCTYPE svg PUBLIC "-//W3C//DTD SVG 1.1//EN"
 "http://www.w3.org/Graphics/SVG/1.1/DTD/svg11.dtd">
<!-- Generated by graphviz version 2.43.0 (0)
 -->
<!-- Title: Ogre::DefaultPlaneBoundedVolumeListSceneQuery Pages: 1 -->
<svg width="983pt" height="84pt"
 viewBox="0.00 0.00 983.33 84.00" xmlns="http://www.w3.org/2000/svg" xmlns:xlink="http://www.w3.org/1999/xlink">
<g id="graph0" class="graph" transform="scale(1 1) rotate(0) translate(4 80)">
<title>Ogre::DefaultPlaneBoundedVolumeListSceneQuery</title>
<!-- Node1 -->
<g id="node1" class="node">
<title>Node1</title>
<g id="a_node1"><a xlink:title="Default implementation of PlaneBoundedVolumeListSceneQuery.">
<polygon fill="#bfbfbf" stroke="black" points="635.48,-23.5 635.48,-51.5 776.56,-51.5 776.56,-23.5 635.48,-23.5"/>
<text text-anchor="start" x="643.48" y="-39.5" font-family="Helvetica,sans-Serif" font-size="10.00">Ogre::DefaultPlaneBounded</text>
<text text-anchor="middle" x="706.02" y="-29.5" font-family="Helvetica,sans-Serif" font-size="10.00">VolumeListSceneQuery</text>
</a>
</g>
</g>
<!-- Node7 -->
<g id="node7" class="node">
<title>Node7</title>
<g id="a_node7"><a xlink:href="class_ogre_1_1_octree_plane_bounded_volume_list_scene_query.html" target="_top" xlink:title="Octree implementation of PlaneBoundedVolumeListSceneQuery.">
<polygon fill="none" stroke="black" points="824.24,-47.5 824.24,-75.5 963.65,-75.5 963.65,-47.5 824.24,-47.5"/>
<text text-anchor="start" x="832.24" y="-63.5" font-family="Helvetica,sans-Serif" font-size="10.00">Ogre::OctreePlaneBounded</text>
<text text-anchor="middle" x="893.94" y="-53.5" font-family="Helvetica,sans-Serif" font-size="10.00">VolumeListSceneQuery</text>
</a>
</g>
</g>
<!-- Node1&#45;&gt;Node7 -->
<g id="edge6" class="edge">
<title>Node1&#45;&gt;Node7</title>
<path fill="none" stroke="midnightblue" d="M787.04,-47.83C799.35,-49.42 811.98,-51.05 824.03,-52.6"/>
<polygon fill="midnightblue" stroke="midnightblue" points="787.15,-44.31 776.78,-46.5 786.25,-51.26 787.15,-44.31"/>
</g>
<!-- Node8 -->
<g id="node8" class="node">
<title>Node8</title>
<g id="a_node8"><a xlink:href="class_ogre_1_1_p_c_z_plane_bounded_volume_list_scene_query.html" target="_top" xlink:title="PCZ implementation of PlaneBoundedVolumeListSceneQuery.">
<polygon fill="none" stroke="black" points="812.56,-0.5 812.56,-28.5 975.33,-28.5 975.33,-0.5 812.56,-0.5"/>
<text text-anchor="start" x="820.56" y="-16.5" font-family="Helvetica,sans-Serif" font-size="10.00">Ogre::PCZPlaneBoundedVolume</text>
<text text-anchor="middle" x="893.94" y="-6.5" font-family="Helvetica,sans-Serif" font-size="10.00">ListSceneQuery</text>
</a>
</g>
</g>
<!-- Node1&#45;&gt;Node8 -->
<g id="edge7" class="edge">
<title>Node1&#45;&gt;Node8</title>
<path fill="none" stroke="midnightblue" d="M786.71,-27.64C795.24,-26.59 803.93,-25.51 812.47,-24.46"/>
<polygon fill="midnightblue" stroke="midnightblue" points="786.27,-24.17 776.78,-28.87 787.13,-31.12 786.27,-24.17"/>
</g>
<!-- Node2 -->
<g id="node2" class="node">
<title>Node2</title>
<g id="a_node2"><a xlink:href="class_ogre_1_1_plane_bounded_volume_list_scene_query.html" target="_top" xlink:title="Specialises the SceneQuery class for querying within a plane&#45;bounded volume.">
<polygon fill="none" stroke="black" points="456.71,-23.5 456.71,-51.5 599.48,-51.5 599.48,-23.5 456.71,-23.5"/>
<text text-anchor="start" x="464.71" y="-39.5" font-family="Helvetica,sans-Serif" font-size="10.00">Ogre::PlaneBoundedVolume</text>
<text text-anchor="middle" x="528.09" y="-29.5" font-family="Helvetica,sans-Serif" font-size="10.00">ListSceneQuery</text>
</a>
</g>
</g>
<!-- Node2&#45;&gt;Node1 -->
<g id="edge1" class="edge">
<title>Node2&#45;&gt;Node1</title>
<path fill="none" stroke="midnightblue" d="M609.64,-37.5C618.22,-37.5 626.89,-37.5 635.32,-37.5"/>
<polygon fill="midnightblue" stroke="midnightblue" points="609.64,-34 599.64,-37.5 609.64,-41 609.64,-34"/>
</g>
<!-- Node3 -->
<g id="node3" class="node">
<title>Node3</title>
<g id="a_node3"><a xlink:href="class_ogre_1_1_region_scene_query.html" target="_top" xlink:title="Abstract class defining a query which returns single results from a region.">
<polygon fill="none" stroke="black" points="289.65,-28.5 289.65,-46.5 420.71,-46.5 420.71,-28.5 289.65,-28.5"/>
<text text-anchor="middle" x="355.18" y="-34.5" font-family="Helvetica,sans-Serif" font-size="10.00">Ogre::RegionSceneQuery</text>
</a>
</g>
</g>
<!-- Node3&#45;&gt;Node2 -->
<g id="edge2" class="edge">
<title>Node3&#45;&gt;Node2</title>
<path fill="none" stroke="midnightblue" d="M430.8,-37.5C439.39,-37.5 448.14,-37.5 456.68,-37.5"/>
<polygon fill="midnightblue" stroke="midnightblue" points="430.8,-34 420.8,-37.5 430.8,-41 430.8,-34"/>
</g>
<!-- Node4 -->
<g id="node4" class="node">
<title>Node4</title>
<g id="a_node4"><a xlink:href="class_ogre_1_1_scene_query.html" target="_top" xlink:title="A class for performing queries on a scene.">
<polygon fill="none" stroke="black" points="136.49,-47.5 136.49,-65.5 235.86,-65.5 235.86,-47.5 136.49,-47.5"/>
<text text-anchor="middle" x="186.17" y="-53.5" font-family="Helvetica,sans-Serif" font-size="10.00">Ogre::SceneQuery</text>
</a>
</g>
</g>
<!-- Node4&#45;&gt;Node3 -->
<g id="edge3" class="edge">
<title>Node4&#45;&gt;Node3</title>
<path fill="none" stroke="midnightblue" d="M245.98,-49.81C260.07,-48.21 275.18,-46.49 289.52,-44.86"/>
<polygon fill="midnightblue" stroke="midnightblue" points="245.47,-46.35 235.93,-50.95 246.26,-53.3 245.47,-46.35"/>
</g>
<!-- Node5 -->
<g id="node5" class="node">
<title>Node5</title>
<g id="a_node5"><a xlink:href="class_ogre_1_1_allocated_object.html" target="_top" xlink:title="Superclass for all objects that wish to use custom memory allocators when their new / delete operator...">
<polygon fill="none" stroke="black" points="0,-47.5 0,-65.5 82.7,-65.5 82.7,-47.5 0,-47.5"/>
<text text-anchor="middle" x="41.35" y="-53.5" font-family="Helvetica,sans-Serif" font-size="10.00">SceneMgtAlloc</text>
</a>
</g>
</g>
<!-- Node5&#45;&gt;Node4 -->
<g id="edge4" class="edge">
<title>Node5&#45;&gt;Node4</title>
<path fill="none" stroke="midnightblue" d="M92.94,-56.5C107.07,-56.5 122.39,-56.5 136.42,-56.5"/>
<polygon fill="midnightblue" stroke="midnightblue" points="92.9,-53 82.9,-56.5 92.9,-60 92.9,-53"/>
</g>
<!-- Node6 -->
<g id="node6" class="node">
<title>Node6</title>
<g id="a_node6"><a xlink:href="class_ogre_1_1_scene_query_listener.html" target="_top" xlink:title="This optional class allows you to receive per&#45;result callbacks from SceneQuery executions instead of ...">
<polygon fill="none" stroke="black" points="118.7,-10.5 118.7,-28.5 253.65,-28.5 253.65,-10.5 118.7,-10.5"/>
<text text-anchor="middle" x="186.17" y="-16.5" font-family="Helvetica,sans-Serif" font-size="10.00">Ogre::SceneQueryListener</text>
</a>
</g>
</g>
<!-- Node6&#45;&gt;Node3 -->
<g id="edge5" class="edge">
<title>Node6&#45;&gt;Node3</title>
<path fill="none" stroke="midnightblue" d="M263.73,-27.75C272.36,-28.68 281.1,-29.62 289.56,-30.53"/>
<polygon fill="midnightblue" stroke="midnightblue" points="263.98,-24.26 253.66,-26.67 263.23,-31.22 263.98,-24.26"/>
</g>
</g>
</svg>
