<?xml version="1.0" encoding="UTF-8" standalone="no"?>
<!DOCTYPE svg PUBLIC "-//W3C//DTD SVG 1.1//EN"
 "http://www.w3.org/Graphics/SVG/1.1/DTD/svg11.dtd">
<!-- Generated by graphviz version 2.43.0 (0)
 -->
<!-- Title: Ogre::GL3PlusTextureManager Pages: 1 -->
<svg width="320pt" height="202pt"
 viewBox="0.00 0.00 319.60 202.00" xmlns="http://www.w3.org/2000/svg" xmlns:xlink="http://www.w3.org/1999/xlink">
<g id="graph0" class="graph" transform="scale(1 1) rotate(0) translate(4 198)">
<title>Ogre::GL3PlusTextureManager</title>
<!-- Node1 -->
<g id="node1" class="node">
<title>Node1</title>
<g id="a_node1"><a xlink:title="GL3Plus&#45;specific implementation of a TextureManager.">
<polygon fill="#bfbfbf" stroke="black" points="99.04,-0.5 99.04,-18.5 253.45,-18.5 253.45,-0.5 99.04,-0.5"/>
<text text-anchor="middle" x="176.24" y="-6.5" font-family="Helvetica,sans-Serif" font-size="10.00">Ogre::GL3PlusTextureManager</text>
</a>
</g>
</g>
<!-- Node2 -->
<g id="node2" class="node">
<title>Node2</title>
<g id="a_node2"><a xlink:href="class_ogre_1_1_texture_manager.html" target="_top" xlink:title="Class for loading &amp; managing textures.">
<polygon fill="none" stroke="black" points="118.22,-55.5 118.22,-73.5 234.27,-73.5 234.27,-55.5 118.22,-55.5"/>
<text text-anchor="middle" x="176.24" y="-61.5" font-family="Helvetica,sans-Serif" font-size="10.00">Ogre::TextureManager</text>
</a>
</g>
</g>
<!-- Node2&#45;&gt;Node1 -->
<g id="edge1" class="edge">
<title>Node2&#45;&gt;Node1</title>
<path fill="none" stroke="midnightblue" d="M176.24,-45.17C176.24,-36.09 176.24,-25.59 176.24,-18.55"/>
<polygon fill="midnightblue" stroke="midnightblue" points="172.74,-45.22 176.24,-55.22 179.74,-45.22 172.74,-45.22"/>
</g>
<!-- Node3 -->
<g id="node3" class="node">
<title>Node3</title>
<g id="a_node3"><a xlink:href="class_ogre_1_1_resource_manager.html" target="_top" xlink:title="Defines a generic resource handler.">
<polygon fill="none" stroke="black" points="41.22,-115.5 41.22,-133.5 167.27,-133.5 167.27,-115.5 41.22,-115.5"/>
<text text-anchor="middle" x="104.24" y="-121.5" font-family="Helvetica,sans-Serif" font-size="10.00">Ogre::ResourceManager</text>
</a>
</g>
</g>
<!-- Node3&#45;&gt;Node2 -->
<g id="edge2" class="edge">
<title>Node3&#45;&gt;Node2</title>
<path fill="none" stroke="midnightblue" d="M122.1,-109.12C135.87,-98.03 154.43,-83.08 165.85,-73.87"/>
<polygon fill="midnightblue" stroke="midnightblue" points="119.85,-106.44 114.25,-115.44 124.24,-111.89 119.85,-106.44"/>
</g>
<!-- Node4 -->
<g id="node4" class="node">
<title>Node4</title>
<g id="a_node4"><a xlink:href="class_ogre_1_1_script_loader.html" target="_top" xlink:title="Abstract class defining the interface used by classes which wish to perform script loading to define ...">
<polygon fill="none" stroke="black" points="0,-175.5 0,-193.5 100.49,-193.5 100.49,-175.5 0,-175.5"/>
<text text-anchor="middle" x="50.24" y="-181.5" font-family="Helvetica,sans-Serif" font-size="10.00">Ogre::ScriptLoader</text>
</a>
</g>
</g>
<!-- Node4&#45;&gt;Node3 -->
<g id="edge3" class="edge">
<title>Node4&#45;&gt;Node3</title>
<path fill="none" stroke="midnightblue" d="M64.82,-167.84C75,-156.91 88.2,-142.73 96.45,-133.87"/>
<polygon fill="midnightblue" stroke="midnightblue" points="62,-165.73 57.75,-175.44 67.13,-170.5 62,-165.73"/>
</g>
<!-- Node5 -->
<g id="node5" class="node">
<title>Node5</title>
<g id="a_node5"><a xlink:href="class_ogre_1_1_allocated_object.html" target="_top" xlink:title="Superclass for all objects that wish to use custom memory allocators when their new / delete operator...">
<polygon fill="none" stroke="black" points="118.01,-175.5 118.01,-193.5 198.48,-193.5 198.48,-175.5 118.01,-175.5"/>
<text text-anchor="middle" x="158.24" y="-181.5" font-family="Helvetica,sans-Serif" font-size="10.00">ResourceAlloc</text>
</a>
</g>
</g>
<!-- Node5&#45;&gt;Node3 -->
<g id="edge4" class="edge">
<title>Node5&#45;&gt;Node3</title>
<path fill="none" stroke="midnightblue" d="M143.67,-167.84C133.48,-156.91 120.28,-142.73 112.04,-133.87"/>
<polygon fill="midnightblue" stroke="midnightblue" points="141.36,-170.5 150.74,-175.44 146.48,-165.73 141.36,-170.5"/>
</g>
<!-- Node6 -->
<g id="node6" class="node">
<title>Node6</title>
<g id="a_node6"><a xlink:href="class_ogre_1_1_singleton.html" target="_top" xlink:title=" ">
<polygon fill="none" stroke="black" points="184.88,-110.5 184.88,-138.5 311.6,-138.5 311.6,-110.5 184.88,-110.5"/>
<text text-anchor="start" x="192.88" y="-126.5" font-family="Helvetica,sans-Serif" font-size="10.00">Ogre::Singleton&lt; Texture</text>
<text text-anchor="middle" x="248.24" y="-116.5" font-family="Helvetica,sans-Serif" font-size="10.00">Manager &gt;</text>
</a>
</g>
</g>
<!-- Node6&#45;&gt;Node2 -->
<g id="edge5" class="edge">
<title>Node6&#45;&gt;Node2</title>
<path fill="none" stroke="midnightblue" d="M223.92,-103.91C211.17,-93.63 196.22,-81.59 186.51,-73.77"/>
<polygon fill="midnightblue" stroke="midnightblue" points="221.92,-106.79 231.91,-110.34 226.31,-101.34 221.92,-106.79"/>
</g>
</g>
</svg>
