<?xml version="1.0" encoding="UTF-8" standalone="no"?>
<!DOCTYPE svg PUBLIC "-//W3C//DTD SVG 1.1//EN"
 "http://www.w3.org/Graphics/SVG/1.1/DTD/svg11.dtd">
<!-- Generated by graphviz version 2.43.0 (0)
 -->
<!-- Title: Ogre::LodOutputProvider Pages: 1 -->
<svg width="601pt" height="101pt"
 viewBox="0.00 0.00 601.02 101.00" xmlns="http://www.w3.org/2000/svg" xmlns:xlink="http://www.w3.org/1999/xlink">
<g id="graph0" class="graph" transform="scale(1 1) rotate(0) translate(4 97)">
<title>Ogre::LodOutputProvider</title>
<!-- Node1 -->
<g id="node1" class="node">
<title>Node1</title>
<g id="a_node1"><a xlink:title=" ">
<polygon fill="#bfbfbf" stroke="black" points="0,-37.5 0,-55.5 127.73,-55.5 127.73,-37.5 0,-37.5"/>
<text text-anchor="middle" x="63.86" y="-43.5" font-family="Helvetica,sans-Serif" font-size="10.00">Ogre::LodOutputProvider</text>
</a>
</g>
</g>
<!-- Node2 -->
<g id="node2" class="node">
<title>Node2</title>
<g id="a_node2"><a xlink:href="class_ogre_1_1_lod_output_provider_buffer.html" target="_top" xlink:title=" ">
<polygon fill="none" stroke="black" points="191.05,-74.5 191.05,-92.5 345.28,-92.5 345.28,-74.5 191.05,-74.5"/>
<text text-anchor="middle" x="268.16" y="-80.5" font-family="Helvetica,sans-Serif" font-size="10.00">Ogre::LodOutputProviderBuffer</text>
</a>
</g>
</g>
<!-- Node1&#45;&gt;Node2 -->
<g id="edge1" class="edge">
<title>Node1&#45;&gt;Node2</title>
<path fill="none" stroke="midnightblue" d="M121.05,-57.48C134.99,-60.15 149.89,-62.97 163.73,-65.5 180.13,-68.5 198.03,-71.66 214.25,-74.48"/>
<polygon fill="midnightblue" stroke="midnightblue" points="121.59,-54.01 111.11,-55.56 120.26,-60.89 121.59,-54.01"/>
</g>
<!-- Node3 -->
<g id="node3" class="node">
<title>Node3</title>
<g id="a_node3"><a xlink:href="class_ogre_1_1_lod_output_provider_compressed_mesh.html" target="_top" xlink:title=" ">
<polygon fill="none" stroke="black" points="163.73,-37.5 163.73,-55.5 372.6,-55.5 372.6,-37.5 163.73,-37.5"/>
<text text-anchor="middle" x="268.16" y="-43.5" font-family="Helvetica,sans-Serif" font-size="10.00">Ogre::LodOutputProviderCompressedMesh</text>
</a>
</g>
</g>
<!-- Node1&#45;&gt;Node3 -->
<g id="edge2" class="edge">
<title>Node1&#45;&gt;Node3</title>
<path fill="none" stroke="midnightblue" d="M137.79,-46.5C146.14,-46.5 154.77,-46.5 163.43,-46.5"/>
<polygon fill="midnightblue" stroke="midnightblue" points="137.76,-43 127.76,-46.5 137.76,-50 137.76,-43"/>
</g>
<!-- Node5 -->
<g id="node5" class="node">
<title>Node5</title>
<g id="a_node5"><a xlink:href="class_ogre_1_1_lod_output_provider_mesh.html" target="_top" xlink:title=" ">
<polygon fill="none" stroke="black" points="192.07,-0.5 192.07,-18.5 344.25,-18.5 344.25,-0.5 192.07,-0.5"/>
<text text-anchor="middle" x="268.16" y="-6.5" font-family="Helvetica,sans-Serif" font-size="10.00">Ogre::LodOutputProviderMesh</text>
</a>
</g>
</g>
<!-- Node1&#45;&gt;Node5 -->
<g id="edge4" class="edge">
<title>Node1&#45;&gt;Node5</title>
<path fill="none" stroke="midnightblue" d="M123.94,-35.69C153.72,-30.25 189.41,-23.72 217.71,-18.54"/>
<polygon fill="midnightblue" stroke="midnightblue" points="123.3,-32.25 114.09,-37.5 124.56,-39.14 123.3,-32.25"/>
</g>
<!-- Node4 -->
<g id="node4" class="node">
<title>Node4</title>
<g id="a_node4"><a xlink:href="class_ogre_1_1_lod_output_provider_compressed_buffer.html" target="_top" xlink:title=" ">
<polygon fill="none" stroke="black" points="408.6,-32.5 408.6,-60.5 593.02,-60.5 593.02,-32.5 408.6,-32.5"/>
<text text-anchor="start" x="416.6" y="-48.5" font-family="Helvetica,sans-Serif" font-size="10.00">Ogre::LodOutputProviderCompressed</text>
<text text-anchor="middle" x="500.81" y="-38.5" font-family="Helvetica,sans-Serif" font-size="10.00">Buffer</text>
</a>
</g>
</g>
<!-- Node3&#45;&gt;Node4 -->
<g id="edge3" class="edge">
<title>Node3&#45;&gt;Node4</title>
<path fill="none" stroke="midnightblue" d="M382.81,-46.5C391.46,-46.5 400.12,-46.5 408.6,-46.5"/>
<polygon fill="midnightblue" stroke="midnightblue" points="382.68,-43 372.68,-46.5 382.68,-50 382.68,-43"/>
</g>
</g>
</svg>
