<?xml version="1.0" encoding="UTF-8" standalone="no"?>
<!DOCTYPE svg PUBLIC "-//W3C//DTD SVG 1.1//EN"
 "http://www.w3.org/Graphics/SVG/1.1/DTD/svg11.dtd">
<!-- Generated by graphviz version 2.43.0 (0)
 -->
<!-- Title: Ogre::Codec Pages: 1 -->
<svg width="488pt" height="360pt"
 viewBox="0.00 0.00 487.93 360.00" xmlns="http://www.w3.org/2000/svg" xmlns:xlink="http://www.w3.org/1999/xlink">
<g id="graph0" class="graph" transform="scale(1 1) rotate(0) translate(4 356)">
<title>Ogre::Codec</title>
<!-- Node1 -->
<g id="node1" class="node">
<title>Node1</title>
<g id="a_node1"><a xlink:title="Abstract class that defines a &#39;codec&#39;.">
<polygon fill="#bfbfbf" stroke="black" points="102.58,-185.5 102.58,-203.5 175.28,-203.5 175.28,-185.5 102.58,-185.5"/>
<text text-anchor="middle" x="138.93" y="-191.5" font-family="Helvetica,sans-Serif" font-size="10.00">Ogre::Codec</text>
</a>
</g>
</g>
<!-- Node3 -->
<g id="node3" class="node">
<title>Node3</title>
<g id="a_node3"><a xlink:href="class_ogre_1_1_image_codec.html" target="_top" xlink:title="Codec specialized in images.">
<polygon fill="none" stroke="black" points="214.06,-277.5 214.06,-295.5 314.54,-295.5 314.54,-277.5 214.06,-277.5"/>
<text text-anchor="middle" x="264.3" y="-283.5" font-family="Helvetica,sans-Serif" font-size="10.00">Ogre::ImageCodec</text>
</a>
</g>
</g>
<!-- Node1&#45;&gt;Node3 -->
<g id="edge2" class="edge">
<title>Node1&#45;&gt;Node3</title>
<path fill="none" stroke="midnightblue" d="M160.56,-209.88C186.43,-229.18 229.95,-261.63 251.07,-277.38"/>
<polygon fill="midnightblue" stroke="midnightblue" points="162.32,-206.83 152.21,-203.66 158.13,-212.44 162.32,-206.83"/>
</g>
<!-- Node7 -->
<g id="node7" class="node">
<title>Node7</title>
<g id="a_node7"><a xlink:href="class_ogre_1_1_image_codec2.html" target="_top" xlink:title="Codec specialized in images.">
<polygon fill="none" stroke="black" points="211.28,-130.5 211.28,-148.5 317.32,-148.5 317.32,-130.5 211.28,-130.5"/>
<text text-anchor="middle" x="264.3" y="-136.5" font-family="Helvetica,sans-Serif" font-size="10.00">Ogre::ImageCodec2</text>
</a>
</g>
</g>
<!-- Node1&#45;&gt;Node7 -->
<g id="edge6" class="edge">
<title>Node1&#45;&gt;Node7</title>
<path fill="none" stroke="midnightblue" d="M169.47,-181.33C192.16,-171.22 222.88,-157.52 242.9,-148.6"/>
<polygon fill="midnightblue" stroke="midnightblue" points="168.01,-178.15 160.3,-185.42 170.86,-184.54 168.01,-178.15"/>
</g>
<!-- Node2 -->
<g id="node2" class="node">
<title>Node2</title>
<g id="a_node2"><a xlink:href="class_ogre_1_1_allocated_object.html" target="_top" xlink:title="Superclass for all objects that wish to use custom memory allocators when their new / delete operator...">
<polygon fill="none" stroke="black" points="0,-185.5 0,-203.5 66.58,-203.5 66.58,-185.5 0,-185.5"/>
<text text-anchor="middle" x="33.29" y="-191.5" font-family="Helvetica,sans-Serif" font-size="10.00">CodecAlloc</text>
</a>
</g>
</g>
<!-- Node2&#45;&gt;Node1 -->
<g id="edge1" class="edge">
<title>Node2&#45;&gt;Node1</title>
<path fill="none" stroke="midnightblue" d="M76.87,-194.5C85.32,-194.5 94.11,-194.5 102.3,-194.5"/>
<polygon fill="midnightblue" stroke="midnightblue" points="76.8,-191 66.8,-194.5 76.8,-198 76.8,-191"/>
</g>
<!-- Node4 -->
<g id="node4" class="node">
<title>Node4</title>
<g id="a_node4"><a xlink:href="class_ogre_1_1_d_d_s_codec.html" target="_top" xlink:title="Codec specialized in loading DDS (Direct Draw Surface) images.">
<polygon fill="none" stroke="black" points="369.73,-333.5 369.73,-351.5 463.53,-351.5 463.53,-333.5 369.73,-333.5"/>
<text text-anchor="middle" x="416.63" y="-339.5" font-family="Helvetica,sans-Serif" font-size="10.00">Ogre::DDSCodec</text>
</a>
</g>
</g>
<!-- Node3&#45;&gt;Node4 -->
<g id="edge3" class="edge">
<title>Node3&#45;&gt;Node4</title>
<path fill="none" stroke="midnightblue" d="M293.65,-299.82C310.72,-307.57 333.02,-317.22 353.32,-324.5 362.33,-327.73 372.23,-330.8 381.43,-333.46"/>
<polygon fill="midnightblue" stroke="midnightblue" points="294.8,-296.5 284.25,-295.51 291.88,-302.86 294.8,-296.5"/>
</g>
<!-- Node5 -->
<g id="node5" class="node">
<title>Node5</title>
<g id="a_node5"><a xlink:href="class_ogre_1_1_e_x_r_codec.html" target="_top" xlink:title="Codec specialized in loading OpenEXR high dynamic range images.">
<polygon fill="none" stroke="black" points="370,-296.5 370,-314.5 463.26,-314.5 463.26,-296.5 370,-296.5"/>
<text text-anchor="middle" x="416.63" y="-302.5" font-family="Helvetica,sans-Serif" font-size="10.00">Ogre::EXRCodec</text>
</a>
</g>
</g>
<!-- Node3&#45;&gt;Node5 -->
<g id="edge4" class="edge">
<title>Node3&#45;&gt;Node5</title>
<path fill="none" stroke="midnightblue" d="M325.09,-294.06C340,-295.94 355.75,-297.93 369.85,-299.71"/>
<polygon fill="midnightblue" stroke="midnightblue" points="325.3,-290.56 314.94,-292.77 324.42,-297.5 325.3,-290.56"/>
</g>
<!-- Node6 -->
<g id="node6" class="node">
<title>Node6</title>
<g id="a_node6"><a xlink:href="class_ogre_1_1_free_image_codec.html" target="_top" xlink:title="Codec specialized in images loaded using FreeImage.">
<polygon fill="none" stroke="black" points="356.1,-259.5 356.1,-277.5 477.15,-277.5 477.15,-259.5 356.1,-259.5"/>
<text text-anchor="middle" x="416.63" y="-265.5" font-family="Helvetica,sans-Serif" font-size="10.00">Ogre::FreeImageCodec</text>
</a>
</g>
</g>
<!-- Node3&#45;&gt;Node6 -->
<g id="edge5" class="edge">
<title>Node3&#45;&gt;Node6</title>
<path fill="none" stroke="midnightblue" d="M324.94,-279.36C335.11,-278.14 345.67,-276.88 355.84,-275.66"/>
<polygon fill="midnightblue" stroke="midnightblue" points="324.45,-275.89 314.94,-280.56 325.29,-282.84 324.45,-275.89"/>
</g>
<!-- Node8 -->
<g id="node8" class="node">
<title>Node8</title>
<g id="a_node8"><a xlink:href="class_ogre_1_1_a_s_t_c_codec.html" target="_top" xlink:title="Codec specialized in loading ASTC (ARM Adaptive Scalable Texture Compression) images.">
<polygon fill="none" stroke="black" points="366.95,-222.5 366.95,-240.5 466.31,-240.5 466.31,-222.5 366.95,-222.5"/>
<text text-anchor="middle" x="416.63" y="-228.5" font-family="Helvetica,sans-Serif" font-size="10.00">Ogre::ASTCCodec</text>
</a>
</g>
</g>
<!-- Node7&#45;&gt;Node8 -->
<g id="edge7" class="edge">
<title>Node7&#45;&gt;Node8</title>
<path fill="none" stroke="midnightblue" d="M280.78,-156.08C297.27,-172.82 324.87,-198.32 353.32,-213.5 360.08,-217.1 367.64,-220.06 375.11,-222.47"/>
<polygon fill="midnightblue" stroke="midnightblue" points="283.08,-153.43 273.62,-148.65 278.04,-158.28 283.08,-153.43"/>
</g>
<!-- Node9 -->
<g id="node9" class="node">
<title>Node9</title>
<g id="a_node9"><a xlink:href="class_ogre_1_1_d_d_s_codec2.html" target="_top" xlink:title="Codec specialized in loading DDS (Direct Draw Surface) images.">
<polygon fill="none" stroke="black" points="366.94,-185.5 366.94,-203.5 466.31,-203.5 466.31,-185.5 366.94,-185.5"/>
<text text-anchor="middle" x="416.63" y="-191.5" font-family="Helvetica,sans-Serif" font-size="10.00">Ogre::DDSCodec2</text>
</a>
</g>
</g>
<!-- Node7&#45;&gt;Node9 -->
<g id="edge8" class="edge">
<title>Node7&#45;&gt;Node9</title>
<path fill="none" stroke="midnightblue" d="M295.43,-152.63C312.31,-159.78 333.82,-168.55 353.32,-175.5 363.23,-179.03 374.16,-182.5 384.07,-185.49"/>
<polygon fill="midnightblue" stroke="midnightblue" points="296.65,-149.34 286.08,-148.63 293.9,-155.78 296.65,-149.34"/>
</g>
<!-- Node10 -->
<g id="node10" class="node">
<title>Node10</title>
<g id="a_node10"><a xlink:href="class_ogre_1_1_e_t_c_codec.html" target="_top" xlink:title="Codec specialized in loading ETC (Ericsson Texture Compression) images.">
<polygon fill="none" stroke="black" points="370.28,-148.5 370.28,-166.5 462.98,-166.5 462.98,-148.5 370.28,-148.5"/>
<text text-anchor="middle" x="416.63" y="-154.5" font-family="Helvetica,sans-Serif" font-size="10.00">Ogre::ETCCodec</text>
</a>
</g>
</g>
<!-- Node7&#45;&gt;Node10 -->
<g id="edge9" class="edge">
<title>Node7&#45;&gt;Node10</title>
<path fill="none" stroke="midnightblue" d="M327.66,-146.97C341.88,-148.67 356.72,-150.45 370.08,-152.05"/>
<polygon fill="midnightblue" stroke="midnightblue" points="327.8,-143.46 317.46,-145.75 326.97,-150.41 327.8,-143.46"/>
</g>
<!-- Node11 -->
<g id="node11" class="node">
<title>Node11</title>
<g id="a_node11"><a xlink:href="class_ogre_1_1_free_image_codec2.html" target="_top" xlink:title="Codec specialized in images loaded using FreeImage.">
<polygon fill="none" stroke="black" points="353.32,-111.5 353.32,-129.5 479.93,-129.5 479.93,-111.5 353.32,-111.5"/>
<text text-anchor="middle" x="416.63" y="-117.5" font-family="Helvetica,sans-Serif" font-size="10.00">Ogre::FreeImageCodec2</text>
</a>
</g>
</g>
<!-- Node7&#45;&gt;Node11 -->
<g id="edge10" class="edge">
<title>Node7&#45;&gt;Node11</title>
<path fill="none" stroke="midnightblue" d="M327.63,-131.62C336.08,-130.55 344.76,-129.46 353.22,-128.39"/>
<polygon fill="midnightblue" stroke="midnightblue" points="326.94,-128.18 317.46,-132.91 327.82,-135.13 326.94,-128.18"/>
</g>
<!-- Node12 -->
<g id="node12" class="node">
<title>Node12</title>
<g id="a_node12"><a xlink:href="class_ogre_1_1_o_i_t_d_codec.html" target="_top" xlink:title="Codec specialized in loading OITD (Ogre Internal Texture Dump) format.">
<polygon fill="none" stroke="black" points="368.34,-74.5 368.34,-92.5 464.92,-92.5 464.92,-74.5 368.34,-74.5"/>
<text text-anchor="middle" x="416.63" y="-80.5" font-family="Helvetica,sans-Serif" font-size="10.00">Ogre::OITDCodec</text>
</a>
</g>
</g>
<!-- Node7&#45;&gt;Node12 -->
<g id="edge11" class="edge">
<title>Node7&#45;&gt;Node12</title>
<path fill="none" stroke="midnightblue" d="M293.65,-126.18C310.72,-118.43 333.02,-108.78 353.32,-101.5 362.33,-98.27 372.23,-95.2 381.43,-92.54"/>
<polygon fill="midnightblue" stroke="midnightblue" points="291.88,-123.14 284.25,-130.49 294.8,-129.5 291.88,-123.14"/>
</g>
<!-- Node13 -->
<g id="node13" class="node">
<title>Node13</title>
<g id="a_node13"><a xlink:href="class_ogre_1_1_p_v_r_t_c_codec.html" target="_top" xlink:title="Codec specialized in loading PVRTC (PowerVR) images.">
<polygon fill="none" stroke="black" points="363.42,-37.5 363.42,-55.5 469.83,-55.5 469.83,-37.5 363.42,-37.5"/>
<text text-anchor="middle" x="416.63" y="-43.5" font-family="Helvetica,sans-Serif" font-size="10.00">Ogre::PVRTCCodec</text>
</a>
</g>
</g>
<!-- Node7&#45;&gt;Node13 -->
<g id="edge12" class="edge">
<title>Node7&#45;&gt;Node13</title>
<path fill="none" stroke="midnightblue" d="M280.74,-122.68C297.19,-105.71 324.76,-79.86 353.32,-64.5 359.97,-60.93 367.4,-57.99 374.76,-55.6"/>
<polygon fill="midnightblue" stroke="midnightblue" points="277.93,-120.55 273.6,-130.22 283.01,-125.37 277.93,-120.55"/>
</g>
<!-- Node14 -->
<g id="node14" class="node">
<title>Node14</title>
<g id="a_node14"><a xlink:href="class_ogre_1_1_s_t_b_i_image_codec.html" target="_top" xlink:title="Codec specialized in images loaded using stbi (https://github.com/nothings/stb).">
<polygon fill="none" stroke="black" points="355.27,-0.5 355.27,-18.5 477.99,-18.5 477.99,-0.5 355.27,-0.5"/>
<text text-anchor="middle" x="416.63" y="-6.5" font-family="Helvetica,sans-Serif" font-size="10.00">Ogre::STBIImageCodec</text>
</a>
</g>
</g>
<!-- Node7&#45;&gt;Node14 -->
<g id="edge13" class="edge">
<title>Node7&#45;&gt;Node14</title>
<path fill="none" stroke="midnightblue" d="M274.78,-121.3C288.67,-96.41 316.91,-52.04 353.32,-27.5 358.74,-23.85 364.9,-20.93 371.19,-18.6"/>
<polygon fill="midnightblue" stroke="midnightblue" points="271.55,-119.92 269.87,-130.38 277.7,-123.25 271.55,-119.92"/>
</g>
</g>
</svg>
