<?xml version="1.0" encoding="UTF-8" standalone="no"?>
<!DOCTYPE svg PUBLIC "-//W3C//DTD SVG 1.1//EN"
 "http://www.w3.org/Graphics/SVG/1.1/DTD/svg11.dtd">
<!-- Generated by graphviz version 2.43.0 (0)
 -->
<!-- Title: Ogre::RTShader::TargetRenderState Pages: 1 -->
<svg width="163pt" height="147pt"
 viewBox="0.00 0.00 163.34 147.00" xmlns="http://www.w3.org/2000/svg" xmlns:xlink="http://www.w3.org/1999/xlink">
<g id="graph0" class="graph" transform="scale(1 1) rotate(0) translate(4 143)">
<title>Ogre::RTShader::TargetRenderState</title>
<!-- Node1 -->
<g id="node1" class="node">
<title>Node1</title>
<g id="a_node1"><a xlink:title="This is the target render state.">
<polygon fill="#bfbfbf" stroke="black" points="0,-0.5 0,-28.5 155.34,-28.5 155.34,-0.5 0,-0.5"/>
<text text-anchor="start" x="8" y="-16.5" font-family="Helvetica,sans-Serif" font-size="10.00">Ogre::RTShader::TargetRender</text>
<text text-anchor="middle" x="77.67" y="-6.5" font-family="Helvetica,sans-Serif" font-size="10.00">State</text>
</a>
</g>
</g>
<!-- Node2 -->
<g id="node2" class="node">
<title>Node2</title>
<g id="a_node2"><a xlink:href="class_ogre_1_1_r_t_shader_1_1_render_state.html" target="_top" xlink:title="This is a container class for sub render state class.">
<polygon fill="none" stroke="black" points="2.22,-65.5 2.22,-83.5 153.11,-83.5 153.11,-65.5 2.22,-65.5"/>
<text text-anchor="middle" x="77.67" y="-71.5" font-family="Helvetica,sans-Serif" font-size="10.00">Ogre::RTShader::RenderState</text>
</a>
</g>
</g>
<!-- Node2&#45;&gt;Node1 -->
<g id="edge1" class="edge">
<title>Node2&#45;&gt;Node1</title>
<path fill="none" stroke="midnightblue" d="M77.67,-55.32C77.67,-46.75 77.67,-36.7 77.67,-28.84"/>
<polygon fill="midnightblue" stroke="midnightblue" points="74.17,-55.44 77.67,-65.44 81.17,-55.44 74.17,-55.44"/>
</g>
<!-- Node3 -->
<g id="node3" class="node">
<title>Node3</title>
<g id="a_node3"><a xlink:href="class_ogre_1_1_allocated_object.html" target="_top" xlink:title="Superclass for all objects that wish to use custom memory allocators when their new / delete operator...">
<polygon fill="none" stroke="black" points="19.46,-120.5 19.46,-138.5 135.88,-138.5 135.88,-120.5 19.46,-120.5"/>
<text text-anchor="middle" x="77.67" y="-126.5" font-family="Helvetica,sans-Serif" font-size="10.00">RTShaderSystemAlloc</text>
</a>
</g>
</g>
<!-- Node3&#45;&gt;Node2 -->
<g id="edge2" class="edge">
<title>Node3&#45;&gt;Node2</title>
<path fill="none" stroke="midnightblue" d="M77.67,-110.17C77.67,-101.09 77.67,-90.59 77.67,-83.55"/>
<polygon fill="midnightblue" stroke="midnightblue" points="74.17,-110.22 77.67,-120.22 81.17,-110.22 74.17,-110.22"/>
</g>
</g>
</svg>
