<?xml version="1.0" encoding="UTF-8" standalone="no"?>
<!DOCTYPE svg PUBLIC "-//W3C//DTD SVG 1.1//EN"
 "http://www.w3.org/Graphics/SVG/1.1/DTD/svg11.dtd">
<!-- Generated by graphviz version 2.43.0 (0)
 -->
<!-- Title: Ogre::ControllerManager Pages: 1 -->
<svg width="244pt" height="92pt"
 viewBox="0.00 0.00 244.24 92.00" xmlns="http://www.w3.org/2000/svg" xmlns:xlink="http://www.w3.org/1999/xlink">
<g id="graph0" class="graph" transform="scale(1 1) rotate(0) translate(4 88)">
<title>Ogre::ControllerManager</title>
<!-- Node1 -->
<g id="node1" class="node">
<title>Node1</title>
<g id="a_node1"><a xlink:title="Class for managing Controller instances.">
<polygon fill="#bfbfbf" stroke="black" points="68.42,-0.5 68.42,-18.5 195.03,-18.5 195.03,-0.5 68.42,-0.5"/>
<text text-anchor="middle" x="131.73" y="-6.5" font-family="Helvetica,sans-Serif" font-size="10.00">Ogre::ControllerManager</text>
</a>
</g>
</g>
<!-- Node2 -->
<g id="node2" class="node">
<title>Node2</title>
<g id="a_node2"><a xlink:href="class_ogre_1_1_singleton.html" target="_top" xlink:title=" ">
<polygon fill="none" stroke="black" points="0,-55.5 0,-83.5 137.46,-83.5 137.46,-55.5 0,-55.5"/>
<text text-anchor="start" x="8" y="-71.5" font-family="Helvetica,sans-Serif" font-size="10.00">Ogre::Singleton&lt; Controller</text>
<text text-anchor="middle" x="68.73" y="-61.5" font-family="Helvetica,sans-Serif" font-size="10.00">Manager &gt;</text>
</a>
</g>
</g>
<!-- Node2&#45;&gt;Node1 -->
<g id="edge1" class="edge">
<title>Node2&#45;&gt;Node1</title>
<path fill="none" stroke="midnightblue" d="M90.65,-48.32C101.67,-38.18 114.41,-26.45 122.74,-18.77"/>
<polygon fill="midnightblue" stroke="midnightblue" points="88.01,-45.99 83.02,-55.34 92.75,-51.14 88.01,-45.99"/>
</g>
<!-- Node3 -->
<g id="node3" class="node">
<title>Node3</title>
<g id="a_node3"><a xlink:href="class_ogre_1_1_allocated_object.html" target="_top" xlink:title="Superclass for all objects that wish to use custom memory allocators when their new / delete operator...">
<polygon fill="none" stroke="black" points="155.22,-60.5 155.22,-78.5 236.24,-78.5 236.24,-60.5 155.22,-60.5"/>
<text text-anchor="middle" x="195.73" y="-66.5" font-family="Helvetica,sans-Serif" font-size="10.00">ControllerAlloc</text>
</a>
</g>
</g>
<!-- Node3&#45;&gt;Node1 -->
<g id="edge2" class="edge">
<title>Node3&#45;&gt;Node1</title>
<path fill="none" stroke="midnightblue" d="M179.16,-53.48C167,-42.46 150.93,-27.9 140.97,-18.87"/>
<polygon fill="midnightblue" stroke="midnightblue" points="177.07,-56.31 186.83,-60.44 181.77,-51.13 177.07,-56.31"/>
</g>
</g>
</svg>
