<?xml version="1.0" encoding="UTF-8" standalone="no"?>
<!DOCTYPE svg PUBLIC "-//W3C//DTD SVG 1.1//EN"
 "http://www.w3.org/Graphics/SVG/1.1/DTD/svg11.dtd">
<!-- Generated by graphviz version 2.43.0 (0)
 -->
<!-- Title: Ogre::ResourceManager::ResourcePool Pages: 1 -->
<svg width="244pt" height="92pt"
 viewBox="0.00 0.00 243.54 92.00" xmlns="http://www.w3.org/2000/svg" xmlns:xlink="http://www.w3.org/1999/xlink">
<g id="graph0" class="graph" transform="scale(1 1) rotate(0) translate(4 88)">
<title>Ogre::ResourceManager::ResourcePool</title>
<!-- Node1 -->
<g id="node1" class="node">
<title>Node1</title>
<g id="a_node1"><a xlink:title="Definition of a pool of resources, which users can use to reuse similar resources many times without ...">
<polygon fill="#bfbfbf" stroke="black" points="68.28,-0.5 68.28,-28.5 194.33,-28.5 194.33,-0.5 68.28,-0.5"/>
<text text-anchor="start" x="76.28" y="-16.5" font-family="Helvetica,sans-Serif" font-size="10.00">Ogre::ResourceManager</text>
<text text-anchor="middle" x="131.31" y="-6.5" font-family="Helvetica,sans-Serif" font-size="10.00">::ResourcePool</text>
</a>
</g>
</g>
<!-- Node2 -->
<g id="node2" class="node">
<title>Node2</title>
<g id="a_node2"><a xlink:href="class_ogre_1_1_pool.html" target="_top" xlink:title=" ">
<polygon fill="none" stroke="black" points="0,-65.5 0,-83.5 136.62,-83.5 136.62,-65.5 0,-65.5"/>
<text text-anchor="middle" x="68.31" y="-71.5" font-family="Helvetica,sans-Serif" font-size="10.00">Ogre::Pool&lt; ResourcePtr &gt;</text>
</a>
</g>
</g>
<!-- Node2&#45;&gt;Node1 -->
<g id="edge1" class="edge">
<title>Node2&#45;&gt;Node1</title>
<path fill="none" stroke="midnightblue" d="M84.68,-58.43C94.63,-49.26 107.23,-37.67 116.81,-28.84"/>
<polygon fill="midnightblue" stroke="midnightblue" points="82.05,-56.09 77.07,-65.44 86.8,-61.24 82.05,-56.09"/>
</g>
<!-- Node3 -->
<g id="node3" class="node">
<title>Node3</title>
<g id="a_node3"><a xlink:href="class_ogre_1_1_allocated_object.html" target="_top" xlink:title="Superclass for all objects that wish to use custom memory allocators when their new / delete operator...">
<polygon fill="none" stroke="black" points="155.07,-65.5 155.07,-83.5 235.54,-83.5 235.54,-65.5 155.07,-65.5"/>
<text text-anchor="middle" x="195.31" y="-71.5" font-family="Helvetica,sans-Serif" font-size="10.00">ResourceAlloc</text>
</a>
</g>
</g>
<!-- Node3&#45;&gt;Node1 -->
<g id="edge2" class="edge">
<title>Node3&#45;&gt;Node1</title>
<path fill="none" stroke="midnightblue" d="M178.98,-58.7C168.82,-49.5 155.87,-37.76 146.03,-28.84"/>
<polygon fill="midnightblue" stroke="midnightblue" points="176.65,-61.31 186.41,-65.44 181.35,-56.13 176.65,-61.31"/>
</g>
</g>
</svg>
