<?xml version="1.0" encoding="UTF-8" standalone="no"?>
<!DOCTYPE svg PUBLIC "-//W3C//DTD SVG 1.1//EN"
 "http://www.w3.org/Graphics/SVG/1.1/DTD/svg11.dtd">
<!-- Generated by graphviz version 2.43.0 (0)
 -->
<!-- Title: Ogre::MeshManager Pages: 1 -->
<svg width="360pt" height="137pt"
 viewBox="0.00 0.00 359.57 137.00" xmlns="http://www.w3.org/2000/svg" xmlns:xlink="http://www.w3.org/1999/xlink">
<g id="graph0" class="graph" transform="scale(1 1) rotate(0) translate(4 133)">
<title>Ogre::MeshManager</title>
<!-- Node1 -->
<g id="node1" class="node">
<title>Node1</title>
<g id="a_node1"><a xlink:title="Handles the management of mesh resources.">
<polygon fill="#bfbfbf" stroke="black" points="132.39,-0.5 132.39,-18.5 240.1,-18.5 240.1,-0.5 132.39,-0.5"/>
<text text-anchor="middle" x="186.24" y="-6.5" font-family="Helvetica,sans-Serif" font-size="10.00">Ogre::MeshManager</text>
</a>
</g>
</g>
<!-- Node2 -->
<g id="node2" class="node">
<title>Node2</title>
<g id="a_node2"><a xlink:href="class_ogre_1_1_resource_manager.html" target="_top" xlink:title="Defines a generic resource handler.">
<polygon fill="none" stroke="black" points="41.22,-55.5 41.22,-73.5 167.27,-73.5 167.27,-55.5 41.22,-55.5"/>
<text text-anchor="middle" x="104.24" y="-61.5" font-family="Helvetica,sans-Serif" font-size="10.00">Ogre::ResourceManager</text>
</a>
</g>
</g>
<!-- Node2&#45;&gt;Node1 -->
<g id="edge1" class="edge">
<title>Node2&#45;&gt;Node1</title>
<path fill="none" stroke="midnightblue" d="M125.48,-49.77C140.77,-39.89 160.86,-26.9 173.67,-18.63"/>
<polygon fill="midnightblue" stroke="midnightblue" points="123.2,-47.08 116.7,-55.45 127,-52.96 123.2,-47.08"/>
</g>
<!-- Node3 -->
<g id="node3" class="node">
<title>Node3</title>
<g id="a_node3"><a xlink:href="class_ogre_1_1_script_loader.html" target="_top" xlink:title="Abstract class defining the interface used by classes which wish to perform script loading to define ...">
<polygon fill="none" stroke="black" points="0,-110.5 0,-128.5 100.49,-128.5 100.49,-110.5 0,-110.5"/>
<text text-anchor="middle" x="50.24" y="-116.5" font-family="Helvetica,sans-Serif" font-size="10.00">Ogre::ScriptLoader</text>
</a>
</g>
</g>
<!-- Node3&#45;&gt;Node2 -->
<g id="edge2" class="edge">
<title>Node3&#45;&gt;Node2</title>
<path fill="none" stroke="midnightblue" d="M65.92,-103.11C75.77,-93.44 88.08,-81.37 96.04,-73.55"/>
<polygon fill="midnightblue" stroke="midnightblue" points="63.37,-100.72 58.68,-110.22 68.27,-105.71 63.37,-100.72"/>
</g>
<!-- Node4 -->
<g id="node4" class="node">
<title>Node4</title>
<g id="a_node4"><a xlink:href="class_ogre_1_1_allocated_object.html" target="_top" xlink:title="Superclass for all objects that wish to use custom memory allocators when their new / delete operator...">
<polygon fill="none" stroke="black" points="118.01,-110.5 118.01,-128.5 198.48,-128.5 198.48,-110.5 118.01,-110.5"/>
<text text-anchor="middle" x="158.24" y="-116.5" font-family="Helvetica,sans-Serif" font-size="10.00">ResourceAlloc</text>
</a>
</g>
</g>
<!-- Node4&#45;&gt;Node2 -->
<g id="edge3" class="edge">
<title>Node4&#45;&gt;Node2</title>
<path fill="none" stroke="midnightblue" d="M142.56,-103.11C132.71,-93.44 120.41,-81.37 112.45,-73.55"/>
<polygon fill="midnightblue" stroke="midnightblue" points="140.22,-105.71 149.81,-110.22 145.12,-100.72 140.22,-105.71"/>
</g>
<!-- Node5 -->
<g id="node5" class="node">
<title>Node5</title>
<g id="a_node5"><a xlink:href="class_ogre_1_1_singleton.html" target="_top" xlink:title=" ">
<polygon fill="none" stroke="black" points="184.92,-55.5 184.92,-73.5 351.57,-73.5 351.57,-55.5 184.92,-55.5"/>
<text text-anchor="middle" x="268.24" y="-61.5" font-family="Helvetica,sans-Serif" font-size="10.00">Ogre::Singleton&lt; MeshManager &gt;</text>
</a>
</g>
</g>
<!-- Node5&#45;&gt;Node1 -->
<g id="edge4" class="edge">
<title>Node5&#45;&gt;Node1</title>
<path fill="none" stroke="midnightblue" d="M247,-49.77C231.72,-39.89 211.62,-26.9 198.81,-18.63"/>
<polygon fill="midnightblue" stroke="midnightblue" points="245.49,-52.96 255.79,-55.45 249.29,-47.08 245.49,-52.96"/>
</g>
</g>
</svg>
