<?xml version="1.0" encoding="UTF-8" standalone="no"?>
<!DOCTYPE svg PUBLIC "-//W3C//DTD SVG 1.1//EN"
 "http://www.w3.org/Graphics/SVG/1.1/DTD/svg11.dtd">
<!-- Generated by graphviz version 2.43.0 (0)
 -->
<!-- Title: Ogre::PixelBox Pages: 1 -->
<svg width="152pt" height="82pt"
 viewBox="0.00 0.00 152.24 82.00" xmlns="http://www.w3.org/2000/svg" xmlns:xlink="http://www.w3.org/1999/xlink">
<g id="graph0" class="graph" transform="scale(1 1) rotate(0) translate(4 78)">
<title>Ogre::PixelBox</title>
<!-- Node1 -->
<g id="node1" class="node">
<title>Node1</title>
<g id="a_node1"><a xlink:title=" ">
<polygon fill="#bfbfbf" stroke="black" points="29.16,-0.5 29.16,-18.5 111.86,-18.5 111.86,-0.5 29.16,-0.5"/>
<text text-anchor="middle" x="70.51" y="-6.5" font-family="Helvetica,sans-Serif" font-size="10.00">Ogre::PixelBox</text>
</a>
</g>
</g>
<!-- Node2 -->
<g id="node2" class="node">
<title>Node2</title>
<g id="a_node2"><a xlink:href="struct_ogre_1_1_box.html" target="_top" xlink:title="Structure used to define a box in a 3&#45;D integer space.">
<polygon fill="none" stroke="black" points="0,-55.5 0,-73.5 61.02,-73.5 61.02,-55.5 0,-55.5"/>
<text text-anchor="middle" x="30.51" y="-61.5" font-family="Helvetica,sans-Serif" font-size="10.00">Ogre::Box</text>
</a>
</g>
</g>
<!-- Node2&#45;&gt;Node1 -->
<g id="edge1" class="edge">
<title>Node2&#45;&gt;Node1</title>
<path fill="none" stroke="midnightblue" d="M43,-46.95C50.14,-37.49 58.77,-26.06 64.43,-18.55"/>
<polygon fill="midnightblue" stroke="midnightblue" points="39.99,-45.13 36.76,-55.22 45.58,-49.35 39.99,-45.13"/>
</g>
<!-- Node3 -->
<g id="node3" class="node">
<title>Node3</title>
<g id="a_node3"><a xlink:href="class_ogre_1_1_allocated_object.html" target="_top" xlink:title="Superclass for all objects that wish to use custom memory allocators when their new / delete operator...">
<polygon fill="none" stroke="black" points="78.78,-55.5 78.78,-73.5 144.24,-73.5 144.24,-55.5 78.78,-55.5"/>
<text text-anchor="middle" x="111.51" y="-61.5" font-family="Helvetica,sans-Serif" font-size="10.00">ImageAlloc</text>
</a>
</g>
</g>
<!-- Node3&#45;&gt;Node1 -->
<g id="edge2" class="edge">
<title>Node3&#45;&gt;Node1</title>
<path fill="none" stroke="midnightblue" d="M98.93,-47.24C91.57,-37.73 82.61,-26.14 76.74,-18.55"/>
<polygon fill="midnightblue" stroke="midnightblue" points="96.22,-49.45 105.1,-55.22 101.75,-45.17 96.22,-49.45"/>
</g>
</g>
</svg>
