<?xml version="1.0" encoding="UTF-8" standalone="no"?>
<!DOCTYPE svg PUBLIC "-//W3C//DTD SVG 1.1//EN"
 "http://www.w3.org/Graphics/SVG/1.1/DTD/svg11.dtd">
<!-- Generated by graphviz version 2.43.0 (0)
 -->
<!-- Title: Ogre::Serializer Pages: 1 -->
<svg width="918pt" height="249pt"
 viewBox="0.00 0.00 918.12 249.00" xmlns="http://www.w3.org/2000/svg" xmlns:xlink="http://www.w3.org/1999/xlink">
<g id="graph0" class="graph" transform="scale(1 1) rotate(0) translate(4 245)">
<title>Ogre::Serializer</title>
<!-- Node1 -->
<g id="node1" class="node">
<title>Node1</title>
<g id="a_node1"><a xlink:title="Generic class for serialising data to / from binary stream&#45;based files.">
<polygon fill="#bfbfbf" stroke="black" points="115.35,-111.5 115.35,-129.5 200.82,-129.5 200.82,-111.5 115.35,-111.5"/>
<text text-anchor="middle" x="158.09" y="-117.5" font-family="Helvetica,sans-Serif" font-size="10.00">Ogre::Serializer</text>
</a>
</g>
</g>
<!-- Node3 -->
<g id="node3" class="node">
<title>Node3</title>
<g id="a_node3"><a xlink:href="class_ogre_1_1_gpu_named_constants_serializer.html" target="_top" xlink:title="Simple class for loading / saving GpuNamedConstants.">
<polygon fill="none" stroke="black" points="236.82,-222.5 236.82,-240.5 418.45,-240.5 418.45,-222.5 236.82,-222.5"/>
<text text-anchor="middle" x="327.64" y="-228.5" font-family="Helvetica,sans-Serif" font-size="10.00">Ogre::GpuNamedConstantsSerializer</text>
</a>
</g>
</g>
<!-- Node1&#45;&gt;Node3 -->
<g id="edge2" class="edge">
<title>Node1&#45;&gt;Node3</title>
<path fill="none" stroke="midnightblue" d="M168.91,-138.43C181.64,-159.87 205.92,-195.13 236.82,-213.5 242.97,-217.16 249.74,-220.08 256.71,-222.42"/>
<polygon fill="midnightblue" stroke="midnightblue" points="171.9,-136.61 163.89,-129.67 165.83,-140.08 171.9,-136.61"/>
</g>
<!-- Node4 -->
<g id="node4" class="node">
<title>Node4</title>
<g id="a_node4"><a xlink:href="class_ogre_1_1_lod_config_serializer.html" target="_top" xlink:title=" ">
<polygon fill="none" stroke="black" points="262.11,-185.5 262.11,-203.5 393.17,-203.5 393.17,-185.5 262.11,-185.5"/>
<text text-anchor="middle" x="327.64" y="-191.5" font-family="Helvetica,sans-Serif" font-size="10.00">Ogre::LodConfigSerializer</text>
</a>
</g>
</g>
<!-- Node1&#45;&gt;Node4 -->
<g id="edge3" class="edge">
<title>Node1&#45;&gt;Node4</title>
<path fill="none" stroke="midnightblue" d="M176.63,-136.53C191.56,-149.3 214.13,-166.61 236.82,-176.5 245.28,-180.19 254.51,-183.12 263.74,-185.47"/>
<polygon fill="midnightblue" stroke="midnightblue" points="178.6,-133.61 168.78,-129.63 173.98,-138.86 178.6,-133.61"/>
</g>
<!-- Node5 -->
<g id="node5" class="node">
<title>Node5</title>
<g id="a_node5"><a xlink:href="class_ogre_1_1_mesh_serializer.html" target="_top" xlink:title="Class for serialising mesh data to/from an OGRE .mesh file.">
<polygon fill="none" stroke="black" points="272.68,-148.5 272.68,-166.5 382.6,-166.5 382.6,-148.5 272.68,-148.5"/>
<text text-anchor="middle" x="327.64" y="-154.5" font-family="Helvetica,sans-Serif" font-size="10.00">Ogre::MeshSerializer</text>
</a>
</g>
</g>
<!-- Node1&#45;&gt;Node5 -->
<g id="edge4" class="edge">
<title>Node1&#45;&gt;Node5</title>
<path fill="none" stroke="midnightblue" d="M207.36,-131.83C217.11,-134.07 227.29,-136.39 236.82,-138.5 251.92,-141.84 268.47,-145.38 283.2,-148.49"/>
<polygon fill="midnightblue" stroke="midnightblue" points="207.94,-128.37 197.41,-129.53 206.36,-135.19 207.94,-128.37"/>
</g>
<!-- Node6 -->
<g id="node6" class="node">
<title>Node6</title>
<g id="a_node6"><a xlink:href="class_ogre_1_1_mesh_serializer_impl.html" target="_top" xlink:title="Internal implementation of Mesh reading / writing for the latest version of the .mesh format.">
<polygon fill="none" stroke="black" points="263.23,-111.5 263.23,-129.5 392.04,-129.5 392.04,-111.5 263.23,-111.5"/>
<text text-anchor="middle" x="327.64" y="-117.5" font-family="Helvetica,sans-Serif" font-size="10.00">Ogre::MeshSerializerImpl</text>
</a>
</g>
</g>
<!-- Node1&#45;&gt;Node6 -->
<g id="edge5" class="edge">
<title>Node1&#45;&gt;Node6</title>
<path fill="none" stroke="midnightblue" d="M210.94,-120.5C227.46,-120.5 245.92,-120.5 263.16,-120.5"/>
<polygon fill="midnightblue" stroke="midnightblue" points="210.94,-117 200.94,-120.5 210.94,-124 210.94,-117"/>
</g>
<!-- Node9 -->
<g id="node9" class="node">
<title>Node9</title>
<g id="a_node9"><a xlink:href="class_ogre_1_1v1_1_1_mesh_serializer.html" target="_top" xlink:title="Class for serialising mesh data to/from an OGRE .mesh file.">
<polygon fill="none" stroke="black" points="264.62,-74.5 264.62,-92.5 390.66,-92.5 390.66,-74.5 264.62,-74.5"/>
<text text-anchor="middle" x="327.64" y="-80.5" font-family="Helvetica,sans-Serif" font-size="10.00">Ogre::v1::MeshSerializer</text>
</a>
</g>
</g>
<!-- Node1&#45;&gt;Node9 -->
<g id="edge8" class="edge">
<title>Node1&#45;&gt;Node9</title>
<path fill="none" stroke="midnightblue" d="M204.52,-109.06C215.1,-106.49 226.34,-103.83 236.82,-101.5 250.64,-98.43 265.7,-95.32 279.48,-92.56"/>
<polygon fill="midnightblue" stroke="midnightblue" points="203.5,-105.7 194.62,-111.48 205.16,-112.5 203.5,-105.7"/>
</g>
<!-- Node10 -->
<g id="node10" class="node">
<title>Node10</title>
<g id="a_node10"><a xlink:href="class_ogre_1_1v1_1_1_mesh_serializer_impl.html" target="_top" xlink:title="Internal implementation of Mesh reading / writing for the latest version of the .mesh format.">
<polygon fill="none" stroke="black" points="255.17,-37.5 255.17,-55.5 400.1,-55.5 400.1,-37.5 255.17,-37.5"/>
<text text-anchor="middle" x="327.64" y="-43.5" font-family="Helvetica,sans-Serif" font-size="10.00">Ogre::v1::MeshSerializerImpl</text>
</a>
</g>
</g>
<!-- Node1&#45;&gt;Node10 -->
<g id="edge9" class="edge">
<title>Node1&#45;&gt;Node10</title>
<path fill="none" stroke="midnightblue" d="M176.63,-104.47C191.56,-91.7 214.13,-74.39 236.82,-64.5 245.28,-60.81 254.51,-57.88 263.74,-55.53"/>
<polygon fill="midnightblue" stroke="midnightblue" points="173.98,-102.14 168.78,-111.37 178.6,-107.39 173.98,-102.14"/>
</g>
<!-- Node18 -->
<g id="node14" class="node">
<title>Node18</title>
<g id="a_node14"><a xlink:href="class_ogre_1_1v1_1_1_skeleton_serializer.html" target="_top" xlink:title="Class for serialising skeleton data to/from an OGRE .skeleton file.">
<polygon fill="none" stroke="black" points="257.39,-0.5 257.39,-18.5 397.89,-18.5 397.89,-0.5 257.39,-0.5"/>
<text text-anchor="middle" x="327.64" y="-6.5" font-family="Helvetica,sans-Serif" font-size="10.00">Ogre::v1::SkeletonSerializer</text>
</a>
</g>
</g>
<!-- Node1&#45;&gt;Node18 -->
<g id="edge13" class="edge">
<title>Node1&#45;&gt;Node18</title>
<path fill="none" stroke="midnightblue" d="M168.91,-102.57C181.64,-81.13 205.92,-45.87 236.82,-27.5 243.11,-23.76 250.04,-20.79 257.18,-18.42"/>
<polygon fill="midnightblue" stroke="midnightblue" points="165.83,-100.92 163.89,-111.33 171.9,-104.39 165.83,-100.92"/>
</g>
<!-- Node2 -->
<g id="node2" class="node">
<title>Node2</title>
<g id="a_node2"><a xlink:href="class_ogre_1_1_allocated_object.html" target="_top" xlink:title="Superclass for all objects that wish to use custom memory allocators when their new / delete operator...">
<polygon fill="none" stroke="black" points="0,-111.5 0,-129.5 79.35,-129.5 79.35,-111.5 0,-111.5"/>
<text text-anchor="middle" x="39.68" y="-117.5" font-family="Helvetica,sans-Serif" font-size="10.00">SerializerAlloc</text>
</a>
</g>
</g>
<!-- Node2&#45;&gt;Node1 -->
<g id="edge1" class="edge">
<title>Node2&#45;&gt;Node1</title>
<path fill="none" stroke="midnightblue" d="M89.66,-120.5C98.18,-120.5 106.98,-120.5 115.3,-120.5"/>
<polygon fill="midnightblue" stroke="midnightblue" points="89.44,-117 79.44,-120.5 89.44,-124 89.44,-117"/>
</g>
<!-- Node7 -->
<g id="node7" class="node">
<title>Node7</title>
<g id="a_node7"><a xlink:href="class_ogre_1_1_mesh_serializer_impl__v2__1___r1.html" target="_top" xlink:title=" ">
<polygon fill="none" stroke="black" points="454.45,-106.5 454.45,-134.5 583.26,-134.5 583.26,-106.5 454.45,-106.5"/>
<text text-anchor="start" x="462.45" y="-122.5" font-family="Helvetica,sans-Serif" font-size="10.00">Ogre::MeshSerializerImpl</text>
<text text-anchor="middle" x="518.86" y="-112.5" font-family="Helvetica,sans-Serif" font-size="10.00">_v2_1_R1</text>
</a>
</g>
</g>
<!-- Node6&#45;&gt;Node7 -->
<g id="edge6" class="edge">
<title>Node6&#45;&gt;Node7</title>
<path fill="none" stroke="midnightblue" d="M402.63,-120.5C419.66,-120.5 437.62,-120.5 454.17,-120.5"/>
<polygon fill="midnightblue" stroke="midnightblue" points="402.17,-117 392.17,-120.5 402.17,-124 402.17,-117"/>
</g>
<!-- Node8 -->
<g id="node8" class="node">
<title>Node8</title>
<g id="a_node8"><a xlink:href="class_ogre_1_1_mesh_serializer_impl__v2__1___r0.html" target="_top" xlink:title=" ">
<polygon fill="none" stroke="black" points="619.26,-106.5 619.26,-134.5 748.08,-134.5 748.08,-106.5 619.26,-106.5"/>
<text text-anchor="start" x="627.26" y="-122.5" font-family="Helvetica,sans-Serif" font-size="10.00">Ogre::MeshSerializerImpl</text>
<text text-anchor="middle" x="683.67" y="-112.5" font-family="Helvetica,sans-Serif" font-size="10.00">_v2_1_R0</text>
</a>
</g>
</g>
<!-- Node7&#45;&gt;Node8 -->
<g id="edge7" class="edge">
<title>Node7&#45;&gt;Node8</title>
<path fill="none" stroke="midnightblue" d="M593.32,-120.5C601.94,-120.5 610.69,-120.5 619.16,-120.5"/>
<polygon fill="midnightblue" stroke="midnightblue" points="593.27,-117 583.27,-120.5 593.27,-124 593.27,-117"/>
</g>
<!-- Node11 -->
<g id="node11" class="node">
<title>Node11</title>
<g id="a_node11"><a xlink:href="class_ogre_1_1v1_1_1_mesh_serializer_impl__v1__10.html" target="_top" xlink:title="Class for providing backwards&#45;compatibility for loading version 1.10 of the .mesh format.">
<polygon fill="none" stroke="black" points="455.84,-32.5 455.84,-60.5 581.88,-60.5 581.88,-32.5 455.84,-32.5"/>
<text text-anchor="start" x="463.84" y="-48.5" font-family="Helvetica,sans-Serif" font-size="10.00">Ogre::v1::MeshSerializer</text>
<text text-anchor="middle" x="518.86" y="-38.5" font-family="Helvetica,sans-Serif" font-size="10.00">Impl_v1_10</text>
</a>
</g>
</g>
<!-- Node10&#45;&gt;Node11 -->
<g id="edge10" class="edge">
<title>Node10&#45;&gt;Node11</title>
<path fill="none" stroke="midnightblue" d="M410.59,-46.5C425.76,-46.5 441.37,-46.5 455.82,-46.5"/>
<polygon fill="midnightblue" stroke="midnightblue" points="410.17,-43 400.17,-46.5 410.17,-50 410.17,-43"/>
</g>
<!-- Node12 -->
<g id="node12" class="node">
<title>Node12</title>
<g id="a_node12"><a xlink:href="class_ogre_1_1v1_1_1_mesh_serializer_impl__v1__8.html" target="_top" xlink:title="Class for providing backwards&#45;compatibility for loading version 1.8 of the .mesh format.">
<polygon fill="none" stroke="black" points="620.65,-32.5 620.65,-60.5 746.69,-60.5 746.69,-32.5 620.65,-32.5"/>
<text text-anchor="start" x="628.65" y="-48.5" font-family="Helvetica,sans-Serif" font-size="10.00">Ogre::v1::MeshSerializer</text>
<text text-anchor="middle" x="683.67" y="-38.5" font-family="Helvetica,sans-Serif" font-size="10.00">Impl_v1_8</text>
</a>
</g>
</g>
<!-- Node11&#45;&gt;Node12 -->
<g id="edge11" class="edge">
<title>Node11&#45;&gt;Node12</title>
<path fill="none" stroke="midnightblue" d="M592.46,-46.5C601.86,-46.5 611.42,-46.5 620.62,-46.5"/>
<polygon fill="midnightblue" stroke="midnightblue" points="592.34,-43 582.34,-46.5 592.34,-50 592.34,-43"/>
</g>
<!-- Node13 -->
<g id="node13" class="node">
<title>Node13</title>
<g id="a_node13"><a xlink:href="class_ogre_1_1v1_1_1_mesh_serializer_impl__v1__41.html" target="_top" xlink:title="Class for providing backwards&#45;compatibility for loading version 1.41 of the .mesh format.">
<polygon fill="none" stroke="red" points="784.08,-32.5 784.08,-60.5 910.12,-60.5 910.12,-32.5 784.08,-32.5"/>
<text text-anchor="start" x="792.08" y="-48.5" font-family="Helvetica,sans-Serif" font-size="10.00">Ogre::v1::MeshSerializer</text>
<text text-anchor="middle" x="847.1" y="-38.5" font-family="Helvetica,sans-Serif" font-size="10.00">Impl_v1_41</text>
</a>
</g>
</g>
<!-- Node12&#45;&gt;Node13 -->
<g id="edge12" class="edge">
<title>Node12&#45;&gt;Node13</title>
<path fill="none" stroke="midnightblue" d="M757.09,-46.5C766.02,-46.5 775.09,-46.5 783.85,-46.5"/>
<polygon fill="midnightblue" stroke="midnightblue" points="757.08,-43 747.08,-46.5 757.08,-50 757.08,-43"/>
</g>
</g>
</svg>
