<?xml version="1.0" encoding="UTF-8" standalone="no"?>
<!DOCTYPE svg PUBLIC "-//W3C//DTD SVG 1.1//EN"
 "http://www.w3.org/Graphics/SVG/1.1/DTD/svg11.dtd">
<!-- Generated by graphviz version 2.43.0 (0)
 -->
<!-- Title: Ogre::ScriptTranslatorManager Pages: 1 -->
<svg width="161pt" height="147pt"
 viewBox="0.00 0.00 161.47 147.00" xmlns="http://www.w3.org/2000/svg" xmlns:xlink="http://www.w3.org/1999/xlink">
<g id="graph0" class="graph" transform="scale(1 1) rotate(0) translate(4 143)">
<title>Ogre::ScriptTranslatorManager</title>
<!-- Node1 -->
<g id="node1" class="node">
<title>Node1</title>
<g id="a_node1"><a xlink:title="The ScriptTranslatorManager manages the lifetime and access to script translators.">
<polygon fill="#bfbfbf" stroke="black" points="0,-65.5 0,-83.5 153.47,-83.5 153.47,-65.5 0,-65.5"/>
<text text-anchor="middle" x="76.73" y="-71.5" font-family="Helvetica,sans-Serif" font-size="10.00">Ogre::ScriptTranslatorManager</text>
</a>
</g>
</g>
<!-- Node3 -->
<g id="node3" class="node">
<title>Node3</title>
<g id="a_node3"><a xlink:href="class_ogre_1_1_builtin_script_translator_manager.html" target="_top" xlink:title="This class manages the builtin translators.">
<polygon fill="none" stroke="black" points="6.12,-0.5 6.12,-28.5 147.35,-28.5 147.35,-0.5 6.12,-0.5"/>
<text text-anchor="start" x="14.12" y="-16.5" font-family="Helvetica,sans-Serif" font-size="10.00">Ogre::BuiltinScriptTranslator</text>
<text text-anchor="middle" x="76.73" y="-6.5" font-family="Helvetica,sans-Serif" font-size="10.00">Manager</text>
</a>
</g>
</g>
<!-- Node1&#45;&gt;Node3 -->
<g id="edge2" class="edge">
<title>Node1&#45;&gt;Node3</title>
<path fill="none" stroke="midnightblue" d="M76.73,-55.32C76.73,-46.75 76.73,-36.7 76.73,-28.84"/>
<polygon fill="midnightblue" stroke="midnightblue" points="73.23,-55.44 76.73,-65.44 80.23,-55.44 73.23,-55.44"/>
</g>
<!-- Node2 -->
<g id="node2" class="node">
<title>Node2</title>
<g id="a_node2"><a xlink:href="class_ogre_1_1_allocated_object.html" target="_top" xlink:title="Superclass for all objects that wish to use custom memory allocators when their new / delete operator...">
<polygon fill="none" stroke="black" points="22.79,-120.5 22.79,-138.5 130.68,-138.5 130.68,-120.5 22.79,-120.5"/>
<text text-anchor="middle" x="76.73" y="-126.5" font-family="Helvetica,sans-Serif" font-size="10.00">ScriptTranslatorAlloc</text>
</a>
</g>
</g>
<!-- Node2&#45;&gt;Node1 -->
<g id="edge1" class="edge">
<title>Node2&#45;&gt;Node1</title>
<path fill="none" stroke="midnightblue" d="M76.73,-110.17C76.73,-101.09 76.73,-90.59 76.73,-83.55"/>
<polygon fill="midnightblue" stroke="midnightblue" points="73.23,-110.22 76.73,-120.22 80.23,-110.22 73.23,-110.22"/>
</g>
</g>
</svg>
