<?xml version="1.0" encoding="UTF-8" standalone="no"?>
<!DOCTYPE svg PUBLIC "-//W3C//DTD SVG 1.1//EN"
 "http://www.w3.org/Graphics/SVG/1.1/DTD/svg11.dtd">
<!-- Generated by graphviz version 2.43.0 (0)
 -->
<!-- Title: Ogre::ArchiveManager Pages: 1 -->
<svg width="224pt" height="92pt"
 viewBox="0.00 0.00 223.96 92.00" xmlns="http://www.w3.org/2000/svg" xmlns:xlink="http://www.w3.org/1999/xlink">
<g id="graph0" class="graph" transform="scale(1 1) rotate(0) translate(4 88)">
<title>Ogre::ArchiveManager</title>
<!-- Node1 -->
<g id="node1" class="node">
<title>Node1</title>
<g id="a_node1"><a xlink:title="This class manages the available ArchiveFactory plugins.">
<polygon fill="#bfbfbf" stroke="black" points="63.15,-0.5 63.15,-18.5 179.75,-18.5 179.75,-0.5 63.15,-0.5"/>
<text text-anchor="middle" x="121.45" y="-6.5" font-family="Helvetica,sans-Serif" font-size="10.00">Ogre::ArchiveManager</text>
</a>
</g>
</g>
<!-- Node2 -->
<g id="node2" class="node">
<title>Node2</title>
<g id="a_node2"><a xlink:href="class_ogre_1_1_singleton.html" target="_top" xlink:title=" ">
<polygon fill="none" stroke="black" points="0,-55.5 0,-83.5 126.9,-83.5 126.9,-55.5 0,-55.5"/>
<text text-anchor="start" x="8" y="-71.5" font-family="Helvetica,sans-Serif" font-size="10.00">Ogre::Singleton&lt; Archive</text>
<text text-anchor="middle" x="63.45" y="-61.5" font-family="Helvetica,sans-Serif" font-size="10.00">Manager &gt;</text>
</a>
</g>
</g>
<!-- Node2&#45;&gt;Node1 -->
<g id="edge1" class="edge">
<title>Node2&#45;&gt;Node1</title>
<path fill="none" stroke="midnightblue" d="M83.93,-48.02C94,-37.95 105.58,-26.37 113.18,-18.77"/>
<polygon fill="midnightblue" stroke="midnightblue" points="81.21,-45.79 76.61,-55.34 86.16,-50.74 81.21,-45.79"/>
</g>
<!-- Node3 -->
<g id="node3" class="node">
<title>Node3</title>
<g id="a_node3"><a xlink:href="class_ogre_1_1_allocated_object.html" target="_top" xlink:title="Superclass for all objects that wish to use custom memory allocators when their new / delete operator...">
<polygon fill="none" stroke="black" points="144.94,-60.5 144.94,-78.5 215.96,-78.5 215.96,-60.5 144.94,-60.5"/>
<text text-anchor="middle" x="180.45" y="-66.5" font-family="Helvetica,sans-Serif" font-size="10.00">ArchiveAlloc</text>
</a>
</g>
</g>
<!-- Node3&#45;&gt;Node1 -->
<g id="edge2" class="edge">
<title>Node3&#45;&gt;Node1</title>
<path fill="none" stroke="midnightblue" d="M164.85,-53.16C153.68,-42.18 139.06,-27.81 129.97,-18.87"/>
<polygon fill="midnightblue" stroke="midnightblue" points="162.66,-55.92 172.25,-60.44 167.57,-50.93 162.66,-55.92"/>
</g>
</g>
</svg>
