<?xml version="1.0" encoding="UTF-8" standalone="no"?>
<!DOCTYPE svg PUBLIC "-//W3C//DTD SVG 1.1//EN"
 "http://www.w3.org/Graphics/SVG/1.1/DTD/svg11.dtd">
<!-- Generated by graphviz version 2.43.0 (0)
 -->
<!-- Title: Ogre::DefaultWorkQueue Pages: 1 -->
<svg width="159pt" height="192pt"
 viewBox="0.00 0.00 159.44 192.00" xmlns="http://www.w3.org/2000/svg" xmlns:xlink="http://www.w3.org/1999/xlink">
<g id="graph0" class="graph" transform="scale(1 1) rotate(0) translate(4 188)">
<title>Ogre::DefaultWorkQueue</title>
<!-- Node1 -->
<g id="node1" class="node">
<title>Node1</title>
<g id="a_node1"><a xlink:title="Implementation of a general purpose request / response style background work queue.">
<polygon fill="#bfbfbf" stroke="black" points="11.4,-0.5 11.4,-18.5 140.05,-18.5 140.05,-0.5 11.4,-0.5"/>
<text text-anchor="middle" x="75.72" y="-6.5" font-family="Helvetica,sans-Serif" font-size="10.00">Ogre::DefaultWorkQueue</text>
</a>
</g>
</g>
<!-- Node2 -->
<g id="node2" class="node">
<title>Node2</title>
<g id="a_node2"><a xlink:href="class_ogre_1_1_default_work_queue_base.html" target="_top" xlink:title="Base for a general purpose request / response style background work queue.">
<polygon fill="none" stroke="black" points="0,-55.5 0,-73.5 151.44,-73.5 151.44,-55.5 0,-55.5"/>
<text text-anchor="middle" x="75.72" y="-61.5" font-family="Helvetica,sans-Serif" font-size="10.00">Ogre::DefaultWorkQueueBase</text>
</a>
</g>
</g>
<!-- Node2&#45;&gt;Node1 -->
<g id="edge1" class="edge">
<title>Node2&#45;&gt;Node1</title>
<path fill="none" stroke="midnightblue" d="M69.27,-45.17C68.59,-36.09 69.08,-25.59 70.71,-18.55"/>
<polygon fill="midnightblue" stroke="midnightblue" points="65.82,-45.79 70.66,-55.22 72.75,-44.83 65.82,-45.79"/>
</g>
<!-- Node2&#45;&gt;Node1 -->
<g id="edge4" class="edge">
<title>Node2&#45;&gt;Node1</title>
<path fill="none" stroke="midnightblue" d="M82.18,-45.17C82.85,-36.09 82.37,-25.59 80.73,-18.55"/>
<polygon fill="midnightblue" stroke="midnightblue" points="78.69,-44.83 80.78,-55.22 85.63,-45.79 78.69,-44.83"/>
</g>
<!-- Node3 -->
<g id="node3" class="node">
<title>Node3</title>
<g id="a_node3"><a xlink:href="class_ogre_1_1_work_queue.html" target="_top" xlink:title="Interface to a general purpose request / response style background work queue.">
<polygon fill="none" stroke="black" points="27.24,-110.5 27.24,-128.5 124.21,-128.5 124.21,-110.5 27.24,-110.5"/>
<text text-anchor="middle" x="75.72" y="-116.5" font-family="Helvetica,sans-Serif" font-size="10.00">Ogre::WorkQueue</text>
</a>
</g>
</g>
<!-- Node3&#45;&gt;Node2 -->
<g id="edge2" class="edge">
<title>Node3&#45;&gt;Node2</title>
<path fill="none" stroke="midnightblue" d="M75.72,-100.17C75.72,-91.09 75.72,-80.59 75.72,-73.55"/>
<polygon fill="midnightblue" stroke="midnightblue" points="72.22,-100.22 75.72,-110.22 79.22,-100.22 72.22,-100.22"/>
</g>
<!-- Node4 -->
<g id="node4" class="node">
<title>Node4</title>
<g id="a_node4"><a xlink:href="class_ogre_1_1_allocated_object.html" target="_top" xlink:title="Superclass for all objects that wish to use custom memory allocators when their new / delete operator...">
<polygon fill="none" stroke="black" points="44.66,-165.5 44.66,-183.5 106.78,-183.5 106.78,-165.5 44.66,-165.5"/>
<text text-anchor="middle" x="75.72" y="-171.5" font-family="Helvetica,sans-Serif" font-size="10.00">UtilityAlloc</text>
</a>
</g>
</g>
<!-- Node4&#45;&gt;Node3 -->
<g id="edge3" class="edge">
<title>Node4&#45;&gt;Node3</title>
<path fill="none" stroke="midnightblue" d="M75.72,-155.17C75.72,-146.09 75.72,-135.59 75.72,-128.55"/>
<polygon fill="midnightblue" stroke="midnightblue" points="72.22,-155.22 75.72,-165.22 79.22,-155.22 72.22,-155.22"/>
</g>
</g>
</svg>
