<?xml version="1.0" encoding="UTF-8" standalone="no"?>
<!DOCTYPE svg PUBLIC "-//W3C//DTD SVG 1.1//EN"
 "http://www.w3.org/Graphics/SVG/1.1/DTD/svg11.dtd">
<!-- Generated by graphviz version 2.43.0 (0)
 -->
<!-- Title: Ogre::MovableObject Pages: 1 -->
<svg width="773pt" height="777pt"
 viewBox="0.00 0.00 773.37 777.00" xmlns="http://www.w3.org/2000/svg" xmlns:xlink="http://www.w3.org/1999/xlink">
<g id="graph0" class="graph" transform="scale(1 1) rotate(0) translate(4 773)">
<title>Ogre::MovableObject</title>
<!-- Node1 -->
<g id="node1" class="node">
<title>Node1</title>
<g id="a_node1"><a xlink:title="Abstract class defining a movable object in a scene.">
<polygon fill="#bfbfbf" stroke="black" points="150.38,-380.5 150.38,-398.5 260.87,-398.5 260.87,-380.5 150.38,-380.5"/>
<text text-anchor="middle" x="205.62" y="-386.5" font-family="Helvetica,sans-Serif" font-size="10.00">Ogre::MovableObject</text>
</a>
</g>
</g>
<!-- Node5 -->
<g id="node5" class="node">
<title>Node5</title>
<g id="a_node5"><a xlink:href="class_ogre_1_1_decal.html" target="_top" xlink:title=" ">
<polygon fill="none" stroke="black" points="335.78,-750.5 335.78,-768.5 405.14,-768.5 405.14,-750.5 335.78,-750.5"/>
<text text-anchor="middle" x="370.46" y="-756.5" font-family="Helvetica,sans-Serif" font-size="10.00">Ogre::Decal</text>
</a>
</g>
</g>
<!-- Node1&#45;&gt;Node5 -->
<g id="edge4" class="edge">
<title>Node1&#45;&gt;Node5</title>
<path fill="none" stroke="midnightblue" d="M209,-409.05C217.5,-475.85 248.49,-693.51 296.87,-741.5 307.01,-751.56 321.83,-756.3 335.45,-758.43"/>
<polygon fill="midnightblue" stroke="midnightblue" points="212.42,-408.21 207.71,-398.72 205.47,-409.08 212.42,-408.21"/>
</g>
<!-- Node6 -->
<g id="node6" class="node">
<title>Node6</title>
<g id="a_node6"><a xlink:href="class_ogre_1_1_frustum.html" target="_top" xlink:title="A frustum represents a pyramid, capped at the near and far end which is used to represent either a vi...">
<polygon fill="none" stroke="black" points="330.23,-713.5 330.23,-731.5 410.69,-731.5 410.69,-713.5 330.23,-713.5"/>
<text text-anchor="middle" x="370.46" y="-719.5" font-family="Helvetica,sans-Serif" font-size="10.00">Ogre::Frustum</text>
</a>
</g>
</g>
<!-- Node1&#45;&gt;Node6 -->
<g id="edge5" class="edge">
<title>Node1&#45;&gt;Node6</title>
<path fill="none" stroke="midnightblue" d="M205.98,-408.64C205.26,-463.34 211.05,-621.72 296.87,-704.5 305.74,-713.06 318.03,-717.75 329.97,-720.26"/>
<polygon fill="midnightblue" stroke="midnightblue" points="209.48,-408.68 206.21,-398.61 202.49,-408.53 209.48,-408.68"/>
</g>
<!-- Node10 -->
<g id="node10" class="node">
<title>Node10</title>
<g id="a_node10"><a xlink:href="class_ogre_1_1_internal_cubemap_probe.html" target="_top" xlink:title=" ">
<polygon fill="none" stroke="black" points="296.87,-676.5 296.87,-694.5 444.05,-694.5 444.05,-676.5 296.87,-676.5"/>
<text text-anchor="middle" x="370.46" y="-682.5" font-family="Helvetica,sans-Serif" font-size="10.00">Ogre::InternalCubemapProbe</text>
</a>
</g>
</g>
<!-- Node1&#45;&gt;Node10 -->
<g id="edge9" class="edge">
<title>Node1&#45;&gt;Node10</title>
<path fill="none" stroke="midnightblue" d="M206.84,-408.71C208.51,-459.1 220.22,-596.1 296.87,-667.5 300.76,-671.13 305.27,-674.06 310.1,-676.42"/>
<polygon fill="midnightblue" stroke="midnightblue" points="210.34,-408.5 206.61,-398.58 203.34,-408.66 210.34,-408.5"/>
</g>
<!-- Node11 -->
<g id="node11" class="node">
<title>Node11</title>
<g id="a_node11"><a xlink:href="class_ogre_1_1_item.html" target="_top" xlink:title="Defines an instance of a discrete, movable object based on a Mesh.">
<polygon fill="none" stroke="black" points="338.84,-639.5 338.84,-657.5 402.08,-657.5 402.08,-639.5 338.84,-639.5"/>
<text text-anchor="middle" x="370.46" y="-645.5" font-family="Helvetica,sans-Serif" font-size="10.00">Ogre::Item</text>
</a>
</g>
</g>
<!-- Node1&#45;&gt;Node11 -->
<g id="edge10" class="edge">
<title>Node1&#45;&gt;Node11</title>
<path fill="none" stroke="midnightblue" d="M207.93,-408.58C212.11,-454.19 229.21,-570.22 296.87,-630.5 308.21,-640.61 324.35,-645.23 338.53,-647.28"/>
<polygon fill="midnightblue" stroke="midnightblue" points="211.41,-408.26 207.12,-398.58 204.44,-408.83 211.41,-408.26"/>
</g>
<!-- Node12 -->
<g id="node12" class="node">
<title>Node12</title>
<g id="a_node12"><a xlink:href="class_ogre_1_1_light.html" target="_top" xlink:title="Representation of a dynamic light source in the scene.">
<polygon fill="none" stroke="black" points="337.72,-602.5 337.72,-620.5 403.2,-620.5 403.2,-602.5 337.72,-602.5"/>
<text text-anchor="middle" x="370.46" y="-608.5" font-family="Helvetica,sans-Serif" font-size="10.00">Ogre::Light</text>
</a>
</g>
</g>
<!-- Node1&#45;&gt;Node12 -->
<g id="edge11" class="edge">
<title>Node1&#45;&gt;Node12</title>
<path fill="none" stroke="midnightblue" d="M209.44,-408.92C216.4,-449.66 238.32,-544.32 296.87,-593.5 308.2,-603.02 323.84,-607.63 337.69,-609.82"/>
<polygon fill="midnightblue" stroke="midnightblue" points="212.88,-408.27 207.85,-398.94 205.97,-409.37 212.88,-408.27"/>
</g>
<!-- Node14 -->
<g id="node14" class="node">
<title>Node14</title>
<g id="a_node14"><a xlink:href="class_ogre_1_1_manual_object.html" target="_top" xlink:title=" ">
<polygon fill="none" stroke="black" points="317.72,-565.5 317.72,-583.5 423.2,-583.5 423.2,-565.5 317.72,-565.5"/>
<text text-anchor="middle" x="370.46" y="-571.5" font-family="Helvetica,sans-Serif" font-size="10.00">Ogre::ManualObject</text>
</a>
</g>
</g>
<!-- Node1&#45;&gt;Node14 -->
<g id="edge13" class="edge">
<title>Node1&#45;&gt;Node14</title>
<path fill="none" stroke="midnightblue" d="M211.45,-408.71C221.28,-443.73 247.03,-517.89 296.87,-556.5 302.92,-561.19 310.04,-564.68 317.41,-567.26"/>
<polygon fill="midnightblue" stroke="midnightblue" points="214.77,-407.57 208.81,-398.81 208.01,-409.38 214.77,-407.57"/>
</g>
<!-- Node15 -->
<g id="node15" class="node">
<title>Node15</title>
<g id="a_node15"><a xlink:href="class_ogre_1_1_movable_plane.html" target="_top" xlink:title="Definition of a Plane that may be attached to a node, and the derived details of it retrieved simply.">
<polygon fill="none" stroke="black" points="316.88,-528.5 316.88,-546.5 424.04,-546.5 424.04,-528.5 316.88,-528.5"/>
<text text-anchor="middle" x="370.46" y="-534.5" font-family="Helvetica,sans-Serif" font-size="10.00">Ogre::MovablePlane</text>
</a>
</g>
</g>
<!-- Node1&#45;&gt;Node15 -->
<g id="edge14" class="edge">
<title>Node1&#45;&gt;Node15</title>
<path fill="none" stroke="midnightblue" d="M214.26,-408C227,-436.52 255.36,-490.89 296.87,-519.5 302.85,-523.63 309.69,-526.81 316.73,-529.26"/>
<polygon fill="midnightblue" stroke="midnightblue" points="217.45,-406.56 210.27,-398.76 211.02,-409.33 217.45,-406.56"/>
</g>
<!-- Node16 -->
<g id="node16" class="node">
<title>Node16</title>
<g id="a_node16"><a xlink:href="class_ogre_1_1_null_entity.html" target="_top" xlink:title=" ">
<polygon fill="none" stroke="black" points="327.45,-491.5 327.45,-509.5 413.47,-509.5 413.47,-491.5 327.45,-491.5"/>
<text text-anchor="middle" x="370.46" y="-497.5" font-family="Helvetica,sans-Serif" font-size="10.00">Ogre::NullEntity</text>
</a>
</g>
</g>
<!-- Node1&#45;&gt;Node16 -->
<g id="edge15" class="edge">
<title>Node1&#45;&gt;Node16</title>
<path fill="none" stroke="midnightblue" d="M218.67,-406.88C234.25,-428.02 263.4,-463.26 296.87,-482.5 306.1,-487.81 316.86,-491.56 327.23,-494.21"/>
<polygon fill="midnightblue" stroke="midnightblue" points="221.34,-404.61 212.67,-398.52 215.65,-408.69 221.34,-404.61"/>
</g>
<!-- Node17 -->
<g id="node17" class="node">
<title>Node17</title>
<g id="a_node17"><a xlink:href="class_ogre_1_1_particle_system.html" target="_top" xlink:title="Class defining particle system based special effects.">
<polygon fill="none" stroke="black" points="315.22,-454.5 315.22,-472.5 425.7,-472.5 425.7,-454.5 315.22,-454.5"/>
<text text-anchor="middle" x="370.46" y="-460.5" font-family="Helvetica,sans-Serif" font-size="10.00">Ogre::ParticleSystem</text>
</a>
</g>
</g>
<!-- Node1&#45;&gt;Node17 -->
<g id="edge16" class="edge">
<title>Node1&#45;&gt;Node17</title>
<path fill="none" stroke="midnightblue" d="M227.24,-404.48C244.95,-416.74 271.56,-433.75 296.87,-444.5 306.22,-448.47 316.61,-451.79 326.54,-454.48"/>
<polygon fill="midnightblue" stroke="midnightblue" points="229.04,-401.46 218.85,-398.56 225,-407.18 229.04,-401.46"/>
</g>
<!-- Node18 -->
<g id="node18" class="node">
<title>Node18</title>
<g id="a_node18"><a xlink:href="class_ogre_1_1_portal_base.html" target="_top" xlink:title="PortalBase &#45; Base class to Portal and AntiPortal classes.">
<polygon fill="none" stroke="black" points="324.11,-417.5 324.11,-435.5 416.81,-435.5 416.81,-417.5 324.11,-417.5"/>
<text text-anchor="middle" x="370.46" y="-423.5" font-family="Helvetica,sans-Serif" font-size="10.00">Ogre::PortalBase</text>
</a>
</g>
</g>
<!-- Node1&#45;&gt;Node18 -->
<g id="edge17" class="edge">
<title>Node1&#45;&gt;Node18</title>
<path fill="none" stroke="midnightblue" d="M256.27,-400.78C279.84,-406.14 307.61,-412.45 329.75,-417.48"/>
<polygon fill="midnightblue" stroke="midnightblue" points="256.98,-397.35 246.46,-398.55 255.43,-404.18 256.98,-397.35"/>
</g>
<!-- Node21 -->
<g id="node21" class="node">
<title>Node21</title>
<g id="a_node21"><a xlink:href="class_ogre_1_1_rectangle2_d.html" target="_top" xlink:title=" ">
<polygon fill="none" stroke="black" points="319.66,-380.5 319.66,-398.5 421.26,-398.5 421.26,-380.5 319.66,-380.5"/>
<text text-anchor="middle" x="370.46" y="-386.5" font-family="Helvetica,sans-Serif" font-size="10.00">Ogre::Rectangle2D</text>
</a>
</g>
</g>
<!-- Node1&#45;&gt;Node21 -->
<g id="edge20" class="edge">
<title>Node1&#45;&gt;Node21</title>
<path fill="none" stroke="midnightblue" d="M271.64,-389.5C287.61,-389.5 304.46,-389.5 319.59,-389.5"/>
<polygon fill="midnightblue" stroke="midnightblue" points="271.3,-386 261.3,-389.5 271.3,-393 271.3,-386"/>
</g>
<!-- Node22 -->
<g id="node22" class="node">
<title>Node22</title>
<g id="a_node22"><a xlink:href="class_ogre_1_1v1_1_1_billboard_chain.html" target="_top" xlink:title="Allows the rendering of a chain of connected billboards.">
<polygon fill="none" stroke="black" points="307.99,-343.5 307.99,-361.5 432.93,-361.5 432.93,-343.5 307.99,-343.5"/>
<text text-anchor="middle" x="370.46" y="-349.5" font-family="Helvetica,sans-Serif" font-size="10.00">Ogre::v1::BillboardChain</text>
</a>
</g>
</g>
<!-- Node1&#45;&gt;Node22 -->
<g id="edge21" class="edge">
<title>Node1&#45;&gt;Node22</title>
<path fill="none" stroke="midnightblue" d="M256.27,-378.22C279.84,-372.86 307.61,-366.55 329.75,-361.52"/>
<polygon fill="midnightblue" stroke="midnightblue" points="255.43,-374.82 246.46,-380.45 256.98,-381.65 255.43,-374.82"/>
</g>
<!-- Node24 -->
<g id="node24" class="node">
<title>Node24</title>
<g id="a_node24"><a xlink:href="class_ogre_1_1v1_1_1_billboard_set.html" target="_top" xlink:title="A collection of billboards (faces which are always facing the given direction) with the same (default...">
<polygon fill="none" stroke="black" points="313.55,-306.5 313.55,-324.5 427.37,-324.5 427.37,-306.5 313.55,-306.5"/>
<text text-anchor="middle" x="370.46" y="-312.5" font-family="Helvetica,sans-Serif" font-size="10.00">Ogre::v1::BillboardSet</text>
</a>
</g>
</g>
<!-- Node1&#45;&gt;Node24 -->
<g id="edge23" class="edge">
<title>Node1&#45;&gt;Node24</title>
<path fill="none" stroke="midnightblue" d="M226.86,-374.36C244.52,-361.8 271.26,-344.3 296.87,-333.5 305.36,-329.92 314.73,-326.94 323.83,-324.5"/>
<polygon fill="midnightblue" stroke="midnightblue" points="224.55,-371.71 218.51,-380.42 228.66,-377.38 224.55,-371.71"/>
</g>
<!-- Node25 -->
<g id="node25" class="node">
<title>Node25</title>
<g id="a_node25"><a xlink:href="class_ogre_1_1v1_1_1_entity.html" target="_top" xlink:title="Defines an instance of a discrete, movable object based on a Mesh.">
<polygon fill="none" stroke="black" points="328,-269.5 328,-287.5 412.92,-287.5 412.92,-269.5 328,-269.5"/>
<text text-anchor="middle" x="370.46" y="-275.5" font-family="Helvetica,sans-Serif" font-size="10.00">Ogre::v1::Entity</text>
</a>
</g>
</g>
<!-- Node1&#45;&gt;Node25 -->
<g id="edge24" class="edge">
<title>Node1&#45;&gt;Node25</title>
<path fill="none" stroke="midnightblue" d="M218.67,-372.12C234.25,-350.98 263.4,-315.74 296.87,-296.5 306.32,-291.06 317.39,-287.26 327.99,-284.6"/>
<polygon fill="midnightblue" stroke="midnightblue" points="215.65,-370.31 212.67,-380.48 221.34,-374.39 215.65,-370.31"/>
</g>
<!-- Node26 -->
<g id="node26" class="node">
<title>Node26</title>
<g id="a_node26"><a xlink:href="class_ogre_1_1v1_1_1_manual_object.html" target="_top" xlink:title="Class providing a much simplified interface to generating manual objects with custom geometry.">
<polygon fill="none" stroke="black" points="309.66,-232.5 309.66,-250.5 431.26,-250.5 431.26,-232.5 309.66,-232.5"/>
<text text-anchor="middle" x="370.46" y="-238.5" font-family="Helvetica,sans-Serif" font-size="10.00">Ogre::v1::ManualObject</text>
</a>
</g>
</g>
<!-- Node1&#45;&gt;Node26 -->
<g id="edge25" class="edge">
<title>Node1&#45;&gt;Node26</title>
<path fill="none" stroke="midnightblue" d="M214.26,-371C227,-342.48 255.36,-288.11 296.87,-259.5 302.21,-255.82 308.24,-252.88 314.48,-250.55"/>
<polygon fill="midnightblue" stroke="midnightblue" points="211.02,-369.67 210.27,-380.24 217.45,-372.44 211.02,-369.67"/>
</g>
<!-- Node27 -->
<g id="node27" class="node">
<title>Node27</title>
<g id="a_node27"><a xlink:href="class_ogre_1_1v1_1_1_overlay.html" target="_top" xlink:title="Represents a layer which is rendered on top of the &#39;normal&#39; scene contents.">
<polygon fill="none" stroke="black" points="323.28,-195.5 323.28,-213.5 417.64,-213.5 417.64,-195.5 323.28,-195.5"/>
<text text-anchor="middle" x="370.46" y="-201.5" font-family="Helvetica,sans-Serif" font-size="10.00">Ogre::v1::Overlay</text>
</a>
</g>
</g>
<!-- Node1&#45;&gt;Node27 -->
<g id="edge26" class="edge">
<title>Node1&#45;&gt;Node27</title>
<path fill="none" stroke="midnightblue" d="M211.45,-370.29C221.28,-335.27 247.03,-261.11 296.87,-222.5 304.46,-216.61 313.73,-212.63 323.07,-209.93"/>
<polygon fill="midnightblue" stroke="midnightblue" points="208.01,-369.62 208.81,-380.19 214.77,-371.43 208.01,-369.62"/>
</g>
<!-- Node28 -->
<g id="node28" class="node">
<title>Node28</title>
<g id="a_node28"><a xlink:href="class_ogre_1_1v1_1_1_rectangle2_d.html" target="_top" xlink:title="Allows the rendering of a simple 2D rectangle This class renders a simple 2D rectangle; this rectangl...">
<polygon fill="none" stroke="black" points="311.6,-158.5 311.6,-176.5 429.32,-176.5 429.32,-158.5 311.6,-158.5"/>
<text text-anchor="middle" x="370.46" y="-164.5" font-family="Helvetica,sans-Serif" font-size="10.00">Ogre::v1::Rectangle2D</text>
</a>
</g>
</g>
<!-- Node1&#45;&gt;Node28 -->
<g id="edge27" class="edge">
<title>Node1&#45;&gt;Node28</title>
<path fill="none" stroke="midnightblue" d="M209.44,-370.08C216.4,-329.34 238.32,-234.68 296.87,-185.5 301.24,-181.83 306.26,-178.88 311.56,-176.53"/>
<polygon fill="midnightblue" stroke="midnightblue" points="205.97,-369.63 207.85,-380.06 212.88,-370.73 205.97,-369.63"/>
</g>
<!-- Node29 -->
<g id="node29" class="node">
<title>Node29</title>
<g id="a_node29"><a xlink:href="class_ogre_1_1v1_1_1_simple_renderable.html" target="_top" xlink:title="Simple implementation of MovableObject and Renderable for single&#45;part custom objects.">
<polygon fill="none" stroke="black" points="299.37,-121.5 299.37,-139.5 441.55,-139.5 441.55,-121.5 299.37,-121.5"/>
<text text-anchor="middle" x="370.46" y="-127.5" font-family="Helvetica,sans-Serif" font-size="10.00">Ogre::v1::SimpleRenderable</text>
</a>
</g>
</g>
<!-- Node1&#45;&gt;Node29 -->
<g id="edge28" class="edge">
<title>Node1&#45;&gt;Node29</title>
<path fill="none" stroke="midnightblue" d="M207.93,-370.42C212.11,-324.81 229.21,-208.78 296.87,-148.5 300.94,-144.87 305.63,-141.95 310.62,-139.6"/>
<polygon fill="midnightblue" stroke="midnightblue" points="204.44,-370.17 207.12,-380.42 211.41,-370.74 204.44,-370.17"/>
</g>
<!-- Node31 -->
<g id="node31" class="node">
<title>Node31</title>
<g id="a_node31"><a xlink:href="class_ogre_1_1v1_1_1_static_geometry_1_1_region.html" target="_top" xlink:title="The details of a topological region which is the highest level of partitioning for this class.">
<polygon fill="none" stroke="black" points="306.05,-74.5 306.05,-102.5 434.87,-102.5 434.87,-74.5 306.05,-74.5"/>
<text text-anchor="start" x="314.05" y="-90.5" font-family="Helvetica,sans-Serif" font-size="10.00">Ogre::v1::StaticGeometry</text>
<text text-anchor="middle" x="370.46" y="-80.5" font-family="Helvetica,sans-Serif" font-size="10.00">::Region</text>
</a>
</g>
</g>
<!-- Node1&#45;&gt;Node31 -->
<g id="edge30" class="edge">
<title>Node1&#45;&gt;Node31</title>
<path fill="none" stroke="midnightblue" d="M207.12,-370.23C209.46,-320.23 222.71,-185.14 296.87,-111.5 300.34,-108.05 304.32,-105.12 308.6,-102.63"/>
<polygon fill="midnightblue" stroke="midnightblue" points="203.62,-370.17 206.75,-380.29 210.61,-370.43 203.62,-370.17"/>
</g>
<!-- Node32 -->
<g id="node32" class="node">
<title>Node32</title>
<g id="a_node32"><a xlink:href="class_ogre_1_1_voxel_visualizer.html" target="_top" xlink:title=" ">
<polygon fill="none" stroke="black" points="314.74,-37.5 314.74,-55.5 426.17,-55.5 426.17,-37.5 314.74,-37.5"/>
<text text-anchor="middle" x="370.46" y="-43.5" font-family="Helvetica,sans-Serif" font-size="10.00">Ogre::VoxelVisualizer</text>
</a>
</g>
</g>
<!-- Node1&#45;&gt;Node32 -->
<g id="edge31" class="edge">
<title>Node1&#45;&gt;Node32</title>
<path fill="none" stroke="midnightblue" d="M209.4,-370.22C218.87,-307.13 251.81,-108.32 296.87,-64.5 301.89,-59.61 308.03,-55.98 314.58,-53.3"/>
<polygon fill="midnightblue" stroke="midnightblue" points="205.9,-369.95 207.91,-380.36 212.83,-370.97 205.9,-369.95"/>
</g>
<!-- Node33 -->
<g id="node33" class="node">
<title>Node33</title>
<g id="a_node33"><a xlink:href="class_ogre_1_1_wire_aabb.html" target="_top" xlink:title="Helper class to display the Aabb of a MovableObject as lines.">
<polygon fill="none" stroke="black" points="326.61,-0.5 326.61,-18.5 414.31,-18.5 414.31,-0.5 326.61,-0.5"/>
<text text-anchor="middle" x="370.46" y="-6.5" font-family="Helvetica,sans-Serif" font-size="10.00">Ogre::WireAabb</text>
</a>
</g>
</g>
<!-- Node1&#45;&gt;Node33 -->
<g id="edge32" class="edge">
<title>Node1&#45;&gt;Node33</title>
<path fill="none" stroke="midnightblue" d="M208.81,-370.27C216.89,-302.63 247.15,-77.15 296.87,-27.5 304.77,-19.61 315.55,-14.99 326.39,-12.33"/>
<polygon fill="midnightblue" stroke="midnightblue" points="205.32,-370.02 207.63,-380.35 212.27,-370.83 205.32,-370.02"/>
</g>
<!-- Node2 -->
<g id="node2" class="node">
<title>Node2</title>
<g id="a_node2"><a xlink:href="class_ogre_1_1_animable_object.html" target="_top" xlink:title="Defines an interface to classes which have one or more AnimableValue instances to expose.">
<polygon fill="none" stroke="black" points="0,-417.5 0,-435.5 114.38,-435.5 114.38,-417.5 0,-417.5"/>
<text text-anchor="middle" x="57.19" y="-423.5" font-family="Helvetica,sans-Serif" font-size="10.00">Ogre::AnimableObject</text>
</a>
</g>
</g>
<!-- Node2&#45;&gt;Node1 -->
<g id="edge1" class="edge">
<title>Node2&#45;&gt;Node1</title>
<path fill="none" stroke="midnightblue" d="M103.97,-414.93C124.92,-409.64 149.36,-403.46 168.92,-398.52"/>
<polygon fill="midnightblue" stroke="midnightblue" points="102.85,-411.61 94.01,-417.45 104.56,-418.39 102.85,-411.61"/>
</g>
<!-- Node3 -->
<g id="node3" class="node">
<title>Node3</title>
<g id="a_node3"><a xlink:href="class_ogre_1_1_allocated_object.html" target="_top" xlink:title="Superclass for all objects that wish to use custom memory allocators when their new / delete operator...">
<polygon fill="none" stroke="black" points="19.45,-380.5 19.45,-398.5 94.93,-398.5 94.93,-380.5 19.45,-380.5"/>
<text text-anchor="middle" x="57.19" y="-386.5" font-family="Helvetica,sans-Serif" font-size="10.00">MovableAlloc</text>
</a>
</g>
</g>
<!-- Node3&#45;&gt;Node1 -->
<g id="edge2" class="edge">
<title>Node3&#45;&gt;Node1</title>
<path fill="none" stroke="midnightblue" d="M105.27,-389.5C119.6,-389.5 135.47,-389.5 150.25,-389.5"/>
<polygon fill="midnightblue" stroke="midnightblue" points="105.14,-386 95.14,-389.5 105.14,-393 105.14,-386"/>
</g>
<!-- Node4 -->
<g id="node4" class="node">
<title>Node4</title>
<g id="a_node4"><a xlink:href="class_ogre_1_1_id_object.html" target="_top" xlink:title=" ">
<polygon fill="none" stroke="black" points="16.67,-343.5 16.67,-361.5 97.7,-361.5 97.7,-343.5 16.67,-343.5"/>
<text text-anchor="middle" x="57.19" y="-349.5" font-family="Helvetica,sans-Serif" font-size="10.00">Ogre::IdObject</text>
</a>
</g>
</g>
<!-- Node4&#45;&gt;Node1 -->
<g id="edge3" class="edge">
<title>Node4&#45;&gt;Node1</title>
<path fill="none" stroke="midnightblue" d="M103.97,-364.07C124.92,-369.36 149.36,-375.54 168.92,-380.48"/>
<polygon fill="midnightblue" stroke="midnightblue" points="104.56,-360.61 94.01,-361.55 102.85,-367.39 104.56,-360.61"/>
</g>
<!-- Node7 -->
<g id="node7" class="node">
<title>Node7</title>
<g id="a_node7"><a xlink:href="class_ogre_1_1_camera.html" target="_top" xlink:title="A viewpoint from which the scene will be rendered.">
<polygon fill="none" stroke="black" points="510.35,-713.5 510.35,-731.5 589.71,-731.5 589.71,-713.5 510.35,-713.5"/>
<text text-anchor="middle" x="550.03" y="-719.5" font-family="Helvetica,sans-Serif" font-size="10.00">Ogre::Camera</text>
</a>
</g>
</g>
<!-- Node6&#45;&gt;Node7 -->
<g id="edge6" class="edge">
<title>Node6&#45;&gt;Node7</title>
<path fill="none" stroke="midnightblue" d="M420.95,-722.5C449.2,-722.5 484.11,-722.5 510.34,-722.5"/>
<polygon fill="midnightblue" stroke="midnightblue" points="420.87,-719 410.87,-722.5 420.87,-726 420.87,-719"/>
</g>
<!-- Node8 -->
<g id="node8" class="node">
<title>Node8</title>
<g id="a_node8"><a xlink:href="class_ogre_1_1_octree_camera.html" target="_top" xlink:title="Specialized viewpoint from which an Octree can be rendered.">
<polygon fill="none" stroke="black" points="656,-731.5 656,-749.5 765.37,-749.5 765.37,-731.5 656,-731.5"/>
<text text-anchor="middle" x="710.69" y="-737.5" font-family="Helvetica,sans-Serif" font-size="10.00">Ogre::OctreeCamera</text>
</a>
</g>
</g>
<!-- Node7&#45;&gt;Node8 -->
<g id="edge7" class="edge">
<title>Node7&#45;&gt;Node8</title>
<path fill="none" stroke="midnightblue" d="M599.98,-728.05C617.73,-730.07 637.87,-732.35 656,-734.41"/>
<polygon fill="midnightblue" stroke="midnightblue" points="600.17,-724.55 589.84,-726.9 599.38,-731.51 600.17,-724.55"/>
</g>
<!-- Node9 -->
<g id="node9" class="node">
<title>Node9</title>
<g id="a_node9"><a xlink:href="class_ogre_1_1_p_c_z_camera.html" target="_top" xlink:title="Specialized viewpoint from which an PCZone Scene can be rendered.">
<polygon fill="none" stroke="black" points="661.01,-694.5 661.01,-712.5 760.36,-712.5 760.36,-694.5 661.01,-694.5"/>
<text text-anchor="middle" x="710.69" y="-700.5" font-family="Helvetica,sans-Serif" font-size="10.00">Ogre::PCZCamera</text>
</a>
</g>
</g>
<!-- Node7&#45;&gt;Node9 -->
<g id="edge8" class="edge">
<title>Node7&#45;&gt;Node9</title>
<path fill="none" stroke="midnightblue" d="M599.95,-716.64C619.27,-714.33 641.43,-711.67 660.75,-709.36"/>
<polygon fill="midnightblue" stroke="midnightblue" points="599.35,-713.19 589.84,-717.85 600.19,-720.14 599.35,-713.19"/>
</g>
<!-- Node13 -->
<g id="node13" class="node">
<title>Node13</title>
<g id="a_node13"><a xlink:href="class_ogre_1_1_p_c_z_light.html" target="_top" xlink:title="Specialized version of Ogre::Light which caches which zones the light affects.">
<polygon fill="none" stroke="black" points="507.29,-602.5 507.29,-620.5 592.76,-620.5 592.76,-602.5 507.29,-602.5"/>
<text text-anchor="middle" x="550.03" y="-608.5" font-family="Helvetica,sans-Serif" font-size="10.00">Ogre::PCZLight</text>
</a>
</g>
</g>
<!-- Node12&#45;&gt;Node13 -->
<g id="edge12" class="edge">
<title>Node12&#45;&gt;Node13</title>
<path fill="none" stroke="midnightblue" d="M413.58,-611.5C441.86,-611.5 478.98,-611.5 507.2,-611.5"/>
<polygon fill="midnightblue" stroke="midnightblue" points="413.21,-608 403.21,-611.5 413.21,-615 413.21,-608"/>
</g>
<!-- Node19 -->
<g id="node19" class="node">
<title>Node19</title>
<g id="a_node19"><a xlink:href="class_ogre_1_1_anti_portal.html" target="_top" xlink:title="AntiPortal datastructure for occlusion culling.">
<polygon fill="none" stroke="black" points="506.46,-436.5 506.46,-454.5 593.6,-454.5 593.6,-436.5 506.46,-436.5"/>
<text text-anchor="middle" x="550.03" y="-442.5" font-family="Helvetica,sans-Serif" font-size="10.00">Ogre::AntiPortal</text>
</a>
</g>
</g>
<!-- Node18&#45;&gt;Node19 -->
<g id="edge18" class="edge">
<title>Node18&#45;&gt;Node19</title>
<path fill="none" stroke="midnightblue" d="M427.45,-432.49C452.91,-435.22 482.56,-438.39 506.2,-440.92"/>
<polygon fill="midnightblue" stroke="midnightblue" points="427.5,-428.98 417.19,-431.39 426.76,-435.94 427.5,-428.98"/>
</g>
<!-- Node20 -->
<g id="node20" class="node">
<title>Node20</title>
<g id="a_node20"><a xlink:href="class_ogre_1_1_portal.html" target="_top" xlink:title="Portal datastructure for connecting zones.">
<polygon fill="none" stroke="black" points="515.07,-399.5 515.07,-417.5 584.98,-417.5 584.98,-399.5 515.07,-399.5"/>
<text text-anchor="middle" x="550.03" y="-405.5" font-family="Helvetica,sans-Serif" font-size="10.00">Ogre::Portal</text>
</a>
</g>
</g>
<!-- Node18&#45;&gt;Node20 -->
<g id="edge19" class="edge">
<title>Node18&#45;&gt;Node20</title>
<path fill="none" stroke="midnightblue" d="M427.5,-420.82C456.2,-417.91 490.22,-414.46 514.95,-411.95"/>
<polygon fill="midnightblue" stroke="midnightblue" points="426.78,-417.37 417.19,-421.86 427.49,-424.34 426.78,-417.37"/>
</g>
<!-- Node23 -->
<g id="node23" class="node">
<title>Node23</title>
<g id="a_node23"><a xlink:href="class_ogre_1_1v1_1_1_ribbon_trail.html" target="_top" xlink:title="Subclass of BillboardChain which automatically leaves a trail behind one or more Node instances.">
<polygon fill="none" stroke="black" points="494.69,-343.5 494.69,-361.5 605.36,-361.5 605.36,-343.5 494.69,-343.5"/>
<text text-anchor="middle" x="550.03" y="-349.5" font-family="Helvetica,sans-Serif" font-size="10.00">Ogre::v1::RibbonTrail</text>
</a>
</g>
</g>
<!-- Node22&#45;&gt;Node23 -->
<g id="edge22" class="edge">
<title>Node22&#45;&gt;Node23</title>
<path fill="none" stroke="midnightblue" d="M443.07,-352.5C460.27,-352.5 478.37,-352.5 494.64,-352.5"/>
<polygon fill="midnightblue" stroke="midnightblue" points="443.07,-349 433.07,-352.5 443.07,-356 443.07,-349"/>
</g>
<!-- Node30 -->
<g id="node30" class="node">
<title>Node30</title>
<g id="a_node30"><a xlink:href="class_ogre_1_1v1_1_1_wire_bounding_box.html" target="_top" xlink:title="Allows the rendering of a wireframe bounding box.">
<polygon fill="none" stroke="black" points="480.05,-121.5 480.05,-139.5 620,-139.5 620,-121.5 480.05,-121.5"/>
<text text-anchor="middle" x="550.03" y="-127.5" font-family="Helvetica,sans-Serif" font-size="10.00">Ogre::v1::WireBoundingBox</text>
</a>
</g>
</g>
<!-- Node29&#45;&gt;Node30 -->
<g id="edge29" class="edge">
<title>Node29&#45;&gt;Node30</title>
<path fill="none" stroke="midnightblue" d="M451.77,-130.5C461.18,-130.5 470.71,-130.5 479.94,-130.5"/>
<polygon fill="midnightblue" stroke="midnightblue" points="451.64,-127 441.64,-130.5 451.64,-134 451.64,-127"/>
</g>
</g>
</svg>
