<?xml version="1.0" encoding="UTF-8" standalone="no"?>
<!DOCTYPE svg PUBLIC "-//W3C//DTD SVG 1.1//EN"
 "http://www.w3.org/Graphics/SVG/1.1/DTD/svg11.dtd">
<!-- Generated by graphviz version 2.43.0 (0)
 -->
<!-- Title: Ogre::StagingTexture Pages: 1 -->
<svg width="466pt" height="192pt"
 viewBox="0.00 0.00 466.48 192.00" xmlns="http://www.w3.org/2000/svg" xmlns:xlink="http://www.w3.org/1999/xlink">
<g id="graph0" class="graph" transform="scale(1 1) rotate(0) translate(4 188)">
<title>Ogre::StagingTexture</title>
<!-- Node1 -->
<g id="node1" class="node">
<title>Node1</title>
<g id="a_node1"><a xlink:title="A StagingTexture is an intermediate texture that can be read and be written from both CPU &amp; GPU.">
<polygon fill="#bfbfbf" stroke="black" points="98.2,-110.5 98.2,-128.5 208.69,-128.5 208.69,-110.5 98.2,-110.5"/>
<text text-anchor="middle" x="153.44" y="-116.5" font-family="Helvetica,sans-Serif" font-size="10.00">Ogre::StagingTexture</text>
</a>
</g>
</g>
<!-- Node3 -->
<g id="node3" class="node">
<title>Node3</title>
<g id="a_node3"><a xlink:href="class_ogre_1_1_d3_d11_staging_texture.html" target="_top" xlink:title=" ">
<polygon fill="none" stroke="black" points="0,-55.5 0,-73.5 140.89,-73.5 140.89,-55.5 0,-55.5"/>
<text text-anchor="middle" x="70.44" y="-61.5" font-family="Helvetica,sans-Serif" font-size="10.00">Ogre::D3D11StagingTexture</text>
</a>
</g>
</g>
<!-- Node1&#45;&gt;Node3 -->
<g id="edge2" class="edge">
<title>Node1&#45;&gt;Node3</title>
<path fill="none" stroke="midnightblue" d="M132.38,-105.05C116.86,-95.14 96.25,-81.98 83.17,-73.63"/>
<polygon fill="midnightblue" stroke="midnightblue" points="130.53,-108.02 140.84,-110.45 134.29,-102.12 130.53,-108.02"/>
</g>
<!-- Node4 -->
<g id="node4" class="node">
<title>Node4</title>
<g id="a_node4"><a xlink:href="class_ogre_1_1_staging_texture_buffer_impl.html" target="_top" xlink:title="This implementation can be used by all RenderSystem APIs except D3D11, which is why this implementati...">
<polygon fill="none" stroke="black" points="158.5,-55.5 158.5,-73.5 314.39,-73.5 314.39,-55.5 158.5,-55.5"/>
<text text-anchor="middle" x="236.44" y="-61.5" font-family="Helvetica,sans-Serif" font-size="10.00">Ogre::StagingTextureBufferImpl</text>
</a>
</g>
</g>
<!-- Node1&#45;&gt;Node4 -->
<g id="edge3" class="edge">
<title>Node1&#45;&gt;Node4</title>
<path fill="none" stroke="midnightblue" d="M174.51,-105.05C190.03,-95.14 210.63,-81.98 223.72,-73.63"/>
<polygon fill="midnightblue" stroke="midnightblue" points="172.59,-102.12 166.05,-110.45 176.36,-108.02 172.59,-102.12"/>
</g>
<!-- Node2 -->
<g id="node2" class="node">
<title>Node2</title>
<g id="a_node2"><a xlink:href="class_ogre_1_1_allocated_object.html" target="_top" xlink:title="Superclass for all objects that wish to use custom memory allocators when their new / delete operator...">
<polygon fill="none" stroke="black" points="109.87,-165.5 109.87,-183.5 197.02,-183.5 197.02,-165.5 109.87,-165.5"/>
<text text-anchor="middle" x="153.44" y="-171.5" font-family="Helvetica,sans-Serif" font-size="10.00">RenderSysAlloc</text>
</a>
</g>
</g>
<!-- Node2&#45;&gt;Node1 -->
<g id="edge1" class="edge">
<title>Node2&#45;&gt;Node1</title>
<path fill="none" stroke="midnightblue" d="M153.44,-155.17C153.44,-146.09 153.44,-135.59 153.44,-128.55"/>
<polygon fill="midnightblue" stroke="midnightblue" points="149.94,-155.22 153.44,-165.22 156.94,-155.22 149.94,-155.22"/>
</g>
<!-- Node5 -->
<g id="node5" class="node">
<title>Node5</title>
<g id="a_node5"><a xlink:href="class_ogre_1_1_g_l3_plus_staging_texture.html" target="_top" xlink:title=" ">
<polygon fill="none" stroke="black" points="2.02,-0.5 2.02,-18.5 150.87,-18.5 150.87,-0.5 2.02,-0.5"/>
<text text-anchor="middle" x="76.44" y="-6.5" font-family="Helvetica,sans-Serif" font-size="10.00">Ogre::GL3PlusStagingTexture</text>
</a>
</g>
</g>
<!-- Node4&#45;&gt;Node5 -->
<g id="edge4" class="edge">
<title>Node4&#45;&gt;Node5</title>
<path fill="none" stroke="midnightblue" d="M202.35,-52.21C171.81,-42.09 127.79,-27.51 100.71,-18.54"/>
<polygon fill="midnightblue" stroke="midnightblue" points="201.55,-55.63 212.14,-55.45 203.75,-48.98 201.55,-55.63"/>
</g>
<!-- Node6 -->
<g id="node6" class="node">
<title>Node6</title>
<g id="a_node6"><a xlink:href="class_ogre_1_1_metal_staging_texture.html" target="_top" xlink:title=" ">
<polygon fill="none" stroke="black" points="168.97,-0.5 168.97,-18.5 303.92,-18.5 303.92,-0.5 168.97,-0.5"/>
<text text-anchor="middle" x="236.44" y="-6.5" font-family="Helvetica,sans-Serif" font-size="10.00">Ogre::MetalStagingTexture</text>
</a>
</g>
</g>
<!-- Node4&#45;&gt;Node6 -->
<g id="edge5" class="edge">
<title>Node4&#45;&gt;Node6</title>
<path fill="none" stroke="midnightblue" d="M236.44,-45.17C236.44,-36.09 236.44,-25.59 236.44,-18.55"/>
<polygon fill="midnightblue" stroke="midnightblue" points="232.94,-45.22 236.44,-55.22 239.94,-45.22 232.94,-45.22"/>
</g>
<!-- Node7 -->
<g id="node7" class="node">
<title>Node7</title>
<g id="a_node7"><a xlink:href="class_ogre_1_1_n_u_l_l_staging_texture.html" target="_top" xlink:title=" ">
<polygon fill="none" stroke="black" points="322.41,-0.5 322.41,-18.5 458.48,-18.5 458.48,-0.5 322.41,-0.5"/>
<text text-anchor="middle" x="390.44" y="-6.5" font-family="Helvetica,sans-Serif" font-size="10.00">Ogre::NULLStagingTexture</text>
</a>
</g>
</g>
<!-- Node4&#45;&gt;Node7 -->
<g id="edge6" class="edge">
<title>Node4&#45;&gt;Node7</title>
<path fill="none" stroke="midnightblue" d="M269.64,-52.07C299.02,-41.96 341.13,-27.47 367.09,-18.54"/>
<polygon fill="midnightblue" stroke="midnightblue" points="268.15,-48.89 259.83,-55.45 270.43,-55.51 268.15,-48.89"/>
</g>
</g>
</svg>
