<?xml version="1.0" encoding="UTF-8" standalone="no"?>
<!DOCTYPE svg PUBLIC "-//W3C//DTD SVG 1.1//EN"
 "http://www.w3.org/Graphics/SVG/1.1/DTD/svg11.dtd">
<!-- Generated by graphviz version 2.43.0 (0)
 -->
<!-- Title: Ogre::DepthBuffer Pages: 1 -->
<svg width="399pt" height="175pt"
 viewBox="0.00 0.00 399.45 175.00" xmlns="http://www.w3.org/2000/svg" xmlns:xlink="http://www.w3.org/1999/xlink">
<g id="graph0" class="graph" transform="scale(1 1) rotate(0) translate(4 171)">
<title>Ogre::DepthBuffer</title>
<!-- Node1 -->
<g id="node1" class="node">
<title>Node1</title>
<g id="a_node1"><a xlink:title="An abstract class that contains a depth/stencil buffer.">
<polygon fill="#bfbfbf" stroke="black" points="123.14,-74.5 123.14,-92.5 220.12,-92.5 220.12,-74.5 123.14,-74.5"/>
<text text-anchor="middle" x="171.63" y="-80.5" font-family="Helvetica,sans-Serif" font-size="10.00">Ogre::DepthBuffer</text>
</a>
</g>
</g>
<!-- Node3 -->
<g id="node3" class="node">
<title>Node3</title>
<g id="a_node3"><a xlink:href="class_ogre_1_1_d3_d11_depth_buffer.html" target="_top" xlink:title=" ">
<polygon fill="none" stroke="black" points="260.1,-148.5 260.1,-166.5 387.47,-166.5 387.47,-148.5 260.1,-148.5"/>
<text text-anchor="middle" x="323.78" y="-154.5" font-family="Helvetica,sans-Serif" font-size="10.00">Ogre::D3D11DepthBuffer</text>
</a>
</g>
</g>
<!-- Node1&#45;&gt;Node3 -->
<g id="edge2" class="edge">
<title>Node1&#45;&gt;Node3</title>
<path fill="none" stroke="midnightblue" d="M191.68,-98.94C207.94,-111.44 232.4,-128.7 256.12,-139.5 263.87,-143.03 272.44,-145.98 280.79,-148.41"/>
<polygon fill="midnightblue" stroke="midnightblue" points="193.57,-95.97 183.54,-92.55 189.25,-101.48 193.57,-95.97"/>
</g>
<!-- Node4 -->
<g id="node4" class="node">
<title>Node4</title>
<g id="a_node4"><a xlink:href="class_ogre_1_1_d3_d9_depth_buffer.html" target="_top" xlink:title=" ">
<polygon fill="none" stroke="black" points="262.51,-111.5 262.51,-129.5 385.06,-129.5 385.06,-111.5 262.51,-111.5"/>
<text text-anchor="middle" x="323.78" y="-117.5" font-family="Helvetica,sans-Serif" font-size="10.00">Ogre::D3D9DepthBuffer</text>
</a>
</g>
</g>
<!-- Node1&#45;&gt;Node4 -->
<g id="edge3" class="edge">
<title>Node1&#45;&gt;Node4</title>
<path fill="none" stroke="midnightblue" d="M219.29,-95C240.83,-100.3 266.03,-106.51 286.17,-111.48"/>
<polygon fill="midnightblue" stroke="midnightblue" points="219.91,-91.55 209.36,-92.55 218.23,-98.34 219.91,-91.55"/>
</g>
<!-- Node5 -->
<g id="node5" class="node">
<title>Node5</title>
<g id="a_node5"><a xlink:href="class_ogre_1_1_g_l3_plus_depth_buffer.html" target="_top" xlink:title=" ">
<polygon fill="none" stroke="black" points="256.12,-74.5 256.12,-92.5 391.45,-92.5 391.45,-74.5 256.12,-74.5"/>
<text text-anchor="middle" x="323.78" y="-80.5" font-family="Helvetica,sans-Serif" font-size="10.00">Ogre::GL3PlusDepthBuffer</text>
</a>
</g>
</g>
<!-- Node1&#45;&gt;Node5 -->
<g id="edge4" class="edge">
<title>Node1&#45;&gt;Node5</title>
<path fill="none" stroke="midnightblue" d="M230.27,-83.5C238.72,-83.5 247.49,-83.5 256.11,-83.5"/>
<polygon fill="midnightblue" stroke="midnightblue" points="230.14,-80 220.14,-83.5 230.14,-87 230.14,-80"/>
</g>
<!-- Node6 -->
<g id="node6" class="node">
<title>Node6</title>
<g id="a_node6"><a xlink:href="class_ogre_1_1_g_l_e_s2_depth_buffer.html" target="_top" xlink:title=" ">
<polygon fill="none" stroke="black" points="259.18,-37.5 259.18,-55.5 388.39,-55.5 388.39,-37.5 259.18,-37.5"/>
<text text-anchor="middle" x="323.78" y="-43.5" font-family="Helvetica,sans-Serif" font-size="10.00">Ogre::GLES2DepthBuffer</text>
</a>
</g>
</g>
<!-- Node1&#45;&gt;Node6 -->
<g id="edge5" class="edge">
<title>Node1&#45;&gt;Node6</title>
<path fill="none" stroke="midnightblue" d="M219.29,-72C240.83,-66.7 266.03,-60.49 286.17,-55.52"/>
<polygon fill="midnightblue" stroke="midnightblue" points="218.23,-68.66 209.36,-74.45 219.91,-75.45 218.23,-68.66"/>
</g>
<!-- Node7 -->
<g id="node7" class="node">
<title>Node7</title>
<g id="a_node7"><a xlink:href="class_ogre_1_1_metal_depth_buffer.html" target="_top" xlink:title=" ">
<polygon fill="none" stroke="black" points="263.07,-0.5 263.07,-18.5 384.5,-18.5 384.5,-0.5 263.07,-0.5"/>
<text text-anchor="middle" x="323.78" y="-6.5" font-family="Helvetica,sans-Serif" font-size="10.00">Ogre::MetalDepthBuffer</text>
</a>
</g>
</g>
<!-- Node1&#45;&gt;Node7 -->
<g id="edge6" class="edge">
<title>Node1&#45;&gt;Node7</title>
<path fill="none" stroke="midnightblue" d="M191.68,-68.06C207.94,-55.56 232.4,-38.3 256.12,-27.5 263.87,-23.97 272.44,-21.02 280.79,-18.59"/>
<polygon fill="midnightblue" stroke="midnightblue" points="189.25,-65.52 183.54,-74.45 193.57,-71.03 189.25,-65.52"/>
</g>
<!-- Node2 -->
<g id="node2" class="node">
<title>Node2</title>
<g id="a_node2"><a xlink:href="class_ogre_1_1_allocated_object.html" target="_top" xlink:title="Superclass for all objects that wish to use custom memory allocators when their new / delete operator...">
<polygon fill="none" stroke="black" points="0,-74.5 0,-92.5 87.14,-92.5 87.14,-74.5 0,-74.5"/>
<text text-anchor="middle" x="43.57" y="-80.5" font-family="Helvetica,sans-Serif" font-size="10.00">RenderSysAlloc</text>
</a>
</g>
</g>
<!-- Node2&#45;&gt;Node1 -->
<g id="edge1" class="edge">
<title>Node2&#45;&gt;Node1</title>
<path fill="none" stroke="midnightblue" d="M97.37,-83.5C105.8,-83.5 114.48,-83.5 122.79,-83.5"/>
<polygon fill="midnightblue" stroke="midnightblue" points="97.25,-80 87.25,-83.5 97.25,-87 97.25,-80"/>
</g>
</g>
</svg>
