<?xml version="1.0" encoding="UTF-8" standalone="no"?>
<!DOCTYPE svg PUBLIC "-//W3C//DTD SVG 1.1//EN"
 "http://www.w3.org/Graphics/SVG/1.1/DTD/svg11.dtd">
<!-- Generated by graphviz version 2.43.0 (0)
 -->
<!-- Title: Ogre::SimplePageContentCollectionFactory Pages: 1 -->
<svg width="185pt" height="157pt"
 viewBox="0.00 0.00 184.64 157.00" xmlns="http://www.w3.org/2000/svg" xmlns:xlink="http://www.w3.org/1999/xlink">
<g id="graph0" class="graph" transform="scale(1 1) rotate(0) translate(4 153)">
<title>Ogre::SimplePageContentCollectionFactory</title>
<!-- Node1 -->
<g id="node1" class="node">
<title>Node1</title>
<g id="a_node1"><a xlink:title="Factory class for SimplePageContentCollection.">
<polygon fill="#bfbfbf" stroke="black" points="0,-0.5 0,-28.5 176.64,-28.5 176.64,-0.5 0,-0.5"/>
<text text-anchor="start" x="8" y="-16.5" font-family="Helvetica,sans-Serif" font-size="10.00">Ogre::SimplePageContentCollection</text>
<text text-anchor="middle" x="88.32" y="-6.5" font-family="Helvetica,sans-Serif" font-size="10.00">Factory</text>
</a>
</g>
</g>
<!-- Node2 -->
<g id="node2" class="node">
<title>Node2</title>
<g id="a_node2"><a xlink:href="class_ogre_1_1_page_content_collection_factory.html" target="_top" xlink:title="Define the interface to a factory class that will create subclasses of PageContentCollection.">
<polygon fill="none" stroke="black" points="15.28,-65.5 15.28,-93.5 161.36,-93.5 161.36,-65.5 15.28,-65.5"/>
<text text-anchor="start" x="23.28" y="-81.5" font-family="Helvetica,sans-Serif" font-size="10.00">Ogre::PageContentCollection</text>
<text text-anchor="middle" x="88.32" y="-71.5" font-family="Helvetica,sans-Serif" font-size="10.00">Factory</text>
</a>
</g>
</g>
<!-- Node2&#45;&gt;Node1 -->
<g id="edge1" class="edge">
<title>Node2&#45;&gt;Node1</title>
<path fill="none" stroke="midnightblue" d="M88.32,-55.16C88.32,-46.17 88.32,-36.22 88.32,-28.54"/>
<polygon fill="midnightblue" stroke="midnightblue" points="84.82,-55.45 88.32,-65.45 91.82,-55.45 84.82,-55.45"/>
</g>
<!-- Node3 -->
<g id="node3" class="node">
<title>Node3</title>
<g id="a_node3"><a xlink:href="class_ogre_1_1_allocated_object.html" target="_top" xlink:title="Superclass for all objects that wish to use custom memory allocators when their new / delete operator...">
<polygon fill="none" stroke="black" points="57.81,-130.5 57.81,-148.5 118.84,-148.5 118.84,-130.5 57.81,-130.5"/>
<text text-anchor="middle" x="88.32" y="-136.5" font-family="Helvetica,sans-Serif" font-size="10.00">PageAlloc</text>
</a>
</g>
</g>
<!-- Node3&#45;&gt;Node2 -->
<g id="edge2" class="edge">
<title>Node3&#45;&gt;Node2</title>
<path fill="none" stroke="midnightblue" d="M88.32,-120.32C88.32,-111.75 88.32,-101.7 88.32,-93.84"/>
<polygon fill="midnightblue" stroke="midnightblue" points="84.82,-120.44 88.32,-130.44 91.82,-120.44 84.82,-120.44"/>
</g>
</g>
</svg>
