<?xml version="1.0" encoding="UTF-8" standalone="no"?>
<!DOCTYPE svg PUBLIC "-//W3C//DTD SVG 1.1//EN"
 "http://www.w3.org/Graphics/SVG/1.1/DTD/svg11.dtd">
<!-- Generated by graphviz version 2.43.0 (0)
 -->
<!-- Title: Ogre::v1::OverlaySystem Pages: 1 -->
<svg width="368pt" height="92pt"
 viewBox="0.00 0.00 368.03 92.00" xmlns="http://www.w3.org/2000/svg" xmlns:xlink="http://www.w3.org/1999/xlink">
<g id="graph0" class="graph" transform="scale(1 1) rotate(0) translate(4 88)">
<title>Ogre::v1::OverlaySystem</title>
<!-- Node1 -->
<g id="node1" class="node">
<title>Node1</title>
<g id="a_node1"><a xlink:title="This class simplify initialization / finalization of the overlay system.">
<polygon fill="#bfbfbf" stroke="black" points="97.21,-0.5 97.21,-18.5 224.91,-18.5 224.91,-0.5 97.21,-0.5"/>
<text text-anchor="middle" x="161.06" y="-6.5" font-family="Helvetica,sans-Serif" font-size="10.00">Ogre::v1::OverlaySystem</text>
</a>
</g>
</g>
<!-- Node2 -->
<g id="node2" class="node">
<title>Node2</title>
<g id="a_node2"><a xlink:href="class_ogre_1_1_allocated_object.html" target="_top" xlink:title="Superclass for all objects that wish to use custom memory allocators when their new / delete operator...">
<polygon fill="none" stroke="black" points="0,-60.5 0,-78.5 72.13,-78.5 72.13,-60.5 0,-60.5"/>
<text text-anchor="middle" x="36.06" y="-66.5" font-family="Helvetica,sans-Serif" font-size="10.00">OverlayAlloc</text>
</a>
</g>
</g>
<!-- Node2&#45;&gt;Node1 -->
<g id="edge1" class="edge">
<title>Node2&#45;&gt;Node1</title>
<path fill="none" stroke="midnightblue" d="M62.82,-56.08C87.18,-44.78 122.44,-28.42 143.43,-18.68"/>
<polygon fill="midnightblue" stroke="midnightblue" points="61.04,-53.05 53.44,-60.44 63.99,-59.4 61.04,-53.05"/>
</g>
<!-- Node3 -->
<g id="node3" class="node">
<title>Node3</title>
<g id="a_node3"><a xlink:href="class_ogre_1_1_render_queue_listener.html" target="_top" xlink:title="Abstract interface which classes must implement if they wish to receive events from the render queue.">
<polygon fill="none" stroke="black" points="89.97,-60.5 89.97,-78.5 232.16,-78.5 232.16,-60.5 89.97,-60.5"/>
<text text-anchor="middle" x="161.06" y="-66.5" font-family="Helvetica,sans-Serif" font-size="10.00">Ogre::RenderQueueListener</text>
</a>
</g>
</g>
<!-- Node3&#45;&gt;Node1 -->
<g id="edge2" class="edge">
<title>Node3&#45;&gt;Node1</title>
<path fill="none" stroke="midnightblue" d="M161.06,-50.21C161.06,-39.71 161.06,-27.03 161.06,-18.87"/>
<polygon fill="midnightblue" stroke="midnightblue" points="157.56,-50.44 161.06,-60.44 164.56,-50.44 157.56,-50.44"/>
</g>
<!-- Node4 -->
<g id="node4" class="node">
<title>Node4</title>
<g id="a_node4"><a xlink:href="class_ogre_1_1_render_system_1_1_listener.html" target="_top" xlink:title="Defines a listener on the custom events that this render system can raise.">
<polygon fill="none" stroke="black" points="250.1,-55.5 250.1,-83.5 360.03,-83.5 360.03,-55.5 250.1,-55.5"/>
<text text-anchor="start" x="258.1" y="-71.5" font-family="Helvetica,sans-Serif" font-size="10.00">Ogre::RenderSystem</text>
<text text-anchor="middle" x="305.06" y="-61.5" font-family="Helvetica,sans-Serif" font-size="10.00">::Listener</text>
</a>
</g>
</g>
<!-- Node4&#45;&gt;Node1 -->
<g id="edge3" class="edge">
<title>Node4&#45;&gt;Node1</title>
<path fill="none" stroke="midnightblue" d="M263.17,-51.63C236.23,-40.77 202.43,-27.16 181.28,-18.64"/>
<polygon fill="midnightblue" stroke="midnightblue" points="262.16,-54.99 272.75,-55.48 264.78,-48.5 262.16,-54.99"/>
</g>
</g>
</svg>
