<?xml version="1.0" encoding="UTF-8" standalone="no"?>
<!DOCTYPE svg PUBLIC "-//W3C//DTD SVG 1.1//EN"
 "http://www.w3.org/Graphics/SVG/1.1/DTD/svg11.dtd">
<!-- Generated by graphviz version 2.43.0 (0)
 -->
<!-- Title: Ogre::v1::BorderRenderable Pages: 1 -->
<svg width="194pt" height="82pt"
 viewBox="0.00 0.00 193.81 82.00" xmlns="http://www.w3.org/2000/svg" xmlns:xlink="http://www.w3.org/1999/xlink">
<g id="graph0" class="graph" transform="scale(1 1) rotate(0) translate(4 78)">
<title>Ogre::v1::BorderRenderable</title>
<!-- Node1 -->
<g id="node1" class="node">
<title>Node1</title>
<g id="a_node1"><a xlink:title="Class for rendering the border of a BorderPanelOverlayElement.">
<polygon fill="#bfbfbf" stroke="black" points="27.93,-0.5 27.93,-18.5 169.56,-18.5 169.56,-0.5 27.93,-0.5"/>
<text text-anchor="middle" x="98.75" y="-6.5" font-family="Helvetica,sans-Serif" font-size="10.00">Ogre::v1::BorderRenderable</text>
</a>
</g>
</g>
<!-- Node2 -->
<g id="node2" class="node">
<title>Node2</title>
<g id="a_node2"><a xlink:href="class_ogre_1_1_renderable.html" target="_top" xlink:title="Abstract class defining the interface all renderable objects must implement.">
<polygon fill="none" stroke="black" points="0,-55.5 0,-73.5 95.49,-73.5 95.49,-55.5 0,-55.5"/>
<text text-anchor="middle" x="47.75" y="-61.5" font-family="Helvetica,sans-Serif" font-size="10.00">Ogre::Renderable</text>
</a>
</g>
</g>
<!-- Node2&#45;&gt;Node1 -->
<g id="edge1" class="edge">
<title>Node2&#45;&gt;Node1</title>
<path fill="none" stroke="midnightblue" d="M62.83,-47.82C72.09,-38.21 83.55,-26.29 91,-18.55"/>
<polygon fill="midnightblue" stroke="midnightblue" points="60.13,-45.59 55.71,-55.22 65.17,-50.44 60.13,-45.59"/>
</g>
<!-- Node3 -->
<g id="node3" class="node">
<title>Node3</title>
<g id="a_node3"><a xlink:href="class_ogre_1_1_allocated_object.html" target="_top" xlink:title="Superclass for all objects that wish to use custom memory allocators when their new / delete operator...">
<polygon fill="none" stroke="black" points="113.68,-55.5 113.68,-73.5 185.81,-73.5 185.81,-55.5 113.68,-55.5"/>
<text text-anchor="middle" x="149.75" y="-61.5" font-family="Helvetica,sans-Serif" font-size="10.00">OverlayAlloc</text>
</a>
</g>
</g>
<!-- Node3&#45;&gt;Node1 -->
<g id="edge2" class="edge">
<title>Node3&#45;&gt;Node1</title>
<path fill="none" stroke="midnightblue" d="M134.66,-47.82C125.41,-38.21 113.94,-26.29 106.49,-18.55"/>
<polygon fill="midnightblue" stroke="midnightblue" points="132.32,-50.44 141.78,-55.22 137.37,-45.59 132.32,-50.44"/>
</g>
</g>
</svg>
