<?xml version="1.0" encoding="UTF-8" standalone="no"?>
<!DOCTYPE svg PUBLIC "-//W3C//DTD SVG 1.1//EN"
 "http://www.w3.org/Graphics/SVG/1.1/DTD/svg11.dtd">
<!-- Generated by graphviz version 2.43.0 (0)
 -->
<!-- Title: Ogre::v1::AnimationTrack Pages: 1 -->
<svg width="444pt" height="168pt"
 viewBox="0.00 0.00 444.06 168.00" xmlns="http://www.w3.org/2000/svg" xmlns:xlink="http://www.w3.org/1999/xlink">
<g id="graph0" class="graph" transform="scale(1 1) rotate(0) translate(4 164)">
<title>Ogre::v1::AnimationTrack</title>
<!-- Node1 -->
<g id="node1" class="node">
<title>Node1</title>
<g id="a_node1"><a xlink:title="A &#39;track&#39; in an animation sequence, i.e.">
<polygon fill="#bfbfbf" stroke="black" points="118.14,-75.5 118.14,-93.5 247.15,-93.5 247.15,-75.5 118.14,-75.5"/>
<text text-anchor="middle" x="182.65" y="-81.5" font-family="Helvetica,sans-Serif" font-size="10.00">Ogre::v1::AnimationTrack</text>
</a>
</g>
</g>
<!-- Node3 -->
<g id="node3" class="node">
<title>Node3</title>
<g id="a_node3"><a xlink:href="class_ogre_1_1v1_1_1_node_animation_track.html" target="_top" xlink:title="Specialised AnimationTrack for dealing with node transforms.">
<polygon fill="none" stroke="black" points="283.15,-141.5 283.15,-159.5 436.06,-159.5 436.06,-141.5 283.15,-141.5"/>
<text text-anchor="middle" x="359.61" y="-147.5" font-family="Helvetica,sans-Serif" font-size="10.00">Ogre::v1::NodeAnimationTrack</text>
</a>
</g>
</g>
<!-- Node1&#45;&gt;Node3 -->
<g id="edge2" class="edge">
<title>Node1&#45;&gt;Node3</title>
<path fill="none" stroke="midnightblue" d="M208.67,-98.44C228.41,-108.97 256.91,-123.16 283.15,-132.5 292.79,-135.93 303.36,-138.91 313.46,-141.41"/>
<polygon fill="midnightblue" stroke="midnightblue" points="210.19,-95.28 199.73,-93.6 206.86,-101.44 210.19,-95.28"/>
</g>
<!-- Node4 -->
<g id="node4" class="node">
<title>Node4</title>
<g id="a_node4"><a xlink:href="class_ogre_1_1v1_1_1_numeric_animation_track.html" target="_top" xlink:title="Specialised AnimationTrack for dealing with generic animable values.">
<polygon fill="none" stroke="black" points="288.81,-94.5 288.81,-122.5 430.41,-122.5 430.41,-94.5 288.81,-94.5"/>
<text text-anchor="start" x="296.81" y="-110.5" font-family="Helvetica,sans-Serif" font-size="10.00">Ogre::v1::NumericAnimation</text>
<text text-anchor="middle" x="359.61" y="-100.5" font-family="Helvetica,sans-Serif" font-size="10.00">Track</text>
</a>
</g>
</g>
<!-- Node1&#45;&gt;Node4 -->
<g id="edge3" class="edge">
<title>Node1&#45;&gt;Node4</title>
<path fill="none" stroke="midnightblue" d="M257.23,-94.59C267.68,-96.03 278.41,-97.5 288.79,-98.92"/>
<polygon fill="midnightblue" stroke="midnightblue" points="257.69,-91.12 247.31,-93.23 256.74,-98.06 257.69,-91.12"/>
</g>
<!-- Node5 -->
<g id="node5" class="node">
<title>Node5</title>
<g id="a_node5"><a xlink:href="class_ogre_1_1v1_1_1_old_node_animation_track.html" target="_top" xlink:title="Specialised AnimationTrack for dealing with node transforms.">
<polygon fill="none" stroke="black" points="287.69,-47.5 287.69,-75.5 431.53,-75.5 431.53,-47.5 287.69,-47.5"/>
<text text-anchor="start" x="295.69" y="-63.5" font-family="Helvetica,sans-Serif" font-size="10.00">Ogre::v1::OldNodeAnimation</text>
<text text-anchor="middle" x="359.61" y="-53.5" font-family="Helvetica,sans-Serif" font-size="10.00">Track</text>
</a>
</g>
</g>
<!-- Node1&#45;&gt;Node5 -->
<g id="edge4" class="edge">
<title>Node1&#45;&gt;Node5</title>
<path fill="none" stroke="midnightblue" d="M257.25,-74.82C267.3,-73.5 277.6,-72.15 287.6,-70.84"/>
<polygon fill="midnightblue" stroke="midnightblue" points="256.76,-71.36 247.31,-76.13 257.68,-78.3 256.76,-71.36"/>
</g>
<!-- Node6 -->
<g id="node6" class="node">
<title>Node6</title>
<g id="a_node6"><a xlink:href="class_ogre_1_1v1_1_1_vertex_animation_track.html" target="_top" xlink:title="Specialised AnimationTrack for dealing with changing vertex position information.">
<polygon fill="none" stroke="black" points="293.24,-0.5 293.24,-28.5 425.97,-28.5 425.97,-0.5 293.24,-0.5"/>
<text text-anchor="start" x="301.24" y="-16.5" font-family="Helvetica,sans-Serif" font-size="10.00">Ogre::v1::VertexAnimation</text>
<text text-anchor="middle" x="359.61" y="-6.5" font-family="Helvetica,sans-Serif" font-size="10.00">Track</text>
</a>
</g>
</g>
<!-- Node1&#45;&gt;Node6 -->
<g id="edge5" class="edge">
<title>Node1&#45;&gt;Node6</title>
<path fill="none" stroke="midnightblue" d="M209.94,-70.79C229.74,-60.79 257.73,-47.32 283.15,-37.5 291.33,-34.34 300.13,-31.33 308.74,-28.58"/>
<polygon fill="midnightblue" stroke="midnightblue" points="208.24,-67.73 200.92,-75.39 211.42,-73.97 208.24,-67.73"/>
</g>
<!-- Node2 -->
<g id="node2" class="node">
<title>Node2</title>
<g id="a_node2"><a xlink:href="class_ogre_1_1_allocated_object.html" target="_top" xlink:title="Superclass for all objects that wish to use custom memory allocators when their new / delete operator...">
<polygon fill="none" stroke="black" points="0,-75.5 0,-93.5 82.14,-93.5 82.14,-75.5 0,-75.5"/>
<text text-anchor="middle" x="41.07" y="-81.5" font-family="Helvetica,sans-Serif" font-size="10.00">AnimationAlloc</text>
</a>
</g>
</g>
<!-- Node2&#45;&gt;Node1 -->
<g id="edge1" class="edge">
<title>Node2&#45;&gt;Node1</title>
<path fill="none" stroke="midnightblue" d="M92.62,-84.5C100.85,-84.5 109.47,-84.5 117.96,-84.5"/>
<polygon fill="midnightblue" stroke="midnightblue" points="92.44,-81 82.44,-84.5 92.44,-88 92.44,-81"/>
</g>
</g>
</svg>
