<?xml version="1.0" encoding="UTF-8" standalone="no"?>
<!DOCTYPE svg PUBLIC "-//W3C//DTD SVG 1.1//EN"
 "http://www.w3.org/Graphics/SVG/1.1/DTD/svg11.dtd">
<!-- Generated by graphviz version 2.43.0 (0)
 -->
<!-- Title: Ogre::GL3PlusRenderTexture Pages: 1 -->
<svg width="254pt" height="247pt"
 viewBox="0.00 0.00 254.19 247.00" xmlns="http://www.w3.org/2000/svg" xmlns:xlink="http://www.w3.org/1999/xlink">
<g id="graph0" class="graph" transform="scale(1 1) rotate(0) translate(4 243)">
<title>Ogre::GL3PlusRenderTexture</title>
<!-- Node1 -->
<g id="node1" class="node">
<title>Node1</title>
<g id="a_node1"><a xlink:title="Base class for GL Render Textures.">
<polygon fill="#bfbfbf" stroke="black" points="62.76,-55.5 62.76,-73.5 210.49,-73.5 210.49,-55.5 62.76,-55.5"/>
<text text-anchor="middle" x="136.62" y="-61.5" font-family="Helvetica,sans-Serif" font-size="10.00">Ogre::GL3PlusRenderTexture</text>
</a>
</g>
</g>
<!-- Node6 -->
<g id="node6" class="node">
<title>Node6</title>
<g id="a_node6"><a xlink:href="class_ogre_1_1_g_l3_plus_f_b_o_render_texture.html" target="_top" xlink:title="RenderTexture for GL FBO.">
<polygon fill="none" stroke="black" points="52.48,-0.5 52.48,-18.5 220.77,-18.5 220.77,-0.5 52.48,-0.5"/>
<text text-anchor="middle" x="136.62" y="-6.5" font-family="Helvetica,sans-Serif" font-size="10.00">Ogre::GL3PlusFBORenderTexture</text>
</a>
</g>
</g>
<!-- Node1&#45;&gt;Node6 -->
<g id="edge5" class="edge">
<title>Node1&#45;&gt;Node6</title>
<path fill="none" stroke="midnightblue" d="M136.62,-45.17C136.62,-36.09 136.62,-25.59 136.62,-18.55"/>
<polygon fill="midnightblue" stroke="midnightblue" points="133.12,-45.22 136.62,-55.22 140.12,-45.22 133.12,-45.22"/>
</g>
<!-- Node2 -->
<g id="node2" class="node">
<title>Node2</title>
<g id="a_node2"><a xlink:href="class_ogre_1_1_render_texture.html" target="_top" xlink:title="This class represents a RenderTarget that renders to a Texture.">
<polygon fill="none" stroke="black" points="81.93,-110.5 81.93,-128.5 191.31,-128.5 191.31,-110.5 81.93,-110.5"/>
<text text-anchor="middle" x="136.62" y="-116.5" font-family="Helvetica,sans-Serif" font-size="10.00">Ogre::RenderTexture</text>
</a>
</g>
</g>
<!-- Node2&#45;&gt;Node1 -->
<g id="edge1" class="edge">
<title>Node2&#45;&gt;Node1</title>
<path fill="none" stroke="midnightblue" d="M136.62,-100.17C136.62,-91.09 136.62,-80.59 136.62,-73.55"/>
<polygon fill="midnightblue" stroke="midnightblue" points="133.12,-100.22 136.62,-110.22 140.12,-100.22 133.12,-100.22"/>
</g>
<!-- Node3 -->
<g id="node3" class="node">
<title>Node3</title>
<g id="a_node3"><a xlink:href="class_ogre_1_1_render_target.html" target="_top" xlink:title="A &#39;canvas&#39; which can receive the results of a rendering operation.">
<polygon fill="none" stroke="black" points="84.43,-165.5 84.43,-183.5 188.81,-183.5 188.81,-165.5 84.43,-165.5"/>
<text text-anchor="middle" x="136.62" y="-171.5" font-family="Helvetica,sans-Serif" font-size="10.00">Ogre::RenderTarget</text>
</a>
</g>
</g>
<!-- Node3&#45;&gt;Node2 -->
<g id="edge2" class="edge">
<title>Node3&#45;&gt;Node2</title>
<path fill="none" stroke="midnightblue" d="M136.62,-155.17C136.62,-146.09 136.62,-135.59 136.62,-128.55"/>
<polygon fill="midnightblue" stroke="midnightblue" points="133.12,-155.22 136.62,-165.22 140.12,-155.22 133.12,-155.22"/>
</g>
<!-- Node4 -->
<g id="node4" class="node">
<title>Node4</title>
<g id="a_node4"><a xlink:href="struct_ogre_1_1_gpu_tracked_resource.html" target="_top" xlink:title=" ">
<polygon fill="none" stroke="black" points="0,-220.5 0,-238.5 141.24,-238.5 141.24,-220.5 0,-220.5"/>
<text text-anchor="middle" x="70.62" y="-226.5" font-family="Helvetica,sans-Serif" font-size="10.00">Ogre::GpuTrackedResource</text>
</a>
</g>
</g>
<!-- Node4&#45;&gt;Node3 -->
<g id="edge3" class="edge">
<title>Node4&#45;&gt;Node3</title>
<path fill="none" stroke="midnightblue" d="M88.77,-213.93C100.93,-204.16 116.49,-191.67 126.5,-183.63"/>
<polygon fill="midnightblue" stroke="midnightblue" points="86.25,-211.46 80.65,-220.45 90.63,-216.92 86.25,-211.46"/>
</g>
<!-- Node5 -->
<g id="node5" class="node">
<title>Node5</title>
<g id="a_node5"><a xlink:href="class_ogre_1_1_allocated_object.html" target="_top" xlink:title="Superclass for all objects that wish to use custom memory allocators when their new / delete operator...">
<polygon fill="none" stroke="black" points="159.05,-220.5 159.05,-238.5 246.19,-238.5 246.19,-220.5 159.05,-220.5"/>
<text text-anchor="middle" x="202.62" y="-226.5" font-family="Helvetica,sans-Serif" font-size="10.00">RenderSysAlloc</text>
</a>
</g>
</g>
<!-- Node5&#45;&gt;Node3 -->
<g id="edge4" class="edge">
<title>Node5&#45;&gt;Node3</title>
<path fill="none" stroke="midnightblue" d="M184.47,-213.93C172.31,-204.16 156.76,-191.67 146.74,-183.63"/>
<polygon fill="midnightblue" stroke="midnightblue" points="182.61,-216.92 192.6,-220.45 186.99,-211.46 182.61,-216.92"/>
</g>
</g>
</svg>
