<?xml version="1.0" encoding="UTF-8" standalone="no"?>
<!DOCTYPE svg PUBLIC "-//W3C//DTD SVG 1.1//EN"
 "http://www.w3.org/Graphics/SVG/1.1/DTD/svg11.dtd">
<!-- Generated by graphviz version 2.43.0 (0)
 -->
<!-- Title: Ogre::SubItem Pages: 1 -->
<svg width="244pt" height="137pt"
 viewBox="0.00 0.00 244.11 137.00" xmlns="http://www.w3.org/2000/svg" xmlns:xlink="http://www.w3.org/1999/xlink">
<g id="graph0" class="graph" transform="scale(1 1) rotate(0) translate(4 133)">
<title>Ogre::SubItem</title>
<!-- Node1 -->
<g id="node1" class="node">
<title>Node1</title>
<g id="a_node1"><a xlink:title="Utility class which defines the sub&#45;parts of an Item.">
<polygon fill="#bfbfbf" stroke="black" points="91.35,-0.5 91.35,-18.5 172.38,-18.5 172.38,-0.5 91.35,-0.5"/>
<text text-anchor="middle" x="131.87" y="-6.5" font-family="Helvetica,sans-Serif" font-size="10.00">Ogre::SubItem</text>
</a>
</g>
</g>
<!-- Node2 -->
<g id="node2" class="node">
<title>Node2</title>
<g id="a_node2"><a xlink:href="class_ogre_1_1_renderable_animated.html" target="_top" xlink:title=" ">
<polygon fill="none" stroke="black" points="0,-55.5 0,-73.5 137.74,-73.5 137.74,-55.5 0,-55.5"/>
<text text-anchor="middle" x="68.87" y="-61.5" font-family="Helvetica,sans-Serif" font-size="10.00">Ogre::RenderableAnimated</text>
</a>
</g>
</g>
<!-- Node2&#45;&gt;Node1 -->
<g id="edge1" class="edge">
<title>Node2&#45;&gt;Node1</title>
<path fill="none" stroke="midnightblue" d="M86.19,-48.93C97.8,-39.16 112.65,-26.67 122.21,-18.63"/>
<polygon fill="midnightblue" stroke="midnightblue" points="83.84,-46.33 78.44,-55.45 88.34,-51.69 83.84,-46.33"/>
</g>
<!-- Node3 -->
<g id="node3" class="node">
<title>Node3</title>
<g id="a_node3"><a xlink:href="class_ogre_1_1_renderable.html" target="_top" xlink:title="Abstract class defining the interface all renderable objects must implement.">
<polygon fill="none" stroke="black" points="21.12,-110.5 21.12,-128.5 116.62,-128.5 116.62,-110.5 21.12,-110.5"/>
<text text-anchor="middle" x="68.87" y="-116.5" font-family="Helvetica,sans-Serif" font-size="10.00">Ogre::Renderable</text>
</a>
</g>
</g>
<!-- Node3&#45;&gt;Node2 -->
<g id="edge2" class="edge">
<title>Node3&#45;&gt;Node2</title>
<path fill="none" stroke="midnightblue" d="M68.87,-100.17C68.87,-91.09 68.87,-80.59 68.87,-73.55"/>
<polygon fill="midnightblue" stroke="midnightblue" points="65.37,-100.22 68.87,-110.22 72.37,-100.22 65.37,-100.22"/>
</g>
<!-- Node4 -->
<g id="node4" class="node">
<title>Node4</title>
<g id="a_node4"><a xlink:href="class_ogre_1_1_allocated_object.html" target="_top" xlink:title="Superclass for all objects that wish to use custom memory allocators when their new / delete operator...">
<polygon fill="none" stroke="black" points="155.63,-55.5 155.63,-73.5 236.11,-73.5 236.11,-55.5 155.63,-55.5"/>
<text text-anchor="middle" x="195.87" y="-61.5" font-family="Helvetica,sans-Serif" font-size="10.00">SubEntityAlloc</text>
</a>
</g>
</g>
<!-- Node4&#45;&gt;Node1 -->
<g id="edge3" class="edge">
<title>Node4&#45;&gt;Node1</title>
<path fill="none" stroke="midnightblue" d="M178.27,-48.93C166.48,-39.16 151.39,-26.67 141.68,-18.63"/>
<polygon fill="midnightblue" stroke="midnightblue" points="176.21,-51.77 186.15,-55.45 180.68,-46.38 176.21,-51.77"/>
</g>
</g>
</svg>
