<?xml version="1.0" encoding="UTF-8" standalone="no"?>
<!DOCTYPE svg PUBLIC "-//W3C//DTD SVG 1.1//EN"
 "http://www.w3.org/Graphics/SVG/1.1/DTD/svg11.dtd">
<!-- Generated by graphviz version 2.43.0 (0)
 -->
<!-- Title: Ogre::ZoneData Pages: 1 -->
<svg width="135pt" height="137pt"
 viewBox="0.00 0.00 134.62 137.00" xmlns="http://www.w3.org/2000/svg" xmlns:xlink="http://www.w3.org/1999/xlink">
<g id="graph0" class="graph" transform="scale(1 1) rotate(0) translate(4 133)">
<title>Ogre::ZoneData</title>
<!-- Node1 -->
<g id="node1" class="node">
<title>Node1</title>
<g id="a_node1"><a xlink:title=" ">
<polygon fill="#bfbfbf" stroke="black" points="19.46,-55.5 19.46,-73.5 107.16,-73.5 107.16,-55.5 19.46,-55.5"/>
<text text-anchor="middle" x="63.31" y="-61.5" font-family="Helvetica,sans-Serif" font-size="10.00">Ogre::ZoneData</text>
</a>
</g>
</g>
<!-- Node3 -->
<g id="node3" class="node">
<title>Node3</title>
<g id="a_node3"><a xlink:href="class_ogre_1_1_octree_zone_data.html" target="_top" xlink:title=" ">
<polygon fill="none" stroke="black" points="4.45,-0.5 4.45,-18.5 122.16,-18.5 122.16,-0.5 4.45,-0.5"/>
<text text-anchor="middle" x="63.31" y="-6.5" font-family="Helvetica,sans-Serif" font-size="10.00">Ogre::OctreeZoneData</text>
</a>
</g>
</g>
<!-- Node1&#45;&gt;Node3 -->
<g id="edge2" class="edge">
<title>Node1&#45;&gt;Node3</title>
<path fill="none" stroke="midnightblue" d="M63.31,-45.17C63.31,-36.09 63.31,-25.59 63.31,-18.55"/>
<polygon fill="midnightblue" stroke="midnightblue" points="59.81,-45.22 63.31,-55.22 66.81,-45.22 59.81,-45.22"/>
</g>
<!-- Node2 -->
<g id="node2" class="node">
<title>Node2</title>
<g id="a_node2"><a xlink:href="class_ogre_1_1_allocated_object.html" target="_top" xlink:title="Superclass for all objects that wish to use custom memory allocators when their new / delete operator...">
<polygon fill="none" stroke="black" points="0,-110.5 0,-128.5 126.62,-128.5 126.62,-110.5 0,-110.5"/>
<text text-anchor="middle" x="63.31" y="-116.5" font-family="Helvetica,sans-Serif" font-size="10.00">SceneCtlAllocatedObject</text>
</a>
</g>
</g>
<!-- Node2&#45;&gt;Node1 -->
<g id="edge1" class="edge">
<title>Node2&#45;&gt;Node1</title>
<path fill="none" stroke="midnightblue" d="M63.31,-100.17C63.31,-91.09 63.31,-80.59 63.31,-73.55"/>
<polygon fill="midnightblue" stroke="midnightblue" points="59.81,-100.22 63.31,-110.22 66.81,-100.22 59.81,-100.22"/>
</g>
</g>
</svg>
