<?xml version="1.0" encoding="UTF-8" standalone="no"?>
<!DOCTYPE svg PUBLIC "-//W3C//DTD SVG 1.1//EN"
 "http://www.w3.org/Graphics/SVG/1.1/DTD/svg11.dtd">
<!-- Generated by graphviz version 2.43.0 (0)
 -->
<!-- Title: Ogre::v1::GLES2HardwarePixelBuffer Pages: 1 -->
<svg width="328pt" height="257pt"
 viewBox="0.00 0.00 328.45 257.00" xmlns="http://www.w3.org/2000/svg" xmlns:xlink="http://www.w3.org/1999/xlink">
<g id="graph0" class="graph" transform="scale(1 1) rotate(0) translate(4 253)">
<title>Ogre::v1::GLES2HardwarePixelBuffer</title>
<!-- Node1 -->
<g id="node1" class="node">
<title>Node1</title>
<g id="a_node1"><a xlink:title=" ">
<polygon fill="#bfbfbf" stroke="black" points="81.14,-55.5 81.14,-83.5 238.31,-83.5 238.31,-55.5 81.14,-55.5"/>
<text text-anchor="start" x="89.14" y="-71.5" font-family="Helvetica,sans-Serif" font-size="10.00">Ogre::v1::GLES2HardwarePixel</text>
<text text-anchor="middle" x="159.72" y="-61.5" font-family="Helvetica,sans-Serif" font-size="10.00">Buffer</text>
</a>
</g>
</g>
<!-- Node5 -->
<g id="node5" class="node">
<title>Node5</title>
<g id="a_node5"><a xlink:href="class_ogre_1_1v1_1_1_g_l_e_s2_render_buffer.html" target="_top" xlink:title="Renderbuffer surface.">
<polygon fill="none" stroke="black" points="0,-0.5 0,-18.5 151.45,-18.5 151.45,-0.5 0,-0.5"/>
<text text-anchor="middle" x="75.72" y="-6.5" font-family="Helvetica,sans-Serif" font-size="10.00">Ogre::v1::GLES2RenderBuffer</text>
</a>
</g>
</g>
<!-- Node1&#45;&gt;Node5 -->
<g id="edge4" class="edge">
<title>Node1&#45;&gt;Node5</title>
<path fill="none" stroke="midnightblue" d="M132.19,-49.49C117.13,-39.09 99.25,-26.74 87.7,-18.77"/>
<polygon fill="midnightblue" stroke="midnightblue" points="130.45,-52.54 140.66,-55.34 134.42,-46.78 130.45,-52.54"/>
</g>
<!-- Node6 -->
<g id="node6" class="node">
<title>Node6</title>
<g id="a_node6"><a xlink:href="class_ogre_1_1v1_1_1_g_l_e_s2_texture_buffer.html" target="_top" xlink:title="Texture surface.">
<polygon fill="none" stroke="black" points="169,-0.5 169,-18.5 320.45,-18.5 320.45,-0.5 169,-0.5"/>
<text text-anchor="middle" x="244.72" y="-6.5" font-family="Helvetica,sans-Serif" font-size="10.00">Ogre::v1::GLES2TextureBuffer</text>
</a>
</g>
</g>
<!-- Node1&#45;&gt;Node6 -->
<g id="edge5" class="edge">
<title>Node1&#45;&gt;Node6</title>
<path fill="none" stroke="midnightblue" d="M187.58,-49.49C202.82,-39.09 220.92,-26.74 232.6,-18.77"/>
<polygon fill="midnightblue" stroke="midnightblue" points="185.3,-46.81 179.01,-55.34 189.25,-52.59 185.3,-46.81"/>
</g>
<!-- Node2 -->
<g id="node2" class="node">
<title>Node2</title>
<g id="a_node2"><a xlink:href="class_ogre_1_1v1_1_1_hardware_pixel_buffer.html" target="_top" xlink:title="Specialisation of HardwareBuffer for a pixel buffer.">
<polygon fill="none" stroke="black" points="84.01,-120.5 84.01,-138.5 235.44,-138.5 235.44,-120.5 84.01,-120.5"/>
<text text-anchor="middle" x="159.72" y="-126.5" font-family="Helvetica,sans-Serif" font-size="10.00">Ogre::v1::HardwarePixelBuffer</text>
</a>
</g>
</g>
<!-- Node2&#45;&gt;Node1 -->
<g id="edge1" class="edge">
<title>Node2&#45;&gt;Node1</title>
<path fill="none" stroke="midnightblue" d="M159.72,-110.32C159.72,-101.75 159.72,-91.7 159.72,-83.84"/>
<polygon fill="midnightblue" stroke="midnightblue" points="156.22,-110.44 159.72,-120.44 163.22,-110.44 156.22,-110.44"/>
</g>
<!-- Node3 -->
<g id="node3" class="node">
<title>Node3</title>
<g id="a_node3"><a xlink:href="class_ogre_1_1v1_1_1_hardware_buffer.html" target="_top" xlink:title="Abstract class defining common features of hardware buffers.">
<polygon fill="none" stroke="black" points="94.84,-175.5 94.84,-193.5 224.6,-193.5 224.6,-175.5 94.84,-175.5"/>
<text text-anchor="middle" x="159.72" y="-181.5" font-family="Helvetica,sans-Serif" font-size="10.00">Ogre::v1::HardwareBuffer</text>
</a>
</g>
</g>
<!-- Node3&#45;&gt;Node2 -->
<g id="edge2" class="edge">
<title>Node3&#45;&gt;Node2</title>
<path fill="none" stroke="midnightblue" d="M159.72,-165.17C159.72,-156.09 159.72,-145.59 159.72,-138.55"/>
<polygon fill="midnightblue" stroke="midnightblue" points="156.22,-165.22 159.72,-175.22 163.22,-165.22 156.22,-165.22"/>
</g>
<!-- Node4 -->
<g id="node4" class="node">
<title>Node4</title>
<g id="a_node4"><a xlink:href="class_ogre_1_1_allocated_object.html" target="_top" xlink:title="Superclass for all objects that wish to use custom memory allocators when their new / delete operator...">
<polygon fill="none" stroke="black" points="127.64,-230.5 127.64,-248.5 191.81,-248.5 191.81,-230.5 127.64,-230.5"/>
<text text-anchor="middle" x="159.72" y="-236.5" font-family="Helvetica,sans-Serif" font-size="10.00">BufferAlloc</text>
</a>
</g>
</g>
<!-- Node4&#45;&gt;Node3 -->
<g id="edge3" class="edge">
<title>Node4&#45;&gt;Node3</title>
<path fill="none" stroke="midnightblue" d="M159.72,-220.17C159.72,-211.09 159.72,-200.59 159.72,-193.55"/>
<polygon fill="midnightblue" stroke="midnightblue" points="156.22,-220.22 159.72,-230.22 163.22,-220.22 156.22,-220.22"/>
</g>
</g>
</svg>
