<?xml version="1.0" encoding="UTF-8" standalone="no"?>
<!DOCTYPE svg PUBLIC "-//W3C//DTD SVG 1.1//EN"
 "http://www.w3.org/Graphics/SVG/1.1/DTD/svg11.dtd">
<!-- Generated by graphviz version 2.43.0 (0)
 -->
<!-- Title: Ogre::ConstBufferPool Pages: 1 -->
<svg width="196pt" height="82pt"
 viewBox="0.00 0.00 196.18 82.00" xmlns="http://www.w3.org/2000/svg" xmlns:xlink="http://www.w3.org/1999/xlink">
<g id="graph0" class="graph" transform="scale(1 1) rotate(0) translate(4 78)">
<title>Ogre::ConstBufferPool</title>
<!-- Node1 -->
<g id="node1" class="node">
<title>Node1</title>
<g id="a_node1"><a xlink:title="Maintains a pool of buffers grouped by hash ID.">
<polygon fill="#bfbfbf" stroke="black" points="34.68,-55.5 34.68,-73.5 151.11,-73.5 151.11,-55.5 34.68,-55.5"/>
<text text-anchor="middle" x="92.9" y="-61.5" font-family="Helvetica,sans-Serif" font-size="10.00">Ogre::ConstBufferPool</text>
</a>
</g>
</g>
<!-- Node2 -->
<g id="node2" class="node">
<title>Node2</title>
<g id="a_node2"><a xlink:href="class_ogre_1_1_hlms_pbs.html" target="_top" xlink:title="Physically based shading implementation specfically designed for OpenGL 3+, D3D11 and other RenderSys...">
<polygon fill="none" stroke="black" points="0,-0.5 0,-18.5 83.79,-18.5 83.79,-0.5 0,-0.5"/>
<text text-anchor="middle" x="41.9" y="-6.5" font-family="Helvetica,sans-Serif" font-size="10.00">Ogre::HlmsPbs</text>
</a>
</g>
</g>
<!-- Node1&#45;&gt;Node2 -->
<g id="edge1" class="edge">
<title>Node1&#45;&gt;Node2</title>
<path fill="none" stroke="midnightblue" d="M77.81,-47.82C68.56,-38.21 57.09,-26.29 49.64,-18.55"/>
<polygon fill="midnightblue" stroke="midnightblue" points="75.47,-50.44 84.93,-55.22 80.52,-45.59 75.47,-50.44"/>
</g>
<!-- Node3 -->
<g id="node3" class="node">
<title>Node3</title>
<g id="a_node3"><a xlink:href="class_ogre_1_1_hlms_unlit.html" target="_top" xlink:title="Implementation without lighting or skeletal animation specfically designed for OpenGL 3+,...">
<polygon fill="none" stroke="black" points="101.61,-0.5 101.61,-18.5 188.18,-18.5 188.18,-0.5 101.61,-0.5"/>
<text text-anchor="middle" x="144.9" y="-6.5" font-family="Helvetica,sans-Serif" font-size="10.00">Ogre::HlmsUnlit</text>
</a>
</g>
</g>
<!-- Node1&#45;&gt;Node3 -->
<g id="edge2" class="edge">
<title>Node1&#45;&gt;Node3</title>
<path fill="none" stroke="midnightblue" d="M108.28,-47.82C117.71,-38.21 129.4,-26.29 137,-18.55"/>
<polygon fill="midnightblue" stroke="midnightblue" points="105.53,-45.63 101.02,-55.22 110.52,-50.53 105.53,-45.63"/>
</g>
</g>
</svg>
