<?xml version="1.0" encoding="UTF-8" standalone="no"?>
<!DOCTYPE svg PUBLIC "-//W3C//DTD SVG 1.1//EN"
 "http://www.w3.org/Graphics/SVG/1.1/DTD/svg11.dtd">
<!-- Generated by graphviz version 2.43.0 (0)
 -->
<!-- Title: Ogre::OctreeCamera Pages: 1 -->
<svg width="347pt" height="247pt"
 viewBox="0.00 0.00 346.94 247.00" xmlns="http://www.w3.org/2000/svg" xmlns:xlink="http://www.w3.org/1999/xlink">
<g id="graph0" class="graph" transform="scale(1 1) rotate(0) translate(4 243)">
<title>Ogre::OctreeCamera</title>
<!-- Node1 -->
<g id="node1" class="node">
<title>Node1</title>
<g id="a_node1"><a xlink:title="Specialized viewpoint from which an Octree can be rendered.">
<polygon fill="#bfbfbf" stroke="black" points="175.51,-0.5 175.51,-18.5 284.87,-18.5 284.87,-0.5 175.51,-0.5"/>
<text text-anchor="middle" x="230.19" y="-6.5" font-family="Helvetica,sans-Serif" font-size="10.00">Ogre::OctreeCamera</text>
</a>
</g>
</g>
<!-- Node2 -->
<g id="node2" class="node">
<title>Node2</title>
<g id="a_node2"><a xlink:href="class_ogre_1_1_camera.html" target="_top" xlink:title="A viewpoint from which the scene will be rendered.">
<polygon fill="none" stroke="black" points="190.51,-55.5 190.51,-73.5 269.87,-73.5 269.87,-55.5 190.51,-55.5"/>
<text text-anchor="middle" x="230.19" y="-61.5" font-family="Helvetica,sans-Serif" font-size="10.00">Ogre::Camera</text>
</a>
</g>
</g>
<!-- Node2&#45;&gt;Node1 -->
<g id="edge1" class="edge">
<title>Node2&#45;&gt;Node1</title>
<path fill="none" stroke="midnightblue" d="M230.19,-45.17C230.19,-36.09 230.19,-25.59 230.19,-18.55"/>
<polygon fill="midnightblue" stroke="midnightblue" points="226.69,-45.22 230.19,-55.22 233.69,-45.22 226.69,-45.22"/>
</g>
<!-- Node3 -->
<g id="node3" class="node">
<title>Node3</title>
<g id="a_node3"><a xlink:href="class_ogre_1_1_frustum.html" target="_top" xlink:title="A frustum represents a pyramid, capped at the near and far end which is used to represent either a vi...">
<polygon fill="none" stroke="black" points="189.96,-110.5 189.96,-128.5 270.42,-128.5 270.42,-110.5 189.96,-110.5"/>
<text text-anchor="middle" x="230.19" y="-116.5" font-family="Helvetica,sans-Serif" font-size="10.00">Ogre::Frustum</text>
</a>
</g>
</g>
<!-- Node3&#45;&gt;Node2 -->
<g id="edge2" class="edge">
<title>Node3&#45;&gt;Node2</title>
<path fill="none" stroke="midnightblue" d="M230.19,-100.17C230.19,-91.09 230.19,-80.59 230.19,-73.55"/>
<polygon fill="midnightblue" stroke="midnightblue" points="226.69,-100.22 230.19,-110.22 233.69,-100.22 226.69,-100.22"/>
</g>
<!-- Node4 -->
<g id="node4" class="node">
<title>Node4</title>
<g id="a_node4"><a xlink:href="class_ogre_1_1_movable_object.html" target="_top" xlink:title="Abstract class defining a movable object in a scene.">
<polygon fill="none" stroke="black" points="114.95,-165.5 114.95,-183.5 225.43,-183.5 225.43,-165.5 114.95,-165.5"/>
<text text-anchor="middle" x="170.19" y="-171.5" font-family="Helvetica,sans-Serif" font-size="10.00">Ogre::MovableObject</text>
</a>
</g>
</g>
<!-- Node4&#45;&gt;Node3 -->
<g id="edge3" class="edge">
<title>Node4&#45;&gt;Node3</title>
<path fill="none" stroke="midnightblue" d="M187.01,-158.64C198.02,-148.92 211.97,-136.59 220.99,-128.63"/>
<polygon fill="midnightblue" stroke="midnightblue" points="184.48,-156.21 179.3,-165.45 189.11,-161.45 184.48,-156.21"/>
</g>
<!-- Node5 -->
<g id="node5" class="node">
<title>Node5</title>
<g id="a_node5"><a xlink:href="class_ogre_1_1_animable_object.html" target="_top" xlink:title="Defines an interface to classes which have one or more AnimableValue instances to expose.">
<polygon fill="none" stroke="black" points="0,-220.5 0,-238.5 114.38,-238.5 114.38,-220.5 0,-220.5"/>
<text text-anchor="middle" x="57.19" y="-226.5" font-family="Helvetica,sans-Serif" font-size="10.00">Ogre::AnimableObject</text>
</a>
</g>
</g>
<!-- Node5&#45;&gt;Node4 -->
<g id="edge4" class="edge">
<title>Node5&#45;&gt;Node4</title>
<path fill="none" stroke="midnightblue" d="M83.52,-216.15C104.88,-206.13 134.38,-192.29 152.87,-183.63"/>
<polygon fill="midnightblue" stroke="midnightblue" points="81.92,-213.04 74.35,-220.45 84.89,-219.37 81.92,-213.04"/>
</g>
<!-- Node6 -->
<g id="node6" class="node">
<title>Node6</title>
<g id="a_node6"><a xlink:href="class_ogre_1_1_allocated_object.html" target="_top" xlink:title="Superclass for all objects that wish to use custom memory allocators when their new / delete operator...">
<polygon fill="none" stroke="black" points="132.45,-220.5 132.45,-238.5 207.93,-238.5 207.93,-220.5 132.45,-220.5"/>
<text text-anchor="middle" x="170.19" y="-226.5" font-family="Helvetica,sans-Serif" font-size="10.00">MovableAlloc</text>
</a>
</g>
</g>
<!-- Node6&#45;&gt;Node4 -->
<g id="edge5" class="edge">
<title>Node6&#45;&gt;Node4</title>
<path fill="none" stroke="midnightblue" d="M170.19,-210.17C170.19,-201.09 170.19,-190.59 170.19,-183.55"/>
<polygon fill="midnightblue" stroke="midnightblue" points="166.69,-210.22 170.19,-220.22 173.69,-210.22 166.69,-210.22"/>
</g>
<!-- Node7 -->
<g id="node7" class="node">
<title>Node7</title>
<g id="a_node7"><a xlink:href="class_ogre_1_1_id_object.html" target="_top" xlink:title=" ">
<polygon fill="none" stroke="black" points="225.67,-220.5 225.67,-238.5 306.7,-238.5 306.7,-220.5 225.67,-220.5"/>
<text text-anchor="middle" x="266.19" y="-226.5" font-family="Helvetica,sans-Serif" font-size="10.00">Ogre::IdObject</text>
</a>
</g>
</g>
<!-- Node7&#45;&gt;Node4 -->
<g id="edge6" class="edge">
<title>Node7&#45;&gt;Node4</title>
<path fill="none" stroke="midnightblue" d="M242.83,-215.6C224.77,-205.63 200.33,-192.14 184.91,-183.63"/>
<polygon fill="midnightblue" stroke="midnightblue" points="241.16,-218.68 251.61,-220.45 244.55,-212.55 241.16,-218.68"/>
</g>
<!-- Node8 -->
<g id="node8" class="node">
<title>Node8</title>
<g id="a_node8"><a xlink:href="class_ogre_1_1_renderable.html" target="_top" xlink:title="Abstract class defining the interface all renderable objects must implement.">
<polygon fill="none" stroke="black" points="243.44,-165.5 243.44,-183.5 338.94,-183.5 338.94,-165.5 243.44,-165.5"/>
<text text-anchor="middle" x="291.19" y="-171.5" font-family="Helvetica,sans-Serif" font-size="10.00">Ogre::Renderable</text>
</a>
</g>
</g>
<!-- Node8&#45;&gt;Node3 -->
<g id="edge7" class="edge">
<title>Node8&#45;&gt;Node3</title>
<path fill="none" stroke="midnightblue" d="M274.09,-158.64C262.9,-148.92 248.71,-136.59 239.54,-128.63"/>
<polygon fill="midnightblue" stroke="midnightblue" points="272.08,-161.53 281.92,-165.45 276.67,-156.25 272.08,-161.53"/>
</g>
</g>
</svg>
