<?xml version="1.0" encoding="UTF-8" standalone="no"?>
<!DOCTYPE svg PUBLIC "-//W3C//DTD SVG 1.1//EN"
 "http://www.w3.org/Graphics/SVG/1.1/DTD/svg11.dtd">
<!-- Generated by graphviz version 2.43.0 (0)
 -->
<!-- Title: Ogre::Texture Pages: 1 -->
<svg width="681pt" height="212pt"
 viewBox="0.00 0.00 680.54 212.00" xmlns="http://www.w3.org/2000/svg" xmlns:xlink="http://www.w3.org/1999/xlink">
<g id="graph0" class="graph" transform="scale(1 1) rotate(0) translate(4 208)">
<title>Ogre::Texture</title>
<!-- Node1 -->
<g id="node1" class="node">
<title>Node1</title>
<g id="a_node1"><a xlink:title="Abstract class representing a Texture resource.">
<polygon fill="#bfbfbf" stroke="black" points="267.41,-74.5 267.41,-92.5 343.99,-92.5 343.99,-74.5 267.41,-74.5"/>
<text text-anchor="middle" x="305.7" y="-80.5" font-family="Helvetica,sans-Serif" font-size="10.00">Ogre::Texture</text>
</a>
</g>
</g>
<!-- Node5 -->
<g id="node5" class="node">
<title>Node5</title>
<g id="a_node5"><a xlink:href="class_ogre_1_1_d3_d11_texture.html" target="_top" xlink:title=" ">
<polygon fill="none" stroke="black" points="383.97,-148.5 383.97,-166.5 490.94,-166.5 490.94,-148.5 383.97,-148.5"/>
<text text-anchor="middle" x="437.46" y="-154.5" font-family="Helvetica,sans-Serif" font-size="10.00">Ogre::D3D11Texture</text>
</a>
</g>
</g>
<!-- Node1&#45;&gt;Node5 -->
<g id="edge4" class="edge">
<title>Node1&#45;&gt;Node5</title>
<path fill="none" stroke="midnightblue" d="M323.86,-99.36C338.01,-111.74 359.1,-128.61 379.99,-139.5 386.74,-143.02 394.31,-146.01 401.65,-148.48"/>
<polygon fill="midnightblue" stroke="midnightblue" points="326.16,-96.73 316.38,-92.67 321.5,-101.95 326.16,-96.73"/>
</g>
<!-- Node8 -->
<g id="node8" class="node">
<title>Node8</title>
<g id="a_node8"><a xlink:href="class_ogre_1_1_d3_d9_texture.html" target="_top" xlink:title=" ">
<polygon fill="none" stroke="black" points="386.38,-111.5 386.38,-129.5 488.53,-129.5 488.53,-111.5 386.38,-111.5"/>
<text text-anchor="middle" x="437.46" y="-117.5" font-family="Helvetica,sans-Serif" font-size="10.00">Ogre::D3D9Texture</text>
</a>
</g>
</g>
<!-- Node1&#45;&gt;Node8 -->
<g id="edge7" class="edge">
<title>Node1&#45;&gt;Node8</title>
<path fill="none" stroke="midnightblue" d="M348.25,-95.35C366.51,-100.55 387.61,-106.57 404.59,-111.41"/>
<polygon fill="midnightblue" stroke="midnightblue" points="349.02,-91.93 338.44,-92.55 347.1,-98.66 349.02,-91.93"/>
</g>
<!-- Node9 -->
<g id="node9" class="node">
<title>Node9</title>
<g id="a_node9"><a xlink:href="class_ogre_1_1_g_l3_plus_texture.html" target="_top" xlink:title=" ">
<polygon fill="none" stroke="black" points="379.99,-74.5 379.99,-92.5 494.92,-92.5 494.92,-74.5 379.99,-74.5"/>
<text text-anchor="middle" x="437.46" y="-80.5" font-family="Helvetica,sans-Serif" font-size="10.00">Ogre::GL3PlusTexture</text>
</a>
</g>
</g>
<!-- Node1&#45;&gt;Node9 -->
<g id="edge8" class="edge">
<title>Node1&#45;&gt;Node9</title>
<path fill="none" stroke="midnightblue" d="M354.4,-83.5C362.63,-83.5 371.25,-83.5 379.69,-83.5"/>
<polygon fill="midnightblue" stroke="midnightblue" points="354.23,-80 344.23,-83.5 354.23,-87 354.23,-80"/>
</g>
<!-- Node12 -->
<g id="node12" class="node">
<title>Node12</title>
<g id="a_node12"><a xlink:href="class_ogre_1_1_metal_texture.html" target="_top" xlink:title=" ">
<polygon fill="none" stroke="black" points="386.94,-37.5 386.94,-55.5 487.97,-55.5 487.97,-37.5 386.94,-37.5"/>
<text text-anchor="middle" x="437.46" y="-43.5" font-family="Helvetica,sans-Serif" font-size="10.00">Ogre::MetalTexture</text>
</a>
</g>
</g>
<!-- Node1&#45;&gt;Node12 -->
<g id="edge11" class="edge">
<title>Node1&#45;&gt;Node12</title>
<path fill="none" stroke="midnightblue" d="M348.25,-71.65C366.51,-66.45 387.61,-60.43 404.59,-55.59"/>
<polygon fill="midnightblue" stroke="midnightblue" points="347.1,-68.34 338.44,-74.45 349.02,-75.07 347.1,-68.34"/>
</g>
<!-- Node15 -->
<g id="node15" class="node">
<title>Node15</title>
<g id="a_node15"><a xlink:href="class_ogre_1_1_n_u_l_l_texture.html" target="_top" xlink:title=" ">
<polygon fill="none" stroke="black" points="386.75,-0.5 386.75,-18.5 488.16,-18.5 488.16,-0.5 386.75,-0.5"/>
<text text-anchor="middle" x="437.46" y="-6.5" font-family="Helvetica,sans-Serif" font-size="10.00">Ogre::NULLTexture</text>
</a>
</g>
</g>
<!-- Node1&#45;&gt;Node15 -->
<g id="edge14" class="edge">
<title>Node1&#45;&gt;Node15</title>
<path fill="none" stroke="midnightblue" d="M323.86,-67.64C338.01,-55.26 359.1,-38.39 379.99,-27.5 386.74,-23.98 394.31,-20.99 401.65,-18.52"/>
<polygon fill="midnightblue" stroke="midnightblue" points="321.5,-65.05 316.38,-74.33 326.16,-70.27 321.5,-65.05"/>
</g>
<!-- Node2 -->
<g id="node2" class="node">
<title>Node2</title>
<g id="a_node2"><a xlink:href="class_ogre_1_1_resource.html" target="_top" xlink:title="Abstract class representing a loadable resource (e.g.">
<polygon fill="none" stroke="black" points="144.82,-74.5 144.82,-92.5 231.41,-92.5 231.41,-74.5 144.82,-74.5"/>
<text text-anchor="middle" x="188.12" y="-80.5" font-family="Helvetica,sans-Serif" font-size="10.00">Ogre::Resource</text>
</a>
</g>
</g>
<!-- Node2&#45;&gt;Node1 -->
<g id="edge1" class="edge">
<title>Node2&#45;&gt;Node1</title>
<path fill="none" stroke="midnightblue" d="M241.56,-83.5C250.24,-83.5 259.08,-83.5 267.28,-83.5"/>
<polygon fill="midnightblue" stroke="midnightblue" points="241.5,-80 231.5,-83.5 241.5,-87 241.5,-80"/>
</g>
<!-- Node3 -->
<g id="node3" class="node">
<title>Node3</title>
<g id="a_node3"><a xlink:href="class_ogre_1_1_string_interface.html" target="_top" xlink:title="Class defining the common interface which classes can use to present a reflection&#45;style,...">
<polygon fill="none" stroke="black" points="0,-93.5 0,-111.5 108.82,-111.5 108.82,-93.5 0,-93.5"/>
<text text-anchor="middle" x="54.41" y="-99.5" font-family="Helvetica,sans-Serif" font-size="10.00">Ogre::StringInterface</text>
</a>
</g>
</g>
<!-- Node3&#45;&gt;Node2 -->
<g id="edge2" class="edge">
<title>Node3&#45;&gt;Node2</title>
<path fill="none" stroke="midnightblue" d="M119.05,-93.32C127.68,-92.07 136.36,-90.82 144.49,-89.65"/>
<polygon fill="midnightblue" stroke="midnightblue" points="118.38,-89.88 108.98,-94.77 119.38,-96.81 118.38,-89.88"/>
</g>
<!-- Node4 -->
<g id="node4" class="node">
<title>Node4</title>
<g id="a_node4"><a xlink:href="class_ogre_1_1_allocated_object.html" target="_top" xlink:title="Superclass for all objects that wish to use custom memory allocators when their new / delete operator...">
<polygon fill="none" stroke="black" points="14.17,-56.5 14.17,-74.5 94.65,-74.5 94.65,-56.5 14.17,-56.5"/>
<text text-anchor="middle" x="54.41" y="-62.5" font-family="Helvetica,sans-Serif" font-size="10.00">ResourceAlloc</text>
</a>
</g>
</g>
<!-- Node4&#45;&gt;Node2 -->
<g id="edge3" class="edge">
<title>Node4&#45;&gt;Node2</title>
<path fill="none" stroke="midnightblue" d="M105.08,-72.29C118.03,-74.06 131.86,-75.95 144.41,-77.66"/>
<polygon fill="midnightblue" stroke="midnightblue" points="105.31,-68.79 94.93,-70.9 104.36,-75.72 105.31,-68.79"/>
</g>
<!-- Node6 -->
<g id="node6" class="node">
<title>Node6</title>
<g id="a_node6"><a xlink:href="class_ogre_1_1_d3_d11_depth_texture.html" target="_top" xlink:title=" ">
<polygon fill="none" stroke="black" points="534.91,-185.5 534.91,-203.5 668.56,-203.5 668.56,-185.5 534.91,-185.5"/>
<text text-anchor="middle" x="601.73" y="-191.5" font-family="Helvetica,sans-Serif" font-size="10.00">Ogre::D3D11DepthTexture</text>
</a>
</g>
</g>
<!-- Node5&#45;&gt;Node6 -->
<g id="edge5" class="edge">
<title>Node5&#45;&gt;Node6</title>
<path fill="none" stroke="midnightblue" d="M487.93,-168.78C511.42,-174.14 539.1,-180.45 561.17,-185.48"/>
<polygon fill="midnightblue" stroke="midnightblue" points="488.68,-165.36 478.15,-166.55 487.13,-172.19 488.68,-165.36"/>
</g>
<!-- Node7 -->
<g id="node7" class="node">
<title>Node7</title>
<g id="a_node7"><a xlink:href="class_ogre_1_1_d3_d11_null_texture.html" target="_top" xlink:title=" ">
<polygon fill="none" stroke="black" points="539.64,-148.5 539.64,-166.5 663.83,-166.5 663.83,-148.5 539.64,-148.5"/>
<text text-anchor="middle" x="601.73" y="-154.5" font-family="Helvetica,sans-Serif" font-size="10.00">Ogre::D3D11NullTexture</text>
</a>
</g>
</g>
<!-- Node5&#45;&gt;Node7 -->
<g id="edge6" class="edge">
<title>Node5&#45;&gt;Node7</title>
<path fill="none" stroke="midnightblue" d="M501.48,-157.5C514,-157.5 527.12,-157.5 539.57,-157.5"/>
<polygon fill="midnightblue" stroke="midnightblue" points="501.14,-154 491.14,-157.5 501.14,-161 501.14,-154"/>
</g>
<!-- Node10 -->
<g id="node10" class="node">
<title>Node10</title>
<g id="a_node10"><a xlink:href="class_ogre_1_1_g_l3_plus_depth_texture.html" target="_top" xlink:title=" ">
<polygon fill="none" stroke="black" points="530.92,-111.5 530.92,-129.5 672.54,-129.5 672.54,-111.5 530.92,-111.5"/>
<text text-anchor="middle" x="601.73" y="-117.5" font-family="Helvetica,sans-Serif" font-size="10.00">Ogre::GL3PlusDepthTexture</text>
</a>
</g>
</g>
<!-- Node9&#45;&gt;Node10 -->
<g id="edge9" class="edge">
<title>Node9&#45;&gt;Node10</title>
<path fill="none" stroke="midnightblue" d="M487.93,-94.78C511.42,-100.14 539.1,-106.45 561.17,-111.48"/>
<polygon fill="midnightblue" stroke="midnightblue" points="488.68,-91.36 478.15,-92.55 487.13,-98.19 488.68,-91.36"/>
</g>
<!-- Node11 -->
<g id="node11" class="node">
<title>Node11</title>
<g id="a_node11"><a xlink:href="class_ogre_1_1_g_l3_plus_null_texture.html" target="_top" xlink:title=" ">
<polygon fill="none" stroke="black" points="535.65,-74.5 535.65,-92.5 667.82,-92.5 667.82,-74.5 535.65,-74.5"/>
<text text-anchor="middle" x="601.73" y="-80.5" font-family="Helvetica,sans-Serif" font-size="10.00">Ogre::GL3PlusNullTexture</text>
</a>
</g>
</g>
<!-- Node9&#45;&gt;Node11 -->
<g id="edge10" class="edge">
<title>Node9&#45;&gt;Node11</title>
<path fill="none" stroke="midnightblue" d="M505.41,-83.5C515.32,-83.5 525.52,-83.5 535.4,-83.5"/>
<polygon fill="midnightblue" stroke="midnightblue" points="505.21,-80 495.21,-83.5 505.21,-87 505.21,-80"/>
</g>
<!-- Node13 -->
<g id="node13" class="node">
<title>Node13</title>
<g id="a_node13"><a xlink:href="class_ogre_1_1_metal_depth_texture.html" target="_top" xlink:title=" ">
<polygon fill="none" stroke="black" points="537.88,-37.5 537.88,-55.5 665.59,-55.5 665.59,-37.5 537.88,-37.5"/>
<text text-anchor="middle" x="601.73" y="-43.5" font-family="Helvetica,sans-Serif" font-size="10.00">Ogre::MetalDepthTexture</text>
</a>
</g>
</g>
<!-- Node12&#45;&gt;Node13 -->
<g id="edge12" class="edge">
<title>Node12&#45;&gt;Node13</title>
<path fill="none" stroke="midnightblue" d="M498.16,-46.5C511.03,-46.5 524.68,-46.5 537.67,-46.5"/>
<polygon fill="midnightblue" stroke="midnightblue" points="498.03,-43 488.03,-46.5 498.03,-50 498.03,-43"/>
</g>
<!-- Node14 -->
<g id="node14" class="node">
<title>Node14</title>
<g id="a_node14"><a xlink:href="class_ogre_1_1_metal_null_texture.html" target="_top" xlink:title=" ">
<polygon fill="none" stroke="black" points="542.6,-0.5 542.6,-18.5 660.87,-18.5 660.87,-0.5 542.6,-0.5"/>
<text text-anchor="middle" x="601.73" y="-6.5" font-family="Helvetica,sans-Serif" font-size="10.00">Ogre::MetalNullTexture</text>
</a>
</g>
</g>
<!-- Node12&#45;&gt;Node14 -->
<g id="edge13" class="edge">
<title>Node12&#45;&gt;Node14</title>
<path fill="none" stroke="midnightblue" d="M487.93,-35.22C511.42,-29.86 539.1,-23.55 561.17,-18.52"/>
<polygon fill="midnightblue" stroke="midnightblue" points="487.13,-31.81 478.15,-37.45 488.68,-38.64 487.13,-31.81"/>
</g>
</g>
</svg>
