<?xml version="1.0" encoding="UTF-8" standalone="no"?>
<!DOCTYPE svg PUBLIC "-//W3C//DTD SVG 1.1//EN"
 "http://www.w3.org/Graphics/SVG/1.1/DTD/svg11.dtd">
<!-- Generated by graphviz version 2.43.0 (0)
 -->
<!-- Title: Ogre::Grid2DPageStrategyData Pages: 1 -->
<svg width="165pt" height="137pt"
 viewBox="0.00 0.00 165.18 137.00" xmlns="http://www.w3.org/2000/svg" xmlns:xlink="http://www.w3.org/1999/xlink">
<g id="graph0" class="graph" transform="scale(1 1) rotate(0) translate(4 133)">
<title>Ogre::Grid2DPageStrategyData</title>
<!-- Node1 -->
<g id="node1" class="node">
<title>Node1</title>
<g id="a_node1"><a xlink:title="Specialisation of PageStrategyData for Grid2DPageStrategy.">
<polygon fill="#bfbfbf" stroke="black" points="0,-0.5 0,-18.5 157.18,-18.5 157.18,-0.5 0,-0.5"/>
<text text-anchor="middle" x="78.59" y="-6.5" font-family="Helvetica,sans-Serif" font-size="10.00">Ogre::Grid2DPageStrategyData</text>
</a>
</g>
</g>
<!-- Node2 -->
<g id="node2" class="node">
<title>Node2</title>
<g id="a_node2"><a xlink:href="class_ogre_1_1_page_strategy_data.html" target="_top" xlink:title="Abstract marker class representing the data held against the PagedWorldSection which is specifically ...">
<polygon fill="none" stroke="black" points="15.84,-55.5 15.84,-73.5 141.34,-73.5 141.34,-55.5 15.84,-55.5"/>
<text text-anchor="middle" x="78.59" y="-61.5" font-family="Helvetica,sans-Serif" font-size="10.00">Ogre::PageStrategyData</text>
</a>
</g>
</g>
<!-- Node2&#45;&gt;Node1 -->
<g id="edge1" class="edge">
<title>Node2&#45;&gt;Node1</title>
<path fill="none" stroke="midnightblue" d="M78.59,-45.17C78.59,-36.09 78.59,-25.59 78.59,-18.55"/>
<polygon fill="midnightblue" stroke="midnightblue" points="75.09,-45.22 78.59,-55.22 82.09,-45.22 75.09,-45.22"/>
</g>
<!-- Node3 -->
<g id="node3" class="node">
<title>Node3</title>
<g id="a_node3"><a xlink:href="class_ogre_1_1_allocated_object.html" target="_top" xlink:title="Superclass for all objects that wish to use custom memory allocators when their new / delete operator...">
<polygon fill="none" stroke="black" points="48.08,-110.5 48.08,-128.5 109.11,-128.5 109.11,-110.5 48.08,-110.5"/>
<text text-anchor="middle" x="78.59" y="-116.5" font-family="Helvetica,sans-Serif" font-size="10.00">PageAlloc</text>
</a>
</g>
</g>
<!-- Node3&#45;&gt;Node2 -->
<g id="edge2" class="edge">
<title>Node3&#45;&gt;Node2</title>
<path fill="none" stroke="midnightblue" d="M78.59,-100.17C78.59,-91.09 78.59,-80.59 78.59,-73.55"/>
<polygon fill="midnightblue" stroke="midnightblue" points="75.09,-100.22 78.59,-110.22 82.09,-100.22 75.09,-100.22"/>
</g>
</g>
</svg>
