<?xml version="1.0" encoding="UTF-8" standalone="no"?>
<!DOCTYPE svg PUBLIC "-//W3C//DTD SVG 1.1//EN"
 "http://www.w3.org/Graphics/SVG/1.1/DTD/svg11.dtd">
<!-- Generated by graphviz version 2.43.0 (0)
 -->
<!-- Title: Ogre::D3D9HardwareIndexBuffer Pages: 1 -->
<svg width="248pt" height="82pt"
 viewBox="0.00 0.00 248.23 82.00" xmlns="http://www.w3.org/2000/svg" xmlns:xlink="http://www.w3.org/1999/xlink">
<g id="graph0" class="graph" transform="scale(1 1) rotate(0) translate(4 78)">
<title>Ogre::D3D9HardwareIndexBuffer</title>
<!-- Node1 -->
<g id="node1" class="node">
<title>Node1</title>
<g id="a_node1"><a xlink:title=" ">
<polygon fill="#bfbfbf" stroke="black" points="37.32,-0.5 37.32,-18.5 200.99,-18.5 200.99,-0.5 37.32,-0.5"/>
<text text-anchor="middle" x="119.16" y="-6.5" font-family="Helvetica,sans-Serif" font-size="10.00">Ogre::D3D9HardwareIndexBuffer</text>
</a>
</g>
</g>
<!-- Node2 -->
<g id="node2" class="node">
<title>Node2</title>
<g id="a_node2"><a xlink:title=" ">
<polygon fill="none" stroke="#bfbfbf" points="0,-55.5 0,-73.5 110.32,-73.5 110.32,-55.5 0,-55.5"/>
<text text-anchor="middle" x="55.16" y="-61.5" font-family="Helvetica,sans-Serif" font-size="10.00">HardwareIndexBuffer</text>
</a>
</g>
</g>
<!-- Node2&#45;&gt;Node1 -->
<g id="edge1" class="edge">
<title>Node2&#45;&gt;Node1</title>
<path fill="none" stroke="midnightblue" d="M72.76,-48.93C84.55,-39.16 99.63,-26.67 109.35,-18.63"/>
<polygon fill="midnightblue" stroke="midnightblue" points="70.35,-46.38 64.88,-55.45 74.81,-51.77 70.35,-46.38"/>
</g>
<!-- Node3 -->
<g id="node3" class="node">
<title>Node3</title>
<g id="a_node3"><a xlink:href="class_ogre_1_1_d3_d9_resource.html" target="_top" xlink:title="Represents a Direct3D rendering resource.">
<polygon fill="none" stroke="black" points="128.08,-55.5 128.08,-73.5 240.23,-73.5 240.23,-55.5 128.08,-55.5"/>
<text text-anchor="middle" x="184.16" y="-61.5" font-family="Helvetica,sans-Serif" font-size="10.00">Ogre::D3D9Resource</text>
</a>
</g>
</g>
<!-- Node3&#45;&gt;Node1 -->
<g id="edge2" class="edge">
<title>Node3&#45;&gt;Node1</title>
<path fill="none" stroke="midnightblue" d="M166.28,-48.93C154.31,-39.16 138.99,-26.67 129.12,-18.63"/>
<polygon fill="midnightblue" stroke="midnightblue" points="164.32,-51.84 174.29,-55.45 168.75,-46.42 164.32,-51.84"/>
</g>
</g>
</svg>
