<?xml version="1.0" encoding="UTF-8" standalone="no"?>
<!DOCTYPE svg PUBLIC "-//W3C//DTD SVG 1.1//EN"
 "http://www.w3.org/Graphics/SVG/1.1/DTD/svg11.dtd">
<!-- Generated by graphviz version 2.43.0 (0)
 -->
<!-- Title: Ogre::v1::GLES2DefaultHardwareIndexBuffer Pages: 1 -->
<svg width="175pt" height="202pt"
 viewBox="0.00 0.00 175.18 202.00" xmlns="http://www.w3.org/2000/svg" xmlns:xlink="http://www.w3.org/1999/xlink">
<g id="graph0" class="graph" transform="scale(1 1) rotate(0) translate(4 198)">
<title>Ogre::v1::GLES2DefaultHardwareIndexBuffer</title>
<!-- Node1 -->
<g id="node1" class="node">
<title>Node1</title>
<g id="a_node1"><a xlink:title="Specialisation of HardwareIndexBuffer for emulation.">
<polygon fill="#bfbfbf" stroke="black" points="0,-0.5 0,-28.5 167.18,-28.5 167.18,-0.5 0,-0.5"/>
<text text-anchor="start" x="8" y="-16.5" font-family="Helvetica,sans-Serif" font-size="10.00">Ogre::v1::GLES2DefaultHardware</text>
<text text-anchor="middle" x="83.59" y="-6.5" font-family="Helvetica,sans-Serif" font-size="10.00">IndexBuffer</text>
</a>
</g>
</g>
<!-- Node2 -->
<g id="node2" class="node">
<title>Node2</title>
<g id="a_node2"><a xlink:href="class_ogre_1_1v1_1_1_hardware_index_buffer.html" target="_top" xlink:title="Specialisation of HardwareBuffer for vertex index buffers, still abstract.">
<polygon fill="none" stroke="black" points="6.48,-65.5 6.48,-83.5 160.7,-83.5 160.7,-65.5 6.48,-65.5"/>
<text text-anchor="middle" x="83.59" y="-71.5" font-family="Helvetica,sans-Serif" font-size="10.00">Ogre::v1::HardwareIndexBuffer</text>
</a>
</g>
</g>
<!-- Node2&#45;&gt;Node1 -->
<g id="edge1" class="edge">
<title>Node2&#45;&gt;Node1</title>
<path fill="none" stroke="midnightblue" d="M83.59,-55.32C83.59,-46.75 83.59,-36.7 83.59,-28.84"/>
<polygon fill="midnightblue" stroke="midnightblue" points="80.09,-55.44 83.59,-65.44 87.09,-55.44 80.09,-55.44"/>
</g>
<!-- Node3 -->
<g id="node3" class="node">
<title>Node3</title>
<g id="a_node3"><a xlink:href="class_ogre_1_1v1_1_1_hardware_buffer.html" target="_top" xlink:title="Abstract class defining common features of hardware buffers.">
<polygon fill="none" stroke="black" points="18.71,-120.5 18.71,-138.5 148.47,-138.5 148.47,-120.5 18.71,-120.5"/>
<text text-anchor="middle" x="83.59" y="-126.5" font-family="Helvetica,sans-Serif" font-size="10.00">Ogre::v1::HardwareBuffer</text>
</a>
</g>
</g>
<!-- Node3&#45;&gt;Node2 -->
<g id="edge2" class="edge">
<title>Node3&#45;&gt;Node2</title>
<path fill="none" stroke="midnightblue" d="M83.59,-110.17C83.59,-101.09 83.59,-90.59 83.59,-83.55"/>
<polygon fill="midnightblue" stroke="midnightblue" points="80.09,-110.22 83.59,-120.22 87.09,-110.22 80.09,-110.22"/>
</g>
<!-- Node4 -->
<g id="node4" class="node">
<title>Node4</title>
<g id="a_node4"><a xlink:href="class_ogre_1_1_allocated_object.html" target="_top" xlink:title="Superclass for all objects that wish to use custom memory allocators when their new / delete operator...">
<polygon fill="none" stroke="black" points="51.5,-175.5 51.5,-193.5 115.68,-193.5 115.68,-175.5 51.5,-175.5"/>
<text text-anchor="middle" x="83.59" y="-181.5" font-family="Helvetica,sans-Serif" font-size="10.00">BufferAlloc</text>
</a>
</g>
</g>
<!-- Node4&#45;&gt;Node3 -->
<g id="edge3" class="edge">
<title>Node4&#45;&gt;Node3</title>
<path fill="none" stroke="midnightblue" d="M83.59,-165.17C83.59,-156.09 83.59,-145.59 83.59,-138.55"/>
<polygon fill="midnightblue" stroke="midnightblue" points="80.09,-165.22 83.59,-175.22 87.09,-165.22 80.09,-165.22"/>
</g>
</g>
</svg>
