<?xml version="1.0" encoding="UTF-8" standalone="no"?>
<!DOCTYPE svg PUBLIC "-//W3C//DTD SVG 1.1//EN"
 "http://www.w3.org/Graphics/SVG/1.1/DTD/svg11.dtd">
<!-- Generated by graphviz version 2.43.0 (0)
 -->
<!-- Title: Ogre::v1::HardwareBufferManager Pages: 1 -->
<svg width="615pt" height="319pt"
 viewBox="0.00 0.00 614.58 319.00" xmlns="http://www.w3.org/2000/svg" xmlns:xlink="http://www.w3.org/1999/xlink">
<g id="graph0" class="graph" transform="scale(1 1) rotate(0) translate(4 315)">
<title>Ogre::v1::HardwareBufferManager</title>
<!-- Node1 -->
<g id="node1" class="node">
<title>Node1</title>
<g id="a_node1"><a xlink:title="Singleton wrapper for hardware buffer manager.">
<polygon fill="#bfbfbf" stroke="black" points="273.63,-141.5 273.63,-169.5 403.39,-169.5 403.39,-141.5 273.63,-141.5"/>
<text text-anchor="start" x="281.63" y="-157.5" font-family="Helvetica,sans-Serif" font-size="10.00">Ogre::v1::HardwareBuffer</text>
<text text-anchor="middle" x="338.51" y="-147.5" font-family="Helvetica,sans-Serif" font-size="10.00">Manager</text>
</a>
</g>
</g>
<!-- Node5 -->
<g id="node5" class="node">
<title>Node5</title>
<g id="a_node5"><a xlink:href="class_ogre_1_1v1_1_1_d3_d11_hardware_buffer_manager.html" target="_top" xlink:title="D3D11HardwareBufferManagerBase as a Singleton.">
<polygon fill="none" stroke="black" points="442.91,-282.5 442.91,-310.5 603.06,-310.5 603.06,-282.5 442.91,-282.5"/>
<text text-anchor="start" x="450.91" y="-298.5" font-family="Helvetica,sans-Serif" font-size="10.00">Ogre::v1::D3D11HardwareBuffer</text>
<text text-anchor="middle" x="522.98" y="-288.5" font-family="Helvetica,sans-Serif" font-size="10.00">Manager</text>
</a>
</g>
</g>
<!-- Node1&#45;&gt;Node5 -->
<g id="edge4" class="edge">
<title>Node1&#45;&gt;Node5</title>
<path fill="none" stroke="midnightblue" d="M353.03,-178.61C369.88,-205.4 401.19,-249.01 439.39,-273.5 444.78,-276.95 450.69,-279.9 456.79,-282.4"/>
<polygon fill="midnightblue" stroke="midnightblue" points="355.89,-176.59 347.68,-169.89 349.93,-180.25 355.89,-176.59"/>
</g>
<!-- Node6 -->
<g id="node6" class="node">
<title>Node6</title>
<g id="a_node6"><a xlink:href="class_ogre_1_1v1_1_1_default_hardware_buffer_manager.html" target="_top" xlink:title="DefaultHardwareBufferManager as a Singleton.">
<polygon fill="none" stroke="black" points="455.51,-235.5 455.51,-263.5 590.45,-263.5 590.45,-235.5 455.51,-235.5"/>
<text text-anchor="start" x="463.51" y="-251.5" font-family="Helvetica,sans-Serif" font-size="10.00">Ogre::v1::DefaultHardware</text>
<text text-anchor="middle" x="522.98" y="-241.5" font-family="Helvetica,sans-Serif" font-size="10.00">BufferManager</text>
</a>
</g>
</g>
<!-- Node1&#45;&gt;Node6 -->
<g id="edge5" class="edge">
<title>Node1&#45;&gt;Node6</title>
<path fill="none" stroke="midnightblue" d="M363.41,-176.12C382.76,-191.89 411.33,-213.12 439.39,-226.5 446.51,-229.89 454.23,-232.87 461.98,-235.45"/>
<polygon fill="midnightblue" stroke="midnightblue" points="365.64,-173.42 355.71,-169.73 361.17,-178.81 365.64,-173.42"/>
</g>
<!-- Node7 -->
<g id="node7" class="node">
<title>Node7</title>
<g id="a_node7"><a xlink:href="class_ogre_1_1v1_1_1_g_l3_plus_default_hardware_buffer_manager.html" target="_top" xlink:title="GL3PlusDefaultHardwareBufferManagerBase as a Singleton.">
<polygon fill="none" stroke="black" points="458.01,-188.5 458.01,-216.5 587.96,-216.5 587.96,-188.5 458.01,-188.5"/>
<text text-anchor="start" x="466.01" y="-204.5" font-family="Helvetica,sans-Serif" font-size="10.00">Ogre::v1::GL3PlusDefault</text>
<text text-anchor="middle" x="522.98" y="-194.5" font-family="Helvetica,sans-Serif" font-size="10.00">HardwareBufferManager</text>
</a>
</g>
</g>
<!-- Node1&#45;&gt;Node7 -->
<g id="edge6" class="edge">
<title>Node1&#45;&gt;Node7</title>
<path fill="none" stroke="midnightblue" d="M403.97,-172.1C424.76,-177.46 447.6,-183.34 467.59,-188.49"/>
<polygon fill="midnightblue" stroke="midnightblue" points="404.82,-168.71 394.26,-169.6 403.07,-175.49 404.82,-168.71"/>
</g>
<!-- Node8 -->
<g id="node8" class="node">
<title>Node8</title>
<g id="a_node8"><a xlink:href="class_ogre_1_1v1_1_1_g_l3_plus_hardware_buffer_manager.html" target="_top" xlink:title="GL3PlusHardwareBufferManagerBase as a Singleton.">
<polygon fill="none" stroke="black" points="452.18,-141.5 452.18,-169.5 593.79,-169.5 593.79,-141.5 452.18,-141.5"/>
<text text-anchor="start" x="460.18" y="-157.5" font-family="Helvetica,sans-Serif" font-size="10.00">Ogre::v1::GL3PlusHardware</text>
<text text-anchor="middle" x="522.98" y="-147.5" font-family="Helvetica,sans-Serif" font-size="10.00">BufferManager</text>
</a>
</g>
</g>
<!-- Node1&#45;&gt;Node8 -->
<g id="edge7" class="edge">
<title>Node1&#45;&gt;Node8</title>
<path fill="none" stroke="midnightblue" d="M413.67,-155.5C426.39,-155.5 439.56,-155.5 452.16,-155.5"/>
<polygon fill="midnightblue" stroke="midnightblue" points="413.59,-152 403.59,-155.5 413.59,-159 413.59,-152"/>
</g>
<!-- Node9 -->
<g id="node9" class="node">
<title>Node9</title>
<g id="a_node9"><a xlink:href="class_ogre_1_1v1_1_1_g_l_e_s2_default_hardware_buffer_manager.html" target="_top" xlink:title="GLES2DefaultHardwareBufferManagerBase as a Singleton.">
<polygon fill="none" stroke="black" points="439.39,-94.5 439.39,-122.5 606.58,-122.5 606.58,-94.5 439.39,-94.5"/>
<text text-anchor="start" x="447.39" y="-110.5" font-family="Helvetica,sans-Serif" font-size="10.00">Ogre::v1::GLES2DefaultHardware</text>
<text text-anchor="middle" x="522.98" y="-100.5" font-family="Helvetica,sans-Serif" font-size="10.00">BufferManager</text>
</a>
</g>
</g>
<!-- Node1&#45;&gt;Node9 -->
<g id="edge8" class="edge">
<title>Node1&#45;&gt;Node9</title>
<path fill="none" stroke="midnightblue" d="M403.97,-138.9C424.76,-133.54 447.6,-127.66 467.59,-122.51"/>
<polygon fill="midnightblue" stroke="midnightblue" points="403.07,-135.51 394.26,-141.4 404.82,-142.29 403.07,-135.51"/>
</g>
<!-- Node10 -->
<g id="node10" class="node">
<title>Node10</title>
<g id="a_node10"><a xlink:href="class_ogre_1_1v1_1_1_g_l_e_s2_hardware_buffer_manager.html" target="_top" xlink:title="GLES2HardwareBufferManagerBase as a Singleton.">
<polygon fill="none" stroke="black" points="441.98,-47.5 441.98,-75.5 603.98,-75.5 603.98,-47.5 441.98,-47.5"/>
<text text-anchor="start" x="449.98" y="-63.5" font-family="Helvetica,sans-Serif" font-size="10.00">Ogre::v1::GLES2HardwareBuffer</text>
<text text-anchor="middle" x="522.98" y="-53.5" font-family="Helvetica,sans-Serif" font-size="10.00">Manager</text>
</a>
</g>
</g>
<!-- Node1&#45;&gt;Node10 -->
<g id="edge9" class="edge">
<title>Node1&#45;&gt;Node10</title>
<path fill="none" stroke="midnightblue" d="M363.41,-134.88C382.76,-119.11 411.33,-97.88 439.39,-84.5 446.51,-81.11 454.23,-78.13 461.98,-75.55"/>
<polygon fill="midnightblue" stroke="midnightblue" points="361.17,-132.19 355.71,-141.27 365.64,-137.58 361.17,-132.19"/>
</g>
<!-- Node11 -->
<g id="node11" class="node">
<title>Node11</title>
<g id="a_node11"><a xlink:href="class_ogre_1_1v1_1_1_metal_hardware_buffer_manager.html" target="_top" xlink:title="MetalHardwareBufferManagerBase as a Singleton.">
<polygon fill="none" stroke="black" points="445.88,-0.5 445.88,-28.5 600.09,-28.5 600.09,-0.5 445.88,-0.5"/>
<text text-anchor="start" x="453.88" y="-16.5" font-family="Helvetica,sans-Serif" font-size="10.00">Ogre::v1::MetalHardwareBuffer</text>
<text text-anchor="middle" x="522.98" y="-6.5" font-family="Helvetica,sans-Serif" font-size="10.00">Manager</text>
</a>
</g>
</g>
<!-- Node1&#45;&gt;Node11 -->
<g id="edge10" class="edge">
<title>Node1&#45;&gt;Node11</title>
<path fill="none" stroke="midnightblue" d="M353.03,-132.39C369.88,-105.6 401.19,-61.99 439.39,-37.5 444.78,-34.05 450.69,-31.1 456.79,-28.6"/>
<polygon fill="midnightblue" stroke="midnightblue" points="349.93,-130.75 347.68,-141.11 355.89,-134.41 349.93,-130.75"/>
</g>
<!-- Node2 -->
<g id="node2" class="node">
<title>Node2</title>
<g id="a_node2"><a xlink:href="class_ogre_1_1v1_1_1_hardware_buffer_manager_base.html" target="_top" xlink:title="Base definition of a hardware buffer manager.">
<polygon fill="none" stroke="black" points="104.03,-165.5 104.03,-193.5 233.79,-193.5 233.79,-165.5 104.03,-165.5"/>
<text text-anchor="start" x="112.03" y="-181.5" font-family="Helvetica,sans-Serif" font-size="10.00">Ogre::v1::HardwareBuffer</text>
<text text-anchor="middle" x="168.91" y="-171.5" font-family="Helvetica,sans-Serif" font-size="10.00">ManagerBase</text>
</a>
</g>
</g>
<!-- Node2&#45;&gt;Node1 -->
<g id="edge1" class="edge">
<title>Node2&#45;&gt;Node1</title>
<path fill="none" stroke="midnightblue" d="M244.26,-168.85C253.97,-167.46 263.84,-166.05 273.36,-164.69"/>
<polygon fill="midnightblue" stroke="midnightblue" points="243.63,-165.41 234.23,-170.29 244.62,-172.34 243.63,-165.41"/>
</g>
<!-- Node3 -->
<g id="node3" class="node">
<title>Node3</title>
<g id="a_node3"><a xlink:href="class_ogre_1_1_allocated_object.html" target="_top" xlink:title="Superclass for all objects that wish to use custom memory allocators when their new / delete operator...">
<polygon fill="none" stroke="black" points="0,-170.5 0,-188.5 64.18,-188.5 64.18,-170.5 0,-170.5"/>
<text text-anchor="middle" x="32.09" y="-176.5" font-family="Helvetica,sans-Serif" font-size="10.00">BufferAlloc</text>
</a>
</g>
</g>
<!-- Node3&#45;&gt;Node2 -->
<g id="edge2" class="edge">
<title>Node3&#45;&gt;Node2</title>
<path fill="none" stroke="midnightblue" d="M74.48,-179.5C83.79,-179.5 93.87,-179.5 103.85,-179.5"/>
<polygon fill="midnightblue" stroke="midnightblue" points="74.36,-176 64.36,-179.5 74.36,-183 74.36,-176"/>
</g>
<!-- Node4 -->
<g id="node4" class="node">
<title>Node4</title>
<g id="a_node4"><a xlink:href="class_ogre_1_1_singleton.html" target="_top" xlink:title=" ">
<polygon fill="none" stroke="black" points="100.18,-118.5 100.18,-146.5 237.63,-146.5 237.63,-118.5 100.18,-118.5"/>
<text text-anchor="start" x="108.18" y="-134.5" font-family="Helvetica,sans-Serif" font-size="10.00">Ogre::Singleton&lt; Hardware</text>
<text text-anchor="middle" x="168.91" y="-124.5" font-family="Helvetica,sans-Serif" font-size="10.00">BufferManager &gt;</text>
</a>
</g>
</g>
<!-- Node4&#45;&gt;Node1 -->
<g id="edge3" class="edge">
<title>Node4&#45;&gt;Node1</title>
<path fill="none" stroke="midnightblue" d="M248.02,-143.22C256.54,-144.39 265.14,-145.57 273.46,-146.71"/>
<polygon fill="midnightblue" stroke="midnightblue" points="248.46,-139.75 238.08,-141.85 247.51,-146.68 248.46,-139.75"/>
</g>
</g>
</svg>
