<?xml version="1.0" encoding="UTF-8" standalone="no"?>
<!DOCTYPE svg PUBLIC "-//W3C//DTD SVG 1.1//EN"
 "http://www.w3.org/Graphics/SVG/1.1/DTD/svg11.dtd">
<!-- Generated by graphviz version 2.43.0 (0)
 -->
<!-- Title: Ogre::v1::OldNode Pages: 1 -->
<svg width="107pt" height="192pt"
 viewBox="0.00 0.00 107.37 192.00" xmlns="http://www.w3.org/2000/svg" xmlns:xlink="http://www.w3.org/1999/xlink">
<g id="graph0" class="graph" transform="scale(1 1) rotate(0) translate(4 188)">
<title>Ogre::v1::OldNode</title>
<!-- Node1 -->
<g id="node1" class="node">
<title>Node1</title>
<g id="a_node1"><a xlink:title="Class representing a general&#45;purpose OldNode an articulated scene graph.">
<polygon fill="#bfbfbf" stroke="black" points="0,-110.5 0,-128.5 99.37,-128.5 99.37,-110.5 0,-110.5"/>
<text text-anchor="middle" x="49.69" y="-116.5" font-family="Helvetica,sans-Serif" font-size="10.00">Ogre::v1::OldNode</text>
</a>
</g>
</g>
<!-- Node3 -->
<g id="node3" class="node">
<title>Node3</title>
<g id="a_node3"><a xlink:href="class_ogre_1_1v1_1_1_old_bone.html" target="_top" xlink:title="A bone in a skeleton.">
<polygon fill="none" stroke="black" points="0.28,-55.5 0.28,-73.5 99.1,-73.5 99.1,-55.5 0.28,-55.5"/>
<text text-anchor="middle" x="49.69" y="-61.5" font-family="Helvetica,sans-Serif" font-size="10.00">Ogre::v1::OldBone</text>
</a>
</g>
</g>
<!-- Node1&#45;&gt;Node3 -->
<g id="edge2" class="edge">
<title>Node1&#45;&gt;Node3</title>
<path fill="none" stroke="midnightblue" d="M49.69,-100.17C49.69,-91.09 49.69,-80.59 49.69,-73.55"/>
<polygon fill="midnightblue" stroke="midnightblue" points="46.19,-100.22 49.69,-110.22 53.19,-100.22 46.19,-100.22"/>
</g>
<!-- Node2 -->
<g id="node2" class="node">
<title>Node2</title>
<g id="a_node2"><a xlink:href="class_ogre_1_1_allocated_object.html" target="_top" xlink:title="Superclass for all objects that wish to use custom memory allocators when their new / delete operator...">
<polygon fill="none" stroke="black" points="18.9,-165.5 18.9,-183.5 80.48,-183.5 80.48,-165.5 18.9,-165.5"/>
<text text-anchor="middle" x="49.69" y="-171.5" font-family="Helvetica,sans-Serif" font-size="10.00">NodeAlloc</text>
</a>
</g>
</g>
<!-- Node2&#45;&gt;Node1 -->
<g id="edge1" class="edge">
<title>Node2&#45;&gt;Node1</title>
<path fill="none" stroke="midnightblue" d="M49.69,-155.17C49.69,-146.09 49.69,-135.59 49.69,-128.55"/>
<polygon fill="midnightblue" stroke="midnightblue" points="46.19,-155.22 49.69,-165.22 53.19,-155.22 46.19,-155.22"/>
</g>
<!-- Node4 -->
<g id="node4" class="node">
<title>Node4</title>
<g id="a_node4"><a xlink:href="class_ogre_1_1v1_1_1_tag_point.html" target="_top" xlink:title="A tagged point on a skeleton, which can be used to attach entities to on specific other entities.">
<polygon fill="none" stroke="black" points="0.28,-0.5 0.28,-18.5 99.1,-18.5 99.1,-0.5 0.28,-0.5"/>
<text text-anchor="middle" x="49.69" y="-6.5" font-family="Helvetica,sans-Serif" font-size="10.00">Ogre::v1::TagPoint</text>
</a>
</g>
</g>
<!-- Node3&#45;&gt;Node4 -->
<g id="edge3" class="edge">
<title>Node3&#45;&gt;Node4</title>
<path fill="none" stroke="midnightblue" d="M49.69,-45.17C49.69,-36.09 49.69,-25.59 49.69,-18.55"/>
<polygon fill="midnightblue" stroke="midnightblue" points="46.19,-45.22 49.69,-55.22 53.19,-45.22 46.19,-45.22"/>
</g>
</g>
</svg>
