<?xml version="1.0" encoding="UTF-8" standalone="no"?>
<!DOCTYPE svg PUBLIC "-//W3C//DTD SVG 1.1//EN"
 "http://www.w3.org/Graphics/SVG/1.1/DTD/svg11.dtd">
<!-- Generated by graphviz version 2.43.0 (0)
 -->
<!-- Title: Ogre::FrameListener Pages: 1 -->
<svg width="340pt" height="185pt"
 viewBox="0.00 0.00 340.01 185.00" xmlns="http://www.w3.org/2000/svg" xmlns:xlink="http://www.w3.org/1999/xlink">
<g id="graph0" class="graph" transform="scale(1 1) rotate(0) translate(4 181)">
<title>Ogre::FrameListener</title>
<!-- Node1 -->
<g id="node1" class="node">
<title>Node1</title>
<g id="a_node1"><a xlink:title="A interface class defining a listener which can be used to receive notifications of frame events.">
<polygon fill="#bfbfbf" stroke="black" points="0,-74.5 0,-92.5 108.26,-92.5 108.26,-74.5 0,-74.5"/>
<text text-anchor="middle" x="54.13" y="-80.5" font-family="Helvetica,sans-Serif" font-size="10.00">Ogre::FrameListener</text>
</a>
</g>
</g>
<!-- Node2 -->
<g id="node2" class="node">
<title>Node2</title>
<g id="a_node2"><a xlink:href="class_ogre_1_1_frame_time_controller_value.html" target="_top" xlink:title="Predefined controller value for getting the latest frame time.">
<polygon fill="none" stroke="black" points="169.19,-148.5 169.19,-176.5 307.07,-176.5 307.07,-148.5 169.19,-148.5"/>
<text text-anchor="start" x="177.19" y="-164.5" font-family="Helvetica,sans-Serif" font-size="10.00">Ogre::FrameTimeController</text>
<text text-anchor="middle" x="238.13" y="-154.5" font-family="Helvetica,sans-Serif" font-size="10.00">Value</text>
</a>
</g>
</g>
<!-- Node1&#45;&gt;Node2 -->
<g id="edge1" class="edge">
<title>Node1&#45;&gt;Node2</title>
<path fill="none" stroke="midnightblue" d="M75.09,-98.66C92.51,-111.23 118.91,-128.73 144.26,-139.5 152.21,-142.88 160.76,-145.83 169.34,-148.4"/>
<polygon fill="midnightblue" stroke="midnightblue" points="76.98,-95.7 66.85,-92.59 72.83,-101.34 76.98,-95.7"/>
</g>
<!-- Node3 -->
<g id="node3" class="node">
<title>Node3</title>
<g id="a_node3"><a xlink:href="class_ogre_1_1_parallax_corrected_cubemap.html" target="_top" xlink:title=" ">
<polygon fill="none" stroke="black" points="154.54,-111.5 154.54,-129.5 321.72,-129.5 321.72,-111.5 154.54,-111.5"/>
<text text-anchor="middle" x="238.13" y="-117.5" font-family="Helvetica,sans-Serif" font-size="10.00">Ogre::ParallaxCorrectedCubemap</text>
</a>
</g>
</g>
<!-- Node1&#45;&gt;Node3 -->
<g id="edge2" class="edge">
<title>Node1&#45;&gt;Node3</title>
<path fill="none" stroke="midnightblue" d="M106.88,-94.7C119.12,-97.31 132.14,-100.04 144.26,-102.5 158.9,-105.48 174.87,-108.62 189.37,-111.42"/>
<polygon fill="midnightblue" stroke="midnightblue" points="107.32,-91.22 96.81,-92.55 105.86,-98.06 107.32,-91.22"/>
</g>
<!-- Node4 -->
<g id="node4" class="node">
<title>Node4</title>
<g id="a_node4"><a xlink:href="class_ogre_1_1_parallax_corrected_cubemap_auto.html" target="_top" xlink:title=" ">
<polygon fill="none" stroke="black" points="144.26,-74.5 144.26,-92.5 332.01,-92.5 332.01,-74.5 144.26,-74.5"/>
<text text-anchor="middle" x="238.13" y="-80.5" font-family="Helvetica,sans-Serif" font-size="10.00">Ogre::ParallaxCorrectedCubemapAuto</text>
</a>
</g>
</g>
<!-- Node1&#45;&gt;Node4 -->
<g id="edge3" class="edge">
<title>Node1&#45;&gt;Node4</title>
<path fill="none" stroke="midnightblue" d="M118.3,-83.5C126.7,-83.5 135.44,-83.5 144.21,-83.5"/>
<polygon fill="midnightblue" stroke="midnightblue" points="118.26,-80 108.26,-83.5 118.26,-87 118.26,-80"/>
</g>
<!-- Node5 -->
<g id="node5" class="node">
<title>Node5</title>
<g id="a_node5"><a xlink:href="class_ogre_1_1_terrain.html" target="_top" xlink:title="The main containing class for a chunk of terrain.">
<polygon fill="none" stroke="black" points="200.96,-37.5 200.96,-55.5 275.31,-55.5 275.31,-37.5 200.96,-37.5"/>
<text text-anchor="middle" x="238.13" y="-43.5" font-family="Helvetica,sans-Serif" font-size="10.00">Ogre::Terrain</text>
</a>
</g>
</g>
<!-- Node1&#45;&gt;Node5 -->
<g id="edge4" class="edge">
<title>Node1&#45;&gt;Node5</title>
<path fill="none" stroke="midnightblue" d="M109.78,-72.39C139.19,-66.41 174.68,-59.2 200.71,-53.9"/>
<polygon fill="midnightblue" stroke="midnightblue" points="108.75,-69.03 99.65,-74.45 110.15,-75.89 108.75,-69.03"/>
</g>
<!-- Node6 -->
<g id="node6" class="node">
<title>Node6</title>
<g id="a_node6"><a xlink:href="class_ogre_1_1_volume_1_1_chunk.html" target="_top" xlink:title="A single volume chunk mesh.">
<polygon fill="none" stroke="black" points="182.33,-0.5 182.33,-18.5 293.94,-18.5 293.94,-0.5 182.33,-0.5"/>
<text text-anchor="middle" x="238.13" y="-6.5" font-family="Helvetica,sans-Serif" font-size="10.00">Ogre::Volume::Chunk</text>
</a>
</g>
</g>
<!-- Node1&#45;&gt;Node6 -->
<g id="edge5" class="edge">
<title>Node1&#45;&gt;Node6</title>
<path fill="none" stroke="midnightblue" d="M75.02,-68.37C92.4,-55.87 118.78,-38.6 144.26,-28.5 156.19,-23.77 169.47,-20.16 182.18,-17.42"/>
<polygon fill="midnightblue" stroke="midnightblue" points="72.79,-65.67 66.8,-74.41 76.94,-71.31 72.79,-65.67"/>
</g>
</g>
</svg>
