<?xml version="1.0" encoding="UTF-8" standalone="no"?>
<!DOCTYPE svg PUBLIC "-//W3C//DTD SVG 1.1//EN"
 "http://www.w3.org/Graphics/SVG/1.1/DTD/svg11.dtd">
<!-- Generated by graphviz version 2.43.0 (0)
 -->
<!-- Title: Ogre::IOException Pages: 1 -->
<svg width="106pt" height="137pt"
 viewBox="0.00 0.00 106.26 137.00" xmlns="http://www.w3.org/2000/svg" xmlns:xlink="http://www.w3.org/1999/xlink">
<g id="graph0" class="graph" transform="scale(1 1) rotate(0) translate(4 133)">
<title>Ogre::IOException</title>
<!-- Node1 -->
<g id="node1" class="node">
<title>Node1</title>
<g id="a_node1"><a xlink:title=" ">
<polygon fill="#bfbfbf" stroke="black" points="0,-0.5 0,-18.5 98.26,-18.5 98.26,-0.5 0,-0.5"/>
<text text-anchor="middle" x="49.13" y="-6.5" font-family="Helvetica,sans-Serif" font-size="10.00">Ogre::IOException</text>
</a>
</g>
</g>
<!-- Node2 -->
<g id="node2" class="node">
<title>Node2</title>
<g id="a_node2"><a xlink:href="class_ogre_1_1_exception.html" target="_top" xlink:title="When thrown, provides information about an error that has occurred inside the engine.">
<polygon fill="none" stroke="black" points="5.28,-55.5 5.28,-73.5 92.98,-73.5 92.98,-55.5 5.28,-55.5"/>
<text text-anchor="middle" x="49.13" y="-61.5" font-family="Helvetica,sans-Serif" font-size="10.00">Ogre::Exception</text>
</a>
</g>
</g>
<!-- Node2&#45;&gt;Node1 -->
<g id="edge1" class="edge">
<title>Node2&#45;&gt;Node1</title>
<path fill="none" stroke="midnightblue" d="M49.13,-45.17C49.13,-36.09 49.13,-25.59 49.13,-18.55"/>
<polygon fill="midnightblue" stroke="midnightblue" points="45.63,-45.22 49.13,-55.22 52.63,-45.22 45.63,-45.22"/>
</g>
<!-- Node3 -->
<g id="node3" class="node">
<title>Node3</title>
<g id="a_node3"><a xlink:title=" ">
<polygon fill="none" stroke="#bfbfbf" points="10.28,-110.5 10.28,-128.5 87.98,-128.5 87.98,-110.5 10.28,-110.5"/>
<text text-anchor="middle" x="49.13" y="-116.5" font-family="Helvetica,sans-Serif" font-size="10.00">std::exception</text>
</a>
</g>
</g>
<!-- Node3&#45;&gt;Node2 -->
<g id="edge2" class="edge">
<title>Node3&#45;&gt;Node2</title>
<path fill="none" stroke="midnightblue" d="M49.13,-100.17C49.13,-91.09 49.13,-80.59 49.13,-73.55"/>
<polygon fill="midnightblue" stroke="midnightblue" points="45.63,-100.22 49.13,-110.22 52.63,-100.22 45.63,-100.22"/>
</g>
</g>
</svg>
