<?xml version="1.0" encoding="UTF-8" standalone="no"?>
<!DOCTYPE svg PUBLIC "-//W3C//DTD SVG 1.1//EN"
 "http://www.w3.org/Graphics/SVG/1.1/DTD/svg11.dtd">
<!-- Generated by graphviz version 2.43.0 (0)
 -->
<!-- Title: Ogre::D3D11HLSLProgram Pages: 1 -->
<svg width="357pt" height="247pt"
 viewBox="0.00 0.00 357.18 247.00" xmlns="http://www.w3.org/2000/svg" xmlns:xlink="http://www.w3.org/1999/xlink">
<g id="graph0" class="graph" transform="scale(1 1) rotate(0) translate(4 243)">
<title>Ogre::D3D11HLSLProgram</title>
<!-- Node1 -->
<g id="node1" class="node">
<title>Node1</title>
<g id="a_node1"><a xlink:title="Specialization of HighLevelGpuProgram to provide support for D3D11 High&#45;Level Shader Language (HLSL).">
<polygon fill="#bfbfbf" stroke="black" points="123.64,-0.5 123.64,-18.5 261.18,-18.5 261.18,-0.5 123.64,-0.5"/>
<text text-anchor="middle" x="192.41" y="-6.5" font-family="Helvetica,sans-Serif" font-size="10.00">Ogre::D3D11HLSLProgram</text>
</a>
</g>
</g>
<!-- Node2 -->
<g id="node2" class="node">
<title>Node2</title>
<g id="a_node2"><a xlink:href="class_ogre_1_1_high_level_gpu_program.html" target="_top" xlink:title="Abstract base class representing a high&#45;level program (a vertex or fragment program).">
<polygon fill="none" stroke="black" points="37.66,-55.5 37.66,-73.5 183.16,-73.5 183.16,-55.5 37.66,-55.5"/>
<text text-anchor="middle" x="110.41" y="-61.5" font-family="Helvetica,sans-Serif" font-size="10.00">Ogre::HighLevelGpuProgram</text>
</a>
</g>
</g>
<!-- Node2&#45;&gt;Node1 -->
<g id="edge1" class="edge">
<title>Node2&#45;&gt;Node1</title>
<path fill="none" stroke="midnightblue" d="M131.65,-49.77C146.93,-39.89 167.03,-26.9 179.84,-18.63"/>
<polygon fill="midnightblue" stroke="midnightblue" points="129.36,-47.08 122.87,-55.45 133.16,-52.96 129.36,-47.08"/>
</g>
<!-- Node3 -->
<g id="node3" class="node">
<title>Node3</title>
<g id="a_node3"><a xlink:href="class_ogre_1_1_gpu_program.html" target="_top" xlink:title="Defines a program which runs on the GPU such as a vertex or fragment program.">
<polygon fill="none" stroke="black" points="59.89,-110.5 59.89,-128.5 160.93,-128.5 160.93,-110.5 59.89,-110.5"/>
<text text-anchor="middle" x="110.41" y="-116.5" font-family="Helvetica,sans-Serif" font-size="10.00">Ogre::GpuProgram</text>
</a>
</g>
</g>
<!-- Node3&#45;&gt;Node2 -->
<g id="edge2" class="edge">
<title>Node3&#45;&gt;Node2</title>
<path fill="none" stroke="midnightblue" d="M110.41,-100.17C110.41,-91.09 110.41,-80.59 110.41,-73.55"/>
<polygon fill="midnightblue" stroke="midnightblue" points="106.91,-100.22 110.41,-110.22 113.91,-100.22 106.91,-100.22"/>
</g>
<!-- Node4 -->
<g id="node4" class="node">
<title>Node4</title>
<g id="a_node4"><a xlink:href="class_ogre_1_1_resource.html" target="_top" xlink:title="Abstract class representing a loadable resource (e.g.">
<polygon fill="none" stroke="black" points="67.12,-165.5 67.12,-183.5 153.7,-183.5 153.7,-165.5 67.12,-165.5"/>
<text text-anchor="middle" x="110.41" y="-171.5" font-family="Helvetica,sans-Serif" font-size="10.00">Ogre::Resource</text>
</a>
</g>
</g>
<!-- Node4&#45;&gt;Node3 -->
<g id="edge3" class="edge">
<title>Node4&#45;&gt;Node3</title>
<path fill="none" stroke="midnightblue" d="M110.41,-155.17C110.41,-146.09 110.41,-135.59 110.41,-128.55"/>
<polygon fill="midnightblue" stroke="midnightblue" points="106.91,-155.22 110.41,-165.22 113.91,-155.22 106.91,-155.22"/>
</g>
<!-- Node5 -->
<g id="node5" class="node">
<title>Node5</title>
<g id="a_node5"><a xlink:href="class_ogre_1_1_string_interface.html" target="_top" xlink:title="Class defining the common interface which classes can use to present a reflection&#45;style,...">
<polygon fill="none" stroke="black" points="0,-220.5 0,-238.5 108.82,-238.5 108.82,-220.5 0,-220.5"/>
<text text-anchor="middle" x="54.41" y="-226.5" font-family="Helvetica,sans-Serif" font-size="10.00">Ogre::StringInterface</text>
</a>
</g>
</g>
<!-- Node5&#45;&gt;Node4 -->
<g id="edge4" class="edge">
<title>Node5&#45;&gt;Node4</title>
<path fill="none" stroke="midnightblue" d="M70.67,-213.11C80.89,-203.44 93.64,-191.37 101.91,-183.55"/>
<polygon fill="midnightblue" stroke="midnightblue" points="68.02,-210.8 63.16,-220.22 72.83,-215.89 68.02,-210.8"/>
</g>
<!-- Node6 -->
<g id="node6" class="node">
<title>Node6</title>
<g id="a_node6"><a xlink:href="class_ogre_1_1_allocated_object.html" target="_top" xlink:title="Superclass for all objects that wish to use custom memory allocators when their new / delete operator...">
<polygon fill="none" stroke="black" points="127.17,-220.5 127.17,-238.5 207.65,-238.5 207.65,-220.5 127.17,-220.5"/>
<text text-anchor="middle" x="167.41" y="-226.5" font-family="Helvetica,sans-Serif" font-size="10.00">ResourceAlloc</text>
</a>
</g>
</g>
<!-- Node6&#45;&gt;Node4 -->
<g id="edge5" class="edge">
<title>Node6&#45;&gt;Node4</title>
<path fill="none" stroke="midnightblue" d="M151.17,-213.4C140.72,-203.68 127.56,-191.45 119.07,-183.55"/>
<polygon fill="midnightblue" stroke="midnightblue" points="148.8,-215.97 158.5,-220.22 153.56,-210.85 148.8,-215.97"/>
</g>
<!-- Node7 -->
<g id="node7" class="node">
<title>Node7</title>
<g id="a_node7"><a xlink:href="class_ogre_1_1_d3_d11_device_resource.html" target="_top" xlink:title="Represents a Direct3D rendering resource.">
<polygon fill="none" stroke="black" points="201.64,-55.5 201.64,-73.5 349.18,-73.5 349.18,-55.5 201.64,-55.5"/>
<text text-anchor="middle" x="275.41" y="-61.5" font-family="Helvetica,sans-Serif" font-size="10.00">Ogre::D3D11DeviceResource</text>
</a>
</g>
</g>
<!-- Node7&#45;&gt;Node1 -->
<g id="edge6" class="edge">
<title>Node7&#45;&gt;Node1</title>
<path fill="none" stroke="#8b1a1a" d="M254.35,-50.05C238.83,-40.14 218.22,-26.98 205.14,-18.63"/>
<polygon fill="#8b1a1a" stroke="#8b1a1a" points="252.49,-53.02 262.81,-55.45 256.26,-47.12 252.49,-53.02"/>
</g>
</g>
</svg>
