<?xml version="1.0" encoding="UTF-8" standalone="no"?>
<!DOCTYPE svg PUBLIC "-//W3C//DTD SVG 1.1//EN"
 "http://www.w3.org/Graphics/SVG/1.1/DTD/svg11.dtd">
<!-- Generated by graphviz version 2.43.0 (0)
 -->
<!-- Title: Ogre::ExternalTextureSourceManager Pages: 1 -->
<svg width="238pt" height="102pt"
 viewBox="0.00 0.00 237.63 102.00" xmlns="http://www.w3.org/2000/svg" xmlns:xlink="http://www.w3.org/1999/xlink">
<g id="graph0" class="graph" transform="scale(1 1) rotate(0) translate(4 98)">
<title>Ogre::ExternalTextureSourceManager</title>
<!-- Node1 -->
<g id="node1" class="node">
<title>Node1</title>
<g id="a_node1"><a xlink:title="Singleton Class which handles the registering and control of texture plugins.">
<polygon fill="#bfbfbf" stroke="black" points="54.92,-0.5 54.92,-28.5 199.87,-28.5 199.87,-0.5 54.92,-0.5"/>
<text text-anchor="start" x="62.92" y="-16.5" font-family="Helvetica,sans-Serif" font-size="10.00">Ogre::ExternalTextureSource</text>
<text text-anchor="middle" x="127.4" y="-6.5" font-family="Helvetica,sans-Serif" font-size="10.00">Manager</text>
</a>
</g>
</g>
<!-- Node2 -->
<g id="node2" class="node">
<title>Node2</title>
<g id="a_node2"><a xlink:href="class_ogre_1_1_singleton.html" target="_top" xlink:title=" ">
<polygon fill="none" stroke="black" points="0,-65.5 0,-93.5 130.79,-93.5 130.79,-65.5 0,-65.5"/>
<text text-anchor="start" x="8" y="-81.5" font-family="Helvetica,sans-Serif" font-size="10.00">Ogre::Singleton&lt; External</text>
<text text-anchor="middle" x="65.4" y="-71.5" font-family="Helvetica,sans-Serif" font-size="10.00">TextureSourceManager &gt;</text>
</a>
</g>
</g>
<!-- Node2&#45;&gt;Node1 -->
<g id="edge1" class="edge">
<title>Node2&#45;&gt;Node1</title>
<path fill="none" stroke="midnightblue" d="M85.48,-58.09C95.03,-48.38 106.17,-37.06 114.57,-28.54"/>
<polygon fill="midnightblue" stroke="midnightblue" points="82.76,-55.86 78.24,-65.45 87.75,-60.77 82.76,-55.86"/>
</g>
<!-- Node3 -->
<g id="node3" class="node">
<title>Node3</title>
<g id="a_node3"><a xlink:href="class_ogre_1_1_allocated_object.html" target="_top" xlink:title="Superclass for all objects that wish to use custom memory allocators when their new / delete operator...">
<polygon fill="none" stroke="black" points="149.16,-70.5 149.16,-88.5 229.63,-88.5 229.63,-70.5 149.16,-70.5"/>
<text text-anchor="middle" x="189.4" y="-76.5" font-family="Helvetica,sans-Serif" font-size="10.00">ResourceAlloc</text>
</a>
</g>
</g>
<!-- Node3&#45;&gt;Node1 -->
<g id="edge2" class="edge">
<title>Node3&#45;&gt;Node1</title>
<path fill="none" stroke="midnightblue" d="M174.13,-62.98C163.8,-52.49 150.31,-38.79 140.48,-28.8"/>
<polygon fill="midnightblue" stroke="midnightblue" points="171.78,-65.59 181.29,-70.26 176.77,-60.68 171.78,-65.59"/>
</g>
</g>
</svg>
