<?xml version="1.0" encoding="UTF-8" standalone="no"?>
<!DOCTYPE svg PUBLIC "-//W3C//DTD SVG 1.1//EN"
 "http://www.w3.org/Graphics/SVG/1.1/DTD/svg11.dtd">
<!-- Generated by graphviz version 2.43.0 (0)
 -->
<!-- Title: Ogre::D3D9GpuProgram Pages: 1 -->
<svg width="350pt" height="247pt"
 viewBox="0.00 0.00 350.17 247.00" xmlns="http://www.w3.org/2000/svg" xmlns:xlink="http://www.w3.org/1999/xlink">
<g id="graph0" class="graph" transform="scale(1 1) rotate(0) translate(4 243)">
<title>Ogre::D3D9GpuProgram</title>
<!-- Node1 -->
<g id="node1" class="node">
<title>Node1</title>
<g id="a_node1"><a xlink:title="Direct3D implementation of a few things common to low&#45;level vertex &amp; fragment programs.">
<polygon fill="#bfbfbf" stroke="black" points="111.4,-55.5 111.4,-73.5 238,-73.5 238,-55.5 111.4,-55.5"/>
<text text-anchor="middle" x="174.7" y="-61.5" font-family="Helvetica,sans-Serif" font-size="10.00">Ogre::D3D9GpuProgram</text>
</a>
</g>
</g>
<!-- Node7 -->
<g id="node7" class="node">
<title>Node7</title>
<g id="a_node7"><a xlink:href="class_ogre_1_1_d3_d9_gpu_fragment_program.html" target="_top" xlink:title="Direct3D implementation of low&#45;level fragment programs.">
<polygon fill="none" stroke="black" points="0,-0.5 0,-18.5 169.39,-18.5 169.39,-0.5 0,-0.5"/>
<text text-anchor="middle" x="84.7" y="-6.5" font-family="Helvetica,sans-Serif" font-size="10.00">Ogre::D3D9GpuFragmentProgram</text>
</a>
</g>
</g>
<!-- Node1&#45;&gt;Node7 -->
<g id="edge6" class="edge">
<title>Node1&#45;&gt;Node7</title>
<path fill="none" stroke="midnightblue" d="M152.33,-50.33C135.45,-40.39 112.82,-27.06 98.49,-18.63"/>
<polygon fill="midnightblue" stroke="midnightblue" points="150.63,-53.39 161.03,-55.45 154.19,-47.36 150.63,-53.39"/>
</g>
<!-- Node8 -->
<g id="node8" class="node">
<title>Node8</title>
<g id="a_node8"><a xlink:href="class_ogre_1_1_d3_d9_gpu_vertex_program.html" target="_top" xlink:title="Direct3D implementation of low&#45;level vertex programs.">
<polygon fill="none" stroke="black" points="187.22,-0.5 187.22,-18.5 342.17,-18.5 342.17,-0.5 187.22,-0.5"/>
<text text-anchor="middle" x="264.7" y="-6.5" font-family="Helvetica,sans-Serif" font-size="10.00">Ogre::D3D9GpuVertexProgram</text>
</a>
</g>
</g>
<!-- Node1&#45;&gt;Node8 -->
<g id="edge7" class="edge">
<title>Node1&#45;&gt;Node8</title>
<path fill="none" stroke="midnightblue" d="M197.06,-50.33C213.95,-40.39 236.58,-27.06 250.9,-18.63"/>
<polygon fill="midnightblue" stroke="midnightblue" points="195.21,-47.36 188.37,-55.45 198.76,-53.39 195.21,-47.36"/>
</g>
<!-- Node2 -->
<g id="node2" class="node">
<title>Node2</title>
<g id="a_node2"><a xlink:href="class_ogre_1_1_gpu_program.html" target="_top" xlink:title="Defines a program which runs on the GPU such as a vertex or fragment program.">
<polygon fill="none" stroke="black" points="62.18,-110.5 62.18,-128.5 163.21,-128.5 163.21,-110.5 62.18,-110.5"/>
<text text-anchor="middle" x="112.7" y="-116.5" font-family="Helvetica,sans-Serif" font-size="10.00">Ogre::GpuProgram</text>
</a>
</g>
</g>
<!-- Node2&#45;&gt;Node1 -->
<g id="edge1" class="edge">
<title>Node2&#45;&gt;Node1</title>
<path fill="none" stroke="midnightblue" d="M129.75,-103.93C141.17,-94.16 155.78,-81.67 165.19,-73.63"/>
<polygon fill="midnightblue" stroke="midnightblue" points="127.44,-101.29 122.11,-110.45 131.99,-106.61 127.44,-101.29"/>
</g>
<!-- Node3 -->
<g id="node3" class="node">
<title>Node3</title>
<g id="a_node3"><a xlink:href="class_ogre_1_1_resource.html" target="_top" xlink:title="Abstract class representing a loadable resource (e.g.">
<polygon fill="none" stroke="black" points="69.4,-165.5 69.4,-183.5 155.99,-183.5 155.99,-165.5 69.4,-165.5"/>
<text text-anchor="middle" x="112.7" y="-171.5" font-family="Helvetica,sans-Serif" font-size="10.00">Ogre::Resource</text>
</a>
</g>
</g>
<!-- Node3&#45;&gt;Node2 -->
<g id="edge2" class="edge">
<title>Node3&#45;&gt;Node2</title>
<path fill="none" stroke="midnightblue" d="M112.7,-155.17C112.7,-146.09 112.7,-135.59 112.7,-128.55"/>
<polygon fill="midnightblue" stroke="midnightblue" points="109.2,-155.22 112.7,-165.22 116.2,-155.22 109.2,-155.22"/>
</g>
<!-- Node4 -->
<g id="node4" class="node">
<title>Node4</title>
<g id="a_node4"><a xlink:href="class_ogre_1_1_string_interface.html" target="_top" xlink:title="Class defining the common interface which classes can use to present a reflection&#45;style,...">
<polygon fill="none" stroke="black" points="2.29,-220.5 2.29,-238.5 111.11,-238.5 111.11,-220.5 2.29,-220.5"/>
<text text-anchor="middle" x="56.7" y="-226.5" font-family="Helvetica,sans-Serif" font-size="10.00">Ogre::StringInterface</text>
</a>
</g>
</g>
<!-- Node4&#45;&gt;Node3 -->
<g id="edge3" class="edge">
<title>Node4&#45;&gt;Node3</title>
<path fill="none" stroke="midnightblue" d="M72.96,-213.11C83.17,-203.44 95.93,-191.37 104.19,-183.55"/>
<polygon fill="midnightblue" stroke="midnightblue" points="70.3,-210.8 65.45,-220.22 75.12,-215.89 70.3,-210.8"/>
</g>
<!-- Node5 -->
<g id="node5" class="node">
<title>Node5</title>
<g id="a_node5"><a xlink:href="class_ogre_1_1_allocated_object.html" target="_top" xlink:title="Superclass for all objects that wish to use custom memory allocators when their new / delete operator...">
<polygon fill="none" stroke="black" points="129.46,-220.5 129.46,-238.5 209.93,-238.5 209.93,-220.5 129.46,-220.5"/>
<text text-anchor="middle" x="169.7" y="-226.5" font-family="Helvetica,sans-Serif" font-size="10.00">ResourceAlloc</text>
</a>
</g>
</g>
<!-- Node5&#45;&gt;Node3 -->
<g id="edge4" class="edge">
<title>Node5&#45;&gt;Node3</title>
<path fill="none" stroke="midnightblue" d="M153.45,-213.4C143.01,-203.68 129.85,-191.45 121.35,-183.55"/>
<polygon fill="midnightblue" stroke="midnightblue" points="151.08,-215.97 160.79,-220.22 155.85,-210.85 151.08,-215.97"/>
</g>
<!-- Node6 -->
<g id="node6" class="node">
<title>Node6</title>
<g id="a_node6"><a xlink:href="class_ogre_1_1_d3_d9_resource.html" target="_top" xlink:title="Represents a Direct3D rendering resource.">
<polygon fill="none" stroke="black" points="181.62,-110.5 181.62,-128.5 293.77,-128.5 293.77,-110.5 181.62,-110.5"/>
<text text-anchor="middle" x="237.7" y="-116.5" font-family="Helvetica,sans-Serif" font-size="10.00">Ogre::D3D9Resource</text>
</a>
</g>
</g>
<!-- Node6&#45;&gt;Node1 -->
<g id="edge5" class="edge">
<title>Node6&#45;&gt;Node1</title>
<path fill="none" stroke="midnightblue" d="M220.37,-103.93C208.77,-94.16 193.92,-81.67 184.36,-73.63"/>
<polygon fill="midnightblue" stroke="midnightblue" points="218.22,-106.69 228.13,-110.45 222.73,-101.33 218.22,-106.69"/>
</g>
</g>
</svg>
