<?xml version="1.0" encoding="UTF-8" standalone="no"?>
<!DOCTYPE svg PUBLIC "-//W3C//DTD SVG 1.1//EN"
 "http://www.w3.org/Graphics/SVG/1.1/DTD/svg11.dtd">
<!-- Generated by graphviz version 2.43.0 (0)
 -->
<!-- Title: Ogre::D3D11CompatBufferInterface Pages: 1 -->
<svg width="183pt" height="137pt"
 viewBox="0.00 0.00 182.61 137.00" xmlns="http://www.w3.org/2000/svg" xmlns:xlink="http://www.w3.org/1999/xlink">
<g id="graph0" class="graph" transform="scale(1 1) rotate(0) translate(4 133)">
<title>Ogre::D3D11CompatBufferInterface</title>
<!-- Node1 -->
<g id="node1" class="node">
<title>Node1</title>
<g id="a_node1"><a xlink:title="In D3D11, const buffers can&#39;t be bound by offset.">
<polygon fill="#bfbfbf" stroke="black" points="0,-0.5 0,-18.5 174.61,-18.5 174.61,-0.5 0,-0.5"/>
<text text-anchor="middle" x="87.3" y="-6.5" font-family="Helvetica,sans-Serif" font-size="10.00">Ogre::D3D11CompatBufferInterface</text>
</a>
</g>
</g>
<!-- Node2 -->
<g id="node2" class="node">
<title>Node2</title>
<g id="a_node2"><a xlink:href="class_ogre_1_1_d3_d11_buffer_interface_base.html" target="_top" xlink:title="For D3D11, most (if not all) buffers, can be treated with the same code.">
<polygon fill="none" stroke="black" points="6.11,-55.5 6.11,-73.5 168.5,-73.5 168.5,-55.5 6.11,-55.5"/>
<text text-anchor="middle" x="87.3" y="-61.5" font-family="Helvetica,sans-Serif" font-size="10.00">Ogre::D3D11BufferInterfaceBase</text>
</a>
</g>
</g>
<!-- Node2&#45;&gt;Node1 -->
<g id="edge1" class="edge">
<title>Node2&#45;&gt;Node1</title>
<path fill="none" stroke="midnightblue" d="M87.3,-45.17C87.3,-36.09 87.3,-25.59 87.3,-18.55"/>
<polygon fill="midnightblue" stroke="midnightblue" points="83.8,-45.22 87.3,-55.22 90.8,-45.22 83.8,-45.22"/>
</g>
<!-- Node3 -->
<g id="node3" class="node">
<title>Node3</title>
<g id="a_node3"><a xlink:href="class_ogre_1_1_buffer_interface.html" target="_top" xlink:title="Most (if not all) buffers, can be treated with the same code.">
<polygon fill="none" stroke="black" points="32.7,-110.5 32.7,-128.5 141.91,-128.5 141.91,-110.5 32.7,-110.5"/>
<text text-anchor="middle" x="87.3" y="-116.5" font-family="Helvetica,sans-Serif" font-size="10.00">Ogre::BufferInterface</text>
</a>
</g>
</g>
<!-- Node3&#45;&gt;Node2 -->
<g id="edge2" class="edge">
<title>Node3&#45;&gt;Node2</title>
<path fill="none" stroke="midnightblue" d="M87.3,-100.17C87.3,-91.09 87.3,-80.59 87.3,-73.55"/>
<polygon fill="midnightblue" stroke="midnightblue" points="83.8,-100.22 87.3,-110.22 90.8,-100.22 83.8,-100.22"/>
</g>
</g>
</svg>
