<?xml version="1.0" encoding="UTF-8" standalone="no"?>
<!DOCTYPE svg PUBLIC "-//W3C//DTD SVG 1.1//EN"
 "http://www.w3.org/Graphics/SVG/1.1/DTD/svg11.dtd">
<!-- Generated by graphviz version 2.43.0 (0)
 -->
<!-- Title: Ogre::LogManager Pages: 1 -->
<svg width="240pt" height="82pt"
 viewBox="0.00 0.00 239.62 82.00" xmlns="http://www.w3.org/2000/svg" xmlns:xlink="http://www.w3.org/1999/xlink">
<g id="graph0" class="graph" transform="scale(1 1) rotate(0) translate(4 78)">
<title>Ogre::LogManager</title>
<!-- Node1 -->
<g id="node1" class="node">
<title>Node1</title>
<g id="a_node1"><a xlink:title="The log manager handles the creation and retrieval of logs for the application.">
<polygon fill="#bfbfbf" stroke="black" points="91.47,-0.5 91.47,-18.5 191.41,-18.5 191.41,-0.5 91.47,-0.5"/>
<text text-anchor="middle" x="141.44" y="-6.5" font-family="Helvetica,sans-Serif" font-size="10.00">Ogre::LogManager</text>
</a>
</g>
</g>
<!-- Node2 -->
<g id="node2" class="node">
<title>Node2</title>
<g id="a_node2"><a xlink:href="class_ogre_1_1_singleton.html" target="_top" xlink:title=" ">
<polygon fill="none" stroke="black" points="0,-55.5 0,-73.5 158.88,-73.5 158.88,-55.5 0,-55.5"/>
<text text-anchor="middle" x="79.44" y="-61.5" font-family="Helvetica,sans-Serif" font-size="10.00">Ogre::Singleton&lt; LogManager &gt;</text>
</a>
</g>
</g>
<!-- Node2&#45;&gt;Node1 -->
<g id="edge1" class="edge">
<title>Node2&#45;&gt;Node1</title>
<path fill="none" stroke="midnightblue" d="M96.49,-48.93C107.91,-39.16 122.52,-26.67 131.93,-18.63"/>
<polygon fill="midnightblue" stroke="midnightblue" points="94.18,-46.29 88.85,-55.45 98.73,-51.61 94.18,-46.29"/>
</g>
<!-- Node3 -->
<g id="node3" class="node">
<title>Node3</title>
<g id="a_node3"><a xlink:href="class_ogre_1_1_allocated_object.html" target="_top" xlink:title="Superclass for all objects that wish to use custom memory allocators when their new / delete operator...">
<polygon fill="none" stroke="black" points="177.26,-55.5 177.26,-73.5 231.62,-73.5 231.62,-55.5 177.26,-55.5"/>
<text text-anchor="middle" x="204.44" y="-61.5" font-family="Helvetica,sans-Serif" font-size="10.00">LogAlloc</text>
</a>
</g>
</g>
<!-- Node3&#45;&gt;Node1 -->
<g id="edge2" class="edge">
<title>Node3&#45;&gt;Node1</title>
<path fill="none" stroke="midnightblue" d="M187.11,-48.93C175.51,-39.16 160.66,-26.67 151.1,-18.63"/>
<polygon fill="midnightblue" stroke="midnightblue" points="184.96,-51.69 194.87,-55.45 189.47,-46.33 184.96,-51.69"/>
</g>
</g>
</svg>
