<?xml version="1.0" encoding="UTF-8" standalone="no"?>
<!DOCTYPE svg PUBLIC "-//W3C//DTD SVG 1.1//EN"
 "http://www.w3.org/Graphics/SVG/1.1/DTD/svg11.dtd">
<!-- Generated by graphviz version 2.43.0 (0)
 -->
<!-- Title: Ogre::IndirectBufferPacked Pages: 1 -->
<svg width="264pt" height="137pt"
 viewBox="0.00 0.00 264.39 137.00" xmlns="http://www.w3.org/2000/svg" xmlns:xlink="http://www.w3.org/1999/xlink">
<g id="graph0" class="graph" transform="scale(1 1) rotate(0) translate(4 133)">
<title>Ogre::IndirectBufferPacked</title>
<!-- Node1 -->
<g id="node1" class="node">
<title>Node1</title>
<g id="a_node1"><a xlink:title="Represents Indirect buffers for storing draw call commands.">
<polygon fill="#bfbfbf" stroke="black" points="70.4,-0.5 70.4,-18.5 206.84,-18.5 206.84,-0.5 70.4,-0.5"/>
<text text-anchor="middle" x="138.62" y="-6.5" font-family="Helvetica,sans-Serif" font-size="10.00">Ogre::IndirectBufferPacked</text>
</a>
</g>
</g>
<!-- Node2 -->
<g id="node2" class="node">
<title>Node2</title>
<g id="a_node2"><a xlink:href="class_ogre_1_1_buffer_packed.html" target="_top" xlink:title=" ">
<polygon fill="none" stroke="black" points="86.8,-55.5 86.8,-73.5 190.45,-73.5 190.45,-55.5 86.8,-55.5"/>
<text text-anchor="middle" x="138.62" y="-61.5" font-family="Helvetica,sans-Serif" font-size="10.00">Ogre::BufferPacked</text>
</a>
</g>
</g>
<!-- Node2&#45;&gt;Node1 -->
<g id="edge1" class="edge">
<title>Node2&#45;&gt;Node1</title>
<path fill="none" stroke="midnightblue" d="M138.62,-45.17C138.62,-36.09 138.62,-25.59 138.62,-18.55"/>
<polygon fill="midnightblue" stroke="midnightblue" points="135.12,-45.22 138.62,-55.22 142.12,-45.22 135.12,-45.22"/>
</g>
<!-- Node3 -->
<g id="node3" class="node">
<title>Node3</title>
<g id="a_node3"><a xlink:href="struct_ogre_1_1_gpu_tracked_resource.html" target="_top" xlink:title=" ">
<polygon fill="none" stroke="black" points="0,-110.5 0,-128.5 141.24,-128.5 141.24,-110.5 0,-110.5"/>
<text text-anchor="middle" x="70.62" y="-116.5" font-family="Helvetica,sans-Serif" font-size="10.00">Ogre::GpuTrackedResource</text>
</a>
</g>
</g>
<!-- Node3&#45;&gt;Node2 -->
<g id="edge2" class="edge">
<title>Node3&#45;&gt;Node2</title>
<path fill="none" stroke="midnightblue" d="M88.96,-104.21C101.54,-94.41 117.78,-81.75 128.2,-73.63"/>
<polygon fill="midnightblue" stroke="midnightblue" points="86.69,-101.54 80.95,-110.45 90.99,-107.06 86.69,-101.54"/>
</g>
<!-- Node4 -->
<g id="node4" class="node">
<title>Node4</title>
<g id="a_node4"><a xlink:href="class_ogre_1_1_allocated_object.html" target="_top" xlink:title="Superclass for all objects that wish to use custom memory allocators when their new / delete operator...">
<polygon fill="none" stroke="black" points="158.86,-110.5 158.86,-128.5 256.39,-128.5 256.39,-110.5 158.86,-110.5"/>
<text text-anchor="middle" x="207.62" y="-116.5" font-family="Helvetica,sans-Serif" font-size="10.00">BufferPackedAlloc</text>
</a>
</g>
</g>
<!-- Node4&#45;&gt;Node2 -->
<g id="edge3" class="edge">
<title>Node4&#45;&gt;Node2</title>
<path fill="none" stroke="midnightblue" d="M189.02,-104.21C176.25,-94.41 159.77,-81.75 149.2,-73.63"/>
<polygon fill="midnightblue" stroke="midnightblue" points="187.08,-107.13 197.14,-110.45 191.34,-101.58 187.08,-107.13"/>
</g>
</g>
</svg>
