<?xml version="1.0" encoding="UTF-8" standalone="no"?>
<!DOCTYPE svg PUBLIC "-//W3C//DTD SVG 1.1//EN"
 "http://www.w3.org/Graphics/SVG/1.1/DTD/svg11.dtd">
<!-- Generated by graphviz version 2.43.0 (0)
 -->
<!-- Title: Ogre::RTShader::NormalMapLighting Pages: 1 -->
<svg width="154pt" height="157pt"
 viewBox="0.00 0.00 154.42 157.00" xmlns="http://www.w3.org/2000/svg" xmlns:xlink="http://www.w3.org/1999/xlink">
<g id="graph0" class="graph" transform="scale(1 1) rotate(0) translate(4 153)">
<title>Ogre::RTShader::NormalMapLighting</title>
<!-- Node1 -->
<g id="node1" class="node">
<title>Node1</title>
<g id="a_node1"><a xlink:title="Normal Map Lighting extension sub render state implementation.">
<polygon fill="#bfbfbf" stroke="black" points="0,-0.5 0,-28.5 146.42,-28.5 146.42,-0.5 0,-0.5"/>
<text text-anchor="start" x="8" y="-16.5" font-family="Helvetica,sans-Serif" font-size="10.00">Ogre::RTShader::NormalMap</text>
<text text-anchor="middle" x="73.21" y="-6.5" font-family="Helvetica,sans-Serif" font-size="10.00">Lighting</text>
</a>
</g>
</g>
<!-- Node2 -->
<g id="node2" class="node">
<title>Node2</title>
<g id="a_node2"><a xlink:href="class_ogre_1_1_r_t_shader_1_1_sub_render_state.html" target="_top" xlink:title="This class is the base interface of sub part from a shader based rendering pipeline.">
<polygon fill="none" stroke="black" points="0.54,-65.5 0.54,-93.5 145.88,-93.5 145.88,-65.5 0.54,-65.5"/>
<text text-anchor="start" x="8.54" y="-81.5" font-family="Helvetica,sans-Serif" font-size="10.00">Ogre::RTShader::SubRender</text>
<text text-anchor="middle" x="73.21" y="-71.5" font-family="Helvetica,sans-Serif" font-size="10.00">State</text>
</a>
</g>
</g>
<!-- Node2&#45;&gt;Node1 -->
<g id="edge1" class="edge">
<title>Node2&#45;&gt;Node1</title>
<path fill="none" stroke="midnightblue" d="M73.21,-55.16C73.21,-46.17 73.21,-36.22 73.21,-28.54"/>
<polygon fill="midnightblue" stroke="midnightblue" points="69.71,-55.45 73.21,-65.45 76.71,-55.45 69.71,-55.45"/>
</g>
<!-- Node3 -->
<g id="node3" class="node">
<title>Node3</title>
<g id="a_node3"><a xlink:href="class_ogre_1_1_allocated_object.html" target="_top" xlink:title="Superclass for all objects that wish to use custom memory allocators when their new / delete operator...">
<polygon fill="none" stroke="black" points="15,-130.5 15,-148.5 131.42,-148.5 131.42,-130.5 15,-130.5"/>
<text text-anchor="middle" x="73.21" y="-136.5" font-family="Helvetica,sans-Serif" font-size="10.00">RTShaderSystemAlloc</text>
</a>
</g>
</g>
<!-- Node3&#45;&gt;Node2 -->
<g id="edge2" class="edge">
<title>Node3&#45;&gt;Node2</title>
<path fill="none" stroke="midnightblue" d="M73.21,-120.32C73.21,-111.75 73.21,-101.7 73.21,-93.84"/>
<polygon fill="midnightblue" stroke="midnightblue" points="69.71,-120.44 73.21,-130.44 76.71,-120.44 69.71,-120.44"/>
</g>
</g>
</svg>
