<?xml version="1.0" encoding="UTF-8" standalone="no"?>
<!DOCTYPE svg PUBLIC "-//W3C//DTD SVG 1.1//EN"
 "http://www.w3.org/Graphics/SVG/1.1/DTD/svg11.dtd">
<!-- Generated by graphviz version 2.43.0 (0)
 -->
<!-- Title: Ogre::CompositorStoreActionTranslator Pages: 1 -->
<svg width="155pt" height="147pt"
 viewBox="0.00 0.00 154.61 147.00" xmlns="http://www.w3.org/2000/svg" xmlns:xlink="http://www.w3.org/1999/xlink">
<g id="graph0" class="graph" transform="scale(1 1) rotate(0) translate(4 143)">
<title>Ogre::CompositorStoreActionTranslator</title>
<!-- Node1 -->
<g id="node1" class="node">
<title>Node1</title>
<g id="a_node1"><a xlink:title=" ">
<polygon fill="#bfbfbf" stroke="black" points="0,-0.5 0,-28.5 146.61,-28.5 146.61,-0.5 0,-0.5"/>
<text text-anchor="start" x="8" y="-16.5" font-family="Helvetica,sans-Serif" font-size="10.00">Ogre::CompositorStoreAction</text>
<text text-anchor="middle" x="73.31" y="-6.5" font-family="Helvetica,sans-Serif" font-size="10.00">Translator</text>
</a>
</g>
</g>
<!-- Node2 -->
<g id="node2" class="node">
<title>Node2</title>
<g id="a_node2"><a xlink:href="class_ogre_1_1_script_translator.html" target="_top" xlink:title="This class translates script AST (abstract syntax tree) into Ogre resources.">
<polygon fill="none" stroke="black" points="16.31,-65.5 16.31,-83.5 130.3,-83.5 130.3,-65.5 16.31,-65.5"/>
<text text-anchor="middle" x="73.31" y="-71.5" font-family="Helvetica,sans-Serif" font-size="10.00">Ogre::ScriptTranslator</text>
</a>
</g>
</g>
<!-- Node2&#45;&gt;Node1 -->
<g id="edge1" class="edge">
<title>Node2&#45;&gt;Node1</title>
<path fill="none" stroke="midnightblue" d="M73.31,-55.32C73.31,-46.75 73.31,-36.7 73.31,-28.84"/>
<polygon fill="midnightblue" stroke="midnightblue" points="69.81,-55.44 73.31,-65.44 76.81,-55.44 69.81,-55.44"/>
</g>
<!-- Node3 -->
<g id="node3" class="node">
<title>Node3</title>
<g id="a_node3"><a xlink:href="class_ogre_1_1_allocated_object.html" target="_top" xlink:title="Superclass for all objects that wish to use custom memory allocators when their new / delete operator...">
<polygon fill="none" stroke="black" points="19.36,-120.5 19.36,-138.5 127.25,-138.5 127.25,-120.5 19.36,-120.5"/>
<text text-anchor="middle" x="73.31" y="-126.5" font-family="Helvetica,sans-Serif" font-size="10.00">ScriptTranslatorAlloc</text>
</a>
</g>
</g>
<!-- Node3&#45;&gt;Node2 -->
<g id="edge2" class="edge">
<title>Node3&#45;&gt;Node2</title>
<path fill="none" stroke="midnightblue" d="M73.31,-110.17C73.31,-101.09 73.31,-90.59 73.31,-83.55"/>
<polygon fill="midnightblue" stroke="midnightblue" points="69.81,-110.22 73.31,-120.22 76.81,-110.22 69.81,-110.22"/>
</g>
</g>
</svg>
