<?xml version="1.0" encoding="UTF-8" standalone="no"?>
<!DOCTYPE svg PUBLIC "-//W3C//DTD SVG 1.1//EN"
 "http://www.w3.org/Graphics/SVG/1.1/DTD/svg11.dtd">
<!-- Generated by graphviz version 2.43.0 (0)
 -->
<!-- Title: Ogre::RenderTarget Pages: 1 -->
<svg width="857pt" height="1029pt"
 viewBox="0.00 0.00 856.74 1029.00" xmlns="http://www.w3.org/2000/svg" xmlns:xlink="http://www.w3.org/1999/xlink">
<g id="graph0" class="graph" transform="scale(1 1) rotate(0) translate(4 1025)">
<title>Ogre::RenderTarget</title>
<!-- Node1 -->
<g id="node1" class="node">
<title>Node1</title>
<g id="a_node1"><a xlink:title="A &#39;canvas&#39; which can receive the results of a rendering operation.">
<polygon fill="#bfbfbf" stroke="black" points="177.24,-536.5 177.24,-554.5 281.62,-554.5 281.62,-536.5 177.24,-536.5"/>
<text text-anchor="middle" x="229.43" y="-542.5" font-family="Helvetica,sans-Serif" font-size="10.00">Ogre::RenderTarget</text>
</a>
</g>
</g>
<!-- Node4 -->
<g id="node4" class="node">
<title>Node4</title>
<g id="a_node4"><a xlink:href="class_ogre_1_1_multi_render_target.html" target="_top" xlink:title="This class represents a render target that renders to multiple RenderTextures at once.">
<polygon fill="none" stroke="black" points="317.62,-899.5 317.62,-917.5 443.12,-917.5 443.12,-899.5 317.62,-899.5"/>
<text text-anchor="middle" x="380.37" y="-905.5" font-family="Helvetica,sans-Serif" font-size="10.00">Ogre::MultiRenderTarget</text>
</a>
</g>
</g>
<!-- Node1&#45;&gt;Node4 -->
<g id="edge3" class="edge">
<title>Node1&#45;&gt;Node4</title>
<path fill="none" stroke="midnightblue" d="M238.2,-564.42C265.41,-630.75 355.87,-851.23 375.56,-899.22"/>
<polygon fill="midnightblue" stroke="midnightblue" points="241.3,-562.76 234.26,-554.84 234.82,-565.42 241.3,-562.76"/>
</g>
<!-- Node10 -->
<g id="node10" class="node">
<title>Node10</title>
<g id="a_node10"><a xlink:href="class_ogre_1_1_render_texture.html" target="_top" xlink:title="This class represents a RenderTarget that renders to a Texture.">
<polygon fill="none" stroke="black" points="325.68,-536.5 325.68,-554.5 435.06,-554.5 435.06,-536.5 325.68,-536.5"/>
<text text-anchor="middle" x="380.37" y="-542.5" font-family="Helvetica,sans-Serif" font-size="10.00">Ogre::RenderTexture</text>
</a>
</g>
</g>
<!-- Node1&#45;&gt;Node10 -->
<g id="edge9" class="edge">
<title>Node1&#45;&gt;Node10</title>
<path fill="none" stroke="midnightblue" d="M291.8,-545.5C302.97,-545.5 314.55,-545.5 325.48,-545.5"/>
<polygon fill="midnightblue" stroke="midnightblue" points="291.69,-542 281.69,-545.5 291.69,-549 291.69,-542"/>
</g>
<!-- Node26 -->
<g id="node26" class="node">
<title>Node26</title>
<g id="a_node26"><a xlink:href="class_ogre_1_1_render_window.html" target="_top" xlink:title="Manages the target rendering window.">
<polygon fill="none" stroke="black" points="324.29,-148.5 324.29,-166.5 436.45,-166.5 436.45,-148.5 324.29,-148.5"/>
<text text-anchor="middle" x="380.37" y="-154.5" font-family="Helvetica,sans-Serif" font-size="10.00">Ogre::RenderWindow</text>
</a>
</g>
</g>
<!-- Node1&#45;&gt;Node26 -->
<g id="edge25" class="edge">
<title>Node1&#45;&gt;Node26</title>
<path fill="none" stroke="midnightblue" d="M237.66,-526.67C264.3,-457.26 356.48,-217.12 375.8,-166.79"/>
<polygon fill="midnightblue" stroke="midnightblue" points="234.28,-525.7 233.97,-536.29 240.82,-528.21 234.28,-525.7"/>
</g>
<!-- Node2 -->
<g id="node2" class="node">
<title>Node2</title>
<g id="a_node2"><a xlink:href="struct_ogre_1_1_gpu_tracked_resource.html" target="_top" xlink:title=" ">
<polygon fill="none" stroke="black" points="0,-555.5 0,-573.5 141.24,-573.5 141.24,-555.5 0,-555.5"/>
<text text-anchor="middle" x="70.62" y="-561.5" font-family="Helvetica,sans-Serif" font-size="10.00">Ogre::GpuTrackedResource</text>
</a>
</g>
</g>
<!-- Node2&#45;&gt;Node1 -->
<g id="edge1" class="edge">
<title>Node2&#45;&gt;Node1</title>
<path fill="none" stroke="midnightblue" d="M151.43,-554.83C160.06,-553.78 168.67,-552.74 176.83,-551.75"/>
<polygon fill="midnightblue" stroke="midnightblue" points="150.82,-551.38 141.32,-556.06 151.66,-558.33 150.82,-551.38"/>
</g>
<!-- Node3 -->
<g id="node3" class="node">
<title>Node3</title>
<g id="a_node3"><a xlink:href="class_ogre_1_1_allocated_object.html" target="_top" xlink:title="Superclass for all objects that wish to use custom memory allocators when their new / delete operator...">
<polygon fill="none" stroke="black" points="27.05,-518.5 27.05,-536.5 114.19,-536.5 114.19,-518.5 27.05,-518.5"/>
<text text-anchor="middle" x="70.62" y="-524.5" font-family="Helvetica,sans-Serif" font-size="10.00">RenderSysAlloc</text>
</a>
</g>
</g>
<!-- Node3&#45;&gt;Node1 -->
<g id="edge2" class="edge">
<title>Node3&#45;&gt;Node1</title>
<path fill="none" stroke="midnightblue" d="M124.72,-533.6C141.6,-535.53 160.23,-537.67 176.99,-539.6"/>
<polygon fill="midnightblue" stroke="midnightblue" points="124.81,-530.08 114.47,-532.42 124.01,-537.04 124.81,-530.08"/>
</g>
<!-- Node5 -->
<g id="node5" class="node">
<title>Node5</title>
<g id="a_node5"><a xlink:href="class_ogre_1_1_d3_d11_multi_render_target.html" target="_top" xlink:title=" ">
<polygon fill="none" stroke="black" points="483.84,-1002.5 483.84,-1020.5 639.72,-1020.5 639.72,-1002.5 483.84,-1002.5"/>
<text text-anchor="middle" x="561.78" y="-1008.5" font-family="Helvetica,sans-Serif" font-size="10.00">Ogre::D3D11MultiRenderTarget</text>
</a>
</g>
</g>
<!-- Node4&#45;&gt;Node5 -->
<g id="edge4" class="edge">
<title>Node4&#45;&gt;Node5</title>
<path fill="none" stroke="midnightblue" d="M395.57,-925.1C413.16,-944.56 445.02,-976.34 479.12,-993.5 486.38,-997.16 494.37,-1000.07 502.43,-1002.4"/>
<polygon fill="midnightblue" stroke="midnightblue" points="398.18,-922.77 388.93,-917.59 392.93,-927.4 398.18,-922.77"/>
</g>
<!-- Node6 -->
<g id="node6" class="node">
<title>Node6</title>
<g id="a_node6"><a xlink:href="class_ogre_1_1_d3_d9_multi_render_target.html" target="_top" xlink:title=" ">
<polygon fill="none" stroke="black" points="486.25,-965.5 486.25,-983.5 637.31,-983.5 637.31,-965.5 486.25,-965.5"/>
<text text-anchor="middle" x="561.78" y="-971.5" font-family="Helvetica,sans-Serif" font-size="10.00">Ogre::D3D9MultiRenderTarget</text>
</a>
</g>
</g>
<!-- Node4&#45;&gt;Node6 -->
<g id="edge5" class="edge">
<title>Node4&#45;&gt;Node6</title>
<path fill="none" stroke="midnightblue" d="M405.53,-922.4C424.9,-933.03 453.05,-947.37 479.12,-956.5 489.12,-960 500.06,-962.97 510.59,-965.42"/>
<polygon fill="midnightblue" stroke="midnightblue" points="407.22,-919.33 396.78,-917.52 403.81,-925.44 407.22,-919.33"/>
</g>
<!-- Node7 -->
<g id="node7" class="node">
<title>Node7</title>
<g id="a_node7"><a xlink:href="class_ogre_1_1_g_l3_plus_f_b_o_multi_render_target.html" target="_top" xlink:title="MultiRenderTarget for OpenGL.">
<polygon fill="none" stroke="black" points="483.48,-918.5 483.48,-946.5 640.09,-946.5 640.09,-918.5 483.48,-918.5"/>
<text text-anchor="start" x="491.48" y="-934.5" font-family="Helvetica,sans-Serif" font-size="10.00">Ogre::GL3PlusFBOMultiRender</text>
<text text-anchor="middle" x="561.78" y="-924.5" font-family="Helvetica,sans-Serif" font-size="10.00">Target</text>
</a>
</g>
</g>
<!-- Node4&#45;&gt;Node7 -->
<g id="edge6" class="edge">
<title>Node4&#45;&gt;Node7</title>
<path fill="none" stroke="midnightblue" d="M453.46,-918.14C463.27,-919.46 473.37,-920.81 483.27,-922.13"/>
<polygon fill="midnightblue" stroke="midnightblue" points="453.74,-914.65 443.36,-916.79 452.81,-921.59 453.74,-914.65"/>
</g>
<!-- Node8 -->
<g id="node8" class="node">
<title>Node8</title>
<g id="a_node8"><a xlink:href="class_ogre_1_1_g_l_e_s2_f_b_o_multi_render_target.html" target="_top" xlink:title="MultiRenderTarget for GL ES 2.x.">
<polygon fill="none" stroke="black" points="486.53,-871.5 486.53,-899.5 637.03,-899.5 637.03,-871.5 486.53,-871.5"/>
<text text-anchor="start" x="494.53" y="-887.5" font-family="Helvetica,sans-Serif" font-size="10.00">Ogre::GLES2FBOMultiRender</text>
<text text-anchor="middle" x="561.78" y="-877.5" font-family="Helvetica,sans-Serif" font-size="10.00">Target</text>
</a>
</g>
</g>
<!-- Node4&#45;&gt;Node8 -->
<g id="edge7" class="edge">
<title>Node4&#45;&gt;Node8</title>
<path fill="none" stroke="midnightblue" d="M453.6,-899.24C464.41,-897.86 475.57,-896.42 486.42,-895.03"/>
<polygon fill="midnightblue" stroke="midnightblue" points="452.84,-895.81 443.36,-900.55 453.73,-902.75 452.84,-895.81"/>
</g>
<!-- Node9 -->
<g id="node9" class="node">
<title>Node9</title>
<g id="a_node9"><a xlink:href="class_ogre_1_1_metal_multi_render_target.html" target="_top" xlink:title=" ">
<polygon fill="none" stroke="black" points="486.81,-834.5 486.81,-852.5 636.76,-852.5 636.76,-834.5 486.81,-834.5"/>
<text text-anchor="middle" x="561.78" y="-840.5" font-family="Helvetica,sans-Serif" font-size="10.00">Ogre::MetalMultiRenderTarget</text>
</a>
</g>
</g>
<!-- Node4&#45;&gt;Node9 -->
<g id="edge8" class="edge">
<title>Node4&#45;&gt;Node9</title>
<path fill="none" stroke="midnightblue" d="M406.94,-894.64C426.3,-884.59 453.8,-871.29 479.12,-862.5 490.25,-858.63 502.52,-855.31 514.08,-852.57"/>
<polygon fill="midnightblue" stroke="midnightblue" points="405.09,-891.66 397.87,-899.41 408.35,-897.85 405.09,-891.66"/>
</g>
<!-- Node11 -->
<g id="node11" class="node">
<title>Node11</title>
<g id="a_node11"><a xlink:href="class_ogre_1_1_d3_d11_depth_texture_target.html" target="_top" xlink:title=" ">
<polygon fill="none" stroke="black" points="481.06,-797.5 481.06,-815.5 642.51,-815.5 642.51,-797.5 481.06,-797.5"/>
<text text-anchor="middle" x="561.78" y="-803.5" font-family="Helvetica,sans-Serif" font-size="10.00">Ogre::D3D11DepthTextureTarget</text>
</a>
</g>
</g>
<!-- Node10&#45;&gt;Node11 -->
<g id="edge10" class="edge">
<title>Node10&#45;&gt;Node11</title>
<path fill="none" stroke="midnightblue" d="M383.16,-564.89C388.52,-611.22 408.74,-728.9 479.12,-788.5 483.33,-792.07 488.09,-794.97 493.14,-797.33"/>
<polygon fill="midnightblue" stroke="midnightblue" points="386.62,-564.31 382.1,-554.73 379.66,-565.04 386.62,-564.31"/>
</g>
<!-- Node12 -->
<g id="node12" class="node">
<title>Node12</title>
<g id="a_node12"><a xlink:href="class_ogre_1_1_d3_d11_null_texture_target.html" target="_top" xlink:title=" ">
<polygon fill="none" stroke="black" points="485.79,-760.5 485.79,-778.5 637.78,-778.5 637.78,-760.5 485.79,-760.5"/>
<text text-anchor="middle" x="561.78" y="-766.5" font-family="Helvetica,sans-Serif" font-size="10.00">Ogre::D3D11NullTextureTarget</text>
</a>
</g>
</g>
<!-- Node10&#45;&gt;Node12 -->
<g id="edge11" class="edge">
<title>Node10&#45;&gt;Node12</title>
<path fill="none" stroke="midnightblue" d="M384.66,-564.69C392.77,-605.81 417.69,-702.6 479.12,-751.5 483.66,-755.12 488.78,-758.04 494.18,-760.41"/>
<polygon fill="midnightblue" stroke="midnightblue" points="388.07,-563.86 382.8,-554.66 381.18,-565.13 388.07,-563.86"/>
</g>
<!-- Node13 -->
<g id="node13" class="node">
<title>Node13</title>
<g id="a_node13"><a xlink:href="class_ogre_1_1_d3_d11_render_texture.html" target="_top" xlink:title="RenderTexture implementation for D3D11.">
<polygon fill="none" stroke="black" points="491.9,-723.5 491.9,-741.5 631.67,-741.5 631.67,-723.5 491.9,-723.5"/>
<text text-anchor="middle" x="561.78" y="-729.5" font-family="Helvetica,sans-Serif" font-size="10.00">Ogre::D3D11RenderTexture</text>
</a>
</g>
</g>
<!-- Node10&#45;&gt;Node13 -->
<g id="edge12" class="edge">
<title>Node10&#45;&gt;Node13</title>
<path fill="none" stroke="midnightblue" d="M386.76,-564.59C397.81,-600.07 426.54,-676.03 479.12,-714.5 484.04,-718.1 489.54,-721 495.31,-723.34"/>
<polygon fill="midnightblue" stroke="midnightblue" points="389.99,-563.18 383.78,-554.59 383.28,-565.18 389.99,-563.18"/>
</g>
<!-- Node14 -->
<g id="node14" class="node">
<title>Node14</title>
<g id="a_node14"><a xlink:href="class_ogre_1_1_d3_d9_render_texture.html" target="_top" xlink:title="RenderTexture implementation for D3D9.">
<polygon fill="none" stroke="black" points="494.31,-686.5 494.31,-704.5 629.26,-704.5 629.26,-686.5 494.31,-686.5"/>
<text text-anchor="middle" x="561.78" y="-692.5" font-family="Helvetica,sans-Serif" font-size="10.00">Ogre::D3D9RenderTexture</text>
</a>
</g>
</g>
<!-- Node10&#45;&gt;Node14 -->
<g id="edge13" class="edge">
<title>Node10&#45;&gt;Node14</title>
<path fill="none" stroke="midnightblue" d="M389.69,-564.01C403.73,-593.04 435,-648.9 479.12,-677.5 484.72,-681.13 490.95,-684.04 497.39,-686.37"/>
<polygon fill="midnightblue" stroke="midnightblue" points="392.71,-562.2 385.3,-554.63 386.36,-565.17 392.71,-562.2"/>
</g>
<!-- Node15 -->
<g id="node15" class="node">
<title>Node15</title>
<g id="a_node15"><a xlink:href="class_ogre_1_1_g_l3_plus_depth_texture_target.html" target="_top" xlink:title=" ">
<polygon fill="none" stroke="black" points="490.97,-639.5 490.97,-667.5 632.59,-667.5 632.59,-639.5 490.97,-639.5"/>
<text text-anchor="start" x="498.97" y="-655.5" font-family="Helvetica,sans-Serif" font-size="10.00">Ogre::GL3PlusDepthTexture</text>
<text text-anchor="middle" x="561.78" y="-645.5" font-family="Helvetica,sans-Serif" font-size="10.00">Target</text>
</a>
</g>
</g>
<!-- Node10&#45;&gt;Node15 -->
<g id="edge14" class="edge">
<title>Node10&#45;&gt;Node15</title>
<path fill="none" stroke="midnightblue" d="M396.02,-562.06C413.83,-581.23 445.7,-612.45 479.12,-630.5 485.47,-633.93 492.38,-636.89 499.4,-639.43"/>
<polygon fill="midnightblue" stroke="midnightblue" points="398.6,-559.7 389.28,-554.66 393.42,-564.41 398.6,-559.7"/>
</g>
<!-- Node16 -->
<g id="node16" class="node">
<title>Node16</title>
<g id="a_node16"><a xlink:href="class_ogre_1_1_g_l3_plus_null_texture_target.html" target="_top" xlink:title=" ">
<polygon fill="none" stroke="black" points="495.7,-592.5 495.7,-620.5 627.86,-620.5 627.86,-592.5 495.7,-592.5"/>
<text text-anchor="start" x="503.7" y="-608.5" font-family="Helvetica,sans-Serif" font-size="10.00">Ogre::GL3PlusNullTexture</text>
<text text-anchor="middle" x="561.78" y="-598.5" font-family="Helvetica,sans-Serif" font-size="10.00">Target</text>
</a>
</g>
</g>
<!-- Node10&#45;&gt;Node16 -->
<g id="edge15" class="edge">
<title>Node10&#45;&gt;Node16</title>
<path fill="none" stroke="midnightblue" d="M412.28,-558.4C431.38,-566.14 456.47,-575.93 479.12,-583.5 488.34,-586.58 498.23,-589.6 507.84,-592.39"/>
<polygon fill="midnightblue" stroke="midnightblue" points="413.47,-555.1 402.89,-554.56 410.82,-561.58 413.47,-555.1"/>
</g>
<!-- Node17 -->
<g id="node17" class="node">
<title>Node17</title>
<g id="a_node17"><a xlink:href="class_ogre_1_1_g_l3_plus_render_texture.html" target="_top" xlink:title="Base class for GL Render Textures.">
<polygon fill="none" stroke="black" points="487.92,-555.5 487.92,-573.5 635.65,-573.5 635.65,-555.5 487.92,-555.5"/>
<text text-anchor="middle" x="561.78" y="-561.5" font-family="Helvetica,sans-Serif" font-size="10.00">Ogre::GL3PlusRenderTexture</text>
</a>
</g>
</g>
<!-- Node10&#45;&gt;Node17 -->
<g id="edge16" class="edge">
<title>Node10&#45;&gt;Node17</title>
<path fill="none" stroke="midnightblue" d="M445.48,-552.29C459.18,-553.74 473.74,-555.28 487.74,-556.77"/>
<polygon fill="midnightblue" stroke="midnightblue" points="445.51,-548.77 435.2,-551.2 444.78,-555.73 445.51,-548.77"/>
</g>
<!-- Node19 -->
<g id="node19" class="node">
<title>Node19</title>
<g id="a_node19"><a xlink:href="class_ogre_1_1_g_l_e_s2_depth_texture_target.html" target="_top" xlink:title=" ">
<polygon fill="none" stroke="black" points="480.13,-518.5 480.13,-536.5 643.43,-536.5 643.43,-518.5 480.13,-518.5"/>
<text text-anchor="middle" x="561.78" y="-524.5" font-family="Helvetica,sans-Serif" font-size="10.00">Ogre::GLES2DepthTextureTarget</text>
</a>
</g>
</g>
<!-- Node10&#45;&gt;Node19 -->
<g id="edge18" class="edge">
<title>Node10&#45;&gt;Node19</title>
<path fill="none" stroke="midnightblue" d="M445.35,-539.08C456.62,-537.95 468.47,-536.76 480.12,-535.59"/>
<polygon fill="midnightblue" stroke="midnightblue" points="444.8,-535.62 435.2,-540.1 445.5,-542.58 444.8,-535.62"/>
</g>
<!-- Node20 -->
<g id="node20" class="node">
<title>Node20</title>
<g id="a_node20"><a xlink:href="class_ogre_1_1_g_l_e_s2_null_texture_target.html" target="_top" xlink:title=" ">
<polygon fill="none" stroke="black" points="484.86,-481.5 484.86,-499.5 638.7,-499.5 638.7,-481.5 484.86,-481.5"/>
<text text-anchor="middle" x="561.78" y="-487.5" font-family="Helvetica,sans-Serif" font-size="10.00">Ogre::GLES2NullTextureTarget</text>
</a>
</g>
</g>
<!-- Node10&#45;&gt;Node20 -->
<g id="edge19" class="edge">
<title>Node10&#45;&gt;Node20</title>
<path fill="none" stroke="midnightblue" d="M412.17,-532.53C431.22,-524.83 456.31,-515.29 479.12,-508.5 490.39,-505.14 502.7,-502.11 514.27,-499.53"/>
<polygon fill="midnightblue" stroke="midnightblue" points="410.73,-529.33 402.8,-536.36 413.38,-535.81 410.73,-529.33"/>
</g>
<!-- Node21 -->
<g id="node21" class="node">
<title>Node21</title>
<g id="a_node21"><a xlink:href="class_ogre_1_1_g_l_e_s2_render_texture.html" target="_top" xlink:title="Base class for GL Render Textures.">
<polygon fill="none" stroke="black" points="490.97,-444.5 490.97,-462.5 632.59,-462.5 632.59,-444.5 490.97,-444.5"/>
<text text-anchor="middle" x="561.78" y="-450.5" font-family="Helvetica,sans-Serif" font-size="10.00">Ogre::GLES2RenderTexture</text>
</a>
</g>
</g>
<!-- Node10&#45;&gt;Node21 -->
<g id="edge20" class="edge">
<title>Node10&#45;&gt;Node21</title>
<path fill="none" stroke="midnightblue" d="M397.92,-529.33C416.26,-512.35 447.44,-486.12 479.12,-471.5 487.02,-467.85 495.71,-464.92 504.38,-462.58"/>
<polygon fill="midnightblue" stroke="midnightblue" points="395.3,-527 390.45,-536.41 400.11,-532.08 395.3,-527"/>
</g>
<!-- Node22 -->
<g id="node22" class="node">
<title>Node22</title>
<g id="a_node22"><a xlink:href="class_ogre_1_1_metal_depth_texture_target.html" target="_top" xlink:title=" ">
<polygon fill="none" stroke="black" points="484.03,-407.5 484.03,-425.5 639.54,-425.5 639.54,-407.5 484.03,-407.5"/>
<text text-anchor="middle" x="561.78" y="-413.5" font-family="Helvetica,sans-Serif" font-size="10.00">Ogre::MetalDepthTextureTarget</text>
</a>
</g>
</g>
<!-- Node10&#45;&gt;Node22 -->
<g id="edge21" class="edge">
<title>Node10&#45;&gt;Node22</title>
<path fill="none" stroke="midnightblue" d="M392.01,-527.47C407.75,-502.48 439.67,-457.76 479.12,-434.5 485.37,-430.81 492.29,-427.88 499.39,-425.54"/>
<polygon fill="midnightblue" stroke="midnightblue" points="388.85,-525.93 386.62,-536.28 394.82,-529.58 388.85,-525.93"/>
</g>
<!-- Node23 -->
<g id="node23" class="node">
<title>Node23</title>
<g id="a_node23"><a xlink:href="class_ogre_1_1_metal_null_texture_target.html" target="_top" xlink:title=" ">
<polygon fill="none" stroke="black" points="488.76,-370.5 488.76,-388.5 634.81,-388.5 634.81,-370.5 488.76,-370.5"/>
<text text-anchor="middle" x="561.78" y="-376.5" font-family="Helvetica,sans-Serif" font-size="10.00">Ogre::MetalNullTextureTarget</text>
</a>
</g>
</g>
<!-- Node10&#45;&gt;Node23 -->
<g id="edge22" class="edge">
<title>Node10&#45;&gt;Node23</title>
<path fill="none" stroke="midnightblue" d="M388.16,-527C400.84,-495.19 431.23,-430.4 479.12,-397.5 484.38,-393.88 490.25,-390.98 496.36,-388.64"/>
<polygon fill="midnightblue" stroke="midnightblue" points="384.86,-525.84 384.54,-536.43 391.39,-528.35 384.86,-525.84"/>
</g>
<!-- Node24 -->
<g id="node24" class="node">
<title>Node24</title>
<g id="a_node24"><a xlink:href="class_ogre_1_1_metal_render_texture.html" target="_top" xlink:title=" ">
<polygon fill="none" stroke="black" points="494.87,-333.5 494.87,-351.5 628.7,-351.5 628.7,-333.5 494.87,-333.5"/>
<text text-anchor="middle" x="561.78" y="-339.5" font-family="Helvetica,sans-Serif" font-size="10.00">Ogre::MetalRenderTexture</text>
</a>
</g>
</g>
<!-- Node10&#45;&gt;Node24 -->
<g id="edge23" class="edge">
<title>Node10&#45;&gt;Node24</title>
<path fill="none" stroke="midnightblue" d="M385.67,-526.7C395.35,-488.89 422.56,-403.57 479.12,-360.5 483.85,-356.89 489.16,-353.98 494.75,-351.63"/>
<polygon fill="midnightblue" stroke="midnightblue" points="382.27,-525.88 383.31,-536.43 389.07,-527.54 382.27,-525.88"/>
</g>
<!-- Node25 -->
<g id="node25" class="node">
<title>Node25</title>
<g id="a_node25"><a xlink:href="class_ogre_1_1_n_u_l_l_render_texture.html" target="_top" xlink:title=" ">
<polygon fill="none" stroke="black" points="494.31,-296.5 494.31,-314.5 629.26,-314.5 629.26,-296.5 494.31,-296.5"/>
<text text-anchor="middle" x="561.78" y="-302.5" font-family="Helvetica,sans-Serif" font-size="10.00">Ogre::NULLRenderTexture</text>
</a>
</g>
</g>
<!-- Node10&#45;&gt;Node25 -->
<g id="edge24" class="edge">
<title>Node10&#45;&gt;Node25</title>
<path fill="none" stroke="midnightblue" d="M383.99,-526.02C390.93,-482.48 413.93,-376.91 479.12,-323.5 483.61,-319.82 488.69,-316.85 494.07,-314.46"/>
<polygon fill="midnightblue" stroke="midnightblue" points="380.5,-525.72 382.5,-536.12 387.42,-526.74 380.5,-525.72"/>
</g>
<!-- Node18 -->
<g id="node18" class="node">
<title>Node18</title>
<g id="a_node18"><a xlink:href="class_ogre_1_1_g_l3_plus_f_b_o_render_texture.html" target="_top" xlink:title="RenderTexture for GL FBO.">
<polygon fill="none" stroke="black" points="680.45,-555.5 680.45,-573.5 848.74,-573.5 848.74,-555.5 680.45,-555.5"/>
<text text-anchor="middle" x="764.6" y="-561.5" font-family="Helvetica,sans-Serif" font-size="10.00">Ogre::GL3PlusFBORenderTexture</text>
</a>
</g>
</g>
<!-- Node17&#45;&gt;Node18 -->
<g id="edge17" class="edge">
<title>Node17&#45;&gt;Node18</title>
<path fill="none" stroke="midnightblue" d="M646.14,-564.5C657.45,-564.5 669.06,-564.5 680.38,-564.5"/>
<polygon fill="midnightblue" stroke="midnightblue" points="645.85,-561 635.85,-564.5 645.85,-568 645.85,-561"/>
</g>
<!-- Node27 -->
<g id="node27" class="node">
<title>Node27</title>
<g id="a_node27"><a xlink:href="class_ogre_1_1_cocoa_window.html" target="_top" xlink:title=" ">
<polygon fill="none" stroke="black" points="507.65,-259.5 507.65,-277.5 615.91,-277.5 615.91,-259.5 507.65,-259.5"/>
<text text-anchor="middle" x="561.78" y="-265.5" font-family="Helvetica,sans-Serif" font-size="10.00">Ogre::CocoaWindow</text>
</a>
</g>
</g>
<!-- Node26&#45;&gt;Node27 -->
<g id="edge26" class="edge">
<title>Node26&#45;&gt;Node27</title>
<path fill="none" stroke="midnightblue" d="M394.77,-174.78C411.99,-195.75 443.89,-230.63 479.12,-249.5 487.84,-254.17 497.69,-257.71 507.46,-260.37"/>
<polygon fill="midnightblue" stroke="midnightblue" points="397.31,-172.35 388.33,-166.74 391.85,-176.73 397.31,-172.35"/>
</g>
<!-- Node28 -->
<g id="node28" class="node">
<title>Node28</title>
<g id="a_node28"><a xlink:href="class_ogre_1_1_d3_d11_render_window_base.html" target="_top" xlink:title=" ">
<polygon fill="none" stroke="black" points="479.12,-222.5 479.12,-240.5 644.45,-240.5 644.45,-222.5 479.12,-222.5"/>
<text text-anchor="middle" x="561.78" y="-228.5" font-family="Helvetica,sans-Serif" font-size="10.00">Ogre::D3D11RenderWindowBase</text>
</a>
</g>
</g>
<!-- Node26&#45;&gt;Node28 -->
<g id="edge27" class="edge">
<title>Node26&#45;&gt;Node28</title>
<path fill="none" stroke="midnightblue" d="M403.28,-172.23C422.53,-184.57 451.66,-201.83 479.12,-212.5 489.43,-216.51 500.81,-219.81 511.73,-222.47"/>
<polygon fill="midnightblue" stroke="midnightblue" points="404.97,-169.15 394.68,-166.62 401.14,-175.02 404.97,-169.15"/>
</g>
<!-- Node30 -->
<g id="node30" class="node">
<title>Node30</title>
<g id="a_node30"><a xlink:href="class_ogre_1_1_d3_d9_render_window.html" target="_top" xlink:title=" ">
<polygon fill="none" stroke="black" points="492.92,-185.5 492.92,-203.5 630.64,-203.5 630.64,-185.5 492.92,-185.5"/>
<text text-anchor="middle" x="561.78" y="-191.5" font-family="Helvetica,sans-Serif" font-size="10.00">Ogre::D3D9RenderWindow</text>
</a>
</g>
</g>
<!-- Node26&#45;&gt;Node30 -->
<g id="edge29" class="edge">
<title>Node26&#45;&gt;Node30</title>
<path fill="none" stroke="midnightblue" d="M435.38,-168.64C461.49,-174.02 492.42,-180.4 517.04,-185.48"/>
<polygon fill="midnightblue" stroke="midnightblue" points="435.76,-165.14 425.26,-166.55 434.35,-172 435.76,-165.14"/>
</g>
<!-- Node31 -->
<g id="node31" class="node">
<title>Node31</title>
<g id="a_node31"><a xlink:href="class_ogre_1_1_e_g_l_window.html" target="_top" xlink:title=" ">
<polygon fill="none" stroke="black" points="512.47,-148.5 512.47,-166.5 611.1,-166.5 611.1,-148.5 512.47,-148.5"/>
<text text-anchor="middle" x="561.78" y="-154.5" font-family="Helvetica,sans-Serif" font-size="10.00">Ogre::EGLWindow</text>
</a>
</g>
</g>
<!-- Node26&#45;&gt;Node31 -->
<g id="edge30" class="edge">
<title>Node26&#45;&gt;Node31</title>
<path fill="none" stroke="midnightblue" d="M446.79,-157.5C468.46,-157.5 492.19,-157.5 512.35,-157.5"/>
<polygon fill="midnightblue" stroke="midnightblue" points="446.66,-154 436.66,-157.5 446.66,-161 446.66,-154"/>
</g>
<!-- Node36 -->
<g id="node36" class="node">
<title>Node36</title>
<g id="a_node36"><a xlink:href="class_ogre_1_1_g_t_k_window.html" target="_top" xlink:title=" ">
<polygon fill="none" stroke="black" points="511.83,-111.5 511.83,-129.5 611.74,-129.5 611.74,-111.5 511.83,-111.5"/>
<text text-anchor="middle" x="561.78" y="-117.5" font-family="Helvetica,sans-Serif" font-size="10.00">Ogre::GTKWindow</text>
</a>
</g>
</g>
<!-- Node26&#45;&gt;Node36 -->
<g id="edge35" class="edge">
<title>Node26&#45;&gt;Node36</title>
<path fill="none" stroke="midnightblue" d="M435.38,-146.36C461.49,-140.98 492.42,-134.6 517.04,-129.52"/>
<polygon fill="midnightblue" stroke="midnightblue" points="434.35,-143 425.26,-148.45 435.76,-149.86 434.35,-143"/>
</g>
<!-- Node37 -->
<g id="node37" class="node">
<title>Node37</title>
<g id="a_node37"><a xlink:href="class_ogre_1_1_na_cl_window.html" target="_top" xlink:title=" ">
<polygon fill="none" stroke="black" points="510.99,-74.5 510.99,-92.5 612.57,-92.5 612.57,-74.5 510.99,-74.5"/>
<text text-anchor="middle" x="561.78" y="-80.5" font-family="Helvetica,sans-Serif" font-size="10.00">Ogre::NaClWindow</text>
</a>
</g>
</g>
<!-- Node26&#45;&gt;Node37 -->
<g id="edge36" class="edge">
<title>Node26&#45;&gt;Node37</title>
<path fill="none" stroke="midnightblue" d="M402.89,-142.61C422.08,-129.97 451.36,-112.22 479.12,-101.5 489.14,-97.63 500.19,-94.49 510.84,-91.99"/>
<polygon fill="midnightblue" stroke="midnightblue" points="400.68,-139.88 394.32,-148.36 404.58,-145.69 400.68,-139.88"/>
</g>
<!-- Node38 -->
<g id="node38" class="node">
<title>Node38</title>
<g id="a_node38"><a xlink:href="class_ogre_1_1_n_u_l_l_render_window.html" target="_top" xlink:title=" ">
<polygon fill="none" stroke="black" points="492.92,-37.5 492.92,-55.5 630.64,-55.5 630.64,-37.5 492.92,-37.5"/>
<text text-anchor="middle" x="561.78" y="-43.5" font-family="Helvetica,sans-Serif" font-size="10.00">Ogre::NULLRenderWindow</text>
</a>
</g>
</g>
<!-- Node26&#45;&gt;Node38 -->
<g id="edge37" class="edge">
<title>Node26&#45;&gt;Node38</title>
<path fill="none" stroke="midnightblue" d="M394.43,-140.28C411.51,-119.05 443.47,-83.46 479.12,-64.5 486.04,-60.82 493.67,-57.89 501.41,-55.56"/>
<polygon fill="midnightblue" stroke="midnightblue" points="391.48,-138.38 388.06,-148.41 396.98,-142.7 391.48,-138.38"/>
</g>
<!-- Node39 -->
<g id="node39" class="node">
<title>Node39</title>
<g id="a_node39"><a xlink:href="class_ogre_1_1_s_d_l_window.html" target="_top" xlink:title=" ">
<polygon fill="none" stroke="black" points="512.75,-0.5 512.75,-18.5 610.82,-18.5 610.82,-0.5 512.75,-0.5"/>
<text text-anchor="middle" x="561.78" y="-6.5" font-family="Helvetica,sans-Serif" font-size="10.00">Ogre::SDLWindow</text>
</a>
</g>
</g>
<!-- Node26&#45;&gt;Node39 -->
<g id="edge38" class="edge">
<title>Node26&#45;&gt;Node39</title>
<path fill="none" stroke="midnightblue" d="M389.97,-138.86C404.22,-110.15 435.54,-55.52 479.12,-27.5 489.01,-21.14 500.81,-17 512.34,-14.32"/>
<polygon fill="midnightblue" stroke="midnightblue" points="386.67,-137.63 385.5,-148.16 392.98,-140.66 386.67,-137.63"/>
</g>
<!-- Node29 -->
<g id="node29" class="node">
<title>Node29</title>
<g id="a_node29"><a xlink:href="class_ogre_1_1_d3_d11_render_window_swap_chain_based.html" target="_top" xlink:title=" ">
<polygon fill="none" stroke="black" points="680.82,-222.5 680.82,-250.5 848.38,-250.5 848.38,-222.5 680.82,-222.5"/>
<text text-anchor="start" x="688.82" y="-238.5" font-family="Helvetica,sans-Serif" font-size="10.00">Ogre::D3D11RenderWindowSwap</text>
<text text-anchor="middle" x="764.6" y="-228.5" font-family="Helvetica,sans-Serif" font-size="10.00">ChainBased</text>
</a>
</g>
</g>
<!-- Node28&#45;&gt;Node29 -->
<g id="edge28" class="edge">
<title>Node28&#45;&gt;Node29</title>
<path fill="none" stroke="midnightblue" d="M654.61,-233.79C663.3,-234 672.08,-234.22 680.69,-234.44"/>
<polygon fill="midnightblue" stroke="midnightblue" points="654.55,-230.28 644.46,-233.53 654.37,-237.28 654.55,-230.28"/>
</g>
<!-- Node32 -->
<g id="node32" class="node">
<title>Node32</title>
<g id="a_node32"><a xlink:href="class_ogre_1_1_android_e_g_l_window.html" target="_top" xlink:title=" ">
<polygon fill="none" stroke="black" points="698.05,-185.5 698.05,-203.5 831.14,-203.5 831.14,-185.5 698.05,-185.5"/>
<text text-anchor="middle" x="764.6" y="-191.5" font-family="Helvetica,sans-Serif" font-size="10.00">Ogre::AndroidEGLWindow</text>
</a>
</g>
</g>
<!-- Node31&#45;&gt;Node32 -->
<g id="edge31" class="edge">
<title>Node31&#45;&gt;Node32</title>
<path fill="none" stroke="midnightblue" d="M621.34,-168.29C650.95,-173.75 686.47,-180.29 714.62,-185.48"/>
<polygon fill="midnightblue" stroke="midnightblue" points="621.61,-164.78 611.14,-166.41 620.34,-171.66 621.61,-164.78"/>
</g>
<!-- Node33 -->
<g id="node33" class="node">
<title>Node33</title>
<g id="a_node33"><a xlink:href="class_ogre_1_1_emscripten_e_g_l_window.html" target="_top" xlink:title=" ">
<polygon fill="none" stroke="black" points="690.28,-148.5 690.28,-166.5 838.92,-166.5 838.92,-148.5 690.28,-148.5"/>
<text text-anchor="middle" x="764.6" y="-154.5" font-family="Helvetica,sans-Serif" font-size="10.00">Ogre::EmscriptenEGLWindow</text>
</a>
</g>
</g>
<!-- Node31&#45;&gt;Node33 -->
<g id="edge32" class="edge">
<title>Node31&#45;&gt;Node33</title>
<path fill="none" stroke="midnightblue" d="M621.42,-157.5C642.92,-157.5 667.53,-157.5 690.16,-157.5"/>
<polygon fill="midnightblue" stroke="midnightblue" points="621.14,-154 611.14,-157.5 621.14,-161 621.14,-154"/>
</g>
<!-- Node34 -->
<g id="node34" class="node">
<title>Node34</title>
<g id="a_node34"><a xlink:href="class_ogre_1_1_win32_e_g_l_window.html" target="_top" xlink:title=" ">
<polygon fill="none" stroke="black" points="701.11,-111.5 701.11,-129.5 828.08,-129.5 828.08,-111.5 701.11,-111.5"/>
<text text-anchor="middle" x="764.6" y="-117.5" font-family="Helvetica,sans-Serif" font-size="10.00">Ogre::Win32EGLWindow</text>
</a>
</g>
</g>
<!-- Node31&#45;&gt;Node34 -->
<g id="edge33" class="edge">
<title>Node31&#45;&gt;Node34</title>
<path fill="none" stroke="midnightblue" d="M621.34,-146.71C650.95,-141.25 686.47,-134.71 714.62,-129.52"/>
<polygon fill="midnightblue" stroke="midnightblue" points="620.34,-143.34 611.14,-148.59 621.61,-150.22 620.34,-143.34"/>
</g>
<!-- Node35 -->
<g id="node35" class="node">
<title>Node35</title>
<g id="a_node35"><a xlink:href="class_ogre_1_1_x11_e_g_l_window.html" target="_top" xlink:title=" ">
<polygon fill="none" stroke="black" points="706.75,-74.5 706.75,-92.5 822.44,-92.5 822.44,-74.5 706.75,-74.5"/>
<text text-anchor="middle" x="764.6" y="-80.5" font-family="Helvetica,sans-Serif" font-size="10.00">Ogre::X11EGLWindow</text>
</a>
</g>
</g>
<!-- Node31&#45;&gt;Node35 -->
<g id="edge34" class="edge">
<title>Node31&#45;&gt;Node35</title>
<path fill="none" stroke="midnightblue" d="M620.79,-148.37C629.03,-145.84 637.16,-142.61 644.45,-138.5 664.43,-127.22 660.38,-112.62 680.45,-101.5 688.46,-97.06 697.47,-93.72 706.52,-91.2"/>
<polygon fill="midnightblue" stroke="midnightblue" points="619.84,-145 611.13,-151.02 621.7,-151.75 619.84,-145"/>
</g>
</g>
</svg>
