<?xml version="1.0" encoding="UTF-8" standalone="no"?>
<!DOCTYPE svg PUBLIC "-//W3C//DTD SVG 1.1//EN"
 "http://www.w3.org/Graphics/SVG/1.1/DTD/svg11.dtd">
<!-- Generated by graphviz version 2.43.0 (0)
 -->
<!-- Title: Ogre::AxisAlignedBoxSceneQuery Pages: 1 -->
<svg width="330pt" height="332pt"
 viewBox="0.00 0.00 330.45 332.00" xmlns="http://www.w3.org/2000/svg" xmlns:xlink="http://www.w3.org/1999/xlink">
<g id="graph0" class="graph" transform="scale(1 1) rotate(0) translate(4 328)">
<title>Ogre::AxisAlignedBoxSceneQuery</title>
<!-- Node1 -->
<g id="node1" class="node">
<title>Node1</title>
<g id="a_node1"><a xlink:title="Specialises the SceneQuery class for querying within an axis aligned box.">
<polygon fill="#bfbfbf" stroke="black" points="85.83,-130.5 85.83,-158.5 227.45,-158.5 227.45,-130.5 85.83,-130.5"/>
<text text-anchor="start" x="93.83" y="-146.5" font-family="Helvetica,sans-Serif" font-size="10.00">Ogre::AxisAlignedBoxScene</text>
<text text-anchor="middle" x="156.64" y="-136.5" font-family="Helvetica,sans-Serif" font-size="10.00">Query</text>
</a>
</g>
</g>
<!-- Node6 -->
<g id="node6" class="node">
<title>Node6</title>
<g id="a_node6"><a xlink:href="class_ogre_1_1_default_axis_aligned_box_scene_query.html" target="_top" xlink:title="Default implementation of AxisAlignedBoxSceneQuery.">
<polygon fill="none" stroke="black" points="92.78,-65.5 92.78,-93.5 220.5,-93.5 220.5,-65.5 92.78,-65.5"/>
<text text-anchor="start" x="100.78" y="-81.5" font-family="Helvetica,sans-Serif" font-size="10.00">Ogre::DefaultAxisAligned</text>
<text text-anchor="middle" x="156.64" y="-71.5" font-family="Helvetica,sans-Serif" font-size="10.00">BoxSceneQuery</text>
</a>
</g>
</g>
<!-- Node1&#45;&gt;Node6 -->
<g id="edge5" class="edge">
<title>Node1&#45;&gt;Node6</title>
<path fill="none" stroke="midnightblue" d="M156.64,-120.16C156.64,-111.17 156.64,-101.22 156.64,-93.54"/>
<polygon fill="midnightblue" stroke="midnightblue" points="153.14,-120.45 156.64,-130.45 160.14,-120.45 153.14,-120.45"/>
</g>
<!-- Node2 -->
<g id="node2" class="node">
<title>Node2</title>
<g id="a_node2"><a xlink:href="class_ogre_1_1_region_scene_query.html" target="_top" xlink:title="Abstract class defining a query which returns single results from a region.">
<polygon fill="none" stroke="black" points="91.11,-195.5 91.11,-213.5 222.17,-213.5 222.17,-195.5 91.11,-195.5"/>
<text text-anchor="middle" x="156.64" y="-201.5" font-family="Helvetica,sans-Serif" font-size="10.00">Ogre::RegionSceneQuery</text>
</a>
</g>
</g>
<!-- Node2&#45;&gt;Node1 -->
<g id="edge1" class="edge">
<title>Node2&#45;&gt;Node1</title>
<path fill="none" stroke="midnightblue" d="M156.64,-185.32C156.64,-176.75 156.64,-166.7 156.64,-158.84"/>
<polygon fill="midnightblue" stroke="midnightblue" points="153.14,-185.44 156.64,-195.44 160.14,-185.44 153.14,-185.44"/>
</g>
<!-- Node3 -->
<g id="node3" class="node">
<title>Node3</title>
<g id="a_node3"><a xlink:href="class_ogre_1_1_scene_query.html" target="_top" xlink:title="A class for performing queries on a scene.">
<polygon fill="none" stroke="black" points="39.95,-250.5 39.95,-268.5 139.33,-268.5 139.33,-250.5 39.95,-250.5"/>
<text text-anchor="middle" x="89.64" y="-256.5" font-family="Helvetica,sans-Serif" font-size="10.00">Ogre::SceneQuery</text>
</a>
</g>
</g>
<!-- Node3&#45;&gt;Node2 -->
<g id="edge2" class="edge">
<title>Node3&#45;&gt;Node2</title>
<path fill="none" stroke="midnightblue" d="M107.71,-244.21C120.1,-234.41 136.1,-221.75 146.37,-213.63"/>
<polygon fill="midnightblue" stroke="midnightblue" points="105.49,-241.5 99.82,-250.45 109.83,-246.99 105.49,-241.5"/>
</g>
<!-- Node4 -->
<g id="node4" class="node">
<title>Node4</title>
<g id="a_node4"><a xlink:href="class_ogre_1_1_allocated_object.html" target="_top" xlink:title="Superclass for all objects that wish to use custom memory allocators when their new / delete operator...">
<polygon fill="none" stroke="black" points="48.29,-305.5 48.29,-323.5 130.99,-323.5 130.99,-305.5 48.29,-305.5"/>
<text text-anchor="middle" x="89.64" y="-311.5" font-family="Helvetica,sans-Serif" font-size="10.00">SceneMgtAlloc</text>
</a>
</g>
</g>
<!-- Node4&#45;&gt;Node3 -->
<g id="edge3" class="edge">
<title>Node4&#45;&gt;Node3</title>
<path fill="none" stroke="midnightblue" d="M89.64,-295.17C89.64,-286.09 89.64,-275.59 89.64,-268.55"/>
<polygon fill="midnightblue" stroke="midnightblue" points="86.14,-295.22 89.64,-305.22 93.14,-295.22 86.14,-295.22"/>
</g>
<!-- Node5 -->
<g id="node5" class="node">
<title>Node5</title>
<g id="a_node5"><a xlink:href="class_ogre_1_1_scene_query_listener.html" target="_top" xlink:title="This optional class allows you to receive per&#45;result callbacks from SceneQuery executions instead of ...">
<polygon fill="none" stroke="black" points="157.17,-250.5 157.17,-268.5 292.12,-268.5 292.12,-250.5 157.17,-250.5"/>
<text text-anchor="middle" x="224.64" y="-256.5" font-family="Helvetica,sans-Serif" font-size="10.00">Ogre::SceneQueryListener</text>
</a>
</g>
</g>
<!-- Node5&#45;&gt;Node2 -->
<g id="edge4" class="edge">
<title>Node5&#45;&gt;Node2</title>
<path fill="none" stroke="midnightblue" d="M206.31,-244.21C193.73,-234.41 177.49,-221.75 167.07,-213.63"/>
<polygon fill="midnightblue" stroke="midnightblue" points="204.27,-247.06 214.31,-250.45 208.58,-241.54 204.27,-247.06"/>
</g>
<!-- Node7 -->
<g id="node7" class="node">
<title>Node7</title>
<g id="a_node7"><a xlink:href="class_ogre_1_1_octree_axis_aligned_box_scene_query.html" target="_top" xlink:title="Octree implementation of AxisAlignedBoxSceneQuery.">
<polygon fill="none" stroke="black" points="0,-0.5 0,-28.5 143.28,-28.5 143.28,-0.5 0,-0.5"/>
<text text-anchor="start" x="8" y="-16.5" font-family="Helvetica,sans-Serif" font-size="10.00">Ogre::OctreeAxisAlignedBox</text>
<text text-anchor="middle" x="71.64" y="-6.5" font-family="Helvetica,sans-Serif" font-size="10.00">SceneQuery</text>
</a>
</g>
</g>
<!-- Node6&#45;&gt;Node7 -->
<g id="edge6" class="edge">
<title>Node6&#45;&gt;Node7</title>
<path fill="none" stroke="midnightblue" d="M130.65,-59.24C117.22,-49.28 101.19,-37.4 89.23,-28.54"/>
<polygon fill="midnightblue" stroke="midnightblue" points="128.91,-62.3 139.03,-65.45 133.08,-56.68 128.91,-62.3"/>
</g>
<!-- Node8 -->
<g id="node8" class="node">
<title>Node8</title>
<g id="a_node8"><a xlink:href="class_ogre_1_1_p_c_z_axis_aligned_box_scene_query.html" target="_top" xlink:title="PCZ implementation of AxisAlignedBoxSceneQuery.">
<polygon fill="none" stroke="black" points="160.83,-0.5 160.83,-28.5 322.45,-28.5 322.45,-0.5 160.83,-0.5"/>
<text text-anchor="start" x="168.83" y="-16.5" font-family="Helvetica,sans-Serif" font-size="10.00">Ogre::PCZAxisAlignedBoxScene</text>
<text text-anchor="middle" x="241.64" y="-6.5" font-family="Helvetica,sans-Serif" font-size="10.00">Query</text>
</a>
</g>
</g>
<!-- Node6&#45;&gt;Node8 -->
<g id="edge7" class="edge">
<title>Node6&#45;&gt;Node8</title>
<path fill="none" stroke="midnightblue" d="M182.63,-59.24C196.06,-49.28 212.09,-37.4 224.05,-28.54"/>
<polygon fill="midnightblue" stroke="midnightblue" points="180.2,-56.68 174.25,-65.45 184.37,-62.3 180.2,-56.68"/>
</g>
</g>
</svg>
