<?xml version="1.0" encoding="UTF-8" standalone="no"?>
<!DOCTYPE svg PUBLIC "-//W3C//DTD SVG 1.1//EN"
 "http://www.w3.org/Graphics/SVG/1.1/DTD/svg11.dtd">
<!-- Generated by graphviz version 2.43.0 (0)
 -->
<!-- Title: Ogre::v1::VertexAnimationTrack Pages: 1 -->
<svg width="141pt" height="147pt"
 viewBox="0.00 0.00 140.73 147.00" xmlns="http://www.w3.org/2000/svg" xmlns:xlink="http://www.w3.org/1999/xlink">
<g id="graph0" class="graph" transform="scale(1 1) rotate(0) translate(4 143)">
<title>Ogre::v1::VertexAnimationTrack</title>
<!-- Node1 -->
<g id="node1" class="node">
<title>Node1</title>
<g id="a_node1"><a xlink:title="Specialised AnimationTrack for dealing with changing vertex position information.">
<polygon fill="#bfbfbf" stroke="black" points="0,-0.5 0,-28.5 132.73,-28.5 132.73,-0.5 0,-0.5"/>
<text text-anchor="start" x="8" y="-16.5" font-family="Helvetica,sans-Serif" font-size="10.00">Ogre::v1::VertexAnimation</text>
<text text-anchor="middle" x="66.36" y="-6.5" font-family="Helvetica,sans-Serif" font-size="10.00">Track</text>
</a>
</g>
</g>
<!-- Node2 -->
<g id="node2" class="node">
<title>Node2</title>
<g id="a_node2"><a xlink:href="class_ogre_1_1v1_1_1_animation_track.html" target="_top" xlink:title="A &#39;track&#39; in an animation sequence, i.e.">
<polygon fill="none" stroke="black" points="1.86,-65.5 1.86,-83.5 130.87,-83.5 130.87,-65.5 1.86,-65.5"/>
<text text-anchor="middle" x="66.36" y="-71.5" font-family="Helvetica,sans-Serif" font-size="10.00">Ogre::v1::AnimationTrack</text>
</a>
</g>
</g>
<!-- Node2&#45;&gt;Node1 -->
<g id="edge1" class="edge">
<title>Node2&#45;&gt;Node1</title>
<path fill="none" stroke="midnightblue" d="M66.36,-55.32C66.36,-46.75 66.36,-36.7 66.36,-28.84"/>
<polygon fill="midnightblue" stroke="midnightblue" points="62.86,-55.44 66.36,-65.44 69.86,-55.44 62.86,-55.44"/>
</g>
<!-- Node3 -->
<g id="node3" class="node">
<title>Node3</title>
<g id="a_node3"><a xlink:href="class_ogre_1_1_allocated_object.html" target="_top" xlink:title="Superclass for all objects that wish to use custom memory allocators when their new / delete operator...">
<polygon fill="none" stroke="black" points="25.29,-120.5 25.29,-138.5 107.44,-138.5 107.44,-120.5 25.29,-120.5"/>
<text text-anchor="middle" x="66.36" y="-126.5" font-family="Helvetica,sans-Serif" font-size="10.00">AnimationAlloc</text>
</a>
</g>
</g>
<!-- Node3&#45;&gt;Node2 -->
<g id="edge2" class="edge">
<title>Node3&#45;&gt;Node2</title>
<path fill="none" stroke="midnightblue" d="M66.36,-110.17C66.36,-101.09 66.36,-90.59 66.36,-83.55"/>
<polygon fill="midnightblue" stroke="midnightblue" points="62.86,-110.22 66.36,-120.22 69.86,-110.22 62.86,-110.22"/>
</g>
</g>
</svg>
