<?xml version="1.0" encoding="UTF-8" standalone="no"?>
<!DOCTYPE svg PUBLIC "-//W3C//DTD SVG 1.1//EN"
 "http://www.w3.org/Graphics/SVG/1.1/DTD/svg11.dtd">
<!-- Generated by graphviz version 2.43.0 (0)
 -->
<!-- Title: Ogre::HighLevelGpuProgramFactory Pages: 1 -->
<svg width="467pt" height="296pt"
 viewBox="0.00 0.00 467.40 296.00" xmlns="http://www.w3.org/2000/svg" xmlns:xlink="http://www.w3.org/1999/xlink">
<g id="graph0" class="graph" transform="scale(1 1) rotate(0) translate(4 292)">
<title>Ogre::HighLevelGpuProgramFactory</title>
<!-- Node1 -->
<g id="node1" class="node">
<title>Node1</title>
<g id="a_node1"><a xlink:title="Interface definition for factories of HighLevelGpuProgram.">
<polygon fill="#bfbfbf" stroke="black" points="107.01,-134.5 107.01,-162.5 252.52,-162.5 252.52,-134.5 107.01,-134.5"/>
<text text-anchor="start" x="115.01" y="-150.5" font-family="Helvetica,sans-Serif" font-size="10.00">Ogre::HighLevelGpuProgram</text>
<text text-anchor="middle" x="179.77" y="-140.5" font-family="Helvetica,sans-Serif" font-size="10.00">Factory</text>
</a>
</g>
</g>
<!-- Node3 -->
<g id="node3" class="node">
<title>Node3</title>
<g id="a_node3"><a xlink:href="class_ogre_1_1_cg_program_factory.html" target="_top" xlink:title="Factory class for Cg programs.">
<polygon fill="none" stroke="black" points="309.83,-269.5 309.83,-287.5 438.09,-287.5 438.09,-269.5 309.83,-269.5"/>
<text text-anchor="middle" x="373.96" y="-275.5" font-family="Helvetica,sans-Serif" font-size="10.00">Ogre::CgProgramFactory</text>
</a>
</g>
</g>
<!-- Node1&#45;&gt;Node3 -->
<g id="edge2" class="edge">
<title>Node1&#45;&gt;Node3</title>
<path fill="none" stroke="midnightblue" d="M196.11,-171.22C214.81,-197.04 248.86,-238.45 288.52,-260.5 295.07,-264.14 302.28,-267.05 309.65,-269.37"/>
<polygon fill="midnightblue" stroke="midnightblue" points="198.78,-168.94 190.15,-162.79 193.07,-172.98 198.78,-168.94"/>
</g>
<!-- Node4 -->
<g id="node4" class="node">
<title>Node4</title>
<g id="a_node4"><a xlink:href="class_ogre_1_1_d3_d11_h_l_s_l_program_factory.html" target="_top" xlink:title="Factory class for D3D11 HLSL programs.">
<polygon fill="none" stroke="black" points="288.52,-232.5 288.52,-250.5 459.4,-250.5 459.4,-232.5 288.52,-232.5"/>
<text text-anchor="middle" x="373.96" y="-238.5" font-family="Helvetica,sans-Serif" font-size="10.00">Ogre::D3D11HLSLProgramFactory</text>
</a>
</g>
</g>
<!-- Node1&#45;&gt;Node4 -->
<g id="edge3" class="edge">
<title>Node1&#45;&gt;Node4</title>
<path fill="none" stroke="midnightblue" d="M204.36,-169.11C225.15,-186.19 256.95,-209.81 288.52,-223.5 296.91,-227.14 306.1,-230.06 315.22,-232.41"/>
<polygon fill="midnightblue" stroke="midnightblue" points="206.61,-166.42 196.69,-162.69 202.11,-171.79 206.61,-166.42"/>
</g>
<!-- Node5 -->
<g id="node5" class="node">
<title>Node5</title>
<g id="a_node5"><a xlink:href="class_ogre_1_1_d3_d9_h_l_s_l_program_factory.html" target="_top" xlink:title="Factory class for D3D9 HLSL programs.">
<polygon fill="none" stroke="black" points="290.93,-195.5 290.93,-213.5 456.99,-213.5 456.99,-195.5 290.93,-195.5"/>
<text text-anchor="middle" x="373.96" y="-201.5" font-family="Helvetica,sans-Serif" font-size="10.00">Ogre::D3D9HLSLProgramFactory</text>
</a>
</g>
</g>
<!-- Node1&#45;&gt;Node5 -->
<g id="edge4" class="edge">
<title>Node1&#45;&gt;Node5</title>
<path fill="none" stroke="midnightblue" d="M226.41,-166.06C245.44,-173 267.87,-180.68 288.52,-186.5 300.35,-189.83 313.27,-192.88 325.36,-195.48"/>
<polygon fill="midnightblue" stroke="midnightblue" points="227.4,-162.7 216.8,-162.52 224.98,-169.26 227.4,-162.7"/>
</g>
<!-- Node6 -->
<g id="node6" class="node">
<title>Node6</title>
<g id="a_node6"><a xlink:href="class_ogre_1_1_g_l_s_l_e_s_cg_program_factory.html" target="_top" xlink:title="Factory class for GLSL ES programs.">
<polygon fill="none" stroke="black" points="290.38,-158.5 290.38,-176.5 457.54,-176.5 457.54,-158.5 290.38,-158.5"/>
<text text-anchor="middle" x="373.96" y="-164.5" font-family="Helvetica,sans-Serif" font-size="10.00">Ogre::GLSLESCgProgramFactory</text>
</a>
</g>
</g>
<!-- Node1&#45;&gt;Node6 -->
<g id="edge5" class="edge">
<title>Node1&#45;&gt;Node6</title>
<path fill="none" stroke="midnightblue" d="M262.77,-156.61C271.86,-157.51 281.12,-158.42 290.21,-159.32"/>
<polygon fill="midnightblue" stroke="midnightblue" points="262.9,-153.1 252.61,-155.6 262.21,-160.07 262.9,-153.1"/>
</g>
<!-- Node7 -->
<g id="node7" class="node">
<title>Node7</title>
<g id="a_node7"><a xlink:href="class_ogre_1_1_g_l_s_l_e_s_shader_factory.html" target="_top" xlink:title="Factory class for GLSL ES programs.">
<polygon fill="none" stroke="black" points="299.82,-121.5 299.82,-139.5 448.1,-139.5 448.1,-121.5 299.82,-121.5"/>
<text text-anchor="middle" x="373.96" y="-127.5" font-family="Helvetica,sans-Serif" font-size="10.00">Ogre::GLSLESShaderFactory</text>
</a>
</g>
</g>
<!-- Node1&#45;&gt;Node7 -->
<g id="edge6" class="edge">
<title>Node1&#45;&gt;Node7</title>
<path fill="none" stroke="midnightblue" d="M262.79,-140.82C275.02,-139.67 287.57,-138.5 299.61,-137.37"/>
<polygon fill="midnightblue" stroke="midnightblue" points="262.24,-137.35 252.61,-141.77 262.89,-144.32 262.24,-137.35"/>
</g>
<!-- Node8 -->
<g id="node8" class="node">
<title>Node8</title>
<g id="a_node8"><a xlink:href="class_ogre_1_1_g_l_s_l_shader_factory.html" target="_top" xlink:title="Factory class for GLSL shaders.">
<polygon fill="none" stroke="black" points="306.49,-84.5 306.49,-102.5 441.43,-102.5 441.43,-84.5 306.49,-84.5"/>
<text text-anchor="middle" x="373.96" y="-90.5" font-family="Helvetica,sans-Serif" font-size="10.00">Ogre::GLSLShaderFactory</text>
</a>
</g>
</g>
<!-- Node1&#45;&gt;Node8 -->
<g id="edge7" class="edge">
<title>Node1&#45;&gt;Node8</title>
<path fill="none" stroke="midnightblue" d="M227.8,-130.97C246.54,-124.35 268.39,-117.08 288.52,-111.5 300.37,-108.22 313.29,-105.19 325.38,-102.59"/>
<polygon fill="midnightblue" stroke="midnightblue" points="226.56,-127.7 218.32,-134.36 228.91,-134.29 226.56,-127.7"/>
</g>
<!-- Node9 -->
<g id="node9" class="node">
<title>Node9</title>
<g id="a_node9"><a xlink:href="class_ogre_1_1_metal_program_factory.html" target="_top" xlink:title="Factory class for Metal programs.">
<polygon fill="none" stroke="black" points="304,-47.5 304,-65.5 443.92,-65.5 443.92,-47.5 304,-47.5"/>
<text text-anchor="middle" x="373.96" y="-53.5" font-family="Helvetica,sans-Serif" font-size="10.00">Ogre::MetalProgramFactory</text>
</a>
</g>
</g>
<!-- Node1&#45;&gt;Node9 -->
<g id="edge8" class="edge">
<title>Node1&#45;&gt;Node9</title>
<path fill="none" stroke="midnightblue" d="M205.05,-127.66C225.87,-110.86 257.37,-87.89 288.52,-74.5 297.06,-70.83 306.41,-67.88 315.69,-65.52"/>
<polygon fill="midnightblue" stroke="midnightblue" points="202.58,-125.16 197.08,-134.21 207.03,-130.57 202.58,-125.16"/>
</g>
<!-- Node10 -->
<g id="node10" class="node">
<title>Node10</title>
<g id="a_node10"><a xlink:href="class_ogre_1_1_unified_high_level_gpu_program_factory.html" target="_top" xlink:title="Factory class for Unified programs.">
<polygon fill="none" stroke="black" points="304.82,-0.5 304.82,-28.5 443.11,-28.5 443.11,-0.5 304.82,-0.5"/>
<text text-anchor="start" x="312.82" y="-16.5" font-family="Helvetica,sans-Serif" font-size="10.00">Ogre::UnifiedHighLevelGpu</text>
<text text-anchor="middle" x="373.96" y="-6.5" font-family="Helvetica,sans-Serif" font-size="10.00">ProgramFactory</text>
</a>
</g>
</g>
<!-- Node1&#45;&gt;Node10 -->
<g id="edge9" class="edge">
<title>Node1&#45;&gt;Node10</title>
<path fill="none" stroke="midnightblue" d="M196.68,-125.97C215.69,-100.72 249.83,-60.33 288.52,-37.5 294.41,-34.03 300.84,-31.06 307.43,-28.54"/>
<polygon fill="midnightblue" stroke="midnightblue" points="193.72,-124.09 190.61,-134.22 199.36,-128.24 193.72,-124.09"/>
</g>
<!-- Node2 -->
<g id="node2" class="node">
<title>Node2</title>
<g id="a_node2"><a xlink:href="class_ogre_1_1_allocated_object.html" target="_top" xlink:title="Superclass for all objects that wish to use custom memory allocators when their new / delete operator...">
<polygon fill="none" stroke="black" points="0,-139.5 0,-157.5 71.01,-157.5 71.01,-139.5 0,-139.5"/>
<text text-anchor="middle" x="35.51" y="-145.5" font-family="Helvetica,sans-Serif" font-size="10.00">FactoryAlloc</text>
</a>
</g>
</g>
<!-- Node2&#45;&gt;Node1 -->
<g id="edge1" class="edge">
<title>Node2&#45;&gt;Node1</title>
<path fill="none" stroke="midnightblue" d="M81.35,-148.5C89.53,-148.5 98.26,-148.5 107,-148.5"/>
<polygon fill="midnightblue" stroke="midnightblue" points="81.31,-145 71.31,-148.5 81.31,-152 81.31,-145"/>
</g>
</g>
</svg>
