<?xml version="1.0" encoding="UTF-8" standalone="no"?>
<!DOCTYPE svg PUBLIC "-//W3C//DTD SVG 1.1//EN"
 "http://www.w3.org/Graphics/SVG/1.1/DTD/svg11.dtd">
<!-- Generated by graphviz version 2.43.0 (0)
 -->
<!-- Title: Ogre::CompositorWorkspaceDef Pages: 1 -->
<svg width="168pt" height="137pt"
 viewBox="0.00 0.00 168.32 137.00" xmlns="http://www.w3.org/2000/svg" xmlns:xlink="http://www.w3.org/1999/xlink">
<g id="graph0" class="graph" transform="scale(1 1) rotate(0) translate(4 133)">
<title>Ogre::CompositorWorkspaceDef</title>
<!-- Node1 -->
<g id="node1" class="node">
<title>Node1</title>
<g id="a_node1"><a xlink:title="@See CompositorWorkspace.">
<polygon fill="#bfbfbf" stroke="black" points="0,-0.5 0,-18.5 160.32,-18.5 160.32,-0.5 0,-0.5"/>
<text text-anchor="middle" x="80.16" y="-6.5" font-family="Helvetica,sans-Serif" font-size="10.00">Ogre::CompositorWorkspaceDef</text>
</a>
</g>
</g>
<!-- Node2 -->
<g id="node2" class="node">
<title>Node2</title>
<g id="a_node2"><a xlink:href="class_ogre_1_1_texture_definition_base.html" target="_top" xlink:title="Centralized class for dealing with declarations of textures in Node &amp; Workspace definitions.">
<polygon fill="none" stroke="black" points="9.63,-55.5 9.63,-73.5 150.69,-73.5 150.69,-55.5 9.63,-55.5"/>
<text text-anchor="middle" x="80.16" y="-61.5" font-family="Helvetica,sans-Serif" font-size="10.00">Ogre::TextureDefinitionBase</text>
</a>
</g>
</g>
<!-- Node2&#45;&gt;Node1 -->
<g id="edge1" class="edge">
<title>Node2&#45;&gt;Node1</title>
<path fill="none" stroke="midnightblue" d="M80.16,-45.17C80.16,-36.09 80.16,-25.59 80.16,-18.55"/>
<polygon fill="midnightblue" stroke="midnightblue" points="76.66,-45.22 80.16,-55.22 83.66,-45.22 76.66,-45.22"/>
</g>
<!-- Node3 -->
<g id="node3" class="node">
<title>Node3</title>
<g id="a_node3"><a xlink:href="class_ogre_1_1_allocated_object.html" target="_top" xlink:title="Superclass for all objects that wish to use custom memory allocators when their new / delete operator...">
<polygon fill="none" stroke="black" points="27.7,-110.5 27.7,-128.5 132.62,-128.5 132.62,-110.5 27.7,-110.5"/>
<text text-anchor="middle" x="80.16" y="-116.5" font-family="Helvetica,sans-Serif" font-size="10.00">CompositorInstAlloc</text>
</a>
</g>
</g>
<!-- Node3&#45;&gt;Node2 -->
<g id="edge2" class="edge">
<title>Node3&#45;&gt;Node2</title>
<path fill="none" stroke="midnightblue" d="M80.16,-100.17C80.16,-91.09 80.16,-80.59 80.16,-73.55"/>
<polygon fill="midnightblue" stroke="midnightblue" points="76.66,-100.22 80.16,-110.22 83.66,-100.22 76.66,-100.22"/>
</g>
</g>
</svg>
