<?xml version="1.0" encoding="UTF-8" standalone="no"?>
<!DOCTYPE svg PUBLIC "-//W3C//DTD SVG 1.1//EN"
 "http://www.w3.org/Graphics/SVG/1.1/DTD/svg11.dtd">
<!-- Generated by graphviz version 2.43.0 (0)
 -->
<!-- Title: Ogre::v1::GL3PlusHardwarePixelBuffer Pages: 1 -->
<svg width="314pt" height="267pt"
 viewBox="0.00 0.00 314.31 267.00" xmlns="http://www.w3.org/2000/svg" xmlns:xlink="http://www.w3.org/1999/xlink">
<g id="graph0" class="graph" transform="scale(1 1) rotate(0) translate(4 263)">
<title>Ogre::v1::GL3PlusHardwarePixelBuffer</title>
<!-- Node1 -->
<g id="node1" class="node">
<title>Node1</title>
<g id="a_node1"><a xlink:title=" ">
<polygon fill="#bfbfbf" stroke="black" points="88.98,-65.5 88.98,-93.5 230.59,-93.5 230.59,-65.5 88.98,-65.5"/>
<text text-anchor="start" x="96.98" y="-81.5" font-family="Helvetica,sans-Serif" font-size="10.00">Ogre::v1::GL3PlusHardware</text>
<text text-anchor="middle" x="159.78" y="-71.5" font-family="Helvetica,sans-Serif" font-size="10.00">PixelBuffer</text>
</a>
</g>
</g>
<!-- Node5 -->
<g id="node5" class="node">
<title>Node5</title>
<g id="a_node5"><a xlink:href="class_ogre_1_1v1_1_1_g_l3_plus_render_buffer.html" target="_top" xlink:title="Renderbuffer surface.">
<polygon fill="none" stroke="black" points="0,-5.5 0,-23.5 157.56,-23.5 157.56,-5.5 0,-5.5"/>
<text text-anchor="middle" x="78.78" y="-11.5" font-family="Helvetica,sans-Serif" font-size="10.00">Ogre::v1::GL3PlusRenderBuffer</text>
</a>
</g>
</g>
<!-- Node1&#45;&gt;Node5 -->
<g id="edge4" class="edge">
<title>Node1&#45;&gt;Node5</title>
<path fill="none" stroke="midnightblue" d="M134.94,-59.18C119.66,-47.3 100.87,-32.68 89.36,-23.73"/>
<polygon fill="midnightblue" stroke="midnightblue" points="132.96,-62.07 143,-65.45 137.25,-56.54 132.96,-62.07"/>
</g>
<!-- Node6 -->
<g id="node6" class="node">
<title>Node6</title>
<g id="a_node6"><a xlink:href="class_ogre_1_1v1_1_1_g_l3_plus_texture_buffer.html" target="_top" xlink:title="Texture surface.">
<polygon fill="none" stroke="black" points="175.25,-0.5 175.25,-28.5 306.31,-28.5 306.31,-0.5 175.25,-0.5"/>
<text text-anchor="start" x="183.25" y="-16.5" font-family="Helvetica,sans-Serif" font-size="10.00">Ogre::v1::GL3PlusTexture</text>
<text text-anchor="middle" x="240.78" y="-6.5" font-family="Helvetica,sans-Serif" font-size="10.00">Buffer</text>
</a>
</g>
</g>
<!-- Node1&#45;&gt;Node6 -->
<g id="edge5" class="edge">
<title>Node1&#45;&gt;Node6</title>
<path fill="none" stroke="midnightblue" d="M184.55,-59.24C197.34,-49.28 212.62,-37.4 224.02,-28.54"/>
<polygon fill="midnightblue" stroke="midnightblue" points="182.31,-56.54 176.56,-65.45 186.61,-62.07 182.31,-56.54"/>
</g>
<!-- Node2 -->
<g id="node2" class="node">
<title>Node2</title>
<g id="a_node2"><a xlink:href="class_ogre_1_1v1_1_1_hardware_pixel_buffer.html" target="_top" xlink:title="Specialisation of HardwareBuffer for a pixel buffer.">
<polygon fill="none" stroke="black" points="84.06,-130.5 84.06,-148.5 235.5,-148.5 235.5,-130.5 84.06,-130.5"/>
<text text-anchor="middle" x="159.78" y="-136.5" font-family="Helvetica,sans-Serif" font-size="10.00">Ogre::v1::HardwarePixelBuffer</text>
</a>
</g>
</g>
<!-- Node2&#45;&gt;Node1 -->
<g id="edge1" class="edge">
<title>Node2&#45;&gt;Node1</title>
<path fill="none" stroke="midnightblue" d="M159.78,-120.32C159.78,-111.75 159.78,-101.7 159.78,-93.84"/>
<polygon fill="midnightblue" stroke="midnightblue" points="156.28,-120.44 159.78,-130.44 163.28,-120.44 156.28,-120.44"/>
</g>
<!-- Node3 -->
<g id="node3" class="node">
<title>Node3</title>
<g id="a_node3"><a xlink:href="class_ogre_1_1v1_1_1_hardware_buffer.html" target="_top" xlink:title="Abstract class defining common features of hardware buffers.">
<polygon fill="none" stroke="black" points="94.9,-185.5 94.9,-203.5 224.66,-203.5 224.66,-185.5 94.9,-185.5"/>
<text text-anchor="middle" x="159.78" y="-191.5" font-family="Helvetica,sans-Serif" font-size="10.00">Ogre::v1::HardwareBuffer</text>
</a>
</g>
</g>
<!-- Node3&#45;&gt;Node2 -->
<g id="edge2" class="edge">
<title>Node3&#45;&gt;Node2</title>
<path fill="none" stroke="midnightblue" d="M159.78,-175.17C159.78,-166.09 159.78,-155.59 159.78,-148.55"/>
<polygon fill="midnightblue" stroke="midnightblue" points="156.28,-175.22 159.78,-185.22 163.28,-175.22 156.28,-175.22"/>
</g>
<!-- Node4 -->
<g id="node4" class="node">
<title>Node4</title>
<g id="a_node4"><a xlink:href="class_ogre_1_1_allocated_object.html" target="_top" xlink:title="Superclass for all objects that wish to use custom memory allocators when their new / delete operator...">
<polygon fill="none" stroke="black" points="127.69,-240.5 127.69,-258.5 191.87,-258.5 191.87,-240.5 127.69,-240.5"/>
<text text-anchor="middle" x="159.78" y="-246.5" font-family="Helvetica,sans-Serif" font-size="10.00">BufferAlloc</text>
</a>
</g>
</g>
<!-- Node4&#45;&gt;Node3 -->
<g id="edge3" class="edge">
<title>Node4&#45;&gt;Node3</title>
<path fill="none" stroke="midnightblue" d="M159.78,-230.17C159.78,-221.09 159.78,-210.59 159.78,-203.55"/>
<polygon fill="midnightblue" stroke="midnightblue" points="156.28,-230.22 159.78,-240.22 163.28,-230.22 156.28,-230.22"/>
</g>
</g>
</svg>
