<?xml version="1.0" encoding="UTF-8" standalone="no"?>
<!DOCTYPE svg PUBLIC "-//W3C//DTD SVG 1.1//EN"
 "http://www.w3.org/Graphics/SVG/1.1/DTD/svg11.dtd">
<!-- Generated by graphviz version 2.43.0 (0)
 -->
<!-- Title: Ogre::Resource::Listener Pages: 1 -->
<svg width="322pt" height="82pt"
 viewBox="0.00 0.00 322.43 82.00" xmlns="http://www.w3.org/2000/svg" xmlns:xlink="http://www.w3.org/1999/xlink">
<g id="graph0" class="graph" transform="scale(1 1) rotate(0) translate(4 78)">
<title>Ogre::Resource::Listener</title>
<!-- Node1 -->
<g id="node1" class="node">
<title>Node1</title>
<g id="a_node1"><a xlink:title=" ">
<polygon fill="#bfbfbf" stroke="black" points="116.11,-55.5 116.11,-73.5 243.83,-73.5 243.83,-55.5 116.11,-55.5"/>
<text text-anchor="middle" x="179.97" y="-61.5" font-family="Helvetica,sans-Serif" font-size="10.00">Ogre::Resource::Listener</text>
</a>
</g>
</g>
<!-- Node2 -->
<g id="node2" class="node">
<title>Node2</title>
<g id="a_node2"><a xlink:href="class_ogre_1_1_gpu_program_usage.html" target="_top" xlink:title="This class makes the usage of a vertex and fragment programs (low&#45;level or high&#45;level),...">
<polygon fill="none" stroke="black" points="0,-0.5 0,-18.5 129.94,-18.5 129.94,-0.5 0,-0.5"/>
<text text-anchor="middle" x="64.97" y="-6.5" font-family="Helvetica,sans-Serif" font-size="10.00">Ogre::GpuProgramUsage</text>
</a>
</g>
</g>
<!-- Node1&#45;&gt;Node2 -->
<g id="edge1" class="edge">
<title>Node1&#45;&gt;Node2</title>
<path fill="none" stroke="midnightblue" d="M153.17,-51.15C131.43,-41.13 101.41,-27.29 82.6,-18.63"/>
<polygon fill="midnightblue" stroke="midnightblue" points="151.96,-54.44 162.5,-55.45 154.89,-48.09 151.96,-54.44"/>
</g>
<!-- Node3 -->
<g id="node3" class="node">
<title>Node3</title>
<g id="a_node3"><a xlink:href="class_ogre_1_1_item.html" target="_top" xlink:title="Defines an instance of a discrete, movable object based on a Mesh.">
<polygon fill="none" stroke="black" points="148.35,-0.5 148.35,-18.5 211.59,-18.5 211.59,-0.5 148.35,-0.5"/>
<text text-anchor="middle" x="179.97" y="-6.5" font-family="Helvetica,sans-Serif" font-size="10.00">Ogre::Item</text>
</a>
</g>
</g>
<!-- Node1&#45;&gt;Node3 -->
<g id="edge2" class="edge">
<title>Node1&#45;&gt;Node3</title>
<path fill="none" stroke="midnightblue" d="M179.97,-45.17C179.97,-36.09 179.97,-25.59 179.97,-18.55"/>
<polygon fill="midnightblue" stroke="midnightblue" points="176.47,-45.22 179.97,-55.22 183.47,-45.22 176.47,-45.22"/>
</g>
<!-- Node4 -->
<g id="node4" class="node">
<title>Node4</title>
<g id="a_node4"><a xlink:href="class_ogre_1_1v1_1_1_entity.html" target="_top" xlink:title="Defines an instance of a discrete, movable object based on a Mesh.">
<polygon fill="none" stroke="black" points="229.51,-0.5 229.51,-18.5 314.43,-18.5 314.43,-0.5 229.51,-0.5"/>
<text text-anchor="middle" x="271.97" y="-6.5" font-family="Helvetica,sans-Serif" font-size="10.00">Ogre::v1::Entity</text>
</a>
</g>
</g>
<!-- Node1&#45;&gt;Node4 -->
<g id="edge3" class="edge">
<title>Node1&#45;&gt;Node4</title>
<path fill="none" stroke="midnightblue" d="M202.84,-50.33C220.09,-40.39 243.22,-27.06 257.87,-18.63"/>
<polygon fill="midnightblue" stroke="midnightblue" points="200.86,-47.43 193.94,-55.45 204.36,-53.49 200.86,-47.43"/>
</g>
</g>
</svg>
