<?xml version="1.0" encoding="UTF-8" standalone="no"?>
<!DOCTYPE svg PUBLIC "-//W3C//DTD SVG 1.1//EN"
 "http://www.w3.org/Graphics/SVG/1.1/DTD/svg11.dtd">
<!-- Generated by graphviz version 2.43.0 (0)
 -->
<!-- Title: Ogre::TextureAnimationControllerValue Pages: 1 -->
<svg width="172pt" height="157pt"
 viewBox="0.00 0.00 172.40 157.00" xmlns="http://www.w3.org/2000/svg" xmlns:xlink="http://www.w3.org/1999/xlink">
<g id="graph0" class="graph" transform="scale(1 1) rotate(0) translate(4 153)">
<title>Ogre::TextureAnimationControllerValue</title>
<!-- Node1 -->
<g id="node1" class="node">
<title>Node1</title>
<g id="a_node1"><a xlink:title="Predefined controller value for getting / setting a texture coordinate modifications (scales and tran...">
<polygon fill="#bfbfbf" stroke="black" points="0,-0.5 0,-28.5 164.4,-28.5 164.4,-0.5 0,-0.5"/>
<text text-anchor="start" x="8" y="-16.5" font-family="Helvetica,sans-Serif" font-size="10.00">Ogre::TextureAnimationController</text>
<text text-anchor="middle" x="82.2" y="-6.5" font-family="Helvetica,sans-Serif" font-size="10.00">Value</text>
</a>
</g>
</g>
<!-- Node2 -->
<g id="node2" class="node">
<title>Node2</title>
<g id="a_node2"><a xlink:href="class_ogre_1_1_controller_value.html" target="_top" xlink:title=" ">
<polygon fill="none" stroke="black" points="26.21,-65.5 26.21,-93.5 138.19,-93.5 138.19,-65.5 26.21,-65.5"/>
<text text-anchor="start" x="34.21" y="-81.5" font-family="Helvetica,sans-Serif" font-size="10.00">Ogre::ControllerValue</text>
<text text-anchor="middle" x="82.2" y="-71.5" font-family="Helvetica,sans-Serif" font-size="10.00">&lt; Ogre::Real &gt;</text>
</a>
</g>
</g>
<!-- Node2&#45;&gt;Node1 -->
<g id="edge1" class="edge">
<title>Node2&#45;&gt;Node1</title>
<path fill="none" stroke="midnightblue" d="M82.2,-55.16C82.2,-46.17 82.2,-36.22 82.2,-28.54"/>
<polygon fill="midnightblue" stroke="midnightblue" points="78.7,-55.45 82.2,-65.45 85.7,-55.45 78.7,-55.45"/>
</g>
<!-- Node3 -->
<g id="node3" class="node">
<title>Node3</title>
<g id="a_node3"><a xlink:href="class_ogre_1_1_allocated_object.html" target="_top" xlink:title="Superclass for all objects that wish to use custom memory allocators when their new / delete operator...">
<polygon fill="none" stroke="black" points="41.69,-130.5 41.69,-148.5 122.71,-148.5 122.71,-130.5 41.69,-130.5"/>
<text text-anchor="middle" x="82.2" y="-136.5" font-family="Helvetica,sans-Serif" font-size="10.00">ControllerAlloc</text>
</a>
</g>
</g>
<!-- Node3&#45;&gt;Node2 -->
<g id="edge2" class="edge">
<title>Node3&#45;&gt;Node2</title>
<path fill="none" stroke="midnightblue" d="M82.2,-120.32C82.2,-111.75 82.2,-101.7 82.2,-93.84"/>
<polygon fill="midnightblue" stroke="midnightblue" points="78.7,-120.44 82.2,-130.44 85.7,-120.44 78.7,-120.44"/>
</g>
</g>
</svg>
