<?xml version="1.0" encoding="UTF-8" standalone="no"?>
<!DOCTYPE svg PUBLIC "-//W3C//DTD SVG 1.1//EN"
 "http://www.w3.org/Graphics/SVG/1.1/DTD/svg11.dtd">
<!-- Generated by graphviz version 2.43.0 (0)
 -->
<!-- Title: Ogre::CompositorPass Pages: 1 -->
<svg width="469pt" height="286pt"
 viewBox="0.00 0.00 469.25 286.00" xmlns="http://www.w3.org/2000/svg" xmlns:xlink="http://www.w3.org/1999/xlink">
<g id="graph0" class="graph" transform="scale(1 1) rotate(0) translate(4 282)">
<title>Ogre::CompositorPass</title>
<!-- Node1 -->
<g id="node1" class="node">
<title>Node1</title>
<g id="a_node1"><a xlink:title="Abstract class for compositor passes.">
<polygon fill="#bfbfbf" stroke="black" points="140.92,-129.5 140.92,-147.5 258.07,-147.5 258.07,-129.5 140.92,-129.5"/>
<text text-anchor="middle" x="199.49" y="-135.5" font-family="Helvetica,sans-Serif" font-size="10.00">Ogre::CompositorPass</text>
</a>
</g>
</g>
<!-- Node3 -->
<g id="node3" class="node">
<title>Node3</title>
<g id="a_node3"><a xlink:href="class_ogre_1_1_compositor_pass_clear.html" target="_top" xlink:title="Implementation of CompositorPass This implementation will clear the RenderTarget using the parameters...">
<polygon fill="none" stroke="black" points="307.13,-259.5 307.13,-277.5 448.18,-277.5 448.18,-259.5 307.13,-259.5"/>
<text text-anchor="middle" x="377.66" y="-265.5" font-family="Helvetica,sans-Serif" font-size="10.00">Ogre::CompositorPassClear</text>
</a>
</g>
</g>
<!-- Node1&#45;&gt;Node3 -->
<g id="edge2" class="edge">
<title>Node1&#45;&gt;Node3</title>
<path fill="none" stroke="midnightblue" d="M210.44,-156.71C225.21,-181.95 255.42,-227.09 294.07,-250.5 300.09,-254.15 306.76,-257.06 313.62,-259.39"/>
<polygon fill="midnightblue" stroke="midnightblue" points="213.37,-154.78 205.39,-147.81 207.28,-158.23 213.37,-154.78"/>
</g>
<!-- Node4 -->
<g id="node4" class="node">
<title>Node4</title>
<g id="a_node4"><a xlink:href="class_ogre_1_1_compositor_pass_compute.html" target="_top" xlink:title="Implementation of CompositorPass This implementation will render a fullscreen triangle/quad to the Re...">
<polygon fill="none" stroke="black" points="298.79,-222.5 298.79,-240.5 456.52,-240.5 456.52,-222.5 298.79,-222.5"/>
<text text-anchor="middle" x="377.66" y="-228.5" font-family="Helvetica,sans-Serif" font-size="10.00">Ogre::CompositorPassCompute</text>
</a>
</g>
</g>
<!-- Node1&#45;&gt;Node4 -->
<g id="edge3" class="edge">
<title>Node1&#45;&gt;Node4</title>
<path fill="none" stroke="midnightblue" d="M216.16,-154.93C233.55,-172.19 263.27,-198.81 294.07,-213.5 301.75,-217.16 310.19,-220.09 318.65,-222.43"/>
<polygon fill="midnightblue" stroke="midnightblue" points="218.58,-152.41 209.07,-147.74 213.6,-157.32 218.58,-152.41"/>
</g>
<!-- Node5 -->
<g id="node5" class="node">
<title>Node5</title>
<g id="a_node5"><a xlink:href="class_ogre_1_1_compositor_pass_depth_copy.html" target="_top" xlink:title="Implementation of CompositorPass This implementation will copy one DepthBuffer to another DepthBuffer...">
<polygon fill="none" stroke="black" points="294.07,-185.5 294.07,-203.5 461.25,-203.5 461.25,-185.5 294.07,-185.5"/>
<text text-anchor="middle" x="377.66" y="-191.5" font-family="Helvetica,sans-Serif" font-size="10.00">Ogre::CompositorPassDepthCopy</text>
</a>
</g>
</g>
<!-- Node1&#45;&gt;Node5 -->
<g id="edge4" class="edge">
<title>Node1&#45;&gt;Node5</title>
<path fill="none" stroke="midnightblue" d="M229.08,-151.6C247.37,-159.6 271.78,-169.6 294.07,-176.5 305,-179.88 316.94,-182.88 328.26,-185.4"/>
<polygon fill="midnightblue" stroke="midnightblue" points="230.41,-148.36 219.85,-147.5 227.57,-154.76 230.41,-148.36"/>
</g>
<!-- Node6 -->
<g id="node6" class="node">
<title>Node6</title>
<g id="a_node6"><a xlink:href="class_ogre_1_1_compositor_pass_mipmap.html" target="_top" xlink:title="Implementation of CompositorPass This implementation will generate mipmaps for the specified texture.">
<polygon fill="none" stroke="black" points="301.3,-148.5 301.3,-166.5 454.01,-166.5 454.01,-148.5 301.3,-148.5"/>
<text text-anchor="middle" x="377.66" y="-154.5" font-family="Helvetica,sans-Serif" font-size="10.00">Ogre::CompositorPassMipmap</text>
</a>
</g>
</g>
<!-- Node1&#45;&gt;Node6 -->
<g id="edge5" class="edge">
<title>Node1&#45;&gt;Node6</title>
<path fill="none" stroke="midnightblue" d="M268.34,-145.82C279.1,-146.98 290.29,-148.18 301.21,-149.36"/>
<polygon fill="midnightblue" stroke="midnightblue" points="268.49,-142.31 258.18,-144.72 267.74,-149.27 268.49,-142.31"/>
</g>
<!-- Node7 -->
<g id="node7" class="node">
<title>Node7</title>
<g id="a_node7"><a xlink:href="class_ogre_1_1_compositor_pass_quad.html" target="_top" xlink:title="Implementation of CompositorPass This implementation will render a fullscreen triangle/quad to the Re...">
<polygon fill="none" stroke="black" points="306.85,-111.5 306.85,-129.5 448.46,-129.5 448.46,-111.5 306.85,-111.5"/>
<text text-anchor="middle" x="377.66" y="-117.5" font-family="Helvetica,sans-Serif" font-size="10.00">Ogre::CompositorPassQuad</text>
</a>
</g>
</g>
<!-- Node1&#45;&gt;Node7 -->
<g id="edge6" class="edge">
<title>Node1&#45;&gt;Node7</title>
<path fill="none" stroke="midnightblue" d="M268.5,-131.55C280.97,-130.28 294.02,-128.94 306.55,-127.66"/>
<polygon fill="midnightblue" stroke="midnightblue" points="267.77,-128.11 258.18,-132.61 268.48,-135.07 267.77,-128.11"/>
</g>
<!-- Node8 -->
<g id="node8" class="node">
<title>Node8</title>
<g id="a_node8"><a xlink:href="class_ogre_1_1_compositor_pass_scene.html" target="_top" xlink:title="Implementation of CompositorPass This implementation will perform main rendering, selecting several p...">
<polygon fill="none" stroke="black" points="304.91,-74.5 304.91,-92.5 450.41,-92.5 450.41,-74.5 304.91,-74.5"/>
<text text-anchor="middle" x="377.66" y="-80.5" font-family="Helvetica,sans-Serif" font-size="10.00">Ogre::CompositorPassScene</text>
</a>
</g>
</g>
<!-- Node1&#45;&gt;Node8 -->
<g id="edge7" class="edge">
<title>Node1&#45;&gt;Node8</title>
<path fill="none" stroke="midnightblue" d="M229.82,-125.49C248.04,-117.75 272.11,-108.19 294.07,-101.5 305.16,-98.12 317.27,-95.12 328.71,-92.57"/>
<polygon fill="midnightblue" stroke="midnightblue" points="228.41,-122.28 220.6,-129.45 231.17,-128.71 228.41,-122.28"/>
</g>
<!-- Node9 -->
<g id="node9" class="node">
<title>Node9</title>
<g id="a_node9"><a xlink:href="class_ogre_1_1_compositor_pass_stencil.html" target="_top" xlink:title="Implementation of CompositorPass This implementation will clear the RenderTarget using the parameters...">
<polygon fill="none" stroke="black" points="304.08,-37.5 304.08,-55.5 451.24,-55.5 451.24,-37.5 304.08,-37.5"/>
<text text-anchor="middle" x="377.66" y="-43.5" font-family="Helvetica,sans-Serif" font-size="10.00">Ogre::CompositorPassStencil</text>
</a>
</g>
</g>
<!-- Node1&#45;&gt;Node9 -->
<g id="edge8" class="edge">
<title>Node1&#45;&gt;Node9</title>
<path fill="none" stroke="midnightblue" d="M216.2,-122.29C233.63,-105.28 263.38,-79.02 294.07,-64.5 301.76,-60.86 310.21,-57.95 318.67,-55.62"/>
<polygon fill="midnightblue" stroke="midnightblue" points="213.7,-119.84 209.1,-129.39 218.65,-124.8 213.7,-119.84"/>
</g>
<!-- Node10 -->
<g id="node10" class="node">
<title>Node10</title>
<g id="a_node10"><a xlink:href="class_ogre_1_1_compositor_pass_uav.html" target="_top" xlink:title="Implementation of CompositorPass This implementation will set UAVs.">
<polygon fill="none" stroke="black" points="310.19,-0.5 310.19,-18.5 445.12,-18.5 445.12,-0.5 310.19,-0.5"/>
<text text-anchor="middle" x="377.66" y="-6.5" font-family="Helvetica,sans-Serif" font-size="10.00">Ogre::CompositorPassUav</text>
</a>
</g>
</g>
<!-- Node1&#45;&gt;Node10 -->
<g id="edge9" class="edge">
<title>Node1&#45;&gt;Node10</title>
<path fill="none" stroke="midnightblue" d="M210.48,-120.45C225.3,-95.44 255.57,-50.7 294.07,-27.5 300.1,-23.86 306.77,-20.96 313.64,-18.64"/>
<polygon fill="midnightblue" stroke="midnightblue" points="207.36,-118.86 205.41,-129.28 213.43,-122.35 207.36,-118.86"/>
</g>
<!-- Node2 -->
<g id="node2" class="node">
<title>Node2</title>
<g id="a_node2"><a xlink:href="class_ogre_1_1_allocated_object.html" target="_top" xlink:title="Superclass for all objects that wish to use custom memory allocators when their new / delete operator...">
<polygon fill="none" stroke="black" points="0,-129.5 0,-147.5 104.92,-147.5 104.92,-129.5 0,-129.5"/>
<text text-anchor="middle" x="52.46" y="-135.5" font-family="Helvetica,sans-Serif" font-size="10.00">CompositorInstAlloc</text>
</a>
</g>
</g>
<!-- Node2&#45;&gt;Node1 -->
<g id="edge1" class="edge">
<title>Node2&#45;&gt;Node1</title>
<path fill="none" stroke="midnightblue" d="M115.19,-138.5C123.65,-138.5 132.31,-138.5 140.7,-138.5"/>
<polygon fill="midnightblue" stroke="midnightblue" points="115,-135 105,-138.5 115,-142 115,-135"/>
</g>
</g>
</svg>
