<?xml version="1.0" encoding="UTF-8" standalone="no"?>
<!DOCTYPE svg PUBLIC "-//W3C//DTD SVG 1.1//EN"
 "http://www.w3.org/Graphics/SVG/1.1/DTD/svg11.dtd">
<!-- Generated by graphviz version 2.43.0 (0)
 -->
<!-- Title: Ogre::MovablePlane Pages: 1 -->
<svg width="315pt" height="137pt"
 viewBox="0.00 0.00 314.70 137.00" xmlns="http://www.w3.org/2000/svg" xmlns:xlink="http://www.w3.org/1999/xlink">
<g id="graph0" class="graph" transform="scale(1 1) rotate(0) translate(4 133)">
<title>Ogre::MovablePlane</title>
<!-- Node1 -->
<g id="node1" class="node">
<title>Node1</title>
<g id="a_node1"><a xlink:title="Definition of a Plane that may be attached to a node, and the derived details of it retrieved simply.">
<polygon fill="#bfbfbf" stroke="black" points="62.61,-0.5 62.61,-18.5 169.77,-18.5 169.77,-0.5 62.61,-0.5"/>
<text text-anchor="middle" x="116.19" y="-6.5" font-family="Helvetica,sans-Serif" font-size="10.00">Ogre::MovablePlane</text>
</a>
</g>
</g>
<!-- Node2 -->
<g id="node2" class="node">
<title>Node2</title>
<g id="a_node2"><a xlink:href="class_ogre_1_1_plane.html" target="_top" xlink:title="Defines a plane in 3D space.">
<polygon fill="none" stroke="black" points="27.51,-55.5 27.51,-73.5 96.87,-73.5 96.87,-55.5 27.51,-55.5"/>
<text text-anchor="middle" x="62.19" y="-61.5" font-family="Helvetica,sans-Serif" font-size="10.00">Ogre::Plane</text>
</a>
</g>
</g>
<!-- Node2&#45;&gt;Node1 -->
<g id="edge1" class="edge">
<title>Node2&#45;&gt;Node1</title>
<path fill="none" stroke="midnightblue" d="M77.87,-48.11C87.72,-38.44 100.02,-26.37 107.99,-18.55"/>
<polygon fill="midnightblue" stroke="midnightblue" points="75.31,-45.72 70.63,-55.22 80.22,-50.71 75.31,-45.72"/>
</g>
<!-- Node3 -->
<g id="node3" class="node">
<title>Node3</title>
<g id="a_node3"><a xlink:href="class_ogre_1_1_movable_object.html" target="_top" xlink:title="Abstract class defining a movable object in a scene.">
<polygon fill="none" stroke="black" points="114.95,-55.5 114.95,-73.5 225.43,-73.5 225.43,-55.5 114.95,-55.5"/>
<text text-anchor="middle" x="170.19" y="-61.5" font-family="Helvetica,sans-Serif" font-size="10.00">Ogre::MovableObject</text>
</a>
</g>
</g>
<!-- Node3&#45;&gt;Node1 -->
<g id="edge2" class="edge">
<title>Node3&#45;&gt;Node1</title>
<path fill="none" stroke="midnightblue" d="M154.51,-48.11C144.66,-38.44 132.36,-26.37 124.39,-18.55"/>
<polygon fill="midnightblue" stroke="midnightblue" points="152.16,-50.71 161.75,-55.22 157.07,-45.72 152.16,-50.71"/>
</g>
<!-- Node4 -->
<g id="node4" class="node">
<title>Node4</title>
<g id="a_node4"><a xlink:href="class_ogre_1_1_animable_object.html" target="_top" xlink:title="Defines an interface to classes which have one or more AnimableValue instances to expose.">
<polygon fill="none" stroke="black" points="0,-110.5 0,-128.5 114.38,-128.5 114.38,-110.5 0,-110.5"/>
<text text-anchor="middle" x="57.19" y="-116.5" font-family="Helvetica,sans-Serif" font-size="10.00">Ogre::AnimableObject</text>
</a>
</g>
</g>
<!-- Node4&#45;&gt;Node3 -->
<g id="edge3" class="edge">
<title>Node4&#45;&gt;Node3</title>
<path fill="none" stroke="midnightblue" d="M83.52,-106.15C104.88,-96.13 134.38,-82.29 152.87,-73.63"/>
<polygon fill="midnightblue" stroke="midnightblue" points="81.92,-103.04 74.35,-110.45 84.89,-109.37 81.92,-103.04"/>
</g>
<!-- Node5 -->
<g id="node5" class="node">
<title>Node5</title>
<g id="a_node5"><a xlink:href="class_ogre_1_1_allocated_object.html" target="_top" xlink:title="Superclass for all objects that wish to use custom memory allocators when their new / delete operator...">
<polygon fill="none" stroke="black" points="132.45,-110.5 132.45,-128.5 207.93,-128.5 207.93,-110.5 132.45,-110.5"/>
<text text-anchor="middle" x="170.19" y="-116.5" font-family="Helvetica,sans-Serif" font-size="10.00">MovableAlloc</text>
</a>
</g>
</g>
<!-- Node5&#45;&gt;Node3 -->
<g id="edge4" class="edge">
<title>Node5&#45;&gt;Node3</title>
<path fill="none" stroke="midnightblue" d="M170.19,-100.17C170.19,-91.09 170.19,-80.59 170.19,-73.55"/>
<polygon fill="midnightblue" stroke="midnightblue" points="166.69,-100.22 170.19,-110.22 173.69,-100.22 166.69,-100.22"/>
</g>
<!-- Node6 -->
<g id="node6" class="node">
<title>Node6</title>
<g id="a_node6"><a xlink:href="class_ogre_1_1_id_object.html" target="_top" xlink:title=" ">
<polygon fill="none" stroke="black" points="225.67,-110.5 225.67,-128.5 306.7,-128.5 306.7,-110.5 225.67,-110.5"/>
<text text-anchor="middle" x="266.19" y="-116.5" font-family="Helvetica,sans-Serif" font-size="10.00">Ogre::IdObject</text>
</a>
</g>
</g>
<!-- Node6&#45;&gt;Node3 -->
<g id="edge5" class="edge">
<title>Node6&#45;&gt;Node3</title>
<path fill="none" stroke="midnightblue" d="M242.83,-105.6C224.77,-95.63 200.33,-82.14 184.91,-73.63"/>
<polygon fill="midnightblue" stroke="midnightblue" points="241.16,-108.68 251.61,-110.45 244.55,-102.55 241.16,-108.68"/>
</g>
</g>
</svg>
