<?xml version="1.0" encoding="UTF-8" standalone="no"?>
<!DOCTYPE svg PUBLIC "-//W3C//DTD SVG 1.1//EN"
 "http://www.w3.org/Graphics/SVG/1.1/DTD/svg11.dtd">
<!-- Generated by graphviz version 2.43.0 (0)
 -->
<!-- Title: Ogre::PCZAxisAlignedBoxSceneQuery Pages: 1 -->
<svg width="260pt" height="277pt"
 viewBox="0.00 0.00 260.16 277.00" xmlns="http://www.w3.org/2000/svg" xmlns:xlink="http://www.w3.org/1999/xlink">
<g id="graph0" class="graph" transform="scale(1 1) rotate(0) translate(4 273)">
<title>Ogre::PCZAxisAlignedBoxSceneQuery</title>
<!-- Node1 -->
<g id="node1" class="node">
<title>Node1</title>
<g id="a_node1"><a xlink:title="PCZ implementation of AxisAlignedBoxSceneQuery.">
<polygon fill="#bfbfbf" stroke="black" points="35.87,-0.5 35.87,-28.5 197.5,-28.5 197.5,-0.5 35.87,-0.5"/>
<text text-anchor="start" x="43.87" y="-16.5" font-family="Helvetica,sans-Serif" font-size="10.00">Ogre::PCZAxisAlignedBoxScene</text>
<text text-anchor="middle" x="116.69" y="-6.5" font-family="Helvetica,sans-Serif" font-size="10.00">Query</text>
</a>
</g>
</g>
<!-- Node2 -->
<g id="node2" class="node">
<title>Node2</title>
<g id="a_node2"><a xlink:href="class_ogre_1_1_default_axis_aligned_box_scene_query.html" target="_top" xlink:title="Default implementation of AxisAlignedBoxSceneQuery.">
<polygon fill="none" stroke="black" points="52.83,-65.5 52.83,-93.5 180.55,-93.5 180.55,-65.5 52.83,-65.5"/>
<text text-anchor="start" x="60.83" y="-81.5" font-family="Helvetica,sans-Serif" font-size="10.00">Ogre::DefaultAxisAligned</text>
<text text-anchor="middle" x="116.69" y="-71.5" font-family="Helvetica,sans-Serif" font-size="10.00">BoxSceneQuery</text>
</a>
</g>
</g>
<!-- Node2&#45;&gt;Node1 -->
<g id="edge1" class="edge">
<title>Node2&#45;&gt;Node1</title>
<path fill="none" stroke="midnightblue" d="M116.69,-55.16C116.69,-46.17 116.69,-36.22 116.69,-28.54"/>
<polygon fill="midnightblue" stroke="midnightblue" points="113.19,-55.45 116.69,-65.45 120.19,-55.45 113.19,-55.45"/>
</g>
<!-- Node3 -->
<g id="node3" class="node">
<title>Node3</title>
<g id="a_node3"><a xlink:href="class_ogre_1_1_axis_aligned_box_scene_query.html" target="_top" xlink:title="Specialises the SceneQuery class for querying within an axis aligned box.">
<polygon fill="none" stroke="black" points="45.87,-130.5 45.87,-158.5 187.5,-158.5 187.5,-130.5 45.87,-130.5"/>
<text text-anchor="start" x="53.87" y="-146.5" font-family="Helvetica,sans-Serif" font-size="10.00">Ogre::AxisAlignedBoxScene</text>
<text text-anchor="middle" x="116.69" y="-136.5" font-family="Helvetica,sans-Serif" font-size="10.00">Query</text>
</a>
</g>
</g>
<!-- Node3&#45;&gt;Node2 -->
<g id="edge2" class="edge">
<title>Node3&#45;&gt;Node2</title>
<path fill="none" stroke="midnightblue" d="M116.69,-120.16C116.69,-111.17 116.69,-101.22 116.69,-93.54"/>
<polygon fill="midnightblue" stroke="midnightblue" points="113.19,-120.45 116.69,-130.45 120.19,-120.45 113.19,-120.45"/>
</g>
<!-- Node4 -->
<g id="node4" class="node">
<title>Node4</title>
<g id="a_node4"><a xlink:href="class_ogre_1_1_region_scene_query.html" target="_top" xlink:title="Abstract class defining a query which returns single results from a region.">
<polygon fill="none" stroke="black" points="51.16,-195.5 51.16,-213.5 182.22,-213.5 182.22,-195.5 51.16,-195.5"/>
<text text-anchor="middle" x="116.69" y="-201.5" font-family="Helvetica,sans-Serif" font-size="10.00">Ogre::RegionSceneQuery</text>
</a>
</g>
</g>
<!-- Node4&#45;&gt;Node3 -->
<g id="edge3" class="edge">
<title>Node4&#45;&gt;Node3</title>
<path fill="none" stroke="midnightblue" d="M116.69,-185.32C116.69,-176.75 116.69,-166.7 116.69,-158.84"/>
<polygon fill="midnightblue" stroke="midnightblue" points="113.19,-185.44 116.69,-195.44 120.19,-185.44 113.19,-185.44"/>
</g>
<!-- Node5 -->
<g id="node5" class="node">
<title>Node5</title>
<g id="a_node5"><a xlink:href="class_ogre_1_1_scene_query.html" target="_top" xlink:title="A class for performing queries on a scene.">
<polygon fill="none" stroke="red" points="0,-250.5 0,-268.5 99.37,-268.5 99.37,-250.5 0,-250.5"/>
<text text-anchor="middle" x="49.69" y="-256.5" font-family="Helvetica,sans-Serif" font-size="10.00">Ogre::SceneQuery</text>
</a>
</g>
</g>
<!-- Node5&#45;&gt;Node4 -->
<g id="edge4" class="edge">
<title>Node5&#45;&gt;Node4</title>
<path fill="none" stroke="midnightblue" d="M67.75,-244.21C80.15,-234.41 96.15,-221.75 106.42,-213.63"/>
<polygon fill="midnightblue" stroke="midnightblue" points="65.53,-241.5 59.86,-250.45 69.88,-246.99 65.53,-241.5"/>
</g>
<!-- Node7 -->
<g id="node6" class="node">
<title>Node7</title>
<g id="a_node6"><a xlink:href="class_ogre_1_1_scene_query_listener.html" target="_top" xlink:title="This optional class allows you to receive per&#45;result callbacks from SceneQuery executions instead of ...">
<polygon fill="none" stroke="black" points="117.21,-250.5 117.21,-268.5 252.16,-268.5 252.16,-250.5 117.21,-250.5"/>
<text text-anchor="middle" x="184.69" y="-256.5" font-family="Helvetica,sans-Serif" font-size="10.00">Ogre::SceneQueryListener</text>
</a>
</g>
</g>
<!-- Node7&#45;&gt;Node4 -->
<g id="edge5" class="edge">
<title>Node7&#45;&gt;Node4</title>
<path fill="none" stroke="midnightblue" d="M166.35,-244.21C153.77,-234.41 137.53,-221.75 127.11,-213.63"/>
<polygon fill="midnightblue" stroke="midnightblue" points="164.32,-247.06 174.36,-250.45 168.62,-241.54 164.32,-247.06"/>
</g>
</g>
</svg>
