<?xml version="1.0" encoding="UTF-8" standalone="no"?>
<!DOCTYPE svg PUBLIC "-//W3C//DTD SVG 1.1//EN"
 "http://www.w3.org/Graphics/SVG/1.1/DTD/svg11.dtd">
<!-- Generated by graphviz version 2.43.0 (0)
 -->
<!-- Title: Ogre::NULLAsyncTicket Pages: 1 -->
<svg width="131pt" height="137pt"
 viewBox="0.00 0.00 130.89 137.00" xmlns="http://www.w3.org/2000/svg" xmlns:xlink="http://www.w3.org/1999/xlink">
<g id="graph0" class="graph" transform="scale(1 1) rotate(0) translate(4 133)">
<title>Ogre::NULLAsyncTicket</title>
<!-- Node1 -->
<g id="node1" class="node">
<title>Node1</title>
<g id="a_node1"><a xlink:title=" ">
<polygon fill="#bfbfbf" stroke="black" points="0,-0.5 0,-18.5 122.89,-18.5 122.89,-0.5 0,-0.5"/>
<text text-anchor="middle" x="61.44" y="-6.5" font-family="Helvetica,sans-Serif" font-size="10.00">Ogre::NULLAsyncTicket</text>
</a>
</g>
</g>
<!-- Node2 -->
<g id="node2" class="node">
<title>Node2</title>
<g id="a_node2"><a xlink:href="class_ogre_1_1_async_ticket.html" target="_top" xlink:title="In Ogre 2.0 data structures, reading data from GPU back to CPU is asynchronous.">
<polygon fill="none" stroke="black" points="12.78,-55.5 12.78,-73.5 110.11,-73.5 110.11,-55.5 12.78,-55.5"/>
<text text-anchor="middle" x="61.44" y="-61.5" font-family="Helvetica,sans-Serif" font-size="10.00">Ogre::AsyncTicket</text>
</a>
</g>
</g>
<!-- Node2&#45;&gt;Node1 -->
<g id="edge1" class="edge">
<title>Node2&#45;&gt;Node1</title>
<path fill="none" stroke="midnightblue" d="M61.44,-45.17C61.44,-36.09 61.44,-25.59 61.44,-18.55"/>
<polygon fill="midnightblue" stroke="midnightblue" points="57.94,-45.22 61.44,-55.22 64.94,-45.22 57.94,-45.22"/>
</g>
<!-- Node3 -->
<g id="node3" class="node">
<title>Node3</title>
<g id="a_node3"><a xlink:href="class_ogre_1_1_allocated_object.html" target="_top" xlink:title="Superclass for all objects that wish to use custom memory allocators when their new / delete operator...">
<polygon fill="none" stroke="black" points="17.87,-110.5 17.87,-128.5 105.02,-128.5 105.02,-110.5 17.87,-110.5"/>
<text text-anchor="middle" x="61.44" y="-116.5" font-family="Helvetica,sans-Serif" font-size="10.00">RenderSysAlloc</text>
</a>
</g>
</g>
<!-- Node3&#45;&gt;Node2 -->
<g id="edge2" class="edge">
<title>Node3&#45;&gt;Node2</title>
<path fill="none" stroke="midnightblue" d="M61.44,-100.17C61.44,-91.09 61.44,-80.59 61.44,-73.55"/>
<polygon fill="midnightblue" stroke="midnightblue" points="57.94,-100.22 61.44,-110.22 64.94,-100.22 57.94,-100.22"/>
</g>
</g>
</svg>
