<?xml version="1.0" encoding="UTF-8" standalone="no"?>
<!DOCTYPE svg PUBLIC "-//W3C//DTD SVG 1.1//EN"
 "http://www.w3.org/Graphics/SVG/1.1/DTD/svg11.dtd">
<!-- Generated by graphviz version 2.43.0 (0)
 -->
<!-- Title: Ogre::Bone Pages: 1 -->
<svg width="168pt" height="82pt"
 viewBox="0.00 0.00 168.31 82.00" xmlns="http://www.w3.org/2000/svg" xmlns:xlink="http://www.w3.org/1999/xlink">
<g id="graph0" class="graph" transform="scale(1 1) rotate(0) translate(4 78)">
<title>Ogre::Bone</title>
<!-- Node1 -->
<g id="node1" class="node">
<title>Node1</title>
<g id="a_node1"><a xlink:title="Class representing a Bone in the join hierarchy of a skeleton.">
<polygon fill="#bfbfbf" stroke="black" points="41.22,-0.5 41.22,-18.5 108.36,-18.5 108.36,-0.5 41.22,-0.5"/>
<text text-anchor="middle" x="74.79" y="-6.5" font-family="Helvetica,sans-Serif" font-size="10.00">Ogre::Bone</text>
</a>
</g>
</g>
<!-- Node2 -->
<g id="node2" class="node">
<title>Node2</title>
<g id="a_node2"><a xlink:href="class_ogre_1_1_allocated_object.html" target="_top" xlink:title="Superclass for all objects that wish to use custom memory allocators when their new / delete operator...">
<polygon fill="none" stroke="black" points="0,-55.5 0,-73.5 61.58,-73.5 61.58,-55.5 0,-55.5"/>
<text text-anchor="middle" x="30.79" y="-61.5" font-family="Helvetica,sans-Serif" font-size="10.00">NodeAlloc</text>
</a>
</g>
</g>
<!-- Node2&#45;&gt;Node1 -->
<g id="edge1" class="edge">
<title>Node2&#45;&gt;Node1</title>
<path fill="none" stroke="midnightblue" d="M44.29,-47.24C52.18,-37.73 61.81,-26.14 68.11,-18.55"/>
<polygon fill="midnightblue" stroke="midnightblue" points="41.36,-45.29 37.67,-55.22 46.75,-49.76 41.36,-45.29"/>
</g>
<!-- Node3 -->
<g id="node3" class="node">
<title>Node3</title>
<g id="a_node3"><a xlink:href="class_ogre_1_1_id_object.html" target="_top" xlink:title=" ">
<polygon fill="none" stroke="black" points="79.28,-55.5 79.28,-73.5 160.31,-73.5 160.31,-55.5 79.28,-55.5"/>
<text text-anchor="middle" x="119.79" y="-61.5" font-family="Helvetica,sans-Serif" font-size="10.00">Ogre::IdObject</text>
</a>
</g>
</g>
<!-- Node3&#45;&gt;Node1 -->
<g id="edge2" class="edge">
<title>Node3&#45;&gt;Node1</title>
<path fill="none" stroke="midnightblue" d="M106.23,-47.53C98.11,-37.97 88.13,-26.21 81.63,-18.55"/>
<polygon fill="midnightblue" stroke="midnightblue" points="103.62,-49.86 112.76,-55.22 108.95,-45.33 103.62,-49.86"/>
</g>
</g>
</svg>
