<?xml version="1.0" encoding="UTF-8" standalone="no"?>
<!DOCTYPE svg PUBLIC "-//W3C//DTD SVG 1.1//EN"
 "http://www.w3.org/Graphics/SVG/1.1/DTD/svg11.dtd">
<!-- Generated by graphviz version 2.43.0 (0)
 -->
<!-- Title: Ogre::RTShader::FFPTransform Pages: 1 -->
<svg width="167pt" height="147pt"
 viewBox="0.00 0.00 166.83 147.00" xmlns="http://www.w3.org/2000/svg" xmlns:xlink="http://www.w3.org/1999/xlink">
<g id="graph0" class="graph" transform="scale(1 1) rotate(0) translate(4 143)">
<title>Ogre::RTShader::FFPTransform</title>
<!-- Node1 -->
<g id="node1" class="node">
<title>Node1</title>
<g id="a_node1"><a xlink:title="Transform sub render state implementation of the Fixed Function Pipeline.">
<polygon fill="#bfbfbf" stroke="black" points="0,-0.5 0,-18.5 158.83,-18.5 158.83,-0.5 0,-0.5"/>
<text text-anchor="middle" x="79.41" y="-6.5" font-family="Helvetica,sans-Serif" font-size="10.00">Ogre::RTShader::FFPTransform</text>
</a>
</g>
</g>
<!-- Node2 -->
<g id="node2" class="node">
<title>Node2</title>
<g id="a_node2"><a xlink:href="class_ogre_1_1_r_t_shader_1_1_sub_render_state.html" target="_top" xlink:title="This class is the base interface of sub part from a shader based rendering pipeline.">
<polygon fill="none" stroke="black" points="6.75,-55.5 6.75,-83.5 152.08,-83.5 152.08,-55.5 6.75,-55.5"/>
<text text-anchor="start" x="14.75" y="-71.5" font-family="Helvetica,sans-Serif" font-size="10.00">Ogre::RTShader::SubRender</text>
<text text-anchor="middle" x="79.41" y="-61.5" font-family="Helvetica,sans-Serif" font-size="10.00">State</text>
</a>
</g>
</g>
<!-- Node2&#45;&gt;Node1 -->
<g id="edge1" class="edge">
<title>Node2&#45;&gt;Node1</title>
<path fill="none" stroke="midnightblue" d="M79.41,-45.32C79.41,-35.94 79.41,-25.7 79.41,-18.77"/>
<polygon fill="midnightblue" stroke="midnightblue" points="75.91,-45.34 79.41,-55.34 82.91,-45.34 75.91,-45.34"/>
</g>
<!-- Node3 -->
<g id="node3" class="node">
<title>Node3</title>
<g id="a_node3"><a xlink:href="class_ogre_1_1_allocated_object.html" target="_top" xlink:title="Superclass for all objects that wish to use custom memory allocators when their new / delete operator...">
<polygon fill="none" stroke="black" points="21.21,-120.5 21.21,-138.5 137.62,-138.5 137.62,-120.5 21.21,-120.5"/>
<text text-anchor="middle" x="79.41" y="-126.5" font-family="Helvetica,sans-Serif" font-size="10.00">RTShaderSystemAlloc</text>
</a>
</g>
</g>
<!-- Node3&#45;&gt;Node2 -->
<g id="edge2" class="edge">
<title>Node3&#45;&gt;Node2</title>
<path fill="none" stroke="midnightblue" d="M79.41,-110.32C79.41,-101.75 79.41,-91.7 79.41,-83.84"/>
<polygon fill="midnightblue" stroke="midnightblue" points="75.91,-110.44 79.41,-120.44 82.91,-110.44 75.91,-110.44"/>
</g>
</g>
</svg>
