<?xml version="1.0" encoding="UTF-8" standalone="no"?>
<!DOCTYPE svg PUBLIC "-//W3C//DTD SVG 1.1//EN"
 "http://www.w3.org/Graphics/SVG/1.1/DTD/svg11.dtd">
<!-- Generated by graphviz version 2.43.0 (0)
 -->
<!-- Title: Ogre::EllipsoidEmitterFactory Pages: 1 -->
<svg width="154pt" height="137pt"
 viewBox="0.00 0.00 154.04 137.00" xmlns="http://www.w3.org/2000/svg" xmlns:xlink="http://www.w3.org/1999/xlink">
<g id="graph0" class="graph" transform="scale(1 1) rotate(0) translate(4 133)">
<title>Ogre::EllipsoidEmitterFactory</title>
<!-- Node1 -->
<g id="node1" class="node">
<title>Node1</title>
<g id="a_node1"><a xlink:title="Factory class for particle emitter of type &quot;Ellipsoid&quot;.">
<polygon fill="#bfbfbf" stroke="black" points="0,-0.5 0,-18.5 146.04,-18.5 146.04,-0.5 0,-0.5"/>
<text text-anchor="middle" x="73.02" y="-6.5" font-family="Helvetica,sans-Serif" font-size="10.00">Ogre::EllipsoidEmitterFactory</text>
</a>
</g>
</g>
<!-- Node2 -->
<g id="node2" class="node">
<title>Node2</title>
<g id="a_node2"><a xlink:href="class_ogre_1_1_particle_emitter_factory.html" target="_top" xlink:title="Abstract class defining the interface to be implemented by creators of ParticleEmitter subclasses.">
<polygon fill="none" stroke="black" points="1.95,-55.5 1.95,-73.5 144.09,-73.5 144.09,-55.5 1.95,-55.5"/>
<text text-anchor="middle" x="73.02" y="-61.5" font-family="Helvetica,sans-Serif" font-size="10.00">Ogre::ParticleEmitterFactory</text>
</a>
</g>
</g>
<!-- Node2&#45;&gt;Node1 -->
<g id="edge1" class="edge">
<title>Node2&#45;&gt;Node1</title>
<path fill="none" stroke="midnightblue" d="M73.02,-45.17C73.02,-36.09 73.02,-25.59 73.02,-18.55"/>
<polygon fill="midnightblue" stroke="midnightblue" points="69.52,-45.22 73.02,-55.22 76.52,-45.22 69.52,-45.22"/>
</g>
<!-- Node3 -->
<g id="node3" class="node">
<title>Node3</title>
<g id="a_node3"><a xlink:href="class_ogre_1_1_allocated_object.html" target="_top" xlink:title="Superclass for all objects that wish to use custom memory allocators when their new / delete operator...">
<polygon fill="none" stroke="black" points="47.79,-110.5 47.79,-128.5 98.25,-128.5 98.25,-110.5 47.79,-110.5"/>
<text text-anchor="middle" x="73.02" y="-116.5" font-family="Helvetica,sans-Serif" font-size="10.00">FXAlloc</text>
</a>
</g>
</g>
<!-- Node3&#45;&gt;Node2 -->
<g id="edge2" class="edge">
<title>Node3&#45;&gt;Node2</title>
<path fill="none" stroke="midnightblue" d="M73.02,-100.17C73.02,-91.09 73.02,-80.59 73.02,-73.55"/>
<polygon fill="midnightblue" stroke="midnightblue" points="69.52,-100.22 73.02,-110.22 76.52,-100.22 69.52,-100.22"/>
</g>
</g>
</svg>
