<?xml version="1.0" encoding="UTF-8" standalone="no"?>
<!DOCTYPE svg PUBLIC "-//W3C//DTD SVG 1.1//EN"
 "http://www.w3.org/Graphics/SVG/1.1/DTD/svg11.dtd">
<!-- Generated by graphviz version 2.43.0 (0)
 -->
<!-- Title: Ogre::v1::GL3PlusTextureBuffer Pages: 1 -->
<svg width="159pt" height="267pt"
 viewBox="0.00 0.00 159.43 267.00" xmlns="http://www.w3.org/2000/svg" xmlns:xlink="http://www.w3.org/1999/xlink">
<g id="graph0" class="graph" transform="scale(1 1) rotate(0) translate(4 263)">
<title>Ogre::v1::GL3PlusTextureBuffer</title>
<!-- Node1 -->
<g id="node1" class="node">
<title>Node1</title>
<g id="a_node1"><a xlink:title="Texture surface.">
<polygon fill="#bfbfbf" stroke="black" points="10.19,-0.5 10.19,-28.5 141.24,-28.5 141.24,-0.5 10.19,-0.5"/>
<text text-anchor="start" x="18.19" y="-16.5" font-family="Helvetica,sans-Serif" font-size="10.00">Ogre::v1::GL3PlusTexture</text>
<text text-anchor="middle" x="75.72" y="-6.5" font-family="Helvetica,sans-Serif" font-size="10.00">Buffer</text>
</a>
</g>
</g>
<!-- Node2 -->
<g id="node2" class="node">
<title>Node2</title>
<g id="a_node2"><a xlink:href="class_ogre_1_1v1_1_1_g_l3_plus_hardware_pixel_buffer.html" target="_top" xlink:title=" ">
<polygon fill="none" stroke="black" points="4.91,-65.5 4.91,-93.5 146.52,-93.5 146.52,-65.5 4.91,-65.5"/>
<text text-anchor="start" x="12.91" y="-81.5" font-family="Helvetica,sans-Serif" font-size="10.00">Ogre::v1::GL3PlusHardware</text>
<text text-anchor="middle" x="75.72" y="-71.5" font-family="Helvetica,sans-Serif" font-size="10.00">PixelBuffer</text>
</a>
</g>
</g>
<!-- Node2&#45;&gt;Node1 -->
<g id="edge1" class="edge">
<title>Node2&#45;&gt;Node1</title>
<path fill="none" stroke="midnightblue" d="M75.72,-55.16C75.72,-46.17 75.72,-36.22 75.72,-28.54"/>
<polygon fill="midnightblue" stroke="midnightblue" points="72.22,-55.45 75.72,-65.45 79.22,-55.45 72.22,-55.45"/>
</g>
<!-- Node3 -->
<g id="node3" class="node">
<title>Node3</title>
<g id="a_node3"><a xlink:href="class_ogre_1_1v1_1_1_hardware_pixel_buffer.html" target="_top" xlink:title="Specialisation of HardwareBuffer for a pixel buffer.">
<polygon fill="none" stroke="black" points="0,-130.5 0,-148.5 151.43,-148.5 151.43,-130.5 0,-130.5"/>
<text text-anchor="middle" x="75.72" y="-136.5" font-family="Helvetica,sans-Serif" font-size="10.00">Ogre::v1::HardwarePixelBuffer</text>
</a>
</g>
</g>
<!-- Node3&#45;&gt;Node2 -->
<g id="edge2" class="edge">
<title>Node3&#45;&gt;Node2</title>
<path fill="none" stroke="midnightblue" d="M75.72,-120.32C75.72,-111.75 75.72,-101.7 75.72,-93.84"/>
<polygon fill="midnightblue" stroke="midnightblue" points="72.22,-120.44 75.72,-130.44 79.22,-120.44 72.22,-120.44"/>
</g>
<!-- Node4 -->
<g id="node4" class="node">
<title>Node4</title>
<g id="a_node4"><a xlink:href="class_ogre_1_1v1_1_1_hardware_buffer.html" target="_top" xlink:title="Abstract class defining common features of hardware buffers.">
<polygon fill="none" stroke="black" points="10.84,-185.5 10.84,-203.5 140.6,-203.5 140.6,-185.5 10.84,-185.5"/>
<text text-anchor="middle" x="75.72" y="-191.5" font-family="Helvetica,sans-Serif" font-size="10.00">Ogre::v1::HardwareBuffer</text>
</a>
</g>
</g>
<!-- Node4&#45;&gt;Node3 -->
<g id="edge3" class="edge">
<title>Node4&#45;&gt;Node3</title>
<path fill="none" stroke="midnightblue" d="M75.72,-175.17C75.72,-166.09 75.72,-155.59 75.72,-148.55"/>
<polygon fill="midnightblue" stroke="midnightblue" points="72.22,-175.22 75.72,-185.22 79.22,-175.22 72.22,-175.22"/>
</g>
<!-- Node5 -->
<g id="node5" class="node">
<title>Node5</title>
<g id="a_node5"><a xlink:href="class_ogre_1_1_allocated_object.html" target="_top" xlink:title="Superclass for all objects that wish to use custom memory allocators when their new / delete operator...">
<polygon fill="none" stroke="black" points="43.63,-240.5 43.63,-258.5 107.81,-258.5 107.81,-240.5 43.63,-240.5"/>
<text text-anchor="middle" x="75.72" y="-246.5" font-family="Helvetica,sans-Serif" font-size="10.00">BufferAlloc</text>
</a>
</g>
</g>
<!-- Node5&#45;&gt;Node4 -->
<g id="edge4" class="edge">
<title>Node5&#45;&gt;Node4</title>
<path fill="none" stroke="midnightblue" d="M75.72,-230.17C75.72,-221.09 75.72,-210.59 75.72,-203.55"/>
<polygon fill="midnightblue" stroke="midnightblue" points="72.22,-230.22 75.72,-240.22 79.22,-230.22 72.22,-230.22"/>
</g>
</g>
</svg>
