<?xml version="1.0" encoding="UTF-8" standalone="no"?>
<!DOCTYPE svg PUBLIC "-//W3C//DTD SVG 1.1//EN"
 "http://www.w3.org/Graphics/SVG/1.1/DTD/svg11.dtd">
<!-- Generated by graphviz version 2.43.0 (0)
 -->
<!-- Title: Ogre::ColourFaderAffector2 Pages: 1 -->
<svg width="186pt" height="137pt"
 viewBox="0.00 0.00 185.64 137.00" xmlns="http://www.w3.org/2000/svg" xmlns:xlink="http://www.w3.org/1999/xlink">
<g id="graph0" class="graph" transform="scale(1 1) rotate(0) translate(4 133)">
<title>Ogre::ColourFaderAffector2</title>
<!-- Node1 -->
<g id="node1" class="node">
<title>Node1</title>
<g id="a_node1"><a xlink:title="This plugin subclass of ParticleAffector allows you to alter the colour of particles.">
<polygon fill="#bfbfbf" stroke="black" points="33.8,-0.5 33.8,-18.5 173.02,-18.5 173.02,-0.5 33.8,-0.5"/>
<text text-anchor="middle" x="103.41" y="-6.5" font-family="Helvetica,sans-Serif" font-size="10.00">Ogre::ColourFaderAffector2</text>
</a>
</g>
</g>
<!-- Node2 -->
<g id="node2" class="node">
<title>Node2</title>
<g id="a_node2"><a xlink:href="class_ogre_1_1_particle_affector.html" target="_top" xlink:title="Abstract class defining the interface to be implemented by particle affectors.">
<polygon fill="none" stroke="black" points="47.7,-55.5 47.7,-73.5 159.12,-73.5 159.12,-55.5 47.7,-55.5"/>
<text text-anchor="middle" x="103.41" y="-61.5" font-family="Helvetica,sans-Serif" font-size="10.00">Ogre::ParticleAffector</text>
</a>
</g>
</g>
<!-- Node2&#45;&gt;Node1 -->
<g id="edge1" class="edge">
<title>Node2&#45;&gt;Node1</title>
<path fill="none" stroke="midnightblue" d="M103.41,-45.17C103.41,-36.09 103.41,-25.59 103.41,-18.55"/>
<polygon fill="midnightblue" stroke="midnightblue" points="99.91,-45.22 103.41,-55.22 106.91,-45.22 99.91,-45.22"/>
</g>
<!-- Node3 -->
<g id="node3" class="node">
<title>Node3</title>
<g id="a_node3"><a xlink:href="class_ogre_1_1_string_interface.html" target="_top" xlink:title="Class defining the common interface which classes can use to present a reflection&#45;style,...">
<polygon fill="none" stroke="black" points="0,-110.5 0,-128.5 108.82,-128.5 108.82,-110.5 0,-110.5"/>
<text text-anchor="middle" x="54.41" y="-116.5" font-family="Helvetica,sans-Serif" font-size="10.00">Ogre::StringInterface</text>
</a>
</g>
</g>
<!-- Node3&#45;&gt;Node2 -->
<g id="edge2" class="edge">
<title>Node3&#45;&gt;Node2</title>
<path fill="none" stroke="midnightblue" d="M68.91,-102.82C77.8,-93.21 88.81,-81.29 95.97,-73.55"/>
<polygon fill="midnightblue" stroke="midnightblue" points="66.29,-100.5 62.07,-110.22 71.43,-105.25 66.29,-100.5"/>
</g>
<!-- Node4 -->
<g id="node4" class="node">
<title>Node4</title>
<g id="a_node4"><a xlink:href="class_ogre_1_1_allocated_object.html" target="_top" xlink:title="Superclass for all objects that wish to use custom memory allocators when their new / delete operator...">
<polygon fill="none" stroke="black" points="127.18,-110.5 127.18,-128.5 177.64,-128.5 177.64,-110.5 127.18,-110.5"/>
<text text-anchor="middle" x="152.41" y="-116.5" font-family="Helvetica,sans-Serif" font-size="10.00">FXAlloc</text>
</a>
</g>
</g>
<!-- Node4&#45;&gt;Node2 -->
<g id="edge3" class="edge">
<title>Node4&#45;&gt;Node2</title>
<path fill="none" stroke="midnightblue" d="M137.92,-102.82C129.03,-93.21 118.01,-81.29 110.85,-73.55"/>
<polygon fill="midnightblue" stroke="midnightblue" points="135.4,-105.25 144.75,-110.22 140.54,-100.5 135.4,-105.25"/>
</g>
</g>
</svg>
