<?xml version="1.0" encoding="UTF-8" standalone="no"?>
<!DOCTYPE svg PUBLIC "-//W3C//DTD SVG 1.1//EN"
 "http://www.w3.org/Graphics/SVG/1.1/DTD/svg11.dtd">
<!-- Generated by graphviz version 2.43.0 (0)
 -->
<!-- Title: Ogre::HlmsPbsMobileDatablock Pages: 1 -->
<svg width="166pt" height="137pt"
 viewBox="0.00 0.00 165.72 137.00" xmlns="http://www.w3.org/2000/svg" xmlns:xlink="http://www.w3.org/1999/xlink">
<g id="graph0" class="graph" transform="scale(1 1) rotate(0) translate(4 133)">
<title>Ogre::HlmsPbsMobileDatablock</title>
<!-- Node1 -->
<g id="node1" class="node">
<title>Node1</title>
<g id="a_node1"><a xlink:title="Contains information needed by PBS (Physically Based Shading) for OpenGL ES 2.0.">
<polygon fill="#bfbfbf" stroke="black" points="0,-0.5 0,-18.5 157.72,-18.5 157.72,-0.5 0,-0.5"/>
<text text-anchor="middle" x="78.86" y="-6.5" font-family="Helvetica,sans-Serif" font-size="10.00">Ogre::HlmsPbsMobileDatablock</text>
</a>
</g>
</g>
<!-- Node2 -->
<g id="node2" class="node">
<title>Node2</title>
<g id="a_node2"><a xlink:href="class_ogre_1_1_hlms_datablock.html" target="_top" xlink:title="An hlms datablock contains individual information about a specific material.">
<polygon fill="none" stroke="black" points="23.34,-55.5 23.34,-73.5 134.37,-73.5 134.37,-55.5 23.34,-55.5"/>
<text text-anchor="middle" x="78.86" y="-61.5" font-family="Helvetica,sans-Serif" font-size="10.00">Ogre::HlmsDatablock</text>
</a>
</g>
</g>
<!-- Node2&#45;&gt;Node1 -->
<g id="edge1" class="edge">
<title>Node2&#45;&gt;Node1</title>
<path fill="none" stroke="midnightblue" d="M78.86,-45.17C78.86,-36.09 78.86,-25.59 78.86,-18.55"/>
<polygon fill="midnightblue" stroke="midnightblue" points="75.36,-45.22 78.86,-55.22 82.36,-45.22 75.36,-45.22"/>
</g>
<!-- Node3 -->
<g id="node3" class="node">
<title>Node3</title>
<g id="a_node3"><a xlink:href="class_ogre_1_1_allocated_object.html" target="_top" xlink:title="Superclass for all objects that wish to use custom memory allocators when their new / delete operator...">
<polygon fill="none" stroke="black" points="48.91,-110.5 48.91,-128.5 108.81,-128.5 108.81,-110.5 48.91,-110.5"/>
<text text-anchor="middle" x="78.86" y="-116.5" font-family="Helvetica,sans-Serif" font-size="10.00">PassAlloc</text>
</a>
</g>
</g>
<!-- Node3&#45;&gt;Node2 -->
<g id="edge2" class="edge">
<title>Node3&#45;&gt;Node2</title>
<path fill="none" stroke="midnightblue" d="M78.86,-100.17C78.86,-91.09 78.86,-80.59 78.86,-73.55"/>
<polygon fill="midnightblue" stroke="midnightblue" points="75.36,-100.22 78.86,-110.22 82.36,-100.22 75.36,-100.22"/>
</g>
</g>
</svg>
