<?xml version="1.0" encoding="UTF-8" standalone="no"?>
<!DOCTYPE svg PUBLIC "-//W3C//DTD SVG 1.1//EN"
 "http://www.w3.org/Graphics/SVG/1.1/DTD/svg11.dtd">
<!-- Generated by graphviz version 2.43.0 (0)
 -->
<!-- Title: Ogre::AreaEmitter Pages: 1 -->
<svg width="474pt" height="302pt"
 viewBox="0.00 0.00 474.36 302.00" xmlns="http://www.w3.org/2000/svg" xmlns:xlink="http://www.w3.org/1999/xlink">
<g id="graph0" class="graph" transform="scale(1 1) rotate(0) translate(4 298)">
<title>Ogre::AreaEmitter</title>
<!-- Node1 -->
<g id="node1" class="node">
<title>Node1</title>
<g id="a_node1"><a xlink:title="Particle emitter which emits particles randomly from points inside an area (box, sphere,...">
<polygon fill="#bfbfbf" stroke="black" points="183.05,-110.5 183.05,-128.5 279.64,-128.5 279.64,-110.5 183.05,-110.5"/>
<text text-anchor="middle" x="231.34" y="-116.5" font-family="Helvetica,sans-Serif" font-size="10.00">Ogre::AreaEmitter</text>
</a>
</g>
</g>
<!-- Node6 -->
<g id="node6" class="node">
<title>Node6</title>
<g id="a_node6"><a xlink:href="class_ogre_1_1_box_emitter.html" target="_top" xlink:title="Particle emitter which emits particles randomly from points inside a box.">
<polygon fill="none" stroke="black" points="0,-55.5 0,-73.5 92.69,-73.5 92.69,-55.5 0,-55.5"/>
<text text-anchor="middle" x="46.34" y="-61.5" font-family="Helvetica,sans-Serif" font-size="10.00">Ogre::BoxEmitter</text>
</a>
</g>
</g>
<!-- Node1&#45;&gt;Node6 -->
<g id="edge5" class="edge">
<title>Node1&#45;&gt;Node6</title>
<path fill="none" stroke="midnightblue" d="M193.3,-107.6C157.95,-97.47 106.13,-82.63 74.4,-73.54"/>
<polygon fill="midnightblue" stroke="midnightblue" points="192.67,-111.06 203.25,-110.45 194.6,-104.33 192.67,-111.06"/>
</g>
<!-- Node7 -->
<g id="node7" class="node">
<title>Node7</title>
<g id="a_node7"><a xlink:href="class_ogre_1_1_cylinder_emitter.html" target="_top" xlink:title="Particle emitter which emits particles randomly from points inside a cylinder.">
<polygon fill="none" stroke="black" points="110.28,-55.5 110.28,-73.5 222.41,-73.5 222.41,-55.5 110.28,-55.5"/>
<text text-anchor="middle" x="166.34" y="-61.5" font-family="Helvetica,sans-Serif" font-size="10.00">Ogre::CylinderEmitter</text>
</a>
</g>
</g>
<!-- Node1&#45;&gt;Node7 -->
<g id="edge6" class="edge">
<title>Node1&#45;&gt;Node7</title>
<path fill="none" stroke="midnightblue" d="M213.47,-103.93C201.5,-94.16 186.18,-81.67 176.31,-73.63"/>
<polygon fill="midnightblue" stroke="midnightblue" points="211.51,-106.84 221.47,-110.45 215.93,-101.42 211.51,-106.84"/>
</g>
<!-- Node8 -->
<g id="node8" class="node">
<title>Node8</title>
<g id="a_node8"><a xlink:href="class_ogre_1_1_ellipsoid_emitter.html" target="_top" xlink:title="Particle emitter which emits particles randomly from points inside an ellipsoid.">
<polygon fill="none" stroke="black" points="240,-55.5 240,-73.5 352.69,-73.5 352.69,-55.5 240,-55.5"/>
<text text-anchor="middle" x="296.34" y="-61.5" font-family="Helvetica,sans-Serif" font-size="10.00">Ogre::EllipsoidEmitter</text>
</a>
</g>
</g>
<!-- Node1&#45;&gt;Node8 -->
<g id="edge7" class="edge">
<title>Node1&#45;&gt;Node8</title>
<path fill="none" stroke="midnightblue" d="M249.22,-103.93C261.19,-94.16 276.51,-81.67 286.38,-73.63"/>
<polygon fill="midnightblue" stroke="midnightblue" points="246.76,-101.42 241.22,-110.45 251.18,-106.84 246.76,-101.42"/>
</g>
<!-- Node10 -->
<g id="node10" class="node">
<title>Node10</title>
<g id="a_node10"><a xlink:href="class_ogre_1_1_ring_emitter.html" target="_top" xlink:title="Particle emitter which emits particles randomly from points inside a ring (e.g.">
<polygon fill="none" stroke="black" points="370.33,-55.5 370.33,-73.5 466.36,-73.5 466.36,-55.5 370.33,-55.5"/>
<text text-anchor="middle" x="418.34" y="-61.5" font-family="Helvetica,sans-Serif" font-size="10.00">Ogre::RingEmitter</text>
</a>
</g>
</g>
<!-- Node1&#45;&gt;Node10 -->
<g id="edge9" class="edge">
<title>Node1&#45;&gt;Node10</title>
<path fill="none" stroke="midnightblue" d="M269.8,-107.6C305.54,-97.47 357.92,-82.63 389.98,-73.54"/>
<polygon fill="midnightblue" stroke="midnightblue" points="268.41,-104.36 259.75,-110.45 270.32,-111.09 268.41,-104.36"/>
</g>
<!-- Node2 -->
<g id="node2" class="node">
<title>Node2</title>
<g id="a_node2"><a xlink:href="class_ogre_1_1_particle_emitter.html" target="_top" xlink:title="Abstract class defining the interface to be implemented by particle emitters.">
<polygon fill="none" stroke="black" points="176.94,-165.5 176.94,-183.5 285.75,-183.5 285.75,-165.5 176.94,-165.5"/>
<text text-anchor="middle" x="231.34" y="-171.5" font-family="Helvetica,sans-Serif" font-size="10.00">Ogre::ParticleEmitter</text>
</a>
</g>
</g>
<!-- Node2&#45;&gt;Node1 -->
<g id="edge1" class="edge">
<title>Node2&#45;&gt;Node1</title>
<path fill="none" stroke="midnightblue" d="M231.34,-155.17C231.34,-146.09 231.34,-135.59 231.34,-128.55"/>
<polygon fill="midnightblue" stroke="midnightblue" points="227.84,-155.22 231.34,-165.22 234.84,-155.22 227.84,-155.22"/>
</g>
<!-- Node3 -->
<g id="node3" class="node">
<title>Node3</title>
<g id="a_node3"><a xlink:href="class_ogre_1_1_string_interface.html" target="_top" xlink:title="Class defining the common interface which classes can use to present a reflection&#45;style,...">
<polygon fill="none" stroke="black" points="121.93,-220.5 121.93,-238.5 230.76,-238.5 230.76,-220.5 121.93,-220.5"/>
<text text-anchor="middle" x="176.34" y="-226.5" font-family="Helvetica,sans-Serif" font-size="10.00">Ogre::StringInterface</text>
</a>
</g>
</g>
<!-- Node3&#45;&gt;Node2 -->
<g id="edge2" class="edge">
<title>Node3&#45;&gt;Node2</title>
<path fill="none" stroke="midnightblue" d="M192.32,-213.11C202.35,-203.44 214.88,-191.37 222.99,-183.55"/>
<polygon fill="midnightblue" stroke="midnightblue" points="189.71,-210.76 184.94,-220.22 194.57,-215.8 189.71,-210.76"/>
</g>
<!-- Node4 -->
<g id="node4" class="node">
<title>Node4</title>
<g id="a_node4"><a xlink:href="class_ogre_1_1_particle.html" target="_top" xlink:title="Class representing a single particle instance.">
<polygon fill="none" stroke="black" points="248.78,-220.5 248.78,-238.5 325.91,-238.5 325.91,-220.5 248.78,-220.5"/>
<text text-anchor="middle" x="287.34" y="-226.5" font-family="Helvetica,sans-Serif" font-size="10.00">Ogre::Particle</text>
</a>
</g>
</g>
<!-- Node4&#45;&gt;Node2 -->
<g id="edge3" class="edge">
<title>Node4&#45;&gt;Node2</title>
<path fill="none" stroke="midnightblue" d="M271.08,-213.11C260.87,-203.44 248.11,-191.37 239.85,-183.55"/>
<polygon fill="midnightblue" stroke="midnightblue" points="268.93,-215.89 278.59,-220.22 273.74,-210.8 268.93,-215.89"/>
</g>
<!-- Node5 -->
<g id="node5" class="node">
<title>Node5</title>
<g id="a_node5"><a xlink:href="class_ogre_1_1_allocated_object.html" target="_top" xlink:title="Superclass for all objects that wish to use custom memory allocators when their new / delete operator...">
<polygon fill="none" stroke="black" points="262.12,-275.5 262.12,-293.5 312.57,-293.5 312.57,-275.5 262.12,-275.5"/>
<text text-anchor="middle" x="287.34" y="-281.5" font-family="Helvetica,sans-Serif" font-size="10.00">FXAlloc</text>
</a>
</g>
</g>
<!-- Node5&#45;&gt;Node4 -->
<g id="edge4" class="edge">
<title>Node5&#45;&gt;Node4</title>
<path fill="none" stroke="midnightblue" d="M287.34,-265.17C287.34,-256.09 287.34,-245.59 287.34,-238.55"/>
<polygon fill="midnightblue" stroke="midnightblue" points="283.84,-265.22 287.34,-275.22 290.84,-265.22 283.84,-265.22"/>
</g>
<!-- Node9 -->
<g id="node9" class="node">
<title>Node9</title>
<g id="a_node9"><a xlink:href="class_ogre_1_1_hollow_ellipsoid_emitter.html" target="_top" xlink:title="Particle emitter which emits particles randomly from points inside a hollow ellipsoid.">
<polygon fill="none" stroke="black" points="224.99,-0.5 224.99,-18.5 367.7,-18.5 367.7,-0.5 224.99,-0.5"/>
<text text-anchor="middle" x="296.34" y="-6.5" font-family="Helvetica,sans-Serif" font-size="10.00">Ogre::HollowEllipsoidEmitter</text>
</a>
</g>
</g>
<!-- Node8&#45;&gt;Node9 -->
<g id="edge8" class="edge">
<title>Node8&#45;&gt;Node9</title>
<path fill="none" stroke="midnightblue" d="M296.34,-45.17C296.34,-36.09 296.34,-25.59 296.34,-18.55"/>
<polygon fill="midnightblue" stroke="midnightblue" points="292.84,-45.22 296.34,-55.22 299.84,-45.22 292.84,-45.22"/>
</g>
</g>
</svg>
