<?xml version="1.0" encoding="UTF-8" standalone="no"?>
<!DOCTYPE svg PUBLIC "-//W3C//DTD SVG 1.1//EN"
 "http://www.w3.org/Graphics/SVG/1.1/DTD/svg11.dtd">
<!-- Generated by graphviz version 2.43.0 (0)
 -->
<!-- Title: Ogre::StagingTextureBufferImpl Pages: 1 -->
<svg width="464pt" height="192pt"
 viewBox="0.00 0.00 464.46 192.00" xmlns="http://www.w3.org/2000/svg" xmlns:xlink="http://www.w3.org/1999/xlink">
<g id="graph0" class="graph" transform="scale(1 1) rotate(0) translate(4 188)">
<title>Ogre::StagingTextureBufferImpl</title>
<!-- Node1 -->
<g id="node1" class="node">
<title>Node1</title>
<g id="a_node1"><a xlink:title="This implementation can be used by all RenderSystem APIs except D3D11, which is why this implementati...">
<polygon fill="#bfbfbf" stroke="black" points="156.48,-55.5 156.48,-73.5 312.37,-73.5 312.37,-55.5 156.48,-55.5"/>
<text text-anchor="middle" x="234.43" y="-61.5" font-family="Helvetica,sans-Serif" font-size="10.00">Ogre::StagingTextureBufferImpl</text>
</a>
</g>
</g>
<!-- Node4 -->
<g id="node4" class="node">
<title>Node4</title>
<g id="a_node4"><a xlink:href="class_ogre_1_1_g_l3_plus_staging_texture.html" target="_top" xlink:title=" ">
<polygon fill="none" stroke="black" points="0,-0.5 0,-18.5 148.85,-18.5 148.85,-0.5 0,-0.5"/>
<text text-anchor="middle" x="74.43" y="-6.5" font-family="Helvetica,sans-Serif" font-size="10.00">Ogre::GL3PlusStagingTexture</text>
</a>
</g>
</g>
<!-- Node1&#45;&gt;Node4 -->
<g id="edge3" class="edge">
<title>Node1&#45;&gt;Node4</title>
<path fill="none" stroke="midnightblue" d="M200.33,-52.21C169.8,-42.09 125.78,-27.51 98.69,-18.54"/>
<polygon fill="midnightblue" stroke="midnightblue" points="199.53,-55.63 210.13,-55.45 201.73,-48.98 199.53,-55.63"/>
</g>
<!-- Node5 -->
<g id="node5" class="node">
<title>Node5</title>
<g id="a_node5"><a xlink:href="class_ogre_1_1_metal_staging_texture.html" target="_top" xlink:title=" ">
<polygon fill="none" stroke="black" points="166.95,-0.5 166.95,-18.5 301.9,-18.5 301.9,-0.5 166.95,-0.5"/>
<text text-anchor="middle" x="234.43" y="-6.5" font-family="Helvetica,sans-Serif" font-size="10.00">Ogre::MetalStagingTexture</text>
</a>
</g>
</g>
<!-- Node1&#45;&gt;Node5 -->
<g id="edge4" class="edge">
<title>Node1&#45;&gt;Node5</title>
<path fill="none" stroke="midnightblue" d="M234.43,-45.17C234.43,-36.09 234.43,-25.59 234.43,-18.55"/>
<polygon fill="midnightblue" stroke="midnightblue" points="230.93,-45.22 234.43,-55.22 237.93,-45.22 230.93,-45.22"/>
</g>
<!-- Node6 -->
<g id="node6" class="node">
<title>Node6</title>
<g id="a_node6"><a xlink:href="class_ogre_1_1_n_u_l_l_staging_texture.html" target="_top" xlink:title=" ">
<polygon fill="none" stroke="black" points="320.39,-0.5 320.39,-18.5 456.46,-18.5 456.46,-0.5 320.39,-0.5"/>
<text text-anchor="middle" x="388.43" y="-6.5" font-family="Helvetica,sans-Serif" font-size="10.00">Ogre::NULLStagingTexture</text>
</a>
</g>
</g>
<!-- Node1&#45;&gt;Node6 -->
<g id="edge5" class="edge">
<title>Node1&#45;&gt;Node6</title>
<path fill="none" stroke="midnightblue" d="M267.63,-52.07C297,-41.96 339.12,-27.47 365.07,-18.54"/>
<polygon fill="midnightblue" stroke="midnightblue" points="266.13,-48.89 257.82,-55.45 268.41,-55.51 266.13,-48.89"/>
</g>
<!-- Node2 -->
<g id="node2" class="node">
<title>Node2</title>
<g id="a_node2"><a xlink:href="class_ogre_1_1_staging_texture.html" target="_top" xlink:title="A StagingTexture is an intermediate texture that can be read and be written from both CPU &amp; GPU.">
<polygon fill="none" stroke="black" points="179.18,-110.5 179.18,-128.5 289.67,-128.5 289.67,-110.5 179.18,-110.5"/>
<text text-anchor="middle" x="234.43" y="-116.5" font-family="Helvetica,sans-Serif" font-size="10.00">Ogre::StagingTexture</text>
</a>
</g>
</g>
<!-- Node2&#45;&gt;Node1 -->
<g id="edge1" class="edge">
<title>Node2&#45;&gt;Node1</title>
<path fill="none" stroke="midnightblue" d="M234.43,-100.17C234.43,-91.09 234.43,-80.59 234.43,-73.55"/>
<polygon fill="midnightblue" stroke="midnightblue" points="230.93,-100.22 234.43,-110.22 237.93,-100.22 230.93,-100.22"/>
</g>
<!-- Node3 -->
<g id="node3" class="node">
<title>Node3</title>
<g id="a_node3"><a xlink:href="class_ogre_1_1_allocated_object.html" target="_top" xlink:title="Superclass for all objects that wish to use custom memory allocators when their new / delete operator...">
<polygon fill="none" stroke="black" points="190.85,-165.5 190.85,-183.5 278,-183.5 278,-165.5 190.85,-165.5"/>
<text text-anchor="middle" x="234.43" y="-171.5" font-family="Helvetica,sans-Serif" font-size="10.00">RenderSysAlloc</text>
</a>
</g>
</g>
<!-- Node3&#45;&gt;Node2 -->
<g id="edge2" class="edge">
<title>Node3&#45;&gt;Node2</title>
<path fill="none" stroke="midnightblue" d="M234.43,-155.17C234.43,-146.09 234.43,-135.59 234.43,-128.55"/>
<polygon fill="midnightblue" stroke="midnightblue" points="230.93,-155.22 234.43,-165.22 237.93,-155.22 230.93,-155.22"/>
</g>
</g>
</svg>
