<?xml version="1.0" encoding="UTF-8" standalone="no"?>
<!DOCTYPE svg PUBLIC "-//W3C//DTD SVG 1.1//EN"
 "http://www.w3.org/Graphics/SVG/1.1/DTD/svg11.dtd">
<!-- Generated by graphviz version 2.43.0 (0)
 -->
<!-- Title: Ogre::Win32EGLSupport Pages: 1 -->
<svg width="135pt" height="137pt"
 viewBox="0.00 0.00 135.17 137.00" xmlns="http://www.w3.org/2000/svg" xmlns:xlink="http://www.w3.org/1999/xlink">
<g id="graph0" class="graph" transform="scale(1 1) rotate(0) translate(4 133)">
<title>Ogre::Win32EGLSupport</title>
<!-- Node1 -->
<g id="node1" class="node">
<title>Node1</title>
<g id="a_node1"><a xlink:title=" ">
<polygon fill="#bfbfbf" stroke="black" points="0,-0.5 0,-18.5 127.17,-18.5 127.17,-0.5 0,-0.5"/>
<text text-anchor="middle" x="63.58" y="-6.5" font-family="Helvetica,sans-Serif" font-size="10.00">Ogre::Win32EGLSupport</text>
</a>
</g>
</g>
<!-- Node2 -->
<g id="node2" class="node">
<title>Node2</title>
<g id="a_node2"><a xlink:href="class_ogre_1_1_e_g_l_support.html" target="_top" xlink:title=" ">
<polygon fill="none" stroke="black" points="14.17,-55.5 14.17,-73.5 112.99,-73.5 112.99,-55.5 14.17,-55.5"/>
<text text-anchor="middle" x="63.58" y="-61.5" font-family="Helvetica,sans-Serif" font-size="10.00">Ogre::EGLSupport</text>
</a>
</g>
</g>
<!-- Node2&#45;&gt;Node1 -->
<g id="edge1" class="edge">
<title>Node2&#45;&gt;Node1</title>
<path fill="none" stroke="midnightblue" d="M63.58,-45.17C63.58,-36.09 63.58,-25.59 63.58,-18.55"/>
<polygon fill="midnightblue" stroke="midnightblue" points="60.08,-45.22 63.58,-55.22 67.08,-45.22 60.08,-45.22"/>
</g>
<!-- Node3 -->
<g id="node3" class="node">
<title>Node3</title>
<g id="a_node3"><a xlink:href="class_ogre_1_1_g_l_e_s2_support.html" target="_top" xlink:title=" ">
<polygon fill="none" stroke="black" points="8.06,-110.5 8.06,-128.5 119.11,-128.5 119.11,-110.5 8.06,-110.5"/>
<text text-anchor="middle" x="63.58" y="-116.5" font-family="Helvetica,sans-Serif" font-size="10.00">Ogre::GLES2Support</text>
</a>
</g>
</g>
<!-- Node3&#45;&gt;Node2 -->
<g id="edge2" class="edge">
<title>Node3&#45;&gt;Node2</title>
<path fill="none" stroke="midnightblue" d="M63.58,-100.17C63.58,-91.09 63.58,-80.59 63.58,-73.55"/>
<polygon fill="midnightblue" stroke="midnightblue" points="60.08,-100.22 63.58,-110.22 67.08,-100.22 60.08,-100.22"/>
</g>
</g>
</svg>
