<?xml version="1.0" encoding="UTF-8" standalone="no"?>
<!DOCTYPE svg PUBLIC "-//W3C//DTD SVG 1.1//EN"
 "http://www.w3.org/Graphics/SVG/1.1/DTD/svg11.dtd">
<!-- Generated by graphviz version 2.43.0 (0)
 -->
<!-- Title: Ogre::v1::TransformKeyFrame Pages: 1 -->
<svg width="159pt" height="137pt"
 viewBox="0.00 0.00 159.22 137.00" xmlns="http://www.w3.org/2000/svg" xmlns:xlink="http://www.w3.org/1999/xlink">
<g id="graph0" class="graph" transform="scale(1 1) rotate(0) translate(4 133)">
<title>Ogre::v1::TransformKeyFrame</title>
<!-- Node1 -->
<g id="node1" class="node">
<title>Node1</title>
<g id="a_node1"><a xlink:title="Specialised KeyFrame which stores a full transform.">
<polygon fill="#bfbfbf" stroke="black" points="0,-0.5 0,-18.5 151.22,-18.5 151.22,-0.5 0,-0.5"/>
<text text-anchor="middle" x="75.61" y="-6.5" font-family="Helvetica,sans-Serif" font-size="10.00">Ogre::v1::TransformKeyFrame</text>
</a>
</g>
</g>
<!-- Node2 -->
<g id="node2" class="node">
<title>Node2</title>
<g id="a_node2"><a xlink:href="class_ogre_1_1v1_1_1_key_frame.html" target="_top" xlink:title="A key frame in an animation sequence defined by an AnimationTrack.">
<polygon fill="none" stroke="black" points="22.6,-55.5 22.6,-73.5 128.63,-73.5 128.63,-55.5 22.6,-55.5"/>
<text text-anchor="middle" x="75.61" y="-61.5" font-family="Helvetica,sans-Serif" font-size="10.00">Ogre::v1::KeyFrame</text>
</a>
</g>
</g>
<!-- Node2&#45;&gt;Node1 -->
<g id="edge1" class="edge">
<title>Node2&#45;&gt;Node1</title>
<path fill="none" stroke="midnightblue" d="M75.61,-45.17C75.61,-36.09 75.61,-25.59 75.61,-18.55"/>
<polygon fill="midnightblue" stroke="midnightblue" points="72.11,-45.22 75.61,-55.22 79.11,-45.22 72.11,-45.22"/>
</g>
<!-- Node3 -->
<g id="node3" class="node">
<title>Node3</title>
<g id="a_node3"><a xlink:href="class_ogre_1_1_allocated_object.html" target="_top" xlink:title="Superclass for all objects that wish to use custom memory allocators when their new / delete operator...">
<polygon fill="none" stroke="black" points="34.54,-110.5 34.54,-128.5 116.68,-128.5 116.68,-110.5 34.54,-110.5"/>
<text text-anchor="middle" x="75.61" y="-116.5" font-family="Helvetica,sans-Serif" font-size="10.00">AnimationAlloc</text>
</a>
</g>
</g>
<!-- Node3&#45;&gt;Node2 -->
<g id="edge2" class="edge">
<title>Node3&#45;&gt;Node2</title>
<path fill="none" stroke="midnightblue" d="M75.61,-100.17C75.61,-91.09 75.61,-80.59 75.61,-73.55"/>
<polygon fill="midnightblue" stroke="midnightblue" points="72.11,-100.22 75.61,-110.22 79.11,-100.22 72.11,-100.22"/>
</g>
</g>
</svg>
