<?xml version="1.0" encoding="UTF-8" standalone="no"?>
<!DOCTYPE svg PUBLIC "-//W3C//DTD SVG 1.1//EN"
 "http://www.w3.org/Graphics/SVG/1.1/DTD/svg11.dtd">
<!-- Generated by graphviz version 2.43.0 (0)
 -->
<!-- Title: Ogre::LodInputProvider Pages: 1 -->
<svg width="316pt" height="82pt"
 viewBox="0.00 0.00 316.43 82.00" xmlns="http://www.w3.org/2000/svg" xmlns:xlink="http://www.w3.org/1999/xlink">
<g id="graph0" class="graph" transform="scale(1 1) rotate(0) translate(4 78)">
<title>Ogre::LodInputProvider</title>
<!-- Node1 -->
<g id="node1" class="node">
<title>Node1</title>
<g id="a_node1"><a xlink:title=" ">
<polygon fill="#bfbfbf" stroke="black" points="94.25,-55.5 94.25,-73.5 214.2,-73.5 214.2,-55.5 94.25,-55.5"/>
<text text-anchor="middle" x="154.23" y="-61.5" font-family="Helvetica,sans-Serif" font-size="10.00">Ogre::LodInputProvider</text>
</a>
</g>
</g>
<!-- Node2 -->
<g id="node2" class="node">
<title>Node2</title>
<g id="a_node2"><a xlink:href="class_ogre_1_1_lod_input_provider_buffer.html" target="_top" xlink:title=" ">
<polygon fill="none" stroke="black" points="0,-0.5 0,-18.5 146.45,-18.5 146.45,-0.5 0,-0.5"/>
<text text-anchor="middle" x="73.23" y="-6.5" font-family="Helvetica,sans-Serif" font-size="10.00">Ogre::LodInputProviderBuffer</text>
</a>
</g>
</g>
<!-- Node1&#45;&gt;Node2 -->
<g id="edge1" class="edge">
<title>Node1&#45;&gt;Node2</title>
<path fill="none" stroke="midnightblue" d="M133.25,-49.77C118.15,-39.89 98.3,-26.9 85.64,-18.63"/>
<polygon fill="midnightblue" stroke="midnightblue" points="131.64,-52.9 141.92,-55.45 135.47,-47.05 131.64,-52.9"/>
</g>
<!-- Node3 -->
<g id="node3" class="node">
<title>Node3</title>
<g id="a_node3"><a xlink:href="class_ogre_1_1_lod_input_provider_mesh.html" target="_top" xlink:title=" ">
<polygon fill="none" stroke="black" points="164.03,-0.5 164.03,-18.5 308.43,-18.5 308.43,-0.5 164.03,-0.5"/>
<text text-anchor="middle" x="236.23" y="-6.5" font-family="Helvetica,sans-Serif" font-size="10.00">Ogre::LodInputProviderMesh</text>
</a>
</g>
</g>
<!-- Node1&#45;&gt;Node3 -->
<g id="edge2" class="edge">
<title>Node1&#45;&gt;Node3</title>
<path fill="none" stroke="midnightblue" d="M175.47,-49.77C190.75,-39.89 210.85,-26.9 223.66,-18.63"/>
<polygon fill="midnightblue" stroke="midnightblue" points="173.18,-47.08 166.68,-55.45 176.98,-52.96 173.18,-47.08"/>
</g>
</g>
</svg>
