<?xml version="1.0" encoding="UTF-8" standalone="no"?>
<!DOCTYPE svg PUBLIC "-//W3C//DTD SVG 1.1//EN"
 "http://www.w3.org/Graphics/SVG/1.1/DTD/svg11.dtd">
<!-- Generated by graphviz version 2.43.0 (0)
 -->
<!-- Title: Ogre::v1::NumericKeyFrame Pages: 1 -->
<svg width="151pt" height="137pt"
 viewBox="0.00 0.00 151.26 137.00" xmlns="http://www.w3.org/2000/svg" xmlns:xlink="http://www.w3.org/1999/xlink">
<g id="graph0" class="graph" transform="scale(1 1) rotate(0) translate(4 133)">
<title>Ogre::v1::NumericKeyFrame</title>
<!-- Node1 -->
<g id="node1" class="node">
<title>Node1</title>
<g id="a_node1"><a xlink:title="Specialised KeyFrame which stores any numeric value.">
<polygon fill="#bfbfbf" stroke="black" points="0,-0.5 0,-18.5 143.26,-18.5 143.26,-0.5 0,-0.5"/>
<text text-anchor="middle" x="71.63" y="-6.5" font-family="Helvetica,sans-Serif" font-size="10.00">Ogre::v1::NumericKeyFrame</text>
</a>
</g>
</g>
<!-- Node2 -->
<g id="node2" class="node">
<title>Node2</title>
<g id="a_node2"><a xlink:href="class_ogre_1_1v1_1_1_key_frame.html" target="_top" xlink:title="A key frame in an animation sequence defined by an AnimationTrack.">
<polygon fill="none" stroke="black" points="18.61,-55.5 18.61,-73.5 124.64,-73.5 124.64,-55.5 18.61,-55.5"/>
<text text-anchor="middle" x="71.63" y="-61.5" font-family="Helvetica,sans-Serif" font-size="10.00">Ogre::v1::KeyFrame</text>
</a>
</g>
</g>
<!-- Node2&#45;&gt;Node1 -->
<g id="edge1" class="edge">
<title>Node2&#45;&gt;Node1</title>
<path fill="none" stroke="midnightblue" d="M71.63,-45.17C71.63,-36.09 71.63,-25.59 71.63,-18.55"/>
<polygon fill="midnightblue" stroke="midnightblue" points="68.13,-45.22 71.63,-55.22 75.13,-45.22 68.13,-45.22"/>
</g>
<!-- Node3 -->
<g id="node3" class="node">
<title>Node3</title>
<g id="a_node3"><a xlink:href="class_ogre_1_1_allocated_object.html" target="_top" xlink:title="Superclass for all objects that wish to use custom memory allocators when their new / delete operator...">
<polygon fill="none" stroke="black" points="30.56,-110.5 30.56,-128.5 112.7,-128.5 112.7,-110.5 30.56,-110.5"/>
<text text-anchor="middle" x="71.63" y="-116.5" font-family="Helvetica,sans-Serif" font-size="10.00">AnimationAlloc</text>
</a>
</g>
</g>
<!-- Node3&#45;&gt;Node2 -->
<g id="edge2" class="edge">
<title>Node3&#45;&gt;Node2</title>
<path fill="none" stroke="midnightblue" d="M71.63,-100.17C71.63,-91.09 71.63,-80.59 71.63,-73.55"/>
<polygon fill="midnightblue" stroke="midnightblue" points="68.13,-100.22 71.63,-110.22 75.13,-100.22 68.13,-100.22"/>
</g>
</g>
</svg>
