<?xml version="1.0" encoding="UTF-8" standalone="no"?>
<!DOCTYPE svg PUBLIC "-//W3C//DTD SVG 1.1//EN"
 "http://www.w3.org/Graphics/SVG/1.1/DTD/svg11.dtd">
<!-- Generated by graphviz version 2.43.0 (0)
 -->
<!-- Title: Ogre::v1::OverlayElementFactory Pages: 1 -->
<svg width="440pt" height="131pt"
 viewBox="0.00 0.00 439.79 131.00" xmlns="http://www.w3.org/2000/svg" xmlns:xlink="http://www.w3.org/1999/xlink">
<g id="graph0" class="graph" transform="scale(1 1) rotate(0) translate(4 127)">
<title>Ogre::v1::OverlayElementFactory</title>
<!-- Node1 -->
<g id="node1" class="node">
<title>Node1</title>
<g id="a_node1"><a xlink:title="Defines the interface which all components wishing to supply OverlayElement subclasses must implement...">
<polygon fill="#bfbfbf" stroke="black" points="108.13,-47.5 108.13,-75.5 239.17,-75.5 239.17,-47.5 108.13,-47.5"/>
<text text-anchor="start" x="116.13" y="-63.5" font-family="Helvetica,sans-Serif" font-size="10.00">Ogre::v1::OverlayElement</text>
<text text-anchor="middle" x="173.65" y="-53.5" font-family="Helvetica,sans-Serif" font-size="10.00">Factory</text>
</a>
</g>
</g>
<!-- Node3 -->
<g id="node3" class="node">
<title>Node3</title>
<g id="a_node3"><a xlink:href="class_ogre_1_1v1_1_1_border_panel_overlay_element_factory.html" target="_top" xlink:title="Factory for creating BorderPanelOverlayElement instances.">
<polygon fill="none" stroke="black" points="278.51,-94.5 278.51,-122.5 428.46,-122.5 428.46,-94.5 278.51,-94.5"/>
<text text-anchor="start" x="286.51" y="-110.5" font-family="Helvetica,sans-Serif" font-size="10.00">Ogre::v1::BorderPanelOverlay</text>
<text text-anchor="middle" x="353.48" y="-100.5" font-family="Helvetica,sans-Serif" font-size="10.00">ElementFactory</text>
</a>
</g>
</g>
<!-- Node1&#45;&gt;Node3 -->
<g id="edge2" class="edge">
<title>Node1&#45;&gt;Node3</title>
<path fill="none" stroke="midnightblue" d="M237.74,-78.17C257.93,-83.51 280.07,-89.36 299.47,-94.49"/>
<polygon fill="midnightblue" stroke="midnightblue" points="238.57,-74.77 228.01,-75.6 236.78,-81.54 238.57,-74.77"/>
</g>
<!-- Node4 -->
<g id="node4" class="node">
<title>Node4</title>
<g id="a_node4"><a xlink:href="class_ogre_1_1v1_1_1_panel_overlay_element_factory.html" target="_top" xlink:title="Factory for creating PanelOverlayElement instances.">
<polygon fill="none" stroke="black" points="275.17,-47.5 275.17,-75.5 431.79,-75.5 431.79,-47.5 275.17,-47.5"/>
<text text-anchor="start" x="283.17" y="-63.5" font-family="Helvetica,sans-Serif" font-size="10.00">Ogre::v1::PanelOverlayElement</text>
<text text-anchor="middle" x="353.48" y="-53.5" font-family="Helvetica,sans-Serif" font-size="10.00">Factory</text>
</a>
</g>
</g>
<!-- Node1&#45;&gt;Node4 -->
<g id="edge3" class="edge">
<title>Node1&#45;&gt;Node4</title>
<path fill="none" stroke="midnightblue" d="M249.56,-61.5C258.01,-61.5 266.64,-61.5 275.12,-61.5"/>
<polygon fill="midnightblue" stroke="midnightblue" points="249.35,-58 239.35,-61.5 249.35,-65 249.35,-58"/>
</g>
<!-- Node5 -->
<g id="node5" class="node">
<title>Node5</title>
<g id="a_node5"><a xlink:href="class_ogre_1_1v1_1_1_text_area_overlay_element_factory.html" target="_top" xlink:title="Factory for creating TextAreaOverlayElement instances.">
<polygon fill="none" stroke="black" points="286.57,-0.5 286.57,-28.5 420.39,-28.5 420.39,-0.5 286.57,-0.5"/>
<text text-anchor="start" x="294.57" y="-16.5" font-family="Helvetica,sans-Serif" font-size="10.00">Ogre::v1::TextAreaOverlay</text>
<text text-anchor="middle" x="353.48" y="-6.5" font-family="Helvetica,sans-Serif" font-size="10.00">ElementFactory</text>
</a>
</g>
</g>
<!-- Node1&#45;&gt;Node5 -->
<g id="edge4" class="edge">
<title>Node1&#45;&gt;Node5</title>
<path fill="none" stroke="midnightblue" d="M237.74,-44.83C257.93,-39.49 280.07,-33.64 299.47,-28.51"/>
<polygon fill="midnightblue" stroke="midnightblue" points="236.78,-41.46 228.01,-47.4 238.57,-48.23 236.78,-41.46"/>
</g>
<!-- Node2 -->
<g id="node2" class="node">
<title>Node2</title>
<g id="a_node2"><a xlink:href="class_ogre_1_1_allocated_object.html" target="_top" xlink:title="Superclass for all objects that wish to use custom memory allocators when their new / delete operator...">
<polygon fill="none" stroke="black" points="0,-52.5 0,-70.5 72.13,-70.5 72.13,-52.5 0,-52.5"/>
<text text-anchor="middle" x="36.06" y="-58.5" font-family="Helvetica,sans-Serif" font-size="10.00">OverlayAlloc</text>
</a>
</g>
</g>
<!-- Node2&#45;&gt;Node1 -->
<g id="edge1" class="edge">
<title>Node2&#45;&gt;Node1</title>
<path fill="none" stroke="midnightblue" d="M82.39,-61.5C90.58,-61.5 99.25,-61.5 107.87,-61.5"/>
<polygon fill="midnightblue" stroke="midnightblue" points="82.33,-58 72.33,-61.5 82.33,-65 82.33,-58"/>
</g>
</g>
</svg>
