<?xml version="1.0" encoding="UTF-8" standalone="no"?>
<!DOCTYPE svg PUBLIC "-//W3C//DTD SVG 1.1//EN"
 "http://www.w3.org/Graphics/SVG/1.1/DTD/svg11.dtd">
<!-- Generated by graphviz version 2.43.0 (0)
 -->
<!-- Title: Ogre::Grid3DPageStrategy Pages: 1 -->
<svg width="144pt" height="137pt"
 viewBox="0.00 0.00 144.06 137.00" xmlns="http://www.w3.org/2000/svg" xmlns:xlink="http://www.w3.org/1999/xlink">
<g id="graph0" class="graph" transform="scale(1 1) rotate(0) translate(4 133)">
<title>Ogre::Grid3DPageStrategy</title>
<!-- Node1 -->
<g id="node1" class="node">
<title>Node1</title>
<g id="a_node1"><a xlink:title="Page strategy which loads new pages based on a regular 3D grid.">
<polygon fill="#bfbfbf" stroke="black" points="0,-0.5 0,-18.5 136.06,-18.5 136.06,-0.5 0,-0.5"/>
<text text-anchor="middle" x="68.03" y="-6.5" font-family="Helvetica,sans-Serif" font-size="10.00">Ogre::Grid3DPageStrategy</text>
</a>
</g>
</g>
<!-- Node2 -->
<g id="node2" class="node">
<title>Node2</title>
<g id="a_node2"><a xlink:href="class_ogre_1_1_page_strategy.html" target="_top" xlink:title="Defines the interface to a strategy class which is responsible for deciding when Page instances are r...">
<polygon fill="none" stroke="black" points="15.84,-55.5 15.84,-73.5 120.22,-73.5 120.22,-55.5 15.84,-55.5"/>
<text text-anchor="middle" x="68.03" y="-61.5" font-family="Helvetica,sans-Serif" font-size="10.00">Ogre::PageStrategy</text>
</a>
</g>
</g>
<!-- Node2&#45;&gt;Node1 -->
<g id="edge1" class="edge">
<title>Node2&#45;&gt;Node1</title>
<path fill="none" stroke="midnightblue" d="M68.03,-45.17C68.03,-36.09 68.03,-25.59 68.03,-18.55"/>
<polygon fill="midnightblue" stroke="midnightblue" points="64.53,-45.22 68.03,-55.22 71.53,-45.22 64.53,-45.22"/>
</g>
<!-- Node3 -->
<g id="node3" class="node">
<title>Node3</title>
<g id="a_node3"><a xlink:href="class_ogre_1_1_allocated_object.html" target="_top" xlink:title="Superclass for all objects that wish to use custom memory allocators when their new / delete operator...">
<polygon fill="none" stroke="black" points="37.51,-110.5 37.51,-128.5 98.54,-128.5 98.54,-110.5 37.51,-110.5"/>
<text text-anchor="middle" x="68.03" y="-116.5" font-family="Helvetica,sans-Serif" font-size="10.00">PageAlloc</text>
</a>
</g>
</g>
<!-- Node3&#45;&gt;Node2 -->
<g id="edge2" class="edge">
<title>Node3&#45;&gt;Node2</title>
<path fill="none" stroke="midnightblue" d="M68.03,-100.17C68.03,-91.09 68.03,-80.59 68.03,-73.55"/>
<polygon fill="midnightblue" stroke="midnightblue" points="64.53,-100.22 68.03,-110.22 71.53,-100.22 64.53,-100.22"/>
</g>
</g>
</svg>
