<?xml version="1.0" encoding="UTF-8" standalone="no"?>
<!DOCTYPE svg PUBLIC "-//W3C//DTD SVG 1.1//EN"
 "http://www.w3.org/Graphics/SVG/1.1/DTD/svg11.dtd">
<!-- Generated by graphviz version 2.43.0 (0)
 -->
<!-- Title: Ogre::Profiler Pages: 1 -->
<svg width="230pt" height="82pt"
 viewBox="0.00 0.00 229.87 82.00" xmlns="http://www.w3.org/2000/svg" xmlns:xlink="http://www.w3.org/1999/xlink">
<g id="graph0" class="graph" transform="scale(1 1) rotate(0) translate(4 78)">
<title>Ogre::Profiler</title>
<!-- Node1 -->
<g id="node1" class="node">
<title>Node1</title>
<g id="a_node1"><a xlink:title="The profiler allows you to measure the performance of your code.">
<polygon fill="#bfbfbf" stroke="black" points="89.47,-0.5 89.47,-18.5 164.93,-18.5 164.93,-0.5 89.47,-0.5"/>
<text text-anchor="middle" x="127.2" y="-6.5" font-family="Helvetica,sans-Serif" font-size="10.00">Ogre::Profiler</text>
</a>
</g>
</g>
<!-- Node2 -->
<g id="node2" class="node">
<title>Node2</title>
<g id="a_node2"><a xlink:href="class_ogre_1_1_singleton.html" target="_top" xlink:title=" ">
<polygon fill="none" stroke="black" points="0,-55.5 0,-73.5 134.4,-73.5 134.4,-55.5 0,-55.5"/>
<text text-anchor="middle" x="67.2" y="-61.5" font-family="Helvetica,sans-Serif" font-size="10.00">Ogre::Singleton&lt; Profiler &gt;</text>
</a>
</g>
</g>
<!-- Node2&#45;&gt;Node1 -->
<g id="edge1" class="edge">
<title>Node2&#45;&gt;Node1</title>
<path fill="none" stroke="midnightblue" d="M84.02,-48.64C95.03,-38.92 108.98,-26.59 118,-18.63"/>
<polygon fill="midnightblue" stroke="midnightblue" points="81.49,-46.21 76.31,-55.45 86.12,-51.45 81.49,-46.21"/>
</g>
<!-- Node3 -->
<g id="node3" class="node">
<title>Node3</title>
<g id="a_node3"><a xlink:href="class_ogre_1_1_allocated_object.html" target="_top" xlink:title="Superclass for all objects that wish to use custom memory allocators when their new / delete operator...">
<polygon fill="none" stroke="black" points="152.52,-55.5 152.52,-73.5 221.87,-73.5 221.87,-55.5 152.52,-55.5"/>
<text text-anchor="middle" x="187.2" y="-61.5" font-family="Helvetica,sans-Serif" font-size="10.00">ProfilerAlloc</text>
</a>
</g>
</g>
<!-- Node3&#45;&gt;Node1 -->
<g id="edge2" class="edge">
<title>Node3&#45;&gt;Node1</title>
<path fill="none" stroke="midnightblue" d="M170.38,-48.64C159.37,-38.92 145.42,-26.59 136.4,-18.63"/>
<polygon fill="midnightblue" stroke="midnightblue" points="168.27,-51.45 178.09,-55.45 172.91,-46.21 168.27,-51.45"/>
</g>
</g>
</svg>
