<?xml version="1.0" encoding="UTF-8" standalone="no"?>
<!DOCTYPE svg PUBLIC "-//W3C//DTD SVG 1.1//EN"
 "http://www.w3.org/Graphics/SVG/1.1/DTD/svg11.dtd">
<!-- Generated by graphviz version 2.43.0 (0)
 -->
<!-- Title: Ogre::DynLibManager Pages: 1 -->
<svg width="268pt" height="82pt"
 viewBox="0.00 0.00 268.06 82.00" xmlns="http://www.w3.org/2000/svg" xmlns:xlink="http://www.w3.org/1999/xlink">
<g id="graph0" class="graph" transform="scale(1 1) rotate(0) translate(4 78)">
<title>Ogre::DynLibManager</title>
<!-- Node1 -->
<g id="node1" class="node">
<title>Node1</title>
<g id="a_node1"><a xlink:title="Manager for Dynamic&#45;loading Libraries.">
<polygon fill="#bfbfbf" stroke="black" points="98.47,-0.5 98.47,-18.5 212.85,-18.5 212.85,-0.5 98.47,-0.5"/>
<text text-anchor="middle" x="155.66" y="-6.5" font-family="Helvetica,sans-Serif" font-size="10.00">Ogre::DynLibManager</text>
</a>
</g>
</g>
<!-- Node2 -->
<g id="node2" class="node">
<title>Node2</title>
<g id="a_node2"><a xlink:href="class_ogre_1_1_singleton.html" target="_top" xlink:title=" ">
<polygon fill="none" stroke="black" points="0,-55.5 0,-73.5 173.32,-73.5 173.32,-55.5 0,-55.5"/>
<text text-anchor="middle" x="86.66" y="-61.5" font-family="Helvetica,sans-Serif" font-size="10.00">Ogre::Singleton&lt; DynLibManager &gt;</text>
</a>
</g>
</g>
<!-- Node2&#45;&gt;Node1 -->
<g id="edge1" class="edge">
<title>Node2&#45;&gt;Node1</title>
<path fill="none" stroke="midnightblue" d="M105.26,-49.21C118.03,-39.41 134.51,-26.75 145.08,-18.63"/>
<polygon fill="midnightblue" stroke="midnightblue" points="102.94,-46.58 97.14,-55.45 107.2,-52.13 102.94,-46.58"/>
</g>
<!-- Node3 -->
<g id="node3" class="node">
<title>Node3</title>
<g id="a_node3"><a xlink:href="class_ogre_1_1_allocated_object.html" target="_top" xlink:title="Superclass for all objects that wish to use custom memory allocators when their new / delete operator...">
<polygon fill="none" stroke="black" points="191.26,-55.5 191.26,-73.5 260.06,-73.5 260.06,-55.5 191.26,-55.5"/>
<text text-anchor="middle" x="225.66" y="-61.5" font-family="Helvetica,sans-Serif" font-size="10.00">DynLibAlloc</text>
</a>
</g>
</g>
<!-- Node3&#45;&gt;Node1 -->
<g id="edge2" class="edge">
<title>Node3&#45;&gt;Node1</title>
<path fill="none" stroke="midnightblue" d="M206.79,-49.21C193.84,-39.41 177.12,-26.75 166.39,-18.63"/>
<polygon fill="midnightblue" stroke="midnightblue" points="204.94,-52.2 215.03,-55.45 209.17,-46.62 204.94,-52.2"/>
</g>
</g>
</svg>
