<?xml version="1.0" encoding="UTF-8" standalone="no"?>
<!DOCTYPE svg PUBLIC "-//W3C//DTD SVG 1.1//EN"
 "http://www.w3.org/Graphics/SVG/1.1/DTD/svg11.dtd">
<!-- Generated by graphviz version 2.43.0 (0)
 -->
<!-- Title: Ogre::D3D11StagingBuffer Pages: 1 -->
<svg width="143pt" height="137pt"
 viewBox="0.00 0.00 142.60 137.00" xmlns="http://www.w3.org/2000/svg" xmlns:xlink="http://www.w3.org/1999/xlink">
<g id="graph0" class="graph" transform="scale(1 1) rotate(0) translate(4 133)">
<title>Ogre::D3D11StagingBuffer</title>
<!-- Node1 -->
<g id="node1" class="node">
<title>Node1</title>
<g id="a_node1"><a xlink:title="NOTE FOR D3D12 PORTING: The GL3Plus implementation should be used as reference, since it is much lowe...">
<polygon fill="#bfbfbf" stroke="black" points="0,-0.5 0,-18.5 134.6,-18.5 134.6,-0.5 0,-0.5"/>
<text text-anchor="middle" x="67.3" y="-6.5" font-family="Helvetica,sans-Serif" font-size="10.00">Ogre::D3D11StagingBuffer</text>
</a>
</g>
</g>
<!-- Node2 -->
<g id="node2" class="node">
<title>Node2</title>
<g id="a_node2"><a xlink:href="class_ogre_1_1_staging_buffer.html" target="_top" xlink:title="A staging buffer is a buffer that resides on the GPU and be written to/from both CPU &amp; GPU However th...">
<polygon fill="none" stroke="black" points="15.2,-55.5 15.2,-73.5 119.4,-73.5 119.4,-55.5 15.2,-55.5"/>
<text text-anchor="middle" x="67.3" y="-61.5" font-family="Helvetica,sans-Serif" font-size="10.00">Ogre::StagingBuffer</text>
</a>
</g>
</g>
<!-- Node2&#45;&gt;Node1 -->
<g id="edge1" class="edge">
<title>Node2&#45;&gt;Node1</title>
<path fill="none" stroke="midnightblue" d="M67.3,-45.17C67.3,-36.09 67.3,-25.59 67.3,-18.55"/>
<polygon fill="midnightblue" stroke="midnightblue" points="63.8,-45.22 67.3,-55.22 70.8,-45.22 63.8,-45.22"/>
</g>
<!-- Node3 -->
<g id="node3" class="node">
<title>Node3</title>
<g id="a_node3"><a xlink:href="class_ogre_1_1_allocated_object.html" target="_top" xlink:title="Superclass for all objects that wish to use custom memory allocators when their new / delete operator...">
<polygon fill="none" stroke="black" points="18.25,-110.5 18.25,-128.5 116.35,-128.5 116.35,-110.5 18.25,-110.5"/>
<text text-anchor="middle" x="67.3" y="-116.5" font-family="Helvetica,sans-Serif" font-size="10.00">StagingBufferAlloc</text>
</a>
</g>
</g>
<!-- Node3&#45;&gt;Node2 -->
<g id="edge2" class="edge">
<title>Node3&#45;&gt;Node2</title>
<path fill="none" stroke="midnightblue" d="M67.3,-100.17C67.3,-91.09 67.3,-80.59 67.3,-73.55"/>
<polygon fill="midnightblue" stroke="midnightblue" points="63.8,-100.22 67.3,-110.22 70.8,-100.22 63.8,-100.22"/>
</g>
</g>
</svg>
