<?xml version="1.0" encoding="UTF-8" standalone="no"?>
<!DOCTYPE svg PUBLIC "-//W3C//DTD SVG 1.1//EN"
 "http://www.w3.org/Graphics/SVG/1.1/DTD/svg11.dtd">
<!-- Generated by graphviz version 2.43.0 (0)
 -->
<!-- Title: Ogre::PCZIntersectionSceneQuery Pages: 1 -->
<svg width="276pt" height="277pt"
 viewBox="0.00 0.00 276.22 277.00" xmlns="http://www.w3.org/2000/svg" xmlns:xlink="http://www.w3.org/1999/xlink">
<g id="graph0" class="graph" transform="scale(1 1) rotate(0) translate(4 273)">
<title>Ogre::PCZIntersectionSceneQuery</title>
<!-- Node1 -->
<g id="node1" class="node">
<title>Node1</title>
<g id="a_node1"><a xlink:title="PCZ implementation of IntersectionSceneQuery.">
<polygon fill="#bfbfbf" stroke="black" points="48.77,-0.5 48.77,-28.5 192.61,-28.5 192.61,-0.5 48.77,-0.5"/>
<text text-anchor="start" x="56.77" y="-16.5" font-family="Helvetica,sans-Serif" font-size="10.00">Ogre::PCZIntersectionScene</text>
<text text-anchor="middle" x="120.69" y="-6.5" font-family="Helvetica,sans-Serif" font-size="10.00">Query</text>
</a>
</g>
</g>
<!-- Node2 -->
<g id="node2" class="node">
<title>Node2</title>
<g id="a_node2"><a xlink:href="class_ogre_1_1_default_intersection_scene_query.html" target="_top" xlink:title="Default implementation of IntersectionSceneQuery.">
<polygon fill="none" stroke="black" points="57.1,-65.5 57.1,-93.5 184.27,-93.5 184.27,-65.5 57.1,-65.5"/>
<text text-anchor="start" x="65.1" y="-81.5" font-family="Helvetica,sans-Serif" font-size="10.00">Ogre::DefaultIntersection</text>
<text text-anchor="middle" x="120.69" y="-71.5" font-family="Helvetica,sans-Serif" font-size="10.00">SceneQuery</text>
</a>
</g>
</g>
<!-- Node2&#45;&gt;Node1 -->
<g id="edge1" class="edge">
<title>Node2&#45;&gt;Node1</title>
<path fill="none" stroke="midnightblue" d="M120.69,-55.16C120.69,-46.17 120.69,-36.22 120.69,-28.54"/>
<polygon fill="midnightblue" stroke="midnightblue" points="117.19,-55.45 120.69,-65.45 124.19,-55.45 117.19,-55.45"/>
</g>
<!-- Node3 -->
<g id="node3" class="node">
<title>Node3</title>
<g id="a_node3"><a xlink:href="class_ogre_1_1_intersection_scene_query.html" target="_top" xlink:title="Separate SceneQuery class to query for pairs of objects which are possibly intersecting one another.">
<polygon fill="none" stroke="black" points="45.15,-130.5 45.15,-148.5 196.22,-148.5 196.22,-130.5 45.15,-130.5"/>
<text text-anchor="middle" x="120.69" y="-136.5" font-family="Helvetica,sans-Serif" font-size="10.00">Ogre::IntersectionSceneQuery</text>
</a>
</g>
</g>
<!-- Node3&#45;&gt;Node2 -->
<g id="edge2" class="edge">
<title>Node3&#45;&gt;Node2</title>
<path fill="none" stroke="midnightblue" d="M120.69,-120.32C120.69,-111.75 120.69,-101.7 120.69,-93.84"/>
<polygon fill="midnightblue" stroke="midnightblue" points="117.19,-120.44 120.69,-130.44 124.19,-120.44 117.19,-120.44"/>
</g>
<!-- Node4 -->
<g id="node4" class="node">
<title>Node4</title>
<g id="a_node4"><a xlink:href="class_ogre_1_1_scene_query.html" target="_top" xlink:title="A class for performing queries on a scene.">
<polygon fill="none" stroke="black" points="0,-190.5 0,-208.5 99.37,-208.5 99.37,-190.5 0,-190.5"/>
<text text-anchor="middle" x="49.69" y="-196.5" font-family="Helvetica,sans-Serif" font-size="10.00">Ogre::SceneQuery</text>
</a>
</g>
</g>
<!-- Node4&#45;&gt;Node3 -->
<g id="edge3" class="edge">
<title>Node4&#45;&gt;Node3</title>
<path fill="none" stroke="midnightblue" d="M67.68,-183.8C81.22,-172.74 99.28,-157.99 110.44,-148.87"/>
<polygon fill="midnightblue" stroke="midnightblue" points="65.09,-181.4 59.56,-190.44 69.52,-186.82 65.09,-181.4"/>
</g>
<!-- Node5 -->
<g id="node5" class="node">
<title>Node5</title>
<g id="a_node5"><a xlink:href="class_ogre_1_1_allocated_object.html" target="_top" xlink:title="Superclass for all objects that wish to use custom memory allocators when their new / delete operator...">
<polygon fill="none" stroke="black" points="8.34,-250.5 8.34,-268.5 91.04,-268.5 91.04,-250.5 8.34,-250.5"/>
<text text-anchor="middle" x="49.69" y="-256.5" font-family="Helvetica,sans-Serif" font-size="10.00">SceneMgtAlloc</text>
</a>
</g>
</g>
<!-- Node5&#45;&gt;Node4 -->
<g id="edge4" class="edge">
<title>Node5&#45;&gt;Node4</title>
<path fill="none" stroke="midnightblue" d="M49.69,-240.21C49.69,-229.71 49.69,-217.03 49.69,-208.87"/>
<polygon fill="midnightblue" stroke="midnightblue" points="46.19,-240.44 49.69,-250.44 53.19,-240.44 46.19,-240.44"/>
</g>
<!-- Node6 -->
<g id="node6" class="node">
<title>Node6</title>
<g id="a_node6"><a xlink:href="class_ogre_1_1_intersection_scene_query_listener.html" target="_top" xlink:title="Alternative listener class for dealing with IntersectionSceneQuery.">
<polygon fill="none" stroke="black" points="117.15,-185.5 117.15,-213.5 268.22,-213.5 268.22,-185.5 117.15,-185.5"/>
<text text-anchor="start" x="125.15" y="-201.5" font-family="Helvetica,sans-Serif" font-size="10.00">Ogre::IntersectionSceneQuery</text>
<text text-anchor="middle" x="192.69" y="-191.5" font-family="Helvetica,sans-Serif" font-size="10.00">Listener</text>
</a>
</g>
</g>
<!-- Node6&#45;&gt;Node3 -->
<g id="edge5" class="edge">
<title>Node6&#45;&gt;Node3</title>
<path fill="none" stroke="midnightblue" d="M168.36,-178.91C155.61,-168.63 140.67,-156.59 130.96,-148.77"/>
<polygon fill="midnightblue" stroke="midnightblue" points="166.37,-181.79 176.35,-185.34 170.76,-176.34 166.37,-181.79"/>
</g>
</g>
</svg>
