<?xml version="1.0" encoding="UTF-8" standalone="no"?>
<!DOCTYPE svg PUBLIC "-//W3C//DTD SVG 1.1//EN"
 "http://www.w3.org/Graphics/SVG/1.1/DTD/svg11.dtd">
<!-- Generated by graphviz version 2.43.0 (0)
 -->
<!-- Title: Ogre::Volume::GridSource Pages: 1 -->
<svg width="314pt" height="147pt"
 viewBox="0.00 0.00 314.40 147.00" xmlns="http://www.w3.org/2000/svg" xmlns:xlink="http://www.w3.org/1999/xlink">
<g id="graph0" class="graph" transform="scale(1 1) rotate(0) translate(4 143)">
<title>Ogre::Volume::GridSource</title>
<!-- Node1 -->
<g id="node1" class="node">
<title>Node1</title>
<g id="a_node1"><a xlink:title="A volume source from a discrete 3d grid.">
<polygon fill="#bfbfbf" stroke="black" points="85.17,-65.5 85.17,-83.5 218.45,-83.5 218.45,-65.5 85.17,-65.5"/>
<text text-anchor="middle" x="151.81" y="-71.5" font-family="Helvetica,sans-Serif" font-size="10.00">Ogre::Volume::GridSource</text>
</a>
</g>
</g>
<!-- Node3 -->
<g id="node3" class="node">
<title>Node3</title>
<g id="a_node3"><a xlink:href="class_ogre_1_1_volume_1_1_half_float_grid_source.html" target="_top" xlink:title="A volume source from a 16 Bit float 3D grid capable of loading volume serializations.">
<polygon fill="none" stroke="black" points="0,-0.5 0,-28.5 141.61,-28.5 141.61,-0.5 0,-0.5"/>
<text text-anchor="start" x="8" y="-16.5" font-family="Helvetica,sans-Serif" font-size="10.00">Ogre::Volume::HalfFloatGrid</text>
<text text-anchor="middle" x="70.81" y="-6.5" font-family="Helvetica,sans-Serif" font-size="10.00">Source</text>
</a>
</g>
</g>
<!-- Node1&#45;&gt;Node3 -->
<g id="edge2" class="edge">
<title>Node1&#45;&gt;Node3</title>
<path fill="none" stroke="midnightblue" d="M132.21,-59.47C119.1,-50.08 101.97,-37.81 89.13,-28.62"/>
<polygon fill="midnightblue" stroke="midnightblue" points="130.37,-62.46 140.54,-65.44 134.45,-56.77 130.37,-62.46"/>
</g>
<!-- Node4 -->
<g id="node4" class="node">
<title>Node4</title>
<g id="a_node4"><a xlink:href="class_ogre_1_1_volume_1_1_texture_source.html" target="_top" xlink:title="A volume source from a 3D texture.">
<polygon fill="none" stroke="black" points="159.21,-5.5 159.21,-23.5 306.4,-23.5 306.4,-5.5 159.21,-5.5"/>
<text text-anchor="middle" x="232.81" y="-11.5" font-family="Helvetica,sans-Serif" font-size="10.00">Ogre::Volume::TextureSource</text>
</a>
</g>
</g>
<!-- Node1&#45;&gt;Node4 -->
<g id="edge3" class="edge">
<title>Node1&#45;&gt;Node4</title>
<path fill="none" stroke="midnightblue" d="M171.51,-59.39C187.14,-48.2 208.44,-32.95 221.38,-23.68"/>
<polygon fill="midnightblue" stroke="midnightblue" points="169.16,-56.77 163.07,-65.44 173.24,-62.46 169.16,-56.77"/>
</g>
<!-- Node2 -->
<g id="node2" class="node">
<title>Node2</title>
<g id="a_node2"><a xlink:href="class_ogre_1_1_volume_1_1_source.html" target="_top" xlink:title="Abstract class defining the density function.">
<polygon fill="none" stroke="black" points="94.61,-120.5 94.61,-138.5 209,-138.5 209,-120.5 94.61,-120.5"/>
<text text-anchor="middle" x="151.81" y="-126.5" font-family="Helvetica,sans-Serif" font-size="10.00">Ogre::Volume::Source</text>
</a>
</g>
</g>
<!-- Node2&#45;&gt;Node1 -->
<g id="edge1" class="edge">
<title>Node2&#45;&gt;Node1</title>
<path fill="none" stroke="midnightblue" d="M151.81,-110.17C151.81,-101.09 151.81,-90.59 151.81,-83.55"/>
<polygon fill="midnightblue" stroke="midnightblue" points="148.31,-110.22 151.81,-120.22 155.31,-110.22 148.31,-110.22"/>
</g>
</g>
</svg>
