<?xml version="1.0" encoding="UTF-8" standalone="no"?>
<!DOCTYPE svg PUBLIC "-//W3C//DTD SVG 1.1//EN"
 "http://www.w3.org/Graphics/SVG/1.1/DTD/svg11.dtd">
<!-- Generated by graphviz version 2.43.0 (0)
 -->
<!-- Title: Ogre::ParticleSystem Pages: 1 -->
<svg width="327pt" height="137pt"
 viewBox="0.00 0.00 326.93 137.00" xmlns="http://www.w3.org/2000/svg" xmlns:xlink="http://www.w3.org/1999/xlink">
<g id="graph0" class="graph" transform="scale(1 1) rotate(0) translate(4 133)">
<title>Ogre::ParticleSystem</title>
<!-- Node1 -->
<g id="node1" class="node">
<title>Node1</title>
<g id="a_node1"><a xlink:title="Class defining particle system based special effects.">
<polygon fill="#bfbfbf" stroke="black" points="63.17,-0.5 63.17,-18.5 173.65,-18.5 173.65,-0.5 63.17,-0.5"/>
<text text-anchor="middle" x="118.41" y="-6.5" font-family="Helvetica,sans-Serif" font-size="10.00">Ogre::ParticleSystem</text>
</a>
</g>
</g>
<!-- Node2 -->
<g id="node2" class="node">
<title>Node2</title>
<g id="a_node2"><a xlink:href="class_ogre_1_1_string_interface.html" target="_top" xlink:title="Class defining the common interface which classes can use to present a reflection&#45;style,...">
<polygon fill="none" stroke="black" points="0,-55.5 0,-73.5 108.82,-73.5 108.82,-55.5 0,-55.5"/>
<text text-anchor="middle" x="54.41" y="-61.5" font-family="Helvetica,sans-Serif" font-size="10.00">Ogre::StringInterface</text>
</a>
</g>
</g>
<!-- Node2&#45;&gt;Node1 -->
<g id="edge1" class="edge">
<title>Node2&#45;&gt;Node1</title>
<path fill="none" stroke="midnightblue" d="M72.01,-48.93C83.8,-39.16 98.89,-26.67 108.6,-18.63"/>
<polygon fill="midnightblue" stroke="midnightblue" points="69.6,-46.38 64.13,-55.45 74.07,-51.77 69.6,-46.38"/>
</g>
<!-- Node3 -->
<g id="node3" class="node">
<title>Node3</title>
<g id="a_node3"><a xlink:href="class_ogre_1_1_movable_object.html" target="_top" xlink:title="Abstract class defining a movable object in a scene.">
<polygon fill="none" stroke="black" points="127.17,-55.5 127.17,-73.5 237.65,-73.5 237.65,-55.5 127.17,-55.5"/>
<text text-anchor="middle" x="182.41" y="-61.5" font-family="Helvetica,sans-Serif" font-size="10.00">Ogre::MovableObject</text>
</a>
</g>
</g>
<!-- Node3&#45;&gt;Node1 -->
<g id="edge2" class="edge">
<title>Node3&#45;&gt;Node1</title>
<path fill="none" stroke="midnightblue" d="M164.81,-48.93C153.02,-39.16 137.94,-26.67 128.22,-18.63"/>
<polygon fill="midnightblue" stroke="midnightblue" points="162.76,-51.77 172.69,-55.45 167.22,-46.38 162.76,-51.77"/>
</g>
<!-- Node4 -->
<g id="node4" class="node">
<title>Node4</title>
<g id="a_node4"><a xlink:href="class_ogre_1_1_animable_object.html" target="_top" xlink:title="Defines an interface to classes which have one or more AnimableValue instances to expose.">
<polygon fill="none" stroke="black" points="12.22,-110.5 12.22,-128.5 126.6,-128.5 126.6,-110.5 12.22,-110.5"/>
<text text-anchor="middle" x="69.41" y="-116.5" font-family="Helvetica,sans-Serif" font-size="10.00">Ogre::AnimableObject</text>
</a>
</g>
</g>
<!-- Node4&#45;&gt;Node3 -->
<g id="edge3" class="edge">
<title>Node4&#45;&gt;Node3</title>
<path fill="none" stroke="midnightblue" d="M95.75,-106.15C117.11,-96.13 146.6,-82.29 165.09,-73.63"/>
<polygon fill="midnightblue" stroke="midnightblue" points="94.14,-103.04 86.57,-110.45 97.11,-109.37 94.14,-103.04"/>
</g>
<!-- Node5 -->
<g id="node5" class="node">
<title>Node5</title>
<g id="a_node5"><a xlink:href="class_ogre_1_1_allocated_object.html" target="_top" xlink:title="Superclass for all objects that wish to use custom memory allocators when their new / delete operator...">
<polygon fill="none" stroke="black" points="144.67,-110.5 144.67,-128.5 220.15,-128.5 220.15,-110.5 144.67,-110.5"/>
<text text-anchor="middle" x="182.41" y="-116.5" font-family="Helvetica,sans-Serif" font-size="10.00">MovableAlloc</text>
</a>
</g>
</g>
<!-- Node5&#45;&gt;Node3 -->
<g id="edge4" class="edge">
<title>Node5&#45;&gt;Node3</title>
<path fill="none" stroke="midnightblue" d="M182.41,-100.17C182.41,-91.09 182.41,-80.59 182.41,-73.55"/>
<polygon fill="midnightblue" stroke="midnightblue" points="178.91,-100.22 182.41,-110.22 185.91,-100.22 178.91,-100.22"/>
</g>
<!-- Node6 -->
<g id="node6" class="node">
<title>Node6</title>
<g id="a_node6"><a xlink:href="class_ogre_1_1_id_object.html" target="_top" xlink:title=" ">
<polygon fill="none" stroke="black" points="237.9,-110.5 237.9,-128.5 318.93,-128.5 318.93,-110.5 237.9,-110.5"/>
<text text-anchor="middle" x="278.41" y="-116.5" font-family="Helvetica,sans-Serif" font-size="10.00">Ogre::IdObject</text>
</a>
</g>
</g>
<!-- Node6&#45;&gt;Node3 -->
<g id="edge5" class="edge">
<title>Node6&#45;&gt;Node3</title>
<path fill="none" stroke="midnightblue" d="M255.05,-105.6C236.99,-95.63 212.55,-82.14 197.13,-73.63"/>
<polygon fill="midnightblue" stroke="midnightblue" points="253.38,-108.68 263.83,-110.45 256.77,-102.55 253.38,-108.68"/>
</g>
</g>
</svg>
