<?xml version="1.0" encoding="UTF-8" standalone="no"?>
<!DOCTYPE svg PUBLIC "-//W3C//DTD SVG 1.1//EN"
 "http://www.w3.org/Graphics/SVG/1.1/DTD/svg11.dtd">
<!-- Generated by graphviz version 2.43.0 (0)
 -->
<!-- Title: Ogre::DistanceLodStrategyBase Pages: 1 -->
<svg width="348pt" height="192pt"
 viewBox="0.00 0.00 348.36 192.00" xmlns="http://www.w3.org/2000/svg" xmlns:xlink="http://www.w3.org/1999/xlink">
<g id="graph0" class="graph" transform="scale(1 1) rotate(0) translate(4 188)">
<title>Ogre::DistanceLodStrategyBase</title>
<!-- Node1 -->
<g id="node1" class="node">
<title>Node1</title>
<g id="a_node1"><a xlink:title="Level of detail strategy based on distance from camera.">
<polygon fill="#bfbfbf" stroke="black" points="86.22,-55.5 86.22,-73.5 245.63,-73.5 245.63,-55.5 86.22,-55.5"/>
<text text-anchor="middle" x="165.93" y="-61.5" font-family="Helvetica,sans-Serif" font-size="10.00">Ogre::DistanceLodStrategyBase</text>
</a>
</g>
</g>
<!-- Node4 -->
<g id="node4" class="node">
<title>Node4</title>
<g id="a_node4"><a xlink:href="class_ogre_1_1_distance_lod_box_strategy.html" target="_top" xlink:title="Level of detail strategy based on distance from camera to an object&#39;s bounding box.">
<polygon fill="none" stroke="black" points="0,-0.5 0,-18.5 153.85,-18.5 153.85,-0.5 0,-0.5"/>
<text text-anchor="middle" x="76.93" y="-6.5" font-family="Helvetica,sans-Serif" font-size="10.00">Ogre::DistanceLodBoxStrategy</text>
</a>
</g>
</g>
<!-- Node1&#45;&gt;Node4 -->
<g id="edge3" class="edge">
<title>Node1&#45;&gt;Node4</title>
<path fill="none" stroke="midnightblue" d="M143.81,-50.33C127.11,-40.39 104.73,-27.06 90.57,-18.63"/>
<polygon fill="midnightblue" stroke="midnightblue" points="142.03,-53.34 152.41,-55.45 145.61,-47.33 142.03,-53.34"/>
</g>
<!-- Node5 -->
<g id="node5" class="node">
<title>Node5</title>
<g id="a_node5"><a xlink:href="class_ogre_1_1_distance_lod_sphere_strategy.html" target="_top" xlink:title="Level of detail strategy based on distance from camera to an object&#39;s bounding sphere.">
<polygon fill="none" stroke="black" points="171.49,-0.5 171.49,-18.5 340.36,-18.5 340.36,-0.5 171.49,-0.5"/>
<text text-anchor="middle" x="255.93" y="-6.5" font-family="Helvetica,sans-Serif" font-size="10.00">Ogre::DistanceLodSphereStrategy</text>
</a>
</g>
</g>
<!-- Node1&#45;&gt;Node5 -->
<g id="edge4" class="edge">
<title>Node1&#45;&gt;Node5</title>
<path fill="none" stroke="midnightblue" d="M188.29,-50.33C205.18,-40.39 227.81,-27.06 242.13,-18.63"/>
<polygon fill="midnightblue" stroke="midnightblue" points="186.44,-47.36 179.59,-55.45 189.99,-53.39 186.44,-47.36"/>
</g>
<!-- Node2 -->
<g id="node2" class="node">
<title>Node2</title>
<g id="a_node2"><a xlink:href="class_ogre_1_1_lod_strategy.html" target="_top" xlink:title="Strategy for determining level of detail.">
<polygon fill="none" stroke="black" points="117.07,-110.5 117.07,-128.5 214.78,-128.5 214.78,-110.5 117.07,-110.5"/>
<text text-anchor="middle" x="165.93" y="-116.5" font-family="Helvetica,sans-Serif" font-size="10.00">Ogre::LodStrategy</text>
</a>
</g>
</g>
<!-- Node2&#45;&gt;Node1 -->
<g id="edge1" class="edge">
<title>Node2&#45;&gt;Node1</title>
<path fill="none" stroke="midnightblue" d="M165.93,-100.17C165.93,-91.09 165.93,-80.59 165.93,-73.55"/>
<polygon fill="midnightblue" stroke="midnightblue" points="162.43,-100.22 165.93,-110.22 169.43,-100.22 162.43,-100.22"/>
</g>
<!-- Node3 -->
<g id="node3" class="node">
<title>Node3</title>
<g id="a_node3"><a xlink:href="class_ogre_1_1_allocated_object.html" target="_top" xlink:title="Superclass for all objects that wish to use custom memory allocators when their new / delete operator...">
<polygon fill="none" stroke="black" points="138.75,-165.5 138.75,-183.5 193.11,-183.5 193.11,-165.5 138.75,-165.5"/>
<text text-anchor="middle" x="165.93" y="-171.5" font-family="Helvetica,sans-Serif" font-size="10.00">LodAlloc</text>
</a>
</g>
</g>
<!-- Node3&#45;&gt;Node2 -->
<g id="edge2" class="edge">
<title>Node3&#45;&gt;Node2</title>
<path fill="none" stroke="midnightblue" d="M165.93,-155.17C165.93,-146.09 165.93,-135.59 165.93,-128.55"/>
<polygon fill="midnightblue" stroke="midnightblue" points="162.43,-155.22 165.93,-165.22 169.43,-155.22 162.43,-155.22"/>
</g>
</g>
</svg>
