<?xml version="1.0" encoding="UTF-8" standalone="no"?>
<!DOCTYPE svg PUBLIC "-//W3C//DTD SVG 1.1//EN"
 "http://www.w3.org/Graphics/SVG/1.1/DTD/svg11.dtd">
<!-- Generated by graphviz version 2.43.0 (0)
 -->
<!-- Title: Ogre::GL3PlusFBOMultiRenderTarget Pages: 1 -->
<svg width="254pt" height="202pt"
 viewBox="0.00 0.00 254.19 202.00" xmlns="http://www.w3.org/2000/svg" xmlns:xlink="http://www.w3.org/1999/xlink">
<g id="graph0" class="graph" transform="scale(1 1) rotate(0) translate(4 198)">
<title>Ogre::GL3PlusFBOMultiRenderTarget</title>
<!-- Node1 -->
<g id="node1" class="node">
<title>Node1</title>
<g id="a_node1"><a xlink:title="MultiRenderTarget for OpenGL.">
<polygon fill="#bfbfbf" stroke="black" points="58.32,-0.5 58.32,-28.5 214.93,-28.5 214.93,-0.5 58.32,-0.5"/>
<text text-anchor="start" x="66.32" y="-16.5" font-family="Helvetica,sans-Serif" font-size="10.00">Ogre::GL3PlusFBOMultiRender</text>
<text text-anchor="middle" x="136.62" y="-6.5" font-family="Helvetica,sans-Serif" font-size="10.00">Target</text>
</a>
</g>
</g>
<!-- Node2 -->
<g id="node2" class="node">
<title>Node2</title>
<g id="a_node2"><a xlink:href="class_ogre_1_1_multi_render_target.html" target="_top" xlink:title="This class represents a render target that renders to multiple RenderTextures at once.">
<polygon fill="none" stroke="black" points="73.88,-65.5 73.88,-83.5 199.37,-83.5 199.37,-65.5 73.88,-65.5"/>
<text text-anchor="middle" x="136.62" y="-71.5" font-family="Helvetica,sans-Serif" font-size="10.00">Ogre::MultiRenderTarget</text>
</a>
</g>
</g>
<!-- Node2&#45;&gt;Node1 -->
<g id="edge1" class="edge">
<title>Node2&#45;&gt;Node1</title>
<path fill="none" stroke="midnightblue" d="M136.62,-55.32C136.62,-46.75 136.62,-36.7 136.62,-28.84"/>
<polygon fill="midnightblue" stroke="midnightblue" points="133.12,-55.44 136.62,-65.44 140.12,-55.44 133.12,-55.44"/>
</g>
<!-- Node3 -->
<g id="node3" class="node">
<title>Node3</title>
<g id="a_node3"><a xlink:href="class_ogre_1_1_render_target.html" target="_top" xlink:title="A &#39;canvas&#39; which can receive the results of a rendering operation.">
<polygon fill="none" stroke="black" points="84.43,-120.5 84.43,-138.5 188.81,-138.5 188.81,-120.5 84.43,-120.5"/>
<text text-anchor="middle" x="136.62" y="-126.5" font-family="Helvetica,sans-Serif" font-size="10.00">Ogre::RenderTarget</text>
</a>
</g>
</g>
<!-- Node3&#45;&gt;Node2 -->
<g id="edge2" class="edge">
<title>Node3&#45;&gt;Node2</title>
<path fill="none" stroke="midnightblue" d="M136.62,-110.17C136.62,-101.09 136.62,-90.59 136.62,-83.55"/>
<polygon fill="midnightblue" stroke="midnightblue" points="133.12,-110.22 136.62,-120.22 140.12,-110.22 133.12,-110.22"/>
</g>
<!-- Node4 -->
<g id="node4" class="node">
<title>Node4</title>
<g id="a_node4"><a xlink:href="struct_ogre_1_1_gpu_tracked_resource.html" target="_top" xlink:title=" ">
<polygon fill="none" stroke="black" points="0,-175.5 0,-193.5 141.24,-193.5 141.24,-175.5 0,-175.5"/>
<text text-anchor="middle" x="70.62" y="-181.5" font-family="Helvetica,sans-Serif" font-size="10.00">Ogre::GpuTrackedResource</text>
</a>
</g>
</g>
<!-- Node4&#45;&gt;Node3 -->
<g id="edge3" class="edge">
<title>Node4&#45;&gt;Node3</title>
<path fill="none" stroke="midnightblue" d="M88.77,-168.93C100.93,-159.16 116.49,-146.67 126.5,-138.63"/>
<polygon fill="midnightblue" stroke="midnightblue" points="86.25,-166.46 80.65,-175.45 90.63,-171.92 86.25,-166.46"/>
</g>
<!-- Node5 -->
<g id="node5" class="node">
<title>Node5</title>
<g id="a_node5"><a xlink:href="class_ogre_1_1_allocated_object.html" target="_top" xlink:title="Superclass for all objects that wish to use custom memory allocators when their new / delete operator...">
<polygon fill="none" stroke="black" points="159.05,-175.5 159.05,-193.5 246.19,-193.5 246.19,-175.5 159.05,-175.5"/>
<text text-anchor="middle" x="202.62" y="-181.5" font-family="Helvetica,sans-Serif" font-size="10.00">RenderSysAlloc</text>
</a>
</g>
</g>
<!-- Node5&#45;&gt;Node3 -->
<g id="edge4" class="edge">
<title>Node5&#45;&gt;Node3</title>
<path fill="none" stroke="midnightblue" d="M184.47,-168.93C172.31,-159.16 156.76,-146.67 146.74,-138.63"/>
<polygon fill="midnightblue" stroke="midnightblue" points="182.61,-171.92 192.6,-175.45 186.99,-166.46 182.61,-171.92"/>
</g>
</g>
</svg>
