<?xml version="1.0" encoding="UTF-8" standalone="no"?>
<!DOCTYPE svg PUBLIC "-//W3C//DTD SVG 1.1//EN"
 "http://www.w3.org/Graphics/SVG/1.1/DTD/svg11.dtd">
<!-- Generated by graphviz version 2.43.0 (0)
 -->
<!-- Title: Ogre::v1::HardwareCounterBuffer Pages: 1 -->
<svg width="590pt" height="131pt"
 viewBox="0.00 0.00 590.38 131.00" xmlns="http://www.w3.org/2000/svg" xmlns:xlink="http://www.w3.org/1999/xlink">
<g id="graph0" class="graph" transform="scale(1 1) rotate(0) translate(4 127)">
<title>Ogre::v1::HardwareCounterBuffer</title>
<!-- Node1 -->
<g id="node1" class="node">
<title>Node1</title>
<g id="a_node1"><a xlink:title="Specialisation of HardwareBuffer for a counter buffer.">
<polygon fill="#bfbfbf" stroke="black" points="265.94,-47.5 265.94,-75.5 404.77,-75.5 404.77,-47.5 265.94,-47.5"/>
<text text-anchor="start" x="273.94" y="-63.5" font-family="Helvetica,sans-Serif" font-size="10.00">Ogre::v1::HardwareCounter</text>
<text text-anchor="middle" x="335.35" y="-53.5" font-family="Helvetica,sans-Serif" font-size="10.00">Buffer</text>
</a>
</g>
</g>
<!-- Node4 -->
<g id="node4" class="node">
<title>Node4</title>
<g id="a_node4"><a xlink:href="class_ogre_1_1v1_1_1_default_hardware_counter_buffer.html" target="_top" xlink:title="Specialisation of HardwareCounterBuffer for emulation.">
<polygon fill="none" stroke="black" points="444.11,-94.5 444.11,-122.5 579.05,-122.5 579.05,-94.5 444.11,-94.5"/>
<text text-anchor="start" x="452.11" y="-110.5" font-family="Helvetica,sans-Serif" font-size="10.00">Ogre::v1::DefaultHardware</text>
<text text-anchor="middle" x="511.58" y="-100.5" font-family="Helvetica,sans-Serif" font-size="10.00">CounterBuffer</text>
</a>
</g>
</g>
<!-- Node1&#45;&gt;Node4 -->
<g id="edge3" class="edge">
<title>Node1&#45;&gt;Node4</title>
<path fill="none" stroke="midnightblue" d="M398.43,-78.25C418.14,-83.56 439.72,-89.39 458.64,-94.49"/>
<polygon fill="midnightblue" stroke="midnightblue" points="399.19,-74.83 388.63,-75.6 397.37,-81.59 399.19,-74.83"/>
</g>
<!-- Node5 -->
<g id="node5" class="node">
<title>Node5</title>
<g id="a_node5"><a xlink:href="class_ogre_1_1v1_1_1_g_l3_plus_default_hardware_counter_buffer.html" target="_top" xlink:title="Specialisation of HardwareCounterBuffer for emulation.">
<polygon fill="none" stroke="black" points="446.6,-47.5 446.6,-75.5 576.55,-75.5 576.55,-47.5 446.6,-47.5"/>
<text text-anchor="start" x="454.6" y="-63.5" font-family="Helvetica,sans-Serif" font-size="10.00">Ogre::v1::GL3PlusDefault</text>
<text text-anchor="middle" x="511.58" y="-53.5" font-family="Helvetica,sans-Serif" font-size="10.00">HardwareCounterBuffer</text>
</a>
</g>
</g>
<!-- Node1&#45;&gt;Node5 -->
<g id="edge4" class="edge">
<title>Node1&#45;&gt;Node5</title>
<path fill="none" stroke="midnightblue" d="M415.51,-61.5C425.87,-61.5 436.39,-61.5 446.47,-61.5"/>
<polygon fill="midnightblue" stroke="midnightblue" points="415.21,-58 405.21,-61.5 415.21,-65 415.21,-58"/>
</g>
<!-- Node6 -->
<g id="node6" class="node">
<title>Node6</title>
<g id="a_node6"><a xlink:href="class_ogre_1_1v1_1_1_g_l3_plus_hardware_counter_buffer.html" target="_top" xlink:title="Specialisation of HardwareCounterBuffer for OpenGL.">
<polygon fill="none" stroke="black" points="440.77,-0.5 440.77,-28.5 582.38,-28.5 582.38,-0.5 440.77,-0.5"/>
<text text-anchor="start" x="448.77" y="-16.5" font-family="Helvetica,sans-Serif" font-size="10.00">Ogre::v1::GL3PlusHardware</text>
<text text-anchor="middle" x="511.58" y="-6.5" font-family="Helvetica,sans-Serif" font-size="10.00">CounterBuffer</text>
</a>
</g>
</g>
<!-- Node1&#45;&gt;Node6 -->
<g id="edge5" class="edge">
<title>Node1&#45;&gt;Node6</title>
<path fill="none" stroke="midnightblue" d="M398.43,-44.75C418.14,-39.44 439.72,-33.61 458.64,-28.51"/>
<polygon fill="midnightblue" stroke="midnightblue" points="397.37,-41.41 388.63,-47.4 399.19,-48.17 397.37,-41.41"/>
</g>
<!-- Node2 -->
<g id="node2" class="node">
<title>Node2</title>
<g id="a_node2"><a xlink:href="class_ogre_1_1v1_1_1_hardware_buffer.html" target="_top" xlink:title="Abstract class defining common features of hardware buffers.">
<polygon fill="none" stroke="black" points="100.18,-52.5 100.18,-70.5 229.94,-70.5 229.94,-52.5 100.18,-52.5"/>
<text text-anchor="middle" x="165.06" y="-58.5" font-family="Helvetica,sans-Serif" font-size="10.00">Ogre::v1::HardwareBuffer</text>
</a>
</g>
</g>
<!-- Node2&#45;&gt;Node1 -->
<g id="edge1" class="edge">
<title>Node2&#45;&gt;Node1</title>
<path fill="none" stroke="midnightblue" d="M240.35,-61.5C248.77,-61.5 257.32,-61.5 265.66,-61.5"/>
<polygon fill="midnightblue" stroke="midnightblue" points="240.16,-58 230.16,-61.5 240.16,-65 240.16,-58"/>
</g>
<!-- Node3 -->
<g id="node3" class="node">
<title>Node3</title>
<g id="a_node3"><a xlink:href="class_ogre_1_1_allocated_object.html" target="_top" xlink:title="Superclass for all objects that wish to use custom memory allocators when their new / delete operator...">
<polygon fill="none" stroke="black" points="0,-52.5 0,-70.5 64.18,-70.5 64.18,-52.5 0,-52.5"/>
<text text-anchor="middle" x="32.09" y="-58.5" font-family="Helvetica,sans-Serif" font-size="10.00">BufferAlloc</text>
</a>
</g>
</g>
<!-- Node3&#45;&gt;Node2 -->
<g id="edge2" class="edge">
<title>Node3&#45;&gt;Node2</title>
<path fill="none" stroke="midnightblue" d="M74.71,-61.5C82.78,-61.5 91.42,-61.5 100.03,-61.5"/>
<polygon fill="midnightblue" stroke="midnightblue" points="74.46,-58 64.46,-61.5 74.46,-65 74.46,-58"/>
</g>
</g>
</svg>
