<?xml version="1.0" encoding="UTF-8" standalone="no"?>
<!DOCTYPE svg PUBLIC "-//W3C//DTD SVG 1.1//EN"
 "http://www.w3.org/Graphics/SVG/1.1/DTD/svg11.dtd">
<!-- Generated by graphviz version 2.43.0 (0)
 -->
<!-- Title: Ogre::MetalAsyncTicket Pages: 1 -->
<svg width="130pt" height="137pt"
 viewBox="0.00 0.00 129.78 137.00" xmlns="http://www.w3.org/2000/svg" xmlns:xlink="http://www.w3.org/1999/xlink">
<g id="graph0" class="graph" transform="scale(1 1) rotate(0) translate(4 133)">
<title>Ogre::MetalAsyncTicket</title>
<!-- Node1 -->
<g id="node1" class="node">
<title>Node1</title>
<g id="a_node1"><a xlink:title=" ">
<polygon fill="#bfbfbf" stroke="black" points="0,-0.5 0,-18.5 121.78,-18.5 121.78,-0.5 0,-0.5"/>
<text text-anchor="middle" x="60.89" y="-6.5" font-family="Helvetica,sans-Serif" font-size="10.00">Ogre::MetalAsyncTicket</text>
</a>
</g>
</g>
<!-- Node2 -->
<g id="node2" class="node">
<title>Node2</title>
<g id="a_node2"><a xlink:href="class_ogre_1_1_async_ticket.html" target="_top" xlink:title="In Ogre 2.0 data structures, reading data from GPU back to CPU is asynchronous.">
<polygon fill="none" stroke="black" points="12.23,-55.5 12.23,-73.5 109.55,-73.5 109.55,-55.5 12.23,-55.5"/>
<text text-anchor="middle" x="60.89" y="-61.5" font-family="Helvetica,sans-Serif" font-size="10.00">Ogre::AsyncTicket</text>
</a>
</g>
</g>
<!-- Node2&#45;&gt;Node1 -->
<g id="edge1" class="edge">
<title>Node2&#45;&gt;Node1</title>
<path fill="none" stroke="midnightblue" d="M60.89,-45.17C60.89,-36.09 60.89,-25.59 60.89,-18.55"/>
<polygon fill="midnightblue" stroke="midnightblue" points="57.39,-45.22 60.89,-55.22 64.39,-45.22 57.39,-45.22"/>
</g>
<!-- Node3 -->
<g id="node3" class="node">
<title>Node3</title>
<g id="a_node3"><a xlink:href="class_ogre_1_1_allocated_object.html" target="_top" xlink:title="Superclass for all objects that wish to use custom memory allocators when their new / delete operator...">
<polygon fill="none" stroke="black" points="17.32,-110.5 17.32,-128.5 104.46,-128.5 104.46,-110.5 17.32,-110.5"/>
<text text-anchor="middle" x="60.89" y="-116.5" font-family="Helvetica,sans-Serif" font-size="10.00">RenderSysAlloc</text>
</a>
</g>
</g>
<!-- Node3&#45;&gt;Node2 -->
<g id="edge2" class="edge">
<title>Node3&#45;&gt;Node2</title>
<path fill="none" stroke="midnightblue" d="M60.89,-100.17C60.89,-91.09 60.89,-80.59 60.89,-73.55"/>
<polygon fill="midnightblue" stroke="midnightblue" points="57.39,-100.22 60.89,-110.22 64.39,-100.22 57.39,-100.22"/>
</g>
</g>
</svg>
