<?xml version="1.0" encoding="UTF-8" standalone="no"?>
<!DOCTYPE svg PUBLIC "-//W3C//DTD SVG 1.1//EN"
 "http://www.w3.org/Graphics/SVG/1.1/DTD/svg11.dtd">
<!-- Generated by graphviz version 2.43.0 (0)
 -->
<!-- Title: Ogre::v1::TempBlendedBufferInfo Pages: 1 -->
<svg width="220pt" height="92pt"
 viewBox="0.00 0.00 219.97 92.00" xmlns="http://www.w3.org/2000/svg" xmlns:xlink="http://www.w3.org/1999/xlink">
<g id="graph0" class="graph" transform="scale(1 1) rotate(0) translate(4 88)">
<title>Ogre::v1::TempBlendedBufferInfo</title>
<!-- Node1 -->
<g id="node1" class="node">
<title>Node1</title>
<g id="a_node1"><a xlink:title="Structure for recording the use of temporary blend buffers.">
<polygon fill="#bfbfbf" stroke="black" points="39.76,-0.5 39.76,-18.5 204,-18.5 204,-0.5 39.76,-0.5"/>
<text text-anchor="middle" x="121.88" y="-6.5" font-family="Helvetica,sans-Serif" font-size="10.00">Ogre::v1::TempBlendedBufferInfo</text>
</a>
</g>
</g>
<!-- Node2 -->
<g id="node2" class="node">
<title>Node2</title>
<g id="a_node2"><a xlink:href="class_ogre_1_1v1_1_1_hardware_buffer_licensee.html" target="_top" xlink:title="Abstract interface representing a &#39;licensee&#39; of a hardware buffer copy.">
<polygon fill="none" stroke="black" points="0,-55.5 0,-83.5 129.76,-83.5 129.76,-55.5 0,-55.5"/>
<text text-anchor="start" x="8" y="-71.5" font-family="Helvetica,sans-Serif" font-size="10.00">Ogre::v1::HardwareBuffer</text>
<text text-anchor="middle" x="64.88" y="-61.5" font-family="Helvetica,sans-Serif" font-size="10.00">Licensee</text>
</a>
</g>
</g>
<!-- Node2&#45;&gt;Node1 -->
<g id="edge1" class="edge">
<title>Node2&#45;&gt;Node1</title>
<path fill="none" stroke="midnightblue" d="M85.01,-48.02C94.9,-37.95 106.28,-26.37 113.75,-18.77"/>
<polygon fill="midnightblue" stroke="midnightblue" points="82.33,-45.75 77.81,-55.34 87.32,-50.66 82.33,-45.75"/>
</g>
<!-- Node3 -->
<g id="node3" class="node">
<title>Node3</title>
<g id="a_node3"><a xlink:href="class_ogre_1_1_allocated_object.html" target="_top" xlink:title="Superclass for all objects that wish to use custom memory allocators when their new / delete operator...">
<polygon fill="none" stroke="black" points="147.79,-60.5 147.79,-78.5 211.97,-78.5 211.97,-60.5 147.79,-60.5"/>
<text text-anchor="middle" x="179.88" y="-66.5" font-family="Helvetica,sans-Serif" font-size="10.00">BufferAlloc</text>
</a>
</g>
</g>
<!-- Node3&#45;&gt;Node1 -->
<g id="edge2" class="edge">
<title>Node3&#45;&gt;Node1</title>
<path fill="none" stroke="midnightblue" d="M164.54,-53.16C153.56,-42.18 139.19,-27.81 130.25,-18.87"/>
<polygon fill="midnightblue" stroke="midnightblue" points="162.27,-55.84 171.82,-60.44 167.22,-50.89 162.27,-55.84"/>
</g>
</g>
</svg>
