<?xml version="1.0" encoding="UTF-8" standalone="no"?>
<!DOCTYPE svg PUBLIC "-//W3C//DTD SVG 1.1//EN"
 "http://www.w3.org/Graphics/SVG/1.1/DTD/svg11.dtd">
<!-- Generated by graphviz version 2.43.0 (0)
 -->
<!-- Title: Ogre::D3D11HLSLProgramFactory Pages: 1 -->
<svg width="179pt" height="147pt"
 viewBox="0.00 0.00 178.88 147.00" xmlns="http://www.w3.org/2000/svg" xmlns:xlink="http://www.w3.org/1999/xlink">
<g id="graph0" class="graph" transform="scale(1 1) rotate(0) translate(4 143)">
<title>Ogre::D3D11HLSLProgramFactory</title>
<!-- Node1 -->
<g id="node1" class="node">
<title>Node1</title>
<g id="a_node1"><a xlink:title="Factory class for D3D11 HLSL programs.">
<polygon fill="#bfbfbf" stroke="black" points="0,-0.5 0,-18.5 170.88,-18.5 170.88,-0.5 0,-0.5"/>
<text text-anchor="middle" x="85.44" y="-6.5" font-family="Helvetica,sans-Serif" font-size="10.00">Ogre::D3D11HLSLProgramFactory</text>
</a>
</g>
</g>
<!-- Node2 -->
<g id="node2" class="node">
<title>Node2</title>
<g id="a_node2"><a xlink:href="class_ogre_1_1_high_level_gpu_program_factory.html" target="_top" xlink:title="Interface definition for factories of HighLevelGpuProgram.">
<polygon fill="none" stroke="black" points="12.69,-55.5 12.69,-83.5 158.19,-83.5 158.19,-55.5 12.69,-55.5"/>
<text text-anchor="start" x="20.69" y="-71.5" font-family="Helvetica,sans-Serif" font-size="10.00">Ogre::HighLevelGpuProgram</text>
<text text-anchor="middle" x="85.44" y="-61.5" font-family="Helvetica,sans-Serif" font-size="10.00">Factory</text>
</a>
</g>
</g>
<!-- Node2&#45;&gt;Node1 -->
<g id="edge1" class="edge">
<title>Node2&#45;&gt;Node1</title>
<path fill="none" stroke="midnightblue" d="M85.44,-45.32C85.44,-35.94 85.44,-25.7 85.44,-18.77"/>
<polygon fill="midnightblue" stroke="midnightblue" points="81.94,-45.34 85.44,-55.34 88.94,-45.34 81.94,-45.34"/>
</g>
<!-- Node3 -->
<g id="node3" class="node">
<title>Node3</title>
<g id="a_node3"><a xlink:href="class_ogre_1_1_allocated_object.html" target="_top" xlink:title="Superclass for all objects that wish to use custom memory allocators when their new / delete operator...">
<polygon fill="none" stroke="black" points="49.93,-120.5 49.93,-138.5 120.95,-138.5 120.95,-120.5 49.93,-120.5"/>
<text text-anchor="middle" x="85.44" y="-126.5" font-family="Helvetica,sans-Serif" font-size="10.00">FactoryAlloc</text>
</a>
</g>
</g>
<!-- Node3&#45;&gt;Node2 -->
<g id="edge2" class="edge">
<title>Node3&#45;&gt;Node2</title>
<path fill="none" stroke="midnightblue" d="M85.44,-110.32C85.44,-101.75 85.44,-91.7 85.44,-83.84"/>
<polygon fill="midnightblue" stroke="midnightblue" points="81.94,-110.44 85.44,-120.44 88.94,-110.44 81.94,-110.44"/>
</g>
</g>
</svg>
