<?xml version="1.0" encoding="UTF-8" standalone="no"?>
<!DOCTYPE svg PUBLIC "-//W3C//DTD SVG 1.1//EN"
 "http://www.w3.org/Graphics/SVG/1.1/DTD/svg11.dtd">
<!-- Generated by graphviz version 2.43.0 (0)
 -->
<!-- Title: Ogre::AsyncTicket Pages: 1 -->
<svg width="400pt" height="175pt"
 viewBox="0.00 0.00 400.14 175.00" xmlns="http://www.w3.org/2000/svg" xmlns:xlink="http://www.w3.org/1999/xlink">
<g id="graph0" class="graph" transform="scale(1 1) rotate(0) translate(4 171)">
<title>Ogre::AsyncTicket</title>
<!-- Node1 -->
<g id="node1" class="node">
<title>Node1</title>
<g id="a_node1"><a xlink:title="In Ogre 2.0 data structures, reading data from GPU back to CPU is asynchronous.">
<polygon fill="#bfbfbf" stroke="black" points="123.14,-74.5 123.14,-92.5 220.47,-92.5 220.47,-74.5 123.14,-74.5"/>
<text text-anchor="middle" x="171.8" y="-80.5" font-family="Helvetica,sans-Serif" font-size="10.00">Ogre::AsyncTicket</text>
</a>
</g>
</g>
<!-- Node3 -->
<g id="node3" class="node">
<title>Node3</title>
<g id="a_node3"><a xlink:href="class_ogre_1_1_d3_d11_async_ticket.html" target="_top" xlink:title=" ">
<polygon fill="none" stroke="black" points="260.45,-148.5 260.45,-166.5 388.16,-166.5 388.16,-148.5 260.45,-148.5"/>
<text text-anchor="middle" x="324.3" y="-154.5" font-family="Helvetica,sans-Serif" font-size="10.00">Ogre::D3D11AsyncTicket</text>
</a>
</g>
</g>
<!-- Node1&#45;&gt;Node3 -->
<g id="edge2" class="edge">
<title>Node1&#45;&gt;Node3</title>
<path fill="none" stroke="midnightblue" d="M191.89,-98.94C208.19,-111.44 232.7,-128.7 256.47,-139.5 264.23,-143.03 272.83,-145.99 281.21,-148.42"/>
<polygon fill="midnightblue" stroke="midnightblue" points="193.77,-95.96 183.74,-92.55 189.45,-101.47 193.77,-95.96"/>
</g>
<!-- Node4 -->
<g id="node4" class="node">
<title>Node4</title>
<g id="a_node4"><a xlink:href="class_ogre_1_1_g_l3_plus_async_ticket.html" target="_top" xlink:title=" ">
<polygon fill="none" stroke="black" points="256.47,-111.5 256.47,-129.5 392.14,-129.5 392.14,-111.5 256.47,-111.5"/>
<text text-anchor="middle" x="324.3" y="-117.5" font-family="Helvetica,sans-Serif" font-size="10.00">Ogre::GL3PlusAsyncTicket</text>
</a>
</g>
</g>
<!-- Node1&#45;&gt;Node4 -->
<g id="edge3" class="edge">
<title>Node1&#45;&gt;Node4</title>
<path fill="none" stroke="midnightblue" d="M219.57,-95C241.16,-100.3 266.42,-106.51 286.61,-111.48"/>
<polygon fill="midnightblue" stroke="midnightblue" points="220.17,-91.54 209.62,-92.55 218.5,-98.34 220.17,-91.54"/>
</g>
<!-- Node5 -->
<g id="node5" class="node">
<title>Node5</title>
<g id="a_node5"><a xlink:href="class_ogre_1_1_g_l_e_s2_async_ticket.html" target="_top" xlink:title=" ">
<polygon fill="none" stroke="black" points="259.52,-74.5 259.52,-92.5 389.09,-92.5 389.09,-74.5 259.52,-74.5"/>
<text text-anchor="middle" x="324.3" y="-80.5" font-family="Helvetica,sans-Serif" font-size="10.00">Ogre::GLES2AsyncTicket</text>
</a>
</g>
</g>
<!-- Node1&#45;&gt;Node5 -->
<g id="edge4" class="edge">
<title>Node1&#45;&gt;Node5</title>
<path fill="none" stroke="midnightblue" d="M230.85,-83.5C240.24,-83.5 250,-83.5 259.52,-83.5"/>
<polygon fill="midnightblue" stroke="midnightblue" points="230.84,-80 220.84,-83.5 230.84,-87 230.84,-80"/>
</g>
<!-- Node6 -->
<g id="node6" class="node">
<title>Node6</title>
<g id="a_node6"><a xlink:href="class_ogre_1_1_metal_async_ticket.html" target="_top" xlink:title=" ">
<polygon fill="none" stroke="black" points="263.42,-37.5 263.42,-55.5 385.19,-55.5 385.19,-37.5 263.42,-37.5"/>
<text text-anchor="middle" x="324.3" y="-43.5" font-family="Helvetica,sans-Serif" font-size="10.00">Ogre::MetalAsyncTicket</text>
</a>
</g>
</g>
<!-- Node1&#45;&gt;Node6 -->
<g id="edge5" class="edge">
<title>Node1&#45;&gt;Node6</title>
<path fill="none" stroke="midnightblue" d="M219.57,-72C241.16,-66.7 266.42,-60.49 286.61,-55.52"/>
<polygon fill="midnightblue" stroke="midnightblue" points="218.5,-68.66 209.62,-74.45 220.17,-75.46 218.5,-68.66"/>
</g>
<!-- Node7 -->
<g id="node7" class="node">
<title>Node7</title>
<g id="a_node7"><a xlink:href="class_ogre_1_1_n_u_l_l_async_ticket.html" target="_top" xlink:title=" ">
<polygon fill="none" stroke="black" points="262.86,-0.5 262.86,-18.5 385.75,-18.5 385.75,-0.5 262.86,-0.5"/>
<text text-anchor="middle" x="324.3" y="-6.5" font-family="Helvetica,sans-Serif" font-size="10.00">Ogre::NULLAsyncTicket</text>
</a>
</g>
</g>
<!-- Node1&#45;&gt;Node7 -->
<g id="edge6" class="edge">
<title>Node1&#45;&gt;Node7</title>
<path fill="none" stroke="midnightblue" d="M191.89,-68.06C208.19,-55.56 232.7,-38.3 256.47,-27.5 264.23,-23.97 272.83,-21.01 281.21,-18.58"/>
<polygon fill="midnightblue" stroke="midnightblue" points="189.45,-65.53 183.74,-74.45 193.77,-71.04 189.45,-65.53"/>
</g>
<!-- Node2 -->
<g id="node2" class="node">
<title>Node2</title>
<g id="a_node2"><a xlink:href="class_ogre_1_1_allocated_object.html" target="_top" xlink:title="Superclass for all objects that wish to use custom memory allocators when their new / delete operator...">
<polygon fill="none" stroke="black" points="0,-74.5 0,-92.5 87.14,-92.5 87.14,-74.5 0,-74.5"/>
<text text-anchor="middle" x="43.57" y="-80.5" font-family="Helvetica,sans-Serif" font-size="10.00">RenderSysAlloc</text>
</a>
</g>
</g>
<!-- Node2&#45;&gt;Node1 -->
<g id="edge1" class="edge">
<title>Node2&#45;&gt;Node1</title>
<path fill="none" stroke="midnightblue" d="M97.44,-83.5C105.89,-83.5 114.58,-83.5 122.9,-83.5"/>
<polygon fill="midnightblue" stroke="midnightblue" points="97.31,-80 87.31,-83.5 97.31,-87 97.31,-80"/>
</g>
</g>
</svg>
