<?xml version="1.0" encoding="UTF-8" standalone="no"?>
<!DOCTYPE svg PUBLIC "-//W3C//DTD SVG 1.1//EN"
 "http://www.w3.org/Graphics/SVG/1.1/DTD/svg11.dtd">
<!-- Generated by graphviz version 2.43.0 (0)
 -->
<!-- Title: Ogre::v1::GL3PlusHardwareShaderStorageBuffer Pages: 1 -->
<svg width="150pt" height="212pt"
 viewBox="0.00 0.00 149.61 212.00" xmlns="http://www.w3.org/2000/svg" xmlns:xlink="http://www.w3.org/1999/xlink">
<g id="graph0" class="graph" transform="scale(1 1) rotate(0) translate(4 208)">
<title>Ogre::v1::GL3PlusHardwareShaderStorageBuffer</title>
<!-- Node1 -->
<g id="node1" class="node">
<title>Node1</title>
<g id="a_node1"><a xlink:title="Specialisation of HardwareUniformBuffer for the OpenGL Shader Storage Buffer.">
<polygon fill="#bfbfbf" stroke="black" points="0,-0.5 0,-28.5 141.61,-28.5 141.61,-0.5 0,-0.5"/>
<text text-anchor="start" x="8" y="-16.5" font-family="Helvetica,sans-Serif" font-size="10.00">Ogre::v1::GL3PlusHardware</text>
<text text-anchor="middle" x="70.81" y="-6.5" font-family="Helvetica,sans-Serif" font-size="10.00">ShaderStorageBuffer</text>
</a>
</g>
</g>
<!-- Node2 -->
<g id="node2" class="node">
<title>Node2</title>
<g id="a_node2"><a xlink:href="class_ogre_1_1v1_1_1_hardware_uniform_buffer.html" target="_top" xlink:title="Specialisation of HardwareBuffer for a uniform buffer.">
<polygon fill="none" stroke="black" points="1.67,-65.5 1.67,-93.5 139.94,-93.5 139.94,-65.5 1.67,-65.5"/>
<text text-anchor="start" x="9.67" y="-81.5" font-family="Helvetica,sans-Serif" font-size="10.00">Ogre::v1::HardwareUniform</text>
<text text-anchor="middle" x="70.81" y="-71.5" font-family="Helvetica,sans-Serif" font-size="10.00">Buffer</text>
</a>
</g>
</g>
<!-- Node2&#45;&gt;Node1 -->
<g id="edge1" class="edge">
<title>Node2&#45;&gt;Node1</title>
<path fill="none" stroke="midnightblue" d="M70.81,-55.16C70.81,-46.17 70.81,-36.22 70.81,-28.54"/>
<polygon fill="midnightblue" stroke="midnightblue" points="67.31,-55.45 70.81,-65.45 74.31,-55.45 67.31,-55.45"/>
</g>
<!-- Node3 -->
<g id="node3" class="node">
<title>Node3</title>
<g id="a_node3"><a xlink:href="class_ogre_1_1v1_1_1_hardware_buffer.html" target="_top" xlink:title="Abstract class defining common features of hardware buffers.">
<polygon fill="none" stroke="black" points="5.93,-130.5 5.93,-148.5 135.69,-148.5 135.69,-130.5 5.93,-130.5"/>
<text text-anchor="middle" x="70.81" y="-136.5" font-family="Helvetica,sans-Serif" font-size="10.00">Ogre::v1::HardwareBuffer</text>
</a>
</g>
</g>
<!-- Node3&#45;&gt;Node2 -->
<g id="edge2" class="edge">
<title>Node3&#45;&gt;Node2</title>
<path fill="none" stroke="midnightblue" d="M70.81,-120.32C70.81,-111.75 70.81,-101.7 70.81,-93.84"/>
<polygon fill="midnightblue" stroke="midnightblue" points="67.31,-120.44 70.81,-130.44 74.31,-120.44 67.31,-120.44"/>
</g>
<!-- Node4 -->
<g id="node4" class="node">
<title>Node4</title>
<g id="a_node4"><a xlink:href="class_ogre_1_1_allocated_object.html" target="_top" xlink:title="Superclass for all objects that wish to use custom memory allocators when their new / delete operator...">
<polygon fill="none" stroke="black" points="38.72,-185.5 38.72,-203.5 102.89,-203.5 102.89,-185.5 38.72,-185.5"/>
<text text-anchor="middle" x="70.81" y="-191.5" font-family="Helvetica,sans-Serif" font-size="10.00">BufferAlloc</text>
</a>
</g>
</g>
<!-- Node4&#45;&gt;Node3 -->
<g id="edge3" class="edge">
<title>Node4&#45;&gt;Node3</title>
<path fill="none" stroke="midnightblue" d="M70.81,-175.17C70.81,-166.09 70.81,-155.59 70.81,-148.55"/>
<polygon fill="midnightblue" stroke="midnightblue" points="67.31,-175.22 70.81,-185.22 74.31,-175.22 67.31,-175.22"/>
</g>
</g>
</svg>
