<?xml version="1.0" encoding="UTF-8" standalone="no"?>
<!DOCTYPE svg PUBLIC "-//W3C//DTD SVG 1.1//EN"
 "http://www.w3.org/Graphics/SVG/1.1/DTD/svg11.dtd">
<!-- Generated by graphviz version 2.43.0 (0)
 -->
<!-- Title: Ogre::AbstractNode Pages: 1 -->
<svg width="455pt" height="175pt"
 viewBox="0.00 0.00 455.19 175.00" xmlns="http://www.w3.org/2000/svg" xmlns:xlink="http://www.w3.org/1999/xlink">
<g id="graph0" class="graph" transform="scale(1 1) rotate(0) translate(4 171)">
<title>Ogre::AbstractNode</title>
<!-- Node1 -->
<g id="node1" class="node">
<title>Node1</title>
<g id="a_node1"><a xlink:title=" ">
<polygon fill="#bfbfbf" stroke="black" points="134.26,-74.5 134.26,-92.5 238.63,-92.5 238.63,-74.5 134.26,-74.5"/>
<text text-anchor="middle" x="186.45" y="-80.5" font-family="Helvetica,sans-Serif" font-size="10.00">Ogre::AbstractNode</text>
</a>
</g>
</g>
<!-- Node3 -->
<g id="node3" class="node">
<title>Node3</title>
<g id="a_node3"><a xlink:href="class_ogre_1_1_atom_abstract_node.html" target="_top" xlink:title="This is an abstract node which cannot be broken down further.">
<polygon fill="none" stroke="black" points="297.06,-148.5 297.06,-166.5 424.77,-166.5 424.77,-148.5 297.06,-148.5"/>
<text text-anchor="middle" x="360.91" y="-154.5" font-family="Helvetica,sans-Serif" font-size="10.00">Ogre::AtomAbstractNode</text>
</a>
</g>
</g>
<!-- Node1&#45;&gt;Node3 -->
<g id="edge2" class="edge">
<title>Node1&#45;&gt;Node3</title>
<path fill="none" stroke="midnightblue" d="M206.54,-98.68C223.49,-111.42 249.41,-129.15 274.63,-139.5 283.45,-143.12 293.1,-146.05 302.62,-148.41"/>
<polygon fill="midnightblue" stroke="midnightblue" points="208.61,-95.86 198.55,-92.54 204.34,-101.41 208.61,-95.86"/>
</g>
<!-- Node4 -->
<g id="node4" class="node">
<title>Node4</title>
<g id="a_node4"><a xlink:href="class_ogre_1_1_import_abstract_node.html" target="_top" xlink:title="This abstract node represents an import statement.">
<polygon fill="none" stroke="black" points="294.56,-111.5 294.56,-129.5 427.27,-129.5 427.27,-111.5 294.56,-111.5"/>
<text text-anchor="middle" x="360.91" y="-117.5" font-family="Helvetica,sans-Serif" font-size="10.00">Ogre::ImportAbstractNode</text>
</a>
</g>
</g>
<!-- Node1&#45;&gt;Node4 -->
<g id="edge3" class="edge">
<title>Node1&#45;&gt;Node4</title>
<path fill="none" stroke="midnightblue" d="M238.81,-94.75C250.58,-97.31 263.04,-100.01 274.63,-102.5 288.39,-105.45 303.41,-108.63 316.96,-111.49"/>
<polygon fill="midnightblue" stroke="midnightblue" points="239.2,-91.25 228.68,-92.54 237.71,-98.09 239.2,-91.25"/>
</g>
<!-- Node5 -->
<g id="node5" class="node">
<title>Node5</title>
<g id="a_node5"><a xlink:href="class_ogre_1_1_object_abstract_node.html" target="_top" xlink:title="This specific abstract node represents a script object.">
<polygon fill="none" stroke="black" points="294.28,-74.5 294.28,-92.5 427.55,-92.5 427.55,-74.5 294.28,-74.5"/>
<text text-anchor="middle" x="360.91" y="-80.5" font-family="Helvetica,sans-Serif" font-size="10.00">Ogre::ObjectAbstractNode</text>
</a>
</g>
</g>
<!-- Node1&#45;&gt;Node5 -->
<g id="edge4" class="edge">
<title>Node1&#45;&gt;Node5</title>
<path fill="none" stroke="midnightblue" d="M249.14,-83.5C263.73,-83.5 279.34,-83.5 294.11,-83.5"/>
<polygon fill="midnightblue" stroke="midnightblue" points="248.73,-80 238.73,-83.5 248.73,-87 248.73,-80"/>
</g>
<!-- Node6 -->
<g id="node6" class="node">
<title>Node6</title>
<g id="a_node6"><a xlink:href="class_ogre_1_1_property_abstract_node.html" target="_top" xlink:title="This abstract node represents a script property.">
<polygon fill="none" stroke="black" points="289.83,-37.5 289.83,-55.5 432,-55.5 432,-37.5 289.83,-37.5"/>
<text text-anchor="middle" x="360.91" y="-43.5" font-family="Helvetica,sans-Serif" font-size="10.00">Ogre::PropertyAbstractNode</text>
</a>
</g>
</g>
<!-- Node1&#45;&gt;Node6 -->
<g id="edge5" class="edge">
<title>Node1&#45;&gt;Node6</title>
<path fill="none" stroke="midnightblue" d="M238.81,-72.25C250.58,-69.69 263.04,-66.99 274.63,-64.5 288.39,-61.55 303.41,-58.37 316.96,-55.51"/>
<polygon fill="midnightblue" stroke="midnightblue" points="237.71,-68.91 228.68,-74.46 239.2,-75.75 237.71,-68.91"/>
</g>
<!-- Node7 -->
<g id="node7" class="node">
<title>Node7</title>
<g id="a_node7"><a xlink:href="class_ogre_1_1_variable_access_abstract_node.html" target="_top" xlink:title="This abstract node represents a variable assignment.">
<polygon fill="none" stroke="black" points="274.63,-0.5 274.63,-18.5 447.19,-18.5 447.19,-0.5 274.63,-0.5"/>
<text text-anchor="middle" x="360.91" y="-6.5" font-family="Helvetica,sans-Serif" font-size="10.00">Ogre::VariableAccessAbstractNode</text>
</a>
</g>
</g>
<!-- Node1&#45;&gt;Node7 -->
<g id="edge6" class="edge">
<title>Node1&#45;&gt;Node7</title>
<path fill="none" stroke="midnightblue" d="M206.54,-68.32C223.49,-55.58 249.41,-37.85 274.63,-27.5 283.45,-23.88 293.1,-20.95 302.62,-18.59"/>
<polygon fill="midnightblue" stroke="midnightblue" points="204.34,-65.59 198.55,-74.46 208.61,-71.14 204.34,-65.59"/>
</g>
<!-- Node2 -->
<g id="node2" class="node">
<title>Node2</title>
<g id="a_node2"><a xlink:href="class_ogre_1_1_allocated_object.html" target="_top" xlink:title="Superclass for all objects that wish to use custom memory allocators when their new / delete operator...">
<polygon fill="none" stroke="black" points="0,-74.5 0,-92.5 98.26,-92.5 98.26,-74.5 0,-74.5"/>
<text text-anchor="middle" x="49.13" y="-80.5" font-family="Helvetica,sans-Serif" font-size="10.00">AbstractNodeAlloc</text>
</a>
</g>
</g>
<!-- Node2&#45;&gt;Node1 -->
<g id="edge1" class="edge">
<title>Node2&#45;&gt;Node1</title>
<path fill="none" stroke="midnightblue" d="M108.76,-83.5C117.2,-83.5 125.83,-83.5 134.12,-83.5"/>
<polygon fill="midnightblue" stroke="midnightblue" points="108.6,-80 98.6,-83.5 108.6,-87 108.6,-80"/>
</g>
</g>
</svg>
