<?xml version="1.0" encoding="UTF-8" standalone="no"?>
<!DOCTYPE svg PUBLIC "-//W3C//DTD SVG 1.1//EN"
 "http://www.w3.org/Graphics/SVG/1.1/DTD/svg11.dtd">
<!-- Generated by graphviz version 2.43.0 (0)
 -->
<!-- Title: Ogre::D3D11DeviceResource Pages: 1 -->
<svg width="560pt" height="177pt"
 viewBox="0.00 0.00 560.44 177.00" xmlns="http://www.w3.org/2000/svg" xmlns:xlink="http://www.w3.org/1999/xlink">
<g id="graph0" class="graph" transform="scale(1 1) rotate(0) translate(4 173)">
<title>Ogre::D3D11DeviceResource</title>
<!-- Node1 -->
<g id="node1" class="node">
<title>Node1</title>
<g id="a_node1"><a xlink:title="Represents a Direct3D rendering resource.">
<polygon fill="#bfbfbf" stroke="black" points="0,-94.5 0,-112.5 147.54,-112.5 147.54,-94.5 0,-94.5"/>
<text text-anchor="middle" x="73.77" y="-100.5" font-family="Helvetica,sans-Serif" font-size="10.00">Ogre::D3D11DeviceResource</text>
</a>
</g>
</g>
<!-- Node2 -->
<g id="node2" class="node">
<title>Node2</title>
<g id="a_node2"><a xlink:href="class_ogre_1_1_d3_d11_h_l_s_l_program.html" target="_top" xlink:title="Specialization of HighLevelGpuProgram to provide support for D3D11 High&#45;Level Shader Language (HLSL).">
<polygon fill="none" stroke="black" points="197.44,-150.5 197.44,-168.5 334.98,-168.5 334.98,-150.5 197.44,-150.5"/>
<text text-anchor="middle" x="266.21" y="-156.5" font-family="Helvetica,sans-Serif" font-size="10.00">Ogre::D3D11HLSLProgram</text>
</a>
</g>
</g>
<!-- Node1&#45;&gt;Node2 -->
<g id="edge1" class="edge">
<title>Node1&#45;&gt;Node2</title>
<path fill="none" stroke="#8b1a1a" d="M107.86,-116.21C129.25,-124.14 157.79,-134.19 183.54,-141.5 195.14,-144.79 207.8,-147.84 219.61,-150.46"/>
<polygon fill="#8b1a1a" stroke="#8b1a1a" points="108.87,-112.85 98.28,-112.62 106.41,-119.41 108.87,-112.85"/>
</g>
<!-- Node3 -->
<g id="node3" class="node">
<title>Node3</title>
<g id="a_node3"><a xlink:href="class_ogre_1_1_d3_d11_render_texture.html" target="_top" xlink:title="RenderTexture implementation for D3D11.">
<polygon fill="none" stroke="black" points="196.33,-113.5 196.33,-131.5 336.1,-131.5 336.1,-113.5 196.33,-113.5"/>
<text text-anchor="middle" x="266.21" y="-119.5" font-family="Helvetica,sans-Serif" font-size="10.00">Ogre::D3D11RenderTexture</text>
</a>
</g>
</g>
<!-- Node1&#45;&gt;Node3 -->
<g id="edge2" class="edge">
<title>Node1&#45;&gt;Node3</title>
<path fill="none" stroke="#8b1a1a" d="M157.78,-111.78C170.61,-113.06 183.73,-114.37 196.2,-115.61"/>
<polygon fill="#8b1a1a" stroke="#8b1a1a" points="157.88,-108.27 147.58,-110.76 157.19,-115.24 157.88,-108.27"/>
</g>
<!-- Node4 -->
<g id="node4" class="node">
<title>Node4</title>
<g id="a_node4"><a xlink:href="class_ogre_1_1_d3_d11_render_window_base.html" target="_top" xlink:title=" ">
<polygon fill="none" stroke="black" points="183.54,-76.5 183.54,-94.5 348.88,-94.5 348.88,-76.5 183.54,-76.5"/>
<text text-anchor="middle" x="266.21" y="-82.5" font-family="Helvetica,sans-Serif" font-size="10.00">Ogre::D3D11RenderWindowBase</text>
</a>
</g>
</g>
<!-- Node1&#45;&gt;Node4 -->
<g id="edge3" class="edge">
<title>Node1&#45;&gt;Node4</title>
<path fill="none" stroke="#8b1a1a" d="M157.6,-95.67C166.21,-94.86 174.95,-94.03 183.54,-93.22"/>
<polygon fill="#8b1a1a" stroke="#8b1a1a" points="157.21,-92.19 147.58,-96.62 157.87,-99.16 157.21,-92.19"/>
</g>
<!-- Node6 -->
<g id="node6" class="node">
<title>Node6</title>
<g id="a_node6"><a xlink:href="class_ogre_1_1_d3_d11_texture.html" target="_top" xlink:title=" ">
<polygon fill="none" stroke="black" points="212.73,-37.5 212.73,-55.5 319.7,-55.5 319.7,-37.5 212.73,-37.5"/>
<text text-anchor="middle" x="266.21" y="-43.5" font-family="Helvetica,sans-Serif" font-size="10.00">Ogre::D3D11Texture</text>
</a>
</g>
</g>
<!-- Node1&#45;&gt;Node6 -->
<g id="edge5" class="edge">
<title>Node1&#45;&gt;Node6</title>
<path fill="none" stroke="#8b1a1a" d="M110.1,-91.13C131.29,-83.88 158.83,-74.76 183.54,-67.5 197.87,-63.29 213.75,-59.1 227.66,-55.59"/>
<polygon fill="#8b1a1a" stroke="#8b1a1a" points="108.87,-87.86 100.55,-94.42 111.14,-94.47 108.87,-87.86"/>
</g>
<!-- Node5 -->
<g id="node5" class="node">
<title>Node5</title>
<g id="a_node5"><a xlink:href="class_ogre_1_1_d3_d11_render_window_swap_chain_based.html" target="_top" xlink:title=" ">
<polygon fill="none" stroke="black" points="384.88,-74.5 384.88,-102.5 552.44,-102.5 552.44,-74.5 384.88,-74.5"/>
<text text-anchor="start" x="392.88" y="-90.5" font-family="Helvetica,sans-Serif" font-size="10.00">Ogre::D3D11RenderWindowSwap</text>
<text text-anchor="middle" x="468.66" y="-80.5" font-family="Helvetica,sans-Serif" font-size="10.00">ChainBased</text>
</a>
</g>
</g>
<!-- Node4&#45;&gt;Node5 -->
<g id="edge4" class="edge">
<title>Node4&#45;&gt;Node5</title>
<path fill="none" stroke="midnightblue" d="M359.05,-86.87C367.64,-87 376.31,-87.13 384.8,-87.26"/>
<polygon fill="midnightblue" stroke="midnightblue" points="359.08,-83.37 349.03,-86.72 358.98,-90.37 359.08,-83.37"/>
</g>
<!-- Node7 -->
<g id="node7" class="node">
<title>Node7</title>
<g id="a_node7"><a xlink:href="class_ogre_1_1_d3_d11_depth_texture.html" target="_top" xlink:title=" ">
<polygon fill="none" stroke="black" points="401.83,-37.5 401.83,-55.5 535.49,-55.5 535.49,-37.5 401.83,-37.5"/>
<text text-anchor="middle" x="468.66" y="-43.5" font-family="Helvetica,sans-Serif" font-size="10.00">Ogre::D3D11DepthTexture</text>
</a>
</g>
</g>
<!-- Node6&#45;&gt;Node7 -->
<g id="edge6" class="edge">
<title>Node6&#45;&gt;Node7</title>
<path fill="none" stroke="midnightblue" d="M330.11,-46.5C352.89,-46.5 378.68,-46.5 401.71,-46.5"/>
<polygon fill="midnightblue" stroke="midnightblue" points="329.88,-43 319.88,-46.5 329.88,-50 329.88,-43"/>
</g>
<!-- Node8 -->
<g id="node8" class="node">
<title>Node8</title>
<g id="a_node8"><a xlink:href="class_ogre_1_1_d3_d11_null_texture.html" target="_top" xlink:title=" ">
<polygon fill="none" stroke="black" points="406.56,-0.5 406.56,-18.5 530.76,-18.5 530.76,-0.5 406.56,-0.5"/>
<text text-anchor="middle" x="468.66" y="-6.5" font-family="Helvetica,sans-Serif" font-size="10.00">Ogre::D3D11NullTexture</text>
</a>
</g>
</g>
<!-- Node6&#45;&gt;Node8 -->
<g id="edge7" class="edge">
<title>Node6&#45;&gt;Node8</title>
<path fill="none" stroke="midnightblue" d="M326.14,-35.62C355.56,-30.19 390.74,-23.7 418.66,-18.54"/>
<polygon fill="midnightblue" stroke="midnightblue" points="325.19,-32.24 315.99,-37.5 326.46,-39.12 325.19,-32.24"/>
</g>
</g>
</svg>
