<?xml version="1.0" encoding="UTF-8" standalone="no"?>
<!DOCTYPE svg PUBLIC "-//W3C//DTD SVG 1.1//EN"
 "http://www.w3.org/Graphics/SVG/1.1/DTD/svg11.dtd">
<!-- Generated by graphviz version 2.43.0 (0)
 -->
<!-- Title: Ogre::FrameTimeControllerValue Pages: 1 -->
<svg width="246pt" height="157pt"
 viewBox="0.00 0.00 246.12 157.00" xmlns="http://www.w3.org/2000/svg" xmlns:xlink="http://www.w3.org/1999/xlink">
<g id="graph0" class="graph" transform="scale(1 1) rotate(0) translate(4 153)">
<title>Ogre::FrameTimeControllerValue</title>
<!-- Node1 -->
<g id="node1" class="node">
<title>Node1</title>
<g id="a_node1"><a xlink:title="Predefined controller value for getting the latest frame time.">
<polygon fill="#bfbfbf" stroke="black" points="51.05,-0.5 51.05,-28.5 188.93,-28.5 188.93,-0.5 51.05,-0.5"/>
<text text-anchor="start" x="59.05" y="-16.5" font-family="Helvetica,sans-Serif" font-size="10.00">Ogre::FrameTimeController</text>
<text text-anchor="middle" x="119.99" y="-6.5" font-family="Helvetica,sans-Serif" font-size="10.00">Value</text>
</a>
</g>
</g>
<!-- Node2 -->
<g id="node2" class="node">
<title>Node2</title>
<g id="a_node2"><a xlink:href="class_ogre_1_1_controller_value.html" target="_top" xlink:title=" ">
<polygon fill="none" stroke="black" points="0,-65.5 0,-93.5 111.98,-93.5 111.98,-65.5 0,-65.5"/>
<text text-anchor="start" x="8" y="-81.5" font-family="Helvetica,sans-Serif" font-size="10.00">Ogre::ControllerValue</text>
<text text-anchor="middle" x="55.99" y="-71.5" font-family="Helvetica,sans-Serif" font-size="10.00">&lt; Real &gt;</text>
</a>
</g>
</g>
<!-- Node2&#45;&gt;Node1 -->
<g id="edge1" class="edge">
<title>Node2&#45;&gt;Node1</title>
<path fill="none" stroke="midnightblue" d="M76.43,-58.38C86.36,-48.61 98,-37.15 106.74,-28.54"/>
<polygon fill="midnightblue" stroke="midnightblue" points="73.92,-55.94 69.25,-65.45 78.83,-60.93 73.92,-55.94"/>
</g>
<!-- Node3 -->
<g id="node3" class="node">
<title>Node3</title>
<g id="a_node3"><a xlink:href="class_ogre_1_1_allocated_object.html" target="_top" xlink:title="Superclass for all objects that wish to use custom memory allocators when their new / delete operator...">
<polygon fill="none" stroke="black" points="15.48,-130.5 15.48,-148.5 96.5,-148.5 96.5,-130.5 15.48,-130.5"/>
<text text-anchor="middle" x="55.99" y="-136.5" font-family="Helvetica,sans-Serif" font-size="10.00">ControllerAlloc</text>
</a>
</g>
</g>
<!-- Node3&#45;&gt;Node2 -->
<g id="edge2" class="edge">
<title>Node3&#45;&gt;Node2</title>
<path fill="none" stroke="midnightblue" d="M55.99,-120.32C55.99,-111.75 55.99,-101.7 55.99,-93.84"/>
<polygon fill="midnightblue" stroke="midnightblue" points="52.49,-120.44 55.99,-130.44 59.49,-120.44 52.49,-120.44"/>
</g>
<!-- Node4 -->
<g id="node4" class="node">
<title>Node4</title>
<g id="a_node4"><a xlink:href="class_ogre_1_1_frame_listener.html" target="_top" xlink:title="A interface class defining a listener which can be used to receive notifications of frame events.">
<polygon fill="none" stroke="black" points="129.86,-70.5 129.86,-88.5 238.12,-88.5 238.12,-70.5 129.86,-70.5"/>
<text text-anchor="middle" x="183.99" y="-76.5" font-family="Helvetica,sans-Serif" font-size="10.00">Ogre::FrameListener</text>
</a>
</g>
</g>
<!-- Node4&#45;&gt;Node1 -->
<g id="edge3" class="edge">
<title>Node4&#45;&gt;Node1</title>
<path fill="none" stroke="midnightblue" d="M168.23,-62.98C157.57,-52.49 143.65,-38.79 133.5,-28.8"/>
<polygon fill="midnightblue" stroke="midnightblue" points="166.04,-65.74 175.62,-70.26 170.95,-60.75 166.04,-65.74"/>
</g>
</g>
</svg>
