<?xml version="1.0" encoding="UTF-8" standalone="no"?>
<!DOCTYPE svg PUBLIC "-//W3C//DTD SVG 1.1//EN"
 "http://www.w3.org/Graphics/SVG/1.1/DTD/svg11.dtd">
<!-- Generated by graphviz version 2.43.0 (0)
 -->
<!-- Title: Ogre::GTKGLSupport Pages: 1 -->
<svg width="314pt" height="82pt"
 viewBox="0.00 0.00 314.41 82.00" xmlns="http://www.w3.org/2000/svg" xmlns:xlink="http://www.w3.org/1999/xlink">
<g id="graph0" class="graph" transform="scale(1 1) rotate(0) translate(4 78)">
<title>Ogre::GTKGLSupport</title>
<!-- Node1 -->
<g id="node1" class="node">
<title>Node1</title>
<g id="a_node1"><a xlink:title="GL support in a GTK window.">
<polygon fill="#bfbfbf" stroke="black" points="83.23,-0.5 83.23,-18.5 195.94,-18.5 195.94,-0.5 83.23,-0.5"/>
<text text-anchor="middle" x="139.58" y="-6.5" font-family="Helvetica,sans-Serif" font-size="10.00">Ogre::GTKGLSupport</text>
</a>
</g>
</g>
<!-- Node2 -->
<g id="node2" class="node">
<title>Node2</title>
<g id="a_node2"><a xlink:href="class_ogre_1_1_g_l3_plus_support.html" target="_top" xlink:title=" ">
<polygon fill="none" stroke="black" points="0,-55.5 0,-73.5 117.17,-73.5 117.17,-55.5 0,-55.5"/>
<text text-anchor="middle" x="58.58" y="-61.5" font-family="Helvetica,sans-Serif" font-size="10.00">Ogre::GL3PlusSupport</text>
</a>
</g>
</g>
<!-- Node2&#45;&gt;Node1 -->
<g id="edge1" class="edge">
<title>Node2&#45;&gt;Node1</title>
<path fill="none" stroke="midnightblue" d="M79.56,-49.77C94.66,-39.89 114.51,-26.9 127.17,-18.63"/>
<polygon fill="midnightblue" stroke="midnightblue" points="77.34,-47.05 70.89,-55.45 81.17,-52.9 77.34,-47.05"/>
</g>
<!-- Node3 -->
<g id="node3" class="node">
<title>Node3</title>
<g id="a_node3"><a xlink:href="class_ogre_1_1_singleton.html" target="_top" xlink:title=" ">
<polygon fill="none" stroke="black" points="134.76,-55.5 134.76,-73.5 306.41,-73.5 306.41,-55.5 134.76,-55.5"/>
<text text-anchor="middle" x="220.58" y="-61.5" font-family="Helvetica,sans-Serif" font-size="10.00">Ogre::Singleton&lt; GTKGLSupport &gt;</text>
</a>
</g>
</g>
<!-- Node3&#45;&gt;Node1 -->
<g id="edge2" class="edge">
<title>Node3&#45;&gt;Node1</title>
<path fill="none" stroke="midnightblue" d="M199.6,-49.77C184.51,-39.89 164.65,-26.9 152,-18.63"/>
<polygon fill="midnightblue" stroke="midnightblue" points="198,-52.9 208.28,-55.45 201.83,-47.05 198,-52.9"/>
</g>
</g>
</svg>
