<?xml version="1.0" encoding="UTF-8" standalone="no"?>
<!DOCTYPE svg PUBLIC "-//W3C//DTD SVG 1.1//EN"
 "http://www.w3.org/Graphics/SVG/1.1/DTD/svg11.dtd">
<!-- Generated by graphviz version 2.43.0 (0)
 -->
<!-- Title: Ogre::ResourceGroupManager Pages: 1 -->
<svg width="244pt" height="92pt"
 viewBox="0.00 0.00 243.69 92.00" xmlns="http://www.w3.org/2000/svg" xmlns:xlink="http://www.w3.org/1999/xlink">
<g id="graph0" class="graph" transform="scale(1 1) rotate(0) translate(4 88)">
<title>Ogre::ResourceGroupManager</title>
<!-- Node1 -->
<g id="node1" class="node">
<title>Node1</title>
<g id="a_node1"><a xlink:title="This singleton class manages the list of resource groups, and notifying the various resource managers...">
<polygon fill="#bfbfbf" stroke="black" points="54.53,-0.5 54.53,-18.5 208.38,-18.5 208.38,-0.5 54.53,-0.5"/>
<text text-anchor="middle" x="131.45" y="-6.5" font-family="Helvetica,sans-Serif" font-size="10.00">Ogre::ResourceGroupManager</text>
</a>
</g>
</g>
<!-- Node2 -->
<g id="node2" class="node">
<title>Node2</title>
<g id="a_node2"><a xlink:href="class_ogre_1_1_singleton.html" target="_top" xlink:title=" ">
<polygon fill="none" stroke="black" points="0,-55.5 0,-83.5 136.9,-83.5 136.9,-55.5 0,-55.5"/>
<text text-anchor="start" x="8" y="-71.5" font-family="Helvetica,sans-Serif" font-size="10.00">Ogre::Singleton&lt; Resource</text>
<text text-anchor="middle" x="68.45" y="-61.5" font-family="Helvetica,sans-Serif" font-size="10.00">GroupManager &gt;</text>
</a>
</g>
</g>
<!-- Node2&#45;&gt;Node1 -->
<g id="edge1" class="edge">
<title>Node2&#45;&gt;Node1</title>
<path fill="none" stroke="midnightblue" d="M90.38,-48.32C101.39,-38.18 114.13,-26.45 122.47,-18.77"/>
<polygon fill="midnightblue" stroke="midnightblue" points="87.73,-45.99 82.75,-55.34 92.47,-51.14 87.73,-45.99"/>
</g>
<!-- Node3 -->
<g id="node3" class="node">
<title>Node3</title>
<g id="a_node3"><a xlink:href="class_ogre_1_1_allocated_object.html" target="_top" xlink:title="Superclass for all objects that wish to use custom memory allocators when their new / delete operator...">
<polygon fill="none" stroke="black" points="155.22,-60.5 155.22,-78.5 235.69,-78.5 235.69,-60.5 155.22,-60.5"/>
<text text-anchor="middle" x="195.45" y="-66.5" font-family="Helvetica,sans-Serif" font-size="10.00">ResourceAlloc</text>
</a>
</g>
</g>
<!-- Node3&#45;&gt;Node1 -->
<g id="edge2" class="edge">
<title>Node3&#45;&gt;Node1</title>
<path fill="none" stroke="midnightblue" d="M178.88,-53.48C166.72,-42.46 150.65,-27.9 140.69,-18.87"/>
<polygon fill="midnightblue" stroke="midnightblue" points="176.79,-56.31 186.55,-60.44 181.49,-51.13 176.79,-56.31"/>
</g>
</g>
</svg>
