<?xml version="1.0" encoding="UTF-8" standalone="no"?>
<!DOCTYPE svg PUBLIC "-//W3C//DTD SVG 1.1//EN"
 "http://www.w3.org/Graphics/SVG/1.1/DTD/svg11.dtd">
<!-- Generated by graphviz version 2.43.0 (0)
 -->
<!-- Title: Ogre::v1::ManualObjectFactory Pages: 1 -->
<svg width="163pt" height="137pt"
 viewBox="0.00 0.00 162.95 137.00" xmlns="http://www.w3.org/2000/svg" xmlns:xlink="http://www.w3.org/1999/xlink">
<g id="graph0" class="graph" transform="scale(1 1) rotate(0) translate(4 133)">
<title>Ogre::v1::ManualObjectFactory</title>
<!-- Node1 -->
<g id="node1" class="node">
<title>Node1</title>
<g id="a_node1"><a xlink:title="Factory object for creating ManualObject instances.">
<polygon fill="#bfbfbf" stroke="black" points="0,-0.5 0,-18.5 154.95,-18.5 154.95,-0.5 0,-0.5"/>
<text text-anchor="middle" x="77.47" y="-6.5" font-family="Helvetica,sans-Serif" font-size="10.00">Ogre::v1::ManualObjectFactory</text>
</a>
</g>
</g>
<!-- Node2 -->
<g id="node2" class="node">
<title>Node2</title>
<g id="a_node2"><a xlink:href="class_ogre_1_1_movable_object_factory.html" target="_top" xlink:title="Interface definition for a factory class which produces a certain kind of MovableObject,...">
<polygon fill="none" stroke="black" points="5.56,-55.5 5.56,-73.5 149.39,-73.5 149.39,-55.5 5.56,-55.5"/>
<text text-anchor="middle" x="77.47" y="-61.5" font-family="Helvetica,sans-Serif" font-size="10.00">Ogre::MovableObjectFactory</text>
</a>
</g>
</g>
<!-- Node2&#45;&gt;Node1 -->
<g id="edge1" class="edge">
<title>Node2&#45;&gt;Node1</title>
<path fill="none" stroke="midnightblue" d="M77.47,-45.17C77.47,-36.09 77.47,-25.59 77.47,-18.55"/>
<polygon fill="midnightblue" stroke="midnightblue" points="73.97,-45.22 77.47,-55.22 80.97,-45.22 73.97,-45.22"/>
</g>
<!-- Node3 -->
<g id="node3" class="node">
<title>Node3</title>
<g id="a_node3"><a xlink:href="class_ogre_1_1_allocated_object.html" target="_top" xlink:title="Superclass for all objects that wish to use custom memory allocators when their new / delete operator...">
<polygon fill="none" stroke="black" points="39.74,-110.5 39.74,-128.5 115.21,-128.5 115.21,-110.5 39.74,-110.5"/>
<text text-anchor="middle" x="77.47" y="-116.5" font-family="Helvetica,sans-Serif" font-size="10.00">MovableAlloc</text>
</a>
</g>
</g>
<!-- Node3&#45;&gt;Node2 -->
<g id="edge2" class="edge">
<title>Node3&#45;&gt;Node2</title>
<path fill="none" stroke="midnightblue" d="M77.47,-100.17C77.47,-91.09 77.47,-80.59 77.47,-73.55"/>
<polygon fill="midnightblue" stroke="midnightblue" points="73.97,-100.22 77.47,-110.22 80.97,-100.22 73.97,-100.22"/>
</g>
</g>
</svg>
