<?xml version="1.0" encoding="UTF-8" standalone="no"?>
<!DOCTYPE svg PUBLIC "-//W3C//DTD SVG 1.1//EN"
 "http://www.w3.org/Graphics/SVG/1.1/DTD/svg11.dtd">
<!-- Generated by graphviz version 2.43.0 (0)
 -->
<!-- Title: Ogre::GLES2FBOManager Pages: 1 -->
<svg width="202pt" height="137pt"
 viewBox="0.00 0.00 201.70 137.00" xmlns="http://www.w3.org/2000/svg" xmlns:xlink="http://www.w3.org/1999/xlink">
<g id="graph0" class="graph" transform="scale(1 1) rotate(0) translate(4 133)">
<title>Ogre::GLES2FBOManager</title>
<!-- Node1 -->
<g id="node1" class="node">
<title>Node1</title>
<g id="a_node1"><a xlink:title="Factory for GL ES 2 Frame Buffer Objects, and related things.">
<polygon fill="#bfbfbf" stroke="black" points="28.82,-0.5 28.82,-18.5 164.87,-18.5 164.87,-0.5 28.82,-0.5"/>
<text text-anchor="middle" x="96.85" y="-6.5" font-family="Helvetica,sans-Serif" font-size="10.00">Ogre::GLES2FBOManager</text>
</a>
</g>
</g>
<!-- Node2 -->
<g id="node2" class="node">
<title>Node2</title>
<g id="a_node2"><a xlink:href="class_ogre_1_1_g_l_e_s2_r_t_t_manager.html" target="_top" xlink:title="Manager/factory for RenderTextures.">
<polygon fill="none" stroke="black" points="29.47,-55.5 29.47,-73.5 164.23,-73.5 164.23,-55.5 29.47,-55.5"/>
<text text-anchor="middle" x="96.85" y="-61.5" font-family="Helvetica,sans-Serif" font-size="10.00">Ogre::GLES2RTTManager</text>
</a>
</g>
</g>
<!-- Node2&#45;&gt;Node1 -->
<g id="edge1" class="edge">
<title>Node2&#45;&gt;Node1</title>
<path fill="none" stroke="midnightblue" d="M96.85,-45.17C96.85,-36.09 96.85,-25.59 96.85,-18.55"/>
<polygon fill="midnightblue" stroke="midnightblue" points="93.35,-45.22 96.85,-55.22 100.35,-45.22 93.35,-45.22"/>
</g>
<!-- Node3 -->
<g id="node3" class="node">
<title>Node3</title>
<g id="a_node3"><a xlink:href="class_ogre_1_1_singleton.html" target="_top" xlink:title=" ">
<polygon fill="none" stroke="black" points="0,-110.5 0,-128.5 193.7,-128.5 193.7,-110.5 0,-110.5"/>
<text text-anchor="middle" x="96.85" y="-116.5" font-family="Helvetica,sans-Serif" font-size="10.00">Ogre::Singleton&lt; GLES2RTTManager &gt;</text>
</a>
</g>
</g>
<!-- Node3&#45;&gt;Node2 -->
<g id="edge2" class="edge">
<title>Node3&#45;&gt;Node2</title>
<path fill="none" stroke="midnightblue" d="M96.85,-100.17C96.85,-91.09 96.85,-80.59 96.85,-73.55"/>
<polygon fill="midnightblue" stroke="midnightblue" points="93.35,-100.22 96.85,-110.22 100.35,-100.22 93.35,-100.22"/>
</g>
</g>
</svg>
