<?xml version="1.0" encoding="UTF-8" standalone="no"?>
<!DOCTYPE svg PUBLIC "-//W3C//DTD SVG 1.1//EN"
 "http://www.w3.org/Graphics/SVG/1.1/DTD/svg11.dtd">
<!-- Generated by graphviz version 2.43.0 (0)
 -->
<!-- Title: Ogre::LodCollapseCost Pages: 1 -->
<svg width="328pt" height="138pt"
 viewBox="0.00 0.00 327.80 138.00" xmlns="http://www.w3.org/2000/svg" xmlns:xlink="http://www.w3.org/1999/xlink">
<g id="graph0" class="graph" transform="scale(1 1) rotate(0) translate(4 134)">
<title>Ogre::LodCollapseCost</title>
<!-- Node1 -->
<g id="node1" class="node">
<title>Node1</title>
<g id="a_node1"><a xlink:title=" ">
<polygon fill="#bfbfbf" stroke="black" points="0,-55.5 0,-73.5 119.95,-73.5 119.95,-55.5 0,-55.5"/>
<text text-anchor="middle" x="59.97" y="-61.5" font-family="Helvetica,sans-Serif" font-size="10.00">Ogre::LodCollapseCost</text>
</a>
</g>
</g>
<!-- Node2 -->
<g id="node2" class="node">
<title>Node2</title>
<g id="a_node2"><a xlink:href="class_ogre_1_1_lod_collapse_cost_curvature.html" target="_top" xlink:title=" ">
<polygon fill="none" stroke="black" points="155.95,-111.5 155.95,-129.5 319.8,-129.5 319.8,-111.5 155.95,-111.5"/>
<text text-anchor="middle" x="237.87" y="-117.5" font-family="Helvetica,sans-Serif" font-size="10.00">Ogre::LodCollapseCostCurvature</text>
</a>
</g>
</g>
<!-- Node1&#45;&gt;Node2 -->
<g id="edge1" class="edge">
<title>Node1&#45;&gt;Node2</title>
<path fill="none" stroke="midnightblue" d="M90.37,-77.7C108.91,-85.66 133.51,-95.57 155.95,-102.5 166.95,-105.9 178.97,-108.93 190.31,-111.5"/>
<polygon fill="midnightblue" stroke="midnightblue" points="91.58,-74.4 81.01,-73.62 88.78,-80.82 91.58,-74.4"/>
</g>
<!-- Node3 -->
<g id="node3" class="node">
<title>Node3</title>
<g id="a_node3"><a xlink:href="class_ogre_1_1_lod_collapse_cost_outside.html" target="_top" xlink:title=" ">
<polygon fill="none" stroke="black" points="160.67,-74.5 160.67,-92.5 315.08,-92.5 315.08,-74.5 160.67,-74.5"/>
<text text-anchor="middle" x="237.87" y="-80.5" font-family="Helvetica,sans-Serif" font-size="10.00">Ogre::LodCollapseCostOutside</text>
</a>
</g>
</g>
<!-- Node1&#45;&gt;Node3 -->
<g id="edge2" class="edge">
<title>Node1&#45;&gt;Node3</title>
<path fill="none" stroke="midnightblue" d="M130.23,-71.98C140.16,-73.05 150.42,-74.16 160.47,-75.25"/>
<polygon fill="midnightblue" stroke="midnightblue" points="130.35,-68.47 120.03,-70.88 129.6,-75.43 130.35,-68.47"/>
</g>
<!-- Node4 -->
<g id="node4" class="node">
<title>Node4</title>
<g id="a_node4"><a xlink:href="class_ogre_1_1_lod_collapse_cost_profiler.html" target="_top" xlink:title=" ">
<polygon fill="none" stroke="black" points="162.06,-37.5 162.06,-55.5 313.68,-55.5 313.68,-37.5 162.06,-37.5"/>
<text text-anchor="middle" x="237.87" y="-43.5" font-family="Helvetica,sans-Serif" font-size="10.00">Ogre::LodCollapseCostProfiler</text>
</a>
</g>
</g>
<!-- Node1&#45;&gt;Node4 -->
<g id="edge3" class="edge">
<title>Node1&#45;&gt;Node4</title>
<path fill="none" stroke="midnightblue" d="M130.31,-57.4C140.72,-56.34 151.51,-55.24 162.03,-54.16"/>
<polygon fill="midnightblue" stroke="midnightblue" points="129.63,-53.96 120.03,-58.46 130.34,-60.92 129.63,-53.96"/>
</g>
<!-- Node5 -->
<g id="node5" class="node">
<title>Node5</title>
<g id="a_node5"><a xlink:href="class_ogre_1_1_lod_collapse_cost_quadric.html" target="_top" xlink:title=" ">
<polygon fill="none" stroke="black" points="160.39,-0.5 160.39,-18.5 315.35,-18.5 315.35,-0.5 160.39,-0.5"/>
<text text-anchor="middle" x="237.87" y="-6.5" font-family="Helvetica,sans-Serif" font-size="10.00">Ogre::LodCollapseCostQuadric</text>
</a>
</g>
</g>
<!-- Node1&#45;&gt;Node5 -->
<g id="edge4" class="edge">
<title>Node1&#45;&gt;Node5</title>
<path fill="none" stroke="midnightblue" d="M91.91,-51.59C110.3,-44.21 134.22,-35.14 155.95,-28.5 168.09,-24.79 181.45,-21.39 193.75,-18.51"/>
<polygon fill="midnightblue" stroke="midnightblue" points="90.52,-48.38 82.57,-55.38 93.15,-54.86 90.52,-48.38"/>
</g>
</g>
</svg>
