<?xml version="1.0" encoding="UTF-8" standalone="no"?>
<!DOCTYPE svg PUBLIC "-//W3C//DTD SVG 1.1//EN"
 "http://www.w3.org/Graphics/SVG/1.1/DTD/svg11.dtd">
<!-- Generated by graphviz version 2.43.0 (0)
 -->
<!-- Title: Ogre::RTShader::ProgramWriterManager Pages: 1 -->
<svg width="274pt" height="102pt"
 viewBox="0.00 0.00 274.43 102.00" xmlns="http://www.w3.org/2000/svg" xmlns:xlink="http://www.w3.org/1999/xlink">
<g id="graph0" class="graph" transform="scale(1 1) rotate(0) translate(4 98)">
<title>Ogre::RTShader::ProgramWriterManager</title>
<!-- Node1 -->
<g id="node1" class="node">
<title>Node1</title>
<g id="a_node1"><a xlink:title=" ">
<polygon fill="#bfbfbf" stroke="black" points="57.44,-0.5 57.44,-28.5 217.01,-28.5 217.01,-0.5 57.44,-0.5"/>
<text text-anchor="start" x="65.44" y="-16.5" font-family="Helvetica,sans-Serif" font-size="10.00">Ogre::RTShader::ProgramWriter</text>
<text text-anchor="middle" x="137.23" y="-6.5" font-family="Helvetica,sans-Serif" font-size="10.00">Manager</text>
</a>
</g>
</g>
<!-- Node2 -->
<g id="node2" class="node">
<title>Node2</title>
<g id="a_node2"><a xlink:href="class_ogre_1_1_singleton.html" target="_top" xlink:title=" ">
<polygon fill="none" stroke="black" points="0,-65.5 0,-93.5 132.45,-93.5 132.45,-65.5 0,-65.5"/>
<text text-anchor="start" x="8" y="-81.5" font-family="Helvetica,sans-Serif" font-size="10.00">Ogre::Singleton&lt; Program</text>
<text text-anchor="middle" x="66.23" y="-71.5" font-family="Helvetica,sans-Serif" font-size="10.00">WriterManager &gt;</text>
</a>
</g>
</g>
<!-- Node2&#45;&gt;Node1 -->
<g id="edge1" class="edge">
<title>Node2&#45;&gt;Node1</title>
<path fill="none" stroke="midnightblue" d="M88.58,-58.67C99.66,-48.83 112.73,-37.23 122.53,-28.54"/>
<polygon fill="midnightblue" stroke="midnightblue" points="86.09,-56.19 80.94,-65.45 90.74,-61.43 86.09,-56.19"/>
</g>
<!-- Node3 -->
<g id="node3" class="node">
<title>Node3</title>
<g id="a_node3"><a xlink:href="class_ogre_1_1_allocated_object.html" target="_top" xlink:title="Superclass for all objects that wish to use custom memory allocators when their new / delete operator...">
<polygon fill="none" stroke="black" points="150.02,-70.5 150.02,-88.5 266.43,-88.5 266.43,-70.5 150.02,-70.5"/>
<text text-anchor="middle" x="208.23" y="-76.5" font-family="Helvetica,sans-Serif" font-size="10.00">RTShaderSystemAlloc</text>
</a>
</g>
</g>
<!-- Node3&#45;&gt;Node1 -->
<g id="edge2" class="edge">
<title>Node3&#45;&gt;Node1</title>
<path fill="none" stroke="midnightblue" d="M191.38,-63.55C179.39,-52.91 163.43,-38.75 151.94,-28.56"/>
<polygon fill="midnightblue" stroke="midnightblue" points="189.14,-66.24 198.94,-70.26 193.79,-61.01 189.14,-66.24"/>
</g>
</g>
</svg>
