<?xml version="1.0" encoding="UTF-8" standalone="no"?>
<!DOCTYPE svg PUBLIC "-//W3C//DTD SVG 1.1//EN"
 "http://www.w3.org/Graphics/SVG/1.1/DTD/svg11.dtd">
<!-- Generated by graphviz version 2.43.0 (0)
 -->
<!-- Title: Ogre::BspSceneNode Pages: 1 -->
<svg width="168pt" height="192pt"
 viewBox="0.00 0.00 168.31 192.00" xmlns="http://www.w3.org/2000/svg" xmlns:xlink="http://www.w3.org/1999/xlink">
<g id="graph0" class="graph" transform="scale(1 1) rotate(0) translate(4 188)">
<title>Ogre::BspSceneNode</title>
<!-- Node1 -->
<g id="node1" class="node">
<title>Node1</title>
<g id="a_node1"><a xlink:title="Specialisation of SceneNode for the BspSceneManager.">
<polygon fill="#bfbfbf" stroke="black" points="18.15,-0.5 18.15,-18.5 131.43,-18.5 131.43,-0.5 18.15,-0.5"/>
<text text-anchor="middle" x="74.79" y="-6.5" font-family="Helvetica,sans-Serif" font-size="10.00">Ogre::BspSceneNode</text>
</a>
</g>
</g>
<!-- Node2 -->
<g id="node2" class="node">
<title>Node2</title>
<g id="a_node2"><a xlink:href="class_ogre_1_1_scene_node.html" target="_top" xlink:title="Class representing a node in the scene graph.">
<polygon fill="none" stroke="black" points="26.77,-55.5 26.77,-73.5 122.81,-73.5 122.81,-55.5 26.77,-55.5"/>
<text text-anchor="middle" x="74.79" y="-61.5" font-family="Helvetica,sans-Serif" font-size="10.00">Ogre::SceneNode</text>
</a>
</g>
</g>
<!-- Node2&#45;&gt;Node1 -->
<g id="edge1" class="edge">
<title>Node2&#45;&gt;Node1</title>
<path fill="none" stroke="midnightblue" d="M74.79,-45.17C74.79,-36.09 74.79,-25.59 74.79,-18.55"/>
<polygon fill="midnightblue" stroke="midnightblue" points="71.29,-45.22 74.79,-55.22 78.29,-45.22 71.29,-45.22"/>
</g>
<!-- Node3 -->
<g id="node3" class="node">
<title>Node3</title>
<g id="a_node3"><a xlink:href="class_ogre_1_1_node.html" target="_top" xlink:title="Class representing a general&#45;purpose node an articulated scene graph.">
<polygon fill="none" stroke="black" points="40.94,-110.5 40.94,-128.5 108.64,-128.5 108.64,-110.5 40.94,-110.5"/>
<text text-anchor="middle" x="74.79" y="-116.5" font-family="Helvetica,sans-Serif" font-size="10.00">Ogre::Node</text>
</a>
</g>
</g>
<!-- Node3&#45;&gt;Node2 -->
<g id="edge2" class="edge">
<title>Node3&#45;&gt;Node2</title>
<path fill="none" stroke="midnightblue" d="M74.79,-100.17C74.79,-91.09 74.79,-80.59 74.79,-73.55"/>
<polygon fill="midnightblue" stroke="midnightblue" points="71.29,-100.22 74.79,-110.22 78.29,-100.22 71.29,-100.22"/>
</g>
<!-- Node4 -->
<g id="node4" class="node">
<title>Node4</title>
<g id="a_node4"><a xlink:href="class_ogre_1_1_allocated_object.html" target="_top" xlink:title="Superclass for all objects that wish to use custom memory allocators when their new / delete operator...">
<polygon fill="none" stroke="black" points="0,-165.5 0,-183.5 61.58,-183.5 61.58,-165.5 0,-165.5"/>
<text text-anchor="middle" x="30.79" y="-171.5" font-family="Helvetica,sans-Serif" font-size="10.00">NodeAlloc</text>
</a>
</g>
</g>
<!-- Node4&#45;&gt;Node3 -->
<g id="edge3" class="edge">
<title>Node4&#45;&gt;Node3</title>
<path fill="none" stroke="midnightblue" d="M44.29,-157.24C52.18,-147.73 61.81,-136.14 68.11,-128.55"/>
<polygon fill="midnightblue" stroke="midnightblue" points="41.36,-155.29 37.67,-165.22 46.75,-159.76 41.36,-155.29"/>
</g>
<!-- Node5 -->
<g id="node5" class="node">
<title>Node5</title>
<g id="a_node5"><a xlink:href="class_ogre_1_1_id_object.html" target="_top" xlink:title=" ">
<polygon fill="none" stroke="black" points="79.28,-165.5 79.28,-183.5 160.31,-183.5 160.31,-165.5 79.28,-165.5"/>
<text text-anchor="middle" x="119.79" y="-171.5" font-family="Helvetica,sans-Serif" font-size="10.00">Ogre::IdObject</text>
</a>
</g>
</g>
<!-- Node5&#45;&gt;Node3 -->
<g id="edge4" class="edge">
<title>Node5&#45;&gt;Node3</title>
<path fill="none" stroke="midnightblue" d="M106.23,-157.53C98.11,-147.97 88.13,-136.21 81.63,-128.55"/>
<polygon fill="midnightblue" stroke="midnightblue" points="103.62,-159.86 112.76,-165.22 108.95,-155.33 103.62,-159.86"/>
</g>
</g>
</svg>
