<?xml version="1.0" encoding="UTF-8" standalone="no"?>
<!DOCTYPE svg PUBLIC "-//W3C//DTD SVG 1.1//EN"
 "http://www.w3.org/Graphics/SVG/1.1/DTD/svg11.dtd">
<!-- Generated by graphviz version 2.43.0 (0)
 -->
<!-- Title: Ogre::v1::NumericAnimationTrack Pages: 1 -->
<svg width="150pt" height="147pt"
 viewBox="0.00 0.00 149.60 147.00" xmlns="http://www.w3.org/2000/svg" xmlns:xlink="http://www.w3.org/1999/xlink">
<g id="graph0" class="graph" transform="scale(1 1) rotate(0) translate(4 143)">
<title>Ogre::v1::NumericAnimationTrack</title>
<!-- Node1 -->
<g id="node1" class="node">
<title>Node1</title>
<g id="a_node1"><a xlink:title="Specialised AnimationTrack for dealing with generic animable values.">
<polygon fill="#bfbfbf" stroke="black" points="0,-0.5 0,-28.5 141.6,-28.5 141.6,-0.5 0,-0.5"/>
<text text-anchor="start" x="8" y="-16.5" font-family="Helvetica,sans-Serif" font-size="10.00">Ogre::v1::NumericAnimation</text>
<text text-anchor="middle" x="70.8" y="-6.5" font-family="Helvetica,sans-Serif" font-size="10.00">Track</text>
</a>
</g>
</g>
<!-- Node2 -->
<g id="node2" class="node">
<title>Node2</title>
<g id="a_node2"><a xlink:href="class_ogre_1_1v1_1_1_animation_track.html" target="_top" xlink:title="A &#39;track&#39; in an animation sequence, i.e.">
<polygon fill="none" stroke="black" points="6.3,-65.5 6.3,-83.5 135.3,-83.5 135.3,-65.5 6.3,-65.5"/>
<text text-anchor="middle" x="70.8" y="-71.5" font-family="Helvetica,sans-Serif" font-size="10.00">Ogre::v1::AnimationTrack</text>
</a>
</g>
</g>
<!-- Node2&#45;&gt;Node1 -->
<g id="edge1" class="edge">
<title>Node2&#45;&gt;Node1</title>
<path fill="none" stroke="midnightblue" d="M70.8,-55.32C70.8,-46.75 70.8,-36.7 70.8,-28.84"/>
<polygon fill="midnightblue" stroke="midnightblue" points="67.3,-55.44 70.8,-65.44 74.3,-55.44 67.3,-55.44"/>
</g>
<!-- Node3 -->
<g id="node3" class="node">
<title>Node3</title>
<g id="a_node3"><a xlink:href="class_ogre_1_1_allocated_object.html" target="_top" xlink:title="Superclass for all objects that wish to use custom memory allocators when their new / delete operator...">
<polygon fill="none" stroke="black" points="29.73,-120.5 29.73,-138.5 111.87,-138.5 111.87,-120.5 29.73,-120.5"/>
<text text-anchor="middle" x="70.8" y="-126.5" font-family="Helvetica,sans-Serif" font-size="10.00">AnimationAlloc</text>
</a>
</g>
</g>
<!-- Node3&#45;&gt;Node2 -->
<g id="edge2" class="edge">
<title>Node3&#45;&gt;Node2</title>
<path fill="none" stroke="midnightblue" d="M70.8,-110.17C70.8,-101.09 70.8,-90.59 70.8,-83.55"/>
<polygon fill="midnightblue" stroke="midnightblue" points="67.3,-110.22 70.8,-120.22 74.3,-110.22 67.3,-110.22"/>
</g>
</g>
</svg>
