<?xml version="1.0" encoding="UTF-8" standalone="no"?>
<!DOCTYPE svg PUBLIC "-//W3C//DTD SVG 1.1//EN"
 "http://www.w3.org/Graphics/SVG/1.1/DTD/svg11.dtd">
<!-- Generated by graphviz version 2.43.0 (0)
 -->
<!-- Title: Ogre::GL3PlusSupport Pages: 1 -->
<svg width="299pt" height="175pt"
 viewBox="0.00 0.00 299.45 175.00" xmlns="http://www.w3.org/2000/svg" xmlns:xlink="http://www.w3.org/1999/xlink">
<g id="graph0" class="graph" transform="scale(1 1) rotate(0) translate(4 171)">
<title>Ogre::GL3PlusSupport</title>
<!-- Node1 -->
<g id="node1" class="node">
<title>Node1</title>
<g id="a_node1"><a xlink:title=" ">
<polygon fill="#bfbfbf" stroke="black" points="0,-74.5 0,-92.5 117.17,-92.5 117.17,-74.5 0,-74.5"/>
<text text-anchor="middle" x="58.58" y="-80.5" font-family="Helvetica,sans-Serif" font-size="10.00">Ogre::GL3PlusSupport</text>
</a>
</g>
</g>
<!-- Node2 -->
<g id="node2" class="node">
<title>Node2</title>
<g id="a_node2"><a xlink:href="class_ogre_1_1_g_l_x_g_l_support.html" target="_top" xlink:title=" ">
<polygon fill="none" stroke="black" points="166.23,-148.5 166.23,-166.5 278.39,-166.5 278.39,-148.5 166.23,-148.5"/>
<text text-anchor="middle" x="222.31" y="-154.5" font-family="Helvetica,sans-Serif" font-size="10.00">Ogre::GLXGLSupport</text>
</a>
</g>
</g>
<!-- Node1&#45;&gt;Node2 -->
<g id="edge1" class="edge">
<title>Node1&#45;&gt;Node2</title>
<path fill="none" stroke="midnightblue" d="M80.76,-98.54C99.16,-111.01 126.9,-128.43 153.17,-139.5 161.51,-143.02 170.73,-146 179.61,-148.47"/>
<polygon fill="midnightblue" stroke="midnightblue" points="82.51,-95.49 72.29,-92.7 78.54,-101.26 82.51,-95.49"/>
</g>
<!-- Node3 -->
<g id="node3" class="node">
<title>Node3</title>
<g id="a_node3"><a xlink:href="class_ogre_1_1_g_t_k_g_l_support.html" target="_top" xlink:title="GL support in a GTK window.">
<polygon fill="none" stroke="black" points="165.96,-111.5 165.96,-129.5 278.66,-129.5 278.66,-111.5 165.96,-111.5"/>
<text text-anchor="middle" x="222.31" y="-117.5" font-family="Helvetica,sans-Serif" font-size="10.00">Ogre::GTKGLSupport</text>
</a>
</g>
</g>
<!-- Node1&#45;&gt;Node3 -->
<g id="edge2" class="edge">
<title>Node1&#45;&gt;Node3</title>
<path fill="none" stroke="midnightblue" d="M109.21,-94.85C132.54,-100.19 159.98,-106.47 181.88,-111.48"/>
<polygon fill="midnightblue" stroke="midnightblue" points="109.67,-91.37 99.15,-92.55 108.11,-98.19 109.67,-91.37"/>
</g>
<!-- Node4 -->
<g id="node4" class="node">
<title>Node4</title>
<g id="a_node4"><a xlink:href="class_ogre_1_1_o_s_x_g_l3_plus_support.html" target="_top" xlink:title=" ">
<polygon fill="none" stroke="black" points="153.17,-74.5 153.17,-92.5 291.45,-92.5 291.45,-74.5 153.17,-74.5"/>
<text text-anchor="middle" x="222.31" y="-80.5" font-family="Helvetica,sans-Serif" font-size="10.00">Ogre::OSXGL3PlusSupport</text>
</a>
</g>
</g>
<!-- Node1&#45;&gt;Node4 -->
<g id="edge3" class="edge">
<title>Node1&#45;&gt;Node4</title>
<path fill="none" stroke="midnightblue" d="M127.64,-83.5C136.04,-83.5 144.63,-83.5 153.03,-83.5"/>
<polygon fill="midnightblue" stroke="midnightblue" points="127.51,-80 117.51,-83.5 127.51,-87 127.51,-80"/>
</g>
<!-- Node5 -->
<g id="node5" class="node">
<title>Node5</title>
<g id="a_node5"><a xlink:href="class_ogre_1_1_s_d_l_g_l_support.html" target="_top" xlink:title=" ">
<polygon fill="none" stroke="black" points="166.51,-37.5 166.51,-55.5 278.11,-55.5 278.11,-37.5 166.51,-37.5"/>
<text text-anchor="middle" x="222.31" y="-43.5" font-family="Helvetica,sans-Serif" font-size="10.00">Ogre::SDLGLSupport</text>
</a>
</g>
</g>
<!-- Node1&#45;&gt;Node5 -->
<g id="edge4" class="edge">
<title>Node1&#45;&gt;Node5</title>
<path fill="none" stroke="midnightblue" d="M109.21,-72.15C132.54,-66.81 159.98,-60.53 181.88,-55.52"/>
<polygon fill="midnightblue" stroke="midnightblue" points="108.11,-68.81 99.15,-74.45 109.67,-75.63 108.11,-68.81"/>
</g>
<!-- Node6 -->
<g id="node6" class="node">
<title>Node6</title>
<g id="a_node6"><a xlink:href="class_ogre_1_1_win32_g_l_support.html" target="_top" xlink:title=" ">
<polygon fill="none" stroke="black" points="162.06,-0.5 162.06,-18.5 282.56,-18.5 282.56,-0.5 162.06,-0.5"/>
<text text-anchor="middle" x="222.31" y="-6.5" font-family="Helvetica,sans-Serif" font-size="10.00">Ogre::Win32GLSupport</text>
</a>
</g>
</g>
<!-- Node1&#45;&gt;Node6 -->
<g id="edge5" class="edge">
<title>Node1&#45;&gt;Node6</title>
<path fill="none" stroke="midnightblue" d="M81.16,-68.63C99.6,-56.47 127.2,-39.53 153.17,-28.5 162.32,-24.61 172.51,-21.28 182.15,-18.55"/>
<polygon fill="midnightblue" stroke="midnightblue" points="79,-65.86 72.64,-74.34 82.9,-71.68 79,-65.86"/>
</g>
</g>
</svg>
