<?xml version="1.0" encoding="UTF-8" standalone="no"?>
<!DOCTYPE svg PUBLIC "-//W3C//DTD SVG 1.1//EN"
 "http://www.w3.org/Graphics/SVG/1.1/DTD/svg11.dtd">
<!-- Generated by graphviz version 2.43.0 (0)
 -->
<!-- Title: Ogre::v1::OverlayManager Pages: 1 -->
<svg width="345pt" height="92pt"
 viewBox="0.00 0.00 345.34 92.00" xmlns="http://www.w3.org/2000/svg" xmlns:xlink="http://www.w3.org/1999/xlink">
<g id="graph0" class="graph" transform="scale(1 1) rotate(0) translate(4 88)">
<title>Ogre::v1::OverlayManager</title>
<!-- Node1 -->
<g id="node1" class="node">
<title>Node1</title>
<g id="a_node1"><a xlink:title="Manages Overlay objects, parsing them from .overlay files and storing a lookup library of them.">
<polygon fill="#bfbfbf" stroke="black" points="130.37,-0.5 130.37,-18.5 264.19,-18.5 264.19,-0.5 130.37,-0.5"/>
<text text-anchor="middle" x="197.28" y="-6.5" font-family="Helvetica,sans-Serif" font-size="10.00">Ogre::v1::OverlayManager</text>
</a>
</g>
</g>
<!-- Node2 -->
<g id="node2" class="node">
<title>Node2</title>
<g id="a_node2"><a xlink:href="class_ogre_1_1_singleton.html" target="_top" xlink:title=" ">
<polygon fill="none" stroke="black" points="0,-55.5 0,-83.5 128.56,-83.5 128.56,-55.5 0,-55.5"/>
<text text-anchor="start" x="8" y="-71.5" font-family="Helvetica,sans-Serif" font-size="10.00">Ogre::Singleton&lt; Overlay</text>
<text text-anchor="middle" x="64.28" y="-61.5" font-family="Helvetica,sans-Serif" font-size="10.00">Manager &gt;</text>
</a>
</g>
</g>
<!-- Node2&#45;&gt;Node1 -->
<g id="edge1" class="edge">
<title>Node2&#45;&gt;Node1</title>
<path fill="none" stroke="midnightblue" d="M103.3,-51.48C128.13,-40.65 159.16,-27.12 178.61,-18.64"/>
<polygon fill="midnightblue" stroke="midnightblue" points="101.89,-48.28 94.13,-55.48 104.69,-54.69 101.89,-48.28"/>
</g>
<!-- Node3 -->
<g id="node3" class="node">
<title>Node3</title>
<g id="a_node3"><a xlink:href="class_ogre_1_1_script_loader.html" target="_top" xlink:title="Abstract class defining the interface used by classes which wish to perform script loading to define ...">
<polygon fill="none" stroke="black" points="147.04,-60.5 147.04,-78.5 247.52,-78.5 247.52,-60.5 147.04,-60.5"/>
<text text-anchor="middle" x="197.28" y="-66.5" font-family="Helvetica,sans-Serif" font-size="10.00">Ogre::ScriptLoader</text>
</a>
</g>
</g>
<!-- Node3&#45;&gt;Node1 -->
<g id="edge2" class="edge">
<title>Node3&#45;&gt;Node1</title>
<path fill="none" stroke="midnightblue" d="M197.28,-50.21C197.28,-39.71 197.28,-27.03 197.28,-18.87"/>
<polygon fill="midnightblue" stroke="midnightblue" points="193.78,-50.44 197.28,-60.44 200.78,-50.44 193.78,-50.44"/>
</g>
<!-- Node4 -->
<g id="node4" class="node">
<title>Node4</title>
<g id="a_node4"><a xlink:href="class_ogre_1_1_allocated_object.html" target="_top" xlink:title="Superclass for all objects that wish to use custom memory allocators when their new / delete operator...">
<polygon fill="none" stroke="black" points="265.22,-60.5 265.22,-78.5 337.34,-78.5 337.34,-60.5 265.22,-60.5"/>
<text text-anchor="middle" x="301.28" y="-66.5" font-family="Helvetica,sans-Serif" font-size="10.00">OverlayAlloc</text>
</a>
</g>
</g>
<!-- Node4&#45;&gt;Node1 -->
<g id="edge3" class="edge">
<title>Node4&#45;&gt;Node1</title>
<path fill="none" stroke="midnightblue" d="M277.93,-55.48C257.71,-44.2 229.1,-28.25 211.95,-18.68"/>
<polygon fill="midnightblue" stroke="midnightblue" points="276.38,-58.62 286.82,-60.44 279.79,-52.51 276.38,-58.62"/>
</g>
</g>
</svg>
