<?xml version="1.0" encoding="UTF-8" standalone="no"?>
<!DOCTYPE svg PUBLIC "-//W3C//DTD SVG 1.1//EN"
 "http://www.w3.org/Graphics/SVG/1.1/DTD/svg11.dtd">
<!-- Generated by graphviz version 2.43.0 (0)
 -->
<!-- Title: Ogre::CompositorWorkspace Pages: 1 -->
<svg width="212pt" height="82pt"
 viewBox="0.00 0.00 211.98 82.00" xmlns="http://www.w3.org/2000/svg" xmlns:xlink="http://www.w3.org/1999/xlink">
<g id="graph0" class="graph" transform="scale(1 1) rotate(0) translate(4 78)">
<title>Ogre::CompositorWorkspace</title>
<!-- Node1 -->
<g id="node1" class="node">
<title>Node1</title>
<g id="a_node1"><a xlink:title="A compositor workspace is the main interface to render into an RT, be it a RenderWindow or an RTT (Re...">
<polygon fill="#bfbfbf" stroke="black" points="35.08,-0.5 35.08,-18.5 179.84,-18.5 179.84,-0.5 35.08,-0.5"/>
<text text-anchor="middle" x="107.46" y="-6.5" font-family="Helvetica,sans-Serif" font-size="10.00">Ogre::CompositorWorkspace</text>
</a>
</g>
</g>
<!-- Node2 -->
<g id="node2" class="node">
<title>Node2</title>
<g id="a_node2"><a xlink:href="class_ogre_1_1_allocated_object.html" target="_top" xlink:title="Superclass for all objects that wish to use custom memory allocators when their new / delete operator...">
<polygon fill="none" stroke="black" points="0,-55.5 0,-73.5 104.92,-73.5 104.92,-55.5 0,-55.5"/>
<text text-anchor="middle" x="52.46" y="-61.5" font-family="Helvetica,sans-Serif" font-size="10.00">CompositorInstAlloc</text>
</a>
</g>
</g>
<!-- Node2&#45;&gt;Node1 -->
<g id="edge1" class="edge">
<title>Node2&#45;&gt;Node1</title>
<path fill="none" stroke="midnightblue" d="M68.43,-48.11C78.46,-38.44 90.99,-26.37 99.11,-18.55"/>
<polygon fill="midnightblue" stroke="midnightblue" points="65.83,-45.76 61.05,-55.22 70.68,-50.8 65.83,-45.76"/>
</g>
<!-- Node3 -->
<g id="node3" class="node">
<title>Node3</title>
<g id="a_node3"><a xlink:href="class_ogre_1_1_id_object.html" target="_top" xlink:title=" ">
<polygon fill="none" stroke="black" points="122.95,-55.5 122.95,-73.5 203.98,-73.5 203.98,-55.5 122.95,-55.5"/>
<text text-anchor="middle" x="163.46" y="-61.5" font-family="Helvetica,sans-Serif" font-size="10.00">Ogre::IdObject</text>
</a>
</g>
</g>
<!-- Node3&#45;&gt;Node1 -->
<g id="edge2" class="edge">
<title>Node3&#45;&gt;Node1</title>
<path fill="none" stroke="midnightblue" d="M147.2,-48.11C136.99,-38.44 124.23,-26.37 115.97,-18.55"/>
<polygon fill="midnightblue" stroke="midnightblue" points="145.04,-50.89 154.71,-55.22 149.85,-45.8 145.04,-50.89"/>
</g>
</g>
</svg>
