<?xml version="1.0" encoding="UTF-8" standalone="no"?>
<!DOCTYPE svg PUBLIC "-//W3C//DTD SVG 1.1//EN"
 "http://www.w3.org/Graphics/SVG/1.1/DTD/svg11.dtd">
<!-- Generated by graphviz version 2.43.0 (0)
 -->
<!-- Title: Ogre::v1::D3D11HardwareBufferManagerBase Pages: 1 -->
<svg width="168pt" height="157pt"
 viewBox="0.00 0.00 168.15 157.00" xmlns="http://www.w3.org/2000/svg" xmlns:xlink="http://www.w3.org/1999/xlink">
<g id="graph0" class="graph" transform="scale(1 1) rotate(0) translate(4 153)">
<title>Ogre::v1::D3D11HardwareBufferManagerBase</title>
<!-- Node1 -->
<g id="node1" class="node">
<title>Node1</title>
<g id="a_node1"><a xlink:title="Implementation of HardwareBufferManager for D3D11.">
<polygon fill="#bfbfbf" stroke="black" points="0,-0.5 0,-28.5 160.15,-28.5 160.15,-0.5 0,-0.5"/>
<text text-anchor="start" x="8" y="-16.5" font-family="Helvetica,sans-Serif" font-size="10.00">Ogre::v1::D3D11HardwareBuffer</text>
<text text-anchor="middle" x="80.08" y="-6.5" font-family="Helvetica,sans-Serif" font-size="10.00">ManagerBase</text>
</a>
</g>
</g>
<!-- Node2 -->
<g id="node2" class="node">
<title>Node2</title>
<g id="a_node2"><a xlink:href="class_ogre_1_1v1_1_1_hardware_buffer_manager_base.html" target="_top" xlink:title="Base definition of a hardware buffer manager.">
<polygon fill="none" stroke="black" points="15.2,-65.5 15.2,-93.5 144.96,-93.5 144.96,-65.5 15.2,-65.5"/>
<text text-anchor="start" x="23.2" y="-81.5" font-family="Helvetica,sans-Serif" font-size="10.00">Ogre::v1::HardwareBuffer</text>
<text text-anchor="middle" x="80.08" y="-71.5" font-family="Helvetica,sans-Serif" font-size="10.00">ManagerBase</text>
</a>
</g>
</g>
<!-- Node2&#45;&gt;Node1 -->
<g id="edge1" class="edge">
<title>Node2&#45;&gt;Node1</title>
<path fill="none" stroke="midnightblue" d="M80.08,-55.16C80.08,-46.17 80.08,-36.22 80.08,-28.54"/>
<polygon fill="midnightblue" stroke="midnightblue" points="76.58,-55.45 80.08,-65.45 83.58,-55.45 76.58,-55.45"/>
</g>
<!-- Node3 -->
<g id="node3" class="node">
<title>Node3</title>
<g id="a_node3"><a xlink:href="class_ogre_1_1_allocated_object.html" target="_top" xlink:title="Superclass for all objects that wish to use custom memory allocators when their new / delete operator...">
<polygon fill="none" stroke="black" points="47.99,-130.5 47.99,-148.5 112.16,-148.5 112.16,-130.5 47.99,-130.5"/>
<text text-anchor="middle" x="80.08" y="-136.5" font-family="Helvetica,sans-Serif" font-size="10.00">BufferAlloc</text>
</a>
</g>
</g>
<!-- Node3&#45;&gt;Node2 -->
<g id="edge2" class="edge">
<title>Node3&#45;&gt;Node2</title>
<path fill="none" stroke="midnightblue" d="M80.08,-120.32C80.08,-111.75 80.08,-101.7 80.08,-93.84"/>
<polygon fill="midnightblue" stroke="midnightblue" points="76.58,-120.44 80.08,-130.44 83.58,-120.44 76.58,-120.44"/>
</g>
</g>
</svg>
