<?xml version="1.0" encoding="UTF-8" standalone="no"?>
<!DOCTYPE svg PUBLIC "-//W3C//DTD SVG 1.1//EN"
 "http://www.w3.org/Graphics/SVG/1.1/DTD/svg11.dtd">
<!-- Generated by graphviz version 2.43.0 (0)
 -->
<!-- Title: Ogre::MetalStagingBuffer Pages: 1 -->
<svg width="137pt" height="137pt"
 viewBox="0.00 0.00 136.66 137.00" xmlns="http://www.w3.org/2000/svg" xmlns:xlink="http://www.w3.org/1999/xlink">
<g id="graph0" class="graph" transform="scale(1 1) rotate(0) translate(4 133)">
<title>Ogre::MetalStagingBuffer</title>
<!-- Node1 -->
<g id="node1" class="node">
<title>Node1</title>
<g id="a_node1"><a xlink:title="A staging buffer is a buffer that resides on the GPU and be written to/from both CPU &amp; GPU However th...">
<polygon fill="#bfbfbf" stroke="black" points="0,-0.5 0,-18.5 128.66,-18.5 128.66,-0.5 0,-0.5"/>
<text text-anchor="middle" x="64.33" y="-6.5" font-family="Helvetica,sans-Serif" font-size="10.00">Ogre::MetalStagingBuffer</text>
</a>
</g>
</g>
<!-- Node2 -->
<g id="node2" class="node">
<title>Node2</title>
<g id="a_node2"><a xlink:href="class_ogre_1_1_staging_buffer.html" target="_top" xlink:title="A staging buffer is a buffer that resides on the GPU and be written to/from both CPU &amp; GPU However th...">
<polygon fill="none" stroke="black" points="12.23,-55.5 12.23,-73.5 116.43,-73.5 116.43,-55.5 12.23,-55.5"/>
<text text-anchor="middle" x="64.33" y="-61.5" font-family="Helvetica,sans-Serif" font-size="10.00">Ogre::StagingBuffer</text>
</a>
</g>
</g>
<!-- Node2&#45;&gt;Node1 -->
<g id="edge1" class="edge">
<title>Node2&#45;&gt;Node1</title>
<path fill="none" stroke="midnightblue" d="M64.33,-45.17C64.33,-36.09 64.33,-25.59 64.33,-18.55"/>
<polygon fill="midnightblue" stroke="midnightblue" points="60.83,-45.22 64.33,-55.22 67.83,-45.22 60.83,-45.22"/>
</g>
<!-- Node3 -->
<g id="node3" class="node">
<title>Node3</title>
<g id="a_node3"><a xlink:href="class_ogre_1_1_allocated_object.html" target="_top" xlink:title="Superclass for all objects that wish to use custom memory allocators when their new / delete operator...">
<polygon fill="none" stroke="black" points="15.28,-110.5 15.28,-128.5 113.38,-128.5 113.38,-110.5 15.28,-110.5"/>
<text text-anchor="middle" x="64.33" y="-116.5" font-family="Helvetica,sans-Serif" font-size="10.00">StagingBufferAlloc</text>
</a>
</g>
</g>
<!-- Node3&#45;&gt;Node2 -->
<g id="edge2" class="edge">
<title>Node3&#45;&gt;Node2</title>
<path fill="none" stroke="midnightblue" d="M64.33,-100.17C64.33,-91.09 64.33,-80.59 64.33,-73.55"/>
<polygon fill="midnightblue" stroke="midnightblue" points="60.83,-100.22 64.33,-110.22 67.83,-100.22 60.83,-100.22"/>
</g>
</g>
</svg>
