<?xml version="1.0" encoding="UTF-8" standalone="no"?>
<!DOCTYPE svg PUBLIC "-//W3C//DTD SVG 1.1//EN"
 "http://www.w3.org/Graphics/SVG/1.1/DTD/svg11.dtd">
<!-- Generated by graphviz version 2.43.0 (0)
 -->
<!-- Title: Ogre::v1::HardwarePixelBuffer Pages: 1 -->
<svg width="812pt" height="601pt"
 viewBox="0.00 0.00 812.11 601.00" xmlns="http://www.w3.org/2000/svg" xmlns:xlink="http://www.w3.org/1999/xlink">
<g id="graph0" class="graph" transform="scale(1 1) rotate(0) translate(4 597)">
<title>Ogre::v1::HardwarePixelBuffer</title>
<!-- Node1 -->
<g id="node1" class="node">
<title>Node1</title>
<g id="a_node1"><a xlink:title="Specialisation of HardwareBuffer for a pixel buffer.">
<polygon fill="#bfbfbf" stroke="black" points="265.94,-287.5 265.94,-305.5 417.37,-305.5 417.37,-287.5 265.94,-287.5"/>
<text text-anchor="middle" x="341.66" y="-293.5" font-family="Helvetica,sans-Serif" font-size="10.00">Ogre::v1::HardwarePixelBuffer</text>
</a>
</g>
</g>
<!-- Node4 -->
<g id="node4" class="node">
<title>Node4</title>
<g id="a_node4"><a xlink:href="class_ogre_1_1v1_1_1_d3_d11_depth_pixel_buffer.html" target="_top" xlink:title=" ">
<polygon fill="none" stroke="black" points="462.63,-564.5 462.63,-592.5 601.29,-592.5 601.29,-564.5 462.63,-564.5"/>
<text text-anchor="start" x="470.63" y="-580.5" font-family="Helvetica,sans-Serif" font-size="10.00">Ogre::v1::D3D11DepthPixel</text>
<text text-anchor="middle" x="531.96" y="-570.5" font-family="Helvetica,sans-Serif" font-size="10.00">Buffer</text>
</a>
</g>
</g>
<!-- Node1&#45;&gt;Node4 -->
<g id="edge3" class="edge">
<title>Node1&#45;&gt;Node4</title>
<path fill="none" stroke="midnightblue" d="M345.22,-315.59C352.65,-363.35 378.65,-488.96 453.37,-555.5 457.26,-558.96 461.64,-561.89 466.29,-564.39"/>
<polygon fill="midnightblue" stroke="midnightblue" points="348.68,-315.06 343.77,-305.67 341.75,-316.07 348.68,-315.06"/>
</g>
<!-- Node5 -->
<g id="node5" class="node">
<title>Node5</title>
<g id="a_node5"><a xlink:href="class_ogre_1_1v1_1_1_d3_d11_hardware_pixel_buffer.html" target="_top" xlink:title=" ">
<polygon fill="none" stroke="black" points="454.3,-517.5 454.3,-545.5 609.62,-545.5 609.62,-517.5 454.3,-517.5"/>
<text text-anchor="start" x="462.3" y="-533.5" font-family="Helvetica,sans-Serif" font-size="10.00">Ogre::v1::D3D11HardwarePixel</text>
<text text-anchor="middle" x="531.96" y="-523.5" font-family="Helvetica,sans-Serif" font-size="10.00">Buffer</text>
</a>
</g>
</g>
<!-- Node1&#45;&gt;Node5 -->
<g id="edge4" class="edge">
<title>Node1&#45;&gt;Node5</title>
<path fill="none" stroke="midnightblue" d="M347.23,-315.68C358.14,-357.23 389.66,-456.04 453.37,-508.5 457.6,-511.98 462.34,-514.94 467.34,-517.45"/>
<polygon fill="midnightblue" stroke="midnightblue" points="350.57,-314.62 344.74,-305.77 343.78,-316.33 350.57,-314.62"/>
</g>
<!-- Node6 -->
<g id="node6" class="node">
<title>Node6</title>
<g id="a_node6"><a xlink:href="class_ogre_1_1v1_1_1_d3_d11_null_pixel_buffer.html" target="_top" xlink:title=" ">
<polygon fill="none" stroke="black" points="467.36,-470.5 467.36,-498.5 596.56,-498.5 596.56,-470.5 467.36,-470.5"/>
<text text-anchor="start" x="475.36" y="-486.5" font-family="Helvetica,sans-Serif" font-size="10.00">Ogre::v1::D3D11NullPixel</text>
<text text-anchor="middle" x="531.96" y="-476.5" font-family="Helvetica,sans-Serif" font-size="10.00">Buffer</text>
</a>
</g>
</g>
<!-- Node1&#45;&gt;Node6 -->
<g id="edge5" class="edge">
<title>Node1&#45;&gt;Node6</title>
<path fill="none" stroke="midnightblue" d="M349.92,-314.86C364.37,-348.97 399.98,-422.24 453.37,-461.5 458.13,-465 463.41,-467.96 468.92,-470.48"/>
<polygon fill="midnightblue" stroke="midnightblue" points="353.16,-313.53 346.12,-305.61 346.68,-316.19 353.16,-313.53"/>
</g>
<!-- Node7 -->
<g id="node7" class="node">
<title>Node7</title>
<g id="a_node7"><a xlink:href="class_ogre_1_1v1_1_1_g_l3_plus_depth_pixel_buffer.html" target="_top" xlink:title=" ">
<polygon fill="none" stroke="black" points="458.65,-423.5 458.65,-451.5 605.27,-451.5 605.27,-423.5 458.65,-423.5"/>
<text text-anchor="start" x="466.65" y="-439.5" font-family="Helvetica,sans-Serif" font-size="10.00">Ogre::v1::GL3PlusDepthPixel</text>
<text text-anchor="middle" x="531.96" y="-429.5" font-family="Helvetica,sans-Serif" font-size="10.00">Buffer</text>
</a>
</g>
</g>
<!-- Node1&#45;&gt;Node7 -->
<g id="edge6" class="edge">
<title>Node1&#45;&gt;Node7</title>
<path fill="none" stroke="midnightblue" d="M354.51,-314.16C372.75,-339.98 410.15,-387.84 453.37,-414.5 458.99,-417.97 465.16,-420.94 471.5,-423.47"/>
<polygon fill="midnightblue" stroke="midnightblue" points="357.25,-311.97 348.69,-305.73 351.49,-315.95 357.25,-311.97"/>
</g>
<!-- Node8 -->
<g id="node8" class="node">
<title>Node8</title>
<g id="a_node8"><a xlink:href="class_ogre_1_1v1_1_1_g_l3_plus_hardware_pixel_buffer.html" target="_top" xlink:title=" ">
<polygon fill="none" stroke="black" points="461.15,-376.5 461.15,-404.5 602.76,-404.5 602.76,-376.5 461.15,-376.5"/>
<text text-anchor="start" x="469.15" y="-392.5" font-family="Helvetica,sans-Serif" font-size="10.00">Ogre::v1::GL3PlusHardware</text>
<text text-anchor="middle" x="531.96" y="-382.5" font-family="Helvetica,sans-Serif" font-size="10.00">PixelBuffer</text>
</a>
</g>
</g>
<!-- Node1&#45;&gt;Node8 -->
<g id="edge7" class="edge">
<title>Node1&#45;&gt;Node8</title>
<path fill="none" stroke="midnightblue" d="M362.99,-311.68C384.52,-327.18 419.94,-351.09 453.37,-366.5 461.44,-370.22 470.24,-373.56 478.91,-376.49"/>
<polygon fill="midnightblue" stroke="midnightblue" points="364.8,-308.67 354.66,-305.6 360.68,-314.32 364.8,-308.67"/>
</g>
<!-- Node11 -->
<g id="node11" class="node">
<title>Node11</title>
<g id="a_node11"><a xlink:href="class_ogre_1_1v1_1_1_g_l3_plus_null_pixel_buffer.html" target="_top" xlink:title=" ">
<polygon fill="none" stroke="black" points="463.38,-329.5 463.38,-357.5 600.54,-357.5 600.54,-329.5 463.38,-329.5"/>
<text text-anchor="start" x="471.38" y="-345.5" font-family="Helvetica,sans-Serif" font-size="10.00">Ogre::v1::GL3PlusNullPixel</text>
<text text-anchor="middle" x="531.96" y="-335.5" font-family="Helvetica,sans-Serif" font-size="10.00">Buffer</text>
</a>
</g>
</g>
<!-- Node1&#45;&gt;Node11 -->
<g id="edge10" class="edge">
<title>Node1&#45;&gt;Node11</title>
<path fill="none" stroke="midnightblue" d="M388.91,-308.04C414.83,-314.52 447.36,-322.63 474.75,-329.47"/>
<polygon fill="midnightblue" stroke="midnightblue" points="389.51,-304.59 378.96,-305.56 387.82,-311.38 389.51,-304.59"/>
</g>
<!-- Node12 -->
<g id="node12" class="node">
<title>Node12</title>
<g id="a_node12"><a xlink:href="class_ogre_1_1v1_1_1_g_l_e_s2_depth_pixel_buffer.html" target="_top" xlink:title=" ">
<polygon fill="none" stroke="black" points="461.71,-282.5 461.71,-310.5 602.21,-310.5 602.21,-282.5 461.71,-282.5"/>
<text text-anchor="start" x="469.71" y="-298.5" font-family="Helvetica,sans-Serif" font-size="10.00">Ogre::v1::GLES2DepthPixel</text>
<text text-anchor="middle" x="531.96" y="-288.5" font-family="Helvetica,sans-Serif" font-size="10.00">Buffer</text>
</a>
</g>
</g>
<!-- Node1&#45;&gt;Node12 -->
<g id="edge11" class="edge">
<title>Node1&#45;&gt;Node12</title>
<path fill="none" stroke="midnightblue" d="M427.87,-296.5C439.11,-296.5 450.52,-296.5 461.45,-296.5"/>
<polygon fill="midnightblue" stroke="midnightblue" points="427.62,-293 417.62,-296.5 427.62,-300 427.62,-293"/>
</g>
<!-- Node13 -->
<g id="node13" class="node">
<title>Node13</title>
<g id="a_node13"><a xlink:href="class_ogre_1_1v1_1_1_g_l_e_s2_hardware_pixel_buffer.html" target="_top" xlink:title=" ">
<polygon fill="none" stroke="black" points="453.37,-235.5 453.37,-263.5 610.54,-263.5 610.54,-235.5 453.37,-235.5"/>
<text text-anchor="start" x="461.37" y="-251.5" font-family="Helvetica,sans-Serif" font-size="10.00">Ogre::v1::GLES2HardwarePixel</text>
<text text-anchor="middle" x="531.96" y="-241.5" font-family="Helvetica,sans-Serif" font-size="10.00">Buffer</text>
</a>
</g>
</g>
<!-- Node1&#45;&gt;Node13 -->
<g id="edge12" class="edge">
<title>Node1&#45;&gt;Node13</title>
<path fill="none" stroke="midnightblue" d="M388.91,-284.96C414.83,-278.48 447.36,-270.37 474.75,-263.53"/>
<polygon fill="midnightblue" stroke="midnightblue" points="387.82,-281.62 378.96,-287.44 389.51,-288.41 387.82,-281.62"/>
</g>
<!-- Node16 -->
<g id="node16" class="node">
<title>Node16</title>
<g id="a_node16"><a xlink:href="class_ogre_1_1v1_1_1_g_l_e_s2_null_pixel_buffer.html" target="_top" xlink:title=" ">
<polygon fill="none" stroke="black" points="466.43,-188.5 466.43,-216.5 597.48,-216.5 597.48,-188.5 466.43,-188.5"/>
<text text-anchor="start" x="474.43" y="-204.5" font-family="Helvetica,sans-Serif" font-size="10.00">Ogre::v1::GLES2NullPixel</text>
<text text-anchor="middle" x="531.96" y="-194.5" font-family="Helvetica,sans-Serif" font-size="10.00">Buffer</text>
</a>
</g>
</g>
<!-- Node1&#45;&gt;Node16 -->
<g id="edge15" class="edge">
<title>Node1&#45;&gt;Node16</title>
<path fill="none" stroke="midnightblue" d="M362.57,-281.26C384.01,-265.46 419.58,-240.97 453.37,-225.5 460.65,-222.17 468.54,-219.18 476.4,-216.55"/>
<polygon fill="midnightblue" stroke="midnightblue" points="360.21,-278.65 354.3,-287.44 364.41,-284.26 360.21,-278.65"/>
</g>
<!-- Node17 -->
<g id="node17" class="node">
<title>Node17</title>
<g id="a_node17"><a xlink:href="class_ogre_1_1v1_1_1_metal_depth_pixel_buffer.html" target="_top" xlink:title=" ">
<polygon fill="none" stroke="black" points="465.6,-141.5 465.6,-169.5 598.32,-169.5 598.32,-141.5 465.6,-141.5"/>
<text text-anchor="start" x="473.6" y="-157.5" font-family="Helvetica,sans-Serif" font-size="10.00">Ogre::v1::MetalDepthPixel</text>
<text text-anchor="middle" x="531.96" y="-147.5" font-family="Helvetica,sans-Serif" font-size="10.00">Buffer</text>
</a>
</g>
</g>
<!-- Node1&#45;&gt;Node17 -->
<g id="edge16" class="edge">
<title>Node1&#45;&gt;Node17</title>
<path fill="none" stroke="midnightblue" d="M354.51,-278.84C372.75,-253.02 410.15,-205.16 453.37,-178.5 458.99,-175.03 465.16,-172.06 471.5,-169.53"/>
<polygon fill="midnightblue" stroke="midnightblue" points="351.49,-277.05 348.69,-287.27 357.25,-281.03 351.49,-277.05"/>
</g>
<!-- Node18 -->
<g id="node18" class="node">
<title>Node18</title>
<g id="a_node18"><a xlink:href="class_ogre_1_1v1_1_1_metal_hardware_pixel_buffer.html" target="_top" xlink:title=" ">
<polygon fill="none" stroke="black" points="457.27,-94.5 457.27,-122.5 606.65,-122.5 606.65,-94.5 457.27,-94.5"/>
<text text-anchor="start" x="465.27" y="-110.5" font-family="Helvetica,sans-Serif" font-size="10.00">Ogre::v1::MetalHardwarePixel</text>
<text text-anchor="middle" x="531.96" y="-100.5" font-family="Helvetica,sans-Serif" font-size="10.00">Buffer</text>
</a>
</g>
</g>
<!-- Node1&#45;&gt;Node18 -->
<g id="edge17" class="edge">
<title>Node1&#45;&gt;Node18</title>
<path fill="none" stroke="midnightblue" d="M349.92,-278.14C364.37,-244.03 399.98,-170.76 453.37,-131.5 458.13,-128 463.41,-125.04 468.92,-122.52"/>
<polygon fill="midnightblue" stroke="midnightblue" points="346.68,-276.81 346.12,-287.39 353.16,-279.47 346.68,-276.81"/>
</g>
<!-- Node20 -->
<g id="node20" class="node">
<title>Node20</title>
<g id="a_node20"><a xlink:href="class_ogre_1_1v1_1_1_metal_null_pixel_buffer.html" target="_top" xlink:title=" ">
<polygon fill="none" stroke="black" points="470.33,-47.5 470.33,-75.5 593.59,-75.5 593.59,-47.5 470.33,-47.5"/>
<text text-anchor="start" x="478.33" y="-63.5" font-family="Helvetica,sans-Serif" font-size="10.00">Ogre::v1::MetalNullPixel</text>
<text text-anchor="middle" x="531.96" y="-53.5" font-family="Helvetica,sans-Serif" font-size="10.00">Buffer</text>
</a>
</g>
</g>
<!-- Node1&#45;&gt;Node20 -->
<g id="edge19" class="edge">
<title>Node1&#45;&gt;Node20</title>
<path fill="none" stroke="midnightblue" d="M347.23,-277.32C358.14,-235.77 389.66,-136.96 453.37,-84.5 458.36,-80.39 464.06,-77.02 470.06,-74.25"/>
<polygon fill="midnightblue" stroke="midnightblue" points="343.78,-276.67 344.74,-287.23 350.57,-278.38 343.78,-276.67"/>
</g>
<!-- Node21 -->
<g id="node21" class="node">
<title>Node21</title>
<g id="a_node21"><a xlink:href="class_ogre_1_1v1_1_1_n_u_l_l_hardware_pixel_buffer.html" target="_top" xlink:title=" ">
<polygon fill="none" stroke="black" points="456.71,-0.5 456.71,-28.5 607.21,-28.5 607.21,-0.5 456.71,-0.5"/>
<text text-anchor="start" x="464.71" y="-16.5" font-family="Helvetica,sans-Serif" font-size="10.00">Ogre::v1::NULLHardwarePixel</text>
<text text-anchor="middle" x="531.96" y="-6.5" font-family="Helvetica,sans-Serif" font-size="10.00">Buffer</text>
</a>
</g>
</g>
<!-- Node1&#45;&gt;Node21 -->
<g id="edge20" class="edge">
<title>Node1&#45;&gt;Node21</title>
<path fill="none" stroke="midnightblue" d="M345.22,-277.41C352.65,-229.65 378.65,-104.04 453.37,-37.5 457.26,-34.04 461.64,-31.11 466.29,-28.61"/>
<polygon fill="midnightblue" stroke="midnightblue" points="341.75,-276.93 343.77,-287.33 348.68,-277.94 341.75,-276.93"/>
</g>
<!-- Node2 -->
<g id="node2" class="node">
<title>Node2</title>
<g id="a_node2"><a xlink:href="class_ogre_1_1v1_1_1_hardware_buffer.html" target="_top" xlink:title="Abstract class defining common features of hardware buffers.">
<polygon fill="none" stroke="black" points="100.18,-287.5 100.18,-305.5 229.94,-305.5 229.94,-287.5 100.18,-287.5"/>
<text text-anchor="middle" x="165.06" y="-293.5" font-family="Helvetica,sans-Serif" font-size="10.00">Ogre::v1::HardwareBuffer</text>
</a>
</g>
</g>
<!-- Node2&#45;&gt;Node1 -->
<g id="edge1" class="edge">
<title>Node2&#45;&gt;Node1</title>
<path fill="none" stroke="midnightblue" d="M240.25,-296.5C248.67,-296.5 257.26,-296.5 265.69,-296.5"/>
<polygon fill="midnightblue" stroke="midnightblue" points="240.08,-293 230.08,-296.5 240.08,-300 240.08,-293"/>
</g>
<!-- Node3 -->
<g id="node3" class="node">
<title>Node3</title>
<g id="a_node3"><a xlink:href="class_ogre_1_1_allocated_object.html" target="_top" xlink:title="Superclass for all objects that wish to use custom memory allocators when their new / delete operator...">
<polygon fill="none" stroke="black" points="0,-287.5 0,-305.5 64.18,-305.5 64.18,-287.5 0,-287.5"/>
<text text-anchor="middle" x="32.09" y="-293.5" font-family="Helvetica,sans-Serif" font-size="10.00">BufferAlloc</text>
</a>
</g>
</g>
<!-- Node3&#45;&gt;Node2 -->
<g id="edge2" class="edge">
<title>Node3&#45;&gt;Node2</title>
<path fill="none" stroke="midnightblue" d="M74.71,-296.5C82.78,-296.5 91.42,-296.5 100.03,-296.5"/>
<polygon fill="midnightblue" stroke="midnightblue" points="74.46,-293 64.46,-296.5 74.46,-300 74.46,-293"/>
</g>
<!-- Node9 -->
<g id="node9" class="node">
<title>Node9</title>
<g id="a_node9"><a xlink:href="class_ogre_1_1v1_1_1_g_l3_plus_render_buffer.html" target="_top" xlink:title="Renderbuffer surface.">
<polygon fill="none" stroke="black" points="646.54,-402.5 646.54,-420.5 804.11,-420.5 804.11,-402.5 646.54,-402.5"/>
<text text-anchor="middle" x="725.33" y="-408.5" font-family="Helvetica,sans-Serif" font-size="10.00">Ogre::v1::GL3PlusRenderBuffer</text>
</a>
</g>
</g>
<!-- Node8&#45;&gt;Node9 -->
<g id="edge8" class="edge">
<title>Node8&#45;&gt;Node9</title>
<path fill="none" stroke="midnightblue" d="M612.96,-399.28C624.07,-400.5 635.47,-401.75 646.53,-402.96"/>
<polygon fill="midnightblue" stroke="midnightblue" points="613.18,-395.78 602.86,-398.17 612.42,-402.74 613.18,-395.78"/>
</g>
<!-- Node10 -->
<g id="node10" class="node">
<title>Node10</title>
<g id="a_node10"><a xlink:href="class_ogre_1_1v1_1_1_g_l3_plus_texture_buffer.html" target="_top" xlink:title="Texture surface.">
<polygon fill="none" stroke="black" points="659.8,-355.5 659.8,-383.5 790.85,-383.5 790.85,-355.5 659.8,-355.5"/>
<text text-anchor="start" x="667.8" y="-371.5" font-family="Helvetica,sans-Serif" font-size="10.00">Ogre::v1::GL3PlusTexture</text>
<text text-anchor="middle" x="725.33" y="-361.5" font-family="Helvetica,sans-Serif" font-size="10.00">Buffer</text>
</a>
</g>
</g>
<!-- Node8&#45;&gt;Node10 -->
<g id="edge9" class="edge">
<title>Node8&#45;&gt;Node10</title>
<path fill="none" stroke="midnightblue" d="M612.99,-381.72C628.56,-380.01 644.7,-378.24 659.7,-376.59"/>
<polygon fill="midnightblue" stroke="midnightblue" points="612.42,-378.26 602.86,-382.83 613.18,-385.22 612.42,-378.26"/>
</g>
<!-- Node14 -->
<g id="node14" class="node">
<title>Node14</title>
<g id="a_node14"><a xlink:href="class_ogre_1_1v1_1_1_g_l_e_s2_render_buffer.html" target="_top" xlink:title="Renderbuffer surface.">
<polygon fill="none" stroke="black" points="649.6,-259.5 649.6,-277.5 801.05,-277.5 801.05,-259.5 649.6,-259.5"/>
<text text-anchor="middle" x="725.33" y="-265.5" font-family="Helvetica,sans-Serif" font-size="10.00">Ogre::v1::GLES2RenderBuffer</text>
</a>
</g>
</g>
<!-- Node13&#45;&gt;Node14 -->
<g id="edge13" class="edge">
<title>Node13&#45;&gt;Node14</title>
<path fill="none" stroke="midnightblue" d="M621.01,-258.24C630.48,-259.18 640.05,-260.13 649.34,-261.06"/>
<polygon fill="midnightblue" stroke="midnightblue" points="621.09,-254.73 610.8,-257.23 620.4,-261.7 621.09,-254.73"/>
</g>
<!-- Node15 -->
<g id="node15" class="node">
<title>Node15</title>
<g id="a_node15"><a xlink:href="class_ogre_1_1v1_1_1_g_l_e_s2_texture_buffer.html" target="_top" xlink:title="Texture surface.">
<polygon fill="none" stroke="black" points="649.6,-222.5 649.6,-240.5 801.05,-240.5 801.05,-222.5 649.6,-222.5"/>
<text text-anchor="middle" x="725.33" y="-228.5" font-family="Helvetica,sans-Serif" font-size="10.00">Ogre::v1::GLES2TextureBuffer</text>
</a>
</g>
</g>
<!-- Node13&#45;&gt;Node15 -->
<g id="edge14" class="edge">
<title>Node13&#45;&gt;Node15</title>
<path fill="none" stroke="midnightblue" d="M621.01,-241.22C630.48,-240.33 640.05,-239.43 649.34,-238.55"/>
<polygon fill="midnightblue" stroke="midnightblue" points="620.42,-237.76 610.8,-242.18 621.08,-244.73 620.42,-237.76"/>
</g>
<!-- Node19 -->
<g id="node19" class="node">
<title>Node19</title>
<g id="a_node19"><a xlink:href="class_ogre_1_1v1_1_1_metal_texture_buffer.html" target="_top" xlink:title="Texture surface.">
<polygon fill="none" stroke="black" points="653.5,-99.5 653.5,-117.5 797.15,-117.5 797.15,-99.5 653.5,-99.5"/>
<text text-anchor="middle" x="725.33" y="-105.5" font-family="Helvetica,sans-Serif" font-size="10.00">Ogre::v1::MetalTextureBuffer</text>
</a>
</g>
</g>
<!-- Node18&#45;&gt;Node19 -->
<g id="edge18" class="edge">
<title>Node18&#45;&gt;Node19</title>
<path fill="none" stroke="midnightblue" d="M616.86,-108.5C629.08,-108.5 641.56,-108.5 653.48,-108.5"/>
<polygon fill="midnightblue" stroke="midnightblue" points="616.67,-105 606.67,-108.5 616.67,-112 616.67,-105"/>
</g>
</g>
</svg>
