<?xml version="1.0" encoding="UTF-8" standalone="no"?>
<!DOCTYPE svg PUBLIC "-//W3C//DTD SVG 1.1//EN"
 "http://www.w3.org/Graphics/SVG/1.1/DTD/svg11.dtd">
<!-- Generated by graphviz version 2.43.0 (0)
 -->
<!-- Title: Ogre::EmscriptenEGLContext Pages: 1 -->
<svg width="156pt" height="137pt"
 viewBox="0.00 0.00 156.28 137.00" xmlns="http://www.w3.org/2000/svg" xmlns:xlink="http://www.w3.org/1999/xlink">
<g id="graph0" class="graph" transform="scale(1 1) rotate(0) translate(4 133)">
<title>Ogre::EmscriptenEGLContext</title>
<!-- Node1 -->
<g id="node1" class="node">
<title>Node1</title>
<g id="a_node1"><a xlink:title=" ">
<polygon fill="#bfbfbf" stroke="black" points="0,-0.5 0,-18.5 148.28,-18.5 148.28,-0.5 0,-0.5"/>
<text text-anchor="middle" x="74.14" y="-6.5" font-family="Helvetica,sans-Serif" font-size="10.00">Ogre::EmscriptenEGLContext</text>
</a>
</g>
</g>
<!-- Node2 -->
<g id="node2" class="node">
<title>Node2</title>
<g id="a_node2"><a xlink:href="class_ogre_1_1_e_g_l_context.html" target="_top" xlink:title=" ">
<polygon fill="none" stroke="black" points="25.01,-55.5 25.01,-73.5 123.27,-73.5 123.27,-55.5 25.01,-55.5"/>
<text text-anchor="middle" x="74.14" y="-61.5" font-family="Helvetica,sans-Serif" font-size="10.00">Ogre::EGLContext</text>
</a>
</g>
</g>
<!-- Node2&#45;&gt;Node1 -->
<g id="edge1" class="edge">
<title>Node2&#45;&gt;Node1</title>
<path fill="none" stroke="midnightblue" d="M74.14,-45.17C74.14,-36.09 74.14,-25.59 74.14,-18.55"/>
<polygon fill="midnightblue" stroke="midnightblue" points="70.64,-45.22 74.14,-55.22 77.64,-45.22 70.64,-45.22"/>
</g>
<!-- Node3 -->
<g id="node3" class="node">
<title>Node3</title>
<g id="a_node3"><a xlink:href="class_ogre_1_1_g_l_e_s2_context.html" target="_top" xlink:title="Class that encapsulates an GL context.">
<polygon fill="none" stroke="black" points="18.89,-110.5 18.89,-128.5 129.38,-128.5 129.38,-110.5 18.89,-110.5"/>
<text text-anchor="middle" x="74.14" y="-116.5" font-family="Helvetica,sans-Serif" font-size="10.00">Ogre::GLES2Context</text>
</a>
</g>
</g>
<!-- Node3&#45;&gt;Node2 -->
<g id="edge2" class="edge">
<title>Node3&#45;&gt;Node2</title>
<path fill="none" stroke="midnightblue" d="M74.14,-100.17C74.14,-91.09 74.14,-80.59 74.14,-73.55"/>
<polygon fill="midnightblue" stroke="midnightblue" points="70.64,-100.22 74.14,-110.22 77.64,-100.22 70.64,-100.22"/>
</g>
</g>
</svg>
