<?xml version="1.0" encoding="UTF-8" standalone="no"?>
<!DOCTYPE svg PUBLIC "-//W3C//DTD SVG 1.1//EN"
 "http://www.w3.org/Graphics/SVG/1.1/DTD/svg11.dtd">
<!-- Generated by graphviz version 2.43.0 (0)
 -->
<!-- Title: Ogre::ScriptLoader Pages: 1 -->
<svg width="694pt" height="397pt"
 viewBox="0.00 0.00 693.61 397.00" xmlns="http://www.w3.org/2000/svg" xmlns:xlink="http://www.w3.org/1999/xlink">
<g id="graph0" class="graph" transform="scale(1 1) rotate(0) translate(4 393)">
<title>Ogre::ScriptLoader</title>
<!-- Node1 -->
<g id="node1" class="node">
<title>Node1</title>
<g id="a_node1"><a xlink:title="Abstract class defining the interface used by classes which wish to perform script loading to define ...">
<polygon fill="#bfbfbf" stroke="black" points="0,-222.5 0,-240.5 100.49,-240.5 100.49,-222.5 0,-222.5"/>
<text text-anchor="middle" x="50.24" y="-228.5" font-family="Helvetica,sans-Serif" font-size="10.00">Ogre::ScriptLoader</text>
</a>
</g>
</g>
<!-- Node2 -->
<g id="node2" class="node">
<title>Node2</title>
<g id="a_node2"><a xlink:href="class_ogre_1_1_cg_fx_script_loader.html" target="_top" xlink:title="Manages Overlay objects, parsing them from .overlay files and storing a lookup library of them.">
<polygon fill="none" stroke="black" points="149.56,-333.5 149.56,-351.5 273.94,-351.5 273.94,-333.5 149.56,-333.5"/>
<text text-anchor="middle" x="211.75" y="-339.5" font-family="Helvetica,sans-Serif" font-size="10.00">Ogre::CgFxScriptLoader</text>
</a>
</g>
</g>
<!-- Node1&#45;&gt;Node2 -->
<g id="edge1" class="edge">
<title>Node1&#45;&gt;Node2</title>
<path fill="none" stroke="midnightblue" d="M62.38,-248.93C76.84,-270.11 104.12,-305.39 136.49,-324.5 142.77,-328.21 149.78,-331.16 156.92,-333.5"/>
<polygon fill="midnightblue" stroke="midnightblue" points="65.26,-246.95 56.82,-240.55 59.43,-250.82 65.26,-246.95"/>
</g>
<!-- Node3 -->
<g id="node3" class="node">
<title>Node3</title>
<g id="a_node3"><a xlink:href="class_ogre_1_1_hlms_manager.html" target="_top" xlink:title="HLMS stands for &quot;High Level Material System&quot;.">
<polygon fill="none" stroke="black" points="158.74,-296.5 158.74,-314.5 264.77,-314.5 264.77,-296.5 158.74,-296.5"/>
<text text-anchor="middle" x="211.75" y="-302.5" font-family="Helvetica,sans-Serif" font-size="10.00">Ogre::HlmsManager</text>
</a>
</g>
</g>
<!-- Node1&#45;&gt;Node3 -->
<g id="edge2" class="edge">
<title>Node1&#45;&gt;Node3</title>
<path fill="none" stroke="midnightblue" d="M70.67,-247.08C87.26,-259.67 112.23,-276.97 136.49,-287.5 144.76,-291.09 153.88,-294.05 162.81,-296.45"/>
<polygon fill="midnightblue" stroke="midnightblue" points="72.42,-244.01 62.37,-240.64 68.13,-249.54 72.42,-244.01"/>
</g>
<!-- Node4 -->
<g id="node4" class="node">
<title>Node4</title>
<g id="a_node4"><a xlink:href="class_ogre_1_1_particle_system_manager.html" target="_top" xlink:title="Manages particle systems, particle system scripts (templates) and the available emitter &amp; affector fa...">
<polygon fill="none" stroke="black" points="136.78,-259.5 136.78,-277.5 286.72,-277.5 286.72,-259.5 136.78,-259.5"/>
<text text-anchor="middle" x="211.75" y="-265.5" font-family="Helvetica,sans-Serif" font-size="10.00">Ogre::ParticleSystemManager</text>
</a>
</g>
</g>
<!-- Node1&#45;&gt;Node4 -->
<g id="edge3" class="edge">
<title>Node1&#45;&gt;Node4</title>
<path fill="none" stroke="midnightblue" d="M100.19,-242.85C123.2,-248.19 150.27,-254.47 171.86,-259.48"/>
<polygon fill="midnightblue" stroke="midnightblue" points="100.8,-239.4 90.26,-240.55 99.21,-246.22 100.8,-239.4"/>
</g>
<!-- Node5 -->
<g id="node5" class="node">
<title>Node5</title>
<g id="a_node5"><a xlink:href="class_ogre_1_1_quake3_shader_manager.html" target="_top" xlink:title="Class for managing Quake3 custom shaders.">
<polygon fill="none" stroke="black" points="136.49,-222.5 136.49,-240.5 287.01,-240.5 287.01,-222.5 136.49,-222.5"/>
<text text-anchor="middle" x="211.75" y="-228.5" font-family="Helvetica,sans-Serif" font-size="10.00">Ogre::Quake3ShaderManager</text>
</a>
</g>
</g>
<!-- Node1&#45;&gt;Node5 -->
<g id="edge4" class="edge">
<title>Node1&#45;&gt;Node5</title>
<path fill="none" stroke="midnightblue" d="M111.08,-231.5C119.31,-231.5 127.84,-231.5 136.3,-231.5"/>
<polygon fill="midnightblue" stroke="midnightblue" points="110.84,-228 100.84,-231.5 110.84,-235 110.84,-228"/>
</g>
<!-- Node6 -->
<g id="node6" class="node">
<title>Node6</title>
<g id="a_node6"><a xlink:href="class_ogre_1_1_resource_manager.html" target="_top" xlink:title="Defines a generic resource handler.">
<polygon fill="none" stroke="black" points="148.72,-185.5 148.72,-203.5 274.78,-203.5 274.78,-185.5 148.72,-185.5"/>
<text text-anchor="middle" x="211.75" y="-191.5" font-family="Helvetica,sans-Serif" font-size="10.00">Ogre::ResourceManager</text>
</a>
</g>
</g>
<!-- Node1&#45;&gt;Node6 -->
<g id="edge5" class="edge">
<title>Node1&#45;&gt;Node6</title>
<path fill="none" stroke="midnightblue" d="M100.19,-220.15C123.2,-214.81 150.27,-208.53 171.86,-203.52"/>
<polygon fill="midnightblue" stroke="midnightblue" points="99.21,-216.78 90.26,-222.45 100.8,-223.6 99.21,-216.78"/>
</g>
<!-- Node27 -->
<g id="node27" class="node">
<title>Node27</title>
<g id="a_node27"><a xlink:href="class_ogre_1_1_script_compiler_manager.html" target="_top" xlink:title="Manages threaded compilation of scripts.">
<polygon fill="none" stroke="black" points="137.34,-148.5 137.34,-166.5 286.16,-166.5 286.16,-148.5 137.34,-148.5"/>
<text text-anchor="middle" x="211.75" y="-154.5" font-family="Helvetica,sans-Serif" font-size="10.00">Ogre::ScriptCompilerManager</text>
</a>
</g>
</g>
<!-- Node1&#45;&gt;Node27 -->
<g id="edge26" class="edge">
<title>Node1&#45;&gt;Node27</title>
<path fill="none" stroke="midnightblue" d="M71.03,-216.09C87.67,-203.8 112.52,-186.97 136.49,-176.5 145.63,-172.51 155.8,-169.22 165.59,-166.57"/>
<polygon fill="midnightblue" stroke="midnightblue" points="68.57,-213.56 62.69,-222.38 72.78,-219.15 68.57,-213.56"/>
</g>
<!-- Node28 -->
<g id="node28" class="node">
<title>Node28</title>
<g id="a_node28"><a xlink:href="class_ogre_1_1v1_1_1_overlay_manager.html" target="_top" xlink:title="Manages Overlay objects, parsing them from .overlay files and storing a lookup library of them.">
<polygon fill="none" stroke="black" points="144.84,-111.5 144.84,-129.5 278.66,-129.5 278.66,-111.5 144.84,-111.5"/>
<text text-anchor="middle" x="211.75" y="-117.5" font-family="Helvetica,sans-Serif" font-size="10.00">Ogre::v1::OverlayManager</text>
</a>
</g>
</g>
<!-- Node1&#45;&gt;Node28 -->
<g id="edge27" class="edge">
<title>Node1&#45;&gt;Node28</title>
<path fill="none" stroke="midnightblue" d="M62.68,-214.01C77.29,-193.09 104.54,-158.52 136.49,-139.5 143.46,-135.35 151.33,-132.09 159.27,-129.55"/>
<polygon fill="midnightblue" stroke="midnightblue" points="59.77,-212.07 57.05,-222.31 65.56,-216 59.77,-212.07"/>
</g>
<!-- Node7 -->
<g id="node7" class="node">
<title>Node7</title>
<g id="a_node7"><a xlink:href="class_ogre_1_1_bsp_resource_manager.html" target="_top" xlink:title="Manages the locating and loading of BSP&#45;based indoor levels.">
<polygon fill="none" stroke="black" points="328.3,-343.5 328.3,-361.5 471.58,-361.5 471.58,-343.5 328.3,-343.5"/>
<text text-anchor="middle" x="399.94" y="-349.5" font-family="Helvetica,sans-Serif" font-size="10.00">Ogre::BspResourceManager</text>
</a>
</g>
</g>
<!-- Node6&#45;&gt;Node7 -->
<g id="edge6" class="edge">
<title>Node6&#45;&gt;Node7</title>
<path fill="none" stroke="midnightblue" d="M281.53,-208.95C283.46,-210.34 285.3,-211.85 287.01,-213.5 327.45,-252.4 282.24,-295.96 323.01,-334.5 326.85,-338.13 331.29,-341.07 336.04,-343.45"/>
<polygon fill="midnightblue" stroke="midnightblue" points="282.9,-205.7 272.5,-203.66 279.36,-211.74 282.9,-205.7"/>
</g>
<!-- Node8 -->
<g id="node8" class="node">
<title>Node8</title>
<g id="a_node8"><a xlink:href="class_ogre_1_1_font_manager.html" target="_top" xlink:title="Manages Font resources, parsing .fontdef files and generally organising them.">
<polygon fill="none" stroke="black" points="348.31,-306.5 348.31,-324.5 451.57,-324.5 451.57,-306.5 348.31,-306.5"/>
<text text-anchor="middle" x="399.94" y="-312.5" font-family="Helvetica,sans-Serif" font-size="10.00">Ogre::FontManager</text>
</a>
</g>
</g>
<!-- Node6&#45;&gt;Node8 -->
<g id="edge7" class="edge">
<title>Node6&#45;&gt;Node8</title>
<path fill="none" stroke="midnightblue" d="M279.46,-208.07C282.13,-209.68 284.66,-211.49 287.01,-213.5 317.86,-239.92 291.93,-271.35 323.01,-297.5 330.17,-303.52 338.98,-307.6 348.04,-310.35"/>
<polygon fill="midnightblue" stroke="midnightblue" points="281.05,-204.95 270.55,-203.52 277.86,-211.18 281.05,-204.95"/>
</g>
<!-- Node9 -->
<g id="node9" class="node">
<title>Node9</title>
<g id="a_node9"><a xlink:href="class_ogre_1_1_gpu_program_manager.html" target="_top" xlink:title=" ">
<polygon fill="none" stroke="black" points="329.69,-269.5 329.69,-287.5 470.19,-287.5 470.19,-269.5 329.69,-269.5"/>
<text text-anchor="middle" x="399.94" y="-275.5" font-family="Helvetica,sans-Serif" font-size="10.00">Ogre::GpuProgramManager</text>
</a>
</g>
</g>
<!-- Node6&#45;&gt;Node9 -->
<g id="edge8" class="edge">
<title>Node6&#45;&gt;Node9</title>
<path fill="none" stroke="midnightblue" d="M275.64,-207.28C279.62,-209.09 283.45,-211.15 287.01,-213.5 308.97,-228 300.93,-246.19 323.01,-260.5 328.7,-264.18 335.06,-267.11 341.61,-269.45"/>
<polygon fill="midnightblue" stroke="midnightblue" points="276.72,-203.95 266.13,-203.51 274.14,-210.45 276.72,-203.95"/>
</g>
<!-- Node15 -->
<g id="node15" class="node">
<title>Node15</title>
<g id="a_node15"><a xlink:href="class_ogre_1_1_high_level_gpu_program_manager.html" target="_top" xlink:title="This ResourceManager manages high&#45;level vertex and fragment programs.">
<polygon fill="none" stroke="black" points="327.19,-222.5 327.19,-250.5 472.69,-250.5 472.69,-222.5 327.19,-222.5"/>
<text text-anchor="start" x="335.19" y="-238.5" font-family="Helvetica,sans-Serif" font-size="10.00">Ogre::HighLevelGpuProgram</text>
<text text-anchor="middle" x="399.94" y="-228.5" font-family="Helvetica,sans-Serif" font-size="10.00">Manager</text>
</a>
</g>
</g>
<!-- Node6&#45;&gt;Node15 -->
<g id="edge14" class="edge">
<title>Node6&#45;&gt;Node15</title>
<path fill="none" stroke="midnightblue" d="M262.5,-205.72C285.3,-210.87 312.57,-217.02 336.72,-222.46"/>
<polygon fill="midnightblue" stroke="midnightblue" points="263.22,-202.3 252.69,-203.51 261.68,-209.12 263.22,-202.3"/>
</g>
<!-- Node16 -->
<g id="node16" class="node">
<title>Node16</title>
<g id="a_node16"><a xlink:href="class_ogre_1_1_material_manager.html" target="_top" xlink:title="Class for managing Material settings for Ogre.">
<polygon fill="none" stroke="black" points="340.53,-185.5 340.53,-203.5 459.35,-203.5 459.35,-185.5 340.53,-185.5"/>
<text text-anchor="middle" x="399.94" y="-191.5" font-family="Helvetica,sans-Serif" font-size="10.00">Ogre::MaterialManager</text>
</a>
</g>
</g>
<!-- Node6&#45;&gt;Node16 -->
<g id="edge15" class="edge">
<title>Node6&#45;&gt;Node16</title>
<path fill="none" stroke="midnightblue" d="M285.07,-194.5C303.44,-194.5 322.94,-194.5 340.52,-194.5"/>
<polygon fill="midnightblue" stroke="midnightblue" points="285.01,-191 275.01,-194.5 285.01,-198 285.01,-191"/>
</g>
<!-- Node17 -->
<g id="node17" class="node">
<title>Node17</title>
<g id="a_node17"><a xlink:href="class_ogre_1_1_mesh_manager.html" target="_top" xlink:title="Handles the management of mesh resources.">
<polygon fill="none" stroke="black" points="346.08,-148.5 346.08,-166.5 453.79,-166.5 453.79,-148.5 346.08,-148.5"/>
<text text-anchor="middle" x="399.94" y="-154.5" font-family="Helvetica,sans-Serif" font-size="10.00">Ogre::MeshManager</text>
</a>
</g>
</g>
<!-- Node6&#45;&gt;Node17 -->
<g id="edge16" class="edge">
<title>Node6&#45;&gt;Node17</title>
<path fill="none" stroke="midnightblue" d="M268.44,-183.43C295.61,-178.03 327.89,-171.62 353.54,-166.52"/>
<polygon fill="midnightblue" stroke="midnightblue" points="267.42,-180.07 258.3,-185.45 268.79,-186.93 267.42,-180.07"/>
</g>
<!-- Node18 -->
<g id="node18" class="node">
<title>Node18</title>
<g id="a_node18"><a xlink:href="class_ogre_1_1_texture_manager.html" target="_top" xlink:title="Class for loading &amp; managing textures.">
<polygon fill="none" stroke="black" points="341.92,-111.5 341.92,-129.5 457.96,-129.5 457.96,-111.5 341.92,-111.5"/>
<text text-anchor="middle" x="399.94" y="-117.5" font-family="Helvetica,sans-Serif" font-size="10.00">Ogre::TextureManager</text>
</a>
</g>
</g>
<!-- Node6&#45;&gt;Node18 -->
<g id="edge17" class="edge">
<title>Node6&#45;&gt;Node18</title>
<path fill="none" stroke="midnightblue" d="M275.54,-182.03C279.52,-180.4 283.38,-178.57 287.01,-176.5 306.94,-165.13 303.13,-150.94 323.01,-139.5 330.2,-135.37 338.27,-132.12 346.4,-129.58"/>
<polygon fill="midnightblue" stroke="midnightblue" points="274.3,-178.75 266.09,-185.45 276.69,-185.34 274.3,-178.75"/>
</g>
<!-- Node25 -->
<g id="node25" class="node">
<title>Node25</title>
<g id="a_node25"><a xlink:href="class_ogre_1_1v1_1_1_mesh_manager.html" target="_top" xlink:title="Handles the management of mesh resources.">
<polygon fill="none" stroke="black" points="338.03,-74.5 338.03,-92.5 461.85,-92.5 461.85,-74.5 338.03,-74.5"/>
<text text-anchor="middle" x="399.94" y="-80.5" font-family="Helvetica,sans-Serif" font-size="10.00">Ogre::v1::MeshManager</text>
</a>
</g>
</g>
<!-- Node6&#45;&gt;Node25 -->
<g id="edge24" class="edge">
<title>Node6&#45;&gt;Node25</title>
<path fill="none" stroke="midnightblue" d="M281.18,-180.61C283.22,-179.35 285.17,-177.99 287.01,-176.5 315.5,-153.56 294.61,-125.54 323.01,-102.5 328.08,-98.39 333.91,-95.15 340.05,-92.61"/>
<polygon fill="midnightblue" stroke="midnightblue" points="279.11,-177.74 271.83,-185.44 282.32,-183.96 279.11,-177.74"/>
</g>
<!-- Node26 -->
<g id="node26" class="node">
<title>Node26</title>
<g id="a_node26"><a xlink:href="class_ogre_1_1v1_1_1_old_skeleton_manager.html" target="_top" xlink:title="Handles the management of skeleton resources.">
<polygon fill="none" stroke="black" points="323.01,-37.5 323.01,-55.5 476.87,-55.5 476.87,-37.5 323.01,-37.5"/>
<text text-anchor="middle" x="399.94" y="-43.5" font-family="Helvetica,sans-Serif" font-size="10.00">Ogre::v1::OldSkeletonManager</text>
</a>
</g>
</g>
<!-- Node6&#45;&gt;Node26 -->
<g id="edge25" class="edge">
<title>Node6&#45;&gt;Node26</title>
<path fill="none" stroke="midnightblue" d="M282.8,-179.98C284.27,-178.9 285.68,-177.74 287.01,-176.5 325.05,-141.24 285.11,-100.9 323.01,-65.5 327.38,-61.42 332.49,-58.18 337.96,-55.61"/>
<polygon fill="midnightblue" stroke="midnightblue" points="280.59,-177.23 273.83,-185.39 284.2,-183.22 280.59,-177.23"/>
</g>
<!-- Node10 -->
<g id="node10" class="node">
<title>Node10</title>
<g id="a_node10"><a xlink:href="class_ogre_1_1_d3_d11_gpu_program_manager.html" target="_top" xlink:title=" ">
<polygon fill="none" stroke="black" points="513.79,-370.5 513.79,-388.5 684.68,-388.5 684.68,-370.5 513.79,-370.5"/>
<text text-anchor="middle" x="599.24" y="-376.5" font-family="Helvetica,sans-Serif" font-size="10.00">Ogre::D3D11GpuProgramManager</text>
</a>
</g>
</g>
<!-- Node9&#45;&gt;Node10 -->
<g id="edge9" class="edge">
<title>Node9&#45;&gt;Node10</title>
<path fill="none" stroke="midnightblue" d="M467.95,-291.8C471.09,-293.49 474.08,-295.37 476.87,-297.5 502.81,-317.3 486.55,-342.19 512.87,-361.5 517.75,-365.08 523.19,-367.99 528.9,-370.34"/>
<polygon fill="midnightblue" stroke="midnightblue" points="469.36,-288.6 458.82,-287.6 466.44,-294.96 469.36,-288.6"/>
</g>
<!-- Node11 -->
<g id="node11" class="node">
<title>Node11</title>
<g id="a_node11"><a xlink:href="class_ogre_1_1_d3_d9_gpu_program_manager.html" target="_top" xlink:title=" ">
<polygon fill="none" stroke="black" points="516.2,-333.5 516.2,-351.5 682.27,-351.5 682.27,-333.5 516.2,-333.5"/>
<text text-anchor="middle" x="599.24" y="-339.5" font-family="Helvetica,sans-Serif" font-size="10.00">Ogre::D3D9GpuProgramManager</text>
</a>
</g>
</g>
<!-- Node9&#45;&gt;Node11 -->
<g id="edge10" class="edge">
<title>Node9&#45;&gt;Node11</title>
<path fill="none" stroke="midnightblue" d="M459.02,-290.46C465.17,-292.48 471.23,-294.82 476.87,-297.5 494.92,-306.1 494.65,-316.24 512.87,-324.5 521,-328.19 529.93,-331.14 538.84,-333.48"/>
<polygon fill="midnightblue" stroke="midnightblue" points="459.92,-287.08 449.34,-287.54 457.9,-293.78 459.92,-287.08"/>
</g>
<!-- Node12 -->
<g id="node12" class="node">
<title>Node12</title>
<g id="a_node12"><a xlink:href="class_ogre_1_1_g_l_e_s2_gpu_program_manager.html" target="_top" xlink:title=" ">
<polygon fill="none" stroke="black" points="512.87,-296.5 512.87,-314.5 685.61,-314.5 685.61,-296.5 512.87,-296.5"/>
<text text-anchor="middle" x="599.24" y="-302.5" font-family="Helvetica,sans-Serif" font-size="10.00">Ogre::GLES2GpuProgramManager</text>
</a>
</g>
</g>
<!-- Node9&#45;&gt;Node12 -->
<g id="edge11" class="edge">
<title>Node9&#45;&gt;Node12</title>
<path fill="none" stroke="midnightblue" d="M476.93,-288.9C495.2,-291.4 514.56,-294.05 532.33,-296.48"/>
<polygon fill="midnightblue" stroke="midnightblue" points="477.29,-285.42 466.91,-287.53 476.34,-292.35 477.29,-285.42"/>
</g>
<!-- Node13 -->
<g id="node13" class="node">
<title>Node13</title>
<g id="a_node13"><a xlink:href="class_ogre_1_1_g_l_s_l_shader_manager.html" target="_top" xlink:title=" ">
<polygon fill="none" stroke="black" points="528.7,-259.5 528.7,-277.5 669.77,-277.5 669.77,-259.5 528.7,-259.5"/>
<text text-anchor="middle" x="599.24" y="-265.5" font-family="Helvetica,sans-Serif" font-size="10.00">Ogre::GLSLShaderManager</text>
</a>
</g>
</g>
<!-- Node9&#45;&gt;Node13 -->
<g id="edge12" class="edge">
<title>Node9&#45;&gt;Node13</title>
<path fill="none" stroke="midnightblue" d="M480.53,-274.47C496.4,-273.66 512.95,-272.82 528.45,-272.04"/>
<polygon fill="midnightblue" stroke="midnightblue" points="480.03,-270.99 470.22,-274.99 480.39,-277.98 480.03,-270.99"/>
</g>
<!-- Node14 -->
<g id="node14" class="node">
<title>Node14</title>
<g id="a_node14"><a xlink:href="class_ogre_1_1_metal_gpu_program_manager.html" target="_top" xlink:title=" ">
<polygon fill="none" stroke="black" points="516.76,-222.5 516.76,-240.5 681.71,-240.5 681.71,-222.5 516.76,-222.5"/>
<text text-anchor="middle" x="599.24" y="-228.5" font-family="Helvetica,sans-Serif" font-size="10.00">Ogre::MetalGpuProgramManager</text>
</a>
</g>
</g>
<!-- Node9&#45;&gt;Node14 -->
<g id="edge13" class="edge">
<title>Node9&#45;&gt;Node14</title>
<path fill="none" stroke="midnightblue" d="M450.27,-267.09C459.14,-264.96 468.29,-262.71 476.87,-260.5 492.95,-256.36 496.76,-254.53 512.87,-250.5 526.71,-247.04 541.9,-243.56 555.58,-240.54"/>
<polygon fill="midnightblue" stroke="midnightblue" points="449.33,-263.72 440.42,-269.44 450.96,-270.53 449.33,-263.72"/>
</g>
<!-- Node19 -->
<g id="node19" class="node">
<title>Node19</title>
<g id="a_node19"><a xlink:href="class_ogre_1_1_d3_d11_texture_manager.html" target="_top" xlink:title=" ">
<polygon fill="none" stroke="black" points="526.02,-185.5 526.02,-203.5 672.46,-203.5 672.46,-185.5 526.02,-185.5"/>
<text text-anchor="middle" x="599.24" y="-191.5" font-family="Helvetica,sans-Serif" font-size="10.00">Ogre::D3D11TextureManager</text>
</a>
</g>
</g>
<!-- Node18&#45;&gt;Node19 -->
<g id="edge18" class="edge">
<title>Node18&#45;&gt;Node19</title>
<path fill="none" stroke="midnightblue" d="M462.93,-132.89C467.78,-134.79 472.49,-136.98 476.87,-139.5 496.75,-150.94 492.77,-165.43 512.87,-176.5 519.5,-180.15 526.8,-183.07 534.25,-185.39"/>
<polygon fill="midnightblue" stroke="midnightblue" points="464.08,-129.59 453.48,-129.58 461.76,-136.19 464.08,-129.59"/>
</g>
<!-- Node20 -->
<g id="node20" class="node">
<title>Node20</title>
<g id="a_node20"><a xlink:href="class_ogre_1_1_d3_d9_texture_manager.html" target="_top" xlink:title=" ">
<polygon fill="none" stroke="black" points="528.43,-148.5 528.43,-166.5 670.04,-166.5 670.04,-148.5 528.43,-148.5"/>
<text text-anchor="middle" x="599.24" y="-154.5" font-family="Helvetica,sans-Serif" font-size="10.00">Ogre::D3D9TextureManager</text>
</a>
</g>
</g>
<!-- Node18&#45;&gt;Node20 -->
<g id="edge19" class="edge">
<title>Node18&#45;&gt;Node20</title>
<path fill="none" stroke="midnightblue" d="M458.94,-131.38C487.9,-136.81 522.53,-143.3 550.01,-148.46"/>
<polygon fill="midnightblue" stroke="midnightblue" points="459.43,-127.91 448.95,-129.5 458.14,-134.79 459.43,-127.91"/>
</g>
<!-- Node21 -->
<g id="node21" class="node">
<title>Node21</title>
<g id="a_node21"><a xlink:href="class_ogre_1_1_g_l3_plus_texture_manager.html" target="_top" xlink:title="GL3Plus&#45;specific implementation of a TextureManager.">
<polygon fill="none" stroke="black" points="522.04,-111.5 522.04,-129.5 676.44,-129.5 676.44,-111.5 522.04,-111.5"/>
<text text-anchor="middle" x="599.24" y="-117.5" font-family="Helvetica,sans-Serif" font-size="10.00">Ogre::GL3PlusTextureManager</text>
</a>
</g>
</g>
<!-- Node18&#45;&gt;Node21 -->
<g id="edge20" class="edge">
<title>Node18&#45;&gt;Node21</title>
<path fill="none" stroke="midnightblue" d="M468.01,-120.5C485.33,-120.5 504.09,-120.5 521.84,-120.5"/>
<polygon fill="midnightblue" stroke="midnightblue" points="468.01,-117 458.01,-120.5 468.01,-124 468.01,-117"/>
</g>
<!-- Node22 -->
<g id="node22" class="node">
<title>Node22</title>
<g id="a_node22"><a xlink:href="class_ogre_1_1_g_l_e_s2_texture_manager.html" target="_top" xlink:title="GL ES&#45;specific implementation of a TextureManager.">
<polygon fill="none" stroke="black" points="525.09,-74.5 525.09,-92.5 673.38,-92.5 673.38,-74.5 525.09,-74.5"/>
<text text-anchor="middle" x="599.24" y="-80.5" font-family="Helvetica,sans-Serif" font-size="10.00">Ogre::GLES2TextureManager</text>
</a>
</g>
</g>
<!-- Node18&#45;&gt;Node22 -->
<g id="edge21" class="edge">
<title>Node18&#45;&gt;Node22</title>
<path fill="none" stroke="midnightblue" d="M458.94,-109.62C487.9,-104.19 522.53,-97.7 550.01,-92.54"/>
<polygon fill="midnightblue" stroke="midnightblue" points="458.14,-106.21 448.95,-111.5 459.43,-113.09 458.14,-106.21"/>
</g>
<!-- Node23 -->
<g id="node23" class="node">
<title>Node23</title>
<g id="a_node23"><a xlink:href="class_ogre_1_1_metal_texture_manager.html" target="_top" xlink:title=" ">
<polygon fill="none" stroke="black" points="528.99,-37.5 528.99,-55.5 669.49,-55.5 669.49,-37.5 528.99,-37.5"/>
<text text-anchor="middle" x="599.24" y="-43.5" font-family="Helvetica,sans-Serif" font-size="10.00">Ogre::MetalTextureManager</text>
</a>
</g>
</g>
<!-- Node18&#45;&gt;Node23 -->
<g id="edge22" class="edge">
<title>Node18&#45;&gt;Node23</title>
<path fill="none" stroke="midnightblue" d="M465.35,-108.02C469.35,-106.4 473.22,-104.57 476.87,-102.5 496.82,-91.18 492.83,-76.68 512.87,-65.5 520.29,-61.36 528.55,-58.12 536.93,-55.58"/>
<polygon fill="midnightblue" stroke="midnightblue" points="464.09,-104.75 455.87,-111.43 466.47,-111.34 464.09,-104.75"/>
</g>
<!-- Node24 -->
<g id="node24" class="node">
<title>Node24</title>
<g id="a_node24"><a xlink:href="class_ogre_1_1_n_u_l_l_texture_manager.html" target="_top" xlink:title=" ">
<polygon fill="none" stroke="black" points="528.8,-0.5 528.8,-18.5 669.68,-18.5 669.68,-0.5 528.8,-0.5"/>
<text text-anchor="middle" x="599.24" y="-6.5" font-family="Helvetica,sans-Serif" font-size="10.00">Ogre::NULLTextureManager</text>
</a>
</g>
</g>
<!-- Node18&#45;&gt;Node24 -->
<g id="edge23" class="edge">
<title>Node18&#45;&gt;Node24</title>
<path fill="none" stroke="midnightblue" d="M467.43,-108.67C470.77,-106.88 473.94,-104.84 476.87,-102.5 505.41,-79.63 484.16,-51.17 512.87,-28.5 517.99,-24.45 523.8,-21.23 529.92,-18.67"/>
<polygon fill="midnightblue" stroke="midnightblue" points="465.93,-105.51 458.27,-112.82 468.82,-111.88 465.93,-105.51"/>
</g>
</g>
</svg>
