<?xml version="1.0" encoding="UTF-8" standalone="no"?>
<!DOCTYPE svg PUBLIC "-//W3C//DTD SVG 1.1//EN"
 "http://www.w3.org/Graphics/SVG/1.1/DTD/svg11.dtd">
<!-- Generated by graphviz version 2.43.0 (0)
 -->
<!-- Title: Ogre::FileStreamDataStream Pages: 1 -->
<svg width="153pt" height="137pt"
 viewBox="0.00 0.00 153.49 137.00" xmlns="http://www.w3.org/2000/svg" xmlns:xlink="http://www.w3.org/1999/xlink">
<g id="graph0" class="graph" transform="scale(1 1) rotate(0) translate(4 133)">
<title>Ogre::FileStreamDataStream</title>
<!-- Node1 -->
<g id="node1" class="node">
<title>Node1</title>
<g id="a_node1"><a xlink:title="Common subclass of DataStream for handling data from std::basic_istream.">
<polygon fill="#bfbfbf" stroke="black" points="0,-0.5 0,-18.5 145.49,-18.5 145.49,-0.5 0,-0.5"/>
<text text-anchor="middle" x="72.74" y="-6.5" font-family="Helvetica,sans-Serif" font-size="10.00">Ogre::FileStreamDataStream</text>
</a>
</g>
</g>
<!-- Node2 -->
<g id="node2" class="node">
<title>Node2</title>
<g id="a_node2"><a xlink:href="class_ogre_1_1_data_stream.html" target="_top" xlink:title="General purpose class used for encapsulating the reading and writing of data.">
<polygon fill="none" stroke="black" points="24.17,-55.5 24.17,-73.5 121.31,-73.5 121.31,-55.5 24.17,-55.5"/>
<text text-anchor="middle" x="72.74" y="-61.5" font-family="Helvetica,sans-Serif" font-size="10.00">Ogre::DataStream</text>
</a>
</g>
</g>
<!-- Node2&#45;&gt;Node1 -->
<g id="edge1" class="edge">
<title>Node2&#45;&gt;Node1</title>
<path fill="none" stroke="midnightblue" d="M72.74,-45.17C72.74,-36.09 72.74,-25.59 72.74,-18.55"/>
<polygon fill="midnightblue" stroke="midnightblue" points="69.24,-45.22 72.74,-55.22 76.24,-45.22 69.24,-45.22"/>
</g>
<!-- Node3 -->
<g id="node3" class="node">
<title>Node3</title>
<g id="a_node3"><a xlink:href="class_ogre_1_1_allocated_object.html" target="_top" xlink:title="Superclass for all objects that wish to use custom memory allocators when their new / delete operator...">
<polygon fill="none" stroke="black" points="37.79,-110.5 37.79,-128.5 107.7,-128.5 107.7,-110.5 37.79,-110.5"/>
<text text-anchor="middle" x="72.74" y="-116.5" font-family="Helvetica,sans-Serif" font-size="10.00">StreamAlloc</text>
</a>
</g>
</g>
<!-- Node3&#45;&gt;Node2 -->
<g id="edge2" class="edge">
<title>Node3&#45;&gt;Node2</title>
<path fill="none" stroke="midnightblue" d="M72.74,-100.17C72.74,-91.09 72.74,-80.59 72.74,-73.55"/>
<polygon fill="midnightblue" stroke="midnightblue" points="69.24,-100.22 72.74,-110.22 76.24,-100.22 69.24,-100.22"/>
</g>
</g>
</svg>
