<?xml version="1.0" encoding="UTF-8" standalone="no"?>
<!DOCTYPE svg PUBLIC "-//W3C//DTD SVG 1.1//EN"
 "http://www.w3.org/Graphics/SVG/1.1/DTD/svg11.dtd">
<!-- Generated by graphviz version 2.43.0 (0)
 -->
<!-- Title: Ogre::v1::MetalHardwareBufferManagerBase Pages: 1 -->
<svg width="162pt" height="157pt"
 viewBox="0.00 0.00 162.21 157.00" xmlns="http://www.w3.org/2000/svg" xmlns:xlink="http://www.w3.org/1999/xlink">
<g id="graph0" class="graph" transform="scale(1 1) rotate(0) translate(4 153)">
<title>Ogre::v1::MetalHardwareBufferManagerBase</title>
<!-- Node1 -->
<g id="node1" class="node">
<title>Node1</title>
<g id="a_node1"><a xlink:title="Implementation of HardwareBufferManager for Metal.">
<polygon fill="#bfbfbf" stroke="black" points="0,-0.5 0,-28.5 154.21,-28.5 154.21,-0.5 0,-0.5"/>
<text text-anchor="start" x="8" y="-16.5" font-family="Helvetica,sans-Serif" font-size="10.00">Ogre::v1::MetalHardwareBuffer</text>
<text text-anchor="middle" x="77.11" y="-6.5" font-family="Helvetica,sans-Serif" font-size="10.00">ManagerBase</text>
</a>
</g>
</g>
<!-- Node2 -->
<g id="node2" class="node">
<title>Node2</title>
<g id="a_node2"><a xlink:href="class_ogre_1_1v1_1_1_hardware_buffer_manager_base.html" target="_top" xlink:title="Base definition of a hardware buffer manager.">
<polygon fill="none" stroke="black" points="12.23,-65.5 12.23,-93.5 141.99,-93.5 141.99,-65.5 12.23,-65.5"/>
<text text-anchor="start" x="20.23" y="-81.5" font-family="Helvetica,sans-Serif" font-size="10.00">Ogre::v1::HardwareBuffer</text>
<text text-anchor="middle" x="77.11" y="-71.5" font-family="Helvetica,sans-Serif" font-size="10.00">ManagerBase</text>
</a>
</g>
</g>
<!-- Node2&#45;&gt;Node1 -->
<g id="edge1" class="edge">
<title>Node2&#45;&gt;Node1</title>
<path fill="none" stroke="midnightblue" d="M77.11,-55.16C77.11,-46.17 77.11,-36.22 77.11,-28.54"/>
<polygon fill="midnightblue" stroke="midnightblue" points="73.61,-55.45 77.11,-65.45 80.61,-55.45 73.61,-55.45"/>
</g>
<!-- Node3 -->
<g id="node3" class="node">
<title>Node3</title>
<g id="a_node3"><a xlink:href="class_ogre_1_1_allocated_object.html" target="_top" xlink:title="Superclass for all objects that wish to use custom memory allocators when their new / delete operator...">
<polygon fill="none" stroke="black" points="45.02,-130.5 45.02,-148.5 109.2,-148.5 109.2,-130.5 45.02,-130.5"/>
<text text-anchor="middle" x="77.11" y="-136.5" font-family="Helvetica,sans-Serif" font-size="10.00">BufferAlloc</text>
</a>
</g>
</g>
<!-- Node3&#45;&gt;Node2 -->
<g id="edge2" class="edge">
<title>Node3&#45;&gt;Node2</title>
<path fill="none" stroke="midnightblue" d="M77.11,-120.32C77.11,-111.75 77.11,-101.7 77.11,-93.84"/>
<polygon fill="midnightblue" stroke="midnightblue" points="73.61,-120.44 77.11,-130.44 80.61,-120.44 73.61,-120.44"/>
</g>
</g>
</svg>
