<?xml version="1.0" encoding="UTF-8" standalone="no"?>
<!DOCTYPE svg PUBLIC "-//W3C//DTD SVG 1.1//EN"
 "http://www.w3.org/Graphics/SVG/1.1/DTD/svg11.dtd">
<!-- Generated by graphviz version 2.43.0 (0)
 -->
<!-- Title: Ogre::TextureManager Pages: 1 -->
<svg width="614pt" height="212pt"
 viewBox="0.00 0.00 613.66 212.00" xmlns="http://www.w3.org/2000/svg" xmlns:xlink="http://www.w3.org/1999/xlink">
<g id="graph0" class="graph" transform="scale(1 1) rotate(0) translate(4 208)">
<title>Ogre::TextureManager</title>
<!-- Node1 -->
<g id="node1" class="node">
<title>Node1</title>
<g id="a_node1"><a xlink:title="Class for loading &amp; managing textures.">
<polygon fill="#bfbfbf" stroke="black" points="299.21,-92.5 299.21,-110.5 415.26,-110.5 415.26,-92.5 299.21,-92.5"/>
<text text-anchor="middle" x="357.23" y="-98.5" font-family="Helvetica,sans-Serif" font-size="10.00">Ogre::TextureManager</text>
</a>
</g>
</g>
<!-- Node6 -->
<g id="node6" class="node">
<title>Node6</title>
<g id="a_node6"><a xlink:href="class_ogre_1_1_d3_d11_texture_manager.html" target="_top" xlink:title=" ">
<polygon fill="none" stroke="black" points="455.24,-185.5 455.24,-203.5 601.68,-203.5 601.68,-185.5 455.24,-185.5"/>
<text text-anchor="middle" x="528.46" y="-191.5" font-family="Helvetica,sans-Serif" font-size="10.00">Ogre::D3D11TextureManager</text>
</a>
</g>
</g>
<!-- Node1&#45;&gt;Node6 -->
<g id="edge5" class="edge">
<title>Node1&#45;&gt;Node6</title>
<path fill="none" stroke="midnightblue" d="M373.83,-117.83C391.16,-135 420.72,-161.55 451.26,-176.5 458.71,-180.15 466.93,-183.08 475.14,-185.43"/>
<polygon fill="midnightblue" stroke="midnightblue" points="376.29,-115.34 366.78,-110.68 371.31,-120.26 376.29,-115.34"/>
</g>
<!-- Node7 -->
<g id="node7" class="node">
<title>Node7</title>
<g id="a_node7"><a xlink:href="class_ogre_1_1_d3_d9_texture_manager.html" target="_top" xlink:title=" ">
<polygon fill="none" stroke="black" points="457.65,-148.5 457.65,-166.5 599.27,-166.5 599.27,-148.5 457.65,-148.5"/>
<text text-anchor="middle" x="528.46" y="-154.5" font-family="Helvetica,sans-Serif" font-size="10.00">Ogre::D3D9TextureManager</text>
</a>
</g>
</g>
<!-- Node1&#45;&gt;Node7 -->
<g id="edge6" class="edge">
<title>Node1&#45;&gt;Node7</title>
<path fill="none" stroke="midnightblue" d="M387.29,-114.73C405.42,-122.65 429.39,-132.5 451.26,-139.5 461.75,-142.86 473.22,-145.89 484.02,-148.47"/>
<polygon fill="midnightblue" stroke="midnightblue" points="388.42,-111.41 377.86,-110.57 385.59,-117.81 388.42,-111.41"/>
</g>
<!-- Node8 -->
<g id="node8" class="node">
<title>Node8</title>
<g id="a_node8"><a xlink:href="class_ogre_1_1_g_l3_plus_texture_manager.html" target="_top" xlink:title="GL3Plus&#45;specific implementation of a TextureManager.">
<polygon fill="none" stroke="black" points="451.26,-111.5 451.26,-129.5 605.66,-129.5 605.66,-111.5 451.26,-111.5"/>
<text text-anchor="middle" x="528.46" y="-117.5" font-family="Helvetica,sans-Serif" font-size="10.00">Ogre::GL3PlusTextureManager</text>
</a>
</g>
</g>
<!-- Node1&#45;&gt;Node8 -->
<g id="edge7" class="edge">
<title>Node1&#45;&gt;Node8</title>
<path fill="none" stroke="midnightblue" d="M425.58,-109.06C433.94,-110 442.54,-110.97 451.02,-111.92"/>
<polygon fill="midnightblue" stroke="midnightblue" points="425.85,-105.57 415.53,-107.93 425.07,-112.53 425.85,-105.57"/>
</g>
<!-- Node9 -->
<g id="node9" class="node">
<title>Node9</title>
<g id="a_node9"><a xlink:href="class_ogre_1_1_g_l_e_s2_texture_manager.html" target="_top" xlink:title="GL ES&#45;specific implementation of a TextureManager.">
<polygon fill="none" stroke="black" points="454.32,-74.5 454.32,-92.5 602.61,-92.5 602.61,-74.5 454.32,-74.5"/>
<text text-anchor="middle" x="528.46" y="-80.5" font-family="Helvetica,sans-Serif" font-size="10.00">Ogre::GLES2TextureManager</text>
</a>
</g>
</g>
<!-- Node1&#45;&gt;Node9 -->
<g id="edge8" class="edge">
<title>Node1&#45;&gt;Node9</title>
<path fill="none" stroke="midnightblue" d="M425.55,-94.34C434.91,-93.34 444.56,-92.32 454.03,-91.31"/>
<polygon fill="midnightblue" stroke="midnightblue" points="425.1,-90.87 415.53,-95.41 425.84,-97.83 425.1,-90.87"/>
</g>
<!-- Node10 -->
<g id="node10" class="node">
<title>Node10</title>
<g id="a_node10"><a xlink:href="class_ogre_1_1_metal_texture_manager.html" target="_top" xlink:title=" ">
<polygon fill="none" stroke="black" points="458.21,-37.5 458.21,-55.5 598.71,-55.5 598.71,-37.5 458.21,-37.5"/>
<text text-anchor="middle" x="528.46" y="-43.5" font-family="Helvetica,sans-Serif" font-size="10.00">Ogre::MetalTextureManager</text>
</a>
</g>
</g>
<!-- Node1&#45;&gt;Node10 -->
<g id="edge9" class="edge">
<title>Node1&#45;&gt;Node10</title>
<path fill="none" stroke="midnightblue" d="M388.02,-88.36C406.08,-80.72 429.72,-71.29 451.26,-64.5 461.76,-61.19 473.25,-58.17 484.04,-55.6"/>
<polygon fill="midnightblue" stroke="midnightblue" points="386.42,-85.23 378.61,-92.39 389.18,-91.67 386.42,-85.23"/>
</g>
<!-- Node11 -->
<g id="node11" class="node">
<title>Node11</title>
<g id="a_node11"><a xlink:href="class_ogre_1_1_n_u_l_l_texture_manager.html" target="_top" xlink:title=" ">
<polygon fill="none" stroke="black" points="458.02,-0.5 458.02,-18.5 598.9,-18.5 598.9,-0.5 458.02,-0.5"/>
<text text-anchor="middle" x="528.46" y="-6.5" font-family="Helvetica,sans-Serif" font-size="10.00">Ogre::NULLTextureManager</text>
</a>
</g>
</g>
<!-- Node1&#45;&gt;Node11 -->
<g id="edge10" class="edge">
<title>Node1&#45;&gt;Node11</title>
<path fill="none" stroke="midnightblue" d="M374.15,-85.12C391.55,-68.18 420.99,-42.19 451.26,-27.5 458.84,-23.82 467.22,-20.87 475.56,-18.5"/>
<polygon fill="midnightblue" stroke="midnightblue" points="371.67,-82.66 367.05,-92.2 376.61,-87.62 371.67,-82.66"/>
</g>
<!-- Node2 -->
<g id="node2" class="node">
<title>Node2</title>
<g id="a_node2"><a xlink:href="class_ogre_1_1_resource_manager.html" target="_top" xlink:title="Defines a generic resource handler.">
<polygon fill="none" stroke="black" points="136.82,-113.5 136.82,-131.5 262.88,-131.5 262.88,-113.5 136.82,-113.5"/>
<text text-anchor="middle" x="199.85" y="-119.5" font-family="Helvetica,sans-Serif" font-size="10.00">Ogre::ResourceManager</text>
</a>
</g>
</g>
<!-- Node2&#45;&gt;Node1 -->
<g id="edge1" class="edge">
<title>Node2&#45;&gt;Node1</title>
<path fill="none" stroke="midnightblue" d="M273.22,-112.72C281.85,-111.55 290.57,-110.37 298.95,-109.24"/>
<polygon fill="midnightblue" stroke="midnightblue" points="272.6,-109.27 263.15,-114.08 273.53,-116.21 272.6,-109.27"/>
</g>
<!-- Node3 -->
<g id="node3" class="node">
<title>Node3</title>
<g id="a_node3"><a xlink:href="class_ogre_1_1_script_loader.html" target="_top" xlink:title="Abstract class defining the interface used by classes which wish to perform script loading to define ...">
<polygon fill="none" stroke="black" points="0,-131.5 0,-149.5 100.49,-149.5 100.49,-131.5 0,-131.5"/>
<text text-anchor="middle" x="50.24" y="-137.5" font-family="Helvetica,sans-Serif" font-size="10.00">Ogre::ScriptLoader</text>
</a>
</g>
</g>
<!-- Node3&#45;&gt;Node2 -->
<g id="edge2" class="edge">
<title>Node3&#45;&gt;Node2</title>
<path fill="none" stroke="midnightblue" d="M110.94,-133.22C119.39,-132.19 128.08,-131.13 136.57,-130.09"/>
<polygon fill="midnightblue" stroke="midnightblue" points="110.31,-129.77 100.8,-134.46 111.15,-136.72 110.31,-129.77"/>
</g>
<!-- Node4 -->
<g id="node4" class="node">
<title>Node4</title>
<g id="a_node4"><a xlink:href="class_ogre_1_1_allocated_object.html" target="_top" xlink:title="Superclass for all objects that wish to use custom memory allocators when their new / delete operator...">
<polygon fill="none" stroke="black" points="10.01,-94.5 10.01,-112.5 90.48,-112.5 90.48,-94.5 10.01,-94.5"/>
<text text-anchor="middle" x="50.24" y="-100.5" font-family="Helvetica,sans-Serif" font-size="10.00">ResourceAlloc</text>
</a>
</g>
</g>
<!-- Node4&#45;&gt;Node2 -->
<g id="edge3" class="edge">
<title>Node4&#45;&gt;Node2</title>
<path fill="none" stroke="midnightblue" d="M101.02,-109.91C112.46,-111.38 124.76,-112.96 136.65,-114.49"/>
<polygon fill="midnightblue" stroke="midnightblue" points="101.16,-106.4 90.8,-108.59 100.27,-113.34 101.16,-106.4"/>
</g>
<!-- Node5 -->
<g id="node5" class="node">
<title>Node5</title>
<g id="a_node5"><a xlink:href="class_ogre_1_1_singleton.html" target="_top" xlink:title=" ">
<polygon fill="none" stroke="black" points="136.49,-66.5 136.49,-94.5 263.21,-94.5 263.21,-66.5 136.49,-66.5"/>
<text text-anchor="start" x="144.49" y="-82.5" font-family="Helvetica,sans-Serif" font-size="10.00">Ogre::Singleton&lt; Texture</text>
<text text-anchor="middle" x="199.85" y="-72.5" font-family="Helvetica,sans-Serif" font-size="10.00">Manager &gt;</text>
</a>
</g>
</g>
<!-- Node5&#45;&gt;Node1 -->
<g id="edge4" class="edge">
<title>Node5&#45;&gt;Node1</title>
<path fill="none" stroke="midnightblue" d="M273.77,-90.36C282.16,-91.49 290.62,-92.63 298.77,-93.73"/>
<polygon fill="midnightblue" stroke="midnightblue" points="273.98,-86.85 263.6,-88.98 273.04,-93.79 273.98,-86.85"/>
</g>
</g>
</svg>
