<?xml version="1.0" encoding="UTF-8" standalone="no"?>
<!DOCTYPE svg PUBLIC "-//W3C//DTD SVG 1.1//EN"
 "http://www.w3.org/Graphics/SVG/1.1/DTD/svg11.dtd">
<!-- Generated by graphviz version 2.43.0 (0)
 -->
<!-- Title: Ogre::AntiPortalFactory Pages: 1 -->
<svg width="152pt" height="192pt"
 viewBox="0.00 0.00 151.83 192.00" xmlns="http://www.w3.org/2000/svg" xmlns:xlink="http://www.w3.org/1999/xlink">
<g id="graph0" class="graph" transform="scale(1 1) rotate(0) translate(4 188)">
<title>Ogre::AntiPortalFactory</title>
<!-- Node1 -->
<g id="node1" class="node">
<title>Node1</title>
<g id="a_node1"><a xlink:title="Factory object for creating AntiPortal instances.">
<polygon fill="#bfbfbf" stroke="black" points="11.67,-0.5 11.67,-18.5 132.15,-18.5 132.15,-0.5 11.67,-0.5"/>
<text text-anchor="middle" x="71.91" y="-6.5" font-family="Helvetica,sans-Serif" font-size="10.00">Ogre::AntiPortalFactory</text>
</a>
</g>
</g>
<!-- Node2 -->
<g id="node2" class="node">
<title>Node2</title>
<g id="a_node2"><a xlink:href="class_ogre_1_1_portal_base_factory.html" target="_top" xlink:title="Factory object for creating Portal instances.">
<polygon fill="none" stroke="black" points="8.89,-55.5 8.89,-73.5 134.94,-73.5 134.94,-55.5 8.89,-55.5"/>
<text text-anchor="middle" x="71.91" y="-61.5" font-family="Helvetica,sans-Serif" font-size="10.00">Ogre::PortalBaseFactory</text>
</a>
</g>
</g>
<!-- Node2&#45;&gt;Node1 -->
<g id="edge1" class="edge">
<title>Node2&#45;&gt;Node1</title>
<path fill="none" stroke="midnightblue" d="M71.91,-45.17C71.91,-36.09 71.91,-25.59 71.91,-18.55"/>
<polygon fill="midnightblue" stroke="midnightblue" points="68.41,-45.22 71.91,-55.22 75.41,-45.22 68.41,-45.22"/>
</g>
<!-- Node3 -->
<g id="node3" class="node">
<title>Node3</title>
<g id="a_node3"><a xlink:href="class_ogre_1_1_movable_object_factory.html" target="_top" xlink:title="Interface definition for a factory class which produces a certain kind of MovableObject,...">
<polygon fill="none" stroke="black" points="0,-110.5 0,-128.5 143.83,-128.5 143.83,-110.5 0,-110.5"/>
<text text-anchor="middle" x="71.91" y="-116.5" font-family="Helvetica,sans-Serif" font-size="10.00">Ogre::MovableObjectFactory</text>
</a>
</g>
</g>
<!-- Node3&#45;&gt;Node2 -->
<g id="edge2" class="edge">
<title>Node3&#45;&gt;Node2</title>
<path fill="none" stroke="midnightblue" d="M71.91,-100.17C71.91,-91.09 71.91,-80.59 71.91,-73.55"/>
<polygon fill="midnightblue" stroke="midnightblue" points="68.41,-100.22 71.91,-110.22 75.41,-100.22 68.41,-100.22"/>
</g>
<!-- Node4 -->
<g id="node4" class="node">
<title>Node4</title>
<g id="a_node4"><a xlink:href="class_ogre_1_1_allocated_object.html" target="_top" xlink:title="Superclass for all objects that wish to use custom memory allocators when their new / delete operator...">
<polygon fill="none" stroke="black" points="34.18,-165.5 34.18,-183.5 109.65,-183.5 109.65,-165.5 34.18,-165.5"/>
<text text-anchor="middle" x="71.91" y="-171.5" font-family="Helvetica,sans-Serif" font-size="10.00">MovableAlloc</text>
</a>
</g>
</g>
<!-- Node4&#45;&gt;Node3 -->
<g id="edge3" class="edge">
<title>Node4&#45;&gt;Node3</title>
<path fill="none" stroke="midnightblue" d="M71.91,-155.17C71.91,-146.09 71.91,-135.59 71.91,-128.55"/>
<polygon fill="midnightblue" stroke="midnightblue" points="68.41,-155.22 71.91,-165.22 75.41,-155.22 68.41,-155.22"/>
</g>
</g>
</svg>
