<?xml version="1.0" encoding="UTF-8" standalone="no"?>
<!DOCTYPE svg PUBLIC "-//W3C//DTD SVG 1.1//EN"
 "http://www.w3.org/Graphics/SVG/1.1/DTD/svg11.dtd">
<!-- Generated by graphviz version 2.43.0 (0)
 -->
<!-- Title: Ogre::DefaultSceneManagerFactory Pages: 1 -->
<svg width="153pt" height="147pt"
 viewBox="0.00 0.00 152.95 147.00" xmlns="http://www.w3.org/2000/svg" xmlns:xlink="http://www.w3.org/1999/xlink">
<g id="graph0" class="graph" transform="scale(1 1) rotate(0) translate(4 143)">
<title>Ogre::DefaultSceneManagerFactory</title>
<!-- Node1 -->
<g id="node1" class="node">
<title>Node1</title>
<g id="a_node1"><a xlink:title="Factory for default scene manager.">
<polygon fill="#bfbfbf" stroke="black" points="0.83,-0.5 0.83,-28.5 144.12,-28.5 144.12,-0.5 0.83,-0.5"/>
<text text-anchor="start" x="8.83" y="-16.5" font-family="Helvetica,sans-Serif" font-size="10.00">Ogre::DefaultSceneManager</text>
<text text-anchor="middle" x="72.48" y="-6.5" font-family="Helvetica,sans-Serif" font-size="10.00">Factory</text>
</a>
</g>
</g>
<!-- Node2 -->
<g id="node2" class="node">
<title>Node2</title>
<g id="a_node2"><a xlink:href="class_ogre_1_1_scene_manager_factory.html" target="_top" xlink:title="Class which will create instances of a given SceneManager.">
<polygon fill="none" stroke="black" points="0,-65.5 0,-83.5 144.95,-83.5 144.95,-65.5 0,-65.5"/>
<text text-anchor="middle" x="72.48" y="-71.5" font-family="Helvetica,sans-Serif" font-size="10.00">Ogre::SceneManagerFactory</text>
</a>
</g>
</g>
<!-- Node2&#45;&gt;Node1 -->
<g id="edge1" class="edge">
<title>Node2&#45;&gt;Node1</title>
<path fill="none" stroke="midnightblue" d="M72.48,-55.32C72.48,-46.75 72.48,-36.7 72.48,-28.84"/>
<polygon fill="midnightblue" stroke="midnightblue" points="68.98,-55.44 72.48,-65.44 75.98,-55.44 68.98,-55.44"/>
</g>
<!-- Node3 -->
<g id="node3" class="node">
<title>Node3</title>
<g id="a_node3"><a xlink:href="class_ogre_1_1_allocated_object.html" target="_top" xlink:title="Superclass for all objects that wish to use custom memory allocators when their new / delete operator...">
<polygon fill="none" stroke="black" points="31.13,-120.5 31.13,-138.5 113.82,-138.5 113.82,-120.5 31.13,-120.5"/>
<text text-anchor="middle" x="72.48" y="-126.5" font-family="Helvetica,sans-Serif" font-size="10.00">SceneMgtAlloc</text>
</a>
</g>
</g>
<!-- Node3&#45;&gt;Node2 -->
<g id="edge2" class="edge">
<title>Node3&#45;&gt;Node2</title>
<path fill="none" stroke="midnightblue" d="M72.48,-110.17C72.48,-101.09 72.48,-90.59 72.48,-83.55"/>
<polygon fill="midnightblue" stroke="midnightblue" points="68.98,-110.22 72.48,-120.22 75.98,-110.22 68.98,-110.22"/>
</g>
</g>
</svg>
