<?xml version="1.0" encoding="UTF-8" standalone="no"?>
<!DOCTYPE svg PUBLIC "-//W3C//DTD SVG 1.1//EN"
 "http://www.w3.org/Graphics/SVG/1.1/DTD/svg11.dtd">
<!-- Generated by graphviz version 2.43.0 (0)
 -->
<!-- Title: Ogre::RTShader::ProgramManager Pages: 1 -->
<svg width="274pt" height="92pt"
 viewBox="0.00 0.00 274.43 92.00" xmlns="http://www.w3.org/2000/svg" xmlns:xlink="http://www.w3.org/1999/xlink">
<g id="graph0" class="graph" transform="scale(1 1) rotate(0) translate(4 88)">
<title>Ogre::RTShader::ProgramManager</title>
<!-- Node1 -->
<g id="node1" class="node">
<title>Node1</title>
<g id="a_node1"><a xlink:title="A singleton manager class that manages shader based programs.">
<polygon fill="#bfbfbf" stroke="black" points="50.95,-0.5 50.95,-18.5 223.5,-18.5 223.5,-0.5 50.95,-0.5"/>
<text text-anchor="middle" x="137.23" y="-6.5" font-family="Helvetica,sans-Serif" font-size="10.00">Ogre::RTShader::ProgramManager</text>
</a>
</g>
</g>
<!-- Node2 -->
<g id="node2" class="node">
<title>Node2</title>
<g id="a_node2"><a xlink:href="class_ogre_1_1_singleton.html" target="_top" xlink:title=" ">
<polygon fill="none" stroke="black" points="0,-55.5 0,-83.5 132.45,-83.5 132.45,-55.5 0,-55.5"/>
<text text-anchor="start" x="8" y="-71.5" font-family="Helvetica,sans-Serif" font-size="10.00">Ogre::Singleton&lt; Program</text>
<text text-anchor="middle" x="66.23" y="-61.5" font-family="Helvetica,sans-Serif" font-size="10.00">Manager &gt;</text>
</a>
</g>
</g>
<!-- Node2&#45;&gt;Node1 -->
<g id="edge1" class="edge">
<title>Node2&#45;&gt;Node1</title>
<path fill="none" stroke="midnightblue" d="M90.21,-48.91C102.79,-38.63 117.52,-26.59 127.1,-18.77"/>
<polygon fill="midnightblue" stroke="midnightblue" points="87.87,-46.3 82.34,-55.34 92.29,-51.72 87.87,-46.3"/>
</g>
<!-- Node3 -->
<g id="node3" class="node">
<title>Node3</title>
<g id="a_node3"><a xlink:href="class_ogre_1_1_allocated_object.html" target="_top" xlink:title="Superclass for all objects that wish to use custom memory allocators when their new / delete operator...">
<polygon fill="none" stroke="black" points="150.02,-60.5 150.02,-78.5 266.43,-78.5 266.43,-60.5 150.02,-60.5"/>
<text text-anchor="middle" x="208.23" y="-66.5" font-family="Helvetica,sans-Serif" font-size="10.00">RTShaderSystemAlloc</text>
</a>
</g>
</g>
<!-- Node3&#45;&gt;Node1 -->
<g id="edge2" class="edge">
<title>Node3&#45;&gt;Node1</title>
<path fill="none" stroke="midnightblue" d="M190.23,-53.8C176.7,-42.74 158.63,-27.99 147.47,-18.87"/>
<polygon fill="midnightblue" stroke="midnightblue" points="188.39,-56.82 198.35,-60.44 192.82,-51.4 188.39,-56.82"/>
</g>
</g>
</svg>
