<?xml version="1.0" encoding="UTF-8" standalone="no"?>
<!DOCTYPE svg PUBLIC "-//W3C//DTD SVG 1.1//EN"
 "http://www.w3.org/Graphics/SVG/1.1/DTD/svg11.dtd">
<!-- Generated by graphviz version 2.43.0 (0)
 -->
<!-- Title: Ogre::ConstBufferPacked Pages: 1 -->
<svg width="653pt" height="185pt"
 viewBox="0.00 0.00 652.67 185.00" xmlns="http://www.w3.org/2000/svg" xmlns:xlink="http://www.w3.org/1999/xlink">
<g id="graph0" class="graph" transform="scale(1 1) rotate(0) translate(4 181)">
<title>Ogre::ConstBufferPacked</title>
<!-- Node1 -->
<g id="node1" class="node">
<title>Node1</title>
<g id="a_node1"><a xlink:title="Represents constant buffers (also known as Uniform Buffers in GL)">
<polygon fill="#bfbfbf" stroke="black" points="316.89,-74.5 316.89,-92.5 446.66,-92.5 446.66,-74.5 316.89,-74.5"/>
<text text-anchor="middle" x="381.78" y="-80.5" font-family="Helvetica,sans-Serif" font-size="10.00">Ogre::ConstBufferPacked</text>
</a>
</g>
</g>
<!-- Node5 -->
<g id="node5" class="node">
<title>Node5</title>
<g id="a_node5"><a xlink:href="class_ogre_1_1_d3_d11_const_buffer_packed.html" target="_top" xlink:title=" ">
<polygon fill="none" stroke="black" points="483.59,-158.5 483.59,-176.5 643.75,-176.5 643.75,-158.5 483.59,-158.5"/>
<text text-anchor="middle" x="563.67" y="-164.5" font-family="Helvetica,sans-Serif" font-size="10.00">Ogre::D3D11ConstBufferPacked</text>
</a>
</g>
</g>
<!-- Node1&#45;&gt;Node5 -->
<g id="edge4" class="edge">
<title>Node1&#45;&gt;Node5</title>
<path fill="none" stroke="midnightblue" d="M401.63,-99.01C420.87,-114.07 452.15,-136.51 482.66,-149.5 491.17,-153.13 500.52,-156.07 509.73,-158.45"/>
<polygon fill="midnightblue" stroke="midnightblue" points="403.68,-96.17 393.68,-92.67 399.32,-101.64 403.68,-96.17"/>
</g>
<!-- Node6 -->
<g id="node6" class="node">
<title>Node6</title>
<g id="a_node6"><a xlink:href="class_ogre_1_1_g_l3_plus_const_buffer_packed.html" target="_top" xlink:title=" ">
<polygon fill="none" stroke="black" points="496.28,-111.5 496.28,-139.5 631.05,-139.5 631.05,-111.5 496.28,-111.5"/>
<text text-anchor="start" x="504.28" y="-127.5" font-family="Helvetica,sans-Serif" font-size="10.00">Ogre::GL3PlusConstBuffer</text>
<text text-anchor="middle" x="563.67" y="-117.5" font-family="Helvetica,sans-Serif" font-size="10.00">Packed</text>
</a>
</g>
</g>
<!-- Node1&#45;&gt;Node6 -->
<g id="edge5" class="edge">
<title>Node1&#45;&gt;Node6</title>
<path fill="none" stroke="midnightblue" d="M431.14,-94.79C453.11,-99.92 479.32,-106.04 502.55,-111.46"/>
<polygon fill="midnightblue" stroke="midnightblue" points="431.9,-91.38 421.37,-92.51 430.31,-98.19 431.9,-91.38"/>
</g>
<!-- Node7 -->
<g id="node7" class="node">
<title>Node7</title>
<g id="a_node7"><a xlink:href="class_ogre_1_1_g_l_e_s2_const_buffer_packed.html" target="_top" xlink:title=" ">
<polygon fill="none" stroke="black" points="482.66,-74.5 482.66,-92.5 644.67,-92.5 644.67,-74.5 482.66,-74.5"/>
<text text-anchor="middle" x="563.67" y="-80.5" font-family="Helvetica,sans-Serif" font-size="10.00">Ogre::GLES2ConstBufferPacked</text>
</a>
</g>
</g>
<!-- Node1&#45;&gt;Node7 -->
<g id="edge6" class="edge">
<title>Node1&#45;&gt;Node7</title>
<path fill="none" stroke="midnightblue" d="M456.91,-83.5C465.38,-83.5 474.04,-83.5 482.57,-83.5"/>
<polygon fill="midnightblue" stroke="midnightblue" points="456.7,-80 446.7,-83.5 456.7,-87 456.7,-80"/>
</g>
<!-- Node8 -->
<g id="node8" class="node">
<title>Node8</title>
<g id="a_node8"><a xlink:href="class_ogre_1_1_metal_const_buffer_packed.html" target="_top" xlink:title=" ">
<polygon fill="none" stroke="black" points="486.55,-37.5 486.55,-55.5 640.78,-55.5 640.78,-37.5 486.55,-37.5"/>
<text text-anchor="middle" x="563.67" y="-43.5" font-family="Helvetica,sans-Serif" font-size="10.00">Ogre::MetalConstBufferPacked</text>
</a>
</g>
</g>
<!-- Node1&#45;&gt;Node8 -->
<g id="edge7" class="edge">
<title>Node1&#45;&gt;Node8</title>
<path fill="none" stroke="midnightblue" d="M436.58,-72.43C462.83,-67.03 494.02,-60.62 518.8,-55.52"/>
<polygon fill="midnightblue" stroke="midnightblue" points="435.87,-69.01 426.78,-74.45 437.28,-75.86 435.87,-69.01"/>
</g>
<!-- Node9 -->
<g id="node9" class="node">
<title>Node9</title>
<g id="a_node9"><a xlink:href="class_ogre_1_1_n_u_l_l_const_buffer_packed.html" target="_top" xlink:title=" ">
<polygon fill="none" stroke="black" points="486,-0.5 486,-18.5 641.33,-18.5 641.33,-0.5 486,-0.5"/>
<text text-anchor="middle" x="563.67" y="-6.5" font-family="Helvetica,sans-Serif" font-size="10.00">Ogre::NULLConstBufferPacked</text>
</a>
</g>
</g>
<!-- Node1&#45;&gt;Node9 -->
<g id="edge8" class="edge">
<title>Node1&#45;&gt;Node9</title>
<path fill="none" stroke="midnightblue" d="M404.56,-68.84C424.21,-56.22 454.3,-38.38 482.66,-27.5 491.97,-23.93 502.16,-20.97 512.07,-18.55"/>
<polygon fill="midnightblue" stroke="midnightblue" points="402.51,-65.99 396.05,-74.39 406.34,-71.85 402.51,-65.99"/>
</g>
<!-- Node2 -->
<g id="node2" class="node">
<title>Node2</title>
<g id="a_node2"><a xlink:href="class_ogre_1_1_buffer_packed.html" target="_top" xlink:title=" ">
<polygon fill="none" stroke="black" points="177.24,-74.5 177.24,-92.5 280.89,-92.5 280.89,-74.5 177.24,-74.5"/>
<text text-anchor="middle" x="229.07" y="-80.5" font-family="Helvetica,sans-Serif" font-size="10.00">Ogre::BufferPacked</text>
</a>
</g>
</g>
<!-- Node2&#45;&gt;Node1 -->
<g id="edge1" class="edge">
<title>Node2&#45;&gt;Node1</title>
<path fill="none" stroke="midnightblue" d="M291.19,-83.5C299.6,-83.5 308.25,-83.5 316.71,-83.5"/>
<polygon fill="midnightblue" stroke="midnightblue" points="291.09,-80 281.09,-83.5 291.09,-87 291.09,-80"/>
</g>
<!-- Node3 -->
<g id="node3" class="node">
<title>Node3</title>
<g id="a_node3"><a xlink:href="struct_ogre_1_1_gpu_tracked_resource.html" target="_top" xlink:title=" ">
<polygon fill="none" stroke="black" points="0,-93.5 0,-111.5 141.24,-111.5 141.24,-93.5 0,-93.5"/>
<text text-anchor="middle" x="70.62" y="-99.5" font-family="Helvetica,sans-Serif" font-size="10.00">Ogre::GpuTrackedResource</text>
</a>
</g>
</g>
<!-- Node3&#45;&gt;Node2 -->
<g id="edge2" class="edge">
<title>Node3&#45;&gt;Node2</title>
<path fill="none" stroke="midnightblue" d="M151.67,-92.78C160.24,-91.74 168.79,-90.7 176.9,-89.71"/>
<polygon fill="midnightblue" stroke="midnightblue" points="151.11,-89.32 141.61,-94 151.96,-96.27 151.11,-89.32"/>
</g>
<!-- Node4 -->
<g id="node4" class="node">
<title>Node4</title>
<g id="a_node4"><a xlink:href="class_ogre_1_1_allocated_object.html" target="_top" xlink:title="Superclass for all objects that wish to use custom memory allocators when their new / delete operator...">
<polygon fill="none" stroke="black" points="21.86,-56.5 21.86,-74.5 119.39,-74.5 119.39,-56.5 21.86,-56.5"/>
<text text-anchor="middle" x="70.62" y="-62.5" font-family="Helvetica,sans-Serif" font-size="10.00">BufferPackedAlloc</text>
</a>
</g>
</g>
<!-- Node4&#45;&gt;Node2 -->
<g id="edge3" class="edge">
<title>Node4&#45;&gt;Node2</title>
<path fill="none" stroke="midnightblue" d="M129.47,-72.16C145.07,-73.95 161.84,-75.88 177.04,-77.63"/>
<polygon fill="midnightblue" stroke="midnightblue" points="129.75,-68.66 119.41,-71 128.95,-75.62 129.75,-68.66"/>
</g>
</g>
</svg>
