<?xml version="1.0" encoding="UTF-8" standalone="no"?>
<!DOCTYPE svg PUBLIC "-//W3C//DTD SVG 1.1//EN"
 "http://www.w3.org/Graphics/SVG/1.1/DTD/svg11.dtd">
<!-- Generated by graphviz version 2.43.0 (0)
 -->
<!-- Title: Ogre::AnimationControllerFunction Pages: 1 -->
<svg width="140pt" height="157pt"
 viewBox="0.00 0.00 139.61 157.00" xmlns="http://www.w3.org/2000/svg" xmlns:xlink="http://www.w3.org/1999/xlink">
<g id="graph0" class="graph" transform="scale(1 1) rotate(0) translate(4 153)">
<title>Ogre::AnimationControllerFunction</title>
<!-- Node1 -->
<g id="node1" class="node">
<title>Node1</title>
<g id="a_node1"><a xlink:title="Predefined controller function for dealing with animation.">
<polygon fill="#bfbfbf" stroke="black" points="0,-0.5 0,-28.5 131.61,-28.5 131.61,-0.5 0,-0.5"/>
<text text-anchor="start" x="8" y="-16.5" font-family="Helvetica,sans-Serif" font-size="10.00">Ogre::AnimationController</text>
<text text-anchor="middle" x="65.8" y="-6.5" font-family="Helvetica,sans-Serif" font-size="10.00">Function</text>
</a>
</g>
</g>
<!-- Node2 -->
<g id="node2" class="node">
<title>Node2</title>
<g id="a_node2"><a xlink:href="class_ogre_1_1_controller_function.html" target="_top" xlink:title=" ">
<polygon fill="none" stroke="black" points="3.06,-65.5 3.06,-93.5 128.55,-93.5 128.55,-65.5 3.06,-65.5"/>
<text text-anchor="start" x="11.06" y="-81.5" font-family="Helvetica,sans-Serif" font-size="10.00">Ogre::ControllerFunction</text>
<text text-anchor="middle" x="65.8" y="-71.5" font-family="Helvetica,sans-Serif" font-size="10.00">&lt; Real &gt;</text>
</a>
</g>
</g>
<!-- Node2&#45;&gt;Node1 -->
<g id="edge1" class="edge">
<title>Node2&#45;&gt;Node1</title>
<path fill="none" stroke="midnightblue" d="M65.8,-55.16C65.8,-46.17 65.8,-36.22 65.8,-28.54"/>
<polygon fill="midnightblue" stroke="midnightblue" points="62.3,-55.45 65.8,-65.45 69.3,-55.45 62.3,-55.45"/>
</g>
<!-- Node3 -->
<g id="node3" class="node">
<title>Node3</title>
<g id="a_node3"><a xlink:href="class_ogre_1_1_allocated_object.html" target="_top" xlink:title="Superclass for all objects that wish to use custom memory allocators when their new / delete operator...">
<polygon fill="none" stroke="black" points="25.29,-130.5 25.29,-148.5 106.31,-148.5 106.31,-130.5 25.29,-130.5"/>
<text text-anchor="middle" x="65.8" y="-136.5" font-family="Helvetica,sans-Serif" font-size="10.00">ControllerAlloc</text>
</a>
</g>
</g>
<!-- Node3&#45;&gt;Node2 -->
<g id="edge2" class="edge">
<title>Node3&#45;&gt;Node2</title>
<path fill="none" stroke="midnightblue" d="M65.8,-120.32C65.8,-111.75 65.8,-101.7 65.8,-93.84"/>
<polygon fill="midnightblue" stroke="midnightblue" points="62.3,-120.44 65.8,-130.44 69.3,-120.44 62.3,-120.44"/>
</g>
</g>
</svg>
