<?xml version="1.0" encoding="UTF-8" standalone="no"?>
<!DOCTYPE svg PUBLIC "-//W3C//DTD SVG 1.1//EN"
 "http://www.w3.org/Graphics/SVG/1.1/DTD/svg11.dtd">
<!-- Generated by graphviz version 2.43.0 (0)
 -->
<!-- Title: Ogre::v1::TextAreaOverlayElementFactory Pages: 1 -->
<svg width="142pt" height="157pt"
 viewBox="0.00 0.00 141.82 157.00" xmlns="http://www.w3.org/2000/svg" xmlns:xlink="http://www.w3.org/1999/xlink">
<g id="graph0" class="graph" transform="scale(1 1) rotate(0) translate(4 153)">
<title>Ogre::v1::TextAreaOverlayElementFactory</title>
<!-- Node1 -->
<g id="node1" class="node">
<title>Node1</title>
<g id="a_node1"><a xlink:title="Factory for creating TextAreaOverlayElement instances.">
<polygon fill="#bfbfbf" stroke="black" points="0,-0.5 0,-28.5 133.82,-28.5 133.82,-0.5 0,-0.5"/>
<text text-anchor="start" x="8" y="-16.5" font-family="Helvetica,sans-Serif" font-size="10.00">Ogre::v1::TextAreaOverlay</text>
<text text-anchor="middle" x="66.91" y="-6.5" font-family="Helvetica,sans-Serif" font-size="10.00">ElementFactory</text>
</a>
</g>
</g>
<!-- Node2 -->
<g id="node2" class="node">
<title>Node2</title>
<g id="a_node2"><a xlink:href="class_ogre_1_1v1_1_1_overlay_element_factory.html" target="_top" xlink:title="Defines the interface which all components wishing to supply OverlayElement subclasses must implement...">
<polygon fill="none" stroke="black" points="1.39,-65.5 1.39,-93.5 132.43,-93.5 132.43,-65.5 1.39,-65.5"/>
<text text-anchor="start" x="9.39" y="-81.5" font-family="Helvetica,sans-Serif" font-size="10.00">Ogre::v1::OverlayElement</text>
<text text-anchor="middle" x="66.91" y="-71.5" font-family="Helvetica,sans-Serif" font-size="10.00">Factory</text>
</a>
</g>
</g>
<!-- Node2&#45;&gt;Node1 -->
<g id="edge1" class="edge">
<title>Node2&#45;&gt;Node1</title>
<path fill="none" stroke="midnightblue" d="M66.91,-55.16C66.91,-46.17 66.91,-36.22 66.91,-28.54"/>
<polygon fill="midnightblue" stroke="midnightblue" points="63.41,-55.45 66.91,-65.45 70.41,-55.45 63.41,-55.45"/>
</g>
<!-- Node3 -->
<g id="node3" class="node">
<title>Node3</title>
<g id="a_node3"><a xlink:href="class_ogre_1_1_allocated_object.html" target="_top" xlink:title="Superclass for all objects that wish to use custom memory allocators when their new / delete operator...">
<polygon fill="none" stroke="black" points="30.85,-130.5 30.85,-148.5 102.98,-148.5 102.98,-130.5 30.85,-130.5"/>
<text text-anchor="middle" x="66.91" y="-136.5" font-family="Helvetica,sans-Serif" font-size="10.00">OverlayAlloc</text>
</a>
</g>
</g>
<!-- Node3&#45;&gt;Node2 -->
<g id="edge2" class="edge">
<title>Node3&#45;&gt;Node2</title>
<path fill="none" stroke="midnightblue" d="M66.91,-120.32C66.91,-111.75 66.91,-101.7 66.91,-93.84"/>
<polygon fill="midnightblue" stroke="midnightblue" points="63.41,-120.44 66.91,-130.44 70.41,-120.44 63.41,-120.44"/>
</g>
</g>
</svg>
