<?xml version="1.0" encoding="UTF-8" standalone="no"?>
<!DOCTYPE svg PUBLIC "-//W3C//DTD SVG 1.1//EN"
 "http://www.w3.org/Graphics/SVG/1.1/DTD/svg11.dtd">
<!-- Generated by graphviz version 2.43.0 (0)
 -->
<!-- Title: Ogre::RegionSceneQuery Pages: 1 -->
<svg width="983pt" height="252pt"
 viewBox="0.00 0.00 983.33 252.00" xmlns="http://www.w3.org/2000/svg" xmlns:xlink="http://www.w3.org/1999/xlink">
<g id="graph0" class="graph" transform="scale(1 1) rotate(0) translate(4 248)">
<title>Ogre::RegionSceneQuery</title>
<!-- Node1 -->
<g id="node1" class="node">
<title>Node1</title>
<g id="a_node1"><a xlink:title="Abstract class defining a query which returns single results from a region.">
<polygon fill="#bfbfbf" stroke="black" points="289.65,-105.5 289.65,-123.5 420.71,-123.5 420.71,-105.5 289.65,-105.5"/>
<text text-anchor="middle" x="355.18" y="-111.5" font-family="Helvetica,sans-Serif" font-size="10.00">Ogre::RegionSceneQuery</text>
</a>
</g>
</g>
<!-- Node5 -->
<g id="node5" class="node">
<title>Node5</title>
<g id="a_node5"><a xlink:href="class_ogre_1_1_axis_aligned_box_scene_query.html" target="_top" xlink:title="Specialises the SceneQuery class for querying within an axis aligned box.">
<polygon fill="none" stroke="black" points="457.28,-157.5 457.28,-185.5 598.91,-185.5 598.91,-157.5 457.28,-157.5"/>
<text text-anchor="start" x="465.28" y="-173.5" font-family="Helvetica,sans-Serif" font-size="10.00">Ogre::AxisAlignedBoxScene</text>
<text text-anchor="middle" x="528.09" y="-163.5" font-family="Helvetica,sans-Serif" font-size="10.00">Query</text>
</a>
</g>
</g>
<!-- Node1&#45;&gt;Node5 -->
<g id="edge4" class="edge">
<title>Node1&#45;&gt;Node5</title>
<path fill="none" stroke="midnightblue" d="M393.09,-126.81C420.05,-135.8 456.67,-148.01 484.82,-157.4"/>
<polygon fill="midnightblue" stroke="midnightblue" points="393.86,-123.38 383.26,-123.53 391.64,-130.02 393.86,-123.38"/>
</g>
<!-- Node9 -->
<g id="node9" class="node">
<title>Node9</title>
<g id="a_node9"><a xlink:href="class_ogre_1_1_plane_bounded_volume_list_scene_query.html" target="_top" xlink:title="Specialises the SceneQuery class for querying within a plane&#45;bounded volume.">
<polygon fill="none" stroke="black" points="456.71,-100.5 456.71,-128.5 599.48,-128.5 599.48,-100.5 456.71,-100.5"/>
<text text-anchor="start" x="464.71" y="-116.5" font-family="Helvetica,sans-Serif" font-size="10.00">Ogre::PlaneBoundedVolume</text>
<text text-anchor="middle" x="528.09" y="-106.5" font-family="Helvetica,sans-Serif" font-size="10.00">ListSceneQuery</text>
</a>
</g>
</g>
<!-- Node1&#45;&gt;Node9 -->
<g id="edge8" class="edge">
<title>Node1&#45;&gt;Node9</title>
<path fill="none" stroke="midnightblue" d="M430.8,-114.5C439.39,-114.5 448.14,-114.5 456.68,-114.5"/>
<polygon fill="midnightblue" stroke="midnightblue" points="430.8,-111 420.8,-114.5 430.8,-118 430.8,-111"/>
</g>
<!-- Node13 -->
<g id="node13" class="node">
<title>Node13</title>
<g id="a_node13"><a xlink:href="class_ogre_1_1_sphere_scene_query.html" target="_top" xlink:title="Specialises the SceneQuery class for querying within a sphere.">
<polygon fill="none" stroke="black" points="462.28,-50.5 462.28,-68.5 593.9,-68.5 593.9,-50.5 462.28,-50.5"/>
<text text-anchor="middle" x="528.09" y="-56.5" font-family="Helvetica,sans-Serif" font-size="10.00">Ogre::SphereSceneQuery</text>
</a>
</g>
</g>
<!-- Node1&#45;&gt;Node13 -->
<g id="edge12" class="edge">
<title>Node1&#45;&gt;Node13</title>
<path fill="none" stroke="midnightblue" d="M394.23,-102.26C426,-92.03 470.54,-77.7 499.11,-68.5"/>
<polygon fill="midnightblue" stroke="midnightblue" points="392.85,-99.02 384.4,-105.42 395,-105.69 392.85,-99.02"/>
</g>
<!-- Node2 -->
<g id="node2" class="node">
<title>Node2</title>
<g id="a_node2"><a xlink:href="class_ogre_1_1_scene_query.html" target="_top" xlink:title="A class for performing queries on a scene.">
<polygon fill="none" stroke="black" points="136.49,-124.5 136.49,-142.5 235.86,-142.5 235.86,-124.5 136.49,-124.5"/>
<text text-anchor="middle" x="186.17" y="-130.5" font-family="Helvetica,sans-Serif" font-size="10.00">Ogre::SceneQuery</text>
</a>
</g>
</g>
<!-- Node2&#45;&gt;Node1 -->
<g id="edge1" class="edge">
<title>Node2&#45;&gt;Node1</title>
<path fill="none" stroke="midnightblue" d="M245.98,-126.81C260.07,-125.21 275.18,-123.49 289.52,-121.86"/>
<polygon fill="midnightblue" stroke="midnightblue" points="245.47,-123.35 235.93,-127.95 246.26,-130.3 245.47,-123.35"/>
</g>
<!-- Node3 -->
<g id="node3" class="node">
<title>Node3</title>
<g id="a_node3"><a xlink:href="class_ogre_1_1_allocated_object.html" target="_top" xlink:title="Superclass for all objects that wish to use custom memory allocators when their new / delete operator...">
<polygon fill="none" stroke="black" points="0,-124.5 0,-142.5 82.7,-142.5 82.7,-124.5 0,-124.5"/>
<text text-anchor="middle" x="41.35" y="-130.5" font-family="Helvetica,sans-Serif" font-size="10.00">SceneMgtAlloc</text>
</a>
</g>
</g>
<!-- Node3&#45;&gt;Node2 -->
<g id="edge2" class="edge">
<title>Node3&#45;&gt;Node2</title>
<path fill="none" stroke="midnightblue" d="M92.94,-133.5C107.07,-133.5 122.39,-133.5 136.42,-133.5"/>
<polygon fill="midnightblue" stroke="midnightblue" points="92.9,-130 82.9,-133.5 92.9,-137 92.9,-130"/>
</g>
<!-- Node4 -->
<g id="node4" class="node">
<title>Node4</title>
<g id="a_node4"><a xlink:href="class_ogre_1_1_scene_query_listener.html" target="_top" xlink:title="This optional class allows you to receive per&#45;result callbacks from SceneQuery executions instead of ...">
<polygon fill="none" stroke="black" points="118.7,-87.5 118.7,-105.5 253.65,-105.5 253.65,-87.5 118.7,-87.5"/>
<text text-anchor="middle" x="186.17" y="-93.5" font-family="Helvetica,sans-Serif" font-size="10.00">Ogre::SceneQueryListener</text>
</a>
</g>
</g>
<!-- Node4&#45;&gt;Node1 -->
<g id="edge3" class="edge">
<title>Node4&#45;&gt;Node1</title>
<path fill="none" stroke="midnightblue" d="M263.73,-104.75C272.36,-105.68 281.1,-106.62 289.56,-107.53"/>
<polygon fill="midnightblue" stroke="midnightblue" points="263.98,-101.26 253.66,-103.67 263.23,-108.22 263.98,-101.26"/>
</g>
<!-- Node6 -->
<g id="node6" class="node">
<title>Node6</title>
<g id="a_node6"><a xlink:href="class_ogre_1_1_default_axis_aligned_box_scene_query.html" target="_top" xlink:title="Default implementation of AxisAlignedBoxSceneQuery.">
<polygon fill="none" stroke="black" points="642.16,-168.5 642.16,-196.5 769.88,-196.5 769.88,-168.5 642.16,-168.5"/>
<text text-anchor="start" x="650.16" y="-184.5" font-family="Helvetica,sans-Serif" font-size="10.00">Ogre::DefaultAxisAligned</text>
<text text-anchor="middle" x="706.02" y="-174.5" font-family="Helvetica,sans-Serif" font-size="10.00">BoxSceneQuery</text>
</a>
</g>
</g>
<!-- Node5&#45;&gt;Node6 -->
<g id="edge5" class="edge">
<title>Node5&#45;&gt;Node6</title>
<path fill="none" stroke="midnightblue" d="M609.19,-176.51C620.21,-177.2 631.4,-177.9 642.06,-178.56"/>
<polygon fill="midnightblue" stroke="midnightblue" points="609.33,-173.01 599.13,-175.88 608.89,-180 609.33,-173.01"/>
</g>
<!-- Node7 -->
<g id="node7" class="node">
<title>Node7</title>
<g id="a_node7"><a xlink:href="class_ogre_1_1_octree_axis_aligned_box_scene_query.html" target="_top" xlink:title="Octree implementation of AxisAlignedBoxSceneQuery.">
<polygon fill="none" stroke="black" points="822.3,-215.5 822.3,-243.5 965.58,-243.5 965.58,-215.5 822.3,-215.5"/>
<text text-anchor="start" x="830.3" y="-231.5" font-family="Helvetica,sans-Serif" font-size="10.00">Ogre::OctreeAxisAlignedBox</text>
<text text-anchor="middle" x="893.94" y="-221.5" font-family="Helvetica,sans-Serif" font-size="10.00">SceneQuery</text>
</a>
</g>
</g>
<!-- Node6&#45;&gt;Node7 -->
<g id="edge6" class="edge">
<title>Node6&#45;&gt;Node7</title>
<path fill="none" stroke="midnightblue" d="M772.45,-199.04C793.65,-204.4 816.96,-210.29 837.38,-215.45"/>
<polygon fill="midnightblue" stroke="midnightblue" points="773.1,-195.6 762.55,-196.54 771.39,-202.38 773.1,-195.6"/>
</g>
<!-- Node8 -->
<g id="node8" class="node">
<title>Node8</title>
<g id="a_node8"><a xlink:href="class_ogre_1_1_p_c_z_axis_aligned_box_scene_query.html" target="_top" xlink:title="PCZ implementation of AxisAlignedBoxSceneQuery.">
<polygon fill="none" stroke="black" points="813.13,-168.5 813.13,-196.5 974.76,-196.5 974.76,-168.5 813.13,-168.5"/>
<text text-anchor="start" x="821.13" y="-184.5" font-family="Helvetica,sans-Serif" font-size="10.00">Ogre::PCZAxisAlignedBoxScene</text>
<text text-anchor="middle" x="893.94" y="-174.5" font-family="Helvetica,sans-Serif" font-size="10.00">Query</text>
</a>
</g>
</g>
<!-- Node6&#45;&gt;Node8 -->
<g id="edge7" class="edge">
<title>Node6&#45;&gt;Node8</title>
<path fill="none" stroke="midnightblue" d="M780.15,-182.5C790.9,-182.5 802.04,-182.5 812.92,-182.5"/>
<polygon fill="midnightblue" stroke="midnightblue" points="779.97,-179 769.97,-182.5 779.97,-186 779.97,-179"/>
</g>
<!-- Node10 -->
<g id="node10" class="node">
<title>Node10</title>
<g id="a_node10"><a xlink:href="class_ogre_1_1_default_plane_bounded_volume_list_scene_query.html" target="_top" xlink:title="Default implementation of PlaneBoundedVolumeListSceneQuery.">
<polygon fill="none" stroke="black" points="635.48,-100.5 635.48,-128.5 776.56,-128.5 776.56,-100.5 635.48,-100.5"/>
<text text-anchor="start" x="643.48" y="-116.5" font-family="Helvetica,sans-Serif" font-size="10.00">Ogre::DefaultPlaneBounded</text>
<text text-anchor="middle" x="706.02" y="-106.5" font-family="Helvetica,sans-Serif" font-size="10.00">VolumeListSceneQuery</text>
</a>
</g>
</g>
<!-- Node9&#45;&gt;Node10 -->
<g id="edge9" class="edge">
<title>Node9&#45;&gt;Node10</title>
<path fill="none" stroke="midnightblue" d="M609.64,-114.5C618.22,-114.5 626.89,-114.5 635.32,-114.5"/>
<polygon fill="midnightblue" stroke="midnightblue" points="609.64,-111 599.64,-114.5 609.64,-118 609.64,-111"/>
</g>
<!-- Node11 -->
<g id="node11" class="node">
<title>Node11</title>
<g id="a_node11"><a xlink:href="class_ogre_1_1_octree_plane_bounded_volume_list_scene_query.html" target="_top" xlink:title="Octree implementation of PlaneBoundedVolumeListSceneQuery.">
<polygon fill="none" stroke="black" points="824.24,-121.5 824.24,-149.5 963.65,-149.5 963.65,-121.5 824.24,-121.5"/>
<text text-anchor="start" x="832.24" y="-137.5" font-family="Helvetica,sans-Serif" font-size="10.00">Ogre::OctreePlaneBounded</text>
<text text-anchor="middle" x="893.94" y="-127.5" font-family="Helvetica,sans-Serif" font-size="10.00">VolumeListSceneQuery</text>
</a>
</g>
</g>
<!-- Node10&#45;&gt;Node11 -->
<g id="edge10" class="edge">
<title>Node10&#45;&gt;Node11</title>
<path fill="none" stroke="midnightblue" d="M787.04,-123.54C799.35,-124.93 811.98,-126.36 824.03,-127.72"/>
<polygon fill="midnightblue" stroke="midnightblue" points="787.11,-120.02 776.78,-122.38 786.32,-126.98 787.11,-120.02"/>
</g>
<!-- Node12 -->
<g id="node12" class="node">
<title>Node12</title>
<g id="a_node12"><a xlink:href="class_ogre_1_1_p_c_z_plane_bounded_volume_list_scene_query.html" target="_top" xlink:title="PCZ implementation of PlaneBoundedVolumeListSceneQuery.">
<polygon fill="none" stroke="black" points="812.56,-74.5 812.56,-102.5 975.33,-102.5 975.33,-74.5 812.56,-74.5"/>
<text text-anchor="start" x="820.56" y="-90.5" font-family="Helvetica,sans-Serif" font-size="10.00">Ogre::PCZPlaneBoundedVolume</text>
<text text-anchor="middle" x="893.94" y="-80.5" font-family="Helvetica,sans-Serif" font-size="10.00">ListSceneQuery</text>
</a>
</g>
</g>
<!-- Node10&#45;&gt;Node12 -->
<g id="edge11" class="edge">
<title>Node10&#45;&gt;Node12</title>
<path fill="none" stroke="midnightblue" d="M786.71,-103.36C795.24,-102.16 803.93,-100.95 812.47,-99.75"/>
<polygon fill="midnightblue" stroke="midnightblue" points="786.2,-99.89 776.78,-104.74 787.17,-106.83 786.2,-99.89"/>
</g>
<!-- Node14 -->
<g id="node14" class="node">
<title>Node14</title>
<g id="a_node14"><a xlink:href="class_ogre_1_1_default_sphere_scene_query.html" target="_top" xlink:title="Default implementation of SphereSceneQuery.">
<polygon fill="none" stroke="black" points="637.98,-32.5 637.98,-60.5 774.06,-60.5 774.06,-32.5 637.98,-32.5"/>
<text text-anchor="start" x="645.98" y="-48.5" font-family="Helvetica,sans-Serif" font-size="10.00">Ogre::DefaultSphereScene</text>
<text text-anchor="middle" x="706.02" y="-38.5" font-family="Helvetica,sans-Serif" font-size="10.00">Query</text>
</a>
</g>
</g>
<!-- Node13&#45;&gt;Node14 -->
<g id="edge13" class="edge">
<title>Node13&#45;&gt;Node14</title>
<path fill="none" stroke="midnightblue" d="M604.27,-53.94C615.46,-53.12 626.92,-52.27 637.92,-51.46"/>
<polygon fill="midnightblue" stroke="midnightblue" points="603.82,-50.47 594.1,-54.7 604.33,-57.45 603.82,-50.47"/>
</g>
<!-- Node15 -->
<g id="node15" class="node">
<title>Node15</title>
<g id="a_node15"><a xlink:href="class_ogre_1_1_octree_sphere_scene_query.html" target="_top" xlink:title="Octree implementation of SphereSceneQuery.">
<polygon fill="none" stroke="black" points="813.13,-37.5 813.13,-55.5 974.76,-55.5 974.76,-37.5 813.13,-37.5"/>
<text text-anchor="middle" x="893.94" y="-43.5" font-family="Helvetica,sans-Serif" font-size="10.00">Ogre::OctreeSphereSceneQuery</text>
</a>
</g>
</g>
<!-- Node14&#45;&gt;Node15 -->
<g id="edge14" class="edge">
<title>Node14&#45;&gt;Node15</title>
<path fill="none" stroke="midnightblue" d="M784.3,-46.5C793.76,-46.5 803.44,-46.5 812.93,-46.5"/>
<polygon fill="midnightblue" stroke="midnightblue" points="784.14,-43 774.14,-46.5 784.14,-50 784.14,-43"/>
</g>
<!-- Node16 -->
<g id="node16" class="node">
<title>Node16</title>
<g id="a_node16"><a xlink:href="class_ogre_1_1_p_c_z_sphere_scene_query.html" target="_top" xlink:title="PCZ implementation of SphereSceneQuery.">
<polygon fill="none" stroke="black" points="818.13,-0.5 818.13,-18.5 969.75,-18.5 969.75,-0.5 818.13,-0.5"/>
<text text-anchor="middle" x="893.94" y="-6.5" font-family="Helvetica,sans-Serif" font-size="10.00">Ogre::PCZSphereSceneQuery</text>
</a>
</g>
</g>
<!-- Node14&#45;&gt;Node16 -->
<g id="edge15" class="edge">
<title>Node14&#45;&gt;Node16</title>
<path fill="none" stroke="midnightblue" d="M784,-31.18C805.68,-26.87 828.55,-22.31 847.71,-18.5"/>
<polygon fill="midnightblue" stroke="midnightblue" points="783.27,-27.76 774.14,-33.14 784.63,-34.62 783.27,-27.76"/>
</g>
</g>
</svg>
