<?xml version="1.0" encoding="UTF-8" standalone="no"?>
<!DOCTYPE svg PUBLIC "-//W3C//DTD SVG 1.1//EN"
 "http://www.w3.org/Graphics/SVG/1.1/DTD/svg11.dtd">
<!-- Generated by graphviz version 2.43.0 (0)
 -->
<!-- Title: Ogre::CgFxScriptLoader Pages: 1 -->
<svg width="391pt" height="92pt"
 viewBox="0.00 0.00 391.40 92.00" xmlns="http://www.w3.org/2000/svg" xmlns:xlink="http://www.w3.org/1999/xlink">
<g id="graph0" class="graph" transform="scale(1 1) rotate(0) translate(4 88)">
<title>Ogre::CgFxScriptLoader</title>
<!-- Node1 -->
<g id="node1" class="node">
<title>Node1</title>
<g id="a_node1"><a xlink:title="Manages Overlay objects, parsing them from .overlay files and storing a lookup library of them.">
<polygon fill="#bfbfbf" stroke="black" points="149.59,-0.5 149.59,-18.5 273.97,-18.5 273.97,-0.5 149.59,-0.5"/>
<text text-anchor="middle" x="211.78" y="-6.5" font-family="Helvetica,sans-Serif" font-size="10.00">Ogre::CgFxScriptLoader</text>
</a>
</g>
</g>
<!-- Node2 -->
<g id="node2" class="node">
<title>Node2</title>
<g id="a_node2"><a xlink:href="class_ogre_1_1_singleton.html" target="_top" xlink:title=" ">
<polygon fill="none" stroke="black" points="0,-55.5 0,-83.5 143.56,-83.5 143.56,-55.5 0,-55.5"/>
<text text-anchor="start" x="8" y="-71.5" font-family="Helvetica,sans-Serif" font-size="10.00">Ogre::Singleton&lt; CgFxScript</text>
<text text-anchor="middle" x="71.78" y="-61.5" font-family="Helvetica,sans-Serif" font-size="10.00">Loader &gt;</text>
</a>
</g>
</g>
<!-- Node2&#45;&gt;Node1 -->
<g id="edge1" class="edge">
<title>Node2&#45;&gt;Node1</title>
<path fill="none" stroke="midnightblue" d="M112.51,-51.63C138.7,-40.77 171.56,-27.16 192.12,-18.64"/>
<polygon fill="midnightblue" stroke="midnightblue" points="111.1,-48.42 103.2,-55.48 113.78,-54.89 111.1,-48.42"/>
</g>
<!-- Node3 -->
<g id="node3" class="node">
<title>Node3</title>
<g id="a_node3"><a xlink:href="class_ogre_1_1_script_loader.html" target="_top" xlink:title="Abstract class defining the interface used by classes which wish to perform script loading to define ...">
<polygon fill="none" stroke="black" points="161.54,-60.5 161.54,-78.5 262.02,-78.5 262.02,-60.5 161.54,-60.5"/>
<text text-anchor="middle" x="211.78" y="-66.5" font-family="Helvetica,sans-Serif" font-size="10.00">Ogre::ScriptLoader</text>
</a>
</g>
</g>
<!-- Node3&#45;&gt;Node1 -->
<g id="edge2" class="edge">
<title>Node3&#45;&gt;Node1</title>
<path fill="none" stroke="midnightblue" d="M211.78,-50.21C211.78,-39.71 211.78,-27.03 211.78,-18.87"/>
<polygon fill="midnightblue" stroke="midnightblue" points="208.28,-50.44 211.78,-60.44 215.28,-50.44 208.28,-50.44"/>
</g>
<!-- Node4 -->
<g id="node4" class="node">
<title>Node4</title>
<g id="a_node4"><a xlink:href="class_ogre_1_1_allocated_object.html" target="_top" xlink:title="Superclass for all objects that wish to use custom memory allocators when their new / delete operator...">
<polygon fill="none" stroke="black" points="280.16,-60.5 280.16,-78.5 383.4,-78.5 383.4,-60.5 280.16,-60.5"/>
<text text-anchor="middle" x="331.78" y="-66.5" font-family="Helvetica,sans-Serif" font-size="10.00">ScriptCompilerAlloc</text>
</a>
</g>
</g>
<!-- Node4&#45;&gt;Node1 -->
<g id="edge3" class="edge">
<title>Node4&#45;&gt;Node1</title>
<path fill="none" stroke="midnightblue" d="M306.09,-56.08C282.71,-44.78 248.86,-28.42 228.71,-18.68"/>
<polygon fill="midnightblue" stroke="midnightblue" points="304.57,-59.23 315.09,-60.44 307.61,-52.93 304.57,-59.23"/>
</g>
</g>
</svg>
