<?xml version="1.0" encoding="UTF-8" standalone="no"?>
<!DOCTYPE svg PUBLIC "-//W3C//DTD SVG 1.1//EN"
 "http://www.w3.org/Graphics/SVG/1.1/DTD/svg11.dtd">
<!-- Generated by graphviz version 2.43.0 (0)
 -->
<!-- Title: Ogre::PixelCountLodStrategyBase Pages: 1 -->
<svg width="304pt" height="202pt"
 viewBox="0.00 0.00 304.12 202.00" xmlns="http://www.w3.org/2000/svg" xmlns:xlink="http://www.w3.org/1999/xlink">
<g id="graph0" class="graph" transform="scale(1 1) rotate(0) translate(4 198)">
<title>Ogre::PixelCountLodStrategyBase</title>
<!-- Node1 -->
<g id="node1" class="node">
<title>Node1</title>
<g id="a_node1"><a xlink:title="Abstract base class for level of detail strategy based on pixel count approximations from bounding sp...">
<polygon fill="#bfbfbf" stroke="black" points="59.1,-65.5 59.1,-83.5 227.96,-83.5 227.96,-65.5 59.1,-65.5"/>
<text text-anchor="middle" x="143.53" y="-71.5" font-family="Helvetica,sans-Serif" font-size="10.00">Ogre::PixelCountLodStrategyBase</text>
</a>
</g>
</g>
<!-- Node4 -->
<g id="node4" class="node">
<title>Node4</title>
<g id="a_node4"><a xlink:href="class_ogre_1_1_absolute_pixel_count_lod_strategy.html" target="_top" xlink:title=" ">
<polygon fill="none" stroke="black" points="0,-0.5 0,-28.5 131.06,-28.5 131.06,-0.5 0,-0.5"/>
<text text-anchor="start" x="8" y="-16.5" font-family="Helvetica,sans-Serif" font-size="10.00">Ogre::AbsolutePixelCount</text>
<text text-anchor="middle" x="65.53" y="-6.5" font-family="Helvetica,sans-Serif" font-size="10.00">LodStrategy</text>
</a>
</g>
</g>
<!-- Node1&#45;&gt;Node4 -->
<g id="edge3" class="edge">
<title>Node1&#45;&gt;Node4</title>
<path fill="none" stroke="midnightblue" d="M124.3,-59.2C111.72,-49.85 95.42,-37.72 83.18,-28.62"/>
<polygon fill="midnightblue" stroke="midnightblue" points="122.57,-62.28 132.69,-65.44 126.75,-56.66 122.57,-62.28"/>
</g>
<!-- Node5 -->
<g id="node5" class="node">
<title>Node5</title>
<g id="a_node5"><a xlink:href="class_ogre_1_1_screen_ratio_pixel_count_lod_strategy.html" target="_top" xlink:title=" ">
<polygon fill="none" stroke="black" points="148.94,-0.5 148.94,-28.5 296.12,-28.5 296.12,-0.5 148.94,-0.5"/>
<text text-anchor="start" x="156.94" y="-16.5" font-family="Helvetica,sans-Serif" font-size="10.00">Ogre::ScreenRatioPixelCount</text>
<text text-anchor="middle" x="222.53" y="-6.5" font-family="Helvetica,sans-Serif" font-size="10.00">LodStrategy</text>
</a>
</g>
</g>
<!-- Node1&#45;&gt;Node5 -->
<g id="edge4" class="edge">
<title>Node1&#45;&gt;Node5</title>
<path fill="none" stroke="midnightblue" d="M162.64,-59.47C175.43,-50.08 192.14,-37.81 204.66,-28.62"/>
<polygon fill="midnightblue" stroke="midnightblue" points="160.51,-56.7 154.52,-65.44 164.65,-62.34 160.51,-56.7"/>
</g>
<!-- Node2 -->
<g id="node2" class="node">
<title>Node2</title>
<g id="a_node2"><a xlink:href="class_ogre_1_1_lod_strategy.html" target="_top" xlink:title="Strategy for determining level of detail.">
<polygon fill="none" stroke="black" points="94.67,-120.5 94.67,-138.5 192.39,-138.5 192.39,-120.5 94.67,-120.5"/>
<text text-anchor="middle" x="143.53" y="-126.5" font-family="Helvetica,sans-Serif" font-size="10.00">Ogre::LodStrategy</text>
</a>
</g>
</g>
<!-- Node2&#45;&gt;Node1 -->
<g id="edge1" class="edge">
<title>Node2&#45;&gt;Node1</title>
<path fill="none" stroke="midnightblue" d="M143.53,-110.17C143.53,-101.09 143.53,-90.59 143.53,-83.55"/>
<polygon fill="midnightblue" stroke="midnightblue" points="140.03,-110.22 143.53,-120.22 147.03,-110.22 140.03,-110.22"/>
</g>
<!-- Node3 -->
<g id="node3" class="node">
<title>Node3</title>
<g id="a_node3"><a xlink:href="class_ogre_1_1_allocated_object.html" target="_top" xlink:title="Superclass for all objects that wish to use custom memory allocators when their new / delete operator...">
<polygon fill="none" stroke="black" points="116.35,-175.5 116.35,-193.5 170.71,-193.5 170.71,-175.5 116.35,-175.5"/>
<text text-anchor="middle" x="143.53" y="-181.5" font-family="Helvetica,sans-Serif" font-size="10.00">LodAlloc</text>
</a>
</g>
</g>
<!-- Node3&#45;&gt;Node2 -->
<g id="edge2" class="edge">
<title>Node3&#45;&gt;Node2</title>
<path fill="none" stroke="midnightblue" d="M143.53,-165.17C143.53,-156.09 143.53,-145.59 143.53,-138.55"/>
<polygon fill="midnightblue" stroke="midnightblue" points="140.03,-165.22 143.53,-175.22 147.03,-165.22 140.03,-165.22"/>
</g>
</g>
</svg>
