<?xml version="1.0" encoding="UTF-8" standalone="no"?>
<!DOCTYPE svg PUBLIC "-//W3C//DTD SVG 1.1//EN"
 "http://www.w3.org/Graphics/SVG/1.1/DTD/svg11.dtd">
<!-- Generated by graphviz version 2.43.0 (0)
 -->
<!-- Title: Ogre::GpuResource Pages: 1 -->
<svg width="939pt" height="178pt"
 viewBox="0.00 0.00 939.32 178.00" xmlns="http://www.w3.org/2000/svg" xmlns:xlink="http://www.w3.org/1999/xlink">
<g id="graph0" class="graph" transform="scale(1 1) rotate(0) translate(4 174)">
<title>Ogre::GpuResource</title>
<!-- Node1 -->
<g id="node1" class="node">
<title>Node1</title>
<g id="a_node1"><a xlink:title=" ">
<polygon fill="#bfbfbf" stroke="black" points="116.47,-75.5 116.47,-93.5 221.96,-93.5 221.96,-75.5 116.47,-75.5"/>
<text text-anchor="middle" x="169.22" y="-81.5" font-family="Helvetica,sans-Serif" font-size="10.00">Ogre::GpuResource</text>
</a>
</g>
</g>
<!-- Node3 -->
<g id="node3" class="node">
<title>Node3</title>
<g id="a_node3"><a xlink:href="class_ogre_1_1_texture_gpu.html" target="_top" xlink:title=" ">
<polygon fill="none" stroke="black" points="257.96,-75.5 257.96,-93.5 353.44,-93.5 353.44,-75.5 257.96,-75.5"/>
<text text-anchor="middle" x="305.7" y="-81.5" font-family="Helvetica,sans-Serif" font-size="10.00">Ogre::TextureGpu</text>
</a>
</g>
</g>
<!-- Node1&#45;&gt;Node3 -->
<g id="edge2" class="edge">
<title>Node1&#45;&gt;Node3</title>
<path fill="none" stroke="midnightblue" d="M232.46,-84.5C240.94,-84.5 249.53,-84.5 257.68,-84.5"/>
<polygon fill="midnightblue" stroke="midnightblue" points="232.21,-81 222.21,-84.5 232.21,-88 232.21,-81"/>
</g>
<!-- Node2 -->
<g id="node2" class="node">
<title>Node2</title>
<g id="a_node2"><a xlink:href="class_ogre_1_1_allocated_object.html" target="_top" xlink:title="Superclass for all objects that wish to use custom memory allocators when their new / delete operator...">
<polygon fill="none" stroke="black" points="0,-75.5 0,-93.5 80.47,-93.5 80.47,-75.5 0,-75.5"/>
<text text-anchor="middle" x="40.24" y="-81.5" font-family="Helvetica,sans-Serif" font-size="10.00">ResourceAlloc</text>
</a>
</g>
</g>
<!-- Node2&#45;&gt;Node1 -->
<g id="edge1" class="edge">
<title>Node2&#45;&gt;Node1</title>
<path fill="none" stroke="midnightblue" d="M90.97,-84.5C99.23,-84.5 107.83,-84.5 116.15,-84.5"/>
<polygon fill="midnightblue" stroke="midnightblue" points="90.72,-81 80.72,-84.5 90.72,-88 90.72,-81"/>
</g>
<!-- Node4 -->
<g id="node4" class="node">
<title>Node4</title>
<g id="a_node4"><a xlink:href="class_ogre_1_1_d3_d11_texture_gpu.html" target="_top" xlink:title=" ">
<polygon fill="none" stroke="black" points="393.42,-139.5 393.42,-157.5 519.3,-157.5 519.3,-139.5 393.42,-139.5"/>
<text text-anchor="middle" x="456.36" y="-145.5" font-family="Helvetica,sans-Serif" font-size="10.00">Ogre::D3D11TextureGpu</text>
</a>
</g>
</g>
<!-- Node3&#45;&gt;Node4 -->
<g id="edge3" class="edge">
<title>Node3&#45;&gt;Node4</title>
<path fill="none" stroke="midnightblue" d="M334.21,-98.13C350.2,-105.88 370.8,-115.59 389.44,-123.5 402.74,-129.14 417.78,-134.9 430.14,-139.46"/>
<polygon fill="midnightblue" stroke="midnightblue" points="335.44,-94.83 324.92,-93.59 332.37,-101.12 335.44,-94.83"/>
</g>
<!-- Node7 -->
<g id="node7" class="node">
<title>Node7</title>
<g id="a_node7"><a xlink:href="class_ogre_1_1_g_l3_plus_texture_gpu.html" target="_top" xlink:title=" ">
<polygon fill="none" stroke="black" points="389.44,-96.5 389.44,-114.5 523.28,-114.5 523.28,-96.5 389.44,-96.5"/>
<text text-anchor="middle" x="456.36" y="-102.5" font-family="Helvetica,sans-Serif" font-size="10.00">Ogre::GL3PlusTextureGpu</text>
</a>
</g>
</g>
<!-- Node3&#45;&gt;Node7 -->
<g id="edge6" class="edge">
<title>Node3&#45;&gt;Node7</title>
<path fill="none" stroke="midnightblue" d="M363.79,-92.56C372.86,-93.85 382.29,-95.18 391.51,-96.48"/>
<polygon fill="midnightblue" stroke="midnightblue" points="364.13,-89.08 353.74,-91.14 363.15,-96.01 364.13,-89.08"/>
</g>
<!-- Node10 -->
<g id="node10" class="node">
<title>Node10</title>
<g id="a_node10"><a xlink:href="class_ogre_1_1_metal_texture_gpu.html" target="_top" xlink:title=" ">
<polygon fill="none" stroke="black" points="396.39,-57.5 396.39,-75.5 516.33,-75.5 516.33,-57.5 396.39,-57.5"/>
<text text-anchor="middle" x="456.36" y="-63.5" font-family="Helvetica,sans-Serif" font-size="10.00">Ogre::MetalTextureGpu</text>
</a>
</g>
</g>
<!-- Node3&#45;&gt;Node10 -->
<g id="edge9" class="edge">
<title>Node3&#45;&gt;Node10</title>
<path fill="none" stroke="midnightblue" d="M363.78,-77.59C374.45,-76.3 385.62,-74.94 396.34,-73.65"/>
<polygon fill="midnightblue" stroke="midnightblue" points="363.24,-74.13 353.74,-78.8 364.09,-81.08 363.24,-74.13"/>
</g>
<!-- Node13 -->
<g id="node13" class="node">
<title>Node13</title>
<g id="a_node13"><a xlink:href="class_ogre_1_1_n_u_l_l_texture_gpu.html" target="_top" xlink:title=" ">
<polygon fill="none" stroke="black" points="396.21,-15.5 396.21,-33.5 516.52,-33.5 516.52,-15.5 396.21,-15.5"/>
<text text-anchor="middle" x="456.36" y="-21.5" font-family="Helvetica,sans-Serif" font-size="10.00">Ogre::NULLTextureGpu</text>
</a>
</g>
</g>
<!-- Node3&#45;&gt;Node13 -->
<g id="edge12" class="edge">
<title>Node3&#45;&gt;Node13</title>
<path fill="none" stroke="midnightblue" d="M335.15,-71.06C350.99,-63.76 371.16,-54.76 389.44,-47.5 401.83,-42.58 415.75,-37.64 427.59,-33.61"/>
<polygon fill="midnightblue" stroke="midnightblue" points="333.49,-67.97 325.9,-75.36 336.44,-74.32 333.49,-67.97"/>
</g>
<!-- Node5 -->
<g id="node5" class="node">
<title>Node5</title>
<g id="a_node5"><a xlink:href="class_ogre_1_1_d3_d11_texture_gpu_render_target.html" target="_top" xlink:title=" ">
<polygon fill="none" stroke="black" points="563.26,-141.5 563.26,-169.5 721.93,-169.5 721.93,-141.5 563.26,-141.5"/>
<text text-anchor="start" x="571.26" y="-157.5" font-family="Helvetica,sans-Serif" font-size="10.00">Ogre::D3D11TextureGpuRender</text>
<text text-anchor="middle" x="642.6" y="-147.5" font-family="Helvetica,sans-Serif" font-size="10.00">Target</text>
</a>
</g>
</g>
<!-- Node4&#45;&gt;Node5 -->
<g id="edge4" class="edge">
<title>Node4&#45;&gt;Node5</title>
<path fill="none" stroke="midnightblue" d="M529.47,-151.24C540.5,-151.66 551.93,-152.09 563.08,-152.52"/>
<polygon fill="midnightblue" stroke="midnightblue" points="529.6,-147.74 519.48,-150.86 529.34,-154.74 529.6,-147.74"/>
</g>
<!-- Node6 -->
<g id="node6" class="node">
<title>Node6</title>
<g id="a_node6"><a xlink:href="class_ogre_1_1_d3_d11_texture_gpu_window.html" target="_top" xlink:title=" ">
<polygon fill="none" stroke="black" points="765.9,-146.5 765.9,-164.5 927.34,-164.5 927.34,-146.5 765.9,-146.5"/>
<text text-anchor="middle" x="846.62" y="-152.5" font-family="Helvetica,sans-Serif" font-size="10.00">Ogre::D3D11TextureGpuWindow</text>
</a>
</g>
</g>
<!-- Node5&#45;&gt;Node6 -->
<g id="edge5" class="edge">
<title>Node5&#45;&gt;Node6</title>
<path fill="none" stroke="midnightblue" d="M732.14,-155.5C743.27,-155.5 754.61,-155.5 765.6,-155.5"/>
<polygon fill="midnightblue" stroke="midnightblue" points="731.99,-152 721.99,-155.5 731.99,-159 731.99,-152"/>
</g>
<!-- Node8 -->
<g id="node8" class="node">
<title>Node8</title>
<g id="a_node8"><a xlink:href="class_ogre_1_1_g_l3_plus_texture_gpu_render_target.html" target="_top" xlink:title=" ">
<polygon fill="none" stroke="black" points="559.28,-94.5 559.28,-122.5 725.91,-122.5 725.91,-94.5 559.28,-94.5"/>
<text text-anchor="start" x="567.28" y="-110.5" font-family="Helvetica,sans-Serif" font-size="10.00">Ogre::GL3PlusTextureGpuRender</text>
<text text-anchor="middle" x="642.6" y="-100.5" font-family="Helvetica,sans-Serif" font-size="10.00">Target</text>
</a>
</g>
</g>
<!-- Node7&#45;&gt;Node8 -->
<g id="edge7" class="edge">
<title>Node7&#45;&gt;Node8</title>
<path fill="none" stroke="midnightblue" d="M533.51,-106.74C541.93,-106.88 550.53,-107.02 559.03,-107.16"/>
<polygon fill="midnightblue" stroke="midnightblue" points="533.41,-103.24 523.35,-106.57 533.3,-110.24 533.41,-103.24"/>
</g>
<!-- Node9 -->
<g id="node9" class="node">
<title>Node9</title>
<g id="a_node9"><a xlink:href="class_ogre_1_1_g_l3_plus_texture_gpu_window.html" target="_top" xlink:title=" ">
<polygon fill="none" stroke="black" points="761.91,-99.5 761.91,-117.5 931.32,-117.5 931.32,-99.5 761.91,-99.5"/>
<text text-anchor="middle" x="846.62" y="-105.5" font-family="Helvetica,sans-Serif" font-size="10.00">Ogre::GL3PlusTextureGpuWindow</text>
</a>
</g>
</g>
<!-- Node8&#45;&gt;Node9 -->
<g id="edge8" class="edge">
<title>Node8&#45;&gt;Node9</title>
<path fill="none" stroke="midnightblue" d="M736.07,-108.5C744.64,-108.5 753.29,-108.5 761.78,-108.5"/>
<polygon fill="midnightblue" stroke="midnightblue" points="736.06,-105 726.06,-108.5 736.06,-112 736.06,-105"/>
</g>
<!-- Node11 -->
<g id="node11" class="node">
<title>Node11</title>
<g id="a_node11"><a xlink:href="class_ogre_1_1_metal_texture_gpu_render_target.html" target="_top" xlink:title=" ">
<polygon fill="none" stroke="black" points="566.23,-47.5 566.23,-75.5 718.96,-75.5 718.96,-47.5 566.23,-47.5"/>
<text text-anchor="start" x="574.23" y="-63.5" font-family="Helvetica,sans-Serif" font-size="10.00">Ogre::MetalTextureGpuRender</text>
<text text-anchor="middle" x="642.6" y="-53.5" font-family="Helvetica,sans-Serif" font-size="10.00">Target</text>
</a>
</g>
</g>
<!-- Node10&#45;&gt;Node11 -->
<g id="edge10" class="edge">
<title>Node10&#45;&gt;Node11</title>
<path fill="none" stroke="midnightblue" d="M526.58,-64.62C539.46,-64.27 552.97,-63.91 566.03,-63.55"/>
<polygon fill="midnightblue" stroke="midnightblue" points="526.32,-61.13 516.41,-64.9 526.51,-68.12 526.32,-61.13"/>
</g>
<!-- Node12 -->
<g id="node12" class="node">
<title>Node12</title>
<g id="a_node12"><a xlink:href="class_ogre_1_1_metal_texture_gpu_window.html" target="_top" xlink:title=" ">
<polygon fill="none" stroke="black" points="768.86,-52.5 768.86,-70.5 924.37,-70.5 924.37,-52.5 768.86,-52.5"/>
<text text-anchor="middle" x="846.62" y="-58.5" font-family="Helvetica,sans-Serif" font-size="10.00">Ogre::MetalTextureGpuWindow</text>
</a>
</g>
</g>
<!-- Node11&#45;&gt;Node12 -->
<g id="edge11" class="edge">
<title>Node11&#45;&gt;Node12</title>
<path fill="none" stroke="midnightblue" d="M729.11,-61.5C742.31,-61.5 755.86,-61.5 768.85,-61.5"/>
<polygon fill="midnightblue" stroke="midnightblue" points="729.11,-58 719.11,-61.5 729.11,-65 729.11,-58"/>
</g>
<!-- Node14 -->
<g id="node14" class="node">
<title>Node14</title>
<g id="a_node14"><a xlink:href="class_ogre_1_1_n_u_l_l_texture_gpu_render_target.html" target="_top" xlink:title=" ">
<polygon fill="none" stroke="black" points="566.04,-0.5 566.04,-28.5 719.15,-28.5 719.15,-0.5 566.04,-0.5"/>
<text text-anchor="start" x="574.04" y="-16.5" font-family="Helvetica,sans-Serif" font-size="10.00">Ogre::NULLTextureGpuRender</text>
<text text-anchor="middle" x="642.6" y="-6.5" font-family="Helvetica,sans-Serif" font-size="10.00">Target</text>
</a>
</g>
</g>
<!-- Node13&#45;&gt;Node14 -->
<g id="edge13" class="edge">
<title>Node13&#45;&gt;Node14</title>
<path fill="none" stroke="midnightblue" d="M526.76,-20.73C539.54,-20.04 552.94,-19.31 565.89,-18.61"/>
<polygon fill="midnightblue" stroke="midnightblue" points="526.46,-17.24 516.67,-21.28 526.84,-24.23 526.46,-17.24"/>
</g>
</g>
</svg>
