<?xml version="1.0" encoding="UTF-8" standalone="no"?>
<!DOCTYPE svg PUBLIC "-//W3C//DTD SVG 1.1//EN"
 "http://www.w3.org/Graphics/SVG/1.1/DTD/svg11.dtd">
<!-- Generated by graphviz version 2.43.0 (0)
 -->
<!-- Title: Ogre::v1::BillboardParticleRendererFactory Pages: 1 -->
<svg width="212pt" height="167pt"
 viewBox="0.00 0.00 211.55 167.00" xmlns="http://www.w3.org/2000/svg" xmlns:xlink="http://www.w3.org/1999/xlink">
<g id="graph0" class="graph" transform="scale(1 1) rotate(0) translate(4 163)">
<title>Ogre::v1::BillboardParticleRendererFactory</title>
<!-- Node1 -->
<g id="node1" class="node">
<title>Node1</title>
<g id="a_node1"><a xlink:title="Factory class for BillboardParticleRenderer.">
<polygon fill="#bfbfbf" stroke="black" points="56.25,-0.5 56.25,-28.5 188.41,-28.5 188.41,-0.5 56.25,-0.5"/>
<text text-anchor="start" x="64.25" y="-16.5" font-family="Helvetica,sans-Serif" font-size="10.00">Ogre::v1::BillboardParticle</text>
<text text-anchor="middle" x="122.33" y="-6.5" font-family="Helvetica,sans-Serif" font-size="10.00">RendererFactory</text>
</a>
</g>
</g>
<!-- Node2 -->
<g id="node2" class="node">
<title>Node2</title>
<g id="a_node2"><a xlink:href="class_ogre_1_1_particle_system_renderer_factory.html" target="_top" xlink:title="Abstract class definition of a factory object for ParticleSystemRenderer.">
<polygon fill="none" stroke="black" points="46.25,-65.5 46.25,-93.5 198.41,-93.5 198.41,-65.5 46.25,-65.5"/>
<text text-anchor="start" x="54.25" y="-81.5" font-family="Helvetica,sans-Serif" font-size="10.00">Ogre::ParticleSystemRenderer</text>
<text text-anchor="middle" x="122.33" y="-71.5" font-family="Helvetica,sans-Serif" font-size="10.00">Factory</text>
</a>
</g>
</g>
<!-- Node2&#45;&gt;Node1 -->
<g id="edge1" class="edge">
<title>Node2&#45;&gt;Node1</title>
<path fill="none" stroke="midnightblue" d="M122.33,-55.16C122.33,-46.17 122.33,-36.22 122.33,-28.54"/>
<polygon fill="midnightblue" stroke="midnightblue" points="118.83,-55.45 122.33,-65.45 125.83,-55.45 118.83,-55.45"/>
</g>
<!-- Node3 -->
<g id="node3" class="node">
<title>Node3</title>
<g id="a_node3"><a xlink:href="class_ogre_1_1_factory_obj.html" target="_top" xlink:title=" ">
<polygon fill="none" stroke="black" points="0,-130.5 0,-158.5 134.65,-158.5 134.65,-130.5 0,-130.5"/>
<text text-anchor="start" x="8" y="-146.5" font-family="Helvetica,sans-Serif" font-size="10.00">Ogre::FactoryObj&lt; Particle</text>
<text text-anchor="middle" x="67.33" y="-136.5" font-family="Helvetica,sans-Serif" font-size="10.00">SystemRenderer &gt;</text>
</a>
</g>
</g>
<!-- Node3&#45;&gt;Node2 -->
<g id="edge2" class="edge">
<title>Node3&#45;&gt;Node2</title>
<path fill="none" stroke="midnightblue" d="M85.4,-122.8C93.81,-113.16 103.57,-101.98 110.94,-93.54"/>
<polygon fill="midnightblue" stroke="midnightblue" points="82.66,-120.61 78.72,-130.45 87.94,-125.21 82.66,-120.61"/>
</g>
<!-- Node4 -->
<g id="node4" class="node">
<title>Node4</title>
<g id="a_node4"><a xlink:href="class_ogre_1_1_allocated_object.html" target="_top" xlink:title="Superclass for all objects that wish to use custom memory allocators when their new / delete operator...">
<polygon fill="none" stroke="black" points="153.1,-135.5 153.1,-153.5 203.55,-153.5 203.55,-135.5 153.1,-135.5"/>
<text text-anchor="middle" x="178.33" y="-141.5" font-family="Helvetica,sans-Serif" font-size="10.00">FXAlloc</text>
</a>
</g>
</g>
<!-- Node4&#45;&gt;Node2 -->
<g id="edge3" class="edge">
<title>Node4&#45;&gt;Node2</title>
<path fill="none" stroke="midnightblue" d="M164.26,-127.67C154.97,-117.23 142.94,-103.69 134.15,-93.8"/>
<polygon fill="midnightblue" stroke="midnightblue" points="161.75,-130.12 171.01,-135.26 166.98,-125.46 161.75,-130.12"/>
</g>
</g>
</svg>
