<?xml version="1.0" encoding="UTF-8" standalone="no"?>
<!DOCTYPE svg PUBLIC "-//W3C//DTD SVG 1.1//EN"
 "http://www.w3.org/Graphics/SVG/1.1/DTD/svg11.dtd">
<!-- Generated by graphviz version 2.43.0 (0)
 -->
<!-- Title: Ogre::MultiRenderTarget Pages: 1 -->
<svg width="644pt" height="195pt"
 viewBox="0.00 0.00 643.73 195.00" xmlns="http://www.w3.org/2000/svg" xmlns:xlink="http://www.w3.org/1999/xlink">
<g id="graph0" class="graph" transform="scale(1 1) rotate(0) translate(4 191)">
<title>Ogre::MultiRenderTarget</title>
<!-- Node1 -->
<g id="node1" class="node">
<title>Node1</title>
<g id="a_node1"><a xlink:title="This class represents a render target that renders to multiple RenderTextures at once.">
<polygon fill="#bfbfbf" stroke="black" points="317.62,-89.5 317.62,-107.5 443.12,-107.5 443.12,-89.5 317.62,-89.5"/>
<text text-anchor="middle" x="380.37" y="-95.5" font-family="Helvetica,sans-Serif" font-size="10.00">Ogre::MultiRenderTarget</text>
</a>
</g>
</g>
<!-- Node5 -->
<g id="node5" class="node">
<title>Node5</title>
<g id="a_node5"><a xlink:href="class_ogre_1_1_d3_d11_multi_render_target.html" target="_top" xlink:title=" ">
<polygon fill="none" stroke="black" points="479.48,-168.5 479.48,-186.5 635.36,-186.5 635.36,-168.5 479.48,-168.5"/>
<text text-anchor="middle" x="557.42" y="-174.5" font-family="Helvetica,sans-Serif" font-size="10.00">Ogre::D3D11MultiRenderTarget</text>
</a>
</g>
</g>
<!-- Node1&#45;&gt;Node5 -->
<g id="edge4" class="edge">
<title>Node1&#45;&gt;Node5</title>
<path fill="none" stroke="midnightblue" d="M401.18,-113.61C420.2,-127.44 450.25,-147.52 479.12,-159.5 487.77,-163.09 497.28,-166.05 506.58,-168.45"/>
<polygon fill="midnightblue" stroke="midnightblue" points="403.13,-110.7 393.01,-107.57 398.97,-116.33 403.13,-110.7"/>
</g>
<!-- Node6 -->
<g id="node6" class="node">
<title>Node6</title>
<g id="a_node6"><a xlink:href="class_ogre_1_1_d3_d9_multi_render_target.html" target="_top" xlink:title=" ">
<polygon fill="none" stroke="black" points="481.89,-131.5 481.89,-149.5 632.95,-149.5 632.95,-131.5 481.89,-131.5"/>
<text text-anchor="middle" x="557.42" y="-137.5" font-family="Helvetica,sans-Serif" font-size="10.00">Ogre::D3D9MultiRenderTarget</text>
</a>
</g>
</g>
<!-- Node1&#45;&gt;Node6 -->
<g id="edge5" class="edge">
<title>Node1&#45;&gt;Node6</title>
<path fill="none" stroke="midnightblue" d="M427.81,-110.02C444.03,-114.02 462.37,-118.49 479.12,-122.5 491.45,-125.45 504.9,-128.6 517.07,-131.43"/>
<polygon fill="midnightblue" stroke="midnightblue" points="428.56,-106.6 418.01,-107.61 426.88,-113.4 428.56,-106.6"/>
</g>
<!-- Node7 -->
<g id="node7" class="node">
<title>Node7</title>
<g id="a_node7"><a xlink:href="class_ogre_1_1_g_l3_plus_f_b_o_multi_render_target.html" target="_top" xlink:title="MultiRenderTarget for OpenGL.">
<polygon fill="none" stroke="black" points="479.12,-84.5 479.12,-112.5 635.73,-112.5 635.73,-84.5 479.12,-84.5"/>
<text text-anchor="start" x="487.12" y="-100.5" font-family="Helvetica,sans-Serif" font-size="10.00">Ogre::GL3PlusFBOMultiRender</text>
<text text-anchor="middle" x="557.42" y="-90.5" font-family="Helvetica,sans-Serif" font-size="10.00">Target</text>
</a>
</g>
</g>
<!-- Node1&#45;&gt;Node7 -->
<g id="edge6" class="edge">
<title>Node1&#45;&gt;Node7</title>
<path fill="none" stroke="midnightblue" d="M453.69,-98.5C462.07,-98.5 470.65,-98.5 479.09,-98.5"/>
<polygon fill="midnightblue" stroke="midnightblue" points="453.58,-95 443.58,-98.5 453.58,-102 453.58,-95"/>
</g>
<!-- Node8 -->
<g id="node8" class="node">
<title>Node8</title>
<g id="a_node8"><a xlink:href="class_ogre_1_1_g_l_e_s2_f_b_o_multi_render_target.html" target="_top" xlink:title="MultiRenderTarget for GL ES 2.x.">
<polygon fill="none" stroke="black" points="482.17,-37.5 482.17,-65.5 632.67,-65.5 632.67,-37.5 482.17,-37.5"/>
<text text-anchor="start" x="490.17" y="-53.5" font-family="Helvetica,sans-Serif" font-size="10.00">Ogre::GLES2FBOMultiRender</text>
<text text-anchor="middle" x="557.42" y="-43.5" font-family="Helvetica,sans-Serif" font-size="10.00">Target</text>
</a>
</g>
</g>
<!-- Node1&#45;&gt;Node8 -->
<g id="edge7" class="edge">
<title>Node1&#45;&gt;Node8</title>
<path fill="none" stroke="midnightblue" d="M425.01,-86.78C449,-80.34 478.93,-72.3 504.17,-65.53"/>
<polygon fill="midnightblue" stroke="midnightblue" points="423.87,-83.46 415.12,-89.44 425.69,-90.23 423.87,-83.46"/>
</g>
<!-- Node9 -->
<g id="node9" class="node">
<title>Node9</title>
<g id="a_node9"><a xlink:href="class_ogre_1_1_metal_multi_render_target.html" target="_top" xlink:title=" ">
<polygon fill="none" stroke="black" points="482.45,-0.5 482.45,-18.5 632.39,-18.5 632.39,-0.5 482.45,-0.5"/>
<text text-anchor="middle" x="557.42" y="-6.5" font-family="Helvetica,sans-Serif" font-size="10.00">Ogre::MetalMultiRenderTarget</text>
</a>
</g>
</g>
<!-- Node1&#45;&gt;Node9 -->
<g id="edge8" class="edge">
<title>Node1&#45;&gt;Node9</title>
<path fill="none" stroke="midnightblue" d="M398.67,-82.57C417.21,-66.35 448.18,-41.63 479.12,-27.5 487.14,-23.84 495.98,-20.88 504.73,-18.5"/>
<polygon fill="midnightblue" stroke="midnightblue" points="396.2,-80.09 391.07,-89.36 400.86,-85.31 396.2,-80.09"/>
</g>
<!-- Node2 -->
<g id="node2" class="node">
<title>Node2</title>
<g id="a_node2"><a xlink:href="class_ogre_1_1_render_target.html" target="_top" xlink:title="A &#39;canvas&#39; which can receive the results of a rendering operation.">
<polygon fill="none" stroke="black" points="177.24,-89.5 177.24,-107.5 281.62,-107.5 281.62,-89.5 177.24,-89.5"/>
<text text-anchor="middle" x="229.43" y="-95.5" font-family="Helvetica,sans-Serif" font-size="10.00">Ogre::RenderTarget</text>
</a>
</g>
</g>
<!-- Node2&#45;&gt;Node1 -->
<g id="edge1" class="edge">
<title>Node2&#45;&gt;Node1</title>
<path fill="none" stroke="midnightblue" d="M291.86,-98.5C300.32,-98.5 309.01,-98.5 317.48,-98.5"/>
<polygon fill="midnightblue" stroke="midnightblue" points="291.69,-95 281.69,-98.5 291.69,-102 291.69,-95"/>
</g>
<!-- Node3 -->
<g id="node3" class="node">
<title>Node3</title>
<g id="a_node3"><a xlink:href="struct_ogre_1_1_gpu_tracked_resource.html" target="_top" xlink:title=" ">
<polygon fill="none" stroke="black" points="0,-108.5 0,-126.5 141.24,-126.5 141.24,-108.5 0,-108.5"/>
<text text-anchor="middle" x="70.62" y="-114.5" font-family="Helvetica,sans-Serif" font-size="10.00">Ogre::GpuTrackedResource</text>
</a>
</g>
</g>
<!-- Node3&#45;&gt;Node2 -->
<g id="edge2" class="edge">
<title>Node3&#45;&gt;Node2</title>
<path fill="none" stroke="midnightblue" d="M151.43,-107.83C160.06,-106.78 168.67,-105.74 176.83,-104.75"/>
<polygon fill="midnightblue" stroke="midnightblue" points="150.82,-104.38 141.32,-109.06 151.66,-111.33 150.82,-104.38"/>
</g>
<!-- Node4 -->
<g id="node4" class="node">
<title>Node4</title>
<g id="a_node4"><a xlink:href="class_ogre_1_1_allocated_object.html" target="_top" xlink:title="Superclass for all objects that wish to use custom memory allocators when their new / delete operator...">
<polygon fill="none" stroke="black" points="27.05,-71.5 27.05,-89.5 114.19,-89.5 114.19,-71.5 27.05,-71.5"/>
<text text-anchor="middle" x="70.62" y="-77.5" font-family="Helvetica,sans-Serif" font-size="10.00">RenderSysAlloc</text>
</a>
</g>
</g>
<!-- Node4&#45;&gt;Node2 -->
<g id="edge3" class="edge">
<title>Node4&#45;&gt;Node2</title>
<path fill="none" stroke="midnightblue" d="M124.72,-86.6C141.6,-88.53 160.23,-90.67 176.99,-92.6"/>
<polygon fill="midnightblue" stroke="midnightblue" points="124.81,-83.08 114.47,-85.42 124.01,-90.04 124.81,-83.08"/>
</g>
</g>
</svg>
