<?xml version="1.0" encoding="UTF-8" standalone="no"?>
<!DOCTYPE svg PUBLIC "-//W3C//DTD SVG 1.1//EN"
 "http://www.w3.org/Graphics/SVG/1.1/DTD/svg11.dtd">
<!-- Generated by graphviz version 2.43.0 (0)
 -->
<!-- Title: Ogre::HlmsTextureExportListener Pages: 1 -->
<svg width="172pt" height="147pt"
 viewBox="0.00 0.00 171.83 147.00" xmlns="http://www.w3.org/2000/svg" xmlns:xlink="http://www.w3.org/1999/xlink">
<g id="graph0" class="graph" transform="scale(1 1) rotate(0) translate(4 143)">
<title>Ogre::HlmsTextureExportListener</title>
<!-- Node1 -->
<g id="node1" class="node">
<title>Node1</title>
<g id="a_node1"><a xlink:title=" ">
<polygon fill="#bfbfbf" stroke="black" points="0,-120.5 0,-138.5 163.83,-138.5 163.83,-120.5 0,-120.5"/>
<text text-anchor="middle" x="81.92" y="-126.5" font-family="Helvetica,sans-Serif" font-size="10.00">Ogre::HlmsTextureExportListener</text>
</a>
</g>
</g>
<!-- Node2 -->
<g id="node2" class="node">
<title>Node2</title>
<g id="a_node2"><a xlink:href="class_ogre_1_1_scene_format_listener.html" target="_top" xlink:title="Override this listener if you want to filter which objects get exported.">
<polygon fill="none" stroke="black" points="12.22,-65.5 12.22,-83.5 151.61,-83.5 151.61,-65.5 12.22,-65.5"/>
<text text-anchor="middle" x="81.92" y="-71.5" font-family="Helvetica,sans-Serif" font-size="10.00">Ogre::SceneFormatListener</text>
</a>
</g>
</g>
<!-- Node1&#45;&gt;Node2 -->
<g id="edge1" class="edge">
<title>Node1&#45;&gt;Node2</title>
<path fill="none" stroke="midnightblue" d="M81.92,-110.17C81.92,-101.09 81.92,-90.59 81.92,-83.55"/>
<polygon fill="midnightblue" stroke="midnightblue" points="78.42,-110.22 81.92,-120.22 85.42,-110.22 78.42,-110.22"/>
</g>
<!-- Node3 -->
<g id="node3" class="node">
<title>Node3</title>
<g id="a_node3"><a xlink:href="class_ogre_1_1_default_scene_format_listener.html" target="_top" xlink:title="Default implementation that prevents a SceneNode from being exported if the only attached objects.">
<polygon fill="none" stroke="black" points="14.17,-0.5 14.17,-28.5 149.66,-28.5 149.66,-0.5 14.17,-0.5"/>
<text text-anchor="start" x="22.17" y="-16.5" font-family="Helvetica,sans-Serif" font-size="10.00">Ogre::DefaultSceneFormat</text>
<text text-anchor="middle" x="81.92" y="-6.5" font-family="Helvetica,sans-Serif" font-size="10.00">Listener</text>
</a>
</g>
</g>
<!-- Node2&#45;&gt;Node3 -->
<g id="edge2" class="edge">
<title>Node2&#45;&gt;Node3</title>
<path fill="none" stroke="midnightblue" d="M81.92,-55.32C81.92,-46.75 81.92,-36.7 81.92,-28.84"/>
<polygon fill="midnightblue" stroke="midnightblue" points="78.42,-55.44 81.92,-65.44 85.42,-55.44 78.42,-55.44"/>
</g>
</g>
</svg>
