<?xml version="1.0" encoding="UTF-8" standalone="no"?>
<!DOCTYPE svg PUBLIC "-//W3C//DTD SVG 1.1//EN"
 "http://www.w3.org/Graphics/SVG/1.1/DTD/svg11.dtd">
<!-- Generated by graphviz version 2.43.0 (0)
 -->
<!-- Title: Ogre::HlmsPbsMobile Pages: 1 -->
<svg width="121pt" height="137pt"
 viewBox="0.00 0.00 121.25 137.00" xmlns="http://www.w3.org/2000/svg" xmlns:xlink="http://www.w3.org/1999/xlink">
<g id="graph0" class="graph" transform="scale(1 1) rotate(0) translate(4 133)">
<title>Ogre::HlmsPbsMobile</title>
<!-- Node1 -->
<g id="node1" class="node">
<title>Node1</title>
<g id="a_node1"><a xlink:title="Physically based shading implementation specfically designed for OpenGL ES 2.0 and other RenderSystem...">
<polygon fill="#bfbfbf" stroke="black" points="0,-0.5 0,-18.5 113.25,-18.5 113.25,-0.5 0,-0.5"/>
<text text-anchor="middle" x="56.63" y="-6.5" font-family="Helvetica,sans-Serif" font-size="10.00">Ogre::HlmsPbsMobile</text>
</a>
</g>
</g>
<!-- Node2 -->
<g id="node2" class="node">
<title>Node2</title>
<g id="a_node2"><a xlink:href="class_ogre_1_1_hlms.html" target="_top" xlink:title="HLMS stands for &quot;High Level Material System&quot;.">
<polygon fill="none" stroke="black" points="23.34,-55.5 23.34,-73.5 89.91,-73.5 89.91,-55.5 23.34,-55.5"/>
<text text-anchor="middle" x="56.63" y="-61.5" font-family="Helvetica,sans-Serif" font-size="10.00">Ogre::Hlms</text>
</a>
</g>
</g>
<!-- Node2&#45;&gt;Node1 -->
<g id="edge1" class="edge">
<title>Node2&#45;&gt;Node1</title>
<path fill="none" stroke="midnightblue" d="M56.63,-45.17C56.63,-36.09 56.63,-25.59 56.63,-18.55"/>
<polygon fill="midnightblue" stroke="midnightblue" points="53.13,-45.22 56.63,-55.22 60.13,-45.22 53.13,-45.22"/>
</g>
<!-- Node3 -->
<g id="node3" class="node">
<title>Node3</title>
<g id="a_node3"><a xlink:href="class_ogre_1_1_allocated_object.html" target="_top" xlink:title="Superclass for all objects that wish to use custom memory allocators when their new / delete operator...">
<polygon fill="none" stroke="black" points="26.4,-110.5 26.4,-128.5 86.85,-128.5 86.85,-110.5 26.4,-110.5"/>
<text text-anchor="middle" x="56.63" y="-116.5" font-family="Helvetica,sans-Serif" font-size="10.00">HlmsAlloc</text>
</a>
</g>
</g>
<!-- Node3&#45;&gt;Node2 -->
<g id="edge2" class="edge">
<title>Node3&#45;&gt;Node2</title>
<path fill="none" stroke="midnightblue" d="M56.63,-100.17C56.63,-91.09 56.63,-80.59 56.63,-73.55"/>
<polygon fill="midnightblue" stroke="midnightblue" points="53.13,-100.22 56.63,-110.22 60.13,-100.22 53.13,-100.22"/>
</g>
</g>
</svg>
