<?xml version="1.0" encoding="UTF-8" standalone="no"?>
<!DOCTYPE svg PUBLIC "-//W3C//DTD SVG 1.1//EN"
 "http://www.w3.org/Graphics/SVG/1.1/DTD/svg11.dtd">
<!-- Generated by graphviz version 2.43.0 (0)
 -->
<!-- Title: Ogre::v1::MeshSerializerImpl_v1_10 Pages: 1 -->
<svg width="153pt" height="462pt"
 viewBox="0.00 0.00 152.93 462.00" xmlns="http://www.w3.org/2000/svg" xmlns:xlink="http://www.w3.org/1999/xlink">
<g id="graph0" class="graph" transform="scale(1 1) rotate(0) translate(4 458)">
<title>Ogre::v1::MeshSerializerImpl_v1_10</title>
<!-- Node1 -->
<g id="node1" class="node">
<title>Node1</title>
<g id="a_node1"><a xlink:title="Class for providing backwards&#45;compatibility for loading version 1.10 of the .mesh format.">
<polygon fill="#bfbfbf" stroke="black" points="9.45,-260.5 9.45,-288.5 135.48,-288.5 135.48,-260.5 9.45,-260.5"/>
<text text-anchor="start" x="17.45" y="-276.5" font-family="Helvetica,sans-Serif" font-size="10.00">Ogre::v1::MeshSerializer</text>
<text text-anchor="middle" x="72.47" y="-266.5" font-family="Helvetica,sans-Serif" font-size="10.00">Impl_v1_10</text>
</a>
</g>
</g>
<!-- Node5 -->
<g id="node5" class="node">
<title>Node5</title>
<g id="a_node5"><a xlink:href="class_ogre_1_1v1_1_1_mesh_serializer_impl__v1__8.html" target="_top" xlink:title="Class for providing backwards&#45;compatibility for loading version 1.8 of the .mesh format.">
<polygon fill="none" stroke="black" points="9.45,-195.5 9.45,-223.5 135.48,-223.5 135.48,-195.5 9.45,-195.5"/>
<text text-anchor="start" x="17.45" y="-211.5" font-family="Helvetica,sans-Serif" font-size="10.00">Ogre::v1::MeshSerializer</text>
<text text-anchor="middle" x="72.47" y="-201.5" font-family="Helvetica,sans-Serif" font-size="10.00">Impl_v1_8</text>
</a>
</g>
</g>
<!-- Node1&#45;&gt;Node5 -->
<g id="edge4" class="edge">
<title>Node1&#45;&gt;Node5</title>
<path fill="none" stroke="midnightblue" d="M72.47,-250.16C72.47,-241.17 72.47,-231.22 72.47,-223.54"/>
<polygon fill="midnightblue" stroke="midnightblue" points="68.97,-250.45 72.47,-260.45 75.97,-250.45 68.97,-250.45"/>
</g>
<!-- Node2 -->
<g id="node2" class="node">
<title>Node2</title>
<g id="a_node2"><a xlink:href="class_ogre_1_1v1_1_1_mesh_serializer_impl.html" target="_top" xlink:title="Internal implementation of Mesh reading / writing for the latest version of the .mesh format.">
<polygon fill="none" stroke="black" points="0,-325.5 0,-343.5 144.93,-343.5 144.93,-325.5 0,-325.5"/>
<text text-anchor="middle" x="72.47" y="-331.5" font-family="Helvetica,sans-Serif" font-size="10.00">Ogre::v1::MeshSerializerImpl</text>
</a>
</g>
</g>
<!-- Node2&#45;&gt;Node1 -->
<g id="edge1" class="edge">
<title>Node2&#45;&gt;Node1</title>
<path fill="none" stroke="midnightblue" d="M72.47,-315.32C72.47,-306.75 72.47,-296.7 72.47,-288.84"/>
<polygon fill="midnightblue" stroke="midnightblue" points="68.97,-315.44 72.47,-325.44 75.97,-315.44 68.97,-315.44"/>
</g>
<!-- Node3 -->
<g id="node3" class="node">
<title>Node3</title>
<g id="a_node3"><a xlink:href="class_ogre_1_1_serializer.html" target="_top" xlink:title="Generic class for serialising data to / from binary stream&#45;based files.">
<polygon fill="none" stroke="black" points="29.73,-380.5 29.73,-398.5 115.2,-398.5 115.2,-380.5 29.73,-380.5"/>
<text text-anchor="middle" x="72.47" y="-386.5" font-family="Helvetica,sans-Serif" font-size="10.00">Ogre::Serializer</text>
</a>
</g>
</g>
<!-- Node3&#45;&gt;Node2 -->
<g id="edge2" class="edge">
<title>Node3&#45;&gt;Node2</title>
<path fill="none" stroke="midnightblue" d="M72.47,-370.17C72.47,-361.09 72.47,-350.59 72.47,-343.55"/>
<polygon fill="midnightblue" stroke="midnightblue" points="68.97,-370.22 72.47,-380.22 75.97,-370.22 68.97,-370.22"/>
</g>
<!-- Node4 -->
<g id="node4" class="node">
<title>Node4</title>
<g id="a_node4"><a xlink:href="class_ogre_1_1_allocated_object.html" target="_top" xlink:title="Superclass for all objects that wish to use custom memory allocators when their new / delete operator...">
<polygon fill="none" stroke="black" points="32.79,-435.5 32.79,-453.5 112.14,-453.5 112.14,-435.5 32.79,-435.5"/>
<text text-anchor="middle" x="72.47" y="-441.5" font-family="Helvetica,sans-Serif" font-size="10.00">SerializerAlloc</text>
</a>
</g>
</g>
<!-- Node4&#45;&gt;Node3 -->
<g id="edge3" class="edge">
<title>Node4&#45;&gt;Node3</title>
<path fill="none" stroke="midnightblue" d="M72.47,-425.17C72.47,-416.09 72.47,-405.59 72.47,-398.55"/>
<polygon fill="midnightblue" stroke="midnightblue" points="68.97,-425.22 72.47,-435.22 75.97,-425.22 68.97,-425.22"/>
</g>
<!-- Node6 -->
<g id="node6" class="node">
<title>Node6</title>
<g id="a_node6"><a xlink:href="class_ogre_1_1v1_1_1_mesh_serializer_impl__v1__41.html" target="_top" xlink:title="Class for providing backwards&#45;compatibility for loading version 1.41 of the .mesh format.">
<polygon fill="none" stroke="black" points="9.45,-130.5 9.45,-158.5 135.48,-158.5 135.48,-130.5 9.45,-130.5"/>
<text text-anchor="start" x="17.45" y="-146.5" font-family="Helvetica,sans-Serif" font-size="10.00">Ogre::v1::MeshSerializer</text>
<text text-anchor="middle" x="72.47" y="-136.5" font-family="Helvetica,sans-Serif" font-size="10.00">Impl_v1_41</text>
</a>
</g>
</g>
<!-- Node5&#45;&gt;Node6 -->
<g id="edge5" class="edge">
<title>Node5&#45;&gt;Node6</title>
<path fill="none" stroke="midnightblue" d="M72.47,-185.16C72.47,-176.17 72.47,-166.22 72.47,-158.54"/>
<polygon fill="midnightblue" stroke="midnightblue" points="68.97,-185.45 72.47,-195.45 75.97,-185.45 68.97,-185.45"/>
</g>
<!-- Node7 -->
<g id="node7" class="node">
<title>Node7</title>
<g id="a_node7"><a xlink:href="class_ogre_1_1v1_1_1_mesh_serializer_impl__v1__4.html" target="_top" xlink:title="Class for providing backwards&#45;compatibility for loading version 1.4 of the .mesh format.">
<polygon fill="none" stroke="black" points="9.45,-65.5 9.45,-93.5 135.48,-93.5 135.48,-65.5 9.45,-65.5"/>
<text text-anchor="start" x="17.45" y="-81.5" font-family="Helvetica,sans-Serif" font-size="10.00">Ogre::v1::MeshSerializer</text>
<text text-anchor="middle" x="72.47" y="-71.5" font-family="Helvetica,sans-Serif" font-size="10.00">Impl_v1_4</text>
</a>
</g>
</g>
<!-- Node6&#45;&gt;Node7 -->
<g id="edge6" class="edge">
<title>Node6&#45;&gt;Node7</title>
<path fill="none" stroke="midnightblue" d="M72.47,-120.16C72.47,-111.17 72.47,-101.22 72.47,-93.54"/>
<polygon fill="midnightblue" stroke="midnightblue" points="68.97,-120.45 72.47,-130.45 75.97,-120.45 68.97,-120.45"/>
</g>
<!-- Node8 -->
<g id="node8" class="node">
<title>Node8</title>
<g id="a_node8"><a xlink:href="class_ogre_1_1v1_1_1_mesh_serializer_impl__v1__3.html" target="_top" xlink:title="Class for providing backwards&#45;compatibility for loading version 1.3 of the .mesh format.">
<polygon fill="none" stroke="red" points="9.45,-0.5 9.45,-28.5 135.48,-28.5 135.48,-0.5 9.45,-0.5"/>
<text text-anchor="start" x="17.45" y="-16.5" font-family="Helvetica,sans-Serif" font-size="10.00">Ogre::v1::MeshSerializer</text>
<text text-anchor="middle" x="72.47" y="-6.5" font-family="Helvetica,sans-Serif" font-size="10.00">Impl_v1_3</text>
</a>
</g>
</g>
<!-- Node7&#45;&gt;Node8 -->
<g id="edge7" class="edge">
<title>Node7&#45;&gt;Node8</title>
<path fill="none" stroke="midnightblue" d="M72.47,-55.16C72.47,-46.17 72.47,-36.22 72.47,-28.54"/>
<polygon fill="midnightblue" stroke="midnightblue" points="68.97,-55.45 72.47,-65.45 75.97,-55.45 68.97,-55.45"/>
</g>
</g>
</svg>
