<?xml version="1.0" encoding="UTF-8" standalone="no"?>
<!DOCTYPE svg PUBLIC "-//W3C//DTD SVG 1.1//EN"
 "http://www.w3.org/Graphics/SVG/1.1/DTD/svg11.dtd">
<!-- Generated by graphviz version 2.43.0 (0)
 -->
<!-- Title: Ogre::GL3PlusFBOManager Pages: 1 -->
<svg width="150pt" height="147pt"
 viewBox="0.00 0.00 150.17 147.00" xmlns="http://www.w3.org/2000/svg" xmlns:xlink="http://www.w3.org/1999/xlink">
<g id="graph0" class="graph" transform="scale(1 1) rotate(0) translate(4 143)">
<title>Ogre::GL3PlusFBOManager</title>
<!-- Node1 -->
<g id="node1" class="node">
<title>Node1</title>
<g id="a_node1"><a xlink:title="Factory for GL Frame Buffer Objects, and related things.">
<polygon fill="#bfbfbf" stroke="black" points="0,-0.5 0,-18.5 142.17,-18.5 142.17,-0.5 0,-0.5"/>
<text text-anchor="middle" x="71.08" y="-6.5" font-family="Helvetica,sans-Serif" font-size="10.00">Ogre::GL3PlusFBOManager</text>
</a>
</g>
</g>
<!-- Node2 -->
<g id="node2" class="node">
<title>Node2</title>
<g id="a_node2"><a xlink:href="class_ogre_1_1_g_l3_plus_r_t_t_manager.html" target="_top" xlink:title="Manager/factory for RenderTextures.">
<polygon fill="none" stroke="black" points="0.65,-55.5 0.65,-73.5 141.52,-73.5 141.52,-55.5 0.65,-55.5"/>
<text text-anchor="middle" x="71.08" y="-61.5" font-family="Helvetica,sans-Serif" font-size="10.00">Ogre::GL3PlusRTTManager</text>
</a>
</g>
</g>
<!-- Node2&#45;&gt;Node1 -->
<g id="edge1" class="edge">
<title>Node2&#45;&gt;Node1</title>
<path fill="none" stroke="midnightblue" d="M71.08,-45.17C71.08,-36.09 71.08,-25.59 71.08,-18.55"/>
<polygon fill="midnightblue" stroke="midnightblue" points="67.58,-45.22 71.08,-55.22 74.58,-45.22 67.58,-45.22"/>
</g>
<!-- Node3 -->
<g id="node3" class="node">
<title>Node3</title>
<g id="a_node3"><a xlink:href="class_ogre_1_1_singleton.html" target="_top" xlink:title=" ">
<polygon fill="none" stroke="black" points="4.85,-110.5 4.85,-138.5 137.31,-138.5 137.31,-110.5 4.85,-110.5"/>
<text text-anchor="start" x="12.85" y="-126.5" font-family="Helvetica,sans-Serif" font-size="10.00">Ogre::Singleton&lt; GL3Plus</text>
<text text-anchor="middle" x="71.08" y="-116.5" font-family="Helvetica,sans-Serif" font-size="10.00">RTTManager &gt;</text>
</a>
</g>
</g>
<!-- Node3&#45;&gt;Node2 -->
<g id="edge2" class="edge">
<title>Node3&#45;&gt;Node2</title>
<path fill="none" stroke="midnightblue" d="M71.08,-100.32C71.08,-90.94 71.08,-80.7 71.08,-73.77"/>
<polygon fill="midnightblue" stroke="midnightblue" points="67.58,-100.34 71.08,-110.34 74.58,-100.34 67.58,-100.34"/>
</g>
</g>
</svg>
