<?xml version="1.0" encoding="UTF-8" standalone="no"?>
<!DOCTYPE svg PUBLIC "-//W3C//DTD SVG 1.1//EN"
 "http://www.w3.org/Graphics/SVG/1.1/DTD/svg11.dtd">
<!-- Generated by graphviz version 2.43.0 (0)
 -->
<!-- Title: Ogre::PageStrategyData Pages: 1 -->
<svg width="340pt" height="137pt"
 viewBox="0.00 0.00 340.18 137.00" xmlns="http://www.w3.org/2000/svg" xmlns:xlink="http://www.w3.org/1999/xlink">
<g id="graph0" class="graph" transform="scale(1 1) rotate(0) translate(4 133)">
<title>Ogre::PageStrategyData</title>
<!-- Node1 -->
<g id="node1" class="node">
<title>Node1</title>
<g id="a_node1"><a xlink:title="Abstract marker class representing the data held against the PagedWorldSection which is specifically ...">
<polygon fill="#bfbfbf" stroke="black" points="102.84,-55.5 102.84,-73.5 228.34,-73.5 228.34,-55.5 102.84,-55.5"/>
<text text-anchor="middle" x="165.59" y="-61.5" font-family="Helvetica,sans-Serif" font-size="10.00">Ogre::PageStrategyData</text>
</a>
</g>
</g>
<!-- Node3 -->
<g id="node3" class="node">
<title>Node3</title>
<g id="a_node3"><a xlink:href="class_ogre_1_1_grid2_d_page_strategy_data.html" target="_top" xlink:title="Specialisation of PageStrategyData for Grid2DPageStrategy.">
<polygon fill="none" stroke="black" points="0,-0.5 0,-18.5 157.18,-18.5 157.18,-0.5 0,-0.5"/>
<text text-anchor="middle" x="78.59" y="-6.5" font-family="Helvetica,sans-Serif" font-size="10.00">Ogre::Grid2DPageStrategyData</text>
</a>
</g>
</g>
<!-- Node1&#45;&gt;Node3 -->
<g id="edge2" class="edge">
<title>Node1&#45;&gt;Node3</title>
<path fill="none" stroke="midnightblue" d="M143.51,-50.05C127.24,-40.14 105.65,-26.98 91.93,-18.63"/>
<polygon fill="midnightblue" stroke="midnightblue" points="142.02,-53.24 152.38,-55.45 145.66,-47.26 142.02,-53.24"/>
</g>
<!-- Node4 -->
<g id="node4" class="node">
<title>Node4</title>
<g id="a_node4"><a xlink:href="class_ogre_1_1_grid3_d_page_strategy_data.html" target="_top" xlink:title="Specialisation of PageStrategyData for Grid3DPageStrategy.">
<polygon fill="none" stroke="black" points="175,-0.5 175,-18.5 332.18,-18.5 332.18,-0.5 175,-0.5"/>
<text text-anchor="middle" x="253.59" y="-6.5" font-family="Helvetica,sans-Serif" font-size="10.00">Ogre::Grid3DPageStrategyData</text>
</a>
</g>
</g>
<!-- Node1&#45;&gt;Node4 -->
<g id="edge3" class="edge">
<title>Node1&#45;&gt;Node4</title>
<path fill="none" stroke="midnightblue" d="M187.92,-50.05C204.38,-40.14 226.22,-26.98 240.1,-18.63"/>
<polygon fill="midnightblue" stroke="midnightblue" points="185.72,-47.29 178.96,-55.45 189.33,-53.29 185.72,-47.29"/>
</g>
<!-- Node2 -->
<g id="node2" class="node">
<title>Node2</title>
<g id="a_node2"><a xlink:href="class_ogre_1_1_allocated_object.html" target="_top" xlink:title="Superclass for all objects that wish to use custom memory allocators when their new / delete operator...">
<polygon fill="none" stroke="black" points="135.08,-110.5 135.08,-128.5 196.11,-128.5 196.11,-110.5 135.08,-110.5"/>
<text text-anchor="middle" x="165.59" y="-116.5" font-family="Helvetica,sans-Serif" font-size="10.00">PageAlloc</text>
</a>
</g>
</g>
<!-- Node2&#45;&gt;Node1 -->
<g id="edge1" class="edge">
<title>Node2&#45;&gt;Node1</title>
<path fill="none" stroke="midnightblue" d="M165.59,-100.17C165.59,-91.09 165.59,-80.59 165.59,-73.55"/>
<polygon fill="midnightblue" stroke="midnightblue" points="162.09,-100.22 165.59,-110.22 169.09,-100.22 162.09,-100.22"/>
</g>
</g>
</svg>
