<?xml version="1.0" encoding="UTF-8" standalone="no"?>
<!DOCTYPE svg PUBLIC "-//W3C//DTD SVG 1.1//EN"
 "http://www.w3.org/Graphics/SVG/1.1/DTD/svg11.dtd">
<!-- Generated by graphviz version 2.43.0 (0)
 -->
<!-- Title: Ogre::RTShader::ShaderProgramWriterGLSLFactory Pages: 1 -->
<svg width="173pt" height="157pt"
 viewBox="0.00 0.00 173.34 157.00" xmlns="http://www.w3.org/2000/svg" xmlns:xlink="http://www.w3.org/1999/xlink">
<g id="graph0" class="graph" transform="scale(1 1) rotate(0) translate(4 153)">
<title>Ogre::RTShader::ShaderProgramWriterGLSLFactory</title>
<!-- Node1 -->
<g id="node1" class="node">
<title>Node1</title>
<g id="a_node1"><a xlink:title="GLSL program writer factory implementation.">
<polygon fill="#bfbfbf" stroke="black" points="0,-0.5 0,-28.5 165.34,-28.5 165.34,-0.5 0,-0.5"/>
<text text-anchor="start" x="8" y="-16.5" font-family="Helvetica,sans-Serif" font-size="10.00">Ogre::RTShader::ShaderProgram</text>
<text text-anchor="middle" x="82.67" y="-6.5" font-family="Helvetica,sans-Serif" font-size="10.00">WriterGLSLFactory</text>
</a>
</g>
</g>
<!-- Node2 -->
<g id="node2" class="node">
<title>Node2</title>
<g id="a_node2"><a xlink:href="class_ogre_1_1_r_t_shader_1_1_program_writer_factory.html" target="_top" xlink:title="Interface definition for factories of ShaderProgramWriter.">
<polygon fill="none" stroke="black" points="2.88,-65.5 2.88,-93.5 162.46,-93.5 162.46,-65.5 2.88,-65.5"/>
<text text-anchor="start" x="10.88" y="-81.5" font-family="Helvetica,sans-Serif" font-size="10.00">Ogre::RTShader::ProgramWriter</text>
<text text-anchor="middle" x="82.67" y="-71.5" font-family="Helvetica,sans-Serif" font-size="10.00">Factory</text>
</a>
</g>
</g>
<!-- Node2&#45;&gt;Node1 -->
<g id="edge1" class="edge">
<title>Node2&#45;&gt;Node1</title>
<path fill="none" stroke="midnightblue" d="M82.67,-55.16C82.67,-46.17 82.67,-36.22 82.67,-28.54"/>
<polygon fill="midnightblue" stroke="midnightblue" points="79.17,-55.45 82.67,-65.45 86.17,-55.45 79.17,-55.45"/>
</g>
<!-- Node3 -->
<g id="node3" class="node">
<title>Node3</title>
<g id="a_node3"><a xlink:href="class_ogre_1_1_allocated_object.html" target="_top" xlink:title="Superclass for all objects that wish to use custom memory allocators when their new / delete operator...">
<polygon fill="none" stroke="black" points="24.46,-130.5 24.46,-148.5 140.88,-148.5 140.88,-130.5 24.46,-130.5"/>
<text text-anchor="middle" x="82.67" y="-136.5" font-family="Helvetica,sans-Serif" font-size="10.00">RTShaderSystemAlloc</text>
</a>
</g>
</g>
<!-- Node3&#45;&gt;Node2 -->
<g id="edge2" class="edge">
<title>Node3&#45;&gt;Node2</title>
<path fill="none" stroke="midnightblue" d="M82.67,-120.32C82.67,-111.75 82.67,-101.7 82.67,-93.84"/>
<polygon fill="midnightblue" stroke="midnightblue" points="79.17,-120.44 82.67,-130.44 86.17,-120.44 79.17,-120.44"/>
</g>
</g>
</svg>
