<?xml version="1.0" encoding="UTF-8" standalone="no"?>
<!DOCTYPE svg PUBLIC "-//W3C//DTD SVG 1.1//EN"
 "http://www.w3.org/Graphics/SVG/1.1/DTD/svg11.dtd">
<!-- Generated by graphviz version 2.43.0 (0)
 -->
<!-- Title: Ogre::Renderable Pages: 1 -->
<svg width="836pt" height="593pt"
 viewBox="0.00 0.00 836.19 593.00" xmlns="http://www.w3.org/2000/svg" xmlns:xlink="http://www.w3.org/1999/xlink">
<g id="graph0" class="graph" transform="scale(1 1) rotate(0) translate(4 589)">
<title>Ogre::Renderable</title>
<!-- Node1 -->
<g id="node1" class="node">
<title>Node1</title>
<g id="a_node1"><a xlink:title="Abstract class defining the interface all renderable objects must implement.">
<polygon fill="#bfbfbf" stroke="black" points="0,-274.5 0,-292.5 95.49,-292.5 95.49,-274.5 0,-274.5"/>
<text text-anchor="middle" x="47.75" y="-280.5" font-family="Helvetica,sans-Serif" font-size="10.00">Ogre::Renderable</text>
</a>
</g>
</g>
<!-- Node2 -->
<g id="node2" class="node">
<title>Node2</title>
<g id="a_node2"><a xlink:href="class_ogre_1_1_frustum.html" target="_top" xlink:title="A frustum represents a pyramid, capped at the near and far end which is used to represent either a vi...">
<polygon fill="none" stroke="black" points="162.35,-548.5 162.35,-566.5 242.81,-566.5 242.81,-548.5 162.35,-548.5"/>
<text text-anchor="middle" x="202.58" y="-554.5" font-family="Helvetica,sans-Serif" font-size="10.00">Ogre::Frustum</text>
</a>
</g>
</g>
<!-- Node1&#45;&gt;Node2 -->
<g id="edge1" class="edge">
<title>Node1&#45;&gt;Node2</title>
<path fill="none" stroke="midnightblue" d="M49.01,-302.7C50.73,-350.21 62.03,-474.16 131.49,-539.5 139.82,-547.33 151.08,-551.87 162.14,-554.47"/>
<polygon fill="midnightblue" stroke="midnightblue" points="52.5,-302.49 48.75,-292.58 45.5,-302.67 52.5,-302.49"/>
</g>
<!-- Node6 -->
<g id="node6" class="node">
<title>Node6</title>
<g id="a_node6"><a xlink:href="class_ogre_1_1_manual_object_1_1_manual_object_section.html" target="_top" xlink:title="Built, renderable section of geometry.">
<polygon fill="none" stroke="black" points="144.28,-501.5 144.28,-529.5 260.89,-529.5 260.89,-501.5 144.28,-501.5"/>
<text text-anchor="start" x="152.28" y="-517.5" font-family="Helvetica,sans-Serif" font-size="10.00">Ogre::ManualObject</text>
<text text-anchor="middle" x="202.58" y="-507.5" font-family="Helvetica,sans-Serif" font-size="10.00">::ManualObjectSection</text>
</a>
</g>
</g>
<!-- Node1&#45;&gt;Node6 -->
<g id="edge5" class="edge">
<title>Node1&#45;&gt;Node6</title>
<path fill="none" stroke="midnightblue" d="M50.91,-302.71C56.52,-343.54 75.26,-439.54 131.49,-492.5 135.22,-496.01 139.5,-498.99 144.06,-501.51"/>
<polygon fill="midnightblue" stroke="midnightblue" points="54.35,-302.02 49.63,-292.53 47.4,-302.89 54.35,-302.02"/>
</g>
<!-- Node7 -->
<g id="node7" class="node">
<title>Node7</title>
<g id="a_node7"><a xlink:href="class_ogre_1_1_rectangle2_d.html" target="_top" xlink:title=" ">
<polygon fill="none" stroke="black" points="151.78,-464.5 151.78,-482.5 253.38,-482.5 253.38,-464.5 151.78,-464.5"/>
<text text-anchor="middle" x="202.58" y="-470.5" font-family="Helvetica,sans-Serif" font-size="10.00">Ogre::Rectangle2D</text>
</a>
</g>
</g>
<!-- Node1&#45;&gt;Node7 -->
<g id="edge6" class="edge">
<title>Node1&#45;&gt;Node7</title>
<path fill="none" stroke="midnightblue" d="M52.43,-302.7C60.3,-338.42 82.25,-415.11 131.49,-455.5 137.32,-460.28 144.27,-463.81 151.49,-466.41"/>
<polygon fill="midnightblue" stroke="midnightblue" points="55.8,-301.72 50.35,-292.64 48.94,-303.14 55.8,-301.72"/>
</g>
<!-- Node8 -->
<g id="node8" class="node">
<title>Node8</title>
<g id="a_node8"><a xlink:href="class_ogre_1_1_renderable_animated.html" target="_top" xlink:title=" ">
<polygon fill="none" stroke="black" points="133.71,-427.5 133.71,-445.5 271.45,-445.5 271.45,-427.5 133.71,-427.5"/>
<text text-anchor="middle" x="202.58" y="-433.5" font-family="Helvetica,sans-Serif" font-size="10.00">Ogre::RenderableAnimated</text>
</a>
</g>
</g>
<!-- Node1&#45;&gt;Node8 -->
<g id="edge7" class="edge">
<title>Node1&#45;&gt;Node8</title>
<path fill="none" stroke="midnightblue" d="M54.98,-302.23C65.76,-331.63 90.73,-388.39 131.49,-418.5 136.44,-422.16 142.07,-425.07 147.93,-427.4"/>
<polygon fill="midnightblue" stroke="midnightblue" points="58.26,-301.01 51.65,-292.73 51.66,-303.32 58.26,-301.01"/>
</g>
<!-- Node10 -->
<g id="node10" class="node">
<title>Node10</title>
<g id="a_node10"><a xlink:href="class_ogre_1_1v1_1_1_billboard_chain.html" target="_top" xlink:title="Allows the rendering of a chain of connected billboards.">
<polygon fill="none" stroke="black" points="140.11,-390.5 140.11,-408.5 265.05,-408.5 265.05,-390.5 140.11,-390.5"/>
<text text-anchor="middle" x="202.58" y="-396.5" font-family="Helvetica,sans-Serif" font-size="10.00">Ogre::v1::BillboardChain</text>
</a>
</g>
</g>
<!-- Node1&#45;&gt;Node10 -->
<g id="edge9" class="edge">
<title>Node1&#45;&gt;Node10</title>
<path fill="none" stroke="midnightblue" d="M59.03,-301.47C72.71,-323.69 98.96,-361.08 131.49,-381.5 137.34,-385.17 143.92,-388.1 150.63,-390.43"/>
<polygon fill="midnightblue" stroke="midnightblue" points="61.94,-299.5 53.81,-292.7 55.92,-303.08 61.94,-299.5"/>
</g>
<!-- Node12 -->
<g id="node12" class="node">
<title>Node12</title>
<g id="a_node12"><a xlink:href="class_ogre_1_1v1_1_1_billboard_set.html" target="_top" xlink:title="A collection of billboards (faces which are always facing the given direction) with the same (default...">
<polygon fill="none" stroke="black" points="145.67,-353.5 145.67,-371.5 259.49,-371.5 259.49,-353.5 145.67,-353.5"/>
<text text-anchor="middle" x="202.58" y="-359.5" font-family="Helvetica,sans-Serif" font-size="10.00">Ogre::v1::BillboardSet</text>
</a>
</g>
</g>
<!-- Node1&#45;&gt;Node12 -->
<g id="edge11" class="edge">
<title>Node1&#45;&gt;Node12</title>
<path fill="none" stroke="midnightblue" d="M66.53,-299.8C82.45,-313.57 107.01,-332.87 131.49,-344.5 139.1,-348.11 147.52,-351.06 155.81,-353.46"/>
<polygon fill="midnightblue" stroke="midnightblue" points="68.43,-296.8 58.62,-292.79 63.79,-302.04 68.43,-296.8"/>
</g>
<!-- Node13 -->
<g id="node13" class="node">
<title>Node13</title>
<g id="a_node13"><a xlink:href="class_ogre_1_1v1_1_1_border_renderable.html" target="_top" xlink:title="Class for rendering the border of a BorderPanelOverlayElement.">
<polygon fill="none" stroke="black" points="131.77,-316.5 131.77,-334.5 273.39,-334.5 273.39,-316.5 131.77,-316.5"/>
<text text-anchor="middle" x="202.58" y="-322.5" font-family="Helvetica,sans-Serif" font-size="10.00">Ogre::v1::BorderRenderable</text>
</a>
</g>
</g>
<!-- Node1&#45;&gt;Node13 -->
<g id="edge12" class="edge">
<title>Node1&#45;&gt;Node13</title>
<path fill="none" stroke="midnightblue" d="M88.9,-295.42C102.41,-299.35 117.58,-303.7 131.49,-307.5 142.52,-310.51 154.56,-313.66 165.51,-316.46"/>
<polygon fill="midnightblue" stroke="midnightblue" points="89.53,-291.95 78.94,-292.5 87.56,-298.67 89.53,-291.95"/>
</g>
<!-- Node14 -->
<g id="node14" class="node">
<title>Node14</title>
<g id="a_node14"><a xlink:href="class_ogre_1_1v1_1_1_manual_object_1_1_manual_object_section.html" target="_top" xlink:title="Built, renderable section of geometry.">
<polygon fill="none" stroke="black" points="141.78,-269.5 141.78,-297.5 263.38,-297.5 263.38,-269.5 141.78,-269.5"/>
<text text-anchor="start" x="149.78" y="-285.5" font-family="Helvetica,sans-Serif" font-size="10.00">Ogre::v1::ManualObject</text>
<text text-anchor="middle" x="202.58" y="-275.5" font-family="Helvetica,sans-Serif" font-size="10.00">::ManualObjectSection</text>
</a>
</g>
</g>
<!-- Node1&#45;&gt;Node14 -->
<g id="edge13" class="edge">
<title>Node1&#45;&gt;Node14</title>
<path fill="none" stroke="midnightblue" d="M105.91,-283.5C117.58,-283.5 129.89,-283.5 141.66,-283.5"/>
<polygon fill="midnightblue" stroke="midnightblue" points="105.85,-280 95.85,-283.5 105.85,-287 105.85,-280"/>
</g>
<!-- Node15 -->
<g id="node15" class="node">
<title>Node15</title>
<g id="a_node15"><a xlink:href="class_ogre_1_1v1_1_1_overlay_element.html" target="_top" xlink:title="Abstract definition of a 2D element to be displayed in an Overlay.">
<polygon fill="none" stroke="black" points="137.06,-232.5 137.06,-250.5 268.1,-250.5 268.1,-232.5 137.06,-232.5"/>
<text text-anchor="middle" x="202.58" y="-238.5" font-family="Helvetica,sans-Serif" font-size="10.00">Ogre::v1::OverlayElement</text>
</a>
</g>
</g>
<!-- Node1&#45;&gt;Node15 -->
<g id="edge14" class="edge">
<title>Node1&#45;&gt;Node15</title>
<path fill="none" stroke="midnightblue" d="M90.64,-271.8C103.72,-268.16 118.2,-264.15 131.49,-260.5 143.41,-257.23 156.47,-253.68 168.06,-250.54"/>
<polygon fill="midnightblue" stroke="midnightblue" points="89.65,-268.44 80.96,-274.5 91.53,-275.19 89.65,-268.44"/>
</g>
<!-- Node20 -->
<g id="node20" class="node">
<title>Node20</title>
<g id="a_node20"><a xlink:href="class_ogre_1_1v1_1_1_rectangle2_d.html" target="_top" xlink:title="Allows the rendering of a simple 2D rectangle This class renders a simple 2D rectangle; this rectangl...">
<polygon fill="none" stroke="black" points="143.72,-195.5 143.72,-213.5 261.44,-213.5 261.44,-195.5 143.72,-195.5"/>
<text text-anchor="middle" x="202.58" y="-201.5" font-family="Helvetica,sans-Serif" font-size="10.00">Ogre::v1::Rectangle2D</text>
</a>
</g>
</g>
<!-- Node1&#45;&gt;Node20 -->
<g id="edge19" class="edge">
<title>Node1&#45;&gt;Node20</title>
<path fill="none" stroke="midnightblue" d="M66.53,-267.2C82.45,-253.43 107.01,-234.13 131.49,-222.5 139.1,-218.89 147.52,-215.94 155.81,-213.54"/>
<polygon fill="midnightblue" stroke="midnightblue" points="63.79,-264.96 58.62,-274.21 68.43,-270.2 63.79,-264.96"/>
</g>
<!-- Node21 -->
<g id="node21" class="node">
<title>Node21</title>
<g id="a_node21"><a xlink:href="class_ogre_1_1v1_1_1_simple_renderable.html" target="_top" xlink:title="Simple implementation of MovableObject and Renderable for single&#45;part custom objects.">
<polygon fill="none" stroke="black" points="131.49,-158.5 131.49,-176.5 273.67,-176.5 273.67,-158.5 131.49,-158.5"/>
<text text-anchor="middle" x="202.58" y="-164.5" font-family="Helvetica,sans-Serif" font-size="10.00">Ogre::v1::SimpleRenderable</text>
</a>
</g>
</g>
<!-- Node1&#45;&gt;Node21 -->
<g id="edge20" class="edge">
<title>Node1&#45;&gt;Node21</title>
<path fill="none" stroke="midnightblue" d="M59.03,-265.53C72.71,-243.31 98.96,-205.92 131.49,-185.5 137.34,-181.83 143.92,-178.9 150.63,-176.57"/>
<polygon fill="midnightblue" stroke="midnightblue" points="55.92,-263.92 53.81,-274.3 61.94,-267.5 55.92,-263.92"/>
</g>
<!-- Node23 -->
<g id="node23" class="node">
<title>Node23</title>
<g id="a_node23"><a xlink:href="class_ogre_1_1v1_1_1_static_geometry_1_1_geometry_bucket.html" target="_top" xlink:title="A GeometryBucket is a the lowest level bucket where geometry with the same vertex &amp; index format is s...">
<polygon fill="none" stroke="black" points="138.17,-111.5 138.17,-139.5 266.99,-139.5 266.99,-111.5 138.17,-111.5"/>
<text text-anchor="start" x="146.17" y="-127.5" font-family="Helvetica,sans-Serif" font-size="10.00">Ogre::v1::StaticGeometry</text>
<text text-anchor="middle" x="202.58" y="-117.5" font-family="Helvetica,sans-Serif" font-size="10.00">::GeometryBucket</text>
</a>
</g>
</g>
<!-- Node1&#45;&gt;Node23 -->
<g id="edge22" class="edge">
<title>Node1&#45;&gt;Node23</title>
<path fill="none" stroke="midnightblue" d="M55.37,-264.7C66.55,-235.61 91.91,-179.79 131.49,-148.5 135.91,-145.01 140.88,-142.03 146.09,-139.51"/>
<polygon fill="midnightblue" stroke="midnightblue" points="51.95,-263.84 51.77,-274.43 58.52,-266.27 51.95,-263.84"/>
</g>
<!-- Node24 -->
<g id="node24" class="node">
<title>Node24</title>
<g id="a_node24"><a xlink:href="class_ogre_1_1v1_1_1_sub_entity.html" target="_top" xlink:title="Utility class which defines the sub&#45;parts of an Entity.">
<polygon fill="none" stroke="black" points="151.23,-74.5 151.23,-92.5 253.94,-92.5 253.94,-74.5 151.23,-74.5"/>
<text text-anchor="middle" x="202.58" y="-80.5" font-family="Helvetica,sans-Serif" font-size="10.00">Ogre::v1::SubEntity</text>
</a>
</g>
</g>
<!-- Node1&#45;&gt;Node24 -->
<g id="edge23" class="edge">
<title>Node1&#45;&gt;Node24</title>
<path fill="none" stroke="midnightblue" d="M51.88,-264.22C58.99,-226.92 79.91,-144.75 131.49,-101.5 137.17,-96.74 143.96,-93.21 151.04,-90.61"/>
<polygon fill="midnightblue" stroke="midnightblue" points="48.4,-263.81 50.1,-274.26 55.29,-265.03 48.4,-263.81"/>
</g>
<!-- Node25 -->
<g id="node25" class="node">
<title>Node25</title>
<g id="a_node25"><a xlink:href="class_ogre_1_1_voxel_visualizer.html" target="_top" xlink:title=" ">
<polygon fill="none" stroke="black" points="146.87,-37.5 146.87,-55.5 258.3,-55.5 258.3,-37.5 146.87,-37.5"/>
<text text-anchor="middle" x="202.58" y="-43.5" font-family="Helvetica,sans-Serif" font-size="10.00">Ogre::VoxelVisualizer</text>
</a>
</g>
</g>
<!-- Node1&#45;&gt;Node25 -->
<g id="edge24" class="edge">
<title>Node1&#45;&gt;Node25</title>
<path fill="none" stroke="midnightblue" d="M50.22,-264.23C54.55,-221.58 71.04,-118.65 131.49,-64.5 135.98,-60.48 141.26,-57.33 146.86,-54.87"/>
<polygon fill="midnightblue" stroke="midnightblue" points="46.72,-264.09 49.31,-274.36 53.69,-264.72 46.72,-264.09"/>
</g>
<!-- Node26 -->
<g id="node26" class="node">
<title>Node26</title>
<g id="a_node26"><a xlink:href="class_ogre_1_1_wire_aabb.html" target="_top" xlink:title="Helper class to display the Aabb of a MovableObject as lines.">
<polygon fill="none" stroke="black" points="158.73,-0.5 158.73,-18.5 246.43,-18.5 246.43,-0.5 158.73,-0.5"/>
<text text-anchor="middle" x="202.58" y="-6.5" font-family="Helvetica,sans-Serif" font-size="10.00">Ogre::WireAabb</text>
</a>
</g>
</g>
<!-- Node1&#45;&gt;Node26 -->
<g id="edge25" class="edge">
<title>Node1&#45;&gt;Node26</title>
<path fill="none" stroke="midnightblue" d="M49.01,-264.3C50.73,-216.79 62.03,-92.84 131.49,-27.5 138.9,-20.53 148.64,-16.17 158.49,-13.46"/>
<polygon fill="midnightblue" stroke="midnightblue" points="45.5,-264.33 48.75,-274.42 52.5,-264.51 45.5,-264.33"/>
</g>
<!-- Node3 -->
<g id="node3" class="node">
<title>Node3</title>
<g id="a_node3"><a xlink:href="class_ogre_1_1_camera.html" target="_top" xlink:title="A viewpoint from which the scene will be rendered.">
<polygon fill="none" stroke="black" points="339.97,-548.5 339.97,-566.5 419.32,-566.5 419.32,-548.5 339.97,-548.5"/>
<text text-anchor="middle" x="379.64" y="-554.5" font-family="Helvetica,sans-Serif" font-size="10.00">Ogre::Camera</text>
</a>
</g>
</g>
<!-- Node2&#45;&gt;Node3 -->
<g id="edge2" class="edge">
<title>Node2&#45;&gt;Node3</title>
<path fill="none" stroke="midnightblue" d="M253.06,-557.5C280.54,-557.5 314.23,-557.5 339.79,-557.5"/>
<polygon fill="midnightblue" stroke="midnightblue" points="252.87,-554 242.87,-557.5 252.87,-561 252.87,-554"/>
</g>
<!-- Node4 -->
<g id="node4" class="node">
<title>Node4</title>
<g id="a_node4"><a xlink:href="class_ogre_1_1_octree_camera.html" target="_top" xlink:title="Specialized viewpoint from which an Octree can be rendered.">
<polygon fill="none" stroke="black" points="509.25,-566.5 509.25,-584.5 618.61,-584.5 618.61,-566.5 509.25,-566.5"/>
<text text-anchor="middle" x="563.93" y="-572.5" font-family="Helvetica,sans-Serif" font-size="10.00">Ogre::OctreeCamera</text>
</a>
</g>
</g>
<!-- Node3&#45;&gt;Node4 -->
<g id="edge3" class="edge">
<title>Node3&#45;&gt;Node4</title>
<path fill="none" stroke="midnightblue" d="M429.89,-562.36C454.35,-564.78 483.95,-567.7 509.02,-570.18"/>
<polygon fill="midnightblue" stroke="midnightblue" points="430.04,-558.86 419.75,-561.36 429.36,-565.83 430.04,-558.86"/>
</g>
<!-- Node5 -->
<g id="node5" class="node">
<title>Node5</title>
<g id="a_node5"><a xlink:href="class_ogre_1_1_p_c_z_camera.html" target="_top" xlink:title="Specialized viewpoint from which an PCZone Scene can be rendered.">
<polygon fill="none" stroke="black" points="514.25,-529.5 514.25,-547.5 613.61,-547.5 613.61,-529.5 514.25,-529.5"/>
<text text-anchor="middle" x="563.93" y="-535.5" font-family="Helvetica,sans-Serif" font-size="10.00">Ogre::PCZCamera</text>
</a>
</g>
</g>
<!-- Node3&#45;&gt;Node5 -->
<g id="edge4" class="edge">
<title>Node3&#45;&gt;Node5</title>
<path fill="none" stroke="midnightblue" d="M429.83,-552.37C455.98,-549.65 488.03,-546.31 514.13,-543.59"/>
<polygon fill="midnightblue" stroke="midnightblue" points="429.33,-548.91 419.75,-553.42 430.06,-555.87 429.33,-548.91"/>
</g>
<!-- Node9 -->
<g id="node9" class="node">
<title>Node9</title>
<g id="a_node9"><a xlink:href="class_ogre_1_1_sub_item.html" target="_top" xlink:title="Utility class which defines the sub&#45;parts of an Item.">
<polygon fill="none" stroke="black" points="339.13,-427.5 339.13,-445.5 420.16,-445.5 420.16,-427.5 339.13,-427.5"/>
<text text-anchor="middle" x="379.64" y="-433.5" font-family="Helvetica,sans-Serif" font-size="10.00">Ogre::SubItem</text>
</a>
</g>
</g>
<!-- Node8&#45;&gt;Node9 -->
<g id="edge8" class="edge">
<title>Node8&#45;&gt;Node9</title>
<path fill="none" stroke="midnightblue" d="M281.53,-436.5C301.45,-436.5 322.03,-436.5 339.09,-436.5"/>
<polygon fill="midnightblue" stroke="midnightblue" points="281.52,-433 271.52,-436.5 281.52,-440 281.52,-433"/>
</g>
<!-- Node11 -->
<g id="node11" class="node">
<title>Node11</title>
<g id="a_node11"><a xlink:href="class_ogre_1_1v1_1_1_ribbon_trail.html" target="_top" xlink:title="Subclass of BillboardChain which automatically leaves a trail behind one or more Node instances.">
<polygon fill="none" stroke="black" points="324.31,-390.5 324.31,-408.5 434.98,-408.5 434.98,-390.5 324.31,-390.5"/>
<text text-anchor="middle" x="379.64" y="-396.5" font-family="Helvetica,sans-Serif" font-size="10.00">Ogre::v1::RibbonTrail</text>
</a>
</g>
</g>
<!-- Node10&#45;&gt;Node11 -->
<g id="edge10" class="edge">
<title>Node10&#45;&gt;Node11</title>
<path fill="none" stroke="midnightblue" d="M275.34,-399.5C291.65,-399.5 308.72,-399.5 324.18,-399.5"/>
<polygon fill="midnightblue" stroke="midnightblue" points="275.3,-396 265.3,-399.5 275.3,-403 275.3,-396"/>
</g>
<!-- Node16 -->
<g id="node16" class="node">
<title>Node16</title>
<g id="a_node16"><a xlink:href="class_ogre_1_1v1_1_1_overlay_container.html" target="_top" xlink:title="A 2D element which contains other OverlayElement instances.">
<polygon fill="none" stroke="black" points="310.78,-258.5 310.78,-276.5 448.5,-276.5 448.5,-258.5 310.78,-258.5"/>
<text text-anchor="middle" x="379.64" y="-264.5" font-family="Helvetica,sans-Serif" font-size="10.00">Ogre::v1::OverlayContainer</text>
</a>
</g>
</g>
<!-- Node15&#45;&gt;Node16 -->
<g id="edge15" class="edge">
<title>Node15&#45;&gt;Node16</title>
<path fill="none" stroke="midnightblue" d="M274.24,-251.99C288.75,-254.15 303.9,-256.4 318.01,-258.5"/>
<polygon fill="midnightblue" stroke="midnightblue" points="274.72,-248.53 264.32,-250.52 273.7,-255.45 274.72,-248.53"/>
</g>
<!-- Node19 -->
<g id="node19" class="node">
<title>Node19</title>
<g id="a_node19"><a xlink:href="class_ogre_1_1v1_1_1_text_area_overlay_element.html" target="_top" xlink:title="This class implements an overlay element which contains simple unformatted text.">
<polygon fill="none" stroke="black" points="312.73,-211.5 312.73,-239.5 446.56,-239.5 446.56,-211.5 312.73,-211.5"/>
<text text-anchor="start" x="320.73" y="-227.5" font-family="Helvetica,sans-Serif" font-size="10.00">Ogre::v1::TextAreaOverlay</text>
<text text-anchor="middle" x="379.64" y="-217.5" font-family="Helvetica,sans-Serif" font-size="10.00">Element</text>
</a>
</g>
</g>
<!-- Node15&#45;&gt;Node19 -->
<g id="edge18" class="edge">
<title>Node15&#45;&gt;Node19</title>
<path fill="none" stroke="midnightblue" d="M278.53,-234.65C289.81,-233.62 301.38,-232.56 312.46,-231.55"/>
<polygon fill="midnightblue" stroke="midnightblue" points="277.91,-231.19 268.27,-235.59 278.55,-238.16 277.91,-231.19"/>
</g>
<!-- Node17 -->
<g id="node17" class="node">
<title>Node17</title>
<g id="a_node17"><a xlink:href="class_ogre_1_1v1_1_1_panel_overlay_element.html" target="_top" xlink:title="OverlayElement representing a flat, single&#45;material (or transparent) panel which can contain other el...">
<polygon fill="none" stroke="black" points="485.62,-258.5 485.62,-276.5 642.24,-276.5 642.24,-258.5 485.62,-258.5"/>
<text text-anchor="middle" x="563.93" y="-264.5" font-family="Helvetica,sans-Serif" font-size="10.00">Ogre::v1::PanelOverlayElement</text>
</a>
</g>
</g>
<!-- Node16&#45;&gt;Node17 -->
<g id="edge16" class="edge">
<title>Node16&#45;&gt;Node17</title>
<path fill="none" stroke="midnightblue" d="M458.8,-267.5C467.64,-267.5 476.65,-267.5 485.48,-267.5"/>
<polygon fill="midnightblue" stroke="midnightblue" points="458.52,-264 448.52,-267.5 458.52,-271 458.52,-264"/>
</g>
<!-- Node18 -->
<g id="node18" class="node">
<title>Node18</title>
<g id="a_node18"><a xlink:href="class_ogre_1_1v1_1_1_border_panel_overlay_element.html" target="_top" xlink:title="A specialisation of the PanelOverlayElement to provide a panel with a border.">
<polygon fill="none" stroke="black" points="678.24,-253.5 678.24,-281.5 828.19,-281.5 828.19,-253.5 678.24,-253.5"/>
<text text-anchor="start" x="686.24" y="-269.5" font-family="Helvetica,sans-Serif" font-size="10.00">Ogre::v1::BorderPanelOverlay</text>
<text text-anchor="middle" x="753.21" y="-259.5" font-family="Helvetica,sans-Serif" font-size="10.00">Element</text>
</a>
</g>
</g>
<!-- Node17&#45;&gt;Node18 -->
<g id="edge17" class="edge">
<title>Node17&#45;&gt;Node18</title>
<path fill="none" stroke="midnightblue" d="M652.46,-267.5C661.02,-267.5 669.65,-267.5 678.06,-267.5"/>
<polygon fill="midnightblue" stroke="midnightblue" points="652.46,-264 642.46,-267.5 652.46,-271 652.46,-264"/>
</g>
<!-- Node22 -->
<g id="node22" class="node">
<title>Node22</title>
<g id="a_node22"><a xlink:href="class_ogre_1_1v1_1_1_wire_bounding_box.html" target="_top" xlink:title="Allows the rendering of a wireframe bounding box.">
<polygon fill="none" stroke="black" points="309.67,-158.5 309.67,-176.5 449.62,-176.5 449.62,-158.5 309.67,-158.5"/>
<text text-anchor="middle" x="379.64" y="-164.5" font-family="Helvetica,sans-Serif" font-size="10.00">Ogre::v1::WireBoundingBox</text>
</a>
</g>
</g>
<!-- Node21&#45;&gt;Node22 -->
<g id="edge21" class="edge">
<title>Node21&#45;&gt;Node22</title>
<path fill="none" stroke="midnightblue" d="M283.81,-167.5C292.42,-167.5 301.11,-167.5 309.57,-167.5"/>
<polygon fill="midnightblue" stroke="midnightblue" points="283.78,-164 273.78,-167.5 283.78,-171 283.78,-164"/>
</g>
</g>
</svg>
