<?xml version="1.0" encoding="UTF-8" standalone="no"?>
<!DOCTYPE svg PUBLIC "-//W3C//DTD SVG 1.1//EN"
 "http://www.w3.org/Graphics/SVG/1.1/DTD/svg11.dtd">
<!-- Generated by graphviz version 2.43.0 (0)
 -->
<!-- Title: Ogre::Page Pages: 1 -->
<svg width="392pt" height="92pt"
 viewBox="0.00 0.00 392.40 92.00" xmlns="http://www.w3.org/2000/svg" xmlns:xlink="http://www.w3.org/1999/xlink">
<g id="graph0" class="graph" transform="scale(1 1) rotate(0) translate(4 88)">
<title>Ogre::Page</title>
<!-- Node1 -->
<g id="node1" class="node">
<title>Node1</title>
<g id="a_node1"><a xlink:title="Page class.">
<polygon fill="#bfbfbf" stroke="black" points="198.31,-0.5 198.31,-18.5 265.46,-18.5 265.46,-0.5 198.31,-0.5"/>
<text text-anchor="middle" x="231.88" y="-6.5" font-family="Helvetica,sans-Serif" font-size="10.00">Ogre::Page</text>
</a>
</g>
</g>
<!-- Node2 -->
<g id="node2" class="node">
<title>Node2</title>
<g id="a_node2"><a xlink:href="class_ogre_1_1_work_queue_1_1_request_handler.html" target="_top" xlink:title="Interface definition for a handler of requests.">
<polygon fill="none" stroke="black" points="0,-55.5 0,-83.5 139.77,-83.5 139.77,-55.5 0,-55.5"/>
<text text-anchor="start" x="8" y="-71.5" font-family="Helvetica,sans-Serif" font-size="10.00">Ogre::WorkQueue::Request</text>
<text text-anchor="middle" x="69.88" y="-61.5" font-family="Helvetica,sans-Serif" font-size="10.00">Handler</text>
</a>
</g>
</g>
<!-- Node2&#45;&gt;Node1 -->
<g id="edge1" class="edge">
<title>Node2&#45;&gt;Node1</title>
<path fill="none" stroke="midnightblue" d="M115.82,-52.05C146.32,-41.13 185.04,-27.27 209.14,-18.64"/>
<polygon fill="midnightblue" stroke="midnightblue" points="114.48,-48.82 106.24,-55.48 116.84,-55.41 114.48,-48.82"/>
</g>
<!-- Node3 -->
<g id="node3" class="node">
<title>Node3</title>
<g id="a_node3"><a xlink:href="class_ogre_1_1_work_queue_1_1_response_handler.html" target="_top" xlink:title="Interface definition for a handler of responses.">
<polygon fill="none" stroke="black" points="158.11,-55.5 158.11,-83.5 305.66,-83.5 305.66,-55.5 158.11,-55.5"/>
<text text-anchor="start" x="166.11" y="-71.5" font-family="Helvetica,sans-Serif" font-size="10.00">Ogre::WorkQueue::Response</text>
<text text-anchor="middle" x="231.88" y="-61.5" font-family="Helvetica,sans-Serif" font-size="10.00">Handler</text>
</a>
</g>
</g>
<!-- Node3&#45;&gt;Node1 -->
<g id="edge2" class="edge">
<title>Node3&#45;&gt;Node1</title>
<path fill="none" stroke="midnightblue" d="M231.88,-45.32C231.88,-35.94 231.88,-25.7 231.88,-18.77"/>
<polygon fill="midnightblue" stroke="midnightblue" points="228.38,-45.34 231.88,-55.34 235.38,-45.34 228.38,-45.34"/>
</g>
<!-- Node4 -->
<g id="node4" class="node">
<title>Node4</title>
<g id="a_node4"><a xlink:href="class_ogre_1_1_allocated_object.html" target="_top" xlink:title="Superclass for all objects that wish to use custom memory allocators when their new / delete operator...">
<polygon fill="none" stroke="black" points="323.37,-60.5 323.37,-78.5 384.4,-78.5 384.4,-60.5 323.37,-60.5"/>
<text text-anchor="middle" x="353.88" y="-66.5" font-family="Helvetica,sans-Serif" font-size="10.00">PageAlloc</text>
</a>
</g>
</g>
<!-- Node4&#45;&gt;Node1 -->
<g id="edge3" class="edge">
<title>Node4&#45;&gt;Node1</title>
<path fill="none" stroke="midnightblue" d="M327.77,-56.08C304,-44.78 269.58,-28.42 249.1,-18.68"/>
<polygon fill="midnightblue" stroke="midnightblue" points="326.39,-59.3 336.92,-60.44 329.39,-52.98 326.39,-59.3"/>
</g>
</g>
</svg>
