<?xml version="1.0" encoding="UTF-8" standalone="no"?>
<!DOCTYPE svg PUBLIC "-//W3C//DTD SVG 1.1//EN"
 "http://www.w3.org/Graphics/SVG/1.1/DTD/svg11.dtd">
<!-- Generated by graphviz version 2.43.0 (0)
 -->
<!-- Title: Ogre::TerrainAutoUpdateLodByDistance Pages: 1 -->
<svg width="152pt" height="147pt"
 viewBox="0.00 0.00 151.86 147.00" xmlns="http://www.w3.org/2000/svg" xmlns:xlink="http://www.w3.org/1999/xlink">
<g id="graph0" class="graph" transform="scale(1 1) rotate(0) translate(4 143)">
<title>Ogre::TerrainAutoUpdateLodByDistance</title>
<!-- Node1 -->
<g id="node1" class="node">
<title>Node1</title>
<g id="a_node1"><a xlink:title="Class implementing TerrainAutoUpdateLod interface.">
<polygon fill="#bfbfbf" stroke="black" points="0,-0.5 0,-28.5 143.86,-28.5 143.86,-0.5 0,-0.5"/>
<text text-anchor="start" x="8" y="-16.5" font-family="Helvetica,sans-Serif" font-size="10.00">Ogre::TerrainAutoUpdateLod</text>
<text text-anchor="middle" x="71.93" y="-6.5" font-family="Helvetica,sans-Serif" font-size="10.00">ByDistance</text>
</a>
</g>
</g>
<!-- Node2 -->
<g id="node2" class="node">
<title>Node2</title>
<g id="a_node2"><a xlink:href="class_ogre_1_1_terrain_auto_update_lod.html" target="_top" xlink:title="Terrain automatic LOD loading.">
<polygon fill="none" stroke="black" points="0,-65.5 0,-83.5 143.86,-83.5 143.86,-65.5 0,-65.5"/>
<text text-anchor="middle" x="71.93" y="-71.5" font-family="Helvetica,sans-Serif" font-size="10.00">Ogre::TerrainAutoUpdateLod</text>
</a>
</g>
</g>
<!-- Node2&#45;&gt;Node1 -->
<g id="edge1" class="edge">
<title>Node2&#45;&gt;Node1</title>
<path fill="none" stroke="midnightblue" d="M71.93,-55.32C71.93,-46.75 71.93,-36.7 71.93,-28.84"/>
<polygon fill="midnightblue" stroke="midnightblue" points="68.43,-55.44 71.93,-65.44 75.43,-55.44 68.43,-55.44"/>
</g>
<!-- Node3 -->
<g id="node3" class="node">
<title>Node3</title>
<g id="a_node3"><a xlink:href="class_ogre_1_1_allocated_object.html" target="_top" xlink:title="Superclass for all objects that wish to use custom memory allocators when their new / delete operator...">
<polygon fill="none" stroke="black" points="37.81,-120.5 37.81,-138.5 106.05,-138.5 106.05,-120.5 37.81,-120.5"/>
<text text-anchor="middle" x="71.93" y="-126.5" font-family="Helvetica,sans-Serif" font-size="10.00">TerrainAlloc</text>
</a>
</g>
</g>
<!-- Node3&#45;&gt;Node2 -->
<g id="edge2" class="edge">
<title>Node3&#45;&gt;Node2</title>
<path fill="none" stroke="midnightblue" d="M71.93,-110.17C71.93,-101.09 71.93,-90.59 71.93,-83.55"/>
<polygon fill="midnightblue" stroke="midnightblue" points="68.43,-110.22 71.93,-120.22 75.43,-110.22 68.43,-110.22"/>
</g>
</g>
</svg>
