<?xml version="1.0" encoding="UTF-8" standalone="no"?>
<!DOCTYPE svg PUBLIC "-//W3C//DTD SVG 1.1//EN"
 "http://www.w3.org/Graphics/SVG/1.1/DTD/svg11.dtd">
<!-- Generated by graphviz version 2.43.0 (0)
 -->
<!-- Title: Ogre::TextureGpu Pages: 1 -->
<svg width="975pt" height="178pt"
 viewBox="0.00 0.00 975.07 178.00" xmlns="http://www.w3.org/2000/svg" xmlns:xlink="http://www.w3.org/1999/xlink">
<g id="graph0" class="graph" transform="scale(1 1) rotate(0) translate(4 174)">
<title>Ogre::TextureGpu</title>
<!-- Node1 -->
<g id="node1" class="node">
<title>Node1</title>
<g id="a_node1"><a xlink:title=" ">
<polygon fill="#bfbfbf" stroke="black" points="293.72,-75.5 293.72,-93.5 389.2,-93.5 389.2,-75.5 293.72,-75.5"/>
<text text-anchor="middle" x="341.46" y="-81.5" font-family="Helvetica,sans-Serif" font-size="10.00">Ogre::TextureGpu</text>
</a>
</g>
</g>
<!-- Node5 -->
<g id="node5" class="node">
<title>Node5</title>
<g id="a_node5"><a xlink:href="class_ogre_1_1_d3_d11_texture_gpu.html" target="_top" xlink:title=" ">
<polygon fill="none" stroke="black" points="429.18,-139.5 429.18,-157.5 555.05,-157.5 555.05,-139.5 429.18,-139.5"/>
<text text-anchor="middle" x="492.12" y="-145.5" font-family="Helvetica,sans-Serif" font-size="10.00">Ogre::D3D11TextureGpu</text>
</a>
</g>
</g>
<!-- Node1&#45;&gt;Node5 -->
<g id="edge4" class="edge">
<title>Node1&#45;&gt;Node5</title>
<path fill="none" stroke="midnightblue" d="M369.28,-98.32C385.32,-106.37 406.21,-116.48 425.2,-124.5 437.88,-129.86 452.21,-135.16 464.26,-139.41"/>
<polygon fill="midnightblue" stroke="midnightblue" points="370.48,-95 359.97,-93.61 367.32,-101.25 370.48,-95"/>
</g>
<!-- Node8 -->
<g id="node8" class="node">
<title>Node8</title>
<g id="a_node8"><a xlink:href="class_ogre_1_1_g_l3_plus_texture_gpu.html" target="_top" xlink:title=" ">
<polygon fill="none" stroke="black" points="425.2,-96.5 425.2,-114.5 559.04,-114.5 559.04,-96.5 425.2,-96.5"/>
<text text-anchor="middle" x="492.12" y="-102.5" font-family="Helvetica,sans-Serif" font-size="10.00">Ogre::GL3PlusTextureGpu</text>
</a>
</g>
</g>
<!-- Node1&#45;&gt;Node8 -->
<g id="edge7" class="edge">
<title>Node1&#45;&gt;Node8</title>
<path fill="none" stroke="midnightblue" d="M399.55,-92.56C408.62,-93.85 418.05,-95.18 427.26,-96.48"/>
<polygon fill="midnightblue" stroke="midnightblue" points="399.89,-89.08 389.49,-91.14 398.91,-96.01 399.89,-89.08"/>
</g>
<!-- Node11 -->
<g id="node11" class="node">
<title>Node11</title>
<g id="a_node11"><a xlink:href="class_ogre_1_1_metal_texture_gpu.html" target="_top" xlink:title=" ">
<polygon fill="none" stroke="black" points="432.15,-57.5 432.15,-75.5 552.09,-75.5 552.09,-57.5 432.15,-57.5"/>
<text text-anchor="middle" x="492.12" y="-63.5" font-family="Helvetica,sans-Serif" font-size="10.00">Ogre::MetalTextureGpu</text>
</a>
</g>
</g>
<!-- Node1&#45;&gt;Node11 -->
<g id="edge10" class="edge">
<title>Node1&#45;&gt;Node11</title>
<path fill="none" stroke="midnightblue" d="M399.54,-77.59C410.2,-76.3 421.37,-74.94 432.1,-73.65"/>
<polygon fill="midnightblue" stroke="midnightblue" points="399,-74.13 389.49,-78.8 399.84,-81.08 399,-74.13"/>
</g>
<!-- Node14 -->
<g id="node14" class="node">
<title>Node14</title>
<g id="a_node14"><a xlink:href="class_ogre_1_1_n_u_l_l_texture_gpu.html" target="_top" xlink:title=" ">
<polygon fill="none" stroke="black" points="431.96,-15.5 431.96,-33.5 552.27,-33.5 552.27,-15.5 431.96,-15.5"/>
<text text-anchor="middle" x="492.12" y="-21.5" font-family="Helvetica,sans-Serif" font-size="10.00">Ogre::NULLTextureGpu</text>
</a>
</g>
</g>
<!-- Node1&#45;&gt;Node14 -->
<g id="edge13" class="edge">
<title>Node1&#45;&gt;Node14</title>
<path fill="none" stroke="midnightblue" d="M370.9,-71.06C386.75,-63.76 406.91,-54.76 425.2,-47.5 437.59,-42.58 451.5,-37.64 463.34,-33.61"/>
<polygon fill="midnightblue" stroke="midnightblue" points="369.25,-67.97 361.65,-75.36 372.2,-74.32 369.25,-67.97"/>
</g>
<!-- Node2 -->
<g id="node2" class="node">
<title>Node2</title>
<g id="a_node2"><a xlink:href="struct_ogre_1_1_gpu_tracked_resource.html" target="_top" xlink:title=" ">
<polygon fill="none" stroke="black" points="116.47,-94.5 116.47,-112.5 257.72,-112.5 257.72,-94.5 116.47,-94.5"/>
<text text-anchor="middle" x="187.09" y="-100.5" font-family="Helvetica,sans-Serif" font-size="10.00">Ogre::GpuTrackedResource</text>
</a>
</g>
</g>
<!-- Node2&#45;&gt;Node1 -->
<g id="edge1" class="edge">
<title>Node2&#45;&gt;Node1</title>
<path fill="none" stroke="midnightblue" d="M268.22,-93.51C276.9,-92.43 285.5,-91.35 293.59,-90.34"/>
<polygon fill="midnightblue" stroke="midnightblue" points="267.52,-90.07 258.03,-94.78 268.39,-97.01 267.52,-90.07"/>
</g>
<!-- Node3 -->
<g id="node3" class="node">
<title>Node3</title>
<g id="a_node3"><a xlink:href="class_ogre_1_1_gpu_resource.html" target="_top" xlink:title=" ">
<polygon fill="none" stroke="black" points="134.35,-57.5 134.35,-75.5 239.84,-75.5 239.84,-57.5 134.35,-57.5"/>
<text text-anchor="middle" x="187.09" y="-63.5" font-family="Helvetica,sans-Serif" font-size="10.00">Ogre::GpuResource</text>
</a>
</g>
</g>
<!-- Node3&#45;&gt;Node1 -->
<g id="edge2" class="edge">
<title>Node3&#45;&gt;Node1</title>
<path fill="none" stroke="midnightblue" d="M250.44,-73.87C264.84,-75.57 279.92,-77.35 293.54,-78.96"/>
<polygon fill="midnightblue" stroke="midnightblue" points="250.44,-70.34 240.1,-72.64 249.62,-77.29 250.44,-70.34"/>
</g>
<!-- Node4 -->
<g id="node4" class="node">
<title>Node4</title>
<g id="a_node4"><a xlink:href="class_ogre_1_1_allocated_object.html" target="_top" xlink:title="Superclass for all objects that wish to use custom memory allocators when their new / delete operator...">
<polygon fill="none" stroke="black" points="0,-57.5 0,-75.5 80.47,-75.5 80.47,-57.5 0,-57.5"/>
<text text-anchor="middle" x="40.24" y="-63.5" font-family="Helvetica,sans-Serif" font-size="10.00">ResourceAlloc</text>
</a>
</g>
</g>
<!-- Node4&#45;&gt;Node3 -->
<g id="edge3" class="edge">
<title>Node4&#45;&gt;Node3</title>
<path fill="none" stroke="midnightblue" d="M91.19,-66.5C105.13,-66.5 120.29,-66.5 134.32,-66.5"/>
<polygon fill="midnightblue" stroke="midnightblue" points="90.82,-63 80.82,-66.5 90.82,-70 90.82,-63"/>
</g>
<!-- Node6 -->
<g id="node6" class="node">
<title>Node6</title>
<g id="a_node6"><a xlink:href="class_ogre_1_1_d3_d11_texture_gpu_render_target.html" target="_top" xlink:title=" ">
<polygon fill="none" stroke="black" points="599.02,-141.5 599.02,-169.5 757.69,-169.5 757.69,-141.5 599.02,-141.5"/>
<text text-anchor="start" x="607.02" y="-157.5" font-family="Helvetica,sans-Serif" font-size="10.00">Ogre::D3D11TextureGpuRender</text>
<text text-anchor="middle" x="678.35" y="-147.5" font-family="Helvetica,sans-Serif" font-size="10.00">Target</text>
</a>
</g>
</g>
<!-- Node5&#45;&gt;Node6 -->
<g id="edge5" class="edge">
<title>Node5&#45;&gt;Node6</title>
<path fill="none" stroke="midnightblue" d="M565.23,-151.24C576.26,-151.66 587.68,-152.09 598.84,-152.52"/>
<polygon fill="midnightblue" stroke="midnightblue" points="565.36,-147.74 555.23,-150.86 565.09,-154.74 565.36,-147.74"/>
</g>
<!-- Node7 -->
<g id="node7" class="node">
<title>Node7</title>
<g id="a_node7"><a xlink:href="class_ogre_1_1_d3_d11_texture_gpu_window.html" target="_top" xlink:title=" ">
<polygon fill="none" stroke="black" points="801.65,-146.5 801.65,-164.5 963.09,-164.5 963.09,-146.5 801.65,-146.5"/>
<text text-anchor="middle" x="882.37" y="-152.5" font-family="Helvetica,sans-Serif" font-size="10.00">Ogre::D3D11TextureGpuWindow</text>
</a>
</g>
</g>
<!-- Node6&#45;&gt;Node7 -->
<g id="edge6" class="edge">
<title>Node6&#45;&gt;Node7</title>
<path fill="none" stroke="midnightblue" d="M767.9,-155.5C779.03,-155.5 790.37,-155.5 801.36,-155.5"/>
<polygon fill="midnightblue" stroke="midnightblue" points="767.75,-152 757.75,-155.5 767.75,-159 767.75,-152"/>
</g>
<!-- Node9 -->
<g id="node9" class="node">
<title>Node9</title>
<g id="a_node9"><a xlink:href="class_ogre_1_1_g_l3_plus_texture_gpu_render_target.html" target="_top" xlink:title=" ">
<polygon fill="none" stroke="black" points="595.04,-94.5 595.04,-122.5 761.67,-122.5 761.67,-94.5 595.04,-94.5"/>
<text text-anchor="start" x="603.04" y="-110.5" font-family="Helvetica,sans-Serif" font-size="10.00">Ogre::GL3PlusTextureGpuRender</text>
<text text-anchor="middle" x="678.35" y="-100.5" font-family="Helvetica,sans-Serif" font-size="10.00">Target</text>
</a>
</g>
</g>
<!-- Node8&#45;&gt;Node9 -->
<g id="edge8" class="edge">
<title>Node8&#45;&gt;Node9</title>
<path fill="none" stroke="midnightblue" d="M569.27,-106.74C577.69,-106.88 586.29,-107.02 594.78,-107.16"/>
<polygon fill="midnightblue" stroke="midnightblue" points="569.17,-103.24 559.11,-106.57 569.05,-110.24 569.17,-103.24"/>
</g>
<!-- Node10 -->
<g id="node10" class="node">
<title>Node10</title>
<g id="a_node10"><a xlink:href="class_ogre_1_1_g_l3_plus_texture_gpu_window.html" target="_top" xlink:title=" ">
<polygon fill="none" stroke="black" points="797.67,-99.5 797.67,-117.5 967.07,-117.5 967.07,-99.5 797.67,-99.5"/>
<text text-anchor="middle" x="882.37" y="-105.5" font-family="Helvetica,sans-Serif" font-size="10.00">Ogre::GL3PlusTextureGpuWindow</text>
</a>
</g>
</g>
<!-- Node9&#45;&gt;Node10 -->
<g id="edge9" class="edge">
<title>Node9&#45;&gt;Node10</title>
<path fill="none" stroke="midnightblue" d="M771.82,-108.5C780.4,-108.5 789.05,-108.5 797.54,-108.5"/>
<polygon fill="midnightblue" stroke="midnightblue" points="771.81,-105 761.81,-108.5 771.81,-112 771.81,-105"/>
</g>
<!-- Node12 -->
<g id="node12" class="node">
<title>Node12</title>
<g id="a_node12"><a xlink:href="class_ogre_1_1_metal_texture_gpu_render_target.html" target="_top" xlink:title=" ">
<polygon fill="none" stroke="black" points="601.99,-47.5 601.99,-75.5 754.72,-75.5 754.72,-47.5 601.99,-47.5"/>
<text text-anchor="start" x="609.99" y="-63.5" font-family="Helvetica,sans-Serif" font-size="10.00">Ogre::MetalTextureGpuRender</text>
<text text-anchor="middle" x="678.35" y="-53.5" font-family="Helvetica,sans-Serif" font-size="10.00">Target</text>
</a>
</g>
</g>
<!-- Node11&#45;&gt;Node12 -->
<g id="edge11" class="edge">
<title>Node11&#45;&gt;Node12</title>
<path fill="none" stroke="midnightblue" d="M562.34,-64.62C575.22,-64.27 588.73,-63.91 601.79,-63.55"/>
<polygon fill="midnightblue" stroke="midnightblue" points="562.07,-61.13 552.17,-64.9 562.26,-68.12 562.07,-61.13"/>
</g>
<!-- Node13 -->
<g id="node13" class="node">
<title>Node13</title>
<g id="a_node13"><a xlink:href="class_ogre_1_1_metal_texture_gpu_window.html" target="_top" xlink:title=" ">
<polygon fill="none" stroke="black" points="804.62,-52.5 804.62,-70.5 960.12,-70.5 960.12,-52.5 804.62,-52.5"/>
<text text-anchor="middle" x="882.37" y="-58.5" font-family="Helvetica,sans-Serif" font-size="10.00">Ogre::MetalTextureGpuWindow</text>
</a>
</g>
</g>
<!-- Node12&#45;&gt;Node13 -->
<g id="edge12" class="edge">
<title>Node12&#45;&gt;Node13</title>
<path fill="none" stroke="midnightblue" d="M764.87,-61.5C778.06,-61.5 791.62,-61.5 804.61,-61.5"/>
<polygon fill="midnightblue" stroke="midnightblue" points="764.87,-58 754.87,-61.5 764.87,-65 764.87,-58"/>
</g>
<!-- Node15 -->
<g id="node15" class="node">
<title>Node15</title>
<g id="a_node15"><a xlink:href="class_ogre_1_1_n_u_l_l_texture_gpu_render_target.html" target="_top" xlink:title=" ">
<polygon fill="none" stroke="black" points="601.8,-0.5 601.8,-28.5 754.91,-28.5 754.91,-0.5 601.8,-0.5"/>
<text text-anchor="start" x="609.8" y="-16.5" font-family="Helvetica,sans-Serif" font-size="10.00">Ogre::NULLTextureGpuRender</text>
<text text-anchor="middle" x="678.35" y="-6.5" font-family="Helvetica,sans-Serif" font-size="10.00">Target</text>
</a>
</g>
</g>
<!-- Node14&#45;&gt;Node15 -->
<g id="edge14" class="edge">
<title>Node14&#45;&gt;Node15</title>
<path fill="none" stroke="midnightblue" d="M562.52,-20.73C575.29,-20.04 588.69,-19.31 601.64,-18.61"/>
<polygon fill="midnightblue" stroke="midnightblue" points="562.22,-17.24 552.43,-21.28 562.6,-24.23 562.22,-17.24"/>
</g>
</g>
</svg>
