<?xml version="1.0" encoding="UTF-8" standalone="no"?>
<!DOCTYPE svg PUBLIC "-//W3C//DTD SVG 1.1//EN"
 "http://www.w3.org/Graphics/SVG/1.1/DTD/svg11.dtd">
<!-- Generated by graphviz version 2.43.0 (0)
 -->
<!-- Title: Ogre::SceneQuery Pages: 1 -->
<svg width="980pt" height="457pt"
 viewBox="0.00 0.00 979.91 457.00" xmlns="http://www.w3.org/2000/svg" xmlns:xlink="http://www.w3.org/1999/xlink">
<g id="graph0" class="graph" transform="scale(1 1) rotate(0) translate(4 453)">
<title>Ogre::SceneQuery</title>
<!-- Node1 -->
<g id="node1" class="node">
<title>Node1</title>
<g id="a_node1"><a xlink:title="A class for performing queries on a scene.">
<polygon fill="#bfbfbf" stroke="black" points="118.7,-252.5 118.7,-270.5 218.07,-270.5 218.07,-252.5 118.7,-252.5"/>
<text text-anchor="middle" x="168.39" y="-258.5" font-family="Helvetica,sans-Serif" font-size="10.00">Ogre::SceneQuery</text>
</a>
</g>
</g>
<!-- Node3 -->
<g id="node3" class="node">
<title>Node3</title>
<g id="a_node3"><a xlink:href="class_ogre_1_1_intersection_scene_query.html" target="_top" xlink:title="Separate SceneQuery class to query for pairs of objects which are possibly intersecting one another.">
<polygon fill="none" stroke="black" points="254.07,-321.5 254.07,-339.5 405.14,-339.5 405.14,-321.5 254.07,-321.5"/>
<text text-anchor="middle" x="329.61" y="-327.5" font-family="Helvetica,sans-Serif" font-size="10.00">Ogre::IntersectionSceneQuery</text>
</a>
</g>
</g>
<!-- Node1&#45;&gt;Node3 -->
<g id="edge2" class="edge">
<title>Node1&#45;&gt;Node3</title>
<path fill="none" stroke="midnightblue" d="M199.43,-274.52C231.09,-288.24 280.13,-309.49 307.79,-321.48"/>
<polygon fill="midnightblue" stroke="midnightblue" points="200.77,-271.29 190.2,-270.52 197.99,-277.71 200.77,-271.29"/>
</g>
<!-- Node8 -->
<g id="node8" class="node">
<title>Node8</title>
<g id="a_node8"><a xlink:href="class_ogre_1_1_ray_scene_query.html" target="_top" xlink:title="Specialises the SceneQuery class for querying along a ray.">
<polygon fill="none" stroke="black" points="271.03,-252.5 271.03,-270.5 388.19,-270.5 388.19,-252.5 271.03,-252.5"/>
<text text-anchor="middle" x="329.61" y="-258.5" font-family="Helvetica,sans-Serif" font-size="10.00">Ogre::RaySceneQuery</text>
</a>
</g>
</g>
<!-- Node1&#45;&gt;Node8 -->
<g id="edge7" class="edge">
<title>Node1&#45;&gt;Node8</title>
<path fill="none" stroke="midnightblue" d="M228.76,-261.5C242.5,-261.5 257.09,-261.5 270.76,-261.5"/>
<polygon fill="midnightblue" stroke="midnightblue" points="228.46,-258 218.46,-261.5 228.46,-265 228.46,-258"/>
</g>
<!-- Node13 -->
<g id="node13" class="node">
<title>Node13</title>
<g id="a_node13"><a xlink:href="class_ogre_1_1_region_scene_query.html" target="_top" xlink:title="Abstract class defining a query which returns single results from a region.">
<polygon fill="none" stroke="black" points="264.08,-150.5 264.08,-168.5 395.14,-168.5 395.14,-150.5 264.08,-150.5"/>
<text text-anchor="middle" x="329.61" y="-156.5" font-family="Helvetica,sans-Serif" font-size="10.00">Ogre::RegionSceneQuery</text>
</a>
</g>
</g>
<!-- Node1&#45;&gt;Node13 -->
<g id="edge12" class="edge">
<title>Node1&#45;&gt;Node13</title>
<path fill="none" stroke="midnightblue" d="M192.13,-246.93C225.44,-225.59 286.57,-186.43 314.28,-168.68"/>
<polygon fill="midnightblue" stroke="midnightblue" points="190.05,-244.11 183.52,-252.45 193.82,-250 190.05,-244.11"/>
</g>
<!-- Node2 -->
<g id="node2" class="node">
<title>Node2</title>
<g id="a_node2"><a xlink:href="class_ogre_1_1_allocated_object.html" target="_top" xlink:title="Superclass for all objects that wish to use custom memory allocators when their new / delete operator...">
<polygon fill="none" stroke="black" points="0,-252.5 0,-270.5 82.7,-270.5 82.7,-252.5 0,-252.5"/>
<text text-anchor="middle" x="41.35" y="-258.5" font-family="Helvetica,sans-Serif" font-size="10.00">SceneMgtAlloc</text>
</a>
</g>
</g>
<!-- Node2&#45;&gt;Node1 -->
<g id="edge1" class="edge">
<title>Node2&#45;&gt;Node1</title>
<path fill="none" stroke="midnightblue" d="M92.95,-261.5C101.3,-261.5 109.95,-261.5 118.26,-261.5"/>
<polygon fill="midnightblue" stroke="midnightblue" points="92.95,-258 82.95,-261.5 92.95,-265 92.95,-258"/>
</g>
<!-- Node4 -->
<g id="node4" class="node">
<title>Node4</title>
<g id="a_node4"><a xlink:href="class_ogre_1_1_default_intersection_scene_query.html" target="_top" xlink:title="Default implementation of IntersectionSceneQuery.">
<polygon fill="none" stroke="black" points="451.98,-349.5 451.98,-377.5 579.15,-377.5 579.15,-349.5 451.98,-349.5"/>
<text text-anchor="start" x="459.98" y="-365.5" font-family="Helvetica,sans-Serif" font-size="10.00">Ogre::DefaultIntersection</text>
<text text-anchor="middle" x="515.56" y="-355.5" font-family="Helvetica,sans-Serif" font-size="10.00">SceneQuery</text>
</a>
</g>
</g>
<!-- Node3&#45;&gt;Node4 -->
<g id="edge3" class="edge">
<title>Node3&#45;&gt;Node4</title>
<path fill="none" stroke="midnightblue" d="M390.88,-341.31C410.42,-344.82 432.15,-348.72 451.87,-352.25"/>
<polygon fill="midnightblue" stroke="midnightblue" points="391.33,-337.84 380.87,-339.52 390.1,-344.73 391.33,-337.84"/>
</g>
<!-- Node5 -->
<g id="node5" class="node">
<title>Node5</title>
<g id="a_node5"><a xlink:href="class_ogre_1_1_bsp_intersection_scene_query.html" target="_top" xlink:title="BSP specialisation of IntersectionSceneQuery.">
<polygon fill="none" stroke="black" points="629.03,-420.5 629.03,-448.5 770.1,-448.5 770.1,-420.5 629.03,-420.5"/>
<text text-anchor="start" x="637.03" y="-436.5" font-family="Helvetica,sans-Serif" font-size="10.00">Ogre::BspIntersectionScene</text>
<text text-anchor="middle" x="699.57" y="-426.5" font-family="Helvetica,sans-Serif" font-size="10.00">Query</text>
</a>
</g>
</g>
<!-- Node4&#45;&gt;Node5 -->
<g id="edge4" class="edge">
<title>Node4&#45;&gt;Node5</title>
<path fill="none" stroke="midnightblue" d="M555.51,-381.79C576.22,-391.21 602.25,-402.56 625.98,-411.5 634.15,-414.57 642.93,-417.59 651.46,-420.38"/>
<polygon fill="midnightblue" stroke="midnightblue" points="556.94,-378.6 546.4,-377.62 554.03,-384.96 556.94,-378.6"/>
</g>
<!-- Node6 -->
<g id="node6" class="node">
<title>Node6</title>
<g id="a_node6"><a xlink:href="class_ogre_1_1_octree_intersection_scene_query.html" target="_top" xlink:title="Octree implementation of IntersectionSceneQuery.">
<polygon fill="none" stroke="black" points="636.82,-373.5 636.82,-401.5 762.31,-401.5 762.31,-373.5 636.82,-373.5"/>
<text text-anchor="start" x="644.82" y="-389.5" font-family="Helvetica,sans-Serif" font-size="10.00">Ogre::OctreeIntersection</text>
<text text-anchor="middle" x="699.57" y="-379.5" font-family="Helvetica,sans-Serif" font-size="10.00">SceneQuery</text>
</a>
</g>
</g>
<!-- Node4&#45;&gt;Node6 -->
<g id="edge5" class="edge">
<title>Node4&#45;&gt;Node6</title>
<path fill="none" stroke="midnightblue" d="M589.38,-373.1C605.07,-375.17 621.52,-377.34 636.74,-379.35"/>
<polygon fill="midnightblue" stroke="midnightblue" points="589.57,-369.6 579.2,-371.76 588.65,-376.54 589.57,-369.6"/>
</g>
<!-- Node7 -->
<g id="node7" class="node">
<title>Node7</title>
<g id="a_node7"><a xlink:href="class_ogre_1_1_p_c_z_intersection_scene_query.html" target="_top" xlink:title="PCZ implementation of IntersectionSceneQuery.">
<polygon fill="none" stroke="black" points="627.65,-326.5 627.65,-354.5 771.49,-354.5 771.49,-326.5 627.65,-326.5"/>
<text text-anchor="start" x="635.65" y="-342.5" font-family="Helvetica,sans-Serif" font-size="10.00">Ogre::PCZIntersectionScene</text>
<text text-anchor="middle" x="699.57" y="-332.5" font-family="Helvetica,sans-Serif" font-size="10.00">Query</text>
</a>
</g>
</g>
<!-- Node4&#45;&gt;Node7 -->
<g id="edge6" class="edge">
<title>Node4&#45;&gt;Node7</title>
<path fill="none" stroke="midnightblue" d="M589.17,-354.32C601.75,-352.73 614.83,-351.08 627.38,-349.5"/>
<polygon fill="midnightblue" stroke="midnightblue" points="588.68,-350.86 579.2,-355.58 589.56,-357.8 588.68,-350.86"/>
</g>
<!-- Node9 -->
<g id="node9" class="node">
<title>Node9</title>
<g id="a_node9"><a xlink:href="class_ogre_1_1_default_ray_scene_query.html" target="_top" xlink:title="Default implementation of RaySceneQuery.">
<polygon fill="none" stroke="black" points="441.14,-252.5 441.14,-270.5 589.98,-270.5 589.98,-252.5 441.14,-252.5"/>
<text text-anchor="middle" x="515.56" y="-258.5" font-family="Helvetica,sans-Serif" font-size="10.00">Ogre::DefaultRaySceneQuery</text>
</a>
</g>
</g>
<!-- Node8&#45;&gt;Node9 -->
<g id="edge8" class="edge">
<title>Node8&#45;&gt;Node9</title>
<path fill="none" stroke="midnightblue" d="M398.65,-261.5C412.39,-261.5 426.9,-261.5 440.83,-261.5"/>
<polygon fill="midnightblue" stroke="midnightblue" points="398.31,-258 388.31,-261.5 398.31,-265 398.31,-258"/>
</g>
<!-- Node10 -->
<g id="node10" class="node">
<title>Node10</title>
<g id="a_node10"><a xlink:href="class_ogre_1_1_bsp_ray_scene_query.html" target="_top" xlink:title="BSP specialisation of RaySceneQuery.">
<polygon fill="none" stroke="black" points="632.37,-289.5 632.37,-307.5 766.76,-307.5 766.76,-289.5 632.37,-289.5"/>
<text text-anchor="middle" x="699.57" y="-295.5" font-family="Helvetica,sans-Serif" font-size="10.00">Ogre::BspRaySceneQuery</text>
</a>
</g>
</g>
<!-- Node9&#45;&gt;Node10 -->
<g id="edge9" class="edge">
<title>Node9&#45;&gt;Node10</title>
<path fill="none" stroke="midnightblue" d="M571,-272.57C597.56,-277.97 629.11,-284.38 654.19,-289.48"/>
<polygon fill="midnightblue" stroke="midnightblue" points="571.58,-269.11 561.09,-270.55 570.19,-275.97 571.58,-269.11"/>
</g>
<!-- Node11 -->
<g id="node11" class="node">
<title>Node11</title>
<g id="a_node11"><a xlink:href="class_ogre_1_1_octree_ray_scene_query.html" target="_top" xlink:title="Octree implementation of RaySceneQuery.">
<polygon fill="none" stroke="black" points="625.98,-252.5 625.98,-270.5 773.15,-270.5 773.15,-252.5 625.98,-252.5"/>
<text text-anchor="middle" x="699.57" y="-258.5" font-family="Helvetica,sans-Serif" font-size="10.00">Ogre::OctreeRaySceneQuery</text>
</a>
</g>
</g>
<!-- Node9&#45;&gt;Node11 -->
<g id="edge10" class="edge">
<title>Node9&#45;&gt;Node11</title>
<path fill="none" stroke="midnightblue" d="M600.13,-261.5C608.76,-261.5 617.48,-261.5 625.97,-261.5"/>
<polygon fill="midnightblue" stroke="midnightblue" points="600.07,-258 590.07,-261.5 600.07,-265 600.07,-258"/>
</g>
<!-- Node12 -->
<g id="node12" class="node">
<title>Node12</title>
<g id="a_node12"><a xlink:href="class_ogre_1_1_p_c_z_ray_scene_query.html" target="_top" xlink:title="PCZ implementation of RaySceneQuery.">
<polygon fill="none" stroke="black" points="630.99,-215.5 630.99,-233.5 768.15,-233.5 768.15,-215.5 630.99,-215.5"/>
<text text-anchor="middle" x="699.57" y="-221.5" font-family="Helvetica,sans-Serif" font-size="10.00">Ogre::PCZRaySceneQuery</text>
</a>
</g>
</g>
<!-- Node9&#45;&gt;Node12 -->
<g id="edge11" class="edge">
<title>Node9&#45;&gt;Node12</title>
<path fill="none" stroke="midnightblue" d="M571,-250.43C597.56,-245.03 629.11,-238.62 654.19,-233.52"/>
<polygon fill="midnightblue" stroke="midnightblue" points="570.19,-247.03 561.09,-252.45 571.58,-253.89 570.19,-247.03"/>
</g>
<!-- Node14 -->
<g id="node14" class="node">
<title>Node14</title>
<g id="a_node14"><a xlink:href="class_ogre_1_1_axis_aligned_box_scene_query.html" target="_top" xlink:title="Specialises the SceneQuery class for querying within an axis aligned box.">
<polygon fill="none" stroke="black" points="444.75,-168.5 444.75,-196.5 586.38,-196.5 586.38,-168.5 444.75,-168.5"/>
<text text-anchor="start" x="452.75" y="-184.5" font-family="Helvetica,sans-Serif" font-size="10.00">Ogre::AxisAlignedBoxScene</text>
<text text-anchor="middle" x="515.56" y="-174.5" font-family="Helvetica,sans-Serif" font-size="10.00">Query</text>
</a>
</g>
</g>
<!-- Node13&#45;&gt;Node14 -->
<g id="edge13" class="edge">
<title>Node13&#45;&gt;Node14</title>
<path fill="none" stroke="midnightblue" d="M405.43,-168.86C418.34,-170.47 431.71,-172.14 444.49,-173.74"/>
<polygon fill="midnightblue" stroke="midnightblue" points="405.56,-165.34 395.2,-167.58 404.69,-172.29 405.56,-165.34"/>
</g>
<!-- Node18 -->
<g id="node18" class="node">
<title>Node18</title>
<g id="a_node18"><a xlink:href="class_ogre_1_1_plane_bounded_volume_list_scene_query.html" target="_top" xlink:title="Specialises the SceneQuery class for querying within a plane&#45;bounded volume.">
<polygon fill="none" stroke="black" points="444.18,-121.5 444.18,-149.5 586.94,-149.5 586.94,-121.5 444.18,-121.5"/>
<text text-anchor="start" x="452.18" y="-137.5" font-family="Helvetica,sans-Serif" font-size="10.00">Ogre::PlaneBoundedVolume</text>
<text text-anchor="middle" x="515.56" y="-127.5" font-family="Helvetica,sans-Serif" font-size="10.00">ListSceneQuery</text>
</a>
</g>
</g>
<!-- Node13&#45;&gt;Node18 -->
<g id="edge17" class="edge">
<title>Node13&#45;&gt;Node18</title>
<path fill="none" stroke="midnightblue" d="M405.37,-149.75C418.19,-148.07 431.47,-146.34 444.17,-144.68"/>
<polygon fill="midnightblue" stroke="midnightblue" points="404.67,-146.31 395.2,-151.07 405.57,-153.25 404.67,-146.31"/>
</g>
<!-- Node22 -->
<g id="node22" class="node">
<title>Node22</title>
<g id="a_node22"><a xlink:href="class_ogre_1_1_sphere_scene_query.html" target="_top" xlink:title="Specialises the SceneQuery class for querying within a sphere.">
<polygon fill="none" stroke="black" points="449.75,-61.5 449.75,-79.5 581.37,-79.5 581.37,-61.5 449.75,-61.5"/>
<text text-anchor="middle" x="515.56" y="-67.5" font-family="Helvetica,sans-Serif" font-size="10.00">Ogre::SphereSceneQuery</text>
</a>
</g>
</g>
<!-- Node13&#45;&gt;Node22 -->
<g id="edge21" class="edge">
<title>Node13&#45;&gt;Node22</title>
<path fill="none" stroke="midnightblue" d="M358.71,-145.9C396.72,-127.51 463.46,-95.22 495.86,-79.55"/>
<polygon fill="midnightblue" stroke="midnightblue" points="356.74,-142.97 349.26,-150.48 359.78,-149.27 356.74,-142.97"/>
</g>
<!-- Node15 -->
<g id="node15" class="node">
<title>Node15</title>
<g id="a_node15"><a xlink:href="class_ogre_1_1_default_axis_aligned_box_scene_query.html" target="_top" xlink:title="Default implementation of AxisAlignedBoxSceneQuery.">
<polygon fill="none" stroke="black" points="635.71,-168.5 635.71,-196.5 763.43,-196.5 763.43,-168.5 635.71,-168.5"/>
<text text-anchor="start" x="643.71" y="-184.5" font-family="Helvetica,sans-Serif" font-size="10.00">Ogre::DefaultAxisAligned</text>
<text text-anchor="middle" x="699.57" y="-174.5" font-family="Helvetica,sans-Serif" font-size="10.00">BoxSceneQuery</text>
</a>
</g>
</g>
<!-- Node14&#45;&gt;Node15 -->
<g id="edge14" class="edge">
<title>Node14&#45;&gt;Node15</title>
<path fill="none" stroke="midnightblue" d="M596.73,-182.5C609.7,-182.5 622.97,-182.5 635.46,-182.5"/>
<polygon fill="midnightblue" stroke="midnightblue" points="596.41,-179 586.41,-182.5 596.41,-186 596.41,-179"/>
</g>
<!-- Node16 -->
<g id="node16" class="node">
<title>Node16</title>
<g id="a_node16"><a xlink:href="class_ogre_1_1_octree_axis_aligned_box_scene_query.html" target="_top" xlink:title="Octree implementation of AxisAlignedBoxSceneQuery.">
<polygon fill="none" stroke="black" points="818.89,-215.5 818.89,-243.5 962.17,-243.5 962.17,-215.5 818.89,-215.5"/>
<text text-anchor="start" x="826.89" y="-231.5" font-family="Helvetica,sans-Serif" font-size="10.00">Ogre::OctreeAxisAlignedBox</text>
<text text-anchor="middle" x="890.53" y="-221.5" font-family="Helvetica,sans-Serif" font-size="10.00">SceneQuery</text>
</a>
</g>
</g>
<!-- Node15&#45;&gt;Node16 -->
<g id="edge15" class="edge">
<title>Node15&#45;&gt;Node16</title>
<path fill="none" stroke="midnightblue" d="M766.77,-198.97C788.4,-204.35 812.21,-210.27 833.06,-215.45"/>
<polygon fill="midnightblue" stroke="midnightblue" points="767.56,-195.56 757.01,-196.54 765.87,-202.35 767.56,-195.56"/>
</g>
<!-- Node17 -->
<g id="node17" class="node">
<title>Node17</title>
<g id="a_node17"><a xlink:href="class_ogre_1_1_p_c_z_axis_aligned_box_scene_query.html" target="_top" xlink:title="PCZ implementation of AxisAlignedBoxSceneQuery.">
<polygon fill="none" stroke="black" points="809.72,-168.5 809.72,-196.5 971.34,-196.5 971.34,-168.5 809.72,-168.5"/>
<text text-anchor="start" x="817.72" y="-184.5" font-family="Helvetica,sans-Serif" font-size="10.00">Ogre::PCZAxisAlignedBoxScene</text>
<text text-anchor="middle" x="890.53" y="-174.5" font-family="Helvetica,sans-Serif" font-size="10.00">Query</text>
</a>
</g>
</g>
<!-- Node15&#45;&gt;Node17 -->
<g id="edge16" class="edge">
<title>Node15&#45;&gt;Node17</title>
<path fill="none" stroke="midnightblue" d="M773.64,-182.5C785.36,-182.5 797.54,-182.5 809.4,-182.5"/>
<polygon fill="midnightblue" stroke="midnightblue" points="773.49,-179 763.49,-182.5 773.49,-186 773.49,-179"/>
</g>
<!-- Node19 -->
<g id="node19" class="node">
<title>Node19</title>
<g id="a_node19"><a xlink:href="class_ogre_1_1_default_plane_bounded_volume_list_scene_query.html" target="_top" xlink:title="Default implementation of PlaneBoundedVolumeListSceneQuery.">
<polygon fill="none" stroke="black" points="629.02,-121.5 629.02,-149.5 770.11,-149.5 770.11,-121.5 629.02,-121.5"/>
<text text-anchor="start" x="637.02" y="-137.5" font-family="Helvetica,sans-Serif" font-size="10.00">Ogre::DefaultPlaneBounded</text>
<text text-anchor="middle" x="699.57" y="-127.5" font-family="Helvetica,sans-Serif" font-size="10.00">VolumeListSceneQuery</text>
</a>
</g>
</g>
<!-- Node18&#45;&gt;Node19 -->
<g id="edge18" class="edge">
<title>Node18&#45;&gt;Node19</title>
<path fill="none" stroke="midnightblue" d="M597.23,-135.5C607.79,-135.5 618.53,-135.5 628.88,-135.5"/>
<polygon fill="midnightblue" stroke="midnightblue" points="597.19,-132 587.19,-135.5 597.19,-139 597.19,-132"/>
</g>
<!-- Node20 -->
<g id="node20" class="node">
<title>Node20</title>
<g id="a_node20"><a xlink:href="class_ogre_1_1_octree_plane_bounded_volume_list_scene_query.html" target="_top" xlink:title="Octree implementation of PlaneBoundedVolumeListSceneQuery.">
<polygon fill="none" stroke="black" points="820.83,-121.5 820.83,-149.5 960.24,-149.5 960.24,-121.5 820.83,-121.5"/>
<text text-anchor="start" x="828.83" y="-137.5" font-family="Helvetica,sans-Serif" font-size="10.00">Ogre::OctreePlaneBounded</text>
<text text-anchor="middle" x="890.53" y="-127.5" font-family="Helvetica,sans-Serif" font-size="10.00">VolumeListSceneQuery</text>
</a>
</g>
</g>
<!-- Node19&#45;&gt;Node20 -->
<g id="edge19" class="edge">
<title>Node19&#45;&gt;Node20</title>
<path fill="none" stroke="midnightblue" d="M780.31,-135.5C793.76,-135.5 807.61,-135.5 820.75,-135.5"/>
<polygon fill="midnightblue" stroke="midnightblue" points="780.13,-132 770.13,-135.5 780.13,-139 780.13,-132"/>
</g>
<!-- Node21 -->
<g id="node21" class="node">
<title>Node21</title>
<g id="a_node21"><a xlink:href="class_ogre_1_1_p_c_z_plane_bounded_volume_list_scene_query.html" target="_top" xlink:title="PCZ implementation of PlaneBoundedVolumeListSceneQuery.">
<polygon fill="none" stroke="black" points="809.15,-74.5 809.15,-102.5 971.91,-102.5 971.91,-74.5 809.15,-74.5"/>
<text text-anchor="start" x="817.15" y="-90.5" font-family="Helvetica,sans-Serif" font-size="10.00">Ogre::PCZPlaneBoundedVolume</text>
<text text-anchor="middle" x="890.53" y="-80.5" font-family="Helvetica,sans-Serif" font-size="10.00">ListSceneQuery</text>
</a>
</g>
</g>
<!-- Node19&#45;&gt;Node21 -->
<g id="edge20" class="edge">
<title>Node19&#45;&gt;Node21</title>
<path fill="none" stroke="midnightblue" d="M766.77,-119.03C788.4,-113.65 812.21,-107.73 833.06,-102.55"/>
<polygon fill="midnightblue" stroke="midnightblue" points="765.87,-115.65 757.01,-121.46 767.56,-122.44 765.87,-115.65"/>
</g>
<!-- Node23 -->
<g id="node23" class="node">
<title>Node23</title>
<g id="a_node23"><a xlink:href="class_ogre_1_1_default_sphere_scene_query.html" target="_top" xlink:title="Default implementation of SphereSceneQuery.">
<polygon fill="none" stroke="black" points="631.53,-32.5 631.53,-60.5 767.6,-60.5 767.6,-32.5 631.53,-32.5"/>
<text text-anchor="start" x="639.53" y="-48.5" font-family="Helvetica,sans-Serif" font-size="10.00">Ogre::DefaultSphereScene</text>
<text text-anchor="middle" x="699.57" y="-38.5" font-family="Helvetica,sans-Serif" font-size="10.00">Query</text>
</a>
</g>
</g>
<!-- Node22&#45;&gt;Node23 -->
<g id="edge22" class="edge">
<title>Node22&#45;&gt;Node23</title>
<path fill="none" stroke="midnightblue" d="M591.52,-60.62C604.77,-58.87 618.49,-57.06 631.5,-55.34"/>
<polygon fill="midnightblue" stroke="midnightblue" points="590.96,-57.16 581.5,-61.94 591.87,-64.1 590.96,-57.16"/>
</g>
<!-- Node24 -->
<g id="node24" class="node">
<title>Node24</title>
<g id="a_node24"><a xlink:href="class_ogre_1_1_octree_sphere_scene_query.html" target="_top" xlink:title="Octree implementation of SphereSceneQuery.">
<polygon fill="none" stroke="black" points="809.72,-37.5 809.72,-55.5 971.35,-55.5 971.35,-37.5 809.72,-37.5"/>
<text text-anchor="middle" x="890.53" y="-43.5" font-family="Helvetica,sans-Serif" font-size="10.00">Ogre::OctreeSphereSceneQuery</text>
</a>
</g>
</g>
<!-- Node23&#45;&gt;Node24 -->
<g id="edge23" class="edge">
<title>Node23&#45;&gt;Node24</title>
<path fill="none" stroke="midnightblue" d="M778.04,-46.5C788.47,-46.5 799.19,-46.5 809.67,-46.5"/>
<polygon fill="midnightblue" stroke="midnightblue" points="777.72,-43 767.72,-46.5 777.72,-50 777.72,-43"/>
</g>
<!-- Node25 -->
<g id="node25" class="node">
<title>Node25</title>
<g id="a_node25"><a xlink:href="class_ogre_1_1_p_c_z_sphere_scene_query.html" target="_top" xlink:title="PCZ implementation of SphereSceneQuery.">
<polygon fill="none" stroke="black" points="814.72,-0.5 814.72,-18.5 966.34,-18.5 966.34,-0.5 814.72,-0.5"/>
<text text-anchor="middle" x="890.53" y="-6.5" font-family="Helvetica,sans-Serif" font-size="10.00">Ogre::PCZSphereSceneQuery</text>
</a>
</g>
</g>
<!-- Node23&#45;&gt;Node25 -->
<g id="edge24" class="edge">
<title>Node23&#45;&gt;Node25</title>
<path fill="none" stroke="midnightblue" d="M777.83,-31.37C800.06,-27.02 823.61,-22.41 843.33,-18.55"/>
<polygon fill="midnightblue" stroke="midnightblue" points="776.86,-27.99 767.72,-33.35 778.21,-34.86 776.86,-27.99"/>
</g>
</g>
</svg>
