<?xml version="1.0" encoding="UTF-8" standalone="no"?>
<!DOCTYPE svg PUBLIC "-//W3C//DTD SVG 1.1//EN"
 "http://www.w3.org/Graphics/SVG/1.1/DTD/svg11.dtd">
<!-- Generated by graphviz version 2.43.0 (0)
 -->
<!-- Title: Ogre::v1::StaticGeometry::GeometryBucket Pages: 1 -->
<svg width="240pt" height="92pt"
 viewBox="0.00 0.00 239.88 92.00" xmlns="http://www.w3.org/2000/svg" xmlns:xlink="http://www.w3.org/1999/xlink">
<g id="graph0" class="graph" transform="scale(1 1) rotate(0) translate(4 88)">
<title>Ogre::v1::StaticGeometry::GeometryBucket</title>
<!-- Node1 -->
<g id="node1" class="node">
<title>Node1</title>
<g id="a_node1"><a xlink:title="A GeometryBucket is a the lowest level bucket where geometry with the same vertex &amp; index format is s...">
<polygon fill="#bfbfbf" stroke="black" points="45.34,-0.5 45.34,-28.5 174.15,-28.5 174.15,-0.5 45.34,-0.5"/>
<text text-anchor="start" x="53.34" y="-16.5" font-family="Helvetica,sans-Serif" font-size="10.00">Ogre::v1::StaticGeometry</text>
<text text-anchor="middle" x="109.75" y="-6.5" font-family="Helvetica,sans-Serif" font-size="10.00">::GeometryBucket</text>
</a>
</g>
</g>
<!-- Node2 -->
<g id="node2" class="node">
<title>Node2</title>
<g id="a_node2"><a xlink:href="class_ogre_1_1_renderable.html" target="_top" xlink:title="Abstract class defining the interface all renderable objects must implement.">
<polygon fill="none" stroke="black" points="0,-65.5 0,-83.5 95.49,-83.5 95.49,-65.5 0,-65.5"/>
<text text-anchor="middle" x="47.75" y="-71.5" font-family="Helvetica,sans-Serif" font-size="10.00">Ogre::Renderable</text>
</a>
</g>
</g>
<!-- Node2&#45;&gt;Node1 -->
<g id="edge1" class="edge">
<title>Node2&#45;&gt;Node1</title>
<path fill="none" stroke="midnightblue" d="M63.86,-58.43C73.65,-49.26 86.05,-37.67 95.48,-28.84"/>
<polygon fill="midnightblue" stroke="midnightblue" points="61.28,-56.05 56.37,-65.44 66.06,-61.16 61.28,-56.05"/>
</g>
<!-- Node3 -->
<g id="node3" class="node">
<title>Node3</title>
<g id="a_node3"><a xlink:href="class_ogre_1_1_allocated_object.html" target="_top" xlink:title="Superclass for all objects that wish to use custom memory allocators when their new / delete operator...">
<polygon fill="none" stroke="black" points="113.61,-65.5 113.61,-83.5 231.88,-83.5 231.88,-65.5 113.61,-65.5"/>
<text text-anchor="middle" x="172.75" y="-71.5" font-family="Helvetica,sans-Serif" font-size="10.00">BatchedGeometryAlloc</text>
</a>
</g>
</g>
<!-- Node3&#45;&gt;Node1 -->
<g id="edge2" class="edge">
<title>Node3&#45;&gt;Node1</title>
<path fill="none" stroke="midnightblue" d="M156.37,-58.43C146.42,-49.26 133.83,-37.67 124.24,-28.84"/>
<polygon fill="midnightblue" stroke="midnightblue" points="154.26,-61.24 163.99,-65.44 159,-56.09 154.26,-61.24"/>
</g>
</g>
</svg>
