<?xml version="1.0" encoding="UTF-8" standalone="no"?>
<!DOCTYPE svg PUBLIC "-//W3C//DTD SVG 1.1//EN"
 "http://www.w3.org/Graphics/SVG/1.1/DTD/svg11.dtd">
<!-- Generated by graphviz version 2.43.0 (0)
 -->
<!-- Title: Ogre::DataStream Pages: 1 -->
<svg width="393pt" height="175pt"
 viewBox="0.00 0.00 392.54 175.00" xmlns="http://www.w3.org/2000/svg" xmlns:xlink="http://www.w3.org/1999/xlink">
<g id="graph0" class="graph" transform="scale(1 1) rotate(0) translate(4 171)">
<title>Ogre::DataStream</title>
<!-- Node1 -->
<g id="node1" class="node">
<title>Node1</title>
<g id="a_node1"><a xlink:title="General purpose class used for encapsulating the reading and writing of data.">
<polygon fill="#bfbfbf" stroke="black" points="105.91,-74.5 105.91,-92.5 203.05,-92.5 203.05,-74.5 105.91,-74.5"/>
<text text-anchor="middle" x="154.48" y="-80.5" font-family="Helvetica,sans-Serif" font-size="10.00">Ogre::DataStream</text>
</a>
</g>
</g>
<!-- Node3 -->
<g id="node3" class="node">
<title>Node3</title>
<g id="a_node3"><a xlink:href="class_ogre_1_1_deflate_stream.html" target="_top" xlink:title="Stream which compresses / uncompresses data using the &#39;deflate&#39; compression algorithm.">
<polygon fill="none" stroke="black" points="257.94,-148.5 257.94,-166.5 365.64,-166.5 365.64,-148.5 257.94,-148.5"/>
<text text-anchor="middle" x="311.79" y="-154.5" font-family="Helvetica,sans-Serif" font-size="10.00">Ogre::DeflateStream</text>
</a>
</g>
</g>
<!-- Node1&#45;&gt;Node3 -->
<g id="edge2" class="edge">
<title>Node1&#45;&gt;Node3</title>
<path fill="none" stroke="midnightblue" d="M174.5,-99.05C190.75,-111.62 215.21,-128.91 239.05,-139.5 247.15,-143.1 256.09,-146.06 264.84,-148.48"/>
<polygon fill="midnightblue" stroke="midnightblue" points="176.39,-96.08 166.37,-92.62 172.04,-101.57 176.39,-96.08"/>
</g>
<!-- Node4 -->
<g id="node4" class="node">
<title>Node4</title>
<g id="a_node4"><a xlink:href="class_ogre_1_1_file_handle_data_stream.html" target="_top" xlink:title="Common subclass of DataStream for handling data from C&#45;style file handles.">
<polygon fill="none" stroke="black" points="239.32,-111.5 239.32,-129.5 384.27,-129.5 384.27,-111.5 239.32,-111.5"/>
<text text-anchor="middle" x="311.79" y="-117.5" font-family="Helvetica,sans-Serif" font-size="10.00">Ogre::FileHandleDataStream</text>
</a>
</g>
</g>
<!-- Node1&#45;&gt;Node4 -->
<g id="edge3" class="edge">
<title>Node1&#45;&gt;Node4</title>
<path fill="none" stroke="midnightblue" d="M203.43,-94.92C225.78,-100.25 251.99,-106.49 272.92,-111.48"/>
<polygon fill="midnightblue" stroke="midnightblue" points="204.01,-91.46 193.47,-92.55 202.39,-98.27 204.01,-91.46"/>
</g>
<!-- Node5 -->
<g id="node5" class="node">
<title>Node5</title>
<g id="a_node5"><a xlink:href="class_ogre_1_1_file_stream_data_stream.html" target="_top" xlink:title="Common subclass of DataStream for handling data from std::basic_istream.">
<polygon fill="none" stroke="black" points="239.05,-74.5 239.05,-92.5 384.54,-92.5 384.54,-74.5 239.05,-74.5"/>
<text text-anchor="middle" x="311.79" y="-80.5" font-family="Helvetica,sans-Serif" font-size="10.00">Ogre::FileStreamDataStream</text>
</a>
</g>
</g>
<!-- Node1&#45;&gt;Node5 -->
<g id="edge4" class="edge">
<title>Node1&#45;&gt;Node5</title>
<path fill="none" stroke="midnightblue" d="M213.58,-83.5C221.81,-83.5 230.36,-83.5 238.81,-83.5"/>
<polygon fill="midnightblue" stroke="midnightblue" points="213.34,-80 203.34,-83.5 213.34,-87 213.34,-80"/>
</g>
<!-- Node6 -->
<g id="node6" class="node">
<title>Node6</title>
<g id="a_node6"><a xlink:href="class_ogre_1_1_memory_data_stream.html" target="_top" xlink:title="Common subclass of DataStream for handling data from chunks of memory.">
<polygon fill="none" stroke="black" points="245.16,-37.5 245.16,-55.5 378.42,-55.5 378.42,-37.5 245.16,-37.5"/>
<text text-anchor="middle" x="311.79" y="-43.5" font-family="Helvetica,sans-Serif" font-size="10.00">Ogre::MemoryDataStream</text>
</a>
</g>
</g>
<!-- Node1&#45;&gt;Node6 -->
<g id="edge5" class="edge">
<title>Node1&#45;&gt;Node6</title>
<path fill="none" stroke="midnightblue" d="M203.43,-72.08C225.78,-66.75 251.99,-60.51 272.92,-55.52"/>
<polygon fill="midnightblue" stroke="midnightblue" points="202.39,-68.73 193.47,-74.45 204.01,-75.54 202.39,-68.73"/>
</g>
<!-- Node7 -->
<g id="node7" class="node">
<title>Node7</title>
<g id="a_node7"><a xlink:href="class_ogre_1_1_zip_data_stream.html" target="_top" xlink:title="Specialisation of DataStream to handle streaming data from zip archives.">
<polygon fill="none" stroke="black" points="256.28,-0.5 256.28,-18.5 367.31,-18.5 367.31,-0.5 256.28,-0.5"/>
<text text-anchor="middle" x="311.79" y="-6.5" font-family="Helvetica,sans-Serif" font-size="10.00">Ogre::ZipDataStream</text>
</a>
</g>
</g>
<!-- Node1&#45;&gt;Node7 -->
<g id="edge6" class="edge">
<title>Node1&#45;&gt;Node7</title>
<path fill="none" stroke="midnightblue" d="M174.5,-67.95C190.75,-55.38 215.21,-38.09 239.05,-27.5 247.15,-23.9 256.09,-20.94 264.84,-18.52"/>
<polygon fill="midnightblue" stroke="midnightblue" points="172.04,-65.43 166.37,-74.38 176.39,-70.92 172.04,-65.43"/>
</g>
<!-- Node2 -->
<g id="node2" class="node">
<title>Node2</title>
<g id="a_node2"><a xlink:href="class_ogre_1_1_allocated_object.html" target="_top" xlink:title="Superclass for all objects that wish to use custom memory allocators when their new / delete operator...">
<polygon fill="none" stroke="black" points="0,-74.5 0,-92.5 69.91,-92.5 69.91,-74.5 0,-74.5"/>
<text text-anchor="middle" x="34.95" y="-80.5" font-family="Helvetica,sans-Serif" font-size="10.00">StreamAlloc</text>
</a>
</g>
</g>
<!-- Node2&#45;&gt;Node1 -->
<g id="edge1" class="edge">
<title>Node2&#45;&gt;Node1</title>
<path fill="none" stroke="midnightblue" d="M80.18,-83.5C88.47,-83.5 97.18,-83.5 105.58,-83.5"/>
<polygon fill="midnightblue" stroke="midnightblue" points="79.95,-80 69.95,-83.5 79.95,-87 79.95,-80"/>
</g>
</g>
</svg>
