<?xml version="1.0" encoding="UTF-8" standalone="no"?>
<!DOCTYPE svg PUBLIC "-//W3C//DTD SVG 1.1//EN"
 "http://www.w3.org/Graphics/SVG/1.1/DTD/svg11.dtd">
<!-- Generated by graphviz version 2.43.0 (0)
 -->
<!-- Title: Ogre::RTShader::HardwareSkinningTechnique Pages: 1 -->
<svg width="352pt" height="157pt"
 viewBox="0.00 0.00 351.85 157.00" xmlns="http://www.w3.org/2000/svg" xmlns:xlink="http://www.w3.org/1999/xlink">
<g id="graph0" class="graph" transform="scale(1 1) rotate(0) translate(4 153)">
<title>Ogre::RTShader::HardwareSkinningTechnique</title>
<!-- Node1 -->
<g id="node1" class="node">
<title>Node1</title>
<g id="a_node1"><a xlink:title="Implement a sub render state which performs hardware skinning.">
<polygon fill="#bfbfbf" stroke="black" points="103.35,-65.5 103.35,-93.5 241.44,-93.5 241.44,-65.5 103.35,-65.5"/>
<text text-anchor="start" x="111.35" y="-81.5" font-family="Helvetica,sans-Serif" font-size="10.00">Ogre::RTShader::Hardware</text>
<text text-anchor="middle" x="172.39" y="-71.5" font-family="Helvetica,sans-Serif" font-size="10.00">SkinningTechnique</text>
</a>
</g>
</g>
<!-- Node3 -->
<g id="node3" class="node">
<title>Node3</title>
<g id="a_node3"><a xlink:href="class_ogre_1_1_r_t_shader_1_1_dual_quaternion_skinning.html" target="_top" xlink:title="Implement a sub render state which performs dual quaternion hardware skinning.">
<polygon fill="none" stroke="black" points="0,-0.5 0,-28.5 164.79,-28.5 164.79,-0.5 0,-0.5"/>
<text text-anchor="start" x="8" y="-16.5" font-family="Helvetica,sans-Serif" font-size="10.00">Ogre::RTShader::DualQuaternion</text>
<text text-anchor="middle" x="82.39" y="-6.5" font-family="Helvetica,sans-Serif" font-size="10.00">Skinning</text>
</a>
</g>
</g>
<!-- Node1&#45;&gt;Node3 -->
<g id="edge2" class="edge">
<title>Node1&#45;&gt;Node3</title>
<path fill="none" stroke="midnightblue" d="M145.28,-59.52C130.98,-49.51 113.8,-37.49 101.02,-28.54"/>
<polygon fill="midnightblue" stroke="midnightblue" points="143.55,-62.58 153.75,-65.45 147.56,-56.84 143.55,-62.58"/>
</g>
<!-- Node4 -->
<g id="node4" class="node">
<title>Node4</title>
<g id="a_node4"><a xlink:href="class_ogre_1_1_r_t_shader_1_1_linear_skinning.html" target="_top" xlink:title="Implement a sub render state which performs hardware skinning.">
<polygon fill="none" stroke="black" points="182.94,-5.5 182.94,-23.5 343.85,-23.5 343.85,-5.5 182.94,-5.5"/>
<text text-anchor="middle" x="263.39" y="-11.5" font-family="Helvetica,sans-Serif" font-size="10.00">Ogre::RTShader::LinearSkinning</text>
</a>
</g>
</g>
<!-- Node1&#45;&gt;Node4 -->
<g id="edge3" class="edge">
<title>Node1&#45;&gt;Node4</title>
<path fill="none" stroke="midnightblue" d="M199.88,-59.47C217.23,-47.46 238.76,-32.55 251.77,-23.55"/>
<polygon fill="midnightblue" stroke="midnightblue" points="197.48,-56.88 191.25,-65.45 201.46,-62.63 197.48,-56.88"/>
</g>
<!-- Node2 -->
<g id="node2" class="node">
<title>Node2</title>
<g id="a_node2"><a xlink:href="class_ogre_1_1_allocated_object.html" target="_top" xlink:title="Superclass for all objects that wish to use custom memory allocators when their new / delete operator...">
<polygon fill="none" stroke="black" points="114.19,-130.5 114.19,-148.5 230.6,-148.5 230.6,-130.5 114.19,-130.5"/>
<text text-anchor="middle" x="172.39" y="-136.5" font-family="Helvetica,sans-Serif" font-size="10.00">RTShaderSystemAlloc</text>
</a>
</g>
</g>
<!-- Node2&#45;&gt;Node1 -->
<g id="edge1" class="edge">
<title>Node2&#45;&gt;Node1</title>
<path fill="none" stroke="midnightblue" d="M172.39,-120.32C172.39,-111.75 172.39,-101.7 172.39,-93.84"/>
<polygon fill="midnightblue" stroke="midnightblue" points="168.89,-120.44 172.39,-130.44 175.89,-120.44 168.89,-120.44"/>
</g>
</g>
</svg>
