<?xml version="1.0" encoding="UTF-8" standalone="no"?>
<!DOCTYPE svg PUBLIC "-//W3C//DTD SVG 1.1//EN"
 "http://www.w3.org/Graphics/SVG/1.1/DTD/svg11.dtd">
<!-- Generated by graphviz version 2.43.0 (0)
 -->
<!-- Title: Ogre::NULLTextureGpuManager Pages: 1 -->
<svg width="238pt" height="137pt"
 viewBox="0.00 0.00 237.77 137.00" xmlns="http://www.w3.org/2000/svg" xmlns:xlink="http://www.w3.org/1999/xlink">
<g id="graph0" class="graph" transform="scale(1 1) rotate(0) translate(4 133)">
<title>Ogre::NULLTextureGpuManager</title>
<!-- Node1 -->
<g id="node1" class="node">
<title>Node1</title>
<g id="a_node1"><a xlink:title=" ">
<polygon fill="#bfbfbf" stroke="black" points="22.35,-0.5 22.35,-18.5 182.13,-18.5 182.13,-0.5 22.35,-0.5"/>
<text text-anchor="middle" x="102.24" y="-6.5" font-family="Helvetica,sans-Serif" font-size="10.00">Ogre::NULLTextureGpuManager</text>
</a>
</g>
</g>
<!-- Node2 -->
<g id="node2" class="node">
<title>Node2</title>
<g id="a_node2"><a xlink:href="class_ogre_1_1_texture_gpu_manager.html" target="_top" xlink:title=" ">
<polygon fill="none" stroke="black" points="34.76,-55.5 34.76,-73.5 169.71,-73.5 169.71,-55.5 34.76,-55.5"/>
<text text-anchor="middle" x="102.24" y="-61.5" font-family="Helvetica,sans-Serif" font-size="10.00">Ogre::TextureGpuManager</text>
</a>
</g>
</g>
<!-- Node2&#45;&gt;Node1 -->
<g id="edge1" class="edge">
<title>Node2&#45;&gt;Node1</title>
<path fill="none" stroke="midnightblue" d="M102.24,-45.17C102.24,-36.09 102.24,-25.59 102.24,-18.55"/>
<polygon fill="midnightblue" stroke="midnightblue" points="98.74,-45.22 102.24,-55.22 105.74,-45.22 98.74,-45.22"/>
</g>
<!-- Node3 -->
<g id="node3" class="node">
<title>Node3</title>
<g id="a_node3"><a xlink:href="class_ogre_1_1_allocated_object.html" target="_top" xlink:title="Superclass for all objects that wish to use custom memory allocators when their new / delete operator...">
<polygon fill="none" stroke="black" points="0,-110.5 0,-128.5 80.47,-128.5 80.47,-110.5 0,-110.5"/>
<text text-anchor="middle" x="40.24" y="-116.5" font-family="Helvetica,sans-Serif" font-size="10.00">ResourceAlloc</text>
</a>
</g>
</g>
<!-- Node3&#45;&gt;Node2 -->
<g id="edge2" class="edge">
<title>Node3&#45;&gt;Node2</title>
<path fill="none" stroke="midnightblue" d="M57.29,-103.93C68.71,-94.16 83.32,-81.67 92.73,-73.63"/>
<polygon fill="midnightblue" stroke="midnightblue" points="54.98,-101.29 49.65,-110.45 59.53,-106.61 54.98,-101.29"/>
</g>
<!-- Node4 -->
<g id="node4" class="node">
<title>Node4</title>
<g id="a_node4"><a xlink:href="class_ogre_1_1_texture_gpu_listener.html" target="_top" xlink:title=" ">
<polygon fill="none" stroke="black" points="98.71,-110.5 98.71,-128.5 229.77,-128.5 229.77,-110.5 98.71,-110.5"/>
<text text-anchor="middle" x="164.24" y="-116.5" font-family="Helvetica,sans-Serif" font-size="10.00">Ogre::TextureGpuListener</text>
</a>
</g>
</g>
<!-- Node4&#45;&gt;Node2 -->
<g id="edge3" class="edge">
<title>Node4&#45;&gt;Node2</title>
<path fill="none" stroke="midnightblue" d="M147.19,-103.93C135.77,-94.16 121.15,-81.67 111.74,-73.63"/>
<polygon fill="midnightblue" stroke="midnightblue" points="144.94,-106.61 154.82,-110.45 149.49,-101.29 144.94,-106.61"/>
</g>
</g>
</svg>
