<?xml version="1.0" encoding="UTF-8" standalone="no"?>
<!DOCTYPE svg PUBLIC "-//W3C//DTD SVG 1.1//EN"
 "http://www.w3.org/Graphics/SVG/1.1/DTD/svg11.dtd">
<!-- Generated by graphviz version 2.43.0 (0)
 -->
<!-- Title: Ogre::EGLContext Pages: 1 -->
<svg width="437pt" height="138pt"
 viewBox="0.00 0.00 437.03 138.00" xmlns="http://www.w3.org/2000/svg" xmlns:xlink="http://www.w3.org/1999/xlink">
<g id="graph0" class="graph" transform="scale(1 1) rotate(0) translate(4 134)">
<title>Ogre::EGLContext</title>
<!-- Node1 -->
<g id="node1" class="node">
<title>Node1</title>
<g id="a_node1"><a xlink:title=" ">
<polygon fill="#bfbfbf" stroke="black" points="146.49,-55.5 146.49,-73.5 244.75,-73.5 244.75,-55.5 146.49,-55.5"/>
<text text-anchor="middle" x="195.62" y="-61.5" font-family="Helvetica,sans-Serif" font-size="10.00">Ogre::EGLContext</text>
</a>
</g>
</g>
<!-- Node3 -->
<g id="node3" class="node">
<title>Node3</title>
<g id="a_node3"><a xlink:href="class_ogre_1_1_android_e_g_l_context.html" target="_top" xlink:title=" ">
<polygon fill="none" stroke="black" points="288.53,-111.5 288.53,-129.5 421.25,-129.5 421.25,-111.5 288.53,-111.5"/>
<text text-anchor="middle" x="354.89" y="-117.5" font-family="Helvetica,sans-Serif" font-size="10.00">Ogre::AndroidEGLContext</text>
</a>
</g>
</g>
<!-- Node1&#45;&gt;Node3 -->
<g id="edge2" class="edge">
<title>Node1&#45;&gt;Node3</title>
<path fill="none" stroke="midnightblue" d="M223.7,-78.26C239.94,-86.12 261.18,-95.74 280.75,-102.5 290.52,-105.87 301.22,-108.88 311.35,-111.42"/>
<polygon fill="midnightblue" stroke="midnightblue" points="224.81,-74.9 214.29,-73.63 221.72,-81.18 224.81,-74.9"/>
</g>
<!-- Node4 -->
<g id="node4" class="node">
<title>Node4</title>
<g id="a_node4"><a xlink:href="class_ogre_1_1_emscripten_e_g_l_context.html" target="_top" xlink:title=" ">
<polygon fill="none" stroke="black" points="280.75,-74.5 280.75,-92.5 429.03,-92.5 429.03,-74.5 280.75,-74.5"/>
<text text-anchor="middle" x="354.89" y="-80.5" font-family="Helvetica,sans-Serif" font-size="10.00">Ogre::EmscriptenEGLContext</text>
</a>
</g>
</g>
<!-- Node1&#45;&gt;Node4 -->
<g id="edge3" class="edge">
<title>Node1&#45;&gt;Node4</title>
<path fill="none" stroke="midnightblue" d="M255.09,-71.56C263.45,-72.57 272.12,-73.62 280.72,-74.66"/>
<polygon fill="midnightblue" stroke="midnightblue" points="255.44,-68.08 245.09,-70.36 254.6,-75.03 255.44,-68.08"/>
</g>
<!-- Node5 -->
<g id="node5" class="node">
<title>Node5</title>
<g id="a_node5"><a xlink:href="class_ogre_1_1_win32_e_g_l_context.html" target="_top" xlink:title=" ">
<polygon fill="none" stroke="black" points="291.59,-37.5 291.59,-55.5 418.19,-55.5 418.19,-37.5 291.59,-37.5"/>
<text text-anchor="middle" x="354.89" y="-43.5" font-family="Helvetica,sans-Serif" font-size="10.00">Ogre::Win32EGLContext</text>
</a>
</g>
</g>
<!-- Node1&#45;&gt;Node5 -->
<g id="edge4" class="edge">
<title>Node1&#45;&gt;Node5</title>
<path fill="none" stroke="midnightblue" d="M255.25,-57.79C267.04,-56.44 279.46,-55.02 291.37,-53.66"/>
<polygon fill="midnightblue" stroke="midnightblue" points="254.63,-54.34 245.09,-58.95 255.42,-61.29 254.63,-54.34"/>
</g>
<!-- Node6 -->
<g id="node6" class="node">
<title>Node6</title>
<g id="a_node6"><a xlink:href="class_ogre_1_1_x11_e_g_l_context.html" target="_top" xlink:title=" ">
<polygon fill="none" stroke="black" points="297.23,-0.5 297.23,-18.5 412.55,-18.5 412.55,-0.5 297.23,-0.5"/>
<text text-anchor="middle" x="354.89" y="-6.5" font-family="Helvetica,sans-Serif" font-size="10.00">Ogre::X11EGLContext</text>
</a>
</g>
</g>
<!-- Node1&#45;&gt;Node6 -->
<g id="edge5" class="edge">
<title>Node1&#45;&gt;Node6</title>
<path fill="none" stroke="midnightblue" d="M224.05,-51C240.27,-43.38 261.36,-34.09 280.75,-27.5 290.66,-24.13 301.51,-21.11 311.76,-18.55"/>
<polygon fill="midnightblue" stroke="midnightblue" points="222.16,-48.02 214.64,-55.49 225.17,-54.34 222.16,-48.02"/>
</g>
<!-- Node2 -->
<g id="node2" class="node">
<title>Node2</title>
<g id="a_node2"><a xlink:href="class_ogre_1_1_g_l_e_s2_context.html" target="_top" xlink:title="Class that encapsulates an GL context.">
<polygon fill="none" stroke="black" points="0,-55.5 0,-73.5 110.49,-73.5 110.49,-55.5 0,-55.5"/>
<text text-anchor="middle" x="55.25" y="-61.5" font-family="Helvetica,sans-Serif" font-size="10.00">Ogre::GLES2Context</text>
</a>
</g>
</g>
<!-- Node2&#45;&gt;Node1 -->
<g id="edge1" class="edge">
<title>Node2&#45;&gt;Node1</title>
<path fill="none" stroke="midnightblue" d="M120.62,-64.5C129.27,-64.5 138.02,-64.5 146.33,-64.5"/>
<polygon fill="midnightblue" stroke="midnightblue" points="120.54,-61 110.54,-64.5 120.54,-68 120.54,-61"/>
</g>
</g>
</svg>
