<?xml version="1.0" encoding="UTF-8" standalone="no"?>
<!DOCTYPE svg PUBLIC "-//W3C//DTD SVG 1.1//EN"
 "http://www.w3.org/Graphics/SVG/1.1/DTD/svg11.dtd">
<!-- Generated by graphviz version 2.43.0 (0)
 -->
<!-- Title: Ogre::LodStrategy Pages: 1 -->
<svg width="606pt" height="158pt"
 viewBox="0.00 0.00 605.81 158.00" xmlns="http://www.w3.org/2000/svg" xmlns:xlink="http://www.w3.org/1999/xlink">
<g id="graph0" class="graph" transform="scale(1 1) rotate(0) translate(4 154)">
<title>Ogre::LodStrategy</title>
<!-- Node1 -->
<g id="node1" class="node">
<title>Node1</title>
<g id="a_node1"><a xlink:title="Strategy for determining level of detail.">
<polygon fill="#bfbfbf" stroke="black" points="90.36,-73.5 90.36,-91.5 188.07,-91.5 188.07,-73.5 90.36,-73.5"/>
<text text-anchor="middle" x="139.22" y="-79.5" font-family="Helvetica,sans-Serif" font-size="10.00">Ogre::LodStrategy</text>
</a>
</g>
</g>
<!-- Node3 -->
<g id="node3" class="node">
<title>Node3</title>
<g id="a_node3"><a xlink:href="class_ogre_1_1_distance_lod_strategy_base.html" target="_top" xlink:title="Level of detail strategy based on distance from camera.">
<polygon fill="none" stroke="black" points="228.8,-94.5 228.8,-112.5 388.21,-112.5 388.21,-94.5 228.8,-94.5"/>
<text text-anchor="middle" x="308.51" y="-100.5" font-family="Helvetica,sans-Serif" font-size="10.00">Ogre::DistanceLodStrategyBase</text>
</a>
</g>
</g>
<!-- Node1&#45;&gt;Node3 -->
<g id="edge2" class="edge">
<title>Node1&#45;&gt;Node3</title>
<path fill="none" stroke="midnightblue" d="M198.09,-89.76C210.16,-91.28 223.03,-92.9 235.55,-94.47"/>
<polygon fill="midnightblue" stroke="midnightblue" points="198.51,-86.29 188.15,-88.52 197.64,-93.24 198.51,-86.29"/>
</g>
<!-- Node6 -->
<g id="node6" class="node">
<title>Node6</title>
<g id="a_node6"><a xlink:href="class_ogre_1_1_pixel_count_lod_strategy_base.html" target="_top" xlink:title="Abstract base class for level of detail strategy based on pixel count approximations from bounding sp...">
<polygon fill="none" stroke="black" points="224.07,-52.5 224.07,-70.5 392.94,-70.5 392.94,-52.5 224.07,-52.5"/>
<text text-anchor="middle" x="308.51" y="-58.5" font-family="Helvetica,sans-Serif" font-size="10.00">Ogre::PixelCountLodStrategyBase</text>
</a>
</g>
</g>
<!-- Node1&#45;&gt;Node6 -->
<g id="edge5" class="edge">
<title>Node1&#45;&gt;Node6</title>
<path fill="none" stroke="midnightblue" d="M198.09,-75.24C210.16,-73.72 223.03,-72.1 235.55,-70.53"/>
<polygon fill="midnightblue" stroke="midnightblue" points="197.64,-71.76 188.15,-76.48 198.51,-78.71 197.64,-71.76"/>
</g>
<!-- Node2 -->
<g id="node2" class="node">
<title>Node2</title>
<g id="a_node2"><a xlink:href="class_ogre_1_1_allocated_object.html" target="_top" xlink:title="Superclass for all objects that wish to use custom memory allocators when their new / delete operator...">
<polygon fill="none" stroke="black" points="0,-73.5 0,-91.5 54.36,-91.5 54.36,-73.5 0,-73.5"/>
<text text-anchor="middle" x="27.18" y="-79.5" font-family="Helvetica,sans-Serif" font-size="10.00">LodAlloc</text>
</a>
</g>
</g>
<!-- Node2&#45;&gt;Node1 -->
<g id="edge1" class="edge">
<title>Node2&#45;&gt;Node1</title>
<path fill="none" stroke="midnightblue" d="M64.79,-82.5C72.9,-82.5 81.62,-82.5 90.12,-82.5"/>
<polygon fill="midnightblue" stroke="midnightblue" points="64.54,-79 54.54,-82.5 64.54,-86 64.54,-79"/>
</g>
<!-- Node4 -->
<g id="node4" class="node">
<title>Node4</title>
<g id="a_node4"><a xlink:href="class_ogre_1_1_distance_lod_box_strategy.html" target="_top" xlink:title="Level of detail strategy based on distance from camera to an object&#39;s bounding box.">
<polygon fill="none" stroke="black" points="436.45,-131.5 436.45,-149.5 590.3,-149.5 590.3,-131.5 436.45,-131.5"/>
<text text-anchor="middle" x="513.37" y="-137.5" font-family="Helvetica,sans-Serif" font-size="10.00">Ogre::DistanceLodBoxStrategy</text>
</a>
</g>
</g>
<!-- Node3&#45;&gt;Node4 -->
<g id="edge3" class="edge">
<title>Node3&#45;&gt;Node4</title>
<path fill="none" stroke="midnightblue" d="M368.75,-114.31C398.61,-119.75 434.4,-126.28 462.78,-131.46"/>
<polygon fill="midnightblue" stroke="midnightblue" points="369.34,-110.86 358.87,-112.5 368.08,-117.74 369.34,-110.86"/>
</g>
<!-- Node5 -->
<g id="node5" class="node">
<title>Node5</title>
<g id="a_node5"><a xlink:href="class_ogre_1_1_distance_lod_sphere_strategy.html" target="_top" xlink:title="Level of detail strategy based on distance from camera to an object&#39;s bounding sphere.">
<polygon fill="none" stroke="black" points="428.94,-94.5 428.94,-112.5 597.81,-112.5 597.81,-94.5 428.94,-94.5"/>
<text text-anchor="middle" x="513.37" y="-100.5" font-family="Helvetica,sans-Serif" font-size="10.00">Ogre::DistanceLodSphereStrategy</text>
</a>
</g>
</g>
<!-- Node3&#45;&gt;Node5 -->
<g id="edge4" class="edge">
<title>Node3&#45;&gt;Node5</title>
<path fill="none" stroke="midnightblue" d="M398.26,-103.5C408.36,-103.5 418.63,-103.5 428.66,-103.5"/>
<polygon fill="midnightblue" stroke="midnightblue" points="398.23,-100 388.23,-103.5 398.23,-107 398.23,-100"/>
</g>
<!-- Node7 -->
<g id="node7" class="node">
<title>Node7</title>
<g id="a_node7"><a xlink:href="class_ogre_1_1_absolute_pixel_count_lod_strategy.html" target="_top" xlink:title=" ">
<polygon fill="none" stroke="black" points="447.84,-47.5 447.84,-75.5 578.9,-75.5 578.9,-47.5 447.84,-47.5"/>
<text text-anchor="start" x="455.84" y="-63.5" font-family="Helvetica,sans-Serif" font-size="10.00">Ogre::AbsolutePixelCount</text>
<text text-anchor="middle" x="513.37" y="-53.5" font-family="Helvetica,sans-Serif" font-size="10.00">LodStrategy</text>
</a>
</g>
</g>
<!-- Node6&#45;&gt;Node7 -->
<g id="edge6" class="edge">
<title>Node6&#45;&gt;Node7</title>
<path fill="none" stroke="midnightblue" d="M403.51,-61.5C418.49,-61.5 433.69,-61.5 447.79,-61.5"/>
<polygon fill="midnightblue" stroke="midnightblue" points="403.19,-58 393.19,-61.5 403.19,-65 403.19,-58"/>
</g>
<!-- Node8 -->
<g id="node8" class="node">
<title>Node8</title>
<g id="a_node8"><a xlink:href="class_ogre_1_1_screen_ratio_pixel_count_lod_strategy.html" target="_top" xlink:title=" ">
<polygon fill="none" stroke="black" points="439.78,-0.5 439.78,-28.5 586.96,-28.5 586.96,-0.5 439.78,-0.5"/>
<text text-anchor="start" x="447.78" y="-16.5" font-family="Helvetica,sans-Serif" font-size="10.00">Ogre::ScreenRatioPixelCount</text>
<text text-anchor="middle" x="513.37" y="-6.5" font-family="Helvetica,sans-Serif" font-size="10.00">LodStrategy</text>
</a>
</g>
</g>
<!-- Node6&#45;&gt;Node8 -->
<g id="edge7" class="edge">
<title>Node6&#45;&gt;Node8</title>
<path fill="none" stroke="midnightblue" d="M358.6,-50.13C386.65,-43.63 422.05,-35.43 451.82,-28.53"/>
<polygon fill="midnightblue" stroke="midnightblue" points="357.57,-46.77 348.62,-52.44 359.15,-53.59 357.57,-46.77"/>
</g>
</g>
</svg>
