<?xml version="1.0" encoding="UTF-8" standalone="no"?>
<!DOCTYPE svg PUBLIC "-//W3C//DTD SVG 1.1//EN"
 "http://www.w3.org/Graphics/SVG/1.1/DTD/svg11.dtd">
<!-- Generated by graphviz version 2.43.0 (0)
 -->
<!-- Title: Ogre::VctLighting Pages: 1 -->
<svg width="238pt" height="82pt"
 viewBox="0.00 0.00 238.04 82.00" xmlns="http://www.w3.org/2000/svg" xmlns:xlink="http://www.w3.org/1999/xlink">
<g id="graph0" class="graph" transform="scale(1 1) rotate(0) translate(4 78)">
<title>Ogre::VctLighting</title>
<!-- Node1 -->
<g id="node1" class="node">
<title>Node1</title>
<g id="a_node1"><a xlink:title=" ">
<polygon fill="#bfbfbf" stroke="black" points="55.88,-0.5 55.88,-18.5 149.15,-18.5 149.15,-0.5 55.88,-0.5"/>
<text text-anchor="middle" x="102.51" y="-6.5" font-family="Helvetica,sans-Serif" font-size="10.00">Ogre::VctLighting</text>
</a>
</g>
</g>
<!-- Node2 -->
<g id="node2" class="node">
<title>Node2</title>
<g id="a_node2"><a xlink:href="class_ogre_1_1_id_object.html" target="_top" xlink:title=" ">
<polygon fill="none" stroke="black" points="0,-55.5 0,-73.5 81.03,-73.5 81.03,-55.5 0,-55.5"/>
<text text-anchor="middle" x="40.51" y="-61.5" font-family="Helvetica,sans-Serif" font-size="10.00">Ogre::IdObject</text>
</a>
</g>
</g>
<!-- Node2&#45;&gt;Node1 -->
<g id="edge1" class="edge">
<title>Node2&#45;&gt;Node1</title>
<path fill="none" stroke="midnightblue" d="M57.56,-48.93C68.99,-39.16 83.6,-26.67 93.01,-18.63"/>
<polygon fill="midnightblue" stroke="midnightblue" points="55.26,-46.29 49.93,-55.45 59.81,-51.61 55.26,-46.29"/>
</g>
<!-- Node3 -->
<g id="node3" class="node">
<title>Node3</title>
<g id="a_node3"><a xlink:href="class_ogre_1_1_texture_gpu_listener.html" target="_top" xlink:title=" ">
<polygon fill="none" stroke="black" points="98.99,-55.5 98.99,-73.5 230.04,-73.5 230.04,-55.5 98.99,-55.5"/>
<text text-anchor="middle" x="164.51" y="-61.5" font-family="Helvetica,sans-Serif" font-size="10.00">Ogre::TextureGpuListener</text>
</a>
</g>
</g>
<!-- Node3&#45;&gt;Node1 -->
<g id="edge2" class="edge">
<title>Node3&#45;&gt;Node1</title>
<path fill="none" stroke="midnightblue" d="M147.47,-48.93C136.04,-39.16 121.43,-26.67 112.02,-18.63"/>
<polygon fill="midnightblue" stroke="midnightblue" points="145.22,-51.61 155.1,-55.45 149.77,-46.29 145.22,-51.61"/>
</g>
</g>
</svg>
