<?xml version="1.0" encoding="UTF-8" standalone="no"?>
<!DOCTYPE svg PUBLIC "-//W3C//DTD SVG 1.1//EN"
 "http://www.w3.org/Graphics/SVG/1.1/DTD/svg11.dtd">
<!-- Generated by graphviz version 2.43.0 (0)
 -->
<!-- Title: Ogre::RTShader::FFPFog Pages: 1 -->
<svg width="153pt" height="147pt"
 viewBox="0.00 0.00 153.34 147.00" xmlns="http://www.w3.org/2000/svg" xmlns:xlink="http://www.w3.org/1999/xlink">
<g id="graph0" class="graph" transform="scale(1 1) rotate(0) translate(4 143)">
<title>Ogre::RTShader::FFPFog</title>
<!-- Node1 -->
<g id="node1" class="node">
<title>Node1</title>
<g id="a_node1"><a xlink:title="Fog sub render state implementation of the Fixed Function Pipeline.">
<polygon fill="#bfbfbf" stroke="black" points="7.24,-0.5 7.24,-18.5 138.1,-18.5 138.1,-0.5 7.24,-0.5"/>
<text text-anchor="middle" x="72.67" y="-6.5" font-family="Helvetica,sans-Serif" font-size="10.00">Ogre::RTShader::FFPFog</text>
</a>
</g>
</g>
<!-- Node2 -->
<g id="node2" class="node">
<title>Node2</title>
<g id="a_node2"><a xlink:href="class_ogre_1_1_r_t_shader_1_1_sub_render_state.html" target="_top" xlink:title="This class is the base interface of sub part from a shader based rendering pipeline.">
<polygon fill="none" stroke="black" points="0,-55.5 0,-83.5 145.34,-83.5 145.34,-55.5 0,-55.5"/>
<text text-anchor="start" x="8" y="-71.5" font-family="Helvetica,sans-Serif" font-size="10.00">Ogre::RTShader::SubRender</text>
<text text-anchor="middle" x="72.67" y="-61.5" font-family="Helvetica,sans-Serif" font-size="10.00">State</text>
</a>
</g>
</g>
<!-- Node2&#45;&gt;Node1 -->
<g id="edge1" class="edge">
<title>Node2&#45;&gt;Node1</title>
<path fill="none" stroke="midnightblue" d="M72.67,-45.32C72.67,-35.94 72.67,-25.7 72.67,-18.77"/>
<polygon fill="midnightblue" stroke="midnightblue" points="69.17,-45.34 72.67,-55.34 76.17,-45.34 69.17,-45.34"/>
</g>
<!-- Node3 -->
<g id="node3" class="node">
<title>Node3</title>
<g id="a_node3"><a xlink:href="class_ogre_1_1_allocated_object.html" target="_top" xlink:title="Superclass for all objects that wish to use custom memory allocators when their new / delete operator...">
<polygon fill="none" stroke="black" points="14.46,-120.5 14.46,-138.5 130.88,-138.5 130.88,-120.5 14.46,-120.5"/>
<text text-anchor="middle" x="72.67" y="-126.5" font-family="Helvetica,sans-Serif" font-size="10.00">RTShaderSystemAlloc</text>
</a>
</g>
</g>
<!-- Node3&#45;&gt;Node2 -->
<g id="edge2" class="edge">
<title>Node3&#45;&gt;Node2</title>
<path fill="none" stroke="midnightblue" d="M72.67,-110.32C72.67,-101.75 72.67,-91.7 72.67,-83.84"/>
<polygon fill="midnightblue" stroke="midnightblue" points="69.17,-110.44 72.67,-120.44 76.17,-110.44 69.17,-110.44"/>
</g>
</g>
</svg>
