<?xml version="1.0" encoding="UTF-8" standalone="no"?>
<!DOCTYPE svg PUBLIC "-//W3C//DTD SVG 1.1//EN"
 "http://www.w3.org/Graphics/SVG/1.1/DTD/svg11.dtd">
<!-- Generated by graphviz version 2.43.0 (0)
 -->
<!-- Title: Ogre::ImageCodec Pages: 1 -->
<svg width="352pt" height="192pt"
 viewBox="0.00 0.00 352.43 192.00" xmlns="http://www.w3.org/2000/svg" xmlns:xlink="http://www.w3.org/1999/xlink">
<g id="graph0" class="graph" transform="scale(1 1) rotate(0) translate(4 188)">
<title>Ogre::ImageCodec</title>
<!-- Node1 -->
<g id="node1" class="node">
<title>Node1</title>
<g id="a_node1"><a xlink:title="Codec specialized in images.">
<polygon fill="#bfbfbf" stroke="black" points="108.66,-55.5 108.66,-73.5 209.15,-73.5 209.15,-55.5 108.66,-55.5"/>
<text text-anchor="middle" x="158.9" y="-61.5" font-family="Helvetica,sans-Serif" font-size="10.00">Ogre::ImageCodec</text>
</a>
</g>
</g>
<!-- Node4 -->
<g id="node4" class="node">
<title>Node4</title>
<g id="a_node4"><a xlink:href="class_ogre_1_1_d_d_s_codec.html" target="_top" xlink:title="Codec specialized in loading DDS (Direct Draw Surface) images.">
<polygon fill="none" stroke="black" points="0,-0.5 0,-18.5 93.81,-18.5 93.81,-0.5 0,-0.5"/>
<text text-anchor="middle" x="46.9" y="-6.5" font-family="Helvetica,sans-Serif" font-size="10.00">Ogre::DDSCodec</text>
</a>
</g>
</g>
<!-- Node1&#45;&gt;Node4 -->
<g id="edge3" class="edge">
<title>Node1&#45;&gt;Node4</title>
<path fill="none" stroke="midnightblue" d="M132.8,-51.15C111.63,-41.13 82.39,-27.29 64.07,-18.63"/>
<polygon fill="midnightblue" stroke="midnightblue" points="131.36,-54.34 141.89,-55.45 134.35,-48.01 131.36,-54.34"/>
</g>
<!-- Node5 -->
<g id="node5" class="node">
<title>Node5</title>
<g id="a_node5"><a xlink:href="class_ogre_1_1_e_x_r_codec.html" target="_top" xlink:title="Codec specialized in loading OpenEXR high dynamic range images.">
<polygon fill="none" stroke="black" points="112.28,-0.5 112.28,-18.5 205.53,-18.5 205.53,-0.5 112.28,-0.5"/>
<text text-anchor="middle" x="158.9" y="-6.5" font-family="Helvetica,sans-Serif" font-size="10.00">Ogre::EXRCodec</text>
</a>
</g>
</g>
<!-- Node1&#45;&gt;Node5 -->
<g id="edge4" class="edge">
<title>Node1&#45;&gt;Node5</title>
<path fill="none" stroke="midnightblue" d="M158.9,-45.17C158.9,-36.09 158.9,-25.59 158.9,-18.55"/>
<polygon fill="midnightblue" stroke="midnightblue" points="155.4,-45.22 158.9,-55.22 162.4,-45.22 155.4,-45.22"/>
</g>
<!-- Node6 -->
<g id="node6" class="node">
<title>Node6</title>
<g id="a_node6"><a xlink:href="class_ogre_1_1_free_image_codec.html" target="_top" xlink:title="Codec specialized in images loaded using FreeImage.">
<polygon fill="none" stroke="black" points="223.38,-0.5 223.38,-18.5 344.43,-18.5 344.43,-0.5 223.38,-0.5"/>
<text text-anchor="middle" x="283.9" y="-6.5" font-family="Helvetica,sans-Serif" font-size="10.00">Ogre::FreeImageCodec</text>
</a>
</g>
</g>
<!-- Node1&#45;&gt;Node6 -->
<g id="edge5" class="edge">
<title>Node1&#45;&gt;Node6</title>
<path fill="none" stroke="midnightblue" d="M187.4,-51.42C211.07,-41.38 244.11,-27.37 264.74,-18.63"/>
<polygon fill="midnightblue" stroke="midnightblue" points="185.73,-48.32 177.89,-55.45 188.46,-54.77 185.73,-48.32"/>
</g>
<!-- Node2 -->
<g id="node2" class="node">
<title>Node2</title>
<g id="a_node2"><a xlink:href="class_ogre_1_1_codec.html" target="_top" xlink:title="Abstract class that defines a &#39;codec&#39;.">
<polygon fill="none" stroke="black" points="122.56,-110.5 122.56,-128.5 195.25,-128.5 195.25,-110.5 122.56,-110.5"/>
<text text-anchor="middle" x="158.9" y="-116.5" font-family="Helvetica,sans-Serif" font-size="10.00">Ogre::Codec</text>
</a>
</g>
</g>
<!-- Node2&#45;&gt;Node1 -->
<g id="edge1" class="edge">
<title>Node2&#45;&gt;Node1</title>
<path fill="none" stroke="midnightblue" d="M158.9,-100.17C158.9,-91.09 158.9,-80.59 158.9,-73.55"/>
<polygon fill="midnightblue" stroke="midnightblue" points="155.4,-100.22 158.9,-110.22 162.4,-100.22 155.4,-100.22"/>
</g>
<!-- Node3 -->
<g id="node3" class="node">
<title>Node3</title>
<g id="a_node3"><a xlink:href="class_ogre_1_1_allocated_object.html" target="_top" xlink:title="Superclass for all objects that wish to use custom memory allocators when their new / delete operator...">
<polygon fill="none" stroke="black" points="125.61,-165.5 125.61,-183.5 192.19,-183.5 192.19,-165.5 125.61,-165.5"/>
<text text-anchor="middle" x="158.9" y="-171.5" font-family="Helvetica,sans-Serif" font-size="10.00">CodecAlloc</text>
</a>
</g>
</g>
<!-- Node3&#45;&gt;Node2 -->
<g id="edge2" class="edge">
<title>Node3&#45;&gt;Node2</title>
<path fill="none" stroke="midnightblue" d="M158.9,-155.17C158.9,-146.09 158.9,-135.59 158.9,-128.55"/>
<polygon fill="midnightblue" stroke="midnightblue" points="155.4,-155.22 158.9,-165.22 162.4,-155.22 155.4,-155.22"/>
</g>
</g>
</svg>
