<?xml version="1.0" encoding="UTF-8" standalone="no"?>
<!DOCTYPE svg PUBLIC "-//W3C//DTD SVG 1.1//EN"
 "http://www.w3.org/Graphics/SVG/1.1/DTD/svg11.dtd">
<!-- Generated by graphviz version 2.43.0 (0)
 -->
<!-- Title: Ogre::ParallaxCorrectedCubemap Pages: 1 -->
<svg width="335pt" height="147pt"
 viewBox="0.00 0.00 334.64 147.00" xmlns="http://www.w3.org/2000/svg" xmlns:xlink="http://www.w3.org/1999/xlink">
<g id="graph0" class="graph" transform="scale(1 1) rotate(0) translate(4 143)">
<title>Ogre::ParallaxCorrectedCubemap</title>
<!-- Node1 -->
<g id="node1" class="node">
<title>Node1</title>
<g id="a_node1"><a xlink:title=" ">
<polygon fill="#bfbfbf" stroke="black" points="104.92,-0.5 104.92,-18.5 272.11,-18.5 272.11,-0.5 104.92,-0.5"/>
<text text-anchor="middle" x="188.51" y="-6.5" font-family="Helvetica,sans-Serif" font-size="10.00">Ogre::ParallaxCorrectedCubemap</text>
</a>
</g>
</g>
<!-- Node2 -->
<g id="node2" class="node">
<title>Node2</title>
<g id="a_node2"><a xlink:href="class_ogre_1_1_parallax_corrected_cubemap_base.html" target="_top" xlink:title=" ">
<polygon fill="none" stroke="black" points="10.53,-55.5 10.53,-73.5 200.5,-73.5 200.5,-55.5 10.53,-55.5"/>
<text text-anchor="middle" x="105.51" y="-61.5" font-family="Helvetica,sans-Serif" font-size="10.00">Ogre::ParallaxCorrectedCubemapBase</text>
</a>
</g>
</g>
<!-- Node2&#45;&gt;Node1 -->
<g id="edge1" class="edge">
<title>Node2&#45;&gt;Node1</title>
<path fill="none" stroke="midnightblue" d="M126.58,-50.05C142.1,-40.14 162.7,-26.98 175.79,-18.63"/>
<polygon fill="midnightblue" stroke="midnightblue" points="124.67,-47.12 118.12,-55.45 128.43,-53.02 124.67,-47.12"/>
</g>
<!-- Node3 -->
<g id="node3" class="node">
<title>Node3</title>
<g id="a_node3"><a xlink:href="class_ogre_1_1_id_object.html" target="_top" xlink:title=" ">
<polygon fill="none" stroke="black" points="0,-115.5 0,-133.5 81.03,-133.5 81.03,-115.5 0,-115.5"/>
<text text-anchor="middle" x="40.51" y="-121.5" font-family="Helvetica,sans-Serif" font-size="10.00">Ogre::IdObject</text>
</a>
</g>
</g>
<!-- Node3&#45;&gt;Node2 -->
<g id="edge2" class="edge">
<title>Node3&#45;&gt;Node2</title>
<path fill="none" stroke="midnightblue" d="M57.34,-108.48C69.69,-97.46 86.01,-82.9 96.13,-73.87"/>
<polygon fill="midnightblue" stroke="midnightblue" points="54.68,-106.17 49.55,-115.44 59.34,-111.39 54.68,-106.17"/>
</g>
<!-- Node4 -->
<g id="node4" class="node">
<title>Node4</title>
<g id="a_node4"><a xlink:href="class_ogre_1_1_compositor_workspace_listener.html" target="_top" xlink:title=" ">
<polygon fill="none" stroke="black" points="99.14,-110.5 99.14,-138.5 243.89,-138.5 243.89,-110.5 99.14,-110.5"/>
<text text-anchor="start" x="107.14" y="-126.5" font-family="Helvetica,sans-Serif" font-size="10.00">Ogre::CompositorWorkspace</text>
<text text-anchor="middle" x="171.51" y="-116.5" font-family="Helvetica,sans-Serif" font-size="10.00">Listener</text>
</a>
</g>
</g>
<!-- Node4&#45;&gt;Node2 -->
<g id="edge3" class="edge">
<title>Node4&#45;&gt;Node2</title>
<path fill="none" stroke="midnightblue" d="M148.88,-103.61C137.27,-93.4 123.74,-81.52 114.93,-73.77"/>
<polygon fill="midnightblue" stroke="midnightblue" points="146.72,-106.37 156.54,-110.34 151.34,-101.11 146.72,-106.37"/>
</g>
<!-- Node5 -->
<g id="node5" class="node">
<title>Node5</title>
<g id="a_node5"><a xlink:href="class_ogre_1_1_frame_listener.html" target="_top" xlink:title="A interface class defining a listener which can be used to receive notifications of frame events.">
<polygon fill="none" stroke="black" points="218.39,-55.5 218.39,-73.5 326.64,-73.5 326.64,-55.5 218.39,-55.5"/>
<text text-anchor="middle" x="272.51" y="-61.5" font-family="Helvetica,sans-Serif" font-size="10.00">Ogre::FrameListener</text>
</a>
</g>
</g>
<!-- Node5&#45;&gt;Node1 -->
<g id="edge4" class="edge">
<title>Node5&#45;&gt;Node1</title>
<path fill="none" stroke="midnightblue" d="M251.2,-50.05C235.49,-40.14 214.64,-26.98 201.39,-18.63"/>
<polygon fill="midnightblue" stroke="midnightblue" points="249.43,-53.07 259.76,-55.45 253.17,-47.15 249.43,-53.07"/>
</g>
</g>
</svg>
