<?xml version="1.0" encoding="UTF-8" standalone="no"?>
<!DOCTYPE svg PUBLIC "-//W3C//DTD SVG 1.1//EN"
 "http://www.w3.org/Graphics/SVG/1.1/DTD/svg11.dtd">
<!-- Generated by graphviz version 2.43.0 (0)
 -->
<!-- Title: Ogre::PagedWorldSection Pages: 1 -->
<svg width="171pt" height="137pt"
 viewBox="0.00 0.00 170.56 137.00" xmlns="http://www.w3.org/2000/svg" xmlns:xlink="http://www.w3.org/1999/xlink">
<g id="graph0" class="graph" transform="scale(1 1) rotate(0) translate(4 133)">
<title>Ogre::PagedWorldSection</title>
<!-- Node1 -->
<g id="node1" class="node">
<title>Node1</title>
<g id="a_node1"><a xlink:title="Represents a section of the PagedWorld which uses a given PageStrategy, and which is made up of a gen...">
<polygon fill="#bfbfbf" stroke="black" points="15.28,-55.5 15.28,-73.5 147.28,-73.5 147.28,-55.5 15.28,-55.5"/>
<text text-anchor="middle" x="81.28" y="-61.5" font-family="Helvetica,sans-Serif" font-size="10.00">Ogre::PagedWorldSection</text>
</a>
</g>
</g>
<!-- Node3 -->
<g id="node3" class="node">
<title>Node3</title>
<g id="a_node3"><a xlink:href="class_ogre_1_1_terrain_paged_world_section.html" target="_top" xlink:title="A world section which includes paged terrain.">
<polygon fill="none" stroke="black" points="0,-0.5 0,-18.5 162.56,-18.5 162.56,-0.5 0,-0.5"/>
<text text-anchor="middle" x="81.28" y="-6.5" font-family="Helvetica,sans-Serif" font-size="10.00">Ogre::TerrainPagedWorldSection</text>
</a>
</g>
</g>
<!-- Node1&#45;&gt;Node3 -->
<g id="edge2" class="edge">
<title>Node1&#45;&gt;Node3</title>
<path fill="none" stroke="midnightblue" d="M81.28,-45.17C81.28,-36.09 81.28,-25.59 81.28,-18.55"/>
<polygon fill="midnightblue" stroke="midnightblue" points="77.78,-45.22 81.28,-55.22 84.78,-45.22 77.78,-45.22"/>
</g>
<!-- Node2 -->
<g id="node2" class="node">
<title>Node2</title>
<g id="a_node2"><a xlink:href="class_ogre_1_1_allocated_object.html" target="_top" xlink:title="Superclass for all objects that wish to use custom memory allocators when their new / delete operator...">
<polygon fill="none" stroke="black" points="50.77,-110.5 50.77,-128.5 111.8,-128.5 111.8,-110.5 50.77,-110.5"/>
<text text-anchor="middle" x="81.28" y="-116.5" font-family="Helvetica,sans-Serif" font-size="10.00">PageAlloc</text>
</a>
</g>
</g>
<!-- Node2&#45;&gt;Node1 -->
<g id="edge1" class="edge">
<title>Node2&#45;&gt;Node1</title>
<path fill="none" stroke="midnightblue" d="M81.28,-100.17C81.28,-91.09 81.28,-80.59 81.28,-73.55"/>
<polygon fill="midnightblue" stroke="midnightblue" points="77.78,-100.22 81.28,-110.22 84.78,-100.22 77.78,-100.22"/>
</g>
</g>
</svg>
