<?xml version="1.0" encoding="UTF-8" standalone="no"?>
<!DOCTYPE svg PUBLIC "-//W3C//DTD SVG 1.1//EN"
 "http://www.w3.org/Graphics/SVG/1.1/DTD/svg11.dtd">
<!-- Generated by graphviz version 2.43.0 (0)
 -->
<!-- Title: Ogre::NULLWindow Pages: 1 -->
<svg width="112pt" height="137pt"
 viewBox="0.00 0.00 112.18 137.00" xmlns="http://www.w3.org/2000/svg" xmlns:xlink="http://www.w3.org/1999/xlink">
<g id="graph0" class="graph" transform="scale(1 1) rotate(0) translate(4 133)">
<title>Ogre::NULLWindow</title>
<!-- Node1 -->
<g id="node1" class="node">
<title>Node1</title>
<g id="a_node1"><a xlink:title=" ">
<polygon fill="#bfbfbf" stroke="black" points="0,-0.5 0,-18.5 104.18,-18.5 104.18,-0.5 0,-0.5"/>
<text text-anchor="middle" x="52.09" y="-6.5" font-family="Helvetica,sans-Serif" font-size="10.00">Ogre::NULLWindow</text>
</a>
</g>
</g>
<!-- Node2 -->
<g id="node2" class="node">
<title>Node2</title>
<g id="a_node2"><a xlink:href="class_ogre_1_1_window.html" target="_top" xlink:title=" ">
<polygon fill="none" stroke="black" points="12.41,-55.5 12.41,-73.5 91.77,-73.5 91.77,-55.5 12.41,-55.5"/>
<text text-anchor="middle" x="52.09" y="-61.5" font-family="Helvetica,sans-Serif" font-size="10.00">Ogre::Window</text>
</a>
</g>
</g>
<!-- Node2&#45;&gt;Node1 -->
<g id="edge1" class="edge">
<title>Node2&#45;&gt;Node1</title>
<path fill="none" stroke="midnightblue" d="M52.09,-45.17C52.09,-36.09 52.09,-25.59 52.09,-18.55"/>
<polygon fill="midnightblue" stroke="midnightblue" points="48.59,-45.22 52.09,-55.22 55.59,-45.22 48.59,-45.22"/>
</g>
<!-- Node3 -->
<g id="node3" class="node">
<title>Node3</title>
<g id="a_node3"><a xlink:href="class_ogre_1_1_allocated_object.html" target="_top" xlink:title="Superclass for all objects that wish to use custom memory allocators when their new / delete operator...">
<polygon fill="none" stroke="black" points="8.52,-110.5 8.52,-128.5 95.66,-128.5 95.66,-110.5 8.52,-110.5"/>
<text text-anchor="middle" x="52.09" y="-116.5" font-family="Helvetica,sans-Serif" font-size="10.00">RenderSysAlloc</text>
</a>
</g>
</g>
<!-- Node3&#45;&gt;Node2 -->
<g id="edge2" class="edge">
<title>Node3&#45;&gt;Node2</title>
<path fill="none" stroke="midnightblue" d="M52.09,-100.17C52.09,-91.09 52.09,-80.59 52.09,-73.55"/>
<polygon fill="midnightblue" stroke="midnightblue" points="48.59,-100.22 52.09,-110.22 55.59,-100.22 48.59,-100.22"/>
</g>
</g>
</svg>
