<?xml version="1.0" encoding="UTF-8" standalone="no"?>
<!DOCTYPE svg PUBLIC "-//W3C//DTD SVG 1.1//EN"
 "http://www.w3.org/Graphics/SVG/1.1/DTD/svg11.dtd">
<!-- Generated by graphviz version 2.43.0 (0)
 -->
<!-- Title: Ogre::BspResourceManager Pages: 1 -->
<svg width="347pt" height="147pt"
 viewBox="0.00 0.00 347.31 147.00" xmlns="http://www.w3.org/2000/svg" xmlns:xlink="http://www.w3.org/1999/xlink">
<g id="graph0" class="graph" transform="scale(1 1) rotate(0) translate(4 143)">
<title>Ogre::BspResourceManager</title>
<!-- Node1 -->
<g id="node1" class="node">
<title>Node1</title>
<g id="a_node1"><a xlink:title="Manages the locating and loading of BSP&#45;based indoor levels.">
<polygon fill="#bfbfbf" stroke="black" points="111.6,-0.5 111.6,-18.5 254.89,-18.5 254.89,-0.5 111.6,-0.5"/>
<text text-anchor="middle" x="183.24" y="-6.5" font-family="Helvetica,sans-Serif" font-size="10.00">Ogre::BspResourceManager</text>
</a>
</g>
</g>
<!-- Node2 -->
<g id="node2" class="node">
<title>Node2</title>
<g id="a_node2"><a xlink:href="class_ogre_1_1_resource_manager.html" target="_top" xlink:title="Defines a generic resource handler.">
<polygon fill="none" stroke="black" points="41.22,-60.5 41.22,-78.5 167.27,-78.5 167.27,-60.5 41.22,-60.5"/>
<text text-anchor="middle" x="104.24" y="-66.5" font-family="Helvetica,sans-Serif" font-size="10.00">Ogre::ResourceManager</text>
</a>
</g>
</g>
<!-- Node2&#45;&gt;Node1 -->
<g id="edge1" class="edge">
<title>Node2&#45;&gt;Node1</title>
<path fill="none" stroke="midnightblue" d="M123.46,-54.39C138.71,-43.2 159.48,-27.95 172.1,-18.68"/>
<polygon fill="midnightblue" stroke="midnightblue" points="121.22,-51.7 115.23,-60.44 125.36,-57.34 121.22,-51.7"/>
</g>
<!-- Node3 -->
<g id="node3" class="node">
<title>Node3</title>
<g id="a_node3"><a xlink:href="class_ogre_1_1_script_loader.html" target="_top" xlink:title="Abstract class defining the interface used by classes which wish to perform script loading to define ...">
<polygon fill="none" stroke="black" points="0,-120.5 0,-138.5 100.49,-138.5 100.49,-120.5 0,-120.5"/>
<text text-anchor="middle" x="50.24" y="-126.5" font-family="Helvetica,sans-Serif" font-size="10.00">Ogre::ScriptLoader</text>
</a>
</g>
</g>
<!-- Node3&#45;&gt;Node2 -->
<g id="edge2" class="edge">
<title>Node3&#45;&gt;Node2</title>
<path fill="none" stroke="midnightblue" d="M64.82,-112.84C75,-101.91 88.2,-87.73 96.45,-78.87"/>
<polygon fill="midnightblue" stroke="midnightblue" points="62,-110.73 57.75,-120.44 67.13,-115.5 62,-110.73"/>
</g>
<!-- Node4 -->
<g id="node4" class="node">
<title>Node4</title>
<g id="a_node4"><a xlink:href="class_ogre_1_1_allocated_object.html" target="_top" xlink:title="Superclass for all objects that wish to use custom memory allocators when their new / delete operator...">
<polygon fill="none" stroke="black" points="118.01,-120.5 118.01,-138.5 198.48,-138.5 198.48,-120.5 118.01,-120.5"/>
<text text-anchor="middle" x="158.24" y="-126.5" font-family="Helvetica,sans-Serif" font-size="10.00">ResourceAlloc</text>
</a>
</g>
</g>
<!-- Node4&#45;&gt;Node2 -->
<g id="edge3" class="edge">
<title>Node4&#45;&gt;Node2</title>
<path fill="none" stroke="midnightblue" d="M143.67,-112.84C133.48,-101.91 120.28,-87.73 112.04,-78.87"/>
<polygon fill="midnightblue" stroke="midnightblue" points="141.36,-115.5 150.74,-120.44 146.48,-110.73 141.36,-115.5"/>
</g>
<!-- Node5 -->
<g id="node5" class="node">
<title>Node5</title>
<g id="a_node5"><a xlink:href="class_ogre_1_1_singleton.html" target="_top" xlink:title=" ">
<polygon fill="none" stroke="black" points="185.18,-55.5 185.18,-83.5 339.31,-83.5 339.31,-55.5 185.18,-55.5"/>
<text text-anchor="start" x="193.18" y="-71.5" font-family="Helvetica,sans-Serif" font-size="10.00">Ogre::Singleton&lt; BspResource</text>
<text text-anchor="middle" x="262.24" y="-61.5" font-family="Helvetica,sans-Serif" font-size="10.00">Manager &gt;</text>
</a>
</g>
</g>
<!-- Node5&#45;&gt;Node1 -->
<g id="edge4" class="edge">
<title>Node5&#45;&gt;Node1</title>
<path fill="none" stroke="midnightblue" d="M235.95,-49.2C221.88,-38.86 205.27,-26.67 194.51,-18.77"/>
<polygon fill="midnightblue" stroke="midnightblue" points="234.19,-52.24 244.32,-55.34 238.33,-46.6 234.19,-52.24"/>
</g>
</g>
</svg>
