<?xml version="1.0" encoding="UTF-8" standalone="no"?>
<!DOCTYPE svg PUBLIC "-//W3C//DTD SVG 1.1//EN"
 "http://www.w3.org/Graphics/SVG/1.1/DTD/svg11.dtd">
<!-- Generated by graphviz version 2.43.0 (0)
 -->
<!-- Title: Ogre::GLSLESProgramPipelineManager Pages: 1 -->
<svg width="358pt" height="102pt"
 viewBox="0.00 0.00 357.94 102.00" xmlns="http://www.w3.org/2000/svg" xmlns:xlink="http://www.w3.org/1999/xlink">
<g id="graph0" class="graph" transform="scale(1 1) rotate(0) translate(4 98)">
<title>Ogre::GLSLESProgramPipelineManager</title>
<!-- Node1 -->
<g id="node1" class="node">
<title>Node1</title>
<g id="a_node1"><a xlink:title="Ogre assumes that there are separate vertex and fragment programs to deal with but GLSL ES has one pr...">
<polygon fill="#bfbfbf" stroke="black" points="93.94,-0.5 93.94,-28.5 250.57,-28.5 250.57,-0.5 93.94,-0.5"/>
<text text-anchor="start" x="101.94" y="-16.5" font-family="Helvetica,sans-Serif" font-size="10.00">Ogre::GLSLESProgramPipeline</text>
<text text-anchor="middle" x="172.26" y="-6.5" font-family="Helvetica,sans-Serif" font-size="10.00">Manager</text>
</a>
</g>
</g>
<!-- Node2 -->
<g id="node2" class="node">
<title>Node2</title>
<g id="a_node2"><a xlink:href="class_ogre_1_1_g_l_s_l_e_s_program_manager_common.html" target="_top" xlink:title="Ogre assumes that there are separate programs to deal with but GLSL ES has one program object that re...">
<polygon fill="none" stroke="black" points="0,-65.5 0,-93.5 160.51,-93.5 160.51,-65.5 0,-65.5"/>
<text text-anchor="start" x="8" y="-81.5" font-family="Helvetica,sans-Serif" font-size="10.00">Ogre::GLSLESProgramManager</text>
<text text-anchor="middle" x="80.26" y="-71.5" font-family="Helvetica,sans-Serif" font-size="10.00">Common</text>
</a>
</g>
</g>
<!-- Node2&#45;&gt;Node1 -->
<g id="edge1" class="edge">
<title>Node2&#45;&gt;Node1</title>
<path fill="none" stroke="midnightblue" d="M107.97,-59.52C122.59,-49.51 140.15,-37.49 153.22,-28.54"/>
<polygon fill="midnightblue" stroke="midnightblue" points="105.59,-56.91 99.32,-65.45 109.55,-62.68 105.59,-56.91"/>
</g>
<!-- Node3 -->
<g id="node3" class="node">
<title>Node3</title>
<g id="a_node3"><a xlink:href="class_ogre_1_1_singleton.html" target="_top" xlink:title=" ">
<polygon fill="none" stroke="black" points="178.58,-65.5 178.58,-93.5 349.94,-93.5 349.94,-65.5 178.58,-65.5"/>
<text text-anchor="start" x="186.58" y="-81.5" font-family="Helvetica,sans-Serif" font-size="10.00">Ogre::Singleton&lt; GLSLESProgram</text>
<text text-anchor="middle" x="264.26" y="-71.5" font-family="Helvetica,sans-Serif" font-size="10.00">PipelineManager &gt;</text>
</a>
</g>
</g>
<!-- Node3&#45;&gt;Node1 -->
<g id="edge2" class="edge">
<title>Node3&#45;&gt;Node1</title>
<path fill="none" stroke="midnightblue" d="M236.54,-59.52C221.92,-49.51 204.36,-37.49 191.29,-28.54"/>
<polygon fill="midnightblue" stroke="midnightblue" points="234.96,-62.68 245.19,-65.45 238.92,-56.91 234.96,-62.68"/>
</g>
</g>
</svg>
