<?xml version="1.0" encoding="UTF-8" standalone="no"?>
<!DOCTYPE svg PUBLIC "-//W3C//DTD SVG 1.1//EN"
 "http://www.w3.org/Graphics/SVG/1.1/DTD/svg11.dtd">
<!-- Generated by graphviz version 2.43.0 (0)
 -->
<!-- Title: Ogre::MultiSourceVertexBufferPool Pages: 1 -->
<svg width="506pt" height="178pt"
 viewBox="0.00 0.00 506.17 178.00" xmlns="http://www.w3.org/2000/svg" xmlns:xlink="http://www.w3.org/1999/xlink">
<g id="graph0" class="graph" transform="scale(1 1) rotate(0) translate(4 174)">
<title>Ogre::MultiSourceVertexBufferPool</title>
<!-- Node1 -->
<g id="node1" class="node">
<title>Node1</title>
<g id="a_node1"><a xlink:title="Vertex Array Objects do not need to change when: The same (internal) vertex buffer is still bound.">
<polygon fill="#bfbfbf" stroke="black" points="133.53,-75.5 133.53,-93.5 304.99,-93.5 304.99,-75.5 133.53,-75.5"/>
<text text-anchor="middle" x="219.26" y="-81.5" font-family="Helvetica,sans-Serif" font-size="10.00">Ogre::MultiSourceVertexBufferPool</text>
</a>
</g>
</g>
<!-- Node3 -->
<g id="node3" class="node">
<title>Node3</title>
<g id="a_node3"><a xlink:href="class_ogre_1_1_g_l3_plus_multi_source_vertex_buffer_pool.html" target="_top" xlink:title=" ">
<polygon fill="none" stroke="black" points="352.11,-141.5 352.11,-169.5 487.05,-169.5 487.05,-141.5 352.11,-141.5"/>
<text text-anchor="start" x="360.11" y="-157.5" font-family="Helvetica,sans-Serif" font-size="10.00">Ogre::GL3PlusMultiSource</text>
<text text-anchor="middle" x="419.58" y="-147.5" font-family="Helvetica,sans-Serif" font-size="10.00">VertexBufferPool</text>
</a>
</g>
</g>
<!-- Node1&#45;&gt;Node3 -->
<g id="edge2" class="edge">
<title>Node1&#45;&gt;Node3</title>
<path fill="none" stroke="midnightblue" d="M250.79,-97.52C275.03,-107.65 309.89,-121.73 340.99,-132.5 349.89,-135.58 359.44,-138.62 368.7,-141.44"/>
<polygon fill="midnightblue" stroke="midnightblue" points="251.99,-94.23 241.42,-93.58 249.28,-100.69 251.99,-94.23"/>
</g>
<!-- Node4 -->
<g id="node4" class="node">
<title>Node4</title>
<g id="a_node4"><a xlink:href="class_ogre_1_1_g_l_e_s2_multi_source_vertex_buffer_pool.html" target="_top" xlink:title=" ">
<polygon fill="none" stroke="black" points="340.99,-94.5 340.99,-122.5 498.17,-122.5 498.17,-94.5 340.99,-94.5"/>
<text text-anchor="start" x="348.99" y="-110.5" font-family="Helvetica,sans-Serif" font-size="10.00">Ogre::GLES2MultiSourceVertex</text>
<text text-anchor="middle" x="419.58" y="-100.5" font-family="Helvetica,sans-Serif" font-size="10.00">BufferPool</text>
</a>
</g>
</g>
<!-- Node1&#45;&gt;Node4 -->
<g id="edge3" class="edge">
<title>Node1&#45;&gt;Node4</title>
<path fill="none" stroke="midnightblue" d="M304.66,-94.71C316.64,-96.16 328.92,-97.65 340.77,-99.08"/>
<polygon fill="midnightblue" stroke="midnightblue" points="305.02,-91.23 294.67,-93.5 304.18,-98.18 305.02,-91.23"/>
</g>
<!-- Node5 -->
<g id="node5" class="node">
<title>Node5</title>
<g id="a_node5"><a xlink:href="class_ogre_1_1_metal_multi_source_vertex_buffer_pool.html" target="_top" xlink:title=" ">
<polygon fill="none" stroke="black" points="344.89,-47.5 344.89,-75.5 494.28,-75.5 494.28,-47.5 344.89,-47.5"/>
<text text-anchor="start" x="352.89" y="-63.5" font-family="Helvetica,sans-Serif" font-size="10.00">Ogre::MetalMultiSourceVertex</text>
<text text-anchor="middle" x="419.58" y="-53.5" font-family="Helvetica,sans-Serif" font-size="10.00">BufferPool</text>
</a>
</g>
</g>
<!-- Node1&#45;&gt;Node5 -->
<g id="edge4" class="edge">
<title>Node1&#45;&gt;Node5</title>
<path fill="none" stroke="midnightblue" d="M308.27,-74.29C320.5,-72.88 332.96,-71.43 344.88,-70.05"/>
<polygon fill="midnightblue" stroke="midnightblue" points="307.61,-70.85 298.07,-75.48 308.41,-77.8 307.61,-70.85"/>
</g>
<!-- Node6 -->
<g id="node6" class="node">
<title>Node6</title>
<g id="a_node6"><a xlink:href="class_ogre_1_1_n_u_l_l_multi_source_vertex_buffer_pool.html" target="_top" xlink:title=" ">
<polygon fill="none" stroke="black" points="344.33,-0.5 344.33,-28.5 494.84,-28.5 494.84,-0.5 344.33,-0.5"/>
<text text-anchor="start" x="352.33" y="-16.5" font-family="Helvetica,sans-Serif" font-size="10.00">Ogre::NULLMultiSourceVertex</text>
<text text-anchor="middle" x="419.58" y="-6.5" font-family="Helvetica,sans-Serif" font-size="10.00">BufferPool</text>
</a>
</g>
</g>
<!-- Node1&#45;&gt;Node6 -->
<g id="edge5" class="edge">
<title>Node1&#45;&gt;Node6</title>
<path fill="none" stroke="midnightblue" d="M251.26,-71.61C275.49,-61.74 310.13,-48.06 340.99,-37.5 349.9,-34.45 359.46,-31.42 368.72,-28.61"/>
<polygon fill="midnightblue" stroke="midnightblue" points="249.8,-68.43 241.87,-75.46 252.45,-74.91 249.8,-68.43"/>
</g>
<!-- Node2 -->
<g id="node2" class="node">
<title>Node2</title>
<g id="a_node2"><a xlink:href="class_ogre_1_1_allocated_object.html" target="_top" xlink:title="Superclass for all objects that wish to use custom memory allocators when their new / delete operator...">
<polygon fill="none" stroke="black" points="0,-75.5 0,-93.5 97.53,-93.5 97.53,-75.5 0,-75.5"/>
<text text-anchor="middle" x="48.77" y="-81.5" font-family="Helvetica,sans-Serif" font-size="10.00">BufferPackedAlloc</text>
</a>
</g>
</g>
<!-- Node2&#45;&gt;Node1 -->
<g id="edge1" class="edge">
<title>Node2&#45;&gt;Node1</title>
<path fill="none" stroke="midnightblue" d="M107.82,-84.5C116.06,-84.5 124.68,-84.5 133.31,-84.5"/>
<polygon fill="midnightblue" stroke="midnightblue" points="107.6,-81 97.6,-84.5 107.6,-88 107.6,-81"/>
</g>
</g>
</svg>
