<?xml version="1.0" encoding="UTF-8" standalone="no"?>
<!DOCTYPE svg PUBLIC "-//W3C//DTD SVG 1.1//EN"
 "http://www.w3.org/Graphics/SVG/1.1/DTD/svg11.dtd">
<!-- Generated by graphviz version 2.43.0 (0)
 -->
<!-- Title: Ogre::PassthroughControllerFunction Pages: 1 -->
<svg width="151pt" height="157pt"
 viewBox="0.00 0.00 151.29 157.00" xmlns="http://www.w3.org/2000/svg" xmlns:xlink="http://www.w3.org/1999/xlink">
<g id="graph0" class="graph" transform="scale(1 1) rotate(0) translate(4 153)">
<title>Ogre::PassthroughControllerFunction</title>
<!-- Node1 -->
<g id="node1" class="node">
<title>Node1</title>
<g id="a_node1"><a xlink:title="Predefined controller function which just passes through the original source directly to dest.">
<polygon fill="#bfbfbf" stroke="black" points="0,-0.5 0,-28.5 143.29,-28.5 143.29,-0.5 0,-0.5"/>
<text text-anchor="start" x="8" y="-16.5" font-family="Helvetica,sans-Serif" font-size="10.00">Ogre::PassthroughController</text>
<text text-anchor="middle" x="71.64" y="-6.5" font-family="Helvetica,sans-Serif" font-size="10.00">Function</text>
</a>
</g>
</g>
<!-- Node2 -->
<g id="node2" class="node">
<title>Node2</title>
<g id="a_node2"><a xlink:href="class_ogre_1_1_controller_function.html" target="_top" xlink:title=" ">
<polygon fill="none" stroke="black" points="8.9,-65.5 8.9,-93.5 134.39,-93.5 134.39,-65.5 8.9,-65.5"/>
<text text-anchor="start" x="16.9" y="-81.5" font-family="Helvetica,sans-Serif" font-size="10.00">Ogre::ControllerFunction</text>
<text text-anchor="middle" x="71.64" y="-71.5" font-family="Helvetica,sans-Serif" font-size="10.00">&lt; Real &gt;</text>
</a>
</g>
</g>
<!-- Node2&#45;&gt;Node1 -->
<g id="edge1" class="edge">
<title>Node2&#45;&gt;Node1</title>
<path fill="none" stroke="midnightblue" d="M71.64,-55.16C71.64,-46.17 71.64,-36.22 71.64,-28.54"/>
<polygon fill="midnightblue" stroke="midnightblue" points="68.14,-55.45 71.64,-65.45 75.14,-55.45 68.14,-55.45"/>
</g>
<!-- Node3 -->
<g id="node3" class="node">
<title>Node3</title>
<g id="a_node3"><a xlink:href="class_ogre_1_1_allocated_object.html" target="_top" xlink:title="Superclass for all objects that wish to use custom memory allocators when their new / delete operator...">
<polygon fill="none" stroke="black" points="31.13,-130.5 31.13,-148.5 112.15,-148.5 112.15,-130.5 31.13,-130.5"/>
<text text-anchor="middle" x="71.64" y="-136.5" font-family="Helvetica,sans-Serif" font-size="10.00">ControllerAlloc</text>
</a>
</g>
</g>
<!-- Node3&#45;&gt;Node2 -->
<g id="edge2" class="edge">
<title>Node3&#45;&gt;Node2</title>
<path fill="none" stroke="midnightblue" d="M71.64,-120.32C71.64,-111.75 71.64,-101.7 71.64,-93.84"/>
<polygon fill="midnightblue" stroke="midnightblue" points="68.14,-120.44 71.64,-130.44 75.14,-120.44 68.14,-120.44"/>
</g>
</g>
</svg>
