<?xml version="1.0" encoding="UTF-8" standalone="no"?>
<!DOCTYPE svg PUBLIC "-//W3C//DTD SVG 1.1//EN"
 "http://www.w3.org/Graphics/SVG/1.1/DTD/svg11.dtd">
<!-- Generated by graphviz version 2.43.0 (0)
 -->
<!-- Title: Ogre::ParticleAffectorFactory Pages: 1 -->
<svg width="424pt" height="393pt"
 viewBox="0.00 0.00 423.86 393.00" xmlns="http://www.w3.org/2000/svg" xmlns:xlink="http://www.w3.org/1999/xlink">
<g id="graph0" class="graph" transform="scale(1 1) rotate(0) translate(4 389)">
<title>Ogre::ParticleAffectorFactory</title>
<!-- Node1 -->
<g id="node1" class="node">
<title>Node1</title>
<g id="a_node1"><a xlink:title="Abstract class defining the interface to be implemented by creators of ParticleAffector subclasses.">
<polygon fill="#bfbfbf" stroke="black" points="86.45,-173.5 86.45,-191.5 231.21,-191.5 231.21,-173.5 86.45,-173.5"/>
<text text-anchor="middle" x="158.83" y="-179.5" font-family="Helvetica,sans-Serif" font-size="10.00">Ogre::ParticleAffectorFactory</text>
</a>
</g>
</g>
<!-- Node3 -->
<g id="node3" class="node">
<title>Node3</title>
<g id="a_node3"><a xlink:href="class_ogre_1_1_colour_fader_affector_factory.html" target="_top" xlink:title="Factory class for ColourFaderAffector.">
<polygon fill="none" stroke="black" points="274.71,-356.5 274.71,-384.5 408.36,-384.5 408.36,-356.5 274.71,-356.5"/>
<text text-anchor="start" x="282.71" y="-372.5" font-family="Helvetica,sans-Serif" font-size="10.00">Ogre::ColourFaderAffector</text>
<text text-anchor="middle" x="341.54" y="-362.5" font-family="Helvetica,sans-Serif" font-size="10.00">Factory</text>
</a>
</g>
</g>
<!-- Node1&#45;&gt;Node3 -->
<g id="edge2" class="edge">
<title>Node1&#45;&gt;Node3</title>
<path fill="none" stroke="midnightblue" d="M166.96,-201.22C180.92,-235.39 215.12,-307.99 267.21,-347.5 271.78,-350.97 276.88,-353.92 282.21,-356.43"/>
<polygon fill="midnightblue" stroke="midnightblue" points="170.07,-199.58 163.14,-191.57 163.56,-202.15 170.07,-199.58"/>
</g>
<!-- Node4 -->
<g id="node4" class="node">
<title>Node4</title>
<g id="a_node4"><a xlink:href="class_ogre_1_1_colour_fader_affector_factory2.html" target="_top" xlink:title="Factory class for ColourFaderAffector.">
<polygon fill="none" stroke="black" points="274.71,-309.5 274.71,-337.5 408.36,-337.5 408.36,-309.5 274.71,-309.5"/>
<text text-anchor="start" x="282.71" y="-325.5" font-family="Helvetica,sans-Serif" font-size="10.00">Ogre::ColourFaderAffector</text>
<text text-anchor="middle" x="341.54" y="-315.5" font-family="Helvetica,sans-Serif" font-size="10.00">Factory2</text>
</a>
</g>
</g>
<!-- Node1&#45;&gt;Node4 -->
<g id="edge3" class="edge">
<title>Node1&#45;&gt;Node4</title>
<path fill="none" stroke="midnightblue" d="M171.26,-200.09C188.85,-225.81 225,-273.55 267.21,-300.5 272.61,-303.95 278.56,-306.91 284.67,-309.45"/>
<polygon fill="midnightblue" stroke="midnightblue" points="174.11,-198.05 165.64,-191.69 168.29,-201.95 174.11,-198.05"/>
</g>
<!-- Node5 -->
<g id="node5" class="node">
<title>Node5</title>
<g id="a_node5"><a xlink:href="class_ogre_1_1_colour_image_affector_factory.html" target="_top" xlink:title="Factory class for ColourImageAffector.">
<polygon fill="none" stroke="black" points="273.88,-262.5 273.88,-290.5 409.2,-290.5 409.2,-262.5 273.88,-262.5"/>
<text text-anchor="start" x="281.88" y="-278.5" font-family="Helvetica,sans-Serif" font-size="10.00">Ogre::ColourImageAffector</text>
<text text-anchor="middle" x="341.54" y="-268.5" font-family="Helvetica,sans-Serif" font-size="10.00">Factory</text>
</a>
</g>
</g>
<!-- Node1&#45;&gt;Node5 -->
<g id="edge4" class="edge">
<title>Node1&#45;&gt;Node5</title>
<path fill="none" stroke="midnightblue" d="M179.12,-197.68C199.88,-213.42 234.36,-237.87 267.21,-253.5 274.2,-256.82 281.78,-259.82 289.33,-262.47"/>
<polygon fill="midnightblue" stroke="midnightblue" points="181.17,-194.84 171.11,-191.52 176.9,-200.39 181.17,-194.84"/>
</g>
<!-- Node6 -->
<g id="node6" class="node">
<title>Node6</title>
<g id="a_node6"><a xlink:href="class_ogre_1_1_colour_interpolator_affector_factory.html" target="_top" xlink:title="Factory class for ColourInterpolatorAffector.">
<polygon fill="none" stroke="black" points="279.62,-215.5 279.62,-243.5 403.45,-243.5 403.45,-215.5 279.62,-215.5"/>
<text text-anchor="start" x="287.62" y="-231.5" font-family="Helvetica,sans-Serif" font-size="10.00">Ogre::ColourInterpolator</text>
<text text-anchor="middle" x="341.54" y="-221.5" font-family="Helvetica,sans-Serif" font-size="10.00">AffectorFactory</text>
</a>
</g>
</g>
<!-- Node1&#45;&gt;Node6 -->
<g id="edge5" class="edge">
<title>Node1&#45;&gt;Node6</title>
<path fill="none" stroke="midnightblue" d="M204.55,-194.13C229.37,-200.59 260.43,-208.66 286.59,-215.47"/>
<polygon fill="midnightblue" stroke="midnightblue" points="205.23,-190.69 194.67,-191.56 203.47,-197.47 205.23,-190.69"/>
</g>
<!-- Node7 -->
<g id="node7" class="node">
<title>Node7</title>
<g id="a_node7"><a xlink:href="class_ogre_1_1_deflector_plane_affector_factory.html" target="_top" xlink:title="Factory class for DeflectorPlaneAffector.">
<polygon fill="none" stroke="black" points="269.71,-168.5 269.71,-196.5 413.37,-196.5 413.37,-168.5 269.71,-168.5"/>
<text text-anchor="start" x="277.71" y="-184.5" font-family="Helvetica,sans-Serif" font-size="10.00">Ogre::DeflectorPlaneAffector</text>
<text text-anchor="middle" x="341.54" y="-174.5" font-family="Helvetica,sans-Serif" font-size="10.00">Factory</text>
</a>
</g>
</g>
<!-- Node1&#45;&gt;Node7 -->
<g id="edge6" class="edge">
<title>Node1&#45;&gt;Node7</title>
<path fill="none" stroke="midnightblue" d="M241.4,-182.5C250.82,-182.5 260.37,-182.5 269.64,-182.5"/>
<polygon fill="midnightblue" stroke="midnightblue" points="241.25,-179 231.25,-182.5 241.25,-186 241.25,-179"/>
</g>
<!-- Node8 -->
<g id="node8" class="node">
<title>Node8</title>
<g id="a_node8"><a xlink:href="class_ogre_1_1_direction_randomiser_affector_factory.html" target="_top" xlink:title="Factory class for DirectionRandomiserAffector.">
<polygon fill="none" stroke="black" points="272.96,-121.5 272.96,-149.5 410.11,-149.5 410.11,-121.5 272.96,-121.5"/>
<text text-anchor="start" x="280.96" y="-137.5" font-family="Helvetica,sans-Serif" font-size="10.00">Ogre::DirectionRandomiser</text>
<text text-anchor="middle" x="341.54" y="-127.5" font-family="Helvetica,sans-Serif" font-size="10.00">AffectorFactory</text>
</a>
</g>
</g>
<!-- Node1&#45;&gt;Node8 -->
<g id="edge7" class="edge">
<title>Node1&#45;&gt;Node8</title>
<path fill="none" stroke="midnightblue" d="M204.55,-170.87C229.37,-164.41 260.43,-156.34 286.59,-149.53"/>
<polygon fill="midnightblue" stroke="midnightblue" points="203.47,-167.53 194.67,-173.44 205.23,-174.31 203.47,-167.53"/>
</g>
<!-- Node9 -->
<g id="node9" class="node">
<title>Node9</title>
<g id="a_node9"><a xlink:href="class_ogre_1_1_linear_force_affector_factory.html" target="_top" xlink:title="Factory class for LinearForceAffector.">
<polygon fill="none" stroke="black" points="275.82,-74.5 275.82,-102.5 407.25,-102.5 407.25,-74.5 275.82,-74.5"/>
<text text-anchor="start" x="283.82" y="-90.5" font-family="Helvetica,sans-Serif" font-size="10.00">Ogre::LinearForceAffector</text>
<text text-anchor="middle" x="341.54" y="-80.5" font-family="Helvetica,sans-Serif" font-size="10.00">Factory</text>
</a>
</g>
</g>
<!-- Node1&#45;&gt;Node9 -->
<g id="edge8" class="edge">
<title>Node1&#45;&gt;Node9</title>
<path fill="none" stroke="midnightblue" d="M179.12,-167.32C199.88,-151.58 234.36,-127.13 267.21,-111.5 274.2,-108.18 281.78,-105.18 289.33,-102.53"/>
<polygon fill="midnightblue" stroke="midnightblue" points="176.9,-164.61 171.11,-173.48 181.17,-170.16 176.9,-164.61"/>
</g>
<!-- Node10 -->
<g id="node10" class="node">
<title>Node10</title>
<g id="a_node10"><a xlink:href="class_ogre_1_1_rotation_affector_factory.html" target="_top" xlink:title="Factory class for RotationAffector.">
<polygon fill="none" stroke="black" points="267.21,-37.5 267.21,-55.5 415.86,-55.5 415.86,-37.5 267.21,-37.5"/>
<text text-anchor="middle" x="341.54" y="-43.5" font-family="Helvetica,sans-Serif" font-size="10.00">Ogre::RotationAffectorFactory</text>
</a>
</g>
</g>
<!-- Node1&#45;&gt;Node10 -->
<g id="edge9" class="edge">
<title>Node1&#45;&gt;Node10</title>
<path fill="none" stroke="midnightblue" d="M170.79,-164.95C188.01,-138.87 223.96,-90.23 267.21,-64.5 273.4,-60.81 280.32,-57.88 287.37,-55.55"/>
<polygon fill="midnightblue" stroke="midnightblue" points="167.79,-163.15 165.31,-173.45 173.67,-166.94 167.79,-163.15"/>
</g>
<!-- Node11 -->
<g id="node11" class="node">
<title>Node11</title>
<g id="a_node11"><a xlink:href="class_ogre_1_1_scale_affector_factory.html" target="_top" xlink:title="Factory class for ScaleAffector.">
<polygon fill="none" stroke="black" points="273.32,-0.5 273.32,-18.5 409.75,-18.5 409.75,-0.5 273.32,-0.5"/>
<text text-anchor="middle" x="341.54" y="-6.5" font-family="Helvetica,sans-Serif" font-size="10.00">Ogre::ScaleAffectorFactory</text>
</a>
</g>
</g>
<!-- Node1&#45;&gt;Node11 -->
<g id="edge10" class="edge">
<title>Node1&#45;&gt;Node11</title>
<path fill="none" stroke="midnightblue" d="M167.26,-164.14C181.5,-131.35 215.87,-62.84 267.21,-27.5 272.5,-23.86 278.45,-20.95 284.62,-18.63"/>
<polygon fill="midnightblue" stroke="midnightblue" points="163.99,-162.87 163.34,-173.45 170.45,-165.58 163.99,-162.87"/>
</g>
<!-- Node2 -->
<g id="node2" class="node">
<title>Node2</title>
<g id="a_node2"><a xlink:href="class_ogre_1_1_allocated_object.html" target="_top" xlink:title="Superclass for all objects that wish to use custom memory allocators when their new / delete operator...">
<polygon fill="none" stroke="black" points="0,-173.5 0,-191.5 50.45,-191.5 50.45,-173.5 0,-173.5"/>
<text text-anchor="middle" x="25.23" y="-179.5" font-family="Helvetica,sans-Serif" font-size="10.00">FXAlloc</text>
</a>
</g>
</g>
<!-- Node2&#45;&gt;Node1 -->
<g id="edge1" class="edge">
<title>Node2&#45;&gt;Node1</title>
<path fill="none" stroke="midnightblue" d="M60.89,-182.5C68.78,-182.5 77.45,-182.5 86.25,-182.5"/>
<polygon fill="midnightblue" stroke="midnightblue" points="60.67,-179 50.67,-182.5 60.67,-186 60.67,-179"/>
</g>
</g>
</svg>
