<?xml version="1.0" encoding="UTF-8" standalone="no"?>
<!DOCTYPE svg PUBLIC "-//W3C//DTD SVG 1.1//EN"
 "http://www.w3.org/Graphics/SVG/1.1/DTD/svg11.dtd">
<!-- Generated by graphviz version 2.43.0 (0)
 -->
<!-- Title: Ogre::MeshSerializerImpl_v2_1_R0 Pages: 1 -->
<svg width="137pt" height="267pt"
 viewBox="0.00 0.00 136.81 267.00" xmlns="http://www.w3.org/2000/svg" xmlns:xlink="http://www.w3.org/1999/xlink">
<g id="graph0" class="graph" transform="scale(1 1) rotate(0) translate(4 263)">
<title>Ogre::MeshSerializerImpl_v2_1_R0</title>
<!-- Node1 -->
<g id="node1" class="node">
<title>Node1</title>
<g id="a_node1"><a xlink:title=" ">
<polygon fill="#bfbfbf" stroke="black" points="0,-0.5 0,-28.5 128.81,-28.5 128.81,-0.5 0,-0.5"/>
<text text-anchor="start" x="8" y="-16.5" font-family="Helvetica,sans-Serif" font-size="10.00">Ogre::MeshSerializerImpl</text>
<text text-anchor="middle" x="64.41" y="-6.5" font-family="Helvetica,sans-Serif" font-size="10.00">_v2_1_R0</text>
</a>
</g>
</g>
<!-- Node2 -->
<g id="node2" class="node">
<title>Node2</title>
<g id="a_node2"><a xlink:href="class_ogre_1_1_mesh_serializer_impl__v2__1___r1.html" target="_top" xlink:title=" ">
<polygon fill="none" stroke="black" points="0,-65.5 0,-93.5 128.81,-93.5 128.81,-65.5 0,-65.5"/>
<text text-anchor="start" x="8" y="-81.5" font-family="Helvetica,sans-Serif" font-size="10.00">Ogre::MeshSerializerImpl</text>
<text text-anchor="middle" x="64.41" y="-71.5" font-family="Helvetica,sans-Serif" font-size="10.00">_v2_1_R1</text>
</a>
</g>
</g>
<!-- Node2&#45;&gt;Node1 -->
<g id="edge1" class="edge">
<title>Node2&#45;&gt;Node1</title>
<path fill="none" stroke="midnightblue" d="M64.41,-55.16C64.41,-46.17 64.41,-36.22 64.41,-28.54"/>
<polygon fill="midnightblue" stroke="midnightblue" points="60.91,-55.45 64.41,-65.45 67.91,-55.45 60.91,-55.45"/>
</g>
<!-- Node3 -->
<g id="node3" class="node">
<title>Node3</title>
<g id="a_node3"><a xlink:href="class_ogre_1_1_mesh_serializer_impl.html" target="_top" xlink:title="Internal implementation of Mesh reading / writing for the latest version of the .mesh format.">
<polygon fill="none" stroke="black" points="0,-130.5 0,-148.5 128.81,-148.5 128.81,-130.5 0,-130.5"/>
<text text-anchor="middle" x="64.41" y="-136.5" font-family="Helvetica,sans-Serif" font-size="10.00">Ogre::MeshSerializerImpl</text>
</a>
</g>
</g>
<!-- Node3&#45;&gt;Node2 -->
<g id="edge2" class="edge">
<title>Node3&#45;&gt;Node2</title>
<path fill="none" stroke="midnightblue" d="M64.41,-120.32C64.41,-111.75 64.41,-101.7 64.41,-93.84"/>
<polygon fill="midnightblue" stroke="midnightblue" points="60.91,-120.44 64.41,-130.44 67.91,-120.44 60.91,-120.44"/>
</g>
<!-- Node4 -->
<g id="node4" class="node">
<title>Node4</title>
<g id="a_node4"><a xlink:href="class_ogre_1_1_serializer.html" target="_top" xlink:title="Generic class for serialising data to / from binary stream&#45;based files.">
<polygon fill="none" stroke="black" points="21.67,-185.5 21.67,-203.5 107.14,-203.5 107.14,-185.5 21.67,-185.5"/>
<text text-anchor="middle" x="64.41" y="-191.5" font-family="Helvetica,sans-Serif" font-size="10.00">Ogre::Serializer</text>
</a>
</g>
</g>
<!-- Node4&#45;&gt;Node3 -->
<g id="edge3" class="edge">
<title>Node4&#45;&gt;Node3</title>
<path fill="none" stroke="midnightblue" d="M64.41,-175.17C64.41,-166.09 64.41,-155.59 64.41,-148.55"/>
<polygon fill="midnightblue" stroke="midnightblue" points="60.91,-175.22 64.41,-185.22 67.91,-175.22 60.91,-175.22"/>
</g>
<!-- Node5 -->
<g id="node5" class="node">
<title>Node5</title>
<g id="a_node5"><a xlink:href="class_ogre_1_1_allocated_object.html" target="_top" xlink:title="Superclass for all objects that wish to use custom memory allocators when their new / delete operator...">
<polygon fill="none" stroke="black" points="24.73,-240.5 24.73,-258.5 104.08,-258.5 104.08,-240.5 24.73,-240.5"/>
<text text-anchor="middle" x="64.41" y="-246.5" font-family="Helvetica,sans-Serif" font-size="10.00">SerializerAlloc</text>
</a>
</g>
</g>
<!-- Node5&#45;&gt;Node4 -->
<g id="edge4" class="edge">
<title>Node5&#45;&gt;Node4</title>
<path fill="none" stroke="midnightblue" d="M64.41,-230.17C64.41,-221.09 64.41,-210.59 64.41,-203.55"/>
<polygon fill="midnightblue" stroke="midnightblue" points="60.91,-230.22 64.41,-240.22 67.91,-230.22 60.91,-230.22"/>
</g>
</g>
</svg>
