<?xml version="1.0" encoding="UTF-8" standalone="no"?>
<!DOCTYPE svg PUBLIC "-//W3C//DTD SVG 1.1//EN"
 "http://www.w3.org/Graphics/SVG/1.1/DTD/svg11.dtd">
<!-- Generated by graphviz version 2.43.0 (0)
 -->
<!-- Title: Ogre::Volume::CSGNoiseSource Pages: 1 -->
<svg width="171pt" height="137pt"
 viewBox="0.00 0.00 170.73 137.00" xmlns="http://www.w3.org/2000/svg" xmlns:xlink="http://www.w3.org/1999/xlink">
<g id="graph0" class="graph" transform="scale(1 1) rotate(0) translate(4 133)">
<title>Ogre::Volume::CSGNoiseSource</title>
<!-- Node1 -->
<g id="node1" class="node">
<title>Node1</title>
<g id="a_node1"><a xlink:title=" ">
<polygon fill="#bfbfbf" stroke="black" points="0.55,-0.5 0.55,-18.5 162.18,-18.5 162.18,-0.5 0.55,-0.5"/>
<text text-anchor="middle" x="81.37" y="-6.5" font-family="Helvetica,sans-Serif" font-size="10.00">Ogre::Volume::CSGNoiseSource</text>
</a>
</g>
</g>
<!-- Node2 -->
<g id="node2" class="node">
<title>Node2</title>
<g id="a_node2"><a xlink:href="class_ogre_1_1_volume_1_1_c_s_g_unary_source.html" target="_top" xlink:title="Source which does a unary operation to another one.">
<polygon fill="none" stroke="black" points="0,-55.5 0,-73.5 162.73,-73.5 162.73,-55.5 0,-55.5"/>
<text text-anchor="middle" x="81.37" y="-61.5" font-family="Helvetica,sans-Serif" font-size="10.00">Ogre::Volume::CSGUnarySource</text>
</a>
</g>
</g>
<!-- Node2&#45;&gt;Node1 -->
<g id="edge1" class="edge">
<title>Node2&#45;&gt;Node1</title>
<path fill="none" stroke="midnightblue" d="M81.37,-45.17C81.37,-36.09 81.37,-25.59 81.37,-18.55"/>
<polygon fill="midnightblue" stroke="midnightblue" points="77.87,-45.22 81.37,-55.22 84.87,-45.22 77.87,-45.22"/>
</g>
<!-- Node3 -->
<g id="node3" class="node">
<title>Node3</title>
<g id="a_node3"><a xlink:href="class_ogre_1_1_volume_1_1_source.html" target="_top" xlink:title="Abstract class defining the density function.">
<polygon fill="none" stroke="black" points="24.17,-110.5 24.17,-128.5 138.56,-128.5 138.56,-110.5 24.17,-110.5"/>
<text text-anchor="middle" x="81.37" y="-116.5" font-family="Helvetica,sans-Serif" font-size="10.00">Ogre::Volume::Source</text>
</a>
</g>
</g>
<!-- Node3&#45;&gt;Node2 -->
<g id="edge2" class="edge">
<title>Node3&#45;&gt;Node2</title>
<path fill="none" stroke="midnightblue" d="M81.37,-100.17C81.37,-91.09 81.37,-80.59 81.37,-73.55"/>
<polygon fill="midnightblue" stroke="midnightblue" points="77.87,-100.22 81.37,-110.22 84.87,-100.22 77.87,-100.22"/>
</g>
</g>
</svg>
