<?xml version="1.0" encoding="UTF-8" standalone="no"?>
<!DOCTYPE svg PUBLIC "-//W3C//DTD SVG 1.1//EN"
 "http://www.w3.org/Graphics/SVG/1.1/DTD/svg11.dtd">
<!-- Generated by graphviz version 2.43.0 (0)
 -->
<!-- Title: Ogre::v1::GL3PlusDefaultHardwareUniformBuffer Pages: 1 -->
<svg width="146pt" height="212pt"
 viewBox="0.00 0.00 146.26 212.00" xmlns="http://www.w3.org/2000/svg" xmlns:xlink="http://www.w3.org/1999/xlink">
<g id="graph0" class="graph" transform="scale(1 1) rotate(0) translate(4 208)">
<title>Ogre::v1::GL3PlusDefaultHardwareUniformBuffer</title>
<!-- Node1 -->
<g id="node1" class="node">
<title>Node1</title>
<g id="a_node1"><a xlink:title="Specialisation of HardwareUniformBuffer for emulation.">
<polygon fill="#bfbfbf" stroke="black" points="4.16,-0.5 4.16,-28.5 134.1,-28.5 134.1,-0.5 4.16,-0.5"/>
<text text-anchor="start" x="12.16" y="-16.5" font-family="Helvetica,sans-Serif" font-size="10.00">Ogre::v1::GL3PlusDefault</text>
<text text-anchor="middle" x="69.13" y="-6.5" font-family="Helvetica,sans-Serif" font-size="10.00">HardwareUniformBuffer</text>
</a>
</g>
</g>
<!-- Node2 -->
<g id="node2" class="node">
<title>Node2</title>
<g id="a_node2"><a xlink:href="class_ogre_1_1v1_1_1_hardware_uniform_buffer.html" target="_top" xlink:title="Specialisation of HardwareBuffer for a uniform buffer.">
<polygon fill="none" stroke="black" points="0,-65.5 0,-93.5 138.26,-93.5 138.26,-65.5 0,-65.5"/>
<text text-anchor="start" x="8" y="-81.5" font-family="Helvetica,sans-Serif" font-size="10.00">Ogre::v1::HardwareUniform</text>
<text text-anchor="middle" x="69.13" y="-71.5" font-family="Helvetica,sans-Serif" font-size="10.00">Buffer</text>
</a>
</g>
</g>
<!-- Node2&#45;&gt;Node1 -->
<g id="edge1" class="edge">
<title>Node2&#45;&gt;Node1</title>
<path fill="none" stroke="midnightblue" d="M69.13,-55.16C69.13,-46.17 69.13,-36.22 69.13,-28.54"/>
<polygon fill="midnightblue" stroke="midnightblue" points="65.63,-55.45 69.13,-65.45 72.63,-55.45 65.63,-55.45"/>
</g>
<!-- Node3 -->
<g id="node3" class="node">
<title>Node3</title>
<g id="a_node3"><a xlink:href="class_ogre_1_1v1_1_1_hardware_buffer.html" target="_top" xlink:title="Abstract class defining common features of hardware buffers.">
<polygon fill="none" stroke="black" points="4.25,-130.5 4.25,-148.5 134.01,-148.5 134.01,-130.5 4.25,-130.5"/>
<text text-anchor="middle" x="69.13" y="-136.5" font-family="Helvetica,sans-Serif" font-size="10.00">Ogre::v1::HardwareBuffer</text>
</a>
</g>
</g>
<!-- Node3&#45;&gt;Node2 -->
<g id="edge2" class="edge">
<title>Node3&#45;&gt;Node2</title>
<path fill="none" stroke="midnightblue" d="M69.13,-120.32C69.13,-111.75 69.13,-101.7 69.13,-93.84"/>
<polygon fill="midnightblue" stroke="midnightblue" points="65.63,-120.44 69.13,-130.44 72.63,-120.44 65.63,-120.44"/>
</g>
<!-- Node4 -->
<g id="node4" class="node">
<title>Node4</title>
<g id="a_node4"><a xlink:href="class_ogre_1_1_allocated_object.html" target="_top" xlink:title="Superclass for all objects that wish to use custom memory allocators when their new / delete operator...">
<polygon fill="none" stroke="black" points="37.04,-185.5 37.04,-203.5 101.22,-203.5 101.22,-185.5 37.04,-185.5"/>
<text text-anchor="middle" x="69.13" y="-191.5" font-family="Helvetica,sans-Serif" font-size="10.00">BufferAlloc</text>
</a>
</g>
</g>
<!-- Node4&#45;&gt;Node3 -->
<g id="edge3" class="edge">
<title>Node4&#45;&gt;Node3</title>
<path fill="none" stroke="midnightblue" d="M69.13,-175.17C69.13,-166.09 69.13,-155.59 69.13,-148.55"/>
<polygon fill="midnightblue" stroke="midnightblue" points="65.63,-175.22 69.13,-185.22 72.63,-175.22 65.63,-175.22"/>
</g>
</g>
</svg>
