<?xml version="1.0" encoding="UTF-8" standalone="no"?>
<!DOCTYPE svg PUBLIC "-//W3C//DTD SVG 1.1//EN"
 "http://www.w3.org/Graphics/SVG/1.1/DTD/svg11.dtd">
<!-- Generated by graphviz version 2.43.0 (0)
 -->
<!-- Title: Ogre::TexCoordModifierControllerValue Pages: 1 -->
<svg width="174pt" height="157pt"
 viewBox="0.00 0.00 173.50 157.00" xmlns="http://www.w3.org/2000/svg" xmlns:xlink="http://www.w3.org/1999/xlink">
<g id="graph0" class="graph" transform="scale(1 1) rotate(0) translate(4 153)">
<title>Ogre::TexCoordModifierControllerValue</title>
<!-- Node1 -->
<g id="node1" class="node">
<title>Node1</title>
<g id="a_node1"><a xlink:title="Predefined controller value for getting / setting a texture coordinate modifications (scales and tran...">
<polygon fill="#bfbfbf" stroke="black" points="0,-0.5 0,-28.5 165.5,-28.5 165.5,-0.5 0,-0.5"/>
<text text-anchor="start" x="8" y="-16.5" font-family="Helvetica,sans-Serif" font-size="10.00">Ogre::TexCoordModifierController</text>
<text text-anchor="middle" x="82.75" y="-6.5" font-family="Helvetica,sans-Serif" font-size="10.00">Value</text>
</a>
</g>
</g>
<!-- Node2 -->
<g id="node2" class="node">
<title>Node2</title>
<g id="a_node2"><a xlink:href="class_ogre_1_1_controller_value.html" target="_top" xlink:title=" ">
<polygon fill="none" stroke="black" points="26.76,-65.5 26.76,-93.5 138.74,-93.5 138.74,-65.5 26.76,-65.5"/>
<text text-anchor="start" x="34.76" y="-81.5" font-family="Helvetica,sans-Serif" font-size="10.00">Ogre::ControllerValue</text>
<text text-anchor="middle" x="82.75" y="-71.5" font-family="Helvetica,sans-Serif" font-size="10.00">&lt; Real &gt;</text>
</a>
</g>
</g>
<!-- Node2&#45;&gt;Node1 -->
<g id="edge1" class="edge">
<title>Node2&#45;&gt;Node1</title>
<path fill="none" stroke="midnightblue" d="M82.75,-55.16C82.75,-46.17 82.75,-36.22 82.75,-28.54"/>
<polygon fill="midnightblue" stroke="midnightblue" points="79.25,-55.45 82.75,-65.45 86.25,-55.45 79.25,-55.45"/>
</g>
<!-- Node3 -->
<g id="node3" class="node">
<title>Node3</title>
<g id="a_node3"><a xlink:href="class_ogre_1_1_allocated_object.html" target="_top" xlink:title="Superclass for all objects that wish to use custom memory allocators when their new / delete operator...">
<polygon fill="none" stroke="black" points="42.24,-130.5 42.24,-148.5 123.26,-148.5 123.26,-130.5 42.24,-130.5"/>
<text text-anchor="middle" x="82.75" y="-136.5" font-family="Helvetica,sans-Serif" font-size="10.00">ControllerAlloc</text>
</a>
</g>
</g>
<!-- Node3&#45;&gt;Node2 -->
<g id="edge2" class="edge">
<title>Node3&#45;&gt;Node2</title>
<path fill="none" stroke="midnightblue" d="M82.75,-120.32C82.75,-111.75 82.75,-101.7 82.75,-93.84"/>
<polygon fill="midnightblue" stroke="midnightblue" points="79.25,-120.44 82.75,-130.44 86.25,-120.44 79.25,-120.44"/>
</g>
</g>
</svg>
