<?xml version="1.0" encoding="UTF-8" standalone="no"?>
<!DOCTYPE svg PUBLIC "-//W3C//DTD SVG 1.1//EN"
 "http://www.w3.org/Graphics/SVG/1.1/DTD/svg11.dtd">
<!-- Generated by graphviz version 2.43.0 (0)
 -->
<!-- Title: Ogre::MetalTexture Pages: 1 -->
<svg width="272pt" height="247pt"
 viewBox="0.00 0.00 271.99 247.00" xmlns="http://www.w3.org/2000/svg" xmlns:xlink="http://www.w3.org/1999/xlink">
<g id="graph0" class="graph" transform="scale(1 1) rotate(0) translate(4 243)">
<title>Ogre::MetalTexture</title>
<!-- Node1 -->
<g id="node1" class="node">
<title>Node1</title>
<g id="a_node1"><a xlink:title=" ">
<polygon fill="#bfbfbf" stroke="black" points="83.34,-55.5 83.34,-73.5 184.38,-73.5 184.38,-55.5 83.34,-55.5"/>
<text text-anchor="middle" x="133.86" y="-61.5" font-family="Helvetica,sans-Serif" font-size="10.00">Ogre::MetalTexture</text>
</a>
</g>
</g>
<!-- Node6 -->
<g id="node6" class="node">
<title>Node6</title>
<g id="a_node6"><a xlink:href="class_ogre_1_1_metal_depth_texture.html" target="_top" xlink:title=" ">
<polygon fill="none" stroke="black" points="0,-0.5 0,-18.5 127.72,-18.5 127.72,-0.5 0,-0.5"/>
<text text-anchor="middle" x="63.86" y="-6.5" font-family="Helvetica,sans-Serif" font-size="10.00">Ogre::MetalDepthTexture</text>
</a>
</g>
</g>
<!-- Node1&#45;&gt;Node6 -->
<g id="edge5" class="edge">
<title>Node1&#45;&gt;Node6</title>
<path fill="none" stroke="midnightblue" d="M114.99,-49.21C102.04,-39.41 85.32,-26.75 74.59,-18.63"/>
<polygon fill="midnightblue" stroke="midnightblue" points="113.14,-52.2 123.23,-55.45 117.37,-46.62 113.14,-52.2"/>
</g>
<!-- Node7 -->
<g id="node7" class="node">
<title>Node7</title>
<g id="a_node7"><a xlink:href="class_ogre_1_1_metal_null_texture.html" target="_top" xlink:title=" ">
<polygon fill="none" stroke="black" points="145.73,-0.5 145.73,-18.5 263.99,-18.5 263.99,-0.5 145.73,-0.5"/>
<text text-anchor="middle" x="204.86" y="-6.5" font-family="Helvetica,sans-Serif" font-size="10.00">Ogre::MetalNullTexture</text>
</a>
</g>
</g>
<!-- Node1&#45;&gt;Node7 -->
<g id="edge6" class="edge">
<title>Node1&#45;&gt;Node7</title>
<path fill="none" stroke="midnightblue" d="M153,-49.21C166.14,-39.41 183.09,-26.75 193.97,-18.63"/>
<polygon fill="midnightblue" stroke="midnightblue" points="150.56,-46.66 144.64,-55.45 154.75,-52.27 150.56,-46.66"/>
</g>
<!-- Node2 -->
<g id="node2" class="node">
<title>Node2</title>
<g id="a_node2"><a xlink:href="class_ogre_1_1_texture.html" target="_top" xlink:title="Abstract class representing a Texture resource.">
<polygon fill="none" stroke="black" points="95.57,-110.5 95.57,-128.5 172.15,-128.5 172.15,-110.5 95.57,-110.5"/>
<text text-anchor="middle" x="133.86" y="-116.5" font-family="Helvetica,sans-Serif" font-size="10.00">Ogre::Texture</text>
</a>
</g>
</g>
<!-- Node2&#45;&gt;Node1 -->
<g id="edge1" class="edge">
<title>Node2&#45;&gt;Node1</title>
<path fill="none" stroke="midnightblue" d="M133.86,-100.17C133.86,-91.09 133.86,-80.59 133.86,-73.55"/>
<polygon fill="midnightblue" stroke="midnightblue" points="130.36,-100.22 133.86,-110.22 137.36,-100.22 130.36,-100.22"/>
</g>
<!-- Node3 -->
<g id="node3" class="node">
<title>Node3</title>
<g id="a_node3"><a xlink:href="class_ogre_1_1_resource.html" target="_top" xlink:title="Abstract class representing a loadable resource (e.g.">
<polygon fill="none" stroke="black" points="90.57,-165.5 90.57,-183.5 177.15,-183.5 177.15,-165.5 90.57,-165.5"/>
<text text-anchor="middle" x="133.86" y="-171.5" font-family="Helvetica,sans-Serif" font-size="10.00">Ogre::Resource</text>
</a>
</g>
</g>
<!-- Node3&#45;&gt;Node2 -->
<g id="edge2" class="edge">
<title>Node3&#45;&gt;Node2</title>
<path fill="none" stroke="midnightblue" d="M133.86,-155.17C133.86,-146.09 133.86,-135.59 133.86,-128.55"/>
<polygon fill="midnightblue" stroke="midnightblue" points="130.36,-155.22 133.86,-165.22 137.36,-155.22 130.36,-155.22"/>
</g>
<!-- Node4 -->
<g id="node4" class="node">
<title>Node4</title>
<g id="a_node4"><a xlink:href="class_ogre_1_1_string_interface.html" target="_top" xlink:title="Class defining the common interface which classes can use to present a reflection&#45;style,...">
<polygon fill="none" stroke="black" points="23.45,-220.5 23.45,-238.5 132.27,-238.5 132.27,-220.5 23.45,-220.5"/>
<text text-anchor="middle" x="77.86" y="-226.5" font-family="Helvetica,sans-Serif" font-size="10.00">Ogre::StringInterface</text>
</a>
</g>
</g>
<!-- Node4&#45;&gt;Node3 -->
<g id="edge3" class="edge">
<title>Node4&#45;&gt;Node3</title>
<path fill="none" stroke="midnightblue" d="M94.12,-213.11C104.33,-203.44 117.09,-191.37 125.35,-183.55"/>
<polygon fill="midnightblue" stroke="midnightblue" points="91.47,-210.8 86.61,-220.22 96.28,-215.89 91.47,-210.8"/>
</g>
<!-- Node5 -->
<g id="node5" class="node">
<title>Node5</title>
<g id="a_node5"><a xlink:href="class_ogre_1_1_allocated_object.html" target="_top" xlink:title="Superclass for all objects that wish to use custom memory allocators when their new / delete operator...">
<polygon fill="none" stroke="black" points="150.62,-220.5 150.62,-238.5 231.1,-238.5 231.1,-220.5 150.62,-220.5"/>
<text text-anchor="middle" x="190.86" y="-226.5" font-family="Helvetica,sans-Serif" font-size="10.00">ResourceAlloc</text>
</a>
</g>
</g>
<!-- Node5&#45;&gt;Node3 -->
<g id="edge4" class="edge">
<title>Node5&#45;&gt;Node3</title>
<path fill="none" stroke="midnightblue" d="M174.62,-213.4C164.17,-203.68 151.01,-191.45 142.52,-183.55"/>
<polygon fill="midnightblue" stroke="midnightblue" points="172.25,-215.97 181.95,-220.22 177.01,-210.85 172.25,-215.97"/>
</g>
</g>
</svg>
