<?xml version="1.0" encoding="UTF-8" standalone="no"?>
<!DOCTYPE svg PUBLIC "-//W3C//DTD SVG 1.1//EN"
 "http://www.w3.org/Graphics/SVG/1.1/DTD/svg11.dtd">
<!-- Generated by graphviz version 2.43.0 (0)
 -->
<!-- Title: Ogre::ForwardClustered Pages: 1 -->
<svg width="286pt" height="137pt"
 viewBox="0.00 0.00 286.21 137.00" xmlns="http://www.w3.org/2000/svg" xmlns:xlink="http://www.w3.org/1999/xlink">
<g id="graph0" class="graph" transform="scale(1 1) rotate(0) translate(4 133)">
<title>Ogre::ForwardClustered</title>
<!-- Node1 -->
<g id="node1" class="node">
<title>Node1</title>
<g id="a_node1"><a xlink:title="Implementation of Clustered Forward Shading.">
<polygon fill="#bfbfbf" stroke="black" points="73.72,-0.5 73.72,-18.5 196.98,-18.5 196.98,-0.5 73.72,-0.5"/>
<text text-anchor="middle" x="135.35" y="-6.5" font-family="Helvetica,sans-Serif" font-size="10.00">Ogre::ForwardClustered</text>
</a>
</g>
</g>
<!-- Node2 -->
<g id="node2" class="node">
<title>Node2</title>
<g id="a_node2"><a xlink:href="class_ogre_1_1_forward_plus_base.html" target="_top" xlink:title="ForwardPlusBase.">
<polygon fill="none" stroke="black" points="0,-55.5 0,-73.5 122.71,-73.5 122.71,-55.5 0,-55.5"/>
<text text-anchor="middle" x="61.35" y="-61.5" font-family="Helvetica,sans-Serif" font-size="10.00">Ogre::ForwardPlusBase</text>
</a>
</g>
</g>
<!-- Node2&#45;&gt;Node1 -->
<g id="edge1" class="edge">
<title>Node2&#45;&gt;Node1</title>
<path fill="none" stroke="midnightblue" d="M80.91,-49.49C94.66,-39.65 112.56,-26.83 124.01,-18.63"/>
<polygon fill="midnightblue" stroke="midnightblue" points="78.69,-46.78 72.59,-55.45 82.76,-52.47 78.69,-46.78"/>
</g>
<!-- Node3 -->
<g id="node3" class="node">
<title>Node3</title>
<g id="a_node3"><a xlink:href="class_ogre_1_1_allocated_object.html" target="_top" xlink:title="Superclass for all objects that wish to use custom memory allocators when their new / delete operator...">
<polygon fill="none" stroke="black" points="31.13,-110.5 31.13,-128.5 91.58,-128.5 91.58,-110.5 31.13,-110.5"/>
<text text-anchor="middle" x="61.35" y="-116.5" font-family="Helvetica,sans-Serif" font-size="10.00">HlmsAlloc</text>
</a>
</g>
</g>
<!-- Node3&#45;&gt;Node2 -->
<g id="edge2" class="edge">
<title>Node3&#45;&gt;Node2</title>
<path fill="none" stroke="midnightblue" d="M61.35,-100.17C61.35,-91.09 61.35,-80.59 61.35,-73.55"/>
<polygon fill="midnightblue" stroke="midnightblue" points="57.85,-100.22 61.35,-110.22 64.85,-100.22 57.85,-100.22"/>
</g>
<!-- Node4 -->
<g id="node4" class="node">
<title>Node4</title>
<g id="a_node4"><a xlink:href="class_ogre_1_1_uniform_scalable_task.html" target="_top" xlink:title="A uniform task is a highly parallelizable task that can be divided in many threads where all threads ...">
<polygon fill="none" stroke="black" points="140.5,-55.5 140.5,-73.5 278.21,-73.5 278.21,-55.5 140.5,-55.5"/>
<text text-anchor="middle" x="209.35" y="-61.5" font-family="Helvetica,sans-Serif" font-size="10.00">Ogre::UniformScalableTask</text>
</a>
</g>
</g>
<!-- Node4&#45;&gt;Node1 -->
<g id="edge3" class="edge">
<title>Node4&#45;&gt;Node1</title>
<path fill="none" stroke="midnightblue" d="M189.8,-49.49C176.05,-39.65 158.15,-26.83 146.7,-18.63"/>
<polygon fill="midnightblue" stroke="midnightblue" points="187.95,-52.47 198.12,-55.45 192.02,-46.78 187.95,-52.47"/>
</g>
</g>
</svg>
