<?xml version="1.0" encoding="UTF-8" standalone="no"?>
<!DOCTYPE svg PUBLIC "-//W3C//DTD SVG 1.1//EN"
 "http://www.w3.org/Graphics/SVG/1.1/DTD/svg11.dtd">
<!-- Generated by graphviz version 2.43.0 (0)
 -->
<!-- Title: Ogre::RTShader::LayeredBlendingFactory Pages: 1 -->
<svg width="178pt" height="157pt"
 viewBox="0.00 0.00 177.80 157.00" xmlns="http://www.w3.org/2000/svg" xmlns:xlink="http://www.w3.org/1999/xlink">
<g id="graph0" class="graph" transform="scale(1 1) rotate(0) translate(4 153)">
<title>Ogre::RTShader::LayeredBlendingFactory</title>
<!-- Node1 -->
<g id="node1" class="node">
<title>Node1</title>
<g id="a_node1"><a xlink:title="A factory that enables creation of LayeredBlending instances.">
<polygon fill="#bfbfbf" stroke="black" points="0,-0.5 0,-28.5 169.8,-28.5 169.8,-0.5 0,-0.5"/>
<text text-anchor="start" x="8" y="-16.5" font-family="Helvetica,sans-Serif" font-size="10.00">Ogre::RTShader::LayeredBlending</text>
<text text-anchor="middle" x="84.9" y="-6.5" font-family="Helvetica,sans-Serif" font-size="10.00">Factory</text>
</a>
</g>
</g>
<!-- Node2 -->
<g id="node2" class="node">
<title>Node2</title>
<g id="a_node2"><a xlink:href="class_ogre_1_1_r_t_shader_1_1_sub_render_state_factory.html" target="_top" xlink:title="Abstract factory interface for creating SubRenderState implementation instances.">
<polygon fill="none" stroke="black" points="12.23,-65.5 12.23,-93.5 157.57,-93.5 157.57,-65.5 12.23,-65.5"/>
<text text-anchor="start" x="20.23" y="-81.5" font-family="Helvetica,sans-Serif" font-size="10.00">Ogre::RTShader::SubRender</text>
<text text-anchor="middle" x="84.9" y="-71.5" font-family="Helvetica,sans-Serif" font-size="10.00">StateFactory</text>
</a>
</g>
</g>
<!-- Node2&#45;&gt;Node1 -->
<g id="edge1" class="edge">
<title>Node2&#45;&gt;Node1</title>
<path fill="none" stroke="midnightblue" d="M84.9,-55.16C84.9,-46.17 84.9,-36.22 84.9,-28.54"/>
<polygon fill="midnightblue" stroke="midnightblue" points="81.4,-55.45 84.9,-65.45 88.4,-55.45 81.4,-55.45"/>
</g>
<!-- Node3 -->
<g id="node3" class="node">
<title>Node3</title>
<g id="a_node3"><a xlink:href="class_ogre_1_1_allocated_object.html" target="_top" xlink:title="Superclass for all objects that wish to use custom memory allocators when their new / delete operator...">
<polygon fill="none" stroke="black" points="26.69,-130.5 26.69,-148.5 143.11,-148.5 143.11,-130.5 26.69,-130.5"/>
<text text-anchor="middle" x="84.9" y="-136.5" font-family="Helvetica,sans-Serif" font-size="10.00">RTShaderSystemAlloc</text>
</a>
</g>
</g>
<!-- Node3&#45;&gt;Node2 -->
<g id="edge2" class="edge">
<title>Node3&#45;&gt;Node2</title>
<path fill="none" stroke="midnightblue" d="M84.9,-120.32C84.9,-111.75 84.9,-101.7 84.9,-93.84"/>
<polygon fill="midnightblue" stroke="midnightblue" points="81.4,-120.44 84.9,-130.44 88.4,-120.44 81.4,-120.44"/>
</g>
</g>
</svg>
