<?xml version="1.0" encoding="UTF-8" standalone="no"?>
<!DOCTYPE svg PUBLIC "-//W3C//DTD SVG 1.1//EN"
 "http://www.w3.org/Graphics/SVG/1.1/DTD/svg11.dtd">
<!-- Generated by graphviz version 2.43.0 (0)
 -->
<!-- Title: Ogre::D3D9Resource Pages: 1 -->
<svg width="525pt" height="250pt"
 viewBox="0.00 0.00 525.22 250.00" xmlns="http://www.w3.org/2000/svg" xmlns:xlink="http://www.w3.org/1999/xlink">
<g id="graph0" class="graph" transform="scale(1 1) rotate(0) translate(4 246)">
<title>Ogre::D3D9Resource</title>
<!-- Node1 -->
<g id="node1" class="node">
<title>Node1</title>
<g id="a_node1"><a xlink:title="Represents a Direct3D rendering resource.">
<polygon fill="#bfbfbf" stroke="black" points="0,-102.5 0,-120.5 112.15,-120.5 112.15,-102.5 0,-102.5"/>
<text text-anchor="middle" x="56.08" y="-108.5" font-family="Helvetica,sans-Serif" font-size="10.00">Ogre::D3D9Resource</text>
</a>
</g>
</g>
<!-- Node2 -->
<g id="node2" class="node">
<title>Node2</title>
<g id="a_node2"><a xlink:href="class_ogre_1_1_d3_d9_gpu_program.html" target="_top" xlink:title="Direct3D implementation of a few things common to low&#45;level vertex &amp; fragment programs.">
<polygon fill="none" stroke="black" points="166.69,-205.5 166.69,-223.5 293.29,-223.5 293.29,-205.5 166.69,-205.5"/>
<text text-anchor="middle" x="229.99" y="-211.5" font-family="Helvetica,sans-Serif" font-size="10.00">Ogre::D3D9GpuProgram</text>
</a>
</g>
</g>
<!-- Node1&#45;&gt;Node2 -->
<g id="edge1" class="edge">
<title>Node1&#45;&gt;Node2</title>
<path fill="none" stroke="midnightblue" d="M70.28,-128.38C86.48,-147.88 115.82,-179.46 148.15,-196.5 155.15,-200.19 162.87,-203.12 170.68,-205.45"/>
<polygon fill="midnightblue" stroke="midnightblue" points="73,-126.17 63.98,-120.6 67.56,-130.57 73,-126.17"/>
</g>
<!-- Node5 -->
<g id="node5" class="node">
<title>Node5</title>
<g id="a_node5"><a xlink:href="class_ogre_1_1_d3_d9_hardware_index_buffer.html" target="_top" xlink:title=" ">
<polygon fill="none" stroke="black" points="148.15,-168.5 148.15,-186.5 311.82,-186.5 311.82,-168.5 148.15,-168.5"/>
<text text-anchor="middle" x="229.99" y="-174.5" font-family="Helvetica,sans-Serif" font-size="10.00">Ogre::D3D9HardwareIndexBuffer</text>
</a>
</g>
</g>
<!-- Node1&#45;&gt;Node5 -->
<g id="edge4" class="edge">
<title>Node1&#45;&gt;Node5</title>
<path fill="none" stroke="midnightblue" d="M79.96,-125.76C97.92,-136.4 123.86,-150.58 148.15,-159.5 157.73,-163.02 168.22,-165.97 178.37,-168.4"/>
<polygon fill="midnightblue" stroke="midnightblue" points="81.72,-122.73 71.35,-120.56 78.11,-128.73 81.72,-122.73"/>
</g>
<!-- Node6 -->
<g id="node6" class="node">
<title>Node6</title>
<g id="a_node6"><a xlink:href="class_ogre_1_1_d3_d9_hardware_occlusion_query.html" target="_top" xlink:title="This is a class that is the DirectX9 implementation of hardware occlusion testing.">
<polygon fill="none" stroke="black" points="151.68,-121.5 151.68,-149.5 308.29,-149.5 308.29,-121.5 151.68,-121.5"/>
<text text-anchor="start" x="159.68" y="-137.5" font-family="Helvetica,sans-Serif" font-size="10.00">Ogre::D3D9HardwareOcclusion</text>
<text text-anchor="middle" x="229.99" y="-127.5" font-family="Helvetica,sans-Serif" font-size="10.00">Query</text>
</a>
</g>
</g>
<!-- Node1&#45;&gt;Node6 -->
<g id="edge5" class="edge">
<title>Node1&#45;&gt;Node6</title>
<path fill="none" stroke="midnightblue" d="M122.54,-120.64C132.01,-121.96 141.84,-123.33 151.52,-124.69"/>
<polygon fill="midnightblue" stroke="midnightblue" points="122.8,-117.14 112.42,-119.23 121.84,-124.07 122.8,-117.14"/>
</g>
<!-- Node7 -->
<g id="node7" class="node">
<title>Node7</title>
<g id="a_node7"><a xlink:href="class_ogre_1_1_d3_d9_hardware_vertex_buffer.html" target="_top" xlink:title="Specialisation of HardwareVertexBuffer for D3D9.">
<polygon fill="none" stroke="black" points="159.46,-74.5 159.46,-102.5 300.52,-102.5 300.52,-74.5 159.46,-74.5"/>
<text text-anchor="start" x="167.46" y="-90.5" font-family="Helvetica,sans-Serif" font-size="10.00">Ogre::D3D9HardwareVertex</text>
<text text-anchor="middle" x="229.99" y="-80.5" font-family="Helvetica,sans-Serif" font-size="10.00">Buffer</text>
</a>
</g>
</g>
<!-- Node1&#45;&gt;Node7 -->
<g id="edge6" class="edge">
<title>Node1&#45;&gt;Node7</title>
<path fill="none" stroke="midnightblue" d="M122.39,-102.76C134.45,-101.15 147.08,-99.46 159.27,-97.83"/>
<polygon fill="midnightblue" stroke="midnightblue" points="121.86,-99.3 112.42,-104.1 122.79,-106.24 121.86,-99.3"/>
</g>
<!-- Node8 -->
<g id="node8" class="node">
<title>Node8</title>
<g id="a_node8"><a xlink:href="class_ogre_1_1_d3_d9_texture.html" target="_top" xlink:title=" ">
<polygon fill="none" stroke="black" points="178.91,-37.5 178.91,-55.5 281.06,-55.5 281.06,-37.5 178.91,-37.5"/>
<text text-anchor="middle" x="229.99" y="-43.5" font-family="Helvetica,sans-Serif" font-size="10.00">Ogre::D3D9Texture</text>
</a>
</g>
</g>
<!-- Node1&#45;&gt;Node8 -->
<g id="edge7" class="edge">
<title>Node1&#45;&gt;Node8</title>
<path fill="none" stroke="midnightblue" d="M81.53,-97.15C99.47,-87.12 124.7,-74.04 148.15,-65.5 158.85,-61.6 170.65,-58.3 181.84,-55.6"/>
<polygon fill="midnightblue" stroke="midnightblue" points="79.33,-94.37 72.37,-102.36 82.79,-100.46 79.33,-94.37"/>
</g>
<!-- Node9 -->
<g id="node9" class="node">
<title>Node9</title>
<g id="a_node9"><a xlink:href="class_ogre_1_1_d3_d9_vertex_declaration.html" target="_top" xlink:title="Specialisation of VertexDeclaration for D3D9.">
<polygon fill="none" stroke="black" points="155.84,-0.5 155.84,-18.5 304.13,-18.5 304.13,-0.5 155.84,-0.5"/>
<text text-anchor="middle" x="229.99" y="-6.5" font-family="Helvetica,sans-Serif" font-size="10.00">Ogre::D3D9VertexDeclaration</text>
</a>
</g>
</g>
<!-- Node1&#45;&gt;Node9 -->
<g id="edge8" class="edge">
<title>Node1&#45;&gt;Node9</title>
<path fill="none" stroke="midnightblue" d="M70.88,-94.54C87.29,-75.53 116.48,-45.19 148.15,-28.5 156.06,-24.33 164.88,-21.07 173.7,-18.52"/>
<polygon fill="midnightblue" stroke="midnightblue" points="68.03,-92.49 64.27,-102.39 73.39,-96.99 68.03,-92.49"/>
</g>
<!-- Node3 -->
<g id="node3" class="node">
<title>Node3</title>
<g id="a_node3"><a xlink:href="class_ogre_1_1_d3_d9_gpu_fragment_program.html" target="_top" xlink:title="Direct3D implementation of low&#45;level fragment programs.">
<polygon fill="none" stroke="black" points="347.82,-223.5 347.82,-241.5 517.22,-241.5 517.22,-223.5 347.82,-223.5"/>
<text text-anchor="middle" x="432.52" y="-229.5" font-family="Helvetica,sans-Serif" font-size="10.00">Ogre::D3D9GpuFragmentProgram</text>
</a>
</g>
</g>
<!-- Node2&#45;&gt;Node3 -->
<g id="edge2" class="edge">
<title>Node2&#45;&gt;Node3</title>
<path fill="none" stroke="midnightblue" d="M303.56,-221.01C317.81,-222.29 332.87,-223.65 347.47,-224.96"/>
<polygon fill="midnightblue" stroke="midnightblue" points="303.61,-217.5 293.34,-220.1 302.99,-224.48 303.61,-217.5"/>
</g>
<!-- Node4 -->
<g id="node4" class="node">
<title>Node4</title>
<g id="a_node4"><a xlink:href="class_ogre_1_1_d3_d9_gpu_vertex_program.html" target="_top" xlink:title="Direct3D implementation of low&#45;level vertex programs.">
<polygon fill="none" stroke="black" points="355.04,-186.5 355.04,-204.5 510,-204.5 510,-186.5 355.04,-186.5"/>
<text text-anchor="middle" x="432.52" y="-192.5" font-family="Helvetica,sans-Serif" font-size="10.00">Ogre::D3D9GpuVertexProgram</text>
</a>
</g>
</g>
<!-- Node2&#45;&gt;Node4 -->
<g id="edge3" class="edge">
<title>Node2&#45;&gt;Node4</title>
<path fill="none" stroke="midnightblue" d="M303.54,-207.63C320.17,-206.05 337.92,-204.37 354.73,-202.78"/>
<polygon fill="midnightblue" stroke="midnightblue" points="302.96,-204.16 293.34,-208.59 303.62,-211.13 302.96,-204.16"/>
</g>
</g>
</svg>
