<?xml version="1.0" encoding="UTF-8" standalone="no"?>
<!DOCTYPE svg PUBLIC "-//W3C//DTD SVG 1.1//EN"
 "http://www.w3.org/Graphics/SVG/1.1/DTD/svg11.dtd">
<!-- Generated by graphviz version 2.43.0 (0)
 -->
<!-- Title: Ogre::v1::StaticGeometry::Region Pages: 1 -->
<svg width="315pt" height="147pt"
 viewBox="0.00 0.00 314.70 147.00" xmlns="http://www.w3.org/2000/svg" xmlns:xlink="http://www.w3.org/1999/xlink">
<g id="graph0" class="graph" transform="scale(1 1) rotate(0) translate(4 143)">
<title>Ogre::v1::StaticGeometry::Region</title>
<!-- Node1 -->
<g id="node1" class="node">
<title>Node1</title>
<g id="a_node1"><a xlink:title="The details of a topological region which is the highest level of partitioning for this class.">
<polygon fill="#bfbfbf" stroke="black" points="105.78,-0.5 105.78,-28.5 234.6,-28.5 234.6,-0.5 105.78,-0.5"/>
<text text-anchor="start" x="113.78" y="-16.5" font-family="Helvetica,sans-Serif" font-size="10.00">Ogre::v1::StaticGeometry</text>
<text text-anchor="middle" x="170.19" y="-6.5" font-family="Helvetica,sans-Serif" font-size="10.00">::Region</text>
</a>
</g>
</g>
<!-- Node2 -->
<g id="node2" class="node">
<title>Node2</title>
<g id="a_node2"><a xlink:href="class_ogre_1_1_movable_object.html" target="_top" xlink:title="Abstract class defining a movable object in a scene.">
<polygon fill="none" stroke="black" points="114.95,-65.5 114.95,-83.5 225.43,-83.5 225.43,-65.5 114.95,-65.5"/>
<text text-anchor="middle" x="170.19" y="-71.5" font-family="Helvetica,sans-Serif" font-size="10.00">Ogre::MovableObject</text>
</a>
</g>
</g>
<!-- Node2&#45;&gt;Node1 -->
<g id="edge1" class="edge">
<title>Node2&#45;&gt;Node1</title>
<path fill="none" stroke="midnightblue" d="M170.19,-55.32C170.19,-46.75 170.19,-36.7 170.19,-28.84"/>
<polygon fill="midnightblue" stroke="midnightblue" points="166.69,-55.44 170.19,-65.44 173.69,-55.44 166.69,-55.44"/>
</g>
<!-- Node3 -->
<g id="node3" class="node">
<title>Node3</title>
<g id="a_node3"><a xlink:href="class_ogre_1_1_animable_object.html" target="_top" xlink:title="Defines an interface to classes which have one or more AnimableValue instances to expose.">
<polygon fill="none" stroke="black" points="0,-120.5 0,-138.5 114.38,-138.5 114.38,-120.5 0,-120.5"/>
<text text-anchor="middle" x="57.19" y="-126.5" font-family="Helvetica,sans-Serif" font-size="10.00">Ogre::AnimableObject</text>
</a>
</g>
</g>
<!-- Node3&#45;&gt;Node2 -->
<g id="edge2" class="edge">
<title>Node3&#45;&gt;Node2</title>
<path fill="none" stroke="midnightblue" d="M83.52,-116.15C104.88,-106.13 134.38,-92.29 152.87,-83.63"/>
<polygon fill="midnightblue" stroke="midnightblue" points="81.92,-113.04 74.35,-120.45 84.89,-119.37 81.92,-113.04"/>
</g>
<!-- Node4 -->
<g id="node4" class="node">
<title>Node4</title>
<g id="a_node4"><a xlink:href="class_ogre_1_1_allocated_object.html" target="_top" xlink:title="Superclass for all objects that wish to use custom memory allocators when their new / delete operator...">
<polygon fill="none" stroke="black" points="132.45,-120.5 132.45,-138.5 207.93,-138.5 207.93,-120.5 132.45,-120.5"/>
<text text-anchor="middle" x="170.19" y="-126.5" font-family="Helvetica,sans-Serif" font-size="10.00">MovableAlloc</text>
</a>
</g>
</g>
<!-- Node4&#45;&gt;Node2 -->
<g id="edge3" class="edge">
<title>Node4&#45;&gt;Node2</title>
<path fill="none" stroke="midnightblue" d="M170.19,-110.17C170.19,-101.09 170.19,-90.59 170.19,-83.55"/>
<polygon fill="midnightblue" stroke="midnightblue" points="166.69,-110.22 170.19,-120.22 173.69,-110.22 166.69,-110.22"/>
</g>
<!-- Node5 -->
<g id="node5" class="node">
<title>Node5</title>
<g id="a_node5"><a xlink:href="class_ogre_1_1_id_object.html" target="_top" xlink:title=" ">
<polygon fill="none" stroke="black" points="225.67,-120.5 225.67,-138.5 306.7,-138.5 306.7,-120.5 225.67,-120.5"/>
<text text-anchor="middle" x="266.19" y="-126.5" font-family="Helvetica,sans-Serif" font-size="10.00">Ogre::IdObject</text>
</a>
</g>
</g>
<!-- Node5&#45;&gt;Node2 -->
<g id="edge4" class="edge">
<title>Node5&#45;&gt;Node2</title>
<path fill="none" stroke="midnightblue" d="M242.83,-115.6C224.77,-105.63 200.33,-92.14 184.91,-83.63"/>
<polygon fill="midnightblue" stroke="midnightblue" points="241.16,-118.68 251.61,-120.45 244.55,-112.55 241.16,-118.68"/>
</g>
</g>
</svg>
