<?xml version="1.0" encoding="UTF-8" standalone="no"?>
<!DOCTYPE svg PUBLIC "-//W3C//DTD SVG 1.1//EN"
 "http://www.w3.org/Graphics/SVG/1.1/DTD/svg11.dtd">
<!-- Generated by graphviz version 2.43.0 (0)
 -->
<!-- Title: Ogre::SmallVectorTemplateBase&lt; T, true &gt; Pages: 1 -->
<svg width="146pt" height="157pt"
 viewBox="0.00 0.00 145.72 157.00" xmlns="http://www.w3.org/2000/svg" xmlns:xlink="http://www.w3.org/1999/xlink">
<g id="graph0" class="graph" transform="scale(1 1) rotate(0) translate(4 153)">
<title>Ogre::SmallVectorTemplateBase&lt; T, true &gt;</title>
<!-- Node1 -->
<g id="node1" class="node">
<title>Node1</title>
<g id="a_node1"><a xlink:title="SmallVectorTemplateBase&lt;isPodLike = true&gt; &#45; This is where we put method implementations that are desi...">
<polygon fill="#bfbfbf" stroke="black" points="0,-0.5 0,-28.5 137.72,-28.5 137.72,-0.5 0,-0.5"/>
<text text-anchor="start" x="8" y="-16.5" font-family="Helvetica,sans-Serif" font-size="10.00">Ogre::SmallVectorTemplate</text>
<text text-anchor="middle" x="68.86" y="-6.5" font-family="Helvetica,sans-Serif" font-size="10.00">Base&lt; T, true &gt;</text>
</a>
</g>
</g>
<!-- Node2 -->
<g id="node2" class="node">
<title>Node2</title>
<g id="a_node2"><a xlink:href="class_ogre_1_1_small_vector_template_common.html" target="_top" xlink:title=" ">
<polygon fill="none" stroke="black" points="0,-65.5 0,-93.5 137.72,-93.5 137.72,-65.5 0,-65.5"/>
<text text-anchor="start" x="8" y="-81.5" font-family="Helvetica,sans-Serif" font-size="10.00">Ogre::SmallVectorTemplate</text>
<text text-anchor="middle" x="68.86" y="-71.5" font-family="Helvetica,sans-Serif" font-size="10.00">Common&lt; T &gt;</text>
</a>
</g>
</g>
<!-- Node2&#45;&gt;Node1 -->
<g id="edge1" class="edge">
<title>Node2&#45;&gt;Node1</title>
<path fill="none" stroke="midnightblue" d="M62.33,-55.46C61.85,-46.39 62.16,-36.3 63.27,-28.54"/>
<polygon fill="midnightblue" stroke="midnightblue" points="58.85,-55.82 63.27,-65.45 65.82,-55.16 58.85,-55.82"/>
</g>
<!-- Node2&#45;&gt;Node1 -->
<g id="edge4" class="edge">
<title>Node2&#45;&gt;Node1</title>
<path fill="none" stroke="midnightblue" d="M75.39,-55.46C75.88,-46.39 75.56,-36.3 74.45,-28.54"/>
<polygon fill="midnightblue" stroke="midnightblue" points="71.9,-55.16 74.45,-65.45 78.87,-55.82 71.9,-55.16"/>
</g>
<!-- Node3 -->
<g id="node3" class="node">
<title>Node3</title>
<g id="a_node3"><a xlink:href="class_ogre_1_1_small_vector_base.html" target="_top" xlink:title="SmallVectorBase &#45; This is all the non&#45;templated stuff common to all SmallVectors.">
<polygon fill="none" stroke="black" points="8.89,-130.5 8.89,-148.5 128.83,-148.5 128.83,-130.5 8.89,-130.5"/>
<text text-anchor="middle" x="68.86" y="-136.5" font-family="Helvetica,sans-Serif" font-size="10.00">Ogre::SmallVectorBase</text>
</a>
</g>
</g>
<!-- Node3&#45;&gt;Node2 -->
<g id="edge2" class="edge">
<title>Node3&#45;&gt;Node2</title>
<path fill="none" stroke="midnightblue" d="M62.55,-120.32C61.82,-111.75 62,-101.7 63.08,-93.84"/>
<polygon fill="midnightblue" stroke="midnightblue" points="59.12,-121.04 64.02,-130.44 66.04,-120.04 59.12,-121.04"/>
</g>
<!-- Node3&#45;&gt;Node2 -->
<g id="edge3" class="edge">
<title>Node3&#45;&gt;Node2</title>
<path fill="none" stroke="midnightblue" d="M75.18,-120.32C75.9,-111.75 75.72,-101.7 74.65,-93.84"/>
<polygon fill="midnightblue" stroke="midnightblue" points="71.68,-120.04 73.71,-130.44 78.61,-121.04 71.68,-120.04"/>
</g>
</g>
</svg>
