<?xml version="1.0" encoding="UTF-8" standalone="no"?>
<!DOCTYPE svg PUBLIC "-//W3C//DTD SVG 1.1//EN"
 "http://www.w3.org/Graphics/SVG/1.1/DTD/svg11.dtd">
<!-- Generated by graphviz version 2.43.0 (0)
 -->
<!-- Title: Ogre::v1::HardwareIndexBuffer Pages: 1 -->
<svg width="631pt" height="272pt"
 viewBox="0.00 0.00 631.34 272.00" xmlns="http://www.w3.org/2000/svg" xmlns:xlink="http://www.w3.org/1999/xlink">
<g id="graph0" class="graph" transform="scale(1 1) rotate(0) translate(4 268)">
<title>Ogre::v1::HardwareIndexBuffer</title>
<!-- Node1 -->
<g id="node1" class="node">
<title>Node1</title>
<g id="a_node1"><a xlink:title="Specialisation of HardwareBuffer for vertex index buffers, still abstract.">
<polygon fill="#bfbfbf" stroke="black" points="265.94,-122.5 265.94,-140.5 420.16,-140.5 420.16,-122.5 265.94,-122.5"/>
<text text-anchor="middle" x="343.05" y="-128.5" font-family="Helvetica,sans-Serif" font-size="10.00">Ogre::v1::HardwareIndexBuffer</text>
</a>
</g>
</g>
<!-- Node4 -->
<g id="node4" class="node">
<title>Node4</title>
<g id="a_node4"><a xlink:href="class_ogre_1_1v1_1_1_d3_d11_hardware_index_buffer.html" target="_top" xlink:title=" ">
<polygon fill="none" stroke="black" points="460.7,-235.5 460.7,-263.5 618.81,-263.5 618.81,-235.5 460.7,-235.5"/>
<text text-anchor="start" x="468.7" y="-251.5" font-family="Helvetica,sans-Serif" font-size="10.00">Ogre::v1::D3D11HardwareIndex</text>
<text text-anchor="middle" x="539.75" y="-241.5" font-family="Helvetica,sans-Serif" font-size="10.00">Buffer</text>
</a>
</g>
</g>
<!-- Node1&#45;&gt;Node4 -->
<g id="edge3" class="edge">
<title>Node1&#45;&gt;Node4</title>
<path fill="none" stroke="midnightblue" d="M359.15,-148.13C379.28,-169.33 416.96,-205.73 456.16,-226.5 462.61,-229.91 469.61,-232.87 476.72,-235.4"/>
<polygon fill="midnightblue" stroke="midnightblue" points="361.47,-145.49 352.09,-140.56 356.35,-150.26 361.47,-145.49"/>
</g>
<!-- Node5 -->
<g id="node5" class="node">
<title>Node5</title>
<g id="a_node5"><a xlink:href="class_ogre_1_1v1_1_1_default_hardware_index_buffer.html" target="_top" xlink:title="Specialisation of HardwareIndexBuffer for emulation.">
<polygon fill="none" stroke="black" points="472.28,-188.5 472.28,-216.5 607.22,-216.5 607.22,-188.5 472.28,-188.5"/>
<text text-anchor="start" x="480.28" y="-204.5" font-family="Helvetica,sans-Serif" font-size="10.00">Ogre::v1::DefaultHardware</text>
<text text-anchor="middle" x="539.75" y="-194.5" font-family="Helvetica,sans-Serif" font-size="10.00">IndexBuffer</text>
</a>
</g>
</g>
<!-- Node1&#45;&gt;Node5 -->
<g id="edge4" class="edge">
<title>Node1&#45;&gt;Node5</title>
<path fill="none" stroke="midnightblue" d="M372.45,-144.9C394.87,-155.18 427.1,-169.28 456.16,-179.5 465.15,-182.66 474.8,-185.68 484.23,-188.43"/>
<polygon fill="midnightblue" stroke="midnightblue" points="373.73,-141.64 363.18,-140.62 370.79,-147.99 373.73,-141.64"/>
</g>
<!-- Node6 -->
<g id="node6" class="node">
<title>Node6</title>
<g id="a_node6"><a xlink:href="class_ogre_1_1v1_1_1_g_l3_plus_default_hardware_index_buffer.html" target="_top" xlink:title="Specialisation of HardwareIndexBuffer for emulation.">
<polygon fill="none" stroke="black" points="474.78,-141.5 474.78,-169.5 604.72,-169.5 604.72,-141.5 474.78,-141.5"/>
<text text-anchor="start" x="482.78" y="-157.5" font-family="Helvetica,sans-Serif" font-size="10.00">Ogre::v1::GL3PlusDefault</text>
<text text-anchor="middle" x="539.75" y="-147.5" font-family="Helvetica,sans-Serif" font-size="10.00">HardwareIndexBuffer</text>
</a>
</g>
</g>
<!-- Node1&#45;&gt;Node6 -->
<g id="edge5" class="edge">
<title>Node1&#45;&gt;Node6</title>
<path fill="none" stroke="midnightblue" d="M427.39,-141.77C443.18,-143.72 459.48,-145.73 474.57,-147.59"/>
<polygon fill="midnightblue" stroke="midnightblue" points="427.46,-138.25 417.1,-140.5 426.6,-145.2 427.46,-138.25"/>
</g>
<!-- Node7 -->
<g id="node7" class="node">
<title>Node7</title>
<g id="a_node7"><a xlink:href="class_ogre_1_1v1_1_1_g_l3_plus_hardware_index_buffer.html" target="_top" xlink:title=" ">
<polygon fill="none" stroke="black" points="468.95,-94.5 468.95,-122.5 610.56,-122.5 610.56,-94.5 468.95,-94.5"/>
<text text-anchor="start" x="476.95" y="-110.5" font-family="Helvetica,sans-Serif" font-size="10.00">Ogre::v1::GL3PlusHardware</text>
<text text-anchor="middle" x="539.75" y="-100.5" font-family="Helvetica,sans-Serif" font-size="10.00">IndexBuffer</text>
</a>
</g>
</g>
<!-- Node1&#45;&gt;Node7 -->
<g id="edge6" class="edge">
<title>Node1&#45;&gt;Node7</title>
<path fill="none" stroke="midnightblue" d="M430.38,-121.3C443.2,-119.79 456.29,-118.24 468.73,-116.77"/>
<polygon fill="midnightblue" stroke="midnightblue" points="429.68,-117.86 420.16,-122.51 430.5,-124.81 429.68,-117.86"/>
</g>
<!-- Node8 -->
<g id="node8" class="node">
<title>Node8</title>
<g id="a_node8"><a xlink:href="class_ogre_1_1v1_1_1_g_l_e_s2_default_hardware_index_buffer.html" target="_top" xlink:title="Specialisation of HardwareIndexBuffer for emulation.">
<polygon fill="none" stroke="black" points="456.16,-47.5 456.16,-75.5 623.34,-75.5 623.34,-47.5 456.16,-47.5"/>
<text text-anchor="start" x="464.16" y="-63.5" font-family="Helvetica,sans-Serif" font-size="10.00">Ogre::v1::GLES2DefaultHardware</text>
<text text-anchor="middle" x="539.75" y="-53.5" font-family="Helvetica,sans-Serif" font-size="10.00">IndexBuffer</text>
</a>
</g>
</g>
<!-- Node1&#45;&gt;Node8 -->
<g id="edge7" class="edge">
<title>Node1&#45;&gt;Node8</title>
<path fill="none" stroke="midnightblue" d="M372.88,-118.23C395.3,-108.21 427.33,-94.51 456.16,-84.5 465.3,-81.33 475.12,-78.28 484.69,-75.5"/>
<polygon fill="midnightblue" stroke="midnightblue" points="371.28,-115.12 363.61,-122.42 374.16,-121.5 371.28,-115.12"/>
</g>
<!-- Node9 -->
<g id="node9" class="node">
<title>Node9</title>
<g id="a_node9"><a xlink:href="class_ogre_1_1v1_1_1_metal_hardware_index_buffer.html" target="_top" xlink:title="Specialisation of HardwareIndexBuffer for Metal.">
<polygon fill="none" stroke="black" points="463.67,-0.5 463.67,-28.5 615.84,-28.5 615.84,-0.5 463.67,-0.5"/>
<text text-anchor="start" x="471.67" y="-16.5" font-family="Helvetica,sans-Serif" font-size="10.00">Ogre::v1::MetalHardwareIndex</text>
<text text-anchor="middle" x="539.75" y="-6.5" font-family="Helvetica,sans-Serif" font-size="10.00">Buffer</text>
</a>
</g>
</g>
<!-- Node1&#45;&gt;Node9 -->
<g id="edge8" class="edge">
<title>Node1&#45;&gt;Node9</title>
<path fill="none" stroke="midnightblue" d="M359.49,-114.73C379.74,-93.72 417.27,-57.98 456.16,-37.5 462.61,-34.1 469.62,-31.16 476.74,-28.63"/>
<polygon fill="midnightblue" stroke="midnightblue" points="356.71,-112.58 352.38,-122.25 361.79,-117.39 356.71,-112.58"/>
</g>
<!-- Node2 -->
<g id="node2" class="node">
<title>Node2</title>
<g id="a_node2"><a xlink:href="class_ogre_1_1v1_1_1_hardware_buffer.html" target="_top" xlink:title="Abstract class defining common features of hardware buffers.">
<polygon fill="none" stroke="black" points="100.18,-122.5 100.18,-140.5 229.94,-140.5 229.94,-122.5 100.18,-122.5"/>
<text text-anchor="middle" x="165.06" y="-128.5" font-family="Helvetica,sans-Serif" font-size="10.00">Ogre::v1::HardwareBuffer</text>
</a>
</g>
</g>
<!-- Node2&#45;&gt;Node1 -->
<g id="edge1" class="edge">
<title>Node2&#45;&gt;Node1</title>
<path fill="none" stroke="midnightblue" d="M240.28,-131.5C248.72,-131.5 257.33,-131.5 265.8,-131.5"/>
<polygon fill="midnightblue" stroke="midnightblue" points="240.09,-128 230.09,-131.5 240.09,-135 240.09,-128"/>
</g>
<!-- Node3 -->
<g id="node3" class="node">
<title>Node3</title>
<g id="a_node3"><a xlink:href="class_ogre_1_1_allocated_object.html" target="_top" xlink:title="Superclass for all objects that wish to use custom memory allocators when their new / delete operator...">
<polygon fill="none" stroke="black" points="0,-122.5 0,-140.5 64.18,-140.5 64.18,-122.5 0,-122.5"/>
<text text-anchor="middle" x="32.09" y="-128.5" font-family="Helvetica,sans-Serif" font-size="10.00">BufferAlloc</text>
</a>
</g>
</g>
<!-- Node3&#45;&gt;Node2 -->
<g id="edge2" class="edge">
<title>Node3&#45;&gt;Node2</title>
<path fill="none" stroke="midnightblue" d="M74.71,-131.5C82.78,-131.5 91.42,-131.5 100.03,-131.5"/>
<polygon fill="midnightblue" stroke="midnightblue" points="74.46,-128 64.46,-131.5 74.46,-135 74.46,-128"/>
</g>
</g>
</svg>
