<?xml version="1.0" encoding="UTF-8" standalone="no"?>
<!DOCTYPE svg PUBLIC "-//W3C//DTD SVG 1.1//EN"
 "http://www.w3.org/Graphics/SVG/1.1/DTD/svg11.dtd">
<!-- Generated by graphviz version 2.43.0 (0)
 -->
<!-- Title: Ogre::Volume::Chunk Pages: 1 -->
<svg width="232pt" height="82pt"
 viewBox="0.00 0.00 232.26 82.00" xmlns="http://www.w3.org/2000/svg" xmlns:xlink="http://www.w3.org/1999/xlink">
<g id="graph0" class="graph" transform="scale(1 1) rotate(0) translate(4 78)">
<title>Ogre::Volume::Chunk</title>
<!-- Node1 -->
<g id="node1" class="node">
<title>Node1</title>
<g id="a_node1"><a xlink:title="A single volume chunk mesh.">
<polygon fill="#bfbfbf" stroke="black" points="53.33,-0.5 53.33,-18.5 164.94,-18.5 164.94,-0.5 53.33,-0.5"/>
<text text-anchor="middle" x="109.14" y="-6.5" font-family="Helvetica,sans-Serif" font-size="10.00">Ogre::Volume::Chunk</text>
</a>
</g>
</g>
<!-- Node2 -->
<g id="node2" class="node">
<title>Node2</title>
<g id="a_node2"><a xlink:title=" ">
<polygon fill="none" stroke="#bfbfbf" points="0,-55.5 0,-73.5 98.27,-73.5 98.27,-55.5 0,-55.5"/>
<text text-anchor="middle" x="49.14" y="-61.5" font-family="Helvetica,sans-Serif" font-size="10.00">SimpleRenderable</text>
</a>
</g>
</g>
<!-- Node2&#45;&gt;Node1 -->
<g id="edge1" class="edge">
<title>Node2&#45;&gt;Node1</title>
<path fill="none" stroke="midnightblue" d="M65.96,-48.64C76.96,-38.92 90.92,-26.59 99.94,-18.63"/>
<polygon fill="midnightblue" stroke="midnightblue" points="63.43,-46.21 58.25,-55.45 68.06,-51.45 63.43,-46.21"/>
</g>
<!-- Node3 -->
<g id="node3" class="node">
<title>Node3</title>
<g id="a_node3"><a xlink:href="class_ogre_1_1_frame_listener.html" target="_top" xlink:title="A interface class defining a listener which can be used to receive notifications of frame events.">
<polygon fill="none" stroke="black" points="116.01,-55.5 116.01,-73.5 224.26,-73.5 224.26,-55.5 116.01,-55.5"/>
<text text-anchor="middle" x="170.14" y="-61.5" font-family="Helvetica,sans-Serif" font-size="10.00">Ogre::FrameListener</text>
</a>
</g>
</g>
<!-- Node3&#45;&gt;Node1 -->
<g id="edge2" class="edge">
<title>Node3&#45;&gt;Node1</title>
<path fill="none" stroke="midnightblue" d="M153.03,-48.64C141.85,-38.92 127.66,-26.59 118.49,-18.63"/>
<polygon fill="midnightblue" stroke="midnightblue" points="151.03,-51.53 160.87,-55.45 155.62,-46.25 151.03,-51.53"/>
</g>
</g>
</svg>
