<?xml version="1.0" encoding="UTF-8" standalone="no"?>
<!DOCTYPE svg PUBLIC "-//W3C//DTD SVG 1.1//EN"
 "http://www.w3.org/Graphics/SVG/1.1/DTD/svg11.dtd">
<!-- Generated by graphviz version 2.43.0 (0)
 -->
<!-- Title: Ogre::Volume::CSGUnarySource Pages: 1 -->
<svg width="525pt" height="101pt"
 viewBox="0.00 0.00 525.43 101.00" xmlns="http://www.w3.org/2000/svg" xmlns:xlink="http://www.w3.org/1999/xlink">
<g id="graph0" class="graph" transform="scale(1 1) rotate(0) translate(4 97)">
<title>Ogre::Volume::CSGUnarySource</title>
<!-- Node1 -->
<g id="node1" class="node">
<title>Node1</title>
<g id="a_node1"><a xlink:title="Source which does a unary operation to another one.">
<polygon fill="#bfbfbf" stroke="black" points="150.39,-37.5 150.39,-55.5 313.12,-55.5 313.12,-37.5 150.39,-37.5"/>
<text text-anchor="middle" x="231.76" y="-43.5" font-family="Helvetica,sans-Serif" font-size="10.00">Ogre::Volume::CSGUnarySource</text>
</a>
</g>
</g>
<!-- Node3 -->
<g id="node3" class="node">
<title>Node3</title>
<g id="a_node3"><a xlink:href="class_ogre_1_1_volume_1_1_c_s_g_negate_source.html" target="_top" xlink:title="Negates the given volume.">
<polygon fill="none" stroke="black" points="349.12,-74.5 349.12,-92.5 517.43,-92.5 517.43,-74.5 349.12,-74.5"/>
<text text-anchor="middle" x="433.27" y="-80.5" font-family="Helvetica,sans-Serif" font-size="10.00">Ogre::Volume::CSGNegateSource</text>
</a>
</g>
</g>
<!-- Node1&#45;&gt;Node3 -->
<g id="edge2" class="edge">
<title>Node1&#45;&gt;Node3</title>
<path fill="none" stroke="midnightblue" d="M291.41,-57.38C320.69,-62.81 355.71,-69.3 383.5,-74.46"/>
<polygon fill="midnightblue" stroke="midnightblue" points="291.78,-53.89 281.31,-55.5 290.5,-60.77 291.78,-53.89"/>
</g>
<!-- Node4 -->
<g id="node4" class="node">
<title>Node4</title>
<g id="a_node4"><a xlink:href="class_ogre_1_1_volume_1_1_c_s_g_noise_source.html" target="_top" xlink:title=" ">
<polygon fill="none" stroke="black" points="352.46,-37.5 352.46,-55.5 514.09,-55.5 514.09,-37.5 352.46,-37.5"/>
<text text-anchor="middle" x="433.27" y="-43.5" font-family="Helvetica,sans-Serif" font-size="10.00">Ogre::Volume::CSGNoiseSource</text>
</a>
</g>
</g>
<!-- Node1&#45;&gt;Node4 -->
<g id="edge3" class="edge">
<title>Node1&#45;&gt;Node4</title>
<path fill="none" stroke="midnightblue" d="M323.36,-46.5C333.04,-46.5 342.83,-46.5 352.37,-46.5"/>
<polygon fill="midnightblue" stroke="midnightblue" points="323.33,-43 313.33,-46.5 323.33,-50 323.33,-43"/>
</g>
<!-- Node5 -->
<g id="node5" class="node">
<title>Node5</title>
<g id="a_node5"><a xlink:href="class_ogre_1_1_volume_1_1_c_s_g_scale_source.html" target="_top" xlink:title="Scales the given volume source.">
<polygon fill="none" stroke="black" points="352.74,-0.5 352.74,-18.5 513.81,-18.5 513.81,-0.5 352.74,-0.5"/>
<text text-anchor="middle" x="433.27" y="-6.5" font-family="Helvetica,sans-Serif" font-size="10.00">Ogre::Volume::CSGScaleSource</text>
</a>
</g>
</g>
<!-- Node1&#45;&gt;Node5 -->
<g id="edge4" class="edge">
<title>Node1&#45;&gt;Node5</title>
<path fill="none" stroke="midnightblue" d="M291.41,-35.62C320.69,-30.19 355.71,-23.7 383.5,-18.54"/>
<polygon fill="midnightblue" stroke="midnightblue" points="290.5,-32.23 281.31,-37.5 291.78,-39.11 290.5,-32.23"/>
</g>
<!-- Node2 -->
<g id="node2" class="node">
<title>Node2</title>
<g id="a_node2"><a xlink:href="class_ogre_1_1_volume_1_1_source.html" target="_top" xlink:title="Abstract class defining the density function.">
<polygon fill="none" stroke="black" points="0,-37.5 0,-55.5 114.39,-55.5 114.39,-37.5 0,-37.5"/>
<text text-anchor="middle" x="57.19" y="-43.5" font-family="Helvetica,sans-Serif" font-size="10.00">Ogre::Volume::Source</text>
</a>
</g>
</g>
<!-- Node2&#45;&gt;Node1 -->
<g id="edge1" class="edge">
<title>Node2&#45;&gt;Node1</title>
<path fill="none" stroke="midnightblue" d="M124.76,-46.5C133.14,-46.5 141.77,-46.5 150.33,-46.5"/>
<polygon fill="midnightblue" stroke="midnightblue" points="124.7,-43 114.7,-46.5 124.7,-50 124.7,-43"/>
</g>
</g>
</svg>
