<?xml version="1.0" encoding="UTF-8" standalone="no"?>
<!DOCTYPE svg PUBLIC "-//W3C//DTD SVG 1.1//EN"
 "http://www.w3.org/Graphics/SVG/1.1/DTD/svg11.dtd">
<!-- Generated by graphviz version 2.43.0 (0)
 -->
<!-- Title: Ogre::HighLevelGpuProgram Pages: 1 -->
<svg width="732pt" height="222pt"
 viewBox="0.00 0.00 732.24 222.00" xmlns="http://www.w3.org/2000/svg" xmlns:xlink="http://www.w3.org/1999/xlink">
<g id="graph0" class="graph" transform="scale(1 1) rotate(0) translate(4 218)">
<title>Ogre::HighLevelGpuProgram</title>
<!-- Node1 -->
<g id="node1" class="node">
<title>Node1</title>
<g id="a_node1"><a xlink:title="Abstract base class representing a high&#45;level program (a vertex or fragment program).">
<polygon fill="#bfbfbf" stroke="black" points="404.44,-102.5 404.44,-120.5 549.95,-120.5 549.95,-102.5 404.44,-102.5"/>
<text text-anchor="middle" x="477.2" y="-108.5" font-family="Helvetica,sans-Serif" font-size="10.00">Ogre::HighLevelGpuProgram</text>
</a>
</g>
</g>
<!-- Node6 -->
<g id="node6" class="node">
<title>Node6</title>
<g id="a_node6"><a xlink:href="class_ogre_1_1_cg_program.html" target="_top" xlink:title="Specialisation of HighLevelGpuProgram to provide support for nVidia&#39;s CG language.">
<polygon fill="none" stroke="black" points="607.64,-195.5 607.64,-213.5 702.55,-213.5 702.55,-195.5 607.64,-195.5"/>
<text text-anchor="middle" x="655.09" y="-201.5" font-family="Helvetica,sans-Serif" font-size="10.00">Ogre::CgProgram</text>
</a>
</g>
</g>
<!-- Node1&#45;&gt;Node6 -->
<g id="edge5" class="edge">
<title>Node1&#45;&gt;Node6</title>
<path fill="none" stroke="midnightblue" d="M496.28,-127.09C516.76,-144 551.74,-170.68 585.95,-186.5 593.72,-190.1 602.34,-193.07 610.76,-195.5"/>
<polygon fill="midnightblue" stroke="midnightblue" points="498.35,-124.26 488.44,-120.51 493.85,-129.62 498.35,-124.26"/>
</g>
<!-- Node7 -->
<g id="node7" class="node">
<title>Node7</title>
<g id="a_node7"><a xlink:href="class_ogre_1_1_d3_d11_h_l_s_l_program.html" target="_top" xlink:title="Specialization of HighLevelGpuProgram to provide support for D3D11 High&#45;Level Shader Language (HLSL).">
<polygon fill="none" stroke="black" points="586.33,-158.5 586.33,-176.5 723.86,-176.5 723.86,-158.5 586.33,-158.5"/>
<text text-anchor="middle" x="655.09" y="-164.5" font-family="Helvetica,sans-Serif" font-size="10.00">Ogre::D3D11HLSLProgram</text>
</a>
</g>
</g>
<!-- Node1&#45;&gt;Node7 -->
<g id="edge6" class="edge">
<title>Node1&#45;&gt;Node7</title>
<path fill="none" stroke="midnightblue" d="M511.48,-124.02C532.66,-131.79 560.74,-141.74 585.95,-149.5 596.12,-152.63 607.25,-155.71 617.51,-158.42"/>
<polygon fill="midnightblue" stroke="midnightblue" points="512.57,-120.69 501.98,-120.51 510.15,-127.26 512.57,-120.69"/>
</g>
<!-- Node8 -->
<g id="node8" class="node">
<title>Node8</title>
<g id="a_node8"><a xlink:href="class_ogre_1_1_d3_d9_h_l_s_l_program.html" target="_top" xlink:title="Specialisation of HighLevelGpuProgram to provide support for D3D9 High&#45;Level Shader Language (HLSL).">
<polygon fill="none" stroke="black" points="588.74,-121.5 588.74,-139.5 721.45,-139.5 721.45,-121.5 588.74,-121.5"/>
<text text-anchor="middle" x="655.09" y="-127.5" font-family="Helvetica,sans-Serif" font-size="10.00">Ogre::D3D9HLSLProgram</text>
</a>
</g>
</g>
<!-- Node1&#45;&gt;Node8 -->
<g id="edge7" class="edge">
<title>Node1&#45;&gt;Node8</title>
<path fill="none" stroke="midnightblue" d="M560.22,-120.36C569.69,-121.38 579.25,-122.42 588.47,-123.41"/>
<polygon fill="midnightblue" stroke="midnightblue" points="560.31,-116.85 549.99,-119.26 559.56,-123.81 560.31,-116.85"/>
</g>
<!-- Node9 -->
<g id="node9" class="node">
<title>Node9</title>
<g id="a_node9"><a xlink:href="class_ogre_1_1_g_l_s_l_shader.html" target="_top" xlink:title="Specialisation of HighLevelGpuProgram to encapsulate shader objects obtained from compiled shaders wr...">
<polygon fill="none" stroke="black" points="604.29,-84.5 604.29,-102.5 705.9,-102.5 705.9,-84.5 604.29,-84.5"/>
<text text-anchor="middle" x="655.09" y="-90.5" font-family="Helvetica,sans-Serif" font-size="10.00">Ogre::GLSLShader</text>
</a>
</g>
</g>
<!-- Node1&#45;&gt;Node9 -->
<g id="edge8" class="edge">
<title>Node1&#45;&gt;Node9</title>
<path fill="none" stroke="midnightblue" d="M560.28,-103.1C575.22,-101.57 590.38,-100.02 604.04,-98.62"/>
<polygon fill="midnightblue" stroke="midnightblue" points="559.59,-99.65 549.99,-104.15 560.3,-106.62 559.59,-99.65"/>
</g>
<!-- Node10 -->
<g id="node10" class="node">
<title>Node10</title>
<g id="a_node10"><a xlink:href="class_ogre_1_1_metal_program.html" target="_top" xlink:title="Specialisation of HighLevelGpuProgram to provide support for Metal Shader Language.">
<polygon fill="none" stroke="black" points="601.8,-47.5 601.8,-65.5 708.39,-65.5 708.39,-47.5 601.8,-47.5"/>
<text text-anchor="middle" x="655.09" y="-53.5" font-family="Helvetica,sans-Serif" font-size="10.00">Ogre::MetalProgram</text>
</a>
</g>
</g>
<!-- Node1&#45;&gt;Node10 -->
<g id="edge9" class="edge">
<title>Node1&#45;&gt;Node10</title>
<path fill="none" stroke="midnightblue" d="M512.34,-99.07C533.43,-91.57 561.11,-82.03 585.95,-74.5 596.25,-71.37 607.53,-68.27 617.88,-65.54"/>
<polygon fill="midnightblue" stroke="midnightblue" points="511.09,-95.8 502.85,-102.46 513.45,-102.39 511.09,-95.8"/>
</g>
<!-- Node11 -->
<g id="node11" class="node">
<title>Node11</title>
<g id="a_node11"><a xlink:href="class_ogre_1_1_unified_high_level_gpu_program.html" target="_top" xlink:title="Specialisation of HighLevelGpuProgram which just delegates its implementation to one other high level...">
<polygon fill="none" stroke="black" points="585.95,-0.5 585.95,-28.5 724.24,-28.5 724.24,-0.5 585.95,-0.5"/>
<text text-anchor="start" x="593.95" y="-16.5" font-family="Helvetica,sans-Serif" font-size="10.00">Ogre::UnifiedHighLevelGpu</text>
<text text-anchor="middle" x="655.09" y="-6.5" font-family="Helvetica,sans-Serif" font-size="10.00">Program</text>
</a>
</g>
</g>
<!-- Node1&#45;&gt;Node11 -->
<g id="edge10" class="edge">
<title>Node1&#45;&gt;Node11</title>
<path fill="none" stroke="midnightblue" d="M497.19,-96.03C517.96,-79.72 552.74,-54.11 585.95,-37.5 592.54,-34.21 599.71,-31.21 606.85,-28.55"/>
<polygon fill="midnightblue" stroke="midnightblue" points="494.83,-93.44 489.19,-102.41 499.19,-98.91 494.83,-93.44"/>
</g>
<!-- Node2 -->
<g id="node2" class="node">
<title>Node2</title>
<g id="a_node2"><a xlink:href="class_ogre_1_1_gpu_program.html" target="_top" xlink:title="Defines a program which runs on the GPU such as a vertex or fragment program.">
<polygon fill="none" stroke="black" points="267.41,-102.5 267.41,-120.5 368.44,-120.5 368.44,-102.5 267.41,-102.5"/>
<text text-anchor="middle" x="317.93" y="-108.5" font-family="Helvetica,sans-Serif" font-size="10.00">Ogre::GpuProgram</text>
</a>
</g>
</g>
<!-- Node2&#45;&gt;Node1 -->
<g id="edge1" class="edge">
<title>Node2&#45;&gt;Node1</title>
<path fill="none" stroke="midnightblue" d="M378.73,-111.5C387.1,-111.5 395.78,-111.5 404.35,-111.5"/>
<polygon fill="midnightblue" stroke="midnightblue" points="378.69,-108 368.69,-111.5 378.69,-115 378.69,-108"/>
</g>
<!-- Node3 -->
<g id="node3" class="node">
<title>Node3</title>
<g id="a_node3"><a xlink:href="class_ogre_1_1_resource.html" target="_top" xlink:title="Abstract class representing a loadable resource (e.g.">
<polygon fill="none" stroke="black" points="144.82,-102.5 144.82,-120.5 231.41,-120.5 231.41,-102.5 144.82,-102.5"/>
<text text-anchor="middle" x="188.12" y="-108.5" font-family="Helvetica,sans-Serif" font-size="10.00">Ogre::Resource</text>
</a>
</g>
</g>
<!-- Node3&#45;&gt;Node2 -->
<g id="edge2" class="edge">
<title>Node3&#45;&gt;Node2</title>
<path fill="none" stroke="midnightblue" d="M241.71,-111.5C250.08,-111.5 258.72,-111.5 267.02,-111.5"/>
<polygon fill="midnightblue" stroke="midnightblue" points="241.67,-108 231.67,-111.5 241.67,-115 241.67,-108"/>
</g>
<!-- Node4 -->
<g id="node4" class="node">
<title>Node4</title>
<g id="a_node4"><a xlink:href="class_ogre_1_1_string_interface.html" target="_top" xlink:title="Class defining the common interface which classes can use to present a reflection&#45;style,...">
<polygon fill="none" stroke="black" points="0,-121.5 0,-139.5 108.82,-139.5 108.82,-121.5 0,-121.5"/>
<text text-anchor="middle" x="54.41" y="-127.5" font-family="Helvetica,sans-Serif" font-size="10.00">Ogre::StringInterface</text>
</a>
</g>
</g>
<!-- Node4&#45;&gt;Node3 -->
<g id="edge3" class="edge">
<title>Node4&#45;&gt;Node3</title>
<path fill="none" stroke="midnightblue" d="M119.05,-121.32C127.68,-120.07 136.36,-118.82 144.49,-117.65"/>
<polygon fill="midnightblue" stroke="midnightblue" points="118.38,-117.88 108.98,-122.77 119.38,-124.81 118.38,-117.88"/>
</g>
<!-- Node5 -->
<g id="node5" class="node">
<title>Node5</title>
<g id="a_node5"><a xlink:href="class_ogre_1_1_allocated_object.html" target="_top" xlink:title="Superclass for all objects that wish to use custom memory allocators when their new / delete operator...">
<polygon fill="none" stroke="black" points="14.17,-84.5 14.17,-102.5 94.65,-102.5 94.65,-84.5 14.17,-84.5"/>
<text text-anchor="middle" x="54.41" y="-90.5" font-family="Helvetica,sans-Serif" font-size="10.00">ResourceAlloc</text>
</a>
</g>
</g>
<!-- Node5&#45;&gt;Node3 -->
<g id="edge4" class="edge">
<title>Node5&#45;&gt;Node3</title>
<path fill="none" stroke="midnightblue" d="M105.08,-100.29C118.03,-102.06 131.86,-103.95 144.41,-105.66"/>
<polygon fill="midnightblue" stroke="midnightblue" points="105.31,-96.79 94.93,-98.9 104.36,-103.72 105.31,-96.79"/>
</g>
</g>
</svg>
