<?xml version="1.0" encoding="UTF-8" standalone="no"?>
<!DOCTYPE svg PUBLIC "-//W3C//DTD SVG 1.1//EN"
 "http://www.w3.org/Graphics/SVG/1.1/DTD/svg11.dtd">
<!-- Generated by graphviz version 2.43.0 (0)
 -->
<!-- Title: Ogre::v1::OverlayElement Pages: 1 -->
<svg width="326pt" height="267pt"
 viewBox="0.00 0.00 326.32 267.00" xmlns="http://www.w3.org/2000/svg" xmlns:xlink="http://www.w3.org/1999/xlink">
<g id="graph0" class="graph" transform="scale(1 1) rotate(0) translate(4 263)">
<title>Ogre::v1::OverlayElement</title>
<!-- Node1 -->
<g id="node1" class="node">
<title>Node1</title>
<g id="a_node1"><a xlink:title="Abstract definition of a 2D element to be displayed in an Overlay.">
<polygon fill="#bfbfbf" stroke="black" points="108.89,-185.5 108.89,-203.5 239.93,-203.5 239.93,-185.5 108.89,-185.5"/>
<text text-anchor="middle" x="174.41" y="-191.5" font-family="Helvetica,sans-Serif" font-size="10.00">Ogre::v1::OverlayElement</text>
</a>
</g>
</g>
<!-- Node5 -->
<g id="node5" class="node">
<title>Node5</title>
<g id="a_node5"><a xlink:href="class_ogre_1_1v1_1_1_overlay_container.html" target="_top" xlink:title="A 2D element which contains other OverlayElement instances.">
<polygon fill="none" stroke="black" points="28.55,-125.5 28.55,-143.5 166.27,-143.5 166.27,-125.5 28.55,-125.5"/>
<text text-anchor="middle" x="97.41" y="-131.5" font-family="Helvetica,sans-Serif" font-size="10.00">Ogre::v1::OverlayContainer</text>
</a>
</g>
</g>
<!-- Node1&#45;&gt;Node5 -->
<g id="edge4" class="edge">
<title>Node1&#45;&gt;Node5</title>
<path fill="none" stroke="midnightblue" d="M155.31,-179.12C140.59,-168.03 120.74,-153.08 108.53,-143.87"/>
<polygon fill="midnightblue" stroke="midnightblue" points="153.61,-182.21 163.7,-185.44 157.82,-176.62 153.61,-182.21"/>
</g>
<!-- Node8 -->
<g id="node8" class="node">
<title>Node8</title>
<g id="a_node8"><a xlink:href="class_ogre_1_1v1_1_1_text_area_overlay_element.html" target="_top" xlink:title="This class implements an overlay element which contains simple unformatted text.">
<polygon fill="none" stroke="black" points="184.5,-120.5 184.5,-148.5 318.32,-148.5 318.32,-120.5 184.5,-120.5"/>
<text text-anchor="start" x="192.5" y="-136.5" font-family="Helvetica,sans-Serif" font-size="10.00">Ogre::v1::TextAreaOverlay</text>
<text text-anchor="middle" x="251.41" y="-126.5" font-family="Helvetica,sans-Serif" font-size="10.00">Element</text>
</a>
</g>
</g>
<!-- Node1&#45;&gt;Node8 -->
<g id="edge7" class="edge">
<title>Node1&#45;&gt;Node8</title>
<path fill="none" stroke="midnightblue" d="M193.4,-179.2C205.81,-169.85 221.91,-157.72 233.99,-148.62"/>
<polygon fill="midnightblue" stroke="midnightblue" points="191,-176.62 185.12,-185.44 195.21,-182.21 191,-176.62"/>
</g>
<!-- Node2 -->
<g id="node2" class="node">
<title>Node2</title>
<g id="a_node2"><a xlink:href="class_ogre_1_1_string_interface.html" target="_top" xlink:title="Class defining the common interface which classes can use to present a reflection&#45;style,...">
<polygon fill="none" stroke="black" points="0,-240.5 0,-258.5 108.82,-258.5 108.82,-240.5 0,-240.5"/>
<text text-anchor="middle" x="54.41" y="-246.5" font-family="Helvetica,sans-Serif" font-size="10.00">Ogre::StringInterface</text>
</a>
</g>
</g>
<!-- Node2&#45;&gt;Node1 -->
<g id="edge1" class="edge">
<title>Node2&#45;&gt;Node1</title>
<path fill="none" stroke="midnightblue" d="M82.07,-236.28C104.78,-226.25 136.3,-212.33 156.01,-203.63"/>
<polygon fill="midnightblue" stroke="midnightblue" points="80.37,-233.21 72.64,-240.45 83.2,-239.61 80.37,-233.21"/>
</g>
<!-- Node3 -->
<g id="node3" class="node">
<title>Node3</title>
<g id="a_node3"><a xlink:href="class_ogre_1_1_renderable.html" target="_top" xlink:title="Abstract class defining the interface all renderable objects must implement.">
<polygon fill="none" stroke="black" points="126.67,-240.5 126.67,-258.5 222.16,-258.5 222.16,-240.5 126.67,-240.5"/>
<text text-anchor="middle" x="174.41" y="-246.5" font-family="Helvetica,sans-Serif" font-size="10.00">Ogre::Renderable</text>
</a>
</g>
</g>
<!-- Node3&#45;&gt;Node1 -->
<g id="edge2" class="edge">
<title>Node3&#45;&gt;Node1</title>
<path fill="none" stroke="midnightblue" d="M174.41,-230.17C174.41,-221.09 174.41,-210.59 174.41,-203.55"/>
<polygon fill="midnightblue" stroke="midnightblue" points="170.91,-230.22 174.41,-240.22 177.91,-230.22 170.91,-230.22"/>
</g>
<!-- Node4 -->
<g id="node4" class="node">
<title>Node4</title>
<g id="a_node4"><a xlink:href="class_ogre_1_1_allocated_object.html" target="_top" xlink:title="Superclass for all objects that wish to use custom memory allocators when their new / delete operator...">
<polygon fill="none" stroke="black" points="240.35,-240.5 240.35,-258.5 312.48,-258.5 312.48,-240.5 240.35,-240.5"/>
<text text-anchor="middle" x="276.41" y="-246.5" font-family="Helvetica,sans-Serif" font-size="10.00">OverlayAlloc</text>
</a>
</g>
</g>
<!-- Node4&#45;&gt;Node1 -->
<g id="edge3" class="edge">
<title>Node4&#45;&gt;Node1</title>
<path fill="none" stroke="midnightblue" d="M251.85,-235.74C232.64,-225.76 206.51,-212.18 190.05,-203.63"/>
<polygon fill="midnightblue" stroke="midnightblue" points="250.43,-238.95 260.92,-240.45 253.66,-232.73 250.43,-238.95"/>
</g>
<!-- Node6 -->
<g id="node6" class="node">
<title>Node6</title>
<g id="a_node6"><a xlink:href="class_ogre_1_1v1_1_1_panel_overlay_element.html" target="_top" xlink:title="OverlayElement representing a flat, single&#45;material (or transparent) panel which can contain other el...">
<polygon fill="none" stroke="black" points="19.1,-65.5 19.1,-83.5 175.72,-83.5 175.72,-65.5 19.1,-65.5"/>
<text text-anchor="middle" x="97.41" y="-71.5" font-family="Helvetica,sans-Serif" font-size="10.00">Ogre::v1::PanelOverlayElement</text>
</a>
</g>
</g>
<!-- Node5&#45;&gt;Node6 -->
<g id="edge5" class="edge">
<title>Node5&#45;&gt;Node6</title>
<path fill="none" stroke="midnightblue" d="M97.41,-115.21C97.41,-104.71 97.41,-92.03 97.41,-83.87"/>
<polygon fill="midnightblue" stroke="midnightblue" points="93.91,-115.44 97.41,-125.44 100.91,-115.44 93.91,-115.44"/>
</g>
<!-- Node7 -->
<g id="node7" class="node">
<title>Node7</title>
<g id="a_node7"><a xlink:href="class_ogre_1_1v1_1_1_border_panel_overlay_element.html" target="_top" xlink:title="A specialisation of the PanelOverlayElement to provide a panel with a border.">
<polygon fill="none" stroke="black" points="22.44,-0.5 22.44,-28.5 172.39,-28.5 172.39,-0.5 22.44,-0.5"/>
<text text-anchor="start" x="30.44" y="-16.5" font-family="Helvetica,sans-Serif" font-size="10.00">Ogre::v1::BorderPanelOverlay</text>
<text text-anchor="middle" x="97.41" y="-6.5" font-family="Helvetica,sans-Serif" font-size="10.00">Element</text>
</a>
</g>
</g>
<!-- Node6&#45;&gt;Node7 -->
<g id="edge6" class="edge">
<title>Node6&#45;&gt;Node7</title>
<path fill="none" stroke="midnightblue" d="M97.41,-55.32C97.41,-46.75 97.41,-36.7 97.41,-28.84"/>
<polygon fill="midnightblue" stroke="midnightblue" points="93.91,-55.44 97.41,-65.44 100.91,-55.44 93.91,-55.44"/>
</g>
</g>
</svg>
