<?xml version="1.0" encoding="UTF-8" standalone="no"?>
<!DOCTYPE svg PUBLIC "-//W3C//DTD SVG 1.1//EN"
 "http://www.w3.org/Graphics/SVG/1.1/DTD/svg11.dtd">
<!-- Generated by graphviz version 2.43.0 (0)
 -->
<!-- Title: Ogre::RenderableAnimated Pages: 1 -->
<svg width="146pt" height="137pt"
 viewBox="0.00 0.00 145.74 137.00" xmlns="http://www.w3.org/2000/svg" xmlns:xlink="http://www.w3.org/1999/xlink">
<g id="graph0" class="graph" transform="scale(1 1) rotate(0) translate(4 133)">
<title>Ogre::RenderableAnimated</title>
<!-- Node1 -->
<g id="node1" class="node">
<title>Node1</title>
<g id="a_node1"><a xlink:title=" ">
<polygon fill="#bfbfbf" stroke="black" points="0,-55.5 0,-73.5 137.74,-73.5 137.74,-55.5 0,-55.5"/>
<text text-anchor="middle" x="68.87" y="-61.5" font-family="Helvetica,sans-Serif" font-size="10.00">Ogre::RenderableAnimated</text>
</a>
</g>
</g>
<!-- Node3 -->
<g id="node3" class="node">
<title>Node3</title>
<g id="a_node3"><a xlink:href="class_ogre_1_1_sub_item.html" target="_top" xlink:title="Utility class which defines the sub&#45;parts of an Item.">
<polygon fill="none" stroke="black" points="28.35,-0.5 28.35,-18.5 109.38,-18.5 109.38,-0.5 28.35,-0.5"/>
<text text-anchor="middle" x="68.87" y="-6.5" font-family="Helvetica,sans-Serif" font-size="10.00">Ogre::SubItem</text>
</a>
</g>
</g>
<!-- Node1&#45;&gt;Node3 -->
<g id="edge2" class="edge">
<title>Node1&#45;&gt;Node3</title>
<path fill="none" stroke="midnightblue" d="M68.87,-45.17C68.87,-36.09 68.87,-25.59 68.87,-18.55"/>
<polygon fill="midnightblue" stroke="midnightblue" points="65.37,-45.22 68.87,-55.22 72.37,-45.22 65.37,-45.22"/>
</g>
<!-- Node2 -->
<g id="node2" class="node">
<title>Node2</title>
<g id="a_node2"><a xlink:href="class_ogre_1_1_renderable.html" target="_top" xlink:title="Abstract class defining the interface all renderable objects must implement.">
<polygon fill="none" stroke="black" points="21.12,-110.5 21.12,-128.5 116.62,-128.5 116.62,-110.5 21.12,-110.5"/>
<text text-anchor="middle" x="68.87" y="-116.5" font-family="Helvetica,sans-Serif" font-size="10.00">Ogre::Renderable</text>
</a>
</g>
</g>
<!-- Node2&#45;&gt;Node1 -->
<g id="edge1" class="edge">
<title>Node2&#45;&gt;Node1</title>
<path fill="none" stroke="midnightblue" d="M68.87,-100.17C68.87,-91.09 68.87,-80.59 68.87,-73.55"/>
<polygon fill="midnightblue" stroke="midnightblue" points="65.37,-100.22 68.87,-110.22 72.37,-100.22 65.37,-100.22"/>
</g>
</g>
</svg>
