<?xml version="1.0" encoding="UTF-8" standalone="no"?>
<!DOCTYPE svg PUBLIC "-//W3C//DTD SVG 1.1//EN"
 "http://www.w3.org/Graphics/SVG/1.1/DTD/svg11.dtd">
<!-- Generated by graphviz version 2.43.0 (0)
 -->
<!-- Title: Ogre::UnifiedHighLevelGpuProgramFactory Pages: 1 -->
<svg width="154pt" height="157pt"
 viewBox="0.00 0.00 153.51 157.00" xmlns="http://www.w3.org/2000/svg" xmlns:xlink="http://www.w3.org/1999/xlink">
<g id="graph0" class="graph" transform="scale(1 1) rotate(0) translate(4 153)">
<title>Ogre::UnifiedHighLevelGpuProgramFactory</title>
<!-- Node1 -->
<g id="node1" class="node">
<title>Node1</title>
<g id="a_node1"><a xlink:title="Factory class for Unified programs.">
<polygon fill="#bfbfbf" stroke="black" points="3.61,-0.5 3.61,-28.5 141.9,-28.5 141.9,-0.5 3.61,-0.5"/>
<text text-anchor="start" x="11.61" y="-16.5" font-family="Helvetica,sans-Serif" font-size="10.00">Ogre::UnifiedHighLevelGpu</text>
<text text-anchor="middle" x="72.75" y="-6.5" font-family="Helvetica,sans-Serif" font-size="10.00">ProgramFactory</text>
</a>
</g>
</g>
<!-- Node2 -->
<g id="node2" class="node">
<title>Node2</title>
<g id="a_node2"><a xlink:href="class_ogre_1_1_high_level_gpu_program_factory.html" target="_top" xlink:title="Interface definition for factories of HighLevelGpuProgram.">
<polygon fill="none" stroke="black" points="0,-65.5 0,-93.5 145.51,-93.5 145.51,-65.5 0,-65.5"/>
<text text-anchor="start" x="8" y="-81.5" font-family="Helvetica,sans-Serif" font-size="10.00">Ogre::HighLevelGpuProgram</text>
<text text-anchor="middle" x="72.75" y="-71.5" font-family="Helvetica,sans-Serif" font-size="10.00">Factory</text>
</a>
</g>
</g>
<!-- Node2&#45;&gt;Node1 -->
<g id="edge1" class="edge">
<title>Node2&#45;&gt;Node1</title>
<path fill="none" stroke="midnightblue" d="M72.75,-55.16C72.75,-46.17 72.75,-36.22 72.75,-28.54"/>
<polygon fill="midnightblue" stroke="midnightblue" points="69.25,-55.45 72.75,-65.45 76.25,-55.45 69.25,-55.45"/>
</g>
<!-- Node3 -->
<g id="node3" class="node">
<title>Node3</title>
<g id="a_node3"><a xlink:href="class_ogre_1_1_allocated_object.html" target="_top" xlink:title="Superclass for all objects that wish to use custom memory allocators when their new / delete operator...">
<polygon fill="none" stroke="black" points="37.25,-130.5 37.25,-148.5 108.26,-148.5 108.26,-130.5 37.25,-130.5"/>
<text text-anchor="middle" x="72.75" y="-136.5" font-family="Helvetica,sans-Serif" font-size="10.00">FactoryAlloc</text>
</a>
</g>
</g>
<!-- Node3&#45;&gt;Node2 -->
<g id="edge2" class="edge">
<title>Node3&#45;&gt;Node2</title>
<path fill="none" stroke="midnightblue" d="M72.75,-120.32C72.75,-111.75 72.75,-101.7 72.75,-93.84"/>
<polygon fill="midnightblue" stroke="midnightblue" points="69.25,-120.44 72.75,-130.44 76.25,-120.44 69.25,-120.44"/>
</g>
</g>
</svg>
