<?xml version="1.0" encoding="UTF-8" standalone="no"?>
<!DOCTYPE svg PUBLIC "-//W3C//DTD SVG 1.1//EN"
 "http://www.w3.org/Graphics/SVG/1.1/DTD/svg11.dtd">
<!-- Generated by graphviz version 2.43.0 (0)
 -->
<!-- Title: Ogre::EllipsoidEmitter Pages: 1 -->
<svg width="212pt" height="302pt"
 viewBox="0.00 0.00 211.98 302.00" xmlns="http://www.w3.org/2000/svg" xmlns:xlink="http://www.w3.org/1999/xlink">
<g id="graph0" class="graph" transform="scale(1 1) rotate(0) translate(4 298)">
<title>Ogre::EllipsoidEmitter</title>
<!-- Node1 -->
<g id="node1" class="node">
<title>Node1</title>
<g id="a_node1"><a xlink:title="Particle emitter which emits particles randomly from points inside an ellipsoid.">
<polygon fill="#bfbfbf" stroke="black" points="53.06,-55.5 53.06,-73.5 165.76,-73.5 165.76,-55.5 53.06,-55.5"/>
<text text-anchor="middle" x="109.41" y="-61.5" font-family="Helvetica,sans-Serif" font-size="10.00">Ogre::EllipsoidEmitter</text>
</a>
</g>
</g>
<!-- Node7 -->
<g id="node7" class="node">
<title>Node7</title>
<g id="a_node7"><a xlink:href="class_ogre_1_1_hollow_ellipsoid_emitter.html" target="_top" xlink:title="Particle emitter which emits particles randomly from points inside a hollow ellipsoid.">
<polygon fill="none" stroke="black" points="38.06,-0.5 38.06,-18.5 180.77,-18.5 180.77,-0.5 38.06,-0.5"/>
<text text-anchor="middle" x="109.41" y="-6.5" font-family="Helvetica,sans-Serif" font-size="10.00">Ogre::HollowEllipsoidEmitter</text>
</a>
</g>
</g>
<!-- Node1&#45;&gt;Node7 -->
<g id="edge6" class="edge">
<title>Node1&#45;&gt;Node7</title>
<path fill="none" stroke="midnightblue" d="M109.41,-45.17C109.41,-36.09 109.41,-25.59 109.41,-18.55"/>
<polygon fill="midnightblue" stroke="midnightblue" points="105.91,-45.22 109.41,-55.22 112.91,-45.22 105.91,-45.22"/>
</g>
<!-- Node2 -->
<g id="node2" class="node">
<title>Node2</title>
<g id="a_node2"><a xlink:href="class_ogre_1_1_area_emitter.html" target="_top" xlink:title="Particle emitter which emits particles randomly from points inside an area (box, sphere,...">
<polygon fill="none" stroke="black" points="61.12,-110.5 61.12,-128.5 157.7,-128.5 157.7,-110.5 61.12,-110.5"/>
<text text-anchor="middle" x="109.41" y="-116.5" font-family="Helvetica,sans-Serif" font-size="10.00">Ogre::AreaEmitter</text>
</a>
</g>
</g>
<!-- Node2&#45;&gt;Node1 -->
<g id="edge1" class="edge">
<title>Node2&#45;&gt;Node1</title>
<path fill="none" stroke="midnightblue" d="M109.41,-100.17C109.41,-91.09 109.41,-80.59 109.41,-73.55"/>
<polygon fill="midnightblue" stroke="midnightblue" points="105.91,-100.22 109.41,-110.22 112.91,-100.22 105.91,-100.22"/>
</g>
<!-- Node3 -->
<g id="node3" class="node">
<title>Node3</title>
<g id="a_node3"><a xlink:href="class_ogre_1_1_particle_emitter.html" target="_top" xlink:title="Abstract class defining the interface to be implemented by particle emitters.">
<polygon fill="none" stroke="black" points="55.01,-165.5 55.01,-183.5 163.81,-183.5 163.81,-165.5 55.01,-165.5"/>
<text text-anchor="middle" x="109.41" y="-171.5" font-family="Helvetica,sans-Serif" font-size="10.00">Ogre::ParticleEmitter</text>
</a>
</g>
</g>
<!-- Node3&#45;&gt;Node2 -->
<g id="edge2" class="edge">
<title>Node3&#45;&gt;Node2</title>
<path fill="none" stroke="midnightblue" d="M109.41,-155.17C109.41,-146.09 109.41,-135.59 109.41,-128.55"/>
<polygon fill="midnightblue" stroke="midnightblue" points="105.91,-155.22 109.41,-165.22 112.91,-155.22 105.91,-155.22"/>
</g>
<!-- Node4 -->
<g id="node4" class="node">
<title>Node4</title>
<g id="a_node4"><a xlink:href="class_ogre_1_1_string_interface.html" target="_top" xlink:title="Class defining the common interface which classes can use to present a reflection&#45;style,...">
<polygon fill="none" stroke="black" points="0,-220.5 0,-238.5 108.82,-238.5 108.82,-220.5 0,-220.5"/>
<text text-anchor="middle" x="54.41" y="-226.5" font-family="Helvetica,sans-Serif" font-size="10.00">Ogre::StringInterface</text>
</a>
</g>
</g>
<!-- Node4&#45;&gt;Node3 -->
<g id="edge3" class="edge">
<title>Node4&#45;&gt;Node3</title>
<path fill="none" stroke="midnightblue" d="M70.38,-213.11C80.41,-203.44 92.94,-191.37 101.06,-183.55"/>
<polygon fill="midnightblue" stroke="midnightblue" points="67.78,-210.76 63,-220.22 72.63,-215.8 67.78,-210.76"/>
</g>
<!-- Node5 -->
<g id="node5" class="node">
<title>Node5</title>
<g id="a_node5"><a xlink:href="class_ogre_1_1_particle.html" target="_top" xlink:title="Class representing a single particle instance.">
<polygon fill="none" stroke="black" points="126.84,-220.5 126.84,-238.5 203.98,-238.5 203.98,-220.5 126.84,-220.5"/>
<text text-anchor="middle" x="165.41" y="-226.5" font-family="Helvetica,sans-Serif" font-size="10.00">Ogre::Particle</text>
</a>
</g>
</g>
<!-- Node5&#45;&gt;Node3 -->
<g id="edge4" class="edge">
<title>Node5&#45;&gt;Node3</title>
<path fill="none" stroke="midnightblue" d="M149.15,-213.11C138.94,-203.44 126.18,-191.37 117.92,-183.55"/>
<polygon fill="midnightblue" stroke="midnightblue" points="146.99,-215.89 156.66,-220.22 151.8,-210.8 146.99,-215.89"/>
</g>
<!-- Node6 -->
<g id="node6" class="node">
<title>Node6</title>
<g id="a_node6"><a xlink:href="class_ogre_1_1_allocated_object.html" target="_top" xlink:title="Superclass for all objects that wish to use custom memory allocators when their new / delete operator...">
<polygon fill="none" stroke="black" points="140.18,-275.5 140.18,-293.5 190.64,-293.5 190.64,-275.5 140.18,-275.5"/>
<text text-anchor="middle" x="165.41" y="-281.5" font-family="Helvetica,sans-Serif" font-size="10.00">FXAlloc</text>
</a>
</g>
</g>
<!-- Node6&#45;&gt;Node5 -->
<g id="edge5" class="edge">
<title>Node6&#45;&gt;Node5</title>
<path fill="none" stroke="midnightblue" d="M165.41,-265.17C165.41,-256.09 165.41,-245.59 165.41,-238.55"/>
<polygon fill="midnightblue" stroke="midnightblue" points="161.91,-265.22 165.41,-275.22 168.91,-265.22 161.91,-265.22"/>
</g>
</g>
</svg>
