<?xml version="1.0" encoding="UTF-8" standalone="no"?>
<!DOCTYPE svg PUBLIC "-//W3C//DTD SVG 1.1//EN"
 "http://www.w3.org/Graphics/SVG/1.1/DTD/svg11.dtd">
<!-- Generated by graphviz version 2.43.0 (0)
 -->
<!-- Title: Ogre::MeshSerializer Pages: 1 -->
<svg width="118pt" height="137pt"
 viewBox="0.00 0.00 117.92 137.00" xmlns="http://www.w3.org/2000/svg" xmlns:xlink="http://www.w3.org/1999/xlink">
<g id="graph0" class="graph" transform="scale(1 1) rotate(0) translate(4 133)">
<title>Ogre::MeshSerializer</title>
<!-- Node1 -->
<g id="node1" class="node">
<title>Node1</title>
<g id="a_node1"><a xlink:title="Class for serialising mesh data to/from an OGRE .mesh file.">
<polygon fill="#bfbfbf" stroke="black" points="0,-0.5 0,-18.5 109.92,-18.5 109.92,-0.5 0,-0.5"/>
<text text-anchor="middle" x="54.96" y="-6.5" font-family="Helvetica,sans-Serif" font-size="10.00">Ogre::MeshSerializer</text>
</a>
</g>
</g>
<!-- Node2 -->
<g id="node2" class="node">
<title>Node2</title>
<g id="a_node2"><a xlink:href="class_ogre_1_1_serializer.html" target="_top" xlink:title="Generic class for serialising data to / from binary stream&#45;based files.">
<polygon fill="none" stroke="black" points="12.23,-55.5 12.23,-73.5 97.69,-73.5 97.69,-55.5 12.23,-55.5"/>
<text text-anchor="middle" x="54.96" y="-61.5" font-family="Helvetica,sans-Serif" font-size="10.00">Ogre::Serializer</text>
</a>
</g>
</g>
<!-- Node2&#45;&gt;Node1 -->
<g id="edge1" class="edge">
<title>Node2&#45;&gt;Node1</title>
<path fill="none" stroke="midnightblue" d="M54.96,-45.17C54.96,-36.09 54.96,-25.59 54.96,-18.55"/>
<polygon fill="midnightblue" stroke="midnightblue" points="51.46,-45.22 54.96,-55.22 58.46,-45.22 51.46,-45.22"/>
</g>
<!-- Node3 -->
<g id="node3" class="node">
<title>Node3</title>
<g id="a_node3"><a xlink:href="class_ogre_1_1_allocated_object.html" target="_top" xlink:title="Superclass for all objects that wish to use custom memory allocators when their new / delete operator...">
<polygon fill="none" stroke="black" points="15.28,-110.5 15.28,-128.5 94.64,-128.5 94.64,-110.5 15.28,-110.5"/>
<text text-anchor="middle" x="54.96" y="-116.5" font-family="Helvetica,sans-Serif" font-size="10.00">SerializerAlloc</text>
</a>
</g>
</g>
<!-- Node3&#45;&gt;Node2 -->
<g id="edge2" class="edge">
<title>Node3&#45;&gt;Node2</title>
<path fill="none" stroke="midnightblue" d="M54.96,-100.17C54.96,-91.09 54.96,-80.59 54.96,-73.55"/>
<polygon fill="midnightblue" stroke="midnightblue" points="51.46,-100.22 54.96,-110.22 58.46,-100.22 51.46,-100.22"/>
</g>
</g>
</svg>
