<?xml version="1.0" encoding="UTF-8" standalone="no"?>
<!DOCTYPE svg PUBLIC "-//W3C//DTD SVG 1.1//EN"
 "http://www.w3.org/Graphics/SVG/1.1/DTD/svg11.dtd">
<!-- Generated by graphviz version 2.43.0 (0)
 -->
<!-- Title: Ogre::D3D11TextureGpu Pages: 1 -->
<svg width="272pt" height="312pt"
 viewBox="0.00 0.00 272.37 312.00" xmlns="http://www.w3.org/2000/svg" xmlns:xlink="http://www.w3.org/1999/xlink">
<g id="graph0" class="graph" transform="scale(1 1) rotate(0) translate(4 308)">
<title>Ogre::D3D11TextureGpu</title>
<!-- Node1 -->
<g id="node1" class="node">
<title>Node1</title>
<g id="a_node1"><a xlink:title=" ">
<polygon fill="#bfbfbf" stroke="black" points="77.69,-120.5 77.69,-138.5 203.56,-138.5 203.56,-120.5 77.69,-120.5"/>
<text text-anchor="middle" x="140.62" y="-126.5" font-family="Helvetica,sans-Serif" font-size="10.00">Ogre::D3D11TextureGpu</text>
</a>
</g>
</g>
<!-- Node6 -->
<g id="node6" class="node">
<title>Node6</title>
<g id="a_node6"><a xlink:href="class_ogre_1_1_d3_d11_texture_gpu_render_target.html" target="_top" xlink:title=" ">
<polygon fill="none" stroke="black" points="61.29,-55.5 61.29,-83.5 219.96,-83.5 219.96,-55.5 61.29,-55.5"/>
<text text-anchor="start" x="69.29" y="-71.5" font-family="Helvetica,sans-Serif" font-size="10.00">Ogre::D3D11TextureGpuRender</text>
<text text-anchor="middle" x="140.62" y="-61.5" font-family="Helvetica,sans-Serif" font-size="10.00">Target</text>
</a>
</g>
</g>
<!-- Node1&#45;&gt;Node6 -->
<g id="edge5" class="edge">
<title>Node1&#45;&gt;Node6</title>
<path fill="none" stroke="midnightblue" d="M140.62,-110.32C140.62,-101.75 140.62,-91.7 140.62,-83.84"/>
<polygon fill="midnightblue" stroke="midnightblue" points="137.12,-110.44 140.62,-120.44 144.12,-110.44 137.12,-110.44"/>
</g>
<!-- Node2 -->
<g id="node2" class="node">
<title>Node2</title>
<g id="a_node2"><a xlink:href="class_ogre_1_1_texture_gpu.html" target="_top" xlink:title=" ">
<polygon fill="none" stroke="black" points="92.88,-175.5 92.88,-193.5 188.36,-193.5 188.36,-175.5 92.88,-175.5"/>
<text text-anchor="middle" x="140.62" y="-181.5" font-family="Helvetica,sans-Serif" font-size="10.00">Ogre::TextureGpu</text>
</a>
</g>
</g>
<!-- Node2&#45;&gt;Node1 -->
<g id="edge1" class="edge">
<title>Node2&#45;&gt;Node1</title>
<path fill="none" stroke="midnightblue" d="M140.62,-165.17C140.62,-156.09 140.62,-145.59 140.62,-138.55"/>
<polygon fill="midnightblue" stroke="midnightblue" points="137.12,-165.22 140.62,-175.22 144.12,-165.22 137.12,-165.22"/>
</g>
<!-- Node3 -->
<g id="node3" class="node">
<title>Node3</title>
<g id="a_node3"><a xlink:href="struct_ogre_1_1_gpu_tracked_resource.html" target="_top" xlink:title=" ">
<polygon fill="none" stroke="black" points="0,-230.5 0,-248.5 141.24,-248.5 141.24,-230.5 0,-230.5"/>
<text text-anchor="middle" x="70.62" y="-236.5" font-family="Helvetica,sans-Serif" font-size="10.00">Ogre::GpuTrackedResource</text>
</a>
</g>
</g>
<!-- Node3&#45;&gt;Node2 -->
<g id="edge2" class="edge">
<title>Node3&#45;&gt;Node2</title>
<path fill="none" stroke="midnightblue" d="M89.5,-224.21C102.45,-214.41 119.16,-201.75 129.89,-193.63"/>
<polygon fill="midnightblue" stroke="midnightblue" points="87.11,-221.62 81.25,-230.45 91.34,-227.2 87.11,-221.62"/>
</g>
<!-- Node4 -->
<g id="node4" class="node">
<title>Node4</title>
<g id="a_node4"><a xlink:href="class_ogre_1_1_gpu_resource.html" target="_top" xlink:title=" ">
<polygon fill="none" stroke="black" points="158.88,-230.5 158.88,-248.5 264.37,-248.5 264.37,-230.5 158.88,-230.5"/>
<text text-anchor="middle" x="211.62" y="-236.5" font-family="Helvetica,sans-Serif" font-size="10.00">Ogre::GpuResource</text>
</a>
</g>
</g>
<!-- Node4&#45;&gt;Node2 -->
<g id="edge3" class="edge">
<title>Node4&#45;&gt;Node2</title>
<path fill="none" stroke="midnightblue" d="M192.48,-224.21C179.34,-214.41 162.39,-201.75 151.51,-193.63"/>
<polygon fill="midnightblue" stroke="midnightblue" points="190.73,-227.27 200.84,-230.45 194.92,-221.66 190.73,-227.27"/>
</g>
<!-- Node5 -->
<g id="node5" class="node">
<title>Node5</title>
<g id="a_node5"><a xlink:href="class_ogre_1_1_allocated_object.html" target="_top" xlink:title="Superclass for all objects that wish to use custom memory allocators when their new / delete operator...">
<polygon fill="none" stroke="black" points="171.39,-285.5 171.39,-303.5 251.86,-303.5 251.86,-285.5 171.39,-285.5"/>
<text text-anchor="middle" x="211.62" y="-291.5" font-family="Helvetica,sans-Serif" font-size="10.00">ResourceAlloc</text>
</a>
</g>
</g>
<!-- Node5&#45;&gt;Node4 -->
<g id="edge4" class="edge">
<title>Node5&#45;&gt;Node4</title>
<path fill="none" stroke="midnightblue" d="M211.62,-275.17C211.62,-266.09 211.62,-255.59 211.62,-248.55"/>
<polygon fill="midnightblue" stroke="midnightblue" points="208.12,-275.22 211.62,-285.22 215.12,-275.22 208.12,-275.22"/>
</g>
<!-- Node7 -->
<g id="node7" class="node">
<title>Node7</title>
<g id="a_node7"><a xlink:href="class_ogre_1_1_d3_d11_texture_gpu_window.html" target="_top" xlink:title=" ">
<polygon fill="none" stroke="black" points="59.9,-0.5 59.9,-18.5 221.34,-18.5 221.34,-0.5 59.9,-0.5"/>
<text text-anchor="middle" x="140.62" y="-6.5" font-family="Helvetica,sans-Serif" font-size="10.00">Ogre::D3D11TextureGpuWindow</text>
</a>
</g>
</g>
<!-- Node6&#45;&gt;Node7 -->
<g id="edge6" class="edge">
<title>Node6&#45;&gt;Node7</title>
<path fill="none" stroke="midnightblue" d="M140.62,-45.32C140.62,-35.94 140.62,-25.7 140.62,-18.77"/>
<polygon fill="midnightblue" stroke="midnightblue" points="137.12,-45.34 140.62,-55.34 144.12,-45.34 137.12,-45.34"/>
</g>
</g>
</svg>
