<?xml version="1.0" encoding="UTF-8" standalone="no"?>
<!DOCTYPE svg PUBLIC "-//W3C//DTD SVG 1.1//EN"
 "http://www.w3.org/Graphics/SVG/1.1/DTD/svg11.dtd">
<!-- Generated by graphviz version 2.43.0 (0)
 -->
<!-- Title: Ogre::Exception Pages: 1 -->
<svg width="414pt" height="360pt"
 viewBox="0.00 0.00 413.70 360.00" xmlns="http://www.w3.org/2000/svg" xmlns:xlink="http://www.w3.org/1999/xlink">
<g id="graph0" class="graph" transform="scale(1 1) rotate(0) translate(4 356)">
<title>Ogre::Exception</title>
<!-- Node1 -->
<g id="node1" class="node">
<title>Node1</title>
<g id="a_node1"><a xlink:title="When thrown, provides information about an error that has occurred inside the engine.">
<polygon fill="#bfbfbf" stroke="black" points="113.7,-166.5 113.7,-184.5 201.41,-184.5 201.41,-166.5 113.7,-166.5"/>
<text text-anchor="middle" x="157.56" y="-172.5" font-family="Helvetica,sans-Serif" font-size="10.00">Ogre::Exception</text>
</a>
</g>
</g>
<!-- Node3 -->
<g id="node3" class="node">
<title>Node3</title>
<g id="a_node3"><a xlink:href="class_ogre_1_1_file_not_found_exception.html" target="_top" xlink:title=" ">
<polygon fill="none" stroke="black" points="247.69,-333.5 247.69,-351.5 395.42,-351.5 395.42,-333.5 247.69,-333.5"/>
<text text-anchor="middle" x="321.56" y="-339.5" font-family="Helvetica,sans-Serif" font-size="10.00">Ogre::FileNotFoundException</text>
</a>
</g>
</g>
<!-- Node1&#45;&gt;Node3 -->
<g id="edge2" class="edge">
<title>Node1&#45;&gt;Node3</title>
<path fill="none" stroke="midnightblue" d="M163.03,-194.49C171.62,-226.59 193.59,-291.29 237.41,-324.5 242.23,-328.16 247.65,-331.11 253.33,-333.48"/>
<polygon fill="midnightblue" stroke="midnightblue" points="166.38,-193.45 160.53,-184.61 159.59,-195.16 166.38,-193.45"/>
</g>
<!-- Node4 -->
<g id="node4" class="node">
<title>Node4</title>
<g id="a_node4"><a xlink:href="class_ogre_1_1_internal_error_exception.html" target="_top" xlink:title=" ">
<polygon fill="none" stroke="black" points="249.92,-296.5 249.92,-314.5 393.2,-314.5 393.2,-296.5 249.92,-296.5"/>
<text text-anchor="middle" x="321.56" y="-302.5" font-family="Helvetica,sans-Serif" font-size="10.00">Ogre::InternalErrorException</text>
</a>
</g>
</g>
<!-- Node1&#45;&gt;Node4 -->
<g id="edge3" class="edge">
<title>Node1&#45;&gt;Node4</title>
<path fill="none" stroke="midnightblue" d="M166.32,-194.04C177.91,-219.34 202.22,-264.18 237.41,-287.5 242.95,-291.17 249.11,-294.11 255.5,-296.46"/>
<polygon fill="midnightblue" stroke="midnightblue" points="169.49,-192.55 162.26,-184.81 163.08,-195.37 169.49,-192.55"/>
</g>
<!-- Node5 -->
<g id="node5" class="node">
<title>Node5</title>
<g id="a_node5"><a xlink:href="class_ogre_1_1_invalid_call_exception.html" target="_top" xlink:title=" ">
<polygon fill="none" stroke="black" points="254.64,-259.5 254.64,-277.5 388.47,-277.5 388.47,-259.5 254.64,-259.5"/>
<text text-anchor="middle" x="321.56" y="-265.5" font-family="Helvetica,sans-Serif" font-size="10.00">Ogre::InvalidCallException</text>
</a>
</g>
</g>
<!-- Node1&#45;&gt;Node5 -->
<g id="edge4" class="edge">
<title>Node1&#45;&gt;Node5</title>
<path fill="none" stroke="midnightblue" d="M171.75,-192.68C186.03,-210.02 210.39,-236.2 237.41,-250.5 244.33,-254.16 251.94,-257.08 259.68,-259.4"/>
<polygon fill="midnightblue" stroke="midnightblue" points="174.22,-190.17 165.25,-184.54 168.75,-194.54 174.22,-190.17"/>
</g>
<!-- Node6 -->
<g id="node6" class="node">
<title>Node6</title>
<g id="a_node6"><a xlink:href="class_ogre_1_1_invalid_parameters_exception.html" target="_top" xlink:title=" ">
<polygon fill="none" stroke="black" points="237.41,-222.5 237.41,-240.5 405.7,-240.5 405.7,-222.5 237.41,-222.5"/>
<text text-anchor="middle" x="321.56" y="-228.5" font-family="Helvetica,sans-Serif" font-size="10.00">Ogre::InvalidParametersException</text>
</a>
</g>
</g>
<!-- Node1&#45;&gt;Node6 -->
<g id="edge5" class="edge">
<title>Node1&#45;&gt;Node6</title>
<path fill="none" stroke="midnightblue" d="M183.62,-189.46C198.8,-197.44 218.78,-207.1 237.41,-213.5 247.6,-217.01 258.75,-219.98 269.47,-222.43"/>
<polygon fill="midnightblue" stroke="midnightblue" points="184.86,-186.15 174.39,-184.51 181.55,-192.32 184.86,-186.15"/>
</g>
<!-- Node7 -->
<g id="node7" class="node">
<title>Node7</title>
<g id="a_node7"><a xlink:href="class_ogre_1_1_invalid_state_exception.html" target="_top" xlink:title=" ">
<polygon fill="none" stroke="black" points="251.58,-185.5 251.58,-203.5 391.54,-203.5 391.54,-185.5 251.58,-185.5"/>
<text text-anchor="middle" x="321.56" y="-191.5" font-family="Helvetica,sans-Serif" font-size="10.00">Ogre::InvalidStateException</text>
</a>
</g>
</g>
<!-- Node1&#45;&gt;Node7 -->
<g id="edge6" class="edge">
<title>Node1&#45;&gt;Node7</title>
<path fill="none" stroke="midnightblue" d="M211.5,-181.71C224.22,-183.2 238,-184.82 251.35,-186.38"/>
<polygon fill="midnightblue" stroke="midnightblue" points="211.88,-178.23 201.54,-180.54 211.07,-185.18 211.88,-178.23"/>
</g>
<!-- Node8 -->
<g id="node8" class="node">
<title>Node8</title>
<g id="a_node8"><a xlink:href="class_ogre_1_1_i_o_exception.html" target="_top" xlink:title=" ">
<polygon fill="none" stroke="black" points="272.43,-148.5 272.43,-166.5 370.69,-166.5 370.69,-148.5 272.43,-148.5"/>
<text text-anchor="middle" x="321.56" y="-154.5" font-family="Helvetica,sans-Serif" font-size="10.00">Ogre::IOException</text>
</a>
</g>
</g>
<!-- Node1&#45;&gt;Node8 -->
<g id="edge7" class="edge">
<title>Node1&#45;&gt;Node8</title>
<path fill="none" stroke="midnightblue" d="M211.51,-169.62C231.06,-167.44 253.1,-165 272.22,-162.87"/>
<polygon fill="midnightblue" stroke="midnightblue" points="211.1,-166.14 201.54,-170.72 211.87,-173.1 211.1,-166.14"/>
</g>
<!-- Node9 -->
<g id="node9" class="node">
<title>Node9</title>
<g id="a_node9"><a xlink:href="class_ogre_1_1_item_identity_exception.html" target="_top" xlink:title=" ">
<polygon fill="none" stroke="black" points="251.86,-111.5 251.86,-129.5 391.25,-129.5 391.25,-111.5 251.86,-111.5"/>
<text text-anchor="middle" x="321.56" y="-117.5" font-family="Helvetica,sans-Serif" font-size="10.00">Ogre::ItemIdentityException</text>
</a>
</g>
</g>
<!-- Node1&#45;&gt;Node9 -->
<g id="edge8" class="edge">
<title>Node1&#45;&gt;Node9</title>
<path fill="none" stroke="midnightblue" d="M184.24,-161.64C199.37,-153.94 219.08,-144.7 237.41,-138.5 247.76,-135 259.08,-132.02 269.93,-129.55"/>
<polygon fill="midnightblue" stroke="midnightblue" points="182.28,-158.72 175.02,-166.43 185.51,-164.93 182.28,-158.72"/>
</g>
<!-- Node10 -->
<g id="node10" class="node">
<title>Node10</title>
<g id="a_node10"><a xlink:href="class_ogre_1_1_rendering_a_p_i_exception.html" target="_top" xlink:title=" ">
<polygon fill="none" stroke="black" points="246.57,-74.5 246.57,-92.5 396.54,-92.5 396.54,-74.5 246.57,-74.5"/>
<text text-anchor="middle" x="321.56" y="-80.5" font-family="Helvetica,sans-Serif" font-size="10.00">Ogre::RenderingAPIException</text>
</a>
</g>
</g>
<!-- Node1&#45;&gt;Node10 -->
<g id="edge9" class="edge">
<title>Node1&#45;&gt;Node10</title>
<path fill="none" stroke="midnightblue" d="M172.03,-158.28C186.37,-141.18 210.66,-115.54 237.41,-101.5 244.47,-97.79 252.25,-94.85 260.14,-92.51"/>
<polygon fill="midnightblue" stroke="midnightblue" points="169.07,-156.37 165.48,-166.34 174.5,-160.79 169.07,-156.37"/>
</g>
<!-- Node11 -->
<g id="node11" class="node">
<title>Node11</title>
<g id="a_node11"><a xlink:href="class_ogre_1_1_runtime_assertion_exception.html" target="_top" xlink:title=" ">
<polygon fill="none" stroke="black" points="238.24,-37.5 238.24,-55.5 404.87,-55.5 404.87,-37.5 238.24,-37.5"/>
<text text-anchor="middle" x="321.56" y="-43.5" font-family="Helvetica,sans-Serif" font-size="10.00">Ogre::RuntimeAssertionException</text>
</a>
</g>
</g>
<!-- Node1&#45;&gt;Node11 -->
<g id="edge10" class="edge">
<title>Node1&#45;&gt;Node11</title>
<path fill="none" stroke="midnightblue" d="M166.36,-157.12C178.01,-132.05 202.38,-87.61 237.41,-64.5 242.96,-60.84 249.12,-57.91 255.52,-55.57"/>
<polygon fill="midnightblue" stroke="midnightblue" points="163.16,-155.72 162.28,-166.28 169.55,-158.57 163.16,-155.72"/>
</g>
<!-- Node12 -->
<g id="node12" class="node">
<title>Node12</title>
<g id="a_node12"><a xlink:href="class_ogre_1_1_unimplemented_exception.html" target="_top" xlink:title="Template struct which creates a distinct type for each exception code.">
<polygon fill="none" stroke="black" points="242.69,-0.5 242.69,-18.5 400.42,-18.5 400.42,-0.5 242.69,-0.5"/>
<text text-anchor="middle" x="321.56" y="-6.5" font-family="Helvetica,sans-Serif" font-size="10.00">Ogre::UnimplementedException</text>
</a>
</g>
</g>
<!-- Node1&#45;&gt;Node12 -->
<g id="edge11" class="edge">
<title>Node1&#45;&gt;Node12</title>
<path fill="none" stroke="midnightblue" d="M163.07,-156.63C171.72,-124.75 193.78,-60.48 237.41,-27.5 242.24,-23.85 247.66,-20.91 253.35,-18.54"/>
<polygon fill="midnightblue" stroke="midnightblue" points="159.64,-155.9 160.55,-166.45 166.43,-157.63 159.64,-155.9"/>
</g>
<!-- Node2 -->
<g id="node2" class="node">
<title>Node2</title>
<g id="a_node2"><a xlink:title=" ">
<polygon fill="none" stroke="#bfbfbf" points="0,-166.5 0,-184.5 77.7,-184.5 77.7,-166.5 0,-166.5"/>
<text text-anchor="middle" x="38.85" y="-172.5" font-family="Helvetica,sans-Serif" font-size="10.00">std::exception</text>
</a>
</g>
</g>
<!-- Node2&#45;&gt;Node1 -->
<g id="edge1" class="edge">
<title>Node2&#45;&gt;Node1</title>
<path fill="none" stroke="midnightblue" d="M87.92,-175.5C96.43,-175.5 105.24,-175.5 113.59,-175.5"/>
<polygon fill="midnightblue" stroke="midnightblue" points="87.74,-172 77.74,-175.5 87.74,-179 87.74,-172"/>
</g>
</g>
</svg>
