<?xml version="1.0" encoding="UTF-8" standalone="no"?>
<!DOCTYPE svg PUBLIC "-//W3C//DTD SVG 1.1//EN"
 "http://www.w3.org/Graphics/SVG/1.1/DTD/svg11.dtd">
<!-- Generated by graphviz version 2.43.0 (0)
 -->
<!-- Title: Ogre::SphereSceneQuery Pages: 1 -->
<svg width="340pt" height="312pt"
 viewBox="0.00 0.00 339.62 312.00" xmlns="http://www.w3.org/2000/svg" xmlns:xlink="http://www.w3.org/1999/xlink">
<g id="graph0" class="graph" transform="scale(1 1) rotate(0) translate(4 308)">
<title>Ogre::SphereSceneQuery</title>
<!-- Node1 -->
<g id="node1" class="node">
<title>Node1</title>
<g id="a_node1"><a xlink:title="Specialises the SceneQuery class for querying within a sphere.">
<polygon fill="#bfbfbf" stroke="black" points="102,-120.5 102,-138.5 233.62,-138.5 233.62,-120.5 102,-120.5"/>
<text text-anchor="middle" x="167.81" y="-126.5" font-family="Helvetica,sans-Serif" font-size="10.00">Ogre::SphereSceneQuery</text>
</a>
</g>
</g>
<!-- Node6 -->
<g id="node6" class="node">
<title>Node6</title>
<g id="a_node6"><a xlink:href="class_ogre_1_1_default_sphere_scene_query.html" target="_top" xlink:title="Default implementation of SphereSceneQuery.">
<polygon fill="none" stroke="black" points="99.78,-55.5 99.78,-83.5 235.85,-83.5 235.85,-55.5 99.78,-55.5"/>
<text text-anchor="start" x="107.78" y="-71.5" font-family="Helvetica,sans-Serif" font-size="10.00">Ogre::DefaultSphereScene</text>
<text text-anchor="middle" x="167.81" y="-61.5" font-family="Helvetica,sans-Serif" font-size="10.00">Query</text>
</a>
</g>
</g>
<!-- Node1&#45;&gt;Node6 -->
<g id="edge5" class="edge">
<title>Node1&#45;&gt;Node6</title>
<path fill="none" stroke="midnightblue" d="M167.81,-110.32C167.81,-101.75 167.81,-91.7 167.81,-83.84"/>
<polygon fill="midnightblue" stroke="midnightblue" points="164.32,-110.44 167.81,-120.44 171.32,-110.44 164.32,-110.44"/>
</g>
<!-- Node2 -->
<g id="node2" class="node">
<title>Node2</title>
<g id="a_node2"><a xlink:href="class_ogre_1_1_region_scene_query.html" target="_top" xlink:title="Abstract class defining a query which returns single results from a region.">
<polygon fill="none" stroke="black" points="102.28,-175.5 102.28,-193.5 233.35,-193.5 233.35,-175.5 102.28,-175.5"/>
<text text-anchor="middle" x="167.81" y="-181.5" font-family="Helvetica,sans-Serif" font-size="10.00">Ogre::RegionSceneQuery</text>
</a>
</g>
</g>
<!-- Node2&#45;&gt;Node1 -->
<g id="edge1" class="edge">
<title>Node2&#45;&gt;Node1</title>
<path fill="none" stroke="midnightblue" d="M167.81,-165.17C167.81,-156.09 167.81,-145.59 167.81,-138.55"/>
<polygon fill="midnightblue" stroke="midnightblue" points="164.32,-165.22 167.81,-175.22 171.32,-165.22 164.32,-165.22"/>
</g>
<!-- Node3 -->
<g id="node3" class="node">
<title>Node3</title>
<g id="a_node3"><a xlink:href="class_ogre_1_1_scene_query.html" target="_top" xlink:title="A class for performing queries on a scene.">
<polygon fill="none" stroke="black" points="51.13,-230.5 51.13,-248.5 150.5,-248.5 150.5,-230.5 51.13,-230.5"/>
<text text-anchor="middle" x="100.81" y="-236.5" font-family="Helvetica,sans-Serif" font-size="10.00">Ogre::SceneQuery</text>
</a>
</g>
</g>
<!-- Node3&#45;&gt;Node2 -->
<g id="edge2" class="edge">
<title>Node3&#45;&gt;Node2</title>
<path fill="none" stroke="midnightblue" d="M118.88,-224.21C131.27,-214.41 147.28,-201.75 157.54,-193.63"/>
<polygon fill="midnightblue" stroke="midnightblue" points="116.66,-221.5 110.99,-230.45 121.01,-226.99 116.66,-221.5"/>
</g>
<!-- Node4 -->
<g id="node4" class="node">
<title>Node4</title>
<g id="a_node4"><a xlink:href="class_ogre_1_1_allocated_object.html" target="_top" xlink:title="Superclass for all objects that wish to use custom memory allocators when their new / delete operator...">
<polygon fill="none" stroke="black" points="59.47,-285.5 59.47,-303.5 142.16,-303.5 142.16,-285.5 59.47,-285.5"/>
<text text-anchor="middle" x="100.81" y="-291.5" font-family="Helvetica,sans-Serif" font-size="10.00">SceneMgtAlloc</text>
</a>
</g>
</g>
<!-- Node4&#45;&gt;Node3 -->
<g id="edge3" class="edge">
<title>Node4&#45;&gt;Node3</title>
<path fill="none" stroke="midnightblue" d="M100.81,-275.17C100.81,-266.09 100.81,-255.59 100.81,-248.55"/>
<polygon fill="midnightblue" stroke="midnightblue" points="97.32,-275.22 100.81,-285.22 104.32,-275.22 97.32,-275.22"/>
</g>
<!-- Node5 -->
<g id="node5" class="node">
<title>Node5</title>
<g id="a_node5"><a xlink:href="class_ogre_1_1_scene_query_listener.html" target="_top" xlink:title="This optional class allows you to receive per&#45;result callbacks from SceneQuery executions instead of ...">
<polygon fill="none" stroke="black" points="168.34,-230.5 168.34,-248.5 303.29,-248.5 303.29,-230.5 168.34,-230.5"/>
<text text-anchor="middle" x="235.81" y="-236.5" font-family="Helvetica,sans-Serif" font-size="10.00">Ogre::SceneQueryListener</text>
</a>
</g>
</g>
<!-- Node5&#45;&gt;Node2 -->
<g id="edge4" class="edge">
<title>Node5&#45;&gt;Node2</title>
<path fill="none" stroke="midnightblue" d="M217.48,-224.21C204.9,-214.41 188.66,-201.75 178.24,-193.63"/>
<polygon fill="midnightblue" stroke="midnightblue" points="215.45,-227.06 225.49,-230.45 219.75,-221.54 215.45,-227.06"/>
</g>
<!-- Node7 -->
<g id="node7" class="node">
<title>Node7</title>
<g id="a_node7"><a xlink:href="class_ogre_1_1_octree_sphere_scene_query.html" target="_top" xlink:title="Octree implementation of SphereSceneQuery.">
<polygon fill="none" stroke="black" points="0,-0.5 0,-18.5 161.63,-18.5 161.63,-0.5 0,-0.5"/>
<text text-anchor="middle" x="80.81" y="-6.5" font-family="Helvetica,sans-Serif" font-size="10.00">Ogre::OctreeSphereSceneQuery</text>
</a>
</g>
</g>
<!-- Node6&#45;&gt;Node7 -->
<g id="edge6" class="edge">
<title>Node6&#45;&gt;Node7</title>
<path fill="none" stroke="midnightblue" d="M139.74,-49.78C124.05,-39.32 105.29,-26.82 93.22,-18.77"/>
<polygon fill="midnightblue" stroke="midnightblue" points="137.81,-52.7 148.07,-55.34 141.69,-46.88 137.81,-52.7"/>
</g>
<!-- Node8 -->
<g id="node8" class="node">
<title>Node8</title>
<g id="a_node8"><a xlink:href="class_ogre_1_1_p_c_z_sphere_scene_query.html" target="_top" xlink:title="PCZ implementation of SphereSceneQuery.">
<polygon fill="none" stroke="black" points="180,-0.5 180,-18.5 331.62,-18.5 331.62,-0.5 180,-0.5"/>
<text text-anchor="middle" x="255.81" y="-6.5" font-family="Helvetica,sans-Serif" font-size="10.00">Ogre::PCZSphereSceneQuery</text>
</a>
</g>
</g>
<!-- Node6&#45;&gt;Node8 -->
<g id="edge7" class="edge">
<title>Node6&#45;&gt;Node8</title>
<path fill="none" stroke="midnightblue" d="M196.27,-49.75C212.24,-39.22 231.34,-26.63 243.52,-18.6"/>
<polygon fill="midnightblue" stroke="midnightblue" points="194.21,-46.91 187.78,-55.34 198.06,-52.76 194.21,-46.91"/>
</g>
</g>
</svg>
