<?xml version="1.0" encoding="UTF-8" standalone="no"?>
<!DOCTYPE svg PUBLIC "-//W3C//DTD SVG 1.1//EN"
 "http://www.w3.org/Graphics/SVG/1.1/DTD/svg11.dtd">
<!-- Generated by graphviz version 2.43.0 (0)
 -->
<!-- Title: Ogre::RenderingAPIException Pages: 1 -->
<svg width="158pt" height="137pt"
 viewBox="0.00 0.00 157.96 137.00" xmlns="http://www.w3.org/2000/svg" xmlns:xlink="http://www.w3.org/1999/xlink">
<g id="graph0" class="graph" transform="scale(1 1) rotate(0) translate(4 133)">
<title>Ogre::RenderingAPIException</title>
<!-- Node1 -->
<g id="node1" class="node">
<title>Node1</title>
<g id="a_node1"><a xlink:title=" ">
<polygon fill="#bfbfbf" stroke="black" points="0,-0.5 0,-18.5 149.96,-18.5 149.96,-0.5 0,-0.5"/>
<text text-anchor="middle" x="74.98" y="-6.5" font-family="Helvetica,sans-Serif" font-size="10.00">Ogre::RenderingAPIException</text>
</a>
</g>
</g>
<!-- Node2 -->
<g id="node2" class="node">
<title>Node2</title>
<g id="a_node2"><a xlink:href="class_ogre_1_1_exception.html" target="_top" xlink:title="When thrown, provides information about an error that has occurred inside the engine.">
<polygon fill="none" stroke="black" points="31.13,-55.5 31.13,-73.5 118.83,-73.5 118.83,-55.5 31.13,-55.5"/>
<text text-anchor="middle" x="74.98" y="-61.5" font-family="Helvetica,sans-Serif" font-size="10.00">Ogre::Exception</text>
</a>
</g>
</g>
<!-- Node2&#45;&gt;Node1 -->
<g id="edge1" class="edge">
<title>Node2&#45;&gt;Node1</title>
<path fill="none" stroke="midnightblue" d="M74.98,-45.17C74.98,-36.09 74.98,-25.59 74.98,-18.55"/>
<polygon fill="midnightblue" stroke="midnightblue" points="71.48,-45.22 74.98,-55.22 78.48,-45.22 71.48,-45.22"/>
</g>
<!-- Node3 -->
<g id="node3" class="node">
<title>Node3</title>
<g id="a_node3"><a xlink:title=" ">
<polygon fill="none" stroke="#bfbfbf" points="36.13,-110.5 36.13,-128.5 113.83,-128.5 113.83,-110.5 36.13,-110.5"/>
<text text-anchor="middle" x="74.98" y="-116.5" font-family="Helvetica,sans-Serif" font-size="10.00">std::exception</text>
</a>
</g>
</g>
<!-- Node3&#45;&gt;Node2 -->
<g id="edge2" class="edge">
<title>Node3&#45;&gt;Node2</title>
<path fill="none" stroke="midnightblue" d="M74.98,-100.17C74.98,-91.09 74.98,-80.59 74.98,-73.55"/>
<polygon fill="midnightblue" stroke="midnightblue" points="71.48,-100.22 74.98,-110.22 78.48,-100.22 71.48,-100.22"/>
</g>
</g>
</svg>
