<?xml version="1.0" encoding="UTF-8" standalone="no"?>
<!DOCTYPE svg PUBLIC "-//W3C//DTD SVG 1.1//EN"
 "http://www.w3.org/Graphics/SVG/1.1/DTD/svg11.dtd">
<!-- Generated by graphviz version 2.43.0 (0)
 -->
<!-- Title: Ogre::D3D11StereoDriverNVIDIA Pages: 1 -->
<svg width="172pt" height="137pt"
 viewBox="0.00 0.00 171.65 137.00" xmlns="http://www.w3.org/2000/svg" xmlns:xlink="http://www.w3.org/1999/xlink">
<g id="graph0" class="graph" transform="scale(1 1) rotate(0) translate(4 133)">
<title>Ogre::D3D11StereoDriverNVIDIA</title>
<!-- Node1 -->
<g id="node1" class="node">
<title>Node1</title>
<g id="a_node1"><a xlink:title="Interface of the NVIDIA stereo driver.">
<polygon fill="#bfbfbf" stroke="black" points="0,-0.5 0,-18.5 163.65,-18.5 163.65,-0.5 0,-0.5"/>
<text text-anchor="middle" x="81.82" y="-6.5" font-family="Helvetica,sans-Serif" font-size="10.00">Ogre::D3D11StereoDriverNVIDIA</text>
</a>
</g>
</g>
<!-- Node2 -->
<g id="node2" class="node">
<title>Node2</title>
<g id="a_node2"><a xlink:href="class_ogre_1_1_d3_d11_stereo_driver_impl.html" target="_top" xlink:title="Virtual interface of the stereo driver.">
<polygon fill="none" stroke="black" points="7.22,-55.5 7.22,-73.5 156.42,-73.5 156.42,-55.5 7.22,-55.5"/>
<text text-anchor="middle" x="81.82" y="-61.5" font-family="Helvetica,sans-Serif" font-size="10.00">Ogre::D3D11StereoDriverImpl</text>
</a>
</g>
</g>
<!-- Node2&#45;&gt;Node1 -->
<g id="edge1" class="edge">
<title>Node2&#45;&gt;Node1</title>
<path fill="none" stroke="midnightblue" d="M81.82,-45.17C81.82,-36.09 81.82,-25.59 81.82,-18.55"/>
<polygon fill="midnightblue" stroke="midnightblue" points="78.32,-45.22 81.82,-55.22 85.32,-45.22 78.32,-45.22"/>
</g>
<!-- Node3 -->
<g id="node3" class="node">
<title>Node3</title>
<g id="a_node3"><a xlink:href="class_ogre_1_1_allocated_object.html" target="_top" xlink:title="Superclass for all objects that wish to use custom memory allocators when their new / delete operator...">
<polygon fill="none" stroke="black" points="41.59,-110.5 41.59,-128.5 122.06,-128.5 122.06,-110.5 41.59,-110.5"/>
<text text-anchor="middle" x="81.82" y="-116.5" font-family="Helvetica,sans-Serif" font-size="10.00">ResourceAlloc</text>
</a>
</g>
</g>
<!-- Node3&#45;&gt;Node2 -->
<g id="edge2" class="edge">
<title>Node3&#45;&gt;Node2</title>
<path fill="none" stroke="midnightblue" d="M81.82,-100.17C81.82,-91.09 81.82,-80.59 81.82,-73.55"/>
<polygon fill="midnightblue" stroke="midnightblue" points="78.32,-100.22 81.82,-110.22 85.32,-100.22 78.32,-100.22"/>
</g>
</g>
</svg>
