<?xml version="1.0" encoding="UTF-8" standalone="no"?>
<!DOCTYPE svg PUBLIC "-//W3C//DTD SVG 1.1//EN"
 "http://www.w3.org/Graphics/SVG/1.1/DTD/svg11.dtd">
<!-- Generated by graphviz version 2.43.0 (0)
 -->
<!-- Title: Ogre::D3D11WindowSwapChainBased Pages: 1 -->
<svg width="169pt" height="202pt"
 viewBox="0.00 0.00 168.89 202.00" xmlns="http://www.w3.org/2000/svg" xmlns:xlink="http://www.w3.org/1999/xlink">
<g id="graph0" class="graph" transform="scale(1 1) rotate(0) translate(4 198)">
<title>Ogre::D3D11WindowSwapChainBased</title>
<!-- Node1 -->
<g id="node1" class="node">
<title>Node1</title>
<g id="a_node1"><a xlink:title=" ">
<polygon fill="#bfbfbf" stroke="black" points="0,-0.5 0,-28.5 160.89,-28.5 160.89,-0.5 0,-0.5"/>
<text text-anchor="start" x="8" y="-16.5" font-family="Helvetica,sans-Serif" font-size="10.00">Ogre::D3D11WindowSwapChain</text>
<text text-anchor="middle" x="80.44" y="-6.5" font-family="Helvetica,sans-Serif" font-size="10.00">Based</text>
</a>
</g>
</g>
<!-- Node2 -->
<g id="node2" class="node">
<title>Node2</title>
<g id="a_node2"><a xlink:href="class_ogre_1_1_d3_d11_window.html" target="_top" xlink:title=" ">
<polygon fill="none" stroke="black" points="25.57,-65.5 25.57,-83.5 135.32,-83.5 135.32,-65.5 25.57,-65.5"/>
<text text-anchor="middle" x="80.44" y="-71.5" font-family="Helvetica,sans-Serif" font-size="10.00">Ogre::D3D11Window</text>
</a>
</g>
</g>
<!-- Node2&#45;&gt;Node1 -->
<g id="edge1" class="edge">
<title>Node2&#45;&gt;Node1</title>
<path fill="none" stroke="midnightblue" d="M80.44,-55.32C80.44,-46.75 80.44,-36.7 80.44,-28.84"/>
<polygon fill="midnightblue" stroke="midnightblue" points="76.94,-55.44 80.44,-65.44 83.94,-55.44 76.94,-55.44"/>
</g>
<!-- Node3 -->
<g id="node3" class="node">
<title>Node3</title>
<g id="a_node3"><a xlink:href="class_ogre_1_1_window.html" target="_top" xlink:title=" ">
<polygon fill="none" stroke="black" points="40.77,-120.5 40.77,-138.5 120.12,-138.5 120.12,-120.5 40.77,-120.5"/>
<text text-anchor="middle" x="80.44" y="-126.5" font-family="Helvetica,sans-Serif" font-size="10.00">Ogre::Window</text>
</a>
</g>
</g>
<!-- Node3&#45;&gt;Node2 -->
<g id="edge2" class="edge">
<title>Node3&#45;&gt;Node2</title>
<path fill="none" stroke="midnightblue" d="M80.44,-110.17C80.44,-101.09 80.44,-90.59 80.44,-83.55"/>
<polygon fill="midnightblue" stroke="midnightblue" points="76.94,-110.22 80.44,-120.22 83.94,-110.22 76.94,-110.22"/>
</g>
<!-- Node4 -->
<g id="node4" class="node">
<title>Node4</title>
<g id="a_node4"><a xlink:href="class_ogre_1_1_allocated_object.html" target="_top" xlink:title="Superclass for all objects that wish to use custom memory allocators when their new / delete operator...">
<polygon fill="none" stroke="black" points="36.87,-175.5 36.87,-193.5 124.02,-193.5 124.02,-175.5 36.87,-175.5"/>
<text text-anchor="middle" x="80.44" y="-181.5" font-family="Helvetica,sans-Serif" font-size="10.00">RenderSysAlloc</text>
</a>
</g>
</g>
<!-- Node4&#45;&gt;Node3 -->
<g id="edge3" class="edge">
<title>Node4&#45;&gt;Node3</title>
<path fill="none" stroke="midnightblue" d="M80.44,-165.17C80.44,-156.09 80.44,-145.59 80.44,-138.55"/>
<polygon fill="midnightblue" stroke="midnightblue" points="76.94,-165.22 80.44,-175.22 83.94,-165.22 76.94,-165.22"/>
</g>
</g>
</svg>
