<?xml version="1.0" encoding="UTF-8" standalone="no"?>
<!DOCTYPE svg PUBLIC "-//W3C//DTD SVG 1.1//EN"
 "http://www.w3.org/Graphics/SVG/1.1/DTD/svg11.dtd">
<!-- Generated by graphviz version 2.43.0 (0)
 -->
<!-- Title: Ogre::PlaneOptimalShadowCameraSetup Pages: 1 -->
<svg width="150pt" height="147pt"
 viewBox="0.00 0.00 149.62 147.00" xmlns="http://www.w3.org/2000/svg" xmlns:xlink="http://www.w3.org/1999/xlink">
<g id="graph0" class="graph" transform="scale(1 1) rotate(0) translate(4 143)">
<title>Ogre::PlaneOptimalShadowCameraSetup</title>
<!-- Node1 -->
<g id="node1" class="node">
<title>Node1</title>
<g id="a_node1"><a xlink:title="Implements the plane optimal shadow camera algorithm.">
<polygon fill="#bfbfbf" stroke="black" points="0.83,-0.5 0.83,-28.5 140.79,-28.5 140.79,-0.5 0.83,-0.5"/>
<text text-anchor="start" x="8.83" y="-16.5" font-family="Helvetica,sans-Serif" font-size="10.00">Ogre::PlaneOptimalShadow</text>
<text text-anchor="middle" x="70.81" y="-6.5" font-family="Helvetica,sans-Serif" font-size="10.00">CameraSetup</text>
</a>
</g>
</g>
<!-- Node2 -->
<g id="node2" class="node">
<title>Node2</title>
<g id="a_node2"><a xlink:href="class_ogre_1_1_shadow_camera_setup.html" target="_top" xlink:title="This class allows you to plug in new ways to define the camera setup when rendering and projecting sh...">
<polygon fill="none" stroke="black" points="0,-65.5 0,-83.5 141.62,-83.5 141.62,-65.5 0,-65.5"/>
<text text-anchor="middle" x="70.81" y="-71.5" font-family="Helvetica,sans-Serif" font-size="10.00">Ogre::ShadowCameraSetup</text>
</a>
</g>
</g>
<!-- Node2&#45;&gt;Node1 -->
<g id="edge1" class="edge">
<title>Node2&#45;&gt;Node1</title>
<path fill="none" stroke="midnightblue" d="M70.81,-55.32C70.81,-46.75 70.81,-36.7 70.81,-28.84"/>
<polygon fill="midnightblue" stroke="midnightblue" points="67.31,-55.44 70.81,-65.44 74.31,-55.44 67.31,-55.44"/>
</g>
<!-- Node3 -->
<g id="node3" class="node">
<title>Node3</title>
<g id="a_node3"><a xlink:href="class_ogre_1_1_allocated_object.html" target="_top" xlink:title="Superclass for all objects that wish to use custom memory allocators when their new / delete operator...">
<polygon fill="none" stroke="black" points="23.34,-120.5 23.34,-138.5 118.28,-138.5 118.28,-120.5 23.34,-120.5"/>
<text text-anchor="middle" x="70.81" y="-126.5" font-family="Helvetica,sans-Serif" font-size="10.00">ShadowDataAlloc</text>
</a>
</g>
</g>
<!-- Node3&#45;&gt;Node2 -->
<g id="edge2" class="edge">
<title>Node3&#45;&gt;Node2</title>
<path fill="none" stroke="midnightblue" d="M70.81,-110.17C70.81,-101.09 70.81,-90.59 70.81,-83.55"/>
<polygon fill="midnightblue" stroke="midnightblue" points="67.31,-110.22 70.81,-120.22 74.31,-110.22 67.31,-110.22"/>
</g>
</g>
</svg>
