<?xml version="1.0" encoding="UTF-8" standalone="no"?>
<!DOCTYPE svg PUBLIC "-//W3C//DTD SVG 1.1//EN"
 "http://www.w3.org/Graphics/SVG/1.1/DTD/svg11.dtd">
<!-- Generated by graphviz version 2.43.0 (0)
 -->
<!-- Title: Ogre::VaoManager Pages: 1 -->
<svg width="406pt" height="175pt"
 viewBox="0.00 0.00 406.12 175.00" xmlns="http://www.w3.org/2000/svg" xmlns:xlink="http://www.w3.org/1999/xlink">
<g id="graph0" class="graph" transform="scale(1 1) rotate(0) translate(4 171)">
<title>Ogre::VaoManager</title>
<!-- Node1 -->
<g id="node1" class="node">
<title>Node1</title>
<g id="a_node1"><a xlink:title=" ">
<polygon fill="#bfbfbf" stroke="black" points="123.14,-74.5 123.14,-92.5 223.45,-92.5 223.45,-74.5 123.14,-74.5"/>
<text text-anchor="middle" x="173.3" y="-80.5" font-family="Helvetica,sans-Serif" font-size="10.00">Ogre::VaoManager</text>
</a>
</g>
</g>
<!-- Node3 -->
<g id="node3" class="node">
<title>Node3</title>
<g id="a_node3"><a xlink:href="class_ogre_1_1_d3_d11_vao_manager.html" target="_top" xlink:title=" ">
<polygon fill="none" stroke="black" points="263.44,-148.5 263.44,-166.5 394.14,-166.5 394.14,-148.5 263.44,-148.5"/>
<text text-anchor="middle" x="328.79" y="-154.5" font-family="Helvetica,sans-Serif" font-size="10.00">Ogre::D3D11VaoManager</text>
</a>
</g>
</g>
<!-- Node1&#45;&gt;Node3 -->
<g id="edge2" class="edge">
<title>Node1&#45;&gt;Node3</title>
<path fill="none" stroke="midnightblue" d="M193.76,-98.96C210.36,-111.47 235.32,-128.73 259.45,-139.5 267.41,-143.05 276.21,-146.01 284.77,-148.45"/>
<polygon fill="midnightblue" stroke="midnightblue" points="195.51,-95.89 185.45,-92.56 191.24,-101.43 195.51,-95.89"/>
</g>
<!-- Node4 -->
<g id="node4" class="node">
<title>Node4</title>
<g id="a_node4"><a xlink:href="class_ogre_1_1_g_l3_plus_vao_manager.html" target="_top" xlink:title=" ">
<polygon fill="none" stroke="black" points="259.45,-111.5 259.45,-129.5 398.12,-129.5 398.12,-111.5 259.45,-111.5"/>
<text text-anchor="middle" x="328.79" y="-117.5" font-family="Helvetica,sans-Serif" font-size="10.00">Ogre::GL3PlusVaoManager</text>
</a>
</g>
</g>
<!-- Node1&#45;&gt;Node4 -->
<g id="edge3" class="edge">
<title>Node1&#45;&gt;Node4</title>
<path fill="none" stroke="midnightblue" d="M221.69,-94.92C243.78,-100.25 269.68,-106.49 290.36,-111.48"/>
<polygon fill="midnightblue" stroke="midnightblue" points="222.39,-91.49 211.85,-92.55 220.75,-98.3 222.39,-91.49"/>
</g>
<!-- Node5 -->
<g id="node5" class="node">
<title>Node5</title>
<g id="a_node5"><a xlink:href="class_ogre_1_1_g_l_e_s2_vao_manager.html" target="_top" xlink:title=" ">
<polygon fill="none" stroke="black" points="262.51,-74.5 262.51,-92.5 395.06,-92.5 395.06,-74.5 262.51,-74.5"/>
<text text-anchor="middle" x="328.79" y="-80.5" font-family="Helvetica,sans-Serif" font-size="10.00">Ogre::GLES2VaoManager</text>
</a>
</g>
</g>
<!-- Node1&#45;&gt;Node5 -->
<g id="edge4" class="edge">
<title>Node1&#45;&gt;Node5</title>
<path fill="none" stroke="midnightblue" d="M233.76,-83.5C243.18,-83.5 252.96,-83.5 262.5,-83.5"/>
<polygon fill="midnightblue" stroke="midnightblue" points="233.71,-80 223.71,-83.5 233.71,-87 233.71,-80"/>
</g>
<!-- Node6 -->
<g id="node6" class="node">
<title>Node6</title>
<g id="a_node6"><a xlink:href="class_ogre_1_1_metal_vao_manager.html" target="_top" xlink:title=" ">
<polygon fill="none" stroke="black" points="266.4,-37.5 266.4,-55.5 391.17,-55.5 391.17,-37.5 266.4,-37.5"/>
<text text-anchor="middle" x="328.79" y="-43.5" font-family="Helvetica,sans-Serif" font-size="10.00">Ogre::MetalVaoManager</text>
</a>
</g>
</g>
<!-- Node1&#45;&gt;Node6 -->
<g id="edge5" class="edge">
<title>Node1&#45;&gt;Node6</title>
<path fill="none" stroke="midnightblue" d="M221.69,-72.08C243.78,-66.75 269.68,-60.51 290.36,-55.52"/>
<polygon fill="midnightblue" stroke="midnightblue" points="220.75,-68.7 211.85,-74.45 222.39,-75.51 220.75,-68.7"/>
</g>
<!-- Node7 -->
<g id="node7" class="node">
<title>Node7</title>
<g id="a_node7"><a xlink:href="class_ogre_1_1_n_u_l_l_vao_manager.html" target="_top" xlink:title=" ">
<polygon fill="none" stroke="black" points="266.22,-0.5 266.22,-18.5 391.36,-18.5 391.36,-0.5 266.22,-0.5"/>
<text text-anchor="middle" x="328.79" y="-6.5" font-family="Helvetica,sans-Serif" font-size="10.00">Ogre::NULLVaoManager</text>
</a>
</g>
</g>
<!-- Node1&#45;&gt;Node7 -->
<g id="edge6" class="edge">
<title>Node1&#45;&gt;Node7</title>
<path fill="none" stroke="midnightblue" d="M193.76,-68.04C210.36,-55.53 235.32,-38.27 259.45,-27.5 267.41,-23.95 276.21,-20.99 284.77,-18.55"/>
<polygon fill="midnightblue" stroke="midnightblue" points="191.24,-65.57 185.45,-74.44 195.51,-71.11 191.24,-65.57"/>
</g>
<!-- Node2 -->
<g id="node2" class="node">
<title>Node2</title>
<g id="a_node2"><a xlink:href="class_ogre_1_1_allocated_object.html" target="_top" xlink:title="Superclass for all objects that wish to use custom memory allocators when their new / delete operator...">
<polygon fill="none" stroke="black" points="0,-74.5 0,-92.5 87.14,-92.5 87.14,-74.5 0,-74.5"/>
<text text-anchor="middle" x="43.57" y="-80.5" font-family="Helvetica,sans-Serif" font-size="10.00">RenderSysAlloc</text>
</a>
</g>
</g>
<!-- Node2&#45;&gt;Node1 -->
<g id="edge1" class="edge">
<title>Node2&#45;&gt;Node1</title>
<path fill="none" stroke="midnightblue" d="M97.6,-83.5C106.05,-83.5 114.77,-83.5 123.13,-83.5"/>
<polygon fill="midnightblue" stroke="midnightblue" points="97.46,-80 87.46,-83.5 97.46,-87 97.46,-80"/>
</g>
</g>
</svg>
