<?xml version="1.0" encoding="UTF-8" standalone="no"?>
<!DOCTYPE svg PUBLIC "-//W3C//DTD SVG 1.1//EN"
 "http://www.w3.org/Graphics/SVG/1.1/DTD/svg11.dtd">
<!-- Generated by graphviz version 2.43.0 (0)
 -->
<!-- Title: Ogre::Volume::ChunkHandler Pages: 1 -->
<svg width="314pt" height="92pt"
 viewBox="0.00 0.00 313.66 92.00" xmlns="http://www.w3.org/2000/svg" xmlns:xlink="http://www.w3.org/1999/xlink">
<g id="graph0" class="graph" transform="scale(1 1) rotate(0) translate(4 88)">
<title>Ogre::Volume::ChunkHandler</title>
<!-- Node1 -->
<g id="node1" class="node">
<title>Node1</title>
<g id="a_node1"><a xlink:title="Handles the WorkQueue management of the chunks.">
<polygon fill="#bfbfbf" stroke="black" points="77.57,-0.5 77.57,-18.5 224.2,-18.5 224.2,-0.5 77.57,-0.5"/>
<text text-anchor="middle" x="150.88" y="-6.5" font-family="Helvetica,sans-Serif" font-size="10.00">Ogre::Volume::ChunkHandler</text>
</a>
</g>
</g>
<!-- Node2 -->
<g id="node2" class="node">
<title>Node2</title>
<g id="a_node2"><a xlink:href="class_ogre_1_1_work_queue_1_1_request_handler.html" target="_top" xlink:title="Interface definition for a handler of requests.">
<polygon fill="none" stroke="black" points="0,-55.5 0,-83.5 139.77,-83.5 139.77,-55.5 0,-55.5"/>
<text text-anchor="start" x="8" y="-71.5" font-family="Helvetica,sans-Serif" font-size="10.00">Ogre::WorkQueue::Request</text>
<text text-anchor="middle" x="69.88" y="-61.5" font-family="Helvetica,sans-Serif" font-size="10.00">Handler</text>
</a>
</g>
</g>
<!-- Node2&#45;&gt;Node1 -->
<g id="edge1" class="edge">
<title>Node2&#45;&gt;Node1</title>
<path fill="none" stroke="midnightblue" d="M96.43,-49.49C110.95,-39.09 128.2,-26.74 139.33,-18.77"/>
<polygon fill="midnightblue" stroke="midnightblue" points="94.36,-46.67 88.26,-55.34 98.43,-52.36 94.36,-46.67"/>
</g>
<!-- Node3 -->
<g id="node3" class="node">
<title>Node3</title>
<g id="a_node3"><a xlink:href="class_ogre_1_1_work_queue_1_1_response_handler.html" target="_top" xlink:title="Interface definition for a handler of responses.">
<polygon fill="none" stroke="black" points="158.11,-55.5 158.11,-83.5 305.66,-83.5 305.66,-55.5 158.11,-55.5"/>
<text text-anchor="start" x="166.11" y="-71.5" font-family="Helvetica,sans-Serif" font-size="10.00">Ogre::WorkQueue::Response</text>
<text text-anchor="middle" x="231.88" y="-61.5" font-family="Helvetica,sans-Serif" font-size="10.00">Handler</text>
</a>
</g>
</g>
<!-- Node3&#45;&gt;Node1 -->
<g id="edge2" class="edge">
<title>Node3&#45;&gt;Node1</title>
<path fill="none" stroke="midnightblue" d="M205.34,-49.49C190.82,-39.09 173.57,-26.74 162.44,-18.77"/>
<polygon fill="midnightblue" stroke="midnightblue" points="203.34,-52.36 213.5,-55.34 207.41,-46.67 203.34,-52.36"/>
</g>
</g>
</svg>
