<?xml version="1.0" encoding="UTF-8" standalone="no"?>
<!DOCTYPE svg PUBLIC "-//W3C//DTD SVG 1.1//EN"
 "http://www.w3.org/Graphics/SVG/1.1/DTD/svg11.dtd">
<!-- Generated by graphviz version 2.43.0 (0)
 -->
<!-- Title: Ogre::v1::MetalHardwarePixelBuffer Pages: 1 -->
<svg width="159pt" height="257pt"
 viewBox="0.00 0.00 159.43 257.00" xmlns="http://www.w3.org/2000/svg" xmlns:xlink="http://www.w3.org/1999/xlink">
<g id="graph0" class="graph" transform="scale(1 1) rotate(0) translate(4 253)">
<title>Ogre::v1::MetalHardwarePixelBuffer</title>
<!-- Node1 -->
<g id="node1" class="node">
<title>Node1</title>
<g id="a_node1"><a xlink:title=" ">
<polygon fill="#bfbfbf" stroke="black" points="1.03,-55.5 1.03,-83.5 150.41,-83.5 150.41,-55.5 1.03,-55.5"/>
<text text-anchor="start" x="9.03" y="-71.5" font-family="Helvetica,sans-Serif" font-size="10.00">Ogre::v1::MetalHardwarePixel</text>
<text text-anchor="middle" x="75.72" y="-61.5" font-family="Helvetica,sans-Serif" font-size="10.00">Buffer</text>
</a>
</g>
</g>
<!-- Node5 -->
<g id="node5" class="node">
<title>Node5</title>
<g id="a_node5"><a xlink:href="class_ogre_1_1v1_1_1_metal_texture_buffer.html" target="_top" xlink:title="Texture surface.">
<polygon fill="none" stroke="black" points="3.89,-0.5 3.89,-18.5 147.55,-18.5 147.55,-0.5 3.89,-0.5"/>
<text text-anchor="middle" x="75.72" y="-6.5" font-family="Helvetica,sans-Serif" font-size="10.00">Ogre::v1::MetalTextureBuffer</text>
</a>
</g>
</g>
<!-- Node1&#45;&gt;Node5 -->
<g id="edge4" class="edge">
<title>Node1&#45;&gt;Node5</title>
<path fill="none" stroke="midnightblue" d="M75.72,-45.32C75.72,-35.94 75.72,-25.7 75.72,-18.77"/>
<polygon fill="midnightblue" stroke="midnightblue" points="72.22,-45.34 75.72,-55.34 79.22,-45.34 72.22,-45.34"/>
</g>
<!-- Node2 -->
<g id="node2" class="node">
<title>Node2</title>
<g id="a_node2"><a xlink:href="class_ogre_1_1v1_1_1_hardware_pixel_buffer.html" target="_top" xlink:title="Specialisation of HardwareBuffer for a pixel buffer.">
<polygon fill="none" stroke="black" points="0,-120.5 0,-138.5 151.43,-138.5 151.43,-120.5 0,-120.5"/>
<text text-anchor="middle" x="75.72" y="-126.5" font-family="Helvetica,sans-Serif" font-size="10.00">Ogre::v1::HardwarePixelBuffer</text>
</a>
</g>
</g>
<!-- Node2&#45;&gt;Node1 -->
<g id="edge1" class="edge">
<title>Node2&#45;&gt;Node1</title>
<path fill="none" stroke="midnightblue" d="M75.72,-110.32C75.72,-101.75 75.72,-91.7 75.72,-83.84"/>
<polygon fill="midnightblue" stroke="midnightblue" points="72.22,-110.44 75.72,-120.44 79.22,-110.44 72.22,-110.44"/>
</g>
<!-- Node3 -->
<g id="node3" class="node">
<title>Node3</title>
<g id="a_node3"><a xlink:href="class_ogre_1_1v1_1_1_hardware_buffer.html" target="_top" xlink:title="Abstract class defining common features of hardware buffers.">
<polygon fill="none" stroke="black" points="10.84,-175.5 10.84,-193.5 140.6,-193.5 140.6,-175.5 10.84,-175.5"/>
<text text-anchor="middle" x="75.72" y="-181.5" font-family="Helvetica,sans-Serif" font-size="10.00">Ogre::v1::HardwareBuffer</text>
</a>
</g>
</g>
<!-- Node3&#45;&gt;Node2 -->
<g id="edge2" class="edge">
<title>Node3&#45;&gt;Node2</title>
<path fill="none" stroke="midnightblue" d="M75.72,-165.17C75.72,-156.09 75.72,-145.59 75.72,-138.55"/>
<polygon fill="midnightblue" stroke="midnightblue" points="72.22,-165.22 75.72,-175.22 79.22,-165.22 72.22,-165.22"/>
</g>
<!-- Node4 -->
<g id="node4" class="node">
<title>Node4</title>
<g id="a_node4"><a xlink:href="class_ogre_1_1_allocated_object.html" target="_top" xlink:title="Superclass for all objects that wish to use custom memory allocators when their new / delete operator...">
<polygon fill="none" stroke="black" points="43.63,-230.5 43.63,-248.5 107.81,-248.5 107.81,-230.5 43.63,-230.5"/>
<text text-anchor="middle" x="75.72" y="-236.5" font-family="Helvetica,sans-Serif" font-size="10.00">BufferAlloc</text>
</a>
</g>
</g>
<!-- Node4&#45;&gt;Node3 -->
<g id="edge3" class="edge">
<title>Node4&#45;&gt;Node3</title>
<path fill="none" stroke="midnightblue" d="M75.72,-220.17C75.72,-211.09 75.72,-200.59 75.72,-193.55"/>
<polygon fill="midnightblue" stroke="midnightblue" points="72.22,-220.22 75.72,-230.22 79.22,-220.22 72.22,-220.22"/>
</g>
</g>
</svg>
