<?xml version="1.0" encoding="UTF-8" standalone="no"?>
<!DOCTYPE svg PUBLIC "-//W3C//DTD SVG 1.1//EN"
 "http://www.w3.org/Graphics/SVG/1.1/DTD/svg11.dtd">
<!-- Generated by graphviz version 2.43.0 (0)
 -->
<!-- Title: Ogre::InternalErrorException Pages: 1 -->
<svg width="151pt" height="137pt"
 viewBox="0.00 0.00 151.28 137.00" xmlns="http://www.w3.org/2000/svg" xmlns:xlink="http://www.w3.org/1999/xlink">
<g id="graph0" class="graph" transform="scale(1 1) rotate(0) translate(4 133)">
<title>Ogre::InternalErrorException</title>
<!-- Node1 -->
<g id="node1" class="node">
<title>Node1</title>
<g id="a_node1"><a xlink:title=" ">
<polygon fill="#bfbfbf" stroke="black" points="0,-0.5 0,-18.5 143.28,-18.5 143.28,-0.5 0,-0.5"/>
<text text-anchor="middle" x="71.64" y="-6.5" font-family="Helvetica,sans-Serif" font-size="10.00">Ogre::InternalErrorException</text>
</a>
</g>
</g>
<!-- Node2 -->
<g id="node2" class="node">
<title>Node2</title>
<g id="a_node2"><a xlink:href="class_ogre_1_1_exception.html" target="_top" xlink:title="When thrown, provides information about an error that has occurred inside the engine.">
<polygon fill="none" stroke="black" points="27.79,-55.5 27.79,-73.5 115.49,-73.5 115.49,-55.5 27.79,-55.5"/>
<text text-anchor="middle" x="71.64" y="-61.5" font-family="Helvetica,sans-Serif" font-size="10.00">Ogre::Exception</text>
</a>
</g>
</g>
<!-- Node2&#45;&gt;Node1 -->
<g id="edge1" class="edge">
<title>Node2&#45;&gt;Node1</title>
<path fill="none" stroke="midnightblue" d="M71.64,-45.17C71.64,-36.09 71.64,-25.59 71.64,-18.55"/>
<polygon fill="midnightblue" stroke="midnightblue" points="68.14,-45.22 71.64,-55.22 75.14,-45.22 68.14,-45.22"/>
</g>
<!-- Node3 -->
<g id="node3" class="node">
<title>Node3</title>
<g id="a_node3"><a xlink:title=" ">
<polygon fill="none" stroke="#bfbfbf" points="32.79,-110.5 32.79,-128.5 110.49,-128.5 110.49,-110.5 32.79,-110.5"/>
<text text-anchor="middle" x="71.64" y="-116.5" font-family="Helvetica,sans-Serif" font-size="10.00">std::exception</text>
</a>
</g>
</g>
<!-- Node3&#45;&gt;Node2 -->
<g id="edge2" class="edge">
<title>Node3&#45;&gt;Node2</title>
<path fill="none" stroke="midnightblue" d="M71.64,-100.17C71.64,-91.09 71.64,-80.59 71.64,-73.55"/>
<polygon fill="midnightblue" stroke="midnightblue" points="68.14,-100.22 71.64,-110.22 75.14,-100.22 68.14,-100.22"/>
</g>
</g>
</svg>
