<?xml version="1.0" encoding="UTF-8" standalone="no"?>
<!DOCTYPE svg PUBLIC "-//W3C//DTD SVG 1.1//EN"
 "http://www.w3.org/Graphics/SVG/1.1/DTD/svg11.dtd">
<!-- Generated by graphviz version 2.43.0 (0)
 -->
<!-- Title: Ogre::D3D11StereoDriverBridge Pages: 1 -->
<svg width="274pt" height="92pt"
 viewBox="0.00 0.00 273.88 92.00" xmlns="http://www.w3.org/2000/svg" xmlns:xlink="http://www.w3.org/1999/xlink">
<g id="graph0" class="graph" transform="scale(1 1) rotate(0) translate(4 88)">
<title>Ogre::D3D11StereoDriverBridge</title>
<!-- Node1 -->
<g id="node1" class="node">
<title>Node1</title>
<g id="a_node1"><a xlink:title="Bridge interface from the render system to the stereo driver.">
<polygon fill="#bfbfbf" stroke="black" points="68.37,-0.5 68.37,-18.5 227.59,-18.5 227.59,-0.5 68.37,-0.5"/>
<text text-anchor="middle" x="147.98" y="-6.5" font-family="Helvetica,sans-Serif" font-size="10.00">Ogre::D3D11StereoDriverBridge</text>
</a>
</g>
</g>
<!-- Node2 -->
<g id="node2" class="node">
<title>Node2</title>
<g id="a_node2"><a xlink:href="class_ogre_1_1_singleton.html" target="_top" xlink:title=" ">
<polygon fill="none" stroke="black" points="0,-55.5 0,-83.5 153.96,-83.5 153.96,-55.5 0,-55.5"/>
<text text-anchor="start" x="8" y="-71.5" font-family="Helvetica,sans-Serif" font-size="10.00">Ogre::Singleton&lt; D3D11Stereo</text>
<text text-anchor="middle" x="76.98" y="-61.5" font-family="Helvetica,sans-Serif" font-size="10.00">DriverBridge &gt;</text>
</a>
</g>
</g>
<!-- Node2&#45;&gt;Node1 -->
<g id="edge1" class="edge">
<title>Node2&#45;&gt;Node1</title>
<path fill="none" stroke="midnightblue" d="M100.97,-48.91C113.54,-38.63 128.28,-26.59 137.85,-18.77"/>
<polygon fill="midnightblue" stroke="midnightblue" points="98.62,-46.3 93.09,-55.34 103.05,-51.72 98.62,-46.3"/>
</g>
<!-- Node3 -->
<g id="node3" class="node">
<title>Node3</title>
<g id="a_node3"><a xlink:href="class_ogre_1_1_allocated_object.html" target="_top" xlink:title="Superclass for all objects that wish to use custom memory allocators when their new / delete operator...">
<polygon fill="none" stroke="black" points="172.08,-60.5 172.08,-78.5 265.88,-78.5 265.88,-60.5 172.08,-60.5"/>
<text text-anchor="middle" x="218.98" y="-66.5" font-family="Helvetica,sans-Serif" font-size="10.00">StereoDriverAlloc</text>
</a>
</g>
</g>
<!-- Node3&#45;&gt;Node1 -->
<g id="edge2" class="edge">
<title>Node3&#45;&gt;Node1</title>
<path fill="none" stroke="midnightblue" d="M200.99,-53.8C187.45,-42.74 169.39,-27.99 158.23,-18.87"/>
<polygon fill="midnightblue" stroke="midnightblue" points="199.15,-56.82 209.11,-60.44 203.58,-51.4 199.15,-56.82"/>
</g>
</g>
</svg>
