<?xml version="1.0" encoding="UTF-8" standalone="no"?>
<!DOCTYPE svg PUBLIC "-//W3C//DTD SVG 1.1//EN"
 "http://www.w3.org/Graphics/SVG/1.1/DTD/svg11.dtd">
<!-- Generated by graphviz version 2.43.0 (0)
 -->
<!-- Title: Ogre::UnimplementedException Pages: 1 -->
<svg width="166pt" height="137pt"
 viewBox="0.00 0.00 165.74 137.00" xmlns="http://www.w3.org/2000/svg" xmlns:xlink="http://www.w3.org/1999/xlink">
<g id="graph0" class="graph" transform="scale(1 1) rotate(0) translate(4 133)">
<title>Ogre::UnimplementedException</title>
<!-- Node1 -->
<g id="node1" class="node">
<title>Node1</title>
<g id="a_node1"><a xlink:title="Template struct which creates a distinct type for each exception code.">
<polygon fill="#bfbfbf" stroke="black" points="0,-0.5 0,-18.5 157.74,-18.5 157.74,-0.5 0,-0.5"/>
<text text-anchor="middle" x="78.87" y="-6.5" font-family="Helvetica,sans-Serif" font-size="10.00">Ogre::UnimplementedException</text>
</a>
</g>
</g>
<!-- Node2 -->
<g id="node2" class="node">
<title>Node2</title>
<g id="a_node2"><a xlink:href="class_ogre_1_1_exception.html" target="_top" xlink:title="When thrown, provides information about an error that has occurred inside the engine.">
<polygon fill="none" stroke="black" points="35.02,-55.5 35.02,-73.5 122.72,-73.5 122.72,-55.5 35.02,-55.5"/>
<text text-anchor="middle" x="78.87" y="-61.5" font-family="Helvetica,sans-Serif" font-size="10.00">Ogre::Exception</text>
</a>
</g>
</g>
<!-- Node2&#45;&gt;Node1 -->
<g id="edge1" class="edge">
<title>Node2&#45;&gt;Node1</title>
<path fill="none" stroke="midnightblue" d="M78.87,-45.17C78.87,-36.09 78.87,-25.59 78.87,-18.55"/>
<polygon fill="midnightblue" stroke="midnightblue" points="75.37,-45.22 78.87,-55.22 82.37,-45.22 75.37,-45.22"/>
</g>
<!-- Node3 -->
<g id="node3" class="node">
<title>Node3</title>
<g id="a_node3"><a xlink:title=" ">
<polygon fill="none" stroke="#bfbfbf" points="40.02,-110.5 40.02,-128.5 117.72,-128.5 117.72,-110.5 40.02,-110.5"/>
<text text-anchor="middle" x="78.87" y="-116.5" font-family="Helvetica,sans-Serif" font-size="10.00">std::exception</text>
</a>
</g>
</g>
<!-- Node3&#45;&gt;Node2 -->
<g id="edge2" class="edge">
<title>Node3&#45;&gt;Node2</title>
<path fill="none" stroke="midnightblue" d="M78.87,-100.17C78.87,-91.09 78.87,-80.59 78.87,-73.55"/>
<polygon fill="midnightblue" stroke="midnightblue" points="75.37,-100.22 78.87,-110.22 82.37,-100.22 75.37,-100.22"/>
</g>
</g>
</svg>
