<?xml version="1.0" encoding="UTF-8" standalone="no"?>
<!DOCTYPE svg PUBLIC "-//W3C//DTD SVG 1.1//EN"
 "http://www.w3.org/Graphics/SVG/1.1/DTD/svg11.dtd">
<!-- Generated by graphviz version 2.43.0 (0)
 -->
<!-- Title: Ogre::CompositorPassUav Pages: 1 -->
<svg width="274pt" height="137pt"
 viewBox="0.00 0.00 274.10 137.00" xmlns="http://www.w3.org/2000/svg" xmlns:xlink="http://www.w3.org/1999/xlink">
<g id="graph0" class="graph" transform="scale(1 1) rotate(0) translate(4 133)">
<title>Ogre::CompositorPassUav</title>
<!-- Node1 -->
<g id="node1" class="node">
<title>Node1</title>
<g id="a_node1"><a xlink:title="Implementation of CompositorPass This implementation will set UAVs.">
<polygon fill="#bfbfbf" stroke="black" points="62.11,-0.5 62.11,-18.5 197.04,-18.5 197.04,-0.5 62.11,-0.5"/>
<text text-anchor="middle" x="129.57" y="-6.5" font-family="Helvetica,sans-Serif" font-size="10.00">Ogre::CompositorPassUav</text>
</a>
</g>
</g>
<!-- Node2 -->
<g id="node2" class="node">
<title>Node2</title>
<g id="a_node2"><a xlink:href="class_ogre_1_1_compositor_pass.html" target="_top" xlink:title="Abstract class for compositor passes.">
<polygon fill="none" stroke="black" points="0,-55.5 0,-73.5 117.15,-73.5 117.15,-55.5 0,-55.5"/>
<text text-anchor="middle" x="58.57" y="-61.5" font-family="Helvetica,sans-Serif" font-size="10.00">Ogre::CompositorPass</text>
</a>
</g>
</g>
<!-- Node2&#45;&gt;Node1 -->
<g id="edge1" class="edge">
<title>Node2&#45;&gt;Node1</title>
<path fill="none" stroke="midnightblue" d="M77.72,-49.21C90.85,-39.41 107.81,-26.75 118.69,-18.63"/>
<polygon fill="midnightblue" stroke="midnightblue" points="75.28,-46.66 69.36,-55.45 79.46,-52.27 75.28,-46.66"/>
</g>
<!-- Node3 -->
<g id="node3" class="node">
<title>Node3</title>
<g id="a_node3"><a xlink:href="class_ogre_1_1_allocated_object.html" target="_top" xlink:title="Superclass for all objects that wish to use custom memory allocators when their new / delete operator...">
<polygon fill="none" stroke="black" points="6.11,-110.5 6.11,-128.5 111.03,-128.5 111.03,-110.5 6.11,-110.5"/>
<text text-anchor="middle" x="58.57" y="-116.5" font-family="Helvetica,sans-Serif" font-size="10.00">CompositorInstAlloc</text>
</a>
</g>
</g>
<!-- Node3&#45;&gt;Node2 -->
<g id="edge2" class="edge">
<title>Node3&#45;&gt;Node2</title>
<path fill="none" stroke="midnightblue" d="M58.57,-100.17C58.57,-91.09 58.57,-80.59 58.57,-73.55"/>
<polygon fill="midnightblue" stroke="midnightblue" points="55.07,-100.22 58.57,-110.22 62.07,-100.22 55.07,-100.22"/>
</g>
<!-- Node4 -->
<g id="node4" class="node">
<title>Node4</title>
<g id="a_node4"><a xlink:href="class_ogre_1_1_texture_gpu_listener.html" target="_top" xlink:title=" ">
<polygon fill="none" stroke="black" points="135.04,-55.5 135.04,-73.5 266.1,-73.5 266.1,-55.5 135.04,-55.5"/>
<text text-anchor="middle" x="200.57" y="-61.5" font-family="Helvetica,sans-Serif" font-size="10.00">Ogre::TextureGpuListener</text>
</a>
</g>
</g>
<!-- Node4&#45;&gt;Node1 -->
<g id="edge3" class="edge">
<title>Node4&#45;&gt;Node1</title>
<path fill="none" stroke="midnightblue" d="M181.43,-49.21C168.3,-39.41 151.34,-26.75 140.46,-18.63"/>
<polygon fill="midnightblue" stroke="midnightblue" points="179.68,-52.27 189.79,-55.45 183.87,-46.66 179.68,-52.27"/>
</g>
</g>
</svg>
