<?xml version="1.0" encoding="UTF-8" standalone="no"?>
<!DOCTYPE svg PUBLIC "-//W3C//DTD SVG 1.1//EN"
 "http://www.w3.org/Graphics/SVG/1.1/DTD/svg11.dtd">
<!-- Generated by graphviz version 2.43.0 (0)
 -->
<!-- Title: Ogre::CompositorShadowNodeDef Pages: 1 -->
<svg width="179pt" height="192pt"
 viewBox="0.00 0.00 178.52 192.00" xmlns="http://www.w3.org/2000/svg" xmlns:xlink="http://www.w3.org/1999/xlink">
<g id="graph0" class="graph" transform="scale(1 1) rotate(0) translate(4 188)">
<title>Ogre::CompositorShadowNodeDef</title>
<!-- Node1 -->
<g id="node1" class="node">
<title>Node1</title>
<g id="a_node1"><a xlink:title="Shadow Nodes are special nodes (not to be confused with.">
<polygon fill="#bfbfbf" stroke="black" points="0,-0.5 0,-18.5 170.52,-18.5 170.52,-0.5 0,-0.5"/>
<text text-anchor="middle" x="85.26" y="-6.5" font-family="Helvetica,sans-Serif" font-size="10.00">Ogre::CompositorShadowNodeDef</text>
</a>
</g>
</g>
<!-- Node2 -->
<g id="node2" class="node">
<title>Node2</title>
<g id="a_node2"><a xlink:href="class_ogre_1_1_compositor_node_def.html" target="_top" xlink:title="Compositor nodes are the core subject of compositing.">
<polygon fill="none" stroke="black" points="18.07,-55.5 18.07,-73.5 152.45,-73.5 152.45,-55.5 18.07,-55.5"/>
<text text-anchor="middle" x="85.26" y="-61.5" font-family="Helvetica,sans-Serif" font-size="10.00">Ogre::CompositorNodeDef</text>
</a>
</g>
</g>
<!-- Node2&#45;&gt;Node1 -->
<g id="edge1" class="edge">
<title>Node2&#45;&gt;Node1</title>
<path fill="none" stroke="midnightblue" d="M85.26,-45.17C85.26,-36.09 85.26,-25.59 85.26,-18.55"/>
<polygon fill="midnightblue" stroke="midnightblue" points="81.76,-45.22 85.26,-55.22 88.76,-45.22 81.76,-45.22"/>
</g>
<!-- Node3 -->
<g id="node3" class="node">
<title>Node3</title>
<g id="a_node3"><a xlink:href="class_ogre_1_1_texture_definition_base.html" target="_top" xlink:title="Centralized class for dealing with declarations of textures in Node &amp; Workspace definitions.">
<polygon fill="none" stroke="black" points="14.73,-110.5 14.73,-128.5 155.79,-128.5 155.79,-110.5 14.73,-110.5"/>
<text text-anchor="middle" x="85.26" y="-116.5" font-family="Helvetica,sans-Serif" font-size="10.00">Ogre::TextureDefinitionBase</text>
</a>
</g>
</g>
<!-- Node3&#45;&gt;Node2 -->
<g id="edge2" class="edge">
<title>Node3&#45;&gt;Node2</title>
<path fill="none" stroke="midnightblue" d="M85.26,-100.17C85.26,-91.09 85.26,-80.59 85.26,-73.55"/>
<polygon fill="midnightblue" stroke="midnightblue" points="81.76,-100.22 85.26,-110.22 88.76,-100.22 81.76,-100.22"/>
</g>
<!-- Node4 -->
<g id="node4" class="node">
<title>Node4</title>
<g id="a_node4"><a xlink:href="class_ogre_1_1_allocated_object.html" target="_top" xlink:title="Superclass for all objects that wish to use custom memory allocators when their new / delete operator...">
<polygon fill="none" stroke="black" points="32.8,-165.5 32.8,-183.5 137.72,-183.5 137.72,-165.5 32.8,-165.5"/>
<text text-anchor="middle" x="85.26" y="-171.5" font-family="Helvetica,sans-Serif" font-size="10.00">CompositorInstAlloc</text>
</a>
</g>
</g>
<!-- Node4&#45;&gt;Node3 -->
<g id="edge3" class="edge">
<title>Node4&#45;&gt;Node3</title>
<path fill="none" stroke="midnightblue" d="M85.26,-155.17C85.26,-146.09 85.26,-135.59 85.26,-128.55"/>
<polygon fill="midnightblue" stroke="midnightblue" points="81.76,-155.22 85.26,-165.22 88.76,-155.22 81.76,-155.22"/>
</g>
</g>
</svg>
