<?xml version="1.0" encoding="UTF-8" standalone="no"?>
<!DOCTYPE svg PUBLIC "-//W3C//DTD SVG 1.1//EN"
 "http://www.w3.org/Graphics/SVG/1.1/DTD/svg11.dtd">
<!-- Generated by graphviz version 2.43.0 (0)
 -->
<!-- Title: Ogre::RTShader::TextureAtlasSampler Pages: 1 -->
<svg width="158pt" height="157pt"
 viewBox="0.00 0.00 157.77 157.00" xmlns="http://www.w3.org/2000/svg" xmlns:xlink="http://www.w3.org/1999/xlink">
<g id="graph0" class="graph" transform="scale(1 1) rotate(0) translate(4 153)">
<title>Ogre::RTShader::TextureAtlasSampler</title>
<!-- Node1 -->
<g id="node1" class="node">
<title>Node1</title>
<g id="a_node1"><a xlink:title="Implements texture atlas sampling.">
<polygon fill="#bfbfbf" stroke="black" points="0,-0.5 0,-28.5 149.77,-28.5 149.77,-0.5 0,-0.5"/>
<text text-anchor="start" x="8" y="-16.5" font-family="Helvetica,sans-Serif" font-size="10.00">Ogre::RTShader::TextureAtlas</text>
<text text-anchor="middle" x="74.88" y="-6.5" font-family="Helvetica,sans-Serif" font-size="10.00">Sampler</text>
</a>
</g>
</g>
<!-- Node2 -->
<g id="node2" class="node">
<title>Node2</title>
<g id="a_node2"><a xlink:href="class_ogre_1_1_r_t_shader_1_1_sub_render_state.html" target="_top" xlink:title="This class is the base interface of sub part from a shader based rendering pipeline.">
<polygon fill="none" stroke="black" points="2.22,-65.5 2.22,-93.5 147.55,-93.5 147.55,-65.5 2.22,-65.5"/>
<text text-anchor="start" x="10.22" y="-81.5" font-family="Helvetica,sans-Serif" font-size="10.00">Ogre::RTShader::SubRender</text>
<text text-anchor="middle" x="74.88" y="-71.5" font-family="Helvetica,sans-Serif" font-size="10.00">State</text>
</a>
</g>
</g>
<!-- Node2&#45;&gt;Node1 -->
<g id="edge1" class="edge">
<title>Node2&#45;&gt;Node1</title>
<path fill="none" stroke="midnightblue" d="M74.88,-55.16C74.88,-46.17 74.88,-36.22 74.88,-28.54"/>
<polygon fill="midnightblue" stroke="midnightblue" points="71.38,-55.45 74.88,-65.45 78.38,-55.45 71.38,-55.45"/>
</g>
<!-- Node3 -->
<g id="node3" class="node">
<title>Node3</title>
<g id="a_node3"><a xlink:href="class_ogre_1_1_allocated_object.html" target="_top" xlink:title="Superclass for all objects that wish to use custom memory allocators when their new / delete operator...">
<polygon fill="none" stroke="black" points="16.68,-130.5 16.68,-148.5 133.09,-148.5 133.09,-130.5 16.68,-130.5"/>
<text text-anchor="middle" x="74.88" y="-136.5" font-family="Helvetica,sans-Serif" font-size="10.00">RTShaderSystemAlloc</text>
</a>
</g>
</g>
<!-- Node3&#45;&gt;Node2 -->
<g id="edge2" class="edge">
<title>Node3&#45;&gt;Node2</title>
<path fill="none" stroke="midnightblue" d="M74.88,-120.32C74.88,-111.75 74.88,-101.7 74.88,-93.84"/>
<polygon fill="midnightblue" stroke="midnightblue" points="71.38,-120.44 74.88,-130.44 78.38,-120.44 71.38,-120.44"/>
</g>
</g>
</svg>
