<?xml version="1.0" encoding="UTF-8" standalone="no"?>
<!DOCTYPE svg PUBLIC "-//W3C//DTD SVG 1.1//EN"
 "http://www.w3.org/Graphics/SVG/1.1/DTD/svg11.dtd">
<!-- Generated by graphviz version 2.43.0 (0)
 -->
<!-- Title: Ogre::BspSceneManagerFactory Pages: 1 -->
<svg width="170pt" height="137pt"
 viewBox="0.00 0.00 170.18 137.00" xmlns="http://www.w3.org/2000/svg" xmlns:xlink="http://www.w3.org/1999/xlink">
<g id="graph0" class="graph" transform="scale(1 1) rotate(0) translate(4 133)">
<title>Ogre::BspSceneManagerFactory</title>
<!-- Node1 -->
<g id="node1" class="node">
<title>Node1</title>
<g id="a_node1"><a xlink:title="Factory for BspSceneManager.">
<polygon fill="#bfbfbf" stroke="black" points="0,-0.5 0,-18.5 162.18,-18.5 162.18,-0.5 0,-0.5"/>
<text text-anchor="middle" x="81.09" y="-6.5" font-family="Helvetica,sans-Serif" font-size="10.00">Ogre::BspSceneManagerFactory</text>
</a>
</g>
</g>
<!-- Node2 -->
<g id="node2" class="node">
<title>Node2</title>
<g id="a_node2"><a xlink:href="class_ogre_1_1_scene_manager_factory.html" target="_top" xlink:title="Class which will create instances of a given SceneManager.">
<polygon fill="none" stroke="black" points="8.62,-55.5 8.62,-73.5 153.57,-73.5 153.57,-55.5 8.62,-55.5"/>
<text text-anchor="middle" x="81.09" y="-61.5" font-family="Helvetica,sans-Serif" font-size="10.00">Ogre::SceneManagerFactory</text>
</a>
</g>
</g>
<!-- Node2&#45;&gt;Node1 -->
<g id="edge1" class="edge">
<title>Node2&#45;&gt;Node1</title>
<path fill="none" stroke="midnightblue" d="M81.09,-45.17C81.09,-36.09 81.09,-25.59 81.09,-18.55"/>
<polygon fill="midnightblue" stroke="midnightblue" points="77.59,-45.22 81.09,-55.22 84.59,-45.22 77.59,-45.22"/>
</g>
<!-- Node3 -->
<g id="node3" class="node">
<title>Node3</title>
<g id="a_node3"><a xlink:href="class_ogre_1_1_allocated_object.html" target="_top" xlink:title="Superclass for all objects that wish to use custom memory allocators when their new / delete operator...">
<polygon fill="none" stroke="black" points="39.74,-110.5 39.74,-128.5 122.44,-128.5 122.44,-110.5 39.74,-110.5"/>
<text text-anchor="middle" x="81.09" y="-116.5" font-family="Helvetica,sans-Serif" font-size="10.00">SceneMgtAlloc</text>
</a>
</g>
</g>
<!-- Node3&#45;&gt;Node2 -->
<g id="edge2" class="edge">
<title>Node3&#45;&gt;Node2</title>
<path fill="none" stroke="midnightblue" d="M81.09,-100.17C81.09,-91.09 81.09,-80.59 81.09,-73.55"/>
<polygon fill="midnightblue" stroke="midnightblue" points="77.59,-100.22 81.09,-110.22 84.59,-100.22 77.59,-100.22"/>
</g>
</g>
</svg>
