<?xml version="1.0" encoding="UTF-8" standalone="no"?>
<!DOCTYPE svg PUBLIC "-//W3C//DTD SVG 1.1//EN"
 "http://www.w3.org/Graphics/SVG/1.1/DTD/svg11.dtd">
<!-- Generated by graphviz version 2.43.0 (0)
 -->
<!-- Title: Ogre::CgPlugin Pages: 1 -->
<svg width="92pt" height="137pt"
 viewBox="0.00 0.00 92.37 137.00" xmlns="http://www.w3.org/2000/svg" xmlns:xlink="http://www.w3.org/1999/xlink">
<g id="graph0" class="graph" transform="scale(1 1) rotate(0) translate(4 133)">
<title>Ogre::CgPlugin</title>
<!-- Node1 -->
<g id="node1" class="node">
<title>Node1</title>
<g id="a_node1"><a xlink:title="Plugin instance for Cg Program Manager.">
<polygon fill="#bfbfbf" stroke="black" points="0,-0.5 0,-18.5 84.37,-18.5 84.37,-0.5 0,-0.5"/>
<text text-anchor="middle" x="42.18" y="-6.5" font-family="Helvetica,sans-Serif" font-size="10.00">Ogre::CgPlugin</text>
</a>
</g>
</g>
<!-- Node2 -->
<g id="node2" class="node">
<title>Node2</title>
<g id="a_node2"><a xlink:href="class_ogre_1_1_plugin.html" target="_top" xlink:title="Class defining a generic OGRE plugin.">
<polygon fill="none" stroke="black" points="6.39,-55.5 6.39,-73.5 77.98,-73.5 77.98,-55.5 6.39,-55.5"/>
<text text-anchor="middle" x="42.18" y="-61.5" font-family="Helvetica,sans-Serif" font-size="10.00">Ogre::Plugin</text>
</a>
</g>
</g>
<!-- Node2&#45;&gt;Node1 -->
<g id="edge1" class="edge">
<title>Node2&#45;&gt;Node1</title>
<path fill="none" stroke="midnightblue" d="M42.18,-45.17C42.18,-36.09 42.18,-25.59 42.18,-18.55"/>
<polygon fill="midnightblue" stroke="midnightblue" points="38.68,-45.22 42.18,-55.22 45.68,-45.22 38.68,-45.22"/>
</g>
<!-- Node3 -->
<g id="node3" class="node">
<title>Node3</title>
<g id="a_node3"><a xlink:href="class_ogre_1_1_allocated_object.html" target="_top" xlink:title="Superclass for all objects that wish to use custom memory allocators when their new / delete operator...">
<polygon fill="none" stroke="black" points="9.45,-110.5 9.45,-128.5 74.92,-128.5 74.92,-110.5 9.45,-110.5"/>
<text text-anchor="middle" x="42.18" y="-116.5" font-family="Helvetica,sans-Serif" font-size="10.00">PluginAlloc</text>
</a>
</g>
</g>
<!-- Node3&#45;&gt;Node2 -->
<g id="edge2" class="edge">
<title>Node3&#45;&gt;Node2</title>
<path fill="none" stroke="midnightblue" d="M42.18,-100.17C42.18,-91.09 42.18,-80.59 42.18,-73.55"/>
<polygon fill="midnightblue" stroke="midnightblue" points="38.68,-100.22 42.18,-110.22 45.68,-100.22 38.68,-100.22"/>
</g>
</g>
</svg>
