<?xml version="1.0" encoding="UTF-8" standalone="no"?>
<!DOCTYPE svg PUBLIC "-//W3C//DTD SVG 1.1//EN"
 "http://www.w3.org/Graphics/SVG/1.1/DTD/svg11.dtd">
<!-- Generated by graphviz version 2.43.0 (0)
 -->
<!-- Title: Ogre::v1::AnimationStateControllerValue Pages: 1 -->
<svg width="136pt" height="157pt"
 viewBox="0.00 0.00 135.72 157.00" xmlns="http://www.w3.org/2000/svg" xmlns:xlink="http://www.w3.org/1999/xlink">
<g id="graph0" class="graph" transform="scale(1 1) rotate(0) translate(4 153)">
<title>Ogre::v1::AnimationStateControllerValue</title>
<!-- Node1 -->
<g id="node1" class="node">
<title>Node1</title>
<g id="a_node1"><a xlink:title="ControllerValue wrapper class for AnimationState.">
<polygon fill="#bfbfbf" stroke="black" points="0,-0.5 0,-28.5 127.72,-28.5 127.72,-0.5 0,-0.5"/>
<text text-anchor="start" x="8" y="-16.5" font-family="Helvetica,sans-Serif" font-size="10.00">Ogre::v1::AnimationState</text>
<text text-anchor="middle" x="63.86" y="-6.5" font-family="Helvetica,sans-Serif" font-size="10.00">ControllerValue</text>
</a>
</g>
</g>
<!-- Node2 -->
<g id="node2" class="node">
<title>Node2</title>
<g id="a_node2"><a xlink:href="class_ogre_1_1_controller_value.html" target="_top" xlink:title=" ">
<polygon fill="none" stroke="black" points="7.87,-65.5 7.87,-93.5 119.85,-93.5 119.85,-65.5 7.87,-65.5"/>
<text text-anchor="start" x="15.87" y="-81.5" font-family="Helvetica,sans-Serif" font-size="10.00">Ogre::ControllerValue</text>
<text text-anchor="middle" x="63.86" y="-71.5" font-family="Helvetica,sans-Serif" font-size="10.00">&lt; Real &gt;</text>
</a>
</g>
</g>
<!-- Node2&#45;&gt;Node1 -->
<g id="edge1" class="edge">
<title>Node2&#45;&gt;Node1</title>
<path fill="none" stroke="midnightblue" d="M63.86,-55.16C63.86,-46.17 63.86,-36.22 63.86,-28.54"/>
<polygon fill="midnightblue" stroke="midnightblue" points="60.36,-55.45 63.86,-65.45 67.36,-55.45 60.36,-55.45"/>
</g>
<!-- Node3 -->
<g id="node3" class="node">
<title>Node3</title>
<g id="a_node3"><a xlink:href="class_ogre_1_1_allocated_object.html" target="_top" xlink:title="Superclass for all objects that wish to use custom memory allocators when their new / delete operator...">
<polygon fill="none" stroke="black" points="23.35,-130.5 23.35,-148.5 104.37,-148.5 104.37,-130.5 23.35,-130.5"/>
<text text-anchor="middle" x="63.86" y="-136.5" font-family="Helvetica,sans-Serif" font-size="10.00">ControllerAlloc</text>
</a>
</g>
</g>
<!-- Node3&#45;&gt;Node2 -->
<g id="edge2" class="edge">
<title>Node3&#45;&gt;Node2</title>
<path fill="none" stroke="midnightblue" d="M63.86,-120.32C63.86,-111.75 63.86,-101.7 63.86,-93.84"/>
<polygon fill="midnightblue" stroke="midnightblue" points="60.36,-120.44 63.86,-130.44 67.36,-120.44 60.36,-120.44"/>
</g>
</g>
</svg>
