<?xml version="1.0" encoding="UTF-8" standalone="no"?>
<!DOCTYPE svg PUBLIC "-//W3C//DTD SVG 1.1//EN"
 "http://www.w3.org/Graphics/SVG/1.1/DTD/svg11.dtd">
<!-- Generated by graphviz version 2.43.0 (0)
 -->
<!-- Title: Ogre::Volume::CSGUnionSource Pages: 1 -->
<svg width="170pt" height="147pt"
 viewBox="0.00 0.00 170.19 147.00" xmlns="http://www.w3.org/2000/svg" xmlns:xlink="http://www.w3.org/1999/xlink">
<g id="graph0" class="graph" transform="scale(1 1) rotate(0) translate(4 143)">
<title>Ogre::Volume::CSGUnionSource</title>
<!-- Node1 -->
<g id="node1" class="node">
<title>Node1</title>
<g id="a_node1"><a xlink:title="Builds the union between two sources.">
<polygon fill="#bfbfbf" stroke="black" points="0,-0.5 0,-18.5 162.19,-18.5 162.19,-0.5 0,-0.5"/>
<text text-anchor="middle" x="81.09" y="-6.5" font-family="Helvetica,sans-Serif" font-size="10.00">Ogre::Volume::CSGUnionSource</text>
</a>
</g>
</g>
<!-- Node2 -->
<g id="node2" class="node">
<title>Node2</title>
<g id="a_node2"><a xlink:href="class_ogre_1_1_volume_1_1_c_s_g_operation_source.html" target="_top" xlink:title="Abstract operation volume source holding two sources as operants.">
<polygon fill="none" stroke="black" points="6.95,-55.5 6.95,-83.5 155.24,-83.5 155.24,-55.5 6.95,-55.5"/>
<text text-anchor="start" x="14.95" y="-71.5" font-family="Helvetica,sans-Serif" font-size="10.00">Ogre::Volume::CSGOperation</text>
<text text-anchor="middle" x="81.09" y="-61.5" font-family="Helvetica,sans-Serif" font-size="10.00">Source</text>
</a>
</g>
</g>
<!-- Node2&#45;&gt;Node1 -->
<g id="edge1" class="edge">
<title>Node2&#45;&gt;Node1</title>
<path fill="none" stroke="midnightblue" d="M81.09,-45.32C81.09,-35.94 81.09,-25.7 81.09,-18.77"/>
<polygon fill="midnightblue" stroke="midnightblue" points="77.59,-45.34 81.09,-55.34 84.59,-45.34 77.59,-45.34"/>
</g>
<!-- Node3 -->
<g id="node3" class="node">
<title>Node3</title>
<g id="a_node3"><a xlink:href="class_ogre_1_1_volume_1_1_source.html" target="_top" xlink:title="Abstract class defining the density function.">
<polygon fill="none" stroke="black" points="23.9,-120.5 23.9,-138.5 138.29,-138.5 138.29,-120.5 23.9,-120.5"/>
<text text-anchor="middle" x="81.09" y="-126.5" font-family="Helvetica,sans-Serif" font-size="10.00">Ogre::Volume::Source</text>
</a>
</g>
</g>
<!-- Node3&#45;&gt;Node2 -->
<g id="edge2" class="edge">
<title>Node3&#45;&gt;Node2</title>
<path fill="none" stroke="midnightblue" d="M81.09,-110.32C81.09,-101.75 81.09,-91.7 81.09,-83.84"/>
<polygon fill="midnightblue" stroke="midnightblue" points="77.59,-110.44 81.09,-120.44 84.59,-110.44 77.59,-110.44"/>
</g>
</g>
</svg>
