<?xml version="1.0" encoding="UTF-8" standalone="no"?>
<!DOCTYPE svg PUBLIC "-//W3C//DTD SVG 1.1//EN"
 "http://www.w3.org/Graphics/SVG/1.1/DTD/svg11.dtd">
<!-- Generated by graphviz version 2.43.0 (0)
 -->
<!-- Title: Ogre::FreeImageCodec Pages: 1 -->
<svg width="129pt" height="192pt"
 viewBox="0.00 0.00 129.05 192.00" xmlns="http://www.w3.org/2000/svg" xmlns:xlink="http://www.w3.org/1999/xlink">
<g id="graph0" class="graph" transform="scale(1 1) rotate(0) translate(4 188)">
<title>Ogre::FreeImageCodec</title>
<!-- Node1 -->
<g id="node1" class="node">
<title>Node1</title>
<g id="a_node1"><a xlink:title="Codec specialized in images loaded using FreeImage.">
<polygon fill="#bfbfbf" stroke="black" points="0,-0.5 0,-18.5 121.05,-18.5 121.05,-0.5 0,-0.5"/>
<text text-anchor="middle" x="60.52" y="-6.5" font-family="Helvetica,sans-Serif" font-size="10.00">Ogre::FreeImageCodec</text>
</a>
</g>
</g>
<!-- Node2 -->
<g id="node2" class="node">
<title>Node2</title>
<g id="a_node2"><a xlink:href="class_ogre_1_1_image_codec.html" target="_top" xlink:title="Codec specialized in images.">
<polygon fill="none" stroke="black" points="10.28,-55.5 10.28,-73.5 110.77,-73.5 110.77,-55.5 10.28,-55.5"/>
<text text-anchor="middle" x="60.52" y="-61.5" font-family="Helvetica,sans-Serif" font-size="10.00">Ogre::ImageCodec</text>
</a>
</g>
</g>
<!-- Node2&#45;&gt;Node1 -->
<g id="edge1" class="edge">
<title>Node2&#45;&gt;Node1</title>
<path fill="none" stroke="midnightblue" d="M60.52,-45.17C60.52,-36.09 60.52,-25.59 60.52,-18.55"/>
<polygon fill="midnightblue" stroke="midnightblue" points="57.02,-45.22 60.52,-55.22 64.02,-45.22 57.02,-45.22"/>
</g>
<!-- Node3 -->
<g id="node3" class="node">
<title>Node3</title>
<g id="a_node3"><a xlink:href="class_ogre_1_1_codec.html" target="_top" xlink:title="Abstract class that defines a &#39;codec&#39;.">
<polygon fill="none" stroke="black" points="24.18,-110.5 24.18,-128.5 96.87,-128.5 96.87,-110.5 24.18,-110.5"/>
<text text-anchor="middle" x="60.52" y="-116.5" font-family="Helvetica,sans-Serif" font-size="10.00">Ogre::Codec</text>
</a>
</g>
</g>
<!-- Node3&#45;&gt;Node2 -->
<g id="edge2" class="edge">
<title>Node3&#45;&gt;Node2</title>
<path fill="none" stroke="midnightblue" d="M60.52,-100.17C60.52,-91.09 60.52,-80.59 60.52,-73.55"/>
<polygon fill="midnightblue" stroke="midnightblue" points="57.02,-100.22 60.52,-110.22 64.02,-100.22 57.02,-100.22"/>
</g>
<!-- Node4 -->
<g id="node4" class="node">
<title>Node4</title>
<g id="a_node4"><a xlink:href="class_ogre_1_1_allocated_object.html" target="_top" xlink:title="Superclass for all objects that wish to use custom memory allocators when their new / delete operator...">
<polygon fill="none" stroke="black" points="27.23,-165.5 27.23,-183.5 93.81,-183.5 93.81,-165.5 27.23,-165.5"/>
<text text-anchor="middle" x="60.52" y="-171.5" font-family="Helvetica,sans-Serif" font-size="10.00">CodecAlloc</text>
</a>
</g>
</g>
<!-- Node4&#45;&gt;Node3 -->
<g id="edge3" class="edge">
<title>Node4&#45;&gt;Node3</title>
<path fill="none" stroke="midnightblue" d="M60.52,-155.17C60.52,-146.09 60.52,-135.59 60.52,-128.55"/>
<polygon fill="midnightblue" stroke="midnightblue" points="57.02,-155.22 60.52,-165.22 64.02,-155.22 57.02,-155.22"/>
</g>
</g>
</svg>
