<?xml version="1.0" encoding="UTF-8" standalone="no"?>
<!DOCTYPE svg PUBLIC "-//W3C//DTD SVG 1.1//EN"
 "http://www.w3.org/Graphics/SVG/1.1/DTD/svg11.dtd">
<!-- Generated by graphviz version 2.43.0 (0)
 -->
<!-- Title: Ogre::ArrayMemoryManager::RebaseListener Pages: 1 -->
<svg width="478pt" height="92pt"
 viewBox="0.00 0.00 478.50 92.00" xmlns="http://www.w3.org/2000/svg" xmlns:xlink="http://www.w3.org/1999/xlink">
<g id="graph0" class="graph" transform="scale(1 1) rotate(0) translate(4 88)">
<title>Ogre::ArrayMemoryManager::RebaseListener</title>
<!-- Node1 -->
<g id="node1" class="node">
<title>Node1</title>
<g id="a_node1"><a xlink:title="When mUsedMemory &gt;= mMaxMemory (that is, we&#39;ve exhausted all our preallocated memory) ArrayMemoryMana...">
<polygon fill="#bfbfbf" stroke="black" points="160.73,-55.5 160.73,-83.5 303.99,-83.5 303.99,-55.5 160.73,-55.5"/>
<text text-anchor="start" x="168.73" y="-71.5" font-family="Helvetica,sans-Serif" font-size="10.00">Ogre::ArrayMemoryManager</text>
<text text-anchor="middle" x="232.36" y="-61.5" font-family="Helvetica,sans-Serif" font-size="10.00">::RebaseListener</text>
</a>
</g>
</g>
<!-- Node2 -->
<g id="node2" class="node">
<title>Node2</title>
<g id="a_node2"><a xlink:href="class_ogre_1_1_bone_memory_manager.html" target="_top" xlink:title="Wrap&#45;around class that contains multiple ArrayMemoryManager, one per hierarchy depth.">
<polygon fill="none" stroke="black" points="0,-0.5 0,-18.5 142.72,-18.5 142.72,-0.5 0,-0.5"/>
<text text-anchor="middle" x="71.36" y="-6.5" font-family="Helvetica,sans-Serif" font-size="10.00">Ogre::BoneMemoryManager</text>
</a>
</g>
</g>
<!-- Node1&#45;&gt;Node2 -->
<g id="edge1" class="edge">
<title>Node1&#45;&gt;Node2</title>
<path fill="none" stroke="#8b1a1a" d="M186.71,-52.05C156.4,-41.13 117.92,-27.27 93.97,-18.64"/>
<polygon fill="#8b1a1a" stroke="#8b1a1a" points="185.64,-55.39 196.23,-55.48 188.01,-48.8 185.64,-55.39"/>
</g>
<!-- Node3 -->
<g id="node3" class="node">
<title>Node3</title>
<g id="a_node3"><a xlink:href="class_ogre_1_1_node_memory_manager.html" target="_top" xlink:title="Wrap&#45;around class that contains multiple ArrayMemoryManager, one per hierarchy depth.">
<polygon fill="none" stroke="black" points="160.72,-0.5 160.72,-18.5 304,-18.5 304,-0.5 160.72,-0.5"/>
<text text-anchor="middle" x="232.36" y="-6.5" font-family="Helvetica,sans-Serif" font-size="10.00">Ogre::NodeMemoryManager</text>
</a>
</g>
</g>
<!-- Node1&#45;&gt;Node3 -->
<g id="edge2" class="edge">
<title>Node1&#45;&gt;Node3</title>
<path fill="none" stroke="#8b1a1a" d="M232.36,-45.32C232.36,-35.94 232.36,-25.7 232.36,-18.77"/>
<polygon fill="#8b1a1a" stroke="#8b1a1a" points="228.86,-45.34 232.36,-55.34 235.86,-45.34 228.86,-45.34"/>
</g>
<!-- Node4 -->
<g id="node4" class="node">
<title>Node4</title>
<g id="a_node4"><a xlink:href="class_ogre_1_1_object_memory_manager.html" target="_top" xlink:title="Wrap&#45;around class that contains multiple ArrayMemoryManager, one per render queue.">
<polygon fill="none" stroke="black" points="322.23,-0.5 322.23,-18.5 470.5,-18.5 470.5,-0.5 322.23,-0.5"/>
<text text-anchor="middle" x="396.36" y="-6.5" font-family="Helvetica,sans-Serif" font-size="10.00">Ogre::ObjectMemoryManager</text>
</a>
</g>
</g>
<!-- Node1&#45;&gt;Node4 -->
<g id="edge3" class="edge">
<title>Node1&#45;&gt;Node4</title>
<path fill="none" stroke="#8b1a1a" d="M278.87,-52.05C309.74,-41.13 348.94,-27.27 373.34,-18.64"/>
<polygon fill="#8b1a1a" stroke="#8b1a1a" points="277.43,-48.85 269.17,-55.48 279.76,-55.45 277.43,-48.85"/>
</g>
</g>
</svg>
