<?xml version="1.0" encoding="UTF-8" standalone="no"?>
<!DOCTYPE svg PUBLIC "-//W3C//DTD SVG 1.1//EN"
 "http://www.w3.org/Graphics/SVG/1.1/DTD/svg11.dtd">
<!-- Generated by graphviz version 2.43.0 (0)
 -->
<!-- Title: Ogre::ConfigDialog Pages: 1 -->
<svg width="116pt" height="82pt"
 viewBox="0.00 0.00 116.08 82.00" xmlns="http://www.w3.org/2000/svg" xmlns:xlink="http://www.w3.org/1999/xlink">
<g id="graph0" class="graph" transform="scale(1 1) rotate(0) translate(4 78)">
<title>Ogre::ConfigDialog</title>
<!-- Node1 -->
<g id="node1" class="node">
<title>Node1</title>
<g id="a_node1"><a xlink:title="Defines the behaviour of an automatic renderer configuration dialog.">
<polygon fill="#bfbfbf" stroke="black" points="3.52,-0.5 3.52,-18.5 104.56,-18.5 104.56,-0.5 3.52,-0.5"/>
<text text-anchor="middle" x="54.04" y="-6.5" font-family="Helvetica,sans-Serif" font-size="10.00">Ogre::ConfigDialog</text>
</a>
</g>
</g>
<!-- Node2 -->
<g id="node2" class="node">
<title>Node2</title>
<g id="a_node2"><a xlink:href="class_ogre_1_1_allocated_object.html" target="_top" xlink:title="Superclass for all objects that wish to use custom memory allocators when their new / delete operator...">
<polygon fill="none" stroke="black" points="22.98,-55.5 22.98,-73.5 85.1,-73.5 85.1,-55.5 22.98,-55.5"/>
<text text-anchor="middle" x="54.04" y="-61.5" font-family="Helvetica,sans-Serif" font-size="10.00">UtilityAlloc</text>
</a>
</g>
</g>
<!-- Node2&#45;&gt;Node1 -->
<g id="edge1" class="edge">
<title>Node2&#45;&gt;Node1</title>
<path fill="none" stroke="midnightblue" d="M13.29,-55.08C-4.54,-45.09 -4.38,-28.53 13.77,-18.66"/>
<polygon fill="midnightblue" stroke="midnightblue" points="12.18,-58.41 22.74,-59.16 14.95,-51.99 12.18,-58.41"/>
</g>
<!-- Node2&#45;&gt;Node1 -->
<g id="edge2" class="edge">
<title>Node2&#45;&gt;Node1</title>
<path fill="none" stroke="midnightblue" d="M16.86,-48.07C10.74,-38.44 13.08,-26.44 23.88,-18.63"/>
<polygon fill="midnightblue" stroke="midnightblue" points="14.52,-50.69 23.98,-55.45 19.56,-45.82 14.52,-50.69"/>
</g>
<!-- Node2&#45;&gt;Node1 -->
<g id="edge3" class="edge">
<title>Node2&#45;&gt;Node1</title>
<path fill="none" stroke="midnightblue" d="M28.6,-46.36C25.36,-37.02 27.16,-25.9 34,-18.55"/>
<polygon fill="midnightblue" stroke="midnightblue" points="25.71,-48.36 33.79,-55.22 31.75,-44.82 25.71,-48.36"/>
</g>
<!-- Node2&#45;&gt;Node1 -->
<g id="edge4" class="edge">
<title>Node2&#45;&gt;Node1</title>
<path fill="none" stroke="midnightblue" d="M41.17,-45.47C39.76,-36.33 40.71,-25.67 44.02,-18.55"/>
<polygon fill="midnightblue" stroke="midnightblue" points="37.84,-46.54 43.91,-55.22 44.57,-44.64 37.84,-46.54"/>
</g>
<!-- Node2&#45;&gt;Node1 -->
<g id="edge5" class="edge">
<title>Node2&#45;&gt;Node1</title>
<path fill="none" stroke="midnightblue" d="M54.04,-45.17C54.04,-36.09 54.04,-25.59 54.04,-18.55"/>
<polygon fill="midnightblue" stroke="midnightblue" points="50.54,-45.22 54.04,-55.22 57.54,-45.22 50.54,-45.22"/>
</g>
<!-- Node2&#45;&gt;Node1 -->
<g id="edge6" class="edge">
<title>Node2&#45;&gt;Node1</title>
<path fill="none" stroke="midnightblue" d="M66.91,-45.47C68.32,-36.33 67.37,-25.67 64.06,-18.55"/>
<polygon fill="midnightblue" stroke="midnightblue" points="63.5,-44.64 64.16,-55.22 70.24,-46.54 63.5,-44.64"/>
</g>
<!-- Node2&#45;&gt;Node1 -->
<g id="edge7" class="edge">
<title>Node2&#45;&gt;Node1</title>
<path fill="none" stroke="midnightblue" d="M79.48,-46.36C82.71,-37.02 80.91,-25.9 74.08,-18.55"/>
<polygon fill="midnightblue" stroke="midnightblue" points="76.33,-44.82 74.29,-55.22 82.37,-48.36 76.33,-44.82"/>
</g>
<!-- Node2&#45;&gt;Node1 -->
<g id="edge8" class="edge">
<title>Node2&#45;&gt;Node1</title>
<path fill="none" stroke="midnightblue" d="M91.22,-48.07C97.34,-38.44 95,-26.44 84.2,-18.63"/>
<polygon fill="midnightblue" stroke="midnightblue" points="88.52,-45.82 84.09,-55.45 93.56,-50.69 88.52,-45.82"/>
</g>
<!-- Node2&#45;&gt;Node1 -->
<g id="edge9" class="edge">
<title>Node2&#45;&gt;Node1</title>
<path fill="none" stroke="midnightblue" d="M94.79,-55.08C112.61,-45.09 112.45,-28.53 94.31,-18.66"/>
<polygon fill="midnightblue" stroke="midnightblue" points="93.13,-51.99 85.33,-59.16 95.9,-58.41 93.13,-51.99"/>
</g>
</g>
</svg>
