<?xml version="1.0" encoding="UTF-8" standalone="no"?>
<!DOCTYPE svg PUBLIC "-//W3C//DTD SVG 1.1//EN"
 "http://www.w3.org/Graphics/SVG/1.1/DTD/svg11.dtd">
<!-- Generated by graphviz version 2.43.0 (0)
 -->
<!-- Title: Ogre::MapIterator&lt; T &gt; Pages: 1 -->
<svg width="141pt" height="167pt"
 viewBox="0.00 0.00 141.09 167.00" xmlns="http://www.w3.org/2000/svg" xmlns:xlink="http://www.w3.org/1999/xlink">
<g id="graph0" class="graph" transform="scale(1 1) rotate(0) translate(4 163)">
<title>Ogre::MapIterator&lt; T &gt;</title>
<!-- Node1 -->
<g id="node1" class="node">
<title>Node1</title>
<g id="a_node1"><a xlink:title="Concrete IteratorWrapper for nonconst access to the underlying key&#45;value container.">
<polygon fill="#bfbfbf" stroke="black" points="7.59,-0.5 7.59,-18.5 125.5,-18.5 125.5,-0.5 7.59,-0.5"/>
<text text-anchor="middle" x="66.54" y="-6.5" font-family="Helvetica,sans-Serif" font-size="10.00">Ogre::MapIterator&lt; T &gt;</text>
</a>
</g>
</g>
<!-- Node2 -->
<g id="node2" class="node">
<title>Node2</title>
<g id="a_node2"><a xlink:href="class_ogre_1_1_map_iterator_wrapper.html" target="_top" xlink:title=" ">
<polygon fill="none" stroke="black" points="0,-55.5 0,-83.5 133.09,-83.5 133.09,-55.5 0,-55.5"/>
<text text-anchor="start" x="8" y="-71.5" font-family="Helvetica,sans-Serif" font-size="10.00">Ogre::MapIteratorWrapper</text>
<text text-anchor="middle" x="66.54" y="-61.5" font-family="Helvetica,sans-Serif" font-size="10.00">&lt; T, T::iterator &gt;</text>
</a>
</g>
</g>
<!-- Node2&#45;&gt;Node1 -->
<g id="edge1" class="edge">
<title>Node2&#45;&gt;Node1</title>
<path fill="none" stroke="midnightblue" d="M66.54,-45.32C66.54,-35.94 66.54,-25.7 66.54,-18.77"/>
<polygon fill="midnightblue" stroke="midnightblue" points="63.05,-45.34 66.54,-55.34 70.05,-45.34 63.05,-45.34"/>
</g>
<!-- Node3 -->
<g id="node3" class="node">
<title>Node3</title>
<g id="a_node3"><a xlink:href="class_ogre_1_1_iterator_wrapper.html" target="_top" xlink:title=" ">
<polygon fill="none" stroke="black" points="9.73,-120.5 9.73,-158.5 123.36,-158.5 123.36,-120.5 9.73,-120.5"/>
<text text-anchor="start" x="17.73" y="-146.5" font-family="Helvetica,sans-Serif" font-size="10.00">Ogre::IteratorWrapper</text>
<text text-anchor="start" x="17.73" y="-136.5" font-family="Helvetica,sans-Serif" font-size="10.00">&lt; T, T::iterator, T::</text>
<text text-anchor="middle" x="66.54" y="-126.5" font-family="Helvetica,sans-Serif" font-size="10.00">mapped_type &gt;</text>
</a>
</g>
</g>
<!-- Node3&#45;&gt;Node2 -->
<g id="edge2" class="edge">
<title>Node3&#45;&gt;Node2</title>
<path fill="none" stroke="midnightblue" d="M66.54,-110.01C66.54,-100.92 66.54,-91.29 66.54,-83.81"/>
<polygon fill="midnightblue" stroke="midnightblue" points="63.05,-110.28 66.54,-120.28 70.05,-110.28 63.05,-110.28"/>
</g>
</g>
</svg>
