<?xml version="1.0" encoding="UTF-8" standalone="no"?>
<!DOCTYPE svg PUBLIC "-//W3C//DTD SVG 1.1//EN"
 "http://www.w3.org/Graphics/SVG/1.1/DTD/svg11.dtd">
<!-- Generated by graphviz version 2.43.0 (0)
 -->
<!-- Title: Ogre::GpuProgram Pages: 1 -->
<svg width="763pt" height="296pt"
 viewBox="0.00 0.00 763.34 296.00" xmlns="http://www.w3.org/2000/svg" xmlns:xlink="http://www.w3.org/1999/xlink">
<g id="graph0" class="graph" transform="scale(1 1) rotate(0) translate(4 292)">
<title>Ogre::GpuProgram</title>
<!-- Node1 -->
<g id="node1" class="node">
<title>Node1</title>
<g id="a_node1"><a xlink:title="Defines a program which runs on the GPU such as a vertex or fragment program.">
<polygon fill="#bfbfbf" stroke="black" points="267.41,-176.5 267.41,-194.5 368.44,-194.5 368.44,-176.5 267.41,-176.5"/>
<text text-anchor="middle" x="317.93" y="-182.5" font-family="Helvetica,sans-Serif" font-size="10.00">Ogre::GpuProgram</text>
</a>
</g>
</g>
<!-- Node5 -->
<g id="node5" class="node">
<title>Node5</title>
<g id="a_node5"><a xlink:href="class_ogre_1_1_d3_d9_gpu_program.html" target="_top" xlink:title="Direct3D implementation of a few things common to low&#45;level vertex &amp; fragment programs.">
<polygon fill="none" stroke="black" points="413.9,-232.5 413.9,-250.5 540.5,-250.5 540.5,-232.5 413.9,-232.5"/>
<text text-anchor="middle" x="477.2" y="-238.5" font-family="Helvetica,sans-Serif" font-size="10.00">Ogre::D3D9GpuProgram</text>
</a>
</g>
</g>
<!-- Node1&#45;&gt;Node5 -->
<g id="edge4" class="edge">
<title>Node1&#45;&gt;Node5</title>
<path fill="none" stroke="midnightblue" d="M354.01,-197.99C383.39,-208.45 424.6,-223.13 450.85,-232.47"/>
<polygon fill="midnightblue" stroke="midnightblue" points="355.14,-194.68 344.54,-194.62 352.79,-201.27 355.14,-194.68"/>
</g>
<!-- Node8 -->
<g id="node8" class="node">
<title>Node8</title>
<g id="a_node8"><a xlink:href="class_ogre_1_1_high_level_gpu_program.html" target="_top" xlink:title="Abstract base class representing a high&#45;level program (a vertex or fragment program).">
<polygon fill="none" stroke="black" points="404.44,-121.5 404.44,-139.5 549.95,-139.5 549.95,-121.5 404.44,-121.5"/>
<text text-anchor="middle" x="477.2" y="-127.5" font-family="Helvetica,sans-Serif" font-size="10.00">Ogre::HighLevelGpuProgram</text>
</a>
</g>
</g>
<!-- Node1&#45;&gt;Node8 -->
<g id="edge7" class="edge">
<title>Node1&#45;&gt;Node8</title>
<path fill="none" stroke="midnightblue" d="M354.7,-172.99C383.88,-162.79 424.39,-148.62 450.45,-139.5"/>
<polygon fill="midnightblue" stroke="midnightblue" points="353.18,-169.81 344.9,-176.42 355.49,-176.42 353.18,-169.81"/>
</g>
<!-- Node2 -->
<g id="node2" class="node">
<title>Node2</title>
<g id="a_node2"><a xlink:href="class_ogre_1_1_resource.html" target="_top" xlink:title="Abstract class representing a loadable resource (e.g.">
<polygon fill="none" stroke="black" points="144.82,-176.5 144.82,-194.5 231.41,-194.5 231.41,-176.5 144.82,-176.5"/>
<text text-anchor="middle" x="188.12" y="-182.5" font-family="Helvetica,sans-Serif" font-size="10.00">Ogre::Resource</text>
</a>
</g>
</g>
<!-- Node2&#45;&gt;Node1 -->
<g id="edge1" class="edge">
<title>Node2&#45;&gt;Node1</title>
<path fill="none" stroke="midnightblue" d="M241.71,-185.5C250.08,-185.5 258.72,-185.5 267.02,-185.5"/>
<polygon fill="midnightblue" stroke="midnightblue" points="241.67,-182 231.67,-185.5 241.67,-189 241.67,-182"/>
</g>
<!-- Node3 -->
<g id="node3" class="node">
<title>Node3</title>
<g id="a_node3"><a xlink:href="class_ogre_1_1_string_interface.html" target="_top" xlink:title="Class defining the common interface which classes can use to present a reflection&#45;style,...">
<polygon fill="none" stroke="black" points="0,-195.5 0,-213.5 108.82,-213.5 108.82,-195.5 0,-195.5"/>
<text text-anchor="middle" x="54.41" y="-201.5" font-family="Helvetica,sans-Serif" font-size="10.00">Ogre::StringInterface</text>
</a>
</g>
</g>
<!-- Node3&#45;&gt;Node2 -->
<g id="edge2" class="edge">
<title>Node3&#45;&gt;Node2</title>
<path fill="none" stroke="midnightblue" d="M119.05,-195.32C127.68,-194.07 136.36,-192.82 144.49,-191.65"/>
<polygon fill="midnightblue" stroke="midnightblue" points="118.38,-191.88 108.98,-196.77 119.38,-198.81 118.38,-191.88"/>
</g>
<!-- Node4 -->
<g id="node4" class="node">
<title>Node4</title>
<g id="a_node4"><a xlink:href="class_ogre_1_1_allocated_object.html" target="_top" xlink:title="Superclass for all objects that wish to use custom memory allocators when their new / delete operator...">
<polygon fill="none" stroke="black" points="14.17,-158.5 14.17,-176.5 94.65,-176.5 94.65,-158.5 14.17,-158.5"/>
<text text-anchor="middle" x="54.41" y="-164.5" font-family="Helvetica,sans-Serif" font-size="10.00">ResourceAlloc</text>
</a>
</g>
</g>
<!-- Node4&#45;&gt;Node2 -->
<g id="edge3" class="edge">
<title>Node4&#45;&gt;Node2</title>
<path fill="none" stroke="midnightblue" d="M105.08,-174.29C118.03,-176.06 131.86,-177.95 144.41,-179.66"/>
<polygon fill="midnightblue" stroke="midnightblue" points="105.31,-170.79 94.93,-172.9 104.36,-177.72 105.31,-170.79"/>
</g>
<!-- Node6 -->
<g id="node6" class="node">
<title>Node6</title>
<g id="a_node6"><a xlink:href="class_ogre_1_1_d3_d9_gpu_fragment_program.html" target="_top" xlink:title="Direct3D implementation of low&#45;level fragment programs.">
<polygon fill="none" stroke="black" points="585.95,-269.5 585.95,-287.5 755.34,-287.5 755.34,-269.5 585.95,-269.5"/>
<text text-anchor="middle" x="670.65" y="-275.5" font-family="Helvetica,sans-Serif" font-size="10.00">Ogre::D3D9GpuFragmentProgram</text>
</a>
</g>
</g>
<!-- Node5&#45;&gt;Node6 -->
<g id="edge5" class="edge">
<title>Node5&#45;&gt;Node6</title>
<path fill="none" stroke="midnightblue" d="M535.09,-252.5C563.11,-257.91 596.47,-264.36 622.96,-269.48"/>
<polygon fill="midnightblue" stroke="midnightblue" points="535.51,-249.01 525.03,-250.55 534.18,-255.89 535.51,-249.01"/>
</g>
<!-- Node7 -->
<g id="node7" class="node">
<title>Node7</title>
<g id="a_node7"><a xlink:href="class_ogre_1_1_d3_d9_gpu_vertex_program.html" target="_top" xlink:title="Direct3D implementation of low&#45;level vertex programs.">
<polygon fill="none" stroke="black" points="593.17,-232.5 593.17,-250.5 748.12,-250.5 748.12,-232.5 593.17,-232.5"/>
<text text-anchor="middle" x="670.65" y="-238.5" font-family="Helvetica,sans-Serif" font-size="10.00">Ogre::D3D9GpuVertexProgram</text>
</a>
</g>
</g>
<!-- Node5&#45;&gt;Node7 -->
<g id="edge6" class="edge">
<title>Node5&#45;&gt;Node7</title>
<path fill="none" stroke="midnightblue" d="M550.96,-241.5C564.69,-241.5 579.08,-241.5 592.92,-241.5"/>
<polygon fill="midnightblue" stroke="midnightblue" points="550.62,-238 540.62,-241.5 550.62,-245 550.62,-238"/>
</g>
<!-- Node9 -->
<g id="node9" class="node">
<title>Node9</title>
<g id="a_node9"><a xlink:href="class_ogre_1_1_cg_program.html" target="_top" xlink:title="Specialisation of HighLevelGpuProgram to provide support for nVidia&#39;s CG language.">
<polygon fill="none" stroke="black" points="623.19,-195.5 623.19,-213.5 718.1,-213.5 718.1,-195.5 623.19,-195.5"/>
<text text-anchor="middle" x="670.65" y="-201.5" font-family="Helvetica,sans-Serif" font-size="10.00">Ogre::CgProgram</text>
</a>
</g>
</g>
<!-- Node8&#45;&gt;Node9 -->
<g id="edge8" class="edge">
<title>Node8&#45;&gt;Node9</title>
<path fill="none" stroke="midnightblue" d="M501.26,-144.8C522.53,-157.43 555.36,-175.49 585.95,-186.5 597.7,-190.73 610.75,-194.12 622.98,-196.77"/>
<polygon fill="midnightblue" stroke="midnightblue" points="502.99,-141.76 492.62,-139.6 499.37,-147.76 502.99,-141.76"/>
</g>
<!-- Node10 -->
<g id="node10" class="node">
<title>Node10</title>
<g id="a_node10"><a xlink:href="class_ogre_1_1_d3_d11_h_l_s_l_program.html" target="_top" xlink:title="Specialization of HighLevelGpuProgram to provide support for D3D11 High&#45;Level Shader Language (HLSL).">
<polygon fill="none" stroke="black" points="601.88,-158.5 601.88,-176.5 739.42,-176.5 739.42,-158.5 601.88,-158.5"/>
<text text-anchor="middle" x="670.65" y="-164.5" font-family="Helvetica,sans-Serif" font-size="10.00">Ogre::D3D11HLSLProgram</text>
</a>
</g>
</g>
<!-- Node8&#45;&gt;Node10 -->
<g id="edge9" class="edge">
<title>Node8&#45;&gt;Node10</title>
<path fill="none" stroke="midnightblue" d="M535.09,-141.5C563.11,-146.91 596.47,-153.36 622.96,-158.48"/>
<polygon fill="midnightblue" stroke="midnightblue" points="535.51,-138.01 525.03,-139.55 534.18,-144.89 535.51,-138.01"/>
</g>
<!-- Node11 -->
<g id="node11" class="node">
<title>Node11</title>
<g id="a_node11"><a xlink:href="class_ogre_1_1_d3_d9_h_l_s_l_program.html" target="_top" xlink:title="Specialisation of HighLevelGpuProgram to provide support for D3D9 High&#45;Level Shader Language (HLSL).">
<polygon fill="none" stroke="black" points="604.29,-121.5 604.29,-139.5 737,-139.5 737,-121.5 604.29,-121.5"/>
<text text-anchor="middle" x="670.65" y="-127.5" font-family="Helvetica,sans-Serif" font-size="10.00">Ogre::D3D9HLSLProgram</text>
</a>
</g>
</g>
<!-- Node8&#45;&gt;Node11 -->
<g id="edge10" class="edge">
<title>Node8&#45;&gt;Node11</title>
<path fill="none" stroke="midnightblue" d="M560.1,-130.5C574.78,-130.5 589.9,-130.5 604.04,-130.5"/>
<polygon fill="midnightblue" stroke="midnightblue" points="560.03,-127 550.03,-130.5 560.03,-134 560.03,-127"/>
</g>
<!-- Node12 -->
<g id="node12" class="node">
<title>Node12</title>
<g id="a_node12"><a xlink:href="class_ogre_1_1_g_l_s_l_shader.html" target="_top" xlink:title="Specialisation of HighLevelGpuProgram to encapsulate shader objects obtained from compiled shaders wr...">
<polygon fill="none" stroke="black" points="619.84,-84.5 619.84,-102.5 721.45,-102.5 721.45,-84.5 619.84,-84.5"/>
<text text-anchor="middle" x="670.65" y="-90.5" font-family="Helvetica,sans-Serif" font-size="10.00">Ogre::GLSLShader</text>
</a>
</g>
</g>
<!-- Node8&#45;&gt;Node12 -->
<g id="edge11" class="edge">
<title>Node8&#45;&gt;Node12</title>
<path fill="none" stroke="midnightblue" d="M535.09,-119.5C563.11,-114.09 596.47,-107.64 622.96,-102.52"/>
<polygon fill="midnightblue" stroke="midnightblue" points="534.18,-116.11 525.03,-121.45 535.51,-122.99 534.18,-116.11"/>
</g>
<!-- Node13 -->
<g id="node13" class="node">
<title>Node13</title>
<g id="a_node13"><a xlink:href="class_ogre_1_1_metal_program.html" target="_top" xlink:title="Specialisation of HighLevelGpuProgram to provide support for Metal Shader Language.">
<polygon fill="none" stroke="black" points="617.35,-47.5 617.35,-65.5 723.94,-65.5 723.94,-47.5 617.35,-47.5"/>
<text text-anchor="middle" x="670.65" y="-53.5" font-family="Helvetica,sans-Serif" font-size="10.00">Ogre::MetalProgram</text>
</a>
</g>
</g>
<!-- Node8&#45;&gt;Node13 -->
<g id="edge12" class="edge">
<title>Node8&#45;&gt;Node13</title>
<path fill="none" stroke="midnightblue" d="M501.26,-116.2C522.53,-103.57 555.36,-85.51 585.95,-74.5 595.88,-70.93 606.74,-67.95 617.25,-65.51"/>
<polygon fill="midnightblue" stroke="midnightblue" points="499.37,-113.24 492.62,-121.4 502.99,-119.24 499.37,-113.24"/>
</g>
<!-- Node14 -->
<g id="node14" class="node">
<title>Node14</title>
<g id="a_node14"><a xlink:href="class_ogre_1_1_unified_high_level_gpu_program.html" target="_top" xlink:title="Specialisation of HighLevelGpuProgram which just delegates its implementation to one other high level...">
<polygon fill="none" stroke="black" points="601.5,-0.5 601.5,-28.5 739.79,-28.5 739.79,-0.5 601.5,-0.5"/>
<text text-anchor="start" x="609.5" y="-16.5" font-family="Helvetica,sans-Serif" font-size="10.00">Ogre::UnifiedHighLevelGpu</text>
<text text-anchor="middle" x="670.65" y="-6.5" font-family="Helvetica,sans-Serif" font-size="10.00">Program</text>
</a>
</g>
</g>
<!-- Node8&#45;&gt;Node14 -->
<g id="edge13" class="edge">
<title>Node8&#45;&gt;Node14</title>
<path fill="none" stroke="midnightblue" d="M492.93,-113.87C512.27,-93.03 548.22,-57.63 585.95,-37.5 592.33,-34.1 599.26,-31.16 606.31,-28.63"/>
<polygon fill="midnightblue" stroke="midnightblue" points="490.28,-111.58 486.14,-121.33 495.46,-116.29 490.28,-111.58"/>
</g>
</g>
</svg>
