<?xml version="1.0" encoding="UTF-8" standalone="no"?>
<!DOCTYPE svg PUBLIC "-//W3C//DTD SVG 1.1//EN"
 "http://www.w3.org/Graphics/SVG/1.1/DTD/svg11.dtd">
<!-- Generated by graphviz version 2.43.0 (0)
 -->
<!-- Title: Ogre::RenderSystemCapabilitiesManager Pages: 1 -->
<svg width="274pt" height="102pt"
 viewBox="0.00 0.00 273.69 102.00" xmlns="http://www.w3.org/2000/svg" xmlns:xlink="http://www.w3.org/1999/xlink">
<g id="graph0" class="graph" transform="scale(1 1) rotate(0) translate(4 98)">
<title>Ogre::RenderSystemCapabilitiesManager</title>
<!-- Node1 -->
<g id="node1" class="node">
<title>Node1</title>
<g id="a_node1"><a xlink:title="Class for managing RenderSystemCapabilities database for Ogre.">
<polygon fill="#bfbfbf" stroke="black" points="70.31,-0.5 70.31,-28.5 231.93,-28.5 231.93,-0.5 70.31,-0.5"/>
<text text-anchor="start" x="78.31" y="-16.5" font-family="Helvetica,sans-Serif" font-size="10.00">Ogre::RenderSystemCapabilities</text>
<text text-anchor="middle" x="151.12" y="-6.5" font-family="Helvetica,sans-Serif" font-size="10.00">Manager</text>
</a>
</g>
</g>
<!-- Node2 -->
<g id="node2" class="node">
<title>Node2</title>
<g id="a_node2"><a xlink:href="class_ogre_1_1_singleton.html" target="_top" xlink:title=" ">
<polygon fill="none" stroke="black" points="0,-65.5 0,-93.5 160.24,-93.5 160.24,-65.5 0,-65.5"/>
<text text-anchor="start" x="8" y="-81.5" font-family="Helvetica,sans-Serif" font-size="10.00">Ogre::Singleton&lt; RenderSystem</text>
<text text-anchor="middle" x="80.12" y="-71.5" font-family="Helvetica,sans-Serif" font-size="10.00">CapabilitiesManager &gt;</text>
</a>
</g>
</g>
<!-- Node2&#45;&gt;Node1 -->
<g id="edge1" class="edge">
<title>Node2&#45;&gt;Node1</title>
<path fill="none" stroke="midnightblue" d="M102.47,-58.67C113.56,-48.83 126.63,-37.23 136.43,-28.54"/>
<polygon fill="midnightblue" stroke="midnightblue" points="99.99,-56.19 94.83,-65.45 104.64,-61.43 99.99,-56.19"/>
</g>
<!-- Node3 -->
<g id="node3" class="node">
<title>Node3</title>
<g id="a_node3"><a xlink:href="class_ogre_1_1_allocated_object.html" target="_top" xlink:title="Superclass for all objects that wish to use custom memory allocators when their new / delete operator...">
<polygon fill="none" stroke="black" points="178.55,-70.5 178.55,-88.5 265.69,-88.5 265.69,-70.5 178.55,-70.5"/>
<text text-anchor="middle" x="222.12" y="-76.5" font-family="Helvetica,sans-Serif" font-size="10.00">RenderSysAlloc</text>
</a>
</g>
</g>
<!-- Node3&#45;&gt;Node1 -->
<g id="edge2" class="edge">
<title>Node3&#45;&gt;Node1</title>
<path fill="none" stroke="midnightblue" d="M205.27,-63.55C193.28,-52.91 177.32,-38.75 165.84,-28.56"/>
<polygon fill="midnightblue" stroke="midnightblue" points="203.04,-66.24 212.84,-70.26 207.68,-61.01 203.04,-66.24"/>
</g>
</g>
</svg>
