<?xml version="1.0" encoding="UTF-8" standalone="no"?>
<!DOCTYPE svg PUBLIC "-//W3C//DTD SVG 1.1//EN"
 "http://www.w3.org/Graphics/SVG/1.1/DTD/svg11.dtd">
<!-- Generated by graphviz version 2.43.0 (0)
 -->
<!-- Title: Ogre::TextureDefinitionBase Pages: 1 -->
<svg width="338pt" height="192pt"
 viewBox="0.00 0.00 338.42 192.00" xmlns="http://www.w3.org/2000/svg" xmlns:xlink="http://www.w3.org/1999/xlink">
<g id="graph0" class="graph" transform="scale(1 1) rotate(0) translate(4 188)">
<title>Ogre::TextureDefinitionBase</title>
<!-- Node1 -->
<g id="node1" class="node">
<title>Node1</title>
<g id="a_node1"><a xlink:title="Centralized class for dealing with declarations of textures in Node &amp; Workspace definitions.">
<polygon fill="#bfbfbf" stroke="black" points="96.73,-110.5 96.73,-128.5 237.79,-128.5 237.79,-110.5 96.73,-110.5"/>
<text text-anchor="middle" x="167.26" y="-116.5" font-family="Helvetica,sans-Serif" font-size="10.00">Ogre::TextureDefinitionBase</text>
</a>
</g>
</g>
<!-- Node3 -->
<g id="node3" class="node">
<title>Node3</title>
<g id="a_node3"><a xlink:href="class_ogre_1_1_compositor_node_def.html" target="_top" xlink:title="Compositor nodes are the core subject of compositing.">
<polygon fill="none" stroke="black" points="18.07,-55.5 18.07,-73.5 152.45,-73.5 152.45,-55.5 18.07,-55.5"/>
<text text-anchor="middle" x="85.26" y="-61.5" font-family="Helvetica,sans-Serif" font-size="10.00">Ogre::CompositorNodeDef</text>
</a>
</g>
</g>
<!-- Node1&#45;&gt;Node3 -->
<g id="edge2" class="edge">
<title>Node1&#45;&gt;Node3</title>
<path fill="none" stroke="midnightblue" d="M146.02,-104.77C130.74,-94.89 110.64,-81.9 97.83,-73.63"/>
<polygon fill="midnightblue" stroke="midnightblue" points="144.51,-107.96 154.81,-110.45 148.31,-102.08 144.51,-107.96"/>
</g>
<!-- Node5 -->
<g id="node5" class="node">
<title>Node5</title>
<g id="a_node5"><a xlink:href="class_ogre_1_1_compositor_workspace_def.html" target="_top" xlink:title="@See CompositorWorkspace.">
<polygon fill="none" stroke="black" points="170.1,-55.5 170.1,-73.5 330.42,-73.5 330.42,-55.5 170.1,-55.5"/>
<text text-anchor="middle" x="250.26" y="-61.5" font-family="Helvetica,sans-Serif" font-size="10.00">Ogre::CompositorWorkspaceDef</text>
</a>
</g>
</g>
<!-- Node1&#45;&gt;Node5 -->
<g id="edge4" class="edge">
<title>Node1&#45;&gt;Node5</title>
<path fill="none" stroke="midnightblue" d="M188.32,-105.05C203.84,-95.14 224.45,-81.98 237.54,-73.63"/>
<polygon fill="midnightblue" stroke="midnightblue" points="186.41,-102.12 179.87,-110.45 190.18,-108.02 186.41,-102.12"/>
</g>
<!-- Node2 -->
<g id="node2" class="node">
<title>Node2</title>
<g id="a_node2"><a xlink:href="class_ogre_1_1_allocated_object.html" target="_top" xlink:title="Superclass for all objects that wish to use custom memory allocators when their new / delete operator...">
<polygon fill="none" stroke="black" points="114.8,-165.5 114.8,-183.5 219.72,-183.5 219.72,-165.5 114.8,-165.5"/>
<text text-anchor="middle" x="167.26" y="-171.5" font-family="Helvetica,sans-Serif" font-size="10.00">CompositorInstAlloc</text>
</a>
</g>
</g>
<!-- Node2&#45;&gt;Node1 -->
<g id="edge1" class="edge">
<title>Node2&#45;&gt;Node1</title>
<path fill="none" stroke="midnightblue" d="M167.26,-155.17C167.26,-146.09 167.26,-135.59 167.26,-128.55"/>
<polygon fill="midnightblue" stroke="midnightblue" points="163.76,-155.22 167.26,-165.22 170.76,-155.22 163.76,-155.22"/>
</g>
<!-- Node4 -->
<g id="node4" class="node">
<title>Node4</title>
<g id="a_node4"><a xlink:href="class_ogre_1_1_compositor_shadow_node_def.html" target="_top" xlink:title="Shadow Nodes are special nodes (not to be confused with.">
<polygon fill="none" stroke="black" points="0,-0.5 0,-18.5 170.52,-18.5 170.52,-0.5 0,-0.5"/>
<text text-anchor="middle" x="85.26" y="-6.5" font-family="Helvetica,sans-Serif" font-size="10.00">Ogre::CompositorShadowNodeDef</text>
</a>
</g>
</g>
<!-- Node3&#45;&gt;Node4 -->
<g id="edge3" class="edge">
<title>Node3&#45;&gt;Node4</title>
<path fill="none" stroke="midnightblue" d="M85.26,-45.17C85.26,-36.09 85.26,-25.59 85.26,-18.55"/>
<polygon fill="midnightblue" stroke="midnightblue" points="81.76,-45.22 85.26,-55.22 88.76,-45.22 81.76,-45.22"/>
</g>
</g>
</svg>
