<?xml version="1.0" encoding="UTF-8" standalone="no"?>
<!DOCTYPE svg PUBLIC "-//W3C//DTD SVG 1.1//EN"
 "http://www.w3.org/Graphics/SVG/1.1/DTD/svg11.dtd">
<!-- Generated by graphviz version 2.43.0 (0)
 -->
<!-- Title: Ogre::RotationAffectorFactory Pages: 1 -->
<svg width="157pt" height="137pt"
 viewBox="0.00 0.00 156.66 137.00" xmlns="http://www.w3.org/2000/svg" xmlns:xlink="http://www.w3.org/1999/xlink">
<g id="graph0" class="graph" transform="scale(1 1) rotate(0) translate(4 133)">
<title>Ogre::RotationAffectorFactory</title>
<!-- Node1 -->
<g id="node1" class="node">
<title>Node1</title>
<g id="a_node1"><a xlink:title="Factory class for RotationAffector.">
<polygon fill="#bfbfbf" stroke="black" points="0,-0.5 0,-18.5 148.66,-18.5 148.66,-0.5 0,-0.5"/>
<text text-anchor="middle" x="74.33" y="-6.5" font-family="Helvetica,sans-Serif" font-size="10.00">Ogre::RotationAffectorFactory</text>
</a>
</g>
</g>
<!-- Node2 -->
<g id="node2" class="node">
<title>Node2</title>
<g id="a_node2"><a xlink:href="class_ogre_1_1_particle_affector_factory.html" target="_top" xlink:title="Abstract class defining the interface to be implemented by creators of ParticleAffector subclasses.">
<polygon fill="none" stroke="black" points="1.95,-55.5 1.95,-73.5 146.71,-73.5 146.71,-55.5 1.95,-55.5"/>
<text text-anchor="middle" x="74.33" y="-61.5" font-family="Helvetica,sans-Serif" font-size="10.00">Ogre::ParticleAffectorFactory</text>
</a>
</g>
</g>
<!-- Node2&#45;&gt;Node1 -->
<g id="edge1" class="edge">
<title>Node2&#45;&gt;Node1</title>
<path fill="none" stroke="midnightblue" d="M74.33,-45.17C74.33,-36.09 74.33,-25.59 74.33,-18.55"/>
<polygon fill="midnightblue" stroke="midnightblue" points="70.83,-45.22 74.33,-55.22 77.83,-45.22 70.83,-45.22"/>
</g>
<!-- Node3 -->
<g id="node3" class="node">
<title>Node3</title>
<g id="a_node3"><a xlink:href="class_ogre_1_1_allocated_object.html" target="_top" xlink:title="Superclass for all objects that wish to use custom memory allocators when their new / delete operator...">
<polygon fill="none" stroke="black" points="49.1,-110.5 49.1,-128.5 99.55,-128.5 99.55,-110.5 49.1,-110.5"/>
<text text-anchor="middle" x="74.33" y="-116.5" font-family="Helvetica,sans-Serif" font-size="10.00">FXAlloc</text>
</a>
</g>
</g>
<!-- Node3&#45;&gt;Node2 -->
<g id="edge2" class="edge">
<title>Node3&#45;&gt;Node2</title>
<path fill="none" stroke="midnightblue" d="M74.33,-100.17C74.33,-91.09 74.33,-80.59 74.33,-73.55"/>
<polygon fill="midnightblue" stroke="midnightblue" points="70.83,-100.22 74.33,-110.22 77.83,-100.22 70.83,-100.22"/>
</g>
</g>
</svg>
