<?xml version="1.0" encoding="UTF-8" standalone="no"?>
<!DOCTYPE svg PUBLIC "-//W3C//DTD SVG 1.1//EN"
 "http://www.w3.org/Graphics/SVG/1.1/DTD/svg11.dtd">
<!-- Generated by graphviz version 2.43.0 (0)
 -->
<!-- Title: Ogre::D3D9StereoDriverAMD Pages: 1 -->
<svg width="438pt" height="147pt"
 viewBox="0.00 0.00 438.16 147.00" xmlns="http://www.w3.org/2000/svg" xmlns:xlink="http://www.w3.org/1999/xlink">
<g id="graph0" class="graph" transform="scale(1 1) rotate(0) translate(4 143)">
<title>Ogre::D3D9StereoDriverAMD</title>
<!-- Node1 -->
<g id="node1" class="node">
<title>Node1</title>
<g id="a_node1"><a xlink:title="Virtual interface of the stereo driver.">
<polygon fill="#bfbfbf" stroke="black" points="143.33,-0.5 143.33,-18.5 291.04,-18.5 291.04,-0.5 143.33,-0.5"/>
<text text-anchor="middle" x="217.19" y="-6.5" font-family="Helvetica,sans-Serif" font-size="10.00">Ogre::D3D9StereoDriverAMD</text>
</a>
</g>
</g>
<!-- Node2 -->
<g id="node2" class="node">
<title>Node2</title>
<g id="a_node2"><a xlink:href="class_ogre_1_1_d3_d9_stereo_driver_impl.html" target="_top" xlink:title="Virtual interface of the stereo driver.">
<polygon fill="none" stroke="black" points="0,-60.5 0,-78.5 144.37,-78.5 144.37,-60.5 0,-60.5"/>
<text text-anchor="middle" x="72.19" y="-66.5" font-family="Helvetica,sans-Serif" font-size="10.00">Ogre::D3D9StereoDriverImpl</text>
</a>
</g>
</g>
<!-- Node2&#45;&gt;Node1 -->
<g id="edge1" class="edge">
<title>Node2&#45;&gt;Node1</title>
<path fill="none" stroke="midnightblue" d="M101.73,-56.68C130.02,-45.37 171.95,-28.59 196.73,-18.68"/>
<polygon fill="midnightblue" stroke="midnightblue" points="100.33,-53.47 92.35,-60.44 102.93,-59.97 100.33,-53.47"/>
</g>
<!-- Node3 -->
<g id="node3" class="node">
<title>Node3</title>
<g id="a_node3"><a xlink:href="class_ogre_1_1_allocated_object.html" target="_top" xlink:title="Superclass for all objects that wish to use custom memory allocators when their new / delete operator...">
<polygon fill="none" stroke="black" points="31.95,-120.5 31.95,-138.5 112.42,-138.5 112.42,-120.5 31.95,-120.5"/>
<text text-anchor="middle" x="72.19" y="-126.5" font-family="Helvetica,sans-Serif" font-size="10.00">ResourceAlloc</text>
</a>
</g>
</g>
<!-- Node3&#45;&gt;Node2 -->
<g id="edge2" class="edge">
<title>Node3&#45;&gt;Node2</title>
<path fill="none" stroke="midnightblue" d="M72.19,-110.21C72.19,-99.71 72.19,-87.03 72.19,-78.87"/>
<polygon fill="midnightblue" stroke="midnightblue" points="68.69,-110.44 72.19,-120.44 75.69,-110.44 68.69,-110.44"/>
</g>
<!-- Node4 -->
<g id="node4" class="node">
<title>Node4</title>
<g id="a_node4"><a xlink:href="class_ogre_1_1_render_system_1_1_listener.html" target="_top" xlink:title="Defines a listener on the custom events that this render system can raise.">
<polygon fill="none" stroke="black" points="162.22,-55.5 162.22,-83.5 272.15,-83.5 272.15,-55.5 162.22,-55.5"/>
<text text-anchor="start" x="170.22" y="-71.5" font-family="Helvetica,sans-Serif" font-size="10.00">Ogre::RenderSystem</text>
<text text-anchor="middle" x="217.19" y="-61.5" font-family="Helvetica,sans-Serif" font-size="10.00">::Listener</text>
</a>
</g>
</g>
<!-- Node4&#45;&gt;Node1 -->
<g id="edge3" class="edge">
<title>Node4&#45;&gt;Node1</title>
<path fill="none" stroke="midnightblue" d="M217.19,-45.32C217.19,-35.94 217.19,-25.7 217.19,-18.77"/>
<polygon fill="midnightblue" stroke="midnightblue" points="213.69,-45.34 217.19,-55.34 220.69,-45.34 213.69,-45.34"/>
</g>
<!-- Node5 -->
<g id="node5" class="node">
<title>Node5</title>
<g id="a_node5"><a xlink:href="class_ogre_1_1_render_target_listener.html" target="_top" xlink:title="A interface class defining a listener which can be used to receive notifications of RenderTarget even...">
<polygon fill="none" stroke="black" points="290.21,-60.5 290.21,-78.5 430.16,-78.5 430.16,-60.5 290.21,-60.5"/>
<text text-anchor="middle" x="360.19" y="-66.5" font-family="Helvetica,sans-Serif" font-size="10.00">Ogre::RenderTargetListener</text>
</a>
</g>
</g>
<!-- Node5&#45;&gt;Node1 -->
<g id="edge4" class="edge">
<title>Node5&#45;&gt;Node1</title>
<path fill="none" stroke="midnightblue" d="M330.68,-56.53C302.79,-45.22 261.69,-28.55 237.36,-18.68"/>
<polygon fill="midnightblue" stroke="midnightblue" points="329.72,-59.92 340.3,-60.44 332.35,-53.43 329.72,-59.92"/>
</g>
</g>
</svg>
