<?xml version="1.0" encoding="UTF-8" standalone="no"?>
<!DOCTYPE svg PUBLIC "-//W3C//DTD SVG 1.1//EN"
 "http://www.w3.org/Graphics/SVG/1.1/DTD/svg11.dtd">
<!-- Generated by graphviz version 2.43.0 (0)
 -->
<!-- Title: Ogre::TextureFilter::GenerateHwMipmaps Pages: 1 -->
<svg width="126pt" height="157pt"
 viewBox="0.00 0.00 126.26 157.00" xmlns="http://www.w3.org/2000/svg" xmlns:xlink="http://www.w3.org/1999/xlink">
<g id="graph0" class="graph" transform="scale(1 1) rotate(0) translate(4 153)">
<title>Ogre::TextureFilter::GenerateHwMipmaps</title>
<!-- Node1 -->
<g id="node1" class="node">
<title>Node1</title>
<g id="a_node1"><a xlink:title=" ">
<polygon fill="#bfbfbf" stroke="black" points="0,-0.5 0,-28.5 118.26,-28.5 118.26,-0.5 0,-0.5"/>
<text text-anchor="start" x="8" y="-16.5" font-family="Helvetica,sans-Serif" font-size="10.00">Ogre::TextureFilter</text>
<text text-anchor="middle" x="59.13" y="-6.5" font-family="Helvetica,sans-Serif" font-size="10.00">::GenerateHwMipmaps</text>
</a>
</g>
</g>
<!-- Node2 -->
<g id="node2" class="node">
<title>Node2</title>
<g id="a_node2"><a xlink:href="class_ogre_1_1_texture_filter_1_1_filter_base.html" target="_top" xlink:title=" ">
<polygon fill="none" stroke="black" points="9.73,-65.5 9.73,-93.5 108.53,-93.5 108.53,-65.5 9.73,-65.5"/>
<text text-anchor="start" x="17.73" y="-81.5" font-family="Helvetica,sans-Serif" font-size="10.00">Ogre::TextureFilter</text>
<text text-anchor="middle" x="59.13" y="-71.5" font-family="Helvetica,sans-Serif" font-size="10.00">::FilterBase</text>
</a>
</g>
</g>
<!-- Node2&#45;&gt;Node1 -->
<g id="edge1" class="edge">
<title>Node2&#45;&gt;Node1</title>
<path fill="none" stroke="midnightblue" d="M59.13,-55.16C59.13,-46.17 59.13,-36.22 59.13,-28.54"/>
<polygon fill="midnightblue" stroke="midnightblue" points="55.63,-55.45 59.13,-65.45 62.63,-55.45 55.63,-55.45"/>
</g>
<!-- Node3 -->
<g id="node3" class="node">
<title>Node3</title>
<g id="a_node3"><a xlink:href="class_ogre_1_1_allocated_object.html" target="_top" xlink:title="Superclass for all objects that wish to use custom memory allocators when their new / delete operator...">
<polygon fill="none" stroke="black" points="18.89,-130.5 18.89,-148.5 99.37,-148.5 99.37,-130.5 18.89,-130.5"/>
<text text-anchor="middle" x="59.13" y="-136.5" font-family="Helvetica,sans-Serif" font-size="10.00">ResourceAlloc</text>
</a>
</g>
</g>
<!-- Node3&#45;&gt;Node2 -->
<g id="edge2" class="edge">
<title>Node3&#45;&gt;Node2</title>
<path fill="none" stroke="midnightblue" d="M59.13,-120.32C59.13,-111.75 59.13,-101.7 59.13,-93.84"/>
<polygon fill="midnightblue" stroke="midnightblue" points="55.63,-120.44 59.13,-130.44 62.63,-120.44 55.63,-120.44"/>
</g>
</g>
</svg>
