<?xml version="1.0" encoding="UTF-8" standalone="no"?>
<!DOCTYPE svg PUBLIC "-//W3C//DTD SVG 1.1//EN"
 "http://www.w3.org/Graphics/SVG/1.1/DTD/svg11.dtd">
<!-- Generated by graphviz version 2.43.0 (0)
 -->
<!-- Title: Ogre::SmallVectorTemplateCommon&lt; T &gt; Pages: 1 -->
<svg width="966pt" height="168pt"
 viewBox="0.00 0.00 965.71 168.00" xmlns="http://www.w3.org/2000/svg" xmlns:xlink="http://www.w3.org/1999/xlink">
<g id="graph0" class="graph" transform="scale(1 1) rotate(0) translate(4 164)">
<title>Ogre::SmallVectorTemplateCommon&lt; T &gt;</title>
<!-- Node1 -->
<g id="node1" class="node">
<title>Node1</title>
<g id="a_node1"><a xlink:title=" ">
<polygon fill="#bfbfbf" stroke="black" points="155.94,-84.5 155.94,-112.5 293.66,-112.5 293.66,-84.5 155.94,-84.5"/>
<text text-anchor="start" x="163.94" y="-100.5" font-family="Helvetica,sans-Serif" font-size="10.00">Ogre::SmallVectorTemplate</text>
<text text-anchor="middle" x="224.8" y="-90.5" font-family="Helvetica,sans-Serif" font-size="10.00">Common&lt; T &gt;</text>
</a>
</g>
</g>
<!-- Node3 -->
<g id="node3" class="node">
<title>Node3</title>
<g id="a_node3"><a xlink:href="class_ogre_1_1_small_vector_template_base.html" target="_top" xlink:title="SmallVectorTemplateBase&lt;isPodLike = false&gt; &#45; This is where we put method implementations that are des...">
<polygon fill="none" stroke="black" points="330.52,-131.5 330.52,-159.5 468.24,-159.5 468.24,-131.5 330.52,-131.5"/>
<text text-anchor="start" x="338.52" y="-147.5" font-family="Helvetica,sans-Serif" font-size="10.00">Ogre::SmallVectorTemplate</text>
<text text-anchor="middle" x="399.38" y="-137.5" font-family="Helvetica,sans-Serif" font-size="10.00">Base&lt; T &gt;</text>
</a>
</g>
</g>
<!-- Node1&#45;&gt;Node3 -->
<g id="edge3" class="edge">
<title>Node1&#45;&gt;Node3</title>
<path fill="none" stroke="midnightblue" d="M303.79,-113.02C325.97,-118.91 348.89,-125.6 366.61,-131.48"/>
<polygon fill="midnightblue" stroke="midnightblue" points="304.57,-109.6 294.01,-110.46 302.8,-116.38 304.57,-109.6"/>
</g>
<!-- Node1&#45;&gt;Node3 -->
<g id="edge4" class="edge">
<title>Node1&#45;&gt;Node3</title>
<path fill="none" stroke="midnightblue" d="M267.61,-115.77C286.46,-121.71 309.2,-128.15 330.39,-133.6"/>
<polygon fill="midnightblue" stroke="midnightblue" points="268.45,-112.36 257.86,-112.62 266.3,-119.02 268.45,-112.36"/>
</g>
<!-- Node4 -->
<g id="node4" class="node">
<title>Node4</title>
<g id="a_node4"><a xlink:href="class_ogre_1_1_small_vector_template_base_3_01_t_00_01true_01_4.html" target="_top" xlink:title="SmallVectorTemplateBase&lt;isPodLike = true&gt; &#45; This is where we put method implementations that are desi...">
<polygon fill="none" stroke="black" points="330.52,-84.5 330.52,-112.5 468.24,-112.5 468.24,-84.5 330.52,-84.5"/>
<text text-anchor="start" x="338.52" y="-100.5" font-family="Helvetica,sans-Serif" font-size="10.00">Ogre::SmallVectorTemplate</text>
<text text-anchor="middle" x="399.38" y="-90.5" font-family="Helvetica,sans-Serif" font-size="10.00">Base&lt; T, true &gt;</text>
</a>
</g>
</g>
<!-- Node1&#45;&gt;Node4 -->
<g id="edge5" class="edge">
<title>Node1&#45;&gt;Node4</title>
<path fill="none" stroke="midnightblue" d="M304.2,-91.78C312.94,-91.72 321.79,-91.76 330.39,-91.89"/>
<polygon fill="midnightblue" stroke="midnightblue" points="303.97,-88.28 294.01,-91.88 304.05,-95.28 303.97,-88.28"/>
</g>
<!-- Node1&#45;&gt;Node4 -->
<g id="edge6" class="edge">
<title>Node1&#45;&gt;Node4</title>
<path fill="none" stroke="midnightblue" d="M304.2,-105.22C312.94,-105.28 321.79,-105.24 330.39,-105.11"/>
<polygon fill="midnightblue" stroke="midnightblue" points="304.05,-101.72 294.01,-105.12 303.97,-108.72 304.05,-101.72"/>
</g>
<!-- Node5 -->
<g id="node5" class="node">
<title>Node5</title>
<g id="a_node5"><a xlink:href="class_ogre_1_1_small_vector_template_base.html" target="_top" xlink:title=" ">
<polygon fill="none" stroke="black" points="329.66,-37.5 329.66,-65.5 469.1,-65.5 469.1,-37.5 329.66,-37.5"/>
<text text-anchor="start" x="337.66" y="-53.5" font-family="Helvetica,sans-Serif" font-size="10.00">SmallVectorTemplateBase</text>
<text text-anchor="middle" x="399.38" y="-43.5" font-family="Helvetica,sans-Serif" font-size="10.00">&lt; T, isPodLike&lt; T &gt;::value &gt;</text>
</a>
</g>
</g>
<!-- Node1&#45;&gt;Node5 -->
<g id="edge7" class="edge">
<title>Node1&#45;&gt;Node5</title>
<path fill="none" stroke="midnightblue" d="M267.46,-81.28C286.02,-75.43 308.37,-69.09 329.31,-63.68"/>
<polygon fill="midnightblue" stroke="midnightblue" points="266.3,-77.98 257.86,-84.38 268.45,-84.64 266.3,-77.98"/>
</g>
<!-- Node1&#45;&gt;Node5 -->
<g id="edge17" class="edge">
<title>Node1&#45;&gt;Node5</title>
<path fill="none" stroke="midnightblue" d="M303.79,-83.98C325.97,-78.09 348.89,-71.4 366.61,-65.52"/>
<polygon fill="midnightblue" stroke="midnightblue" points="302.8,-80.62 294.01,-86.54 304.57,-87.4 302.8,-80.62"/>
</g>
<!-- Node2 -->
<g id="node2" class="node">
<title>Node2</title>
<g id="a_node2"><a xlink:href="class_ogre_1_1_small_vector_base.html" target="_top" xlink:title="SmallVectorBase &#45; This is all the non&#45;templated stuff common to all SmallVectors.">
<polygon fill="none" stroke="black" points="0,-89.5 0,-107.5 119.94,-107.5 119.94,-89.5 0,-89.5"/>
<text text-anchor="middle" x="59.97" y="-95.5" font-family="Helvetica,sans-Serif" font-size="10.00">Ogre::SmallVectorBase</text>
</a>
</g>
</g>
<!-- Node2&#45;&gt;Node1 -->
<g id="edge1" class="edge">
<title>Node2&#45;&gt;Node1</title>
<path fill="none" stroke="midnightblue" d="M130.37,-91.82C138.78,-91.72 147.37,-91.73 155.76,-91.83"/>
<polygon fill="midnightblue" stroke="midnightblue" points="130.16,-88.32 120.22,-91.98 130.27,-95.32 130.16,-88.32"/>
</g>
<!-- Node2&#45;&gt;Node1 -->
<g id="edge2" class="edge">
<title>Node2&#45;&gt;Node1</title>
<path fill="none" stroke="midnightblue" d="M130.37,-105.18C138.78,-105.28 147.37,-105.27 155.76,-105.17"/>
<polygon fill="midnightblue" stroke="midnightblue" points="130.27,-101.68 120.22,-105.02 130.16,-108.68 130.27,-101.68"/>
</g>
<!-- Node6 -->
<g id="node6" class="node">
<title>Node6</title>
<g id="a_node6"><a xlink:href="class_ogre_1_1_small_vector_impl.html" target="_top" xlink:title="SmallVectorImpl &#45; This class consists of common code factored out of the SmallVector class to reduce ...">
<polygon fill="none" stroke="black" points="505.1,-42.5 505.1,-60.5 644.13,-60.5 644.13,-42.5 505.1,-42.5"/>
<text text-anchor="middle" x="574.61" y="-48.5" font-family="Helvetica,sans-Serif" font-size="10.00">Ogre::SmallVectorImpl&lt; T &gt;</text>
</a>
</g>
</g>
<!-- Node5&#45;&gt;Node6 -->
<g id="edge8" class="edge">
<title>Node5&#45;&gt;Node6</title>
<path fill="none" stroke="midnightblue" d="M479.58,-44.77C488.03,-44.72 496.57,-44.76 504.89,-44.88"/>
<polygon fill="midnightblue" stroke="midnightblue" points="479.31,-41.27 469.34,-44.88 479.38,-48.27 479.31,-41.27"/>
</g>
<!-- Node5&#45;&gt;Node6 -->
<g id="edge16" class="edge">
<title>Node5&#45;&gt;Node6</title>
<path fill="none" stroke="midnightblue" d="M479.58,-58.23C488.03,-58.28 496.57,-58.24 504.89,-58.12"/>
<polygon fill="midnightblue" stroke="midnightblue" points="479.38,-54.73 469.34,-58.12 479.31,-61.73 479.38,-54.73"/>
</g>
<!-- Node7 -->
<g id="node7" class="node">
<title>Node7</title>
<g id="a_node7"><a xlink:href="class_ogre_1_1_small_vector.html" target="_top" xlink:title="SmallVector &#45; This is a &#39;vector&#39; (really, a variable&#45;sized array), optimized for the case when the ar...">
<polygon fill="none" stroke="black" points="680.13,-84.5 680.13,-102.5 800.27,-102.5 800.27,-84.5 680.13,-84.5"/>
<text text-anchor="middle" x="740.2" y="-90.5" font-family="Helvetica,sans-Serif" font-size="10.00">Ogre::SmallVector&lt; T &gt;</text>
</a>
</g>
</g>
<!-- Node6&#45;&gt;Node7 -->
<g id="edge9" class="edge">
<title>Node6&#45;&gt;Node7</title>
<path fill="none" stroke="midnightblue" d="M646.54,-63.01C674,-69.79 703.13,-78.03 721.23,-84.47"/>
<polygon fill="midnightblue" stroke="midnightblue" points="647.07,-59.54 636.53,-60.59 645.42,-66.34 647.07,-59.54"/>
</g>
<!-- Node6&#45;&gt;Node7 -->
<g id="edge10" class="edge">
<title>Node6&#45;&gt;Node7</title>
<path fill="none" stroke="midnightblue" d="M603.28,-63.81C624.2,-70.61 653.71,-78.62 679.89,-84.79"/>
<polygon fill="midnightblue" stroke="midnightblue" points="604.34,-60.48 593.74,-60.59 602.09,-67.11 604.34,-60.48"/>
</g>
<!-- Node8 -->
<g id="node8" class="node">
<title>Node8</title>
<g id="a_node8"><a xlink:href="class_ogre_1_1_small_vector_3_01_t_00_010_01_4.html" target="_top" xlink:title="Specialize SmallVector at N=0.">
<polygon fill="none" stroke="black" points="688.71,-37.5 688.71,-65.5 791.69,-65.5 791.69,-37.5 688.71,-37.5"/>
<text text-anchor="start" x="696.71" y="-53.5" font-family="Helvetica,sans-Serif" font-size="10.00">Ogre::SmallVector&lt;</text>
<text text-anchor="middle" x="740.2" y="-43.5" font-family="Helvetica,sans-Serif" font-size="10.00"> T, 0 &gt;</text>
</a>
</g>
</g>
<!-- Node6&#45;&gt;Node8 -->
<g id="edge11" class="edge">
<title>Node6&#45;&gt;Node8</title>
<path fill="none" stroke="midnightblue" d="M654.55,-44.75C666.02,-44.72 677.56,-44.87 688.27,-45.2"/>
<polygon fill="midnightblue" stroke="midnightblue" points="654.49,-41.25 644.51,-44.83 654.54,-48.25 654.49,-41.25"/>
</g>
<!-- Node6&#45;&gt;Node8 -->
<g id="edge12" class="edge">
<title>Node6&#45;&gt;Node8</title>
<path fill="none" stroke="midnightblue" d="M654.55,-58.25C666.02,-58.28 677.56,-58.13 688.27,-57.8"/>
<polygon fill="midnightblue" stroke="midnightblue" points="654.54,-54.75 644.51,-58.17 654.49,-61.75 654.54,-54.75"/>
</g>
<!-- Node9 -->
<g id="node9" class="node">
<title>Node9</title>
<g id="a_node9"><a xlink:href="class_ogre_1_1_small_vector.html" target="_top" xlink:title=" ">
<polygon fill="none" stroke="black" points="688.38,-0.5 688.38,-18.5 792.02,-18.5 792.02,-0.5 688.38,-0.5"/>
<text text-anchor="middle" x="740.2" y="-6.5" font-family="Helvetica,sans-Serif" font-size="10.00">SmallVector&lt; T, S &gt;</text>
</a>
</g>
</g>
<!-- Node6&#45;&gt;Node9 -->
<g id="edge13" class="edge">
<title>Node6&#45;&gt;Node9</title>
<path fill="none" stroke="midnightblue" d="M603.29,-39.18C626.47,-31.66 660.16,-22.64 688.2,-16.29"/>
<polygon fill="midnightblue" stroke="midnightblue" points="602.09,-35.89 593.74,-42.41 604.34,-42.52 602.09,-35.89"/>
</g>
<!-- Node6&#45;&gt;Node9 -->
<g id="edge15" class="edge">
<title>Node6&#45;&gt;Node9</title>
<path fill="none" stroke="midnightblue" d="M646.54,-39.99C674,-33.21 703.13,-24.97 721.23,-18.53"/>
<polygon fill="midnightblue" stroke="midnightblue" points="645.42,-36.66 636.53,-42.41 647.07,-43.46 645.42,-36.66"/>
</g>
<!-- Node10 -->
<g id="node10" class="node">
<title>Node10</title>
<g id="a_node10"><a xlink:href="struct_ogre_1_1_vector_set.html" target="_top" xlink:title="VectorSet is basically a helper to use a vector as a small set container.">
<polygon fill="none" stroke="black" points="836.27,-0.5 836.27,-18.5 957.71,-18.5 957.71,-0.5 836.27,-0.5"/>
<text text-anchor="middle" x="896.99" y="-6.5" font-family="Helvetica,sans-Serif" font-size="10.00">Ogre::VectorSet&lt; T, S &gt;</text>
</a>
</g>
</g>
<!-- Node9&#45;&gt;Node10 -->
<g id="edge14" class="edge">
<title>Node9&#45;&gt;Node10</title>
<path fill="none" stroke="midnightblue" d="M802.34,-9.5C813.44,-9.5 825,-9.5 836.06,-9.5"/>
<polygon fill="midnightblue" stroke="midnightblue" points="802.31,-6 792.31,-9.5 802.31,-13 802.31,-6"/>
</g>
</g>
</svg>
