<?xml version="1.0" encoding="UTF-8" standalone="no"?>
<!DOCTYPE svg PUBLIC "-//W3C//DTD SVG 1.1//EN"
 "http://www.w3.org/Graphics/SVG/1.1/DTD/svg11.dtd">
<!-- Generated by graphviz version 2.43.0 (0)
 -->
<!-- Title: Ogre::Volume::HalfFloatGridSource Pages: 1 -->
<svg width="150pt" height="147pt"
 viewBox="0.00 0.00 149.61 147.00" xmlns="http://www.w3.org/2000/svg" xmlns:xlink="http://www.w3.org/1999/xlink">
<g id="graph0" class="graph" transform="scale(1 1) rotate(0) translate(4 143)">
<title>Ogre::Volume::HalfFloatGridSource</title>
<!-- Node1 -->
<g id="node1" class="node">
<title>Node1</title>
<g id="a_node1"><a xlink:title="A volume source from a 16 Bit float 3D grid capable of loading volume serializations.">
<polygon fill="#bfbfbf" stroke="black" points="0,-0.5 0,-28.5 141.61,-28.5 141.61,-0.5 0,-0.5"/>
<text text-anchor="start" x="8" y="-16.5" font-family="Helvetica,sans-Serif" font-size="10.00">Ogre::Volume::HalfFloatGrid</text>
<text text-anchor="middle" x="70.81" y="-6.5" font-family="Helvetica,sans-Serif" font-size="10.00">Source</text>
</a>
</g>
</g>
<!-- Node2 -->
<g id="node2" class="node">
<title>Node2</title>
<g id="a_node2"><a xlink:href="class_ogre_1_1_volume_1_1_grid_source.html" target="_top" xlink:title="A volume source from a discrete 3d grid.">
<polygon fill="none" stroke="black" points="4.17,-65.5 4.17,-83.5 137.45,-83.5 137.45,-65.5 4.17,-65.5"/>
<text text-anchor="middle" x="70.81" y="-71.5" font-family="Helvetica,sans-Serif" font-size="10.00">Ogre::Volume::GridSource</text>
</a>
</g>
</g>
<!-- Node2&#45;&gt;Node1 -->
<g id="edge1" class="edge">
<title>Node2&#45;&gt;Node1</title>
<path fill="none" stroke="midnightblue" d="M70.81,-55.32C70.81,-46.75 70.81,-36.7 70.81,-28.84"/>
<polygon fill="midnightblue" stroke="midnightblue" points="67.31,-55.44 70.81,-65.44 74.31,-55.44 67.31,-55.44"/>
</g>
<!-- Node3 -->
<g id="node3" class="node">
<title>Node3</title>
<g id="a_node3"><a xlink:href="class_ogre_1_1_volume_1_1_source.html" target="_top" xlink:title="Abstract class defining the density function.">
<polygon fill="none" stroke="black" points="13.61,-120.5 13.61,-138.5 128,-138.5 128,-120.5 13.61,-120.5"/>
<text text-anchor="middle" x="70.81" y="-126.5" font-family="Helvetica,sans-Serif" font-size="10.00">Ogre::Volume::Source</text>
</a>
</g>
</g>
<!-- Node3&#45;&gt;Node2 -->
<g id="edge2" class="edge">
<title>Node3&#45;&gt;Node2</title>
<path fill="none" stroke="midnightblue" d="M70.81,-110.17C70.81,-101.09 70.81,-90.59 70.81,-83.55"/>
<polygon fill="midnightblue" stroke="midnightblue" points="67.31,-110.22 70.81,-120.22 74.31,-110.22 67.31,-110.22"/>
</g>
</g>
</svg>
