<?xml version="1.0" encoding="UTF-8" standalone="no"?>
<!DOCTYPE svg PUBLIC "-//W3C//DTD SVG 1.1//EN"
 "http://www.w3.org/Graphics/SVG/1.1/DTD/svg11.dtd">
<!-- Generated by graphviz version 2.43.0 (0)
 -->
<!-- Title: Ogre::WorkQueue::ResponseHandler Pages: 1 -->
<svg width="354pt" height="296pt"
 viewBox="0.00 0.00 354.12 296.00" xmlns="http://www.w3.org/2000/svg" xmlns:xlink="http://www.w3.org/1999/xlink">
<g id="graph0" class="graph" transform="scale(1 1) rotate(0) translate(4 292)">
<title>Ogre::WorkQueue::ResponseHandler</title>
<!-- Node1 -->
<g id="node1" class="node">
<title>Node1</title>
<g id="a_node1"><a xlink:title="Interface definition for a handler of responses.">
<polygon fill="#bfbfbf" stroke="black" points="0,-124.5 0,-152.5 147.55,-152.5 147.55,-124.5 0,-124.5"/>
<text text-anchor="start" x="8" y="-140.5" font-family="Helvetica,sans-Serif" font-size="10.00">Ogre::WorkQueue::Response</text>
<text text-anchor="middle" x="73.78" y="-130.5" font-family="Helvetica,sans-Serif" font-size="10.00">Handler</text>
</a>
</g>
</g>
<!-- Node2 -->
<g id="node2" class="node">
<title>Node2</title>
<g id="a_node2"><a xlink:href="class_ogre_1_1_lod_work_queue_injector.html" target="_top" xlink:title="Injects the output of a request to the mesh in a thread safe way.">
<polygon fill="none" stroke="black" points="191.61,-269.5 191.61,-287.5 338.06,-287.5 338.06,-269.5 191.61,-269.5"/>
<text text-anchor="middle" x="264.83" y="-275.5" font-family="Helvetica,sans-Serif" font-size="10.00">Ogre::LodWorkQueueInjector</text>
</a>
</g>
</g>
<!-- Node1&#45;&gt;Node2 -->
<g id="edge1" class="edge">
<title>Node1&#45;&gt;Node2</title>
<path fill="none" stroke="midnightblue" d="M88.76,-161.49C107,-189.41 141.58,-235.82 183.55,-260.5 189.83,-264.19 196.8,-267.13 203.92,-269.46"/>
<polygon fill="midnightblue" stroke="midnightblue" points="91.54,-159.34 83.22,-152.79 85.64,-163.1 91.54,-159.34"/>
</g>
<!-- Node3 -->
<g id="node3" class="node">
<title>Node3</title>
<g id="a_node3"><a xlink:href="class_ogre_1_1_page.html" target="_top" xlink:title="Page class.">
<polygon fill="none" stroke="black" points="231.26,-232.5 231.26,-250.5 298.41,-250.5 298.41,-232.5 231.26,-232.5"/>
<text text-anchor="middle" x="264.83" y="-238.5" font-family="Helvetica,sans-Serif" font-size="10.00">Ogre::Page</text>
</a>
</g>
</g>
<!-- Node1&#45;&gt;Node3 -->
<g id="edge2" class="edge">
<title>Node1&#45;&gt;Node3</title>
<path fill="none" stroke="midnightblue" d="M95.76,-159.6C116.36,-179.1 149.55,-207.41 183.55,-223.5 198.4,-230.53 216.11,-234.87 231.11,-237.53"/>
<polygon fill="midnightblue" stroke="midnightblue" points="98.13,-157.03 88.5,-152.6 93.27,-162.07 98.13,-157.03"/>
</g>
<!-- Node4 -->
<g id="node4" class="node">
<title>Node4</title>
<g id="a_node4"><a xlink:href="class_ogre_1_1_resource_background_queue.html" target="_top" xlink:title="This class is used to perform Resource operations in a background thread.">
<polygon fill="none" stroke="black" points="194.86,-185.5 194.86,-213.5 334.81,-213.5 334.81,-185.5 194.86,-185.5"/>
<text text-anchor="start" x="202.86" y="-201.5" font-family="Helvetica,sans-Serif" font-size="10.00">Ogre::ResourceBackground</text>
<text text-anchor="middle" x="264.83" y="-191.5" font-family="Helvetica,sans-Serif" font-size="10.00">Queue</text>
</a>
</g>
</g>
<!-- Node1&#45;&gt;Node4 -->
<g id="edge3" class="edge">
<title>Node1&#45;&gt;Node4</title>
<path fill="none" stroke="midnightblue" d="M122.91,-155.98C141.75,-162.64 163.58,-170.16 183.55,-176.5 193.09,-179.53 203.31,-182.6 213.17,-185.46"/>
<polygon fill="midnightblue" stroke="midnightblue" points="123.96,-152.64 113.36,-152.58 121.61,-159.23 123.96,-152.64"/>
</g>
<!-- Node5 -->
<g id="node5" class="node">
<title>Node5</title>
<g id="a_node5"><a xlink:href="class_ogre_1_1_terrain.html" target="_top" xlink:title="The main containing class for a chunk of terrain.">
<polygon fill="none" stroke="black" points="227.66,-148.5 227.66,-166.5 302.01,-166.5 302.01,-148.5 227.66,-148.5"/>
<text text-anchor="middle" x="264.83" y="-154.5" font-family="Helvetica,sans-Serif" font-size="10.00">Ogre::Terrain</text>
</a>
</g>
</g>
<!-- Node1&#45;&gt;Node5 -->
<g id="edge4" class="edge">
<title>Node1&#45;&gt;Node5</title>
<path fill="none" stroke="midnightblue" d="M157.63,-146.83C182.1,-149.29 207.62,-151.85 227.51,-153.85"/>
<polygon fill="midnightblue" stroke="midnightblue" points="157.9,-143.34 147.6,-145.82 157.2,-150.3 157.9,-143.34"/>
</g>
<!-- Node6 -->
<g id="node6" class="node">
<title>Node6</title>
<g id="a_node6"><a xlink:href="class_ogre_1_1_terrain_group.html" target="_top" xlink:title="Helper class to assist you in managing multiple terrain instances that are connected to each other.">
<polygon fill="none" stroke="black" points="213.76,-111.5 213.76,-129.5 315.91,-129.5 315.91,-111.5 213.76,-111.5"/>
<text text-anchor="middle" x="264.83" y="-117.5" font-family="Helvetica,sans-Serif" font-size="10.00">Ogre::TerrainGroup</text>
</a>
</g>
</g>
<!-- Node1&#45;&gt;Node6 -->
<g id="edge5" class="edge">
<title>Node1&#45;&gt;Node6</title>
<path fill="none" stroke="midnightblue" d="M157.78,-130.6C176.8,-128.79 196.45,-126.92 213.59,-125.28"/>
<polygon fill="midnightblue" stroke="midnightblue" points="157.22,-127.13 147.6,-131.57 157.89,-134.1 157.22,-127.13"/>
</g>
<!-- Node7 -->
<g id="node7" class="node">
<title>Node7</title>
<g id="a_node7"><a xlink:href="class_ogre_1_1_terrain_lod_manager.html" target="_top" xlink:title="Terrain LOD data manager.">
<polygon fill="none" stroke="black" points="199.58,-74.5 199.58,-92.5 330.09,-92.5 330.09,-74.5 199.58,-74.5"/>
<text text-anchor="middle" x="264.83" y="-80.5" font-family="Helvetica,sans-Serif" font-size="10.00">Ogre::TerrainLodManager</text>
</a>
</g>
</g>
<!-- Node1&#45;&gt;Node7 -->
<g id="edge6" class="edge">
<title>Node1&#45;&gt;Node7</title>
<path fill="none" stroke="midnightblue" d="M124.01,-121.2C142.56,-114.94 163.92,-108.06 183.55,-102.5 196.09,-98.95 209.86,-95.52 222.4,-92.58"/>
<polygon fill="midnightblue" stroke="midnightblue" points="122.64,-117.96 114.3,-124.5 124.9,-124.59 122.64,-117.96"/>
</g>
<!-- Node8 -->
<g id="node8" class="node">
<title>Node8</title>
<g id="a_node8"><a xlink:href="class_ogre_1_1_terrain_paged_world_section.html" target="_top" xlink:title="A world section which includes paged terrain.">
<polygon fill="none" stroke="black" points="183.55,-37.5 183.55,-55.5 346.12,-55.5 346.12,-37.5 183.55,-37.5"/>
<text text-anchor="middle" x="264.83" y="-43.5" font-family="Helvetica,sans-Serif" font-size="10.00">Ogre::TerrainPagedWorldSection</text>
</a>
</g>
</g>
<!-- Node1&#45;&gt;Node8 -->
<g id="edge7" class="edge">
<title>Node1&#45;&gt;Node8</title>
<path fill="none" stroke="midnightblue" d="M99.82,-117.86C120.94,-101.43 152.59,-79.02 183.55,-65.5 192.87,-61.43 203.2,-58.16 213.25,-55.55"/>
<polygon fill="midnightblue" stroke="midnightblue" points="97.39,-115.32 91.72,-124.27 101.74,-120.8 97.39,-115.32"/>
</g>
<!-- Node9 -->
<g id="node9" class="node">
<title>Node9</title>
<g id="a_node9"><a xlink:href="class_ogre_1_1_volume_1_1_chunk_handler.html" target="_top" xlink:title="Handles the WorkQueue management of the chunks.">
<polygon fill="none" stroke="black" points="191.52,-0.5 191.52,-18.5 338.15,-18.5 338.15,-0.5 191.52,-0.5"/>
<text text-anchor="middle" x="264.83" y="-6.5" font-family="Helvetica,sans-Serif" font-size="10.00">Ogre::Volume::ChunkHandler</text>
</a>
</g>
</g>
<!-- Node1&#45;&gt;Node9 -->
<g id="edge8" class="edge">
<title>Node1&#45;&gt;Node9</title>
<path fill="none" stroke="midnightblue" d="M90.8,-115.95C109.96,-90.71 144.38,-50.5 183.55,-28.5 190.92,-24.36 199.16,-21.12 207.47,-18.59"/>
<polygon fill="midnightblue" stroke="midnightblue" points="87.83,-114.08 84.68,-124.19 93.45,-118.25 87.83,-114.08"/>
</g>
</g>
</svg>
