<?xml version="1.0" encoding="UTF-8" standalone="no"?>
<!DOCTYPE svg PUBLIC "-//W3C//DTD SVG 1.1//EN"
 "http://www.w3.org/Graphics/SVG/1.1/DTD/svg11.dtd">
<!-- Generated by graphviz version 2.43.0 (0)
 -->
<!-- Title: Ogre::ArchiveFactory Pages: 1 -->
<svg width="849pt" height="116pt"
 viewBox="0.00 0.00 848.89 116.00" xmlns="http://www.w3.org/2000/svg" xmlns:xlink="http://www.w3.org/1999/xlink">
<g id="graph0" class="graph" transform="scale(1 1) rotate(0) translate(4 112)">
<title>Ogre::ArchiveFactory</title>
<!-- Node1 -->
<g id="node1" class="node">
<title>Node1</title>
<g id="a_node1"><a xlink:title="Abstract factory class, archive codec plugins can register concrete subclasses of this.">
<polygon fill="#bfbfbf" stroke="black" points="178.72,-42.5 178.72,-60.5 289.2,-60.5 289.2,-42.5 178.72,-42.5"/>
<text text-anchor="middle" x="233.96" y="-48.5" font-family="Helvetica,sans-Serif" font-size="10.00">Ogre::ArchiveFactory</text>
</a>
</g>
</g>
<!-- Node4 -->
<g id="node4" class="node">
<title>Node4</title>
<g id="a_node4"><a xlink:href="class_ogre_1_1_a_p_k_file_system_archive_factory.html" target="_top" xlink:title=" ">
<polygon fill="none" stroke="black" points="331.86,-79.5 331.86,-107.5 478.46,-107.5 478.46,-79.5 331.86,-79.5"/>
<text text-anchor="start" x="339.86" y="-95.5" font-family="Helvetica,sans-Serif" font-size="10.00">Ogre::APKFileSystemArchive</text>
<text text-anchor="middle" x="405.16" y="-85.5" font-family="Helvetica,sans-Serif" font-size="10.00">Factory</text>
</a>
</g>
</g>
<!-- Node1&#45;&gt;Node4 -->
<g id="edge3" class="edge">
<title>Node1&#45;&gt;Node4</title>
<path fill="none" stroke="midnightblue" d="M281.01,-62.93C301.56,-68.03 325.97,-74.09 347.62,-79.46"/>
<polygon fill="midnightblue" stroke="midnightblue" points="281.81,-59.52 271.26,-60.51 280.12,-66.32 281.81,-59.52"/>
</g>
<!-- Node5 -->
<g id="node5" class="node">
<title>Node5</title>
<g id="a_node5"><a xlink:href="class_ogre_1_1_file_system_archive_factory.html" target="_top" xlink:title="Specialisation of ArchiveFactory for FileSystem files.">
<polygon fill="none" stroke="black" points="325.2,-42.5 325.2,-60.5 485.12,-60.5 485.12,-42.5 325.2,-42.5"/>
<text text-anchor="middle" x="405.16" y="-48.5" font-family="Helvetica,sans-Serif" font-size="10.00">Ogre::FileSystemArchiveFactory</text>
</a>
</g>
</g>
<!-- Node1&#45;&gt;Node5 -->
<g id="edge4" class="edge">
<title>Node1&#45;&gt;Node5</title>
<path fill="none" stroke="midnightblue" d="M299.5,-51.5C307.89,-51.5 316.56,-51.5 325.15,-51.5"/>
<polygon fill="midnightblue" stroke="midnightblue" points="299.43,-48 289.43,-51.5 299.43,-55 299.43,-48"/>
</g>
<!-- Node6 -->
<g id="node6" class="node">
<title>Node6</title>
<g id="a_node6"><a xlink:href="class_ogre_1_1_zip_archive_factory.html" target="_top" xlink:title="Specialisation of ArchiveFactory for Zip files.">
<polygon fill="none" stroke="black" points="342.98,-5.5 342.98,-23.5 467.34,-23.5 467.34,-5.5 342.98,-5.5"/>
<text text-anchor="middle" x="405.16" y="-11.5" font-family="Helvetica,sans-Serif" font-size="10.00">Ogre::ZipArchiveFactory</text>
</a>
</g>
</g>
<!-- Node1&#45;&gt;Node6 -->
<g id="edge5" class="edge">
<title>Node1&#45;&gt;Node6</title>
<path fill="none" stroke="midnightblue" d="M286.22,-40.29C310.78,-34.92 339.8,-28.57 362.9,-23.52"/>
<polygon fill="midnightblue" stroke="midnightblue" points="285.37,-36.89 276.35,-42.45 286.87,-43.73 285.37,-36.89"/>
</g>
<!-- Node2 -->
<g id="node2" class="node">
<title>Node2</title>
<g id="a_node2"><a xlink:href="class_ogre_1_1_factory_obj.html" target="_top" xlink:title=" ">
<polygon fill="none" stroke="black" points="0,-61.5 0,-79.5 142.72,-79.5 142.72,-61.5 0,-61.5"/>
<text text-anchor="middle" x="71.36" y="-67.5" font-family="Helvetica,sans-Serif" font-size="10.00">Ogre::FactoryObj&lt; Archive &gt;</text>
</a>
</g>
</g>
<!-- Node2&#45;&gt;Node1 -->
<g id="edge1" class="edge">
<title>Node2&#45;&gt;Node1</title>
<path fill="none" stroke="midnightblue" d="M152.95,-60.97C161.61,-59.94 170.26,-58.92 178.51,-57.94"/>
<polygon fill="midnightblue" stroke="midnightblue" points="152.32,-57.52 142.8,-62.17 153.14,-64.47 152.32,-57.52"/>
</g>
<!-- Node3 -->
<g id="node3" class="node">
<title>Node3</title>
<g id="a_node3"><a xlink:href="class_ogre_1_1_allocated_object.html" target="_top" xlink:title="Superclass for all objects that wish to use custom memory allocators when their new / delete operator...">
<polygon fill="none" stroke="black" points="35.85,-24.5 35.85,-42.5 106.87,-42.5 106.87,-24.5 35.85,-24.5"/>
<text text-anchor="middle" x="71.36" y="-30.5" font-family="Helvetica,sans-Serif" font-size="10.00">ArchiveAlloc</text>
</a>
</g>
</g>
<!-- Node3&#45;&gt;Node1 -->
<g id="edge2" class="edge">
<title>Node3&#45;&gt;Node1</title>
<path fill="none" stroke="midnightblue" d="M117.39,-38.55C136.4,-40.68 158.69,-43.18 178.6,-45.41"/>
<polygon fill="midnightblue" stroke="midnightblue" points="117.54,-35.04 107.21,-37.41 116.76,-42 117.54,-35.04"/>
</g>
<!-- Node7 -->
<g id="node7" class="node">
<title>Node7</title>
<g id="a_node7"><a xlink:href="class_ogre_1_1_embedded_zip_archive_factory.html" target="_top" xlink:title="Specialisation of ZipArchiveFactory for embedded Zip files.">
<polygon fill="none" stroke="black" points="521.12,-0.5 521.12,-28.5 660.52,-28.5 660.52,-0.5 521.12,-0.5"/>
<text text-anchor="start" x="529.12" y="-16.5" font-family="Helvetica,sans-Serif" font-size="10.00">Ogre::EmbeddedZipArchive</text>
<text text-anchor="middle" x="590.82" y="-6.5" font-family="Helvetica,sans-Serif" font-size="10.00">Factory</text>
</a>
</g>
</g>
<!-- Node6&#45;&gt;Node7 -->
<g id="edge6" class="edge">
<title>Node6&#45;&gt;Node7</title>
<path fill="none" stroke="midnightblue" d="M477.75,-14.5C491.93,-14.5 506.78,-14.5 520.87,-14.5"/>
<polygon fill="midnightblue" stroke="midnightblue" points="477.57,-11 467.57,-14.5 477.57,-18 477.57,-11"/>
</g>
<!-- Node8 -->
<g id="node8" class="node">
<title>Node8</title>
<g id="a_node8"><a xlink:href="class_ogre_1_1_a_p_k_zip_archive_factory.html" target="_top" xlink:title=" ">
<polygon fill="none" stroke="black" points="696.52,-5.5 696.52,-23.5 840.89,-23.5 840.89,-5.5 696.52,-5.5"/>
<text text-anchor="middle" x="768.7" y="-11.5" font-family="Helvetica,sans-Serif" font-size="10.00">Ogre::APKZipArchiveFactory</text>
</a>
</g>
</g>
<!-- Node7&#45;&gt;Node8 -->
<g id="edge7" class="edge">
<title>Node7&#45;&gt;Node8</title>
<path fill="none" stroke="midnightblue" d="M670.59,-14.5C679.18,-14.5 687.89,-14.5 696.38,-14.5"/>
<polygon fill="midnightblue" stroke="midnightblue" points="670.58,-11 660.58,-14.5 670.58,-18 670.58,-11"/>
</g>
</g>
</svg>
