<?xml version="1.0" encoding="UTF-8" standalone="no"?>
<!DOCTYPE svg PUBLIC "-//W3C//DTD SVG 1.1//EN"
 "http://www.w3.org/Graphics/SVG/1.1/DTD/svg11.dtd">
<!-- Generated by graphviz version 2.43.0 (0)
 -->
<!-- Title: Ogre::v1::GLES2DefaultHardwareBufferManagerBase Pages: 1 -->
<svg width="175pt" height="157pt"
 viewBox="0.00 0.00 175.18 157.00" xmlns="http://www.w3.org/2000/svg" xmlns:xlink="http://www.w3.org/1999/xlink">
<g id="graph0" class="graph" transform="scale(1 1) rotate(0) translate(4 153)">
<title>Ogre::v1::GLES2DefaultHardwareBufferManagerBase</title>
<!-- Node1 -->
<g id="node1" class="node">
<title>Node1</title>
<g id="a_node1"><a xlink:title="Specialisation of HardwareBufferManager to emulate hardware buffers.">
<polygon fill="#bfbfbf" stroke="black" points="0,-0.5 0,-28.5 167.18,-28.5 167.18,-0.5 0,-0.5"/>
<text text-anchor="start" x="8" y="-16.5" font-family="Helvetica,sans-Serif" font-size="10.00">Ogre::v1::GLES2DefaultHardware</text>
<text text-anchor="middle" x="83.59" y="-6.5" font-family="Helvetica,sans-Serif" font-size="10.00">BufferManagerBase</text>
</a>
</g>
</g>
<!-- Node2 -->
<g id="node2" class="node">
<title>Node2</title>
<g id="a_node2"><a xlink:href="class_ogre_1_1v1_1_1_hardware_buffer_manager_base.html" target="_top" xlink:title="Base definition of a hardware buffer manager.">
<polygon fill="none" stroke="black" points="18.71,-65.5 18.71,-93.5 148.47,-93.5 148.47,-65.5 18.71,-65.5"/>
<text text-anchor="start" x="26.71" y="-81.5" font-family="Helvetica,sans-Serif" font-size="10.00">Ogre::v1::HardwareBuffer</text>
<text text-anchor="middle" x="83.59" y="-71.5" font-family="Helvetica,sans-Serif" font-size="10.00">ManagerBase</text>
</a>
</g>
</g>
<!-- Node2&#45;&gt;Node1 -->
<g id="edge1" class="edge">
<title>Node2&#45;&gt;Node1</title>
<path fill="none" stroke="midnightblue" d="M83.59,-55.16C83.59,-46.17 83.59,-36.22 83.59,-28.54"/>
<polygon fill="midnightblue" stroke="midnightblue" points="80.09,-55.45 83.59,-65.45 87.09,-55.45 80.09,-55.45"/>
</g>
<!-- Node3 -->
<g id="node3" class="node">
<title>Node3</title>
<g id="a_node3"><a xlink:href="class_ogre_1_1_allocated_object.html" target="_top" xlink:title="Superclass for all objects that wish to use custom memory allocators when their new / delete operator...">
<polygon fill="none" stroke="black" points="51.5,-130.5 51.5,-148.5 115.68,-148.5 115.68,-130.5 51.5,-130.5"/>
<text text-anchor="middle" x="83.59" y="-136.5" font-family="Helvetica,sans-Serif" font-size="10.00">BufferAlloc</text>
</a>
</g>
</g>
<!-- Node3&#45;&gt;Node2 -->
<g id="edge2" class="edge">
<title>Node3&#45;&gt;Node2</title>
<path fill="none" stroke="midnightblue" d="M83.59,-120.32C83.59,-111.75 83.59,-101.7 83.59,-93.84"/>
<polygon fill="midnightblue" stroke="midnightblue" points="80.09,-120.44 83.59,-130.44 87.09,-120.44 80.09,-120.44"/>
</g>
</g>
</svg>
