<?xml version="1.0" encoding="UTF-8" standalone="no"?>
<!DOCTYPE svg PUBLIC "-//W3C//DTD SVG 1.1//EN"
 "http://www.w3.org/Graphics/SVG/1.1/DTD/svg11.dtd">
<!-- Generated by graphviz version 2.43.0 (0)
 -->
<!-- Title: Ogre::CompositorPassClear Pages: 1 -->
<svg width="149pt" height="137pt"
 viewBox="0.00 0.00 149.04 137.00" xmlns="http://www.w3.org/2000/svg" xmlns:xlink="http://www.w3.org/1999/xlink">
<g id="graph0" class="graph" transform="scale(1 1) rotate(0) translate(4 133)">
<title>Ogre::CompositorPassClear</title>
<!-- Node1 -->
<g id="node1" class="node">
<title>Node1</title>
<g id="a_node1"><a xlink:title="Implementation of CompositorPass This implementation will clear the RenderTarget using the parameters...">
<polygon fill="#bfbfbf" stroke="black" points="0,-0.5 0,-18.5 141.04,-18.5 141.04,-0.5 0,-0.5"/>
<text text-anchor="middle" x="70.52" y="-6.5" font-family="Helvetica,sans-Serif" font-size="10.00">Ogre::CompositorPassClear</text>
</a>
</g>
</g>
<!-- Node2 -->
<g id="node2" class="node">
<title>Node2</title>
<g id="a_node2"><a xlink:href="class_ogre_1_1_compositor_pass.html" target="_top" xlink:title="Abstract class for compositor passes.">
<polygon fill="none" stroke="black" points="11.95,-55.5 11.95,-73.5 129.1,-73.5 129.1,-55.5 11.95,-55.5"/>
<text text-anchor="middle" x="70.52" y="-61.5" font-family="Helvetica,sans-Serif" font-size="10.00">Ogre::CompositorPass</text>
</a>
</g>
</g>
<!-- Node2&#45;&gt;Node1 -->
<g id="edge1" class="edge">
<title>Node2&#45;&gt;Node1</title>
<path fill="none" stroke="midnightblue" d="M70.52,-45.17C70.52,-36.09 70.52,-25.59 70.52,-18.55"/>
<polygon fill="midnightblue" stroke="midnightblue" points="67.02,-45.22 70.52,-55.22 74.02,-45.22 67.02,-45.22"/>
</g>
<!-- Node3 -->
<g id="node3" class="node">
<title>Node3</title>
<g id="a_node3"><a xlink:href="class_ogre_1_1_allocated_object.html" target="_top" xlink:title="Superclass for all objects that wish to use custom memory allocators when their new / delete operator...">
<polygon fill="none" stroke="black" points="18.06,-110.5 18.06,-128.5 122.98,-128.5 122.98,-110.5 18.06,-110.5"/>
<text text-anchor="middle" x="70.52" y="-116.5" font-family="Helvetica,sans-Serif" font-size="10.00">CompositorInstAlloc</text>
</a>
</g>
</g>
<!-- Node3&#45;&gt;Node2 -->
<g id="edge2" class="edge">
<title>Node3&#45;&gt;Node2</title>
<path fill="none" stroke="midnightblue" d="M70.52,-100.17C70.52,-91.09 70.52,-80.59 70.52,-73.55"/>
<polygon fill="midnightblue" stroke="midnightblue" points="67.02,-100.22 70.52,-110.22 74.02,-100.22 67.02,-100.22"/>
</g>
</g>
</svg>
