<?xml version="1.0" encoding="UTF-8" standalone="no"?>
<!DOCTYPE svg PUBLIC "-//W3C//DTD SVG 1.1//EN"
 "http://www.w3.org/Graphics/SVG/1.1/DTD/svg11.dtd">
<!-- Generated by graphviz version 2.43.0 (0)
 -->
<!-- Title: Ogre::IntersectionSceneQueryListener Pages: 1 -->
<svg width="689pt" height="131pt"
 viewBox="0.00 0.00 689.14 131.00" xmlns="http://www.w3.org/2000/svg" xmlns:xlink="http://www.w3.org/1999/xlink">
<g id="graph0" class="graph" transform="scale(1 1) rotate(0) translate(4 127)">
<title>Ogre::IntersectionSceneQueryListener</title>
<!-- Node1 -->
<g id="node1" class="node">
<title>Node1</title>
<g id="a_node1"><a xlink:title="Alternative listener class for dealing with IntersectionSceneQuery.">
<polygon fill="#bfbfbf" stroke="black" points="0,-47.5 0,-75.5 151.07,-75.5 151.07,-47.5 0,-47.5"/>
<text text-anchor="start" x="8" y="-63.5" font-family="Helvetica,sans-Serif" font-size="10.00">Ogre::IntersectionSceneQuery</text>
<text text-anchor="middle" x="75.53" y="-53.5" font-family="Helvetica,sans-Serif" font-size="10.00">Listener</text>
</a>
</g>
</g>
<!-- Node2 -->
<g id="node2" class="node">
<title>Node2</title>
<g id="a_node2"><a xlink:href="class_ogre_1_1_intersection_scene_query.html" target="_top" xlink:title="Separate SceneQuery class to query for pairs of objects which are possibly intersecting one another.">
<polygon fill="none" stroke="black" points="187.07,-52.5 187.07,-70.5 338.14,-70.5 338.14,-52.5 187.07,-52.5"/>
<text text-anchor="middle" x="262.6" y="-58.5" font-family="Helvetica,sans-Serif" font-size="10.00">Ogre::IntersectionSceneQuery</text>
</a>
</g>
</g>
<!-- Node1&#45;&gt;Node2 -->
<g id="edge1" class="edge">
<title>Node1&#45;&gt;Node2</title>
<path fill="none" stroke="midnightblue" d="M161.53,-61.5C169.99,-61.5 178.54,-61.5 186.88,-61.5"/>
<polygon fill="midnightblue" stroke="midnightblue" points="161.28,-58 151.28,-61.5 161.28,-65 161.28,-58"/>
</g>
<!-- Node3 -->
<g id="node3" class="node">
<title>Node3</title>
<g id="a_node3"><a xlink:href="class_ogre_1_1_default_intersection_scene_query.html" target="_top" xlink:title="Default implementation of IntersectionSceneQuery.">
<polygon fill="none" stroke="black" points="374.14,-47.5 374.14,-75.5 501.3,-75.5 501.3,-47.5 374.14,-47.5"/>
<text text-anchor="start" x="382.14" y="-63.5" font-family="Helvetica,sans-Serif" font-size="10.00">Ogre::DefaultIntersection</text>
<text text-anchor="middle" x="437.72" y="-53.5" font-family="Helvetica,sans-Serif" font-size="10.00">SceneQuery</text>
</a>
</g>
</g>
<!-- Node2&#45;&gt;Node3 -->
<g id="edge2" class="edge">
<title>Node2&#45;&gt;Node3</title>
<path fill="none" stroke="midnightblue" d="M348.37,-61.5C356.99,-61.5 365.63,-61.5 373.96,-61.5"/>
<polygon fill="midnightblue" stroke="midnightblue" points="348.28,-58 338.28,-61.5 348.28,-65 348.28,-58"/>
</g>
<!-- Node4 -->
<g id="node4" class="node">
<title>Node4</title>
<g id="a_node4"><a xlink:href="class_ogre_1_1_bsp_intersection_scene_query.html" target="_top" xlink:title="BSP specialisation of IntersectionSceneQuery.">
<polygon fill="none" stroke="black" points="538.69,-94.5 538.69,-122.5 679.76,-122.5 679.76,-94.5 538.69,-94.5"/>
<text text-anchor="start" x="546.69" y="-110.5" font-family="Helvetica,sans-Serif" font-size="10.00">Ogre::BspIntersectionScene</text>
<text text-anchor="middle" x="609.22" y="-100.5" font-family="Helvetica,sans-Serif" font-size="10.00">Query</text>
</a>
</g>
</g>
<!-- Node3&#45;&gt;Node4 -->
<g id="edge3" class="edge">
<title>Node3&#45;&gt;Node4</title>
<path fill="none" stroke="midnightblue" d="M499.38,-78.32C518.49,-83.62 539.37,-89.41 557.69,-94.49"/>
<polygon fill="midnightblue" stroke="midnightblue" points="500.15,-74.9 489.58,-75.6 498.28,-81.65 500.15,-74.9"/>
</g>
<!-- Node5 -->
<g id="node5" class="node">
<title>Node5</title>
<g id="a_node5"><a xlink:href="class_ogre_1_1_octree_intersection_scene_query.html" target="_top" xlink:title="Octree implementation of IntersectionSceneQuery.">
<polygon fill="none" stroke="black" points="546.48,-47.5 546.48,-75.5 671.97,-75.5 671.97,-47.5 546.48,-47.5"/>
<text text-anchor="start" x="554.48" y="-63.5" font-family="Helvetica,sans-Serif" font-size="10.00">Ogre::OctreeIntersection</text>
<text text-anchor="middle" x="609.22" y="-53.5" font-family="Helvetica,sans-Serif" font-size="10.00">SceneQuery</text>
</a>
</g>
</g>
<!-- Node3&#45;&gt;Node5 -->
<g id="edge4" class="edge">
<title>Node3&#45;&gt;Node5</title>
<path fill="none" stroke="midnightblue" d="M511.48,-61.5C523.12,-61.5 535.06,-61.5 546.41,-61.5"/>
<polygon fill="midnightblue" stroke="midnightblue" points="511.35,-58 501.35,-61.5 511.35,-65 511.35,-58"/>
</g>
<!-- Node6 -->
<g id="node6" class="node">
<title>Node6</title>
<g id="a_node6"><a xlink:href="class_ogre_1_1_p_c_z_intersection_scene_query.html" target="_top" xlink:title="PCZ implementation of IntersectionSceneQuery.">
<polygon fill="none" stroke="black" points="537.3,-0.5 537.3,-28.5 681.14,-28.5 681.14,-0.5 537.3,-0.5"/>
<text text-anchor="start" x="545.3" y="-16.5" font-family="Helvetica,sans-Serif" font-size="10.00">Ogre::PCZIntersectionScene</text>
<text text-anchor="middle" x="609.22" y="-6.5" font-family="Helvetica,sans-Serif" font-size="10.00">Query</text>
</a>
</g>
</g>
<!-- Node3&#45;&gt;Node6 -->
<g id="edge5" class="edge">
<title>Node3&#45;&gt;Node6</title>
<path fill="none" stroke="midnightblue" d="M499.38,-44.68C518.49,-39.38 539.37,-33.59 557.69,-28.51"/>
<polygon fill="midnightblue" stroke="midnightblue" points="498.28,-41.35 489.58,-47.4 500.15,-48.1 498.28,-41.35"/>
</g>
</g>
</svg>
