<?xml version="1.0" encoding="UTF-8" standalone="no"?>
<!DOCTYPE svg PUBLIC "-//W3C//DTD SVG 1.1//EN"
 "http://www.w3.org/Graphics/SVG/1.1/DTD/svg11.dtd">
<!-- Generated by graphviz version 2.43.0 (0)
 -->
<!-- Title: Ogre::NaClGLContext Pages: 1 -->
<svg width="248pt" height="82pt"
 viewBox="0.00 0.00 247.77 82.00" xmlns="http://www.w3.org/2000/svg" xmlns:xlink="http://www.w3.org/1999/xlink">
<g id="graph0" class="graph" transform="scale(1 1) rotate(0) translate(4 78)">
<title>Ogre::NaClGLContext</title>
<!-- Node1 -->
<g id="node1" class="node">
<title>Node1</title>
<g id="a_node1"><a xlink:title=" ">
<polygon fill="#bfbfbf" stroke="black" points="62.34,-0.5 62.34,-18.5 176.15,-18.5 176.15,-0.5 62.34,-0.5"/>
<text text-anchor="middle" x="119.25" y="-6.5" font-family="Helvetica,sans-Serif" font-size="10.00">Ogre::NaClGLContext</text>
</a>
</g>
</g>
<!-- Node2 -->
<g id="node2" class="node">
<title>Node2</title>
<g id="a_node2"><a xlink:href="class_ogre_1_1_g_l_e_s2_context.html" target="_top" xlink:title="Class that encapsulates an GL context.">
<polygon fill="none" stroke="black" points="0,-55.5 0,-73.5 110.49,-73.5 110.49,-55.5 0,-55.5"/>
<text text-anchor="middle" x="55.25" y="-61.5" font-family="Helvetica,sans-Serif" font-size="10.00">Ogre::GLES2Context</text>
</a>
</g>
</g>
<!-- Node2&#45;&gt;Node1 -->
<g id="edge1" class="edge">
<title>Node2&#45;&gt;Node1</title>
<path fill="none" stroke="midnightblue" d="M72.84,-48.93C84.64,-39.16 99.72,-26.67 109.43,-18.63"/>
<polygon fill="midnightblue" stroke="midnightblue" points="70.44,-46.38 64.97,-55.45 74.9,-51.77 70.44,-46.38"/>
</g>
<!-- Node3 -->
<g id="node3" class="node">
<title>Node3</title>
<g id="a_node3"><a xlink:title=" ">
<polygon fill="none" stroke="#bfbfbf" points="128.72,-55.5 128.72,-73.5 239.77,-73.5 239.77,-55.5 128.72,-55.5"/>
<text text-anchor="middle" x="184.25" y="-61.5" font-family="Helvetica,sans-Serif" font-size="10.00">pp::Graphics3DClient</text>
</a>
</g>
</g>
<!-- Node3&#45;&gt;Node1 -->
<g id="edge2" class="edge">
<title>Node3&#45;&gt;Node1</title>
<path fill="none" stroke="midnightblue" d="M166.37,-48.93C154.4,-39.16 139.08,-26.67 129.21,-18.63"/>
<polygon fill="midnightblue" stroke="midnightblue" points="164.41,-51.84 174.37,-55.45 168.84,-46.42 164.41,-51.84"/>
</g>
</g>
</svg>
