<?xml version="1.0" encoding="UTF-8" standalone="no"?>
<!DOCTYPE svg PUBLIC "-//W3C//DTD SVG 1.1//EN"
 "http://www.w3.org/Graphics/SVG/1.1/DTD/svg11.dtd">
<!-- Generated by graphviz version 2.43.0 (0)
 -->
<!-- Title: Ogre::CocoaContext Pages: 1 -->
<svg width="264pt" height="82pt"
 viewBox="0.00 0.00 264.11 82.00" xmlns="http://www.w3.org/2000/svg" xmlns:xlink="http://www.w3.org/1999/xlink">
<g id="graph0" class="graph" transform="scale(1 1) rotate(0) translate(4 78)">
<title>Ogre::CocoaContext</title>
<!-- Node1 -->
<g id="node1" class="node">
<title>Node1</title>
<g id="a_node1"><a xlink:title=" ">
<polygon fill="#bfbfbf" stroke="black" points="72.72,-0.5 72.72,-18.5 179.88,-18.5 179.88,-0.5 72.72,-0.5"/>
<text text-anchor="middle" x="126.3" y="-6.5" font-family="Helvetica,sans-Serif" font-size="10.00">Ogre::CocoaContext</text>
</a>
</g>
</g>
<!-- Node2 -->
<g id="node2" class="node">
<title>Node2</title>
<g id="a_node2"><a xlink:href="class_ogre_1_1_g_l3_plus_context.html" target="_top" xlink:title="Class that encapsulates an GL context.">
<polygon fill="none" stroke="black" points="0,-55.5 0,-73.5 116.61,-73.5 116.61,-55.5 0,-55.5"/>
<text text-anchor="middle" x="58.3" y="-61.5" font-family="Helvetica,sans-Serif" font-size="10.00">Ogre::GL3PlusContext</text>
</a>
</g>
</g>
<!-- Node2&#45;&gt;Node1 -->
<g id="edge1" class="edge">
<title>Node2&#45;&gt;Node1</title>
<path fill="none" stroke="midnightblue" d="M76.64,-49.21C89.22,-39.41 105.46,-26.75 115.88,-18.63"/>
<polygon fill="midnightblue" stroke="midnightblue" points="74.37,-46.54 68.63,-55.45 78.67,-52.06 74.37,-46.54"/>
</g>
<!-- Node3 -->
<g id="node3" class="node">
<title>Node3</title>
<g id="a_node3"><a xlink:href="class_ogre_1_1_allocated_object.html" target="_top" xlink:title="Superclass for all objects that wish to use custom memory allocators when their new / delete operator...">
<polygon fill="none" stroke="black" points="134.5,-55.5 134.5,-73.5 256.11,-73.5 256.11,-55.5 134.5,-55.5"/>
<text text-anchor="middle" x="195.3" y="-61.5" font-family="Helvetica,sans-Serif" font-size="10.00">GeneralAllocatedObject</text>
</a>
</g>
</g>
<!-- Node3&#45;&gt;Node1 -->
<g id="edge2" class="edge">
<title>Node3&#45;&gt;Node1</title>
<path fill="none" stroke="midnightblue" d="M176.7,-49.21C163.93,-39.41 147.46,-26.75 136.88,-18.63"/>
<polygon fill="midnightblue" stroke="midnightblue" points="174.76,-52.13 184.82,-55.45 179.02,-46.58 174.76,-52.13"/>
</g>
</g>
</svg>
