<?xml version="1.0" encoding="UTF-8" standalone="no"?>
<!DOCTYPE svg PUBLIC "-//W3C//DTD SVG 1.1//EN"
 "http://www.w3.org/Graphics/SVG/1.1/DTD/svg11.dtd">
<!-- Generated by graphviz version 2.43.0 (0)
 -->
<!-- Title: Ogre::D3D9Texture Pages: 1 -->
<svg width="286pt" height="192pt"
 viewBox="0.00 0.00 286.49 192.00" xmlns="http://www.w3.org/2000/svg" xmlns:xlink="http://www.w3.org/1999/xlink">
<g id="graph0" class="graph" transform="scale(1 1) rotate(0) translate(4 188)">
<title>Ogre::D3D9Texture</title>
<!-- Node1 -->
<g id="node1" class="node">
<title>Node1</title>
<g id="a_node1"><a xlink:title=" ">
<polygon fill="#bfbfbf" stroke="black" points="115.34,-0.5 115.34,-18.5 217.48,-18.5 217.48,-0.5 115.34,-0.5"/>
<text text-anchor="middle" x="166.41" y="-6.5" font-family="Helvetica,sans-Serif" font-size="10.00">Ogre::D3D9Texture</text>
</a>
</g>
</g>
<!-- Node2 -->
<g id="node2" class="node">
<title>Node2</title>
<g id="a_node2"><a xlink:href="class_ogre_1_1_texture.html" target="_top" xlink:title="Abstract class representing a Texture resource.">
<polygon fill="none" stroke="black" points="72.12,-55.5 72.12,-73.5 148.7,-73.5 148.7,-55.5 72.12,-55.5"/>
<text text-anchor="middle" x="110.41" y="-61.5" font-family="Helvetica,sans-Serif" font-size="10.00">Ogre::Texture</text>
</a>
</g>
</g>
<!-- Node2&#45;&gt;Node1 -->
<g id="edge1" class="edge">
<title>Node2&#45;&gt;Node1</title>
<path fill="none" stroke="midnightblue" d="M126.67,-48.11C136.89,-38.44 149.64,-26.37 157.91,-18.55"/>
<polygon fill="midnightblue" stroke="midnightblue" points="124.02,-45.8 119.16,-55.22 128.83,-50.89 124.02,-45.8"/>
</g>
<!-- Node3 -->
<g id="node3" class="node">
<title>Node3</title>
<g id="a_node3"><a xlink:href="class_ogre_1_1_resource.html" target="_top" xlink:title="Abstract class representing a loadable resource (e.g.">
<polygon fill="none" stroke="black" points="67.12,-110.5 67.12,-128.5 153.7,-128.5 153.7,-110.5 67.12,-110.5"/>
<text text-anchor="middle" x="110.41" y="-116.5" font-family="Helvetica,sans-Serif" font-size="10.00">Ogre::Resource</text>
</a>
</g>
</g>
<!-- Node3&#45;&gt;Node2 -->
<g id="edge2" class="edge">
<title>Node3&#45;&gt;Node2</title>
<path fill="none" stroke="midnightblue" d="M110.41,-100.17C110.41,-91.09 110.41,-80.59 110.41,-73.55"/>
<polygon fill="midnightblue" stroke="midnightblue" points="106.91,-100.22 110.41,-110.22 113.91,-100.22 106.91,-100.22"/>
</g>
<!-- Node4 -->
<g id="node4" class="node">
<title>Node4</title>
<g id="a_node4"><a xlink:href="class_ogre_1_1_string_interface.html" target="_top" xlink:title="Class defining the common interface which classes can use to present a reflection&#45;style,...">
<polygon fill="none" stroke="black" points="0,-165.5 0,-183.5 108.82,-183.5 108.82,-165.5 0,-165.5"/>
<text text-anchor="middle" x="54.41" y="-171.5" font-family="Helvetica,sans-Serif" font-size="10.00">Ogre::StringInterface</text>
</a>
</g>
</g>
<!-- Node4&#45;&gt;Node3 -->
<g id="edge3" class="edge">
<title>Node4&#45;&gt;Node3</title>
<path fill="none" stroke="midnightblue" d="M70.67,-158.11C80.89,-148.44 93.64,-136.37 101.91,-128.55"/>
<polygon fill="midnightblue" stroke="midnightblue" points="68.02,-155.8 63.16,-165.22 72.83,-160.89 68.02,-155.8"/>
</g>
<!-- Node5 -->
<g id="node5" class="node">
<title>Node5</title>
<g id="a_node5"><a xlink:href="class_ogre_1_1_allocated_object.html" target="_top" xlink:title="Superclass for all objects that wish to use custom memory allocators when their new / delete operator...">
<polygon fill="none" stroke="black" points="127.17,-165.5 127.17,-183.5 207.65,-183.5 207.65,-165.5 127.17,-165.5"/>
<text text-anchor="middle" x="167.41" y="-171.5" font-family="Helvetica,sans-Serif" font-size="10.00">ResourceAlloc</text>
</a>
</g>
</g>
<!-- Node5&#45;&gt;Node3 -->
<g id="edge4" class="edge">
<title>Node5&#45;&gt;Node3</title>
<path fill="none" stroke="midnightblue" d="M151.17,-158.4C140.72,-148.68 127.56,-136.45 119.07,-128.55"/>
<polygon fill="midnightblue" stroke="midnightblue" points="148.8,-160.97 158.5,-165.22 153.56,-155.85 148.8,-160.97"/>
</g>
<!-- Node6 -->
<g id="node6" class="node">
<title>Node6</title>
<g id="a_node6"><a xlink:href="class_ogre_1_1_d3_d9_resource.html" target="_top" xlink:title="Represents a Direct3D rendering resource.">
<polygon fill="none" stroke="black" points="166.33,-55.5 166.33,-73.5 278.49,-73.5 278.49,-55.5 166.33,-55.5"/>
<text text-anchor="middle" x="222.41" y="-61.5" font-family="Helvetica,sans-Serif" font-size="10.00">Ogre::D3D9Resource</text>
</a>
</g>
</g>
<!-- Node6&#45;&gt;Node1 -->
<g id="edge5" class="edge">
<title>Node6&#45;&gt;Node1</title>
<path fill="none" stroke="midnightblue" d="M206.15,-48.11C195.94,-38.44 183.18,-26.37 174.92,-18.55"/>
<polygon fill="midnightblue" stroke="midnightblue" points="203.99,-50.89 213.66,-55.22 208.8,-45.8 203.99,-50.89"/>
</g>
</g>
</svg>
