<?xml version="1.0" encoding="UTF-8" standalone="no"?>
<!DOCTYPE svg PUBLIC "-//W3C//DTD SVG 1.1//EN"
 "http://www.w3.org/Graphics/SVG/1.1/DTD/svg11.dtd">
<!-- Generated by graphviz version 2.43.0 (0)
 -->
<!-- Title: Ogre::ObjectAbstractNode Pages: 1 -->
<svg width="141pt" height="137pt"
 viewBox="0.00 0.00 141.28 137.00" xmlns="http://www.w3.org/2000/svg" xmlns:xlink="http://www.w3.org/1999/xlink">
<g id="graph0" class="graph" transform="scale(1 1) rotate(0) translate(4 133)">
<title>Ogre::ObjectAbstractNode</title>
<!-- Node1 -->
<g id="node1" class="node">
<title>Node1</title>
<g id="a_node1"><a xlink:title="This specific abstract node represents a script object.">
<polygon fill="#bfbfbf" stroke="black" points="0,-0.5 0,-18.5 133.28,-18.5 133.28,-0.5 0,-0.5"/>
<text text-anchor="middle" x="66.64" y="-6.5" font-family="Helvetica,sans-Serif" font-size="10.00">Ogre::ObjectAbstractNode</text>
</a>
</g>
</g>
<!-- Node2 -->
<g id="node2" class="node">
<title>Node2</title>
<g id="a_node2"><a xlink:href="class_ogre_1_1_abstract_node.html" target="_top" xlink:title=" ">
<polygon fill="none" stroke="black" points="14.45,-55.5 14.45,-73.5 118.82,-73.5 118.82,-55.5 14.45,-55.5"/>
<text text-anchor="middle" x="66.64" y="-61.5" font-family="Helvetica,sans-Serif" font-size="10.00">Ogre::AbstractNode</text>
</a>
</g>
</g>
<!-- Node2&#45;&gt;Node1 -->
<g id="edge1" class="edge">
<title>Node2&#45;&gt;Node1</title>
<path fill="none" stroke="midnightblue" d="M66.64,-45.17C66.64,-36.09 66.64,-25.59 66.64,-18.55"/>
<polygon fill="midnightblue" stroke="midnightblue" points="63.14,-45.22 66.64,-55.22 70.14,-45.22 63.14,-45.22"/>
</g>
<!-- Node3 -->
<g id="node3" class="node">
<title>Node3</title>
<g id="a_node3"><a xlink:href="class_ogre_1_1_allocated_object.html" target="_top" xlink:title="Superclass for all objects that wish to use custom memory allocators when their new / delete operator...">
<polygon fill="none" stroke="black" points="17.51,-110.5 17.51,-128.5 115.77,-128.5 115.77,-110.5 17.51,-110.5"/>
<text text-anchor="middle" x="66.64" y="-116.5" font-family="Helvetica,sans-Serif" font-size="10.00">AbstractNodeAlloc</text>
</a>
</g>
</g>
<!-- Node3&#45;&gt;Node2 -->
<g id="edge2" class="edge">
<title>Node3&#45;&gt;Node2</title>
<path fill="none" stroke="midnightblue" d="M66.64,-100.17C66.64,-91.09 66.64,-80.59 66.64,-73.55"/>
<polygon fill="midnightblue" stroke="midnightblue" points="63.14,-100.22 66.64,-110.22 70.14,-100.22 63.14,-100.22"/>
</g>
</g>
</svg>
