<?xml version="1.0" encoding="UTF-8" standalone="no"?>
<!DOCTYPE svg PUBLIC "-//W3C//DTD SVG 1.1//EN"
 "http://www.w3.org/Graphics/SVG/1.1/DTD/svg11.dtd">
<!-- Generated by graphviz version 2.43.0 (0)
 -->
<!-- Title: Ogre::SmallVector&lt; T, 0 &gt; Pages: 1 -->
<svg width="147pt" height="287pt"
 viewBox="0.00 0.00 147.03 287.00" xmlns="http://www.w3.org/2000/svg" xmlns:xlink="http://www.w3.org/1999/xlink">
<g id="graph0" class="graph" transform="scale(1 1) rotate(0) translate(4 283)">
<title>Ogre::SmallVector&lt; T, 0 &gt;</title>
<!-- Node1 -->
<g id="node1" class="node">
<title>Node1</title>
<g id="a_node1"><a xlink:title="Specialize SmallVector at N=0.">
<polygon fill="#bfbfbf" stroke="black" points="18.02,-0.5 18.02,-28.5 121.01,-28.5 121.01,-0.5 18.02,-0.5"/>
<text text-anchor="start" x="26.02" y="-16.5" font-family="Helvetica,sans-Serif" font-size="10.00">Ogre::SmallVector&lt;</text>
<text text-anchor="middle" x="69.52" y="-6.5" font-family="Helvetica,sans-Serif" font-size="10.00"> T, 0 &gt;</text>
</a>
</g>
</g>
<!-- Node2 -->
<g id="node2" class="node">
<title>Node2</title>
<g id="a_node2"><a xlink:href="class_ogre_1_1_small_vector_impl.html" target="_top" xlink:title="SmallVectorImpl &#45; This class consists of common code factored out of the SmallVector class to reduce ...">
<polygon fill="none" stroke="black" points="0,-65.5 0,-83.5 139.03,-83.5 139.03,-65.5 0,-65.5"/>
<text text-anchor="middle" x="69.52" y="-71.5" font-family="Helvetica,sans-Serif" font-size="10.00">Ogre::SmallVectorImpl&lt; T &gt;</text>
</a>
</g>
</g>
<!-- Node2&#45;&gt;Node1 -->
<g id="edge1" class="edge">
<title>Node2&#45;&gt;Node1</title>
<path fill="none" stroke="midnightblue" d="M63.2,-55.32C62.48,-46.75 62.66,-36.7 63.73,-28.84"/>
<polygon fill="midnightblue" stroke="midnightblue" points="59.77,-56.04 64.67,-65.44 66.7,-55.04 59.77,-56.04"/>
</g>
<!-- Node2&#45;&gt;Node1 -->
<g id="edge8" class="edge">
<title>Node2&#45;&gt;Node1</title>
<path fill="none" stroke="midnightblue" d="M75.83,-55.32C76.55,-46.75 76.38,-36.7 75.3,-28.84"/>
<polygon fill="midnightblue" stroke="midnightblue" points="72.33,-55.04 74.36,-65.44 79.26,-56.04 72.33,-55.04"/>
</g>
<!-- Node3 -->
<g id="node3" class="node">
<title>Node3</title>
<g id="a_node3"><a xlink:href="class_ogre_1_1_small_vector_template_base.html" target="_top" xlink:title=" ">
<polygon fill="none" stroke="black" points="0.65,-120.5 0.65,-158.5 138.38,-158.5 138.38,-120.5 0.65,-120.5"/>
<text text-anchor="start" x="8.65" y="-146.5" font-family="Helvetica,sans-Serif" font-size="10.00">Ogre::SmallVectorTemplate</text>
<text text-anchor="start" x="8.65" y="-136.5" font-family="Helvetica,sans-Serif" font-size="10.00">Base&lt; T, isPodLike&lt; T &gt;</text>
<text text-anchor="middle" x="69.52" y="-126.5" font-family="Helvetica,sans-Serif" font-size="10.00">::value &gt;</text>
</a>
</g>
</g>
<!-- Node3&#45;&gt;Node2 -->
<g id="edge2" class="edge">
<title>Node3&#45;&gt;Node2</title>
<path fill="none" stroke="midnightblue" d="M62.8,-110.16C62.61,-100.54 63.27,-90.52 64.78,-83.74"/>
<polygon fill="midnightblue" stroke="midnightblue" points="59.31,-110.48 63.33,-120.28 66.3,-110.11 59.31,-110.48"/>
</g>
<!-- Node3&#45;&gt;Node2 -->
<g id="edge7" class="edge">
<title>Node3&#45;&gt;Node2</title>
<path fill="none" stroke="midnightblue" d="M76.24,-110.16C76.42,-100.54 75.76,-90.52 74.25,-83.74"/>
<polygon fill="midnightblue" stroke="midnightblue" points="72.73,-110.11 75.7,-120.28 79.72,-110.48 72.73,-110.11"/>
</g>
<!-- Node4 -->
<g id="node4" class="node">
<title>Node4</title>
<g id="a_node4"><a xlink:href="class_ogre_1_1_small_vector_template_common.html" target="_top" xlink:title=" ">
<polygon fill="none" stroke="black" points="0.65,-195.5 0.65,-223.5 138.38,-223.5 138.38,-195.5 0.65,-195.5"/>
<text text-anchor="start" x="8.65" y="-211.5" font-family="Helvetica,sans-Serif" font-size="10.00">Ogre::SmallVectorTemplate</text>
<text text-anchor="middle" x="69.52" y="-201.5" font-family="Helvetica,sans-Serif" font-size="10.00">Common&lt; T &gt;</text>
</a>
</g>
</g>
<!-- Node4&#45;&gt;Node3 -->
<g id="edge3" class="edge">
<title>Node4&#45;&gt;Node3</title>
<path fill="none" stroke="midnightblue" d="M63.07,-185.17C62.56,-176.52 62.69,-166.84 63.46,-158.71"/>
<polygon fill="midnightblue" stroke="midnightblue" points="59.61,-185.77 64.06,-195.39 66.58,-185.1 59.61,-185.77"/>
</g>
<!-- Node4&#45;&gt;Node3 -->
<g id="edge6" class="edge">
<title>Node4&#45;&gt;Node3</title>
<path fill="none" stroke="midnightblue" d="M75.96,-185.17C76.47,-176.52 76.34,-166.84 75.57,-158.71"/>
<polygon fill="midnightblue" stroke="midnightblue" points="72.45,-185.1 74.97,-195.39 79.42,-185.77 72.45,-185.1"/>
</g>
<!-- Node5 -->
<g id="node5" class="node">
<title>Node5</title>
<g id="a_node5"><a xlink:href="class_ogre_1_1_small_vector_base.html" target="_top" xlink:title="SmallVectorBase &#45; This is all the non&#45;templated stuff common to all SmallVectors.">
<polygon fill="none" stroke="black" points="9.55,-260.5 9.55,-278.5 129.49,-278.5 129.49,-260.5 9.55,-260.5"/>
<text text-anchor="middle" x="69.52" y="-266.5" font-family="Helvetica,sans-Serif" font-size="10.00">Ogre::SmallVectorBase</text>
</a>
</g>
</g>
<!-- Node5&#45;&gt;Node4 -->
<g id="edge4" class="edge">
<title>Node5&#45;&gt;Node4</title>
<path fill="none" stroke="midnightblue" d="M63.2,-250.32C62.48,-241.75 62.66,-231.7 63.73,-223.84"/>
<polygon fill="midnightblue" stroke="midnightblue" points="59.77,-251.04 64.67,-260.44 66.7,-250.04 59.77,-251.04"/>
</g>
<!-- Node5&#45;&gt;Node4 -->
<g id="edge5" class="edge">
<title>Node5&#45;&gt;Node4</title>
<path fill="none" stroke="midnightblue" d="M75.83,-250.32C76.55,-241.75 76.38,-231.7 75.3,-223.84"/>
<polygon fill="midnightblue" stroke="midnightblue" points="72.33,-250.04 74.36,-260.44 79.26,-251.04 72.33,-250.04"/>
</g>
</g>
</svg>
