<?xml version="1.0" encoding="UTF-8" standalone="no"?>
<!DOCTYPE svg PUBLIC "-//W3C//DTD SVG 1.1//EN"
 "http://www.w3.org/Graphics/SVG/1.1/DTD/svg11.dtd">
<!-- Generated by graphviz version 2.43.0 (0)
 -->
<!-- Title: Ogre::HlmsJsonListener Pages: 1 -->
<svg width="147pt" height="147pt"
 viewBox="0.00 0.00 147.39 147.00" xmlns="http://www.w3.org/2000/svg" xmlns:xlink="http://www.w3.org/1999/xlink">
<g id="graph0" class="graph" transform="scale(1 1) rotate(0) translate(4 143)">
<title>Ogre::HlmsJsonListener</title>
<!-- Node1 -->
<g id="node1" class="node">
<title>Node1</title>
<g id="a_node1"><a xlink:title=" ">
<polygon fill="#bfbfbf" stroke="black" points="8.06,-120.5 8.06,-138.5 131.32,-138.5 131.32,-120.5 8.06,-120.5"/>
<text text-anchor="middle" x="69.69" y="-126.5" font-family="Helvetica,sans-Serif" font-size="10.00">Ogre::HlmsJsonListener</text>
</a>
</g>
</g>
<!-- Node2 -->
<g id="node2" class="node">
<title>Node2</title>
<g id="a_node2"><a xlink:href="class_ogre_1_1_scene_format_listener.html" target="_top" xlink:title="Override this listener if you want to filter which objects get exported.">
<polygon fill="none" stroke="black" points="0,-65.5 0,-83.5 139.39,-83.5 139.39,-65.5 0,-65.5"/>
<text text-anchor="middle" x="69.69" y="-71.5" font-family="Helvetica,sans-Serif" font-size="10.00">Ogre::SceneFormatListener</text>
</a>
</g>
</g>
<!-- Node1&#45;&gt;Node2 -->
<g id="edge1" class="edge">
<title>Node1&#45;&gt;Node2</title>
<path fill="none" stroke="midnightblue" d="M69.69,-110.17C69.69,-101.09 69.69,-90.59 69.69,-83.55"/>
<polygon fill="midnightblue" stroke="midnightblue" points="66.19,-110.22 69.69,-120.22 73.19,-110.22 66.19,-110.22"/>
</g>
<!-- Node3 -->
<g id="node3" class="node">
<title>Node3</title>
<g id="a_node3"><a xlink:href="class_ogre_1_1_default_scene_format_listener.html" target="_top" xlink:title="Default implementation that prevents a SceneNode from being exported if the only attached objects.">
<polygon fill="none" stroke="black" points="1.95,-0.5 1.95,-28.5 137.44,-28.5 137.44,-0.5 1.95,-0.5"/>
<text text-anchor="start" x="9.95" y="-16.5" font-family="Helvetica,sans-Serif" font-size="10.00">Ogre::DefaultSceneFormat</text>
<text text-anchor="middle" x="69.69" y="-6.5" font-family="Helvetica,sans-Serif" font-size="10.00">Listener</text>
</a>
</g>
</g>
<!-- Node2&#45;&gt;Node3 -->
<g id="edge2" class="edge">
<title>Node2&#45;&gt;Node3</title>
<path fill="none" stroke="midnightblue" d="M69.69,-55.32C69.69,-46.75 69.69,-36.7 69.69,-28.84"/>
<polygon fill="midnightblue" stroke="midnightblue" points="66.19,-55.44 69.69,-65.44 73.19,-55.44 66.19,-55.44"/>
</g>
</g>
</svg>
