<?xml version="1.0" encoding="UTF-8" standalone="no"?>
<!DOCTYPE svg PUBLIC "-//W3C//DTD SVG 1.1//EN"
 "http://www.w3.org/Graphics/SVG/1.1/DTD/svg11.dtd">
<!-- Generated by graphviz version 2.43.0 (0)
 -->
<!-- Title: Ogre::MovableObjectFactory Pages: 1 -->
<svg width="611pt" height="602pt"
 viewBox="0.00 0.00 610.73 602.00" xmlns="http://www.w3.org/2000/svg" xmlns:xlink="http://www.w3.org/1999/xlink">
<g id="graph0" class="graph" transform="scale(1 1) rotate(0) translate(4 598)">
<title>Ogre::MovableObjectFactory</title>
<!-- Node1 -->
<g id="node1" class="node">
<title>Node1</title>
<g id="a_node1"><a xlink:title="Interface definition for a factory class which produces a certain kind of MovableObject,...">
<polygon fill="#bfbfbf" stroke="black" points="111.47,-287.5 111.47,-305.5 255.3,-305.5 255.3,-287.5 111.47,-287.5"/>
<text text-anchor="middle" x="183.39" y="-293.5" font-family="Helvetica,sans-Serif" font-size="10.00">Ogre::MovableObjectFactory</text>
</a>
</g>
</g>
<!-- Node3 -->
<g id="node3" class="node">
<title>Node3</title>
<g id="a_node3"><a xlink:href="class_ogre_1_1_decal_factory.html" target="_top" xlink:title=" ">
<polygon fill="none" stroke="black" points="317.43,-575.5 317.43,-593.5 420.12,-593.5 420.12,-575.5 317.43,-575.5"/>
<text text-anchor="middle" x="368.77" y="-581.5" font-family="Helvetica,sans-Serif" font-size="10.00">Ogre::DecalFactory</text>
</a>
</g>
</g>
<!-- Node1&#45;&gt;Node3 -->
<g id="edge2" class="edge">
<title>Node1&#45;&gt;Node3</title>
<path fill="none" stroke="midnightblue" d="M186.04,-315.64C191.38,-365.2 212.72,-498.62 291.3,-566.5 298.63,-572.83 307.77,-577.03 317.16,-579.8"/>
<polygon fill="midnightblue" stroke="midnightblue" points="189.52,-315.26 185.06,-305.65 182.55,-315.94 189.52,-315.26"/>
</g>
<!-- Node4 -->
<g id="node4" class="node">
<title>Node4</title>
<g id="a_node4"><a xlink:href="class_ogre_1_1_internal_cubemap_probe_factory.html" target="_top" xlink:title=" ">
<polygon fill="none" stroke="black" points="295.18,-528.5 295.18,-556.5 442.37,-556.5 442.37,-528.5 295.18,-528.5"/>
<text text-anchor="start" x="303.18" y="-544.5" font-family="Helvetica,sans-Serif" font-size="10.00">Ogre::InternalCubemapProbe</text>
<text text-anchor="middle" x="368.77" y="-534.5" font-family="Helvetica,sans-Serif" font-size="10.00">Factory</text>
</a>
</g>
</g>
<!-- Node1&#45;&gt;Node4 -->
<g id="edge3" class="edge">
<title>Node1&#45;&gt;Node4</title>
<path fill="none" stroke="midnightblue" d="M188.19,-315.61C197.7,-358.39 226.55,-462.5 291.3,-518.5 295.83,-522.41 300.99,-525.69 306.45,-528.43"/>
<polygon fill="midnightblue" stroke="midnightblue" points="191.58,-314.75 186.09,-305.69 184.74,-316.2 191.58,-314.75"/>
</g>
<!-- Node5 -->
<g id="node5" class="node">
<title>Node5</title>
<g id="a_node5"><a xlink:href="class_ogre_1_1_item_factory.html" target="_top" xlink:title="FItemy object for creating Item instances.">
<polygon fill="none" stroke="black" points="320.48,-491.5 320.48,-509.5 417.06,-509.5 417.06,-491.5 320.48,-491.5"/>
<text text-anchor="middle" x="368.77" y="-497.5" font-family="Helvetica,sans-Serif" font-size="10.00">Ogre::ItemFactory</text>
</a>
</g>
</g>
<!-- Node1&#45;&gt;Node5 -->
<g id="edge4" class="edge">
<title>Node1&#45;&gt;Node5</title>
<path fill="none" stroke="midnightblue" d="M189.74,-315.2C201.5,-352.84 233.3,-437.85 291.3,-481.5 299.72,-487.83 309.99,-492.08 320.24,-494.91"/>
<polygon fill="midnightblue" stroke="midnightblue" points="193.06,-314.1 186.83,-305.53 186.35,-316.11 193.06,-314.1"/>
</g>
<!-- Node6 -->
<g id="node6" class="node">
<title>Node6</title>
<g id="a_node6"><a xlink:href="class_ogre_1_1_light_factory.html" target="_top" xlink:title="Factory object for creating Light instances.">
<polygon fill="none" stroke="black" points="319.37,-454.5 319.37,-472.5 418.18,-472.5 418.18,-454.5 319.37,-454.5"/>
<text text-anchor="middle" x="368.77" y="-460.5" font-family="Helvetica,sans-Serif" font-size="10.00">Ogre::LightFactory</text>
</a>
</g>
</g>
<!-- Node1&#45;&gt;Node6 -->
<g id="edge5" class="edge">
<title>Node1&#45;&gt;Node6</title>
<path fill="none" stroke="midnightblue" d="M192.4,-314.88C207.17,-346.5 241.75,-411.01 291.3,-444.5 299.57,-450.09 309.35,-454.04 319.09,-456.83"/>
<polygon fill="midnightblue" stroke="midnightblue" points="195.47,-313.18 188.16,-305.51 189.09,-316.06 195.47,-313.18"/>
</g>
<!-- Node7 -->
<g id="node7" class="node">
<title>Node7</title>
<g id="a_node7"><a xlink:href="class_ogre_1_1_manual_object_factory.html" target="_top" xlink:title="Factory object for creating ManualObject instances.">
<polygon fill="none" stroke="black" points="299.36,-417.5 299.36,-435.5 438.19,-435.5 438.19,-417.5 299.36,-417.5"/>
<text text-anchor="middle" x="368.77" y="-423.5" font-family="Helvetica,sans-Serif" font-size="10.00">Ogre::ManualObjectFactory</text>
</a>
</g>
</g>
<!-- Node1&#45;&gt;Node7 -->
<g id="edge6" class="edge">
<title>Node1&#45;&gt;Node7</title>
<path fill="none" stroke="midnightblue" d="M196.29,-314.03C214.03,-338.76 249.8,-383.53 291.3,-407.5 298.53,-411.67 306.65,-414.94 314.83,-417.49"/>
<polygon fill="midnightblue" stroke="midnightblue" points="199.01,-311.81 190.4,-305.62 193.27,-315.82 199.01,-311.81"/>
</g>
<!-- Node8 -->
<g id="node8" class="node">
<title>Node8</title>
<g id="a_node8"><a xlink:href="class_ogre_1_1_particle_system_factory.html" target="_top" xlink:title="Factory object for creating ParticleSystem instances.">
<polygon fill="none" stroke="black" points="296.87,-380.5 296.87,-398.5 440.68,-398.5 440.68,-380.5 296.87,-380.5"/>
<text text-anchor="middle" x="368.77" y="-386.5" font-family="Helvetica,sans-Serif" font-size="10.00">Ogre::ParticleSystemFactory</text>
</a>
</g>
</g>
<!-- Node1&#45;&gt;Node8 -->
<g id="edge7" class="edge">
<title>Node1&#45;&gt;Node8</title>
<path fill="none" stroke="midnightblue" d="M202.63,-312.24C222.97,-329.01 257.46,-355.21 291.3,-370.5 300.28,-374.56 310.25,-377.83 319.95,-380.45"/>
<polygon fill="midnightblue" stroke="midnightblue" points="204.73,-309.44 194.82,-305.69 200.23,-314.8 204.73,-309.44"/>
</g>
<!-- Node9 -->
<g id="node9" class="node">
<title>Node9</title>
<g id="a_node9"><a xlink:href="class_ogre_1_1_p_c_z_light_factory.html" target="_top" xlink:title="Factory object for creating PCZLight instances.">
<polygon fill="none" stroke="black" points="309.37,-343.5 309.37,-361.5 428.18,-361.5 428.18,-343.5 309.37,-343.5"/>
<text text-anchor="middle" x="368.77" y="-349.5" font-family="Helvetica,sans-Serif" font-size="10.00">Ogre::PCZLightFactory</text>
</a>
</g>
</g>
<!-- Node1&#45;&gt;Node9 -->
<g id="edge8" class="edge">
<title>Node1&#45;&gt;Node9</title>
<path fill="none" stroke="midnightblue" d="M218.22,-309.08C239.12,-316.63 266.59,-326.17 291.3,-333.5 303.23,-337.04 316.35,-340.46 328.29,-343.41"/>
<polygon fill="midnightblue" stroke="midnightblue" points="219.41,-305.79 208.81,-305.65 217.01,-312.37 219.41,-305.79"/>
</g>
<!-- Node10 -->
<g id="node10" class="node">
<title>Node10</title>
<g id="a_node10"><a xlink:href="class_ogre_1_1_portal_base_factory.html" target="_top" xlink:title="Factory object for creating Portal instances.">
<polygon fill="none" stroke="black" points="305.75,-306.5 305.75,-324.5 431.79,-324.5 431.79,-306.5 305.75,-306.5"/>
<text text-anchor="middle" x="368.77" y="-312.5" font-family="Helvetica,sans-Serif" font-size="10.00">Ogre::PortalBaseFactory</text>
</a>
</g>
</g>
<!-- Node1&#45;&gt;Node10 -->
<g id="edge9" class="edge">
<title>Node1&#45;&gt;Node10</title>
<path fill="none" stroke="midnightblue" d="M265.71,-304.93C279.09,-306.31 292.78,-307.73 305.6,-309.06"/>
<polygon fill="midnightblue" stroke="midnightblue" points="265.86,-301.42 255.55,-303.87 265.14,-308.39 265.86,-301.42"/>
</g>
<!-- Node13 -->
<g id="node13" class="node">
<title>Node13</title>
<g id="a_node13"><a xlink:href="class_ogre_1_1_rectangle2_d_factory.html" target="_top" xlink:title="Factory object for creating Entity instances.">
<polygon fill="none" stroke="black" points="301.3,-269.5 301.3,-287.5 436.24,-287.5 436.24,-269.5 301.3,-269.5"/>
<text text-anchor="middle" x="368.77" y="-275.5" font-family="Helvetica,sans-Serif" font-size="10.00">Ogre::Rectangle2DFactory</text>
</a>
</g>
</g>
<!-- Node1&#45;&gt;Node13 -->
<g id="edge12" class="edge">
<title>Node1&#45;&gt;Node13</title>
<path fill="none" stroke="midnightblue" d="M265.85,-288.5C277.65,-287.35 289.69,-286.16 301.15,-285.04"/>
<polygon fill="midnightblue" stroke="midnightblue" points="265.16,-285.05 255.55,-289.51 265.84,-292.02 265.16,-285.05"/>
</g>
<!-- Node14 -->
<g id="node14" class="node">
<title>Node14</title>
<g id="a_node14"><a xlink:href="class_ogre_1_1v1_1_1_billboard_chain_factory.html" target="_top" xlink:title="Factory object for creating BillboardChain instances.">
<polygon fill="none" stroke="black" points="306.3,-222.5 306.3,-250.5 431.25,-250.5 431.25,-222.5 306.3,-222.5"/>
<text text-anchor="start" x="314.3" y="-238.5" font-family="Helvetica,sans-Serif" font-size="10.00">Ogre::v1::BillboardChain</text>
<text text-anchor="middle" x="368.77" y="-228.5" font-family="Helvetica,sans-Serif" font-size="10.00">Factory</text>
</a>
</g>
</g>
<!-- Node1&#45;&gt;Node14 -->
<g id="edge13" class="edge">
<title>Node1&#45;&gt;Node14</title>
<path fill="none" stroke="midnightblue" d="M219.46,-283.96C240.27,-276.61 267.21,-267.29 291.3,-259.5 300.53,-256.51 310.44,-253.44 319.95,-250.55"/>
<polygon fill="midnightblue" stroke="midnightblue" points="218.04,-280.75 209.78,-287.38 220.37,-287.35 218.04,-280.75"/>
</g>
<!-- Node15 -->
<g id="node15" class="node">
<title>Node15</title>
<g id="a_node15"><a xlink:href="class_ogre_1_1v1_1_1_billboard_set_factory.html" target="_top" xlink:title="Factory object for creating BillboardSet instances.">
<polygon fill="none" stroke="black" points="295.19,-185.5 295.19,-203.5 442.36,-203.5 442.36,-185.5 295.19,-185.5"/>
<text text-anchor="middle" x="368.77" y="-191.5" font-family="Helvetica,sans-Serif" font-size="10.00">Ogre::v1::BillboardSetFactory</text>
</a>
</g>
</g>
<!-- Node1&#45;&gt;Node15 -->
<g id="edge14" class="edge">
<title>Node1&#45;&gt;Node15</title>
<path fill="none" stroke="midnightblue" d="M200.36,-280.2C220.01,-261.1 255.22,-229.86 291.3,-212.5 298.92,-208.83 307.33,-205.89 315.71,-203.53"/>
<polygon fill="midnightblue" stroke="midnightblue" points="197.8,-277.81 193.17,-287.33 202.73,-282.78 197.8,-277.81"/>
</g>
<!-- Node16 -->
<g id="node16" class="node">
<title>Node16</title>
<g id="a_node16"><a xlink:href="class_ogre_1_1v1_1_1_entity_factory.html" target="_top" xlink:title="Factory object for creating Entity instances.">
<polygon fill="none" stroke="black" points="309.64,-148.5 309.64,-166.5 427.9,-166.5 427.9,-148.5 309.64,-148.5"/>
<text text-anchor="middle" x="368.77" y="-154.5" font-family="Helvetica,sans-Serif" font-size="10.00">Ogre::v1::EntityFactory</text>
</a>
</g>
</g>
<!-- Node1&#45;&gt;Node16 -->
<g id="edge15" class="edge">
<title>Node1&#45;&gt;Node16</title>
<path fill="none" stroke="midnightblue" d="M195.13,-278.44C212.07,-251.63 247.59,-201.65 291.3,-175.5 297.5,-171.79 304.42,-168.84 311.48,-166.5"/>
<polygon fill="midnightblue" stroke="midnightblue" points="192.01,-276.83 189.75,-287.18 197.98,-280.5 192.01,-276.83"/>
</g>
<!-- Node17 -->
<g id="node17" class="node">
<title>Node17</title>
<g id="a_node17"><a xlink:href="class_ogre_1_1v1_1_1_manual_object_factory.html" target="_top" xlink:title="Factory object for creating ManualObject instances.">
<polygon fill="none" stroke="black" points="291.3,-111.5 291.3,-129.5 446.25,-129.5 446.25,-111.5 291.3,-111.5"/>
<text text-anchor="middle" x="368.77" y="-117.5" font-family="Helvetica,sans-Serif" font-size="10.00">Ogre::v1::ManualObjectFactory</text>
</a>
</g>
</g>
<!-- Node1&#45;&gt;Node17 -->
<g id="edge16" class="edge">
<title>Node1&#45;&gt;Node17</title>
<path fill="none" stroke="midnightblue" d="M191.62,-277.74C205.55,-244.24 239.38,-174.29 291.3,-138.5 296.58,-134.86 302.5,-131.95 308.64,-129.63"/>
<polygon fill="midnightblue" stroke="midnightblue" points="188.28,-276.66 187.8,-287.25 194.78,-279.27 188.28,-276.66"/>
</g>
<!-- Node18 -->
<g id="node18" class="node">
<title>Node18</title>
<g id="a_node18"><a xlink:href="class_ogre_1_1v1_1_1_rectangle2_d_factory.html" target="_top" xlink:title="Factory object for creating Entity instances.">
<polygon fill="none" stroke="black" points="293.24,-74.5 293.24,-92.5 444.3,-92.5 444.3,-74.5 293.24,-74.5"/>
<text text-anchor="middle" x="368.77" y="-80.5" font-family="Helvetica,sans-Serif" font-size="10.00">Ogre::v1::Rectangle2DFactory</text>
</a>
</g>
</g>
<!-- Node1&#45;&gt;Node18 -->
<g id="edge17" class="edge">
<title>Node1&#45;&gt;Node18</title>
<path fill="none" stroke="midnightblue" d="M189.16,-277.55C200.08,-238.21 230.76,-147.55 291.3,-101.5 296.08,-97.87 301.47,-94.95 307.13,-92.61"/>
<polygon fill="midnightblue" stroke="midnightblue" points="185.72,-276.84 186.54,-287.4 192.49,-278.64 185.72,-276.84"/>
</g>
<!-- Node19 -->
<g id="node19" class="node">
<title>Node19</title>
<g id="a_node19"><a xlink:href="class_ogre_1_1v1_1_1_ribbon_trail_factory.html" target="_top" xlink:title="Factory object for creating RibbonTrail instances.">
<polygon fill="none" stroke="black" points="296.77,-37.5 296.77,-55.5 440.78,-55.5 440.78,-37.5 296.77,-37.5"/>
<text text-anchor="middle" x="368.77" y="-43.5" font-family="Helvetica,sans-Serif" font-size="10.00">Ogre::v1::RibbonTrailFactory</text>
</a>
</g>
</g>
<!-- Node1&#45;&gt;Node19 -->
<g id="edge18" class="edge">
<title>Node1&#45;&gt;Node19</title>
<path fill="none" stroke="midnightblue" d="M187.46,-277.1C195.61,-232.27 222.11,-121.03 291.3,-64.5 295.74,-60.88 300.77,-57.96 306.1,-55.61"/>
<polygon fill="midnightblue" stroke="midnightblue" points="183.96,-276.77 185.73,-287.21 190.86,-277.95 183.96,-276.77"/>
</g>
<!-- Node20 -->
<g id="node20" class="node">
<title>Node20</title>
<g id="a_node20"><a xlink:href="class_ogre_1_1_wire_aabb_factory.html" target="_top" xlink:title="Factory object for creating WireAabb instances.">
<polygon fill="none" stroke="black" points="308.26,-0.5 308.26,-18.5 429.29,-18.5 429.29,-0.5 308.26,-0.5"/>
<text text-anchor="middle" x="368.77" y="-6.5" font-family="Helvetica,sans-Serif" font-size="10.00">Ogre::WireAabbFactory</text>
</a>
</g>
</g>
<!-- Node1&#45;&gt;Node20 -->
<g id="edge19" class="edge">
<title>Node1&#45;&gt;Node20</title>
<path fill="none" stroke="midnightblue" d="M186.1,-277.12C191.55,-227.48 213.1,-94.97 291.3,-27.5 296.26,-23.22 302.04,-19.92 308.17,-17.37"/>
<polygon fill="midnightblue" stroke="midnightblue" points="182.58,-277.08 185.07,-287.38 189.55,-277.78 182.58,-277.08"/>
</g>
<!-- Node2 -->
<g id="node2" class="node">
<title>Node2</title>
<g id="a_node2"><a xlink:href="class_ogre_1_1_allocated_object.html" target="_top" xlink:title="Superclass for all objects that wish to use custom memory allocators when their new / delete operator...">
<polygon fill="none" stroke="black" points="0,-287.5 0,-305.5 75.47,-305.5 75.47,-287.5 0,-287.5"/>
<text text-anchor="middle" x="37.74" y="-293.5" font-family="Helvetica,sans-Serif" font-size="10.00">MovableAlloc</text>
</a>
</g>
</g>
<!-- Node2&#45;&gt;Node1 -->
<g id="edge1" class="edge">
<title>Node2&#45;&gt;Node1</title>
<path fill="none" stroke="midnightblue" d="M85.76,-296.5C93.92,-296.5 102.56,-296.5 111.19,-296.5"/>
<polygon fill="midnightblue" stroke="midnightblue" points="85.73,-293 75.73,-296.5 85.73,-300 85.73,-293"/>
</g>
<!-- Node11 -->
<g id="node11" class="node">
<title>Node11</title>
<g id="a_node11"><a xlink:href="class_ogre_1_1_anti_portal_factory.html" target="_top" xlink:title="Factory object for creating AntiPortal instances.">
<polygon fill="none" stroke="black" points="482.25,-324.5 482.25,-342.5 602.73,-342.5 602.73,-324.5 482.25,-324.5"/>
<text text-anchor="middle" x="542.49" y="-330.5" font-family="Helvetica,sans-Serif" font-size="10.00">Ogre::AntiPortalFactory</text>
</a>
</g>
</g>
<!-- Node10&#45;&gt;Node11 -->
<g id="edge10" class="edge">
<title>Node10&#45;&gt;Node11</title>
<path fill="none" stroke="midnightblue" d="M442.31,-323.1C455.61,-324.5 469.35,-325.94 482.2,-327.29"/>
<polygon fill="midnightblue" stroke="midnightblue" points="442.56,-319.61 432.25,-322.05 441.83,-326.57 442.56,-319.61"/>
</g>
<!-- Node12 -->
<g id="node12" class="node">
<title>Node12</title>
<g id="a_node12"><a xlink:href="class_ogre_1_1_portal_factory.html" target="_top" xlink:title="Factory object for creating Portal instances.">
<polygon fill="none" stroke="black" points="490.86,-287.5 490.86,-305.5 594.11,-305.5 594.11,-287.5 490.86,-287.5"/>
<text text-anchor="middle" x="542.49" y="-293.5" font-family="Helvetica,sans-Serif" font-size="10.00">Ogre::PortalFactory</text>
</a>
</g>
</g>
<!-- Node10&#45;&gt;Node12 -->
<g id="edge11" class="edge">
<title>Node10&#45;&gt;Node12</title>
<path fill="none" stroke="midnightblue" d="M442.27,-307.48C458.53,-305.68 475.44,-303.81 490.6,-302.13"/>
<polygon fill="midnightblue" stroke="midnightblue" points="441.81,-304.01 432.25,-308.59 442.58,-310.97 441.81,-304.01"/>
</g>
</g>
</svg>
