<?xml version="1.0" encoding="UTF-8" standalone="no"?>
<!DOCTYPE svg PUBLIC "-//W3C//DTD SVG 1.1//EN"
 "http://www.w3.org/Graphics/SVG/1.1/DTD/svg11.dtd">
<!-- Generated by graphviz version 2.43.0 (0)
 -->
<!-- Title: Ogre::LinearForceAffectorFactory Pages: 1 -->
<svg width="153pt" height="147pt"
 viewBox="0.00 0.00 152.75 147.00" xmlns="http://www.w3.org/2000/svg" xmlns:xlink="http://www.w3.org/1999/xlink">
<g id="graph0" class="graph" transform="scale(1 1) rotate(0) translate(4 143)">
<title>Ogre::LinearForceAffectorFactory</title>
<!-- Node1 -->
<g id="node1" class="node">
<title>Node1</title>
<g id="a_node1"><a xlink:title="Factory class for LinearForceAffector.">
<polygon fill="#bfbfbf" stroke="black" points="6.66,-0.5 6.66,-28.5 138.09,-28.5 138.09,-0.5 6.66,-0.5"/>
<text text-anchor="start" x="14.66" y="-16.5" font-family="Helvetica,sans-Serif" font-size="10.00">Ogre::LinearForceAffector</text>
<text text-anchor="middle" x="72.38" y="-6.5" font-family="Helvetica,sans-Serif" font-size="10.00">Factory</text>
</a>
</g>
</g>
<!-- Node2 -->
<g id="node2" class="node">
<title>Node2</title>
<g id="a_node2"><a xlink:href="class_ogre_1_1_particle_affector_factory.html" target="_top" xlink:title="Abstract class defining the interface to be implemented by creators of ParticleAffector subclasses.">
<polygon fill="none" stroke="black" points="0,-65.5 0,-83.5 144.75,-83.5 144.75,-65.5 0,-65.5"/>
<text text-anchor="middle" x="72.38" y="-71.5" font-family="Helvetica,sans-Serif" font-size="10.00">Ogre::ParticleAffectorFactory</text>
</a>
</g>
</g>
<!-- Node2&#45;&gt;Node1 -->
<g id="edge1" class="edge">
<title>Node2&#45;&gt;Node1</title>
<path fill="none" stroke="midnightblue" d="M72.38,-55.32C72.38,-46.75 72.38,-36.7 72.38,-28.84"/>
<polygon fill="midnightblue" stroke="midnightblue" points="68.88,-55.44 72.38,-65.44 75.88,-55.44 68.88,-55.44"/>
</g>
<!-- Node3 -->
<g id="node3" class="node">
<title>Node3</title>
<g id="a_node3"><a xlink:href="class_ogre_1_1_allocated_object.html" target="_top" xlink:title="Superclass for all objects that wish to use custom memory allocators when their new / delete operator...">
<polygon fill="none" stroke="black" points="47.15,-120.5 47.15,-138.5 97.6,-138.5 97.6,-120.5 47.15,-120.5"/>
<text text-anchor="middle" x="72.38" y="-126.5" font-family="Helvetica,sans-Serif" font-size="10.00">FXAlloc</text>
</a>
</g>
</g>
<!-- Node3&#45;&gt;Node2 -->
<g id="edge2" class="edge">
<title>Node3&#45;&gt;Node2</title>
<path fill="none" stroke="midnightblue" d="M72.38,-110.17C72.38,-101.09 72.38,-90.59 72.38,-83.55"/>
<polygon fill="midnightblue" stroke="midnightblue" points="68.88,-110.22 72.38,-120.22 75.88,-110.22 68.88,-110.22"/>
</g>
</g>
</svg>
