<?xml version="1.0" encoding="UTF-8" standalone="no"?>
<!DOCTYPE svg PUBLIC "-//W3C//DTD SVG 1.1//EN"
 "http://www.w3.org/Graphics/SVG/1.1/DTD/svg11.dtd">
<!-- Generated by graphviz version 2.43.0 (0)
 -->
<!-- Title: Ogre::TerrainGlobalOptions Pages: 1 -->
<svg width="218pt" height="92pt"
 viewBox="0.00 0.00 218.37 92.00" xmlns="http://www.w3.org/2000/svg" xmlns:xlink="http://www.w3.org/1999/xlink">
<g id="graph0" class="graph" transform="scale(1 1) rotate(0) translate(4 88)">
<title>Ogre::TerrainGlobalOptions</title>
<!-- Node1 -->
<g id="node1" class="node">
<title>Node1</title>
<g id="a_node1"><a xlink:title="Options class which just stores default options for the terrain.">
<polygon fill="#bfbfbf" stroke="black" points="22.26,-0.5 22.26,-18.5 159.98,-18.5 159.98,-0.5 22.26,-0.5"/>
<text text-anchor="middle" x="91.12" y="-6.5" font-family="Helvetica,sans-Serif" font-size="10.00">Ogre::TerrainGlobalOptions</text>
</a>
</g>
</g>
<!-- Node2 -->
<g id="node2" class="node">
<title>Node2</title>
<g id="a_node2"><a xlink:href="class_ogre_1_1_allocated_object.html" target="_top" xlink:title="Superclass for all objects that wish to use custom memory allocators when their new / delete operator...">
<polygon fill="none" stroke="black" points="0,-60.5 0,-78.5 68.24,-78.5 68.24,-60.5 0,-60.5"/>
<text text-anchor="middle" x="34.12" y="-66.5" font-family="Helvetica,sans-Serif" font-size="10.00">TerrainAlloc</text>
</a>
</g>
</g>
<!-- Node2&#45;&gt;Node1 -->
<g id="edge1" class="edge">
<title>Node2&#45;&gt;Node1</title>
<path fill="none" stroke="midnightblue" d="M49.19,-53.16C59.98,-42.18 74.1,-27.81 82.89,-18.87"/>
<polygon fill="midnightblue" stroke="midnightblue" points="46.56,-50.85 42.05,-60.44 51.55,-55.76 46.56,-50.85"/>
</g>
<!-- Node3 -->
<g id="node3" class="node">
<title>Node3</title>
<g id="a_node3"><a xlink:href="class_ogre_1_1_singleton.html" target="_top" xlink:title=" ">
<polygon fill="none" stroke="black" points="85.87,-55.5 85.87,-83.5 210.37,-83.5 210.37,-55.5 85.87,-55.5"/>
<text text-anchor="start" x="93.87" y="-71.5" font-family="Helvetica,sans-Serif" font-size="10.00">Ogre::Singleton&lt; Terrain</text>
<text text-anchor="middle" x="148.12" y="-61.5" font-family="Helvetica,sans-Serif" font-size="10.00">GlobalOptions &gt;</text>
</a>
</g>
</g>
<!-- Node3&#45;&gt;Node1 -->
<g id="edge2" class="edge">
<title>Node3&#45;&gt;Node1</title>
<path fill="none" stroke="midnightblue" d="M127.99,-48.02C118.1,-37.95 106.72,-26.37 99.25,-18.77"/>
<polygon fill="midnightblue" stroke="midnightblue" points="125.68,-50.66 135.19,-55.34 130.67,-45.75 125.68,-50.66"/>
</g>
</g>
</svg>
