<?xml version="1.0" encoding="UTF-8" standalone="no"?>
<!DOCTYPE svg PUBLIC "-//W3C//DTD SVG 1.1//EN"
 "http://www.w3.org/Graphics/SVG/1.1/DTD/svg11.dtd">
<!-- Generated by graphviz version 2.43.0 (0)
 -->
<!-- Title: Ogre::GL3PlusRenderPassDescriptor Pages: 1 -->
<svg width="191pt" height="137pt"
 viewBox="0.00 0.00 190.74 137.00" xmlns="http://www.w3.org/2000/svg" xmlns:xlink="http://www.w3.org/1999/xlink">
<g id="graph0" class="graph" transform="scale(1 1) rotate(0) translate(4 133)">
<title>Ogre::GL3PlusRenderPassDescriptor</title>
<!-- Node1 -->
<g id="node1" class="node">
<title>Node1</title>
<g id="a_node1"><a xlink:title="GL3+ will share FBO handles between all GL3PlusRenderPassDescriptor that share the same FBO setup.">
<polygon fill="#bfbfbf" stroke="black" points="0,-0.5 0,-18.5 182.74,-18.5 182.74,-0.5 0,-0.5"/>
<text text-anchor="middle" x="91.37" y="-6.5" font-family="Helvetica,sans-Serif" font-size="10.00">Ogre::GL3PlusRenderPassDescriptor</text>
</a>
</g>
</g>
<!-- Node2 -->
<g id="node2" class="node">
<title>Node2</title>
<g id="a_node2"><a xlink:href="class_ogre_1_1_render_pass_descriptor.html" target="_top" xlink:title=" ">
<polygon fill="none" stroke="black" points="19.18,-55.5 19.18,-73.5 163.56,-73.5 163.56,-55.5 19.18,-55.5"/>
<text text-anchor="middle" x="91.37" y="-61.5" font-family="Helvetica,sans-Serif" font-size="10.00">Ogre::RenderPassDescriptor</text>
</a>
</g>
</g>
<!-- Node2&#45;&gt;Node1 -->
<g id="edge1" class="edge">
<title>Node2&#45;&gt;Node1</title>
<path fill="none" stroke="midnightblue" d="M91.37,-45.17C91.37,-36.09 91.37,-25.59 91.37,-18.55"/>
<polygon fill="midnightblue" stroke="midnightblue" points="87.87,-45.22 91.37,-55.22 94.87,-45.22 87.87,-45.22"/>
</g>
<!-- Node3 -->
<g id="node3" class="node">
<title>Node3</title>
<g id="a_node3"><a xlink:href="class_ogre_1_1_allocated_object.html" target="_top" xlink:title="Superclass for all objects that wish to use custom memory allocators when their new / delete operator...">
<polygon fill="none" stroke="black" points="47.8,-110.5 47.8,-128.5 134.94,-128.5 134.94,-110.5 47.8,-110.5"/>
<text text-anchor="middle" x="91.37" y="-116.5" font-family="Helvetica,sans-Serif" font-size="10.00">RenderSysAlloc</text>
</a>
</g>
</g>
<!-- Node3&#45;&gt;Node2 -->
<g id="edge2" class="edge">
<title>Node3&#45;&gt;Node2</title>
<path fill="none" stroke="midnightblue" d="M91.37,-100.17C91.37,-91.09 91.37,-80.59 91.37,-73.55"/>
<polygon fill="midnightblue" stroke="midnightblue" points="87.87,-100.22 91.37,-110.22 94.87,-100.22 87.87,-100.22"/>
</g>
</g>
</svg>
