<?xml version="1.0" encoding="UTF-8" standalone="no"?>
<!DOCTYPE svg PUBLIC "-//W3C//DTD SVG 1.1//EN"
 "http://www.w3.org/Graphics/SVG/1.1/DTD/svg11.dtd">
<!-- Generated by graphviz version 2.43.0 (0)
 -->
<!-- Title: Ogre::GLES2Plugin Pages: 1 -->
<svg width="112pt" height="137pt"
 viewBox="0.00 0.00 111.83 137.00" xmlns="http://www.w3.org/2000/svg" xmlns:xlink="http://www.w3.org/1999/xlink">
<g id="graph0" class="graph" transform="scale(1 1) rotate(0) translate(4 133)">
<title>Ogre::GLES2Plugin</title>
<!-- Node1 -->
<g id="node1" class="node">
<title>Node1</title>
<g id="a_node1"><a xlink:title="Plugin instance for GL ES 2 Manager.">
<polygon fill="#bfbfbf" stroke="black" points="0,-0.5 0,-18.5 103.83,-18.5 103.83,-0.5 0,-0.5"/>
<text text-anchor="middle" x="51.91" y="-6.5" font-family="Helvetica,sans-Serif" font-size="10.00">Ogre::GLES2Plugin</text>
</a>
</g>
</g>
<!-- Node2 -->
<g id="node2" class="node">
<title>Node2</title>
<g id="a_node2"><a xlink:href="class_ogre_1_1_plugin.html" target="_top" xlink:title="Class defining a generic OGRE plugin.">
<polygon fill="none" stroke="black" points="16.12,-55.5 16.12,-73.5 87.71,-73.5 87.71,-55.5 16.12,-55.5"/>
<text text-anchor="middle" x="51.91" y="-61.5" font-family="Helvetica,sans-Serif" font-size="10.00">Ogre::Plugin</text>
</a>
</g>
</g>
<!-- Node2&#45;&gt;Node1 -->
<g id="edge1" class="edge">
<title>Node2&#45;&gt;Node1</title>
<path fill="none" stroke="midnightblue" d="M51.91,-45.17C51.91,-36.09 51.91,-25.59 51.91,-18.55"/>
<polygon fill="midnightblue" stroke="midnightblue" points="48.41,-45.22 51.91,-55.22 55.41,-45.22 48.41,-45.22"/>
</g>
<!-- Node3 -->
<g id="node3" class="node">
<title>Node3</title>
<g id="a_node3"><a xlink:href="class_ogre_1_1_allocated_object.html" target="_top" xlink:title="Superclass for all objects that wish to use custom memory allocators when their new / delete operator...">
<polygon fill="none" stroke="black" points="19.18,-110.5 19.18,-128.5 84.65,-128.5 84.65,-110.5 19.18,-110.5"/>
<text text-anchor="middle" x="51.91" y="-116.5" font-family="Helvetica,sans-Serif" font-size="10.00">PluginAlloc</text>
</a>
</g>
</g>
<!-- Node3&#45;&gt;Node2 -->
<g id="edge2" class="edge">
<title>Node3&#45;&gt;Node2</title>
<path fill="none" stroke="midnightblue" d="M51.91,-100.17C51.91,-91.09 51.91,-80.59 51.91,-73.55"/>
<polygon fill="midnightblue" stroke="midnightblue" points="48.41,-100.22 51.91,-110.22 55.41,-100.22 48.41,-100.22"/>
</g>
</g>
</svg>
