<?xml version="1.0" encoding="UTF-8" standalone="no"?>
<!DOCTYPE svg PUBLIC "-//W3C//DTD SVG 1.1//EN"
 "http://www.w3.org/Graphics/SVG/1.1/DTD/svg11.dtd">
<!-- Generated by graphviz version 2.43.0 (0)
 -->
<!-- Title: Ogre::RenderTexture Pages: 1 -->
<svg width="839pt" height="528pt"
 viewBox="0.00 0.00 838.59 528.00" xmlns="http://www.w3.org/2000/svg" xmlns:xlink="http://www.w3.org/1999/xlink">
<g id="graph0" class="graph" transform="scale(1 1) rotate(0) translate(4 524)">
<title>Ogre::RenderTexture</title>
<!-- Node1 -->
<g id="node1" class="node">
<title>Node1</title>
<g id="a_node1"><a xlink:title="This class represents a RenderTarget that renders to a Texture.">
<polygon fill="#bfbfbf" stroke="black" points="317.62,-240.5 317.62,-258.5 427,-258.5 427,-240.5 317.62,-240.5"/>
<text text-anchor="middle" x="372.31" y="-246.5" font-family="Helvetica,sans-Serif" font-size="10.00">Ogre::RenderTexture</text>
</a>
</g>
</g>
<!-- Node5 -->
<g id="node5" class="node">
<title>Node5</title>
<g id="a_node5"><a xlink:href="class_ogre_1_1_d3_d11_depth_texture_target.html" target="_top" xlink:title=" ">
<polygon fill="none" stroke="black" points="463.93,-501.5 463.93,-519.5 625.38,-519.5 625.38,-501.5 463.93,-501.5"/>
<text text-anchor="middle" x="544.65" y="-507.5" font-family="Helvetica,sans-Serif" font-size="10.00">Ogre::D3D11DepthTextureTarget</text>
</a>
</g>
</g>
<!-- Node1&#45;&gt;Node5 -->
<g id="edge4" class="edge">
<title>Node1&#45;&gt;Node5</title>
<path fill="none" stroke="midnightblue" d="M374.43,-268.84C378.18,-315.04 394.34,-432.47 463,-492.5 467.11,-496.09 471.77,-499.01 476.73,-501.38"/>
<polygon fill="midnightblue" stroke="midnightblue" points="377.91,-268.43 373.72,-258.7 370.92,-268.92 377.91,-268.43"/>
</g>
<!-- Node6 -->
<g id="node6" class="node">
<title>Node6</title>
<g id="a_node6"><a xlink:href="class_ogre_1_1_d3_d11_null_texture_target.html" target="_top" xlink:title=" ">
<polygon fill="none" stroke="black" points="468.66,-464.5 468.66,-482.5 620.65,-482.5 620.65,-464.5 468.66,-464.5"/>
<text text-anchor="middle" x="544.65" y="-470.5" font-family="Helvetica,sans-Serif" font-size="10.00">Ogre::D3D11NullTextureTarget</text>
</a>
</g>
</g>
<!-- Node1&#45;&gt;Node6 -->
<g id="edge5" class="edge">
<title>Node1&#45;&gt;Node6</title>
<path fill="none" stroke="midnightblue" d="M375.9,-268.5C382.5,-309.21 403.81,-405.16 463,-454.5 467.86,-458.55 473.44,-461.77 479.33,-464.33"/>
<polygon fill="midnightblue" stroke="midnightblue" points="379.36,-267.94 374.41,-258.57 372.44,-268.97 379.36,-267.94"/>
</g>
<!-- Node7 -->
<g id="node7" class="node">
<title>Node7</title>
<g id="a_node7"><a xlink:href="class_ogre_1_1_d3_d11_render_texture.html" target="_top" xlink:title="RenderTexture implementation for D3D11.">
<polygon fill="none" stroke="black" points="474.77,-427.5 474.77,-445.5 614.54,-445.5 614.54,-427.5 474.77,-427.5"/>
<text text-anchor="middle" x="544.65" y="-433.5" font-family="Helvetica,sans-Serif" font-size="10.00">Ogre::D3D11RenderTexture</text>
</a>
</g>
</g>
<!-- Node1&#45;&gt;Node7 -->
<g id="edge6" class="edge">
<title>Node1&#45;&gt;Node7</title>
<path fill="none" stroke="midnightblue" d="M378,-268.88C387.58,-304.19 412.88,-378.93 463,-417.5 468.36,-421.62 474.47,-424.87 480.87,-427.43"/>
<polygon fill="midnightblue" stroke="midnightblue" points="381.31,-267.71 375.43,-258.89 374.53,-269.45 381.31,-267.71"/>
</g>
<!-- Node8 -->
<g id="node8" class="node">
<title>Node8</title>
<g id="a_node8"><a xlink:href="class_ogre_1_1_d3_d9_render_texture.html" target="_top" xlink:title="RenderTexture implementation for D3D9.">
<polygon fill="none" stroke="black" points="477.18,-390.5 477.18,-408.5 612.12,-408.5 612.12,-390.5 477.18,-390.5"/>
<text text-anchor="middle" x="544.65" y="-396.5" font-family="Helvetica,sans-Serif" font-size="10.00">Ogre::D3D9RenderTexture</text>
</a>
</g>
</g>
<!-- Node1&#45;&gt;Node8 -->
<g id="edge7" class="edge">
<title>Node1&#45;&gt;Node8</title>
<path fill="none" stroke="midnightblue" d="M380.61,-267.79C393.03,-296.48 421.09,-351.77 463,-380.5 469.05,-384.65 475.89,-387.9 482.97,-390.44"/>
<polygon fill="midnightblue" stroke="midnightblue" points="383.82,-266.4 376.74,-258.52 377.36,-269.09 383.82,-266.4"/>
</g>
<!-- Node9 -->
<g id="node9" class="node">
<title>Node9</title>
<g id="a_node9"><a xlink:href="class_ogre_1_1_g_l3_plus_depth_texture_target.html" target="_top" xlink:title=" ">
<polygon fill="none" stroke="black" points="473.84,-343.5 473.84,-371.5 615.46,-371.5 615.46,-343.5 473.84,-343.5"/>
<text text-anchor="start" x="481.84" y="-359.5" font-family="Helvetica,sans-Serif" font-size="10.00">Ogre::GL3PlusDepthTexture</text>
<text text-anchor="middle" x="544.65" y="-349.5" font-family="Helvetica,sans-Serif" font-size="10.00">Target</text>
</a>
</g>
</g>
<!-- Node1&#45;&gt;Node9 -->
<g id="edge8" class="edge">
<title>Node1&#45;&gt;Node9</title>
<path fill="none" stroke="midnightblue" d="M386.98,-266.34C403.22,-285.29 432.03,-315.73 463,-333.5 469.72,-337.35 477.11,-340.64 484.61,-343.43"/>
<polygon fill="midnightblue" stroke="midnightblue" points="389.55,-263.96 380.45,-258.53 384.18,-268.45 389.55,-263.96"/>
</g>
<!-- Node10 -->
<g id="node10" class="node">
<title>Node10</title>
<g id="a_node10"><a xlink:href="class_ogre_1_1_g_l3_plus_null_texture_target.html" target="_top" xlink:title=" ">
<polygon fill="none" stroke="black" points="478.57,-296.5 478.57,-324.5 610.73,-324.5 610.73,-296.5 478.57,-296.5"/>
<text text-anchor="start" x="486.57" y="-312.5" font-family="Helvetica,sans-Serif" font-size="10.00">Ogre::GL3PlusNullTexture</text>
<text text-anchor="middle" x="544.65" y="-302.5" font-family="Helvetica,sans-Serif" font-size="10.00">Target</text>
</a>
</g>
</g>
<!-- Node1&#45;&gt;Node10 -->
<g id="edge9" class="edge">
<title>Node1&#45;&gt;Node10</title>
<path fill="none" stroke="midnightblue" d="M403.3,-262.77C420.58,-270.19 442.83,-279.36 463,-286.5 472.78,-289.96 483.34,-293.35 493.49,-296.44"/>
<polygon fill="midnightblue" stroke="midnightblue" points="404.31,-259.39 393.74,-258.63 401.53,-265.82 404.31,-259.39"/>
</g>
<!-- Node11 -->
<g id="node11" class="node">
<title>Node11</title>
<g id="a_node11"><a xlink:href="class_ogre_1_1_g_l3_plus_render_texture.html" target="_top" xlink:title="Base class for GL Render Textures.">
<polygon fill="none" stroke="black" points="470.79,-259.5 470.79,-277.5 618.52,-277.5 618.52,-259.5 470.79,-259.5"/>
<text text-anchor="middle" x="544.65" y="-265.5" font-family="Helvetica,sans-Serif" font-size="10.00">Ogre::GL3PlusRenderTexture</text>
</a>
</g>
</g>
<!-- Node1&#45;&gt;Node11 -->
<g id="edge10" class="edge">
<title>Node1&#45;&gt;Node11</title>
<path fill="none" stroke="midnightblue" d="M437.39,-256.65C448.19,-257.85 459.48,-259.11 470.49,-260.34"/>
<polygon fill="midnightblue" stroke="midnightblue" points="437.54,-253.14 427.21,-255.51 436.76,-260.1 437.54,-253.14"/>
</g>
<!-- Node13 -->
<g id="node13" class="node">
<title>Node13</title>
<g id="a_node13"><a xlink:href="class_ogre_1_1_g_l_e_s2_depth_texture_target.html" target="_top" xlink:title=" ">
<polygon fill="none" stroke="black" points="463,-222.5 463,-240.5 626.3,-240.5 626.3,-222.5 463,-222.5"/>
<text text-anchor="middle" x="544.65" y="-228.5" font-family="Helvetica,sans-Serif" font-size="10.00">Ogre::GLES2DepthTextureTarget</text>
</a>
</g>
</g>
<!-- Node1&#45;&gt;Node13 -->
<g id="edge12" class="edge">
<title>Node1&#45;&gt;Node13</title>
<path fill="none" stroke="midnightblue" d="M437.2,-242.75C445.54,-241.87 454.16,-240.96 462.72,-240.05"/>
<polygon fill="midnightblue" stroke="midnightblue" points="436.79,-239.27 427.21,-243.8 437.52,-246.23 436.79,-239.27"/>
</g>
<!-- Node14 -->
<g id="node14" class="node">
<title>Node14</title>
<g id="a_node14"><a xlink:href="class_ogre_1_1_g_l_e_s2_null_texture_target.html" target="_top" xlink:title=" ">
<polygon fill="none" stroke="black" points="467.73,-185.5 467.73,-203.5 621.57,-203.5 621.57,-185.5 467.73,-185.5"/>
<text text-anchor="middle" x="544.65" y="-191.5" font-family="Helvetica,sans-Serif" font-size="10.00">Ogre::GLES2NullTextureTarget</text>
</a>
</g>
</g>
<!-- Node1&#45;&gt;Node14 -->
<g id="edge13" class="edge">
<title>Node1&#45;&gt;Node14</title>
<path fill="none" stroke="midnightblue" d="M402.1,-236.14C419.47,-228.46 442.19,-219.06 463,-212.5 473.81,-209.09 485.63,-206.07 496.8,-203.53"/>
<polygon fill="midnightblue" stroke="midnightblue" points="400.24,-233.14 392.55,-240.43 403.11,-239.53 400.24,-233.14"/>
</g>
<!-- Node15 -->
<g id="node15" class="node">
<title>Node15</title>
<g id="a_node15"><a xlink:href="class_ogre_1_1_g_l_e_s2_render_texture.html" target="_top" xlink:title="Base class for GL Render Textures.">
<polygon fill="none" stroke="black" points="473.84,-148.5 473.84,-166.5 615.46,-166.5 615.46,-148.5 473.84,-148.5"/>
<text text-anchor="middle" x="544.65" y="-154.5" font-family="Helvetica,sans-Serif" font-size="10.00">Ogre::GLES2RenderTexture</text>
</a>
</g>
</g>
<!-- Node1&#45;&gt;Node15 -->
<g id="edge14" class="edge">
<title>Node1&#45;&gt;Node15</title>
<path fill="none" stroke="midnightblue" d="M388.7,-232.84C405.36,-215.82 433.55,-189.9 463,-175.5 470.48,-171.85 478.71,-168.92 486.96,-166.59"/>
<polygon fill="midnightblue" stroke="midnightblue" points="385.86,-230.74 381.48,-240.39 390.92,-235.58 385.86,-230.74"/>
</g>
<!-- Node16 -->
<g id="node16" class="node">
<title>Node16</title>
<g id="a_node16"><a xlink:href="class_ogre_1_1_metal_depth_texture_target.html" target="_top" xlink:title=" ">
<polygon fill="none" stroke="black" points="466.9,-111.5 466.9,-129.5 622.41,-129.5 622.41,-111.5 466.9,-111.5"/>
<text text-anchor="middle" x="544.65" y="-117.5" font-family="Helvetica,sans-Serif" font-size="10.00">Ogre::MetalDepthTextureTarget</text>
</a>
</g>
</g>
<!-- Node1&#45;&gt;Node16 -->
<g id="edge15" class="edge">
<title>Node1&#45;&gt;Node16</title>
<path fill="none" stroke="midnightblue" d="M382.7,-231.48C396.7,-206.5 425.46,-161.8 463,-138.5 468.98,-134.79 475.62,-131.85 482.45,-129.5"/>
<polygon fill="midnightblue" stroke="midnightblue" points="379.62,-229.83 377.92,-240.29 385.77,-233.17 379.62,-229.83"/>
</g>
<!-- Node17 -->
<g id="node17" class="node">
<title>Node17</title>
<g id="a_node17"><a xlink:href="class_ogre_1_1_metal_null_texture_target.html" target="_top" xlink:title=" ">
<polygon fill="none" stroke="black" points="471.62,-74.5 471.62,-92.5 617.68,-92.5 617.68,-74.5 471.62,-74.5"/>
<text text-anchor="middle" x="544.65" y="-80.5" font-family="Helvetica,sans-Serif" font-size="10.00">Ogre::MetalNullTextureTarget</text>
</a>
</g>
</g>
<!-- Node1&#45;&gt;Node17 -->
<g id="edge16" class="edge">
<title>Node1&#45;&gt;Node17</title>
<path fill="none" stroke="midnightblue" d="M379.25,-230.62C390.3,-198.72 417.16,-134.42 463,-101.5 468.13,-97.82 473.88,-94.87 479.88,-92.51"/>
<polygon fill="midnightblue" stroke="midnightblue" points="375.82,-229.85 376,-240.45 382.46,-232.05 375.82,-229.85"/>
</g>
<!-- Node18 -->
<g id="node18" class="node">
<title>Node18</title>
<g id="a_node18"><a xlink:href="class_ogre_1_1_metal_render_texture.html" target="_top" xlink:title=" ">
<polygon fill="none" stroke="black" points="477.74,-37.5 477.74,-55.5 611.57,-55.5 611.57,-37.5 477.74,-37.5"/>
<text text-anchor="middle" x="544.65" y="-43.5" font-family="Helvetica,sans-Serif" font-size="10.00">Ogre::MetalRenderTexture</text>
</a>
</g>
</g>
<!-- Node1&#45;&gt;Node18 -->
<g id="edge17" class="edge">
<title>Node1&#45;&gt;Node18</title>
<path fill="none" stroke="midnightblue" d="M376.89,-230.26C384.99,-192.29 408.47,-107.66 463,-64.5 467.61,-60.85 472.82,-57.91 478.31,-55.54"/>
<polygon fill="midnightblue" stroke="midnightblue" points="373.38,-229.96 374.85,-240.45 380.24,-231.33 373.38,-229.96"/>
</g>
<!-- Node19 -->
<g id="node19" class="node">
<title>Node19</title>
<g id="a_node19"><a xlink:href="class_ogre_1_1_n_u_l_l_render_texture.html" target="_top" xlink:title=" ">
<polygon fill="none" stroke="black" points="477.18,-0.5 477.18,-18.5 612.12,-18.5 612.12,-0.5 477.18,-0.5"/>
<text text-anchor="middle" x="544.65" y="-6.5" font-family="Helvetica,sans-Serif" font-size="10.00">Ogre::NULLRenderTexture</text>
</a>
</g>
</g>
<!-- Node1&#45;&gt;Node19 -->
<g id="edge18" class="edge">
<title>Node1&#45;&gt;Node19</title>
<path fill="none" stroke="midnightblue" d="M375.2,-230.07C380.49,-186.64 399.55,-81.29 463,-27.5 467.27,-23.88 472.11,-20.95 477.25,-18.57"/>
<polygon fill="midnightblue" stroke="midnightblue" points="371.7,-229.83 374.09,-240.15 378.66,-230.6 371.7,-229.83"/>
</g>
<!-- Node2 -->
<g id="node2" class="node">
<title>Node2</title>
<g id="a_node2"><a xlink:href="class_ogre_1_1_render_target.html" target="_top" xlink:title="A &#39;canvas&#39; which can receive the results of a rendering operation.">
<polygon fill="none" stroke="black" points="177.24,-240.5 177.24,-258.5 281.62,-258.5 281.62,-240.5 177.24,-240.5"/>
<text text-anchor="middle" x="229.43" y="-246.5" font-family="Helvetica,sans-Serif" font-size="10.00">Ogre::RenderTarget</text>
</a>
</g>
</g>
<!-- Node2&#45;&gt;Node1 -->
<g id="edge1" class="edge">
<title>Node2&#45;&gt;Node1</title>
<path fill="none" stroke="midnightblue" d="M291.95,-249.5C300.45,-249.5 309.13,-249.5 317.48,-249.5"/>
<polygon fill="midnightblue" stroke="midnightblue" points="291.69,-246 281.69,-249.5 291.69,-253 291.69,-246"/>
</g>
<!-- Node3 -->
<g id="node3" class="node">
<title>Node3</title>
<g id="a_node3"><a xlink:href="struct_ogre_1_1_gpu_tracked_resource.html" target="_top" xlink:title=" ">
<polygon fill="none" stroke="black" points="0,-259.5 0,-277.5 141.24,-277.5 141.24,-259.5 0,-259.5"/>
<text text-anchor="middle" x="70.62" y="-265.5" font-family="Helvetica,sans-Serif" font-size="10.00">Ogre::GpuTrackedResource</text>
</a>
</g>
</g>
<!-- Node3&#45;&gt;Node2 -->
<g id="edge2" class="edge">
<title>Node3&#45;&gt;Node2</title>
<path fill="none" stroke="midnightblue" d="M151.43,-258.83C160.06,-257.78 168.67,-256.74 176.83,-255.75"/>
<polygon fill="midnightblue" stroke="midnightblue" points="150.82,-255.38 141.32,-260.06 151.66,-262.33 150.82,-255.38"/>
</g>
<!-- Node4 -->
<g id="node4" class="node">
<title>Node4</title>
<g id="a_node4"><a xlink:href="class_ogre_1_1_allocated_object.html" target="_top" xlink:title="Superclass for all objects that wish to use custom memory allocators when their new / delete operator...">
<polygon fill="none" stroke="black" points="27.05,-222.5 27.05,-240.5 114.19,-240.5 114.19,-222.5 27.05,-222.5"/>
<text text-anchor="middle" x="70.62" y="-228.5" font-family="Helvetica,sans-Serif" font-size="10.00">RenderSysAlloc</text>
</a>
</g>
</g>
<!-- Node4&#45;&gt;Node2 -->
<g id="edge3" class="edge">
<title>Node4&#45;&gt;Node2</title>
<path fill="none" stroke="midnightblue" d="M124.72,-237.6C141.6,-239.53 160.23,-241.67 176.99,-243.6"/>
<polygon fill="midnightblue" stroke="midnightblue" points="124.81,-234.08 114.47,-236.42 124.01,-241.04 124.81,-234.08"/>
</g>
<!-- Node12 -->
<g id="node12" class="node">
<title>Node12</title>
<g id="a_node12"><a xlink:href="class_ogre_1_1_g_l3_plus_f_b_o_render_texture.html" target="_top" xlink:title="RenderTexture for GL FBO.">
<polygon fill="none" stroke="black" points="662.3,-259.5 662.3,-277.5 830.59,-277.5 830.59,-259.5 662.3,-259.5"/>
<text text-anchor="middle" x="746.45" y="-265.5" font-family="Helvetica,sans-Serif" font-size="10.00">Ogre::GL3PlusFBORenderTexture</text>
</a>
</g>
</g>
<!-- Node11&#45;&gt;Node12 -->
<g id="edge11" class="edge">
<title>Node11&#45;&gt;Node12</title>
<path fill="none" stroke="midnightblue" d="M628.7,-268.5C639.76,-268.5 651.11,-268.5 662.18,-268.5"/>
<polygon fill="midnightblue" stroke="midnightblue" points="628.63,-265 618.63,-268.5 628.63,-272 628.63,-265"/>
</g>
</g>
</svg>
