<?xml version="1.0" encoding="UTF-8" standalone="no"?>
<!DOCTYPE svg PUBLIC "-//W3C//DTD SVG 1.1//EN"
 "http://www.w3.org/Graphics/SVG/1.1/DTD/svg11.dtd">
<!-- Generated by graphviz version 2.43.0 (0)
 -->
<!-- Title: Ogre::CompositorWorkspaceListener Pages: 1 -->
<svg width="380pt" height="147pt"
 viewBox="0.00 0.00 380.47 147.00" xmlns="http://www.w3.org/2000/svg" xmlns:xlink="http://www.w3.org/1999/xlink">
<g id="graph0" class="graph" transform="scale(1 1) rotate(0) translate(4 143)">
<title>Ogre::CompositorWorkspaceListener</title>
<!-- Node1 -->
<g id="node1" class="node">
<title>Node1</title>
<g id="a_node1"><a xlink:title=" ">
<polygon fill="#bfbfbf" stroke="black" points="108.21,-110.5 108.21,-138.5 252.97,-138.5 252.97,-110.5 108.21,-110.5"/>
<text text-anchor="start" x="116.21" y="-126.5" font-family="Helvetica,sans-Serif" font-size="10.00">Ogre::CompositorWorkspace</text>
<text text-anchor="middle" x="180.59" y="-116.5" font-family="Helvetica,sans-Serif" font-size="10.00">Listener</text>
</a>
</g>
</g>
<!-- Node2 -->
<g id="node2" class="node">
<title>Node2</title>
<g id="a_node2"><a xlink:href="class_ogre_1_1_parallax_corrected_cubemap_base.html" target="_top" xlink:title=" ">
<polygon fill="none" stroke="black" points="85.6,-55.5 85.6,-73.5 275.58,-73.5 275.58,-55.5 85.6,-55.5"/>
<text text-anchor="middle" x="180.59" y="-61.5" font-family="Helvetica,sans-Serif" font-size="10.00">Ogre::ParallaxCorrectedCubemapBase</text>
</a>
</g>
</g>
<!-- Node1&#45;&gt;Node2 -->
<g id="edge1" class="edge">
<title>Node1&#45;&gt;Node2</title>
<path fill="none" stroke="midnightblue" d="M180.59,-100.32C180.59,-90.94 180.59,-80.7 180.59,-73.77"/>
<polygon fill="midnightblue" stroke="midnightblue" points="177.09,-100.34 180.59,-110.34 184.09,-100.34 177.09,-100.34"/>
</g>
<!-- Node3 -->
<g id="node3" class="node">
<title>Node3</title>
<g id="a_node3"><a xlink:href="class_ogre_1_1_parallax_corrected_cubemap.html" target="_top" xlink:title=" ">
<polygon fill="none" stroke="black" points="0,-0.5 0,-18.5 167.18,-18.5 167.18,-0.5 0,-0.5"/>
<text text-anchor="middle" x="83.59" y="-6.5" font-family="Helvetica,sans-Serif" font-size="10.00">Ogre::ParallaxCorrectedCubemap</text>
</a>
</g>
</g>
<!-- Node2&#45;&gt;Node3 -->
<g id="edge2" class="edge">
<title>Node2&#45;&gt;Node3</title>
<path fill="none" stroke="midnightblue" d="M156.99,-50.6C138.74,-40.63 114.04,-27.14 98.46,-18.63"/>
<polygon fill="midnightblue" stroke="midnightblue" points="155.4,-53.73 165.86,-55.45 158.76,-47.58 155.4,-53.73"/>
</g>
<!-- Node4 -->
<g id="node4" class="node">
<title>Node4</title>
<g id="a_node4"><a xlink:href="class_ogre_1_1_parallax_corrected_cubemap_auto.html" target="_top" xlink:title=" ">
<polygon fill="none" stroke="black" points="184.71,-0.5 184.71,-18.5 372.47,-18.5 372.47,-0.5 184.71,-0.5"/>
<text text-anchor="middle" x="278.59" y="-6.5" font-family="Helvetica,sans-Serif" font-size="10.00">Ogre::ParallaxCorrectedCubemapAuto</text>
</a>
</g>
</g>
<!-- Node2&#45;&gt;Node4 -->
<g id="edge3" class="edge">
<title>Node2&#45;&gt;Node4</title>
<path fill="none" stroke="midnightblue" d="M204.44,-50.6C222.87,-40.63 247.83,-27.14 263.57,-18.63"/>
<polygon fill="midnightblue" stroke="midnightblue" points="202.61,-47.61 195.47,-55.45 205.94,-53.77 202.61,-47.61"/>
</g>
</g>
</svg>
