<?xml version="1.0" encoding="UTF-8" standalone="no"?>
<!DOCTYPE svg PUBLIC "-//W3C//DTD SVG 1.1//EN"
 "http://www.w3.org/Graphics/SVG/1.1/DTD/svg11.dtd">
<!-- Generated by graphviz version 2.43.0 (0)
 -->
<!-- Title: Ogre::HlmsComputeJob Pages: 1 -->
<svg width="216pt" height="82pt"
 viewBox="0.00 0.00 216.48 82.00" xmlns="http://www.w3.org/2000/svg" xmlns:xlink="http://www.w3.org/1999/xlink">
<g id="graph0" class="graph" transform="scale(1 1) rotate(0) translate(4 78)">
<title>Ogre::HlmsComputeJob</title>
<!-- Node1 -->
<g id="node1" class="node">
<title>Node1</title>
<g id="a_node1"><a xlink:title=" ">
<polygon fill="#bfbfbf" stroke="black" points="24.32,-0.5 24.32,-18.5 147.58,-18.5 147.58,-0.5 24.32,-0.5"/>
<text text-anchor="middle" x="85.95" y="-6.5" font-family="Helvetica,sans-Serif" font-size="10.00">Ogre::HlmsComputeJob</text>
</a>
</g>
</g>
<!-- Node2 -->
<g id="node2" class="node">
<title>Node2</title>
<g id="a_node2"><a xlink:href="class_ogre_1_1_allocated_object.html" target="_top" xlink:title="Superclass for all objects that wish to use custom memory allocators when their new / delete operator...">
<polygon fill="none" stroke="black" points="0,-55.5 0,-73.5 59.91,-73.5 59.91,-55.5 0,-55.5"/>
<text text-anchor="middle" x="29.95" y="-61.5" font-family="Helvetica,sans-Serif" font-size="10.00">PassAlloc</text>
</a>
</g>
</g>
<!-- Node2&#45;&gt;Node1 -->
<g id="edge1" class="edge">
<title>Node2&#45;&gt;Node1</title>
<path fill="none" stroke="midnightblue" d="M46.21,-48.11C56.43,-38.44 69.19,-26.37 77.45,-18.55"/>
<polygon fill="midnightblue" stroke="midnightblue" points="43.56,-45.8 38.7,-55.22 48.37,-50.89 43.56,-45.8"/>
</g>
<!-- Node3 -->
<g id="node3" class="node">
<title>Node3</title>
<g id="a_node3"><a xlink:href="class_ogre_1_1_texture_gpu_listener.html" target="_top" xlink:title=" ">
<polygon fill="none" stroke="black" points="77.42,-55.5 77.42,-73.5 208.48,-73.5 208.48,-55.5 77.42,-55.5"/>
<text text-anchor="middle" x="142.95" y="-61.5" font-family="Helvetica,sans-Serif" font-size="10.00">Ogre::TextureGpuListener</text>
</a>
</g>
</g>
<!-- Node3&#45;&gt;Node1 -->
<g id="edge2" class="edge">
<title>Node3&#45;&gt;Node1</title>
<path fill="none" stroke="midnightblue" d="M126.71,-48.4C116.26,-38.68 103.1,-26.45 94.61,-18.55"/>
<polygon fill="midnightblue" stroke="midnightblue" points="124.34,-50.97 134.05,-55.22 129.11,-45.85 124.34,-50.97"/>
</g>
</g>
</svg>
