<?xml version="1.0" encoding="UTF-8" standalone="no"?>
<!DOCTYPE svg PUBLIC "-//W3C//DTD SVG 1.1//EN"
 "http://www.w3.org/Graphics/SVG/1.1/DTD/svg11.dtd">
<!-- Generated by graphviz version 2.43.0 (0)
 -->
<!-- Title: Ogre::CompositorNode Pages: 1 -->
<svg width="212pt" height="137pt"
 viewBox="0.00 0.00 211.98 137.00" xmlns="http://www.w3.org/2000/svg" xmlns:xlink="http://www.w3.org/1999/xlink">
<g id="graph0" class="graph" transform="scale(1 1) rotate(0) translate(4 133)">
<title>Ogre::CompositorNode</title>
<!-- Node1 -->
<g id="node1" class="node">
<title>Node1</title>
<g id="a_node1"><a xlink:title="Compositor nodes are the core subject of compositing.">
<polygon fill="#bfbfbf" stroke="black" points="48.05,-55.5 48.05,-73.5 166.87,-73.5 166.87,-55.5 48.05,-55.5"/>
<text text-anchor="middle" x="107.46" y="-61.5" font-family="Helvetica,sans-Serif" font-size="10.00">Ogre::CompositorNode</text>
</a>
</g>
</g>
<!-- Node4 -->
<g id="node4" class="node">
<title>Node4</title>
<g id="a_node4"><a xlink:href="class_ogre_1_1_compositor_shadow_node.html" target="_top" xlink:title="Shadow Nodes are special nodes (not to be confused with.">
<polygon fill="none" stroke="black" points="29.98,-0.5 29.98,-18.5 184.94,-18.5 184.94,-0.5 29.98,-0.5"/>
<text text-anchor="middle" x="107.46" y="-6.5" font-family="Helvetica,sans-Serif" font-size="10.00">Ogre::CompositorShadowNode</text>
</a>
</g>
</g>
<!-- Node1&#45;&gt;Node4 -->
<g id="edge3" class="edge">
<title>Node1&#45;&gt;Node4</title>
<path fill="none" stroke="midnightblue" d="M107.46,-45.17C107.46,-36.09 107.46,-25.59 107.46,-18.55"/>
<polygon fill="midnightblue" stroke="midnightblue" points="103.96,-45.22 107.46,-55.22 110.96,-45.22 103.96,-45.22"/>
</g>
<!-- Node2 -->
<g id="node2" class="node">
<title>Node2</title>
<g id="a_node2"><a xlink:href="class_ogre_1_1_allocated_object.html" target="_top" xlink:title="Superclass for all objects that wish to use custom memory allocators when their new / delete operator...">
<polygon fill="none" stroke="black" points="0,-110.5 0,-128.5 104.92,-128.5 104.92,-110.5 0,-110.5"/>
<text text-anchor="middle" x="52.46" y="-116.5" font-family="Helvetica,sans-Serif" font-size="10.00">CompositorInstAlloc</text>
</a>
</g>
</g>
<!-- Node2&#45;&gt;Node1 -->
<g id="edge1" class="edge">
<title>Node2&#45;&gt;Node1</title>
<path fill="none" stroke="midnightblue" d="M68.43,-103.11C78.46,-93.44 90.99,-81.37 99.11,-73.55"/>
<polygon fill="midnightblue" stroke="midnightblue" points="65.83,-100.76 61.05,-110.22 70.68,-105.8 65.83,-100.76"/>
</g>
<!-- Node3 -->
<g id="node3" class="node">
<title>Node3</title>
<g id="a_node3"><a xlink:href="class_ogre_1_1_id_object.html" target="_top" xlink:title=" ">
<polygon fill="none" stroke="black" points="122.95,-110.5 122.95,-128.5 203.98,-128.5 203.98,-110.5 122.95,-110.5"/>
<text text-anchor="middle" x="163.46" y="-116.5" font-family="Helvetica,sans-Serif" font-size="10.00">Ogre::IdObject</text>
</a>
</g>
</g>
<!-- Node3&#45;&gt;Node1 -->
<g id="edge2" class="edge">
<title>Node3&#45;&gt;Node1</title>
<path fill="none" stroke="midnightblue" d="M147.2,-103.11C136.99,-93.44 124.23,-81.37 115.97,-73.55"/>
<polygon fill="midnightblue" stroke="midnightblue" points="145.04,-105.89 154.71,-110.22 149.85,-100.8 145.04,-105.89"/>
</g>
</g>
</svg>
