<?xml version="1.0" encoding="UTF-8" standalone="no"?>
<!DOCTYPE svg PUBLIC "-//W3C//DTD SVG 1.1//EN"
 "http://www.w3.org/Graphics/SVG/1.1/DTD/svg11.dtd">
<!-- Generated by graphviz version 2.43.0 (0)
 -->
<!-- Title: Ogre::RaySceneQueryListener Pages: 1 -->
<svg width="463pt" height="192pt"
 viewBox="0.00 0.00 462.77 192.00" xmlns="http://www.w3.org/2000/svg" xmlns:xlink="http://www.w3.org/1999/xlink">
<g id="graph0" class="graph" transform="scale(1 1) rotate(0) translate(4 188)">
<title>Ogre::RaySceneQueryListener</title>
<!-- Node1 -->
<g id="node1" class="node">
<title>Node1</title>
<g id="a_node1"><a xlink:title="Alternative listener class for dealing with RaySceneQuery.">
<polygon fill="#bfbfbf" stroke="black" points="149.83,-165.5 149.83,-183.5 302.56,-183.5 302.56,-165.5 149.83,-165.5"/>
<text text-anchor="middle" x="226.19" y="-171.5" font-family="Helvetica,sans-Serif" font-size="10.00">Ogre::RaySceneQueryListener</text>
</a>
</g>
</g>
<!-- Node2 -->
<g id="node2" class="node">
<title>Node2</title>
<g id="a_node2"><a xlink:href="class_ogre_1_1_ray_scene_query.html" target="_top" xlink:title="Specialises the SceneQuery class for querying along a ray.">
<polygon fill="none" stroke="black" points="167.62,-110.5 167.62,-128.5 284.77,-128.5 284.77,-110.5 167.62,-110.5"/>
<text text-anchor="middle" x="226.19" y="-116.5" font-family="Helvetica,sans-Serif" font-size="10.00">Ogre::RaySceneQuery</text>
</a>
</g>
</g>
<!-- Node1&#45;&gt;Node2 -->
<g id="edge1" class="edge">
<title>Node1&#45;&gt;Node2</title>
<path fill="none" stroke="midnightblue" d="M226.19,-155.17C226.19,-146.09 226.19,-135.59 226.19,-128.55"/>
<polygon fill="midnightblue" stroke="midnightblue" points="222.69,-155.22 226.19,-165.22 229.69,-155.22 222.69,-155.22"/>
</g>
<!-- Node3 -->
<g id="node3" class="node">
<title>Node3</title>
<g id="a_node3"><a xlink:href="class_ogre_1_1_default_ray_scene_query.html" target="_top" xlink:title="Default implementation of RaySceneQuery.">
<polygon fill="none" stroke="black" points="151.77,-55.5 151.77,-73.5 300.62,-73.5 300.62,-55.5 151.77,-55.5"/>
<text text-anchor="middle" x="226.19" y="-61.5" font-family="Helvetica,sans-Serif" font-size="10.00">Ogre::DefaultRaySceneQuery</text>
</a>
</g>
</g>
<!-- Node2&#45;&gt;Node3 -->
<g id="edge2" class="edge">
<title>Node2&#45;&gt;Node3</title>
<path fill="none" stroke="midnightblue" d="M226.19,-100.17C226.19,-91.09 226.19,-80.59 226.19,-73.55"/>
<polygon fill="midnightblue" stroke="midnightblue" points="222.69,-100.22 226.19,-110.22 229.69,-100.22 222.69,-100.22"/>
</g>
<!-- Node4 -->
<g id="node4" class="node">
<title>Node4</title>
<g id="a_node4"><a xlink:href="class_ogre_1_1_bsp_ray_scene_query.html" target="_top" xlink:title="BSP specialisation of RaySceneQuery.">
<polygon fill="none" stroke="black" points="0,-0.5 0,-18.5 134.39,-18.5 134.39,-0.5 0,-0.5"/>
<text text-anchor="middle" x="67.19" y="-6.5" font-family="Helvetica,sans-Serif" font-size="10.00">Ogre::BspRaySceneQuery</text>
</a>
</g>
</g>
<!-- Node3&#45;&gt;Node4 -->
<g id="edge3" class="edge">
<title>Node3&#45;&gt;Node4</title>
<path fill="none" stroke="midnightblue" d="M192.31,-52.21C161.97,-42.09 118.22,-27.51 91.31,-18.54"/>
<polygon fill="midnightblue" stroke="midnightblue" points="191.45,-55.61 202.05,-55.45 193.67,-48.97 191.45,-55.61"/>
</g>
<!-- Node5 -->
<g id="node5" class="node">
<title>Node5</title>
<g id="a_node5"><a xlink:href="class_ogre_1_1_octree_ray_scene_query.html" target="_top" xlink:title="Octree implementation of RaySceneQuery.">
<polygon fill="none" stroke="black" points="152.61,-0.5 152.61,-18.5 299.78,-18.5 299.78,-0.5 152.61,-0.5"/>
<text text-anchor="middle" x="226.19" y="-6.5" font-family="Helvetica,sans-Serif" font-size="10.00">Ogre::OctreeRaySceneQuery</text>
</a>
</g>
</g>
<!-- Node3&#45;&gt;Node5 -->
<g id="edge4" class="edge">
<title>Node3&#45;&gt;Node5</title>
<path fill="none" stroke="midnightblue" d="M226.19,-45.17C226.19,-36.09 226.19,-25.59 226.19,-18.55"/>
<polygon fill="midnightblue" stroke="midnightblue" points="222.69,-45.22 226.19,-55.22 229.69,-45.22 222.69,-45.22"/>
</g>
<!-- Node6 -->
<g id="node6" class="node">
<title>Node6</title>
<g id="a_node6"><a xlink:href="class_ogre_1_1_p_c_z_ray_scene_query.html" target="_top" xlink:title="PCZ implementation of RaySceneQuery.">
<polygon fill="none" stroke="black" points="317.62,-0.5 317.62,-18.5 454.77,-18.5 454.77,-0.5 317.62,-0.5"/>
<text text-anchor="middle" x="386.19" y="-6.5" font-family="Helvetica,sans-Serif" font-size="10.00">Ogre::PCZRaySceneQuery</text>
</a>
</g>
</g>
<!-- Node3&#45;&gt;Node6 -->
<g id="edge5" class="edge">
<title>Node3&#45;&gt;Node6</title>
<path fill="none" stroke="midnightblue" d="M260.29,-52.21C290.82,-42.09 334.84,-27.51 361.93,-18.54"/>
<polygon fill="midnightblue" stroke="midnightblue" points="258.89,-48.98 250.49,-55.45 261.09,-55.63 258.89,-48.98"/>
</g>
</g>
</svg>
