<?xml version="1.0" encoding="UTF-8" standalone="no"?>
<!DOCTYPE svg PUBLIC "-//W3C//DTD SVG 1.1//EN"
 "http://www.w3.org/Graphics/SVG/1.1/DTD/svg11.dtd">
<!-- Generated by graphviz version 2.43.0 (0)
 -->
<!-- Title: Ogre::SkeletonManager Pages: 1 -->
<svg width="240pt" height="92pt"
 viewBox="0.00 0.00 239.75 92.00" xmlns="http://www.w3.org/2000/svg" xmlns:xlink="http://www.w3.org/1999/xlink">
<g id="graph0" class="graph" transform="scale(1 1) rotate(0) translate(4 88)">
<title>Ogre::SkeletonManager</title>
<!-- Node1 -->
<g id="node1" class="node">
<title>Node1</title>
<g id="a_node1"><a xlink:title="Handles the management of skeleton resources.">
<polygon fill="#bfbfbf" stroke="black" points="67.42,-0.5 67.42,-18.5 189.6,-18.5 189.6,-0.5 67.42,-0.5"/>
<text text-anchor="middle" x="128.51" y="-6.5" font-family="Helvetica,sans-Serif" font-size="10.00">Ogre::SkeletonManager</text>
</a>
</g>
</g>
<!-- Node2 -->
<g id="node2" class="node">
<title>Node2</title>
<g id="a_node2"><a xlink:href="class_ogre_1_1_singleton.html" target="_top" xlink:title=" ">
<polygon fill="none" stroke="black" points="0,-55.5 0,-83.5 133.02,-83.5 133.02,-55.5 0,-55.5"/>
<text text-anchor="start" x="8" y="-71.5" font-family="Helvetica,sans-Serif" font-size="10.00">Ogre::Singleton&lt; Skeleton</text>
<text text-anchor="middle" x="66.51" y="-61.5" font-family="Helvetica,sans-Serif" font-size="10.00">Manager &gt;</text>
</a>
</g>
</g>
<!-- Node2&#45;&gt;Node1 -->
<g id="edge1" class="edge">
<title>Node2&#45;&gt;Node1</title>
<path fill="none" stroke="midnightblue" d="M88.09,-48.32C98.93,-38.18 111.47,-26.45 119.67,-18.77"/>
<polygon fill="midnightblue" stroke="midnightblue" points="85.49,-45.95 80.58,-55.34 90.27,-51.06 85.49,-45.95"/>
</g>
<!-- Node3 -->
<g id="node3" class="node">
<title>Node3</title>
<g id="a_node3"><a xlink:href="class_ogre_1_1_allocated_object.html" target="_top" xlink:title="Superclass for all objects that wish to use custom memory allocators when their new / delete operator...">
<polygon fill="none" stroke="black" points="151.27,-60.5 151.27,-78.5 231.75,-78.5 231.75,-60.5 151.27,-60.5"/>
<text text-anchor="middle" x="191.51" y="-66.5" font-family="Helvetica,sans-Serif" font-size="10.00">ResourceAlloc</text>
</a>
</g>
</g>
<!-- Node3&#45;&gt;Node1 -->
<g id="edge2" class="edge">
<title>Node3&#45;&gt;Node1</title>
<path fill="none" stroke="midnightblue" d="M175.2,-53.48C163.23,-42.46 147.41,-27.9 137.6,-18.87"/>
<polygon fill="midnightblue" stroke="midnightblue" points="173.02,-56.24 182.75,-60.44 177.76,-51.09 173.02,-56.24"/>
</g>
</g>
</svg>
