<?xml version="1.0" encoding="UTF-8" standalone="no"?>
<!DOCTYPE svg PUBLIC "-//W3C//DTD SVG 1.1//EN"
 "http://www.w3.org/Graphics/SVG/1.1/DTD/svg11.dtd">
<!-- Generated by graphviz version 2.43.0 (0)
 -->
<!-- Title: Ogre::SceneFormatBase Pages: 1 -->
<svg width="308pt" height="82pt"
 viewBox="0.00 0.00 308.32 82.00" xmlns="http://www.w3.org/2000/svg" xmlns:xlink="http://www.w3.org/1999/xlink">
<g id="graph0" class="graph" transform="scale(1 1) rotate(0) translate(4 78)">
<title>Ogre::SceneFormatBase</title>
<!-- Node1 -->
<g id="node1" class="node">
<title>Node1</title>
<g id="a_node1"><a xlink:title=" ">
<polygon fill="#bfbfbf" stroke="black" points="86.5,-55.5 86.5,-73.5 213.11,-73.5 213.11,-55.5 86.5,-55.5"/>
<text text-anchor="middle" x="149.8" y="-61.5" font-family="Helvetica,sans-Serif" font-size="10.00">Ogre::SceneFormatBase</text>
</a>
</g>
</g>
<!-- Node2 -->
<g id="node2" class="node">
<title>Node2</title>
<g id="a_node2"><a xlink:href="class_ogre_1_1_scene_format_exporter.html" target="_top" xlink:title=" ">
<polygon fill="none" stroke="black" points="0,-0.5 0,-18.5 141.61,-18.5 141.61,-0.5 0,-0.5"/>
<text text-anchor="middle" x="70.8" y="-6.5" font-family="Helvetica,sans-Serif" font-size="10.00">Ogre::SceneFormatExporter</text>
</a>
</g>
</g>
<!-- Node1&#45;&gt;Node2 -->
<g id="edge1" class="edge">
<title>Node1&#45;&gt;Node2</title>
<path fill="none" stroke="midnightblue" d="M129.34,-49.77C114.62,-39.89 95.25,-26.9 82.91,-18.63"/>
<polygon fill="midnightblue" stroke="midnightblue" points="127.55,-52.79 137.8,-55.45 131.45,-46.97 127.55,-52.79"/>
</g>
<!-- Node3 -->
<g id="node3" class="node">
<title>Node3</title>
<g id="a_node3"><a xlink:href="class_ogre_1_1_scene_format_importer.html" target="_top" xlink:title=" ">
<polygon fill="none" stroke="black" points="159.28,-0.5 159.28,-18.5 300.32,-18.5 300.32,-0.5 159.28,-0.5"/>
<text text-anchor="middle" x="229.8" y="-6.5" font-family="Helvetica,sans-Serif" font-size="10.00">Ogre::SceneFormatImporter</text>
</a>
</g>
</g>
<!-- Node1&#45;&gt;Node3 -->
<g id="edge2" class="edge">
<title>Node1&#45;&gt;Node3</title>
<path fill="none" stroke="midnightblue" d="M170.52,-49.77C185.43,-39.89 205.04,-26.9 217.54,-18.63"/>
<polygon fill="midnightblue" stroke="midnightblue" points="168.36,-47.01 161.95,-55.45 172.22,-52.85 168.36,-47.01"/>
</g>
</g>
</svg>
