<?xml version="1.0" encoding="UTF-8" standalone="no"?>
<!DOCTYPE svg PUBLIC "-//W3C//DTD SVG 1.1//EN"
 "http://www.w3.org/Graphics/SVG/1.1/DTD/svg11.dtd">
<!-- Generated by graphviz version 2.43.0 (0)
 -->
<!-- Title: Ogre::ResourceManager Pages: 1 -->
<svg width="669pt" height="397pt"
 viewBox="0.00 0.00 669.14 397.00" xmlns="http://www.w3.org/2000/svg" xmlns:xlink="http://www.w3.org/1999/xlink">
<g id="graph0" class="graph" transform="scale(1 1) rotate(0) translate(4 393)">
<title>Ogre::ResourceManager</title>
<!-- Node1 -->
<g id="node1" class="node">
<title>Node1</title>
<g id="a_node1"><a xlink:title="Defines a generic resource handler.">
<polygon fill="#bfbfbf" stroke="black" points="136.49,-185.5 136.49,-203.5 262.54,-203.5 262.54,-185.5 136.49,-185.5"/>
<text text-anchor="middle" x="199.51" y="-191.5" font-family="Helvetica,sans-Serif" font-size="10.00">Ogre::ResourceManager</text>
</a>
</g>
</g>
<!-- Node4 -->
<g id="node4" class="node">
<title>Node4</title>
<g id="a_node4"><a xlink:href="class_ogre_1_1_bsp_resource_manager.html" target="_top" xlink:title="Manages the locating and loading of BSP&#45;based indoor levels.">
<polygon fill="none" stroke="black" points="303.82,-343.5 303.82,-361.5 447.11,-361.5 447.11,-343.5 303.82,-343.5"/>
<text text-anchor="middle" x="375.47" y="-349.5" font-family="Helvetica,sans-Serif" font-size="10.00">Ogre::BspResourceManager</text>
</a>
</g>
</g>
<!-- Node1&#45;&gt;Node4 -->
<g id="edge3" class="edge">
<title>Node1&#45;&gt;Node4</title>
<path fill="none" stroke="midnightblue" d="M208.24,-213.19C221.8,-243.6 252.86,-303.49 298.54,-334.5 303.92,-338.15 309.95,-341.07 316.2,-343.39"/>
<polygon fill="midnightblue" stroke="midnightblue" points="211.35,-211.56 204.17,-203.76 204.92,-214.33 211.35,-211.56"/>
</g>
<!-- Node5 -->
<g id="node5" class="node">
<title>Node5</title>
<g id="a_node5"><a xlink:href="class_ogre_1_1_font_manager.html" target="_top" xlink:title="Manages Font resources, parsing .fontdef files and generally organising them.">
<polygon fill="none" stroke="black" points="323.83,-306.5 323.83,-324.5 427.1,-324.5 427.1,-306.5 323.83,-306.5"/>
<text text-anchor="middle" x="375.47" y="-312.5" font-family="Helvetica,sans-Serif" font-size="10.00">Ogre::FontManager</text>
</a>
</g>
</g>
<!-- Node1&#45;&gt;Node5 -->
<g id="edge4" class="edge">
<title>Node1&#45;&gt;Node5</title>
<path fill="none" stroke="midnightblue" d="M212.27,-212.14C228.74,-235.39 260.91,-275.88 298.54,-297.5 306.18,-301.89 314.83,-305.21 323.49,-307.72"/>
<polygon fill="midnightblue" stroke="midnightblue" points="214.95,-209.85 206.39,-203.6 209.18,-213.82 214.95,-209.85"/>
</g>
<!-- Node6 -->
<g id="node6" class="node">
<title>Node6</title>
<g id="a_node6"><a xlink:href="class_ogre_1_1_gpu_program_manager.html" target="_top" xlink:title=" ">
<polygon fill="none" stroke="black" points="305.22,-269.5 305.22,-287.5 445.72,-287.5 445.72,-269.5 305.22,-269.5"/>
<text text-anchor="middle" x="375.47" y="-275.5" font-family="Helvetica,sans-Serif" font-size="10.00">Ogre::GpuProgramManager</text>
</a>
</g>
</g>
<!-- Node1&#45;&gt;Node6 -->
<g id="edge5" class="edge">
<title>Node1&#45;&gt;Node6</title>
<path fill="none" stroke="midnightblue" d="M219,-209.95C237.86,-224.97 268.55,-247.37 298.54,-260.5 306.73,-264.09 315.75,-267.02 324.61,-269.4"/>
<polygon fill="midnightblue" stroke="midnightblue" points="221.18,-207.21 211.21,-203.63 216.77,-212.65 221.18,-207.21"/>
</g>
<!-- Node12 -->
<g id="node12" class="node">
<title>Node12</title>
<g id="a_node12"><a xlink:href="class_ogre_1_1_high_level_gpu_program_manager.html" target="_top" xlink:title="This ResourceManager manages high&#45;level vertex and fragment programs.">
<polygon fill="none" stroke="black" points="302.71,-222.5 302.71,-250.5 448.22,-250.5 448.22,-222.5 302.71,-222.5"/>
<text text-anchor="start" x="310.71" y="-238.5" font-family="Helvetica,sans-Serif" font-size="10.00">Ogre::HighLevelGpuProgram</text>
<text text-anchor="middle" x="375.47" y="-228.5" font-family="Helvetica,sans-Serif" font-size="10.00">Manager</text>
</a>
</g>
</g>
<!-- Node1&#45;&gt;Node12 -->
<g id="edge11" class="edge">
<title>Node1&#45;&gt;Node12</title>
<path fill="none" stroke="midnightblue" d="M247.57,-205.86C268.75,-210.98 293.98,-217.07 316.33,-222.46"/>
<polygon fill="midnightblue" stroke="midnightblue" points="248.37,-202.45 237.83,-203.51 246.73,-209.26 248.37,-202.45"/>
</g>
<!-- Node13 -->
<g id="node13" class="node">
<title>Node13</title>
<g id="a_node13"><a xlink:href="class_ogre_1_1_material_manager.html" target="_top" xlink:title="Class for managing Material settings for Ogre.">
<polygon fill="none" stroke="black" points="316.06,-185.5 316.06,-203.5 434.88,-203.5 434.88,-185.5 316.06,-185.5"/>
<text text-anchor="middle" x="375.47" y="-191.5" font-family="Helvetica,sans-Serif" font-size="10.00">Ogre::MaterialManager</text>
</a>
</g>
</g>
<!-- Node1&#45;&gt;Node13 -->
<g id="edge12" class="edge">
<title>Node1&#45;&gt;Node13</title>
<path fill="none" stroke="midnightblue" d="M273.07,-194.5C287.31,-194.5 302.07,-194.5 315.79,-194.5"/>
<polygon fill="midnightblue" stroke="midnightblue" points="272.82,-191 262.82,-194.5 272.82,-198 272.82,-191"/>
</g>
<!-- Node14 -->
<g id="node14" class="node">
<title>Node14</title>
<g id="a_node14"><a xlink:href="class_ogre_1_1_mesh_manager.html" target="_top" xlink:title="Handles the management of mesh resources.">
<polygon fill="none" stroke="black" points="321.61,-148.5 321.61,-166.5 429.32,-166.5 429.32,-148.5 321.61,-148.5"/>
<text text-anchor="middle" x="375.47" y="-154.5" font-family="Helvetica,sans-Serif" font-size="10.00">Ogre::MeshManager</text>
</a>
</g>
</g>
<!-- Node1&#45;&gt;Node14 -->
<g id="edge13" class="edge">
<title>Node1&#45;&gt;Node14</title>
<path fill="none" stroke="midnightblue" d="M252.88,-183.36C278.2,-177.98 308.19,-171.6 332.05,-166.52"/>
<polygon fill="midnightblue" stroke="midnightblue" points="252.12,-179.94 243.07,-185.45 253.58,-186.79 252.12,-179.94"/>
</g>
<!-- Node15 -->
<g id="node15" class="node">
<title>Node15</title>
<g id="a_node15"><a xlink:href="class_ogre_1_1_texture_manager.html" target="_top" xlink:title="Class for loading &amp; managing textures.">
<polygon fill="none" stroke="black" points="317.44,-111.5 317.44,-129.5 433.49,-129.5 433.49,-111.5 317.44,-111.5"/>
<text text-anchor="middle" x="375.47" y="-117.5" font-family="Helvetica,sans-Serif" font-size="10.00">Ogre::TextureManager</text>
</a>
</g>
</g>
<!-- Node1&#45;&gt;Node15 -->
<g id="edge14" class="edge">
<title>Node1&#45;&gt;Node15</title>
<path fill="none" stroke="midnightblue" d="M221.88,-179.9C241.16,-167.32 270.68,-149.49 298.54,-138.5 307.49,-134.97 317.31,-132.01 326.84,-129.58"/>
<polygon fill="midnightblue" stroke="midnightblue" points="219.94,-176.99 213.54,-185.43 223.81,-182.82 219.94,-176.99"/>
</g>
<!-- Node22 -->
<g id="node22" class="node">
<title>Node22</title>
<g id="a_node22"><a xlink:href="class_ogre_1_1v1_1_1_mesh_manager.html" target="_top" xlink:title="Handles the management of mesh resources.">
<polygon fill="none" stroke="black" points="313.55,-74.5 313.55,-92.5 437.38,-92.5 437.38,-74.5 313.55,-74.5"/>
<text text-anchor="middle" x="375.47" y="-80.5" font-family="Helvetica,sans-Serif" font-size="10.00">Ogre::v1::MeshManager</text>
</a>
</g>
</g>
<!-- Node1&#45;&gt;Node22 -->
<g id="edge21" class="edge">
<title>Node1&#45;&gt;Node22</title>
<path fill="none" stroke="midnightblue" d="M213.68,-177.37C230.86,-156.24 262.98,-120.74 298.54,-101.5 305.33,-97.83 312.86,-94.9 320.47,-92.56"/>
<polygon fill="midnightblue" stroke="midnightblue" points="210.73,-175.45 207.26,-185.46 216.21,-179.8 210.73,-175.45"/>
</g>
<!-- Node23 -->
<g id="node23" class="node">
<title>Node23</title>
<g id="a_node23"><a xlink:href="class_ogre_1_1v1_1_1_old_skeleton_manager.html" target="_top" xlink:title="Handles the management of skeleton resources.">
<polygon fill="none" stroke="black" points="298.54,-37.5 298.54,-55.5 452.39,-55.5 452.39,-37.5 298.54,-37.5"/>
<text text-anchor="middle" x="375.47" y="-43.5" font-family="Helvetica,sans-Serif" font-size="10.00">Ogre::v1::OldSkeletonManager</text>
</a>
</g>
</g>
<!-- Node1&#45;&gt;Node23 -->
<g id="edge22" class="edge">
<title>Node1&#45;&gt;Node23</title>
<path fill="none" stroke="midnightblue" d="M209.21,-175.94C223.59,-147.34 255.13,-92.87 298.54,-64.5 304.21,-60.8 310.56,-57.85 317.11,-55.51"/>
<polygon fill="midnightblue" stroke="midnightblue" points="205.93,-174.68 204.69,-185.2 212.22,-177.75 205.93,-174.68"/>
</g>
<!-- Node2 -->
<g id="node2" class="node">
<title>Node2</title>
<g id="a_node2"><a xlink:href="class_ogre_1_1_script_loader.html" target="_top" xlink:title="Abstract class defining the interface used by classes which wish to perform script loading to define ...">
<polygon fill="none" stroke="black" points="0,-204.5 0,-222.5 100.49,-222.5 100.49,-204.5 0,-204.5"/>
<text text-anchor="middle" x="50.24" y="-210.5" font-family="Helvetica,sans-Serif" font-size="10.00">Ogre::ScriptLoader</text>
</a>
</g>
</g>
<!-- Node2&#45;&gt;Node1 -->
<g id="edge1" class="edge">
<title>Node2&#45;&gt;Node1</title>
<path fill="none" stroke="midnightblue" d="M110.81,-205.82C119.23,-204.73 127.91,-203.61 136.38,-202.52"/>
<polygon fill="midnightblue" stroke="midnightblue" points="110.16,-202.37 100.69,-207.12 111.06,-209.31 110.16,-202.37"/>
</g>
<!-- Node3 -->
<g id="node3" class="node">
<title>Node3</title>
<g id="a_node3"><a xlink:href="class_ogre_1_1_allocated_object.html" target="_top" xlink:title="Superclass for all objects that wish to use custom memory allocators when their new / delete operator...">
<polygon fill="none" stroke="black" points="10.01,-167.5 10.01,-185.5 90.48,-185.5 90.48,-167.5 10.01,-167.5"/>
<text text-anchor="middle" x="50.24" y="-173.5" font-family="Helvetica,sans-Serif" font-size="10.00">ResourceAlloc</text>
</a>
</g>
</g>
<!-- Node3&#45;&gt;Node1 -->
<g id="edge2" class="edge">
<title>Node3&#45;&gt;Node1</title>
<path fill="none" stroke="midnightblue" d="M100.91,-182.57C112.32,-183.96 124.59,-185.46 136.45,-186.91"/>
<polygon fill="midnightblue" stroke="midnightblue" points="101.06,-179.06 90.71,-181.32 100.21,-186.01 101.06,-179.06"/>
</g>
<!-- Node7 -->
<g id="node7" class="node">
<title>Node7</title>
<g id="a_node7"><a xlink:href="class_ogre_1_1_d3_d11_gpu_program_manager.html" target="_top" xlink:title=" ">
<polygon fill="none" stroke="black" points="489.32,-370.5 489.32,-388.5 660.21,-388.5 660.21,-370.5 489.32,-370.5"/>
<text text-anchor="middle" x="574.76" y="-376.5" font-family="Helvetica,sans-Serif" font-size="10.00">Ogre::D3D11GpuProgramManager</text>
</a>
</g>
</g>
<!-- Node6&#45;&gt;Node7 -->
<g id="edge6" class="edge">
<title>Node6&#45;&gt;Node7</title>
<path fill="none" stroke="midnightblue" d="M443.48,-291.8C446.61,-293.49 449.61,-295.37 452.39,-297.5 478.34,-317.3 462.08,-342.19 488.39,-361.5 493.28,-365.08 498.72,-367.99 504.43,-370.34"/>
<polygon fill="midnightblue" stroke="midnightblue" points="444.89,-288.6 434.34,-287.6 441.97,-294.96 444.89,-288.6"/>
</g>
<!-- Node8 -->
<g id="node8" class="node">
<title>Node8</title>
<g id="a_node8"><a xlink:href="class_ogre_1_1_d3_d9_gpu_program_manager.html" target="_top" xlink:title=" ">
<polygon fill="none" stroke="black" points="491.73,-333.5 491.73,-351.5 657.8,-351.5 657.8,-333.5 491.73,-333.5"/>
<text text-anchor="middle" x="574.76" y="-339.5" font-family="Helvetica,sans-Serif" font-size="10.00">Ogre::D3D9GpuProgramManager</text>
</a>
</g>
</g>
<!-- Node6&#45;&gt;Node8 -->
<g id="edge7" class="edge">
<title>Node6&#45;&gt;Node8</title>
<path fill="none" stroke="midnightblue" d="M434.55,-290.46C440.7,-292.48 446.76,-294.82 452.39,-297.5 470.45,-306.1 470.18,-316.24 488.39,-324.5 496.53,-328.19 505.45,-331.14 514.37,-333.48"/>
<polygon fill="midnightblue" stroke="midnightblue" points="435.45,-287.08 424.87,-287.54 433.43,-293.78 435.45,-287.08"/>
</g>
<!-- Node9 -->
<g id="node9" class="node">
<title>Node9</title>
<g id="a_node9"><a xlink:href="class_ogre_1_1_g_l_e_s2_gpu_program_manager.html" target="_top" xlink:title=" ">
<polygon fill="none" stroke="black" points="488.39,-296.5 488.39,-314.5 661.14,-314.5 661.14,-296.5 488.39,-296.5"/>
<text text-anchor="middle" x="574.76" y="-302.5" font-family="Helvetica,sans-Serif" font-size="10.00">Ogre::GLES2GpuProgramManager</text>
</a>
</g>
</g>
<!-- Node6&#45;&gt;Node9 -->
<g id="edge8" class="edge">
<title>Node6&#45;&gt;Node9</title>
<path fill="none" stroke="midnightblue" d="M452.46,-288.9C470.73,-291.4 490.09,-294.05 507.85,-296.48"/>
<polygon fill="midnightblue" stroke="midnightblue" points="452.82,-285.42 442.44,-287.53 451.87,-292.35 452.82,-285.42"/>
</g>
<!-- Node10 -->
<g id="node10" class="node">
<title>Node10</title>
<g id="a_node10"><a xlink:href="class_ogre_1_1_g_l_s_l_shader_manager.html" target="_top" xlink:title=" ">
<polygon fill="none" stroke="black" points="504.23,-259.5 504.23,-277.5 645.3,-277.5 645.3,-259.5 504.23,-259.5"/>
<text text-anchor="middle" x="574.76" y="-265.5" font-family="Helvetica,sans-Serif" font-size="10.00">Ogre::GLSLShaderManager</text>
</a>
</g>
</g>
<!-- Node6&#45;&gt;Node10 -->
<g id="edge9" class="edge">
<title>Node6&#45;&gt;Node10</title>
<path fill="none" stroke="midnightblue" d="M456.06,-274.47C471.93,-273.66 488.48,-272.82 503.98,-272.04"/>
<polygon fill="midnightblue" stroke="midnightblue" points="455.56,-270.99 445.75,-274.99 455.91,-277.98 455.56,-270.99"/>
</g>
<!-- Node11 -->
<g id="node11" class="node">
<title>Node11</title>
<g id="a_node11"><a xlink:href="class_ogre_1_1_metal_gpu_program_manager.html" target="_top" xlink:title=" ">
<polygon fill="none" stroke="black" points="492.29,-222.5 492.29,-240.5 657.24,-240.5 657.24,-222.5 492.29,-222.5"/>
<text text-anchor="middle" x="574.76" y="-228.5" font-family="Helvetica,sans-Serif" font-size="10.00">Ogre::MetalGpuProgramManager</text>
</a>
</g>
</g>
<!-- Node6&#45;&gt;Node11 -->
<g id="edge10" class="edge">
<title>Node6&#45;&gt;Node11</title>
<path fill="none" stroke="midnightblue" d="M425.79,-267.09C434.66,-264.96 443.81,-262.71 452.39,-260.5 468.47,-256.36 472.28,-254.53 488.39,-250.5 502.24,-247.04 517.43,-243.56 531.11,-240.54"/>
<polygon fill="midnightblue" stroke="midnightblue" points="424.86,-263.72 415.94,-269.44 426.48,-270.53 424.86,-263.72"/>
</g>
<!-- Node16 -->
<g id="node16" class="node">
<title>Node16</title>
<g id="a_node16"><a xlink:href="class_ogre_1_1_d3_d11_texture_manager.html" target="_top" xlink:title=" ">
<polygon fill="none" stroke="black" points="501.54,-185.5 501.54,-203.5 647.98,-203.5 647.98,-185.5 501.54,-185.5"/>
<text text-anchor="middle" x="574.76" y="-191.5" font-family="Helvetica,sans-Serif" font-size="10.00">Ogre::D3D11TextureManager</text>
</a>
</g>
</g>
<!-- Node15&#45;&gt;Node16 -->
<g id="edge15" class="edge">
<title>Node15&#45;&gt;Node16</title>
<path fill="none" stroke="midnightblue" d="M440.88,-132.98C444.87,-134.6 448.75,-136.43 452.39,-138.5 472.35,-149.82 468.36,-164.32 488.39,-175.5 495.82,-179.64 504.08,-182.88 512.46,-185.42"/>
<polygon fill="midnightblue" stroke="midnightblue" points="441.99,-129.66 431.4,-129.57 439.62,-136.25 441.99,-129.66"/>
</g>
<!-- Node17 -->
<g id="node17" class="node">
<title>Node17</title>
<g id="a_node17"><a xlink:href="class_ogre_1_1_d3_d9_texture_manager.html" target="_top" xlink:title=" ">
<polygon fill="none" stroke="black" points="503.96,-148.5 503.96,-166.5 645.57,-166.5 645.57,-148.5 503.96,-148.5"/>
<text text-anchor="middle" x="574.76" y="-154.5" font-family="Helvetica,sans-Serif" font-size="10.00">Ogre::D3D9TextureManager</text>
</a>
</g>
</g>
<!-- Node15&#45;&gt;Node17 -->
<g id="edge16" class="edge">
<title>Node15&#45;&gt;Node17</title>
<path fill="none" stroke="midnightblue" d="M434.47,-131.38C463.43,-136.81 498.05,-143.3 525.54,-148.46"/>
<polygon fill="midnightblue" stroke="midnightblue" points="434.95,-127.91 424.48,-129.5 433.66,-134.79 434.95,-127.91"/>
</g>
<!-- Node18 -->
<g id="node18" class="node">
<title>Node18</title>
<g id="a_node18"><a xlink:href="class_ogre_1_1_g_l3_plus_texture_manager.html" target="_top" xlink:title="GL3Plus&#45;specific implementation of a TextureManager.">
<polygon fill="none" stroke="black" points="497.56,-111.5 497.56,-129.5 651.97,-129.5 651.97,-111.5 497.56,-111.5"/>
<text text-anchor="middle" x="574.76" y="-117.5" font-family="Helvetica,sans-Serif" font-size="10.00">Ogre::GL3PlusTextureManager</text>
</a>
</g>
</g>
<!-- Node15&#45;&gt;Node18 -->
<g id="edge17" class="edge">
<title>Node15&#45;&gt;Node18</title>
<path fill="none" stroke="midnightblue" d="M443.54,-120.5C460.85,-120.5 479.62,-120.5 497.37,-120.5"/>
<polygon fill="midnightblue" stroke="midnightblue" points="443.53,-117 433.53,-120.5 443.53,-124 443.53,-117"/>
</g>
<!-- Node19 -->
<g id="node19" class="node">
<title>Node19</title>
<g id="a_node19"><a xlink:href="class_ogre_1_1_g_l_e_s2_texture_manager.html" target="_top" xlink:title="GL ES&#45;specific implementation of a TextureManager.">
<polygon fill="none" stroke="black" points="500.62,-74.5 500.62,-92.5 648.91,-92.5 648.91,-74.5 500.62,-74.5"/>
<text text-anchor="middle" x="574.76" y="-80.5" font-family="Helvetica,sans-Serif" font-size="10.00">Ogre::GLES2TextureManager</text>
</a>
</g>
</g>
<!-- Node15&#45;&gt;Node19 -->
<g id="edge18" class="edge">
<title>Node15&#45;&gt;Node19</title>
<path fill="none" stroke="midnightblue" d="M434.47,-109.62C463.43,-104.19 498.05,-97.7 525.54,-92.54"/>
<polygon fill="midnightblue" stroke="midnightblue" points="433.66,-106.21 424.48,-111.5 434.95,-113.09 433.66,-106.21"/>
</g>
<!-- Node20 -->
<g id="node20" class="node">
<title>Node20</title>
<g id="a_node20"><a xlink:href="class_ogre_1_1_metal_texture_manager.html" target="_top" xlink:title=" ">
<polygon fill="none" stroke="black" points="504.51,-37.5 504.51,-55.5 645.02,-55.5 645.02,-37.5 504.51,-37.5"/>
<text text-anchor="middle" x="574.76" y="-43.5" font-family="Helvetica,sans-Serif" font-size="10.00">Ogre::MetalTextureManager</text>
</a>
</g>
</g>
<!-- Node15&#45;&gt;Node20 -->
<g id="edge19" class="edge">
<title>Node15&#45;&gt;Node20</title>
<path fill="none" stroke="midnightblue" d="M438.46,-108.11C443.31,-106.21 448.01,-104.02 452.39,-101.5 472.28,-90.06 468.3,-75.57 488.39,-64.5 495.03,-60.85 502.33,-57.93 509.78,-55.61"/>
<polygon fill="midnightblue" stroke="midnightblue" points="437.29,-104.81 429.01,-111.42 439.6,-111.41 437.29,-104.81"/>
</g>
<!-- Node21 -->
<g id="node21" class="node">
<title>Node21</title>
<g id="a_node21"><a xlink:href="class_ogre_1_1_n_u_l_l_texture_manager.html" target="_top" xlink:title=" ">
<polygon fill="none" stroke="black" points="504.33,-0.5 504.33,-18.5 645.2,-18.5 645.2,-0.5 504.33,-0.5"/>
<text text-anchor="middle" x="574.76" y="-6.5" font-family="Helvetica,sans-Serif" font-size="10.00">Ogre::NULLTextureManager</text>
</a>
</g>
</g>
<!-- Node15&#45;&gt;Node21 -->
<g id="edge20" class="edge">
<title>Node15&#45;&gt;Node21</title>
<path fill="none" stroke="midnightblue" d="M442.97,-107.76C446.31,-105.94 449.48,-103.87 452.39,-101.5 480.79,-78.46 459.56,-50.01 488.39,-27.5 493.17,-23.77 498.54,-20.77 504.19,-18.36"/>
<polygon fill="midnightblue" stroke="midnightblue" points="441.41,-104.63 433.81,-112.01 444.36,-110.98 441.41,-104.63"/>
</g>
</g>
</svg>
