<?xml version="1.0" encoding="UTF-8" standalone="no"?>
<!DOCTYPE svg PUBLIC "-//W3C//DTD SVG 1.1//EN"
 "http://www.w3.org/Graphics/SVG/1.1/DTD/svg11.dtd">
<!-- Generated by graphviz version 2.43.0 (0)
 -->
<!-- Title: Ogre::BoxEmitter Pages: 1 -->
<svg width="212pt" height="247pt"
 viewBox="0.00 0.00 211.98 247.00" xmlns="http://www.w3.org/2000/svg" xmlns:xlink="http://www.w3.org/1999/xlink">
<g id="graph0" class="graph" transform="scale(1 1) rotate(0) translate(4 243)">
<title>Ogre::BoxEmitter</title>
<!-- Node1 -->
<g id="node1" class="node">
<title>Node1</title>
<g id="a_node1"><a xlink:title="Particle emitter which emits particles randomly from points inside a box.">
<polygon fill="#bfbfbf" stroke="black" points="63.07,-0.5 63.07,-18.5 155.76,-18.5 155.76,-0.5 63.07,-0.5"/>
<text text-anchor="middle" x="109.41" y="-6.5" font-family="Helvetica,sans-Serif" font-size="10.00">Ogre::BoxEmitter</text>
</a>
</g>
</g>
<!-- Node2 -->
<g id="node2" class="node">
<title>Node2</title>
<g id="a_node2"><a xlink:href="class_ogre_1_1_area_emitter.html" target="_top" xlink:title="Particle emitter which emits particles randomly from points inside an area (box, sphere,...">
<polygon fill="none" stroke="black" points="61.12,-55.5 61.12,-73.5 157.7,-73.5 157.7,-55.5 61.12,-55.5"/>
<text text-anchor="middle" x="109.41" y="-61.5" font-family="Helvetica,sans-Serif" font-size="10.00">Ogre::AreaEmitter</text>
</a>
</g>
</g>
<!-- Node2&#45;&gt;Node1 -->
<g id="edge1" class="edge">
<title>Node2&#45;&gt;Node1</title>
<path fill="none" stroke="midnightblue" d="M109.41,-45.17C109.41,-36.09 109.41,-25.59 109.41,-18.55"/>
<polygon fill="midnightblue" stroke="midnightblue" points="105.91,-45.22 109.41,-55.22 112.91,-45.22 105.91,-45.22"/>
</g>
<!-- Node3 -->
<g id="node3" class="node">
<title>Node3</title>
<g id="a_node3"><a xlink:href="class_ogre_1_1_particle_emitter.html" target="_top" xlink:title="Abstract class defining the interface to be implemented by particle emitters.">
<polygon fill="none" stroke="black" points="55.01,-110.5 55.01,-128.5 163.81,-128.5 163.81,-110.5 55.01,-110.5"/>
<text text-anchor="middle" x="109.41" y="-116.5" font-family="Helvetica,sans-Serif" font-size="10.00">Ogre::ParticleEmitter</text>
</a>
</g>
</g>
<!-- Node3&#45;&gt;Node2 -->
<g id="edge2" class="edge">
<title>Node3&#45;&gt;Node2</title>
<path fill="none" stroke="midnightblue" d="M109.41,-100.17C109.41,-91.09 109.41,-80.59 109.41,-73.55"/>
<polygon fill="midnightblue" stroke="midnightblue" points="105.91,-100.22 109.41,-110.22 112.91,-100.22 105.91,-100.22"/>
</g>
<!-- Node4 -->
<g id="node4" class="node">
<title>Node4</title>
<g id="a_node4"><a xlink:href="class_ogre_1_1_string_interface.html" target="_top" xlink:title="Class defining the common interface which classes can use to present a reflection&#45;style,...">
<polygon fill="none" stroke="black" points="0,-165.5 0,-183.5 108.82,-183.5 108.82,-165.5 0,-165.5"/>
<text text-anchor="middle" x="54.41" y="-171.5" font-family="Helvetica,sans-Serif" font-size="10.00">Ogre::StringInterface</text>
</a>
</g>
</g>
<!-- Node4&#45;&gt;Node3 -->
<g id="edge3" class="edge">
<title>Node4&#45;&gt;Node3</title>
<path fill="none" stroke="midnightblue" d="M70.38,-158.11C80.41,-148.44 92.94,-136.37 101.06,-128.55"/>
<polygon fill="midnightblue" stroke="midnightblue" points="67.78,-155.76 63,-165.22 72.63,-160.8 67.78,-155.76"/>
</g>
<!-- Node5 -->
<g id="node5" class="node">
<title>Node5</title>
<g id="a_node5"><a xlink:href="class_ogre_1_1_particle.html" target="_top" xlink:title="Class representing a single particle instance.">
<polygon fill="none" stroke="black" points="126.84,-165.5 126.84,-183.5 203.98,-183.5 203.98,-165.5 126.84,-165.5"/>
<text text-anchor="middle" x="165.41" y="-171.5" font-family="Helvetica,sans-Serif" font-size="10.00">Ogre::Particle</text>
</a>
</g>
</g>
<!-- Node5&#45;&gt;Node3 -->
<g id="edge4" class="edge">
<title>Node5&#45;&gt;Node3</title>
<path fill="none" stroke="midnightblue" d="M149.15,-158.11C138.94,-148.44 126.18,-136.37 117.92,-128.55"/>
<polygon fill="midnightblue" stroke="midnightblue" points="146.99,-160.89 156.66,-165.22 151.8,-155.8 146.99,-160.89"/>
</g>
<!-- Node6 -->
<g id="node6" class="node">
<title>Node6</title>
<g id="a_node6"><a xlink:href="class_ogre_1_1_allocated_object.html" target="_top" xlink:title="Superclass for all objects that wish to use custom memory allocators when their new / delete operator...">
<polygon fill="none" stroke="black" points="140.18,-220.5 140.18,-238.5 190.64,-238.5 190.64,-220.5 140.18,-220.5"/>
<text text-anchor="middle" x="165.41" y="-226.5" font-family="Helvetica,sans-Serif" font-size="10.00">FXAlloc</text>
</a>
</g>
</g>
<!-- Node6&#45;&gt;Node5 -->
<g id="edge5" class="edge">
<title>Node6&#45;&gt;Node5</title>
<path fill="none" stroke="midnightblue" d="M165.41,-210.17C165.41,-201.09 165.41,-190.59 165.41,-183.55"/>
<polygon fill="midnightblue" stroke="midnightblue" points="161.91,-210.22 165.41,-220.22 168.91,-210.22 161.91,-210.22"/>
</g>
</g>
</svg>
