<?xml version="1.0" encoding="UTF-8" standalone="no"?>
<!DOCTYPE svg PUBLIC "-//W3C//DTD SVG 1.1//EN"
 "http://www.w3.org/Graphics/SVG/1.1/DTD/svg11.dtd">
<!-- Generated by graphviz version 2.43.0 (0)
 -->
<!-- Title: Ogre::DistanceLodBoxStrategy Pages: 1 -->
<svg width="318pt" height="202pt"
 viewBox="0.00 0.00 318.21 202.00" xmlns="http://www.w3.org/2000/svg" xmlns:xlink="http://www.w3.org/1999/xlink">
<g id="graph0" class="graph" transform="scale(1 1) rotate(0) translate(4 198)">
<title>Ogre::DistanceLodBoxStrategy</title>
<!-- Node1 -->
<g id="node1" class="node">
<title>Node1</title>
<g id="a_node1"><a xlink:title="Level of detail strategy based on distance from camera to an object&#39;s bounding box.">
<polygon fill="#bfbfbf" stroke="black" points="84.78,-0.5 84.78,-18.5 238.63,-18.5 238.63,-0.5 84.78,-0.5"/>
<text text-anchor="middle" x="161.71" y="-6.5" font-family="Helvetica,sans-Serif" font-size="10.00">Ogre::DistanceLodBoxStrategy</text>
</a>
</g>
</g>
<!-- Node2 -->
<g id="node2" class="node">
<title>Node2</title>
<g id="a_node2"><a xlink:href="class_ogre_1_1_distance_lod_strategy_base.html" target="_top" xlink:title="Level of detail strategy based on distance from camera.">
<polygon fill="none" stroke="black" points="0,-60.5 0,-78.5 159.41,-78.5 159.41,-60.5 0,-60.5"/>
<text text-anchor="middle" x="79.71" y="-66.5" font-family="Helvetica,sans-Serif" font-size="10.00">Ogre::DistanceLodStrategyBase</text>
</a>
</g>
</g>
<!-- Node2&#45;&gt;Node1 -->
<g id="edge1" class="edge">
<title>Node2&#45;&gt;Node1</title>
<path fill="none" stroke="midnightblue" d="M99.65,-54.39C115.48,-43.2 137.04,-27.95 150.14,-18.68"/>
<polygon fill="midnightblue" stroke="midnightblue" points="97.25,-51.8 91.11,-60.44 101.29,-57.52 97.25,-51.8"/>
</g>
<!-- Node3 -->
<g id="node3" class="node">
<title>Node3</title>
<g id="a_node3"><a xlink:href="class_ogre_1_1_lod_strategy.html" target="_top" xlink:title="Strategy for determining level of detail.">
<polygon fill="none" stroke="black" points="30.85,-120.5 30.85,-138.5 128.56,-138.5 128.56,-120.5 30.85,-120.5"/>
<text text-anchor="middle" x="79.71" y="-126.5" font-family="Helvetica,sans-Serif" font-size="10.00">Ogre::LodStrategy</text>
</a>
</g>
</g>
<!-- Node3&#45;&gt;Node2 -->
<g id="edge2" class="edge">
<title>Node3&#45;&gt;Node2</title>
<path fill="none" stroke="midnightblue" d="M79.71,-110.21C79.71,-99.71 79.71,-87.03 79.71,-78.87"/>
<polygon fill="midnightblue" stroke="midnightblue" points="76.21,-110.44 79.71,-120.44 83.21,-110.44 76.21,-110.44"/>
</g>
<!-- Node4 -->
<g id="node4" class="node">
<title>Node4</title>
<g id="a_node4"><a xlink:href="class_ogre_1_1_allocated_object.html" target="_top" xlink:title="Superclass for all objects that wish to use custom memory allocators when their new / delete operator...">
<polygon fill="none" stroke="black" points="52.53,-175.5 52.53,-193.5 106.89,-193.5 106.89,-175.5 52.53,-175.5"/>
<text text-anchor="middle" x="79.71" y="-181.5" font-family="Helvetica,sans-Serif" font-size="10.00">LodAlloc</text>
</a>
</g>
</g>
<!-- Node4&#45;&gt;Node3 -->
<g id="edge3" class="edge">
<title>Node4&#45;&gt;Node3</title>
<path fill="none" stroke="midnightblue" d="M79.71,-165.17C79.71,-156.09 79.71,-145.59 79.71,-138.55"/>
<polygon fill="midnightblue" stroke="midnightblue" points="76.21,-165.22 79.71,-175.22 83.21,-165.22 76.21,-165.22"/>
</g>
<!-- Node5 -->
<g id="node5" class="node">
<title>Node5</title>
<g id="a_node5"><a xlink:href="class_ogre_1_1_singleton.html" target="_top" xlink:title=" ">
<polygon fill="none" stroke="black" points="177.2,-55.5 177.2,-83.5 310.21,-83.5 310.21,-55.5 177.2,-55.5"/>
<text text-anchor="start" x="185.2" y="-71.5" font-family="Helvetica,sans-Serif" font-size="10.00">Ogre::Singleton&lt; Distance</text>
<text text-anchor="middle" x="243.71" y="-61.5" font-family="Helvetica,sans-Serif" font-size="10.00">LodBoxStrategy &gt;</text>
</a>
</g>
</g>
<!-- Node5&#45;&gt;Node1 -->
<g id="edge4" class="edge">
<title>Node5&#45;&gt;Node1</title>
<path fill="none" stroke="midnightblue" d="M216.83,-49.49C202.13,-39.09 184.67,-26.74 173.4,-18.77"/>
<polygon fill="midnightblue" stroke="midnightblue" points="214.91,-52.42 225.1,-55.34 218.96,-46.71 214.91,-52.42"/>
</g>
</g>
</svg>
