<?xml version="1.0" encoding="UTF-8" standalone="no"?>
<!DOCTYPE svg PUBLIC "-//W3C//DTD SVG 1.1//EN"
 "http://www.w3.org/Graphics/SVG/1.1/DTD/svg11.dtd">
<!-- Generated by graphviz version 2.43.0 (0)
 -->
<!-- Title: Ogre::RTShader::HardwareSkinningFactory Pages: 1 -->
<svg width="308pt" height="157pt"
 viewBox="0.00 0.00 308.40 157.00" xmlns="http://www.w3.org/2000/svg" xmlns:xlink="http://www.w3.org/1999/xlink">
<g id="graph0" class="graph" transform="scale(1 1) rotate(0) translate(4 153)">
<title>Ogre::RTShader::HardwareSkinningFactory</title>
<!-- Node1 -->
<g id="node1" class="node">
<title>Node1</title>
<g id="a_node1"><a xlink:title="A factory that enables creation of HardwareSkinning instances.">
<polygon fill="#bfbfbf" stroke="black" points="82.62,-0.5 82.62,-28.5 220.72,-28.5 220.72,-0.5 82.62,-0.5"/>
<text text-anchor="start" x="90.62" y="-16.5" font-family="Helvetica,sans-Serif" font-size="10.00">Ogre::RTShader::Hardware</text>
<text text-anchor="middle" x="151.67" y="-6.5" font-family="Helvetica,sans-Serif" font-size="10.00">SkinningFactory</text>
</a>
</g>
</g>
<!-- Node2 -->
<g id="node2" class="node">
<title>Node2</title>
<g id="a_node2"><a xlink:href="class_ogre_1_1_r_t_shader_1_1_sub_render_state_factory.html" target="_top" xlink:title="Abstract factory interface for creating SubRenderState implementation instances.">
<polygon fill="none" stroke="black" points="0,-65.5 0,-93.5 145.34,-93.5 145.34,-65.5 0,-65.5"/>
<text text-anchor="start" x="8" y="-81.5" font-family="Helvetica,sans-Serif" font-size="10.00">Ogre::RTShader::SubRender</text>
<text text-anchor="middle" x="72.67" y="-71.5" font-family="Helvetica,sans-Serif" font-size="10.00">StateFactory</text>
</a>
</g>
</g>
<!-- Node2&#45;&gt;Node1 -->
<g id="edge1" class="edge">
<title>Node2&#45;&gt;Node1</title>
<path fill="none" stroke="midnightblue" d="M97.18,-58.95C109.59,-49.06 124.31,-37.32 135.32,-28.54"/>
<polygon fill="midnightblue" stroke="midnightblue" points="94.67,-56.48 89.04,-65.45 99.04,-61.95 94.67,-56.48"/>
</g>
<!-- Node3 -->
<g id="node3" class="node">
<title>Node3</title>
<g id="a_node3"><a xlink:href="class_ogre_1_1_allocated_object.html" target="_top" xlink:title="Superclass for all objects that wish to use custom memory allocators when their new / delete operator...">
<polygon fill="none" stroke="black" points="14.46,-130.5 14.46,-148.5 130.88,-148.5 130.88,-130.5 14.46,-130.5"/>
<text text-anchor="middle" x="72.67" y="-136.5" font-family="Helvetica,sans-Serif" font-size="10.00">RTShaderSystemAlloc</text>
</a>
</g>
</g>
<!-- Node3&#45;&gt;Node2 -->
<g id="edge2" class="edge">
<title>Node3&#45;&gt;Node2</title>
<path fill="none" stroke="midnightblue" d="M72.67,-120.32C72.67,-111.75 72.67,-101.7 72.67,-93.84"/>
<polygon fill="midnightblue" stroke="midnightblue" points="69.17,-120.44 72.67,-130.44 76.17,-120.44 69.17,-120.44"/>
</g>
<!-- Node4 -->
<g id="node4" class="node">
<title>Node4</title>
<g id="a_node4"><a xlink:href="class_ogre_1_1_singleton.html" target="_top" xlink:title=" ">
<polygon fill="none" stroke="black" points="162.94,-65.5 162.94,-93.5 300.4,-93.5 300.4,-65.5 162.94,-65.5"/>
<text text-anchor="start" x="170.94" y="-81.5" font-family="Helvetica,sans-Serif" font-size="10.00">Ogre::Singleton&lt; Hardware</text>
<text text-anchor="middle" x="231.67" y="-71.5" font-family="Helvetica,sans-Serif" font-size="10.00">SkinningFactory &gt;</text>
</a>
</g>
</g>
<!-- Node4&#45;&gt;Node1 -->
<g id="edge3" class="edge">
<title>Node4&#45;&gt;Node1</title>
<path fill="none" stroke="midnightblue" d="M207.21,-59.24C194.57,-49.28 179.48,-37.4 168.22,-28.54"/>
<polygon fill="midnightblue" stroke="midnightblue" points="205.07,-62.01 215.09,-65.45 209.4,-56.51 205.07,-62.01"/>
</g>
</g>
</svg>
