<?xml version="1.0" encoding="UTF-8" standalone="no"?>
<!DOCTYPE svg PUBLIC "-//W3C//DTD SVG 1.1//EN"
 "http://www.w3.org/Graphics/SVG/1.1/DTD/svg11.dtd">
<!-- Generated by graphviz version 2.43.0 (0)
 -->
<!-- Title: Ogre::D3D11DepthBuffer Pages: 1 -->
<svg width="135pt" height="137pt"
 viewBox="0.00 0.00 135.37 137.00" xmlns="http://www.w3.org/2000/svg" xmlns:xlink="http://www.w3.org/1999/xlink">
<g id="graph0" class="graph" transform="scale(1 1) rotate(0) translate(4 133)">
<title>Ogre::D3D11DepthBuffer</title>
<!-- Node1 -->
<g id="node1" class="node">
<title>Node1</title>
<g id="a_node1"><a xlink:title=" ">
<polygon fill="#bfbfbf" stroke="black" points="0,-0.5 0,-18.5 127.37,-18.5 127.37,-0.5 0,-0.5"/>
<text text-anchor="middle" x="63.68" y="-6.5" font-family="Helvetica,sans-Serif" font-size="10.00">Ogre::D3D11DepthBuffer</text>
</a>
</g>
</g>
<!-- Node2 -->
<g id="node2" class="node">
<title>Node2</title>
<g id="a_node2"><a xlink:href="class_ogre_1_1_depth_buffer.html" target="_top" xlink:title="An abstract class that contains a depth/stencil buffer.">
<polygon fill="none" stroke="black" points="15.2,-55.5 15.2,-73.5 112.17,-73.5 112.17,-55.5 15.2,-55.5"/>
<text text-anchor="middle" x="63.68" y="-61.5" font-family="Helvetica,sans-Serif" font-size="10.00">Ogre::DepthBuffer</text>
</a>
</g>
</g>
<!-- Node2&#45;&gt;Node1 -->
<g id="edge1" class="edge">
<title>Node2&#45;&gt;Node1</title>
<path fill="none" stroke="midnightblue" d="M63.68,-45.17C63.68,-36.09 63.68,-25.59 63.68,-18.55"/>
<polygon fill="midnightblue" stroke="midnightblue" points="60.18,-45.22 63.68,-55.22 67.18,-45.22 60.18,-45.22"/>
</g>
<!-- Node3 -->
<g id="node3" class="node">
<title>Node3</title>
<g id="a_node3"><a xlink:href="class_ogre_1_1_allocated_object.html" target="_top" xlink:title="Superclass for all objects that wish to use custom memory allocators when their new / delete operator...">
<polygon fill="none" stroke="black" points="20.11,-110.5 20.11,-128.5 107.25,-128.5 107.25,-110.5 20.11,-110.5"/>
<text text-anchor="middle" x="63.68" y="-116.5" font-family="Helvetica,sans-Serif" font-size="10.00">RenderSysAlloc</text>
</a>
</g>
</g>
<!-- Node3&#45;&gt;Node2 -->
<g id="edge2" class="edge">
<title>Node3&#45;&gt;Node2</title>
<path fill="none" stroke="midnightblue" d="M63.68,-100.17C63.68,-91.09 63.68,-80.59 63.68,-73.55"/>
<polygon fill="midnightblue" stroke="midnightblue" points="60.18,-100.22 63.68,-110.22 67.18,-100.22 60.18,-100.22"/>
</g>
</g>
</svg>
