<?xml version="1.0" encoding="UTF-8" standalone="no"?>
<!DOCTYPE svg PUBLIC "-//W3C//DTD SVG 1.1//EN"
 "http://www.w3.org/Graphics/SVG/1.1/DTD/svg11.dtd">
<!-- Generated by graphviz version 2.43.0 (0)
 -->
<!-- Title: Ogre::DDSCodec Pages: 1 -->
<svg width="108pt" height="192pt"
 viewBox="0.00 0.00 108.49 192.00" xmlns="http://www.w3.org/2000/svg" xmlns:xlink="http://www.w3.org/1999/xlink">
<g id="graph0" class="graph" transform="scale(1 1) rotate(0) translate(4 188)">
<title>Ogre::DDSCodec</title>
<!-- Node1 -->
<g id="node1" class="node">
<title>Node1</title>
<g id="a_node1"><a xlink:title="Codec specialized in loading DDS (Direct Draw Surface) images.">
<polygon fill="#bfbfbf" stroke="black" points="3.34,-0.5 3.34,-18.5 97.15,-18.5 97.15,-0.5 3.34,-0.5"/>
<text text-anchor="middle" x="50.24" y="-6.5" font-family="Helvetica,sans-Serif" font-size="10.00">Ogre::DDSCodec</text>
</a>
</g>
</g>
<!-- Node2 -->
<g id="node2" class="node">
<title>Node2</title>
<g id="a_node2"><a xlink:href="class_ogre_1_1_image_codec.html" target="_top" xlink:title="Codec specialized in images.">
<polygon fill="none" stroke="black" points="0,-55.5 0,-73.5 100.49,-73.5 100.49,-55.5 0,-55.5"/>
<text text-anchor="middle" x="50.24" y="-61.5" font-family="Helvetica,sans-Serif" font-size="10.00">Ogre::ImageCodec</text>
</a>
</g>
</g>
<!-- Node2&#45;&gt;Node1 -->
<g id="edge1" class="edge">
<title>Node2&#45;&gt;Node1</title>
<path fill="none" stroke="midnightblue" d="M50.24,-45.17C50.24,-36.09 50.24,-25.59 50.24,-18.55"/>
<polygon fill="midnightblue" stroke="midnightblue" points="46.74,-45.22 50.24,-55.22 53.74,-45.22 46.74,-45.22"/>
</g>
<!-- Node3 -->
<g id="node3" class="node">
<title>Node3</title>
<g id="a_node3"><a xlink:href="class_ogre_1_1_codec.html" target="_top" xlink:title="Abstract class that defines a &#39;codec&#39;.">
<polygon fill="none" stroke="black" points="13.9,-110.5 13.9,-128.5 86.59,-128.5 86.59,-110.5 13.9,-110.5"/>
<text text-anchor="middle" x="50.24" y="-116.5" font-family="Helvetica,sans-Serif" font-size="10.00">Ogre::Codec</text>
</a>
</g>
</g>
<!-- Node3&#45;&gt;Node2 -->
<g id="edge2" class="edge">
<title>Node3&#45;&gt;Node2</title>
<path fill="none" stroke="midnightblue" d="M50.24,-100.17C50.24,-91.09 50.24,-80.59 50.24,-73.55"/>
<polygon fill="midnightblue" stroke="midnightblue" points="46.74,-100.22 50.24,-110.22 53.74,-100.22 46.74,-100.22"/>
</g>
<!-- Node4 -->
<g id="node4" class="node">
<title>Node4</title>
<g id="a_node4"><a xlink:href="class_ogre_1_1_allocated_object.html" target="_top" xlink:title="Superclass for all objects that wish to use custom memory allocators when their new / delete operator...">
<polygon fill="none" stroke="black" points="16.95,-165.5 16.95,-183.5 83.53,-183.5 83.53,-165.5 16.95,-165.5"/>
<text text-anchor="middle" x="50.24" y="-171.5" font-family="Helvetica,sans-Serif" font-size="10.00">CodecAlloc</text>
</a>
</g>
</g>
<!-- Node4&#45;&gt;Node3 -->
<g id="edge3" class="edge">
<title>Node4&#45;&gt;Node3</title>
<path fill="none" stroke="midnightblue" d="M50.24,-155.17C50.24,-146.09 50.24,-135.59 50.24,-128.55"/>
<polygon fill="midnightblue" stroke="midnightblue" points="46.74,-155.22 50.24,-165.22 53.74,-155.22 46.74,-155.22"/>
</g>
</g>
</svg>
