<?xml version="1.0" encoding="UTF-8" standalone="no"?>
<!DOCTYPE svg PUBLIC "-//W3C//DTD SVG 1.1//EN"
 "http://www.w3.org/Graphics/SVG/1.1/DTD/svg11.dtd">
<!-- Generated by graphviz version 2.43.0 (0)
 -->
<!-- Title: Ogre::SceneQueryListener Pages: 1 -->
<svg width="865pt" height="252pt"
 viewBox="0.00 0.00 864.63 252.00" xmlns="http://www.w3.org/2000/svg" xmlns:xlink="http://www.w3.org/1999/xlink">
<g id="graph0" class="graph" transform="scale(1 1) rotate(0) translate(4 248)">
<title>Ogre::SceneQueryListener</title>
<!-- Node1 -->
<g id="node1" class="node">
<title>Node1</title>
<g id="a_node1"><a xlink:title="This optional class allows you to receive per&#45;result callbacks from SceneQuery executions instead of ...">
<polygon fill="#bfbfbf" stroke="black" points="0,-94.5 0,-112.5 134.95,-112.5 134.95,-94.5 0,-94.5"/>
<text text-anchor="middle" x="67.48" y="-100.5" font-family="Helvetica,sans-Serif" font-size="10.00">Ogre::SceneQueryListener</text>
</a>
</g>
</g>
<!-- Node2 -->
<g id="node2" class="node">
<title>Node2</title>
<g id="a_node2"><a xlink:href="class_ogre_1_1_region_scene_query.html" target="_top" xlink:title="Abstract class defining a query which returns single results from a region.">
<polygon fill="none" stroke="black" points="170.95,-94.5 170.95,-112.5 302.01,-112.5 302.01,-94.5 170.95,-94.5"/>
<text text-anchor="middle" x="236.48" y="-100.5" font-family="Helvetica,sans-Serif" font-size="10.00">Ogre::RegionSceneQuery</text>
</a>
</g>
</g>
<!-- Node1&#45;&gt;Node2 -->
<g id="edge1" class="edge">
<title>Node1&#45;&gt;Node2</title>
<path fill="none" stroke="midnightblue" d="M145.03,-103.5C153.66,-103.5 162.4,-103.5 170.86,-103.5"/>
<polygon fill="midnightblue" stroke="midnightblue" points="144.96,-100 134.96,-103.5 144.96,-107 144.96,-100"/>
</g>
<!-- Node3 -->
<g id="node3" class="node">
<title>Node3</title>
<g id="a_node3"><a xlink:href="class_ogre_1_1_axis_aligned_box_scene_query.html" target="_top" xlink:title="Specialises the SceneQuery class for querying within an axis aligned box.">
<polygon fill="none" stroke="black" points="338.58,-157.5 338.58,-185.5 480.21,-185.5 480.21,-157.5 338.58,-157.5"/>
<text text-anchor="start" x="346.58" y="-173.5" font-family="Helvetica,sans-Serif" font-size="10.00">Ogre::AxisAlignedBoxScene</text>
<text text-anchor="middle" x="409.4" y="-163.5" font-family="Helvetica,sans-Serif" font-size="10.00">Query</text>
</a>
</g>
</g>
<!-- Node2&#45;&gt;Node3 -->
<g id="edge2" class="edge">
<title>Node2&#45;&gt;Node3</title>
<path fill="none" stroke="midnightblue" d="M269.6,-116.28C299.08,-128.01 342.68,-145.35 373.12,-157.47"/>
<polygon fill="midnightblue" stroke="midnightblue" points="270.76,-112.97 260.18,-112.53 268.18,-119.48 270.76,-112.97"/>
</g>
<!-- Node7 -->
<g id="node7" class="node">
<title>Node7</title>
<g id="a_node7"><a xlink:href="class_ogre_1_1_plane_bounded_volume_list_scene_query.html" target="_top" xlink:title="Specialises the SceneQuery class for querying within a plane&#45;bounded volume.">
<polygon fill="none" stroke="black" points="338.01,-89.5 338.01,-117.5 480.78,-117.5 480.78,-89.5 338.01,-89.5"/>
<text text-anchor="start" x="346.01" y="-105.5" font-family="Helvetica,sans-Serif" font-size="10.00">Ogre::PlaneBoundedVolume</text>
<text text-anchor="middle" x="409.4" y="-95.5" font-family="Helvetica,sans-Serif" font-size="10.00">ListSceneQuery</text>
</a>
</g>
</g>
<!-- Node2&#45;&gt;Node7 -->
<g id="edge6" class="edge">
<title>Node2&#45;&gt;Node7</title>
<path fill="none" stroke="midnightblue" d="M312.1,-103.5C320.69,-103.5 329.44,-103.5 337.98,-103.5"/>
<polygon fill="midnightblue" stroke="midnightblue" points="312.1,-100 302.1,-103.5 312.1,-107 312.1,-100"/>
</g>
<!-- Node11 -->
<g id="node11" class="node">
<title>Node11</title>
<g id="a_node11"><a xlink:href="class_ogre_1_1_sphere_scene_query.html" target="_top" xlink:title="Specialises the SceneQuery class for querying within a sphere.">
<polygon fill="none" stroke="black" points="343.58,-50.5 343.58,-68.5 475.21,-68.5 475.21,-50.5 343.58,-50.5"/>
<text text-anchor="middle" x="409.4" y="-56.5" font-family="Helvetica,sans-Serif" font-size="10.00">Ogre::SphereSceneQuery</text>
</a>
</g>
</g>
<!-- Node2&#45;&gt;Node11 -->
<g id="edge10" class="edge">
<title>Node2&#45;&gt;Node11</title>
<path fill="none" stroke="midnightblue" d="M282.17,-92C310.56,-84.69 346.79,-75.36 373.15,-68.57"/>
<polygon fill="midnightblue" stroke="midnightblue" points="281.29,-88.61 272.48,-94.49 283.04,-95.39 281.29,-88.61"/>
</g>
<!-- Node4 -->
<g id="node4" class="node">
<title>Node4</title>
<g id="a_node4"><a xlink:href="class_ogre_1_1_default_axis_aligned_box_scene_query.html" target="_top" xlink:title="Default implementation of AxisAlignedBoxSceneQuery.">
<polygon fill="none" stroke="black" points="523.46,-168.5 523.46,-196.5 651.18,-196.5 651.18,-168.5 523.46,-168.5"/>
<text text-anchor="start" x="531.46" y="-184.5" font-family="Helvetica,sans-Serif" font-size="10.00">Ogre::DefaultAxisAligned</text>
<text text-anchor="middle" x="587.32" y="-174.5" font-family="Helvetica,sans-Serif" font-size="10.00">BoxSceneQuery</text>
</a>
</g>
</g>
<!-- Node3&#45;&gt;Node4 -->
<g id="edge3" class="edge">
<title>Node3&#45;&gt;Node4</title>
<path fill="none" stroke="midnightblue" d="M490.49,-176.51C501.51,-177.2 512.71,-177.9 523.36,-178.56"/>
<polygon fill="midnightblue" stroke="midnightblue" points="490.63,-173.01 480.43,-175.88 490.19,-180 490.63,-173.01"/>
</g>
<!-- Node5 -->
<g id="node5" class="node">
<title>Node5</title>
<g id="a_node5"><a xlink:href="class_ogre_1_1_octree_axis_aligned_box_scene_query.html" target="_top" xlink:title="Octree implementation of AxisAlignedBoxSceneQuery.">
<polygon fill="none" stroke="black" points="703.61,-215.5 703.61,-243.5 846.89,-243.5 846.89,-215.5 703.61,-215.5"/>
<text text-anchor="start" x="711.61" y="-231.5" font-family="Helvetica,sans-Serif" font-size="10.00">Ogre::OctreeAxisAlignedBox</text>
<text text-anchor="middle" x="775.25" y="-221.5" font-family="Helvetica,sans-Serif" font-size="10.00">SceneQuery</text>
</a>
</g>
</g>
<!-- Node4&#45;&gt;Node5 -->
<g id="edge4" class="edge">
<title>Node4&#45;&gt;Node5</title>
<path fill="none" stroke="midnightblue" d="M653.75,-199.04C674.95,-204.4 698.26,-210.29 718.68,-215.45"/>
<polygon fill="midnightblue" stroke="midnightblue" points="654.41,-195.6 643.85,-196.54 652.69,-202.38 654.41,-195.6"/>
</g>
<!-- Node6 -->
<g id="node6" class="node">
<title>Node6</title>
<g id="a_node6"><a xlink:href="class_ogre_1_1_p_c_z_axis_aligned_box_scene_query.html" target="_top" xlink:title="PCZ implementation of AxisAlignedBoxSceneQuery.">
<polygon fill="none" stroke="black" points="694.43,-168.5 694.43,-196.5 856.06,-196.5 856.06,-168.5 694.43,-168.5"/>
<text text-anchor="start" x="702.43" y="-184.5" font-family="Helvetica,sans-Serif" font-size="10.00">Ogre::PCZAxisAlignedBoxScene</text>
<text text-anchor="middle" x="775.25" y="-174.5" font-family="Helvetica,sans-Serif" font-size="10.00">Query</text>
</a>
</g>
</g>
<!-- Node4&#45;&gt;Node6 -->
<g id="edge5" class="edge">
<title>Node4&#45;&gt;Node6</title>
<path fill="none" stroke="midnightblue" d="M661.45,-182.5C672.21,-182.5 683.34,-182.5 694.22,-182.5"/>
<polygon fill="midnightblue" stroke="midnightblue" points="661.27,-179 651.27,-182.5 661.27,-186 661.27,-179"/>
</g>
<!-- Node8 -->
<g id="node8" class="node">
<title>Node8</title>
<g id="a_node8"><a xlink:href="class_ogre_1_1_default_plane_bounded_volume_list_scene_query.html" target="_top" xlink:title="Default implementation of PlaneBoundedVolumeListSceneQuery.">
<polygon fill="none" stroke="black" points="516.78,-89.5 516.78,-117.5 657.86,-117.5 657.86,-89.5 516.78,-89.5"/>
<text text-anchor="start" x="524.78" y="-105.5" font-family="Helvetica,sans-Serif" font-size="10.00">Ogre::DefaultPlaneBounded</text>
<text text-anchor="middle" x="587.32" y="-95.5" font-family="Helvetica,sans-Serif" font-size="10.00">VolumeListSceneQuery</text>
</a>
</g>
</g>
<!-- Node7&#45;&gt;Node8 -->
<g id="edge7" class="edge">
<title>Node7&#45;&gt;Node8</title>
<path fill="none" stroke="midnightblue" d="M490.94,-103.5C499.52,-103.5 508.19,-103.5 516.62,-103.5"/>
<polygon fill="midnightblue" stroke="midnightblue" points="490.94,-100 480.94,-103.5 490.94,-107 490.94,-100"/>
</g>
<!-- Node9 -->
<g id="node9" class="node">
<title>Node9</title>
<g id="a_node9"><a xlink:href="class_ogre_1_1_octree_plane_bounded_volume_list_scene_query.html" target="_top" xlink:title="Octree implementation of PlaneBoundedVolumeListSceneQuery.">
<polygon fill="none" stroke="black" points="705.54,-121.5 705.54,-149.5 844.95,-149.5 844.95,-121.5 705.54,-121.5"/>
<text text-anchor="start" x="713.54" y="-137.5" font-family="Helvetica,sans-Serif" font-size="10.00">Ogre::OctreePlaneBounded</text>
<text text-anchor="middle" x="775.25" y="-127.5" font-family="Helvetica,sans-Serif" font-size="10.00">VolumeListSceneQuery</text>
</a>
</g>
</g>
<!-- Node8&#45;&gt;Node9 -->
<g id="edge8" class="edge">
<title>Node8&#45;&gt;Node9</title>
<path fill="none" stroke="midnightblue" d="M667.97,-117.21C680.4,-119.35 693.16,-121.54 705.33,-123.64"/>
<polygon fill="midnightblue" stroke="midnightblue" points="668.53,-113.75 658.08,-115.51 667.34,-120.65 668.53,-113.75"/>
</g>
<!-- Node10 -->
<g id="node10" class="node">
<title>Node10</title>
<g id="a_node10"><a xlink:href="class_ogre_1_1_p_c_z_plane_bounded_volume_list_scene_query.html" target="_top" xlink:title="PCZ implementation of PlaneBoundedVolumeListSceneQuery.">
<polygon fill="none" stroke="black" points="693.86,-74.5 693.86,-102.5 856.63,-102.5 856.63,-74.5 693.86,-74.5"/>
<text text-anchor="start" x="701.86" y="-90.5" font-family="Helvetica,sans-Serif" font-size="10.00">Ogre::PCZPlaneBoundedVolume</text>
<text text-anchor="middle" x="775.25" y="-80.5" font-family="Helvetica,sans-Serif" font-size="10.00">ListSceneQuery</text>
</a>
</g>
</g>
<!-- Node8&#45;&gt;Node10 -->
<g id="edge9" class="edge">
<title>Node8&#45;&gt;Node10</title>
<path fill="none" stroke="midnightblue" d="M668.29,-97.05C676.73,-96.37 685.32,-95.67 693.77,-94.99"/>
<polygon fill="midnightblue" stroke="midnightblue" points="667.77,-93.58 658.08,-97.87 668.33,-100.56 667.77,-93.58"/>
</g>
<!-- Node12 -->
<g id="node12" class="node">
<title>Node12</title>
<g id="a_node12"><a xlink:href="class_ogre_1_1_default_sphere_scene_query.html" target="_top" xlink:title="Default implementation of SphereSceneQuery.">
<polygon fill="none" stroke="black" points="519.28,-32.5 519.28,-60.5 655.36,-60.5 655.36,-32.5 519.28,-32.5"/>
<text text-anchor="start" x="527.28" y="-48.5" font-family="Helvetica,sans-Serif" font-size="10.00">Ogre::DefaultSphereScene</text>
<text text-anchor="middle" x="587.32" y="-38.5" font-family="Helvetica,sans-Serif" font-size="10.00">Query</text>
</a>
</g>
</g>
<!-- Node11&#45;&gt;Node12 -->
<g id="edge11" class="edge">
<title>Node11&#45;&gt;Node12</title>
<path fill="none" stroke="midnightblue" d="M485.57,-53.94C496.76,-53.12 508.22,-52.27 519.22,-51.46"/>
<polygon fill="midnightblue" stroke="midnightblue" points="485.12,-50.47 475.4,-54.7 485.63,-57.45 485.12,-50.47"/>
</g>
<!-- Node13 -->
<g id="node13" class="node">
<title>Node13</title>
<g id="a_node13"><a xlink:href="class_ogre_1_1_octree_sphere_scene_query.html" target="_top" xlink:title="Octree implementation of SphereSceneQuery.">
<polygon fill="none" stroke="black" points="694.43,-37.5 694.43,-55.5 856.06,-55.5 856.06,-37.5 694.43,-37.5"/>
<text text-anchor="middle" x="775.25" y="-43.5" font-family="Helvetica,sans-Serif" font-size="10.00">Ogre::OctreeSphereSceneQuery</text>
</a>
</g>
</g>
<!-- Node12&#45;&gt;Node13 -->
<g id="edge12" class="edge">
<title>Node12&#45;&gt;Node13</title>
<path fill="none" stroke="midnightblue" d="M665.6,-46.5C675.06,-46.5 684.74,-46.5 694.23,-46.5"/>
<polygon fill="midnightblue" stroke="midnightblue" points="665.44,-43 655.44,-46.5 665.44,-50 665.44,-43"/>
</g>
<!-- Node14 -->
<g id="node14" class="node">
<title>Node14</title>
<g id="a_node14"><a xlink:href="class_ogre_1_1_p_c_z_sphere_scene_query.html" target="_top" xlink:title="PCZ implementation of SphereSceneQuery.">
<polygon fill="none" stroke="black" points="699.44,-0.5 699.44,-18.5 851.06,-18.5 851.06,-0.5 699.44,-0.5"/>
<text text-anchor="middle" x="775.25" y="-6.5" font-family="Helvetica,sans-Serif" font-size="10.00">Ogre::PCZSphereSceneQuery</text>
</a>
</g>
</g>
<!-- Node12&#45;&gt;Node14 -->
<g id="edge13" class="edge">
<title>Node12&#45;&gt;Node14</title>
<path fill="none" stroke="midnightblue" d="M665.3,-31.18C686.98,-26.87 709.85,-22.31 729.02,-18.5"/>
<polygon fill="midnightblue" stroke="midnightblue" points="664.57,-27.76 655.44,-33.14 665.93,-34.62 664.57,-27.76"/>
</g>
</g>
</svg>
