<?xml version="1.0" encoding="UTF-8" standalone="no"?>
<!DOCTYPE svg PUBLIC "-//W3C//DTD SVG 1.1//EN"
 "http://www.w3.org/Graphics/SVG/1.1/DTD/svg11.dtd">
<!-- Generated by graphviz version 2.43.0 (0)
 -->
<!-- Title: Ogre::D3D9DepthBuffer Pages: 1 -->
<svg width="131pt" height="137pt"
 viewBox="0.00 0.00 130.54 137.00" xmlns="http://www.w3.org/2000/svg" xmlns:xlink="http://www.w3.org/1999/xlink">
<g id="graph0" class="graph" transform="scale(1 1) rotate(0) translate(4 133)">
<title>Ogre::D3D9DepthBuffer</title>
<!-- Node1 -->
<g id="node1" class="node">
<title>Node1</title>
<g id="a_node1"><a xlink:title=" ">
<polygon fill="#bfbfbf" stroke="black" points="0,-0.5 0,-18.5 122.54,-18.5 122.54,-0.5 0,-0.5"/>
<text text-anchor="middle" x="61.27" y="-6.5" font-family="Helvetica,sans-Serif" font-size="10.00">Ogre::D3D9DepthBuffer</text>
</a>
</g>
</g>
<!-- Node2 -->
<g id="node2" class="node">
<title>Node2</title>
<g id="a_node2"><a xlink:href="class_ogre_1_1_depth_buffer.html" target="_top" xlink:title="An abstract class that contains a depth/stencil buffer.">
<polygon fill="none" stroke="black" points="12.78,-55.5 12.78,-73.5 109.76,-73.5 109.76,-55.5 12.78,-55.5"/>
<text text-anchor="middle" x="61.27" y="-61.5" font-family="Helvetica,sans-Serif" font-size="10.00">Ogre::DepthBuffer</text>
</a>
</g>
</g>
<!-- Node2&#45;&gt;Node1 -->
<g id="edge1" class="edge">
<title>Node2&#45;&gt;Node1</title>
<path fill="none" stroke="midnightblue" d="M61.27,-45.17C61.27,-36.09 61.27,-25.59 61.27,-18.55"/>
<polygon fill="midnightblue" stroke="midnightblue" points="57.77,-45.22 61.27,-55.22 64.77,-45.22 57.77,-45.22"/>
</g>
<!-- Node3 -->
<g id="node3" class="node">
<title>Node3</title>
<g id="a_node3"><a xlink:href="class_ogre_1_1_allocated_object.html" target="_top" xlink:title="Superclass for all objects that wish to use custom memory allocators when their new / delete operator...">
<polygon fill="none" stroke="black" points="17.7,-110.5 17.7,-128.5 104.84,-128.5 104.84,-110.5 17.7,-110.5"/>
<text text-anchor="middle" x="61.27" y="-116.5" font-family="Helvetica,sans-Serif" font-size="10.00">RenderSysAlloc</text>
</a>
</g>
</g>
<!-- Node3&#45;&gt;Node2 -->
<g id="edge2" class="edge">
<title>Node3&#45;&gt;Node2</title>
<path fill="none" stroke="midnightblue" d="M61.27,-100.17C61.27,-91.09 61.27,-80.59 61.27,-73.55"/>
<polygon fill="midnightblue" stroke="midnightblue" points="57.77,-100.22 61.27,-110.22 64.77,-100.22 57.77,-100.22"/>
</g>
</g>
</svg>
