<?xml version="1.0" encoding="UTF-8" standalone="no"?>
<!DOCTYPE svg PUBLIC "-//W3C//DTD SVG 1.1//EN"
 "http://www.w3.org/Graphics/SVG/1.1/DTD/svg11.dtd">
<!-- Generated by graphviz version 2.43.0 (0)
 -->
<!-- Title: Ogre::EmbeddedZipArchiveFactory Pages: 1 -->
<svg width="240pt" height="257pt"
 viewBox="0.00 0.00 239.87 257.00" xmlns="http://www.w3.org/2000/svg" xmlns:xlink="http://www.w3.org/1999/xlink">
<g id="graph0" class="graph" transform="scale(1 1) rotate(0) translate(4 253)">
<title>Ogre::EmbeddedZipArchiveFactory</title>
<!-- Node1 -->
<g id="node1" class="node">
<title>Node1</title>
<g id="a_node1"><a xlink:title="Specialisation of ZipArchiveFactory for embedded Zip files.">
<polygon fill="#bfbfbf" stroke="black" points="63.67,-55.5 63.67,-83.5 203.06,-83.5 203.06,-55.5 63.67,-55.5"/>
<text text-anchor="start" x="71.67" y="-71.5" font-family="Helvetica,sans-Serif" font-size="10.00">Ogre::EmbeddedZipArchive</text>
<text text-anchor="middle" x="133.36" y="-61.5" font-family="Helvetica,sans-Serif" font-size="10.00">Factory</text>
</a>
</g>
</g>
<!-- Node6 -->
<g id="node6" class="node">
<title>Node6</title>
<g id="a_node6"><a xlink:href="class_ogre_1_1_a_p_k_zip_archive_factory.html" target="_top" xlink:title=" ">
<polygon fill="none" stroke="black" points="61.17,-0.5 61.17,-18.5 205.55,-18.5 205.55,-0.5 61.17,-0.5"/>
<text text-anchor="middle" x="133.36" y="-6.5" font-family="Helvetica,sans-Serif" font-size="10.00">Ogre::APKZipArchiveFactory</text>
</a>
</g>
</g>
<!-- Node1&#45;&gt;Node6 -->
<g id="edge5" class="edge">
<title>Node1&#45;&gt;Node6</title>
<path fill="none" stroke="midnightblue" d="M133.36,-45.32C133.36,-35.94 133.36,-25.7 133.36,-18.77"/>
<polygon fill="midnightblue" stroke="midnightblue" points="129.86,-45.34 133.36,-55.34 136.86,-45.34 129.86,-45.34"/>
</g>
<!-- Node2 -->
<g id="node2" class="node">
<title>Node2</title>
<g id="a_node2"><a xlink:href="class_ogre_1_1_zip_archive_factory.html" target="_top" xlink:title="Specialisation of ArchiveFactory for Zip files.">
<polygon fill="none" stroke="black" points="71.18,-120.5 71.18,-138.5 195.54,-138.5 195.54,-120.5 71.18,-120.5"/>
<text text-anchor="middle" x="133.36" y="-126.5" font-family="Helvetica,sans-Serif" font-size="10.00">Ogre::ZipArchiveFactory</text>
</a>
</g>
</g>
<!-- Node2&#45;&gt;Node1 -->
<g id="edge1" class="edge">
<title>Node2&#45;&gt;Node1</title>
<path fill="none" stroke="midnightblue" d="M133.36,-110.32C133.36,-101.75 133.36,-91.7 133.36,-83.84"/>
<polygon fill="midnightblue" stroke="midnightblue" points="129.86,-110.44 133.36,-120.44 136.86,-110.44 129.86,-110.44"/>
</g>
<!-- Node3 -->
<g id="node3" class="node">
<title>Node3</title>
<g id="a_node3"><a xlink:href="class_ogre_1_1_archive_factory.html" target="_top" xlink:title="Abstract factory class, archive codec plugins can register concrete subclasses of this.">
<polygon fill="none" stroke="black" points="78.13,-175.5 78.13,-193.5 188.6,-193.5 188.6,-175.5 78.13,-175.5"/>
<text text-anchor="middle" x="133.36" y="-181.5" font-family="Helvetica,sans-Serif" font-size="10.00">Ogre::ArchiveFactory</text>
</a>
</g>
</g>
<!-- Node3&#45;&gt;Node2 -->
<g id="edge2" class="edge">
<title>Node3&#45;&gt;Node2</title>
<path fill="none" stroke="midnightblue" d="M133.36,-165.17C133.36,-156.09 133.36,-145.59 133.36,-138.55"/>
<polygon fill="midnightblue" stroke="midnightblue" points="129.86,-165.22 133.36,-175.22 136.86,-165.22 129.86,-165.22"/>
</g>
<!-- Node4 -->
<g id="node4" class="node">
<title>Node4</title>
<g id="a_node4"><a xlink:href="class_ogre_1_1_factory_obj.html" target="_top" xlink:title=" ">
<polygon fill="none" stroke="black" points="0,-230.5 0,-248.5 142.72,-248.5 142.72,-230.5 0,-230.5"/>
<text text-anchor="middle" x="71.36" y="-236.5" font-family="Helvetica,sans-Serif" font-size="10.00">Ogre::FactoryObj&lt; Archive &gt;</text>
</a>
</g>
</g>
<!-- Node4&#45;&gt;Node3 -->
<g id="edge3" class="edge">
<title>Node4&#45;&gt;Node3</title>
<path fill="none" stroke="midnightblue" d="M88.41,-223.93C99.83,-214.16 114.45,-201.67 123.86,-193.63"/>
<polygon fill="midnightblue" stroke="midnightblue" points="86.11,-221.29 80.78,-230.45 90.65,-226.61 86.11,-221.29"/>
</g>
<!-- Node5 -->
<g id="node5" class="node">
<title>Node5</title>
<g id="a_node5"><a xlink:href="class_ogre_1_1_allocated_object.html" target="_top" xlink:title="Superclass for all objects that wish to use custom memory allocators when their new / delete operator...">
<polygon fill="none" stroke="black" points="160.85,-230.5 160.85,-248.5 231.87,-248.5 231.87,-230.5 160.85,-230.5"/>
<text text-anchor="middle" x="196.36" y="-236.5" font-family="Helvetica,sans-Serif" font-size="10.00">ArchiveAlloc</text>
</a>
</g>
</g>
<!-- Node5&#45;&gt;Node3 -->
<g id="edge4" class="edge">
<title>Node5&#45;&gt;Node3</title>
<path fill="none" stroke="midnightblue" d="M179.04,-223.93C167.43,-214.16 152.58,-201.67 143.02,-193.63"/>
<polygon fill="midnightblue" stroke="midnightblue" points="176.89,-226.69 186.79,-230.45 181.39,-221.33 176.89,-226.69"/>
</g>
</g>
</svg>
