<?xml version="1.0" encoding="UTF-8" standalone="no"?>
<!DOCTYPE svg PUBLIC "-//W3C//DTD SVG 1.1//EN"
 "http://www.w3.org/Graphics/SVG/1.1/DTD/svg11.dtd">
<!-- Generated by graphviz version 2.43.0 (0)
 -->
<!-- Title: Ogre::RTShader::SubRenderState Pages: 1 -->
<svg width="706pt" height="494pt"
 viewBox="0.00 0.00 706.38 494.00" xmlns="http://www.w3.org/2000/svg" xmlns:xlink="http://www.w3.org/1999/xlink">
<g id="graph0" class="graph" transform="scale(1 1) rotate(0) translate(4 490)">
<title>Ogre::RTShader::SubRenderState</title>
<!-- Node1 -->
<g id="node1" class="node">
<title>Node1</title>
<g id="a_node1"><a xlink:title="This class is the base interface of sub part from a shader based rendering pipeline.">
<polygon fill="#bfbfbf" stroke="black" points="152.42,-256.5 152.42,-284.5 297.75,-284.5 297.75,-256.5 152.42,-256.5"/>
<text text-anchor="start" x="160.42" y="-272.5" font-family="Helvetica,sans-Serif" font-size="10.00">Ogre::RTShader::SubRender</text>
<text text-anchor="middle" x="225.08" y="-262.5" font-family="Helvetica,sans-Serif" font-size="10.00">State</text>
</a>
</g>
</g>
<!-- Node3 -->
<g id="node3" class="node">
<title>Node3</title>
<g id="a_node3"><a xlink:href="class_ogre_1_1_r_t_shader_1_1_f_f_p_alpha_test.html" target="_top" xlink:title="A factory that enables creation of LayeredBlending instances.">
<polygon fill="none" stroke="black" points="334.76,-467.5 334.76,-485.5 491.57,-485.5 491.57,-467.5 334.76,-467.5"/>
<text text-anchor="middle" x="413.16" y="-473.5" font-family="Helvetica,sans-Serif" font-size="10.00">Ogre::RTShader::FFPAlphaTest</text>
</a>
</g>
</g>
<!-- Node1&#45;&gt;Node3 -->
<g id="edge2" class="edge">
<title>Node1&#45;&gt;Node3</title>
<path fill="none" stroke="midnightblue" d="M232.96,-294.31C245.84,-334.45 277.47,-415.33 333.75,-457.5 339.24,-461.62 345.51,-464.85 352.04,-467.39"/>
<polygon fill="midnightblue" stroke="midnightblue" points="236.25,-293.1 229.96,-284.58 229.57,-295.17 236.25,-293.1"/>
</g>
<!-- Node4 -->
<g id="node4" class="node">
<title>Node4</title>
<g id="a_node4"><a xlink:href="class_ogre_1_1_r_t_shader_1_1_f_f_p_colour.html" target="_top" xlink:title="Colour sub render state implementation of the Fixed Function Pipeline.">
<polygon fill="none" stroke="black" points="341.62,-430.5 341.62,-448.5 484.71,-448.5 484.71,-430.5 341.62,-430.5"/>
<text text-anchor="middle" x="413.16" y="-436.5" font-family="Helvetica,sans-Serif" font-size="10.00">Ogre::RTShader::FFPColour</text>
</a>
</g>
</g>
<!-- Node1&#45;&gt;Node4 -->
<g id="edge3" class="edge">
<title>Node1&#45;&gt;Node4</title>
<path fill="none" stroke="midnightblue" d="M236.41,-294.1C252.32,-327.58 286.05,-388.36 333.75,-420.5 339.91,-424.65 346.88,-427.89 354.06,-430.43"/>
<polygon fill="midnightblue" stroke="midnightblue" points="239.42,-292.26 232.05,-284.65 233.06,-295.19 239.42,-292.26"/>
</g>
<!-- Node5 -->
<g id="node5" class="node">
<title>Node5</title>
<g id="a_node5"><a xlink:href="class_ogre_1_1_r_t_shader_1_1_f_f_p_fog.html" target="_top" xlink:title="Fog sub render state implementation of the Fixed Function Pipeline.">
<polygon fill="none" stroke="black" points="347.73,-393.5 347.73,-411.5 478.6,-411.5 478.6,-393.5 347.73,-393.5"/>
<text text-anchor="middle" x="413.16" y="-399.5" font-family="Helvetica,sans-Serif" font-size="10.00">Ogre::RTShader::FFPFog</text>
</a>
</g>
</g>
<!-- Node1&#45;&gt;Node5 -->
<g id="edge4" class="edge">
<title>Node1&#45;&gt;Node5</title>
<path fill="none" stroke="midnightblue" d="M241.47,-293.23C260.21,-319.1 294.29,-360.71 333.75,-383.5 340.91,-387.63 348.93,-390.87 357.04,-393.4"/>
<polygon fill="midnightblue" stroke="midnightblue" points="244.13,-290.93 235.5,-284.79 238.42,-294.98 244.13,-290.93"/>
</g>
<!-- Node6 -->
<g id="node6" class="node">
<title>Node6</title>
<g id="a_node6"><a xlink:href="class_ogre_1_1_r_t_shader_1_1_f_f_p_lighting.html" target="_top" xlink:title="Lighting sub render state implementation of the Fixed Function Pipeline.">
<polygon fill="none" stroke="black" points="338.83,-356.5 338.83,-374.5 487.5,-374.5 487.5,-356.5 338.83,-356.5"/>
<text text-anchor="middle" x="413.16" y="-362.5" font-family="Helvetica,sans-Serif" font-size="10.00">Ogre::RTShader::FFPLighting</text>
</a>
</g>
</g>
<!-- Node1&#45;&gt;Node6 -->
<g id="edge5" class="edge">
<title>Node1&#45;&gt;Node6</title>
<path fill="none" stroke="midnightblue" d="M249.7,-291.17C270.5,-308.35 302.3,-332.22 333.75,-346.5 342.68,-350.55 352.59,-353.81 362.27,-356.4"/>
<polygon fill="midnightblue" stroke="midnightblue" points="251.93,-288.48 242.03,-284.72 247.43,-293.84 251.93,-288.48"/>
</g>
<!-- Node7 -->
<g id="node7" class="node">
<title>Node7</title>
<g id="a_node7"><a xlink:href="class_ogre_1_1_r_t_shader_1_1_f_f_p_texturing.html" target="_top" xlink:title="Texturing sub render state implementation of the Fixed Function Pipeline.">
<polygon fill="none" stroke="black" points="336.06,-319.5 336.06,-337.5 490.27,-337.5 490.27,-319.5 336.06,-319.5"/>
<text text-anchor="middle" x="413.16" y="-325.5" font-family="Helvetica,sans-Serif" font-size="10.00">Ogre::RTShader::FFPTexturing</text>
</a>
</g>
</g>
<!-- Node1&#45;&gt;Node7 -->
<g id="edge6" class="edge">
<title>Node1&#45;&gt;Node7</title>
<path fill="none" stroke="midnightblue" d="M271.74,-288.29C290.76,-295.38 313.16,-303.3 333.75,-309.5 345.82,-313.14 359.1,-316.56 371.24,-319.48"/>
<polygon fill="midnightblue" stroke="midnightblue" points="272.72,-284.92 262.13,-284.68 270.26,-291.48 272.72,-284.92"/>
</g>
<!-- Node9 -->
<g id="node9" class="node">
<title>Node9</title>
<g id="a_node9"><a xlink:href="class_ogre_1_1_r_t_shader_1_1_f_f_p_transform.html" target="_top" xlink:title="Transform sub render state implementation of the Fixed Function Pipeline.">
<polygon fill="none" stroke="black" points="333.75,-282.5 333.75,-300.5 492.58,-300.5 492.58,-282.5 333.75,-282.5"/>
<text text-anchor="middle" x="413.16" y="-288.5" font-family="Helvetica,sans-Serif" font-size="10.00">Ogre::RTShader::FFPTransform</text>
</a>
</g>
</g>
<!-- Node1&#45;&gt;Node9 -->
<g id="edge8" class="edge">
<title>Node1&#45;&gt;Node9</title>
<path fill="none" stroke="midnightblue" d="M307.79,-279.72C316.4,-280.69 325.15,-281.68 333.72,-282.65"/>
<polygon fill="midnightblue" stroke="midnightblue" points="308.09,-276.23 297.76,-278.59 307.31,-283.19 308.09,-276.23"/>
</g>
<!-- Node10 -->
<g id="node10" class="node">
<title>Node10</title>
<g id="a_node10"><a xlink:href="class_ogre_1_1_r_t_shader_1_1_hardware_skinning.html" target="_top" xlink:title="Implement a sub render state which performs hardware skinning.">
<polygon fill="none" stroke="black" points="344.12,-235.5 344.12,-263.5 482.21,-263.5 482.21,-235.5 344.12,-235.5"/>
<text text-anchor="start" x="352.12" y="-251.5" font-family="Helvetica,sans-Serif" font-size="10.00">Ogre::RTShader::Hardware</text>
<text text-anchor="middle" x="413.16" y="-241.5" font-family="Helvetica,sans-Serif" font-size="10.00">Skinning</text>
</a>
</g>
</g>
<!-- Node1&#45;&gt;Node10 -->
<g id="edge9" class="edge">
<title>Node1&#45;&gt;Node10</title>
<path fill="none" stroke="midnightblue" d="M307.8,-261.28C319.85,-259.92 332.15,-258.53 343.89,-257.21"/>
<polygon fill="midnightblue" stroke="midnightblue" points="307.31,-257.81 297.76,-262.41 308.09,-264.77 307.31,-257.81"/>
</g>
<!-- Node11 -->
<g id="node11" class="node">
<title>Node11</title>
<g id="a_node11"><a xlink:href="class_ogre_1_1_r_t_shader_1_1_integrated_p_s_s_m3.html" target="_top" xlink:title="Integrated PSSM shadow receiver with 3 splits sub render state implementation.">
<polygon fill="none" stroke="black" points="343.27,-188.5 343.27,-216.5 483.05,-216.5 483.05,-188.5 343.27,-188.5"/>
<text text-anchor="start" x="351.27" y="-204.5" font-family="Helvetica,sans-Serif" font-size="10.00">Ogre::RTShader::Integrated</text>
<text text-anchor="middle" x="413.16" y="-194.5" font-family="Helvetica,sans-Serif" font-size="10.00">PSSM3</text>
</a>
</g>
</g>
<!-- Node1&#45;&gt;Node11 -->
<g id="edge10" class="edge">
<title>Node1&#45;&gt;Node11</title>
<path fill="none" stroke="midnightblue" d="M266.7,-252.27C286.69,-243.62 311.27,-233.47 333.75,-225.5 342.58,-222.37 352.06,-219.33 361.28,-216.53"/>
<polygon fill="midnightblue" stroke="midnightblue" points="265.06,-249.17 257.29,-256.38 267.86,-255.59 265.06,-249.17"/>
</g>
<!-- Node12 -->
<g id="node12" class="node">
<title>Node12</title>
<g id="a_node12"><a xlink:href="class_ogre_1_1_r_t_shader_1_1_normal_map_lighting.html" target="_top" xlink:title="Normal Map Lighting extension sub render state implementation.">
<polygon fill="none" stroke="black" points="339.95,-141.5 339.95,-169.5 486.38,-169.5 486.38,-141.5 339.95,-141.5"/>
<text text-anchor="start" x="347.95" y="-157.5" font-family="Helvetica,sans-Serif" font-size="10.00">Ogre::RTShader::NormalMap</text>
<text text-anchor="middle" x="413.16" y="-147.5" font-family="Helvetica,sans-Serif" font-size="10.00">Lighting</text>
</a>
</g>
</g>
<!-- Node1&#45;&gt;Node12 -->
<g id="edge11" class="edge">
<title>Node1&#45;&gt;Node12</title>
<path fill="none" stroke="midnightblue" d="M246.04,-248.79C266.28,-227.99 299.43,-197.08 333.75,-178.5 339.99,-175.12 346.78,-172.19 353.67,-169.65"/>
<polygon fill="midnightblue" stroke="midnightblue" points="243.32,-246.58 238.94,-256.22 248.38,-251.41 243.32,-246.58"/>
</g>
<!-- Node13 -->
<g id="node13" class="node">
<title>Node13</title>
<g id="a_node13"><a xlink:href="class_ogre_1_1_r_t_shader_1_1_per_pixel_lighting.html" target="_top" xlink:title="Per pixel Lighting extension sub render state implementation.">
<polygon fill="none" stroke="black" points="347.17,-94.5 347.17,-122.5 479.16,-122.5 479.16,-94.5 347.17,-94.5"/>
<text text-anchor="start" x="355.17" y="-110.5" font-family="Helvetica,sans-Serif" font-size="10.00">Ogre::RTShader::PerPixel</text>
<text text-anchor="middle" x="413.16" y="-100.5" font-family="Helvetica,sans-Serif" font-size="10.00">Lighting</text>
</a>
</g>
</g>
<!-- Node1&#45;&gt;Node13 -->
<g id="edge12" class="edge">
<title>Node1&#45;&gt;Node13</title>
<path fill="none" stroke="midnightblue" d="M238.06,-247.11C255.14,-216.09 289.38,-161.76 333.75,-131.5 338.79,-128.06 344.35,-125.13 350.11,-122.63"/>
<polygon fill="midnightblue" stroke="midnightblue" points="234.78,-245.83 233.13,-256.3 240.94,-249.14 234.78,-245.83"/>
</g>
<!-- Node14 -->
<g id="node14" class="node">
<title>Node14</title>
<g id="a_node14"><a xlink:href="class_ogre_1_1_r_t_shader_1_1_texture_atlas_sampler.html" target="_top" xlink:title="Implements texture atlas sampling.">
<polygon fill="none" stroke="black" points="338.28,-47.5 338.28,-75.5 488.05,-75.5 488.05,-47.5 338.28,-47.5"/>
<text text-anchor="start" x="346.28" y="-63.5" font-family="Helvetica,sans-Serif" font-size="10.00">Ogre::RTShader::TextureAtlas</text>
<text text-anchor="middle" x="413.16" y="-53.5" font-family="Helvetica,sans-Serif" font-size="10.00">Sampler</text>
</a>
</g>
</g>
<!-- Node1&#45;&gt;Node14 -->
<g id="edge13" class="edge">
<title>Node1&#45;&gt;Node14</title>
<path fill="none" stroke="midnightblue" d="M233.32,-246.81C246.63,-207.2 278.8,-127.65 333.75,-84.5 338.21,-81 343.2,-78.02 348.43,-75.51"/>
<polygon fill="midnightblue" stroke="midnightblue" points="229.96,-245.82 230.2,-256.41 236.61,-247.98 229.96,-245.82"/>
</g>
<!-- Node15 -->
<g id="node15" class="node">
<title>Node15</title>
<g id="a_node15"><a xlink:href="class_ogre_1_1_r_t_shader_1_1_triplanar_texturing.html" target="_top" xlink:title="Triplanar Texturing.">
<polygon fill="none" stroke="black" points="346.25,-0.5 346.25,-28.5 480.08,-28.5 480.08,-0.5 346.25,-0.5"/>
<text text-anchor="start" x="354.25" y="-16.5" font-family="Helvetica,sans-Serif" font-size="10.00">Ogre::RTShader::Triplanar</text>
<text text-anchor="middle" x="413.16" y="-6.5" font-family="Helvetica,sans-Serif" font-size="10.00">Texturing</text>
</a>
</g>
</g>
<!-- Node1&#45;&gt;Node15 -->
<g id="edge14" class="edge">
<title>Node1&#45;&gt;Node15</title>
<path fill="none" stroke="midnightblue" d="M230.4,-246.32C240.1,-199.04 268.16,-94.06 333.75,-37.5 337.73,-34.07 342.19,-31.15 346.92,-28.67"/>
<polygon fill="midnightblue" stroke="midnightblue" points="226.93,-245.78 228.45,-256.26 233.8,-247.12 226.93,-245.78"/>
</g>
<!-- Node2 -->
<g id="node2" class="node">
<title>Node2</title>
<g id="a_node2"><a xlink:href="class_ogre_1_1_allocated_object.html" target="_top" xlink:title="Superclass for all objects that wish to use custom memory allocators when their new / delete operator...">
<polygon fill="none" stroke="black" points="0,-261.5 0,-279.5 116.42,-279.5 116.42,-261.5 0,-261.5"/>
<text text-anchor="middle" x="58.21" y="-267.5" font-family="Helvetica,sans-Serif" font-size="10.00">RTShaderSystemAlloc</text>
</a>
</g>
</g>
<!-- Node2&#45;&gt;Node1 -->
<g id="edge1" class="edge">
<title>Node2&#45;&gt;Node1</title>
<path fill="none" stroke="midnightblue" d="M126.93,-270.5C135.28,-270.5 143.83,-270.5 152.24,-270.5"/>
<polygon fill="midnightblue" stroke="midnightblue" points="126.87,-267 116.87,-270.5 126.87,-274 126.87,-267"/>
</g>
<!-- Node8 -->
<g id="node8" class="node">
<title>Node8</title>
<g id="a_node8"><a xlink:href="class_ogre_1_1_r_t_shader_1_1_layered_blending.html" target="_top" xlink:title="Texturing sub render state implementation of layered blending.">
<polygon fill="none" stroke="black" points="528.58,-319.5 528.58,-337.5 698.38,-337.5 698.38,-319.5 528.58,-319.5"/>
<text text-anchor="middle" x="613.48" y="-325.5" font-family="Helvetica,sans-Serif" font-size="10.00">Ogre::RTShader::LayeredBlending</text>
</a>
</g>
</g>
<!-- Node7&#45;&gt;Node8 -->
<g id="edge7" class="edge">
<title>Node7&#45;&gt;Node8</title>
<path fill="none" stroke="midnightblue" d="M500.29,-328.5C509.59,-328.5 519.04,-328.5 528.32,-328.5"/>
<polygon fill="midnightblue" stroke="midnightblue" points="500.27,-325 490.27,-328.5 500.27,-332 500.27,-325"/>
</g>
</g>
</svg>
