<?xml version="1.0" encoding="UTF-8" standalone="no"?>
<!DOCTYPE svg PUBLIC "-//W3C//DTD SVG 1.1//EN"
 "http://www.w3.org/Graphics/SVG/1.1/DTD/svg11.dtd">
<!-- Generated by graphviz version 2.43.0 (0)
 -->
<!-- Title: Ogre::OctreeRaySceneQuery Pages: 1 -->
<svg width="278pt" height="247pt"
 viewBox="0.00 0.00 278.05 247.00" xmlns="http://www.w3.org/2000/svg" xmlns:xlink="http://www.w3.org/1999/xlink">
<g id="graph0" class="graph" transform="scale(1 1) rotate(0) translate(4 243)">
<title>Ogre::OctreeRaySceneQuery</title>
<!-- Node1 -->
<g id="node1" class="node">
<title>Node1</title>
<g id="a_node1"><a xlink:title="Octree implementation of RaySceneQuery.">
<polygon fill="#bfbfbf" stroke="black" points="48.1,-0.5 48.1,-18.5 195.27,-18.5 195.27,-0.5 48.1,-0.5"/>
<text text-anchor="middle" x="121.69" y="-6.5" font-family="Helvetica,sans-Serif" font-size="10.00">Ogre::OctreeRaySceneQuery</text>
</a>
</g>
</g>
<!-- Node2 -->
<g id="node2" class="node">
<title>Node2</title>
<g id="a_node2"><a xlink:href="class_ogre_1_1_default_ray_scene_query.html" target="_top" xlink:title="Default implementation of RaySceneQuery.">
<polygon fill="none" stroke="black" points="47.27,-55.5 47.27,-73.5 196.11,-73.5 196.11,-55.5 47.27,-55.5"/>
<text text-anchor="middle" x="121.69" y="-61.5" font-family="Helvetica,sans-Serif" font-size="10.00">Ogre::DefaultRaySceneQuery</text>
</a>
</g>
</g>
<!-- Node2&#45;&gt;Node1 -->
<g id="edge1" class="edge">
<title>Node2&#45;&gt;Node1</title>
<path fill="none" stroke="midnightblue" d="M121.69,-45.17C121.69,-36.09 121.69,-25.59 121.69,-18.55"/>
<polygon fill="midnightblue" stroke="midnightblue" points="118.19,-45.22 121.69,-55.22 125.19,-45.22 118.19,-45.22"/>
</g>
<!-- Node3 -->
<g id="node3" class="node">
<title>Node3</title>
<g id="a_node3"><a xlink:href="class_ogre_1_1_ray_scene_query.html" target="_top" xlink:title="Specialises the SceneQuery class for querying along a ray.">
<polygon fill="none" stroke="black" points="63.11,-110.5 63.11,-128.5 180.27,-128.5 180.27,-110.5 63.11,-110.5"/>
<text text-anchor="middle" x="121.69" y="-116.5" font-family="Helvetica,sans-Serif" font-size="10.00">Ogre::RaySceneQuery</text>
</a>
</g>
</g>
<!-- Node3&#45;&gt;Node2 -->
<g id="edge2" class="edge">
<title>Node3&#45;&gt;Node2</title>
<path fill="none" stroke="midnightblue" d="M121.69,-100.17C121.69,-91.09 121.69,-80.59 121.69,-73.55"/>
<polygon fill="midnightblue" stroke="midnightblue" points="118.19,-100.22 121.69,-110.22 125.19,-100.22 118.19,-100.22"/>
</g>
<!-- Node4 -->
<g id="node4" class="node">
<title>Node4</title>
<g id="a_node4"><a xlink:href="class_ogre_1_1_scene_query.html" target="_top" xlink:title="A class for performing queries on a scene.">
<polygon fill="none" stroke="black" points="0,-165.5 0,-183.5 99.37,-183.5 99.37,-165.5 0,-165.5"/>
<text text-anchor="middle" x="49.69" y="-171.5" font-family="Helvetica,sans-Serif" font-size="10.00">Ogre::SceneQuery</text>
</a>
</g>
</g>
<!-- Node4&#45;&gt;Node3 -->
<g id="edge3" class="edge">
<title>Node4&#45;&gt;Node3</title>
<path fill="none" stroke="midnightblue" d="M68.72,-159.49C82.09,-149.65 99.51,-136.83 110.65,-128.63"/>
<polygon fill="midnightblue" stroke="midnightblue" points="66.6,-156.7 60.62,-165.45 70.75,-162.34 66.6,-156.7"/>
</g>
<!-- Node5 -->
<g id="node5" class="node">
<title>Node5</title>
<g id="a_node5"><a xlink:href="class_ogre_1_1_allocated_object.html" target="_top" xlink:title="Superclass for all objects that wish to use custom memory allocators when their new / delete operator...">
<polygon fill="none" stroke="black" points="8.34,-220.5 8.34,-238.5 91.04,-238.5 91.04,-220.5 8.34,-220.5"/>
<text text-anchor="middle" x="49.69" y="-226.5" font-family="Helvetica,sans-Serif" font-size="10.00">SceneMgtAlloc</text>
</a>
</g>
</g>
<!-- Node5&#45;&gt;Node4 -->
<g id="edge4" class="edge">
<title>Node5&#45;&gt;Node4</title>
<path fill="none" stroke="midnightblue" d="M49.69,-210.17C49.69,-201.09 49.69,-190.59 49.69,-183.55"/>
<polygon fill="midnightblue" stroke="midnightblue" points="46.19,-210.22 49.69,-220.22 53.19,-210.22 46.19,-210.22"/>
</g>
<!-- Node6 -->
<g id="node6" class="node">
<title>Node6</title>
<g id="a_node6"><a xlink:href="class_ogre_1_1_ray_scene_query_listener.html" target="_top" xlink:title="Alternative listener class for dealing with RaySceneQuery.">
<polygon fill="none" stroke="black" points="117.32,-165.5 117.32,-183.5 270.05,-183.5 270.05,-165.5 117.32,-165.5"/>
<text text-anchor="middle" x="193.69" y="-171.5" font-family="Helvetica,sans-Serif" font-size="10.00">Ogre::RaySceneQueryListener</text>
</a>
</g>
</g>
<!-- Node6&#45;&gt;Node3 -->
<g id="edge5" class="edge">
<title>Node6&#45;&gt;Node3</title>
<path fill="none" stroke="midnightblue" d="M174.66,-159.49C161.29,-149.65 143.87,-136.83 132.73,-128.63"/>
<polygon fill="midnightblue" stroke="midnightblue" points="172.62,-162.34 182.75,-165.45 176.77,-156.7 172.62,-162.34"/>
</g>
</g>
</svg>
