<?xml version="1.0" encoding="UTF-8" standalone="no"?>
<!DOCTYPE svg PUBLIC "-//W3C//DTD SVG 1.1//EN"
 "http://www.w3.org/Graphics/SVG/1.1/DTD/svg11.dtd">
<!-- Generated by graphviz version 2.43.0 (0)
 -->
<!-- Title: Ogre::v1::D3D11HardwareBuffer Pages: 1 -->
<svg width="168pt" height="137pt"
 viewBox="0.00 0.00 168.15 137.00" xmlns="http://www.w3.org/2000/svg" xmlns:xlink="http://www.w3.org/1999/xlink">
<g id="graph0" class="graph" transform="scale(1 1) rotate(0) translate(4 133)">
<title>Ogre::v1::D3D11HardwareBuffer</title>
<!-- Node1 -->
<g id="node1" class="node">
<title>Node1</title>
<g id="a_node1"><a xlink:title="Base implementation of a D3D11 buffer, dealing with all the common aspects.">
<polygon fill="#bfbfbf" stroke="black" points="0,-0.5 0,-18.5 160.15,-18.5 160.15,-0.5 0,-0.5"/>
<text text-anchor="middle" x="80.08" y="-6.5" font-family="Helvetica,sans-Serif" font-size="10.00">Ogre::v1::D3D11HardwareBuffer</text>
</a>
</g>
</g>
<!-- Node2 -->
<g id="node2" class="node">
<title>Node2</title>
<g id="a_node2"><a xlink:href="class_ogre_1_1v1_1_1_hardware_buffer.html" target="_top" xlink:title="Abstract class defining common features of hardware buffers.">
<polygon fill="none" stroke="black" points="15.2,-55.5 15.2,-73.5 144.96,-73.5 144.96,-55.5 15.2,-55.5"/>
<text text-anchor="middle" x="80.08" y="-61.5" font-family="Helvetica,sans-Serif" font-size="10.00">Ogre::v1::HardwareBuffer</text>
</a>
</g>
</g>
<!-- Node2&#45;&gt;Node1 -->
<g id="edge1" class="edge">
<title>Node2&#45;&gt;Node1</title>
<path fill="none" stroke="midnightblue" d="M80.08,-45.17C80.08,-36.09 80.08,-25.59 80.08,-18.55"/>
<polygon fill="midnightblue" stroke="midnightblue" points="76.58,-45.22 80.08,-55.22 83.58,-45.22 76.58,-45.22"/>
</g>
<!-- Node3 -->
<g id="node3" class="node">
<title>Node3</title>
<g id="a_node3"><a xlink:href="class_ogre_1_1_allocated_object.html" target="_top" xlink:title="Superclass for all objects that wish to use custom memory allocators when their new / delete operator...">
<polygon fill="none" stroke="black" points="47.99,-110.5 47.99,-128.5 112.16,-128.5 112.16,-110.5 47.99,-110.5"/>
<text text-anchor="middle" x="80.08" y="-116.5" font-family="Helvetica,sans-Serif" font-size="10.00">BufferAlloc</text>
</a>
</g>
</g>
<!-- Node3&#45;&gt;Node2 -->
<g id="edge2" class="edge">
<title>Node3&#45;&gt;Node2</title>
<path fill="none" stroke="midnightblue" d="M80.08,-100.17C80.08,-91.09 80.08,-80.59 80.08,-73.55"/>
<polygon fill="midnightblue" stroke="midnightblue" points="76.58,-100.22 80.08,-110.22 83.58,-100.22 76.58,-100.22"/>
</g>
</g>
</svg>
