<?xml version="1.0" encoding="UTF-8" standalone="no"?>
<!DOCTYPE svg PUBLIC "-//W3C//DTD SVG 1.1//EN"
 "http://www.w3.org/Graphics/SVG/1.1/DTD/svg11.dtd">
<!-- Generated by graphviz version 2.43.0 (0)
 -->
<!-- Title: Ogre::RenderSystem Pages: 1 -->
<svg width="425pt" height="212pt"
 viewBox="0.00 0.00 425.35 212.00" xmlns="http://www.w3.org/2000/svg" xmlns:xlink="http://www.w3.org/1999/xlink">
<g id="graph0" class="graph" transform="scale(1 1) rotate(0) translate(4 208)">
<title>Ogre::RenderSystem</title>
<!-- Node1 -->
<g id="node1" class="node">
<title>Node1</title>
<g id="a_node1"><a xlink:title="Defines the functionality of a 3D API.">
<polygon fill="#bfbfbf" stroke="black" points="123.14,-92.5 123.14,-110.5 233.07,-110.5 233.07,-92.5 123.14,-92.5"/>
<text text-anchor="middle" x="178.11" y="-98.5" font-family="Helvetica,sans-Serif" font-size="10.00">Ogre::RenderSystem</text>
</a>
</g>
</g>
<!-- Node3 -->
<g id="node3" class="node">
<title>Node3</title>
<g id="a_node3"><a xlink:href="class_ogre_1_1_d3_d11_render_system.html" target="_top" xlink:title="Implementation of DirectX11 as a rendering system.">
<polygon fill="none" stroke="black" points="273.05,-185.5 273.05,-203.5 413.37,-203.5 413.37,-185.5 273.05,-185.5"/>
<text text-anchor="middle" x="343.21" y="-191.5" font-family="Helvetica,sans-Serif" font-size="10.00">Ogre::D3D11RenderSystem</text>
</a>
</g>
</g>
<!-- Node1&#45;&gt;Node3 -->
<g id="edge2" class="edge">
<title>Node1&#45;&gt;Node3</title>
<path fill="none" stroke="midnightblue" d="M194.56,-118.26C211.31,-135.41 239.59,-161.6 269.07,-176.5 276.3,-180.16 284.32,-183.1 292.33,-185.46"/>
<polygon fill="midnightblue" stroke="midnightblue" points="196.75,-115.48 187.32,-110.66 191.68,-120.31 196.75,-115.48"/>
</g>
<!-- Node4 -->
<g id="node4" class="node">
<title>Node4</title>
<g id="a_node4"><a xlink:href="class_ogre_1_1_d3_d9_render_system.html" target="_top" xlink:title="Implementation of DirectX9 as a rendering system.">
<polygon fill="none" stroke="black" points="275.46,-148.5 275.46,-166.5 410.95,-166.5 410.95,-148.5 275.46,-148.5"/>
<text text-anchor="middle" x="343.21" y="-154.5" font-family="Helvetica,sans-Serif" font-size="10.00">Ogre::D3D9RenderSystem</text>
</a>
</g>
</g>
<!-- Node1&#45;&gt;Node4 -->
<g id="edge3" class="edge">
<title>Node1&#45;&gt;Node4</title>
<path fill="none" stroke="midnightblue" d="M207.18,-114.71C224.71,-122.62 247.89,-132.47 269.07,-139.5 279.12,-142.84 290.13,-145.86 300.49,-148.44"/>
<polygon fill="midnightblue" stroke="midnightblue" points="208.62,-111.53 198.07,-110.55 205.71,-117.89 208.62,-111.53"/>
</g>
<!-- Node5 -->
<g id="node5" class="node">
<title>Node5</title>
<g id="a_node5"><a xlink:href="class_ogre_1_1_g_l3_plus_render_system.html" target="_top" xlink:title="Implementation of GL 3 as a rendering system.">
<polygon fill="none" stroke="black" points="269.07,-111.5 269.07,-129.5 417.35,-129.5 417.35,-111.5 269.07,-111.5"/>
<text text-anchor="middle" x="343.21" y="-117.5" font-family="Helvetica,sans-Serif" font-size="10.00">Ogre::GL3PlusRenderSystem</text>
</a>
</g>
</g>
<!-- Node1&#45;&gt;Node5 -->
<g id="edge4" class="edge">
<title>Node1&#45;&gt;Node5</title>
<path fill="none" stroke="midnightblue" d="M243.48,-109C251.85,-109.97 260.47,-110.98 268.97,-111.97"/>
<polygon fill="midnightblue" stroke="midnightblue" points="243.75,-105.51 233.42,-107.83 242.94,-112.46 243.75,-105.51"/>
</g>
<!-- Node6 -->
<g id="node6" class="node">
<title>Node6</title>
<g id="a_node6"><a xlink:href="class_ogre_1_1_g_l_e_s2_render_system.html" target="_top" xlink:title="Implementation of GL ES 2.x as a rendering system.">
<polygon fill="none" stroke="black" points="272.12,-74.5 272.12,-92.5 414.29,-92.5 414.29,-74.5 272.12,-74.5"/>
<text text-anchor="middle" x="343.21" y="-80.5" font-family="Helvetica,sans-Serif" font-size="10.00">Ogre::GLES2RenderSystem</text>
</a>
</g>
</g>
<!-- Node1&#45;&gt;Node6 -->
<g id="edge5" class="edge">
<title>Node1&#45;&gt;Node6</title>
<path fill="none" stroke="midnightblue" d="M243.41,-94.4C252.76,-93.37 262.43,-92.3 271.89,-91.26"/>
<polygon fill="midnightblue" stroke="midnightblue" points="242.97,-90.93 233.42,-95.51 243.74,-97.89 242.97,-90.93"/>
</g>
<!-- Node7 -->
<g id="node7" class="node">
<title>Node7</title>
<g id="a_node7"><a xlink:href="class_ogre_1_1_metal_render_system.html" target="_top" xlink:title="Implementation of Metal as a rendering system.">
<polygon fill="none" stroke="black" points="276.02,-37.5 276.02,-55.5 410.4,-55.5 410.4,-37.5 276.02,-37.5"/>
<text text-anchor="middle" x="343.21" y="-43.5" font-family="Helvetica,sans-Serif" font-size="10.00">Ogre::MetalRenderSystem</text>
</a>
</g>
</g>
<!-- Node1&#45;&gt;Node7 -->
<g id="edge6" class="edge">
<title>Node1&#45;&gt;Node7</title>
<path fill="none" stroke="midnightblue" d="M208.38,-88.16C225.77,-80.57 248.4,-71.25 269.07,-64.5 279.26,-61.17 290.43,-58.13 300.9,-55.53"/>
<polygon fill="midnightblue" stroke="midnightblue" points="206.52,-85.16 198.8,-92.41 209.36,-91.56 206.52,-85.16"/>
</g>
<!-- Node8 -->
<g id="node8" class="node">
<title>Node8</title>
<g id="a_node8"><a xlink:href="class_ogre_1_1_n_u_l_l_render_system.html" target="_top" xlink:title="Implementation of NULL as a rendering system.">
<polygon fill="none" stroke="black" points="275.46,-0.5 275.46,-18.5 410.95,-18.5 410.95,-0.5 275.46,-0.5"/>
<text text-anchor="middle" x="343.21" y="-6.5" font-family="Helvetica,sans-Serif" font-size="10.00">Ogre::NULLRenderSystem</text>
</a>
</g>
</g>
<!-- Node1&#45;&gt;Node8 -->
<g id="edge7" class="edge">
<title>Node1&#45;&gt;Node8</title>
<path fill="none" stroke="midnightblue" d="M194.88,-84.7C211.69,-67.78 239.86,-42.15 269.07,-27.5 276.32,-23.87 284.34,-20.94 292.35,-18.58"/>
<polygon fill="midnightblue" stroke="midnightblue" points="192.03,-82.6 187.58,-92.22 197.06,-87.48 192.03,-82.6"/>
</g>
<!-- Node2 -->
<g id="node2" class="node">
<title>Node2</title>
<g id="a_node2"><a xlink:href="class_ogre_1_1_allocated_object.html" target="_top" xlink:title="Superclass for all objects that wish to use custom memory allocators when their new / delete operator...">
<polygon fill="none" stroke="black" points="0,-92.5 0,-110.5 87.14,-110.5 87.14,-92.5 0,-92.5"/>
<text text-anchor="middle" x="43.57" y="-98.5" font-family="Helvetica,sans-Serif" font-size="10.00">RenderSysAlloc</text>
</a>
</g>
</g>
<!-- Node2&#45;&gt;Node1 -->
<g id="edge1" class="edge">
<title>Node2&#45;&gt;Node1</title>
<path fill="none" stroke="midnightblue" d="M97.31,-101.5C105.72,-101.5 114.43,-101.5 122.88,-101.5"/>
<polygon fill="midnightblue" stroke="midnightblue" points="97.24,-98 87.24,-101.5 97.24,-105 97.24,-98"/>
</g>
</g>
</svg>
