<?xml version="1.0" encoding="UTF-8" standalone="no"?>
<!DOCTYPE svg PUBLIC "-//W3C//DTD SVG 1.1//EN"
 "http://www.w3.org/Graphics/SVG/1.1/DTD/svg11.dtd">
<!-- Generated by graphviz version 2.43.0 (0)
 -->
<!-- Title: Ogre::MetalPlugin Pages: 1 -->
<svg width="104pt" height="137pt"
 viewBox="0.00 0.00 104.04 137.00" xmlns="http://www.w3.org/2000/svg" xmlns:xlink="http://www.w3.org/1999/xlink">
<g id="graph0" class="graph" transform="scale(1 1) rotate(0) translate(4 133)">
<title>Ogre::MetalPlugin</title>
<!-- Node1 -->
<g id="node1" class="node">
<title>Node1</title>
<g id="a_node1"><a xlink:title="Plugin instance for Metal Manager.">
<polygon fill="#bfbfbf" stroke="black" points="0,-0.5 0,-18.5 96.04,-18.5 96.04,-0.5 0,-0.5"/>
<text text-anchor="middle" x="48.02" y="-6.5" font-family="Helvetica,sans-Serif" font-size="10.00">Ogre::MetalPlugin</text>
</a>
</g>
</g>
<!-- Node2 -->
<g id="node2" class="node">
<title>Node2</title>
<g id="a_node2"><a xlink:href="class_ogre_1_1_plugin.html" target="_top" xlink:title="Class defining a generic OGRE plugin.">
<polygon fill="none" stroke="black" points="12.23,-55.5 12.23,-73.5 83.81,-73.5 83.81,-55.5 12.23,-55.5"/>
<text text-anchor="middle" x="48.02" y="-61.5" font-family="Helvetica,sans-Serif" font-size="10.00">Ogre::Plugin</text>
</a>
</g>
</g>
<!-- Node2&#45;&gt;Node1 -->
<g id="edge1" class="edge">
<title>Node2&#45;&gt;Node1</title>
<path fill="none" stroke="midnightblue" d="M48.02,-45.17C48.02,-36.09 48.02,-25.59 48.02,-18.55"/>
<polygon fill="midnightblue" stroke="midnightblue" points="44.52,-45.22 48.02,-55.22 51.52,-45.22 44.52,-45.22"/>
</g>
<!-- Node3 -->
<g id="node3" class="node">
<title>Node3</title>
<g id="a_node3"><a xlink:href="class_ogre_1_1_allocated_object.html" target="_top" xlink:title="Superclass for all objects that wish to use custom memory allocators when their new / delete operator...">
<polygon fill="none" stroke="black" points="15.28,-110.5 15.28,-128.5 80.76,-128.5 80.76,-110.5 15.28,-110.5"/>
<text text-anchor="middle" x="48.02" y="-116.5" font-family="Helvetica,sans-Serif" font-size="10.00">PluginAlloc</text>
</a>
</g>
</g>
<!-- Node3&#45;&gt;Node2 -->
<g id="edge2" class="edge">
<title>Node3&#45;&gt;Node2</title>
<path fill="none" stroke="midnightblue" d="M48.02,-100.17C48.02,-91.09 48.02,-80.59 48.02,-73.55"/>
<polygon fill="midnightblue" stroke="midnightblue" points="44.52,-100.22 48.02,-110.22 51.52,-100.22 44.52,-100.22"/>
</g>
</g>
</svg>
