<?xml version="1.0" encoding="UTF-8" standalone="no"?>
<!DOCTYPE svg PUBLIC "-//W3C//DTD SVG 1.1//EN"
 "http://www.w3.org/Graphics/SVG/1.1/DTD/svg11.dtd">
<!-- Generated by graphviz version 2.43.0 (0)
 -->
<!-- Title: Ogre::NULLTextureGpu Pages: 1 -->
<svg width="272pt" height="257pt"
 viewBox="0.00 0.00 272.37 257.00" xmlns="http://www.w3.org/2000/svg" xmlns:xlink="http://www.w3.org/1999/xlink">
<g id="graph0" class="graph" transform="scale(1 1) rotate(0) translate(4 253)">
<title>Ogre::NULLTextureGpu</title>
<!-- Node1 -->
<g id="node1" class="node">
<title>Node1</title>
<g id="a_node1"><a xlink:title=" ">
<polygon fill="#bfbfbf" stroke="black" points="80.47,-65.5 80.47,-83.5 200.78,-83.5 200.78,-65.5 80.47,-65.5"/>
<text text-anchor="middle" x="140.62" y="-71.5" font-family="Helvetica,sans-Serif" font-size="10.00">Ogre::NULLTextureGpu</text>
</a>
</g>
</g>
<!-- Node6 -->
<g id="node6" class="node">
<title>Node6</title>
<g id="a_node6"><a xlink:href="class_ogre_1_1_n_u_l_l_texture_gpu_render_target.html" target="_top" xlink:title=" ">
<polygon fill="none" stroke="black" points="64.07,-0.5 64.07,-28.5 217.18,-28.5 217.18,-0.5 64.07,-0.5"/>
<text text-anchor="start" x="72.07" y="-16.5" font-family="Helvetica,sans-Serif" font-size="10.00">Ogre::NULLTextureGpuRender</text>
<text text-anchor="middle" x="140.62" y="-6.5" font-family="Helvetica,sans-Serif" font-size="10.00">Target</text>
</a>
</g>
</g>
<!-- Node1&#45;&gt;Node6 -->
<g id="edge5" class="edge">
<title>Node1&#45;&gt;Node6</title>
<path fill="none" stroke="midnightblue" d="M140.62,-55.32C140.62,-46.75 140.62,-36.7 140.62,-28.84"/>
<polygon fill="midnightblue" stroke="midnightblue" points="137.12,-55.44 140.62,-65.44 144.12,-55.44 137.12,-55.44"/>
</g>
<!-- Node2 -->
<g id="node2" class="node">
<title>Node2</title>
<g id="a_node2"><a xlink:href="class_ogre_1_1_texture_gpu.html" target="_top" xlink:title=" ">
<polygon fill="none" stroke="black" points="92.88,-120.5 92.88,-138.5 188.36,-138.5 188.36,-120.5 92.88,-120.5"/>
<text text-anchor="middle" x="140.62" y="-126.5" font-family="Helvetica,sans-Serif" font-size="10.00">Ogre::TextureGpu</text>
</a>
</g>
</g>
<!-- Node2&#45;&gt;Node1 -->
<g id="edge1" class="edge">
<title>Node2&#45;&gt;Node1</title>
<path fill="none" stroke="midnightblue" d="M140.62,-110.17C140.62,-101.09 140.62,-90.59 140.62,-83.55"/>
<polygon fill="midnightblue" stroke="midnightblue" points="137.12,-110.22 140.62,-120.22 144.12,-110.22 137.12,-110.22"/>
</g>
<!-- Node3 -->
<g id="node3" class="node">
<title>Node3</title>
<g id="a_node3"><a xlink:href="struct_ogre_1_1_gpu_tracked_resource.html" target="_top" xlink:title=" ">
<polygon fill="none" stroke="black" points="0,-175.5 0,-193.5 141.24,-193.5 141.24,-175.5 0,-175.5"/>
<text text-anchor="middle" x="70.62" y="-181.5" font-family="Helvetica,sans-Serif" font-size="10.00">Ogre::GpuTrackedResource</text>
</a>
</g>
</g>
<!-- Node3&#45;&gt;Node2 -->
<g id="edge2" class="edge">
<title>Node3&#45;&gt;Node2</title>
<path fill="none" stroke="midnightblue" d="M89.5,-169.21C102.45,-159.41 119.16,-146.75 129.89,-138.63"/>
<polygon fill="midnightblue" stroke="midnightblue" points="87.11,-166.62 81.25,-175.45 91.34,-172.2 87.11,-166.62"/>
</g>
<!-- Node4 -->
<g id="node4" class="node">
<title>Node4</title>
<g id="a_node4"><a xlink:href="class_ogre_1_1_gpu_resource.html" target="_top" xlink:title=" ">
<polygon fill="none" stroke="black" points="158.88,-175.5 158.88,-193.5 264.37,-193.5 264.37,-175.5 158.88,-175.5"/>
<text text-anchor="middle" x="211.62" y="-181.5" font-family="Helvetica,sans-Serif" font-size="10.00">Ogre::GpuResource</text>
</a>
</g>
</g>
<!-- Node4&#45;&gt;Node2 -->
<g id="edge3" class="edge">
<title>Node4&#45;&gt;Node2</title>
<path fill="none" stroke="midnightblue" d="M192.48,-169.21C179.34,-159.41 162.39,-146.75 151.51,-138.63"/>
<polygon fill="midnightblue" stroke="midnightblue" points="190.73,-172.27 200.84,-175.45 194.92,-166.66 190.73,-172.27"/>
</g>
<!-- Node5 -->
<g id="node5" class="node">
<title>Node5</title>
<g id="a_node5"><a xlink:href="class_ogre_1_1_allocated_object.html" target="_top" xlink:title="Superclass for all objects that wish to use custom memory allocators when their new / delete operator...">
<polygon fill="none" stroke="black" points="171.39,-230.5 171.39,-248.5 251.86,-248.5 251.86,-230.5 171.39,-230.5"/>
<text text-anchor="middle" x="211.62" y="-236.5" font-family="Helvetica,sans-Serif" font-size="10.00">ResourceAlloc</text>
</a>
</g>
</g>
<!-- Node5&#45;&gt;Node4 -->
<g id="edge4" class="edge">
<title>Node5&#45;&gt;Node4</title>
<path fill="none" stroke="midnightblue" d="M211.62,-220.17C211.62,-211.09 211.62,-200.59 211.62,-193.55"/>
<polygon fill="midnightblue" stroke="midnightblue" points="208.12,-220.22 211.62,-230.22 215.12,-220.22 208.12,-220.22"/>
</g>
</g>
</svg>
