<?xml version="1.0" encoding="UTF-8" standalone="no"?>
<!DOCTYPE svg PUBLIC "-//W3C//DTD SVG 1.1//EN"
 "http://www.w3.org/Graphics/SVG/1.1/DTD/svg11.dtd">
<!-- Generated by graphviz version 2.43.0 (0)
 -->
<!-- Title: Ogre::RTShader::SGMaterialSerializerListener Pages: 1 -->
<svg width="264pt" height="102pt"
 viewBox="0.00 0.00 263.72 102.00" xmlns="http://www.w3.org/2000/svg" xmlns:xlink="http://www.w3.org/1999/xlink">
<g id="graph0" class="graph" transform="scale(1 1) rotate(0) translate(4 98)">
<title>Ogre::RTShader::SGMaterialSerializerListener</title>
<!-- Node1 -->
<g id="node1" class="node">
<title>Node1</title>
<g id="a_node1"><a xlink:title="This class responsible for translating core features of the RT Shader System for Ogre material script...">
<polygon fill="#bfbfbf" stroke="black" points="56.14,-0.5 56.14,-28.5 200.9,-28.5 200.9,-0.5 56.14,-0.5"/>
<text text-anchor="start" x="64.14" y="-16.5" font-family="Helvetica,sans-Serif" font-size="10.00">Ogre::RTShader::SGMaterial</text>
<text text-anchor="middle" x="128.52" y="-6.5" font-family="Helvetica,sans-Serif" font-size="10.00">SerializerListener</text>
</a>
</g>
</g>
<!-- Node2 -->
<g id="node2" class="node">
<title>Node2</title>
<g id="a_node2"><a xlink:href="class_ogre_1_1_material_serializer_1_1_listener.html" target="_top" xlink:title="Class that allows listening in on the various stages of material serialization process.">
<polygon fill="none" stroke="black" points="0,-65.5 0,-93.5 121.03,-93.5 121.03,-65.5 0,-65.5"/>
<text text-anchor="start" x="8" y="-81.5" font-family="Helvetica,sans-Serif" font-size="10.00">Ogre::MaterialSerializer</text>
<text text-anchor="middle" x="60.52" y="-71.5" font-family="Helvetica,sans-Serif" font-size="10.00">::Listener</text>
</a>
</g>
</g>
<!-- Node2&#45;&gt;Node1 -->
<g id="edge1" class="edge">
<title>Node2&#45;&gt;Node1</title>
<path fill="none" stroke="midnightblue" d="M82.24,-58.38C92.78,-48.61 105.15,-37.15 114.45,-28.54"/>
<polygon fill="midnightblue" stroke="midnightblue" points="79.56,-56.08 74.61,-65.45 84.32,-61.22 79.56,-56.08"/>
</g>
<!-- Node3 -->
<g id="node3" class="node">
<title>Node3</title>
<g id="a_node3"><a xlink:href="class_ogre_1_1_allocated_object.html" target="_top" xlink:title="Superclass for all objects that wish to use custom memory allocators when their new / delete operator...">
<polygon fill="none" stroke="black" points="139.31,-70.5 139.31,-88.5 255.72,-88.5 255.72,-70.5 139.31,-70.5"/>
<text text-anchor="middle" x="197.52" y="-76.5" font-family="Helvetica,sans-Serif" font-size="10.00">RTShaderSystemAlloc</text>
</a>
</g>
</g>
<!-- Node3&#45;&gt;Node1 -->
<g id="edge2" class="edge">
<title>Node3&#45;&gt;Node1</title>
<path fill="none" stroke="midnightblue" d="M180.81,-63.24C169.19,-52.64 153.87,-38.65 142.82,-28.56"/>
<polygon fill="midnightblue" stroke="midnightblue" points="178.75,-66.11 188.5,-70.26 183.47,-60.94 178.75,-66.11"/>
</g>
</g>
</svg>
