<?xml version="1.0" encoding="UTF-8" standalone="no"?>
<!DOCTYPE svg PUBLIC "-//W3C//DTD SVG 1.1//EN"
 "http://www.w3.org/Graphics/SVG/1.1/DTD/svg11.dtd">
<!-- Generated by graphviz version 2.43.0 (0)
 -->
<!-- Title: Ogre::EGLSupport Pages: 1 -->
<svg width="439pt" height="138pt"
 viewBox="0.00 0.00 438.71 138.00" xmlns="http://www.w3.org/2000/svg" xmlns:xlink="http://www.w3.org/1999/xlink">
<g id="graph0" class="graph" transform="scale(1 1) rotate(0) translate(4 134)">
<title>Ogre::EGLSupport</title>
<!-- Node1 -->
<g id="node1" class="node">
<title>Node1</title>
<g id="a_node1"><a xlink:title=" ">
<polygon fill="#bfbfbf" stroke="black" points="147.05,-55.5 147.05,-73.5 245.88,-73.5 245.88,-55.5 147.05,-55.5"/>
<text text-anchor="middle" x="196.46" y="-61.5" font-family="Helvetica,sans-Serif" font-size="10.00">Ogre::EGLSupport</text>
</a>
</g>
</g>
<!-- Node3 -->
<g id="node3" class="node">
<title>Node3</title>
<g id="a_node3"><a xlink:href="class_ogre_1_1_android_e_g_l_support.html" target="_top" xlink:title=" ">
<polygon fill="none" stroke="black" points="289.65,-111.5 289.65,-129.5 422.94,-129.5 422.94,-111.5 289.65,-111.5"/>
<text text-anchor="middle" x="356.29" y="-117.5" font-family="Helvetica,sans-Serif" font-size="10.00">Ogre::AndroidEGLSupport</text>
</a>
</g>
</g>
<!-- Node1&#45;&gt;Node3 -->
<g id="edge2" class="edge">
<title>Node1&#45;&gt;Node3</title>
<path fill="none" stroke="midnightblue" d="M224.17,-78.04C240.53,-85.94 262.06,-95.67 281.88,-102.5 291.68,-105.88 302.42,-108.88 312.59,-111.43"/>
<polygon fill="midnightblue" stroke="midnightblue" points="225.71,-74.89 215.19,-73.63 222.63,-81.18 225.71,-74.89"/>
</g>
<!-- Node4 -->
<g id="node4" class="node">
<title>Node4</title>
<g id="a_node4"><a xlink:href="class_ogre_1_1_emscripten_e_g_l_support.html" target="_top" xlink:title=" ">
<polygon fill="none" stroke="black" points="281.88,-74.5 281.88,-92.5 430.71,-92.5 430.71,-74.5 281.88,-74.5"/>
<text text-anchor="middle" x="356.29" y="-80.5" font-family="Helvetica,sans-Serif" font-size="10.00">Ogre::EmscriptenEGLSupport</text>
</a>
</g>
</g>
<!-- Node1&#45;&gt;Node4 -->
<g id="edge3" class="edge">
<title>Node1&#45;&gt;Node4</title>
<path fill="none" stroke="midnightblue" d="M256.14,-71.56C264.53,-72.57 273.24,-73.62 281.86,-74.66"/>
<polygon fill="midnightblue" stroke="midnightblue" points="256.45,-68.08 246.11,-70.36 255.62,-75.03 256.45,-68.08"/>
</g>
<!-- Node5 -->
<g id="node5" class="node">
<title>Node5</title>
<g id="a_node5"><a xlink:href="class_ogre_1_1_win32_e_g_l_support.html" target="_top" xlink:title=" ">
<polygon fill="none" stroke="black" points="292.71,-37.5 292.71,-55.5 419.88,-55.5 419.88,-37.5 292.71,-37.5"/>
<text text-anchor="middle" x="356.29" y="-43.5" font-family="Helvetica,sans-Serif" font-size="10.00">Ogre::Win32EGLSupport</text>
</a>
</g>
</g>
<!-- Node1&#45;&gt;Node5 -->
<g id="edge4" class="edge">
<title>Node1&#45;&gt;Node5</title>
<path fill="none" stroke="midnightblue" d="M256.3,-57.79C268.13,-56.44 280.6,-55.02 292.55,-53.66"/>
<polygon fill="midnightblue" stroke="midnightblue" points="255.65,-54.34 246.11,-58.95 256.44,-61.3 255.65,-54.34"/>
</g>
<!-- Node6 -->
<g id="node6" class="node">
<title>Node6</title>
<g id="a_node6"><a xlink:href="class_ogre_1_1_x11_e_g_l_support.html" target="_top" xlink:title=" ">
<polygon fill="none" stroke="black" points="298.36,-0.5 298.36,-18.5 414.23,-18.5 414.23,-0.5 298.36,-0.5"/>
<text text-anchor="middle" x="356.29" y="-6.5" font-family="Helvetica,sans-Serif" font-size="10.00">Ogre::X11EGLSupport</text>
</a>
</g>
</g>
<!-- Node1&#45;&gt;Node6 -->
<g id="edge5" class="edge">
<title>Node1&#45;&gt;Node6</title>
<path fill="none" stroke="midnightblue" d="M224.99,-50.99C241.26,-43.38 262.42,-34.09 281.88,-27.5 291.82,-24.13 302.72,-21.11 313,-18.55"/>
<polygon fill="midnightblue" stroke="midnightblue" points="223.07,-48.03 215.55,-55.48 226.08,-54.35 223.07,-48.03"/>
</g>
<!-- Node2 -->
<g id="node2" class="node">
<title>Node2</title>
<g id="a_node2"><a xlink:href="class_ogre_1_1_g_l_e_s2_support.html" target="_top" xlink:title=" ">
<polygon fill="none" stroke="black" points="0,-55.5 0,-73.5 111.05,-73.5 111.05,-55.5 0,-55.5"/>
<text text-anchor="middle" x="55.53" y="-61.5" font-family="Helvetica,sans-Serif" font-size="10.00">Ogre::GLES2Support</text>
</a>
</g>
</g>
<!-- Node2&#45;&gt;Node1 -->
<g id="edge1" class="edge">
<title>Node2&#45;&gt;Node1</title>
<path fill="none" stroke="midnightblue" d="M121.68,-64.5C130.14,-64.5 138.68,-64.5 146.8,-64.5"/>
<polygon fill="midnightblue" stroke="midnightblue" points="121.44,-61 111.44,-64.5 121.44,-68 121.44,-61"/>
</g>
</g>
</svg>
