<?xml version="1.0" encoding="UTF-8" standalone="no"?>
<!DOCTYPE svg PUBLIC "-//W3C//DTD SVG 1.1//EN"
 "http://www.w3.org/Graphics/SVG/1.1/DTD/svg11.dtd">
<!-- Generated by graphviz version 2.43.0 (0)
 -->
<!-- Title: Ogre::TextureFilter::PrepareForNormalMapping Pages: 1 -->
<svg width="151pt" height="157pt"
 viewBox="0.00 0.00 150.72 157.00" xmlns="http://www.w3.org/2000/svg" xmlns:xlink="http://www.w3.org/1999/xlink">
<g id="graph0" class="graph" transform="scale(1 1) rotate(0) translate(4 153)">
<title>Ogre::TextureFilter::PrepareForNormalMapping</title>
<!-- Node1 -->
<g id="node1" class="node">
<title>Node1</title>
<g id="a_node1"><a xlink:title=" ">
<polygon fill="#bfbfbf" stroke="black" points="0,-0.5 0,-28.5 142.72,-28.5 142.72,-0.5 0,-0.5"/>
<text text-anchor="start" x="8" y="-16.5" font-family="Helvetica,sans-Serif" font-size="10.00">Ogre::TextureFilter</text>
<text text-anchor="middle" x="71.36" y="-6.5" font-family="Helvetica,sans-Serif" font-size="10.00">::PrepareForNormalMapping</text>
</a>
</g>
</g>
<!-- Node2 -->
<g id="node2" class="node">
<title>Node2</title>
<g id="a_node2"><a xlink:href="class_ogre_1_1_texture_filter_1_1_filter_base.html" target="_top" xlink:title=" ">
<polygon fill="none" stroke="black" points="21.96,-65.5 21.96,-93.5 120.76,-93.5 120.76,-65.5 21.96,-65.5"/>
<text text-anchor="start" x="29.96" y="-81.5" font-family="Helvetica,sans-Serif" font-size="10.00">Ogre::TextureFilter</text>
<text text-anchor="middle" x="71.36" y="-71.5" font-family="Helvetica,sans-Serif" font-size="10.00">::FilterBase</text>
</a>
</g>
</g>
<!-- Node2&#45;&gt;Node1 -->
<g id="edge1" class="edge">
<title>Node2&#45;&gt;Node1</title>
<path fill="none" stroke="midnightblue" d="M71.36,-55.16C71.36,-46.17 71.36,-36.22 71.36,-28.54"/>
<polygon fill="midnightblue" stroke="midnightblue" points="67.86,-55.45 71.36,-65.45 74.86,-55.45 67.86,-55.45"/>
</g>
<!-- Node3 -->
<g id="node3" class="node">
<title>Node3</title>
<g id="a_node3"><a xlink:href="class_ogre_1_1_allocated_object.html" target="_top" xlink:title="Superclass for all objects that wish to use custom memory allocators when their new / delete operator...">
<polygon fill="none" stroke="black" points="31.12,-130.5 31.12,-148.5 111.6,-148.5 111.6,-130.5 31.12,-130.5"/>
<text text-anchor="middle" x="71.36" y="-136.5" font-family="Helvetica,sans-Serif" font-size="10.00">ResourceAlloc</text>
</a>
</g>
</g>
<!-- Node3&#45;&gt;Node2 -->
<g id="edge2" class="edge">
<title>Node3&#45;&gt;Node2</title>
<path fill="none" stroke="midnightblue" d="M71.36,-120.32C71.36,-111.75 71.36,-101.7 71.36,-93.84"/>
<polygon fill="midnightblue" stroke="midnightblue" points="67.86,-120.44 71.36,-130.44 74.86,-120.44 67.86,-120.44"/>
</g>
</g>
</svg>
