<?xml version="1.0" encoding="UTF-8" standalone="no"?>
<!DOCTYPE svg PUBLIC "-//W3C//DTD SVG 1.1//EN"
 "http://www.w3.org/Graphics/SVG/1.1/DTD/svg11.dtd">
<!-- Generated by graphviz version 2.43.0 (0)
 -->
<!-- Title: Ogre::GLES2Context Pages: 1 -->
<svg width="453pt" height="138pt"
 viewBox="0.00 0.00 452.58 138.00" xmlns="http://www.w3.org/2000/svg" xmlns:xlink="http://www.w3.org/1999/xlink">
<g id="graph0" class="graph" transform="scale(1 1) rotate(0) translate(4 134)">
<title>Ogre::GLES2Context</title>
<!-- Node1 -->
<g id="node1" class="node">
<title>Node1</title>
<g id="a_node1"><a xlink:title="Class that encapsulates an GL context.">
<polygon fill="#bfbfbf" stroke="black" points="0,-36.5 0,-54.5 110.49,-54.5 110.49,-36.5 0,-36.5"/>
<text text-anchor="middle" x="55.25" y="-42.5" font-family="Helvetica,sans-Serif" font-size="10.00">Ogre::GLES2Context</text>
</a>
</g>
</g>
<!-- Node2 -->
<g id="node2" class="node">
<title>Node2</title>
<g id="a_node2"><a xlink:href="class_ogre_1_1_e_g_l_context.html" target="_top" xlink:title=" ">
<polygon fill="none" stroke="black" points="154.27,-55.5 154.27,-73.5 252.53,-73.5 252.53,-55.5 154.27,-55.5"/>
<text text-anchor="middle" x="203.4" y="-61.5" font-family="Helvetica,sans-Serif" font-size="10.00">Ogre::EGLContext</text>
</a>
</g>
</g>
<!-- Node1&#45;&gt;Node2 -->
<g id="edge1" class="edge">
<title>Node1&#45;&gt;Node2</title>
<path fill="none" stroke="midnightblue" d="M120.85,-53.9C132.05,-55.35 143.52,-56.85 154.19,-58.23"/>
<polygon fill="midnightblue" stroke="midnightblue" points="121.04,-50.39 110.67,-52.57 120.13,-57.33 121.04,-50.39"/>
</g>
<!-- Node7 -->
<g id="node7" class="node">
<title>Node7</title>
<g id="a_node7"><a xlink:href="class_ogre_1_1_na_cl_g_l_context.html" target="_top" xlink:title=" ">
<polygon fill="none" stroke="black" points="146.49,-18.5 146.49,-36.5 260.31,-36.5 260.31,-18.5 146.49,-18.5"/>
<text text-anchor="middle" x="203.4" y="-24.5" font-family="Helvetica,sans-Serif" font-size="10.00">Ogre::NaClGLContext</text>
</a>
</g>
</g>
<!-- Node1&#45;&gt;Node7 -->
<g id="edge6" class="edge">
<title>Node1&#45;&gt;Node7</title>
<path fill="none" stroke="midnightblue" d="M120.66,-37.57C129.26,-36.51 138.03,-35.43 146.47,-34.39"/>
<polygon fill="midnightblue" stroke="midnightblue" points="120.17,-34.1 110.67,-38.8 121.02,-41.05 120.17,-34.1"/>
</g>
<!-- Node3 -->
<g id="node3" class="node">
<title>Node3</title>
<g id="a_node3"><a xlink:href="class_ogre_1_1_android_e_g_l_context.html" target="_top" xlink:title=" ">
<polygon fill="none" stroke="black" points="304.08,-111.5 304.08,-129.5 436.81,-129.5 436.81,-111.5 304.08,-111.5"/>
<text text-anchor="middle" x="370.45" y="-117.5" font-family="Helvetica,sans-Serif" font-size="10.00">Ogre::AndroidEGLContext</text>
</a>
</g>
</g>
<!-- Node2&#45;&gt;Node3 -->
<g id="edge2" class="edge">
<title>Node2&#45;&gt;Node3</title>
<path fill="none" stroke="midnightblue" d="M233.11,-77.68C251.03,-85.58 274.71,-95.42 296.31,-102.5 306.5,-105.84 317.66,-108.89 328.14,-111.49"/>
<polygon fill="midnightblue" stroke="midnightblue" points="234.36,-74.41 223.8,-73.53 231.5,-80.8 234.36,-74.41"/>
</g>
<!-- Node4 -->
<g id="node4" class="node">
<title>Node4</title>
<g id="a_node4"><a xlink:href="class_ogre_1_1_emscripten_e_g_l_context.html" target="_top" xlink:title=" ">
<polygon fill="none" stroke="black" points="296.31,-74.5 296.31,-92.5 444.58,-92.5 444.58,-74.5 296.31,-74.5"/>
<text text-anchor="middle" x="370.45" y="-80.5" font-family="Helvetica,sans-Serif" font-size="10.00">Ogre::EmscriptenEGLContext</text>
</a>
</g>
</g>
<!-- Node2&#45;&gt;Node4 -->
<g id="edge3" class="edge">
<title>Node2&#45;&gt;Node4</title>
<path fill="none" stroke="midnightblue" d="M262.71,-71.21C273.49,-72.45 284.88,-73.76 296.04,-75.05"/>
<polygon fill="midnightblue" stroke="midnightblue" points="262.92,-67.71 252.58,-70.05 262.12,-74.67 262.92,-67.71"/>
</g>
<!-- Node5 -->
<g id="node5" class="node">
<title>Node5</title>
<g id="a_node5"><a xlink:href="class_ogre_1_1_win32_e_g_l_context.html" target="_top" xlink:title=" ">
<polygon fill="none" stroke="black" points="307.14,-37.5 307.14,-55.5 433.75,-55.5 433.75,-37.5 307.14,-37.5"/>
<text text-anchor="middle" x="370.45" y="-43.5" font-family="Helvetica,sans-Serif" font-size="10.00">Ogre::Win32EGLContext</text>
</a>
</g>
</g>
<!-- Node2&#45;&gt;Node5 -->
<g id="edge4" class="edge">
<title>Node2&#45;&gt;Node5</title>
<path fill="none" stroke="midnightblue" d="M262.81,-58.13C277.14,-56.57 292.54,-54.89 307.06,-53.3"/>
<polygon fill="midnightblue" stroke="midnightblue" points="262.14,-54.68 252.58,-59.25 262.9,-61.64 262.14,-54.68"/>
</g>
<!-- Node6 -->
<g id="node6" class="node">
<title>Node6</title>
<g id="a_node6"><a xlink:href="class_ogre_1_1_x11_e_g_l_context.html" target="_top" xlink:title=" ">
<polygon fill="none" stroke="black" points="312.79,-0.5 312.79,-18.5 428.11,-18.5 428.11,-0.5 312.79,-0.5"/>
<text text-anchor="middle" x="370.45" y="-6.5" font-family="Helvetica,sans-Serif" font-size="10.00">Ogre::X11EGLContext</text>
</a>
</g>
</g>
<!-- Node2&#45;&gt;Node6 -->
<g id="edge5" class="edge">
<title>Node2&#45;&gt;Node6</title>
<path fill="none" stroke="midnightblue" d="M245.22,-52.16C250.34,-50.38 255.48,-48.47 260.31,-46.5 276.87,-39.74 279.56,-34.78 296.31,-28.5 306.5,-24.68 317.78,-21.33 328.36,-18.56"/>
<polygon fill="midnightblue" stroke="midnightblue" points="243.83,-48.93 235.46,-55.43 246.06,-55.57 243.83,-48.93"/>
</g>
</g>
</svg>
