<?xml version="1.0" encoding="UTF-8" standalone="no"?>
<!DOCTYPE svg PUBLIC "-//W3C//DTD SVG 1.1//EN"
 "http://www.w3.org/Graphics/SVG/1.1/DTD/svg11.dtd">
<!-- Generated by graphviz version 2.43.0 (0)
 -->
<!-- Title: Ogre::RTShader::ProgramProcessor Pages: 1 -->
<svg width="547pt" height="178pt"
 viewBox="0.00 0.00 546.52 178.00" xmlns="http://www.w3.org/2000/svg" xmlns:xlink="http://www.w3.org/1999/xlink">
<g id="graph0" class="graph" transform="scale(1 1) rotate(0) translate(4 174)">
<title>Ogre::RTShader::ProgramProcessor</title>
<!-- Node1 -->
<g id="node1" class="node">
<title>Node1</title>
<g id="a_node1"><a xlink:title="A class that provides extra processing services on CPU based programs.">
<polygon fill="#bfbfbf" stroke="black" points="152.42,-75.5 152.42,-93.5 330.52,-93.5 330.52,-75.5 152.42,-75.5"/>
<text text-anchor="middle" x="241.47" y="-81.5" font-family="Helvetica,sans-Serif" font-size="10.00">Ogre::RTShader::ProgramProcessor</text>
</a>
</g>
</g>
<!-- Node3 -->
<g id="node3" class="node">
<title>Node3</title>
<g id="a_node3"><a xlink:href="class_ogre_1_1_r_t_shader_1_1_c_g_program_processor.html" target="_top" xlink:title="CG Language program processor class.">
<polygon fill="none" stroke="black" points="378.48,-141.5 378.48,-169.5 526.56,-169.5 526.56,-141.5 378.48,-141.5"/>
<text text-anchor="start" x="386.48" y="-157.5" font-family="Helvetica,sans-Serif" font-size="10.00">Ogre::RTShader::CGProgram</text>
<text text-anchor="middle" x="452.52" y="-147.5" font-family="Helvetica,sans-Serif" font-size="10.00">Processor</text>
</a>
</g>
</g>
<!-- Node1&#45;&gt;Node3 -->
<g id="edge2" class="edge">
<title>Node1&#45;&gt;Node3</title>
<path fill="none" stroke="midnightblue" d="M273.02,-97.36C297.94,-107.59 334.17,-121.9 366.52,-132.5 376.11,-135.64 386.4,-138.69 396.4,-141.49"/>
<polygon fill="midnightblue" stroke="midnightblue" points="274.31,-94.1 263.73,-93.52 271.64,-100.57 274.31,-94.1"/>
</g>
<!-- Node4 -->
<g id="node4" class="node">
<title>Node4</title>
<g id="a_node4"><a xlink:href="class_ogre_1_1_r_t_shader_1_1_g_l_s_l_e_s_program_processor.html" target="_top" xlink:title="GLSL ES Language program processor class.">
<polygon fill="none" stroke="black" points="366.52,-94.5 366.52,-122.5 538.52,-122.5 538.52,-94.5 366.52,-94.5"/>
<text text-anchor="start" x="374.52" y="-110.5" font-family="Helvetica,sans-Serif" font-size="10.00">Ogre::RTShader::GLSLESProgram</text>
<text text-anchor="middle" x="452.52" y="-100.5" font-family="Helvetica,sans-Serif" font-size="10.00">Processor</text>
</a>
</g>
</g>
<!-- Node1&#45;&gt;Node4 -->
<g id="edge3" class="edge">
<title>Node1&#45;&gt;Node4</title>
<path fill="none" stroke="midnightblue" d="M331.09,-94.67C342.77,-96.01 354.72,-97.39 366.34,-98.72"/>
<polygon fill="midnightblue" stroke="midnightblue" points="331.24,-91.17 320.91,-93.5 330.44,-98.12 331.24,-91.17"/>
</g>
<!-- Node5 -->
<g id="node5" class="node">
<title>Node5</title>
<g id="a_node5"><a xlink:href="class_ogre_1_1_r_t_shader_1_1_g_l_s_l_program_processor.html" target="_top" xlink:title="GLSL Language program processor class.">
<polygon fill="none" stroke="black" points="373.19,-47.5 373.19,-75.5 531.85,-75.5 531.85,-47.5 373.19,-47.5"/>
<text text-anchor="start" x="381.19" y="-63.5" font-family="Helvetica,sans-Serif" font-size="10.00">Ogre::RTShader::GLSLProgram</text>
<text text-anchor="middle" x="452.52" y="-53.5" font-family="Helvetica,sans-Serif" font-size="10.00">Processor</text>
</a>
</g>
</g>
<!-- Node1&#45;&gt;Node5 -->
<g id="edge4" class="edge">
<title>Node1&#45;&gt;Node5</title>
<path fill="none" stroke="midnightblue" d="M334.71,-74.35C347.53,-72.94 360.61,-71.5 373.15,-70.12"/>
<polygon fill="midnightblue" stroke="midnightblue" points="334.05,-70.9 324.49,-75.48 334.81,-77.86 334.05,-70.9"/>
</g>
<!-- Node6 -->
<g id="node6" class="node">
<title>Node6</title>
<g id="a_node6"><a xlink:href="class_ogre_1_1_r_t_shader_1_1_h_l_s_l_program_processor.html" target="_top" xlink:title="CG Language program processor class.">
<polygon fill="none" stroke="black" points="373.47,-0.5 373.47,-28.5 531.57,-28.5 531.57,-0.5 373.47,-0.5"/>
<text text-anchor="start" x="381.47" y="-16.5" font-family="Helvetica,sans-Serif" font-size="10.00">Ogre::RTShader::HLSLProgram</text>
<text text-anchor="middle" x="452.52" y="-6.5" font-family="Helvetica,sans-Serif" font-size="10.00">Processor</text>
</a>
</g>
</g>
<!-- Node1&#45;&gt;Node6 -->
<g id="edge5" class="edge">
<title>Node1&#45;&gt;Node6</title>
<path fill="none" stroke="midnightblue" d="M273.95,-71.59C298.85,-61.63 334.6,-47.84 366.52,-37.5 376.12,-34.39 386.42,-31.36 396.42,-28.56"/>
<polygon fill="midnightblue" stroke="midnightblue" points="272.61,-68.36 264.64,-75.34 275.23,-74.85 272.61,-68.36"/>
</g>
<!-- Node2 -->
<g id="node2" class="node">
<title>Node2</title>
<g id="a_node2"><a xlink:href="class_ogre_1_1_allocated_object.html" target="_top" xlink:title="Superclass for all objects that wish to use custom memory allocators when their new / delete operator...">
<polygon fill="none" stroke="black" points="0,-75.5 0,-93.5 116.42,-93.5 116.42,-75.5 0,-75.5"/>
<text text-anchor="middle" x="58.21" y="-81.5" font-family="Helvetica,sans-Serif" font-size="10.00">RTShaderSystemAlloc</text>
</a>
</g>
</g>
<!-- Node2&#45;&gt;Node1 -->
<g id="edge1" class="edge">
<title>Node2&#45;&gt;Node1</title>
<path fill="none" stroke="midnightblue" d="M126.64,-84.5C135.03,-84.5 143.71,-84.5 152.36,-84.5"/>
<polygon fill="midnightblue" stroke="midnightblue" points="126.56,-81 116.56,-84.5 126.56,-88 126.56,-81"/>
</g>
</g>
</svg>
