<?xml version="1.0" encoding="UTF-8" standalone="no"?>
<!DOCTYPE svg PUBLIC "-//W3C//DTD SVG 1.1//EN"
 "http://www.w3.org/Graphics/SVG/1.1/DTD/svg11.dtd">
<!-- Generated by graphviz version 2.43.0 (0)
 -->
<!-- Title: Ogre::TextureGpuManager Pages: 1 -->
<svg width="519pt" height="138pt"
 viewBox="0.00 0.00 519.31 138.00" xmlns="http://www.w3.org/2000/svg" xmlns:xlink="http://www.w3.org/1999/xlink">
<g id="graph0" class="graph" transform="scale(1 1) rotate(0) translate(4 134)">
<title>Ogre::TextureGpuManager</title>
<!-- Node1 -->
<g id="node1" class="node">
<title>Node1</title>
<g id="a_node1"><a xlink:title=" ">
<polygon fill="#bfbfbf" stroke="black" points="167.06,-55.5 167.06,-73.5 302.01,-73.5 302.01,-55.5 167.06,-55.5"/>
<text text-anchor="middle" x="234.53" y="-61.5" font-family="Helvetica,sans-Serif" font-size="10.00">Ogre::TextureGpuManager</text>
</a>
</g>
</g>
<!-- Node4 -->
<g id="node4" class="node">
<title>Node4</title>
<g id="a_node4"><a xlink:href="class_ogre_1_1_d3_d11_texture_gpu_manager.html" target="_top" xlink:title=" ">
<polygon fill="none" stroke="black" points="341.99,-111.5 341.99,-129.5 507.33,-129.5 507.33,-111.5 341.99,-111.5"/>
<text text-anchor="middle" x="424.66" y="-117.5" font-family="Helvetica,sans-Serif" font-size="10.00">Ogre::D3D11TextureGpuManager</text>
</a>
</g>
</g>
<!-- Node1&#45;&gt;Node4 -->
<g id="edge3" class="edge">
<title>Node1&#45;&gt;Node4</title>
<path fill="none" stroke="midnightblue" d="M266.5,-77.35C286.62,-85.36 313.57,-95.44 338.01,-102.5 349.69,-105.87 362.43,-108.89 374.43,-111.46"/>
<polygon fill="midnightblue" stroke="midnightblue" points="267.79,-74.1 257.21,-73.61 265.18,-80.59 267.79,-74.1"/>
</g>
<!-- Node5 -->
<g id="node5" class="node">
<title>Node5</title>
<g id="a_node5"><a xlink:href="class_ogre_1_1_g_l3_plus_texture_gpu_manager.html" target="_top" xlink:title=" ">
<polygon fill="none" stroke="black" points="338.01,-74.5 338.01,-92.5 511.31,-92.5 511.31,-74.5 338.01,-74.5"/>
<text text-anchor="middle" x="424.66" y="-80.5" font-family="Helvetica,sans-Serif" font-size="10.00">Ogre::GL3PlusTextureGpuManager</text>
</a>
</g>
</g>
<!-- Node1&#45;&gt;Node5 -->
<g id="edge4" class="edge">
<title>Node1&#45;&gt;Node5</title>
<path fill="none" stroke="midnightblue" d="M312.25,-72.25C320.64,-73.1 329.22,-73.96 337.72,-74.82"/>
<polygon fill="midnightblue" stroke="midnightblue" points="312.43,-68.75 302.13,-71.23 311.72,-75.71 312.43,-68.75"/>
</g>
<!-- Node6 -->
<g id="node6" class="node">
<title>Node6</title>
<g id="a_node6"><a xlink:href="class_ogre_1_1_metal_texture_gpu_manager.html" target="_top" xlink:title=" ">
<polygon fill="none" stroke="black" points="344.96,-37.5 344.96,-55.5 504.36,-55.5 504.36,-37.5 344.96,-37.5"/>
<text text-anchor="middle" x="424.66" y="-43.5" font-family="Helvetica,sans-Serif" font-size="10.00">Ogre::MetalTextureGpuManager</text>
</a>
</g>
</g>
<!-- Node1&#45;&gt;Node6 -->
<g id="edge5" class="edge">
<title>Node1&#45;&gt;Node6</title>
<path fill="none" stroke="midnightblue" d="M312.32,-57.15C323.07,-56.12 334.14,-55.07 344.93,-54.03"/>
<polygon fill="midnightblue" stroke="midnightblue" points="311.75,-53.69 302.13,-58.13 312.41,-60.66 311.75,-53.69"/>
</g>
<!-- Node7 -->
<g id="node7" class="node">
<title>Node7</title>
<g id="a_node7"><a xlink:href="class_ogre_1_1_n_u_l_l_texture_gpu_manager.html" target="_top" xlink:title=" ">
<polygon fill="none" stroke="black" points="344.77,-0.5 344.77,-18.5 504.55,-18.5 504.55,-0.5 344.77,-0.5"/>
<text text-anchor="middle" x="424.66" y="-6.5" font-family="Helvetica,sans-Serif" font-size="10.00">Ogre::NULLTextureGpuManager</text>
</a>
</g>
</g>
<!-- Node1&#45;&gt;Node7 -->
<g id="edge6" class="edge">
<title>Node1&#45;&gt;Node7</title>
<path fill="none" stroke="midnightblue" d="M267.58,-51.62C287.6,-43.91 314.04,-34.31 338.01,-27.5 349.85,-24.14 362.77,-21.1 374.9,-18.52"/>
<polygon fill="midnightblue" stroke="midnightblue" points="266.07,-48.46 258.03,-55.35 268.62,-54.98 266.07,-48.46"/>
</g>
<!-- Node2 -->
<g id="node2" class="node">
<title>Node2</title>
<g id="a_node2"><a xlink:href="class_ogre_1_1_allocated_object.html" target="_top" xlink:title="Superclass for all objects that wish to use custom memory allocators when their new / delete operator...">
<polygon fill="none" stroke="black" points="25.29,-74.5 25.29,-92.5 105.77,-92.5 105.77,-74.5 25.29,-74.5"/>
<text text-anchor="middle" x="65.53" y="-80.5" font-family="Helvetica,sans-Serif" font-size="10.00">ResourceAlloc</text>
</a>
</g>
</g>
<!-- Node2&#45;&gt;Node1 -->
<g id="edge1" class="edge">
<title>Node2&#45;&gt;Node1</title>
<path fill="none" stroke="midnightblue" d="M116.23,-77.85C132.1,-76.04 149.94,-74.01 166.82,-72.09"/>
<polygon fill="midnightblue" stroke="midnightblue" points="115.65,-74.39 106.11,-79 116.44,-81.34 115.65,-74.39"/>
</g>
<!-- Node3 -->
<g id="node3" class="node">
<title>Node3</title>
<g id="a_node3"><a xlink:href="class_ogre_1_1_texture_gpu_listener.html" target="_top" xlink:title=" ">
<polygon fill="none" stroke="black" points="0,-37.5 0,-55.5 131.06,-55.5 131.06,-37.5 0,-37.5"/>
<text text-anchor="middle" x="65.53" y="-43.5" font-family="Helvetica,sans-Serif" font-size="10.00">Ogre::TextureGpuListener</text>
</a>
</g>
</g>
<!-- Node3&#45;&gt;Node1 -->
<g id="edge2" class="edge">
<title>Node3&#45;&gt;Node1</title>
<path fill="none" stroke="midnightblue" d="M141.11,-54.54C149.71,-55.47 158.44,-56.41 166.93,-57.32"/>
<polygon fill="midnightblue" stroke="midnightblue" points="141.42,-51.05 131.1,-53.46 140.66,-58.01 141.42,-51.05"/>
</g>
</g>
</svg>
