<?xml version="1.0" encoding="UTF-8" standalone="no"?>
<!DOCTYPE svg PUBLIC "-//W3C//DTD SVG 1.1//EN"
 "http://www.w3.org/Graphics/SVG/1.1/DTD/svg11.dtd">
<!-- Generated by graphviz version 2.43.0 (0)
 -->
<!-- Title: Ogre::SceneManagerEnumerator Pages: 1 -->
<svg width="270pt" height="92pt"
 viewBox="0.00 0.00 270.31 92.00" xmlns="http://www.w3.org/2000/svg" xmlns:xlink="http://www.w3.org/1999/xlink">
<g id="graph0" class="graph" transform="scale(1 1) rotate(0) translate(4 88)">
<title>Ogre::SceneManagerEnumerator</title>
<!-- Node1 -->
<g id="node1" class="node">
<title>Node1</title>
<g id="a_node1"><a xlink:title="Enumerates the SceneManager classes available to applications.">
<polygon fill="#bfbfbf" stroke="black" points="69.04,-0.5 69.04,-18.5 232.89,-18.5 232.89,-0.5 69.04,-0.5"/>
<text text-anchor="middle" x="150.96" y="-6.5" font-family="Helvetica,sans-Serif" font-size="10.00">Ogre::SceneManagerEnumerator</text>
</a>
</g>
</g>
<!-- Node2 -->
<g id="node2" class="node">
<title>Node2</title>
<g id="a_node2"><a xlink:href="class_ogre_1_1_singleton.html" target="_top" xlink:title=" ">
<polygon fill="none" stroke="black" points="0,-55.5 0,-83.5 161.93,-83.5 161.93,-55.5 0,-55.5"/>
<text text-anchor="start" x="8" y="-71.5" font-family="Helvetica,sans-Serif" font-size="10.00">Ogre::Singleton&lt; SceneManager</text>
<text text-anchor="middle" x="80.96" y="-61.5" font-family="Helvetica,sans-Serif" font-size="10.00">Enumerator &gt;</text>
</a>
</g>
</g>
<!-- Node2&#45;&gt;Node1 -->
<g id="edge1" class="edge">
<title>Node2&#45;&gt;Node1</title>
<path fill="none" stroke="midnightblue" d="M104.61,-48.91C117.01,-38.63 131.54,-26.59 140.98,-18.77"/>
<polygon fill="midnightblue" stroke="midnightblue" points="102.32,-46.26 96.85,-55.34 106.78,-51.65 102.32,-46.26"/>
</g>
<!-- Node3 -->
<g id="node3" class="node">
<title>Node3</title>
<g id="a_node3"><a xlink:href="class_ogre_1_1_allocated_object.html" target="_top" xlink:title="Superclass for all objects that wish to use custom memory allocators when their new / delete operator...">
<polygon fill="none" stroke="black" points="179.61,-60.5 179.61,-78.5 262.31,-78.5 262.31,-60.5 179.61,-60.5"/>
<text text-anchor="middle" x="220.96" y="-66.5" font-family="Helvetica,sans-Serif" font-size="10.00">SceneMgtAlloc</text>
</a>
</g>
</g>
<!-- Node3&#45;&gt;Node1 -->
<g id="edge2" class="edge">
<title>Node3&#45;&gt;Node1</title>
<path fill="none" stroke="midnightblue" d="M203.22,-53.8C189.88,-42.74 172.07,-27.99 161.07,-18.87"/>
<polygon fill="midnightblue" stroke="midnightblue" points="201.3,-56.75 211.23,-60.44 205.76,-51.36 201.3,-56.75"/>
</g>
</g>
</svg>
