<?xml version="1.0" encoding="UTF-8" standalone="no"?>
<!DOCTYPE svg PUBLIC "-//W3C//DTD SVG 1.1//EN"
 "http://www.w3.org/Graphics/SVG/1.1/DTD/svg11.dtd">
<!-- Generated by graphviz version 2.43.0 (0)
 -->
<!-- Title: Ogre::VariableAccessAbstractNode Pages: 1 -->
<svg width="181pt" height="137pt"
 viewBox="0.00 0.00 180.56 137.00" xmlns="http://www.w3.org/2000/svg" xmlns:xlink="http://www.w3.org/1999/xlink">
<g id="graph0" class="graph" transform="scale(1 1) rotate(0) translate(4 133)">
<title>Ogre::VariableAccessAbstractNode</title>
<!-- Node1 -->
<g id="node1" class="node">
<title>Node1</title>
<g id="a_node1"><a xlink:title="This abstract node represents a variable assignment.">
<polygon fill="#bfbfbf" stroke="black" points="0,-0.5 0,-18.5 172.56,-18.5 172.56,-0.5 0,-0.5"/>
<text text-anchor="middle" x="86.28" y="-6.5" font-family="Helvetica,sans-Serif" font-size="10.00">Ogre::VariableAccessAbstractNode</text>
</a>
</g>
</g>
<!-- Node2 -->
<g id="node2" class="node">
<title>Node2</title>
<g id="a_node2"><a xlink:href="class_ogre_1_1_abstract_node.html" target="_top" xlink:title=" ">
<polygon fill="none" stroke="black" points="34.09,-55.5 34.09,-73.5 138.47,-73.5 138.47,-55.5 34.09,-55.5"/>
<text text-anchor="middle" x="86.28" y="-61.5" font-family="Helvetica,sans-Serif" font-size="10.00">Ogre::AbstractNode</text>
</a>
</g>
</g>
<!-- Node2&#45;&gt;Node1 -->
<g id="edge1" class="edge">
<title>Node2&#45;&gt;Node1</title>
<path fill="none" stroke="midnightblue" d="M86.28,-45.17C86.28,-36.09 86.28,-25.59 86.28,-18.55"/>
<polygon fill="midnightblue" stroke="midnightblue" points="82.78,-45.22 86.28,-55.22 89.78,-45.22 82.78,-45.22"/>
</g>
<!-- Node3 -->
<g id="node3" class="node">
<title>Node3</title>
<g id="a_node3"><a xlink:href="class_ogre_1_1_allocated_object.html" target="_top" xlink:title="Superclass for all objects that wish to use custom memory allocators when their new / delete operator...">
<polygon fill="none" stroke="black" points="37.15,-110.5 37.15,-128.5 135.41,-128.5 135.41,-110.5 37.15,-110.5"/>
<text text-anchor="middle" x="86.28" y="-116.5" font-family="Helvetica,sans-Serif" font-size="10.00">AbstractNodeAlloc</text>
</a>
</g>
</g>
<!-- Node3&#45;&gt;Node2 -->
<g id="edge2" class="edge">
<title>Node3&#45;&gt;Node2</title>
<path fill="none" stroke="midnightblue" d="M86.28,-100.17C86.28,-91.09 86.28,-80.59 86.28,-73.55"/>
<polygon fill="midnightblue" stroke="midnightblue" points="82.78,-100.22 86.28,-110.22 89.78,-100.22 82.78,-100.22"/>
</g>
</g>
</svg>
