<?xml version="1.0" encoding="UTF-8" standalone="no"?>
<!DOCTYPE svg PUBLIC "-//W3C//DTD SVG 1.1//EN"
 "http://www.w3.org/Graphics/SVG/1.1/DTD/svg11.dtd">
<!-- Generated by graphviz version 2.43.0 (0)
 -->
<!-- Title: Ogre::VectorIterator&lt; T &gt; Pages: 1 -->
<svg width="150pt" height="167pt"
 viewBox="0.00 0.00 149.99 167.00" xmlns="http://www.w3.org/2000/svg" xmlns:xlink="http://www.w3.org/1999/xlink">
<g id="graph0" class="graph" transform="scale(1 1) rotate(0) translate(4 163)">
<title>Ogre::VectorIterator&lt; T &gt;</title>
<!-- Node1 -->
<g id="node1" class="node">
<title>Node1</title>
<g id="a_node1"><a xlink:title="Concrete IteratorWrapper for nonconst access to the underlying container.">
<polygon fill="#bfbfbf" stroke="black" points="7.59,-0.5 7.59,-18.5 134.4,-18.5 134.4,-0.5 7.59,-0.5"/>
<text text-anchor="middle" x="71" y="-6.5" font-family="Helvetica,sans-Serif" font-size="10.00">Ogre::VectorIterator&lt; T &gt;</text>
</a>
</g>
</g>
<!-- Node2 -->
<g id="node2" class="node">
<title>Node2</title>
<g id="a_node2"><a xlink:href="class_ogre_1_1_vector_iterator_wrapper.html" target="_top" xlink:title=" ">
<polygon fill="none" stroke="black" points="0,-55.5 0,-83.5 141.99,-83.5 141.99,-55.5 0,-55.5"/>
<text text-anchor="start" x="8" y="-71.5" font-family="Helvetica,sans-Serif" font-size="10.00">Ogre::VectorIteratorWrapper</text>
<text text-anchor="middle" x="71" y="-61.5" font-family="Helvetica,sans-Serif" font-size="10.00">&lt; T, T::iterator &gt;</text>
</a>
</g>
</g>
<!-- Node2&#45;&gt;Node1 -->
<g id="edge1" class="edge">
<title>Node2&#45;&gt;Node1</title>
<path fill="none" stroke="midnightblue" d="M71,-45.32C71,-35.94 71,-25.7 71,-18.77"/>
<polygon fill="midnightblue" stroke="midnightblue" points="67.5,-45.34 71,-55.34 74.5,-45.34 67.5,-45.34"/>
</g>
<!-- Node3 -->
<g id="node3" class="node">
<title>Node3</title>
<g id="a_node3"><a xlink:href="class_ogre_1_1_iterator_wrapper.html" target="_top" xlink:title=" ">
<polygon fill="none" stroke="black" points="14.18,-120.5 14.18,-158.5 127.81,-158.5 127.81,-120.5 14.18,-120.5"/>
<text text-anchor="start" x="22.18" y="-146.5" font-family="Helvetica,sans-Serif" font-size="10.00">Ogre::IteratorWrapper</text>
<text text-anchor="start" x="22.18" y="-136.5" font-family="Helvetica,sans-Serif" font-size="10.00">&lt; T, T::iterator, T::</text>
<text text-anchor="middle" x="71" y="-126.5" font-family="Helvetica,sans-Serif" font-size="10.00">value_type &gt;</text>
</a>
</g>
</g>
<!-- Node3&#45;&gt;Node2 -->
<g id="edge2" class="edge">
<title>Node3&#45;&gt;Node2</title>
<path fill="none" stroke="midnightblue" d="M71,-110.01C71,-100.92 71,-91.29 71,-83.81"/>
<polygon fill="midnightblue" stroke="midnightblue" points="67.5,-110.28 71,-120.28 74.5,-110.28 67.5,-110.28"/>
</g>
</g>
</svg>
