<?xml version="1.0" encoding="UTF-8" standalone="no"?>
<!DOCTYPE svg PUBLIC "-//W3C//DTD SVG 1.1//EN"
 "http://www.w3.org/Graphics/SVG/1.1/DTD/svg11.dtd">
<!-- Generated by graphviz version 2.43.0 (0)
 -->
<!-- Title: Ogre::ImageCodec2::ImageData2 Pages: 1 -->
<svg width="136pt" height="147pt"
 viewBox="0.00 0.00 136.28 147.00" xmlns="http://www.w3.org/2000/svg" xmlns:xlink="http://www.w3.org/1999/xlink">
<g id="graph0" class="graph" transform="scale(1 1) rotate(0) translate(4 143)">
<title>Ogre::ImageCodec2::ImageData2</title>
<!-- Node1 -->
<g id="node1" class="node">
<title>Node1</title>
<g id="a_node1"><a xlink:title="Codec return class for images.">
<polygon fill="#bfbfbf" stroke="black" points="8.34,-0.5 8.34,-28.5 119.94,-28.5 119.94,-0.5 8.34,-0.5"/>
<text text-anchor="start" x="16.34" y="-16.5" font-family="Helvetica,sans-Serif" font-size="10.00">Ogre::ImageCodec2::</text>
<text text-anchor="middle" x="64.14" y="-6.5" font-family="Helvetica,sans-Serif" font-size="10.00">ImageData2</text>
</a>
</g>
</g>
<!-- Node2 -->
<g id="node2" class="node">
<title>Node2</title>
<g id="a_node2"><a xlink:href="class_ogre_1_1_codec_1_1_codec_data.html" target="_top" xlink:title=" ">
<polygon fill="none" stroke="black" points="0,-65.5 0,-83.5 128.28,-83.5 128.28,-65.5 0,-65.5"/>
<text text-anchor="middle" x="64.14" y="-71.5" font-family="Helvetica,sans-Serif" font-size="10.00">Ogre::Codec::CodecData</text>
</a>
</g>
</g>
<!-- Node2&#45;&gt;Node1 -->
<g id="edge1" class="edge">
<title>Node2&#45;&gt;Node1</title>
<path fill="none" stroke="midnightblue" d="M64.14,-55.32C64.14,-46.75 64.14,-36.7 64.14,-28.84"/>
<polygon fill="midnightblue" stroke="midnightblue" points="60.64,-55.44 64.14,-65.44 67.64,-55.44 60.64,-55.44"/>
</g>
<!-- Node3 -->
<g id="node3" class="node">
<title>Node3</title>
<g id="a_node3"><a xlink:href="class_ogre_1_1_allocated_object.html" target="_top" xlink:title="Superclass for all objects that wish to use custom memory allocators when their new / delete operator...">
<polygon fill="none" stroke="black" points="30.85,-120.5 30.85,-138.5 97.43,-138.5 97.43,-120.5 30.85,-120.5"/>
<text text-anchor="middle" x="64.14" y="-126.5" font-family="Helvetica,sans-Serif" font-size="10.00">CodecAlloc</text>
</a>
</g>
</g>
<!-- Node3&#45;&gt;Node2 -->
<g id="edge2" class="edge">
<title>Node3&#45;&gt;Node2</title>
<path fill="none" stroke="midnightblue" d="M64.14,-110.17C64.14,-101.09 64.14,-90.59 64.14,-83.55"/>
<polygon fill="midnightblue" stroke="midnightblue" points="60.64,-110.22 64.14,-120.22 67.64,-110.22 60.64,-110.22"/>
</g>
</g>
</svg>
