<?xml version="1.0" encoding="UTF-8" standalone="no"?>
<!DOCTYPE svg PUBLIC "-//W3C//DTD SVG 1.1//EN"
 "http://www.w3.org/Graphics/SVG/1.1/DTD/svg11.dtd">
<!-- Generated by graphviz version 2.43.0 (0)
 -->
<!-- Title: Ogre::WorkQueue::RequestHandler Pages: 1 -->
<svg width="346pt" height="296pt"
 viewBox="0.00 0.00 346.33 296.00" xmlns="http://www.w3.org/2000/svg" xmlns:xlink="http://www.w3.org/1999/xlink">
<g id="graph0" class="graph" transform="scale(1 1) rotate(0) translate(4 292)">
<title>Ogre::WorkQueue::RequestHandler</title>
<!-- Node1 -->
<g id="node1" class="node">
<title>Node1</title>
<g id="a_node1"><a xlink:title="Interface definition for a handler of requests.">
<polygon fill="#bfbfbf" stroke="black" points="0,-124.5 0,-152.5 139.77,-152.5 139.77,-124.5 0,-124.5"/>
<text text-anchor="start" x="8" y="-140.5" font-family="Helvetica,sans-Serif" font-size="10.00">Ogre::WorkQueue::Request</text>
<text text-anchor="middle" x="69.88" y="-130.5" font-family="Helvetica,sans-Serif" font-size="10.00">Handler</text>
</a>
</g>
</g>
<!-- Node2 -->
<g id="node2" class="node">
<title>Node2</title>
<g id="a_node2"><a xlink:href="class_ogre_1_1_lod_work_queue_worker.html" target="_top" xlink:title="Processes requests.">
<polygon fill="none" stroke="black" points="184.2,-269.5 184.2,-287.5 329.9,-287.5 329.9,-269.5 184.2,-269.5"/>
<text text-anchor="middle" x="257.05" y="-275.5" font-family="Helvetica,sans-Serif" font-size="10.00">Ogre::LodWorkQueueWorker</text>
</a>
</g>
</g>
<!-- Node1&#45;&gt;Node2 -->
<g id="edge1" class="edge">
<title>Node1&#45;&gt;Node2</title>
<path fill="none" stroke="#8b1a1a" d="M84.17,-161.49C101.54,-189.42 134.67,-235.83 175.77,-260.5 181.89,-264.18 188.69,-267.1 195.66,-269.43"/>
<polygon fill="#8b1a1a" stroke="#8b1a1a" points="87.07,-159.53 78.89,-152.79 81.08,-163.16 87.07,-159.53"/>
</g>
<!-- Node3 -->
<g id="node3" class="node">
<title>Node3</title>
<g id="a_node3"><a xlink:href="class_ogre_1_1_page.html" target="_top" xlink:title="Page class.">
<polygon fill="none" stroke="black" points="223.48,-232.5 223.48,-250.5 290.62,-250.5 290.62,-232.5 223.48,-232.5"/>
<text text-anchor="middle" x="257.05" y="-238.5" font-family="Helvetica,sans-Serif" font-size="10.00">Ogre::Page</text>
</a>
</g>
</g>
<!-- Node1&#45;&gt;Node3 -->
<g id="edge2" class="edge">
<title>Node1&#45;&gt;Node3</title>
<path fill="none" stroke="midnightblue" d="M91.23,-159.89C111.01,-179.4 142.8,-207.54 175.77,-223.5 190.55,-230.66 208.26,-235.02 223.27,-237.65"/>
<polygon fill="midnightblue" stroke="midnightblue" points="93.55,-157.25 84.02,-152.62 88.58,-162.19 93.55,-157.25"/>
</g>
<!-- Node4 -->
<g id="node4" class="node">
<title>Node4</title>
<g id="a_node4"><a xlink:href="class_ogre_1_1_resource_background_queue.html" target="_top" xlink:title="This class is used to perform Resource operations in a background thread.">
<polygon fill="none" stroke="black" points="187.07,-185.5 187.07,-213.5 327.03,-213.5 327.03,-185.5 187.07,-185.5"/>
<text text-anchor="start" x="195.07" y="-201.5" font-family="Helvetica,sans-Serif" font-size="10.00">Ogre::ResourceBackground</text>
<text text-anchor="middle" x="257.05" y="-191.5" font-family="Helvetica,sans-Serif" font-size="10.00">Queue</text>
</a>
</g>
</g>
<!-- Node1&#45;&gt;Node4 -->
<g id="edge3" class="edge">
<title>Node1&#45;&gt;Node4</title>
<path fill="none" stroke="midnightblue" d="M117.75,-156.26C135.79,-162.89 156.65,-170.31 175.77,-176.5 185.15,-179.54 195.21,-182.59 204.93,-185.42"/>
<polygon fill="midnightblue" stroke="midnightblue" points="118.64,-152.85 108.05,-152.67 116.21,-159.42 118.64,-152.85"/>
</g>
<!-- Node5 -->
<g id="node5" class="node">
<title>Node5</title>
<g id="a_node5"><a xlink:href="class_ogre_1_1_terrain.html" target="_top" xlink:title="The main containing class for a chunk of terrain.">
<polygon fill="none" stroke="black" points="219.87,-148.5 219.87,-166.5 294.23,-166.5 294.23,-148.5 219.87,-148.5"/>
<text text-anchor="middle" x="257.05" y="-154.5" font-family="Helvetica,sans-Serif" font-size="10.00">Ogre::Terrain</text>
</a>
</g>
</g>
<!-- Node1&#45;&gt;Node5 -->
<g id="edge4" class="edge">
<title>Node1&#45;&gt;Node5</title>
<path fill="none" stroke="midnightblue" d="M149.8,-146.6C174.15,-149.1 199.78,-151.73 219.77,-153.78"/>
<polygon fill="midnightblue" stroke="midnightblue" points="150.14,-143.11 139.83,-145.57 149.42,-150.08 150.14,-143.11"/>
</g>
<!-- Node6 -->
<g id="node6" class="node">
<title>Node6</title>
<g id="a_node6"><a xlink:href="class_ogre_1_1_terrain_group.html" target="_top" xlink:title="Helper class to assist you in managing multiple terrain instances that are connected to each other.">
<polygon fill="none" stroke="black" points="205.98,-111.5 205.98,-129.5 308.12,-129.5 308.12,-111.5 205.98,-111.5"/>
<text text-anchor="middle" x="257.05" y="-117.5" font-family="Helvetica,sans-Serif" font-size="10.00">Ogre::TerrainGroup</text>
</a>
</g>
</g>
<!-- Node1&#45;&gt;Node6 -->
<g id="edge5" class="edge">
<title>Node1&#45;&gt;Node6</title>
<path fill="none" stroke="midnightblue" d="M149.96,-130.81C168.9,-128.97 188.62,-127.05 205.85,-125.38"/>
<polygon fill="midnightblue" stroke="midnightblue" points="149.45,-127.35 139.83,-131.8 150.13,-134.31 149.45,-127.35"/>
</g>
<!-- Node7 -->
<g id="node7" class="node">
<title>Node7</title>
<g id="a_node7"><a xlink:href="class_ogre_1_1_terrain_lod_manager.html" target="_top" xlink:title="Terrain LOD data manager.">
<polygon fill="none" stroke="black" points="191.8,-74.5 191.8,-92.5 322.3,-92.5 322.3,-74.5 191.8,-74.5"/>
<text text-anchor="middle" x="257.05" y="-80.5" font-family="Helvetica,sans-Serif" font-size="10.00">Ogre::TerrainLodManager</text>
</a>
</g>
</g>
<!-- Node1&#45;&gt;Node7 -->
<g id="edge6" class="edge">
<title>Node1&#45;&gt;Node7</title>
<path fill="none" stroke="midnightblue" d="M118.56,-121.03C136.39,-114.79 156.89,-107.96 175.77,-102.5 188.15,-98.92 201.75,-95.51 214.18,-92.59"/>
<polygon fill="midnightblue" stroke="midnightblue" points="117.22,-117.79 108.96,-124.42 119.55,-124.39 117.22,-117.79"/>
</g>
<!-- Node8 -->
<g id="node8" class="node">
<title>Node8</title>
<g id="a_node8"><a xlink:href="class_ogre_1_1_terrain_paged_world_section.html" target="_top" xlink:title="A world section which includes paged terrain.">
<polygon fill="none" stroke="black" points="175.77,-37.5 175.77,-55.5 338.33,-55.5 338.33,-37.5 175.77,-37.5"/>
<text text-anchor="middle" x="257.05" y="-43.5" font-family="Helvetica,sans-Serif" font-size="10.00">Ogre::TerrainPagedWorldSection</text>
</a>
</g>
</g>
<!-- Node1&#45;&gt;Node8 -->
<g id="edge7" class="edge">
<title>Node1&#45;&gt;Node8</title>
<path fill="none" stroke="midnightblue" d="M94.91,-117.82C115.2,-101.36 145.68,-78.94 175.77,-65.5 184.92,-61.41 195.07,-58.14 204.99,-55.54"/>
<polygon fill="midnightblue" stroke="midnightblue" points="92.61,-115.17 87.13,-124.24 97.07,-120.57 92.61,-115.17"/>
</g>
<!-- Node9 -->
<g id="node9" class="node">
<title>Node9</title>
<g id="a_node9"><a xlink:href="class_ogre_1_1_volume_1_1_chunk_handler.html" target="_top" xlink:title="Handles the WorkQueue management of the chunks.">
<polygon fill="none" stroke="black" points="183.74,-0.5 183.74,-18.5 330.37,-18.5 330.37,-0.5 183.74,-0.5"/>
<text text-anchor="middle" x="257.05" y="-6.5" font-family="Helvetica,sans-Serif" font-size="10.00">Ogre::Volume::ChunkHandler</text>
</a>
</g>
</g>
<!-- Node1&#45;&gt;Node9 -->
<g id="edge8" class="edge">
<title>Node1&#45;&gt;Node9</title>
<path fill="none" stroke="midnightblue" d="M86.15,-115.93C104.45,-90.69 137.48,-50.46 175.77,-28.5 182.98,-24.37 191.04,-21.13 199.2,-18.6"/>
<polygon fill="midnightblue" stroke="midnightblue" points="83.23,-114 80.31,-124.19 88.94,-118.05 83.23,-114"/>
</g>
</g>
</svg>
