<?xml version="1.0" encoding="UTF-8" standalone="no"?>
<!DOCTYPE svg PUBLIC "-//W3C//DTD SVG 1.1//EN"
 "http://www.w3.org/Graphics/SVG/1.1/DTD/svg11.dtd">
<!-- Generated by graphviz version 2.43.0 (0)
 -->
<!-- Title: Ogre::Archive Pages: 1 -->
<svg width="409pt" height="137pt"
 viewBox="0.00 0.00 408.81 137.00" xmlns="http://www.w3.org/2000/svg" xmlns:xlink="http://www.w3.org/1999/xlink">
<g id="graph0" class="graph" transform="scale(1 1) rotate(0) translate(4 133)">
<title>Ogre::Archive</title>
<!-- Node1 -->
<g id="node1" class="node">
<title>Node1</title>
<g id="a_node1"><a xlink:title="Archive&#45;handling class.">
<polygon fill="#bfbfbf" stroke="black" points="189.73,-55.5 189.73,-73.5 266.86,-73.5 266.86,-55.5 189.73,-55.5"/>
<text text-anchor="middle" x="228.3" y="-61.5" font-family="Helvetica,sans-Serif" font-size="10.00">Ogre::Archive</text>
</a>
</g>
</g>
<!-- Node3 -->
<g id="node3" class="node">
<title>Node3</title>
<g id="a_node3"><a xlink:href="class_ogre_1_1_a_p_k_file_system_archive.html" target="_top" xlink:title=" ">
<polygon fill="none" stroke="black" points="0,-0.5 0,-18.5 146.6,-18.5 146.6,-0.5 0,-0.5"/>
<text text-anchor="middle" x="73.3" y="-6.5" font-family="Helvetica,sans-Serif" font-size="10.00">Ogre::APKFileSystemArchive</text>
</a>
</g>
</g>
<!-- Node1&#45;&gt;Node3 -->
<g id="edge2" class="edge">
<title>Node1&#45;&gt;Node3</title>
<path fill="none" stroke="midnightblue" d="M195.27,-52.21C165.69,-42.09 123.04,-27.51 96.81,-18.54"/>
<polygon fill="midnightblue" stroke="midnightblue" points="194.16,-55.53 204.76,-55.45 196.43,-48.9 194.16,-55.53"/>
</g>
<!-- Node4 -->
<g id="node4" class="node">
<title>Node4</title>
<g id="a_node4"><a xlink:href="class_ogre_1_1_file_system_archive.html" target="_top" xlink:title="Specialisation of the Archive class to allow reading of files from filesystem folders / directories.">
<polygon fill="none" stroke="black" points="165,-0.5 165,-18.5 291.59,-18.5 291.59,-0.5 165,-0.5"/>
<text text-anchor="middle" x="228.3" y="-6.5" font-family="Helvetica,sans-Serif" font-size="10.00">Ogre::FileSystemArchive</text>
</a>
</g>
</g>
<!-- Node1&#45;&gt;Node4 -->
<g id="edge3" class="edge">
<title>Node1&#45;&gt;Node4</title>
<path fill="none" stroke="midnightblue" d="M228.3,-45.17C228.3,-36.09 228.3,-25.59 228.3,-18.55"/>
<polygon fill="midnightblue" stroke="midnightblue" points="224.8,-45.22 228.3,-55.22 231.8,-45.22 224.8,-45.22"/>
</g>
<!-- Node5 -->
<g id="node5" class="node">
<title>Node5</title>
<g id="a_node5"><a xlink:href="class_ogre_1_1_zip_archive.html" target="_top" xlink:title="Specialisation of the Archive class to allow reading of files from a zip format source archive.">
<polygon fill="none" stroke="black" points="309.79,-0.5 309.79,-18.5 400.81,-18.5 400.81,-0.5 309.79,-0.5"/>
<text text-anchor="middle" x="355.3" y="-6.5" font-family="Helvetica,sans-Serif" font-size="10.00">Ogre::ZipArchive</text>
</a>
</g>
</g>
<!-- Node1&#45;&gt;Node5 -->
<g id="edge4" class="edge">
<title>Node1&#45;&gt;Node5</title>
<path fill="none" stroke="midnightblue" d="M256.93,-51.55C281,-41.5 314.77,-27.41 335.83,-18.63"/>
<polygon fill="midnightblue" stroke="midnightblue" points="255.47,-48.37 247.59,-55.45 258.16,-54.83 255.47,-48.37"/>
</g>
<!-- Node2 -->
<g id="node2" class="node">
<title>Node2</title>
<g id="a_node2"><a xlink:href="class_ogre_1_1_allocated_object.html" target="_top" xlink:title="Superclass for all objects that wish to use custom memory allocators when their new / delete operator...">
<polygon fill="none" stroke="black" points="192.79,-110.5 192.79,-128.5 263.81,-128.5 263.81,-110.5 192.79,-110.5"/>
<text text-anchor="middle" x="228.3" y="-116.5" font-family="Helvetica,sans-Serif" font-size="10.00">ArchiveAlloc</text>
</a>
</g>
</g>
<!-- Node2&#45;&gt;Node1 -->
<g id="edge1" class="edge">
<title>Node2&#45;&gt;Node1</title>
<path fill="none" stroke="midnightblue" d="M228.3,-100.17C228.3,-91.09 228.3,-80.59 228.3,-73.55"/>
<polygon fill="midnightblue" stroke="midnightblue" points="224.8,-100.22 228.3,-110.22 231.8,-100.22 224.8,-100.22"/>
</g>
</g>
</svg>
