<?xml version="1.0" encoding="UTF-8" standalone="no"?>
<!DOCTYPE svg PUBLIC "-//W3C//DTD SVG 1.1//EN"
 "http://www.w3.org/Graphics/SVG/1.1/DTD/svg11.dtd">
<!-- Generated by graphviz version 2.43.0 (0)
 -->
<!-- Title: Ogre::v1::HardwareBuffer Pages: 1 -->
<svg width="834pt" height="1635pt"
 viewBox="0.00 0.00 834.15 1635.00" xmlns="http://www.w3.org/2000/svg" xmlns:xlink="http://www.w3.org/1999/xlink">
<g id="graph0" class="graph" transform="scale(1 1) rotate(0) translate(4 1631)">
<title>Ogre::v1::HardwareBuffer</title>
<!-- Node1 -->
<g id="node1" class="node">
<title>Node1</title>
<g id="a_node1"><a xlink:title="Abstract class defining common features of hardware buffers.">
<polygon fill="#bfbfbf" stroke="black" points="100.18,-1132.5 100.18,-1150.5 229.94,-1150.5 229.94,-1132.5 100.18,-1132.5"/>
<text text-anchor="middle" x="165.06" y="-1138.5" font-family="Helvetica,sans-Serif" font-size="10.00">Ogre::v1::HardwareBuffer</text>
</a>
</g>
</g>
<!-- Node3 -->
<g id="node3" class="node">
<title>Node3</title>
<g id="a_node3"><a xlink:href="class_ogre_1_1v1_1_1_d3_d11_hardware_buffer.html" target="_top" xlink:title="Base implementation of a D3D11 buffer, dealing with all the common aspects.">
<polygon fill="none" stroke="black" points="265.94,-1551.5 265.94,-1569.5 426.09,-1569.5 426.09,-1551.5 265.94,-1551.5"/>
<text text-anchor="middle" x="346.01" y="-1557.5" font-family="Helvetica,sans-Serif" font-size="10.00">Ogre::v1::D3D11HardwareBuffer</text>
</a>
</g>
</g>
<!-- Node1&#45;&gt;Node3 -->
<g id="edge2" class="edge">
<title>Node1&#45;&gt;Node3</title>
<path fill="none" stroke="midnightblue" d="M168.25,-1160.87C176.81,-1233.24 210.32,-1486.37 265.94,-1541.5 270.05,-1545.58 274.87,-1548.83 280.07,-1551.43"/>
<polygon fill="midnightblue" stroke="midnightblue" points="171.68,-1160.07 167.05,-1150.53 164.72,-1160.87 171.68,-1160.07"/>
</g>
<!-- Node4 -->
<g id="node4" class="node">
<title>Node4</title>
<g id="a_node4"><a xlink:href="class_ogre_1_1v1_1_1_hardware_counter_buffer.html" target="_top" xlink:title="Specialisation of HardwareBuffer for a counter buffer.">
<polygon fill="none" stroke="black" points="276.6,-1504.5 276.6,-1532.5 415.43,-1532.5 415.43,-1504.5 276.6,-1504.5"/>
<text text-anchor="start" x="284.6" y="-1520.5" font-family="Helvetica,sans-Serif" font-size="10.00">Ogre::v1::HardwareCounter</text>
<text text-anchor="middle" x="346.01" y="-1510.5" font-family="Helvetica,sans-Serif" font-size="10.00">Buffer</text>
</a>
</g>
</g>
<!-- Node1&#45;&gt;Node4 -->
<g id="edge3" class="edge">
<title>Node1&#45;&gt;Node4</title>
<path fill="none" stroke="midnightblue" d="M174.82,-1159.95C205.91,-1225.45 310.59,-1445.97 338.26,-1504.27"/>
<polygon fill="midnightblue" stroke="midnightblue" points="177.93,-1158.35 170.48,-1150.82 171.61,-1161.35 177.93,-1158.35"/>
</g>
<!-- Node8 -->
<g id="node8" class="node">
<title>Node8</title>
<g id="a_node8"><a xlink:href="class_ogre_1_1v1_1_1_hardware_index_buffer.html" target="_top" xlink:title="Specialisation of HardwareBuffer for vertex index buffers, still abstract.">
<polygon fill="none" stroke="black" points="268.9,-1321.5 268.9,-1339.5 423.12,-1339.5 423.12,-1321.5 268.9,-1321.5"/>
<text text-anchor="middle" x="346.01" y="-1327.5" font-family="Helvetica,sans-Serif" font-size="10.00">Ogre::v1::HardwareIndexBuffer</text>
</a>
</g>
</g>
<!-- Node1&#45;&gt;Node8 -->
<g id="edge7" class="edge">
<title>Node1&#45;&gt;Node8</title>
<path fill="none" stroke="midnightblue" d="M181.62,-1157.94C218.13,-1196.5 308.31,-1291.73 336.47,-1321.48"/>
<polygon fill="midnightblue" stroke="midnightblue" points="184.11,-1155.47 174.69,-1150.62 179.02,-1160.28 184.11,-1155.47"/>
</g>
<!-- Node15 -->
<g id="node15" class="node">
<title>Node15</title>
<g id="a_node15"><a xlink:href="class_ogre_1_1v1_1_1_hardware_pixel_buffer.html" target="_top" xlink:title="Specialisation of HardwareBuffer for a pixel buffer.">
<polygon fill="none" stroke="black" points="270.3,-921.5 270.3,-939.5 421.73,-939.5 421.73,-921.5 270.3,-921.5"/>
<text text-anchor="middle" x="346.01" y="-927.5" font-family="Helvetica,sans-Serif" font-size="10.00">Ogre::v1::HardwarePixelBuffer</text>
</a>
</g>
</g>
<!-- Node1&#45;&gt;Node15 -->
<g id="edge14" class="edge">
<title>Node1&#45;&gt;Node15</title>
<path fill="none" stroke="midnightblue" d="M180.31,-1124.7C216.21,-1082.37 309.46,-972.42 337.15,-939.77"/>
<polygon fill="midnightblue" stroke="midnightblue" points="177.55,-1122.54 173.75,-1132.43 182.89,-1127.07 177.55,-1122.54"/>
</g>
<!-- Node34 -->
<g id="node34" class="node">
<title>Node34</title>
<g id="a_node34"><a xlink:href="class_ogre_1_1v1_1_1_hardware_uniform_buffer.html" target="_top" xlink:title="Specialisation of HardwareBuffer for a uniform buffer.">
<polygon fill="none" stroke="black" points="276.88,-446.5 276.88,-474.5 415.14,-474.5 415.14,-446.5 276.88,-446.5"/>
<text text-anchor="start" x="284.88" y="-462.5" font-family="Helvetica,sans-Serif" font-size="10.00">Ogre::v1::HardwareUniform</text>
<text text-anchor="middle" x="346.01" y="-452.5" font-family="Helvetica,sans-Serif" font-size="10.00">Buffer</text>
</a>
</g>
</g>
<!-- Node1&#45;&gt;Node34 -->
<g id="edge33" class="edge">
<title>Node1&#45;&gt;Node34</title>
<path fill="none" stroke="midnightblue" d="M171.05,-1122.52C197.23,-1022.87 318.51,-561.37 341.31,-474.59"/>
<polygon fill="midnightblue" stroke="midnightblue" points="167.61,-1121.83 168.45,-1132.39 174.38,-1123.61 167.61,-1121.83"/>
</g>
<!-- Node42 -->
<g id="node42" class="node">
<title>Node42</title>
<g id="a_node42"><a xlink:href="class_ogre_1_1v1_1_1_hardware_vertex_buffer.html" target="_top" xlink:title="Specialisation of HardwareBuffer for a vertex buffer.">
<polygon fill="none" stroke="black" points="280.21,-141.5 280.21,-169.5 411.82,-169.5 411.82,-141.5 280.21,-141.5"/>
<text text-anchor="start" x="288.21" y="-157.5" font-family="Helvetica,sans-Serif" font-size="10.00">Ogre::v1::HardwareVertex</text>
<text text-anchor="middle" x="346.01" y="-147.5" font-family="Helvetica,sans-Serif" font-size="10.00">Buffer</text>
</a>
</g>
</g>
<!-- Node1&#45;&gt;Node42 -->
<g id="edge41" class="edge">
<title>Node1&#45;&gt;Node42</title>
<path fill="none" stroke="midnightblue" d="M167.83,-1122.31C175.65,-1039.6 209.26,-705.69 265.94,-436.5 287.81,-332.6 326.84,-210.57 340.3,-169.66"/>
<polygon fill="midnightblue" stroke="midnightblue" points="164.34,-1121.99 166.9,-1132.28 171.31,-1122.64 164.34,-1121.99"/>
</g>
<!-- Node2 -->
<g id="node2" class="node">
<title>Node2</title>
<g id="a_node2"><a xlink:href="class_ogre_1_1_allocated_object.html" target="_top" xlink:title="Superclass for all objects that wish to use custom memory allocators when their new / delete operator...">
<polygon fill="none" stroke="black" points="0,-1132.5 0,-1150.5 64.18,-1150.5 64.18,-1132.5 0,-1132.5"/>
<text text-anchor="middle" x="32.09" y="-1138.5" font-family="Helvetica,sans-Serif" font-size="10.00">BufferAlloc</text>
</a>
</g>
</g>
<!-- Node2&#45;&gt;Node1 -->
<g id="edge1" class="edge">
<title>Node2&#45;&gt;Node1</title>
<path fill="none" stroke="midnightblue" d="M74.71,-1141.5C82.78,-1141.5 91.42,-1141.5 100.03,-1141.5"/>
<polygon fill="midnightblue" stroke="midnightblue" points="74.46,-1138 64.46,-1141.5 74.46,-1145 74.46,-1138"/>
</g>
<!-- Node5 -->
<g id="node5" class="node">
<title>Node5</title>
<g id="a_node5"><a xlink:href="class_ogre_1_1v1_1_1_default_hardware_counter_buffer.html" target="_top" xlink:title="Specialisation of HardwareCounterBuffer for emulation.">
<polygon fill="none" stroke="black" points="479.87,-1598.5 479.87,-1626.5 614.81,-1626.5 614.81,-1598.5 479.87,-1598.5"/>
<text text-anchor="start" x="487.87" y="-1614.5" font-family="Helvetica,sans-Serif" font-size="10.00">Ogre::v1::DefaultHardware</text>
<text text-anchor="middle" x="547.34" y="-1604.5" font-family="Helvetica,sans-Serif" font-size="10.00">CounterBuffer</text>
</a>
</g>
</g>
<!-- Node4&#45;&gt;Node5 -->
<g id="edge4" class="edge">
<title>Node4&#45;&gt;Node5</title>
<path fill="none" stroke="midnightblue" d="M418.64,-1536.95C421.22,-1538.36 423.71,-1539.87 426.09,-1541.5 447.8,-1556.36 440.33,-1573.7 462.09,-1588.5 467.87,-1592.43 474.3,-1595.73 480.95,-1598.49"/>
<polygon fill="midnightblue" stroke="midnightblue" points="420.13,-1533.78 409.61,-1532.56 417.07,-1540.08 420.13,-1533.78"/>
</g>
<!-- Node6 -->
<g id="node6" class="node">
<title>Node6</title>
<g id="a_node6"><a xlink:href="class_ogre_1_1v1_1_1_g_l3_plus_default_hardware_counter_buffer.html" target="_top" xlink:title="Specialisation of HardwareCounterBuffer for emulation.">
<polygon fill="none" stroke="black" points="482.37,-1551.5 482.37,-1579.5 612.31,-1579.5 612.31,-1551.5 482.37,-1551.5"/>
<text text-anchor="start" x="490.37" y="-1567.5" font-family="Helvetica,sans-Serif" font-size="10.00">Ogre::v1::GL3PlusDefault</text>
<text text-anchor="middle" x="547.34" y="-1557.5" font-family="Helvetica,sans-Serif" font-size="10.00">HardwareCounterBuffer</text>
</a>
</g>
</g>
<!-- Node4&#45;&gt;Node6 -->
<g id="edge5" class="edge">
<title>Node4&#45;&gt;Node6</title>
<path fill="none" stroke="midnightblue" d="M416.54,-1534.89C439.44,-1540.29 464.68,-1546.25 486.77,-1551.45"/>
<polygon fill="midnightblue" stroke="midnightblue" points="417.08,-1531.43 406.55,-1532.54 415.48,-1538.24 417.08,-1531.43"/>
</g>
<!-- Node7 -->
<g id="node7" class="node">
<title>Node7</title>
<g id="a_node7"><a xlink:href="class_ogre_1_1v1_1_1_g_l3_plus_hardware_counter_buffer.html" target="_top" xlink:title="Specialisation of HardwareCounterBuffer for OpenGL.">
<polygon fill="none" stroke="black" points="476.53,-1504.5 476.53,-1532.5 618.15,-1532.5 618.15,-1504.5 476.53,-1504.5"/>
<text text-anchor="start" x="484.53" y="-1520.5" font-family="Helvetica,sans-Serif" font-size="10.00">Ogre::v1::GL3PlusHardware</text>
<text text-anchor="middle" x="547.34" y="-1510.5" font-family="Helvetica,sans-Serif" font-size="10.00">CounterBuffer</text>
</a>
</g>
</g>
<!-- Node4&#45;&gt;Node7 -->
<g id="edge6" class="edge">
<title>Node4&#45;&gt;Node7</title>
<path fill="none" stroke="midnightblue" d="M425.85,-1518.5C442.5,-1518.5 459.96,-1518.5 476.26,-1518.5"/>
<polygon fill="midnightblue" stroke="midnightblue" points="425.61,-1515 415.61,-1518.5 425.61,-1522 425.61,-1515"/>
</g>
<!-- Node9 -->
<g id="node9" class="node">
<title>Node9</title>
<g id="a_node9"><a xlink:href="class_ogre_1_1v1_1_1_d3_d11_hardware_index_buffer.html" target="_top" xlink:title=" ">
<polygon fill="none" stroke="black" points="468.29,-1457.5 468.29,-1485.5 626.39,-1485.5 626.39,-1457.5 468.29,-1457.5"/>
<text text-anchor="start" x="476.29" y="-1473.5" font-family="Helvetica,sans-Serif" font-size="10.00">Ogre::v1::D3D11HardwareIndex</text>
<text text-anchor="middle" x="547.34" y="-1463.5" font-family="Helvetica,sans-Serif" font-size="10.00">Buffer</text>
</a>
</g>
</g>
<!-- Node8&#45;&gt;Node9 -->
<g id="edge8" class="edge">
<title>Node8&#45;&gt;Node9</title>
<path fill="none" stroke="midnightblue" d="M359.5,-1348.05C378.67,-1373.7 417.79,-1421.21 462.09,-1447.5 468.63,-1451.38 475.83,-1454.66 483.18,-1457.43"/>
<polygon fill="midnightblue" stroke="midnightblue" points="362.1,-1345.68 353.37,-1339.67 356.45,-1349.81 362.1,-1345.68"/>
</g>
<!-- Node10 -->
<g id="node10" class="node">
<title>Node10</title>
<g id="a_node10"><a xlink:href="class_ogre_1_1v1_1_1_default_hardware_index_buffer.html" target="_top" xlink:title="Specialisation of HardwareIndexBuffer for emulation.">
<polygon fill="none" stroke="black" points="479.87,-1410.5 479.87,-1438.5 614.81,-1438.5 614.81,-1410.5 479.87,-1410.5"/>
<text text-anchor="start" x="487.87" y="-1426.5" font-family="Helvetica,sans-Serif" font-size="10.00">Ogre::v1::DefaultHardware</text>
<text text-anchor="middle" x="547.34" y="-1416.5" font-family="Helvetica,sans-Serif" font-size="10.00">IndexBuffer</text>
</a>
</g>
</g>
<!-- Node8&#45;&gt;Node10 -->
<g id="edge9" class="edge">
<title>Node8&#45;&gt;Node10</title>
<path fill="none" stroke="midnightblue" d="M367.88,-1345.57C390.24,-1361.15 427.25,-1385.27 462.09,-1400.5 470.59,-1404.22 479.82,-1407.52 488.96,-1410.41"/>
<polygon fill="midnightblue" stroke="midnightblue" points="369.7,-1342.58 359.51,-1339.67 365.66,-1348.3 369.7,-1342.58"/>
</g>
<!-- Node11 -->
<g id="node11" class="node">
<title>Node11</title>
<g id="a_node11"><a xlink:href="class_ogre_1_1v1_1_1_g_l3_plus_default_hardware_index_buffer.html" target="_top" xlink:title="Specialisation of HardwareIndexBuffer for emulation.">
<polygon fill="none" stroke="black" points="482.37,-1363.5 482.37,-1391.5 612.31,-1391.5 612.31,-1363.5 482.37,-1363.5"/>
<text text-anchor="start" x="490.37" y="-1379.5" font-family="Helvetica,sans-Serif" font-size="10.00">Ogre::v1::GL3PlusDefault</text>
<text text-anchor="middle" x="547.34" y="-1369.5" font-family="Helvetica,sans-Serif" font-size="10.00">HardwareIndexBuffer</text>
</a>
</g>
</g>
<!-- Node8&#45;&gt;Node11 -->
<g id="edge10" class="edge">
<title>Node8&#45;&gt;Node11</title>
<path fill="none" stroke="midnightblue" d="M395.25,-1341.87C422.81,-1348.37 457.59,-1356.57 486.84,-1363.47"/>
<polygon fill="midnightblue" stroke="midnightblue" points="395.98,-1338.45 385.45,-1339.56 394.38,-1345.26 395.98,-1338.45"/>
</g>
<!-- Node12 -->
<g id="node12" class="node">
<title>Node12</title>
<g id="a_node12"><a xlink:href="class_ogre_1_1v1_1_1_g_l3_plus_hardware_index_buffer.html" target="_top" xlink:title=" ">
<polygon fill="none" stroke="black" points="476.53,-1316.5 476.53,-1344.5 618.15,-1344.5 618.15,-1316.5 476.53,-1316.5"/>
<text text-anchor="start" x="484.53" y="-1332.5" font-family="Helvetica,sans-Serif" font-size="10.00">Ogre::v1::GL3PlusHardware</text>
<text text-anchor="middle" x="547.34" y="-1322.5" font-family="Helvetica,sans-Serif" font-size="10.00">IndexBuffer</text>
</a>
</g>
</g>
<!-- Node8&#45;&gt;Node12 -->
<g id="edge11" class="edge">
<title>Node8&#45;&gt;Node12</title>
<path fill="none" stroke="midnightblue" d="M433.56,-1330.5C447.87,-1330.5 462.55,-1330.5 476.39,-1330.5"/>
<polygon fill="midnightblue" stroke="midnightblue" points="433.22,-1327 423.22,-1330.5 433.22,-1334 433.22,-1327"/>
</g>
<!-- Node13 -->
<g id="node13" class="node">
<title>Node13</title>
<g id="a_node13"><a xlink:href="class_ogre_1_1v1_1_1_g_l_e_s2_default_hardware_index_buffer.html" target="_top" xlink:title="Specialisation of HardwareIndexBuffer for emulation.">
<polygon fill="none" stroke="black" points="463.75,-1269.5 463.75,-1297.5 630.93,-1297.5 630.93,-1269.5 463.75,-1269.5"/>
<text text-anchor="start" x="471.75" y="-1285.5" font-family="Helvetica,sans-Serif" font-size="10.00">Ogre::v1::GLES2DefaultHardware</text>
<text text-anchor="middle" x="547.34" y="-1275.5" font-family="Helvetica,sans-Serif" font-size="10.00">IndexBuffer</text>
</a>
</g>
</g>
<!-- Node8&#45;&gt;Node13 -->
<g id="edge12" class="edge">
<title>Node8&#45;&gt;Node13</title>
<path fill="none" stroke="midnightblue" d="M395.25,-1319.13C422.81,-1312.63 457.59,-1304.43 486.84,-1297.53"/>
<polygon fill="midnightblue" stroke="midnightblue" points="394.38,-1315.74 385.45,-1321.44 395.98,-1322.55 394.38,-1315.74"/>
</g>
<!-- Node14 -->
<g id="node14" class="node">
<title>Node14</title>
<g id="a_node14"><a xlink:href="class_ogre_1_1v1_1_1_metal_hardware_index_buffer.html" target="_top" xlink:title="Specialisation of HardwareIndexBuffer for Metal.">
<polygon fill="none" stroke="black" points="471.25,-1222.5 471.25,-1250.5 623.43,-1250.5 623.43,-1222.5 471.25,-1222.5"/>
<text text-anchor="start" x="479.25" y="-1238.5" font-family="Helvetica,sans-Serif" font-size="10.00">Ogre::v1::MetalHardwareIndex</text>
<text text-anchor="middle" x="547.34" y="-1228.5" font-family="Helvetica,sans-Serif" font-size="10.00">Buffer</text>
</a>
</g>
</g>
<!-- Node8&#45;&gt;Node14 -->
<g id="edge13" class="edge">
<title>Node8&#45;&gt;Node14</title>
<path fill="none" stroke="midnightblue" d="M367.45,-1315.37C389.72,-1299.5 426.89,-1274.79 462.09,-1259.5 469.74,-1256.18 477.99,-1253.22 486.23,-1250.63"/>
<polygon fill="midnightblue" stroke="midnightblue" points="365.19,-1312.68 359.14,-1321.38 369.29,-1318.36 365.19,-1312.68"/>
</g>
<!-- Node16 -->
<g id="node16" class="node">
<title>Node16</title>
<g id="a_node16"><a xlink:href="class_ogre_1_1v1_1_1_d3_d11_depth_pixel_buffer.html" target="_top" xlink:title=" ">
<polygon fill="none" stroke="black" points="478.01,-1175.5 478.01,-1203.5 616.67,-1203.5 616.67,-1175.5 478.01,-1175.5"/>
<text text-anchor="start" x="486.01" y="-1191.5" font-family="Helvetica,sans-Serif" font-size="10.00">Ogre::v1::D3D11DepthPixel</text>
<text text-anchor="middle" x="547.34" y="-1181.5" font-family="Helvetica,sans-Serif" font-size="10.00">Buffer</text>
</a>
</g>
</g>
<!-- Node15&#45;&gt;Node16 -->
<g id="edge15" class="edge">
<title>Node15&#45;&gt;Node16</title>
<path fill="none" stroke="midnightblue" d="M350.83,-949.67C360.78,-994.47 391.73,-1106.66 462.09,-1165.5 466.87,-1169.5 472.28,-1172.83 478,-1175.61"/>
<polygon fill="midnightblue" stroke="midnightblue" points="354.24,-948.87 348.75,-939.81 347.39,-950.32 354.24,-948.87"/>
</g>
<!-- Node17 -->
<g id="node17" class="node">
<title>Node17</title>
<g id="a_node17"><a xlink:href="class_ogre_1_1v1_1_1_d3_d11_hardware_pixel_buffer.html" target="_top" xlink:title=" ">
<polygon fill="none" stroke="black" points="469.68,-1128.5 469.68,-1156.5 625,-1156.5 625,-1128.5 469.68,-1128.5"/>
<text text-anchor="start" x="477.68" y="-1144.5" font-family="Helvetica,sans-Serif" font-size="10.00">Ogre::v1::D3D11HardwarePixel</text>
<text text-anchor="middle" x="547.34" y="-1134.5" font-family="Helvetica,sans-Serif" font-size="10.00">Buffer</text>
</a>
</g>
</g>
<!-- Node15&#45;&gt;Node17 -->
<g id="edge16" class="edge">
<title>Node15&#45;&gt;Node17</title>
<path fill="none" stroke="midnightblue" d="M353.24,-949.35C366.75,-987.31 402.45,-1073.21 462.09,-1118.5 467.18,-1122.36 472.86,-1125.6 478.81,-1128.32"/>
<polygon fill="midnightblue" stroke="midnightblue" points="356.44,-947.91 349.88,-939.59 349.82,-950.19 356.44,-947.91"/>
</g>
<!-- Node18 -->
<g id="node18" class="node">
<title>Node18</title>
<g id="a_node18"><a xlink:href="class_ogre_1_1v1_1_1_d3_d11_null_pixel_buffer.html" target="_top" xlink:title=" ">
<polygon fill="none" stroke="black" points="482.74,-1081.5 482.74,-1109.5 611.94,-1109.5 611.94,-1081.5 482.74,-1081.5"/>
<text text-anchor="start" x="490.74" y="-1097.5" font-family="Helvetica,sans-Serif" font-size="10.00">Ogre::v1::D3D11NullPixel</text>
<text text-anchor="middle" x="547.34" y="-1087.5" font-family="Helvetica,sans-Serif" font-size="10.00">Buffer</text>
</a>
</g>
</g>
<!-- Node15&#45;&gt;Node18 -->
<g id="edge17" class="edge">
<title>Node15&#45;&gt;Node18</title>
<path fill="none" stroke="midnightblue" d="M356.86,-948.69C374.13,-978.84 412.76,-1039.05 462.09,-1071.5 468.31,-1075.6 475.24,-1079 482.38,-1081.84"/>
<polygon fill="midnightblue" stroke="midnightblue" points="359.77,-946.73 351.84,-939.7 353.66,-950.14 359.77,-946.73"/>
</g>
<!-- Node19 -->
<g id="node19" class="node">
<title>Node19</title>
<g id="a_node19"><a xlink:href="class_ogre_1_1v1_1_1_g_l3_plus_depth_pixel_buffer.html" target="_top" xlink:title=" ">
<polygon fill="none" stroke="black" points="474.03,-1034.5 474.03,-1062.5 620.65,-1062.5 620.65,-1034.5 474.03,-1034.5"/>
<text text-anchor="start" x="482.03" y="-1050.5" font-family="Helvetica,sans-Serif" font-size="10.00">Ogre::v1::GL3PlusDepthPixel</text>
<text text-anchor="middle" x="547.34" y="-1040.5" font-family="Helvetica,sans-Serif" font-size="10.00">Buffer</text>
</a>
</g>
</g>
<!-- Node15&#45;&gt;Node19 -->
<g id="edge18" class="edge">
<title>Node15&#45;&gt;Node19</title>
<path fill="none" stroke="midnightblue" d="M362.7,-946.93C383.53,-967.85 422.35,-1003.75 462.09,-1024.5 469.37,-1028.3 477.33,-1031.57 485.35,-1034.35"/>
<polygon fill="midnightblue" stroke="midnightblue" points="365.13,-944.41 355.63,-939.71 360.12,-949.31 365.13,-944.41"/>
</g>
<!-- Node20 -->
<g id="node20" class="node">
<title>Node20</title>
<g id="a_node20"><a xlink:href="class_ogre_1_1v1_1_1_g_l3_plus_hardware_pixel_buffer.html" target="_top" xlink:title=" ">
<polygon fill="none" stroke="black" points="476.53,-987.5 476.53,-1015.5 618.15,-1015.5 618.15,-987.5 476.53,-987.5"/>
<text text-anchor="start" x="484.53" y="-1003.5" font-family="Helvetica,sans-Serif" font-size="10.00">Ogre::v1::GL3PlusHardware</text>
<text text-anchor="middle" x="547.34" y="-993.5" font-family="Helvetica,sans-Serif" font-size="10.00">PixelBuffer</text>
</a>
</g>
</g>
<!-- Node15&#45;&gt;Node20 -->
<g id="edge19" class="edge">
<title>Node15&#45;&gt;Node20</title>
<path fill="none" stroke="midnightblue" d="M376.36,-943.53C399.41,-953.51 432.46,-967.26 462.09,-977.5 472.15,-980.98 483.01,-984.35 493.48,-987.41"/>
<polygon fill="midnightblue" stroke="midnightblue" points="377.69,-940.3 367.13,-939.51 374.89,-946.71 377.69,-940.3"/>
</g>
<!-- Node23 -->
<g id="node23" class="node">
<title>Node23</title>
<g id="a_node23"><a xlink:href="class_ogre_1_1v1_1_1_g_l3_plus_null_pixel_buffer.html" target="_top" xlink:title=" ">
<polygon fill="none" stroke="black" points="478.76,-940.5 478.76,-968.5 615.92,-968.5 615.92,-940.5 478.76,-940.5"/>
<text text-anchor="start" x="486.76" y="-956.5" font-family="Helvetica,sans-Serif" font-size="10.00">Ogre::v1::GL3PlusNullPixel</text>
<text text-anchor="middle" x="547.34" y="-946.5" font-family="Helvetica,sans-Serif" font-size="10.00">Buffer</text>
</a>
</g>
</g>
<!-- Node15&#45;&gt;Node23 -->
<g id="edge22" class="edge">
<title>Node15&#45;&gt;Node23</title>
<path fill="none" stroke="midnightblue" d="M431.97,-940.73C447.58,-942.61 463.67,-944.55 478.69,-946.35"/>
<polygon fill="midnightblue" stroke="midnightblue" points="432.15,-937.23 421.8,-939.5 431.31,-944.18 432.15,-937.23"/>
</g>
<!-- Node24 -->
<g id="node24" class="node">
<title>Node24</title>
<g id="a_node24"><a xlink:href="class_ogre_1_1v1_1_1_g_l_e_s2_depth_pixel_buffer.html" target="_top" xlink:title=" ">
<polygon fill="none" stroke="black" points="477.09,-893.5 477.09,-921.5 617.59,-921.5 617.59,-893.5 477.09,-893.5"/>
<text text-anchor="start" x="485.09" y="-909.5" font-family="Helvetica,sans-Serif" font-size="10.00">Ogre::v1::GLES2DepthPixel</text>
<text text-anchor="middle" x="547.34" y="-899.5" font-family="Helvetica,sans-Serif" font-size="10.00">Buffer</text>
</a>
</g>
</g>
<!-- Node15&#45;&gt;Node24 -->
<g id="edge23" class="edge">
<title>Node15&#45;&gt;Node24</title>
<path fill="none" stroke="midnightblue" d="M432.1,-920.68C447.1,-918.95 462.55,-917.17 477.06,-915.49"/>
<polygon fill="midnightblue" stroke="midnightblue" points="431.34,-917.25 421.8,-921.87 432.14,-924.2 431.34,-917.25"/>
</g>
<!-- Node25 -->
<g id="node25" class="node">
<title>Node25</title>
<g id="a_node25"><a xlink:href="class_ogre_1_1v1_1_1_g_l_e_s2_hardware_pixel_buffer.html" target="_top" xlink:title=" ">
<polygon fill="none" stroke="black" points="468.75,-846.5 468.75,-874.5 625.93,-874.5 625.93,-846.5 468.75,-846.5"/>
<text text-anchor="start" x="476.75" y="-862.5" font-family="Helvetica,sans-Serif" font-size="10.00">Ogre::v1::GLES2HardwarePixel</text>
<text text-anchor="middle" x="547.34" y="-852.5" font-family="Helvetica,sans-Serif" font-size="10.00">Buffer</text>
</a>
</g>
</g>
<!-- Node15&#45;&gt;Node25 -->
<g id="edge24" class="edge">
<title>Node15&#45;&gt;Node25</title>
<path fill="none" stroke="midnightblue" d="M376.32,-917.38C399.36,-907.35 432.41,-893.57 462.09,-883.5 471.42,-880.33 481.45,-877.29 491.21,-874.52"/>
<polygon fill="midnightblue" stroke="midnightblue" points="374.85,-914.2 367.1,-921.43 377.67,-920.61 374.85,-914.2"/>
</g>
<!-- Node28 -->
<g id="node28" class="node">
<title>Node28</title>
<g id="a_node28"><a xlink:href="class_ogre_1_1v1_1_1_g_l_e_s2_null_pixel_buffer.html" target="_top" xlink:title=" ">
<polygon fill="none" stroke="black" points="481.82,-799.5 481.82,-827.5 612.86,-827.5 612.86,-799.5 481.82,-799.5"/>
<text text-anchor="start" x="489.82" y="-815.5" font-family="Helvetica,sans-Serif" font-size="10.00">Ogre::v1::GLES2NullPixel</text>
<text text-anchor="middle" x="547.34" y="-805.5" font-family="Helvetica,sans-Serif" font-size="10.00">Buffer</text>
</a>
</g>
</g>
<!-- Node15&#45;&gt;Node28 -->
<g id="edge27" class="edge">
<title>Node15&#45;&gt;Node28</title>
<path fill="none" stroke="midnightblue" d="M362.66,-914C383.46,-893.01 422.23,-857.03 462.09,-836.5 468.69,-833.1 475.86,-830.15 483.12,-827.62"/>
<polygon fill="midnightblue" stroke="midnightblue" points="360.07,-911.64 355.61,-921.25 365.09,-916.52 360.07,-911.64"/>
</g>
<!-- Node29 -->
<g id="node29" class="node">
<title>Node29</title>
<g id="a_node29"><a xlink:href="class_ogre_1_1v1_1_1_metal_depth_pixel_buffer.html" target="_top" xlink:title=" ">
<polygon fill="none" stroke="black" points="480.98,-752.5 480.98,-780.5 613.7,-780.5 613.7,-752.5 480.98,-752.5"/>
<text text-anchor="start" x="488.98" y="-768.5" font-family="Helvetica,sans-Serif" font-size="10.00">Ogre::v1::MetalDepthPixel</text>
<text text-anchor="middle" x="547.34" y="-758.5" font-family="Helvetica,sans-Serif" font-size="10.00">Buffer</text>
</a>
</g>
</g>
<!-- Node15&#45;&gt;Node29 -->
<g id="edge28" class="edge">
<title>Node15&#45;&gt;Node29</title>
<path fill="none" stroke="midnightblue" d="M356.82,-912.25C374.03,-882.01 412.58,-821.68 462.09,-789.5 467.81,-785.78 474.12,-782.66 480.64,-780.04"/>
<polygon fill="midnightblue" stroke="midnightblue" points="353.61,-910.82 351.82,-921.27 359.73,-914.22 353.61,-910.82"/>
</g>
<!-- Node30 -->
<g id="node30" class="node">
<title>Node30</title>
<g id="a_node30"><a xlink:href="class_ogre_1_1v1_1_1_metal_hardware_pixel_buffer.html" target="_top" xlink:title=" ">
<polygon fill="none" stroke="black" points="472.65,-705.5 472.65,-733.5 622.03,-733.5 622.03,-705.5 472.65,-705.5"/>
<text text-anchor="start" x="480.65" y="-721.5" font-family="Helvetica,sans-Serif" font-size="10.00">Ogre::v1::MetalHardwarePixel</text>
<text text-anchor="middle" x="547.34" y="-711.5" font-family="Helvetica,sans-Serif" font-size="10.00">Buffer</text>
</a>
</g>
</g>
<!-- Node15&#45;&gt;Node30 -->
<g id="edge29" class="edge">
<title>Node15&#45;&gt;Node30</title>
<path fill="none" stroke="midnightblue" d="M353.19,-911.6C366.63,-873.53 402.2,-787.46 462.09,-742.5 466.7,-739.04 471.79,-736.1 477.13,-733.6"/>
<polygon fill="midnightblue" stroke="midnightblue" points="349.77,-910.78 349.86,-921.38 356.4,-913.04 349.77,-910.78"/>
</g>
<!-- Node32 -->
<g id="node32" class="node">
<title>Node32</title>
<g id="a_node32"><a xlink:href="class_ogre_1_1v1_1_1_metal_null_pixel_buffer.html" target="_top" xlink:title=" ">
<polygon fill="none" stroke="black" points="485.71,-658.5 485.71,-686.5 608.97,-686.5 608.97,-658.5 485.71,-658.5"/>
<text text-anchor="start" x="493.71" y="-674.5" font-family="Helvetica,sans-Serif" font-size="10.00">Ogre::v1::MetalNullPixel</text>
<text text-anchor="middle" x="547.34" y="-664.5" font-family="Helvetica,sans-Serif" font-size="10.00">Buffer</text>
</a>
</g>
</g>
<!-- Node15&#45;&gt;Node32 -->
<g id="edge31" class="edge">
<title>Node15&#45;&gt;Node32</title>
<path fill="none" stroke="midnightblue" d="M350.79,-911.28C360.64,-866.36 391.41,-753.95 462.09,-695.5 468.98,-689.8 477.17,-685.5 485.7,-682.27"/>
<polygon fill="midnightblue" stroke="midnightblue" points="347.34,-910.66 348.73,-921.17 354.2,-912.09 347.34,-910.66"/>
</g>
<!-- Node33 -->
<g id="node33" class="node">
<title>Node33</title>
<g id="a_node33"><a xlink:href="class_ogre_1_1v1_1_1_n_u_l_l_hardware_pixel_buffer.html" target="_top" xlink:title=" ">
<polygon fill="none" stroke="black" points="472.09,-611.5 472.09,-639.5 622.59,-639.5 622.59,-611.5 472.09,-611.5"/>
<text text-anchor="start" x="480.09" y="-627.5" font-family="Helvetica,sans-Serif" font-size="10.00">Ogre::v1::NULLHardwarePixel</text>
<text text-anchor="middle" x="547.34" y="-617.5" font-family="Helvetica,sans-Serif" font-size="10.00">Buffer</text>
</a>
</g>
</g>
<!-- Node15&#45;&gt;Node33 -->
<g id="edge32" class="edge">
<title>Node15&#45;&gt;Node33</title>
<path fill="none" stroke="midnightblue" d="M349.06,-911.33C355.52,-860.47 380.21,-721.03 462.09,-648.5 465.95,-645.08 470.27,-642.17 474.86,-639.68"/>
<polygon fill="midnightblue" stroke="midnightblue" points="345.58,-910.94 347.89,-921.28 352.53,-911.76 345.58,-910.94"/>
</g>
<!-- Node21 -->
<g id="node21" class="node">
<title>Node21</title>
<g id="a_node21"><a xlink:href="class_ogre_1_1v1_1_1_g_l3_plus_render_buffer.html" target="_top" xlink:title="Renderbuffer surface.">
<polygon fill="none" stroke="black" points="668.59,-1013.5 668.59,-1031.5 826.15,-1031.5 826.15,-1013.5 668.59,-1013.5"/>
<text text-anchor="middle" x="747.37" y="-1019.5" font-family="Helvetica,sans-Serif" font-size="10.00">Ogre::v1::GL3PlusRenderBuffer</text>
</a>
</g>
</g>
<!-- Node20&#45;&gt;Node21 -->
<g id="edge20" class="edge">
<title>Node20&#45;&gt;Node21</title>
<path fill="none" stroke="midnightblue" d="M628.19,-1009.97C641.46,-1011.37 655.2,-1012.83 668.41,-1014.23"/>
<polygon fill="midnightblue" stroke="midnightblue" points="628.47,-1006.48 618.16,-1008.9 627.73,-1013.44 628.47,-1006.48"/>
</g>
<!-- Node22 -->
<g id="node22" class="node">
<title>Node22</title>
<g id="a_node22"><a xlink:href="class_ogre_1_1v1_1_1_g_l3_plus_texture_buffer.html" target="_top" xlink:title="Texture surface.">
<polygon fill="none" stroke="black" points="681.85,-966.5 681.85,-994.5 812.9,-994.5 812.9,-966.5 681.85,-966.5"/>
<text text-anchor="start" x="689.85" y="-982.5" font-family="Helvetica,sans-Serif" font-size="10.00">Ogre::v1::GL3PlusTexture</text>
<text text-anchor="middle" x="747.37" y="-972.5" font-family="Helvetica,sans-Serif" font-size="10.00">Buffer</text>
</a>
</g>
</g>
<!-- Node20&#45;&gt;Node22 -->
<g id="edge21" class="edge">
<title>Node20&#45;&gt;Node22</title>
<path fill="none" stroke="midnightblue" d="M628.49,-993C646.22,-991.12 664.8,-989.15 681.82,-987.35"/>
<polygon fill="midnightblue" stroke="midnightblue" points="627.73,-989.56 618.16,-994.1 628.47,-996.52 627.73,-989.56"/>
</g>
<!-- Node26 -->
<g id="node26" class="node">
<title>Node26</title>
<g id="a_node26"><a xlink:href="class_ogre_1_1v1_1_1_g_l_e_s2_render_buffer.html" target="_top" xlink:title="Renderbuffer surface.">
<polygon fill="none" stroke="black" points="671.65,-870.5 671.65,-888.5 823.1,-888.5 823.1,-870.5 671.65,-870.5"/>
<text text-anchor="middle" x="747.37" y="-876.5" font-family="Helvetica,sans-Serif" font-size="10.00">Ogre::v1::GLES2RenderBuffer</text>
</a>
</g>
</g>
<!-- Node25&#45;&gt;Node26 -->
<g id="edge25" class="edge">
<title>Node25&#45;&gt;Node26</title>
<path fill="none" stroke="midnightblue" d="M636.29,-868.94C648.04,-870.07 659.99,-871.21 671.49,-872.32"/>
<polygon fill="midnightblue" stroke="midnightblue" points="636.33,-865.43 626.04,-867.95 635.66,-872.39 636.33,-865.43"/>
</g>
<!-- Node27 -->
<g id="node27" class="node">
<title>Node27</title>
<g id="a_node27"><a xlink:href="class_ogre_1_1v1_1_1_g_l_e_s2_texture_buffer.html" target="_top" xlink:title="Texture surface.">
<polygon fill="none" stroke="black" points="671.65,-833.5 671.65,-851.5 823.09,-851.5 823.09,-833.5 671.65,-833.5"/>
<text text-anchor="middle" x="747.37" y="-839.5" font-family="Helvetica,sans-Serif" font-size="10.00">Ogre::v1::GLES2TextureBuffer</text>
</a>
</g>
</g>
<!-- Node25&#45;&gt;Node27 -->
<g id="edge26" class="edge">
<title>Node25&#45;&gt;Node27</title>
<path fill="none" stroke="midnightblue" d="M636.29,-852.51C648.04,-851.44 659.99,-850.35 671.49,-849.31"/>
<polygon fill="midnightblue" stroke="midnightblue" points="635.68,-849.05 626.04,-853.44 636.31,-856.02 635.68,-849.05"/>
</g>
<!-- Node31 -->
<g id="node31" class="node">
<title>Node31</title>
<g id="a_node31"><a xlink:href="class_ogre_1_1v1_1_1_metal_texture_buffer.html" target="_top" xlink:title="Texture surface.">
<polygon fill="none" stroke="black" points="675.54,-710.5 675.54,-728.5 819.2,-728.5 819.2,-710.5 675.54,-710.5"/>
<text text-anchor="middle" x="747.37" y="-716.5" font-family="Helvetica,sans-Serif" font-size="10.00">Ogre::v1::MetalTextureBuffer</text>
</a>
</g>
</g>
<!-- Node30&#45;&gt;Node31 -->
<g id="edge30" class="edge">
<title>Node30&#45;&gt;Node31</title>
<path fill="none" stroke="midnightblue" d="M632.44,-719.5C646.79,-719.5 661.57,-719.5 675.53,-719.5"/>
<polygon fill="midnightblue" stroke="midnightblue" points="632.08,-716 622.08,-719.5 632.08,-723 632.08,-716"/>
</g>
<!-- Node35 -->
<g id="node35" class="node">
<title>Node35</title>
<g id="a_node35"><a xlink:href="class_ogre_1_1v1_1_1_d3_d11_hardware_uniform_buffer.html" target="_top" xlink:title="Specialisation of HardwareBuffer for D3D11.">
<polygon fill="none" stroke="black" points="463.01,-564.5 463.01,-592.5 631.67,-592.5 631.67,-564.5 463.01,-564.5"/>
<text text-anchor="start" x="471.01" y="-580.5" font-family="Helvetica,sans-Serif" font-size="10.00">Ogre::v1::D3D11HardwareUniform</text>
<text text-anchor="middle" x="547.34" y="-570.5" font-family="Helvetica,sans-Serif" font-size="10.00">Buffer</text>
</a>
</g>
</g>
<!-- Node34&#45;&gt;Node35 -->
<g id="edge34" class="edge">
<title>Node34&#45;&gt;Node35</title>
<path fill="none" stroke="midnightblue" d="M367.86,-482.06C389.56,-503.33 425.43,-535.36 462.09,-554.5 469.37,-558.3 477.33,-561.57 485.35,-564.35"/>
<polygon fill="midnightblue" stroke="midnightblue" points="370.09,-479.33 360.54,-474.75 365.15,-484.29 370.09,-479.33"/>
</g>
<!-- Node36 -->
<g id="node36" class="node">
<title>Node36</title>
<g id="a_node36"><a xlink:href="class_ogre_1_1v1_1_1_default_hardware_uniform_buffer.html" target="_top" xlink:title="Specialisation of HardwareUniformBuffer for emulation.">
<polygon fill="none" stroke="black" points="479.87,-517.5 479.87,-545.5 614.81,-545.5 614.81,-517.5 479.87,-517.5"/>
<text text-anchor="start" x="487.87" y="-533.5" font-family="Helvetica,sans-Serif" font-size="10.00">Ogre::v1::DefaultHardware</text>
<text text-anchor="middle" x="547.34" y="-523.5" font-family="Helvetica,sans-Serif" font-size="10.00">UniformBuffer</text>
</a>
</g>
</g>
<!-- Node34&#45;&gt;Node36 -->
<g id="edge35" class="edge">
<title>Node34&#45;&gt;Node36</title>
<path fill="none" stroke="midnightblue" d="M388.16,-478.6C409.92,-487.83 437.21,-498.91 462.09,-507.5 472.15,-510.98 483.01,-514.35 493.48,-517.41"/>
<polygon fill="midnightblue" stroke="midnightblue" points="389.46,-475.34 378.89,-474.63 386.71,-481.78 389.46,-475.34"/>
</g>
<!-- Node37 -->
<g id="node37" class="node">
<title>Node37</title>
<g id="a_node37"><a xlink:href="class_ogre_1_1v1_1_1_g_l3_plus_default_hardware_uniform_buffer.html" target="_top" xlink:title="Specialisation of HardwareUniformBuffer for emulation.">
<polygon fill="none" stroke="black" points="482.37,-470.5 482.37,-498.5 612.31,-498.5 612.31,-470.5 482.37,-470.5"/>
<text text-anchor="start" x="490.37" y="-486.5" font-family="Helvetica,sans-Serif" font-size="10.00">Ogre::v1::GL3PlusDefault</text>
<text text-anchor="middle" x="547.34" y="-476.5" font-family="Helvetica,sans-Serif" font-size="10.00">HardwareUniformBuffer</text>
</a>
</g>
</g>
<!-- Node34&#45;&gt;Node37 -->
<g id="edge36" class="edge">
<title>Node34&#45;&gt;Node37</title>
<path fill="none" stroke="midnightblue" d="M425.36,-469.93C444.17,-472.2 464.05,-474.59 482.14,-476.77"/>
<polygon fill="midnightblue" stroke="midnightblue" points="425.68,-466.45 415.33,-468.73 424.84,-473.4 425.68,-466.45"/>
</g>
<!-- Node38 -->
<g id="node38" class="node">
<title>Node38</title>
<g id="a_node38"><a xlink:href="class_ogre_1_1v1_1_1_g_l3_plus_hardware_shader_storage_buffer.html" target="_top" xlink:title="Specialisation of HardwareUniformBuffer for the OpenGL Shader Storage Buffer.">
<polygon fill="none" stroke="black" points="476.53,-423.5 476.53,-451.5 618.15,-451.5 618.15,-423.5 476.53,-423.5"/>
<text text-anchor="start" x="484.53" y="-439.5" font-family="Helvetica,sans-Serif" font-size="10.00">Ogre::v1::GL3PlusHardware</text>
<text text-anchor="middle" x="547.34" y="-429.5" font-family="Helvetica,sans-Serif" font-size="10.00">ShaderStorageBuffer</text>
</a>
</g>
</g>
<!-- Node34&#45;&gt;Node38 -->
<g id="edge37" class="edge">
<title>Node34&#45;&gt;Node38</title>
<path fill="none" stroke="midnightblue" d="M425.64,-451.43C442.41,-449.49 460.01,-447.46 476.42,-445.57"/>
<polygon fill="midnightblue" stroke="midnightblue" points="424.86,-447.99 415.33,-452.62 425.67,-454.95 424.86,-447.99"/>
</g>
<!-- Node39 -->
<g id="node39" class="node">
<title>Node39</title>
<g id="a_node39"><a xlink:href="class_ogre_1_1v1_1_1_g_l3_plus_hardware_uniform_buffer.html" target="_top" xlink:title="Specialisation of HardwareUniformBuffer for OpenGL.">
<polygon fill="none" stroke="black" points="476.53,-376.5 476.53,-404.5 618.15,-404.5 618.15,-376.5 476.53,-376.5"/>
<text text-anchor="start" x="484.53" y="-392.5" font-family="Helvetica,sans-Serif" font-size="10.00">Ogre::v1::GL3PlusHardware</text>
<text text-anchor="middle" x="547.34" y="-382.5" font-family="Helvetica,sans-Serif" font-size="10.00">UniformBuffer</text>
</a>
</g>
</g>
<!-- Node34&#45;&gt;Node39 -->
<g id="edge38" class="edge">
<title>Node34&#45;&gt;Node39</title>
<path fill="none" stroke="midnightblue" d="M387.66,-442.49C409.48,-433.18 436.99,-422.02 462.09,-413.5 471.42,-410.33 481.45,-407.29 491.21,-404.52"/>
<polygon fill="midnightblue" stroke="midnightblue" points="386.17,-439.32 378.37,-446.49 388.94,-445.75 386.17,-439.32"/>
</g>
<!-- Node40 -->
<g id="node40" class="node">
<title>Node40</title>
<g id="a_node40"><a xlink:href="class_ogre_1_1v1_1_1_g_l_e_s2_default_hardware_uniform_buffer.html" target="_top" xlink:title="Specialisation of HardwareUniformBuffer for emulation.">
<polygon fill="none" stroke="black" points="463.75,-329.5 463.75,-357.5 630.93,-357.5 630.93,-329.5 463.75,-329.5"/>
<text text-anchor="start" x="471.75" y="-345.5" font-family="Helvetica,sans-Serif" font-size="10.00">Ogre::v1::GLES2DefaultHardware</text>
<text text-anchor="middle" x="547.34" y="-335.5" font-family="Helvetica,sans-Serif" font-size="10.00">UniformBuffer</text>
</a>
</g>
</g>
<!-- Node34&#45;&gt;Node40 -->
<g id="edge39" class="edge">
<title>Node34&#45;&gt;Node40</title>
<path fill="none" stroke="midnightblue" d="M367.82,-438.86C389.48,-417.52 425.33,-385.44 462.09,-366.5 468.69,-363.1 475.86,-360.15 483.12,-357.62"/>
<polygon fill="midnightblue" stroke="midnightblue" points="365.09,-436.64 360.5,-446.19 370.04,-441.58 365.09,-436.64"/>
</g>
<!-- Node41 -->
<g id="node41" class="node">
<title>Node41</title>
<g id="a_node41"><a xlink:href="class_ogre_1_1v1_1_1_g_l_e_s2_hardware_uniform_buffer.html" target="_top" xlink:title="Specialisation of HardwareUniformBuffer for OpenGL.">
<polygon fill="none" stroke="black" points="462.09,-282.5 462.09,-310.5 632.59,-310.5 632.59,-282.5 462.09,-282.5"/>
<text text-anchor="start" x="470.09" y="-298.5" font-family="Helvetica,sans-Serif" font-size="10.00">Ogre::v1::GLES2HardwareUniform</text>
<text text-anchor="middle" x="547.34" y="-288.5" font-family="Helvetica,sans-Serif" font-size="10.00">Buffer</text>
</a>
</g>
</g>
<!-- Node34&#45;&gt;Node41 -->
<g id="edge40" class="edge">
<title>Node34&#45;&gt;Node41</title>
<path fill="none" stroke="midnightblue" d="M359.54,-437.55C377.88,-406.11 415.03,-350.09 462.09,-319.5 467.43,-316.03 473.28,-313.08 479.34,-310.57"/>
<polygon fill="midnightblue" stroke="midnightblue" points="356.37,-436.04 354.46,-446.46 362.45,-439.5 356.37,-436.04"/>
</g>
<!-- Node43 -->
<g id="node43" class="node">
<title>Node43</title>
<g id="a_node43"><a xlink:href="class_ogre_1_1v1_1_1_d3_d11_hardware_vertex_buffer.html" target="_top" xlink:title="Specialisation of HardwareVertexBuffer for D3D11.">
<polygon fill="none" stroke="black" points="466.34,-235.5 466.34,-263.5 628.34,-263.5 628.34,-235.5 466.34,-235.5"/>
<text text-anchor="start" x="474.34" y="-251.5" font-family="Helvetica,sans-Serif" font-size="10.00">Ogre::v1::D3D11HardwareVertex</text>
<text text-anchor="middle" x="547.34" y="-241.5" font-family="Helvetica,sans-Serif" font-size="10.00">Buffer</text>
</a>
</g>
</g>
<!-- Node42&#45;&gt;Node43 -->
<g id="edge42" class="edge">
<title>Node42&#45;&gt;Node43</title>
<path fill="none" stroke="midnightblue" d="M374.91,-175.42C397.53,-190.83 430.69,-211.78 462.09,-225.5 470.59,-229.22 479.82,-232.52 488.96,-235.41"/>
<polygon fill="midnightblue" stroke="midnightblue" points="376.71,-172.41 366.49,-169.61 372.73,-178.17 376.71,-172.41"/>
</g>
<!-- Node44 -->
<g id="node44" class="node">
<title>Node44</title>
<g id="a_node44"><a xlink:href="class_ogre_1_1v1_1_1_default_hardware_vertex_buffer.html" target="_top" xlink:title="Specialisation of HardwareVertexBuffer for emulation.">
<polygon fill="none" stroke="black" points="479.87,-188.5 479.87,-216.5 614.81,-216.5 614.81,-188.5 479.87,-188.5"/>
<text text-anchor="start" x="487.87" y="-204.5" font-family="Helvetica,sans-Serif" font-size="10.00">Ogre::v1::DefaultHardware</text>
<text text-anchor="middle" x="547.34" y="-194.5" font-family="Helvetica,sans-Serif" font-size="10.00">VertexBuffer</text>
</a>
</g>
</g>
<!-- Node42&#45;&gt;Node44 -->
<g id="edge43" class="edge">
<title>Node42&#45;&gt;Node44</title>
<path fill="none" stroke="midnightblue" d="M416.54,-171.89C439.44,-177.29 464.68,-183.25 486.77,-188.45"/>
<polygon fill="midnightblue" stroke="midnightblue" points="417.08,-168.43 406.55,-169.54 415.48,-175.24 417.08,-168.43"/>
</g>
<!-- Node45 -->
<g id="node45" class="node">
<title>Node45</title>
<g id="a_node45"><a xlink:href="class_ogre_1_1v1_1_1_g_l3_plus_default_hardware_vertex_buffer.html" target="_top" xlink:title="Specialisation of HardwareVertexBuffer for emulation.">
<polygon fill="none" stroke="black" points="482.37,-141.5 482.37,-169.5 612.31,-169.5 612.31,-141.5 482.37,-141.5"/>
<text text-anchor="start" x="490.37" y="-157.5" font-family="Helvetica,sans-Serif" font-size="10.00">Ogre::v1::GL3PlusDefault</text>
<text text-anchor="middle" x="547.34" y="-147.5" font-family="Helvetica,sans-Serif" font-size="10.00">HardwareVertexBuffer</text>
</a>
</g>
</g>
<!-- Node42&#45;&gt;Node45 -->
<g id="edge44" class="edge">
<title>Node42&#45;&gt;Node45</title>
<path fill="none" stroke="midnightblue" d="M422.18,-155.5C441.92,-155.5 463.02,-155.5 482.12,-155.5"/>
<polygon fill="midnightblue" stroke="midnightblue" points="422,-152 412,-155.5 422,-159 422,-152"/>
</g>
<!-- Node46 -->
<g id="node46" class="node">
<title>Node46</title>
<g id="a_node46"><a xlink:href="class_ogre_1_1v1_1_1_g_l3_plus_hardware_vertex_buffer.html" target="_top" xlink:title="Specialisation of HardwareVertexBuffer for OpenGL.">
<polygon fill="none" stroke="black" points="476.53,-94.5 476.53,-122.5 618.15,-122.5 618.15,-94.5 476.53,-94.5"/>
<text text-anchor="start" x="484.53" y="-110.5" font-family="Helvetica,sans-Serif" font-size="10.00">Ogre::v1::GL3PlusHardware</text>
<text text-anchor="middle" x="547.34" y="-100.5" font-family="Helvetica,sans-Serif" font-size="10.00">VertexBuffer</text>
</a>
</g>
</g>
<!-- Node42&#45;&gt;Node46 -->
<g id="edge45" class="edge">
<title>Node42&#45;&gt;Node46</title>
<path fill="none" stroke="midnightblue" d="M416.54,-139.11C439.44,-133.71 464.68,-127.75 486.77,-122.55"/>
<polygon fill="midnightblue" stroke="midnightblue" points="415.48,-135.76 406.55,-141.46 417.08,-142.57 415.48,-135.76"/>
</g>
<!-- Node47 -->
<g id="node47" class="node">
<title>Node47</title>
<g id="a_node47"><a xlink:href="class_ogre_1_1v1_1_1_g_l_e_s2_default_hardware_vertex_buffer.html" target="_top" xlink:title="Specialisation of HardwareVertexBuffer for emulation.">
<polygon fill="none" stroke="black" points="463.75,-47.5 463.75,-75.5 630.93,-75.5 630.93,-47.5 463.75,-47.5"/>
<text text-anchor="start" x="471.75" y="-63.5" font-family="Helvetica,sans-Serif" font-size="10.00">Ogre::v1::GLES2DefaultHardware</text>
<text text-anchor="middle" x="547.34" y="-53.5" font-family="Helvetica,sans-Serif" font-size="10.00">VertexBuffer</text>
</a>
</g>
</g>
<!-- Node42&#45;&gt;Node47 -->
<g id="edge46" class="edge">
<title>Node42&#45;&gt;Node47</title>
<path fill="none" stroke="midnightblue" d="M374.42,-135.46C397,-119.74 430.34,-98.28 462.09,-84.5 469.74,-81.18 477.99,-78.22 486.23,-75.63"/>
<polygon fill="midnightblue" stroke="midnightblue" points="372.18,-132.76 366.03,-141.38 376.22,-138.48 372.18,-132.76"/>
</g>
<!-- Node48 -->
<g id="node48" class="node">
<title>Node48</title>
<g id="a_node48"><a xlink:href="class_ogre_1_1v1_1_1_metal_hardware_vertex_buffer.html" target="_top" xlink:title="Specialisation of HardwareVertexBuffer for Metal.">
<polygon fill="none" stroke="black" points="469.31,-0.5 469.31,-28.5 625.37,-28.5 625.37,-0.5 469.31,-0.5"/>
<text text-anchor="start" x="477.31" y="-16.5" font-family="Helvetica,sans-Serif" font-size="10.00">Ogre::v1::MetalHardwareVertex</text>
<text text-anchor="middle" x="547.34" y="-6.5" font-family="Helvetica,sans-Serif" font-size="10.00">Buffer</text>
</a>
</g>
</g>
<!-- Node42&#45;&gt;Node48 -->
<g id="edge47" class="edge">
<title>Node42&#45;&gt;Node48</title>
<path fill="none" stroke="midnightblue" d="M363.13,-132.76C383.27,-106.02 420.22,-62.16 462.09,-37.5 467.97,-34.04 474.38,-31.08 480.97,-28.56"/>
<polygon fill="midnightblue" stroke="midnightblue" points="360.08,-131 356.96,-141.12 365.71,-135.15 360.08,-131"/>
</g>
</g>
</svg>
