<?xml version="1.0" encoding="UTF-8" standalone="no"?>
<!DOCTYPE svg PUBLIC "-//W3C//DTD SVG 1.1//EN"
 "http://www.w3.org/Graphics/SVG/1.1/DTD/svg11.dtd">
<!-- Generated by graphviz version 2.43.0 (0)
 -->
<!-- Title: Ogre::HlmsPbs Pages: 1 -->
<svg width="274pt" height="192pt"
 viewBox="0.00 0.00 274.48 192.00" xmlns="http://www.w3.org/2000/svg" xmlns:xlink="http://www.w3.org/1999/xlink">
<g id="graph0" class="graph" transform="scale(1 1) rotate(0) translate(4 188)">
<title>Ogre::HlmsPbs</title>
<!-- Node1 -->
<g id="node1" class="node">
<title>Node1</title>
<g id="a_node1"><a xlink:title="Physically based shading implementation specfically designed for OpenGL 3+, D3D11 and other RenderSys...">
<polygon fill="#bfbfbf" stroke="black" points="95.37,-0.5 95.37,-18.5 179.16,-18.5 179.16,-0.5 95.37,-0.5"/>
<text text-anchor="middle" x="137.27" y="-6.5" font-family="Helvetica,sans-Serif" font-size="10.00">Ogre::HlmsPbs</text>
</a>
</g>
</g>
<!-- Node2 -->
<g id="node2" class="node">
<title>Node2</title>
<g id="a_node2"><a xlink:href="class_ogre_1_1_hlms_buffer_manager.html" target="_top" xlink:title="Managing constant and texture buffers for sending shader parameters is a very similar process to most...">
<polygon fill="none" stroke="black" points="0,-55.5 0,-73.5 132.53,-73.5 132.53,-55.5 0,-55.5"/>
<text text-anchor="middle" x="66.27" y="-61.5" font-family="Helvetica,sans-Serif" font-size="10.00">Ogre::HlmsBufferManager</text>
</a>
</g>
</g>
<!-- Node2&#45;&gt;Node1 -->
<g id="edge1" class="edge">
<title>Node2&#45;&gt;Node1</title>
<path fill="none" stroke="midnightblue" d="M85.41,-49.21C98.54,-39.41 115.5,-26.75 126.38,-18.63"/>
<polygon fill="midnightblue" stroke="midnightblue" points="82.97,-46.66 77.05,-55.45 87.16,-52.27 82.97,-46.66"/>
</g>
<!-- Node3 -->
<g id="node3" class="node">
<title>Node3</title>
<g id="a_node3"><a xlink:href="class_ogre_1_1_hlms.html" target="_top" xlink:title="HLMS stands for &quot;High Level Material System&quot;.">
<polygon fill="none" stroke="black" points="32.99,-110.5 32.99,-128.5 99.55,-128.5 99.55,-110.5 32.99,-110.5"/>
<text text-anchor="middle" x="66.27" y="-116.5" font-family="Helvetica,sans-Serif" font-size="10.00">Ogre::Hlms</text>
</a>
</g>
</g>
<!-- Node3&#45;&gt;Node2 -->
<g id="edge2" class="edge">
<title>Node3&#45;&gt;Node2</title>
<path fill="none" stroke="midnightblue" d="M66.27,-100.17C66.27,-91.09 66.27,-80.59 66.27,-73.55"/>
<polygon fill="midnightblue" stroke="midnightblue" points="62.77,-100.22 66.27,-110.22 69.77,-100.22 62.77,-100.22"/>
</g>
<!-- Node4 -->
<g id="node4" class="node">
<title>Node4</title>
<g id="a_node4"><a xlink:href="class_ogre_1_1_allocated_object.html" target="_top" xlink:title="Superclass for all objects that wish to use custom memory allocators when their new / delete operator...">
<polygon fill="none" stroke="black" points="36.04,-165.5 36.04,-183.5 96.49,-183.5 96.49,-165.5 36.04,-165.5"/>
<text text-anchor="middle" x="66.27" y="-171.5" font-family="Helvetica,sans-Serif" font-size="10.00">HlmsAlloc</text>
</a>
</g>
</g>
<!-- Node4&#45;&gt;Node3 -->
<g id="edge3" class="edge">
<title>Node4&#45;&gt;Node3</title>
<path fill="none" stroke="midnightblue" d="M66.27,-155.17C66.27,-146.09 66.27,-135.59 66.27,-128.55"/>
<polygon fill="midnightblue" stroke="midnightblue" points="62.77,-155.22 66.27,-165.22 69.77,-155.22 62.77,-155.22"/>
</g>
<!-- Node5 -->
<g id="node5" class="node">
<title>Node5</title>
<g id="a_node5"><a xlink:href="class_ogre_1_1_const_buffer_pool.html" target="_top" xlink:title="Maintains a pool of buffers grouped by hash ID.">
<polygon fill="none" stroke="black" points="150.05,-55.5 150.05,-73.5 266.48,-73.5 266.48,-55.5 150.05,-55.5"/>
<text text-anchor="middle" x="208.27" y="-61.5" font-family="Helvetica,sans-Serif" font-size="10.00">Ogre::ConstBufferPool</text>
</a>
</g>
</g>
<!-- Node5&#45;&gt;Node1 -->
<g id="edge4" class="edge">
<title>Node5&#45;&gt;Node1</title>
<path fill="none" stroke="midnightblue" d="M189.12,-49.21C175.99,-39.41 159.03,-26.75 148.15,-18.63"/>
<polygon fill="midnightblue" stroke="midnightblue" points="187.38,-52.27 197.48,-55.45 191.56,-46.66 187.38,-52.27"/>
</g>
</g>
</svg>
