<?xml version="1.0" encoding="UTF-8" standalone="no"?>
<!DOCTYPE svg PUBLIC "-//W3C//DTD SVG 1.1//EN"
 "http://www.w3.org/Graphics/SVG/1.1/DTD/svg11.dtd">
<!-- Generated by graphviz version 2.43.0 (0)
 -->
<!-- Title: Ogre::RTShader::ShaderGenerator Pages: 1 -->
<svg width="322pt" height="82pt"
 viewBox="0.00 0.00 322.20 82.00" xmlns="http://www.w3.org/2000/svg" xmlns:xlink="http://www.w3.org/1999/xlink">
<g id="graph0" class="graph" transform="scale(1 1) rotate(0) translate(4 78)">
<title>Ogre::RTShader::ShaderGenerator</title>
<!-- Node1 -->
<g id="node1" class="node">
<title>Node1</title>
<g id="a_node1"><a xlink:title="Shader generator system main interface.">
<polygon fill="#bfbfbf" stroke="black" points="86.99,-0.5 86.99,-18.5 259,-18.5 259,-0.5 86.99,-0.5"/>
<text text-anchor="middle" x="173" y="-6.5" font-family="Helvetica,sans-Serif" font-size="10.00">Ogre::RTShader::ShaderGenerator</text>
</a>
</g>
</g>
<!-- Node2 -->
<g id="node2" class="node">
<title>Node2</title>
<g id="a_node2"><a xlink:href="class_ogre_1_1_singleton.html" target="_top" xlink:title=" ">
<polygon fill="none" stroke="black" points="0,-55.5 0,-73.5 179.99,-73.5 179.99,-55.5 0,-55.5"/>
<text text-anchor="middle" x="90" y="-61.5" font-family="Helvetica,sans-Serif" font-size="10.00">Ogre::Singleton&lt; ShaderGenerator &gt;</text>
</a>
</g>
</g>
<!-- Node2&#45;&gt;Node1 -->
<g id="edge1" class="edge">
<title>Node2&#45;&gt;Node1</title>
<path fill="none" stroke="midnightblue" d="M111.06,-50.05C126.58,-40.14 147.19,-26.98 160.27,-18.63"/>
<polygon fill="midnightblue" stroke="midnightblue" points="109.15,-47.12 102.6,-55.45 112.91,-53.02 109.15,-47.12"/>
</g>
<!-- Node3 -->
<g id="node3" class="node">
<title>Node3</title>
<g id="a_node3"><a xlink:href="class_ogre_1_1_allocated_object.html" target="_top" xlink:title="Superclass for all objects that wish to use custom memory allocators when their new / delete operator...">
<polygon fill="none" stroke="black" points="197.79,-55.5 197.79,-73.5 314.2,-73.5 314.2,-55.5 197.79,-55.5"/>
<text text-anchor="middle" x="256" y="-61.5" font-family="Helvetica,sans-Serif" font-size="10.00">RTShaderSystemAlloc</text>
</a>
</g>
</g>
<!-- Node3&#45;&gt;Node1 -->
<g id="edge2" class="edge">
<title>Node3&#45;&gt;Node1</title>
<path fill="none" stroke="midnightblue" d="M234.93,-50.05C219.41,-40.14 198.81,-26.98 185.72,-18.63"/>
<polygon fill="midnightblue" stroke="midnightblue" points="233.08,-53.02 243.39,-55.45 236.85,-47.12 233.08,-53.02"/>
</g>
</g>
</svg>
