<?xml version="1.0" encoding="UTF-8" standalone="no"?>
<!DOCTYPE svg PUBLIC "-//W3C//DTD SVG 1.1//EN"
 "http://www.w3.org/Graphics/SVG/1.1/DTD/svg11.dtd">
<!-- Generated by graphviz version 2.43.0 (0)
 -->
<!-- Title: Ogre::D3D9VertexDeclaration Pages: 1 -->
<svg width="234pt" height="82pt"
 viewBox="0.00 0.00 233.54 82.00" xmlns="http://www.w3.org/2000/svg" xmlns:xlink="http://www.w3.org/1999/xlink">
<g id="graph0" class="graph" transform="scale(1 1) rotate(0) translate(4 78)">
<title>Ogre::D3D9VertexDeclaration</title>
<!-- Node1 -->
<g id="node1" class="node">
<title>Node1</title>
<g id="a_node1"><a xlink:title="Specialisation of VertexDeclaration for D3D9.">
<polygon fill="#bfbfbf" stroke="black" points="34.32,-0.5 34.32,-18.5 182.61,-18.5 182.61,-0.5 34.32,-0.5"/>
<text text-anchor="middle" x="108.47" y="-6.5" font-family="Helvetica,sans-Serif" font-size="10.00">Ogre::D3D9VertexDeclaration</text>
</a>
</g>
</g>
<!-- Node2 -->
<g id="node2" class="node">
<title>Node2</title>
<g id="a_node2"><a xlink:title=" ">
<polygon fill="none" stroke="#bfbfbf" points="0,-55.5 0,-73.5 94.94,-73.5 94.94,-55.5 0,-55.5"/>
<text text-anchor="middle" x="47.47" y="-61.5" font-family="Helvetica,sans-Serif" font-size="10.00">VertexDeclaration</text>
</a>
</g>
</g>
<!-- Node2&#45;&gt;Node1 -->
<g id="edge1" class="edge">
<title>Node2&#45;&gt;Node1</title>
<path fill="none" stroke="midnightblue" d="M64.57,-48.64C75.76,-38.92 89.95,-26.59 99.12,-18.63"/>
<polygon fill="midnightblue" stroke="midnightblue" points="61.99,-46.25 56.73,-55.45 66.58,-51.53 61.99,-46.25"/>
</g>
<!-- Node3 -->
<g id="node3" class="node">
<title>Node3</title>
<g id="a_node3"><a xlink:href="class_ogre_1_1_d3_d9_resource.html" target="_top" xlink:title="Represents a Direct3D rendering resource.">
<polygon fill="none" stroke="black" points="113.39,-55.5 113.39,-73.5 225.54,-73.5 225.54,-55.5 113.39,-55.5"/>
<text text-anchor="middle" x="169.47" y="-61.5" font-family="Helvetica,sans-Serif" font-size="10.00">Ogre::D3D9Resource</text>
</a>
</g>
</g>
<!-- Node3&#45;&gt;Node1 -->
<g id="edge2" class="edge">
<title>Node3&#45;&gt;Node1</title>
<path fill="none" stroke="midnightblue" d="M152.37,-48.64C141.18,-38.92 126.99,-26.59 117.82,-18.63"/>
<polygon fill="midnightblue" stroke="midnightblue" points="150.36,-51.53 160.2,-55.45 154.95,-46.25 150.36,-51.53"/>
</g>
</g>
</svg>
