<?xml version="1.0" encoding="UTF-8" standalone="no"?>
<!DOCTYPE svg PUBLIC "-//W3C//DTD SVG 1.1//EN"
 "http://www.w3.org/Graphics/SVG/1.1/DTD/svg11.dtd">
<!-- Generated by graphviz version 2.43.0 (0)
 -->
<!-- Title: Ogre::HardwareOcclusionQuery Pages: 1 -->
<svg width="495pt" height="131pt"
 viewBox="0.00 0.00 494.82 131.00" xmlns="http://www.w3.org/2000/svg" xmlns:xlink="http://www.w3.org/1999/xlink">
<g id="graph0" class="graph" transform="scale(1 1) rotate(0) translate(4 127)">
<title>Ogre::HardwareOcclusionQuery</title>
<!-- Node1 -->
<g id="node1" class="node">
<title>Node1</title>
<g id="a_node1"><a xlink:title="This is a abstract class that that provides the interface for the query class for hardware occlusion.">
<polygon fill="#bfbfbf" stroke="black" points="123.14,-52.5 123.14,-70.5 281.42,-70.5 281.42,-52.5 123.14,-52.5"/>
<text text-anchor="middle" x="202.28" y="-58.5" font-family="Helvetica,sans-Serif" font-size="10.00">Ogre::HardwareOcclusionQuery</text>
</a>
</g>
</g>
<!-- Node3 -->
<g id="node3" class="node">
<title>Node3</title>
<g id="a_node3"><a xlink:href="class_ogre_1_1_d3_d11_hardware_occlusion_query.html" target="_top" xlink:title="This is a class that is the DirectX9 implementation of hardware occlusion testing.">
<polygon fill="none" stroke="black" points="321.4,-94.5 321.4,-122.5 482.83,-122.5 482.83,-94.5 321.4,-94.5"/>
<text text-anchor="start" x="329.4" y="-110.5" font-family="Helvetica,sans-Serif" font-size="10.00">Ogre::D3D11HardwareOcclusion</text>
<text text-anchor="middle" x="402.12" y="-100.5" font-family="Helvetica,sans-Serif" font-size="10.00">Query</text>
</a>
</g>
</g>
<!-- Node1&#45;&gt;Node3 -->
<g id="edge2" class="edge">
<title>Node1&#45;&gt;Node3</title>
<path fill="none" stroke="midnightblue" d="M251.15,-72.87C278.51,-79.37 313.03,-87.57 342.06,-94.47"/>
<polygon fill="midnightblue" stroke="midnightblue" points="251.96,-69.47 241.43,-70.56 250.35,-76.28 251.96,-69.47"/>
</g>
<!-- Node4 -->
<g id="node4" class="node">
<title>Node4</title>
<g id="a_node4"><a xlink:href="class_ogre_1_1_d3_d9_hardware_occlusion_query.html" target="_top" xlink:title="This is a class that is the DirectX9 implementation of hardware occlusion testing.">
<polygon fill="none" stroke="black" points="323.81,-47.5 323.81,-75.5 480.42,-75.5 480.42,-47.5 323.81,-47.5"/>
<text text-anchor="start" x="331.81" y="-63.5" font-family="Helvetica,sans-Serif" font-size="10.00">Ogre::D3D9HardwareOcclusion</text>
<text text-anchor="middle" x="402.12" y="-53.5" font-family="Helvetica,sans-Serif" font-size="10.00">Query</text>
</a>
</g>
</g>
<!-- Node1&#45;&gt;Node4 -->
<g id="edge3" class="edge">
<title>Node1&#45;&gt;Node4</title>
<path fill="none" stroke="midnightblue" d="M291.6,-61.5C302.23,-61.5 313.03,-61.5 323.49,-61.5"/>
<polygon fill="midnightblue" stroke="midnightblue" points="291.47,-58 281.47,-61.5 291.47,-65 291.47,-58"/>
</g>
<!-- Node5 -->
<g id="node5" class="node">
<title>Node5</title>
<g id="a_node5"><a xlink:href="class_ogre_1_1_g_l3_plus_hardware_occlusion_query.html" target="_top" xlink:title="This is a class that is the base class of the query class for hardware occlusion.">
<polygon fill="none" stroke="black" points="317.42,-0.5 317.42,-28.5 486.82,-28.5 486.82,-0.5 317.42,-0.5"/>
<text text-anchor="start" x="325.42" y="-16.5" font-family="Helvetica,sans-Serif" font-size="10.00">Ogre::GL3PlusHardwareOcclusion</text>
<text text-anchor="middle" x="402.12" y="-6.5" font-family="Helvetica,sans-Serif" font-size="10.00">Query</text>
</a>
</g>
</g>
<!-- Node1&#45;&gt;Node5 -->
<g id="edge4" class="edge">
<title>Node1&#45;&gt;Node5</title>
<path fill="none" stroke="midnightblue" d="M251.15,-50.13C278.51,-43.63 313.03,-35.43 342.06,-28.53"/>
<polygon fill="midnightblue" stroke="midnightblue" points="250.35,-46.72 241.43,-52.44 251.96,-53.53 250.35,-46.72"/>
</g>
<!-- Node2 -->
<g id="node2" class="node">
<title>Node2</title>
<g id="a_node2"><a xlink:href="class_ogre_1_1_allocated_object.html" target="_top" xlink:title="Superclass for all objects that wish to use custom memory allocators when their new / delete operator...">
<polygon fill="none" stroke="black" points="0,-52.5 0,-70.5 87.14,-70.5 87.14,-52.5 0,-52.5"/>
<text text-anchor="middle" x="43.57" y="-58.5" font-family="Helvetica,sans-Serif" font-size="10.00">RenderSysAlloc</text>
</a>
</g>
</g>
<!-- Node2&#45;&gt;Node1 -->
<g id="edge1" class="edge">
<title>Node2&#45;&gt;Node1</title>
<path fill="none" stroke="midnightblue" d="M97.52,-61.5C105.72,-61.5 114.34,-61.5 122.95,-61.5"/>
<polygon fill="midnightblue" stroke="midnightblue" points="97.39,-58 87.39,-61.5 97.39,-65 97.39,-58"/>
</g>
</g>
</svg>
