<?xml version="1.0" encoding="UTF-8" standalone="no"?>
<!DOCTYPE svg PUBLIC "-//W3C//DTD SVG 1.1//EN"
 "http://www.w3.org/Graphics/SVG/1.1/DTD/svg11.dtd">
<!-- Generated by graphviz version 2.43.0 (0)
 -->
<!-- Title: Ogre::IntersectionSceneQuery Pages: 1 -->
<svg width="808pt" height="131pt"
 viewBox="0.00 0.00 807.84 131.00" xmlns="http://www.w3.org/2000/svg" xmlns:xlink="http://www.w3.org/1999/xlink">
<g id="graph0" class="graph" transform="scale(1 1) rotate(0) translate(4 127)">
<title>Ogre::IntersectionSceneQuery</title>
<!-- Node1 -->
<g id="node1" class="node">
<title>Node1</title>
<g id="a_node1"><a xlink:title="Separate SceneQuery class to query for pairs of objects which are possibly intersecting one another.">
<polygon fill="#bfbfbf" stroke="black" points="305.77,-52.5 305.77,-70.5 456.84,-70.5 456.84,-52.5 305.77,-52.5"/>
<text text-anchor="middle" x="381.3" y="-58.5" font-family="Helvetica,sans-Serif" font-size="10.00">Ogre::IntersectionSceneQuery</text>
</a>
</g>
</g>
<!-- Node5 -->
<g id="node5" class="node">
<title>Node5</title>
<g id="a_node5"><a xlink:href="class_ogre_1_1_default_intersection_scene_query.html" target="_top" xlink:title="Default implementation of IntersectionSceneQuery.">
<polygon fill="none" stroke="black" points="492.84,-47.5 492.84,-75.5 620,-75.5 620,-47.5 492.84,-47.5"/>
<text text-anchor="start" x="500.84" y="-63.5" font-family="Helvetica,sans-Serif" font-size="10.00">Ogre::DefaultIntersection</text>
<text text-anchor="middle" x="556.42" y="-53.5" font-family="Helvetica,sans-Serif" font-size="10.00">SceneQuery</text>
</a>
</g>
</g>
<!-- Node1&#45;&gt;Node5 -->
<g id="edge4" class="edge">
<title>Node1&#45;&gt;Node5</title>
<path fill="none" stroke="midnightblue" d="M467.06,-61.5C475.69,-61.5 484.33,-61.5 492.66,-61.5"/>
<polygon fill="midnightblue" stroke="midnightblue" points="466.98,-58 456.98,-61.5 466.98,-65 466.98,-58"/>
</g>
<!-- Node2 -->
<g id="node2" class="node">
<title>Node2</title>
<g id="a_node2"><a xlink:href="class_ogre_1_1_scene_query.html" target="_top" xlink:title="A class for performing queries on a scene.">
<polygon fill="none" stroke="black" points="144.55,-73.5 144.55,-91.5 243.92,-91.5 243.92,-73.5 144.55,-73.5"/>
<text text-anchor="middle" x="194.23" y="-79.5" font-family="Helvetica,sans-Serif" font-size="10.00">Ogre::SceneQuery</text>
</a>
</g>
</g>
<!-- Node2&#45;&gt;Node1 -->
<g id="edge1" class="edge">
<title>Node2&#45;&gt;Node1</title>
<path fill="none" stroke="midnightblue" d="M254.72,-75.75C270.88,-73.92 288.6,-71.91 305.49,-69.99"/>
<polygon fill="midnightblue" stroke="midnightblue" points="253.88,-72.32 244.34,-76.93 254.67,-79.28 253.88,-72.32"/>
</g>
<!-- Node3 -->
<g id="node3" class="node">
<title>Node3</title>
<g id="a_node3"><a xlink:href="class_ogre_1_1_allocated_object.html" target="_top" xlink:title="Superclass for all objects that wish to use custom memory allocators when their new / delete operator...">
<polygon fill="none" stroke="black" points="0,-73.5 0,-91.5 82.7,-91.5 82.7,-73.5 0,-73.5"/>
<text text-anchor="middle" x="41.35" y="-79.5" font-family="Helvetica,sans-Serif" font-size="10.00">SceneMgtAlloc</text>
</a>
</g>
</g>
<!-- Node3&#45;&gt;Node2 -->
<g id="edge2" class="edge">
<title>Node3&#45;&gt;Node2</title>
<path fill="none" stroke="midnightblue" d="M92.85,-82.5C109.45,-82.5 127.87,-82.5 144.35,-82.5"/>
<polygon fill="midnightblue" stroke="midnightblue" points="92.78,-79 82.78,-82.5 92.78,-86 92.78,-79"/>
</g>
<!-- Node4 -->
<g id="node4" class="node">
<title>Node4</title>
<g id="a_node4"><a xlink:href="class_ogre_1_1_intersection_scene_query_listener.html" target="_top" xlink:title="Alternative listener class for dealing with IntersectionSceneQuery.">
<polygon fill="none" stroke="black" points="118.7,-26.5 118.7,-54.5 269.77,-54.5 269.77,-26.5 118.7,-26.5"/>
<text text-anchor="start" x="126.7" y="-42.5" font-family="Helvetica,sans-Serif" font-size="10.00">Ogre::IntersectionSceneQuery</text>
<text text-anchor="middle" x="194.23" y="-32.5" font-family="Helvetica,sans-Serif" font-size="10.00">Listener</text>
</a>
</g>
</g>
<!-- Node4&#45;&gt;Node1 -->
<g id="edge3" class="edge">
<title>Node4&#45;&gt;Node1</title>
<path fill="none" stroke="midnightblue" d="M279.95,-50.11C288.51,-51.08 297.15,-52.06 305.58,-53.02"/>
<polygon fill="midnightblue" stroke="midnightblue" points="280.31,-46.63 269.97,-48.98 279.52,-53.59 280.31,-46.63"/>
</g>
<!-- Node6 -->
<g id="node6" class="node">
<title>Node6</title>
<g id="a_node6"><a xlink:href="class_ogre_1_1_bsp_intersection_scene_query.html" target="_top" xlink:title="BSP specialisation of IntersectionSceneQuery.">
<polygon fill="none" stroke="black" points="657.39,-94.5 657.39,-122.5 798.46,-122.5 798.46,-94.5 657.39,-94.5"/>
<text text-anchor="start" x="665.39" y="-110.5" font-family="Helvetica,sans-Serif" font-size="10.00">Ogre::BspIntersectionScene</text>
<text text-anchor="middle" x="727.92" y="-100.5" font-family="Helvetica,sans-Serif" font-size="10.00">Query</text>
</a>
</g>
</g>
<!-- Node5&#45;&gt;Node6 -->
<g id="edge5" class="edge">
<title>Node5&#45;&gt;Node6</title>
<path fill="none" stroke="midnightblue" d="M618.08,-78.32C637.19,-83.62 658.07,-89.41 676.39,-94.49"/>
<polygon fill="midnightblue" stroke="midnightblue" points="618.85,-74.9 608.28,-75.6 616.98,-81.65 618.85,-74.9"/>
</g>
<!-- Node7 -->
<g id="node7" class="node">
<title>Node7</title>
<g id="a_node7"><a xlink:href="class_ogre_1_1_octree_intersection_scene_query.html" target="_top" xlink:title="Octree implementation of IntersectionSceneQuery.">
<polygon fill="none" stroke="black" points="665.18,-47.5 665.18,-75.5 790.67,-75.5 790.67,-47.5 665.18,-47.5"/>
<text text-anchor="start" x="673.18" y="-63.5" font-family="Helvetica,sans-Serif" font-size="10.00">Ogre::OctreeIntersection</text>
<text text-anchor="middle" x="727.92" y="-53.5" font-family="Helvetica,sans-Serif" font-size="10.00">SceneQuery</text>
</a>
</g>
</g>
<!-- Node5&#45;&gt;Node7 -->
<g id="edge6" class="edge">
<title>Node5&#45;&gt;Node7</title>
<path fill="none" stroke="midnightblue" d="M630.18,-61.5C641.81,-61.5 653.76,-61.5 665.11,-61.5"/>
<polygon fill="midnightblue" stroke="midnightblue" points="630.05,-58 620.05,-61.5 630.05,-65 630.05,-58"/>
</g>
<!-- Node8 -->
<g id="node8" class="node">
<title>Node8</title>
<g id="a_node8"><a xlink:href="class_ogre_1_1_p_c_z_intersection_scene_query.html" target="_top" xlink:title="PCZ implementation of IntersectionSceneQuery.">
<polygon fill="none" stroke="black" points="656,-0.5 656,-28.5 799.84,-28.5 799.84,-0.5 656,-0.5"/>
<text text-anchor="start" x="664" y="-16.5" font-family="Helvetica,sans-Serif" font-size="10.00">Ogre::PCZIntersectionScene</text>
<text text-anchor="middle" x="727.92" y="-6.5" font-family="Helvetica,sans-Serif" font-size="10.00">Query</text>
</a>
</g>
</g>
<!-- Node5&#45;&gt;Node8 -->
<g id="edge7" class="edge">
<title>Node5&#45;&gt;Node8</title>
<path fill="none" stroke="midnightblue" d="M618.08,-44.68C637.19,-39.38 658.07,-33.59 676.39,-28.51"/>
<polygon fill="midnightblue" stroke="midnightblue" points="616.98,-41.35 608.28,-47.4 618.85,-48.1 616.98,-41.35"/>
</g>
</g>
</svg>
