<?xml version="1.0" encoding="UTF-8" standalone="no"?>
<!DOCTYPE svg PUBLIC "-//W3C//DTD SVG 1.1//EN"
 "http://www.w3.org/Graphics/SVG/1.1/DTD/svg11.dtd">
<!-- Generated by graphviz version 2.43.0 (0)
 -->
<!-- Title: Ogre::CompositorPassMipmap Pages: 1 -->
<svg width="161pt" height="137pt"
 viewBox="0.00 0.00 160.71 137.00" xmlns="http://www.w3.org/2000/svg" xmlns:xlink="http://www.w3.org/1999/xlink">
<g id="graph0" class="graph" transform="scale(1 1) rotate(0) translate(4 133)">
<title>Ogre::CompositorPassMipmap</title>
<!-- Node1 -->
<g id="node1" class="node">
<title>Node1</title>
<g id="a_node1"><a xlink:title="Implementation of CompositorPass This implementation will generate mipmaps for the specified texture.">
<polygon fill="#bfbfbf" stroke="black" points="0,-0.5 0,-18.5 152.71,-18.5 152.71,-0.5 0,-0.5"/>
<text text-anchor="middle" x="76.36" y="-6.5" font-family="Helvetica,sans-Serif" font-size="10.00">Ogre::CompositorPassMipmap</text>
</a>
</g>
</g>
<!-- Node2 -->
<g id="node2" class="node">
<title>Node2</title>
<g id="a_node2"><a xlink:href="class_ogre_1_1_compositor_pass.html" target="_top" xlink:title="Abstract class for compositor passes.">
<polygon fill="none" stroke="black" points="17.78,-55.5 17.78,-73.5 134.93,-73.5 134.93,-55.5 17.78,-55.5"/>
<text text-anchor="middle" x="76.36" y="-61.5" font-family="Helvetica,sans-Serif" font-size="10.00">Ogre::CompositorPass</text>
</a>
</g>
</g>
<!-- Node2&#45;&gt;Node1 -->
<g id="edge1" class="edge">
<title>Node2&#45;&gt;Node1</title>
<path fill="none" stroke="midnightblue" d="M76.36,-45.17C76.36,-36.09 76.36,-25.59 76.36,-18.55"/>
<polygon fill="midnightblue" stroke="midnightblue" points="72.86,-45.22 76.36,-55.22 79.86,-45.22 72.86,-45.22"/>
</g>
<!-- Node3 -->
<g id="node3" class="node">
<title>Node3</title>
<g id="a_node3"><a xlink:href="class_ogre_1_1_allocated_object.html" target="_top" xlink:title="Superclass for all objects that wish to use custom memory allocators when their new / delete operator...">
<polygon fill="none" stroke="black" points="23.9,-110.5 23.9,-128.5 128.82,-128.5 128.82,-110.5 23.9,-110.5"/>
<text text-anchor="middle" x="76.36" y="-116.5" font-family="Helvetica,sans-Serif" font-size="10.00">CompositorInstAlloc</text>
</a>
</g>
</g>
<!-- Node3&#45;&gt;Node2 -->
<g id="edge2" class="edge">
<title>Node3&#45;&gt;Node2</title>
<path fill="none" stroke="midnightblue" d="M76.36,-100.17C76.36,-91.09 76.36,-80.59 76.36,-73.55"/>
<polygon fill="midnightblue" stroke="midnightblue" points="72.86,-100.22 76.36,-110.22 79.86,-100.22 72.86,-100.22"/>
</g>
</g>
</svg>
