<?xml version="1.0" encoding="UTF-8" standalone="no"?>
<!DOCTYPE svg PUBLIC "-//W3C//DTD SVG 1.1//EN"
 "http://www.w3.org/Graphics/SVG/1.1/DTD/svg11.dtd">
<!-- Generated by graphviz version 2.43.0 (0)
 -->
<!-- Title: Ogre::Plane Pages: 1 -->
<svg width="216pt" height="82pt"
 viewBox="0.00 0.00 216.21 82.00" xmlns="http://www.w3.org/2000/svg" xmlns:xlink="http://www.w3.org/1999/xlink">
<g id="graph0" class="graph" transform="scale(1 1) rotate(0) translate(4 78)">
<title>Ogre::Plane</title>
<!-- Node1 -->
<g id="node1" class="node">
<title>Node1</title>
<g id="a_node1"><a xlink:title="Defines a plane in 3D space.">
<polygon fill="#bfbfbf" stroke="black" points="74.9,-55.5 74.9,-73.5 144.26,-73.5 144.26,-55.5 74.9,-55.5"/>
<text text-anchor="middle" x="109.58" y="-61.5" font-family="Helvetica,sans-Serif" font-size="10.00">Ogre::Plane</text>
</a>
</g>
</g>
<!-- Node2 -->
<g id="node2" class="node">
<title>Node2</title>
<g id="a_node2"><a xlink:href="class_ogre_1_1_movable_plane.html" target="_top" xlink:title="Definition of a Plane that may be attached to a node, and the derived details of it retrieved simply.">
<polygon fill="none" stroke="black" points="0,-0.5 0,-18.5 107.16,-18.5 107.16,-0.5 0,-0.5"/>
<text text-anchor="middle" x="53.58" y="-6.5" font-family="Helvetica,sans-Serif" font-size="10.00">Ogre::MovablePlane</text>
</a>
</g>
</g>
<!-- Node1&#45;&gt;Node2 -->
<g id="edge1" class="edge">
<title>Node1&#45;&gt;Node2</title>
<path fill="none" stroke="midnightblue" d="M93.32,-48.11C83.11,-38.44 70.35,-26.37 62.09,-18.55"/>
<polygon fill="midnightblue" stroke="midnightblue" points="91.16,-50.89 100.83,-55.22 95.97,-45.8 91.16,-50.89"/>
</g>
<!-- Node3 -->
<g id="node3" class="node">
<title>Node3</title>
<g id="a_node3"><a xlink:href="class_ogre_1_1_p_c_plane.html" target="_top" xlink:title=" ">
<polygon fill="none" stroke="black" points="124.95,-0.5 124.95,-18.5 208.21,-18.5 208.21,-0.5 124.95,-0.5"/>
<text text-anchor="middle" x="166.58" y="-6.5" font-family="Helvetica,sans-Serif" font-size="10.00">Ogre::PCPlane</text>
</a>
</g>
</g>
<!-- Node1&#45;&gt;Node3 -->
<g id="edge2" class="edge">
<title>Node1&#45;&gt;Node3</title>
<path fill="none" stroke="midnightblue" d="M125.82,-48.4C136.27,-38.68 149.43,-26.45 157.92,-18.55"/>
<polygon fill="midnightblue" stroke="midnightblue" points="123.43,-45.85 118.49,-55.22 128.19,-50.97 123.43,-45.85"/>
</g>
</g>
</svg>
