<?xml version="1.0" encoding="UTF-8" standalone="no"?>
<!DOCTYPE svg PUBLIC "-//W3C//DTD SVG 1.1//EN"
 "http://www.w3.org/Graphics/SVG/1.1/DTD/svg11.dtd">
<!-- Generated by graphviz version 2.43.0 (0)
 -->
<!-- Title: Ogre::D3D11StereoDriverAMD Pages: 1 -->
<svg width="161pt" height="137pt"
 viewBox="0.00 0.00 160.53 137.00" xmlns="http://www.w3.org/2000/svg" xmlns:xlink="http://www.w3.org/1999/xlink">
<g id="graph0" class="graph" transform="scale(1 1) rotate(0) translate(4 133)">
<title>Ogre::D3D11StereoDriverAMD</title>
<!-- Node1 -->
<g id="node1" class="node">
<title>Node1</title>
<g id="a_node1"><a xlink:title="Virtual interface of the stereo driver.">
<polygon fill="#bfbfbf" stroke="black" points="0,-0.5 0,-18.5 152.53,-18.5 152.53,-0.5 0,-0.5"/>
<text text-anchor="middle" x="76.26" y="-6.5" font-family="Helvetica,sans-Serif" font-size="10.00">Ogre::D3D11StereoDriverAMD</text>
</a>
</g>
</g>
<!-- Node2 -->
<g id="node2" class="node">
<title>Node2</title>
<g id="a_node2"><a xlink:href="class_ogre_1_1_d3_d11_stereo_driver_impl.html" target="_top" xlink:title="Virtual interface of the stereo driver.">
<polygon fill="none" stroke="black" points="1.67,-55.5 1.67,-73.5 150.86,-73.5 150.86,-55.5 1.67,-55.5"/>
<text text-anchor="middle" x="76.26" y="-61.5" font-family="Helvetica,sans-Serif" font-size="10.00">Ogre::D3D11StereoDriverImpl</text>
</a>
</g>
</g>
<!-- Node2&#45;&gt;Node1 -->
<g id="edge1" class="edge">
<title>Node2&#45;&gt;Node1</title>
<path fill="none" stroke="midnightblue" d="M76.26,-45.17C76.26,-36.09 76.26,-25.59 76.26,-18.55"/>
<polygon fill="midnightblue" stroke="midnightblue" points="72.76,-45.22 76.26,-55.22 79.76,-45.22 72.76,-45.22"/>
</g>
<!-- Node3 -->
<g id="node3" class="node">
<title>Node3</title>
<g id="a_node3"><a xlink:href="class_ogre_1_1_allocated_object.html" target="_top" xlink:title="Superclass for all objects that wish to use custom memory allocators when their new / delete operator...">
<polygon fill="none" stroke="black" points="36.03,-110.5 36.03,-128.5 116.5,-128.5 116.5,-110.5 36.03,-110.5"/>
<text text-anchor="middle" x="76.26" y="-116.5" font-family="Helvetica,sans-Serif" font-size="10.00">ResourceAlloc</text>
</a>
</g>
</g>
<!-- Node3&#45;&gt;Node2 -->
<g id="edge2" class="edge">
<title>Node3&#45;&gt;Node2</title>
<path fill="none" stroke="midnightblue" d="M76.26,-100.17C76.26,-91.09 76.26,-80.59 76.26,-73.55"/>
<polygon fill="midnightblue" stroke="midnightblue" points="72.76,-100.22 76.26,-110.22 79.76,-100.22 72.76,-100.22"/>
</g>
</g>
</svg>
