<?xml version="1.0" encoding="UTF-8" standalone="no"?>
<!DOCTYPE svg PUBLIC "-//W3C//DTD SVG 1.1//EN"
 "http://www.w3.org/Graphics/SVG/1.1/DTD/svg11.dtd">
<!-- Generated by graphviz version 2.43.0 (0)
 -->
<!-- Title: Ogre::PCZSphereSceneQuery Pages: 1 -->
<svg width="260pt" height="257pt"
 viewBox="0.00 0.00 260.16 257.00" xmlns="http://www.w3.org/2000/svg" xmlns:xlink="http://www.w3.org/1999/xlink">
<g id="graph0" class="graph" transform="scale(1 1) rotate(0) translate(4 253)">
<title>Ogre::PCZSphereSceneQuery</title>
<!-- Node1 -->
<g id="node1" class="node">
<title>Node1</title>
<g id="a_node1"><a xlink:title="PCZ implementation of SphereSceneQuery.">
<polygon fill="#bfbfbf" stroke="black" points="40.88,-0.5 40.88,-18.5 192.5,-18.5 192.5,-0.5 40.88,-0.5"/>
<text text-anchor="middle" x="116.69" y="-6.5" font-family="Helvetica,sans-Serif" font-size="10.00">Ogre::PCZSphereSceneQuery</text>
</a>
</g>
</g>
<!-- Node2 -->
<g id="node2" class="node">
<title>Node2</title>
<g id="a_node2"><a xlink:href="class_ogre_1_1_default_sphere_scene_query.html" target="_top" xlink:title="Default implementation of SphereSceneQuery.">
<polygon fill="none" stroke="black" points="48.65,-55.5 48.65,-83.5 184.72,-83.5 184.72,-55.5 48.65,-55.5"/>
<text text-anchor="start" x="56.65" y="-71.5" font-family="Helvetica,sans-Serif" font-size="10.00">Ogre::DefaultSphereScene</text>
<text text-anchor="middle" x="116.69" y="-61.5" font-family="Helvetica,sans-Serif" font-size="10.00">Query</text>
</a>
</g>
</g>
<!-- Node2&#45;&gt;Node1 -->
<g id="edge1" class="edge">
<title>Node2&#45;&gt;Node1</title>
<path fill="none" stroke="midnightblue" d="M116.69,-45.32C116.69,-35.94 116.69,-25.7 116.69,-18.77"/>
<polygon fill="midnightblue" stroke="midnightblue" points="113.19,-45.34 116.69,-55.34 120.19,-45.34 113.19,-45.34"/>
</g>
<!-- Node3 -->
<g id="node3" class="node">
<title>Node3</title>
<g id="a_node3"><a xlink:href="class_ogre_1_1_sphere_scene_query.html" target="_top" xlink:title="Specialises the SceneQuery class for querying within a sphere.">
<polygon fill="none" stroke="black" points="50.88,-120.5 50.88,-138.5 182.5,-138.5 182.5,-120.5 50.88,-120.5"/>
<text text-anchor="middle" x="116.69" y="-126.5" font-family="Helvetica,sans-Serif" font-size="10.00">Ogre::SphereSceneQuery</text>
</a>
</g>
</g>
<!-- Node3&#45;&gt;Node2 -->
<g id="edge2" class="edge">
<title>Node3&#45;&gt;Node2</title>
<path fill="none" stroke="midnightblue" d="M116.69,-110.32C116.69,-101.75 116.69,-91.7 116.69,-83.84"/>
<polygon fill="midnightblue" stroke="midnightblue" points="113.19,-110.44 116.69,-120.44 120.19,-110.44 113.19,-110.44"/>
</g>
<!-- Node4 -->
<g id="node4" class="node">
<title>Node4</title>
<g id="a_node4"><a xlink:href="class_ogre_1_1_region_scene_query.html" target="_top" xlink:title="Abstract class defining a query which returns single results from a region.">
<polygon fill="none" stroke="black" points="51.16,-175.5 51.16,-193.5 182.22,-193.5 182.22,-175.5 51.16,-175.5"/>
<text text-anchor="middle" x="116.69" y="-181.5" font-family="Helvetica,sans-Serif" font-size="10.00">Ogre::RegionSceneQuery</text>
</a>
</g>
</g>
<!-- Node4&#45;&gt;Node3 -->
<g id="edge3" class="edge">
<title>Node4&#45;&gt;Node3</title>
<path fill="none" stroke="midnightblue" d="M116.69,-165.17C116.69,-156.09 116.69,-145.59 116.69,-138.55"/>
<polygon fill="midnightblue" stroke="midnightblue" points="113.19,-165.22 116.69,-175.22 120.19,-165.22 113.19,-165.22"/>
</g>
<!-- Node5 -->
<g id="node5" class="node">
<title>Node5</title>
<g id="a_node5"><a xlink:href="class_ogre_1_1_scene_query.html" target="_top" xlink:title="A class for performing queries on a scene.">
<polygon fill="none" stroke="red" points="0,-230.5 0,-248.5 99.37,-248.5 99.37,-230.5 0,-230.5"/>
<text text-anchor="middle" x="49.69" y="-236.5" font-family="Helvetica,sans-Serif" font-size="10.00">Ogre::SceneQuery</text>
</a>
</g>
</g>
<!-- Node5&#45;&gt;Node4 -->
<g id="edge4" class="edge">
<title>Node5&#45;&gt;Node4</title>
<path fill="none" stroke="midnightblue" d="M67.75,-224.21C80.15,-214.41 96.15,-201.75 106.42,-193.63"/>
<polygon fill="midnightblue" stroke="midnightblue" points="65.53,-221.5 59.86,-230.45 69.88,-226.99 65.53,-221.5"/>
</g>
<!-- Node7 -->
<g id="node6" class="node">
<title>Node7</title>
<g id="a_node6"><a xlink:href="class_ogre_1_1_scene_query_listener.html" target="_top" xlink:title="This optional class allows you to receive per&#45;result callbacks from SceneQuery executions instead of ...">
<polygon fill="none" stroke="black" points="117.21,-230.5 117.21,-248.5 252.16,-248.5 252.16,-230.5 117.21,-230.5"/>
<text text-anchor="middle" x="184.69" y="-236.5" font-family="Helvetica,sans-Serif" font-size="10.00">Ogre::SceneQueryListener</text>
</a>
</g>
</g>
<!-- Node7&#45;&gt;Node4 -->
<g id="edge5" class="edge">
<title>Node7&#45;&gt;Node4</title>
<path fill="none" stroke="midnightblue" d="M166.35,-224.21C153.77,-214.41 137.53,-201.75 127.11,-193.63"/>
<polygon fill="midnightblue" stroke="midnightblue" points="164.32,-227.06 174.36,-230.45 168.62,-221.54 164.32,-227.06"/>
</g>
</g>
</svg>
