<?xml version="1.0" encoding="UTF-8" standalone="no"?>
<!DOCTYPE svg PUBLIC "-//W3C//DTD SVG 1.1//EN"
 "http://www.w3.org/Graphics/SVG/1.1/DTD/svg11.dtd">
<!-- Generated by graphviz version 2.43.0 (0)
 -->
<!-- Title: Ogre::Quake3ShaderManager Pages: 1 -->
<svg width="386pt" height="92pt"
 viewBox="0.00 0.00 386.48 92.00" xmlns="http://www.w3.org/2000/svg" xmlns:xlink="http://www.w3.org/1999/xlink">
<g id="graph0" class="graph" transform="scale(1 1) rotate(0) translate(4 88)">
<title>Ogre::Quake3ShaderManager</title>
<!-- Node1 -->
<g id="node1" class="node">
<title>Node1</title>
<g id="a_node1"><a xlink:title="Class for managing Quake3 custom shaders.">
<polygon fill="#bfbfbf" stroke="black" points="123.98,-0.5 123.98,-18.5 274.51,-18.5 274.51,-0.5 123.98,-0.5"/>
<text text-anchor="middle" x="199.24" y="-6.5" font-family="Helvetica,sans-Serif" font-size="10.00">Ogre::Quake3ShaderManager</text>
</a>
</g>
</g>
<!-- Node2 -->
<g id="node2" class="node">
<title>Node2</title>
<g id="a_node2"><a xlink:href="class_ogre_1_1_script_loader.html" target="_top" xlink:title="Abstract class defining the interface used by classes which wish to perform script loading to define ...">
<polygon fill="none" stroke="black" points="0,-60.5 0,-78.5 100.49,-78.5 100.49,-60.5 0,-60.5"/>
<text text-anchor="middle" x="50.24" y="-66.5" font-family="Helvetica,sans-Serif" font-size="10.00">Ogre::ScriptLoader</text>
</a>
</g>
</g>
<!-- Node2&#45;&gt;Node1 -->
<g id="edge1" class="edge">
<title>Node2&#45;&gt;Node1</title>
<path fill="none" stroke="midnightblue" d="M80.61,-56.68C109.67,-45.37 152.76,-28.59 178.22,-18.68"/>
<polygon fill="midnightblue" stroke="midnightblue" points="79.01,-53.55 70.96,-60.44 81.55,-60.07 79.01,-53.55"/>
</g>
<!-- Node3 -->
<g id="node3" class="node">
<title>Node3</title>
<g id="a_node3"><a xlink:href="class_ogre_1_1_singleton.html" target="_top" xlink:title=" ">
<polygon fill="none" stroke="black" points="118.56,-55.5 118.56,-83.5 279.93,-83.5 279.93,-55.5 118.56,-55.5"/>
<text text-anchor="start" x="126.56" y="-71.5" font-family="Helvetica,sans-Serif" font-size="10.00">Ogre::Singleton&lt; Quake3Shader</text>
<text text-anchor="middle" x="199.24" y="-61.5" font-family="Helvetica,sans-Serif" font-size="10.00">Manager &gt;</text>
</a>
</g>
</g>
<!-- Node3&#45;&gt;Node1 -->
<g id="edge2" class="edge">
<title>Node3&#45;&gt;Node1</title>
<path fill="none" stroke="midnightblue" d="M199.24,-45.32C199.24,-35.94 199.24,-25.7 199.24,-18.77"/>
<polygon fill="midnightblue" stroke="midnightblue" points="195.74,-45.34 199.24,-55.34 202.74,-45.34 195.74,-45.34"/>
</g>
<!-- Node4 -->
<g id="node4" class="node">
<title>Node4</title>
<g id="a_node4"><a xlink:href="class_ogre_1_1_allocated_object.html" target="_top" xlink:title="Superclass for all objects that wish to use custom memory allocators when their new / delete operator...">
<polygon fill="none" stroke="black" points="298.01,-60.5 298.01,-78.5 378.48,-78.5 378.48,-60.5 298.01,-60.5"/>
<text text-anchor="middle" x="338.24" y="-66.5" font-family="Helvetica,sans-Serif" font-size="10.00">ResourceAlloc</text>
</a>
</g>
</g>
<!-- Node4&#45;&gt;Node1 -->
<g id="edge3" class="edge">
<title>Node4&#45;&gt;Node1</title>
<path fill="none" stroke="midnightblue" d="M309.56,-56.53C282.45,-45.22 242.51,-28.55 218.85,-18.68"/>
<polygon fill="midnightblue" stroke="midnightblue" points="308.34,-59.81 318.92,-60.44 311.04,-53.35 308.34,-59.81"/>
</g>
</g>
</svg>
