<?xml version="1.0" encoding="UTF-8" standalone="no"?>
<!DOCTYPE svg PUBLIC "-//W3C//DTD SVG 1.1//EN"
 "http://www.w3.org/Graphics/SVG/1.1/DTD/svg11.dtd">
<!-- Generated by graphviz version 2.43.0 (0)
 -->
<!-- Title: Ogre::GL3PlusHardwareOcclusionQuery Pages: 1 -->
<svg width="177pt" height="147pt"
 viewBox="0.00 0.00 177.40 147.00" xmlns="http://www.w3.org/2000/svg" xmlns:xlink="http://www.w3.org/1999/xlink">
<g id="graph0" class="graph" transform="scale(1 1) rotate(0) translate(4 143)">
<title>Ogre::GL3PlusHardwareOcclusionQuery</title>
<!-- Node1 -->
<g id="node1" class="node">
<title>Node1</title>
<g id="a_node1"><a xlink:title="This is a class that is the base class of the query class for hardware occlusion.">
<polygon fill="#bfbfbf" stroke="black" points="0,-0.5 0,-28.5 169.4,-28.5 169.4,-0.5 0,-0.5"/>
<text text-anchor="start" x="8" y="-16.5" font-family="Helvetica,sans-Serif" font-size="10.00">Ogre::GL3PlusHardwareOcclusion</text>
<text text-anchor="middle" x="84.7" y="-6.5" font-family="Helvetica,sans-Serif" font-size="10.00">Query</text>
</a>
</g>
</g>
<!-- Node2 -->
<g id="node2" class="node">
<title>Node2</title>
<g id="a_node2"><a xlink:href="class_ogre_1_1_hardware_occlusion_query.html" target="_top" xlink:title="This is a abstract class that that provides the interface for the query class for hardware occlusion.">
<polygon fill="none" stroke="black" points="5.56,-65.5 5.56,-83.5 163.84,-83.5 163.84,-65.5 5.56,-65.5"/>
<text text-anchor="middle" x="84.7" y="-71.5" font-family="Helvetica,sans-Serif" font-size="10.00">Ogre::HardwareOcclusionQuery</text>
</a>
</g>
</g>
<!-- Node2&#45;&gt;Node1 -->
<g id="edge1" class="edge">
<title>Node2&#45;&gt;Node1</title>
<path fill="none" stroke="midnightblue" d="M84.7,-55.32C84.7,-46.75 84.7,-36.7 84.7,-28.84"/>
<polygon fill="midnightblue" stroke="midnightblue" points="81.2,-55.44 84.7,-65.44 88.2,-55.44 81.2,-55.44"/>
</g>
<!-- Node3 -->
<g id="node3" class="node">
<title>Node3</title>
<g id="a_node3"><a xlink:href="class_ogre_1_1_allocated_object.html" target="_top" xlink:title="Superclass for all objects that wish to use custom memory allocators when their new / delete operator...">
<polygon fill="none" stroke="black" points="41.13,-120.5 41.13,-138.5 128.27,-138.5 128.27,-120.5 41.13,-120.5"/>
<text text-anchor="middle" x="84.7" y="-126.5" font-family="Helvetica,sans-Serif" font-size="10.00">RenderSysAlloc</text>
</a>
</g>
</g>
<!-- Node3&#45;&gt;Node2 -->
<g id="edge2" class="edge">
<title>Node3&#45;&gt;Node2</title>
<path fill="none" stroke="midnightblue" d="M84.7,-110.17C84.7,-101.09 84.7,-90.59 84.7,-83.55"/>
<polygon fill="midnightblue" stroke="midnightblue" points="81.2,-110.22 84.7,-120.22 88.2,-110.22 81.2,-110.22"/>
</g>
</g>
</svg>
