<?xml version="1.0" encoding="UTF-8" standalone="no"?>
<!DOCTYPE svg PUBLIC "-//W3C//DTD SVG 1.1//EN"
 "http://www.w3.org/Graphics/SVG/1.1/DTD/svg11.dtd">
<!-- Generated by graphviz version 2.43.0 (0)
 -->
<!-- Title: Ogre::SceneManagerFactory Pages: 1 -->
<svg width="473pt" height="158pt"
 viewBox="0.00 0.00 472.60 158.00" xmlns="http://www.w3.org/2000/svg" xmlns:xlink="http://www.w3.org/1999/xlink">
<g id="graph0" class="graph" transform="scale(1 1) rotate(0) translate(4 154)">
<title>Ogre::SceneManagerFactory</title>
<!-- Node1 -->
<g id="node1" class="node">
<title>Node1</title>
<g id="a_node1"><a xlink:title="Class which will create instances of a given SceneManager.">
<polygon fill="#bfbfbf" stroke="black" points="118.7,-65.5 118.7,-83.5 263.65,-83.5 263.65,-65.5 118.7,-65.5"/>
<text text-anchor="middle" x="191.17" y="-71.5" font-family="Helvetica,sans-Serif" font-size="10.00">Ogre::SceneManagerFactory</text>
</a>
</g>
</g>
<!-- Node3 -->
<g id="node3" class="node">
<title>Node3</title>
<g id="a_node3"><a xlink:href="class_ogre_1_1_bsp_scene_manager_factory.html" target="_top" xlink:title="Factory for BspSceneManager.">
<polygon fill="none" stroke="black" points="301.03,-131.5 301.03,-149.5 463.22,-149.5 463.22,-131.5 301.03,-131.5"/>
<text text-anchor="middle" x="382.12" y="-137.5" font-family="Helvetica,sans-Serif" font-size="10.00">Ogre::BspSceneManagerFactory</text>
</a>
</g>
</g>
<!-- Node1&#45;&gt;Node3 -->
<g id="edge2" class="edge">
<title>Node1&#45;&gt;Node3</title>
<path fill="none" stroke="midnightblue" d="M218.71,-88.17C240.11,-98.74 271.21,-113.12 299.65,-122.5 310.1,-125.95 321.53,-128.94 332.43,-131.43"/>
<polygon fill="midnightblue" stroke="midnightblue" points="220.12,-84.96 209.61,-83.61 216.99,-91.22 220.12,-84.96"/>
</g>
<!-- Node4 -->
<g id="node4" class="node">
<title>Node4</title>
<g id="a_node4"><a xlink:href="class_ogre_1_1_default_scene_manager_factory.html" target="_top" xlink:title="Factory for default scene manager.">
<polygon fill="none" stroke="black" points="310.48,-84.5 310.48,-112.5 453.77,-112.5 453.77,-84.5 310.48,-84.5"/>
<text text-anchor="start" x="318.48" y="-100.5" font-family="Helvetica,sans-Serif" font-size="10.00">Ogre::DefaultSceneManager</text>
<text text-anchor="middle" x="382.12" y="-90.5" font-family="Helvetica,sans-Serif" font-size="10.00">Factory</text>
</a>
</g>
</g>
<!-- Node1&#45;&gt;Node4 -->
<g id="edge3" class="edge">
<title>Node1&#45;&gt;Node4</title>
<path fill="none" stroke="midnightblue" d="M273.35,-84.81C285.7,-86.38 298.36,-87.99 310.46,-89.52"/>
<polygon fill="midnightblue" stroke="midnightblue" points="273.43,-81.29 263.07,-83.5 272.55,-88.24 273.43,-81.29"/>
</g>
<!-- Node5 -->
<g id="node5" class="node">
<title>Node5</title>
<g id="a_node5"><a xlink:href="class_ogre_1_1_octree_scene_manager_factory.html" target="_top" xlink:title="Factory for OctreeSceneManager.">
<polygon fill="none" stroke="black" points="311.31,-37.5 311.31,-65.5 452.93,-65.5 452.93,-37.5 311.31,-37.5"/>
<text text-anchor="start" x="319.31" y="-53.5" font-family="Helvetica,sans-Serif" font-size="10.00">Ogre::OctreeSceneManager</text>
<text text-anchor="middle" x="382.12" y="-43.5" font-family="Helvetica,sans-Serif" font-size="10.00">Factory</text>
</a>
</g>
</g>
<!-- Node1&#45;&gt;Node5 -->
<g id="edge4" class="edge">
<title>Node1&#45;&gt;Node5</title>
<path fill="none" stroke="midnightblue" d="M274.12,-64.52C286.42,-63.03 299.01,-61.5 311.03,-60.03"/>
<polygon fill="midnightblue" stroke="midnightblue" points="273.38,-61.09 263.88,-65.77 274.23,-68.04 273.38,-61.09"/>
</g>
<!-- Node6 -->
<g id="node6" class="node">
<title>Node6</title>
<g id="a_node6"><a xlink:href="class_ogre_1_1_p_c_z_scene_manager_factory.html" target="_top" xlink:title="Factory for PCZSceneManager.">
<polygon fill="none" stroke="black" points="299.65,-0.5 299.65,-18.5 464.6,-18.5 464.6,-0.5 299.65,-0.5"/>
<text text-anchor="middle" x="382.12" y="-6.5" font-family="Helvetica,sans-Serif" font-size="10.00">Ogre::PCZSceneManagerFactory</text>
</a>
</g>
</g>
<!-- Node1&#45;&gt;Node6 -->
<g id="edge5" class="edge">
<title>Node1&#45;&gt;Node6</title>
<path fill="none" stroke="midnightblue" d="M219.13,-60.96C240.53,-50.64 271.44,-36.69 299.65,-27.5 310.26,-24.05 321.85,-21.04 332.88,-18.53"/>
<polygon fill="midnightblue" stroke="midnightblue" points="217.46,-57.88 210.01,-65.41 220.53,-64.17 217.46,-57.88"/>
</g>
<!-- Node2 -->
<g id="node2" class="node">
<title>Node2</title>
<g id="a_node2"><a xlink:href="class_ogre_1_1_allocated_object.html" target="_top" xlink:title="Superclass for all objects that wish to use custom memory allocators when their new / delete operator...">
<polygon fill="none" stroke="black" points="0,-65.5 0,-83.5 82.7,-83.5 82.7,-65.5 0,-65.5"/>
<text text-anchor="middle" x="41.35" y="-71.5" font-family="Helvetica,sans-Serif" font-size="10.00">SceneMgtAlloc</text>
</a>
</g>
</g>
<!-- Node2&#45;&gt;Node1 -->
<g id="edge1" class="edge">
<title>Node2&#45;&gt;Node1</title>
<path fill="none" stroke="midnightblue" d="M92.94,-74.5C101.21,-74.5 109.91,-74.5 118.56,-74.5"/>
<polygon fill="midnightblue" stroke="midnightblue" points="92.74,-71 82.74,-74.5 92.74,-78 92.74,-71"/>
</g>
</g>
</svg>
