<?xml version="1.0" encoding="UTF-8" standalone="no"?>
<!DOCTYPE svg PUBLIC "-//W3C//DTD SVG 1.1//EN"
 "http://www.w3.org/Graphics/SVG/1.1/DTD/svg11.dtd">
<!-- Generated by graphviz version 2.43.0 (0)
 -->
<!-- Title: Ogre::RTShader::LinearSkinning Pages: 1 -->
<svg width="169pt" height="147pt"
 viewBox="0.00 0.00 168.90 147.00" xmlns="http://www.w3.org/2000/svg" xmlns:xlink="http://www.w3.org/1999/xlink">
<g id="graph0" class="graph" transform="scale(1 1) rotate(0) translate(4 143)">
<title>Ogre::RTShader::LinearSkinning</title>
<!-- Node1 -->
<g id="node1" class="node">
<title>Node1</title>
<g id="a_node1"><a xlink:title="Implement a sub render state which performs hardware skinning.">
<polygon fill="#bfbfbf" stroke="black" points="0,-0.5 0,-18.5 160.9,-18.5 160.9,-0.5 0,-0.5"/>
<text text-anchor="middle" x="80.45" y="-6.5" font-family="Helvetica,sans-Serif" font-size="10.00">Ogre::RTShader::LinearSkinning</text>
</a>
</g>
</g>
<!-- Node2 -->
<g id="node2" class="node">
<title>Node2</title>
<g id="a_node2"><a xlink:href="class_ogre_1_1_r_t_shader_1_1_hardware_skinning_technique.html" target="_top" xlink:title="Implement a sub render state which performs hardware skinning.">
<polygon fill="none" stroke="black" points="11.4,-55.5 11.4,-83.5 149.5,-83.5 149.5,-55.5 11.4,-55.5"/>
<text text-anchor="start" x="19.4" y="-71.5" font-family="Helvetica,sans-Serif" font-size="10.00">Ogre::RTShader::Hardware</text>
<text text-anchor="middle" x="80.45" y="-61.5" font-family="Helvetica,sans-Serif" font-size="10.00">SkinningTechnique</text>
</a>
</g>
</g>
<!-- Node2&#45;&gt;Node1 -->
<g id="edge1" class="edge">
<title>Node2&#45;&gt;Node1</title>
<path fill="none" stroke="midnightblue" d="M80.45,-45.32C80.45,-35.94 80.45,-25.7 80.45,-18.77"/>
<polygon fill="midnightblue" stroke="midnightblue" points="76.95,-45.34 80.45,-55.34 83.95,-45.34 76.95,-45.34"/>
</g>
<!-- Node3 -->
<g id="node3" class="node">
<title>Node3</title>
<g id="a_node3"><a xlink:href="class_ogre_1_1_allocated_object.html" target="_top" xlink:title="Superclass for all objects that wish to use custom memory allocators when their new / delete operator...">
<polygon fill="none" stroke="black" points="22.24,-120.5 22.24,-138.5 138.66,-138.5 138.66,-120.5 22.24,-120.5"/>
<text text-anchor="middle" x="80.45" y="-126.5" font-family="Helvetica,sans-Serif" font-size="10.00">RTShaderSystemAlloc</text>
</a>
</g>
</g>
<!-- Node3&#45;&gt;Node2 -->
<g id="edge2" class="edge">
<title>Node3&#45;&gt;Node2</title>
<path fill="none" stroke="midnightblue" d="M80.45,-110.32C80.45,-101.75 80.45,-91.7 80.45,-83.84"/>
<polygon fill="midnightblue" stroke="midnightblue" points="76.95,-110.44 80.45,-120.44 83.95,-110.44 76.95,-110.44"/>
</g>
</g>
</svg>
