<?xml version="1.0" encoding="UTF-8" standalone="no"?>
<!DOCTYPE svg PUBLIC "-//W3C//DTD SVG 1.1//EN"
 "http://www.w3.org/Graphics/SVG/1.1/DTD/svg11.dtd">
<!-- Generated by graphviz version 2.43.0 (0)
 -->
<!-- Title: Ogre::ForwardPlusBase Pages: 1 -->
<svg width="242pt" height="137pt"
 viewBox="0.00 0.00 242.25 137.00" xmlns="http://www.w3.org/2000/svg" xmlns:xlink="http://www.w3.org/1999/xlink">
<g id="graph0" class="graph" transform="scale(1 1) rotate(0) translate(4 133)">
<title>Ogre::ForwardPlusBase</title>
<!-- Node1 -->
<g id="node1" class="node">
<title>Node1</title>
<g id="a_node1"><a xlink:title="ForwardPlusBase.">
<polygon fill="#bfbfbf" stroke="black" points="48.27,-55.5 48.27,-73.5 170.98,-73.5 170.98,-55.5 48.27,-55.5"/>
<text text-anchor="middle" x="109.62" y="-61.5" font-family="Helvetica,sans-Serif" font-size="10.00">Ogre::ForwardPlusBase</text>
</a>
</g>
</g>
<!-- Node3 -->
<g id="node3" class="node">
<title>Node3</title>
<g id="a_node3"><a xlink:href="class_ogre_1_1_forward3_d.html" target="_top" xlink:title="Forward3D.">
<polygon fill="none" stroke="black" points="0,-0.5 0,-18.5 93.25,-18.5 93.25,-0.5 0,-0.5"/>
<text text-anchor="middle" x="46.62" y="-6.5" font-family="Helvetica,sans-Serif" font-size="10.00">Ogre::Forward3D</text>
</a>
</g>
</g>
<!-- Node1&#45;&gt;Node3 -->
<g id="edge2" class="edge">
<title>Node1&#45;&gt;Node3</title>
<path fill="none" stroke="midnightblue" d="M92.3,-48.93C80.69,-39.16 65.84,-26.67 56.28,-18.63"/>
<polygon fill="midnightblue" stroke="midnightblue" points="90.15,-51.69 100.05,-55.45 94.66,-46.33 90.15,-51.69"/>
</g>
<!-- Node4 -->
<g id="node4" class="node">
<title>Node4</title>
<g id="a_node4"><a xlink:href="class_ogre_1_1_forward_clustered.html" target="_top" xlink:title="Implementation of Clustered Forward Shading.">
<polygon fill="none" stroke="black" points="110.99,-0.5 110.99,-18.5 234.25,-18.5 234.25,-0.5 110.99,-0.5"/>
<text text-anchor="middle" x="172.62" y="-6.5" font-family="Helvetica,sans-Serif" font-size="10.00">Ogre::ForwardClustered</text>
</a>
</g>
</g>
<!-- Node1&#45;&gt;Node4 -->
<g id="edge3" class="edge">
<title>Node1&#45;&gt;Node4</title>
<path fill="none" stroke="midnightblue" d="M126.95,-48.93C138.55,-39.16 153.4,-26.67 162.96,-18.63"/>
<polygon fill="midnightblue" stroke="midnightblue" points="124.59,-46.33 119.19,-55.45 129.1,-51.69 124.59,-46.33"/>
</g>
<!-- Node2 -->
<g id="node2" class="node">
<title>Node2</title>
<g id="a_node2"><a xlink:href="class_ogre_1_1_allocated_object.html" target="_top" xlink:title="Superclass for all objects that wish to use custom memory allocators when their new / delete operator...">
<polygon fill="none" stroke="black" points="79.4,-110.5 79.4,-128.5 139.85,-128.5 139.85,-110.5 79.4,-110.5"/>
<text text-anchor="middle" x="109.62" y="-116.5" font-family="Helvetica,sans-Serif" font-size="10.00">HlmsAlloc</text>
</a>
</g>
</g>
<!-- Node2&#45;&gt;Node1 -->
<g id="edge1" class="edge">
<title>Node2&#45;&gt;Node1</title>
<path fill="none" stroke="midnightblue" d="M109.62,-100.17C109.62,-91.09 109.62,-80.59 109.62,-73.55"/>
<polygon fill="midnightblue" stroke="midnightblue" points="106.12,-100.22 109.62,-110.22 113.12,-100.22 106.12,-100.22"/>
</g>
</g>
</svg>
