<?xml version="1.0" encoding="UTF-8" standalone="no"?>
<!DOCTYPE svg PUBLIC "-//W3C//DTD SVG 1.1//EN"
 "http://www.w3.org/Graphics/SVG/1.1/DTD/svg11.dtd">
<!-- Generated by graphviz version 2.43.0 (0)
 -->
<!-- Title: Ogre::ParallaxCorrectedCubemapBase Pages: 1 -->
<svg width="380pt" height="147pt"
 viewBox="0.00 0.00 380.47 147.00" xmlns="http://www.w3.org/2000/svg" xmlns:xlink="http://www.w3.org/1999/xlink">
<g id="graph0" class="graph" transform="scale(1 1) rotate(0) translate(4 143)">
<title>Ogre::ParallaxCorrectedCubemapBase</title>
<!-- Node1 -->
<g id="node1" class="node">
<title>Node1</title>
<g id="a_node1"><a xlink:title=" ">
<polygon fill="#bfbfbf" stroke="black" points="85.6,-55.5 85.6,-73.5 275.58,-73.5 275.58,-55.5 85.6,-55.5"/>
<text text-anchor="middle" x="180.59" y="-61.5" font-family="Helvetica,sans-Serif" font-size="10.00">Ogre::ParallaxCorrectedCubemapBase</text>
</a>
</g>
</g>
<!-- Node4 -->
<g id="node4" class="node">
<title>Node4</title>
<g id="a_node4"><a xlink:href="class_ogre_1_1_parallax_corrected_cubemap.html" target="_top" xlink:title=" ">
<polygon fill="none" stroke="black" points="0,-0.5 0,-18.5 167.18,-18.5 167.18,-0.5 0,-0.5"/>
<text text-anchor="middle" x="83.59" y="-6.5" font-family="Helvetica,sans-Serif" font-size="10.00">Ogre::ParallaxCorrectedCubemap</text>
</a>
</g>
</g>
<!-- Node1&#45;&gt;Node4 -->
<g id="edge3" class="edge">
<title>Node1&#45;&gt;Node4</title>
<path fill="none" stroke="midnightblue" d="M156.99,-50.6C138.74,-40.63 114.04,-27.14 98.46,-18.63"/>
<polygon fill="midnightblue" stroke="midnightblue" points="155.4,-53.73 165.86,-55.45 158.76,-47.58 155.4,-53.73"/>
</g>
<!-- Node5 -->
<g id="node5" class="node">
<title>Node5</title>
<g id="a_node5"><a xlink:href="class_ogre_1_1_parallax_corrected_cubemap_auto.html" target="_top" xlink:title=" ">
<polygon fill="none" stroke="black" points="184.71,-0.5 184.71,-18.5 372.47,-18.5 372.47,-0.5 184.71,-0.5"/>
<text text-anchor="middle" x="278.59" y="-6.5" font-family="Helvetica,sans-Serif" font-size="10.00">Ogre::ParallaxCorrectedCubemapAuto</text>
</a>
</g>
</g>
<!-- Node1&#45;&gt;Node5 -->
<g id="edge4" class="edge">
<title>Node1&#45;&gt;Node5</title>
<path fill="none" stroke="midnightblue" d="M204.44,-50.6C222.87,-40.63 247.83,-27.14 263.57,-18.63"/>
<polygon fill="midnightblue" stroke="midnightblue" points="202.61,-47.61 195.47,-55.45 205.94,-53.77 202.61,-47.61"/>
</g>
<!-- Node2 -->
<g id="node2" class="node">
<title>Node2</title>
<g id="a_node2"><a xlink:href="class_ogre_1_1_id_object.html" target="_top" xlink:title=" ">
<polygon fill="none" stroke="black" points="75.08,-115.5 75.08,-133.5 156.11,-133.5 156.11,-115.5 75.08,-115.5"/>
<text text-anchor="middle" x="115.59" y="-121.5" font-family="Helvetica,sans-Serif" font-size="10.00">Ogre::IdObject</text>
</a>
</g>
</g>
<!-- Node2&#45;&gt;Node1 -->
<g id="edge1" class="edge">
<title>Node2&#45;&gt;Node1</title>
<path fill="none" stroke="midnightblue" d="M132.42,-108.48C144.77,-97.46 161.09,-82.9 171.21,-73.87"/>
<polygon fill="midnightblue" stroke="midnightblue" points="129.76,-106.17 124.63,-115.44 134.42,-111.39 129.76,-106.17"/>
</g>
<!-- Node3 -->
<g id="node3" class="node">
<title>Node3</title>
<g id="a_node3"><a xlink:href="class_ogre_1_1_compositor_workspace_listener.html" target="_top" xlink:title=" ">
<polygon fill="none" stroke="black" points="174.21,-110.5 174.21,-138.5 318.97,-138.5 318.97,-110.5 174.21,-110.5"/>
<text text-anchor="start" x="182.21" y="-126.5" font-family="Helvetica,sans-Serif" font-size="10.00">Ogre::CompositorWorkspace</text>
<text text-anchor="middle" x="246.59" y="-116.5" font-family="Helvetica,sans-Serif" font-size="10.00">Listener</text>
</a>
</g>
</g>
<!-- Node3&#45;&gt;Node1 -->
<g id="edge2" class="edge">
<title>Node3&#45;&gt;Node1</title>
<path fill="none" stroke="midnightblue" d="M223.96,-103.61C212.34,-93.4 198.82,-81.52 190,-73.77"/>
<polygon fill="midnightblue" stroke="midnightblue" points="221.79,-106.37 231.61,-110.34 226.41,-101.11 221.79,-106.37"/>
</g>
</g>
</svg>
