<?xml version="1.0" encoding="UTF-8" standalone="no"?>
<!DOCTYPE svg PUBLIC "-//W3C//DTD SVG 1.1//EN"
 "http://www.w3.org/Graphics/SVG/1.1/DTD/svg11.dtd">
<!-- Generated by graphviz version 2.43.0 (0)
 -->
<!-- Title: Ogre::NULLStagingTexture Pages: 1 -->
<svg width="164pt" height="192pt"
 viewBox="0.00 0.00 163.89 192.00" xmlns="http://www.w3.org/2000/svg" xmlns:xlink="http://www.w3.org/1999/xlink">
<g id="graph0" class="graph" transform="scale(1 1) rotate(0) translate(4 188)">
<title>Ogre::NULLStagingTexture</title>
<!-- Node1 -->
<g id="node1" class="node">
<title>Node1</title>
<g id="a_node1"><a xlink:title=" ">
<polygon fill="#bfbfbf" stroke="black" points="9.91,-0.5 9.91,-18.5 145.98,-18.5 145.98,-0.5 9.91,-0.5"/>
<text text-anchor="middle" x="77.95" y="-6.5" font-family="Helvetica,sans-Serif" font-size="10.00">Ogre::NULLStagingTexture</text>
</a>
</g>
</g>
<!-- Node2 -->
<g id="node2" class="node">
<title>Node2</title>
<g id="a_node2"><a xlink:href="class_ogre_1_1_staging_texture_buffer_impl.html" target="_top" xlink:title="This implementation can be used by all RenderSystem APIs except D3D11, which is why this implementati...">
<polygon fill="none" stroke="black" points="0,-55.5 0,-73.5 155.89,-73.5 155.89,-55.5 0,-55.5"/>
<text text-anchor="middle" x="77.95" y="-61.5" font-family="Helvetica,sans-Serif" font-size="10.00">Ogre::StagingTextureBufferImpl</text>
</a>
</g>
</g>
<!-- Node2&#45;&gt;Node1 -->
<g id="edge1" class="edge">
<title>Node2&#45;&gt;Node1</title>
<path fill="none" stroke="midnightblue" d="M77.95,-45.17C77.95,-36.09 77.95,-25.59 77.95,-18.55"/>
<polygon fill="midnightblue" stroke="midnightblue" points="74.45,-45.22 77.95,-55.22 81.45,-45.22 74.45,-45.22"/>
</g>
<!-- Node3 -->
<g id="node3" class="node">
<title>Node3</title>
<g id="a_node3"><a xlink:href="class_ogre_1_1_staging_texture.html" target="_top" xlink:title="A StagingTexture is an intermediate texture that can be read and be written from both CPU &amp; GPU.">
<polygon fill="none" stroke="black" points="22.7,-110.5 22.7,-128.5 133.19,-128.5 133.19,-110.5 22.7,-110.5"/>
<text text-anchor="middle" x="77.95" y="-116.5" font-family="Helvetica,sans-Serif" font-size="10.00">Ogre::StagingTexture</text>
</a>
</g>
</g>
<!-- Node3&#45;&gt;Node2 -->
<g id="edge2" class="edge">
<title>Node3&#45;&gt;Node2</title>
<path fill="none" stroke="midnightblue" d="M77.95,-100.17C77.95,-91.09 77.95,-80.59 77.95,-73.55"/>
<polygon fill="midnightblue" stroke="midnightblue" points="74.45,-100.22 77.95,-110.22 81.45,-100.22 74.45,-100.22"/>
</g>
<!-- Node4 -->
<g id="node4" class="node">
<title>Node4</title>
<g id="a_node4"><a xlink:href="class_ogre_1_1_allocated_object.html" target="_top" xlink:title="Superclass for all objects that wish to use custom memory allocators when their new / delete operator...">
<polygon fill="none" stroke="black" points="34.38,-165.5 34.38,-183.5 121.52,-183.5 121.52,-165.5 34.38,-165.5"/>
<text text-anchor="middle" x="77.95" y="-171.5" font-family="Helvetica,sans-Serif" font-size="10.00">RenderSysAlloc</text>
</a>
</g>
</g>
<!-- Node4&#45;&gt;Node3 -->
<g id="edge3" class="edge">
<title>Node4&#45;&gt;Node3</title>
<path fill="none" stroke="midnightblue" d="M77.95,-155.17C77.95,-146.09 77.95,-135.59 77.95,-128.55"/>
<polygon fill="midnightblue" stroke="midnightblue" points="74.45,-155.22 77.95,-165.22 81.45,-155.22 74.45,-155.22"/>
</g>
</g>
</svg>
