<?xml version="1.0" encoding="UTF-8" standalone="no"?>
<!DOCTYPE svg PUBLIC "-//W3C//DTD SVG 1.1//EN"
 "http://www.w3.org/Graphics/SVG/1.1/DTD/svg11.dtd">
<!-- Generated by graphviz version 2.43.0 (0)
 -->
<!-- Title: Ogre::v1::PanelOverlayElementFactory Pages: 1 -->
<svg width="165pt" height="157pt"
 viewBox="0.00 0.00 164.62 157.00" xmlns="http://www.w3.org/2000/svg" xmlns:xlink="http://www.w3.org/1999/xlink">
<g id="graph0" class="graph" transform="scale(1 1) rotate(0) translate(4 153)">
<title>Ogre::v1::PanelOverlayElementFactory</title>
<!-- Node1 -->
<g id="node1" class="node">
<title>Node1</title>
<g id="a_node1"><a xlink:title="Factory for creating PanelOverlayElement instances.">
<polygon fill="#bfbfbf" stroke="black" points="0,-0.5 0,-28.5 156.62,-28.5 156.62,-0.5 0,-0.5"/>
<text text-anchor="start" x="8" y="-16.5" font-family="Helvetica,sans-Serif" font-size="10.00">Ogre::v1::PanelOverlayElement</text>
<text text-anchor="middle" x="78.31" y="-6.5" font-family="Helvetica,sans-Serif" font-size="10.00">Factory</text>
</a>
</g>
</g>
<!-- Node2 -->
<g id="node2" class="node">
<title>Node2</title>
<g id="a_node2"><a xlink:href="class_ogre_1_1v1_1_1_overlay_element_factory.html" target="_top" xlink:title="Defines the interface which all components wishing to supply OverlayElement subclasses must implement...">
<polygon fill="none" stroke="black" points="12.79,-65.5 12.79,-93.5 143.83,-93.5 143.83,-65.5 12.79,-65.5"/>
<text text-anchor="start" x="20.79" y="-81.5" font-family="Helvetica,sans-Serif" font-size="10.00">Ogre::v1::OverlayElement</text>
<text text-anchor="middle" x="78.31" y="-71.5" font-family="Helvetica,sans-Serif" font-size="10.00">Factory</text>
</a>
</g>
</g>
<!-- Node2&#45;&gt;Node1 -->
<g id="edge1" class="edge">
<title>Node2&#45;&gt;Node1</title>
<path fill="none" stroke="midnightblue" d="M78.31,-55.16C78.31,-46.17 78.31,-36.22 78.31,-28.54"/>
<polygon fill="midnightblue" stroke="midnightblue" points="74.81,-55.45 78.31,-65.45 81.81,-55.45 74.81,-55.45"/>
</g>
<!-- Node3 -->
<g id="node3" class="node">
<title>Node3</title>
<g id="a_node3"><a xlink:href="class_ogre_1_1_allocated_object.html" target="_top" xlink:title="Superclass for all objects that wish to use custom memory allocators when their new / delete operator...">
<polygon fill="none" stroke="black" points="42.25,-130.5 42.25,-148.5 114.37,-148.5 114.37,-130.5 42.25,-130.5"/>
<text text-anchor="middle" x="78.31" y="-136.5" font-family="Helvetica,sans-Serif" font-size="10.00">OverlayAlloc</text>
</a>
</g>
</g>
<!-- Node3&#45;&gt;Node2 -->
<g id="edge2" class="edge">
<title>Node3&#45;&gt;Node2</title>
<path fill="none" stroke="midnightblue" d="M78.31,-120.32C78.31,-111.75 78.31,-101.7 78.31,-93.84"/>
<polygon fill="midnightblue" stroke="midnightblue" points="74.81,-120.44 78.31,-130.44 81.81,-120.44 74.81,-120.44"/>
</g>
</g>
</svg>
