<?xml version="1.0" encoding="UTF-8" standalone="no"?>
<!DOCTYPE svg PUBLIC "-//W3C//DTD SVG 1.1//EN"
 "http://www.w3.org/Graphics/SVG/1.1/DTD/svg11.dtd">
<!-- Generated by graphviz version 2.43.0 (0)
 -->
<!-- Title: Ogre::RTShader::FFPRenderStateBuilder Pages: 1 -->
<svg width="288pt" height="102pt"
 viewBox="0.00 0.00 288.10 102.00" xmlns="http://www.w3.org/2000/svg" xmlns:xlink="http://www.w3.org/1999/xlink">
<g id="graph0" class="graph" transform="scale(1 1) rotate(0) translate(4 98)">
<title>Ogre::RTShader::FFPRenderStateBuilder</title>
<!-- Node1 -->
<g id="node1" class="node">
<title>Node1</title>
<g id="a_node1"><a xlink:title="Fixed Function Pipeline render state builder.">
<polygon fill="#bfbfbf" stroke="black" points="73.68,-0.5 73.68,-28.5 220.11,-28.5 220.11,-0.5 73.68,-0.5"/>
<text text-anchor="start" x="81.68" y="-16.5" font-family="Helvetica,sans-Serif" font-size="10.00">Ogre::RTShader::FFPRender</text>
<text text-anchor="middle" x="146.9" y="-6.5" font-family="Helvetica,sans-Serif" font-size="10.00">StateBuilder</text>
</a>
</g>
</g>
<!-- Node2 -->
<g id="node2" class="node">
<title>Node2</title>
<g id="a_node2"><a xlink:href="class_ogre_1_1_singleton.html" target="_top" xlink:title=" ">
<polygon fill="none" stroke="black" points="0,-65.5 0,-93.5 145.79,-93.5 145.79,-65.5 0,-65.5"/>
<text text-anchor="start" x="8" y="-81.5" font-family="Helvetica,sans-Serif" font-size="10.00">Ogre::Singleton&lt; FFPRender</text>
<text text-anchor="middle" x="72.9" y="-71.5" font-family="Helvetica,sans-Serif" font-size="10.00">StateBuilder &gt;</text>
</a>
</g>
</g>
<!-- Node2&#45;&gt;Node1 -->
<g id="edge1" class="edge">
<title>Node2&#45;&gt;Node1</title>
<path fill="none" stroke="midnightblue" d="M95.86,-58.95C107.48,-49.06 121.27,-37.32 131.58,-28.54"/>
<polygon fill="midnightblue" stroke="midnightblue" points="93.57,-56.3 88.23,-65.45 98.11,-61.63 93.57,-56.3"/>
</g>
<!-- Node3 -->
<g id="node3" class="node">
<title>Node3</title>
<g id="a_node3"><a xlink:href="class_ogre_1_1_allocated_object.html" target="_top" xlink:title="Superclass for all objects that wish to use custom memory allocators when their new / delete operator...">
<polygon fill="none" stroke="black" points="163.69,-70.5 163.69,-88.5 280.1,-88.5 280.1,-70.5 163.69,-70.5"/>
<text text-anchor="middle" x="221.9" y="-76.5" font-family="Helvetica,sans-Serif" font-size="10.00">RTShaderSystemAlloc</text>
</a>
</g>
</g>
<!-- Node3&#45;&gt;Node1 -->
<g id="edge2" class="edge">
<title>Node3&#45;&gt;Node1</title>
<path fill="none" stroke="midnightblue" d="M204.1,-63.55C191.43,-52.91 174.57,-38.75 162.44,-28.56"/>
<polygon fill="midnightblue" stroke="midnightblue" points="202.18,-66.51 212.09,-70.26 206.68,-61.15 202.18,-66.51"/>
</g>
</g>
</svg>
