<?xml version="1.0" encoding="UTF-8" standalone="no"?>
<!DOCTYPE svg PUBLIC "-//W3C//DTD SVG 1.1//EN"
 "http://www.w3.org/Graphics/SVG/1.1/DTD/svg11.dtd">
<!-- Generated by graphviz version 2.43.0 (0)
 -->
<!-- Title: Ogre::TextureUnitTranslator Pages: 1 -->
<svg width="147pt" height="137pt"
 viewBox="0.00 0.00 147.01 137.00" xmlns="http://www.w3.org/2000/svg" xmlns:xlink="http://www.w3.org/1999/xlink">
<g id="graph0" class="graph" transform="scale(1 1) rotate(0) translate(4 133)">
<title>Ogre::TextureUnitTranslator</title>
<!-- Node1 -->
<g id="node1" class="node">
<title>Node1</title>
<g id="a_node1"><a xlink:title=" ">
<polygon fill="#bfbfbf" stroke="black" points="0,-0.5 0,-18.5 139.01,-18.5 139.01,-0.5 0,-0.5"/>
<text text-anchor="middle" x="69.51" y="-6.5" font-family="Helvetica,sans-Serif" font-size="10.00">Ogre::TextureUnitTranslator</text>
</a>
</g>
</g>
<!-- Node2 -->
<g id="node2" class="node">
<title>Node2</title>
<g id="a_node2"><a xlink:href="class_ogre_1_1_script_translator.html" target="_top" xlink:title="This class translates script AST (abstract syntax tree) into Ogre resources.">
<polygon fill="none" stroke="black" points="12.51,-55.5 12.51,-73.5 126.51,-73.5 126.51,-55.5 12.51,-55.5"/>
<text text-anchor="middle" x="69.51" y="-61.5" font-family="Helvetica,sans-Serif" font-size="10.00">Ogre::ScriptTranslator</text>
</a>
</g>
</g>
<!-- Node2&#45;&gt;Node1 -->
<g id="edge1" class="edge">
<title>Node2&#45;&gt;Node1</title>
<path fill="none" stroke="midnightblue" d="M69.51,-45.17C69.51,-36.09 69.51,-25.59 69.51,-18.55"/>
<polygon fill="midnightblue" stroke="midnightblue" points="66.01,-45.22 69.51,-55.22 73.01,-45.22 66.01,-45.22"/>
</g>
<!-- Node3 -->
<g id="node3" class="node">
<title>Node3</title>
<g id="a_node3"><a xlink:href="class_ogre_1_1_allocated_object.html" target="_top" xlink:title="Superclass for all objects that wish to use custom memory allocators when their new / delete operator...">
<polygon fill="none" stroke="black" points="15.56,-110.5 15.56,-128.5 123.45,-128.5 123.45,-110.5 15.56,-110.5"/>
<text text-anchor="middle" x="69.51" y="-116.5" font-family="Helvetica,sans-Serif" font-size="10.00">ScriptTranslatorAlloc</text>
</a>
</g>
</g>
<!-- Node3&#45;&gt;Node2 -->
<g id="edge2" class="edge">
<title>Node3&#45;&gt;Node2</title>
<path fill="none" stroke="midnightblue" d="M69.51,-100.17C69.51,-91.09 69.51,-80.59 69.51,-73.55"/>
<polygon fill="midnightblue" stroke="midnightblue" points="66.01,-100.22 69.51,-110.22 73.01,-100.22 66.01,-100.22"/>
</g>
</g>
</svg>
