<?xml version="1.0" encoding="UTF-8" standalone="no"?>
<!DOCTYPE svg PUBLIC "-//W3C//DTD SVG 1.1//EN"
 "http://www.w3.org/Graphics/SVG/1.1/DTD/svg11.dtd">
<!-- Generated by graphviz version 2.43.0 (0)
 -->
<!-- Title: Graphical Class Hierarchy Pages: 1 -->
<svg width="354pt" height="175pt"
 viewBox="0.00 0.00 353.93 175.00" xmlns="http://www.w3.org/2000/svg" xmlns:xlink="http://www.w3.org/1999/xlink">
<g id="graph0" class="graph" transform="scale(1 1) rotate(0) translate(4 171)">
<title>Graphical Class Hierarchy</title>
<!-- Node1466 -->
<g id="node1" class="node">
<title>Node1466</title>
<g id="a_node1"><a xlink:href="class_ogre_1_1_g_l3_plus_support.html" target="_top" xlink:title=" ">
<polygon fill="none" stroke="black" points="27.24,-74.5 27.24,-92.5 144.41,-92.5 144.41,-74.5 27.24,-74.5"/>
<text text-anchor="middle" x="85.82" y="-80.5" font-family="Helvetica,sans-Serif" font-size="10.00">Ogre::GL3PlusSupport</text>
</a>
</g>
</g>
<!-- Node1467 -->
<g id="node2" class="node">
<title>Node1467</title>
<g id="a_node2"><a xlink:href="class_ogre_1_1_g_l_x_g_l_support.html" target="_top" xlink:title=" ">
<polygon fill="none" stroke="black" points="220.71,-111.5 220.71,-129.5 332.87,-129.5 332.87,-111.5 220.71,-111.5"/>
<text text-anchor="middle" x="276.79" y="-117.5" font-family="Helvetica,sans-Serif" font-size="10.00">Ogre::GLXGLSupport</text>
</a>
</g>
</g>
<!-- Node1466&#45;&gt;Node1467 -->
<g id="edge1" class="edge">
<title>Node1466&#45;&gt;Node1467</title>
<path fill="none" stroke="midnightblue" d="M142.98,-94.5C170.63,-99.91 203.56,-106.36 229.71,-111.48"/>
<polygon fill="midnightblue" stroke="midnightblue" points="143.53,-91.04 133.05,-92.55 142.19,-97.91 143.53,-91.04"/>
</g>
<!-- Node1 -->
<g id="node3" class="node">
<title>Node1</title>
<g id="a_node3"><a xlink:href="class_ogre_1_1_g_t_k_g_l_support.html" target="_top" xlink:title="GL support in a GTK window.">
<polygon fill="none" stroke="black" points="220.43,-148.5 220.43,-166.5 333.14,-166.5 333.14,-148.5 220.43,-148.5"/>
<text text-anchor="middle" x="276.79" y="-154.5" font-family="Helvetica,sans-Serif" font-size="10.00">Ogre::GTKGLSupport</text>
</a>
</g>
</g>
<!-- Node1466&#45;&gt;Node1 -->
<g id="edge2" class="edge">
<title>Node1466&#45;&gt;Node1</title>
<path fill="none" stroke="midnightblue" d="M113.22,-97.38C137.32,-109.65 174.19,-127.44 207.64,-139.5 216.97,-142.86 227.21,-145.9 236.86,-148.48"/>
<polygon fill="midnightblue" stroke="midnightblue" points="114.52,-94.11 104.02,-92.65 111.32,-100.34 114.52,-94.11"/>
</g>
<!-- Node1468 -->
<g id="node4" class="node">
<title>Node1468</title>
<g id="a_node4"><a xlink:href="class_ogre_1_1_o_s_x_g_l3_plus_support.html" target="_top" xlink:title=" ">
<polygon fill="none" stroke="black" points="207.64,-74.5 207.64,-92.5 345.93,-92.5 345.93,-74.5 207.64,-74.5"/>
<text text-anchor="middle" x="276.79" y="-80.5" font-family="Helvetica,sans-Serif" font-size="10.00">Ogre::OSXGL3PlusSupport</text>
</a>
</g>
</g>
<!-- Node1466&#45;&gt;Node1468 -->
<g id="edge3" class="edge">
<title>Node1466&#45;&gt;Node1468</title>
<path fill="none" stroke="midnightblue" d="M154.99,-83.5C172.06,-83.5 190.38,-83.5 207.46,-83.5"/>
<polygon fill="midnightblue" stroke="midnightblue" points="154.54,-80 144.54,-83.5 154.54,-87 154.54,-80"/>
</g>
<!-- Node1469 -->
<g id="node5" class="node">
<title>Node1469</title>
<g id="a_node5"><a xlink:href="class_ogre_1_1_s_d_l_g_l_support.html" target="_top" xlink:title=" ">
<polygon fill="none" stroke="black" points="220.98,-37.5 220.98,-55.5 332.59,-55.5 332.59,-37.5 220.98,-37.5"/>
<text text-anchor="middle" x="276.79" y="-43.5" font-family="Helvetica,sans-Serif" font-size="10.00">Ogre::SDLGLSupport</text>
</a>
</g>
</g>
<!-- Node1466&#45;&gt;Node1469 -->
<g id="edge4" class="edge">
<title>Node1466&#45;&gt;Node1469</title>
<path fill="none" stroke="midnightblue" d="M142.98,-72.5C170.63,-67.09 203.56,-60.64 229.71,-55.52"/>
<polygon fill="midnightblue" stroke="midnightblue" points="142.19,-69.09 133.05,-74.45 143.53,-75.96 142.19,-69.09"/>
</g>
<!-- Node1470 -->
<g id="node6" class="node">
<title>Node1470</title>
<g id="a_node6"><a xlink:href="class_ogre_1_1_win32_g_l_support.html" target="_top" xlink:title=" ">
<polygon fill="none" stroke="black" points="216.54,-0.5 216.54,-18.5 337.04,-18.5 337.04,-0.5 216.54,-0.5"/>
<text text-anchor="middle" x="276.79" y="-6.5" font-family="Helvetica,sans-Serif" font-size="10.00">Ogre::Win32GLSupport</text>
</a>
</g>
</g>
<!-- Node1466&#45;&gt;Node1470 -->
<g id="edge5" class="edge">
<title>Node1466&#45;&gt;Node1470</title>
<path fill="none" stroke="midnightblue" d="M113.22,-69.62C137.32,-57.35 174.19,-39.56 207.64,-27.5 216.97,-24.14 227.21,-21.1 236.86,-18.52"/>
<polygon fill="midnightblue" stroke="midnightblue" points="111.32,-66.66 104.02,-74.35 114.52,-72.89 111.32,-66.66"/>
</g>
<!-- Node0 -->
<g id="node7" class="node">
<title>Node0</title>
<g id="a_node7"><a xlink:href="class_ogre_1_1_singleton.html" target="_top" xlink:title=" ">
<polygon fill="none" stroke="black" points="0,-148.5 0,-166.5 171.64,-166.5 171.64,-148.5 0,-148.5"/>
<text text-anchor="middle" x="85.82" y="-154.5" font-family="Helvetica,sans-Serif" font-size="10.00">Ogre::Singleton&lt; GTKGLSupport &gt;</text>
</a>
</g>
</g>
<!-- Node0&#45;&gt;Node1 -->
<g id="edge6" class="edge">
<title>Node0&#45;&gt;Node1</title>
<path fill="none" stroke="midnightblue" d="M181.97,-157.5C195.14,-157.5 208.29,-157.5 220.41,-157.5"/>
<polygon fill="midnightblue" stroke="midnightblue" points="181.91,-154 171.91,-157.5 181.91,-161 181.91,-154"/>
</g>
</g>
</svg>
