<?xml version="1.0" encoding="UTF-8" standalone="no"?>
<!DOCTYPE svg PUBLIC "-//W3C//DTD SVG 1.1//EN"
 "http://www.w3.org/Graphics/SVG/1.1/DTD/svg11.dtd">
<!-- Generated by graphviz version 2.43.0 (0)
 -->
<!-- Title: Graphical Class Hierarchy Pages: 1 -->
<svg width="363pt" height="121pt"
 viewBox="0.00 0.00 362.56 121.00" xmlns="http://www.w3.org/2000/svg" xmlns:xlink="http://www.w3.org/1999/xlink">
<g id="graph0" class="graph" transform="scale(1 1) rotate(0) translate(4 117)">
<title>Graphical Class Hierarchy</title>
<!-- Node1430 -->
<g id="node1" class="node">
<title>Node1430</title>
<g id="a_node1"><a xlink:href="class_ogre_1_1_g_l_s_l_program_manager.html" target="_top" xlink:title="Ogre assumes that there are separate programs to deal with but GLSL has one program object that repre...">
<polygon fill="none" stroke="black" points="9.05,-47.5 9.05,-65.5 156.22,-65.5 156.22,-47.5 9.05,-47.5"/>
<text text-anchor="middle" x="82.63" y="-53.5" font-family="Helvetica,sans-Serif" font-size="10.00">Ogre::GLSLProgramManager</text>
</a>
</g>
</g>
<!-- Node459 -->
<g id="node2" class="node">
<title>Node459</title>
<g id="a_node2"><a xlink:href="class_ogre_1_1_g_l_s_l_monolithic_program_manager.html" target="_top" xlink:title="Ogre assumes that there are separate vertex and fragment programs to deal with but GLSL has one progr...">
<polygon fill="none" stroke="black" points="201.55,-74.5 201.55,-102.5 354.28,-102.5 354.28,-74.5 201.55,-74.5"/>
<text text-anchor="start" x="209.55" y="-90.5" font-family="Helvetica,sans-Serif" font-size="10.00">Ogre::GLSLMonolithicProgram</text>
<text text-anchor="middle" x="277.92" y="-80.5" font-family="Helvetica,sans-Serif" font-size="10.00">Manager</text>
</a>
</g>
</g>
<!-- Node1430&#45;&gt;Node459 -->
<g id="edge1" class="edge">
<title>Node1430&#45;&gt;Node459</title>
<path fill="none" stroke="midnightblue" d="M148.13,-67.18C165.25,-70.01 183.88,-73.1 201.52,-76.02"/>
<polygon fill="midnightblue" stroke="midnightblue" points="148.68,-63.72 138.25,-65.54 147.54,-70.63 148.68,-63.72"/>
</g>
<!-- Node1 -->
<g id="node3" class="node">
<title>Node1</title>
<g id="a_node3"><a xlink:href="class_ogre_1_1_g_l_s_l_separable_program_manager.html" target="_top" xlink:title="Ogre assumes that there are separate vertex and fragment programs to deal with but GLSL has one progr...">
<polygon fill="none" stroke="black" points="201.27,-18.5 201.27,-46.5 354.56,-46.5 354.56,-18.5 201.27,-18.5"/>
<text text-anchor="start" x="209.27" y="-34.5" font-family="Helvetica,sans-Serif" font-size="10.00">Ogre::GLSLSeparableProgram</text>
<text text-anchor="middle" x="277.92" y="-24.5" font-family="Helvetica,sans-Serif" font-size="10.00">Manager</text>
</a>
</g>
</g>
<!-- Node1430&#45;&gt;Node1 -->
<g id="edge2" class="edge">
<title>Node1430&#45;&gt;Node1</title>
<path fill="none" stroke="midnightblue" d="M166.23,-46.24C177.8,-44.81 189.65,-43.34 201.08,-41.92"/>
<polygon fill="midnightblue" stroke="midnightblue" points="165.65,-42.79 156.15,-47.5 166.51,-49.74 165.65,-42.79"/>
</g>
<!-- Node458 -->
<g id="node4" class="node">
<title>Node458</title>
<g id="a_node4"><a xlink:href="class_ogre_1_1_singleton.html" target="_top" xlink:title=" ">
<polygon fill="none" stroke="black" points="0.29,-84.5 0.29,-112.5 164.98,-112.5 164.98,-84.5 0.29,-84.5"/>
<text text-anchor="start" x="8.29" y="-100.5" font-family="Helvetica,sans-Serif" font-size="10.00">Ogre::Singleton&lt; GLSLMonolithic</text>
<text text-anchor="middle" x="82.63" y="-90.5" font-family="Helvetica,sans-Serif" font-size="10.00">ProgramManager &gt;</text>
</a>
</g>
</g>
<!-- Node458&#45;&gt;Node459 -->
<g id="edge3" class="edge">
<title>Node458&#45;&gt;Node459</title>
<path fill="none" stroke="midnightblue" d="M175.29,-93.76C184.05,-93.3 192.87,-92.85 201.45,-92.4"/>
<polygon fill="midnightblue" stroke="midnightblue" points="174.85,-90.28 165.04,-94.29 175.21,-97.27 174.85,-90.28"/>
</g>
<!-- Node0 -->
<g id="node5" class="node">
<title>Node0</title>
<g id="a_node5"><a xlink:href="class_ogre_1_1_singleton.html" target="_top" xlink:title=" ">
<polygon fill="none" stroke="black" points="0,-0.5 0,-28.5 165.27,-28.5 165.27,-0.5 0,-0.5"/>
<text text-anchor="start" x="8" y="-16.5" font-family="Helvetica,sans-Serif" font-size="10.00">Ogre::Singleton&lt; GLSLSeparable</text>
<text text-anchor="middle" x="82.63" y="-6.5" font-family="Helvetica,sans-Serif" font-size="10.00">ProgramManager &gt;</text>
</a>
</g>
</g>
<!-- Node0&#45;&gt;Node1 -->
<g id="edge4" class="edge">
<title>Node0&#45;&gt;Node1</title>
<path fill="none" stroke="midnightblue" d="M175.38,-23.04C183.97,-23.84 192.62,-24.65 201.05,-25.44"/>
<polygon fill="midnightblue" stroke="midnightblue" points="175.6,-19.55 165.32,-22.11 174.95,-26.52 175.6,-19.55"/>
</g>
</g>
</svg>
