<?xml version="1.0" encoding="UTF-8" standalone="no"?>
<!DOCTYPE svg PUBLIC "-//W3C//DTD SVG 1.1//EN"
 "http://www.w3.org/Graphics/SVG/1.1/DTD/svg11.dtd">
<!-- Generated by graphviz version 2.43.0 (0)
 -->
<!-- Title: Graphical Class Hierarchy Pages: 1 -->
<svg width="180pt" height="64pt"
 viewBox="0.00 0.00 179.57 64.00" xmlns="http://www.w3.org/2000/svg" xmlns:xlink="http://www.w3.org/1999/xlink">
<g id="graph0" class="graph" transform="scale(1 1) rotate(0) translate(4 60)">
<title>Graphical Class Hierarchy</title>
<!-- Node2193 -->
<g id="node1" class="node">
<title>Node2193</title>
<g id="a_node1"><a xlink:title=" ">
<polygon fill="none" stroke="#bfbfbf" points="0,-37.5 0,-55.5 51.39,-55.5 51.39,-37.5 0,-37.5"/>
<text text-anchor="middle" x="25.7" y="-43.5" font-family="Helvetica,sans-Serif" font-size="10.00">NSView</text>
</a>
</g>
</g>
<!-- Node0 -->
<g id="node2" class="node">
<title>Node0</title>
<g id="a_node2"><a xlink:href="interface_ogre_metal_view.html" target="_top" xlink:title=" ">
<polygon fill="none" stroke="black" points="87.39,-37.5 87.39,-55.5 171.57,-55.5 171.57,-37.5 87.39,-37.5"/>
<text text-anchor="middle" x="129.48" y="-43.5" font-family="Helvetica,sans-Serif" font-size="10.00">OgreMetalView</text>
</a>
</g>
</g>
<!-- Node2193&#45;&gt;Node0 -->
<g id="edge1" class="edge">
<title>Node2193&#45;&gt;Node0</title>
<path fill="none" stroke="midnightblue" d="M61.62,-46.5C69.85,-46.5 78.7,-46.5 87.18,-46.5"/>
<polygon fill="midnightblue" stroke="midnightblue" points="61.6,-43 51.6,-46.5 61.6,-50 61.6,-43"/>
</g>
<!-- Node336 -->
<g id="node3" class="node">
<title>Node336</title>
<g id="a_node3"><a xlink:title=" ">
<polygon fill="none" stroke="#bfbfbf" points="1.95,-0.5 1.95,-18.5 49.44,-18.5 49.44,-0.5 1.95,-0.5"/>
<text text-anchor="middle" x="25.7" y="-6.5" font-family="Helvetica,sans-Serif" font-size="10.00">UIView</text>
</a>
</g>
</g>
<!-- Node336&#45;&gt;Node0 -->
<g id="edge2" class="edge">
<title>Node336&#45;&gt;Node0</title>
<path fill="none" stroke="midnightblue" d="M59.08,-21.27C73.48,-26.51 90.17,-32.57 103.58,-37.45"/>
<polygon fill="midnightblue" stroke="midnightblue" points="60.13,-17.93 49.54,-17.8 57.74,-24.51 60.13,-17.93"/>
</g>
<!-- Node338 -->
<g id="node4" class="node">
<title>Node338</title>
<g id="a_node4"><a xlink:href="interface_ogre_view.html" target="_top" xlink:title=" ">
<polygon fill="none" stroke="black" points="99.62,-0.5 99.62,-18.5 159.35,-18.5 159.35,-0.5 99.62,-0.5"/>
<text text-anchor="middle" x="129.48" y="-6.5" font-family="Helvetica,sans-Serif" font-size="10.00">OgreView</text>
</a>
</g>
</g>
<!-- Node336&#45;&gt;Node338 -->
<g id="edge3" class="edge">
<title>Node336&#45;&gt;Node338</title>
<path fill="none" stroke="midnightblue" d="M59.8,-9.5C72.61,-9.5 87.13,-9.5 99.51,-9.5"/>
<polygon fill="midnightblue" stroke="midnightblue" points="59.54,-6 49.54,-9.5 59.54,-13 59.54,-6"/>
</g>
</g>
</svg>
