<?xml version="1.0" encoding="UTF-8" standalone="no"?>
<!DOCTYPE svg PUBLIC "-//W3C//DTD SVG 1.1//EN"
 "http://www.w3.org/Graphics/SVG/1.1/DTD/svg11.dtd">
<!-- Generated by graphviz version 2.43.0 (0)
 -->
<!-- Title: Graphical Class Hierarchy Pages: 1 -->
<svg width="264pt" height="101pt"
 viewBox="0.00 0.00 263.84 101.00" xmlns="http://www.w3.org/2000/svg" xmlns:xlink="http://www.w3.org/1999/xlink">
<g id="graph0" class="graph" transform="scale(1 1) rotate(0) translate(4 97)">
<title>Graphical Class Hierarchy</title>
<!-- Node0 -->
<g id="node1" class="node">
<title>Node0</title>
<g id="a_node1"><a xlink:href="struct_ogre_1_1_basic_block.html" target="_top" xlink:title=" ">
<polygon fill="none" stroke="black" points="0,-37.5 0,-55.5 92.69,-55.5 92.69,-37.5 0,-37.5"/>
<text text-anchor="middle" x="46.35" y="-43.5" font-family="Helvetica,sans-Serif" font-size="10.00">Ogre::BasicBlock</text>
</a>
</g>
</g>
<!-- Node1 -->
<g id="node2" class="node">
<title>Node1</title>
<g id="a_node2"><a xlink:href="struct_ogre_1_1_hlms_blendblock.html" target="_top" xlink:title="A blend block contains settings that rarely change, and thus are common to many materials.">
<polygon fill="none" stroke="black" points="134.52,-74.5 134.52,-92.5 250.01,-92.5 250.01,-74.5 134.52,-74.5"/>
<text text-anchor="middle" x="192.27" y="-80.5" font-family="Helvetica,sans-Serif" font-size="10.00">Ogre::HlmsBlendblock</text>
</a>
</g>
</g>
<!-- Node0&#45;&gt;Node1 -->
<g id="edge1" class="edge">
<title>Node0&#45;&gt;Node1</title>
<path fill="none" stroke="midnightblue" d="M92.31,-58.06C112.81,-63.33 136.74,-69.48 155.92,-74.41"/>
<polygon fill="midnightblue" stroke="midnightblue" points="93.11,-54.65 82.55,-55.55 91.37,-61.43 93.11,-54.65"/>
</g>
<!-- Node2 -->
<g id="node3" class="node">
<title>Node2</title>
<g id="a_node3"><a xlink:href="struct_ogre_1_1_hlms_macroblock.html" target="_top" xlink:title="A macro block contains settings that will rarely change, and thus are common to many materials.">
<polygon fill="none" stroke="black" points="133.42,-37.5 133.42,-55.5 251.11,-55.5 251.11,-37.5 133.42,-37.5"/>
<text text-anchor="middle" x="192.27" y="-43.5" font-family="Helvetica,sans-Serif" font-size="10.00">Ogre::HlmsMacroblock</text>
</a>
</g>
</g>
<!-- Node0&#45;&gt;Node2 -->
<g id="edge2" class="edge">
<title>Node0&#45;&gt;Node2</title>
<path fill="none" stroke="midnightblue" d="M103.05,-46.5C112.98,-46.5 123.35,-46.5 133.35,-46.5"/>
<polygon fill="midnightblue" stroke="midnightblue" points="102.88,-43 92.88,-46.5 102.88,-50 102.88,-43"/>
</g>
<!-- Node3 -->
<g id="node4" class="node">
<title>Node3</title>
<g id="a_node4"><a xlink:href="struct_ogre_1_1_hlms_samplerblock.html" target="_top" xlink:title="A sampler block contains settings that go hand in hand with a texture, and thus are common to many te...">
<polygon fill="none" stroke="black" points="128.69,-0.5 128.69,-18.5 255.84,-18.5 255.84,-0.5 128.69,-0.5"/>
<text text-anchor="middle" x="192.27" y="-6.5" font-family="Helvetica,sans-Serif" font-size="10.00">Ogre::HlmsSamplerblock</text>
</a>
</g>
</g>
<!-- Node0&#45;&gt;Node3 -->
<g id="edge3" class="edge">
<title>Node0&#45;&gt;Node3</title>
<path fill="none" stroke="midnightblue" d="M92.31,-34.94C112.81,-29.67 136.74,-23.52 155.92,-18.59"/>
<polygon fill="midnightblue" stroke="midnightblue" points="91.37,-31.57 82.55,-37.45 93.11,-38.35 91.37,-31.57"/>
</g>
</g>
</svg>
