<?xml version="1.0" encoding="UTF-8" standalone="no"?>
<!DOCTYPE svg PUBLIC "-//W3C//DTD SVG 1.1//EN"
 "http://www.w3.org/Graphics/SVG/1.1/DTD/svg11.dtd">
<!-- Generated by graphviz version 2.43.0 (0)
 -->
<!-- Title: Graphical Class Hierarchy Pages: 1 -->
<svg width="489pt" height="47pt"
 viewBox="0.00 0.00 488.57 47.00" xmlns="http://www.w3.org/2000/svg" xmlns:xlink="http://www.w3.org/1999/xlink">
<g id="graph0" class="graph" transform="scale(1 1) rotate(0) translate(4 43)">
<title>Graphical Class Hierarchy</title>
<!-- Node0 -->
<g id="node1" class="node">
<title>Node0</title>
<g id="a_node1"><a xlink:href="class_ogre_1_1_iterator_wrapper.html" target="_top" xlink:title=" ">
<polygon fill="none" stroke="black" points="0,-0.5 0,-38.5 113.64,-38.5 113.64,-0.5 0,-0.5"/>
<text text-anchor="start" x="8" y="-26.5" font-family="Helvetica,sans-Serif" font-size="10.00">Ogre::IteratorWrapper</text>
<text text-anchor="start" x="8" y="-16.5" font-family="Helvetica,sans-Serif" font-size="10.00">&lt; T, T::const_iterator,</text>
<text text-anchor="middle" x="56.82" y="-6.5" font-family="Helvetica,sans-Serif" font-size="10.00"> T::value_type &gt;</text>
</a>
</g>
</g>
<!-- Node1 -->
<g id="node2" class="node">
<title>Node1</title>
<g id="a_node2"><a xlink:href="class_ogre_1_1_vector_iterator_wrapper.html" target="_top" xlink:title=" ">
<polygon fill="none" stroke="black" points="149.64,-5.5 149.64,-33.5 291.63,-33.5 291.63,-5.5 149.64,-5.5"/>
<text text-anchor="start" x="157.64" y="-21.5" font-family="Helvetica,sans-Serif" font-size="10.00">Ogre::VectorIteratorWrapper</text>
<text text-anchor="middle" x="220.63" y="-11.5" font-family="Helvetica,sans-Serif" font-size="10.00">&lt; T, T::const_iterator &gt;</text>
</a>
</g>
</g>
<!-- Node0&#45;&gt;Node1 -->
<g id="edge1" class="edge">
<title>Node0&#45;&gt;Node1</title>
<path fill="none" stroke="midnightblue" d="M124.09,-19.5C132.51,-19.5 141.15,-19.5 149.62,-19.5"/>
<polygon fill="midnightblue" stroke="midnightblue" points="123.96,-16 113.96,-19.5 123.96,-23 123.96,-16"/>
</g>
<!-- Node2 -->
<g id="node3" class="node">
<title>Node2</title>
<g id="a_node3"><a xlink:href="class_ogre_1_1_const_vector_iterator.html" target="_top" xlink:title="Concrete IteratorWrapper for const access to the underlying container.">
<polygon fill="none" stroke="black" points="327.63,-10.5 327.63,-28.5 480.57,-28.5 480.57,-10.5 327.63,-10.5"/>
<text text-anchor="middle" x="404.1" y="-16.5" font-family="Helvetica,sans-Serif" font-size="10.00">Ogre::ConstVectorIterator&lt; T &gt;</text>
</a>
</g>
</g>
<!-- Node1&#45;&gt;Node2 -->
<g id="edge2" class="edge">
<title>Node1&#45;&gt;Node2</title>
<path fill="none" stroke="midnightblue" d="M302.01,-19.5C310.45,-19.5 319.02,-19.5 327.41,-19.5"/>
<polygon fill="midnightblue" stroke="midnightblue" points="301.79,-16 291.79,-19.5 301.79,-23 301.79,-16"/>
</g>
</g>
</svg>
