<?xml version="1.0" encoding="UTF-8" standalone="no"?>
<!DOCTYPE svg PUBLIC "-//W3C//DTD SVG 1.1//EN"
 "http://www.w3.org/Graphics/SVG/1.1/DTD/svg11.dtd">
<!-- Generated by graphviz version 2.43.0 (0)
 -->
<!-- Title: Graphical Class Hierarchy Pages: 1 -->
<svg width="307pt" height="148pt"
 viewBox="0.00 0.00 306.88 148.00" xmlns="http://www.w3.org/2000/svg" xmlns:xlink="http://www.w3.org/1999/xlink">
<g id="graph0" class="graph" transform="scale(1 1) rotate(0) translate(4 144)">
<title>Graphical Class Hierarchy</title>
<!-- Node0 -->
<g id="node1" class="node">
<title>Node0</title>
<g id="a_node1"><a xlink:href="struct_ogre_1_1_shared_ptr_info.html" target="_top" xlink:title=" ">
<polygon fill="none" stroke="black" points="0,-58.5 0,-76.5 105.49,-76.5 105.49,-58.5 0,-58.5"/>
<text text-anchor="middle" x="52.75" y="-64.5" font-family="Helvetica,sans-Serif" font-size="10.00">Ogre::SharedPtrInfo</text>
</a>
</g>
</g>
<!-- Node1 -->
<g id="node2" class="node">
<title>Node1</title>
<g id="a_node2"><a xlink:href="class_ogre_1_1_shared_ptr_info_delete.html" target="_top" xlink:title=" ">
<polygon fill="none" stroke="black" points="141.49,-121.5 141.49,-139.5 298.88,-139.5 298.88,-121.5 141.49,-121.5"/>
<text text-anchor="middle" x="220.19" y="-127.5" font-family="Helvetica,sans-Serif" font-size="10.00">Ogre::SharedPtrInfoDelete&lt; T &gt;</text>
</a>
</g>
</g>
<!-- Node0&#45;&gt;Node1 -->
<g id="edge1" class="edge">
<title>Node0&#45;&gt;Node1</title>
<path fill="none" stroke="midnightblue" d="M77.58,-81.76C94.83,-91.57 118.97,-104.26 141.49,-112.5 151.11,-116.02 161.67,-119.01 171.81,-121.48"/>
<polygon fill="midnightblue" stroke="midnightblue" points="79.17,-78.63 68.76,-76.65 75.66,-84.69 79.17,-78.63"/>
</g>
<!-- Node2 -->
<g id="node3" class="node">
<title>Node2</title>
<g id="a_node3"><a xlink:href="class_ogre_1_1_shared_ptr_info_delete_t.html" target="_top" xlink:title=" ">
<polygon fill="none" stroke="black" points="152.99,-74.5 152.99,-102.5 287.39,-102.5 287.39,-74.5 152.99,-74.5"/>
<text text-anchor="start" x="160.99" y="-90.5" font-family="Helvetica,sans-Serif" font-size="10.00">Ogre::SharedPtrInfoDelete</text>
<text text-anchor="middle" x="220.19" y="-80.5" font-family="Helvetica,sans-Serif" font-size="10.00">T&lt; T &gt;</text>
</a>
</g>
</g>
<!-- Node0&#45;&gt;Node2 -->
<g id="edge2" class="edge">
<title>Node0&#45;&gt;Node2</title>
<path fill="none" stroke="midnightblue" d="M115.67,-75.36C127.81,-76.9 140.6,-78.52 152.88,-80.08"/>
<polygon fill="midnightblue" stroke="midnightblue" points="116,-71.87 105.64,-74.09 115.12,-78.82 116,-71.87"/>
</g>
<!-- Node3 -->
<g id="node4" class="node">
<title>Node3</title>
<g id="a_node4"><a xlink:href="class_ogre_1_1_shared_ptr_info_free.html" target="_top" xlink:title=" ">
<polygon fill="none" stroke="black" points="145.66,-37.5 145.66,-55.5 294.71,-55.5 294.71,-37.5 145.66,-37.5"/>
<text text-anchor="middle" x="220.19" y="-43.5" font-family="Helvetica,sans-Serif" font-size="10.00">Ogre::SharedPtrInfoFree&lt; T &gt;</text>
</a>
</g>
</g>
<!-- Node0&#45;&gt;Node3 -->
<g id="edge3" class="edge">
<title>Node0&#45;&gt;Node3</title>
<path fill="none" stroke="midnightblue" d="M115.61,-59.65C126.2,-58.3 137.27,-56.9 148.08,-55.53"/>
<polygon fill="midnightblue" stroke="midnightblue" points="115.12,-56.18 105.64,-60.91 116,-63.13 115.12,-56.18"/>
</g>
<!-- Node4 -->
<g id="node5" class="node">
<title>Node4</title>
<g id="a_node5"><a xlink:href="struct_ogre_1_1_shared_ptr_info_none.html" target="_top" xlink:title=" ">
<polygon fill="none" stroke="black" points="155.49,-0.5 155.49,-18.5 284.89,-18.5 284.89,-0.5 155.49,-0.5"/>
<text text-anchor="middle" x="220.19" y="-6.5" font-family="Helvetica,sans-Serif" font-size="10.00">Ogre::SharedPtrInfoNone</text>
</a>
</g>
</g>
<!-- Node0&#45;&gt;Node4 -->
<g id="edge4" class="edge">
<title>Node0&#45;&gt;Node4</title>
<path fill="none" stroke="midnightblue" d="M80.88,-53.93C97.96,-45.77 120.66,-35.61 141.49,-28.5 152.66,-24.69 164.98,-21.31 176.45,-18.5"/>
<polygon fill="midnightblue" stroke="midnightblue" points="78.99,-50.96 71.52,-58.47 82.04,-57.26 78.99,-50.96"/>
</g>
</g>
</svg>
