<?xml version="1.0" encoding="UTF-8" standalone="no"?>
<!DOCTYPE svg PUBLIC "-//W3C//DTD SVG 1.1//EN"
 "http://www.w3.org/Graphics/SVG/1.1/DTD/svg11.dtd">
<!-- Generated by graphviz version 2.43.0 (0)
 -->
<!-- Title: Graphical Class Hierarchy Pages: 1 -->
<svg width="394pt" height="131pt"
 viewBox="0.00 0.00 394.22 131.00" xmlns="http://www.w3.org/2000/svg" xmlns:xlink="http://www.w3.org/1999/xlink">
<g id="graph0" class="graph" transform="scale(1 1) rotate(0) translate(4 127)">
<title>Graphical Class Hierarchy</title>
<!-- Node1434 -->
<g id="node1" class="node">
<title>Node1434</title>
<g id="a_node1"><a xlink:href="class_ogre_1_1_g_l_s_l_e_s_program_manager_common.html" target="_top" xlink:title="Ogre assumes that there are separate programs to deal with but GLSL ES has one program object that re...">
<polygon fill="none" stroke="black" points="5.42,-47.5 5.42,-75.5 165.94,-75.5 165.94,-47.5 5.42,-47.5"/>
<text text-anchor="start" x="13.42" y="-63.5" font-family="Helvetica,sans-Serif" font-size="10.00">Ogre::GLSLESProgramManager</text>
<text text-anchor="middle" x="85.68" y="-53.5" font-family="Helvetica,sans-Serif" font-size="10.00">Common</text>
</a>
</g>
</g>
<!-- Node463 -->
<g id="node2" class="node">
<title>Node463</title>
<g id="a_node2"><a xlink:href="class_ogre_1_1_g_l_s_l_e_s_link_program_manager.html" target="_top" xlink:title="Ogre assumes that there are separate vertex and fragment programs to deal with but GLSL ES has one pr...">
<polygon fill="none" stroke="black" points="207.36,-74.5 207.36,-92.5 386.22,-92.5 386.22,-74.5 207.36,-74.5"/>
<text text-anchor="middle" x="296.79" y="-80.5" font-family="Helvetica,sans-Serif" font-size="10.00">Ogre::GLSLESLinkProgramManager</text>
</a>
</g>
</g>
<!-- Node1434&#45;&gt;Node463 -->
<g id="edge1" class="edge">
<title>Node1434&#45;&gt;Node463</title>
<path fill="none" stroke="midnightblue" d="M176.29,-70.93C187.54,-72.11 199.03,-73.32 210.21,-74.5"/>
<polygon fill="midnightblue" stroke="midnightblue" points="176.35,-67.41 166.03,-69.85 175.61,-74.38 176.35,-67.41"/>
</g>
<!-- Node1 -->
<g id="node3" class="node">
<title>Node1</title>
<g id="a_node3"><a xlink:href="class_ogre_1_1_g_l_s_l_e_s_program_pipeline_manager.html" target="_top" xlink:title="Ogre assumes that there are separate vertex and fragment programs to deal with but GLSL ES has one pr...">
<polygon fill="none" stroke="black" points="218.48,-25.5 218.48,-53.5 375.1,-53.5 375.1,-25.5 218.48,-25.5"/>
<text text-anchor="start" x="226.48" y="-41.5" font-family="Helvetica,sans-Serif" font-size="10.00">Ogre::GLSLESProgramPipeline</text>
<text text-anchor="middle" x="296.79" y="-31.5" font-family="Helvetica,sans-Serif" font-size="10.00">Manager</text>
</a>
</g>
</g>
<!-- Node1434&#45;&gt;Node1 -->
<g id="edge2" class="edge">
<title>Node1434&#45;&gt;Node1</title>
<path fill="none" stroke="midnightblue" d="M176.15,-52.09C190.15,-50.61 204.52,-49.1 218.22,-47.66"/>
<polygon fill="midnightblue" stroke="midnightblue" points="175.61,-48.62 166.03,-53.15 176.35,-55.59 175.61,-48.62"/>
</g>
<!-- Node462 -->
<g id="node4" class="node">
<title>Node462</title>
<g id="a_node4"><a xlink:href="class_ogre_1_1_singleton.html" target="_top" xlink:title=" ">
<polygon fill="none" stroke="black" points="10,-94.5 10,-122.5 161.36,-122.5 161.36,-94.5 10,-94.5"/>
<text text-anchor="start" x="18" y="-110.5" font-family="Helvetica,sans-Serif" font-size="10.00">Ogre::Singleton&lt; GLSLESLink</text>
<text text-anchor="middle" x="85.68" y="-100.5" font-family="Helvetica,sans-Serif" font-size="10.00">ProgramManager &gt;</text>
</a>
</g>
</g>
<!-- Node462&#45;&gt;Node463 -->
<g id="edge3" class="edge">
<title>Node462&#45;&gt;Node463</title>
<path fill="none" stroke="midnightblue" d="M171.55,-98.35C187.7,-96.42 204.51,-94.41 220.36,-92.52"/>
<polygon fill="midnightblue" stroke="midnightblue" points="171.1,-94.88 161.58,-99.55 171.93,-101.83 171.1,-94.88"/>
</g>
<!-- Node0 -->
<g id="node5" class="node">
<title>Node0</title>
<g id="a_node5"><a xlink:href="class_ogre_1_1_singleton.html" target="_top" xlink:title=" ">
<polygon fill="none" stroke="black" points="0,-0.5 0,-28.5 171.36,-28.5 171.36,-0.5 0,-0.5"/>
<text text-anchor="start" x="8" y="-16.5" font-family="Helvetica,sans-Serif" font-size="10.00">Ogre::Singleton&lt; GLSLESProgram</text>
<text text-anchor="middle" x="85.68" y="-6.5" font-family="Helvetica,sans-Serif" font-size="10.00">PipelineManager &gt;</text>
</a>
</g>
</g>
<!-- Node0&#45;&gt;Node1 -->
<g id="edge4" class="edge">
<title>Node0&#45;&gt;Node1</title>
<path fill="none" stroke="midnightblue" d="M181.68,-25.86C193.95,-27.32 206.4,-28.81 218.34,-30.24"/>
<polygon fill="midnightblue" stroke="midnightblue" points="181.78,-22.34 171.43,-24.63 180.95,-29.29 181.78,-22.34"/>
</g>
</g>
</svg>
