<?xml version="1.0" encoding="UTF-8" standalone="no"?>
<!DOCTYPE svg PUBLIC "-//W3C//DTD SVG 1.1//EN"
 "http://www.w3.org/Graphics/SVG/1.1/DTD/svg11.dtd">
<!-- Generated by graphviz version 2.43.0 (0)
 -->
<!-- Title: Graphical Class Hierarchy Pages: 1 -->
<svg width="526pt" height="193pt"
 viewBox="0.00 0.00 526.20 193.00" xmlns="http://www.w3.org/2000/svg" xmlns:xlink="http://www.w3.org/1999/xlink">
<g id="graph0" class="graph" transform="scale(1 1) rotate(0) translate(4 189)">
<title>Graphical Class Hierarchy</title>
<!-- Node0 -->
<g id="node1" class="node">
<title>Node0</title>
<g id="a_node1"><a xlink:href="class_ogre_1_1_buffer_interface.html" target="_top" xlink:title="Most (if not all) buffers, can be treated with the same code.">
<polygon fill="none" stroke="black" points="0,-74.5 0,-92.5 109.2,-92.5 109.2,-74.5 0,-74.5"/>
<text text-anchor="middle" x="54.6" y="-80.5" font-family="Helvetica,sans-Serif" font-size="10.00">Ogre::BufferInterface</text>
</a>
</g>
</g>
<!-- Node1 -->
<g id="node2" class="node">
<title>Node1</title>
<g id="a_node2"><a xlink:href="class_ogre_1_1_d3_d11_buffer_interface_base.html" target="_top" xlink:title="For D3D11, most (if not all) buffers, can be treated with the same code.">
<polygon fill="none" stroke="black" points="145.2,-148.5 145.2,-166.5 307.59,-166.5 307.59,-148.5 145.2,-148.5"/>
<text text-anchor="middle" x="226.4" y="-154.5" font-family="Helvetica,sans-Serif" font-size="10.00">Ogre::D3D11BufferInterfaceBase</text>
</a>
</g>
</g>
<!-- Node0&#45;&gt;Node1 -->
<g id="edge1" class="edge">
<title>Node0&#45;&gt;Node1</title>
<path fill="none" stroke="midnightblue" d="M75.62,-98.79C93.11,-111.45 119.63,-129 145.2,-139.5 154.05,-143.13 163.75,-146.1 173.27,-148.49"/>
<polygon fill="midnightblue" stroke="midnightblue" points="77.48,-95.81 67.35,-92.68 73.32,-101.44 77.48,-95.81"/>
</g>
<!-- Node4 -->
<g id="node5" class="node">
<title>Node4</title>
<g id="a_node5"><a xlink:href="class_ogre_1_1_g_l3_plus_buffer_interface.html" target="_top" xlink:title="For GL3+, most (if not all) buffers, can be treated with the same code.">
<polygon fill="none" stroke="black" points="152.62,-111.5 152.62,-129.5 300.18,-129.5 300.18,-111.5 152.62,-111.5"/>
<text text-anchor="middle" x="226.4" y="-117.5" font-family="Helvetica,sans-Serif" font-size="10.00">Ogre::GL3PlusBufferInterface</text>
</a>
</g>
</g>
<!-- Node0&#45;&gt;Node4 -->
<g id="edge4" class="edge">
<title>Node0&#45;&gt;Node4</title>
<path fill="none" stroke="midnightblue" d="M107.04,-94.71C131.69,-100.08 160.81,-106.43 183.99,-111.48"/>
<polygon fill="midnightblue" stroke="midnightblue" points="107.65,-91.26 97.14,-92.55 106.16,-98.1 107.65,-91.26"/>
</g>
<!-- Node5 -->
<g id="node6" class="node">
<title>Node5</title>
<g id="a_node6"><a xlink:href="class_ogre_1_1_g_l_e_s2_buffer_interface.html" target="_top" xlink:title="For GL3+, most (if not all) buffers, can be treated with the same code.">
<polygon fill="none" stroke="black" points="155.67,-74.5 155.67,-92.5 297.12,-92.5 297.12,-74.5 155.67,-74.5"/>
<text text-anchor="middle" x="226.4" y="-80.5" font-family="Helvetica,sans-Serif" font-size="10.00">Ogre::GLES2BufferInterface</text>
</a>
</g>
</g>
<!-- Node0&#45;&gt;Node5 -->
<g id="edge5" class="edge">
<title>Node0&#45;&gt;Node5</title>
<path fill="none" stroke="midnightblue" d="M119.49,-83.5C131.26,-83.5 143.61,-83.5 155.54,-83.5"/>
<polygon fill="midnightblue" stroke="midnightblue" points="119.33,-80 109.33,-83.5 119.33,-87 119.33,-80"/>
</g>
<!-- Node6 -->
<g id="node7" class="node">
<title>Node6</title>
<g id="a_node7"><a xlink:href="class_ogre_1_1_metal_buffer_interface.html" target="_top" xlink:title="For Metal, all buffers can be treated with the same code.">
<polygon fill="none" stroke="black" points="159.57,-37.5 159.57,-55.5 293.22,-55.5 293.22,-37.5 159.57,-37.5"/>
<text text-anchor="middle" x="226.4" y="-43.5" font-family="Helvetica,sans-Serif" font-size="10.00">Ogre::MetalBufferInterface</text>
</a>
</g>
</g>
<!-- Node0&#45;&gt;Node6 -->
<g id="edge6" class="edge">
<title>Node0&#45;&gt;Node6</title>
<path fill="none" stroke="midnightblue" d="M107.04,-72.29C131.69,-66.92 160.81,-60.57 183.99,-55.52"/>
<polygon fill="midnightblue" stroke="midnightblue" points="106.16,-68.9 97.14,-74.45 107.65,-75.74 106.16,-68.9"/>
</g>
<!-- Node7 -->
<g id="node8" class="node">
<title>Node7</title>
<g id="a_node8"><a xlink:href="class_ogre_1_1_n_u_l_l_buffer_interface.html" target="_top" xlink:title="For GL3+, most (if not all) buffers, can be treated with the same code.">
<polygon fill="none" stroke="black" points="159.01,-0.5 159.01,-18.5 293.78,-18.5 293.78,-0.5 159.01,-0.5"/>
<text text-anchor="middle" x="226.4" y="-6.5" font-family="Helvetica,sans-Serif" font-size="10.00">Ogre::NULLBufferInterface</text>
</a>
</g>
</g>
<!-- Node0&#45;&gt;Node7 -->
<g id="edge7" class="edge">
<title>Node0&#45;&gt;Node7</title>
<path fill="none" stroke="midnightblue" d="M75.99,-68.36C93.53,-56.01 119.92,-38.94 145.2,-28.5 154.99,-24.46 165.82,-21.17 176.27,-18.53"/>
<polygon fill="midnightblue" stroke="midnightblue" points="73.76,-65.66 67.68,-74.34 77.85,-71.34 73.76,-65.66"/>
</g>
<!-- Node2 -->
<g id="node3" class="node">
<title>Node2</title>
<g id="a_node3"><a xlink:href="class_ogre_1_1_d3_d11_buffer_interface.html" target="_top" xlink:title="For D3D11, most (if not all) buffers, can be treated with the same code.">
<polygon fill="none" stroke="black" points="361.1,-166.5 361.1,-184.5 500.69,-184.5 500.69,-166.5 361.1,-166.5"/>
<text text-anchor="middle" x="430.89" y="-172.5" font-family="Helvetica,sans-Serif" font-size="10.00">Ogre::D3D11BufferInterface</text>
</a>
</g>
</g>
<!-- Node1&#45;&gt;Node2 -->
<g id="edge2" class="edge">
<title>Node1&#45;&gt;Node2</title>
<path fill="none" stroke="midnightblue" d="M318.09,-165.56C332.43,-166.84 347.05,-168.14 360.79,-169.36"/>
<polygon fill="midnightblue" stroke="midnightblue" points="317.99,-162.04 307.72,-164.64 317.37,-169.01 317.99,-162.04"/>
</g>
<!-- Node3 -->
<g id="node4" class="node">
<title>Node3</title>
<g id="a_node4"><a xlink:href="class_ogre_1_1_d3_d11_compat_buffer_interface.html" target="_top" xlink:title="In D3D11, const buffers can&#39;t be bound by offset.">
<polygon fill="none" stroke="black" points="343.59,-129.5 343.59,-147.5 518.2,-147.5 518.2,-129.5 343.59,-129.5"/>
<text text-anchor="middle" x="430.89" y="-135.5" font-family="Helvetica,sans-Serif" font-size="10.00">Ogre::D3D11CompatBufferInterface</text>
</a>
</g>
</g>
<!-- Node1&#45;&gt;Node3 -->
<g id="edge3" class="edge">
<title>Node1&#45;&gt;Node3</title>
<path fill="none" stroke="midnightblue" d="M317.95,-149C326.39,-148.21 334.94,-147.41 343.34,-146.62"/>
<polygon fill="midnightblue" stroke="midnightblue" points="317.35,-145.54 307.72,-149.96 318,-152.51 317.35,-145.54"/>
</g>
</g>
</svg>
