<?xml version="1.0" encoding="UTF-8" standalone="no"?>
<!DOCTYPE svg PUBLIC "-//W3C//DTD SVG 1.1//EN"
 "http://www.w3.org/Graphics/SVG/1.1/DTD/svg11.dtd">
<!-- Generated by graphviz version 2.43.0 (0)
 -->
<!-- Title: Graphical Class Hierarchy Pages: 1 -->
<svg width="305pt" height="64pt"
 viewBox="0.00 0.00 305.00 64.00" xmlns="http://www.w3.org/2000/svg" xmlns:xlink="http://www.w3.org/1999/xlink">
<g id="graph0" class="graph" transform="scale(1 1) rotate(0) translate(4 60)">
<title>Graphical Class Hierarchy</title>
<!-- Node0 -->
<g id="node1" class="node">
<title>Node0</title>
<g id="a_node1"><a xlink:href="class_ogre_1_1_g_l_s_l_program.html" target="_top" xlink:title="C++ encapsulation of GLSL program object.">
<polygon fill="none" stroke="black" points="0,-18.5 0,-36.5 107.7,-36.5 107.7,-18.5 0,-18.5"/>
<text text-anchor="middle" x="53.85" y="-24.5" font-family="Helvetica,sans-Serif" font-size="10.00">Ogre::GLSLProgram</text>
</a>
</g>
</g>
<!-- Node1 -->
<g id="node2" class="node">
<title>Node1</title>
<g id="a_node2"><a xlink:href="class_ogre_1_1_g_l_s_l_monolithic_program.html" target="_top" xlink:title="Model of OpenGL program object created using the glLinkProgram method of linking.">
<polygon fill="none" stroke="black" points="143.99,-37.5 143.99,-55.5 296.71,-55.5 296.71,-37.5 143.99,-37.5"/>
<text text-anchor="middle" x="220.35" y="-43.5" font-family="Helvetica,sans-Serif" font-size="10.00">Ogre::GLSLMonolithicProgram</text>
</a>
</g>
</g>
<!-- Node0&#45;&gt;Node1 -->
<g id="edge1" class="edge">
<title>Node0&#45;&gt;Node1</title>
<path fill="none" stroke="midnightblue" d="M117.94,-34.79C126.38,-35.76 135.1,-36.77 143.73,-37.77"/>
<polygon fill="midnightblue" stroke="midnightblue" points="118.14,-31.29 107.81,-33.62 117.34,-38.24 118.14,-31.29"/>
</g>
<!-- Node2 -->
<g id="node3" class="node">
<title>Node2</title>
<g id="a_node3"><a xlink:href="class_ogre_1_1_g_l_s_l_separable_program.html" target="_top" xlink:title="Specialisation of GLSLProgram to provide support for separable programs via the OpenGL program pipeli...">
<polygon fill="none" stroke="black" points="143.7,-0.5 143.7,-18.5 297,-18.5 297,-0.5 143.7,-0.5"/>
<text text-anchor="middle" x="220.35" y="-6.5" font-family="Helvetica,sans-Serif" font-size="10.00">Ogre::GLSLSeparableProgram</text>
</a>
</g>
</g>
<!-- Node0&#45;&gt;Node2 -->
<g id="edge2" class="edge">
<title>Node0&#45;&gt;Node2</title>
<path fill="none" stroke="midnightblue" d="M117.85,-20.61C126.22,-19.69 134.87,-18.74 143.43,-17.81"/>
<polygon fill="midnightblue" stroke="midnightblue" points="117.37,-17.14 107.81,-21.71 118.13,-24.1 117.37,-17.14"/>
</g>
</g>
</svg>
