<?xml version="1.0" encoding="UTF-8" standalone="no"?>
<!DOCTYPE svg PUBLIC "-//W3C//DTD SVG 1.1//EN"
 "http://www.w3.org/Graphics/SVG/1.1/DTD/svg11.dtd">
<!-- Generated by graphviz version 2.43.0 (0)
 -->
<!-- Title: Graphical Class Hierarchy Pages: 1 -->
<svg width="489pt" height="64pt"
 viewBox="0.00 0.00 488.70 64.00" xmlns="http://www.w3.org/2000/svg" xmlns:xlink="http://www.w3.org/1999/xlink">
<g id="graph0" class="graph" transform="scale(1 1) rotate(0) translate(4 60)">
<title>Graphical Class Hierarchy</title>
<!-- Node346 -->
<g id="node1" class="node">
<title>Node346</title>
<g id="a_node1"><a xlink:title=" ">
<polygon fill="none" stroke="#bfbfbf" points="0,-18.5 0,-36.5 164.37,-36.5 164.37,-18.5 0,-18.5"/>
<text text-anchor="middle" x="82.18" y="-24.5" font-family="Helvetica,sans-Serif" font-size="10.00">Texture MANAGED_RESOURCE</text>
</a>
</g>
</g>
<!-- Node0 -->
<g id="node2" class="node">
<title>Node0</title>
<g id="a_node2"><a xlink:href="class_ogre_1_1_g_l_e_s2_texture.html" target="_top" xlink:title=" ">
<polygon fill="none" stroke="black" points="200.37,-18.5 200.37,-36.5 309.19,-36.5 309.19,-18.5 200.37,-18.5"/>
<text text-anchor="middle" x="254.78" y="-24.5" font-family="Helvetica,sans-Serif" font-size="10.00">Ogre::GLES2Texture</text>
</a>
</g>
</g>
<!-- Node346&#45;&gt;Node0 -->
<g id="edge1" class="edge">
<title>Node346&#45;&gt;Node0</title>
<path fill="none" stroke="midnightblue" d="M174.63,-27.5C183.25,-27.5 191.79,-27.5 199.89,-27.5"/>
<polygon fill="midnightblue" stroke="midnightblue" points="174.49,-24 164.49,-27.5 174.49,-31 174.49,-24"/>
</g>
<!-- Node1 -->
<g id="node3" class="node">
<title>Node1</title>
<g id="a_node3"><a xlink:href="class_ogre_1_1_g_l_e_s2_depth_texture.html" target="_top" xlink:title=" ">
<polygon fill="none" stroke="black" points="345.19,-37.5 345.19,-55.5 480.7,-55.5 480.7,-37.5 345.19,-37.5"/>
<text text-anchor="middle" x="412.94" y="-43.5" font-family="Helvetica,sans-Serif" font-size="10.00">Ogre::GLES2DepthTexture</text>
</a>
</g>
</g>
<!-- Node0&#45;&gt;Node1 -->
<g id="edge2" class="edge">
<title>Node0&#45;&gt;Node1</title>
<path fill="none" stroke="midnightblue" d="M319.64,-35.27C328.04,-36.29 336.68,-37.34 345.13,-38.37"/>
<polygon fill="midnightblue" stroke="midnightblue" points="319.87,-31.77 309.52,-34.04 319.03,-38.72 319.87,-31.77"/>
</g>
<!-- Node2 -->
<g id="node4" class="node">
<title>Node2</title>
<g id="a_node4"><a xlink:href="class_ogre_1_1_g_l_e_s2_null_texture.html" target="_top" xlink:title=" ">
<polygon fill="none" stroke="black" points="349.92,-0.5 349.92,-18.5 475.97,-18.5 475.97,-0.5 349.92,-0.5"/>
<text text-anchor="middle" x="412.94" y="-6.5" font-family="Helvetica,sans-Serif" font-size="10.00">Ogre::GLES2NullTexture</text>
</a>
</g>
</g>
<!-- Node0&#45;&gt;Node2 -->
<g id="edge3" class="edge">
<title>Node0&#45;&gt;Node2</title>
<path fill="none" stroke="midnightblue" d="M319.72,-20.13C329.65,-18.99 339.89,-17.81 349.78,-16.67"/>
<polygon fill="midnightblue" stroke="midnightblue" points="319.06,-16.68 309.52,-21.31 319.86,-23.64 319.06,-16.68"/>
</g>
</g>
</svg>
