<?xml version="1.0" encoding="UTF-8" standalone="no"?>
<!DOCTYPE svg PUBLIC "-//W3C//DTD SVG 1.1//EN"
 "http://www.w3.org/Graphics/SVG/1.1/DTD/svg11.dtd">
<!-- Generated by graphviz version 2.43.0 (0)
 -->
<!-- Title: Graphical Class Hierarchy Pages: 1 -->
<svg width="336pt" height="101pt"
 viewBox="0.00 0.00 335.53 101.00" xmlns="http://www.w3.org/2000/svg" xmlns:xlink="http://www.w3.org/1999/xlink">
<g id="graph0" class="graph" transform="scale(1 1) rotate(0) translate(4 97)">
<title>Graphical Class Hierarchy</title>
<!-- Node0 -->
<g id="node1" class="node">
<title>Node0</title>
<g id="a_node1"><a xlink:href="class_ogre_1_1_array_memory_manager_1_1_rebase_listener.html" target="_top" xlink:title="When mUsedMemory &gt;= mMaxMemory (that is, we&#39;ve exhausted all our preallocated memory) ArrayMemoryMana...">
<polygon fill="none" stroke="black" points="0,-32.5 0,-60.5 143.26,-60.5 143.26,-32.5 0,-32.5"/>
<text text-anchor="start" x="8" y="-48.5" font-family="Helvetica,sans-Serif" font-size="10.00">Ogre::ArrayMemoryManager</text>
<text text-anchor="middle" x="71.63" y="-38.5" font-family="Helvetica,sans-Serif" font-size="10.00">::RebaseListener</text>
</a>
</g>
</g>
<!-- Node1 -->
<g id="node2" class="node">
<title>Node1</title>
<g id="a_node2"><a xlink:href="class_ogre_1_1_bone_memory_manager.html" target="_top" xlink:title="Wrap&#45;around class that contains multiple ArrayMemoryManager, one per hierarchy depth.">
<polygon fill="none" stroke="black" points="182.03,-74.5 182.03,-92.5 324.76,-92.5 324.76,-74.5 182.03,-74.5"/>
<text text-anchor="middle" x="253.4" y="-80.5" font-family="Helvetica,sans-Serif" font-size="10.00">Ogre::BoneMemoryManager</text>
</a>
</g>
</g>
<!-- Node0&#45;&gt;Node1 -->
<g id="edge1" class="edge">
<title>Node0&#45;&gt;Node1</title>
<path fill="none" stroke="#8b1a1a" d="M150.77,-62.58C170.52,-66.65 191.03,-70.87 208.41,-74.45"/>
<polygon fill="#8b1a1a" stroke="#8b1a1a" points="151.35,-59.13 140.85,-60.54 149.94,-65.99 151.35,-59.13"/>
</g>
<!-- Node2 -->
<g id="node3" class="node">
<title>Node2</title>
<g id="a_node3"><a xlink:href="class_ogre_1_1_node_memory_manager.html" target="_top" xlink:title="Wrap&#45;around class that contains multiple ArrayMemoryManager, one per hierarchy depth.">
<polygon fill="none" stroke="black" points="181.76,-37.5 181.76,-55.5 325.03,-55.5 325.03,-37.5 181.76,-37.5"/>
<text text-anchor="middle" x="253.4" y="-43.5" font-family="Helvetica,sans-Serif" font-size="10.00">Ogre::NodeMemoryManager</text>
</a>
</g>
</g>
<!-- Node0&#45;&gt;Node2 -->
<g id="edge2" class="edge">
<title>Node0&#45;&gt;Node2</title>
<path fill="none" stroke="#8b1a1a" d="M153.53,-46.5C162.92,-46.5 172.44,-46.5 181.67,-46.5"/>
<polygon fill="#8b1a1a" stroke="#8b1a1a" points="153.42,-43 143.42,-46.5 153.42,-50 153.42,-43"/>
</g>
<!-- Node3 -->
<g id="node4" class="node">
<title>Node3</title>
<g id="a_node4"><a xlink:href="class_ogre_1_1_object_memory_manager.html" target="_top" xlink:title="Wrap&#45;around class that contains multiple ArrayMemoryManager, one per render queue.">
<polygon fill="none" stroke="black" points="179.26,-0.5 179.26,-18.5 327.53,-18.5 327.53,-0.5 179.26,-0.5"/>
<text text-anchor="middle" x="253.4" y="-6.5" font-family="Helvetica,sans-Serif" font-size="10.00">Ogre::ObjectMemoryManager</text>
</a>
</g>
</g>
<!-- Node0&#45;&gt;Node3 -->
<g id="edge3" class="edge">
<title>Node0&#45;&gt;Node3</title>
<path fill="none" stroke="#8b1a1a" d="M150.77,-30.42C170.52,-26.35 191.03,-22.13 208.41,-18.55"/>
<polygon fill="#8b1a1a" stroke="#8b1a1a" points="149.94,-27.01 140.85,-32.46 151.35,-33.87 149.94,-27.01"/>
</g>
</g>
</svg>
