<?xml version="1.0" encoding="UTF-8" standalone="no"?>
<!DOCTYPE svg PUBLIC "-//W3C//DTD SVG 1.1//EN"
 "http://www.w3.org/Graphics/SVG/1.1/DTD/svg11.dtd">
<!-- Generated by graphviz version 2.43.0 (0)
 -->
<!-- Title: Graphical Class Hierarchy Pages: 1 -->
<svg width="310pt" height="64pt"
 viewBox="0.00 0.00 310.40 64.00" xmlns="http://www.w3.org/2000/svg" xmlns:xlink="http://www.w3.org/1999/xlink">
<g id="graph0" class="graph" transform="scale(1 1) rotate(0) translate(4 60)">
<title>Graphical Class Hierarchy</title>
<!-- Node0 -->
<g id="node1" class="node">
<title>Node0</title>
<g id="a_node1"><a xlink:href="class_ogre_1_1_lod_input_provider.html" target="_top" xlink:title=" ">
<polygon fill="none" stroke="black" points="0,-18.5 0,-36.5 119.95,-36.5 119.95,-18.5 0,-18.5"/>
<text text-anchor="middle" x="59.98" y="-24.5" font-family="Helvetica,sans-Serif" font-size="10.00">Ogre::LodInputProvider</text>
</a>
</g>
</g>
<!-- Node1 -->
<g id="node2" class="node">
<title>Node1</title>
<g id="a_node2"><a xlink:href="class_ogre_1_1_lod_input_provider_buffer.html" target="_top" xlink:title=" ">
<polygon fill="none" stroke="black" points="155.95,-37.5 155.95,-55.5 302.4,-55.5 302.4,-37.5 155.95,-37.5"/>
<text text-anchor="middle" x="229.18" y="-43.5" font-family="Helvetica,sans-Serif" font-size="10.00">Ogre::LodInputProviderBuffer</text>
</a>
</g>
</g>
<!-- Node0&#45;&gt;Node1 -->
<g id="edge1" class="edge">
<title>Node0&#45;&gt;Node1</title>
<path fill="none" stroke="midnightblue" d="M130.47,-35.4C138.82,-36.35 147.37,-37.32 155.77,-38.27"/>
<polygon fill="midnightblue" stroke="midnightblue" points="130.73,-31.9 120.4,-34.25 129.94,-38.86 130.73,-31.9"/>
</g>
<!-- Node2 -->
<g id="node3" class="node">
<title>Node2</title>
<g id="a_node3"><a xlink:href="class_ogre_1_1_lod_input_provider_mesh.html" target="_top" xlink:title=" ">
<polygon fill="none" stroke="black" points="156.98,-0.5 156.98,-18.5 301.38,-18.5 301.38,-0.5 156.98,-0.5"/>
<text text-anchor="middle" x="229.18" y="-6.5" font-family="Helvetica,sans-Serif" font-size="10.00">Ogre::LodInputProviderMesh</text>
</a>
</g>
</g>
<!-- Node0&#45;&gt;Node2 -->
<g id="edge2" class="edge">
<title>Node0&#45;&gt;Node2</title>
<path fill="none" stroke="midnightblue" d="M130.52,-20.01C139.24,-19.07 148.18,-18.11 156.93,-17.17"/>
<polygon fill="midnightblue" stroke="midnightblue" points="129.96,-16.55 120.4,-21.1 130.71,-23.51 129.96,-16.55"/>
</g>
</g>
</svg>
