<?xml version="1.0" encoding="UTF-8" standalone="no"?>
<!DOCTYPE svg PUBLIC "-//W3C//DTD SVG 1.1//EN"
 "http://www.w3.org/Graphics/SVG/1.1/DTD/svg11.dtd">
<!-- Generated by graphviz version 2.43.0 (0)
 -->
<!-- Title: Graphical Class Hierarchy Pages: 1 -->
<svg width="395pt" height="360pt"
 viewBox="0.00 0.00 394.81 360.00" xmlns="http://www.w3.org/2000/svg" xmlns:xlink="http://www.w3.org/1999/xlink">
<g id="graph0" class="graph" transform="scale(1 1) rotate(0) translate(4 356)">
<title>Graphical Class Hierarchy</title>
<!-- Node357 -->
<g id="node1" class="node">
<title>Node357</title>
<g id="a_node1"><a xlink:title=" ">
<polygon fill="none" stroke="#bfbfbf" points="0,-166.5 0,-184.5 58.81,-184.5 58.81,-166.5 0,-166.5"/>
<text text-anchor="middle" x="29.4" y="-172.5" font-family="Helvetica,sans-Serif" font-size="10.00">exception</text>
</a>
</g>
</g>
<!-- Node0 -->
<g id="node2" class="node">
<title>Node0</title>
<g id="a_node2"><a xlink:href="class_ogre_1_1_exception.html" target="_top" xlink:title="When thrown, provides information about an error that has occurred inside the engine.">
<polygon fill="none" stroke="black" points="94.81,-166.5 94.81,-184.5 182.51,-184.5 182.51,-166.5 94.81,-166.5"/>
<text text-anchor="middle" x="138.66" y="-172.5" font-family="Helvetica,sans-Serif" font-size="10.00">Ogre::Exception</text>
</a>
</g>
</g>
<!-- Node357&#45;&gt;Node0 -->
<g id="edge1" class="edge">
<title>Node357&#45;&gt;Node0</title>
<path fill="none" stroke="midnightblue" d="M69,-175.5C77.28,-175.5 86.07,-175.5 94.51,-175.5"/>
<polygon fill="midnightblue" stroke="midnightblue" points="68.86,-172 58.86,-175.5 68.86,-179 68.86,-172"/>
</g>
<!-- Node1 -->
<g id="node3" class="node">
<title>Node1</title>
<g id="a_node3"><a xlink:href="class_ogre_1_1_file_not_found_exception.html" target="_top" xlink:title=" ">
<polygon fill="none" stroke="black" points="228.79,-333.5 228.79,-351.5 376.53,-351.5 376.53,-333.5 228.79,-333.5"/>
<text text-anchor="middle" x="302.66" y="-339.5" font-family="Helvetica,sans-Serif" font-size="10.00">Ogre::FileNotFoundException</text>
</a>
</g>
</g>
<!-- Node0&#45;&gt;Node1 -->
<g id="edge2" class="edge">
<title>Node0&#45;&gt;Node1</title>
<path fill="none" stroke="midnightblue" d="M144.13,-194.49C152.73,-226.59 174.7,-291.29 218.51,-324.5 223.34,-328.16 228.75,-331.11 234.44,-333.48"/>
<polygon fill="midnightblue" stroke="midnightblue" points="147.48,-193.45 141.64,-184.61 140.69,-195.16 147.48,-193.45"/>
</g>
<!-- Node2 -->
<g id="node4" class="node">
<title>Node2</title>
<g id="a_node4"><a xlink:href="class_ogre_1_1_internal_error_exception.html" target="_top" xlink:title=" ">
<polygon fill="none" stroke="black" points="231.02,-296.5 231.02,-314.5 374.3,-314.5 374.3,-296.5 231.02,-296.5"/>
<text text-anchor="middle" x="302.66" y="-302.5" font-family="Helvetica,sans-Serif" font-size="10.00">Ogre::InternalErrorException</text>
</a>
</g>
</g>
<!-- Node0&#45;&gt;Node2 -->
<g id="edge3" class="edge">
<title>Node0&#45;&gt;Node2</title>
<path fill="none" stroke="midnightblue" d="M147.42,-194.04C159.02,-219.34 183.32,-264.18 218.51,-287.5 224.05,-291.17 230.21,-294.11 236.61,-296.46"/>
<polygon fill="midnightblue" stroke="midnightblue" points="150.59,-192.55 143.36,-184.81 144.18,-195.37 150.59,-192.55"/>
</g>
<!-- Node3 -->
<g id="node5" class="node">
<title>Node3</title>
<g id="a_node5"><a xlink:href="class_ogre_1_1_invalid_call_exception.html" target="_top" xlink:title=" ">
<polygon fill="none" stroke="black" points="235.74,-259.5 235.74,-277.5 369.58,-277.5 369.58,-259.5 235.74,-259.5"/>
<text text-anchor="middle" x="302.66" y="-265.5" font-family="Helvetica,sans-Serif" font-size="10.00">Ogre::InvalidCallException</text>
</a>
</g>
</g>
<!-- Node0&#45;&gt;Node3 -->
<g id="edge4" class="edge">
<title>Node0&#45;&gt;Node3</title>
<path fill="none" stroke="midnightblue" d="M152.86,-192.68C167.13,-210.02 191.49,-236.2 218.51,-250.5 225.43,-254.16 233.05,-257.08 240.78,-259.4"/>
<polygon fill="midnightblue" stroke="midnightblue" points="155.33,-190.17 146.35,-184.54 149.86,-194.54 155.33,-190.17"/>
</g>
<!-- Node4 -->
<g id="node6" class="node">
<title>Node4</title>
<g id="a_node6"><a xlink:href="class_ogre_1_1_invalid_parameters_exception.html" target="_top" xlink:title=" ">
<polygon fill="none" stroke="black" points="218.51,-222.5 218.51,-240.5 386.81,-240.5 386.81,-222.5 218.51,-222.5"/>
<text text-anchor="middle" x="302.66" y="-228.5" font-family="Helvetica,sans-Serif" font-size="10.00">Ogre::InvalidParametersException</text>
</a>
</g>
</g>
<!-- Node0&#45;&gt;Node4 -->
<g id="edge5" class="edge">
<title>Node0&#45;&gt;Node4</title>
<path fill="none" stroke="midnightblue" d="M164.72,-189.46C179.91,-197.44 199.89,-207.1 218.51,-213.5 228.71,-217.01 239.85,-219.98 250.57,-222.43"/>
<polygon fill="midnightblue" stroke="midnightblue" points="165.96,-186.15 155.5,-184.51 162.65,-192.32 165.96,-186.15"/>
</g>
<!-- Node5 -->
<g id="node7" class="node">
<title>Node5</title>
<g id="a_node7"><a xlink:href="class_ogre_1_1_invalid_state_exception.html" target="_top" xlink:title=" ">
<polygon fill="none" stroke="black" points="232.68,-185.5 232.68,-203.5 372.64,-203.5 372.64,-185.5 232.68,-185.5"/>
<text text-anchor="middle" x="302.66" y="-191.5" font-family="Helvetica,sans-Serif" font-size="10.00">Ogre::InvalidStateException</text>
</a>
</g>
</g>
<!-- Node0&#45;&gt;Node5 -->
<g id="edge6" class="edge">
<title>Node0&#45;&gt;Node5</title>
<path fill="none" stroke="midnightblue" d="M192.6,-181.71C205.33,-183.2 219.11,-184.82 232.45,-186.38"/>
<polygon fill="midnightblue" stroke="midnightblue" points="192.99,-178.23 182.65,-180.54 192.17,-185.18 192.99,-178.23"/>
</g>
<!-- Node6 -->
<g id="node8" class="node">
<title>Node6</title>
<g id="a_node8"><a xlink:href="class_ogre_1_1_i_o_exception.html" target="_top" xlink:title=" ">
<polygon fill="none" stroke="black" points="253.53,-148.5 253.53,-166.5 351.79,-166.5 351.79,-148.5 253.53,-148.5"/>
<text text-anchor="middle" x="302.66" y="-154.5" font-family="Helvetica,sans-Serif" font-size="10.00">Ogre::IOException</text>
</a>
</g>
</g>
<!-- Node0&#45;&gt;Node6 -->
<g id="edge7" class="edge">
<title>Node0&#45;&gt;Node6</title>
<path fill="none" stroke="midnightblue" d="M192.62,-169.62C212.17,-167.44 234.2,-165 253.32,-162.87"/>
<polygon fill="midnightblue" stroke="midnightblue" points="192.2,-166.14 182.65,-170.72 192.97,-173.1 192.2,-166.14"/>
</g>
<!-- Node7 -->
<g id="node9" class="node">
<title>Node7</title>
<g id="a_node9"><a xlink:href="class_ogre_1_1_item_identity_exception.html" target="_top" xlink:title=" ">
<polygon fill="none" stroke="black" points="232.96,-111.5 232.96,-129.5 372.36,-129.5 372.36,-111.5 232.96,-111.5"/>
<text text-anchor="middle" x="302.66" y="-117.5" font-family="Helvetica,sans-Serif" font-size="10.00">Ogre::ItemIdentityException</text>
</a>
</g>
</g>
<!-- Node0&#45;&gt;Node7 -->
<g id="edge8" class="edge">
<title>Node0&#45;&gt;Node7</title>
<path fill="none" stroke="midnightblue" d="M166,-161.84C181.07,-154.44 200.5,-145.6 218.51,-139.5 230.01,-135.61 242.68,-132.26 254.58,-129.5"/>
<polygon fill="midnightblue" stroke="midnightblue" points="164.16,-158.85 156.78,-166.45 167.29,-165.11 164.16,-158.85"/>
</g>
<!-- Node8 -->
<g id="node10" class="node">
<title>Node8</title>
<g id="a_node10"><a xlink:href="class_ogre_1_1_rendering_a_p_i_exception.html" target="_top" xlink:title=" ">
<polygon fill="none" stroke="black" points="227.68,-74.5 227.68,-92.5 377.64,-92.5 377.64,-74.5 227.68,-74.5"/>
<text text-anchor="middle" x="302.66" y="-80.5" font-family="Helvetica,sans-Serif" font-size="10.00">Ogre::RenderingAPIException</text>
</a>
</g>
</g>
<!-- Node0&#45;&gt;Node8 -->
<g id="edge9" class="edge">
<title>Node0&#45;&gt;Node8</title>
<path fill="none" stroke="midnightblue" d="M153.45,-158.31C167.88,-141.5 192.1,-116.44 218.51,-102.5 226.37,-98.35 235.11,-95.1 243.89,-92.56"/>
<polygon fill="midnightblue" stroke="midnightblue" points="150.54,-156.33 146.83,-166.25 155.92,-160.81 150.54,-156.33"/>
</g>
<!-- Node9 -->
<g id="node11" class="node">
<title>Node9</title>
<g id="a_node11"><a xlink:href="class_ogre_1_1_runtime_assertion_exception.html" target="_top" xlink:title=" ">
<polygon fill="none" stroke="black" points="219.35,-37.5 219.35,-55.5 385.97,-55.5 385.97,-37.5 219.35,-37.5"/>
<text text-anchor="middle" x="302.66" y="-43.5" font-family="Helvetica,sans-Serif" font-size="10.00">Ogre::RuntimeAssertionException</text>
</a>
</g>
</g>
<!-- Node0&#45;&gt;Node9 -->
<g id="edge10" class="edge">
<title>Node0&#45;&gt;Node9</title>
<path fill="none" stroke="midnightblue" d="M147.71,-157.01C159.51,-132.17 183.93,-88.49 218.51,-65.5 224.68,-61.4 231.61,-58.18 238.76,-55.65"/>
<polygon fill="midnightblue" stroke="midnightblue" points="144.4,-155.84 143.43,-166.39 150.76,-158.74 144.4,-155.84"/>
</g>
<!-- Node10 -->
<g id="node12" class="node">
<title>Node10</title>
<g id="a_node12"><a xlink:href="class_ogre_1_1_unimplemented_exception.html" target="_top" xlink:title="Template struct which creates a distinct type for each exception code.">
<polygon fill="none" stroke="black" points="223.79,-0.5 223.79,-18.5 381.53,-18.5 381.53,-0.5 223.79,-0.5"/>
<text text-anchor="middle" x="302.66" y="-6.5" font-family="Helvetica,sans-Serif" font-size="10.00">Ogre::UnimplementedException</text>
</a>
</g>
</g>
<!-- Node0&#45;&gt;Node10 -->
<g id="edge11" class="edge">
<title>Node0&#45;&gt;Node10</title>
<path fill="none" stroke="midnightblue" d="M144.38,-156.35C153.23,-124.61 175.46,-61.33 218.51,-28.5 223.93,-24.37 230.08,-21.11 236.53,-18.54"/>
<polygon fill="midnightblue" stroke="midnightblue" points="140.96,-155.6 141.79,-166.17 147.72,-157.39 140.96,-155.6"/>
</g>
</g>
</svg>
