<?xml version="1.0" encoding="UTF-8" standalone="no"?>
<!DOCTYPE svg PUBLIC "-//W3C//DTD SVG 1.1//EN"
 "http://www.w3.org/Graphics/SVG/1.1/DTD/svg11.dtd">
<!-- Generated by graphviz version 2.43.0 (0)
 -->
<!-- Title: Graphical Class Hierarchy Pages: 1 -->
<svg width="531pt" height="343pt"
 viewBox="0.00 0.00 531.00 343.00" xmlns="http://www.w3.org/2000/svg" xmlns:xlink="http://www.w3.org/1999/xlink">
<g id="graph0" class="graph" transform="scale(1 1) rotate(0) translate(4 339)">
<title>Graphical Class Hierarchy</title>
<!-- Node0 -->
<g id="node1" class="node">
<title>Node0</title>
<g id="a_node1"><a xlink:href="class_ogre_1_1_volume_1_1_source.html" target="_top" xlink:title="Abstract class defining the density function.">
<polygon fill="none" stroke="black" points="0,-195.5 0,-213.5 114.39,-213.5 114.39,-195.5 0,-195.5"/>
<text text-anchor="middle" x="57.19" y="-201.5" font-family="Helvetica,sans-Serif" font-size="10.00">Ogre::Volume::Source</text>
</a>
</g>
</g>
<!-- Node1 -->
<g id="node2" class="node">
<title>Node1</title>
<g id="a_node2"><a xlink:href="class_ogre_1_1_volume_1_1_cache_source.html" target="_top" xlink:title="A caching Source.">
<polygon fill="none" stroke="black" points="162.89,-316.5 162.89,-334.5 306.19,-334.5 306.19,-316.5 162.89,-316.5"/>
<text text-anchor="middle" x="234.54" y="-322.5" font-family="Helvetica,sans-Serif" font-size="10.00">Ogre::Volume::CacheSource</text>
</a>
</g>
</g>
<!-- Node0&#45;&gt;Node1 -->
<g id="edge1" class="edge">
<title>Node0&#45;&gt;Node1</title>
<path fill="none" stroke="midnightblue" d="M68.94,-222.25C84.07,-245.64 113.93,-286.29 150.39,-307.5 156.64,-311.14 163.55,-314.05 170.63,-316.37"/>
<polygon fill="midnightblue" stroke="midnightblue" points="71.83,-220.27 63.54,-213.66 65.9,-223.99 71.83,-220.27"/>
</g>
<!-- Node2 -->
<g id="node3" class="node">
<title>Node2</title>
<g id="a_node3"><a xlink:href="class_ogre_1_1_volume_1_1_c_s_g_cube_source.html" target="_top" xlink:title="A not rotated cube.">
<polygon fill="none" stroke="black" points="154.56,-279.5 154.56,-297.5 314.52,-297.5 314.52,-279.5 154.56,-279.5"/>
<text text-anchor="middle" x="234.54" y="-285.5" font-family="Helvetica,sans-Serif" font-size="10.00">Ogre::Volume::CSGCubeSource</text>
</a>
</g>
</g>
<!-- Node0&#45;&gt;Node2 -->
<g id="edge2" class="edge">
<title>Node0&#45;&gt;Node2</title>
<path fill="none" stroke="midnightblue" d="M75.55,-220.29C93.15,-235.43 121.78,-257.82 150.39,-270.5 158.63,-274.15 167.66,-277.08 176.64,-279.43"/>
<polygon fill="midnightblue" stroke="midnightblue" points="77.67,-217.49 67.85,-213.51 73.05,-222.74 77.67,-217.49"/>
</g>
<!-- Node3 -->
<g id="node4" class="node">
<title>Node3</title>
<g id="a_node4"><a xlink:href="class_ogre_1_1_volume_1_1_c_s_g_operation_source.html" target="_top" xlink:title="Abstract operation volume source holding two sources as operants.">
<polygon fill="none" stroke="black" points="160.4,-232.5 160.4,-260.5 308.69,-260.5 308.69,-232.5 160.4,-232.5"/>
<text text-anchor="start" x="168.4" y="-248.5" font-family="Helvetica,sans-Serif" font-size="10.00">Ogre::Volume::CSGOperation</text>
<text text-anchor="middle" x="234.54" y="-238.5" font-family="Helvetica,sans-Serif" font-size="10.00">Source</text>
</a>
</g>
</g>
<!-- Node0&#45;&gt;Node3 -->
<g id="edge3" class="edge">
<title>Node0&#45;&gt;Node3</title>
<path fill="none" stroke="midnightblue" d="M105.62,-215.86C126.98,-220.98 152.41,-227.07 174.94,-232.46"/>
<polygon fill="midnightblue" stroke="midnightblue" points="106.35,-212.44 95.81,-213.51 104.72,-219.24 106.35,-212.44"/>
</g>
<!-- Node7 -->
<g id="node8" class="node">
<title>Node7</title>
<g id="a_node8"><a xlink:href="class_ogre_1_1_volume_1_1_c_s_g_plane_source.html" target="_top" xlink:title="A plane.">
<polygon fill="none" stroke="black" points="153.72,-195.5 153.72,-213.5 315.36,-213.5 315.36,-195.5 153.72,-195.5"/>
<text text-anchor="middle" x="234.54" y="-201.5" font-family="Helvetica,sans-Serif" font-size="10.00">Ogre::Volume::CSGPlaneSource</text>
</a>
</g>
</g>
<!-- Node0&#45;&gt;Node7 -->
<g id="edge7" class="edge">
<title>Node0&#45;&gt;Node7</title>
<path fill="none" stroke="midnightblue" d="M124.71,-204.5C134.14,-204.5 143.92,-204.5 153.57,-204.5"/>
<polygon fill="midnightblue" stroke="midnightblue" points="124.64,-201 114.64,-204.5 124.64,-208 124.64,-201"/>
</g>
<!-- Node8 -->
<g id="node9" class="node">
<title>Node8</title>
<g id="a_node9"><a xlink:href="class_ogre_1_1_volume_1_1_c_s_g_sphere_source.html" target="_top" xlink:title="A sphere.">
<polygon fill="none" stroke="black" points="150.39,-158.5 150.39,-176.5 318.69,-176.5 318.69,-158.5 150.39,-158.5"/>
<text text-anchor="middle" x="234.54" y="-164.5" font-family="Helvetica,sans-Serif" font-size="10.00">Ogre::Volume::CSGSphereSource</text>
</a>
</g>
</g>
<!-- Node0&#45;&gt;Node8 -->
<g id="edge8" class="edge">
<title>Node0&#45;&gt;Node8</title>
<path fill="none" stroke="midnightblue" d="M110.98,-193.36C136.5,-187.98 166.73,-181.6 190.79,-176.52"/>
<polygon fill="midnightblue" stroke="midnightblue" points="110.15,-189.96 101.09,-195.45 111.6,-196.81 110.15,-189.96"/>
</g>
<!-- Node9 -->
<g id="node10" class="node">
<title>Node9</title>
<g id="a_node10"><a xlink:href="class_ogre_1_1_volume_1_1_c_s_g_unary_source.html" target="_top" xlink:title="Source which does a unary operation to another one.">
<polygon fill="none" stroke="black" points="153.17,-121.5 153.17,-139.5 315.91,-139.5 315.91,-121.5 153.17,-121.5"/>
<text text-anchor="middle" x="234.54" y="-127.5" font-family="Helvetica,sans-Serif" font-size="10.00">Ogre::Volume::CSGUnarySource</text>
</a>
</g>
</g>
<!-- Node0&#45;&gt;Node9 -->
<g id="edge9" class="edge">
<title>Node0&#45;&gt;Node9</title>
<path fill="none" stroke="midnightblue" d="M79.22,-189.34C97.29,-176.97 124.46,-159.89 150.39,-149.5 160.42,-145.48 171.5,-142.2 182.2,-139.58"/>
<polygon fill="midnightblue" stroke="midnightblue" points="76.85,-186.73 70.66,-195.32 80.86,-192.46 76.85,-186.73"/>
</g>
<!-- Node13 -->
<g id="node14" class="node">
<title>Node13</title>
<g id="a_node14"><a xlink:href="class_ogre_1_1_volume_1_1_grid_source.html" target="_top" xlink:title="A volume source from a discrete 3d grid.">
<polygon fill="none" stroke="black" points="167.9,-42.5 167.9,-60.5 301.18,-60.5 301.18,-42.5 167.9,-42.5"/>
<text text-anchor="middle" x="234.54" y="-48.5" font-family="Helvetica,sans-Serif" font-size="10.00">Ogre::Volume::GridSource</text>
</a>
</g>
</g>
<!-- Node0&#45;&gt;Node13 -->
<g id="edge13" class="edge">
<title>Node0&#45;&gt;Node13</title>
<path fill="none" stroke="midnightblue" d="M73.4,-187.87C91.13,-168.83 121.67,-137.11 150.39,-112.5 173.63,-92.58 202.93,-72.05 219.82,-60.62"/>
<polygon fill="midnightblue" stroke="midnightblue" points="70.64,-185.7 66.42,-195.42 75.78,-190.45 70.64,-185.7"/>
</g>
<!-- Node4 -->
<g id="node5" class="node">
<title>Node4</title>
<g id="a_node5"><a xlink:href="class_ogre_1_1_volume_1_1_c_s_g_difference_source.html" target="_top" xlink:title="Builds the difference between two sources.">
<polygon fill="none" stroke="black" points="363.96,-279.5 363.96,-307.5 513.73,-307.5 513.73,-279.5 363.96,-279.5"/>
<text text-anchor="start" x="371.96" y="-295.5" font-family="Helvetica,sans-Serif" font-size="10.00">Ogre::Volume::CSGDifference</text>
<text text-anchor="middle" x="438.85" y="-285.5" font-family="Helvetica,sans-Serif" font-size="10.00">Source</text>
</a>
</g>
</g>
<!-- Node3&#45;&gt;Node4 -->
<g id="edge4" class="edge">
<title>Node3&#45;&gt;Node4</title>
<path fill="none" stroke="midnightblue" d="M305.8,-262.82C329.12,-268.24 354.87,-274.22 377.38,-279.45"/>
<polygon fill="midnightblue" stroke="midnightblue" points="306.5,-259.39 295.97,-260.54 304.91,-266.21 306.5,-259.39"/>
</g>
<!-- Node5 -->
<g id="node6" class="node">
<title>Node5</title>
<g id="a_node6"><a xlink:href="class_ogre_1_1_volume_1_1_c_s_g_intersection_source.html" target="_top" xlink:title="Builds the intersection between two sources.">
<polygon fill="none" stroke="black" points="360.81,-232.5 360.81,-260.5 516.88,-260.5 516.88,-232.5 360.81,-232.5"/>
<text text-anchor="start" x="368.81" y="-248.5" font-family="Helvetica,sans-Serif" font-size="10.00">Ogre::Volume::CSGIntersection</text>
<text text-anchor="middle" x="438.85" y="-238.5" font-family="Helvetica,sans-Serif" font-size="10.00">Source</text>
</a>
</g>
</g>
<!-- Node3&#45;&gt;Node5 -->
<g id="edge5" class="edge">
<title>Node3&#45;&gt;Node5</title>
<path fill="none" stroke="midnightblue" d="M319.25,-246.5C332.97,-246.5 347.13,-246.5 360.68,-246.5"/>
<polygon fill="midnightblue" stroke="midnightblue" points="318.86,-243 308.86,-246.5 318.86,-250 318.86,-243"/>
</g>
<!-- Node6 -->
<g id="node7" class="node">
<title>Node6</title>
<g id="a_node7"><a xlink:href="class_ogre_1_1_volume_1_1_c_s_g_union_source.html" target="_top" xlink:title="Builds the union between two sources.">
<polygon fill="none" stroke="black" points="357.75,-195.5 357.75,-213.5 519.94,-213.5 519.94,-195.5 357.75,-195.5"/>
<text text-anchor="middle" x="438.85" y="-201.5" font-family="Helvetica,sans-Serif" font-size="10.00">Ogre::Volume::CSGUnionSource</text>
</a>
</g>
</g>
<!-- Node3&#45;&gt;Node6 -->
<g id="edge6" class="edge">
<title>Node3&#45;&gt;Node6</title>
<path fill="none" stroke="midnightblue" d="M313.21,-230.38C340.75,-224.66 370.74,-218.43 394.41,-213.52"/>
<polygon fill="midnightblue" stroke="midnightblue" points="312.27,-227 303.19,-232.46 313.69,-233.85 312.27,-227"/>
</g>
<!-- Node10 -->
<g id="node11" class="node">
<title>Node10</title>
<g id="a_node11"><a xlink:href="class_ogre_1_1_volume_1_1_c_s_g_negate_source.html" target="_top" xlink:title="Negates the given volume.">
<polygon fill="none" stroke="black" points="354.69,-158.5 354.69,-176.5 523,-176.5 523,-158.5 354.69,-158.5"/>
<text text-anchor="middle" x="438.85" y="-164.5" font-family="Helvetica,sans-Serif" font-size="10.00">Ogre::Volume::CSGNegateSource</text>
</a>
</g>
</g>
<!-- Node9&#45;&gt;Node10 -->
<g id="edge10" class="edge">
<title>Node9&#45;&gt;Node10</title>
<path fill="none" stroke="midnightblue" d="M294.62,-141.31C324.4,-146.75 360.09,-153.28 388.39,-158.46"/>
<polygon fill="midnightblue" stroke="midnightblue" points="295.24,-137.86 284.77,-139.5 293.98,-144.75 295.24,-137.86"/>
</g>
<!-- Node11 -->
<g id="node12" class="node">
<title>Node11</title>
<g id="a_node12"><a xlink:href="class_ogre_1_1_volume_1_1_c_s_g_noise_source.html" target="_top" xlink:title=" ">
<polygon fill="none" stroke="black" points="358.03,-121.5 358.03,-139.5 519.66,-139.5 519.66,-121.5 358.03,-121.5"/>
<text text-anchor="middle" x="438.85" y="-127.5" font-family="Helvetica,sans-Serif" font-size="10.00">Ogre::Volume::CSGNoiseSource</text>
</a>
</g>
</g>
<!-- Node9&#45;&gt;Node11 -->
<g id="edge11" class="edge">
<title>Node9&#45;&gt;Node11</title>
<path fill="none" stroke="midnightblue" d="M326.16,-130.5C336.75,-130.5 347.49,-130.5 357.92,-130.5"/>
<polygon fill="midnightblue" stroke="midnightblue" points="326.08,-127 316.08,-130.5 326.08,-134 326.08,-127"/>
</g>
<!-- Node12 -->
<g id="node13" class="node">
<title>Node12</title>
<g id="a_node13"><a xlink:href="class_ogre_1_1_volume_1_1_c_s_g_scale_source.html" target="_top" xlink:title="Scales the given volume source.">
<polygon fill="none" stroke="black" points="358.31,-84.5 358.31,-102.5 519.38,-102.5 519.38,-84.5 358.31,-84.5"/>
<text text-anchor="middle" x="438.85" y="-90.5" font-family="Helvetica,sans-Serif" font-size="10.00">Ogre::Volume::CSGScaleSource</text>
</a>
</g>
</g>
<!-- Node9&#45;&gt;Node12 -->
<g id="edge12" class="edge">
<title>Node9&#45;&gt;Node12</title>
<path fill="none" stroke="midnightblue" d="M294.62,-119.69C324.4,-114.25 360.09,-107.72 388.39,-102.54"/>
<polygon fill="midnightblue" stroke="midnightblue" points="293.98,-116.25 284.77,-121.5 295.24,-123.14 293.98,-116.25"/>
</g>
<!-- Node14 -->
<g id="node15" class="node">
<title>Node14</title>
<g id="a_node15"><a xlink:href="class_ogre_1_1_volume_1_1_half_float_grid_source.html" target="_top" xlink:title="A volume source from a 16 Bit float 3D grid capable of loading volume serializations.">
<polygon fill="none" stroke="black" points="368.04,-37.5 368.04,-65.5 509.65,-65.5 509.65,-37.5 368.04,-37.5"/>
<text text-anchor="start" x="376.04" y="-53.5" font-family="Helvetica,sans-Serif" font-size="10.00">Ogre::Volume::HalfFloatGrid</text>
<text text-anchor="middle" x="438.85" y="-43.5" font-family="Helvetica,sans-Serif" font-size="10.00">Source</text>
</a>
</g>
</g>
<!-- Node13&#45;&gt;Node14 -->
<g id="edge14" class="edge">
<title>Node13&#45;&gt;Node14</title>
<path fill="none" stroke="midnightblue" d="M311.39,-51.5C329.94,-51.5 349.71,-51.5 367.96,-51.5"/>
<polygon fill="midnightblue" stroke="midnightblue" points="311.22,-48 301.22,-51.5 311.22,-55 311.22,-48"/>
</g>
<!-- Node15 -->
<g id="node16" class="node">
<title>Node15</title>
<g id="a_node16"><a xlink:href="class_ogre_1_1_volume_1_1_texture_source.html" target="_top" xlink:title="A volume source from a 3D texture.">
<polygon fill="none" stroke="black" points="365.25,-0.5 365.25,-18.5 512.44,-18.5 512.44,-0.5 365.25,-0.5"/>
<text text-anchor="middle" x="438.85" y="-6.5" font-family="Helvetica,sans-Serif" font-size="10.00">Ogre::Volume::TextureSource</text>
</a>
</g>
</g>
<!-- Node13&#45;&gt;Node15 -->
<g id="edge15" class="edge">
<title>Node13&#45;&gt;Node15</title>
<path fill="none" stroke="midnightblue" d="M288.83,-40.44C321.68,-33.62 363.28,-24.98 394.17,-18.57"/>
<polygon fill="midnightblue" stroke="midnightblue" points="288.02,-37.03 278.94,-42.49 289.44,-43.88 288.02,-37.03"/>
</g>
</g>
</svg>
