<?xml version="1.0" encoding="UTF-8" standalone="no"?>
<!DOCTYPE svg PUBLIC "-//W3C//DTD SVG 1.1//EN"
 "http://www.w3.org/Graphics/SVG/1.1/DTD/svg11.dtd">
<!-- Generated by graphviz version 2.43.0 (0)
 -->
<!-- Title: Graphical Class Hierarchy Pages: 1 -->
<svg width="272pt" height="64pt"
 viewBox="0.00 0.00 271.64 64.00" xmlns="http://www.w3.org/2000/svg" xmlns:xlink="http://www.w3.org/1999/xlink">
<g id="graph0" class="graph" transform="scale(1 1) rotate(0) translate(4 60)">
<title>Graphical Class Hierarchy</title>
<!-- Node0 -->
<g id="node1" class="node">
<title>Node0</title>
<g id="a_node1"><a xlink:href="struct_ogre_1_1_cb_shared_draw.html" target="_top" xlink:title=" ">
<polygon fill="none" stroke="black" points="0,-18.5 0,-36.5 112.15,-36.5 112.15,-18.5 0,-18.5"/>
<text text-anchor="middle" x="56.08" y="-24.5" font-family="Helvetica,sans-Serif" font-size="10.00">Ogre::CbSharedDraw</text>
</a>
</g>
</g>
<!-- Node1 -->
<g id="node2" class="node">
<title>Node1</title>
<g id="a_node2"><a xlink:href="struct_ogre_1_1_cb_draw_indexed.html" target="_top" xlink:title=" ">
<polygon fill="none" stroke="black" points="148.15,-37.5 148.15,-55.5 263.64,-55.5 263.64,-37.5 148.15,-37.5"/>
<text text-anchor="middle" x="205.9" y="-43.5" font-family="Helvetica,sans-Serif" font-size="10.00">Ogre::CbDrawIndexed</text>
</a>
</g>
</g>
<!-- Node0&#45;&gt;Node1 -->
<g id="edge1" class="edge">
<title>Node0&#45;&gt;Node1</title>
<path fill="none" stroke="midnightblue" d="M122.48,-35.91C131.04,-37.01 139.74,-38.13 148.14,-39.2"/>
<polygon fill="midnightblue" stroke="midnightblue" points="122.9,-32.43 112.54,-34.63 122.01,-39.38 122.9,-32.43"/>
</g>
<!-- Node2 -->
<g id="node3" class="node">
<title>Node2</title>
<g id="a_node3"><a xlink:href="struct_ogre_1_1_cb_draw_strip.html" target="_top" xlink:title=" ">
<polygon fill="none" stroke="black" points="155.66,-0.5 155.66,-18.5 256.13,-18.5 256.13,-0.5 155.66,-0.5"/>
<text text-anchor="middle" x="205.9" y="-6.5" font-family="Helvetica,sans-Serif" font-size="10.00">Ogre::CbDrawStrip</text>
</a>
</g>
</g>
<!-- Node0&#45;&gt;Node2 -->
<g id="edge2" class="edge">
<title>Node0&#45;&gt;Node2</title>
<path fill="none" stroke="midnightblue" d="M122.58,-19.52C133.61,-18.18 144.91,-16.81 155.45,-15.52"/>
<polygon fill="midnightblue" stroke="midnightblue" points="122.04,-16.06 112.54,-20.75 122.89,-23.01 122.04,-16.06"/>
</g>
</g>
</svg>
