<?xml version="1.0" encoding="UTF-8" standalone="no"?>
<!DOCTYPE svg PUBLIC "-//W3C//DTD SVG 1.1//EN"
 "http://www.w3.org/Graphics/SVG/1.1/DTD/svg11.dtd">
<!-- Generated by graphviz version 2.43.0 (0)
 -->
<!-- Title: Graphical Class Hierarchy Pages: 1 -->
<svg width="496pt" height="37pt"
 viewBox="0.00 0.00 495.50 37.00" xmlns="http://www.w3.org/2000/svg" xmlns:xlink="http://www.w3.org/1999/xlink">
<g id="graph0" class="graph" transform="scale(1 1) rotate(0) translate(4 33)">
<title>Graphical Class Hierarchy</title>
<!-- Node0 -->
<g id="node1" class="node">
<title>Node0</title>
<g id="a_node1"><a xlink:href="class_ogre_1_1_singleton.html" target="_top" xlink:title=" ">
<polygon fill="none" stroke="black" points="0,-0.5 0,-28.5 132.46,-28.5 132.46,-0.5 0,-0.5"/>
<text text-anchor="start" x="8" y="-16.5" font-family="Helvetica,sans-Serif" font-size="10.00">Ogre::Singleton&lt; GL3Plus</text>
<text text-anchor="middle" x="66.23" y="-6.5" font-family="Helvetica,sans-Serif" font-size="10.00">RTTManager &gt;</text>
</a>
</g>
</g>
<!-- Node1 -->
<g id="node2" class="node">
<title>Node1</title>
<g id="a_node2"><a xlink:href="class_ogre_1_1_g_l3_plus_r_t_t_manager.html" target="_top" xlink:title="Manager/factory for RenderTextures.">
<polygon fill="none" stroke="black" points="168.46,-5.5 168.46,-23.5 309.33,-23.5 309.33,-5.5 168.46,-5.5"/>
<text text-anchor="middle" x="238.9" y="-11.5" font-family="Helvetica,sans-Serif" font-size="10.00">Ogre::GL3PlusRTTManager</text>
</a>
</g>
</g>
<!-- Node0&#45;&gt;Node1 -->
<g id="edge1" class="edge">
<title>Node0&#45;&gt;Node1</title>
<path fill="none" stroke="midnightblue" d="M142.94,-14.5C151.39,-14.5 159.96,-14.5 168.33,-14.5"/>
<polygon fill="midnightblue" stroke="midnightblue" points="142.73,-11 132.73,-14.5 142.73,-18 142.73,-11"/>
</g>
<!-- Node2 -->
<g id="node3" class="node">
<title>Node2</title>
<g id="a_node3"><a xlink:href="class_ogre_1_1_g_l3_plus_f_b_o_manager.html" target="_top" xlink:title="Factory for GL Frame Buffer Objects, and related things.">
<polygon fill="none" stroke="black" points="345.33,-5.5 345.33,-23.5 487.5,-23.5 487.5,-5.5 345.33,-5.5"/>
<text text-anchor="middle" x="416.42" y="-11.5" font-family="Helvetica,sans-Serif" font-size="10.00">Ogre::GL3PlusFBOManager</text>
</a>
</g>
</g>
<!-- Node1&#45;&gt;Node2 -->
<g id="edge2" class="edge">
<title>Node1&#45;&gt;Node2</title>
<path fill="none" stroke="midnightblue" d="M319.54,-14.5C328.13,-14.5 336.83,-14.5 345.3,-14.5"/>
<polygon fill="midnightblue" stroke="midnightblue" points="319.52,-11 309.52,-14.5 319.52,-18 319.52,-11"/>
</g>
</g>
</svg>
