<?xml version="1.0" encoding="UTF-8" standalone="no"?>
<!DOCTYPE svg PUBLIC "-//W3C//DTD SVG 1.1//EN"
 "http://www.w3.org/Graphics/SVG/1.1/DTD/svg11.dtd">
<!-- Generated by graphviz version 2.43.0 (0)
 -->
<!-- Title: Graphical Class Hierarchy Pages: 1 -->
<svg width="324pt" height="138pt"
 viewBox="0.00 0.00 323.77 138.00" xmlns="http://www.w3.org/2000/svg" xmlns:xlink="http://www.w3.org/1999/xlink">
<g id="graph0" class="graph" transform="scale(1 1) rotate(0) translate(4 134)">
<title>Graphical Class Hierarchy</title>
<!-- Node0 -->
<g id="node1" class="node">
<title>Node0</title>
<g id="a_node1"><a xlink:href="class_ogre_1_1iterator__range.html" target="_top" xlink:title="Base for an iterator_range.">
<polygon fill="none" stroke="black" points="0,-55.5 0,-73.5 129.04,-73.5 129.04,-55.5 0,-55.5"/>
<text text-anchor="middle" x="64.52" y="-61.5" font-family="Helvetica,sans-Serif" font-size="10.00">Ogre::iterator_range&lt; T &gt;</text>
</a>
</g>
</g>
<!-- Node1 -->
<g id="node2" class="node">
<title>Node1</title>
<g id="a_node2"><a xlink:href="struct_ogre_1_1_const_map_range.html" target="_top" xlink:title="Predefined type.">
<polygon fill="none" stroke="black" points="169.49,-111.5 169.49,-129.5 311.32,-129.5 311.32,-111.5 169.49,-111.5"/>
<text text-anchor="middle" x="240.41" y="-117.5" font-family="Helvetica,sans-Serif" font-size="10.00">Ogre::ConstMapRange&lt; T &gt;</text>
</a>
</g>
</g>
<!-- Node0&#45;&gt;Node1 -->
<g id="edge1" class="edge">
<title>Node0&#45;&gt;Node1</title>
<path fill="none" stroke="midnightblue" d="M96.28,-77.41C115.76,-85.29 141.62,-95.23 165.04,-102.5 175.57,-105.77 187.09,-108.81 197.85,-111.43"/>
<polygon fill="midnightblue" stroke="midnightblue" points="97.57,-74.15 86.99,-73.61 94.92,-80.63 97.57,-74.15"/>
</g>
<!-- Node2 -->
<g id="node3" class="node">
<title>Node2</title>
<g id="a_node3"><a xlink:href="struct_ogre_1_1_const_vector_range.html" target="_top" xlink:title="Predefined type.">
<polygon fill="none" stroke="black" points="165.04,-74.5 165.04,-92.5 315.77,-92.5 315.77,-74.5 165.04,-74.5"/>
<text text-anchor="middle" x="240.41" y="-80.5" font-family="Helvetica,sans-Serif" font-size="10.00">Ogre::ConstVectorRange&lt; T &gt;</text>
</a>
</g>
</g>
<!-- Node0&#45;&gt;Node2 -->
<g id="edge2" class="edge">
<title>Node0&#45;&gt;Node2</title>
<path fill="none" stroke="midnightblue" d="M139.41,-72.57C147.8,-73.49 156.35,-74.42 164.75,-75.34"/>
<polygon fill="midnightblue" stroke="midnightblue" points="139.6,-69.07 129.28,-71.47 138.84,-76.03 139.6,-69.07"/>
</g>
<!-- Node3 -->
<g id="node4" class="node">
<title>Node3</title>
<g id="a_node4"><a xlink:href="struct_ogre_1_1_map_range.html" target="_top" xlink:title="Predefined type.">
<polygon fill="none" stroke="black" points="182.55,-37.5 182.55,-55.5 298.26,-55.5 298.26,-37.5 182.55,-37.5"/>
<text text-anchor="middle" x="240.41" y="-43.5" font-family="Helvetica,sans-Serif" font-size="10.00">Ogre::MapRange&lt; T &gt;</text>
</a>
</g>
</g>
<!-- Node0&#45;&gt;Node3 -->
<g id="edge3" class="edge">
<title>Node0&#45;&gt;Node3</title>
<path fill="none" stroke="midnightblue" d="M139.64,-56.83C154,-55.34 168.85,-53.8 182.55,-52.39"/>
<polygon fill="midnightblue" stroke="midnightblue" points="138.87,-53.39 129.28,-57.9 139.59,-60.35 138.87,-53.39"/>
</g>
<!-- Node4 -->
<g id="node5" class="node">
<title>Node4</title>
<g id="a_node5"><a xlink:href="struct_ogre_1_1_vector_range.html" target="_top" xlink:title="Predefined type.">
<polygon fill="none" stroke="black" points="178.1,-0.5 178.1,-18.5 302.71,-18.5 302.71,-0.5 178.1,-0.5"/>
<text text-anchor="middle" x="240.41" y="-6.5" font-family="Helvetica,sans-Serif" font-size="10.00">Ogre::VectorRange&lt; T &gt;</text>
</a>
</g>
</g>
<!-- Node0&#45;&gt;Node4 -->
<g id="edge4" class="edge">
<title>Node0&#45;&gt;Node4</title>
<path fill="none" stroke="midnightblue" d="M98.16,-51.79C117.46,-44.5 142.46,-35.45 165.04,-28.5 176.63,-24.93 189.38,-21.5 200.99,-18.56"/>
<polygon fill="midnightblue" stroke="midnightblue" points="96.73,-48.59 88.63,-55.42 99.22,-55.13 96.73,-48.59"/>
</g>
</g>
</svg>
