<?xml version="1.0" encoding="UTF-8" standalone="no"?>
<!DOCTYPE svg PUBLIC "-//W3C//DTD SVG 1.1//EN"
 "http://www.w3.org/Graphics/SVG/1.1/DTD/svg11.dtd">
<!-- Generated by graphviz version 2.43.0 (0)
 -->
<!-- Title: Graphical Class Hierarchy Pages: 1 -->
<svg width="453pt" height="138pt"
 viewBox="0.00 0.00 452.58 138.00" xmlns="http://www.w3.org/2000/svg" xmlns:xlink="http://www.w3.org/1999/xlink">
<g id="graph0" class="graph" transform="scale(1 1) rotate(0) translate(4 134)">
<title>Graphical Class Hierarchy</title>
<!-- Node1455 -->
<g id="node1" class="node">
<title>Node1455</title>
<g id="a_node1"><a xlink:href="class_ogre_1_1_g_l_e_s2_context.html" target="_top" xlink:title="Class that encapsulates an GL context.">
<polygon fill="none" stroke="black" points="0,-55.5 0,-73.5 110.49,-73.5 110.49,-55.5 0,-55.5"/>
<text text-anchor="middle" x="55.25" y="-61.5" font-family="Helvetica,sans-Serif" font-size="10.00">Ogre::GLES2Context</text>
</a>
</g>
</g>
<!-- Node1456 -->
<g id="node2" class="node">
<title>Node1456</title>
<g id="a_node2"><a xlink:href="class_ogre_1_1_e_g_l_context.html" target="_top" xlink:title=" ">
<polygon fill="none" stroke="black" points="154.27,-55.5 154.27,-73.5 252.53,-73.5 252.53,-55.5 154.27,-55.5"/>
<text text-anchor="middle" x="203.4" y="-61.5" font-family="Helvetica,sans-Serif" font-size="10.00">Ogre::EGLContext</text>
</a>
</g>
</g>
<!-- Node1455&#45;&gt;Node1456 -->
<g id="edge1" class="edge">
<title>Node1455&#45;&gt;Node1456</title>
<path fill="none" stroke="midnightblue" d="M120.85,-64.5C132.05,-64.5 143.52,-64.5 154.19,-64.5"/>
<polygon fill="midnightblue" stroke="midnightblue" points="120.67,-61 110.67,-64.5 120.67,-68 120.67,-61"/>
</g>
<!-- Node0 -->
<g id="node7" class="node">
<title>Node0</title>
<g id="a_node7"><a xlink:href="class_ogre_1_1_na_cl_g_l_context.html" target="_top" xlink:title=" ">
<polygon fill="none" stroke="black" points="146.49,-18.5 146.49,-36.5 260.31,-36.5 260.31,-18.5 146.49,-18.5"/>
<text text-anchor="middle" x="203.4" y="-24.5" font-family="Helvetica,sans-Serif" font-size="10.00">Ogre::NaClGLContext</text>
</a>
</g>
</g>
<!-- Node1455&#45;&gt;Node0 -->
<g id="edge6" class="edge">
<title>Node1455&#45;&gt;Node0</title>
<path fill="none" stroke="midnightblue" d="M101.94,-52.93C122.85,-47.64 147.25,-41.46 166.76,-36.52"/>
<polygon fill="midnightblue" stroke="midnightblue" points="100.83,-49.6 92,-55.45 102.55,-56.39 100.83,-49.6"/>
</g>
<!-- Node1457 -->
<g id="node3" class="node">
<title>Node1457</title>
<g id="a_node3"><a xlink:href="class_ogre_1_1_android_e_g_l_context.html" target="_top" xlink:title=" ">
<polygon fill="none" stroke="black" points="304.08,-111.5 304.08,-129.5 436.81,-129.5 436.81,-111.5 304.08,-111.5"/>
<text text-anchor="middle" x="370.45" y="-117.5" font-family="Helvetica,sans-Serif" font-size="10.00">Ogre::AndroidEGLContext</text>
</a>
</g>
</g>
<!-- Node1456&#45;&gt;Node1457 -->
<g id="edge2" class="edge">
<title>Node1456&#45;&gt;Node1457</title>
<path fill="none" stroke="midnightblue" d="M233.11,-77.68C251.03,-85.58 274.71,-95.42 296.31,-102.5 306.5,-105.84 317.66,-108.89 328.14,-111.49"/>
<polygon fill="midnightblue" stroke="midnightblue" points="234.36,-74.41 223.8,-73.53 231.5,-80.8 234.36,-74.41"/>
</g>
<!-- Node1458 -->
<g id="node4" class="node">
<title>Node1458</title>
<g id="a_node4"><a xlink:href="class_ogre_1_1_emscripten_e_g_l_context.html" target="_top" xlink:title=" ">
<polygon fill="none" stroke="black" points="296.31,-74.5 296.31,-92.5 444.58,-92.5 444.58,-74.5 296.31,-74.5"/>
<text text-anchor="middle" x="370.45" y="-80.5" font-family="Helvetica,sans-Serif" font-size="10.00">Ogre::EmscriptenEGLContext</text>
</a>
</g>
</g>
<!-- Node1456&#45;&gt;Node1458 -->
<g id="edge3" class="edge">
<title>Node1456&#45;&gt;Node1458</title>
<path fill="none" stroke="midnightblue" d="M262.71,-71.21C273.49,-72.45 284.88,-73.76 296.04,-75.05"/>
<polygon fill="midnightblue" stroke="midnightblue" points="262.92,-67.71 252.58,-70.05 262.12,-74.67 262.92,-67.71"/>
</g>
<!-- Node1459 -->
<g id="node5" class="node">
<title>Node1459</title>
<g id="a_node5"><a xlink:href="class_ogre_1_1_win32_e_g_l_context.html" target="_top" xlink:title=" ">
<polygon fill="none" stroke="black" points="307.14,-37.5 307.14,-55.5 433.75,-55.5 433.75,-37.5 307.14,-37.5"/>
<text text-anchor="middle" x="370.45" y="-43.5" font-family="Helvetica,sans-Serif" font-size="10.00">Ogre::Win32EGLContext</text>
</a>
</g>
</g>
<!-- Node1456&#45;&gt;Node1459 -->
<g id="edge4" class="edge">
<title>Node1456&#45;&gt;Node1459</title>
<path fill="none" stroke="midnightblue" d="M262.81,-58.13C277.14,-56.57 292.54,-54.89 307.06,-53.3"/>
<polygon fill="midnightblue" stroke="midnightblue" points="262.14,-54.68 252.58,-59.25 262.9,-61.64 262.14,-54.68"/>
</g>
<!-- Node1460 -->
<g id="node6" class="node">
<title>Node1460</title>
<g id="a_node6"><a xlink:href="class_ogre_1_1_x11_e_g_l_context.html" target="_top" xlink:title=" ">
<polygon fill="none" stroke="black" points="312.79,-0.5 312.79,-18.5 428.11,-18.5 428.11,-0.5 312.79,-0.5"/>
<text text-anchor="middle" x="370.45" y="-6.5" font-family="Helvetica,sans-Serif" font-size="10.00">Ogre::X11EGLContext</text>
</a>
</g>
</g>
<!-- Node1456&#45;&gt;Node1460 -->
<g id="edge5" class="edge">
<title>Node1456&#45;&gt;Node1460</title>
<path fill="none" stroke="midnightblue" d="M245.22,-52.16C250.34,-50.38 255.48,-48.47 260.31,-46.5 276.87,-39.74 279.56,-34.78 296.31,-28.5 306.5,-24.68 317.78,-21.33 328.36,-18.56"/>
<polygon fill="midnightblue" stroke="midnightblue" points="243.83,-48.93 235.46,-55.43 246.06,-55.57 243.83,-48.93"/>
</g>
<!-- Node603 -->
<g id="node8" class="node">
<title>Node603</title>
<g id="a_node8"><a xlink:title=" ">
<polygon fill="none" stroke="#bfbfbf" points="8.06,-18.5 8.06,-36.5 102.43,-36.5 102.43,-18.5 8.06,-18.5"/>
<text text-anchor="middle" x="55.25" y="-24.5" font-family="Helvetica,sans-Serif" font-size="10.00">Graphics3DClient</text>
</a>
</g>
</g>
<!-- Node603&#45;&gt;Node0 -->
<g id="edge7" class="edge">
<title>Node603&#45;&gt;Node0</title>
<path fill="none" stroke="midnightblue" d="M112.53,-27.5C123.66,-27.5 135.35,-27.5 146.47,-27.5"/>
<polygon fill="midnightblue" stroke="midnightblue" points="112.49,-24 102.49,-27.5 112.49,-31 112.49,-24"/>
</g>
</g>
</svg>
