<?xml version="1.0" encoding="UTF-8" standalone="no"?>
<!DOCTYPE svg PUBLIC "-//W3C//DTD SVG 1.1//EN"
 "http://www.w3.org/Graphics/SVG/1.1/DTD/svg11.dtd">
<!-- Generated by graphviz version 2.43.0 (0)
 -->
<!-- Title: Graphical Class Hierarchy Pages: 1 -->
<svg width="339pt" height="131pt"
 viewBox="0.00 0.00 339.48 131.00" xmlns="http://www.w3.org/2000/svg" xmlns:xlink="http://www.w3.org/1999/xlink">
<g id="graph0" class="graph" transform="scale(1 1) rotate(0) translate(4 127)">
<title>Graphical Class Hierarchy</title>
<!-- Node0 -->
<g id="node1" class="node">
<title>Node0</title>
<g id="a_node1"><a xlink:href="class_ogre_1_1v1_1_1_render_to_vertex_buffer.html" target="_top" xlink:title=" ">
<polygon fill="none" stroke="black" points="0,-47.5 0,-75.5 131.62,-75.5 131.62,-47.5 0,-47.5"/>
<text text-anchor="start" x="8" y="-63.5" font-family="Helvetica,sans-Serif" font-size="10.00">Ogre::v1::RenderToVertex</text>
<text text-anchor="middle" x="65.81" y="-53.5" font-family="Helvetica,sans-Serif" font-size="10.00">Buffer</text>
</a>
</g>
</g>
<!-- Node1 -->
<g id="node2" class="node">
<title>Node1</title>
<g id="a_node2"><a xlink:href="class_ogre_1_1v1_1_1_d3_d11_render_to_vertex_buffer.html" target="_top" xlink:title="An object which renders geometry to a vertex.">
<polygon fill="none" stroke="black" points="168.55,-94.5 168.55,-122.5 330.56,-122.5 330.56,-94.5 168.55,-94.5"/>
<text text-anchor="start" x="176.55" y="-110.5" font-family="Helvetica,sans-Serif" font-size="10.00">Ogre::v1::D3D11RenderToVertex</text>
<text text-anchor="middle" x="249.55" y="-100.5" font-family="Helvetica,sans-Serif" font-size="10.00">Buffer</text>
</a>
</g>
</g>
<!-- Node0&#45;&gt;Node1 -->
<g id="edge1" class="edge">
<title>Node0&#45;&gt;Node1</title>
<path fill="none" stroke="midnightblue" d="M131.29,-78.17C151.92,-83.51 174.55,-89.36 194.37,-94.49"/>
<polygon fill="midnightblue" stroke="midnightblue" points="131.9,-74.72 121.34,-75.6 130.14,-81.49 131.9,-74.72"/>
</g>
<!-- Node2 -->
<g id="node3" class="node">
<title>Node2</title>
<g id="a_node3"><a xlink:href="class_ogre_1_1v1_1_1_g_l3_plus_render_to_vertex_buffer.html" target="_top" xlink:title="An object which renders geometry to a vertex.">
<polygon fill="none" stroke="black" points="178.74,-47.5 178.74,-75.5 320.36,-75.5 320.36,-47.5 178.74,-47.5"/>
<text text-anchor="start" x="186.74" y="-63.5" font-family="Helvetica,sans-Serif" font-size="10.00">Ogre::v1::GL3PlusRenderTo</text>
<text text-anchor="middle" x="249.55" y="-53.5" font-family="Helvetica,sans-Serif" font-size="10.00">VertexBuffer</text>
</a>
</g>
</g>
<!-- Node0&#45;&gt;Node2 -->
<g id="edge2" class="edge">
<title>Node0&#45;&gt;Node2</title>
<path fill="none" stroke="midnightblue" d="M141.75,-61.5C153.91,-61.5 166.46,-61.5 178.5,-61.5"/>
<polygon fill="midnightblue" stroke="midnightblue" points="141.65,-58 131.65,-61.5 141.65,-65 141.65,-58"/>
</g>
<!-- Node3 -->
<g id="node4" class="node">
<title>Node3</title>
<g id="a_node4"><a xlink:href="class_ogre_1_1v1_1_1_g_l_e_s2_render_to_vertex_buffer.html" target="_top" xlink:title=" ">
<polygon fill="none" stroke="black" points="167.62,-0.5 167.62,-28.5 331.48,-28.5 331.48,-0.5 167.62,-0.5"/>
<text text-anchor="start" x="175.62" y="-16.5" font-family="Helvetica,sans-Serif" font-size="10.00">Ogre::v1::GLES2RenderToVertex</text>
<text text-anchor="middle" x="249.55" y="-6.5" font-family="Helvetica,sans-Serif" font-size="10.00">Buffer</text>
</a>
</g>
</g>
<!-- Node0&#45;&gt;Node3 -->
<g id="edge3" class="edge">
<title>Node0&#45;&gt;Node3</title>
<path fill="none" stroke="midnightblue" d="M131.29,-44.83C151.92,-39.49 174.55,-33.64 194.37,-28.51"/>
<polygon fill="midnightblue" stroke="midnightblue" points="130.14,-41.51 121.34,-47.4 131.9,-48.28 130.14,-41.51"/>
</g>
</g>
</svg>
