<?xml version="1.0" encoding="UTF-8" standalone="no"?>
<!DOCTYPE svg PUBLIC "-//W3C//DTD SVG 1.1//EN"
 "http://www.w3.org/Graphics/SVG/1.1/DTD/svg11.dtd">
<!-- Generated by graphviz version 2.43.0 (0)
 -->
<!-- Title: Graphical Class Hierarchy Pages: 1 -->
<svg width="356pt" height="413pt"
 viewBox="0.00 0.00 355.57 413.00" xmlns="http://www.w3.org/2000/svg" xmlns:xlink="http://www.w3.org/1999/xlink">
<g id="graph0" class="graph" transform="scale(1 1) rotate(0) translate(4 409)">
<title>Graphical Class Hierarchy</title>
<!-- Node0 -->
<g id="node1" class="node">
<title>Node0</title>
<g id="a_node1"><a xlink:href="class_ogre_1_1_script_compiler_event.html" target="_top" xlink:title="This struct is a base class for events which can be thrown by the compilers and caught by subscribers...">
<polygon fill="none" stroke="black" points="0,-193.5 0,-211.5 134.93,-211.5 134.93,-193.5 0,-193.5"/>
<text text-anchor="middle" x="67.47" y="-199.5" font-family="Helvetica,sans-Serif" font-size="10.00">Ogre::ScriptCompilerEvent</text>
</a>
</g>
</g>
<!-- Node1 -->
<g id="node2" class="node">
<title>Node1</title>
<g id="a_node2"><a xlink:href="class_ogre_1_1_create_compositor_script_compiler_event.html" target="_top" xlink:title=" ">
<polygon fill="none" stroke="black" points="184,-376.5 184,-404.5 334.49,-404.5 334.49,-376.5 184,-376.5"/>
<text text-anchor="start" x="192" y="-392.5" font-family="Helvetica,sans-Serif" font-size="10.00">Ogre::CreateCompositorScript</text>
<text text-anchor="middle" x="259.25" y="-382.5" font-family="Helvetica,sans-Serif" font-size="10.00">CompilerEvent</text>
</a>
</g>
</g>
<!-- Node0&#45;&gt;Node1 -->
<g id="edge1" class="edge">
<title>Node0&#45;&gt;Node1</title>
<path fill="none" stroke="midnightblue" d="M74.85,-221.45C87.49,-255.99 119.05,-329.17 170.93,-367.5 175.6,-370.95 180.74,-373.88 186.12,-376.37"/>
<polygon fill="midnightblue" stroke="midnightblue" points="78.03,-219.95 71.41,-211.68 71.43,-222.28 78.03,-219.95"/>
</g>
<!-- Node2 -->
<g id="node3" class="node">
<title>Node2</title>
<g id="a_node3"><a xlink:href="class_ogre_1_1_create_gpu_program_script_compiler_event.html" target="_top" xlink:title=" ">
<polygon fill="none" stroke="black" points="180.94,-329.5 180.94,-357.5 337.55,-357.5 337.55,-329.5 180.94,-329.5"/>
<text text-anchor="start" x="188.94" y="-345.5" font-family="Helvetica,sans-Serif" font-size="10.00">Ogre::CreateGpuProgramScript</text>
<text text-anchor="middle" x="259.25" y="-335.5" font-family="Helvetica,sans-Serif" font-size="10.00">CompilerEvent</text>
</a>
</g>
</g>
<!-- Node0&#45;&gt;Node2 -->
<g id="edge2" class="edge">
<title>Node0&#45;&gt;Node2</title>
<path fill="none" stroke="midnightblue" d="M78.99,-220.32C95.32,-246.37 129.26,-294.57 170.93,-320.5 176.52,-323.98 182.63,-326.93 188.93,-329.45"/>
<polygon fill="midnightblue" stroke="midnightblue" points="81.81,-218.22 73.61,-211.51 75.84,-221.87 81.81,-218.22"/>
</g>
<!-- Node3 -->
<g id="node4" class="node">
<title>Node3</title>
<g id="a_node4"><a xlink:href="class_ogre_1_1_create_gpu_shared_parameters_script_compiler_event.html" target="_top" xlink:title=" ">
<polygon fill="none" stroke="black" points="170.93,-282.5 170.93,-310.5 347.57,-310.5 347.57,-282.5 170.93,-282.5"/>
<text text-anchor="start" x="178.93" y="-298.5" font-family="Helvetica,sans-Serif" font-size="10.00">Ogre::CreateGpuSharedParameters</text>
<text text-anchor="middle" x="259.25" y="-288.5" font-family="Helvetica,sans-Serif" font-size="10.00">ScriptCompilerEvent</text>
</a>
</g>
</g>
<!-- Node0&#45;&gt;Node3 -->
<g id="edge3" class="edge">
<title>Node0&#45;&gt;Node3</title>
<path fill="none" stroke="midnightblue" d="M86.56,-217.99C106.15,-234.02 138.91,-258.75 170.93,-273.5 178.33,-276.91 186.33,-279.89 194.38,-282.46"/>
<polygon fill="midnightblue" stroke="midnightblue" points="88.7,-215.21 78.77,-211.5 84.22,-220.59 88.7,-215.21"/>
</g>
<!-- Node4 -->
<g id="node5" class="node">
<title>Node4</title>
<g id="a_node5"><a xlink:href="class_ogre_1_1_create_high_level_gpu_program_script_compiler_event.html" target="_top" xlink:title=" ">
<polygon fill="none" stroke="black" points="186.5,-235.5 186.5,-263.5 331.99,-263.5 331.99,-235.5 186.5,-235.5"/>
<text text-anchor="start" x="194.5" y="-251.5" font-family="Helvetica,sans-Serif" font-size="10.00">Ogre::CreateHighLevelGpu</text>
<text text-anchor="middle" x="259.25" y="-241.5" font-family="Helvetica,sans-Serif" font-size="10.00">ProgramScriptCompilerEvent</text>
</a>
</g>
</g>
<!-- Node0&#45;&gt;Node4 -->
<g id="edge4" class="edge">
<title>Node0&#45;&gt;Node4</title>
<path fill="none" stroke="midnightblue" d="M115.08,-214.04C141.21,-220.52 174,-228.63 201.6,-235.47"/>
<polygon fill="midnightblue" stroke="midnightblue" points="115.61,-210.57 105.06,-211.56 113.92,-217.36 115.61,-210.57"/>
</g>
<!-- Node5 -->
<g id="node6" class="node">
<title>Node5</title>
<g id="a_node6"><a xlink:href="class_ogre_1_1_create_material_script_compiler_event.html" target="_top" xlink:title=" ">
<polygon fill="none" stroke="black" points="191.78,-188.5 191.78,-216.5 326.71,-216.5 326.71,-188.5 191.78,-188.5"/>
<text text-anchor="start" x="199.78" y="-204.5" font-family="Helvetica,sans-Serif" font-size="10.00">Ogre::CreateMaterialScript</text>
<text text-anchor="middle" x="259.25" y="-194.5" font-family="Helvetica,sans-Serif" font-size="10.00">CompilerEvent</text>
</a>
</g>
</g>
<!-- Node0&#45;&gt;Node5 -->
<g id="edge5" class="edge">
<title>Node0&#45;&gt;Node5</title>
<path fill="none" stroke="midnightblue" d="M145.14,-202.5C160.59,-202.5 176.7,-202.5 191.77,-202.5"/>
<polygon fill="midnightblue" stroke="midnightblue" points="145.11,-199 135.11,-202.5 145.11,-206 145.11,-199"/>
</g>
<!-- Node6 -->
<g id="node7" class="node">
<title>Node6</title>
<g id="a_node7"><a xlink:href="class_ogre_1_1_create_particle_system_script_compiler_event.html" target="_top" xlink:title=" ">
<polygon fill="none" stroke="black" points="189,-141.5 189,-169.5 329.49,-169.5 329.49,-141.5 189,-141.5"/>
<text text-anchor="start" x="197" y="-157.5" font-family="Helvetica,sans-Serif" font-size="10.00">Ogre::CreateParticleSystem</text>
<text text-anchor="middle" x="259.25" y="-147.5" font-family="Helvetica,sans-Serif" font-size="10.00">ScriptCompilerEvent</text>
</a>
</g>
</g>
<!-- Node0&#45;&gt;Node6 -->
<g id="edge6" class="edge">
<title>Node0&#45;&gt;Node6</title>
<path fill="none" stroke="midnightblue" d="M115.08,-190.96C141.21,-184.48 174,-176.37 201.6,-169.53"/>
<polygon fill="midnightblue" stroke="midnightblue" points="113.92,-187.64 105.06,-193.44 115.61,-194.43 113.92,-187.64"/>
</g>
<!-- Node7 -->
<g id="node8" class="node">
<title>Node7</title>
<g id="a_node8"><a xlink:href="class_ogre_1_1_pre_apply_texture_aliases_script_compiler_event.html" target="_top" xlink:title=" ">
<polygon fill="none" stroke="black" points="184.55,-94.5 184.55,-122.5 333.94,-122.5 333.94,-94.5 184.55,-94.5"/>
<text text-anchor="start" x="192.55" y="-110.5" font-family="Helvetica,sans-Serif" font-size="10.00">Ogre::PreApplyTextureAliases</text>
<text text-anchor="middle" x="259.25" y="-100.5" font-family="Helvetica,sans-Serif" font-size="10.00">ScriptCompilerEvent</text>
</a>
</g>
</g>
<!-- Node0&#45;&gt;Node7 -->
<g id="edge7" class="edge">
<title>Node0&#45;&gt;Node7</title>
<path fill="none" stroke="midnightblue" d="M86.95,-187.06C106.63,-171.31 139.26,-147.17 170.93,-132.5 179.06,-128.73 187.9,-125.45 196.73,-122.63"/>
<polygon fill="midnightblue" stroke="midnightblue" points="84.65,-184.41 79.1,-193.44 89.07,-189.84 84.65,-184.41"/>
</g>
<!-- Node8 -->
<g id="node9" class="node">
<title>Node8</title>
<g id="a_node9"><a xlink:href="class_ogre_1_1_process_name_exclusion_script_compiler_event.html" target="_top" xlink:title=" ">
<polygon fill="none" stroke="black" points="184.56,-47.5 184.56,-75.5 333.94,-75.5 333.94,-47.5 184.56,-47.5"/>
<text text-anchor="start" x="192.56" y="-63.5" font-family="Helvetica,sans-Serif" font-size="10.00">Ogre::ProcessNameExclusion</text>
<text text-anchor="middle" x="259.25" y="-53.5" font-family="Helvetica,sans-Serif" font-size="10.00">ScriptCompilerEvent</text>
</a>
</g>
</g>
<!-- Node0&#45;&gt;Node8 -->
<g id="edge8" class="edge">
<title>Node0&#45;&gt;Node8</title>
<path fill="none" stroke="midnightblue" d="M79.31,-184.51C95.82,-158.67 129.75,-111.31 170.93,-85.5 177.19,-81.58 184.1,-78.28 191.2,-75.52"/>
<polygon fill="midnightblue" stroke="midnightblue" points="76.17,-182.94 73.85,-193.28 82.11,-186.64 76.17,-182.94"/>
</g>
<!-- Node9 -->
<g id="node10" class="node">
<title>Node9</title>
<g id="a_node10"><a xlink:href="class_ogre_1_1_process_resource_name_script_compiler_event.html" target="_top" xlink:title=" ">
<polygon fill="none" stroke="black" points="184.56,-0.5 184.56,-28.5 333.94,-28.5 333.94,-0.5 184.56,-0.5"/>
<text text-anchor="start" x="192.56" y="-16.5" font-family="Helvetica,sans-Serif" font-size="10.00">Ogre::ProcessResourceName</text>
<text text-anchor="middle" x="259.25" y="-6.5" font-family="Helvetica,sans-Serif" font-size="10.00">ScriptCompilerEvent</text>
</a>
</g>
</g>
<!-- Node0&#45;&gt;Node9 -->
<g id="edge9" class="edge">
<title>Node0&#45;&gt;Node9</title>
<path fill="none" stroke="midnightblue" d="M74.92,-183.72C87.68,-149.47 119.43,-76.87 170.93,-38.5 176.23,-34.56 182.13,-31.26 188.31,-28.5"/>
<polygon fill="midnightblue" stroke="midnightblue" points="71.53,-182.81 71.45,-193.4 78.12,-185.17 71.53,-182.81"/>
</g>
</g>
</svg>
