<?xml version="1.0" encoding="UTF-8" standalone="no"?>
<!DOCTYPE svg PUBLIC "-//W3C//DTD SVG 1.1//EN"
 "http://www.w3.org/Graphics/SVG/1.1/DTD/svg11.dtd">
<!-- Generated by graphviz version 2.43.0 (0)
 -->
<!-- Title: Graphical Class Hierarchy Pages: 1 -->
<svg width="965pt" height="268pt"
 viewBox="0.00 0.00 965.13 268.00" xmlns="http://www.w3.org/2000/svg" xmlns:xlink="http://www.w3.org/1999/xlink">
<g id="graph0" class="graph" transform="scale(1 1) rotate(0) translate(4 264)">
<title>Graphical Class Hierarchy</title>
<!-- Node0 -->
<g id="node1" class="node">
<title>Node0</title>
<g id="a_node1"><a xlink:href="class_ogre_1_1_small_vector_base.html" target="_top" xlink:title="SmallVectorBase &#45; This is all the non&#45;templated stuff common to all SmallVectors.">
<polygon fill="none" stroke="black" points="0,-67.5 0,-85.5 119.94,-85.5 119.94,-67.5 0,-67.5"/>
<text text-anchor="middle" x="59.97" y="-73.5" font-family="Helvetica,sans-Serif" font-size="10.00">Ogre::SmallVectorBase</text>
</a>
</g>
</g>
<!-- Node1 -->
<g id="node2" class="node">
<title>Node1</title>
<g id="a_node2"><a xlink:href="class_ogre_1_1_small_vector_template_common.html" target="_top" xlink:title=" ">
<polygon fill="none" stroke="black" points="155.94,-158.5 155.94,-186.5 293.66,-186.5 293.66,-158.5 155.94,-158.5"/>
<text text-anchor="start" x="163.94" y="-174.5" font-family="Helvetica,sans-Serif" font-size="10.00">Ogre::SmallVectorTemplate</text>
<text text-anchor="middle" x="224.8" y="-164.5" font-family="Helvetica,sans-Serif" font-size="10.00">Common&lt; T &gt;</text>
</a>
</g>
</g>
<!-- Node0&#45;&gt;Node1 -->
<g id="edge1" class="edge">
<title>Node0&#45;&gt;Node1</title>
<path fill="none" stroke="midnightblue" d="M85.12,-90.74C116.05,-108.97 169.32,-140.38 200.05,-158.5"/>
<polygon fill="midnightblue" stroke="midnightblue" points="86.68,-87.6 76.29,-85.53 83.13,-93.63 86.68,-87.6"/>
</g>
<!-- Node10 -->
<g id="node11" class="node">
<title>Node10</title>
<g id="a_node11"><a xlink:href="class_ogre_1_1_small_vector_template_common.html" target="_top" xlink:title=" ">
<polygon fill="none" stroke="black" points="155.94,-62.5 155.94,-90.5 293.66,-90.5 293.66,-62.5 155.94,-62.5"/>
<text text-anchor="start" x="163.94" y="-78.5" font-family="Helvetica,sans-Serif" font-size="10.00">Ogre::SmallVectorTemplate</text>
<text text-anchor="middle" x="224.8" y="-68.5" font-family="Helvetica,sans-Serif" font-size="10.00">Common&lt; Edge &gt;</text>
</a>
</g>
</g>
<!-- Node0&#45;&gt;Node10 -->
<g id="edge10" class="edge">
<title>Node0&#45;&gt;Node10</title>
<path fill="none" stroke="midnightblue" d="M130.37,-76.5C138.78,-76.5 147.37,-76.5 155.76,-76.5"/>
<polygon fill="midnightblue" stroke="midnightblue" points="130.22,-73 120.22,-76.5 130.22,-80 130.22,-73"/>
</g>
<!-- Node15 -->
<g id="node16" class="node">
<title>Node15</title>
<g id="a_node16"><a xlink:href="class_ogre_1_1_small_vector_template_common.html" target="_top" xlink:title=" ">
<polygon fill="none" stroke="black" points="155.94,-10.5 155.94,-38.5 293.66,-38.5 293.66,-10.5 155.94,-10.5"/>
<text text-anchor="start" x="163.94" y="-26.5" font-family="Helvetica,sans-Serif" font-size="10.00">Ogre::SmallVectorTemplate</text>
<text text-anchor="middle" x="224.8" y="-16.5" font-family="Helvetica,sans-Serif" font-size="10.00">Common&lt; Triangle * &gt;</text>
</a>
</g>
</g>
<!-- Node0&#45;&gt;Node15 -->
<g id="edge15" class="edge">
<title>Node0&#45;&gt;Node15</title>
<path fill="none" stroke="midnightblue" d="M98.89,-64.39C123.08,-56.66 154.54,-46.62 179.83,-38.54"/>
<polygon fill="midnightblue" stroke="midnightblue" points="97.79,-61.07 89.33,-67.44 99.92,-67.73 97.79,-61.07"/>
</g>
<!-- Node2 -->
<g id="node3" class="node">
<title>Node2</title>
<g id="a_node3"><a xlink:href="class_ogre_1_1_small_vector_template_base.html" target="_top" xlink:title="SmallVectorTemplateBase&lt;isPodLike = false&gt; &#45; This is where we put method implementations that are des...">
<polygon fill="none" stroke="black" points="330.09,-231.5 330.09,-259.5 467.82,-259.5 467.82,-231.5 330.09,-231.5"/>
<text text-anchor="start" x="338.09" y="-247.5" font-family="Helvetica,sans-Serif" font-size="10.00">Ogre::SmallVectorTemplate</text>
<text text-anchor="middle" x="398.96" y="-237.5" font-family="Helvetica,sans-Serif" font-size="10.00">Base&lt; T, isPodLike &gt;</text>
</a>
</g>
</g>
<!-- Node1&#45;&gt;Node2 -->
<g id="edge2" class="edge">
<title>Node1&#45;&gt;Node2</title>
<path fill="none" stroke="midnightblue" d="M261.69,-191.13C281.47,-201.06 306.62,-213.12 329.66,-222.5 337.31,-225.61 345.55,-228.65 353.58,-231.44"/>
<polygon fill="midnightblue" stroke="midnightblue" points="263.22,-187.99 252.72,-186.6 260.06,-194.23 263.22,-187.99"/>
</g>
<!-- Node3 -->
<g id="node4" class="node">
<title>Node3</title>
<g id="a_node4"><a xlink:href="class_ogre_1_1_small_vector_template_base_3_01_t_00_01true_01_4.html" target="_top" xlink:title="SmallVectorTemplateBase&lt;isPodLike = true&gt; &#45; This is where we put method implementations that are desi...">
<polygon fill="none" stroke="black" points="330.09,-184.5 330.09,-212.5 467.82,-212.5 467.82,-184.5 330.09,-184.5"/>
<text text-anchor="start" x="338.09" y="-200.5" font-family="Helvetica,sans-Serif" font-size="10.00">Ogre::SmallVectorTemplate</text>
<text text-anchor="middle" x="398.96" y="-190.5" font-family="Helvetica,sans-Serif" font-size="10.00">Base&lt; T, true &gt;</text>
</a>
</g>
</g>
<!-- Node1&#45;&gt;Node3 -->
<g id="edge3" class="edge">
<title>Node1&#45;&gt;Node3</title>
<path fill="none" stroke="midnightblue" d="M303.93,-184.3C312.58,-185.61 321.33,-186.93 329.85,-188.21"/>
<polygon fill="midnightblue" stroke="midnightblue" points="304.25,-180.81 293.84,-182.78 303.21,-187.73 304.25,-180.81"/>
</g>
<!-- Node4 -->
<g id="node5" class="node">
<title>Node4</title>
<g id="a_node5"><a xlink:href="class_ogre_1_1_small_vector_template_base.html" target="_top" xlink:title=" ">
<polygon fill="none" stroke="black" points="330.09,-127.5 330.09,-165.5 467.82,-165.5 467.82,-127.5 330.09,-127.5"/>
<text text-anchor="start" x="338.09" y="-153.5" font-family="Helvetica,sans-Serif" font-size="10.00">Ogre::SmallVectorTemplate</text>
<text text-anchor="start" x="338.09" y="-143.5" font-family="Helvetica,sans-Serif" font-size="10.00">Base&lt; T, isPodLike&lt; T &gt;</text>
<text text-anchor="middle" x="398.96" y="-133.5" font-family="Helvetica,sans-Serif" font-size="10.00">::value &gt;</text>
</a>
</g>
</g>
<!-- Node1&#45;&gt;Node4 -->
<g id="edge4" class="edge">
<title>Node1&#45;&gt;Node4</title>
<path fill="none" stroke="midnightblue" d="M303.93,-160.7C312.58,-159.39 321.33,-158.07 329.85,-156.79"/>
<polygon fill="midnightblue" stroke="midnightblue" points="303.21,-157.27 293.84,-162.22 304.25,-164.19 303.21,-157.27"/>
</g>
<!-- Node5 -->
<g id="node6" class="node">
<title>Node5</title>
<g id="a_node6"><a xlink:href="class_ogre_1_1_small_vector_impl.html" target="_top" xlink:title="SmallVectorImpl &#45; This class consists of common code factored out of the SmallVector class to reduce ...">
<polygon fill="none" stroke="black" points="504.25,-146.5 504.25,-164.5 643.28,-164.5 643.28,-146.5 504.25,-146.5"/>
<text text-anchor="middle" x="573.76" y="-152.5" font-family="Helvetica,sans-Serif" font-size="10.00">Ogre::SmallVectorImpl&lt; T &gt;</text>
</a>
</g>
</g>
<!-- Node4&#45;&gt;Node5 -->
<g id="edge5" class="edge">
<title>Node4&#45;&gt;Node5</title>
<path fill="none" stroke="midnightblue" d="M478.29,-150.58C486.91,-151.03 495.63,-151.48 504.11,-151.92"/>
<polygon fill="midnightblue" stroke="midnightblue" points="478.42,-147.08 468.25,-150.06 478.06,-154.07 478.42,-147.08"/>
</g>
<!-- Node6 -->
<g id="node7" class="node">
<title>Node6</title>
<g id="a_node7"><a xlink:href="class_ogre_1_1_small_vector.html" target="_top" xlink:title="SmallVector &#45; This is a &#39;vector&#39; (really, a variable&#45;sized array), optimized for the case when the ar...">
<polygon fill="none" stroke="black" points="679.28,-198.5 679.28,-226.5 782.27,-226.5 782.27,-198.5 679.28,-198.5"/>
<text text-anchor="start" x="687.28" y="-214.5" font-family="Helvetica,sans-Serif" font-size="10.00">Ogre::SmallVector&lt;</text>
<text text-anchor="middle" x="730.77" y="-204.5" font-family="Helvetica,sans-Serif" font-size="10.00"> T, N &gt;</text>
</a>
</g>
</g>
<!-- Node5&#45;&gt;Node6 -->
<g id="edge6" class="edge">
<title>Node5&#45;&gt;Node6</title>
<path fill="none" stroke="midnightblue" d="M608.88,-168.05C633.28,-177.02 666.13,-189.1 691.43,-198.4"/>
<polygon fill="midnightblue" stroke="midnightblue" points="609.92,-164.7 599.32,-164.53 607.5,-171.27 609.92,-164.7"/>
</g>
<!-- Node7 -->
<g id="node8" class="node">
<title>Node7</title>
<g id="a_node8"><a xlink:href="class_ogre_1_1_small_vector_3_01_t_00_010_01_4.html" target="_top" xlink:title="Specialize SmallVector at N=0.">
<polygon fill="none" stroke="black" points="679.28,-151.5 679.28,-179.5 782.27,-179.5 782.27,-151.5 679.28,-151.5"/>
<text text-anchor="start" x="687.28" y="-167.5" font-family="Helvetica,sans-Serif" font-size="10.00">Ogre::SmallVector&lt;</text>
<text text-anchor="middle" x="730.77" y="-157.5" font-family="Helvetica,sans-Serif" font-size="10.00"> T, 0 &gt;</text>
</a>
</g>
</g>
<!-- Node5&#45;&gt;Node7 -->
<g id="edge7" class="edge">
<title>Node5&#45;&gt;Node7</title>
<path fill="none" stroke="midnightblue" d="M653.79,-160.6C662.44,-161.16 671.06,-161.71 679.23,-162.24"/>
<polygon fill="midnightblue" stroke="midnightblue" points="653.86,-157.1 643.66,-159.94 653.41,-164.08 653.86,-157.1"/>
</g>
<!-- Node8 -->
<g id="node9" class="node">
<title>Node8</title>
<g id="a_node9"><a xlink:href="class_ogre_1_1_small_vector.html" target="_top" xlink:title=" ">
<polygon fill="none" stroke="black" points="679.28,-104.5 679.28,-132.5 782.27,-132.5 782.27,-104.5 679.28,-104.5"/>
<text text-anchor="start" x="687.28" y="-120.5" font-family="Helvetica,sans-Serif" font-size="10.00">Ogre::SmallVector&lt;</text>
<text text-anchor="middle" x="730.77" y="-110.5" font-family="Helvetica,sans-Serif" font-size="10.00"> T, S &gt;</text>
</a>
</g>
</g>
<!-- Node5&#45;&gt;Node8 -->
<g id="edge8" class="edge">
<title>Node5&#45;&gt;Node8</title>
<path fill="none" stroke="midnightblue" d="M622.62,-144.08C640.53,-139.8 660.92,-134.93 679.07,-130.6"/>
<polygon fill="midnightblue" stroke="midnightblue" points="621.6,-140.72 612.68,-146.45 623.22,-147.53 621.6,-140.72"/>
</g>
<!-- Node9 -->
<g id="node10" class="node">
<title>Node9</title>
<g id="a_node10"><a xlink:href="struct_ogre_1_1_vector_set.html" target="_top" xlink:title="VectorSet is basically a helper to use a vector as a small set container.">
<polygon fill="none" stroke="black" points="826.98,-109.5 826.98,-127.5 948.42,-127.5 948.42,-109.5 826.98,-109.5"/>
<text text-anchor="middle" x="887.7" y="-115.5" font-family="Helvetica,sans-Serif" font-size="10.00">Ogre::VectorSet&lt; T, S &gt;</text>
</a>
</g>
</g>
<!-- Node8&#45;&gt;Node9 -->
<g id="edge9" class="edge">
<title>Node8&#45;&gt;Node9</title>
<path fill="none" stroke="midnightblue" d="M792.69,-118.5C803.96,-118.5 815.72,-118.5 826.96,-118.5"/>
<polygon fill="midnightblue" stroke="midnightblue" points="792.5,-115 782.5,-118.5 792.5,-122 792.5,-115"/>
</g>
<!-- Node11 -->
<g id="node12" class="node">
<title>Node11</title>
<g id="a_node12"><a xlink:href="class_ogre_1_1_small_vector_template_base.html" target="_top" xlink:title=" ">
<polygon fill="none" stroke="black" points="330.09,-57.5 330.09,-95.5 467.82,-95.5 467.82,-57.5 330.09,-57.5"/>
<text text-anchor="start" x="338.09" y="-83.5" font-family="Helvetica,sans-Serif" font-size="10.00">Ogre::SmallVectorTemplate</text>
<text text-anchor="start" x="338.09" y="-73.5" font-family="Helvetica,sans-Serif" font-size="10.00">Base&lt; Edge, isPodLike&lt;</text>
<text text-anchor="middle" x="398.96" y="-63.5" font-family="Helvetica,sans-Serif" font-size="10.00"> Edge &gt;::value &gt;</text>
</a>
</g>
</g>
<!-- Node10&#45;&gt;Node11 -->
<g id="edge11" class="edge">
<title>Node10&#45;&gt;Node11</title>
<path fill="none" stroke="midnightblue" d="M303.93,-76.5C312.58,-76.5 321.33,-76.5 329.85,-76.5"/>
<polygon fill="midnightblue" stroke="midnightblue" points="303.84,-73 293.84,-76.5 303.84,-80 303.84,-73"/>
</g>
<!-- Node12 -->
<g id="node13" class="node">
<title>Node12</title>
<g id="a_node13"><a xlink:href="class_ogre_1_1_small_vector_impl.html" target="_top" xlink:title=" ">
<polygon fill="none" stroke="black" points="515.74,-60.5 515.74,-88.5 631.78,-88.5 631.78,-60.5 515.74,-60.5"/>
<text text-anchor="start" x="523.74" y="-76.5" font-family="Helvetica,sans-Serif" font-size="10.00">Ogre::SmallVectorImpl</text>
<text text-anchor="middle" x="573.76" y="-66.5" font-family="Helvetica,sans-Serif" font-size="10.00">&lt; Edge &gt;</text>
</a>
</g>
</g>
<!-- Node11&#45;&gt;Node12 -->
<g id="edge12" class="edge">
<title>Node11&#45;&gt;Node12</title>
<path fill="none" stroke="midnightblue" d="M478.25,-75.59C490.81,-75.45 503.6,-75.3 515.54,-75.16"/>
<polygon fill="midnightblue" stroke="midnightblue" points="478.21,-72.09 468.25,-75.71 478.29,-79.09 478.21,-72.09"/>
</g>
<!-- Node13 -->
<g id="node14" class="node">
<title>Node13</title>
<g id="a_node14"><a xlink:href="class_ogre_1_1_small_vector.html" target="_top" xlink:title=" ">
<polygon fill="none" stroke="black" points="679.28,-57.5 679.28,-85.5 782.27,-85.5 782.27,-57.5 679.28,-57.5"/>
<text text-anchor="start" x="687.28" y="-73.5" font-family="Helvetica,sans-Serif" font-size="10.00">Ogre::SmallVector&lt;</text>
<text text-anchor="middle" x="730.77" y="-63.5" font-family="Helvetica,sans-Serif" font-size="10.00"> Edge, S &gt;</text>
</a>
</g>
</g>
<!-- Node12&#45;&gt;Node13 -->
<g id="edge13" class="edge">
<title>Node12&#45;&gt;Node13</title>
<path fill="none" stroke="midnightblue" d="M642.31,-73.19C654.66,-72.95 667.36,-72.71 679.12,-72.48"/>
<polygon fill="midnightblue" stroke="midnightblue" points="641.97,-69.7 632.04,-73.39 642.11,-76.7 641.97,-69.7"/>
</g>
<!-- Node14 -->
<g id="node15" class="node">
<title>Node14</title>
<g id="a_node15"><a xlink:href="struct_ogre_1_1_vector_set.html" target="_top" xlink:title=" ">
<polygon fill="none" stroke="black" points="818.27,-62.5 818.27,-80.5 957.13,-80.5 957.13,-62.5 818.27,-62.5"/>
<text text-anchor="middle" x="887.7" y="-68.5" font-family="Helvetica,sans-Serif" font-size="10.00">Ogre::VectorSet&lt; Edge, 8 &gt;</text>
</a>
</g>
</g>
<!-- Node13&#45;&gt;Node14 -->
<g id="edge14" class="edge">
<title>Node13&#45;&gt;Node14</title>
<path fill="none" stroke="midnightblue" d="M792.56,-71.5C800.95,-71.5 809.61,-71.5 818.12,-71.5"/>
<polygon fill="midnightblue" stroke="midnightblue" points="792.5,-68 782.5,-71.5 792.5,-75 792.5,-68"/>
</g>
<!-- Node16 -->
<g id="node17" class="node">
<title>Node16</title>
<g id="a_node17"><a xlink:href="class_ogre_1_1_small_vector_template_base.html" target="_top" xlink:title=" ">
<polygon fill="none" stroke="black" points="329.66,-0.5 329.66,-38.5 468.25,-38.5 468.25,-0.5 329.66,-0.5"/>
<text text-anchor="start" x="337.66" y="-26.5" font-family="Helvetica,sans-Serif" font-size="10.00">Ogre::SmallVectorTemplate</text>
<text text-anchor="start" x="337.66" y="-16.5" font-family="Helvetica,sans-Serif" font-size="10.00">Base&lt; Triangle *, isPodLike</text>
<text text-anchor="middle" x="398.96" y="-6.5" font-family="Helvetica,sans-Serif" font-size="10.00">&lt; Triangle * &gt;::value &gt;</text>
</a>
</g>
</g>
<!-- Node15&#45;&gt;Node16 -->
<g id="edge16" class="edge">
<title>Node15&#45;&gt;Node16</title>
<path fill="none" stroke="midnightblue" d="M303.84,-22.23C312.43,-21.98 321.11,-21.73 329.56,-21.49"/>
<polygon fill="midnightblue" stroke="midnightblue" points="303.74,-18.73 293.84,-22.52 303.94,-25.73 303.74,-18.73"/>
</g>
<!-- Node17 -->
<g id="node18" class="node">
<title>Node17</title>
<g id="a_node18"><a xlink:href="class_ogre_1_1_small_vector_impl.html" target="_top" xlink:title=" ">
<polygon fill="none" stroke="black" points="515.74,-5.5 515.74,-33.5 631.78,-33.5 631.78,-5.5 515.74,-5.5"/>
<text text-anchor="start" x="523.74" y="-21.5" font-family="Helvetica,sans-Serif" font-size="10.00">Ogre::SmallVectorImpl</text>
<text text-anchor="middle" x="573.76" y="-11.5" font-family="Helvetica,sans-Serif" font-size="10.00">&lt; Triangle * &gt;</text>
</a>
</g>
</g>
<!-- Node16&#45;&gt;Node17 -->
<g id="edge17" class="edge">
<title>Node16&#45;&gt;Node17</title>
<path fill="none" stroke="midnightblue" d="M478.25,-19.5C490.81,-19.5 503.6,-19.5 515.54,-19.5"/>
<polygon fill="midnightblue" stroke="midnightblue" points="478.25,-16 468.25,-19.5 478.25,-23 478.25,-16"/>
</g>
<!-- Node18 -->
<g id="node19" class="node">
<title>Node18</title>
<g id="a_node19"><a xlink:href="class_ogre_1_1_small_vector.html" target="_top" xlink:title=" ">
<polygon fill="none" stroke="black" points="679.28,-5.5 679.28,-33.5 782.27,-33.5 782.27,-5.5 679.28,-5.5"/>
<text text-anchor="start" x="687.28" y="-21.5" font-family="Helvetica,sans-Serif" font-size="10.00">Ogre::SmallVector&lt;</text>
<text text-anchor="middle" x="730.77" y="-11.5" font-family="Helvetica,sans-Serif" font-size="10.00"> Triangle *, S &gt;</text>
</a>
</g>
</g>
<!-- Node17&#45;&gt;Node18 -->
<g id="edge18" class="edge">
<title>Node17&#45;&gt;Node18</title>
<path fill="none" stroke="midnightblue" d="M642.31,-19.5C654.66,-19.5 667.36,-19.5 679.12,-19.5"/>
<polygon fill="midnightblue" stroke="midnightblue" points="642.04,-16 632.04,-19.5 642.04,-23 642.04,-16"/>
</g>
<!-- Node19 -->
<g id="node20" class="node">
<title>Node19</title>
<g id="a_node20"><a xlink:href="struct_ogre_1_1_vector_set.html" target="_top" xlink:title=" ">
<polygon fill="none" stroke="black" points="822.02,-5.5 822.02,-33.5 953.38,-33.5 953.38,-5.5 822.02,-5.5"/>
<text text-anchor="start" x="830.02" y="-21.5" font-family="Helvetica,sans-Serif" font-size="10.00">Ogre::VectorSet&lt; Triangle</text>
<text text-anchor="middle" x="887.7" y="-11.5" font-family="Helvetica,sans-Serif" font-size="10.00"> *, 7 &gt;</text>
</a>
</g>
</g>
<!-- Node18&#45;&gt;Node19 -->
<g id="edge19" class="edge">
<title>Node18&#45;&gt;Node19</title>
<path fill="none" stroke="midnightblue" d="M792.76,-19.5C802.36,-19.5 812.32,-19.5 822.01,-19.5"/>
<polygon fill="midnightblue" stroke="midnightblue" points="792.5,-16 782.5,-19.5 792.5,-23 792.5,-16"/>
</g>
</g>
</svg>
