<?xml version="1.0" encoding="UTF-8" standalone="no"?>
<!DOCTYPE svg PUBLIC "-//W3C//DTD SVG 1.1//EN"
 "http://www.w3.org/Graphics/SVG/1.1/DTD/svg11.dtd">
<!-- Generated by graphviz version 2.43.0 (0)
 -->
<!-- Title: Graphical Class Hierarchy Pages: 1 -->
<svg width="304pt" height="225pt"
 viewBox="0.00 0.00 303.69 225.00" xmlns="http://www.w3.org/2000/svg" xmlns:xlink="http://www.w3.org/1999/xlink">
<g id="graph0" class="graph" transform="scale(1 1) rotate(0) translate(4 221)">
<title>Graphical Class Hierarchy</title>
<!-- Node0 -->
<g id="node1" class="node">
<title>Node0</title>
<g id="a_node1"><a xlink:href="class_ogre_1_1_obj_cmd_buffer_1_1_cmd.html" target="_top" xlink:title=" ">
<polygon fill="none" stroke="black" points="0,-99.5 0,-117.5 133.64,-117.5 133.64,-99.5 0,-99.5"/>
<text text-anchor="middle" x="66.82" y="-105.5" font-family="Helvetica,sans-Serif" font-size="10.00">Ogre::ObjCmdBuffer::Cmd</text>
</a>
</g>
</g>
<!-- Node1 -->
<g id="node2" class="node">
<title>Node1</title>
<g id="a_node2"><a xlink:href="class_ogre_1_1_obj_cmd_buffer_1_1_exception_thrown.html" target="_top" xlink:title=" ">
<polygon fill="none" stroke="black" points="179.18,-188.5 179.18,-216.5 286.15,-216.5 286.15,-188.5 179.18,-188.5"/>
<text text-anchor="start" x="187.18" y="-204.5" font-family="Helvetica,sans-Serif" font-size="10.00">Ogre::ObjCmdBuffer</text>
<text text-anchor="middle" x="232.66" y="-194.5" font-family="Helvetica,sans-Serif" font-size="10.00">::ExceptionThrown</text>
</a>
</g>
</g>
<!-- Node0&#45;&gt;Node1 -->
<g id="edge1" class="edge">
<title>Node0&#45;&gt;Node1</title>
<path fill="none" stroke="midnightblue" d="M86.72,-123.89C106.49,-139.44 138.86,-163.4 169.64,-179.5 175.84,-182.75 182.62,-185.75 189.33,-188.45"/>
<polygon fill="midnightblue" stroke="midnightblue" points="88.82,-121.09 78.82,-117.59 84.46,-126.56 88.82,-121.09"/>
</g>
<!-- Node2 -->
<g id="node3" class="node">
<title>Node2</title>
<g id="a_node3"><a xlink:href="class_ogre_1_1_obj_cmd_buffer_1_1_notify_data_is_ready.html" target="_top" xlink:title=" ">
<polygon fill="none" stroke="black" points="179.18,-141.5 179.18,-169.5 286.15,-169.5 286.15,-141.5 179.18,-141.5"/>
<text text-anchor="start" x="187.18" y="-157.5" font-family="Helvetica,sans-Serif" font-size="10.00">Ogre::ObjCmdBuffer</text>
<text text-anchor="middle" x="232.66" y="-147.5" font-family="Helvetica,sans-Serif" font-size="10.00">::NotifyDataIsReady</text>
</a>
</g>
</g>
<!-- Node0&#45;&gt;Node2 -->
<g id="edge2" class="edge">
<title>Node0&#45;&gt;Node2</title>
<path fill="none" stroke="midnightblue" d="M109.27,-120.39C131.62,-126.8 159.35,-134.76 182.75,-141.47"/>
<polygon fill="midnightblue" stroke="midnightblue" points="109.99,-116.96 99.41,-117.56 108.06,-123.68 109.99,-116.96"/>
</g>
<!-- Node3 -->
<g id="node4" class="node">
<title>Node3</title>
<g id="a_node4"><a xlink:href="class_ogre_1_1_obj_cmd_buffer_1_1_out_of_date_cache.html" target="_top" xlink:title=" ">
<polygon fill="none" stroke="black" points="179.18,-94.5 179.18,-122.5 286.15,-122.5 286.15,-94.5 179.18,-94.5"/>
<text text-anchor="start" x="187.18" y="-110.5" font-family="Helvetica,sans-Serif" font-size="10.00">Ogre::ObjCmdBuffer</text>
<text text-anchor="middle" x="232.66" y="-100.5" font-family="Helvetica,sans-Serif" font-size="10.00">::OutOfDateCache</text>
</a>
</g>
</g>
<!-- Node0&#45;&gt;Node3 -->
<g id="edge3" class="edge">
<title>Node0&#45;&gt;Node3</title>
<path fill="none" stroke="midnightblue" d="M144.28,-108.5C156.06,-108.5 167.99,-108.5 179.1,-108.5"/>
<polygon fill="midnightblue" stroke="midnightblue" points="143.99,-105 133.99,-108.5 143.99,-112 143.99,-105"/>
</g>
<!-- Node4 -->
<g id="node5" class="node">
<title>Node4</title>
<g id="a_node5"><a xlink:href="class_ogre_1_1_obj_cmd_buffer_1_1_transition_to_loaded.html" target="_top" xlink:title=" ">
<polygon fill="none" stroke="black" points="178.15,-47.5 178.15,-75.5 287.18,-75.5 287.18,-47.5 178.15,-47.5"/>
<text text-anchor="start" x="186.15" y="-63.5" font-family="Helvetica,sans-Serif" font-size="10.00">Ogre::ObjCmdBuffer</text>
<text text-anchor="middle" x="232.66" y="-53.5" font-family="Helvetica,sans-Serif" font-size="10.00">::TransitionToLoaded</text>
</a>
</g>
</g>
<!-- Node0&#45;&gt;Node4 -->
<g id="edge4" class="edge">
<title>Node0&#45;&gt;Node4</title>
<path fill="none" stroke="midnightblue" d="M109.27,-96.61C131.62,-90.2 159.35,-82.24 182.75,-75.53"/>
<polygon fill="midnightblue" stroke="midnightblue" points="108.06,-93.32 99.41,-99.44 109.99,-100.04 108.06,-93.32"/>
</g>
<!-- Node5 -->
<g id="node6" class="node">
<title>Node5</title>
<g id="a_node6"><a xlink:href="class_ogre_1_1_obj_cmd_buffer_1_1_upload_from_staging_tex.html" target="_top" xlink:title=" ">
<polygon fill="none" stroke="black" points="169.64,-0.5 169.64,-28.5 295.69,-28.5 295.69,-0.5 169.64,-0.5"/>
<text text-anchor="start" x="177.64" y="-16.5" font-family="Helvetica,sans-Serif" font-size="10.00">Ogre::ObjCmdBuffer</text>
<text text-anchor="middle" x="232.66" y="-6.5" font-family="Helvetica,sans-Serif" font-size="10.00">::UploadFromStagingTex</text>
</a>
</g>
</g>
<!-- Node0&#45;&gt;Node5 -->
<g id="edge5" class="edge">
<title>Node0&#45;&gt;Node5</title>
<path fill="none" stroke="midnightblue" d="M87.12,-93.19C106.99,-77.94 139.23,-54.55 169.64,-38.5 176.48,-34.89 183.99,-31.52 191.35,-28.52"/>
<polygon fill="midnightblue" stroke="midnightblue" points="84.92,-90.48 79.17,-99.38 89.21,-96 84.92,-90.48"/>
</g>
</g>
</svg>
