<?xml version="1.0" encoding="UTF-8" standalone="no"?>
<!DOCTYPE svg PUBLIC "-//W3C//DTD SVG 1.1//EN"
 "http://www.w3.org/Graphics/SVG/1.1/DTD/svg11.dtd">
<!-- Generated by graphviz version 2.43.0 (0)
 -->
<!-- Title: Graphical Class Hierarchy Pages: 1 -->
<svg width="519pt" height="64pt"
 viewBox="0.00 0.00 518.72 64.00" xmlns="http://www.w3.org/2000/svg" xmlns:xlink="http://www.w3.org/1999/xlink">
<g id="graph0" class="graph" transform="scale(1 1) rotate(0) translate(4 60)">
<title>Graphical Class Hierarchy</title>
<!-- Node1338 -->
<g id="node1" class="node">
<title>Node1338</title>
<g id="a_node1"><a xlink:href="class_ogre_1_1_hlms_json_listener.html" target="_top" xlink:title=" ">
<polygon fill="none" stroke="black" points="20.29,-37.5 20.29,-55.5 143.55,-55.5 143.55,-37.5 20.29,-37.5"/>
<text text-anchor="middle" x="81.92" y="-43.5" font-family="Helvetica,sans-Serif" font-size="10.00">Ogre::HlmsJsonListener</text>
</a>
</g>
</g>
<!-- Node1 -->
<g id="node2" class="node">
<title>Node1</title>
<g id="a_node2"><a xlink:href="class_ogre_1_1_scene_format_listener.html" target="_top" xlink:title="Override this listener if you want to filter which objects get exported.">
<polygon fill="none" stroke="black" points="199.83,-18.5 199.83,-36.5 339.22,-36.5 339.22,-18.5 199.83,-18.5"/>
<text text-anchor="middle" x="269.53" y="-24.5" font-family="Helvetica,sans-Serif" font-size="10.00">Ogre::SceneFormatListener</text>
</a>
</g>
</g>
<!-- Node1338&#45;&gt;Node1 -->
<g id="edge1" class="edge">
<title>Node1338&#45;&gt;Node1</title>
<path fill="none" stroke="midnightblue" d="M153.91,-39.23C168.89,-37.7 184.67,-36.08 199.57,-34.56"/>
<polygon fill="midnightblue" stroke="midnightblue" points="153.28,-35.78 143.69,-40.28 154,-42.74 153.28,-35.78"/>
</g>
<!-- Node2 -->
<g id="node3" class="node">
<title>Node2</title>
<g id="a_node3"><a xlink:href="class_ogre_1_1_default_scene_format_listener.html" target="_top" xlink:title="Default implementation that prevents a SceneNode from being exported if the only attached objects.">
<polygon fill="none" stroke="black" points="375.22,-13.5 375.22,-41.5 510.72,-41.5 510.72,-13.5 375.22,-13.5"/>
<text text-anchor="start" x="383.22" y="-29.5" font-family="Helvetica,sans-Serif" font-size="10.00">Ogre::DefaultSceneFormat</text>
<text text-anchor="middle" x="442.97" y="-19.5" font-family="Helvetica,sans-Serif" font-size="10.00">Listener</text>
</a>
</g>
</g>
<!-- Node1&#45;&gt;Node2 -->
<g id="edge2" class="edge">
<title>Node1&#45;&gt;Node2</title>
<path fill="none" stroke="midnightblue" d="M349.34,-27.5C357.97,-27.5 366.7,-27.5 375.16,-27.5"/>
<polygon fill="midnightblue" stroke="midnightblue" points="349.27,-24 339.27,-27.5 349.27,-31 349.27,-24"/>
</g>
<!-- Node0 -->
<g id="node4" class="node">
<title>Node0</title>
<g id="a_node4"><a xlink:href="class_ogre_1_1_hlms_texture_export_listener.html" target="_top" xlink:title=" ">
<polygon fill="none" stroke="black" points="0,-0.5 0,-18.5 163.83,-18.5 163.83,-0.5 0,-0.5"/>
<text text-anchor="middle" x="81.92" y="-6.5" font-family="Helvetica,sans-Serif" font-size="10.00">Ogre::HlmsTextureExportListener</text>
</a>
</g>
</g>
<!-- Node0&#45;&gt;Node1 -->
<g id="edge3" class="edge">
<title>Node0&#45;&gt;Node1</title>
<path fill="none" stroke="midnightblue" d="M174.14,-18.35C182.76,-19.18 191.39,-20.02 199.74,-20.83"/>
<polygon fill="midnightblue" stroke="midnightblue" points="174.35,-14.85 164.06,-17.37 173.67,-21.82 174.35,-14.85"/>
</g>
</g>
</svg>
