<?xml version="1.0" encoding="UTF-8" standalone="no"?>
<!DOCTYPE svg PUBLIC "-//W3C//DTD SVG 1.1//EN"
 "http://www.w3.org/Graphics/SVG/1.1/DTD/svg11.dtd">
<!-- Generated by graphviz version 2.43.0 (0)
 -->
<!-- Title: OgreMetalView Pages: 1 -->
<svg width="124pt" height="82pt"
 viewBox="0.00 0.00 124.44 82.00" xmlns="http://www.w3.org/2000/svg" xmlns:xlink="http://www.w3.org/1999/xlink">
<g id="graph0" class="graph" transform="scale(1 1) rotate(0) translate(4 78)">
<title>OgreMetalView</title>
<!-- Node1 -->
<g id="node1" class="node">
<title>Node1</title>
<g id="a_node1"><a xlink:title=" ">
<polygon fill="#bfbfbf" stroke="black" points="16.6,-0.5 16.6,-18.5 100.79,-18.5 100.79,-0.5 16.6,-0.5"/>
<text text-anchor="middle" x="58.7" y="-6.5" font-family="Helvetica,sans-Serif" font-size="10.00">OgreMetalView</text>
</a>
</g>
</g>
<!-- Node2 -->
<g id="node2" class="node">
<title>Node2</title>
<g id="a_node2"><a xlink:title=" ">
<polygon fill="none" stroke="#bfbfbf" points="0,-55.5 0,-73.5 51.39,-73.5 51.39,-55.5 0,-55.5"/>
<text text-anchor="middle" x="25.7" y="-61.5" font-family="Helvetica,sans-Serif" font-size="10.00">NSView</text>
</a>
</g>
</g>
<!-- Node2&#45;&gt;Node1 -->
<g id="edge1" class="edge">
<title>Node2&#45;&gt;Node1</title>
<path fill="none" stroke="midnightblue" d="M36.18,-46.66C42.03,-37.26 49.06,-25.98 53.68,-18.55"/>
<polygon fill="midnightblue" stroke="midnightblue" points="33.17,-44.88 30.85,-55.22 39.11,-48.58 33.17,-44.88"/>
</g>
<!-- Node3 -->
<g id="node3" class="node">
<title>Node3</title>
<g id="a_node3"><a xlink:title=" ">
<polygon fill="none" stroke="#bfbfbf" points="68.95,-55.5 68.95,-73.5 116.44,-73.5 116.44,-55.5 68.95,-55.5"/>
<text text-anchor="middle" x="92.7" y="-61.5" font-family="Helvetica,sans-Serif" font-size="10.00">UIView</text>
</a>
</g>
</g>
<!-- Node3&#45;&gt;Node1 -->
<g id="edge2" class="edge">
<title>Node3&#45;&gt;Node1</title>
<path fill="none" stroke="midnightblue" d="M81.89,-46.66C75.86,-37.26 68.63,-25.98 63.86,-18.55"/>
<polygon fill="midnightblue" stroke="midnightblue" points="79.04,-48.69 87.38,-55.22 84.93,-44.91 79.04,-48.69"/>
</g>
</g>
</svg>
