<?xml version="1.0" encoding="UTF-8" standalone="no"?>
<!DOCTYPE svg PUBLIC "-//W3C//DTD SVG 1.1//EN"
 "http://www.w3.org/Graphics/SVG/1.1/DTD/svg11.dtd">
<!-- Generated by graphviz version 2.43.0 (0)
 -->
<!-- Title: Ogre::BasicBlock Pages: 1 -->
<svg width="404pt" height="82pt"
 viewBox="0.00 0.00 404.31 82.00" xmlns="http://www.w3.org/2000/svg" xmlns:xlink="http://www.w3.org/1999/xlink">
<g id="graph0" class="graph" transform="scale(1 1) rotate(0) translate(4 78)">
<title>Ogre::BasicBlock</title>
<!-- Node1 -->
<g id="node1" class="node">
<title>Node1</title>
<g id="a_node1"><a xlink:title=" ">
<polygon fill="#bfbfbf" stroke="black" points="146.39,-55.5 146.39,-73.5 239.09,-73.5 239.09,-55.5 146.39,-55.5"/>
<text text-anchor="middle" x="192.74" y="-61.5" font-family="Helvetica,sans-Serif" font-size="10.00">Ogre::BasicBlock</text>
</a>
</g>
</g>
<!-- Node2 -->
<g id="node2" class="node">
<title>Node2</title>
<g id="a_node2"><a xlink:href="struct_ogre_1_1_hlms_blendblock.html" target="_top" xlink:title="A blend block contains settings that rarely change, and thus are common to many materials.">
<polygon fill="none" stroke="black" points="0,-0.5 0,-18.5 115.48,-18.5 115.48,-0.5 0,-0.5"/>
<text text-anchor="middle" x="57.74" y="-6.5" font-family="Helvetica,sans-Serif" font-size="10.00">Ogre::HlmsBlendblock</text>
</a>
</g>
</g>
<!-- Node1&#45;&gt;Node2 -->
<g id="edge1" class="edge">
<title>Node1&#45;&gt;Node2</title>
<path fill="none" stroke="midnightblue" d="M162.65,-51.69C137.03,-41.63 100.92,-27.45 78.44,-18.63"/>
<polygon fill="midnightblue" stroke="midnightblue" points="161.65,-55.05 172.24,-55.45 164.21,-48.54 161.65,-55.05"/>
</g>
<!-- Node3 -->
<g id="node3" class="node">
<title>Node3</title>
<g id="a_node3"><a xlink:href="struct_ogre_1_1_hlms_macroblock.html" target="_top" xlink:title="A macro block contains settings that will rarely change, and thus are common to many materials.">
<polygon fill="none" stroke="black" points="133.9,-0.5 133.9,-18.5 251.59,-18.5 251.59,-0.5 133.9,-0.5"/>
<text text-anchor="middle" x="192.74" y="-6.5" font-family="Helvetica,sans-Serif" font-size="10.00">Ogre::HlmsMacroblock</text>
</a>
</g>
</g>
<!-- Node1&#45;&gt;Node3 -->
<g id="edge2" class="edge">
<title>Node1&#45;&gt;Node3</title>
<path fill="none" stroke="midnightblue" d="M192.74,-45.17C192.74,-36.09 192.74,-25.59 192.74,-18.55"/>
<polygon fill="midnightblue" stroke="midnightblue" points="189.24,-45.22 192.74,-55.22 196.24,-45.22 189.24,-45.22"/>
</g>
<!-- Node4 -->
<g id="node4" class="node">
<title>Node4</title>
<g id="a_node4"><a xlink:href="struct_ogre_1_1_hlms_samplerblock.html" target="_top" xlink:title="A sampler block contains settings that go hand in hand with a texture, and thus are common to many te...">
<polygon fill="none" stroke="black" points="269.17,-0.5 269.17,-18.5 396.31,-18.5 396.31,-0.5 269.17,-0.5"/>
<text text-anchor="middle" x="332.74" y="-6.5" font-family="Helvetica,sans-Serif" font-size="10.00">Ogre::HlmsSamplerblock</text>
</a>
</g>
</g>
<!-- Node1&#45;&gt;Node4 -->
<g id="edge3" class="edge">
<title>Node1&#45;&gt;Node4</title>
<path fill="none" stroke="midnightblue" d="M223.6,-51.82C250.18,-41.76 287.86,-27.49 311.28,-18.63"/>
<polygon fill="midnightblue" stroke="midnightblue" points="222.12,-48.64 214,-55.45 224.6,-55.18 222.12,-48.64"/>
</g>
</g>
</svg>
