<?xml version="1.0" encoding="UTF-8" standalone="no"?>
<!DOCTYPE svg PUBLIC "-//W3C//DTD SVG 1.1//EN"
 "http://www.w3.org/Graphics/SVG/1.1/DTD/svg11.dtd">
<!-- Generated by graphviz version 2.43.0 (0)
 -->
<!-- Title: Ogre::CbDrawCall Pages: 1 -->
<svg width="276pt" height="137pt"
 viewBox="0.00 0.00 276.21 137.00" xmlns="http://www.w3.org/2000/svg" xmlns:xlink="http://www.w3.org/1999/xlink">
<g id="graph0" class="graph" transform="scale(1 1) rotate(0) translate(4 133)">
<title>Ogre::CbDrawCall</title>
<!-- Node1 -->
<g id="node1" class="node">
<title>Node1</title>
<g id="a_node1"><a xlink:title=" ">
<polygon fill="#bfbfbf" stroke="black" points="88.79,-55.5 88.79,-73.5 185.93,-73.5 185.93,-55.5 88.79,-55.5"/>
<text text-anchor="middle" x="137.36" y="-61.5" font-family="Helvetica,sans-Serif" font-size="10.00">Ogre::CbDrawCall</text>
</a>
</g>
</g>
<!-- Node3 -->
<g id="node3" class="node">
<title>Node3</title>
<g id="a_node3"><a xlink:href="struct_ogre_1_1_cb_draw_call_indexed.html" target="_top" xlink:title=" ">
<polygon fill="none" stroke="black" points="0,-0.5 0,-18.5 132.72,-18.5 132.72,-0.5 0,-0.5"/>
<text text-anchor="middle" x="66.36" y="-6.5" font-family="Helvetica,sans-Serif" font-size="10.00">Ogre::CbDrawCallIndexed</text>
</a>
</g>
</g>
<!-- Node1&#45;&gt;Node3 -->
<g id="edge2" class="edge">
<title>Node1&#45;&gt;Node3</title>
<path fill="none" stroke="midnightblue" d="M118.22,-49.21C105.08,-39.41 88.12,-26.75 77.24,-18.63"/>
<polygon fill="midnightblue" stroke="midnightblue" points="116.47,-52.27 126.58,-55.45 120.66,-46.66 116.47,-52.27"/>
</g>
<!-- Node4 -->
<g id="node4" class="node">
<title>Node4</title>
<g id="a_node4"><a xlink:href="struct_ogre_1_1_cb_draw_call_strip.html" target="_top" xlink:title=" ">
<polygon fill="none" stroke="black" points="150.51,-0.5 150.51,-18.5 268.21,-18.5 268.21,-0.5 150.51,-0.5"/>
<text text-anchor="middle" x="209.36" y="-6.5" font-family="Helvetica,sans-Serif" font-size="10.00">Ogre::CbDrawCallStrip</text>
</a>
</g>
</g>
<!-- Node1&#45;&gt;Node4 -->
<g id="edge3" class="edge">
<title>Node1&#45;&gt;Node4</title>
<path fill="none" stroke="midnightblue" d="M156.39,-49.49C169.76,-39.65 187.18,-26.83 198.32,-18.63"/>
<polygon fill="midnightblue" stroke="midnightblue" points="154.27,-46.7 148.29,-55.45 158.42,-52.34 154.27,-46.7"/>
</g>
<!-- Node2 -->
<g id="node2" class="node">
<title>Node2</title>
<g id="a_node2"><a xlink:href="struct_ogre_1_1_cb_base.html" target="_top" xlink:title=" ">
<polygon fill="none" stroke="black" points="97.68,-110.5 97.68,-128.5 177.04,-128.5 177.04,-110.5 97.68,-110.5"/>
<text text-anchor="middle" x="137.36" y="-116.5" font-family="Helvetica,sans-Serif" font-size="10.00">Ogre::CbBase</text>
</a>
</g>
</g>
<!-- Node2&#45;&gt;Node1 -->
<g id="edge1" class="edge">
<title>Node2&#45;&gt;Node1</title>
<path fill="none" stroke="midnightblue" d="M137.36,-100.17C137.36,-91.09 137.36,-80.59 137.36,-73.55"/>
<polygon fill="midnightblue" stroke="midnightblue" points="133.86,-100.22 137.36,-110.22 140.86,-100.22 133.86,-100.22"/>
</g>
</g>
</svg>
