<?xml version="1.0" encoding="UTF-8" standalone="no"?>
<!DOCTYPE svg PUBLIC "-//W3C//DTD SVG 1.1//EN"
 "http://www.w3.org/Graphics/SVG/1.1/DTD/svg11.dtd">
<!-- Generated by graphviz version 2.43.0 (0)
 -->
<!-- Title: Ogre::v1::CbDrawCall Pages: 1 -->
<svg width="308pt" height="137pt"
 viewBox="0.00 0.00 308.32 137.00" xmlns="http://www.w3.org/2000/svg" xmlns:xlink="http://www.w3.org/1999/xlink">
<g id="graph0" class="graph" transform="scale(1 1) rotate(0) translate(4 133)">
<title>Ogre::v1::CbDrawCall</title>
<!-- Node1 -->
<g id="node1" class="node">
<title>Node1</title>
<g id="a_node1"><a xlink:title=" ">
<polygon fill="#bfbfbf" stroke="black" points="96.79,-55.5 96.79,-73.5 210.04,-73.5 210.04,-55.5 96.79,-55.5"/>
<text text-anchor="middle" x="153.42" y="-61.5" font-family="Helvetica,sans-Serif" font-size="10.00">Ogre::v1::CbDrawCall</text>
</a>
</g>
</g>
<!-- Node3 -->
<g id="node3" class="node">
<title>Node3</title>
<g id="a_node3"><a xlink:href="struct_ogre_1_1v1_1_1_cb_draw_call_indexed.html" target="_top" xlink:title=" ">
<polygon fill="none" stroke="black" points="0,-0.5 0,-18.5 148.84,-18.5 148.84,-0.5 0,-0.5"/>
<text text-anchor="middle" x="74.42" y="-6.5" font-family="Helvetica,sans-Serif" font-size="10.00">Ogre::v1::CbDrawCallIndexed</text>
</a>
</g>
</g>
<!-- Node1&#45;&gt;Node3 -->
<g id="edge2" class="edge">
<title>Node1&#45;&gt;Node3</title>
<path fill="none" stroke="midnightblue" d="M132.96,-49.77C118.23,-39.89 98.87,-26.9 86.53,-18.63"/>
<polygon fill="midnightblue" stroke="midnightblue" points="131.17,-52.79 141.42,-55.45 135.07,-46.97 131.17,-52.79"/>
</g>
<!-- Node4 -->
<g id="node4" class="node">
<title>Node4</title>
<g id="a_node4"><a xlink:href="struct_ogre_1_1v1_1_1_cb_draw_call_strip.html" target="_top" xlink:title=" ">
<polygon fill="none" stroke="black" points="166.51,-0.5 166.51,-18.5 300.32,-18.5 300.32,-0.5 166.51,-0.5"/>
<text text-anchor="middle" x="233.42" y="-6.5" font-family="Helvetica,sans-Serif" font-size="10.00">Ogre::v1::CbDrawCallStrip</text>
</a>
</g>
</g>
<!-- Node1&#45;&gt;Node4 -->
<g id="edge3" class="edge">
<title>Node1&#45;&gt;Node4</title>
<path fill="none" stroke="midnightblue" d="M174.14,-49.77C189.05,-39.89 208.66,-26.9 221.15,-18.63"/>
<polygon fill="midnightblue" stroke="midnightblue" points="171.97,-47.01 165.57,-55.45 175.84,-52.85 171.97,-47.01"/>
</g>
<!-- Node2 -->
<g id="node2" class="node">
<title>Node2</title>
<g id="a_node2"><a xlink:href="struct_ogre_1_1_cb_base.html" target="_top" xlink:title=" ">
<polygon fill="none" stroke="black" points="113.74,-110.5 113.74,-128.5 193.1,-128.5 193.1,-110.5 113.74,-110.5"/>
<text text-anchor="middle" x="153.42" y="-116.5" font-family="Helvetica,sans-Serif" font-size="10.00">Ogre::CbBase</text>
</a>
</g>
</g>
<!-- Node2&#45;&gt;Node1 -->
<g id="edge1" class="edge">
<title>Node2&#45;&gt;Node1</title>
<path fill="none" stroke="midnightblue" d="M153.42,-100.17C153.42,-91.09 153.42,-80.59 153.42,-73.55"/>
<polygon fill="midnightblue" stroke="midnightblue" points="149.92,-100.22 153.42,-110.22 156.92,-100.22 149.92,-100.22"/>
</g>
</g>
</svg>
