<?xml version="1.0" encoding="UTF-8" standalone="no"?>
<!DOCTYPE svg PUBLIC "-//W3C//DTD SVG 1.1//EN"
 "http://www.w3.org/Graphics/SVG/1.1/DTD/svg11.dtd">
<!-- Generated by graphviz version 2.43.0 (0)
 -->
<!-- Title: Ogre::GpuTrackedResource Pages: 1 -->
<svg width="665pt" height="1244pt"
 viewBox="0.00 0.00 664.52 1244.00" xmlns="http://www.w3.org/2000/svg" xmlns:xlink="http://www.w3.org/1999/xlink">
<g id="graph0" class="graph" transform="scale(1 1) rotate(0) translate(4 1240)">
<title>Ogre::GpuTrackedResource</title>
<!-- Node1 -->
<g id="node1" class="node">
<title>Node1</title>
<g id="a_node1"><a xlink:title=" ">
<polygon fill="#bfbfbf" stroke="black" points="0,-251.5 0,-269.5 141.24,-269.5 141.24,-251.5 0,-251.5"/>
<text text-anchor="middle" x="70.62" y="-257.5" font-family="Helvetica,sans-Serif" font-size="10.00">Ogre::GpuTrackedResource</text>
</a>
</g>
</g>
<!-- Node2 -->
<g id="node2" class="node">
<title>Node2</title>
<g id="a_node2"><a xlink:href="class_ogre_1_1_buffer_packed.html" target="_top" xlink:title=" ">
<polygon fill="none" stroke="black" points="177.61,-875.5 177.61,-893.5 281.26,-893.5 281.26,-875.5 177.61,-875.5"/>
<text text-anchor="middle" x="229.43" y="-881.5" font-family="Helvetica,sans-Serif" font-size="10.00">Ogre::BufferPacked</text>
</a>
</g>
</g>
<!-- Node1&#45;&gt;Node2 -->
<g id="edge1" class="edge">
<title>Node1&#45;&gt;Node2</title>
<path fill="none" stroke="midnightblue" d="M76.43,-279.64C100.65,-375.99 208.74,-806.12 226.08,-875.14"/>
<polygon fill="midnightblue" stroke="midnightblue" points="79.79,-278.65 73.96,-269.81 73,-280.36 79.79,-278.65"/>
</g>
<!-- Node24 -->
<g id="node24" class="node">
<title>Node24</title>
<g id="a_node24"><a xlink:href="class_ogre_1_1_render_target.html" target="_top" xlink:title="A &#39;canvas&#39; which can receive the results of a rendering operation.">
<polygon fill="none" stroke="black" points="177.24,-251.5 177.24,-269.5 281.62,-269.5 281.62,-251.5 177.24,-251.5"/>
<text text-anchor="middle" x="229.43" y="-257.5" font-family="Helvetica,sans-Serif" font-size="10.00">Ogre::RenderTarget</text>
</a>
</g>
</g>
<!-- Node1&#45;&gt;Node24 -->
<g id="edge23" class="edge">
<title>Node1&#45;&gt;Node24</title>
<path fill="none" stroke="midnightblue" d="M151.43,-260.5C160.06,-260.5 168.67,-260.5 176.83,-260.5"/>
<polygon fill="midnightblue" stroke="midnightblue" points="151.32,-257 141.32,-260.5 151.32,-264 151.32,-257"/>
</g>
<!-- Node61 -->
<g id="node45" class="node">
<title>Node61</title>
<g id="a_node45"><a xlink:href="class_ogre_1_1_texture_gpu.html" target="_top" xlink:title=" ">
<polygon fill="none" stroke="black" points="181.69,-140.5 181.69,-158.5 277.17,-158.5 277.17,-140.5 181.69,-140.5"/>
<text text-anchor="middle" x="229.43" y="-146.5" font-family="Helvetica,sans-Serif" font-size="10.00">Ogre::TextureGpu</text>
</a>
</g>
</g>
<!-- Node1&#45;&gt;Node61 -->
<g id="edge44" class="edge">
<title>Node1&#45;&gt;Node61</title>
<path fill="none" stroke="midnightblue" d="M92.93,-245.42C125.92,-222.07 188.39,-177.85 215.42,-158.71"/>
<polygon fill="midnightblue" stroke="midnightblue" points="90.59,-242.78 84.45,-251.42 94.64,-248.5 90.59,-242.78"/>
</g>
<!-- Node3 -->
<g id="node3" class="node">
<title>Node3</title>
<g id="a_node3"><a xlink:href="class_ogre_1_1_const_buffer_packed.html" target="_top" xlink:title="Represents constant buffers (also known as Uniform Buffers in GL)">
<polygon fill="none" stroke="black" points="320.96,-1114.5 320.96,-1132.5 450.73,-1132.5 450.73,-1114.5 320.96,-1114.5"/>
<text text-anchor="middle" x="385.84" y="-1120.5" font-family="Helvetica,sans-Serif" font-size="10.00">Ogre::ConstBufferPacked</text>
</a>
</g>
</g>
<!-- Node2&#45;&gt;Node3 -->
<g id="edge2" class="edge">
<title>Node2&#45;&gt;Node3</title>
<path fill="none" stroke="midnightblue" d="M241.85,-902.18C272.55,-949.69 356.08,-1078.98 378.97,-1114.41"/>
<polygon fill="midnightblue" stroke="midnightblue" points="244.66,-900.08 236.3,-893.58 238.78,-903.88 244.66,-900.08"/>
</g>
<!-- Node9 -->
<g id="node9" class="node">
<title>Node9</title>
<g id="a_node9"><a xlink:href="class_ogre_1_1_index_buffer_packed.html" target="_top" xlink:title=" ">
<polygon fill="none" stroke="black" points="321.79,-949.5 321.79,-967.5 449.9,-967.5 449.9,-949.5 321.79,-949.5"/>
<text text-anchor="middle" x="385.84" y="-955.5" font-family="Helvetica,sans-Serif" font-size="10.00">Ogre::IndexBufferPacked</text>
</a>
</g>
</g>
<!-- Node2&#45;&gt;Node9 -->
<g id="edge8" class="edge">
<title>Node2&#45;&gt;Node9</title>
<path fill="none" stroke="midnightblue" d="M249.96,-899.56C267,-912.07 292.82,-929.54 317.62,-940.5 325.58,-944.02 334.38,-946.98 342.91,-949.42"/>
<polygon fill="midnightblue" stroke="midnightblue" points="252,-896.72 241.9,-893.53 247.81,-902.32 252,-896.72"/>
</g>
<!-- Node10 -->
<g id="node10" class="node">
<title>Node10</title>
<g id="a_node10"><a xlink:href="class_ogre_1_1_indirect_buffer_packed.html" target="_top" xlink:title="Represents Indirect buffers for storing draw call commands.">
<polygon fill="none" stroke="black" points="317.62,-912.5 317.62,-930.5 454.06,-930.5 454.06,-912.5 317.62,-912.5"/>
<text text-anchor="middle" x="385.84" y="-918.5" font-family="Helvetica,sans-Serif" font-size="10.00">Ogre::IndirectBufferPacked</text>
</a>
</g>
</g>
<!-- Node2&#45;&gt;Node10 -->
<g id="edge9" class="edge">
<title>Node2&#45;&gt;Node10</title>
<path fill="none" stroke="midnightblue" d="M278.11,-895.92C300.33,-901.25 326.39,-907.49 347.19,-912.48"/>
<polygon fill="midnightblue" stroke="midnightblue" points="278.75,-892.48 268.21,-893.55 277.12,-899.29 278.75,-892.48"/>
</g>
<!-- Node11 -->
<g id="node11" class="node">
<title>Node11</title>
<g id="a_node11"><a xlink:href="class_ogre_1_1_tex_buffer_packed.html" target="_top" xlink:title="Represents Texture buffers (also known as tbuffers in D3D11)">
<polygon fill="none" stroke="black" points="326.24,-875.5 326.24,-893.5 445.45,-893.5 445.45,-875.5 326.24,-875.5"/>
<text text-anchor="middle" x="385.84" y="-881.5" font-family="Helvetica,sans-Serif" font-size="10.00">Ogre::TexBufferPacked</text>
</a>
</g>
</g>
<!-- Node2&#45;&gt;Node11 -->
<g id="edge10" class="edge">
<title>Node2&#45;&gt;Node11</title>
<path fill="none" stroke="midnightblue" d="M291.68,-884.5C303.04,-884.5 314.88,-884.5 326.15,-884.5"/>
<polygon fill="midnightblue" stroke="midnightblue" points="291.42,-881 281.42,-884.5 291.42,-888 291.42,-881"/>
</g>
<!-- Node18 -->
<g id="node18" class="node">
<title>Node18</title>
<g id="a_node18"><a xlink:href="class_ogre_1_1_uav_buffer_packed.html" target="_top" xlink:title="Represents UAV buffers (also known as SSBOs in OpenGL) Uav buffers are supported in DX10/DX10....">
<polygon fill="none" stroke="black" points="325.13,-761.5 325.13,-779.5 446.56,-779.5 446.56,-761.5 325.13,-761.5"/>
<text text-anchor="middle" x="385.84" y="-767.5" font-family="Helvetica,sans-Serif" font-size="10.00">Ogre::UavBufferPacked</text>
</a>
</g>
</g>
<!-- Node2&#45;&gt;Node18 -->
<g id="edge17" class="edge">
<title>Node2&#45;&gt;Node18</title>
<path fill="none" stroke="midnightblue" d="M251.16,-869.2C283.73,-845.15 345.93,-799.23 372.41,-779.68"/>
<polygon fill="midnightblue" stroke="midnightblue" points="248.77,-866.61 242.81,-875.36 252.93,-872.24 248.77,-866.61"/>
</g>
<!-- Node23 -->
<g id="node23" class="node">
<title>Node23</title>
<g id="a_node23"><a xlink:href="class_ogre_1_1_vertex_buffer_packed.html" target="_top" xlink:title=" ">
<polygon fill="none" stroke="black" points="319.84,-724.5 319.84,-742.5 451.84,-742.5 451.84,-724.5 319.84,-724.5"/>
<text text-anchor="middle" x="385.84" y="-730.5" font-family="Helvetica,sans-Serif" font-size="10.00">Ogre::VertexBufferPacked</text>
</a>
</g>
</g>
<!-- Node2&#45;&gt;Node23 -->
<g id="edge22" class="edge">
<title>Node2&#45;&gt;Node23</title>
<path fill="none" stroke="midnightblue" d="M237.67,-865.88C249.79,-837.15 276.94,-782.24 317.62,-752.5 323.3,-748.35 329.86,-745.1 336.6,-742.57"/>
<polygon fill="midnightblue" stroke="midnightblue" points="234.41,-864.6 233.89,-875.18 240.89,-867.24 234.41,-864.6"/>
</g>
<!-- Node4 -->
<g id="node4" class="node">
<title>Node4</title>
<g id="a_node4"><a xlink:href="class_ogre_1_1_d3_d11_const_buffer_packed.html" target="_top" xlink:title=" ">
<polygon fill="none" stroke="black" points="493.21,-1217.5 493.21,-1235.5 653.37,-1235.5 653.37,-1217.5 493.21,-1217.5"/>
<text text-anchor="middle" x="573.29" y="-1223.5" font-family="Helvetica,sans-Serif" font-size="10.00">Ogre::D3D11ConstBufferPacked</text>
</a>
</g>
</g>
<!-- Node3&#45;&gt;Node4 -->
<g id="edge3" class="edge">
<title>Node3&#45;&gt;Node4</title>
<path fill="none" stroke="midnightblue" d="M402.03,-1140.08C420.79,-1159.52 454.62,-1191.28 490.06,-1208.5 497.69,-1212.2 506.08,-1215.15 514.49,-1217.5"/>
<polygon fill="midnightblue" stroke="midnightblue" points="404.36,-1137.45 394.95,-1132.58 399.27,-1142.25 404.36,-1137.45"/>
</g>
<!-- Node5 -->
<g id="node5" class="node">
<title>Node5</title>
<g id="a_node5"><a xlink:href="class_ogre_1_1_g_l3_plus_const_buffer_packed.html" target="_top" xlink:title=" ">
<polygon fill="none" stroke="black" points="505.9,-1170.5 505.9,-1198.5 640.67,-1198.5 640.67,-1170.5 505.9,-1170.5"/>
<text text-anchor="start" x="513.9" y="-1186.5" font-family="Helvetica,sans-Serif" font-size="10.00">Ogre::GL3PlusConstBuffer</text>
<text text-anchor="middle" x="573.29" y="-1176.5" font-family="Helvetica,sans-Serif" font-size="10.00">Packed</text>
</a>
</g>
</g>
<!-- Node3&#45;&gt;Node5 -->
<g id="edge4" class="edge">
<title>Node3&#45;&gt;Node5</title>
<path fill="none" stroke="midnightblue" d="M419.39,-1136.24C439.59,-1143.96 466.17,-1153.77 490.06,-1161.5 499.51,-1164.56 509.65,-1167.59 519.46,-1170.4"/>
<polygon fill="midnightblue" stroke="midnightblue" points="420.61,-1132.96 410.02,-1132.64 418.1,-1139.5 420.61,-1132.96"/>
</g>
<!-- Node6 -->
<g id="node6" class="node">
<title>Node6</title>
<g id="a_node6"><a xlink:href="class_ogre_1_1_g_l_e_s2_const_buffer_packed.html" target="_top" xlink:title=" ">
<polygon fill="none" stroke="black" points="492.28,-1133.5 492.28,-1151.5 654.29,-1151.5 654.29,-1133.5 492.28,-1133.5"/>
<text text-anchor="middle" x="573.29" y="-1139.5" font-family="Helvetica,sans-Serif" font-size="10.00">Ogre::GLES2ConstBufferPacked</text>
</a>
</g>
</g>
<!-- Node3&#45;&gt;Node6 -->
<g id="edge5" class="edge">
<title>Node3&#45;&gt;Node6</title>
<path fill="none" stroke="midnightblue" d="M461.04,-1131.1C471.28,-1132.15 481.83,-1133.23 492.17,-1134.29"/>
<polygon fill="midnightblue" stroke="midnightblue" points="461.23,-1127.6 450.92,-1130.07 460.51,-1134.57 461.23,-1127.6"/>
</g>
<!-- Node7 -->
<g id="node7" class="node">
<title>Node7</title>
<g id="a_node7"><a xlink:href="class_ogre_1_1_metal_const_buffer_packed.html" target="_top" xlink:title=" ">
<polygon fill="none" stroke="black" points="496.18,-1096.5 496.18,-1114.5 650.4,-1114.5 650.4,-1096.5 496.18,-1096.5"/>
<text text-anchor="middle" x="573.29" y="-1102.5" font-family="Helvetica,sans-Serif" font-size="10.00">Ogre::MetalConstBufferPacked</text>
</a>
</g>
</g>
<!-- Node3&#45;&gt;Node7 -->
<g id="edge6" class="edge">
<title>Node3&#45;&gt;Node7</title>
<path fill="none" stroke="midnightblue" d="M460.96,-1116.31C472.51,-1115.18 484.47,-1114.02 496.07,-1112.9"/>
<polygon fill="midnightblue" stroke="midnightblue" points="460.54,-1112.83 450.92,-1117.28 461.21,-1119.8 460.54,-1112.83"/>
</g>
<!-- Node8 -->
<g id="node8" class="node">
<title>Node8</title>
<g id="a_node8"><a xlink:href="class_ogre_1_1_n_u_l_l_const_buffer_packed.html" target="_top" xlink:title=" ">
<polygon fill="none" stroke="black" points="495.62,-1059.5 495.62,-1077.5 650.96,-1077.5 650.96,-1059.5 495.62,-1059.5"/>
<text text-anchor="middle" x="573.29" y="-1065.5" font-family="Helvetica,sans-Serif" font-size="10.00">Ogre::NULLConstBufferPacked</text>
</a>
</g>
</g>
<!-- Node3&#45;&gt;Node8 -->
<g id="edge7" class="edge">
<title>Node3&#45;&gt;Node8</title>
<path fill="none" stroke="midnightblue" d="M420,-1110.91C440.1,-1103.53 466.35,-1094.35 490.06,-1087.5 502.59,-1083.88 516.35,-1080.48 528.96,-1077.59"/>
<polygon fill="midnightblue" stroke="midnightblue" points="418.55,-1107.71 410.39,-1114.47 420.98,-1114.28 418.55,-1107.71"/>
</g>
<!-- Node12 -->
<g id="node12" class="node">
<title>Node12</title>
<g id="a_node12"><a xlink:href="class_ogre_1_1_d3_d11_tex_buffer_packed.html" target="_top" xlink:title=" ">
<polygon fill="none" stroke="black" points="498.49,-1022.5 498.49,-1040.5 648.09,-1040.5 648.09,-1022.5 498.49,-1022.5"/>
<text text-anchor="middle" x="573.29" y="-1028.5" font-family="Helvetica,sans-Serif" font-size="10.00">Ogre::D3D11TexBufferPacked</text>
</a>
</g>
</g>
<!-- Node11&#45;&gt;Node12 -->
<g id="edge11" class="edge">
<title>Node11&#45;&gt;Node12</title>
<path fill="none" stroke="midnightblue" d="M448,-898.59C450.15,-900.07 452.19,-901.7 454.06,-903.5 491.17,-939.12 451.9,-979 490.06,-1013.5 494.07,-1017.13 498.64,-1020.08 503.53,-1022.48"/>
<polygon fill="midnightblue" stroke="midnightblue" points="449.63,-895.49 439.21,-893.61 446.18,-901.58 449.63,-895.49"/>
</g>
<!-- Node13 -->
<g id="node13" class="node">
<title>Node13</title>
<g id="a_node13"><a xlink:href="class_ogre_1_1_g_l3_plus_tex_buffer_emulated_packed.html" target="_top" xlink:title=" ">
<polygon fill="none" stroke="black" points="490.06,-975.5 490.06,-1003.5 656.52,-1003.5 656.52,-975.5 490.06,-975.5"/>
<text text-anchor="start" x="498.06" y="-991.5" font-family="Helvetica,sans-Serif" font-size="10.00">Ogre::GL3PlusTexBufferEmulated</text>
<text text-anchor="middle" x="573.29" y="-981.5" font-family="Helvetica,sans-Serif" font-size="10.00">Packed</text>
</a>
</g>
</g>
<!-- Node11&#45;&gt;Node13 -->
<g id="edge12" class="edge">
<title>Node11&#45;&gt;Node13</title>
<path fill="none" stroke="midnightblue" d="M445.18,-897.74C448.31,-899.43 451.3,-901.34 454.06,-903.5 479.47,-923.36 464.63,-946.67 490.06,-966.5 494.5,-969.96 499.44,-972.91 504.62,-975.4"/>
<polygon fill="midnightblue" stroke="midnightblue" points="446.57,-894.52 436.02,-893.51 443.64,-900.88 446.57,-894.52"/>
</g>
<!-- Node14 -->
<g id="node14" class="node">
<title>Node14</title>
<g id="a_node14"><a xlink:href="class_ogre_1_1_g_l3_plus_tex_buffer_packed.html" target="_top" xlink:title=" ">
<polygon fill="none" stroke="black" points="494.51,-938.5 494.51,-956.5 652.07,-956.5 652.07,-938.5 494.51,-938.5"/>
<text text-anchor="middle" x="573.29" y="-944.5" font-family="Helvetica,sans-Serif" font-size="10.00">Ogre::GL3PlusTexBufferPacked</text>
</a>
</g>
</g>
<!-- Node11&#45;&gt;Node14 -->
<g id="edge13" class="edge">
<title>Node11&#45;&gt;Node14</title>
<path fill="none" stroke="midnightblue" d="M437.24,-896.64C443.02,-898.65 448.75,-900.93 454.06,-903.5 471.83,-912.09 472.05,-921.44 490.06,-929.5 498.2,-933.14 507.13,-936.07 516.01,-938.41"/>
<polygon fill="midnightblue" stroke="midnightblue" points="438.09,-893.24 427.5,-893.52 435.95,-899.91 438.09,-893.24"/>
</g>
<!-- Node15 -->
<g id="node15" class="node">
<title>Node15</title>
<g id="a_node15"><a xlink:href="class_ogre_1_1_g_l_e_s2_tex_buffer_emulated_packed.html" target="_top" xlink:title=" ">
<polygon fill="none" stroke="black" points="493.12,-891.5 493.12,-919.5 653.46,-919.5 653.46,-891.5 493.12,-891.5"/>
<text text-anchor="start" x="501.12" y="-907.5" font-family="Helvetica,sans-Serif" font-size="10.00">Ogre::GLES2TexBufferEmulated</text>
<text text-anchor="middle" x="573.29" y="-897.5" font-family="Helvetica,sans-Serif" font-size="10.00">Packed</text>
</a>
</g>
</g>
<!-- Node11&#45;&gt;Node15 -->
<g id="edge14" class="edge">
<title>Node11&#45;&gt;Node15</title>
<path fill="none" stroke="midnightblue" d="M455.59,-892.28C467.76,-893.66 480.53,-895.11 492.97,-896.52"/>
<polygon fill="midnightblue" stroke="midnightblue" points="455.85,-888.79 445.52,-891.14 455.06,-895.75 455.85,-888.79"/>
</g>
<!-- Node16 -->
<g id="node16" class="node">
<title>Node16</title>
<g id="a_node16"><a xlink:href="class_ogre_1_1_metal_tex_buffer_packed.html" target="_top" xlink:title=" ">
<polygon fill="none" stroke="black" points="501.46,-854.5 501.46,-872.5 645.12,-872.5 645.12,-854.5 501.46,-854.5"/>
<text text-anchor="middle" x="573.29" y="-860.5" font-family="Helvetica,sans-Serif" font-size="10.00">Ogre::MetalTexBufferPacked</text>
</a>
</g>
</g>
<!-- Node11&#45;&gt;Node16 -->
<g id="edge15" class="edge">
<title>Node11&#45;&gt;Node16</title>
<path fill="none" stroke="midnightblue" d="M455.67,-876.71C470.57,-875.02 486.34,-873.23 501.32,-871.54"/>
<polygon fill="midnightblue" stroke="midnightblue" points="455.06,-873.25 445.52,-877.86 455.85,-880.21 455.06,-873.25"/>
</g>
<!-- Node17 -->
<g id="node17" class="node">
<title>Node17</title>
<g id="a_node17"><a xlink:href="class_ogre_1_1_n_u_l_l_tex_buffer_packed.html" target="_top" xlink:title=" ">
<polygon fill="none" stroke="black" points="501.27,-817.5 501.27,-835.5 645.31,-835.5 645.31,-817.5 501.27,-817.5"/>
<text text-anchor="middle" x="573.29" y="-823.5" font-family="Helvetica,sans-Serif" font-size="10.00">Ogre::NULLTexBufferPacked</text>
</a>
</g>
</g>
<!-- Node11&#45;&gt;Node17 -->
<g id="edge16" class="edge">
<title>Node11&#45;&gt;Node17</title>
<path fill="none" stroke="midnightblue" d="M417.67,-871.61C437.99,-863.42 465.33,-852.99 490.06,-845.5 502.26,-841.8 515.67,-838.43 528.05,-835.58"/>
<polygon fill="midnightblue" stroke="midnightblue" points="416.24,-868.41 408.3,-875.43 418.88,-874.9 416.24,-868.41"/>
</g>
<!-- Node19 -->
<g id="node19" class="node">
<title>Node19</title>
<g id="a_node19"><a xlink:href="class_ogre_1_1_d3_d11_uav_buffer_packed.html" target="_top" xlink:title=" ">
<polygon fill="none" stroke="black" points="497.38,-780.5 497.38,-798.5 649.2,-798.5 649.2,-780.5 497.38,-780.5"/>
<text text-anchor="middle" x="573.29" y="-786.5" font-family="Helvetica,sans-Serif" font-size="10.00">Ogre::D3D11UavBufferPacked</text>
</a>
</g>
</g>
<!-- Node18&#45;&gt;Node19 -->
<g id="edge18" class="edge">
<title>Node18&#45;&gt;Node19</title>
<path fill="none" stroke="midnightblue" d="M456.77,-777.66C470,-779.02 483.89,-780.44 497.27,-781.81"/>
<polygon fill="midnightblue" stroke="midnightblue" points="457.1,-774.18 446.8,-776.64 456.39,-781.14 457.1,-774.18"/>
</g>
<!-- Node20 -->
<g id="node20" class="node">
<title>Node20</title>
<g id="a_node20"><a xlink:href="class_ogre_1_1_g_l3_plus_uav_buffer_packed.html" target="_top" xlink:title=" ">
<polygon fill="none" stroke="black" points="493.4,-743.5 493.4,-761.5 653.18,-761.5 653.18,-743.5 493.4,-743.5"/>
<text text-anchor="middle" x="573.29" y="-749.5" font-family="Helvetica,sans-Serif" font-size="10.00">Ogre::GL3PlusUavBufferPacked</text>
</a>
</g>
</g>
<!-- Node18&#45;&gt;Node20 -->
<g id="edge19" class="edge">
<title>Node18&#45;&gt;Node20</title>
<path fill="none" stroke="midnightblue" d="M457.04,-763.69C468.88,-762.54 481.23,-761.34 493.28,-760.17"/>
<polygon fill="midnightblue" stroke="midnightblue" points="456.41,-760.23 446.8,-764.68 457.09,-767.2 456.41,-760.23"/>
</g>
<!-- Node21 -->
<g id="node21" class="node">
<title>Node21</title>
<g id="a_node21"><a xlink:href="class_ogre_1_1_metal_uav_buffer_packed.html" target="_top" xlink:title=" ">
<polygon fill="none" stroke="black" points="500.35,-706.5 500.35,-724.5 646.23,-724.5 646.23,-706.5 500.35,-706.5"/>
<text text-anchor="middle" x="573.29" y="-712.5" font-family="Helvetica,sans-Serif" font-size="10.00">Ogre::MetalUavBufferPacked</text>
</a>
</g>
</g>
<!-- Node18&#45;&gt;Node21 -->
<g id="edge20" class="edge">
<title>Node18&#45;&gt;Node21</title>
<path fill="none" stroke="midnightblue" d="M435.74,-758.65C441.97,-756.78 448.21,-754.72 454.06,-752.5 470.79,-746.15 473.23,-740.56 490.06,-734.5 500.95,-730.58 512.95,-727.27 524.34,-724.57"/>
<polygon fill="midnightblue" stroke="midnightblue" points="434.66,-755.32 426.01,-761.44 436.59,-762.05 434.66,-755.32"/>
</g>
<!-- Node22 -->
<g id="node22" class="node">
<title>Node22</title>
<g id="a_node22"><a xlink:href="class_ogre_1_1_n_u_l_l_uav_buffer_packed.html" target="_top" xlink:title=" ">
<polygon fill="none" stroke="black" points="499.79,-669.5 499.79,-687.5 646.79,-687.5 646.79,-669.5 499.79,-669.5"/>
<text text-anchor="middle" x="573.29" y="-675.5" font-family="Helvetica,sans-Serif" font-size="10.00">Ogre::NULLUavBufferPacked</text>
</a>
</g>
</g>
<!-- Node18&#45;&gt;Node22 -->
<g id="edge21" class="edge">
<title>Node18&#45;&gt;Node22</title>
<path fill="none" stroke="midnightblue" d="M446.49,-757.2C449.14,-755.79 451.68,-754.23 454.06,-752.5 477.73,-735.37 466.1,-714.22 490.06,-697.5 495.95,-693.39 502.6,-690.16 509.5,-687.62"/>
<polygon fill="midnightblue" stroke="midnightblue" points="444.82,-754.11 437.17,-761.44 447.72,-760.48 444.82,-754.11"/>
</g>
<!-- Node25 -->
<g id="node25" class="node">
<title>Node25</title>
<g id="a_node25"><a xlink:href="class_ogre_1_1_multi_render_target.html" target="_top" xlink:title="This class represents a render target that renders to multiple RenderTextures at once.">
<polygon fill="none" stroke="black" points="323.1,-530.5 323.1,-548.5 448.59,-548.5 448.59,-530.5 323.1,-530.5"/>
<text text-anchor="middle" x="385.84" y="-536.5" font-family="Helvetica,sans-Serif" font-size="10.00">Ogre::MultiRenderTarget</text>
</a>
</g>
</g>
<!-- Node24&#45;&gt;Node25 -->
<g id="edge24" class="edge">
<title>Node24&#45;&gt;Node25</title>
<path fill="none" stroke="midnightblue" d="M240.44,-278.58C270.29,-332.51 357.95,-490.9 379.84,-530.46"/>
<polygon fill="midnightblue" stroke="midnightblue" points="243.48,-276.84 235.57,-269.78 237.35,-280.23 243.48,-276.84"/>
</g>
<!-- Node31 -->
<g id="node31" class="node">
<title>Node31</title>
<g id="a_node31"><a xlink:href="class_ogre_1_1_render_texture.html" target="_top" xlink:title="This class represents a RenderTarget that renders to a Texture.">
<polygon fill="none" stroke="red" points="331.15,-251.5 331.15,-269.5 440.53,-269.5 440.53,-251.5 331.15,-251.5"/>
<text text-anchor="middle" x="385.84" y="-257.5" font-family="Helvetica,sans-Serif" font-size="10.00">Ogre::RenderTexture</text>
</a>
</g>
</g>
<!-- Node24&#45;&gt;Node31 -->
<g id="edge30" class="edge">
<title>Node24&#45;&gt;Node31</title>
<path fill="none" stroke="midnightblue" d="M292.03,-260.5C304.92,-260.5 318.42,-260.5 331.01,-260.5"/>
<polygon fill="midnightblue" stroke="midnightblue" points="291.85,-257 281.85,-260.5 291.85,-264 291.85,-257"/>
</g>
<!-- Node47 -->
<g id="node44" class="node">
<title>Node47</title>
<g id="a_node44"><a xlink:href="class_ogre_1_1_render_window.html" target="_top" xlink:title="Manages the target rendering window.">
<polygon fill="none" stroke="red" points="329.77,-214.5 329.77,-232.5 441.92,-232.5 441.92,-214.5 329.77,-214.5"/>
<text text-anchor="middle" x="385.84" y="-220.5" font-family="Helvetica,sans-Serif" font-size="10.00">Ogre::RenderWindow</text>
</a>
</g>
</g>
<!-- Node24&#45;&gt;Node47 -->
<g id="edge43" class="edge">
<title>Node24&#45;&gt;Node47</title>
<path fill="none" stroke="midnightblue" d="M278.11,-249.08C300.33,-243.75 326.39,-237.51 347.19,-232.52"/>
<polygon fill="midnightblue" stroke="midnightblue" points="277.12,-245.71 268.21,-251.45 278.75,-252.52 277.12,-245.71"/>
</g>
<!-- Node26 -->
<g id="node26" class="node">
<title>Node26</title>
<g id="a_node26"><a xlink:href="class_ogre_1_1_d3_d11_multi_render_target.html" target="_top" xlink:title=" ">
<polygon fill="none" stroke="black" points="495.35,-632.5 495.35,-650.5 651.23,-650.5 651.23,-632.5 495.35,-632.5"/>
<text text-anchor="middle" x="573.29" y="-638.5" font-family="Helvetica,sans-Serif" font-size="10.00">Ogre::D3D11MultiRenderTarget</text>
</a>
</g>
</g>
<!-- Node25&#45;&gt;Node26 -->
<g id="edge25" class="edge">
<title>Node25&#45;&gt;Node26</title>
<path fill="none" stroke="midnightblue" d="M402.36,-556.18C421.22,-575.41 454.92,-606.55 490.06,-623.5 497.7,-627.18 506.09,-630.12 514.51,-632.46"/>
<polygon fill="midnightblue" stroke="midnightblue" points="404.67,-553.53 395.22,-548.74 399.62,-558.38 404.67,-553.53"/>
</g>
<!-- Node27 -->
<g id="node27" class="node">
<title>Node27</title>
<g id="a_node27"><a xlink:href="class_ogre_1_1_d3_d9_multi_render_target.html" target="_top" xlink:title=" ">
<polygon fill="none" stroke="black" points="497.76,-595.5 497.76,-613.5 648.82,-613.5 648.82,-595.5 497.76,-595.5"/>
<text text-anchor="middle" x="573.29" y="-601.5" font-family="Helvetica,sans-Serif" font-size="10.00">Ogre::D3D9MultiRenderTarget</text>
</a>
</g>
</g>
<!-- Node25&#45;&gt;Node27 -->
<g id="edge26" class="edge">
<title>Node25&#45;&gt;Node27</title>
<path fill="none" stroke="midnightblue" d="M412.94,-553.25C433.44,-563.59 462.97,-577.48 490.06,-586.5 500.46,-589.96 511.82,-592.94 522.7,-595.42"/>
<polygon fill="midnightblue" stroke="midnightblue" points="414.42,-550.08 403.92,-548.64 411.23,-556.31 414.42,-550.08"/>
</g>
<!-- Node28 -->
<g id="node28" class="node">
<title>Node28</title>
<g id="a_node28"><a xlink:href="class_ogre_1_1_g_l3_plus_f_b_o_multi_render_target.html" target="_top" xlink:title="MultiRenderTarget for OpenGL.">
<polygon fill="none" stroke="black" points="494.98,-548.5 494.98,-576.5 651.59,-576.5 651.59,-548.5 494.98,-548.5"/>
<text text-anchor="start" x="502.98" y="-564.5" font-family="Helvetica,sans-Serif" font-size="10.00">Ogre::GL3PlusFBOMultiRender</text>
<text text-anchor="middle" x="573.29" y="-554.5" font-family="Helvetica,sans-Serif" font-size="10.00">Target</text>
</a>
</g>
</g>
<!-- Node25&#45;&gt;Node28 -->
<g id="edge27" class="edge">
<title>Node25&#45;&gt;Node28</title>
<path fill="none" stroke="midnightblue" d="M458.86,-548.43C470.69,-549.9 483.01,-551.43 494.97,-552.91"/>
<polygon fill="midnightblue" stroke="midnightblue" points="458.95,-544.92 448.59,-547.16 458.09,-551.86 458.95,-544.92"/>
</g>
<!-- Node29 -->
<g id="node29" class="node">
<title>Node29</title>
<g id="a_node29"><a xlink:href="class_ogre_1_1_g_l_e_s2_f_b_o_multi_render_target.html" target="_top" xlink:title="MultiRenderTarget for GL ES 2.x.">
<polygon fill="none" stroke="black" points="498.04,-501.5 498.04,-529.5 648.54,-529.5 648.54,-501.5 498.04,-501.5"/>
<text text-anchor="start" x="506.04" y="-517.5" font-family="Helvetica,sans-Serif" font-size="10.00">Ogre::GLES2FBOMultiRender</text>
<text text-anchor="middle" x="573.29" y="-507.5" font-family="Helvetica,sans-Serif" font-size="10.00">Target</text>
</a>
</g>
</g>
<!-- Node25&#45;&gt;Node29 -->
<g id="edge28" class="edge">
<title>Node25&#45;&gt;Node29</title>
<path fill="none" stroke="midnightblue" d="M458.76,-530.19C471.6,-528.53 485.01,-526.8 497.93,-525.12"/>
<polygon fill="midnightblue" stroke="midnightblue" points="458.06,-526.75 448.59,-531.51 458.96,-533.7 458.06,-526.75"/>
</g>
<!-- Node30 -->
<g id="node30" class="node">
<title>Node30</title>
<g id="a_node30"><a xlink:href="class_ogre_1_1_metal_multi_render_target.html" target="_top" xlink:title=" ">
<polygon fill="none" stroke="black" points="498.32,-464.5 498.32,-482.5 648.26,-482.5 648.26,-464.5 498.32,-464.5"/>
<text text-anchor="middle" x="573.29" y="-470.5" font-family="Helvetica,sans-Serif" font-size="10.00">Ogre::MetalMultiRenderTarget</text>
</a>
</g>
</g>
<!-- Node25&#45;&gt;Node30 -->
<g id="edge29" class="edge">
<title>Node25&#45;&gt;Node30</title>
<path fill="none" stroke="midnightblue" d="M412.97,-525.84C433.49,-515.54 463.02,-501.68 490.06,-492.5 501.44,-488.64 513.96,-485.3 525.74,-482.55"/>
<polygon fill="midnightblue" stroke="midnightblue" points="411.27,-522.77 403.94,-530.43 414.44,-529.01 411.27,-522.77"/>
</g>
<!-- Node32 -->
<g id="node32" class="node">
<title>Node32</title>
<g id="a_node32"><a xlink:href="class_ogre_1_1_d3_d11_depth_texture_target.html" target="_top" xlink:title=" ">
<polygon fill="none" stroke="black" points="492.56,-427.5 492.56,-445.5 654.01,-445.5 654.01,-427.5 492.56,-427.5"/>
<text text-anchor="middle" x="573.29" y="-433.5" font-family="Helvetica,sans-Serif" font-size="10.00">Ogre::D3D11DepthTextureTarget</text>
</a>
</g>
</g>
<!-- Node31&#45;&gt;Node32 -->
<g id="edge31" class="edge">
<title>Node31&#45;&gt;Node32</title>
<path fill="none" stroke="midnightblue" d="M393.59,-279.33C406.65,-312.95 438.71,-383.08 490.06,-418.5 495.36,-422.15 501.26,-425.08 507.4,-427.42"/>
<polygon fill="midnightblue" stroke="midnightblue" points="396.8,-277.93 390.01,-269.79 390.24,-280.38 396.8,-277.93"/>
</g>
<!-- Node33 -->
<g id="node33" class="node">
<title>Node33</title>
<g id="a_node33"><a xlink:href="class_ogre_1_1_d3_d11_null_texture_target.html" target="_top" xlink:title=" ">
<polygon fill="none" stroke="black" points="497.29,-390.5 497.29,-408.5 649.29,-408.5 649.29,-390.5 497.29,-390.5"/>
<text text-anchor="middle" x="573.29" y="-396.5" font-family="Helvetica,sans-Serif" font-size="10.00">Ogre::D3D11NullTextureTarget</text>
</a>
</g>
</g>
<!-- Node31&#45;&gt;Node33 -->
<g id="edge32" class="edge">
<title>Node31&#45;&gt;Node33</title>
<path fill="none" stroke="midnightblue" d="M396.77,-278.25C412.76,-305.09 446.82,-355.58 490.06,-381.5 496.2,-385.18 503.01,-388.11 509.99,-390.45"/>
<polygon fill="midnightblue" stroke="midnightblue" points="399.76,-276.43 391.72,-269.53 393.7,-279.94 399.76,-276.43"/>
</g>
<!-- Node34 -->
<g id="node34" class="node">
<title>Node34</title>
<g id="a_node34"><a xlink:href="class_ogre_1_1_d3_d11_render_texture.html" target="_top" xlink:title="RenderTexture implementation for D3D11.">
<polygon fill="none" stroke="black" points="503.4,-353.5 503.4,-371.5 643.17,-371.5 643.17,-353.5 503.4,-353.5"/>
<text text-anchor="middle" x="573.29" y="-359.5" font-family="Helvetica,sans-Serif" font-size="10.00">Ogre::D3D11RenderTexture</text>
</a>
</g>
</g>
<!-- Node31&#45;&gt;Node34 -->
<g id="edge33" class="edge">
<title>Node31&#45;&gt;Node34</title>
<path fill="none" stroke="midnightblue" d="M402.36,-277.18C421.22,-296.41 454.92,-327.55 490.06,-344.5 497.7,-348.18 506.09,-351.12 514.51,-353.46"/>
<polygon fill="midnightblue" stroke="midnightblue" points="404.67,-274.53 395.22,-269.74 399.62,-279.38 404.67,-274.53"/>
</g>
<!-- Node35 -->
<g id="node35" class="node">
<title>Node35</title>
<g id="a_node35"><a xlink:href="class_ogre_1_1_d3_d9_render_texture.html" target="_top" xlink:title="RenderTexture implementation for D3D9.">
<polygon fill="none" stroke="black" points="505.82,-316.5 505.82,-334.5 640.76,-334.5 640.76,-316.5 505.82,-316.5"/>
<text text-anchor="middle" x="573.29" y="-322.5" font-family="Helvetica,sans-Serif" font-size="10.00">Ogre::D3D9RenderTexture</text>
</a>
</g>
</g>
<!-- Node31&#45;&gt;Node35 -->
<g id="edge34" class="edge">
<title>Node31&#45;&gt;Node35</title>
<path fill="none" stroke="midnightblue" d="M412.94,-274.25C433.44,-284.59 462.97,-298.48 490.06,-307.5 500.46,-310.96 511.82,-313.94 522.7,-316.42"/>
<polygon fill="midnightblue" stroke="midnightblue" points="414.42,-271.08 403.92,-269.64 411.23,-277.31 414.42,-271.08"/>
</g>
<!-- Node36 -->
<g id="node36" class="node">
<title>Node36</title>
<g id="a_node36"><a xlink:href="class_ogre_1_1_g_l3_plus_depth_texture_target.html" target="_top" xlink:title=" ">
<polygon fill="none" stroke="black" points="502.48,-269.5 502.48,-297.5 644.1,-297.5 644.1,-269.5 502.48,-269.5"/>
<text text-anchor="start" x="510.48" y="-285.5" font-family="Helvetica,sans-Serif" font-size="10.00">Ogre::GL3PlusDepthTexture</text>
<text text-anchor="middle" x="573.29" y="-275.5" font-family="Helvetica,sans-Serif" font-size="10.00">Target</text>
</a>
</g>
</g>
<!-- Node31&#45;&gt;Node36 -->
<g id="edge35" class="edge">
<title>Node31&#45;&gt;Node36</title>
<path fill="none" stroke="midnightblue" d="M451.06,-268.46C467.57,-270.51 485.41,-272.72 502.19,-274.81"/>
<polygon fill="midnightblue" stroke="midnightblue" points="451.33,-264.97 440.98,-267.21 450.47,-271.92 451.33,-264.97"/>
</g>
<!-- Node37 -->
<g id="node37" class="node">
<title>Node37</title>
<g id="a_node37"><a xlink:href="class_ogre_1_1_g_l3_plus_null_texture_target.html" target="_top" xlink:title=" ">
<polygon fill="none" stroke="black" points="507.21,-222.5 507.21,-250.5 639.37,-250.5 639.37,-222.5 507.21,-222.5"/>
<text text-anchor="start" x="515.21" y="-238.5" font-family="Helvetica,sans-Serif" font-size="10.00">Ogre::GL3PlusNullTexture</text>
<text text-anchor="middle" x="573.29" y="-228.5" font-family="Helvetica,sans-Serif" font-size="10.00">Target</text>
</a>
</g>
</g>
<!-- Node31&#45;&gt;Node37 -->
<g id="edge36" class="edge">
<title>Node31&#45;&gt;Node37</title>
<path fill="none" stroke="midnightblue" d="M451.11,-252.18C469.16,-249.85 488.8,-247.3 506.92,-244.96"/>
<polygon fill="midnightblue" stroke="midnightblue" points="450.45,-248.74 440.98,-253.49 451.35,-255.68 450.45,-248.74"/>
</g>
<!-- Node38 -->
<g id="node38" class="node">
<title>Node38</title>
<g id="a_node38"><a xlink:href="class_ogre_1_1_g_l3_plus_render_texture.html" target="_top" xlink:title="Base class for GL Render Textures.">
<polygon fill="none" stroke="red" points="499.42,-185.5 499.42,-203.5 647.16,-203.5 647.16,-185.5 499.42,-185.5"/>
<text text-anchor="middle" x="573.29" y="-191.5" font-family="Helvetica,sans-Serif" font-size="10.00">Ogre::GL3PlusRenderTexture</text>
</a>
</g>
</g>
<!-- Node31&#45;&gt;Node38 -->
<g id="edge37" class="edge">
<title>Node31&#45;&gt;Node38</title>
<path fill="none" stroke="midnightblue" d="M440.74,-248.25C445.34,-246.55 449.84,-244.64 454.06,-242.5 472.38,-233.2 471.59,-222.48 490.06,-213.5 498.5,-209.4 507.85,-206.16 517.14,-203.61"/>
<polygon fill="midnightblue" stroke="midnightblue" points="439.58,-244.94 431.21,-251.44 441.81,-251.58 439.58,-244.94"/>
</g>
<!-- Node40 -->
<g id="node39" class="node">
<title>Node40</title>
<g id="a_node39"><a xlink:href="class_ogre_1_1_g_l_e_s2_depth_texture_target.html" target="_top" xlink:title=" ">
<polygon fill="none" stroke="black" points="491.64,-148.5 491.64,-166.5 654.94,-166.5 654.94,-148.5 491.64,-148.5"/>
<text text-anchor="middle" x="573.29" y="-154.5" font-family="Helvetica,sans-Serif" font-size="10.00">Ogre::GLES2DepthTextureTarget</text>
</a>
</g>
</g>
<!-- Node31&#45;&gt;Node40 -->
<g id="edge38" class="edge">
<title>Node31&#45;&gt;Node40</title>
<path fill="none" stroke="midnightblue" d="M447.6,-246.89C449.86,-245.56 452.03,-244.1 454.06,-242.5 480.32,-221.84 463.45,-196.7 490.06,-176.5 495.43,-172.43 501.52,-169.2 507.91,-166.65"/>
<polygon fill="midnightblue" stroke="midnightblue" points="445.9,-243.83 438.49,-251.41 449.01,-250.1 445.9,-243.83"/>
</g>
<!-- Node41 -->
<g id="node40" class="node">
<title>Node41</title>
<g id="a_node40"><a xlink:href="class_ogre_1_1_g_l_e_s2_null_texture_target.html" target="_top" xlink:title=" ">
<polygon fill="none" stroke="black" points="496.37,-111.5 496.37,-129.5 650.21,-129.5 650.21,-111.5 496.37,-111.5"/>
<text text-anchor="middle" x="573.29" y="-117.5" font-family="Helvetica,sans-Serif" font-size="10.00">Ogre::GLES2NullTextureTarget</text>
</a>
</g>
</g>
<!-- Node31&#45;&gt;Node41 -->
<g id="edge39" class="edge">
<title>Node31&#45;&gt;Node41</title>
<path fill="none" stroke="midnightblue" d="M449.42,-246.28C451.05,-245.11 452.6,-243.86 454.06,-242.5 489.61,-209.51 453.95,-171.87 490.06,-139.5 494.64,-135.39 499.94,-132.12 505.58,-129.52"/>
<polygon fill="midnightblue" stroke="midnightblue" points="447.63,-243.27 440.77,-251.35 451.17,-249.31 447.63,-243.27"/>
</g>
<!-- Node42 -->
<g id="node41" class="node">
<title>Node42</title>
<g id="a_node41"><a xlink:href="class_ogre_1_1_g_l_e_s2_render_texture.html" target="_top" xlink:title="Base class for GL Render Textures.">
<polygon fill="none" stroke="black" points="502.48,-74.5 502.48,-92.5 644.1,-92.5 644.1,-74.5 502.48,-74.5"/>
<text text-anchor="middle" x="573.29" y="-80.5" font-family="Helvetica,sans-Serif" font-size="10.00">Ogre::GLES2RenderTexture</text>
</a>
</g>
</g>
<!-- Node31&#45;&gt;Node42 -->
<g id="edge40" class="edge">
<title>Node31&#45;&gt;Node42</title>
<path fill="none" stroke="midnightblue" d="M449.47,-246.52C451.09,-245.28 452.63,-243.95 454.06,-242.5 499.27,-196.85 444.08,-147.37 490.06,-102.5 494.26,-98.41 499.15,-95.13 504.42,-92.51"/>
<polygon fill="midnightblue" stroke="midnightblue" points="447.47,-243.64 440.77,-251.85 451.12,-249.61 447.47,-243.64"/>
</g>
<!-- Node43 -->
<g id="node42" class="node">
<title>Node43</title>
<g id="a_node42"><a xlink:href="class_ogre_1_1_metal_depth_texture_target.html" target="_top" xlink:title=" ">
<polygon fill="none" stroke="black" points="495.53,-37.5 495.53,-55.5 651.05,-55.5 651.05,-37.5 495.53,-37.5"/>
<text text-anchor="middle" x="573.29" y="-43.5" font-family="Helvetica,sans-Serif" font-size="10.00">Ogre::MetalDepthTextureTarget</text>
</a>
</g>
</g>
<!-- Node31&#45;&gt;Node43 -->
<g id="edge41" class="edge">
<title>Node31&#45;&gt;Node43</title>
<path fill="none" stroke="midnightblue" d="M449.46,-246.7C451.1,-245.41 452.64,-244.02 454.06,-242.5 509.34,-183.68 433.45,-122.03 490.06,-64.5 493.55,-60.96 497.56,-58.04 501.89,-55.64"/>
<polygon fill="midnightblue" stroke="midnightblue" points="447.27,-243.94 440.65,-252.21 450.98,-249.88 447.27,-243.94"/>
</g>
<!-- Node44 -->
<g id="node43" class="node">
<title>Node44</title>
<g id="a_node43"><a xlink:href="class_ogre_1_1_metal_null_texture_target.html" target="_top" xlink:title=" ">
<polygon fill="none" stroke="black" points="500.26,-0.5 500.26,-18.5 646.32,-18.5 646.32,-0.5 500.26,-0.5"/>
<text text-anchor="middle" x="573.29" y="-6.5" font-family="Helvetica,sans-Serif" font-size="10.00">Ogre::MetalNullTextureTarget</text>
</a>
</g>
</g>
<!-- Node31&#45;&gt;Node44 -->
<g id="edge42" class="edge">
<title>Node31&#45;&gt;Node44</title>
<path fill="none" stroke="midnightblue" d="M449.53,-246.76C451.14,-245.46 452.66,-244.04 454.06,-242.5 519.21,-170.79 423.27,-97.69 490.06,-27.5 493.49,-23.9 497.45,-20.94 501.76,-18.51"/>
<polygon fill="midnightblue" stroke="midnightblue" points="447.33,-244.01 440.79,-252.34 451.1,-249.91 447.33,-244.01"/>
</g>
<!-- Node62 -->
<g id="node46" class="node">
<title>Node62</title>
<g id="a_node46"><a xlink:href="class_ogre_1_1_d3_d11_texture_gpu.html" target="_top" xlink:title=" ">
<polygon fill="none" stroke="red" points="322.91,-177.5 322.91,-195.5 448.78,-195.5 448.78,-177.5 322.91,-177.5"/>
<text text-anchor="middle" x="385.84" y="-183.5" font-family="Helvetica,sans-Serif" font-size="10.00">Ogre::D3D11TextureGpu</text>
</a>
</g>
</g>
<!-- Node61&#45;&gt;Node62 -->
<g id="edge45" class="edge">
<title>Node61&#45;&gt;Node62</title>
<path fill="none" stroke="midnightblue" d="M278.11,-160.92C300.33,-166.25 326.39,-172.49 347.19,-177.48"/>
<polygon fill="midnightblue" stroke="midnightblue" points="278.75,-157.48 268.21,-158.55 277.12,-164.29 278.75,-157.48"/>
</g>
<!-- Node65 -->
<g id="node47" class="node">
<title>Node65</title>
<g id="a_node47"><a xlink:href="class_ogre_1_1_g_l3_plus_texture_gpu.html" target="_top" xlink:title=" ">
<polygon fill="none" stroke="red" points="318.92,-140.5 318.92,-158.5 452.76,-158.5 452.76,-140.5 318.92,-140.5"/>
<text text-anchor="middle" x="385.84" y="-146.5" font-family="Helvetica,sans-Serif" font-size="10.00">Ogre::GL3PlusTextureGpu</text>
</a>
</g>
</g>
<!-- Node61&#45;&gt;Node65 -->
<g id="edge46" class="edge">
<title>Node61&#45;&gt;Node65</title>
<path fill="none" stroke="midnightblue" d="M287.27,-149.5C297.55,-149.5 308.36,-149.5 318.89,-149.5"/>
<polygon fill="midnightblue" stroke="midnightblue" points="287.18,-146 277.18,-149.5 287.18,-153 287.18,-146"/>
</g>
<!-- Node68 -->
<g id="node48" class="node">
<title>Node68</title>
<g id="a_node48"><a xlink:href="class_ogre_1_1_metal_texture_gpu.html" target="_top" xlink:title=" ">
<polygon fill="none" stroke="red" points="325.88,-103.5 325.88,-121.5 445.81,-121.5 445.81,-103.5 325.88,-103.5"/>
<text text-anchor="middle" x="385.84" y="-109.5" font-family="Helvetica,sans-Serif" font-size="10.00">Ogre::MetalTextureGpu</text>
</a>
</g>
</g>
<!-- Node61&#45;&gt;Node68 -->
<g id="edge47" class="edge">
<title>Node61&#45;&gt;Node68</title>
<path fill="none" stroke="midnightblue" d="M278.11,-138.08C300.33,-132.75 326.39,-126.51 347.19,-121.52"/>
<polygon fill="midnightblue" stroke="midnightblue" points="277.12,-134.71 268.21,-140.45 278.75,-141.52 277.12,-134.71"/>
</g>
<!-- Node71 -->
<g id="node49" class="node">
<title>Node71</title>
<g id="a_node49"><a xlink:href="class_ogre_1_1_n_u_l_l_texture_gpu.html" target="_top" xlink:title=" ">
<polygon fill="none" stroke="red" points="325.69,-66.5 325.69,-84.5 446,-84.5 446,-66.5 325.69,-66.5"/>
<text text-anchor="middle" x="385.84" y="-72.5" font-family="Helvetica,sans-Serif" font-size="10.00">Ogre::NULLTextureGpu</text>
</a>
</g>
</g>
<!-- Node61&#45;&gt;Node71 -->
<g id="edge48" class="edge">
<title>Node61&#45;&gt;Node71</title>
<path fill="none" stroke="midnightblue" d="M250.33,-134.61C267.42,-122.4 293.12,-105.42 317.62,-94.5 326.37,-90.6 336.13,-87.3 345.43,-84.6"/>
<polygon fill="midnightblue" stroke="midnightblue" points="248.26,-131.79 242.23,-140.5 252.37,-137.45 248.26,-131.79"/>
</g>
</g>
</svg>
