<?xml version="1.0" encoding="UTF-8" standalone="no"?>
<!DOCTYPE svg PUBLIC "-//W3C//DTD SVG 1.1//EN"
 "http://www.w3.org/Graphics/SVG/1.1/DTD/svg11.dtd">
<!-- Generated by graphviz version 2.43.0 (0)
 -->
<!-- Title: Ogre::VectorSet&lt; T, S &gt; Pages: 1 -->
<svg width="147pt" height="287pt"
 viewBox="0.00 0.00 147.03 287.00" xmlns="http://www.w3.org/2000/svg" xmlns:xlink="http://www.w3.org/1999/xlink">
<g id="graph0" class="graph" transform="scale(1 1) rotate(0) translate(4 283)">
<title>Ogre::VectorSet&lt; T, S &gt;</title>
<!-- Node1 -->
<g id="node1" class="node">
<title>Node1</title>
<g id="a_node1"><a xlink:title="VectorSet is basically a helper to use a vector as a small set container.">
<polygon fill="#bfbfbf" stroke="black" points="8.8,-0.5 8.8,-18.5 130.24,-18.5 130.24,-0.5 8.8,-0.5"/>
<text text-anchor="middle" x="69.52" y="-6.5" font-family="Helvetica,sans-Serif" font-size="10.00">Ogre::VectorSet&lt; T, S &gt;</text>
</a>
</g>
</g>
<!-- Node2 -->
<g id="node2" class="node">
<title>Node2</title>
<g id="a_node2"><a xlink:href="class_ogre_1_1_small_vector.html" target="_top" xlink:title=" ">
<polygon fill="none" stroke="black" points="18.02,-55.5 18.02,-83.5 121.01,-83.5 121.01,-55.5 18.02,-55.5"/>
<text text-anchor="start" x="26.02" y="-71.5" font-family="Helvetica,sans-Serif" font-size="10.00">Ogre::SmallVector&lt;</text>
<text text-anchor="middle" x="69.52" y="-61.5" font-family="Helvetica,sans-Serif" font-size="10.00"> T, S &gt;</text>
</a>
</g>
</g>
<!-- Node2&#45;&gt;Node1 -->
<g id="edge1" class="edge">
<title>Node2&#45;&gt;Node1</title>
<path fill="none" stroke="midnightblue" d="M69.52,-45.32C69.52,-35.94 69.52,-25.7 69.52,-18.77"/>
<polygon fill="midnightblue" stroke="midnightblue" points="66.02,-45.34 69.52,-55.34 73.02,-45.34 66.02,-45.34"/>
</g>
<!-- Node3 -->
<g id="node3" class="node">
<title>Node3</title>
<g id="a_node3"><a xlink:href="class_ogre_1_1_small_vector_impl.html" target="_top" xlink:title="SmallVectorImpl &#45; This class consists of common code factored out of the SmallVector class to reduce ...">
<polygon fill="none" stroke="black" points="0,-120.5 0,-138.5 139.03,-138.5 139.03,-120.5 0,-120.5"/>
<text text-anchor="middle" x="69.52" y="-126.5" font-family="Helvetica,sans-Serif" font-size="10.00">Ogre::SmallVectorImpl&lt; T &gt;</text>
</a>
</g>
</g>
<!-- Node3&#45;&gt;Node2 -->
<g id="edge2" class="edge">
<title>Node3&#45;&gt;Node2</title>
<path fill="none" stroke="midnightblue" d="M63.2,-110.32C62.48,-101.75 62.66,-91.7 63.73,-83.84"/>
<polygon fill="midnightblue" stroke="midnightblue" points="59.77,-111.04 64.67,-120.44 66.7,-110.04 59.77,-111.04"/>
</g>
<!-- Node3&#45;&gt;Node2 -->
<g id="edge7" class="edge">
<title>Node3&#45;&gt;Node2</title>
<path fill="none" stroke="midnightblue" d="M75.83,-110.32C76.55,-101.75 76.38,-91.7 75.3,-83.84"/>
<polygon fill="midnightblue" stroke="midnightblue" points="72.33,-110.04 74.36,-120.44 79.26,-111.04 72.33,-110.04"/>
</g>
<!-- Node4 -->
<g id="node4" class="node">
<title>Node4</title>
<g id="a_node4"><a xlink:href="class_ogre_1_1_small_vector_template_base.html" target="_top" xlink:title=" ">
<polygon fill="none" stroke="black" points="0.65,-175.5 0.65,-213.5 138.38,-213.5 138.38,-175.5 0.65,-175.5"/>
<text text-anchor="start" x="8.65" y="-201.5" font-family="Helvetica,sans-Serif" font-size="10.00">Ogre::SmallVectorTemplate</text>
<text text-anchor="start" x="8.65" y="-191.5" font-family="Helvetica,sans-Serif" font-size="10.00">Base&lt; T, isPodLike&lt; T &gt;</text>
<text text-anchor="middle" x="69.52" y="-181.5" font-family="Helvetica,sans-Serif" font-size="10.00">::value &gt;</text>
</a>
</g>
</g>
<!-- Node4&#45;&gt;Node3 -->
<g id="edge3" class="edge">
<title>Node4&#45;&gt;Node3</title>
<path fill="none" stroke="midnightblue" d="M62.8,-165.16C62.61,-155.54 63.27,-145.52 64.78,-138.74"/>
<polygon fill="midnightblue" stroke="midnightblue" points="59.31,-165.48 63.33,-175.28 66.3,-165.11 59.31,-165.48"/>
</g>
<!-- Node4&#45;&gt;Node3 -->
<g id="edge6" class="edge">
<title>Node4&#45;&gt;Node3</title>
<path fill="none" stroke="midnightblue" d="M76.24,-165.16C76.42,-155.54 75.76,-145.52 74.25,-138.74"/>
<polygon fill="midnightblue" stroke="midnightblue" points="72.73,-165.11 75.7,-175.28 79.72,-165.48 72.73,-165.11"/>
</g>
<!-- Node5 -->
<g id="node5" class="node">
<title>Node5</title>
<g id="a_node5"><a xlink:href="class_ogre_1_1_small_vector_template_common.html" target="_top" xlink:title=" ">
<polygon fill="none" stroke="red" points="0.65,-250.5 0.65,-278.5 138.38,-278.5 138.38,-250.5 0.65,-250.5"/>
<text text-anchor="start" x="8.65" y="-266.5" font-family="Helvetica,sans-Serif" font-size="10.00">Ogre::SmallVectorTemplate</text>
<text text-anchor="middle" x="69.52" y="-256.5" font-family="Helvetica,sans-Serif" font-size="10.00">Common&lt; T &gt;</text>
</a>
</g>
</g>
<!-- Node5&#45;&gt;Node4 -->
<g id="edge4" class="edge">
<title>Node5&#45;&gt;Node4</title>
<path fill="none" stroke="midnightblue" d="M63.07,-240.17C62.56,-231.52 62.69,-221.84 63.46,-213.71"/>
<polygon fill="midnightblue" stroke="midnightblue" points="59.61,-240.77 64.06,-250.39 66.58,-240.1 59.61,-240.77"/>
</g>
<!-- Node5&#45;&gt;Node4 -->
<g id="edge5" class="edge">
<title>Node5&#45;&gt;Node4</title>
<path fill="none" stroke="midnightblue" d="M75.96,-240.17C76.47,-231.52 76.34,-221.84 75.57,-213.71"/>
<polygon fill="midnightblue" stroke="midnightblue" points="72.45,-240.1 74.97,-250.39 79.42,-240.77 72.45,-240.1"/>
</g>
</g>
</svg>
