<?xml version="1.0" encoding="UTF-8" standalone="no"?>
<!DOCTYPE svg PUBLIC "-//W3C//DTD SVG 1.1//EN"
 "http://www.w3.org/Graphics/SVG/1.1/DTD/svg11.dtd">
<!-- Generated by graphviz version 2.43.0 (0)
 -->
<!-- Title: Ogre::v1::CbDrawCallStrip Pages: 1 -->
<svg width="142pt" height="137pt"
 viewBox="0.00 0.00 141.81 137.00" xmlns="http://www.w3.org/2000/svg" xmlns:xlink="http://www.w3.org/1999/xlink">
<g id="graph0" class="graph" transform="scale(1 1) rotate(0) translate(4 133)">
<title>Ogre::v1::CbDrawCallStrip</title>
<!-- Node1 -->
<g id="node1" class="node">
<title>Node1</title>
<g id="a_node1"><a xlink:title=" ">
<polygon fill="#bfbfbf" stroke="black" points="0,-0.5 0,-18.5 133.81,-18.5 133.81,-0.5 0,-0.5"/>
<text text-anchor="middle" x="66.91" y="-6.5" font-family="Helvetica,sans-Serif" font-size="10.00">Ogre::v1::CbDrawCallStrip</text>
</a>
</g>
</g>
<!-- Node2 -->
<g id="node2" class="node">
<title>Node2</title>
<g id="a_node2"><a xlink:href="struct_ogre_1_1v1_1_1_cb_draw_call.html" target="_top" xlink:title=" ">
<polygon fill="none" stroke="black" points="10.28,-55.5 10.28,-73.5 123.53,-73.5 123.53,-55.5 10.28,-55.5"/>
<text text-anchor="middle" x="66.91" y="-61.5" font-family="Helvetica,sans-Serif" font-size="10.00">Ogre::v1::CbDrawCall</text>
</a>
</g>
</g>
<!-- Node2&#45;&gt;Node1 -->
<g id="edge1" class="edge">
<title>Node2&#45;&gt;Node1</title>
<path fill="none" stroke="midnightblue" d="M66.91,-45.17C66.91,-36.09 66.91,-25.59 66.91,-18.55"/>
<polygon fill="midnightblue" stroke="midnightblue" points="63.41,-45.22 66.91,-55.22 70.41,-45.22 63.41,-45.22"/>
</g>
<!-- Node3 -->
<g id="node3" class="node">
<title>Node3</title>
<g id="a_node3"><a xlink:href="struct_ogre_1_1_cb_base.html" target="_top" xlink:title=" ">
<polygon fill="none" stroke="black" points="27.22,-110.5 27.22,-128.5 106.59,-128.5 106.59,-110.5 27.22,-110.5"/>
<text text-anchor="middle" x="66.91" y="-116.5" font-family="Helvetica,sans-Serif" font-size="10.00">Ogre::CbBase</text>
</a>
</g>
</g>
<!-- Node3&#45;&gt;Node2 -->
<g id="edge2" class="edge">
<title>Node3&#45;&gt;Node2</title>
<path fill="none" stroke="midnightblue" d="M66.91,-100.17C66.91,-91.09 66.91,-80.59 66.91,-73.55"/>
<polygon fill="midnightblue" stroke="midnightblue" points="63.41,-100.22 66.91,-110.22 70.41,-100.22 63.41,-100.22"/>
</g>
</g>
</svg>
