<?xml version="1.0" encoding="UTF-8" standalone="no"?>
<!DOCTYPE svg PUBLIC "-//W3C//DTD SVG 1.1//EN"
 "http://www.w3.org/Graphics/SVG/1.1/DTD/svg11.dtd">
<!-- Generated by graphviz version 2.43.0 (0)
 -->
<!-- Title: Ogre::NULLVertexArrayObject Pages: 1 -->
<svg width="158pt" height="137pt"
 viewBox="0.00 0.00 157.76 137.00" xmlns="http://www.w3.org/2000/svg" xmlns:xlink="http://www.w3.org/1999/xlink">
<g id="graph0" class="graph" transform="scale(1 1) rotate(0) translate(4 133)">
<title>Ogre::NULLVertexArrayObject</title>
<!-- Node1 -->
<g id="node1" class="node">
<title>Node1</title>
<g id="a_node1"><a xlink:title=" ">
<polygon fill="#bfbfbf" stroke="black" points="0,-0.5 0,-18.5 149.76,-18.5 149.76,-0.5 0,-0.5"/>
<text text-anchor="middle" x="74.88" y="-6.5" font-family="Helvetica,sans-Serif" font-size="10.00">Ogre::NULLVertexArrayObject</text>
</a>
</g>
</g>
<!-- Node2 -->
<g id="node2" class="node">
<title>Node2</title>
<g id="a_node2"><a xlink:href="struct_ogre_1_1_vertex_array_object.html" target="_top" xlink:title="Vertex array objects (Vaos) are immutable objects that describe a combination of vertex buffers and i...">
<polygon fill="none" stroke="black" points="12.41,-55.5 12.41,-73.5 137.35,-73.5 137.35,-55.5 12.41,-55.5"/>
<text text-anchor="middle" x="74.88" y="-61.5" font-family="Helvetica,sans-Serif" font-size="10.00">Ogre::VertexArrayObject</text>
</a>
</g>
</g>
<!-- Node2&#45;&gt;Node1 -->
<g id="edge1" class="edge">
<title>Node2&#45;&gt;Node1</title>
<path fill="none" stroke="midnightblue" d="M74.88,-45.17C74.88,-36.09 74.88,-25.59 74.88,-18.55"/>
<polygon fill="midnightblue" stroke="midnightblue" points="71.38,-45.22 74.88,-55.22 78.38,-45.22 71.38,-45.22"/>
</g>
<!-- Node3 -->
<g id="node3" class="node">
<title>Node3</title>
<g id="a_node3"><a xlink:href="class_ogre_1_1_allocated_object.html" target="_top" xlink:title="Superclass for all objects that wish to use custom memory allocators when their new / delete operator...">
<polygon fill="none" stroke="black" points="15.47,-110.5 15.47,-128.5 134.29,-128.5 134.29,-110.5 15.47,-110.5"/>
<text text-anchor="middle" x="74.88" y="-116.5" font-family="Helvetica,sans-Serif" font-size="10.00">VertexArrayObjectAlloc</text>
</a>
</g>
</g>
<!-- Node3&#45;&gt;Node2 -->
<g id="edge2" class="edge">
<title>Node3&#45;&gt;Node2</title>
<path fill="none" stroke="midnightblue" d="M74.88,-100.17C74.88,-91.09 74.88,-80.59 74.88,-73.55"/>
<polygon fill="midnightblue" stroke="midnightblue" points="71.38,-100.22 74.88,-110.22 78.38,-100.22 71.38,-100.22"/>
</g>
</g>
</svg>
