<?xml version="1.0" encoding="UTF-8" standalone="no"?>
<!DOCTYPE svg PUBLIC "-//W3C//DTD SVG 1.1//EN"
 "http://www.w3.org/Graphics/SVG/1.1/DTD/svg11.dtd">
<!-- Generated by graphviz version 2.43.0 (0)
 -->
<!-- Title: Ogre::CbSharedDraw Pages: 1 -->
<svg width="242pt" height="82pt"
 viewBox="0.00 0.00 241.98 82.00" xmlns="http://www.w3.org/2000/svg" xmlns:xlink="http://www.w3.org/1999/xlink">
<g id="graph0" class="graph" transform="scale(1 1) rotate(0) translate(4 78)">
<title>Ogre::CbSharedDraw</title>
<!-- Node1 -->
<g id="node1" class="node">
<title>Node1</title>
<g id="a_node1"><a xlink:title=" ">
<polygon fill="#bfbfbf" stroke="black" points="64.67,-55.5 64.67,-73.5 176.82,-73.5 176.82,-55.5 64.67,-55.5"/>
<text text-anchor="middle" x="120.75" y="-61.5" font-family="Helvetica,sans-Serif" font-size="10.00">Ogre::CbSharedDraw</text>
</a>
</g>
</g>
<!-- Node2 -->
<g id="node2" class="node">
<title>Node2</title>
<g id="a_node2"><a xlink:href="struct_ogre_1_1_cb_draw_indexed.html" target="_top" xlink:title=" ">
<polygon fill="none" stroke="black" points="0,-0.5 0,-18.5 115.49,-18.5 115.49,-0.5 0,-0.5"/>
<text text-anchor="middle" x="57.75" y="-6.5" font-family="Helvetica,sans-Serif" font-size="10.00">Ogre::CbDrawIndexed</text>
</a>
</g>
</g>
<!-- Node1&#45;&gt;Node2 -->
<g id="edge1" class="edge">
<title>Node1&#45;&gt;Node2</title>
<path fill="none" stroke="midnightblue" d="M103.42,-48.93C91.82,-39.16 76.97,-26.67 67.4,-18.63"/>
<polygon fill="midnightblue" stroke="midnightblue" points="101.27,-51.69 111.18,-55.45 105.78,-46.33 101.27,-51.69"/>
</g>
<!-- Node3 -->
<g id="node3" class="node">
<title>Node3</title>
<g id="a_node3"><a xlink:href="struct_ogre_1_1_cb_draw_strip.html" target="_top" xlink:title=" ">
<polygon fill="none" stroke="black" points="133.51,-0.5 133.51,-18.5 233.98,-18.5 233.98,-0.5 133.51,-0.5"/>
<text text-anchor="middle" x="183.75" y="-6.5" font-family="Helvetica,sans-Serif" font-size="10.00">Ogre::CbDrawStrip</text>
</a>
</g>
</g>
<!-- Node1&#45;&gt;Node3 -->
<g id="edge2" class="edge">
<title>Node1&#45;&gt;Node3</title>
<path fill="none" stroke="midnightblue" d="M138.07,-48.93C149.68,-39.16 164.53,-26.67 174.09,-18.63"/>
<polygon fill="midnightblue" stroke="midnightblue" points="135.71,-46.33 130.31,-55.45 140.22,-51.69 135.71,-46.33"/>
</g>
</g>
</svg>
