<?xml version="1.0" encoding="UTF-8" standalone="no"?>
<!DOCTYPE svg PUBLIC "-//W3C//DTD SVG 1.1//EN"
 "http://www.w3.org/Graphics/SVG/1.1/DTD/svg11.dtd">
<!-- Generated by graphviz version 2.43.0 (0)
 -->
<!-- Title: Ogre::GL3PlusVertexArrayObject Pages: 1 -->
<svg width="142pt" height="147pt"
 viewBox="0.00 0.00 142.39 147.00" xmlns="http://www.w3.org/2000/svg" xmlns:xlink="http://www.w3.org/1999/xlink">
<g id="graph0" class="graph" transform="scale(1 1) rotate(0) translate(4 143)">
<title>Ogre::GL3PlusVertexArrayObject</title>
<!-- Node1 -->
<g id="node1" class="node">
<title>Node1</title>
<g id="a_node1"><a xlink:title=" ">
<polygon fill="#bfbfbf" stroke="black" points="0,-0.5 0,-28.5 134.39,-28.5 134.39,-0.5 0,-0.5"/>
<text text-anchor="start" x="8" y="-16.5" font-family="Helvetica,sans-Serif" font-size="10.00">Ogre::GL3PlusVertexArray</text>
<text text-anchor="middle" x="67.19" y="-6.5" font-family="Helvetica,sans-Serif" font-size="10.00">Object</text>
</a>
</g>
</g>
<!-- Node2 -->
<g id="node2" class="node">
<title>Node2</title>
<g id="a_node2"><a xlink:href="struct_ogre_1_1_vertex_array_object.html" target="_top" xlink:title="Vertex array objects (Vaos) are immutable objects that describe a combination of vertex buffers and i...">
<polygon fill="none" stroke="black" points="4.73,-65.5 4.73,-83.5 129.66,-83.5 129.66,-65.5 4.73,-65.5"/>
<text text-anchor="middle" x="67.19" y="-71.5" font-family="Helvetica,sans-Serif" font-size="10.00">Ogre::VertexArrayObject</text>
</a>
</g>
</g>
<!-- Node2&#45;&gt;Node1 -->
<g id="edge1" class="edge">
<title>Node2&#45;&gt;Node1</title>
<path fill="none" stroke="midnightblue" d="M67.19,-55.32C67.19,-46.75 67.19,-36.7 67.19,-28.84"/>
<polygon fill="midnightblue" stroke="midnightblue" points="63.69,-55.44 67.19,-65.44 70.69,-55.44 63.69,-55.44"/>
</g>
<!-- Node3 -->
<g id="node3" class="node">
<title>Node3</title>
<g id="a_node3"><a xlink:href="class_ogre_1_1_allocated_object.html" target="_top" xlink:title="Superclass for all objects that wish to use custom memory allocators when their new / delete operator...">
<polygon fill="none" stroke="black" points="7.78,-120.5 7.78,-138.5 126.61,-138.5 126.61,-120.5 7.78,-120.5"/>
<text text-anchor="middle" x="67.19" y="-126.5" font-family="Helvetica,sans-Serif" font-size="10.00">VertexArrayObjectAlloc</text>
</a>
</g>
</g>
<!-- Node3&#45;&gt;Node2 -->
<g id="edge2" class="edge">
<title>Node3&#45;&gt;Node2</title>
<path fill="none" stroke="midnightblue" d="M67.19,-110.17C67.19,-101.09 67.19,-90.59 67.19,-83.55"/>
<polygon fill="midnightblue" stroke="midnightblue" points="63.69,-110.22 67.19,-120.22 70.69,-110.22 63.69,-110.22"/>
</g>
</g>
</svg>
