<?xml version="1.0" encoding="UTF-8" standalone="no"?>
<!DOCTYPE svg PUBLIC "-//W3C//DTD SVG 1.1//EN"
 "http://www.w3.org/Graphics/SVG/1.1/DTD/svg11.dtd">
<!-- Generated by graphviz version 2.43.0 (0)
 -->
<!-- Title: Ogre::CbDrawCallIndexed Pages: 1 -->
<svg width="141pt" height="137pt"
 viewBox="0.00 0.00 140.72 137.00" xmlns="http://www.w3.org/2000/svg" xmlns:xlink="http://www.w3.org/1999/xlink">
<g id="graph0" class="graph" transform="scale(1 1) rotate(0) translate(4 133)">
<title>Ogre::CbDrawCallIndexed</title>
<!-- Node1 -->
<g id="node1" class="node">
<title>Node1</title>
<g id="a_node1"><a xlink:title=" ">
<polygon fill="#bfbfbf" stroke="black" points="0,-0.5 0,-18.5 132.72,-18.5 132.72,-0.5 0,-0.5"/>
<text text-anchor="middle" x="66.36" y="-6.5" font-family="Helvetica,sans-Serif" font-size="10.00">Ogre::CbDrawCallIndexed</text>
</a>
</g>
</g>
<!-- Node2 -->
<g id="node2" class="node">
<title>Node2</title>
<g id="a_node2"><a xlink:href="struct_ogre_1_1_cb_draw_call.html" target="_top" xlink:title=" ">
<polygon fill="none" stroke="black" points="17.79,-55.5 17.79,-73.5 114.93,-73.5 114.93,-55.5 17.79,-55.5"/>
<text text-anchor="middle" x="66.36" y="-61.5" font-family="Helvetica,sans-Serif" font-size="10.00">Ogre::CbDrawCall</text>
</a>
</g>
</g>
<!-- Node2&#45;&gt;Node1 -->
<g id="edge1" class="edge">
<title>Node2&#45;&gt;Node1</title>
<path fill="none" stroke="midnightblue" d="M66.36,-45.17C66.36,-36.09 66.36,-25.59 66.36,-18.55"/>
<polygon fill="midnightblue" stroke="midnightblue" points="62.86,-45.22 66.36,-55.22 69.86,-45.22 62.86,-45.22"/>
</g>
<!-- Node3 -->
<g id="node3" class="node">
<title>Node3</title>
<g id="a_node3"><a xlink:href="struct_ogre_1_1_cb_base.html" target="_top" xlink:title=" ">
<polygon fill="none" stroke="black" points="26.68,-110.5 26.68,-128.5 106.04,-128.5 106.04,-110.5 26.68,-110.5"/>
<text text-anchor="middle" x="66.36" y="-116.5" font-family="Helvetica,sans-Serif" font-size="10.00">Ogre::CbBase</text>
</a>
</g>
</g>
<!-- Node3&#45;&gt;Node2 -->
<g id="edge2" class="edge">
<title>Node3&#45;&gt;Node2</title>
<path fill="none" stroke="midnightblue" d="M66.36,-100.17C66.36,-91.09 66.36,-80.59 66.36,-73.55"/>
<polygon fill="midnightblue" stroke="midnightblue" points="62.86,-100.22 66.36,-110.22 69.86,-100.22 62.86,-100.22"/>
</g>
</g>
</svg>
