<?xml version="1.0" encoding="UTF-8" standalone="no"?>
<!DOCTYPE svg PUBLIC "-//W3C//DTD SVG 1.1//EN"
 "http://www.w3.org/Graphics/SVG/1.1/DTD/svg11.dtd">
<!-- Generated by graphviz version 2.43.0 (0)
 -->
<!-- Title: Ogre::CbBase Pages: 1 -->
<svg width="453pt" height="462pt"
 viewBox="0.00 0.00 452.60 462.00" xmlns="http://www.w3.org/2000/svg" xmlns:xlink="http://www.w3.org/1999/xlink">
<g id="graph0" class="graph" transform="scale(1 1) rotate(0) translate(4 458)">
<title>Ogre::CbBase</title>
<!-- Node1 -->
<g id="node1" class="node">
<title>Node1</title>
<g id="a_node1"><a xlink:title=" ">
<polygon fill="#bfbfbf" stroke="black" points="0,-213.5 0,-231.5 79.36,-231.5 79.36,-213.5 0,-213.5"/>
<text text-anchor="middle" x="39.68" y="-219.5" font-family="Helvetica,sans-Serif" font-size="10.00">Ogre::CbBase</text>
</a>
</g>
</g>
<!-- Node2 -->
<g id="node2" class="node">
<title>Node2</title>
<g id="a_node2"><a xlink:href="struct_ogre_1_1_cb_draw_call.html" target="_top" xlink:title=" ">
<polygon fill="none" stroke="black" points="139,-417.5 139,-435.5 236.13,-435.5 236.13,-417.5 139,-417.5"/>
<text text-anchor="middle" x="187.57" y="-423.5" font-family="Helvetica,sans-Serif" font-size="10.00">Ogre::CbDrawCall</text>
</a>
</g>
</g>
<!-- Node1&#45;&gt;Node2 -->
<g id="edge1" class="edge">
<title>Node1&#45;&gt;Node2</title>
<path fill="none" stroke="midnightblue" d="M42.76,-242.16C47.87,-280.22 64.55,-364.09 115.36,-408.5 121.99,-414.29 130.21,-418.27 138.7,-420.99"/>
<polygon fill="midnightblue" stroke="midnightblue" points="46.2,-241.43 41.53,-231.92 39.25,-242.27 46.2,-241.43"/>
</g>
<!-- Node5 -->
<g id="node5" class="node">
<title>Node5</title>
<g id="a_node5"><a xlink:href="struct_ogre_1_1_cb_indirect_buffer.html" target="_top" xlink:title=" ">
<polygon fill="none" stroke="black" points="129.63,-380.5 129.63,-398.5 245.5,-398.5 245.5,-380.5 129.63,-380.5"/>
<text text-anchor="middle" x="187.57" y="-386.5" font-family="Helvetica,sans-Serif" font-size="10.00">Ogre::CbIndirectBuffer</text>
</a>
</g>
</g>
<!-- Node1&#45;&gt;Node5 -->
<g id="edge4" class="edge">
<title>Node1&#45;&gt;Node5</title>
<path fill="none" stroke="midnightblue" d="M44.73,-241.32C52.59,-273.14 72.99,-337.45 115.36,-371.5 119.94,-375.17 125.16,-378.11 130.66,-380.45"/>
<polygon fill="midnightblue" stroke="midnightblue" points="48.13,-240.47 42.46,-231.52 41.31,-242.05 48.13,-240.47"/>
</g>
<!-- Node6 -->
<g id="node6" class="node">
<title>Node6</title>
<g id="a_node6"><a xlink:href="struct_ogre_1_1_cb_low_level_material.html" target="_top" xlink:title=" ">
<polygon fill="none" stroke="black" points="120.37,-343.5 120.37,-361.5 254.76,-361.5 254.76,-343.5 120.37,-343.5"/>
<text text-anchor="middle" x="187.57" y="-349.5" font-family="Helvetica,sans-Serif" font-size="10.00">Ogre::CbLowLevelMaterial</text>
</a>
</g>
</g>
<!-- Node1&#45;&gt;Node6 -->
<g id="edge5" class="edge">
<title>Node1&#45;&gt;Node6</title>
<path fill="none" stroke="midnightblue" d="M48.02,-241.2C58.88,-266.35 81.63,-310.66 115.36,-334.5 120.57,-338.18 126.46,-341.11 132.57,-343.44"/>
<polygon fill="midnightblue" stroke="midnightblue" points="51.16,-239.62 44.1,-231.71 44.69,-242.29 51.16,-239.62"/>
</g>
<!-- Node7 -->
<g id="node7" class="node">
<title>Node7</title>
<g id="a_node7"><a xlink:href="struct_ogre_1_1_cb_pipeline_state_object.html" target="_top" xlink:title=" ">
<polygon fill="none" stroke="black" points="115.36,-306.5 115.36,-324.5 259.77,-324.5 259.77,-306.5 115.36,-306.5"/>
<text text-anchor="middle" x="187.57" y="-312.5" font-family="Helvetica,sans-Serif" font-size="10.00">Ogre::CbPipelineStateObject</text>
</a>
</g>
</g>
<!-- Node1&#45;&gt;Node7 -->
<g id="edge6" class="edge">
<title>Node1&#45;&gt;Node7</title>
<path fill="none" stroke="midnightblue" d="M53.3,-239.79C66.76,-256.99 89.66,-282.87 115.36,-297.5 121.79,-301.16 128.96,-304.08 136.21,-306.42"/>
<polygon fill="midnightblue" stroke="midnightblue" points="55.98,-237.54 47.15,-231.69 50.41,-241.77 55.98,-237.54"/>
</g>
<!-- Node8 -->
<g id="node8" class="node">
<title>Node8</title>
<g id="a_node8"><a xlink:href="struct_ogre_1_1_cb_samplers.html" target="_top" xlink:title=" ">
<polygon fill="none" stroke="black" points="138.16,-269.5 138.16,-287.5 236.97,-287.5 236.97,-269.5 138.16,-269.5"/>
<text text-anchor="middle" x="187.57" y="-275.5" font-family="Helvetica,sans-Serif" font-size="10.00">Ogre::CbSamplers</text>
</a>
</g>
</g>
<!-- Node1&#45;&gt;Node8 -->
<g id="edge7" class="edge">
<title>Node1&#45;&gt;Node8</title>
<path fill="none" stroke="midnightblue" d="M64.68,-236.45C79.03,-244.34 97.82,-253.91 115.36,-260.5 124.56,-263.95 134.66,-266.95 144.3,-269.47"/>
<polygon fill="midnightblue" stroke="midnightblue" points="66.39,-233.39 55.96,-231.55 62.97,-239.5 66.39,-233.39"/>
</g>
<!-- Node9 -->
<g id="node9" class="node">
<title>Node9</title>
<g id="a_node9"><a xlink:href="struct_ogre_1_1_cb_shader_buffer.html" target="_top" xlink:title=" ">
<polygon fill="none" stroke="black" points="129.91,-232.5 129.91,-250.5 245.23,-250.5 245.23,-232.5 129.91,-232.5"/>
<text text-anchor="middle" x="187.57" y="-238.5" font-family="Helvetica,sans-Serif" font-size="10.00">Ogre::CbShaderBuffer</text>
</a>
</g>
</g>
<!-- Node1&#45;&gt;Node9 -->
<g id="edge8" class="edge">
<title>Node1&#45;&gt;Node9</title>
<path fill="none" stroke="midnightblue" d="M89.49,-228.86C102.42,-230.54 116.5,-232.37 129.82,-234.11"/>
<polygon fill="midnightblue" stroke="midnightblue" points="89.76,-225.36 79.39,-227.54 88.86,-232.3 89.76,-225.36"/>
</g>
<!-- Node10 -->
<g id="node10" class="node">
<title>Node10</title>
<g id="a_node10"><a xlink:href="struct_ogre_1_1_cb_texture.html" target="_top" xlink:title=" ">
<polygon fill="none" stroke="black" points="142.88,-195.5 142.88,-213.5 232.25,-213.5 232.25,-195.5 142.88,-195.5"/>
<text text-anchor="middle" x="187.57" y="-201.5" font-family="Helvetica,sans-Serif" font-size="10.00">Ogre::CbTexture</text>
</a>
</g>
</g>
<!-- Node1&#45;&gt;Node10 -->
<g id="edge9" class="edge">
<title>Node1&#45;&gt;Node10</title>
<path fill="none" stroke="midnightblue" d="M89.78,-216.44C106.94,-214.32 126.08,-211.96 142.78,-209.9"/>
<polygon fill="midnightblue" stroke="midnightblue" points="88.89,-213.03 79.39,-217.72 89.75,-219.97 88.89,-213.03"/>
</g>
<!-- Node11 -->
<g id="node11" class="node">
<title>Node11</title>
<g id="a_node11"><a xlink:href="struct_ogre_1_1_cb_textures.html" target="_top" xlink:title=" ">
<polygon fill="none" stroke="black" points="140.38,-158.5 140.38,-176.5 234.75,-176.5 234.75,-158.5 140.38,-158.5"/>
<text text-anchor="middle" x="187.57" y="-164.5" font-family="Helvetica,sans-Serif" font-size="10.00">Ogre::CbTextures</text>
</a>
</g>
</g>
<!-- Node1&#45;&gt;Node11 -->
<g id="edge10" class="edge">
<title>Node1&#45;&gt;Node11</title>
<path fill="none" stroke="midnightblue" d="M66.32,-208.66C80.49,-201.39 98.59,-192.72 115.36,-186.5 125.56,-182.72 136.84,-179.36 147.35,-176.55"/>
<polygon fill="midnightblue" stroke="midnightblue" points="64.44,-205.69 57.19,-213.42 67.68,-211.9 64.44,-205.69"/>
</g>
<!-- Node12 -->
<g id="node12" class="node">
<title>Node12</title>
<g id="a_node12"><a xlink:href="struct_ogre_1_1_cb_vao.html" target="_top" xlink:title=" ">
<polygon fill="none" stroke="black" points="150.75,-121.5 150.75,-139.5 224.38,-139.5 224.38,-121.5 150.75,-121.5"/>
<text text-anchor="middle" x="187.57" y="-127.5" font-family="Helvetica,sans-Serif" font-size="10.00">Ogre::CbVao</text>
</a>
</g>
</g>
<!-- Node1&#45;&gt;Node12 -->
<g id="edge11" class="edge">
<title>Node1&#45;&gt;Node12</title>
<path fill="none" stroke="midnightblue" d="M53.65,-205.48C67.26,-188.81 90.14,-163.86 115.36,-149.5 126.04,-143.43 138.72,-139.23 150.4,-136.37"/>
<polygon fill="midnightblue" stroke="midnightblue" points="50.89,-203.34 47.42,-213.35 56.37,-207.69 50.89,-203.34"/>
</g>
<!-- Node13 -->
<g id="node13" class="node">
<title>Node13</title>
<g id="a_node13"><a xlink:href="struct_ogre_1_1v1_1_1_cb_draw_call.html" target="_top" xlink:title=" ">
<polygon fill="none" stroke="black" points="130.94,-84.5 130.94,-102.5 244.19,-102.5 244.19,-84.5 130.94,-84.5"/>
<text text-anchor="middle" x="187.57" y="-90.5" font-family="Helvetica,sans-Serif" font-size="10.00">Ogre::v1::CbDrawCall</text>
</a>
</g>
</g>
<!-- Node1&#45;&gt;Node13 -->
<g id="edge12" class="edge">
<title>Node1&#45;&gt;Node13</title>
<path fill="none" stroke="midnightblue" d="M48.16,-204.19C59.17,-179.56 82.1,-136.12 115.36,-112.5 121.21,-108.35 127.9,-105.11 134.79,-102.57"/>
<polygon fill="midnightblue" stroke="midnightblue" points="44.9,-202.92 44.17,-213.49 51.33,-205.67 44.9,-202.92"/>
</g>
<!-- Node16 -->
<g id="node16" class="node">
<title>Node16</title>
<g id="a_node16"><a xlink:href="struct_ogre_1_1v1_1_1_cb_render_op.html" target="_top" xlink:title=" ">
<polygon fill="none" stroke="black" points="128.15,-47.5 128.15,-65.5 246.98,-65.5 246.98,-47.5 128.15,-47.5"/>
<text text-anchor="middle" x="187.57" y="-53.5" font-family="Helvetica,sans-Serif" font-size="10.00">Ogre::v1::CbRenderOp</text>
</a>
</g>
</g>
<!-- Node1&#45;&gt;Node16 -->
<g id="edge15" class="edge">
<title>Node1&#45;&gt;Node16</title>
<path fill="none" stroke="midnightblue" d="M44.97,-203.54C53.1,-172.07 73.78,-109.18 115.36,-75.5 120.43,-71.39 126.31,-68.17 132.47,-65.64"/>
<polygon fill="midnightblue" stroke="midnightblue" points="41.57,-202.72 42.61,-213.26 48.37,-204.37 41.57,-202.72"/>
</g>
<!-- Node17 -->
<g id="node17" class="node">
<title>Node17</title>
<g id="a_node17"><a xlink:href="struct_ogre_1_1v1_1_1_cb_start_v1_legacy_rendering.html" target="_top" xlink:title=" ">
<polygon fill="none" stroke="black" points="118.42,-0.5 118.42,-28.5 256.71,-28.5 256.71,-0.5 118.42,-0.5"/>
<text text-anchor="start" x="126.42" y="-16.5" font-family="Helvetica,sans-Serif" font-size="10.00">Ogre::v1::CbStartV1Legacy</text>
<text text-anchor="middle" x="187.57" y="-6.5" font-family="Helvetica,sans-Serif" font-size="10.00">Rendering</text>
</a>
</g>
</g>
<!-- Node1&#45;&gt;Node17 -->
<g id="edge16" class="edge">
<title>Node1&#45;&gt;Node17</title>
<path fill="none" stroke="midnightblue" d="M43.14,-203.38C48.9,-166.32 66.68,-84.33 115.36,-38.5 119.54,-34.57 124.39,-31.28 129.55,-28.52"/>
<polygon fill="midnightblue" stroke="midnightblue" points="39.66,-202.96 41.72,-213.35 46.59,-203.95 39.66,-202.96"/>
</g>
<!-- Node3 -->
<g id="node3" class="node">
<title>Node3</title>
<g id="a_node3"><a xlink:href="struct_ogre_1_1_cb_draw_call_indexed.html" target="_top" xlink:title=" ">
<polygon fill="none" stroke="black" points="303.83,-435.5 303.83,-453.5 436.55,-453.5 436.55,-435.5 303.83,-435.5"/>
<text text-anchor="middle" x="370.19" y="-441.5" font-family="Helvetica,sans-Serif" font-size="10.00">Ogre::CbDrawCallIndexed</text>
</a>
</g>
</g>
<!-- Node2&#45;&gt;Node3 -->
<g id="edge2" class="edge">
<title>Node2&#45;&gt;Node3</title>
<path fill="none" stroke="midnightblue" d="M246.65,-432.29C264.84,-434.1 285.03,-436.11 303.69,-437.97"/>
<polygon fill="midnightblue" stroke="midnightblue" points="246.79,-428.79 236.49,-431.28 246.1,-435.75 246.79,-428.79"/>
</g>
<!-- Node4 -->
<g id="node4" class="node">
<title>Node4</title>
<g id="a_node4"><a xlink:href="struct_ogre_1_1_cb_draw_call_strip.html" target="_top" xlink:title=" ">
<polygon fill="none" stroke="black" points="311.34,-398.5 311.34,-416.5 429.03,-416.5 429.03,-398.5 311.34,-398.5"/>
<text text-anchor="middle" x="370.19" y="-404.5" font-family="Helvetica,sans-Serif" font-size="10.00">Ogre::CbDrawCallStrip</text>
</a>
</g>
</g>
<!-- Node2&#45;&gt;Node4 -->
<g id="edge3" class="edge">
<title>Node2&#45;&gt;Node4</title>
<path fill="none" stroke="midnightblue" d="M246.69,-420.39C267.28,-418.22 290.45,-415.78 311.04,-413.62"/>
<polygon fill="midnightblue" stroke="midnightblue" points="246.07,-416.93 236.49,-421.46 246.81,-423.89 246.07,-416.93"/>
</g>
<!-- Node14 -->
<g id="node14" class="node">
<title>Node14</title>
<g id="a_node14"><a xlink:href="struct_ogre_1_1v1_1_1_cb_draw_call_indexed.html" target="_top" xlink:title=" ">
<polygon fill="none" stroke="black" points="295.77,-103.5 295.77,-121.5 444.6,-121.5 444.6,-103.5 295.77,-103.5"/>
<text text-anchor="middle" x="370.19" y="-109.5" font-family="Helvetica,sans-Serif" font-size="10.00">Ogre::v1::CbDrawCallIndexed</text>
</a>
</g>
</g>
<!-- Node13&#45;&gt;Node14 -->
<g id="edge13" class="edge">
<title>Node13&#45;&gt;Node14</title>
<path fill="none" stroke="midnightblue" d="M254.35,-100.42C267.8,-101.83 282.04,-103.33 295.74,-104.77"/>
<polygon fill="midnightblue" stroke="midnightblue" points="254.54,-96.92 244.23,-99.36 253.81,-103.88 254.54,-96.92"/>
</g>
<!-- Node15 -->
<g id="node15" class="node">
<title>Node15</title>
<g id="a_node15"><a xlink:href="struct_ogre_1_1v1_1_1_cb_draw_call_strip.html" target="_top" xlink:title=" ">
<polygon fill="none" stroke="black" points="303.28,-66.5 303.28,-84.5 437.09,-84.5 437.09,-66.5 303.28,-66.5"/>
<text text-anchor="middle" x="370.19" y="-72.5" font-family="Helvetica,sans-Serif" font-size="10.00">Ogre::v1::CbDrawCallStrip</text>
</a>
</g>
</g>
<!-- Node13&#45;&gt;Node15 -->
<g id="edge14" class="edge">
<title>Node13&#45;&gt;Node15</title>
<path fill="none" stroke="midnightblue" d="M254.49,-86.93C270.38,-85.35 287.35,-83.66 303.24,-82.07"/>
<polygon fill="midnightblue" stroke="midnightblue" points="253.84,-83.48 244.23,-87.95 254.53,-90.44 253.84,-83.48"/>
</g>
</g>
</svg>
