<?xml version="1.0" encoding="UTF-8" standalone="no"?>
<!DOCTYPE svg PUBLIC "-//W3C//DTD SVG 1.1//EN"
 "http://www.w3.org/Graphics/SVG/1.1/DTD/svg11.dtd">
<!-- Generated by graphviz version 2.43.0 (0)
 -->
<!-- Title: Ogre::D3D11VertexArrayObject Pages: 1 -->
<svg width="163pt" height="137pt"
 viewBox="0.00 0.00 163.33 137.00" xmlns="http://www.w3.org/2000/svg" xmlns:xlink="http://www.w3.org/1999/xlink">
<g id="graph0" class="graph" transform="scale(1 1) rotate(0) translate(4 133)">
<title>Ogre::D3D11VertexArrayObject</title>
<!-- Node1 -->
<g id="node1" class="node">
<title>Node1</title>
<g id="a_node1"><a xlink:title=" ">
<polygon fill="#bfbfbf" stroke="black" points="0,-0.5 0,-18.5 155.33,-18.5 155.33,-0.5 0,-0.5"/>
<text text-anchor="middle" x="77.66" y="-6.5" font-family="Helvetica,sans-Serif" font-size="10.00">Ogre::D3D11VertexArrayObject</text>
</a>
</g>
</g>
<!-- Node2 -->
<g id="node2" class="node">
<title>Node2</title>
<g id="a_node2"><a xlink:href="struct_ogre_1_1_vertex_array_object.html" target="_top" xlink:title="Vertex array objects (Vaos) are immutable objects that describe a combination of vertex buffers and i...">
<polygon fill="none" stroke="black" points="15.2,-55.5 15.2,-73.5 140.13,-73.5 140.13,-55.5 15.2,-55.5"/>
<text text-anchor="middle" x="77.66" y="-61.5" font-family="Helvetica,sans-Serif" font-size="10.00">Ogre::VertexArrayObject</text>
</a>
</g>
</g>
<!-- Node2&#45;&gt;Node1 -->
<g id="edge1" class="edge">
<title>Node2&#45;&gt;Node1</title>
<path fill="none" stroke="midnightblue" d="M77.66,-45.17C77.66,-36.09 77.66,-25.59 77.66,-18.55"/>
<polygon fill="midnightblue" stroke="midnightblue" points="74.16,-45.22 77.66,-55.22 81.16,-45.22 74.16,-45.22"/>
</g>
<!-- Node3 -->
<g id="node3" class="node">
<title>Node3</title>
<g id="a_node3"><a xlink:href="class_ogre_1_1_allocated_object.html" target="_top" xlink:title="Superclass for all objects that wish to use custom memory allocators when their new / delete operator...">
<polygon fill="none" stroke="black" points="18.25,-110.5 18.25,-128.5 137.07,-128.5 137.07,-110.5 18.25,-110.5"/>
<text text-anchor="middle" x="77.66" y="-116.5" font-family="Helvetica,sans-Serif" font-size="10.00">VertexArrayObjectAlloc</text>
</a>
</g>
</g>
<!-- Node3&#45;&gt;Node2 -->
<g id="edge2" class="edge">
<title>Node3&#45;&gt;Node2</title>
<path fill="none" stroke="midnightblue" d="M77.66,-100.17C77.66,-91.09 77.66,-80.59 77.66,-73.55"/>
<polygon fill="midnightblue" stroke="midnightblue" points="74.16,-100.22 77.66,-110.22 81.16,-100.22 74.16,-100.22"/>
</g>
</g>
</svg>
