<?xml version="1.0" encoding="UTF-8" standalone="no"?>
<!DOCTYPE svg PUBLIC "-//W3C//DTD SVG 1.1//EN"
 "http://www.w3.org/Graphics/SVG/1.1/DTD/svg11.dtd">
<!-- Generated by graphviz version 2.43.0 (0)
 -->
<!-- Title: Ogre::RenderPassTargetBase Pages: 1 -->
<svg width="350pt" height="101pt"
 viewBox="0.00 0.00 350.03 101.00" xmlns="http://www.w3.org/2000/svg" xmlns:xlink="http://www.w3.org/1999/xlink">
<g id="graph0" class="graph" transform="scale(1 1) rotate(0) translate(4 97)">
<title>Ogre::RenderPassTargetBase</title>
<!-- Node1 -->
<g id="node1" class="node">
<title>Node1</title>
<g id="a_node1"><a xlink:title=" ">
<polygon fill="#bfbfbf" stroke="black" points="0,-37.5 0,-55.5 149.4,-55.5 149.4,-37.5 0,-37.5"/>
<text text-anchor="middle" x="74.7" y="-43.5" font-family="Helvetica,sans-Serif" font-size="10.00">Ogre::RenderPassTargetBase</text>
</a>
</g>
</g>
<!-- Node2 -->
<g id="node2" class="node">
<title>Node2</title>
<g id="a_node2"><a xlink:href="struct_ogre_1_1_render_pass_colour_target.html" target="_top" xlink:title=" ">
<polygon fill="none" stroke="black" points="185.68,-74.5 185.68,-92.5 341.75,-92.5 341.75,-74.5 185.68,-74.5"/>
<text text-anchor="middle" x="263.72" y="-80.5" font-family="Helvetica,sans-Serif" font-size="10.00">Ogre::RenderPassColourTarget</text>
</a>
</g>
</g>
<!-- Node1&#45;&gt;Node2 -->
<g id="edge1" class="edge">
<title>Node1&#45;&gt;Node2</title>
<path fill="none" stroke="midnightblue" d="M131.28,-57.5C158.64,-62.91 191.23,-69.36 217.12,-74.48"/>
<polygon fill="midnightblue" stroke="midnightblue" points="131.94,-54.06 121.45,-55.55 130.58,-60.93 131.94,-54.06"/>
</g>
<!-- Node3 -->
<g id="node3" class="node">
<title>Node3</title>
<g id="a_node3"><a xlink:href="struct_ogre_1_1_render_pass_depth_target.html" target="_top" xlink:title=" ">
<polygon fill="none" stroke="black" points="187.07,-37.5 187.07,-55.5 340.36,-55.5 340.36,-37.5 187.07,-37.5"/>
<text text-anchor="middle" x="263.72" y="-43.5" font-family="Helvetica,sans-Serif" font-size="10.00">Ogre::RenderPassDepthTarget</text>
</a>
</g>
</g>
<!-- Node1&#45;&gt;Node3 -->
<g id="edge2" class="edge">
<title>Node1&#45;&gt;Node3</title>
<path fill="none" stroke="midnightblue" d="M159.75,-46.5C168.79,-46.5 177.95,-46.5 186.89,-46.5"/>
<polygon fill="midnightblue" stroke="midnightblue" points="159.61,-43 149.61,-46.5 159.61,-50 159.61,-43"/>
</g>
<!-- Node4 -->
<g id="node4" class="node">
<title>Node4</title>
<g id="a_node4"><a xlink:href="struct_ogre_1_1_render_pass_stencil_target.html" target="_top" xlink:title=" ">
<polygon fill="none" stroke="black" points="185.4,-0.5 185.4,-18.5 342.03,-18.5 342.03,-0.5 185.4,-0.5"/>
<text text-anchor="middle" x="263.72" y="-6.5" font-family="Helvetica,sans-Serif" font-size="10.00">Ogre::RenderPassStencilTarget</text>
</a>
</g>
</g>
<!-- Node1&#45;&gt;Node4 -->
<g id="edge3" class="edge">
<title>Node1&#45;&gt;Node4</title>
<path fill="none" stroke="midnightblue" d="M131.28,-35.5C158.64,-30.09 191.23,-23.64 217.12,-18.52"/>
<polygon fill="midnightblue" stroke="midnightblue" points="130.58,-32.07 121.45,-37.45 131.94,-38.94 130.58,-32.07"/>
</g>
</g>
</svg>
