<?xml version="1.0" encoding="UTF-8" standalone="no"?>
<!DOCTYPE svg PUBLIC "-//W3C//DTD SVG 1.1//EN"
 "http://www.w3.org/Graphics/SVG/1.1/DTD/svg11.dtd">
<!-- Generated by graphviz version 2.43.0 (0)
 -->
<!-- Title: Ogre::VertexArrayObject Pages: 1 -->
<svg width="481pt" height="148pt"
 viewBox="0.00 0.00 480.93 148.00" xmlns="http://www.w3.org/2000/svg" xmlns:xlink="http://www.w3.org/1999/xlink">
<g id="graph0" class="graph" transform="scale(1 1) rotate(0) translate(4 144)">
<title>Ogre::VertexArrayObject</title>
<!-- Node1 -->
<g id="node1" class="node">
<title>Node1</title>
<g id="a_node1"><a xlink:title="Vertex array objects (Vaos) are immutable objects that describe a combination of vertex buffers and i...">
<polygon fill="#bfbfbf" stroke="black" points="154.82,-58.5 154.82,-76.5 279.76,-76.5 279.76,-58.5 154.82,-58.5"/>
<text text-anchor="middle" x="217.29" y="-64.5" font-family="Helvetica,sans-Serif" font-size="10.00">Ogre::VertexArrayObject</text>
</a>
</g>
</g>
<!-- Node3 -->
<g id="node3" class="node">
<title>Node3</title>
<g id="a_node3"><a xlink:href="struct_ogre_1_1_d3_d11_vertex_array_object.html" target="_top" xlink:title=" ">
<polygon fill="none" stroke="black" points="316.68,-121.5 316.68,-139.5 472.01,-139.5 472.01,-121.5 316.68,-121.5"/>
<text text-anchor="middle" x="394.35" y="-127.5" font-family="Helvetica,sans-Serif" font-size="10.00">Ogre::D3D11VertexArrayObject</text>
</a>
</g>
</g>
<!-- Node1&#45;&gt;Node3 -->
<g id="edge2" class="edge">
<title>Node1&#45;&gt;Node3</title>
<path fill="none" stroke="midnightblue" d="M244.16,-81.22C263.47,-91.01 290.72,-103.92 315.76,-112.5 325.83,-115.95 336.86,-118.96 347.37,-121.47"/>
<polygon fill="midnightblue" stroke="midnightblue" points="245.6,-78.02 235.11,-76.55 242.4,-84.24 245.6,-78.02"/>
</g>
<!-- Node4 -->
<g id="node4" class="node">
<title>Node4</title>
<g id="a_node4"><a xlink:href="struct_ogre_1_1_g_l3_plus_vertex_array_object.html" target="_top" xlink:title=" ">
<polygon fill="none" stroke="black" points="327.15,-74.5 327.15,-102.5 461.54,-102.5 461.54,-74.5 327.15,-74.5"/>
<text text-anchor="start" x="335.15" y="-90.5" font-family="Helvetica,sans-Serif" font-size="10.00">Ogre::GL3PlusVertexArray</text>
<text text-anchor="middle" x="394.35" y="-80.5" font-family="Helvetica,sans-Serif" font-size="10.00">Object</text>
</a>
</g>
</g>
<!-- Node1&#45;&gt;Node4 -->
<g id="edge3" class="edge">
<title>Node1&#45;&gt;Node4</title>
<path fill="none" stroke="midnightblue" d="M290.16,-76.12C302.4,-77.59 315.06,-79.11 327.13,-80.56"/>
<polygon fill="midnightblue" stroke="midnightblue" points="290.35,-72.62 280.01,-74.9 289.52,-79.57 290.35,-72.62"/>
</g>
<!-- Node5 -->
<g id="node5" class="node">
<title>Node5</title>
<g id="a_node5"><a xlink:href="struct_ogre_1_1_g_l_e_s2_vertex_array_object.html" target="_top" xlink:title=" ">
<polygon fill="none" stroke="black" points="315.76,-37.5 315.76,-55.5 472.93,-55.5 472.93,-37.5 315.76,-37.5"/>
<text text-anchor="middle" x="394.35" y="-43.5" font-family="Helvetica,sans-Serif" font-size="10.00">Ogre::GLES2VertexArrayObject</text>
</a>
</g>
</g>
<!-- Node1&#45;&gt;Node5 -->
<g id="edge4" class="edge">
<title>Node1&#45;&gt;Node5</title>
<path fill="none" stroke="midnightblue" d="M289.95,-58.9C299.22,-57.79 308.74,-56.65 318.07,-55.53"/>
<polygon fill="midnightblue" stroke="midnightblue" points="289.52,-55.43 280.01,-60.1 290.35,-62.38 289.52,-55.43"/>
</g>
<!-- Node6 -->
<g id="node6" class="node">
<title>Node6</title>
<g id="a_node6"><a xlink:href="struct_ogre_1_1_n_u_l_l_vertex_array_object.html" target="_top" xlink:title=" ">
<polygon fill="none" stroke="black" points="319.46,-0.5 319.46,-18.5 469.23,-18.5 469.23,-0.5 319.46,-0.5"/>
<text text-anchor="middle" x="394.35" y="-6.5" font-family="Helvetica,sans-Serif" font-size="10.00">Ogre::NULLVertexArrayObject</text>
</a>
</g>
</g>
<!-- Node1&#45;&gt;Node6 -->
<g id="edge5" class="edge">
<title>Node1&#45;&gt;Node6</title>
<path fill="none" stroke="midnightblue" d="M247.09,-54.24C266.26,-45.78 292.16,-35.02 315.76,-27.5 326.3,-24.14 337.83,-21.12 348.7,-18.56"/>
<polygon fill="midnightblue" stroke="midnightblue" points="245.43,-51.15 237.73,-58.43 248.29,-57.54 245.43,-51.15"/>
</g>
<!-- Node2 -->
<g id="node2" class="node">
<title>Node2</title>
<g id="a_node2"><a xlink:href="class_ogre_1_1_allocated_object.html" target="_top" xlink:title="Superclass for all objects that wish to use custom memory allocators when their new / delete operator...">
<polygon fill="none" stroke="black" points="0,-58.5 0,-76.5 118.82,-76.5 118.82,-58.5 0,-58.5"/>
<text text-anchor="middle" x="59.41" y="-64.5" font-family="Helvetica,sans-Serif" font-size="10.00">VertexArrayObjectAlloc</text>
</a>
</g>
</g>
<!-- Node2&#45;&gt;Node1 -->
<g id="edge1" class="edge">
<title>Node2&#45;&gt;Node1</title>
<path fill="none" stroke="midnightblue" d="M129.14,-67.5C137.62,-67.5 146.25,-67.5 154.61,-67.5"/>
<polygon fill="midnightblue" stroke="midnightblue" points="128.9,-64 118.9,-67.5 128.9,-71 128.9,-64"/>
</g>
</g>
</svg>
